<?xml version="1.0" encoding="UTF-8" standalone="no"?>
<svg width="16px" height="9px" viewBox="0 0 16 9" version="1.1" xmlns="http://www.w3.org/2000/svg" xmlns:xlink="http://www.w3.org/1999/xlink">
    <!-- Generator: sketchtool 3.7.1 (28215) - http://www.bohemiancoding.com/sketch -->
    <title>7D1F328A-DB04-4B4C-83EF-6A8FB6CD7AF9</title>
    <desc>Created with sketchtool.</desc>
    <defs></defs>
    <g id="Desktop" stroke="none" stroke-width="1" fill="none" fill-rule="evenodd">
        <g id="960_Home" transform="translate(-750.000000, -2642.000000)" fill="#FFFFFF">
            <g id="PRODUCTS" transform="translate(-81.000000, 2433.000000)">
                <g id="Select" transform="translate(625.000000, 0.000000)">
                    <g id="Go" transform="translate(129.000000, 199.000000)">
                        <g id="5" transform="translate(76.000000, 5.000000)">
                            <path d="M5.40343848,14.338153 L8.64343554,14.338153 C8.96965417,14.338153 9.23410662,14.6026054 9.23410662,14.928824 C9.23410662,15.2550427 8.96965417,15.5194951 8.64343554,15.5194951 L3.91806692,15.5194951 C3.5918483,15.5194951 3.32739585,15.2550427 3.32739585,14.928824 L3.32739585,10.2034554 C3.32739585,9.8772368 3.5918483,9.61278435 3.91806692,9.61278435 C4.24428555,9.61278435 4.508738,9.8772368 4.508738,10.2034554 L4.508738,13.5621834 L13.8633604,4.20756092 C14.0873152,3.98360618 14.4627957,3.98211785 14.6934671,4.21278926 C14.9173924,4.43671452 14.9264794,4.8151121 14.6986955,5.04289597 L5.40343848,14.338153 Z" id="Rectangle-348" transform="translate(9.096455, 9.779591) rotate(-135.000000) translate(-9.096455, -9.779591) "></path>
                        </g>
                    </g>
                </g>
            </g>
        </g>
    </g>
</svg>