<?xml version="1.0" encoding="utf-8"?>
<!-- Generator: Adobe Illustrator 17.0.0, SVG Export Plug-In . SVG Version: 6.00 Build 0)  -->
<!DOCTYPE svg PUBLIC "-//W3C//DTD SVG 1.1//EN" "http://www.w3.org/Graphics/SVG/1.1/DTD/svg11.dtd">
<svg version="1.1" id="Layer_1" xmlns="http://www.w3.org/2000/svg" xmlns:xlink="http://www.w3.org/1999/xlink" x="0px" y="0px"
	 width="458.085px" height="210.229px" viewBox="-106.164 -39.459 458.085 210.229"
	 enable-background="new -106.164 -39.459 458.085 210.229" xml:space="preserve">
<g>
	<g>
		<path fill="#E3C000" d="M-79.649,42.565c0,0-0.577-7.717,9.231-9.087C-70.418,33.478-69.768,42.132-79.649,42.565z"/>
		<path fill="#E3C000" d="M-83.201,47.848c0,0,3.462-6.921,12.585-3.068C-70.616,44.78-74.496,52.543-83.201,47.848z"/>
		<path fill="#E3C000" d="M-83.472,34.511c0,0,5.619,5.321-0.715,12.934C-84.187,47.444-90.49,41.478-83.472,34.511z"/>
		<path fill="#E3C000" d="M-88.184,55.18c0,0,2.638-7.275,12.145-4.503C-76.038,50.677-78.994,58.837-88.184,55.18z"/>
		<path fill="#E3C000" d="M-89.996,41.964c0,0,6.197,4.635,0.786,12.93C-89.21,54.893-96.161,49.697-89.996,41.964z"/>
		<path fill="#E3C000" d="M-91.722,63.371c0,0,1.307-7.627,11.155-6.584C-80.567,56.787-82.031,65.341-91.722,63.371z"/>
		<path fill="#E3C000" d="M-95.848,50.684c0,0,6.92,3.464,3.064,12.586C-92.784,63.27-100.546,59.387-95.848,50.684z"/>
		<path fill="#E3C000" d="M-93.606,72.024c0,0,0.376-7.729,10.278-7.884C-83.328,64.141-83.748,72.809-93.606,72.024z"/>
		<path fill="#E3C000" d="M-99.235,59.929c0,0,7.288,2.602,4.562,12.123C-94.672,72.053-102.846,69.136-99.235,59.929z"/>
		<path fill="#E3C000" d="M-94.631,80.877c0,0-0.683-7.708,9.106-9.213C-85.525,71.664-84.757,80.309-94.631,80.877z"/>
		<path fill="#E3C000" d="M-101.858,69.663c0,0,7.575,1.583,6.175,11.387C-95.683,81.05-104.179,79.277-101.858,69.663z"/>
		<path fill="#E3C000" d="M-93.909,89.685c0,0-2.257-7.402,7.01-10.892C-86.899,78.792-84.365,87.093-93.909,89.685z"/>
		<path fill="#E3C000" d="M-103.293,80.202c0,0,7.738-0.013,8.39,9.869C-94.903,90.071-103.582,90.088-103.293,80.202z"/>
		<path fill="#E3C000" d="M-92.071,98.672c0,0-3.565-6.868,4.915-11.985C-87.156,86.687-83.156,94.389-92.071,98.672z"/>
		<path fill="#E3C000" d="M-103.021,91.052c0,0,7.607-1.419,10.044,8.18C-92.978,99.233-101.509,100.826-103.021,91.052z"/>
		<path fill="#E3C000" d="M-88.826,107.092c0,0-4.519-6.281,3.132-12.569C-85.694,94.523-80.624,101.567-88.826,107.092z"/>
		<path fill="#E3C000" d="M-100.763,100.629c0,0,7.322-2.503,11.12,6.644C-89.643,107.273-97.854,110.082-100.763,100.629z"/>
		<path fill="#E3C000" d="M-83.605,114.82c0,0-5.668-5.268,0.595-12.94C-83.01,101.881-76.652,107.788-83.605,114.82z"/>
		<path fill="#E3C000" d="M-96.58,110.835c0,0,6.686-3.896,12.21,4.324C-84.37,115.159-91.868,119.53-96.58,110.835z"/>
		<path fill="#E3C000" d="M-78.031,122.082c0,0-6.375-4.386-1.296-12.888C-79.327,109.194-72.176,114.112-78.031,122.082z"/>
		<path fill="#E3C000" d="M-91.448,120.03c0,0,6.047-4.828,12.71,2.499C-78.738,122.529-85.519,127.945-91.448,120.03z"/>
		<path fill="#E3C000" d="M-71.483,127.911c0,0-6.498-3.672-2.342-12.273C-73.826,115.638-66.537,119.755-71.483,127.911z"/>
		<path fill="#E3C000" d="M-84.549,127.08c0,0,5.399-5.153,12.424,1.319C-72.125,128.4-78.179,134.181-84.549,127.08z"/>
		<path fill="#E3C000" d="M-63.676,132.531c0,0-7.07-2.392-4.595-11.618C-68.271,120.912-60.341,123.594-63.676,132.531z"/>
		<path fill="#E3C000" d="M-76.667,134.158c0,0,4.341-6.072,12.452-1.027C-64.215,133.131-69.082,139.942-76.667,134.158z"/>
		<path fill="#E3C000" d="M-55.629,136.404c0,0-7.335-1.383-6.171-10.864C-61.799,125.54-53.573,127.089-55.629,136.404z"/>
		<path fill="#E3C000" d="M-68.266,139.827c0,0,3.451-6.618,12.187-2.753C-56.079,137.074-59.948,144.497-68.266,139.827z"/>
		<path fill="#E3C000" d="M-47.559,138.392c0,0-7.46-0.238-7.769-9.785C-55.329,128.607-46.962,128.872-47.559,138.392z"/>
		<path fill="#E3C000" d="M-59.519,143.719c0,0,2.392-7.07,11.618-4.596C-47.901,139.123-50.582,147.053-59.519,143.719z"/>
	</g>
	<g>
		<path fill="#E3C000" d="M327.252,42.565c0,0,0.577-7.717-9.231-9.087C318.021,33.478,317.372,42.132,327.252,42.565z"/>
		<path fill="#E3C000" d="M330.804,47.848c0,0-3.462-6.921-12.585-3.068C318.219,44.78,322.1,52.543,330.804,47.848z"/>
		<path fill="#E3C000" d="M331.076,34.511c0,0-5.619,5.321,0.715,12.934C331.791,47.444,338.094,41.478,331.076,34.511z"/>
		<path fill="#E3C000" d="M335.787,55.18c0,0-2.638-7.275-12.145-4.503C323.642,50.677,326.598,58.837,335.787,55.18z"/>
		<path fill="#E3C000" d="M337.6,41.964c0,0-6.197,4.635-0.786,12.93C336.814,54.893,343.765,49.697,337.6,41.964z"/>
		<path fill="#E3C000" d="M339.326,63.371c0,0-1.307-7.627-11.155-6.584C328.17,56.787,329.634,65.341,339.326,63.371z"/>
		<path fill="#E3C000" d="M343.452,50.684c0,0-6.92,3.464-3.064,12.586C340.387,63.27,348.149,59.387,343.452,50.684z"/>
		<path fill="#E3C000" d="M341.21,72.024c0,0-0.376-7.729-10.278-7.884C330.931,64.141,331.351,72.809,341.21,72.024z"/>
		<path fill="#E3C000" d="M346.838,59.929c0,0-7.288,2.602-4.562,12.123C342.276,72.053,350.449,69.136,346.838,59.929z"/>
		<path fill="#E3C000" d="M342.234,80.877c0,0,0.683-7.708-9.106-9.213C333.129,71.664,332.361,80.309,342.234,80.877z"/>
		<path fill="#E3C000" d="M349.461,69.663c0,0-7.575,1.583-6.175,11.387C343.286,81.05,351.782,79.277,349.461,69.663z"/>
		<path fill="#E3C000" d="M341.513,89.685c0,0,2.257-7.402-7.01-10.892C334.503,78.792,331.969,87.093,341.513,89.685z"/>
		<path fill="#E3C000" d="M350.897,80.202c0,0-7.738-0.013-8.39,9.869C342.507,90.071,351.185,90.088,350.897,80.202z"/>
		<path fill="#E3C000" d="M339.674,98.672c0,0,3.565-6.868-4.915-11.985C334.759,86.687,330.76,94.389,339.674,98.672z"/>
		<path fill="#E3C000" d="M350.625,91.052c0,0-7.607-1.419-10.044,8.18C340.581,99.233,349.112,100.826,350.625,91.052z"/>
		<path fill="#E3C000" d="M336.43,107.092c0,0,4.519-6.281-3.132-12.569C333.298,94.523,328.228,101.567,336.43,107.092z"/>
		<path fill="#E3C000" d="M348.366,100.629c0,0-7.322-2.503-11.12,6.644C337.246,107.273,345.458,110.082,348.366,100.629z"/>
		<path fill="#E3C000" d="M331.209,114.82c0,0,5.668-5.268-0.595-12.94C330.613,101.881,324.255,107.788,331.209,114.82z"/>
		<path fill="#E3C000" d="M344.184,110.835c0,0-6.686-3.896-12.21,4.324C331.973,115.159,339.471,119.53,344.184,110.835z"/>
		<path fill="#E3C000" d="M325.634,122.082c0,0,6.375-4.386,1.296-12.888C326.93,109.194,319.779,114.112,325.634,122.082z"/>
		<path fill="#E3C000" d="M339.051,120.03c0,0-6.047-4.828-12.71,2.499C326.341,122.529,333.122,127.945,339.051,120.03z"/>
		<path fill="#E3C000" d="M319.087,127.911c0,0,6.498-3.672,2.342-12.273C321.429,115.638,314.14,119.755,319.087,127.911z"/>
		<path fill="#E3C000" d="M332.153,127.08c0,0-5.399-5.153-12.424,1.319C319.729,128.4,325.783,134.181,332.153,127.08z"/>
		<path fill="#E3C000" d="M311.28,132.531c0,0,7.07-2.392,4.595-11.618C315.875,120.912,307.945,123.594,311.28,132.531z"/>
		<path fill="#E3C000" d="M324.27,134.158c0,0-4.341-6.072-12.452-1.027C311.819,133.131,316.685,139.942,324.27,134.158z"/>
		<path fill="#E3C000" d="M303.232,136.404c0,0,7.335-1.383,6.171-10.864C309.403,125.54,301.177,127.089,303.232,136.404z"/>
		<path fill="#E3C000" d="M315.869,139.827c0,0-3.451-6.618-12.187-2.753C303.682,137.074,307.551,144.497,315.869,139.827z"/>
		<path fill="#E3C000" d="M295.163,138.392c0,0,7.46-0.238,7.769-9.785C302.932,128.607,294.565,128.872,295.163,138.392z"/>
		<path fill="#E3C000" d="M307.123,143.719c0,0-2.392-7.07-11.618-4.596C295.505,139.123,298.185,147.053,307.123,143.719z"/>
	</g>
</g>
<g>
	<g>
		<circle fill="#E3C000" cx="123.644" cy="-13.909" r="25.55"/>
		<g id="Dyyigc.tif">
			<g>
				<path fill="#FFFFFF" d="M130.652,0.374c-0.286-0.044-0.808-0.086-1.31-0.208c-5.185-1.26-9.454-4.006-13.134-7.843
					c-3.249-3.387-5.459-7.295-6.61-11.816c-0.735-2.886,0.219-5.367,2.126-7.485c0.969-1.077,2.422-1.16,3.797-1.212
					c0.191-0.007,0.451,0.184,0.577,0.357c0.328,0.452,0.608,0.94,0.892,1.423c0.791,1.343,1.564,2.696,2.365,4.032
					c0.561,0.936,0.559,1.338-0.251,2.109c-0.721,0.686-1.519,1.288-2.26,1.954c-0.908,0.817-0.918,1.179-0.353,2.257
					c2.14,4.079,5.256,7.167,9.322,9.318c1.054,0.557,1.465,0.522,2.256-0.377c0.658-0.748,1.28-1.528,1.95-2.264
					c0.649-0.712,1.187-0.757,2.013-0.277c1.609,0.935,3.22,1.866,4.84,2.784c1.104,0.625,1.141,0.825,1.021,2.084
					c-0.209,2.189-1.522,3.442-3.374,4.322C133.365,0.078,132.161,0.375,130.652,0.374z"/>
			</g>
		</g>
	</g>
	<g>
		<g>
			<path fill="#E3C000" d="M-48.28-13.691l-3.425-0.498c-0.166-0.024-0.309-0.128-0.383-0.278l-1.532-3.104
				c-0.187-0.378-0.726-0.378-0.913,0l-1.532,3.104c-0.074,0.15-0.217,0.254-0.383,0.278l-3.425,0.498
				c-0.417,0.061-0.584,0.574-0.282,0.868l2.478,2.416c0.12,0.117,0.175,0.285,0.146,0.45l-0.585,3.411
				c-0.071,0.416,0.365,0.733,0.738,0.536l3.063-1.611c0.148-0.078,0.325-0.078,0.474,0l3.064,1.611
				c0.373,0.196,0.81-0.121,0.738-0.536l-0.585-3.411c-0.028-0.165,0.027-0.334,0.146-0.45l2.478-2.416
				C-47.696-13.118-47.863-13.63-48.28-13.691z"/>
			<path fill="#E3C000" d="M-15.456-13.691l-3.425-0.498c-0.166-0.024-0.309-0.128-0.383-0.278l-1.532-3.104
				c-0.187-0.378-0.726-0.378-0.913,0l-1.532,3.104c-0.074,0.15-0.217,0.254-0.383,0.278l-3.425,0.498
				c-0.417,0.061-0.584,0.574-0.282,0.868l2.478,2.416c0.12,0.117,0.175,0.285,0.146,0.45l-0.585,3.411
				c-0.071,0.416,0.365,0.733,0.738,0.536l3.064-1.611c0.148-0.078,0.325-0.078,0.474,0l3.063,1.611
				c0.373,0.196,0.81-0.121,0.738-0.536l-0.585-3.411c-0.028-0.165,0.026-0.334,0.146-0.45l2.478-2.416
				C-14.872-13.118-15.039-13.63-15.456-13.691z"/>
			<path fill="#E3C000" d="M15.522-13.691l-3.425-0.498c-0.166-0.024-0.309-0.128-0.383-0.278l-1.532-3.104
				c-0.187-0.378-0.726-0.378-0.913,0l-1.532,3.104c-0.074,0.15-0.217,0.254-0.383,0.278l-3.425,0.498
				c-0.417,0.061-0.584,0.574-0.282,0.868l2.478,2.416c0.12,0.117,0.175,0.285,0.146,0.45L5.687-6.546
				C5.616-6.13,6.052-5.813,6.425-6.009L9.489-7.62c0.148-0.078,0.325-0.078,0.474,0l3.064,1.611
				c0.373,0.196,0.81-0.121,0.738-0.536l-0.585-3.411c-0.028-0.165,0.027-0.334,0.146-0.45l2.478-2.416
				C16.106-13.118,15.939-13.63,15.522-13.691z"/>
		</g>
		<g>
			<path fill="#E3C000" d="M243.359-13.691l-3.425-0.498c-0.166-0.024-0.309-0.128-0.383-0.278l-1.532-3.104
				c-0.187-0.378-0.726-0.378-0.913,0l-1.532,3.104c-0.074,0.15-0.217,0.254-0.383,0.278l-3.425,0.498
				c-0.417,0.061-0.584,0.574-0.282,0.868l2.478,2.416c0.12,0.117,0.175,0.285,0.147,0.45l-0.585,3.411
				c-0.071,0.416,0.365,0.733,0.738,0.536l3.064-1.611c0.148-0.078,0.325-0.078,0.474,0l3.063,1.611
				c0.373,0.196,0.81-0.121,0.738-0.536l-0.585-3.411c-0.028-0.165,0.027-0.334,0.146-0.45l2.478-2.416
				C243.943-13.118,243.777-13.63,243.359-13.691z"/>
			<path fill="#E3C000" d="M276.183-13.691l-3.425-0.498c-0.166-0.024-0.309-0.128-0.383-0.278l-1.532-3.104
				c-0.187-0.378-0.726-0.378-0.913,0l-1.532,3.104c-0.074,0.15-0.217,0.254-0.383,0.278l-3.425,0.498
				c-0.417,0.061-0.584,0.574-0.282,0.868l2.478,2.416c0.12,0.117,0.174,0.285,0.146,0.45l-0.585,3.411
				c-0.071,0.416,0.365,0.733,0.738,0.536l3.063-1.611c0.148-0.078,0.325-0.078,0.474,0l3.064,1.611
				c0.373,0.196,0.81-0.121,0.738-0.536l-0.585-3.411c-0.028-0.165,0.026-0.334,0.146-0.45l2.478-2.416
				C276.767-13.118,276.6-13.63,276.183-13.691z"/>
			<path fill="#E3C000" d="M307.443-12.823c0.302-0.294,0.135-0.807-0.282-0.868l-3.425-0.498c-0.166-0.024-0.309-0.128-0.383-0.278
				l-1.532-3.104c-0.187-0.378-0.726-0.378-0.913,0l-1.532,3.104c-0.074,0.15-0.217,0.254-0.383,0.278l-3.425,0.498
				c-0.417,0.061-0.584,0.574-0.282,0.868l2.478,2.416c0.12,0.117,0.175,0.285,0.146,0.45l-0.585,3.411
				c-0.071,0.416,0.365,0.733,0.738,0.536l3.064-1.611c0.148-0.078,0.325-0.078,0.474,0l3.064,1.611
				c0.373,0.196,0.81-0.121,0.738-0.536l-0.585-3.411c-0.028-0.165,0.027-0.334,0.146-0.45L307.443-12.823z"/>
		</g>
	</g>
	<g>
		<rect x="159.226" y="-21.835" fill="#E3C000" width="27.388" height="2.568"/>
		<rect x="159.226" y="-14.47" fill="#E3C000" width="38.42" height="2.568"/>
		<rect x="159.226" y="-7.105" fill="#E3C000" width="27.388" height="2.568"/>
		<rect x="60.675" y="-21.835" fill="#E3C000" width="27.388" height="2.568"/>
		<rect x="49.643" y="-14.47" fill="#E3C000" width="38.42" height="2.568"/>
		<rect x="60.675" y="-7.105" fill="#E3C000" width="27.388" height="2.568"/>
	</g>
</g>
</svg>
