<?xml version="1.0" encoding="utf-8"?>
<!-- Generator: Adobe Illustrator 17.0.0, SVG Export Plug-In . SVG Version: 6.00 Build 0)  -->
<!DOCTYPE svg PUBLIC "-//W3C//DTD SVG 1.1//EN" "http://www.w3.org/Graphics/SVG/1.1/DTD/svg11.dtd">
<svg version="1.1" id="Layer_1" xmlns="http://www.w3.org/2000/svg" xmlns:xlink="http://www.w3.org/1999/xlink" x="0px" y="0px"
	 width="397.789px" height="55.716px" viewBox="0 0 397.789 55.716" enable-background="new 0 0 397.789 55.716"
	 xml:space="preserve">
<g>
	<rect x="67.054" y="1.729" fill="#E3C000" width="263.992" height="30.618"/>
	<polygon fill="#E3C000" points="68.037,33.658 98.288,33.658 98.288,53.55 	"/>
	<polygon fill="#E3C000" points="65.59,18.785 33.62,18.785 50.923,36.509 33.62,53.987 94.836,53.987 65.59,34.094 	"/>
	<polygon fill="#E3C000" points="329.753,33.658 299.502,33.658 299.502,53.55 	"/>
	<polygon fill="#E3C000" points="332.199,18.785 364.169,18.785 346.866,36.509 364.169,53.987 302.954,53.987 332.199,34.094 	"/>
</g>
<g>
	<polygon fill="#FFFFFF" points="235.789,13.7 233.071,8.189 230.353,13.7 224.274,14.585 228.671,18.874 227.635,24.934 
		233.071,22.072 238.51,24.934 237.471,18.874 241.872,14.585 	"/>
	<polygon fill="#FFFFFF" points="199.789,13.7 197.071,8.189 194.353,13.7 188.274,14.585 192.671,18.874 191.635,24.934 
		197.071,22.072 202.51,24.934 201.471,18.874 205.872,14.585 	"/>
	<polygon fill="#FFFFFF" points="163.789,13.7 161.071,8.189 158.353,13.7 152.274,14.585 156.671,18.874 155.635,24.934 
		161.071,22.072 166.51,24.934 165.471,18.874 169.872,14.585 	"/>
</g>
<path fill="#FFFFFF" d="M288.374,14.496c-1.359,0-2.465,1.104-2.465,2.465c0,1.362,1.106,2.467,2.465,2.467
	c1.357,0,2.462-1.104,2.462-2.467C290.836,15.6,289.731,14.496,288.374,14.496z"/>
<path fill="#FFFFFF" d="M98.374,14.496c-1.359,0-2.465,1.104-2.465,2.465c0,1.362,1.106,2.467,2.465,2.467
	c1.357,0,2.462-1.104,2.462-2.467C100.836,15.6,99.731,14.496,98.374,14.496z"/>
</svg>
