<?xml version="1.0" encoding="UTF-8" standalone="no"?><!DOCTYPE svg PUBLIC "-//W3C//DTD SVG 1.1//EN" "http://www.w3.org/Graphics/SVG/1.1/DTD/svg11.dtd"><svg width="100%" height="100%" viewBox="0 0 51 51" version="1.1" xmlns="http://www.w3.org/2000/svg" xmlns:xlink="http://www.w3.org/1999/xlink" xml:space="preserve" style="fill-rule:evenodd;clip-rule:evenodd;stroke-linejoin:round;stroke-miterlimit:1.41421;"><path d="M40.1,27.3c0,-0.1 0.1,-0.1 0.1,-0.2c0,0 0,-0.1 0.1,-0.1c0.3,-0.4 0.5,-0.9 0.5,-1.5c0,-0.6 -0.2,-1.1 -0.5,-1.5l0,-0.1l-0.1,-0.1c0,-0.1 -0.1,-0.1 -0.1,-0.2l-11.4,-11.2c-1,-1 -2.6,-1 -3.6,0c-1,1 -1,2.6 0,3.6l7,7l-19.3,0c-1.4,0 -2.6,1.1 -2.6,2.6c0,1.4 1.1,2.5 2.6,2.6l19.3,0l-7,7c-1,1 -1,2.6 0,3.6c1,1 2.6,1 3.6,0l11.4,-11.5l0,0Z" style="fill:#fff;fill-rule:nonzero;"/><path d="M45.9,25.5c0,11.3 -9.1,20.4 -20.4,20.4c-11.3,0 -20.4,-9.1 -20.4,-20.4c0,-11.3 9.1,-20.4 20.4,-20.4c11.3,0 20.4,9.1 20.4,20.4Zm-45.9,0c0,14.1 11.4,25.5 25.5,25.5c14.1,0 25.5,-11.4 25.5,-25.5c0,-14.1 -11.4,-25.5 -25.5,-25.5c-14.1,0 -25.5,11.4 -25.5,25.5Z" style="fill:#fff;fill-rule:nonzero;"/></svg>