<svg xmlns="http://www.w3.org/2000/svg" viewBox="-926 530 32.1 32.1"><path d="M-896.7 533h-4.3v-2c0-.6-.4-1-1-1s-1 .4-1 1v2h-6v-2c0-.6-.4-1-1-1s-1 .4-1 1v2h-6v-2c0-.6-.4-1-1-1s-1 .4-1 1v2h-4.3c-1.5 0-2.7 1.2-2.7 2.7v23.7c0 1.5 1.2 2.7 2.7 2.7h26.7c1.5 0 2.7-1.2 2.7-2.7v-23.7c-.1-1.5-1.3-2.7-2.8-2.7zm.7 26.3c0 .4-.3.7-.7.7h-26.7c-.4 0-.7-.3-.7-.7v-23.7c0-.4.3-.7.7-.7h4.3v2c0 .6.4 1 1 1s1-.4 1-1v-2h6v2c0 .6.4 1 1 1s1-.4 1-1v-2h6v2c0 .6.4 1 1 1s1-.4 1-1v-2h4.3c.4 0 .7.3.7.7v23.7h.1z"/><path d="M-919 542h4v3h-4zm0 5h4v3h-4zm0 5h4v3h-4zm7 0h4v3h-4zm0-5h4v3h-4zm0-5h4v3h-4zm7 10h4v3h-4zm0-5h4v3h-4zm0-5h4v3h-4z"/></svg>