<?xml version="1.0" standalone="no"?> 
<!DOCTYPE svg PUBLIC "-//W3C//DTD SVG 1.1//EN" "http://www.w3.org/Graphics/SVG/1.1/DTD/svg11.dtd" >
<svg xmlns="http://www.w3.org/2000/svg">
<defs>
  <font id="icons" horiz-adv-x="3323.1">
    <font-face font-family="icons"
      units-per-em="1000" ascent="1000"
      descent="0" />
    <missing-glyph horiz-adv-x="0" />
    <glyph glyph-name="arrow-down"
      unicode="&#xF101;"
      horiz-adv-x="814.3" d=" M406.2000000000001 0.3C420.7 -1.3000000000001 435.8 3.5 446.9 14.5999999999999L799.6 367.2999999999999C819.1 386.4999999999999 819.1 418.1999999999998 799.6 437.6999999999998C780.4 457.1999999999998 748.7 457.1999999999998 729.2 437.6999999999998L456.6999999999999 165.1999999999999V948.7C456.6999999999999 976.1 434.4999999999999 998.4 407 998.4C379.8 998.4 357.3 976.1 357.3 948.7V165.4L85 437.7C65.8 457.1999999999999 34.1 457.1999999999999 14.6 437.7C-4.9 418.4999999999999 -4.9 386.8 14.6 367.3L367.3 14.6C377.8 4.1 392 -0.6 405.9 0.3000000000001H406.2000000000001z" />
    <glyph glyph-name="arrow-left"
      unicode="&#xF102;"
      horiz-adv-x="1239.214" d=" M216.56 561.7919999999999H233.804C543.627 561.7919999999999 853.4499999999999 561.806 1163.2740000000001 561.726C1172.92 561.723 1182.854 562.0360000000001 1192.161 559.976C1222.704 553.226 1241.944 524.8140000000001 1238.8990000000001 492.544C1236.169 463.6039999999999 1211.851 440.622 1181.6870000000001 438.6720000000001C1174.9330000000002 438.235 1168.143 438.2620000000001 1161.3690000000001 438.26C852.0290000000002 438.242 542.6910000000001 438.2440000000001 233.3520000000001 438.2440000000001H212.3240000000001C218.1260000000001 432.1140000000001 221.4610000000001 428.418 224.9760000000001 424.9020000000001C329.3810000000001 320.4940000000001 433.7280000000001 216.028 538.2940000000001 111.782C557.5540000000001 92.582 567.464 70.985 559.2590000000001 43.7520000000001C546.9990000000001 3.0650000000001 498.4570000000001 -13.1539999999999 464.2090000000001 11.9860000000001C458.3940000000001 16.2560000000001 453.1260000000001 21.3580000000001 448.0050000000001 26.4760000000001C307.6300000000001 166.7960000000001 167.2990000000001 307.1560000000002 26.9810000000001 447.5330000000002C-9.0909999999999 483.6190000000001 -8.9859999999999 516.6280000000002 27.2580000000001 552.8770000000002C167.94 693.5740000000001 308.712 834.1800000000001 449.23 975.04C468.748 994.603 490.333 1005.52 518.27 997.16C559.01 984.97 575.366 936.478 550.273 902.203C545.7280000000001 895.996 540.243 890.413 534.783 884.95C431.783 781.88 328.74 678.85 225.593 575.928C221.929 572.2719999999999 217.099 569.784 212.813 566.752L216.561 561.792z" />
    <glyph glyph-name="arrow-right"
      unicode="&#xF103;"
      horiz-adv-x="1239.214" d=" M1022.653 438.208H1005.41C695.587 438.208 385.764 438.194 75.9399999999999 438.274C66.2939999999999 438.2770000000001 56.3599999999999 437.9640000000001 47.0529999999999 440.024C16.51 446.773 -2.73 475.1849999999999 0.316 507.455C3.046 536.395 27.364 559.377 57.528 561.327C64.282 561.764 71.072 561.7370000000001 77.846 561.739C387.186 561.757 696.524 561.755 1005.863 561.755H1026.893C1021.09 567.885 1017.755 571.581 1014.24 575.097C909.835 679.5039999999999 805.488 783.971 700.922 888.217C681.662 907.417 671.7520000000001 929.014 679.957 956.247C692.217 996.934 740.759 1013.153 775.007 988.013C780.822 983.743 786.0899999999999 978.641 791.2109999999999 973.523C931.5869999999998 833.2049999999999 1071.9189999999999 692.843 1212.2359999999999 552.4659999999999C1248.3059999999998 516.3799999999999 1248.2019999999998 483.371 1211.9579999999999 447.122C1071.2779999999998 306.425 930.503 165.8199999999999 789.9859999999999 24.96C770.4679999999998 5.3960000000001 748.8829999999999 -5.5219999999999 720.9459999999999 2.84C680.2059999999999 15.032 663.8499999999999 63.5220000000001 688.9429999999999 97.797C693.4879999999998 104.004 698.9729999999998 109.587 704.4329999999999 115.0500000000001C807.4329999999999 218.1200000000001 910.4759999999998 321.1500000000001 1013.6229999999998 424.0720000000001C1017.2869999999998 427.7280000000001 1022.1169999999998 430.2160000000001 1026.4029999999998 433.2480000000002L1022.6529999999998 438.2080000000002z" />
    <glyph glyph-name="brochure-padded"
      unicode="&#xF104;"
      horiz-adv-x="1097.7" d=" M1054.8 960.8V102.9C1051.3 102.6999999999999 1048.1 102.5 1044.8 102.4C983.8 100.1999999999999 922.7 99.8 861.9 95.3C772.8 88.6999999999999 685.3 72.5 600.7 43C596.3000000000001 41.5 591.5 41.3 586.9000000000001 40.5C586.2 40.4 585.5000000000001 40.6 584.9000000000001 40.5C527.3000000000001 33.9 473.4000000000001 50.5 418.7000000000001 65.3C340.0000000000001 86.5999999999999 259.1000000000002 96 177.7000000000001 99.6999999999999C135.7000000000001 101.5999999999999 93.6000000000001 101.5999999999999 51.6000000000001 102.4999999999999C48.9000000000001 102.5999999999999 46.3000000000001 102.7999999999998 42.9000000000001 102.9999999999999V960C45.1000000000001 960.3 47.4000000000001 960.8 49.6000000000001 960.8C165.8000000000001 962.6 279.3000000000001 946.2 389.1000000000002 907.4C444.0000000000001 888 495.7000000000002 862.1 541.8000000000002 826.1C546.2000000000002 822.6 549.3000000000002 821.2 554.8000000000002 825.4000000000001C621.5000000000002 877.4000000000001 698.1000000000001 908.4 779.1000000000001 929.2C866.2000000000002 951.6 954.7000000000002 962.5 1044.8000000000002 960.7C1047.7000000000003 960.7 1050.7000000000003 960.8 1054.8000000000002 960.8zM127.8 187.1999999999999C256.6 183.5999999999999 382.7 168.8 506.0999999999999 129.9V140.3C506.0999999999999 339 506.0999999999999 537.6999999999999 506.3 736.4C506.3 743.3 503.8 747.5999999999999 498.8 751.8C466 779.2 429.1 799.7 389.8 816C321.8 844.2 250.5 859.8 177.7 868.9C161.4 870.9 144.9 872.2 127.8 873.9V187.1999999999999zM969.8 872.9999999999999C965.1 872.9999999999999 961.3 873.2999999999998 957.7 872.9999999999999C886.6999999999999 866.4999999999999 816.8 854.3 749 831.4999999999999C694.7 813.3 643.6 788.9999999999999 599 752.1999999999998C593.1 747.3999999999999 591.1 742.3999999999999 591.1 734.8999999999999C591.3000000000001 537.1999999999998 591.3000000000001 339.5999999999999 591.3000000000001 141.8999999999999V129.8999999999999C715.3000000000001 169.1999999999998 841.7 183.5999999999999 969.8 187.3999999999999V873z" />
    <glyph glyph-name="brochure"
      unicode="&#xF105;"
      horiz-adv-x="1097.677" d=" M1097.677 999.79V69.284C1093.917 69.104 1090.3609999999999 68.8970000000001 1086.802 68.768C1020.6739999999998 66.3720000000001 954.396 66.0020000000001 888.4519999999999 61.1180000000001C791.8419999999999 53.9640000000001 696.9389999999999 36.3480000000001 605.0939999999998 4.374C600.3469999999999 2.722 595.1019999999999 2.494 590.0819999999999 1.644C589.3669999999998 1.524 588.6049999999999 1.699 587.8789999999999 1.614C525.3629999999999 -5.539 466.9089999999999 12.4540000000001 407.6159999999999 28.4780000000001C322.2029999999999 51.561 234.4959999999999 61.7640000000001 146.2079999999999 65.782C100.6679999999999 67.854 55.0319999999999 67.832 9.4399999999999 68.777C6.5499999999999 68.837 3.6649999999999 69.0890000000001 -0.0020000000001 69.297V998.876C2.428 999.178 4.863 999.71 7.306 999.748C133.392 1001.7 256.4220000000001 983.86 375.556 941.878C435.151 920.875 491.138 892.75 541.1859999999999 853.688C545.9839999999999 849.942 549.3629999999999 848.324 555.2889999999999 852.942C627.606 909.304 710.667 942.956 798.53 965.58C892.966 989.897 989.05 1001.715 1086.682 999.8C1089.952 999.735 1093.222 999.79 1097.677 999.79zM92.13 160.74C231.877 156.792 368.614 140.8300000000001 502.506 98.564V109.84C502.506 325.35 502.463 540.86 502.686 756.37C502.696 763.89 500.029 768.48 494.556 773.054C458.959 802.8009999999999 418.946 825.058 376.322 842.73C302.5180000000001 873.33 225.217 890.248 146.225 900.144C128.503 902.364 110.67 903.704 92.131 905.524V160.74zM1005.387 904.555C1000.244 904.555 996.217 904.872 992.252 904.508C915.232 897.4280000000001 839.4119999999999 884.225 765.9019999999999 859.5240000000001C706.9949999999999 839.729 651.5559999999999 813.3820000000001 603.185 773.5140000000001C596.8119999999999 768.2620000000001 594.6429999999999 762.8700000000001 594.65 754.7840000000001C594.858 540.374 594.816 325.9660000000001 594.8149999999999 111.5570000000001V98.5150000000001C729.29 141.1150000000001 866.3979999999999 156.7370000000001 1005.385 160.8410000000001C1005.387 409.3440000000001 1005.387 656.3760000000002 1005.387 904.5560000000002z" />
    <glyph glyph-name="check"
      unicode="&#xF106;"
      horiz-adv-x="1000" d=" M988.6 878.8L877.3 990.1C864.0999999999999 1003.3 842.8 1003.3 829.5999999999999 990.1L366 526.4L168.9 723.7C155.7 736.9 134.4 736.9 121.2 723.7L9.9 612.3C-3.3 599.1 -3.3 577.8 9.9 564.6L342.2 232.2000000000001C348.8 225.6 357.4 222.3000000000001 366 222.3000000000001C374.6 222.3000000000001 383.3 225.6 389.8 232.2000000000001L988.5 831C994.8 837.3 998.4 845.9 998.4 854.9C998.5 863.9 994.9 872.5 988.6 878.8z" />
    <glyph glyph-name="chevron-down-thin"
      unicode="&#xF107;"
      horiz-adv-x="1896.8" d=" M948.4 125.7000000000001L89.2 984.8C68.9 1005.1 35.7 1005.1 15.4 984.8L15.2 984.6C-5.1 964.3 -5.1 931.1 15.2 910.8L910.8 15.2C921.1 4.9000000000001 934.8 -0.1999999999999 948.4 0C962 -0.2 975.6 4.9 986 15.2L1881.6 910.8C1901.9 931.1 1901.9 964.3 1881.6 984.6L1881.4 984.8C1861.1 1005.1 1827.9 1005.1 1807.6 984.8L948.4 125.7000000000001z" />
    <glyph glyph-name="chevron-down"
      unicode="&#xF108;"
      horiz-adv-x="1714.8" d=" M17.1 817.9L817.8000000000001 17.1999999999999C829.3000000000001 5.6999999999999 842.4000000000001 -1e-13 857.3000000000001 -1e-13S885.4000000000001 5.6999999999999 896.8000000000001 17.1999999999999L1697.6 817.9C1709.1 829.4 1714.8000000000002 842.5 1714.8000000000002 857.4S1709.1 885.5 1697.6 896.9L1611.7 982.8C1600.2 994.3 1587.1 1000 1572.2 1000C1557.3000000000002 1000 1544.1 994.3 1532.7 982.8L857.4 307.6L182.1 982.9C170.6 994.4 157.5 1000 142.6 1000C127.7000000000001 1000 114.5 994.3 103.1 982.9L17.1999999999999 897C5.6999999999999 885.5 0.0999999999999 872.4 0.0999999999999 857.5S5.6999999999999 829.3 17.0999999999999 817.9z" />
    <glyph glyph-name="chevron-left"
      unicode="&#xF109;"
      horiz-adv-x="583.2" d=" M477 990L10.1 523C3.4 516.3 0.1 508.6 0.1 500C0.1 491.3 3.4 483.6 10.1 477L477 10C483.7 3.3 491.4 0 500 0S516.4000000000001 3.3 523 10L573.1 60.1C579.8 66.8000000000001 583.1 74.5 583.1 83.1C583.1 91.8000000000001 579.8 99.5 573.1 106.1L179.4 500L573.2 893.8C579.9 900.5 583.2 908.2 583.2 916.8C583.2 925.5 579.9 933.2 573.2 939.9L523.1 990C516.4000000000001 996.7 508.7 1000 500.1 1000S483.7 996.7 477 990z" />
    <glyph glyph-name="chevron-right"
      unicode="&#xF10A;"
      horiz-adv-x="583.2" d=" M106.2000000000001 10L573.1 477C579.8 483.7 583.1 491.4 583.1 500C583.1 508.7 579.8 516.4 573.1 523L106.2000000000001 990C99.5000000000001 996.7 91.8000000000001 1000 83.2000000000001 1000C74.5000000000001 1000 66.8000000000001 996.7 60.2000000000001 990L10.1 939.9C3.4 933.2 0.1 925.5 0.1 916.9S3.4 900.5 10.1 893.9L403.8 500L10 106.2000000000001C3.3 99.5 0 91.8000000000001 0 83.2000000000001C0 74.5 3.3 66.8000000000001 10 60.1L60.1 10C66.8 3.3 74.5 0 83.1 0C91.9 0 99.5 3.3 106.2000000000001 10z" />
    <glyph glyph-name="chevron-up"
      unicode="&#xF10B;"
      horiz-adv-x="1714.8" d=" M1697.6999999999998 182.1L896.9 982.8C885.5 994.3 872.3 1000 857.4 1000S829.3 994.3 817.9 982.8L17.1999999999999 182.0999999999999C5.6999999999999 170.5999999999999 -1e-13 157.4999999999999 -1e-13 142.5999999999999S5.6999999999999 114.4999999999999 17.1999999999999 103.0999999999999L103.0999999999999 17.1999999999999C114.5999999999999 5.6999999999999 127.6999999999999 -1e-13 142.5999999999999 -1e-13C157.4999999999999 -1e-13 170.6999999999999 5.6999999999999 182.0999999999999 17.1999999999999L857.4 692.4L1532.6999999999998 17.1C1544.1999999999998 5.6 1557.3 0 1572.1999999999998 0C1587.1 0 1600.3 5.7 1611.6999999999998 17.1L1697.6 103C1709.1 114.5 1714.6999999999998 127.6 1714.6999999999998 142.5C1714.8 157.5 1709.1 170.7000000000001 1697.6999999999998 182.1z" />
    <glyph glyph-name="compare"
      unicode="&#xF10C;"
      horiz-adv-x="991.4" d=" M173.8 1000C206.8 893.7 239.9 787.4 273.1 680.5C271.4000000000001 680.3 270 680.1 268.6 680.1C248.2000000000001 680.1 227.8 680.2 207.4 680C203.5 680 202.3000000000001 681.4 201.4 684.8C195.8000000000001 706.6 189.9 728.4 184.3000000000001 750.2C183.6000000000001 752.8 182.8000000000001 754.2 179.8000000000001 754.2C148.9 754.1 117.9 754.1 87 754.1C86.3 754.1 85.7000000000001 753.9 84.8 753.8C78.3 729.3 71.9 704.8 65.4 680.3H0.3C3.6 691.2 6.8 701.7 10 712.1L97 995.6C97.4 997 97.6 998.5 97.8 999.9C122.9 1000 148.4 1000 173.8 1000zM97.2 800H171C158.8 846.1 146.8 891.7 134.8 937.2C134.4 937.1 134.1 937.1 133.7 937C121.6 891.5 109.4 845.9 97.2 800zM776.7 0.3V318.9C777.6 319 778.5 319.3 779.5 319.3C811.1 319.3 842.7 319.7 874.3 319C895.3 318.5 916.4 316.5 936.1 308C962.7 296.5 976.6 275.8 979.7 247.4C981.7 229.2 979.9999999999998 211.6999999999999 970.9 195.4C963.9 182.9 954.4 173.1 939.1 168.6999999999999C941 167.9999999999999 941.9 167.5999999999999 942.9 167.1999999999999C943.8 166.9 944.8 166.6999999999999 945.8 166.4C967.1 160.4 980.5 146.1 986.7 125.3C993.6 102 992.9999999999998 78.3 985.3 55.1999999999999C977 30.3 958.3 16.0999999999999 934.1 8.4C916.3 2.8 897.8 0.6 879.1999999999999 0.3C846.5999999999999 -0.1 813.9999999999999 0 781.4 0C779.9 0 778.4 0.2 776.6999999999999 0.3zM843.3000000000001 146.3V44.8C858.2 45.4 872.8000000000001 45.0999999999999 887.1 46.9C907.2 49.4 918.9 61.9 921.8 82C922.7 88.1 922.9 94.4 922.4 100.5C920.8 123.6 907.9 139.8 886.1000000000001 143.6C872.3000000000002 145.9 858.0000000000001 145.5 843.3000000000002 146.3000000000001zM843.3000000000001 188H849.4000000000001C858.6000000000001 188.3 867.8000000000001 188.1 876.9000000000001 188.9C897.6000000000001 190.8 910.1000000000003 202.8 913.4 223.1999999999999C917.0000000000002 245.3 908.0000000000002 262.5999999999999 889.0000000000001 270C874.3000000000001 275.7 858.9000000000001 274.2 843.3000000000001 274.0999999999999V188zM668.3 561.9C652.8 558.9 637.6999999999999 555.9 623.0999999999999 553C620.3 558.6 618.3999999999999 563.8 615.3 568.2C607.9 578.6 586.3 578.9 578.0999999999999 569.1C570.8 560.4 573.1999999999999 546.4 583.8999999999999 541.3C592.6999999999998 537.1 602.2999999999998 534.5 611.5999999999999 531.1C619.8 528.1 628.0999999999999 525.6 635.9999999999999 522.1C664.4999999999999 509.8 671.9999999999999 489.9 669.0999999999999 463C666.5999999999999 439.7000000000001 653.5999999999999 424.1 631.6999999999999 416.6C604.4 407.3 577.1999999999999 407.1 550.9 420.3C536.8 427.4000000000001 526.6 438.4000000000001 520.8 453.2C520.1999999999999 454.7 519.6999999999999 456.4 519.3 458C519.0999999999999 458.8 519.0999999999999 459.6 518.9 461.1C534.6999999999999 464.3 550.3 467.4000000000001 566 470.5C566.5 469.3 566.9 468.6 567.1 467.8C571.1 449.3 588.6 441.2000000000001 607.4 447.4000000000001C614.4 449.7000000000001 618.6 454.5 619.5 461.9000000000001C620.4 469.3 618.4 476.2 611.6 479.5C601.6 484.4000000000001 591 488.0000000000001 580.6 492.0000000000001C571.9 495.4 562.8000000000001 498.0000000000001 554.5 502.2C530.5 514.3000000000001 523.4 533 524.7 557C526.3000000000001 587.7 547.4000000000001 602.4000000000001 568.2 607.2C591.7 612.6 615 613.1 637.1 601.7C652.1 594 661.9 581.7 667.4 565.9000000000001C667.8 564.9000000000001 668 563.6 668.3 561.9000000000001zM343.3 605.4H396.4000000000001C408.7000000000001 555.8 421.1 506.2 433.4000000000001 456.5C433.8 456.5 434.2000000000001 456.6 434.6 456.6C439 474.9000000000001 443.5 493.2 447.9000000000001 511.5C455.1 541.2 462.3 570.9 469.3 600.7C470.2 604.4 471.6 605.8 475.6 605.7C490.5 605.4 505.3000000000001 605.6 520.9 605.6C517.8 594.9 514.8 584.7 511.8 574.5C496.5 522.8 481.1 471.1 465.9 419.4C464.7 415.2000000000001 463 413.7000000000001 458.4 413.8C440.2 414.0999999999999 421.9 414 403.7 413.9C401.2 413.9 399.5 414.0999999999999 398.6 417.2000000000001C380.4 479 362 540.7 343.7 602.5C343.4 603.3 343.4 604.1 343.3 605.4zM687.6 414.3V461.6H738.5V414.3H687.6z" />
    <glyph glyph-name="cross"
      unicode="&#xF10D;"
      horiz-adv-x="1009" d=" M78.012 1.09L-0.878 81.013L930.95 1000.797L1009.84 920.873z M929.712 0.8579999999999L3.176 921.126L82.314 1000.802L1008.85 80.535z" />
    <glyph glyph-name="document"
      unicode="&#xF10E;"
      horiz-adv-x="1272.7" d=" M2 1000H832V912H2zM2 595H832V507H2zM1.2 795H661.2V707H1.2zM1.7 395H544.7V307H1.7z" />
    <glyph glyph-name="download"
      unicode="&#xF10F;"
      horiz-adv-x="1153.8" d=" M549.4 241.9C557.3 234 567.6999999999999 230.7 578 231H578.2C587.8000000000001 231.4 596.5 235.1 603.1 241.3C603.5 241.7 604.1 241.5 604.5 241.9L835 510.9C850.1 526.0999999999999 850.1 550.5999999999999 835 565.8C819.8 581 795.3 581 780.1 565.8L615.4 373.6V961.6C615.4 982.8 598.1999999999999 1000.1 576.9 1000.1S538.4 982.8 538.4 961.6V373.6L373.7 565.8C358.5 581 334 581 318.8 565.8C303.6 550.6 303.6 526.1 318.8 510.9L549.4 241.9000000000001zM1115.4 384.5999999999999C1094.1000000000001 384.5999999999999 1076.9 367.3 1076.9 346.0999999999999V76.8999999999999H76.9V346.2000000000001C76.9 367.4000000000001 59.7 384.7000000000001 38.4 384.7000000000001C17.2 384.6 0 367.3000000000001 0 346.2000000000001V38.5C0 17.2 17.2 0 38.5 0H1115.4C1136.7 0 1153.9 17.2 1153.9 38.5V346.2000000000001C1153.8000000000002 367.3000000000001 1136.6000000000001 384.6 1115.4 384.6z" />
    <glyph glyph-name="drive-allgrip"
      unicode="&#xF110;"
      horiz-adv-x="45" d=" M6.7 28.2C6.4 28.2 6 28.2 5.7 28.3L3.9 28.7C2.6 29 1.5 29.7 0.8 30.8C0.1 31.9 -0.1 33.2 0.1 34.5L2.4 45.3C2.8 47.5 4.8 49.1 7.1 49.1C7.4 49.1 7.8 49.1 8.1 49L9.9 48.6C12.5 48.1 14.2 45.5 13.7 42.8L11.4 32C10.9 29.8 8.9 28.2 6.7 28.2zM37.4999999999999 26C37.1 26 36.7 26 36.2999999999999 26.1L34.4999999999999 26.5C33.1999999999999 26.8 32.1999999999999 27.6 31.4999999999999 28.7C30.8 29.8 30.6 31.1 30.8999999999999 32.4L33.4999999999999 43.1C33.9999999999999 45.3 35.9999999999999 46.8 38.2 46.8C38.6 46.8 38.9999999999999 46.8 39.4 46.6999999999999L41.2 46.3C42.4999999999999 45.9999999999999 43.4999999999999 45.1999999999999 44.2 44.1C44.9 42.9999999999999 45.1 41.7 44.8 40.4L42.2 29.7C41.7 27.6 39.8 26 37.4999999999999 26zM6.7 2.1C6.4 2.1 6 2.1 5.7 2.2L3.9 2.6C2.6 2.9 1.5 3.6 0.8 4.7C0.1 5.8000000000001 -0.1 7.1 0.1 8.4000000000001L2.4 19.2000000000001C2.8 21.4000000000001 4.8 23.0000000000001 7.1 23.0000000000001C7.4 23.0000000000001 7.8 23.0000000000001 8.1 22.9000000000001L9.9 22.5000000000001C12.5 22.0000000000001 14.2 19.4000000000001 13.7 16.7000000000001L11.4 5.9000000000001C10.9 3.7 8.9 2.1000000000001 6.7 2.1000000000001zM37.4999999999999 0C37.1 0 36.7 0 36.2999999999999 0.1L34.4999999999999 0.5C33.1999999999999 0.8 32.1999999999999 1.6 31.4999999999999 2.7C30.8 3.8000000000001 30.6 5.1 30.8999999999999 6.4000000000001L33.4999999999999 17.1000000000001C33.9999999999999 19.3000000000001 35.9999999999999 20.8000000000001 38.2 20.8000000000001C38.6 20.8000000000001 38.9999999999999 20.8000000000001 39.4 20.7L41.2 20.3000000000001C42.4999999999999 20.0000000000001 43.4999999999999 19.2 44.2 18.1000000000001C44.9 17.0000000000001 45.1 15.7000000000001 44.8 14.4000000000001L42.2 3.7C41.7 1.5 39.8 0 37.4999999999999 0z M22.2 32.6C19.4 32.6 17.2 34.8 17.2 37.6S19.4 42.6 22.2 42.6S27.2 40.4 27.2 37.6S25 32.6 22.2 32.6zM22.2 39.8C21 39.8 20.1 38.9 20.1 37.7S20.9999999999999 35.6 22.2 35.6S24.3 36.4999999999999 24.3 37.7S23.4 39.8 22.2 39.8z M18.7 36.2H11.4C10.6 36.2 10 36.9 10 37.6C10 38.4 10.7 38.9999999999999 11.4 38.9999999999999H18.7C19.5 38.9999999999999 20.1 38.3 20.1 37.6S19.4999999999999 36.2 18.7 36.2zM33.2 36.2H25.9C25.1 36.2 24.5 36.9 24.5 37.6C24.5 38.4 25.2 38.9999999999999 25.9 38.9999999999999H33.2C34 38.9999999999999 34.6 38.3 34.6 37.6S33.9999999999999 36.2 33.2 36.2zM22.2 6.2C19.4 6.2 17.2 8.4000000000001 17.2 11.2S19.4 16.2 22.2 16.2S27.2 14.0000000000001 27.2 11.2C27.2 8.5 25 6.2 22.2 6.2zM22.2 13.3000000000001C21 13.3000000000001 20.1 12.4000000000001 20.1 11.2C20.1 10 20.9999999999999 9.1 22.2 9.1S24.3 10 24.3 11.2C24.3 12.4000000000001 23.4 13.3000000000001 22.2 13.3000000000001z M18.7 9.8H11.4C10.6 9.8 10 10.5 10 11.1999999999999S10.7 12.5999999999999 11.4 12.5999999999999H18.7C19.5 12.5999999999999 20.1 11.8999999999999 20.1 11.1999999999999S19.4999999999999 9.8 18.7 9.8zM33.2 9.8H25.9C25.1 9.8 24.5 10.5 24.5 11.1999999999999S25.2 12.5999999999999 25.9 12.5999999999999H33.2C34 12.5999999999999 34.6 11.8999999999999 34.6 11.1999999999999S33.9999999999999 9.8 33.2 9.8zM22.2 13.3C21.4 13.3 20.8 14 20.8 14.7V34C20.8 34.8 21.5 35.4 22.2 35.4C23 35.4 23.6 34.7 23.6 34V14.7C23.7 14 22.9999999999999 13.3 22.2 13.3z" />
    <glyph glyph-name="drive-twoWD"
      unicode="&#xF111;"
      horiz-adv-x="45" d=" M6.7 27.2C6.4 27.2 6 27.2 5.7 27.3L3.9 27.7C2.6 28 1.5 28.7 0.8 29.8C0.1 30.9 -0.1 32.2 0.1 33.5L2.4 44.3C2.8 46.5 4.8 48.1 7.1 48.1C7.4 48.1 7.8 48.1 8.1 48L9.9 47.6C12.5 47.1 14.2 44.5 13.7 41.8L11.4 31C10.9 28.8 8.9 27.2 6.7 27.2zM37.4999999999999 25.1C37.1 25.1 36.7 25.1 36.2999999999999 25.2L34.4999999999999 25.6C33.1999999999999 25.9 32.1999999999999 26.7 31.4999999999999 27.8C30.8 28.9 30.6 30.2 30.8999999999999 31.5L33.4999999999999 42.2C33.9999999999999 44.4 35.9999999999999 45.9 38.2 45.9C38.6 45.9 38.9999999999999 45.9 39.4 45.7999999999999L41.2 45.4C42.4999999999999 45.0999999999999 43.4999999999999 44.2999999999999 44.2 43.2C44.9 42.0999999999999 45.1 40.8 44.8 39.5L42.2 28.8C41.7 26.6 39.8 25.1 37.4999999999999 25.1z M22.2 31.7C19.4 31.7 17.2 33.9 17.2 36.7S19.4 41.7 22.2 41.7S27.2 39.5 27.2 36.7S25 31.7 22.2 31.7zM22.2 38.8C21 38.8 20.1 37.9 20.1 36.7S20.9999999999999 34.5999999999999 22.2 34.5999999999999S24.3 35.4999999999999 24.3 36.7S23.4 38.8 22.2 38.8z M18.7 35.3H11.4C10.6 35.3 10 36 10 36.7C10 37.5 10.7 38.0999999999999 11.4 38.0999999999999H18.7C19.5 38.0999999999999 20.1 37.4 20.1 36.7C20.1 35.9 19.4999999999999 35.3 18.7 35.3zM33.2 35.3H25.9C25.1 35.3 24.5 36 24.5 36.7C24.5 37.5 25.2 38.0999999999999 25.9 38.0999999999999H33.2C34 38.0999999999999 34.6 37.4 34.6 36.7C34.6 35.9 33.9999999999999 35.3 33.2 35.3zM7.7 -0.1H5.9C3.2 -0.1 1.1 2.1 1.1 4.6999999999999V15.6999999999999C1.1 18.3999999999999 3.3 20.4999999999999 5.9 20.4999999999999H7.7C10.4 20.4999999999999 12.5 18.2999999999999 12.5 15.6999999999999V4.6999999999999C12.5 2.0999999999999 10.4 -0.1 7.7 -0.1zM5.9 17.7C4.8 17.7 3.9 16.8 3.9 15.7V4.7C3.9 3.6 4.8 2.7 5.9 2.7H7.7C8.8 2.7 9.7 3.6 9.7 4.7V15.7C9.7 16.8 8.8 17.7 7.7 17.7H5.9zM38.9999999999999 -0.1H37.2C34.4999999999999 -0.1 32.4 2.1 32.4 4.6999999999999V15.6999999999999C32.4 18.3999999999999 34.6 20.4999999999999 37.2 20.4999999999999H38.9999999999999C41.7 20.4999999999999 43.7999999999999 18.2999999999999 43.7999999999999 15.6999999999999V4.6999999999999C43.8999999999999 2.0999999999999 41.6999999999999 -0.1 38.9999999999999 -0.1zM37.2 17.7C36.1 17.7 35.2 16.8 35.2 15.7V4.7C35.2 3.6 36.1 2.7 37.2 2.7H38.9999999999999C40.1 2.7 40.9999999999999 3.6 40.9999999999999 4.7V15.7C40.9999999999999 16.8 40.1 17.7 38.9999999999999 17.7H37.2zM22.2 5.2999999999999C19.4 5.2999999999999 17.2 7.5 17.2 10.2999999999999S19.4 15.2999999999999 22.2 15.2999999999999S27.2 13.0999999999999 27.2 10.2999999999999S25 5.2999999999999 22.2 5.2999999999999zM22.2 12.4C21 12.4 20.1 11.5 20.1 10.2999999999999C20.1 9.0999999999999 20.9999999999999 8.1999999999999 22.2 8.1999999999999S24.3 9.0999999999999 24.3 10.2999999999999C24.3 11.4 23.4 12.4 22.2 12.4z M18.7 8.7999999999999H11.4C10.6 8.7999999999999 10 9.5 10 10.1999999999999S10.7 11.5999999999999 11.4 11.5999999999999H18.7C19.5 11.5999999999999 20.1 10.8999999999998 20.1 10.1999999999999S19.4999999999999 8.7999999999999 18.7 8.7999999999999zM33.2 8.7999999999999H25.9C25.1 8.7999999999999 24.5 9.5 24.5 10.1999999999999S25.2 11.5999999999999 25.9 11.5999999999999H33.2C34 11.5999999999999 34.6 10.8999999999998 34.6 10.1999999999999S33.9999999999999 8.7999999999999 33.2 8.7999999999999zM22.2 12.4C21.4 12.4 20.8 13.0999999999999 20.8 13.7999999999999V33.0999999999999C20.8 33.9 21.5 34.4999999999999 22.2 34.4999999999999C23 34.4999999999999 23.6 33.7999999999999 23.6 33.0999999999999V13.7999999999999C23.7 12.9999999999999 22.9999999999999 12.4 22.2 12.4z" />
    <glyph glyph-name="envelope-outlined"
      unicode="&#xF112;"
      horiz-adv-x="1272.7" d=" M1239.4 966.6C1217.1 988.9 1190.4 1000 1159.1 1000H113.6999999999999C82.4 1000 55.6999999999999 988.9 33.4 966.6C11.1 944.3 0 917.6 0 886.3V113.5999999999999C0 82.3 11.1 55.5999999999999 33.4 33.3999999999999C55.6999999999999 11.0999999999999 82.4 -1e-13 113.6999999999999 -1e-13H1159.1C1190.3 -1e-13 1217.1 11.0999999999999 1239.4 33.3999999999999C1261.7 55.6999999999998 1272.8 82.3999999999999 1272.8 113.5999999999999V886.3C1272.8 917.6 1261.6 944.4 1239.4 966.6zM1181.8 113.6C1181.8 107.4 1179.6 102.1 1175.1 97.6S1165.3 90.9 1159.1 90.9H113.6999999999999C107.4999999999999 90.9 102.1999999999999 93.1 97.6999999999999 97.6S90.9999999999999 107.4 90.9999999999999 113.6V659.1C106.1999999999999 642.1 122.4999999999999 626.4 139.9999999999999 612.2C266.8999999999999 514.7 367.7 434.6 442.5999999999999 372.1C466.6999999999999 351.7000000000001 486.3999999999999 335.9000000000001 501.4999999999999 324.5C516.6999999999998 313.1 537.0999999999999 301.7000000000001 562.8999999999999 290.1S612.9999999999999 272.7000000000001 635.6999999999998 272.7000000000001H637.0999999999999C659.7999999999998 272.7000000000001 684.0999999999999 278.5 709.8999999999999 290.1C735.6999999999998 301.7000000000001 756.1999999999998 313.2000000000001 771.2999999999998 324.5C786.3999999999999 335.9 806.0999999999999 351.7000000000001 830.1999999999998 372.1C904.9999999999998 434.6 1005.8999999999997 514.6 1132.6999999999998 612.2C1150.1999999999998 626.4 1166.6 642 1181.6999999999998 659.1L1181.8 113.6zM1181.8 867.9V860.0999999999999C1181.8 832.2 1170.8 801 1148.8 766.7C1126.8 732.4 1103 705 1077.3999999999999 684.7C986 612.7 891.0999999999999 537.7 792.5999999999999 459.5999999999999C789.8 457.2 781.5 450.2000000000001 767.6999999999999 438.7000000000001C754 427.0999999999999 743.0999999999999 418.2000000000001 735 412.0999999999999C726.9 405.9 716.4 398.5 703.4 389.7000000000001S678.4 374.4 667.5 370.2000000000001C656.5999999999999 365.9 646.4 363.8 637 363.8H635.5999999999999C626.0999999999999 363.8 616 365.9000000000001 605.0999999999999 370.2000000000001C594.2 374.5 582.3 381 569.2 389.7000000000001C556.2 398.5 545.5999999999999 405.9 537.5999999999999 412.0999999999999C529.5999999999999 418.2000000000001 518.7 427.0999999999999 504.9 438.7000000000001C491.2 450.3 482.9 457.3 480 459.5999999999999C381.7000000000001 537.6999999999999 286.7 612.6999999999999 195.4 684.6999999999999C125.8 739.5999999999999 91 806.9 91 886.4C91 892.5999999999999 93.2000000000001 897.9 97.7000000000001 902.4S107.5 909.1 113.7000000000001 909.1H1159.1C1162.9 907 1166.2 906.4 1169 907.3C1171.8 908.3 1174 906.5 1175.3999999999999 902C1176.8 897.5 1178.1 895.4 1179.3 895.5999999999999C1180.5 895.8 1181.1999999999998 892.9 1181.3999999999999 886.6999999999999C1181.6 880.4999999999999 1181.6999999999998 877.4999999999999 1181.6999999999998 877.4999999999999L1181.8 867.8999999999999z" />
    <glyph glyph-name="facebook"
      unicode="&#xF113;"
      horiz-adv-x="466" d=" M310.1 672.3V758.5C310.1 771.4 310.7 781.5 311.9 788.5C313.1 795.6 315.8 802.6 320.1 809.4C324.3 816.3 331.2 821 340.7 823.7C350.2 826.3 362.9 827.6 378.6 827.6H464.8V1000H327.1C247.4 1000 190.2 981.1 155.4 943.3C120.6 905.5 103.2 849.8 103.2 776.1V672.3H0V500H103.2V0H310.1V500H447.8L466 672.3H310.1z" />
    <glyph glyph-name="google-plus"
      unicode="&#xF114;"
      horiz-adv-x="1166.4" d=" M547 449.1L499.6 484.8L499.3 485.1C484.2 497.1 473.3 506.7 473.3 523.4000000000001C473.3 541.6 486.3 554.1 501.7 568.7L503 569.7C555.1 609.3000000000001 619.4 659 619.4 763.9000000000001C619.4 833.9000000000001 588.4 880.3000000000001 558.7 914.1H592.5L749.8 1000H402.3C336.4 1000 239.1 991.7 156 925.5L155.7 924.7C98.9 877.8 65.1 808.8 65.1 740.9C65.1 685.7 87.8 631 127.3 591.5C183 535.3 253 523.5 302 523.5C305.9 523.5 309.8 523.5 313.7 523.8C311.6 516 310.6 507.4 310.6 497C310.6 468.6 320 446.8 331.7 428.8C269.2 423.9000000000001 180.4 411.9000000000001 110.6999999999999 370.7000000000001C8.1 311.6 0.1 224.9000000000001 0.1 199.9000000000001C0.1 100.4000000000001 92.9999999999999 1e-13 300.8 1e-13C539.3 1e-13 664 129.7000000000001 664 257.7000000000001C663.8999999999999 354.3000000000001 604.5 402.4000000000001 547 449.1zM220.5 802.3C220.5 837.2 228.3 863.5 244.7 882.7C261.7 903.4 292.1 916.9 320.2 916.9C372 916.9 405.9 877.8 425.4 845C449.4 804.6 464.2 751 464.2 705.5C464.2 692.7 464.2 653.4 437.6 627.9C419.4 610.5 388.9 598.2 363.1 598.2C309.7 598.2 275.9 636.5 257.1 668.5C230.2 714.9 220.5 768 220.5 802.3zM535.8 208.5C535.8 137.2000000000001 470.2 92.6 364.5 92.6C239.3 92.6 155.4 146.2000000000001 155.4 226.2000000000001C155.4 294.2000000000001 211.4 322 253.8 336.8000000000001C303 352.7000000000001 369.1 355.8000000000001 384.2000000000001 355.8000000000001C394.4000000000001 355.8000000000001 400.1 355.8000000000001 406.9000000000001 355.3000000000001C502.2 289.7000000000001 535.8 261.3000000000001 535.8 208.5z M963.3 796.9V1000H874.8V796.9H666.5V708.4H874.8V497.5H963.3V708.4H1166.4V796.9" />
    <glyph glyph-name="hand"
      unicode="&#xF115;"
      horiz-adv-x="1000" d=" M726 428.5C701.2 400.9 676.9 372.9 652.1 345.3C638.4 330.0999999999999 620.9 326.5999999999999 602.2 333.0999999999999C584.2 339.3 574.4000000000001 353.3999999999999 573.6 372.0999999999999C569.9 456.6999999999999 566.8000000000001 541.3 563.4 625.9999999999999C560.5 699.5999999999999 557.9 773.0999999999999 554.1999999999999 846.6999999999998C552.9 871.6999999999998 532.9 888.8999999999999 509.1999999999999 888.5999999999999C485.6999999999999 888.2999999999998 466.4999999999999 870.1999999999998 464.1999999999999 845.8999999999999C462.8999999999999 831.5999999999999 461.8999999999999 817.1999999999998 460.8 802.8999999999999C453.9 709.6999999999998 446.8 616.3999999999999 440.2 523.1999999999998C439.3999999999999 512.4999999999999 435.3 506.7999999999999 425.2 502.5999999999999C369.7 479.2999999999998 315.0999999999999 453.7999999999998 259.2 431.6999999999998C224.5999999999999 417.9999999999998 199.3999999999999 397.3999999999999 188 361.3999999999999V321.4999999999999C192.4 293.8999999999999 197.3 266.2999999999999 201.3 238.5999999999999C209.1 184.4999999999999 216.2 130.1999999999999 223.9 76.0999999999999C229.4 37.5999999999999 251.8 13.5999999999999 288.6 2.1999999999999C290.6 1.5999999999999 292.4 0.1999999999999 294.3 -0.8000000000001H546.8C580.4 8.6999999999999 601.0999999999999 31.6999999999999 618 61.4999999999999C681.2 172.3999999999999 745.8 282.4999999999999 810 392.8C810.5 393.5999999999999 811.7 394 812.5 394.5999999999999V421.2C788.6 460.3 757.3 463.1999999999999 726 428.4999999999999zM376.3 762.7C391.3 768.2 396.1 781.1 389.9000000000001 799.4C369.0000000000001 861.3 393.9000000000001 920.8 452.6 949.2C479.5 962.2 481.1 980.3 457.1 999H437.2000000000001C432.2000000000001 996 427.2000000000001 992.7 422.0000000000001 989.9C346.0000000000001 949.6 311.0000000000001 859.0999999999999 341.7000000000001 782.0999999999999C348.8000000000001 764.4 361.4000000000001 757.3 376.3000000000001 762.6999999999999zM561.2 949.8C622.7 919.5 646.6 863.4 625.6 798.2C619.8000000000001 780.2 624.3000000000001 768.4 639.3000000000001 762.8C653.9000000000001 757.4 666.4000000000001 763.6 673.0000000000001 780.4C688.3000000000001 818.9 688.6000000000001 858 674.9000000000001 896.9C657.6 945.6 622.4 977.5 576.7 999H556.8000000000001C536.0000000000001 978.7 537.5000000000001 961.5 561.2 949.8z" />
    <glyph glyph-name="instagram"
      unicode="&#xF116;"
      horiz-adv-x="1000" d=" M962.2 962.2C937 987.4 906.9 1000 871.7 1000H128.2C93 1000 62.9 987.4 37.7 962.2S0 906.9 0 871.7V128.2000000000001C0 93 12.6 62.9000000000001 37.8 37.7C63 12.5 93.1 -0.0999999999999 128.3 -0.0999999999999H871.8C906.9 -0.0999999999999 937.1 12.5000000000001 962.3 37.7C987.5 62.9000000000001 1000.1 93 1000.1 128.2000000000001V871.7C1000 906.9 987.4 937.1 962.2 962.2zM359.1 639.7C398.4 677.7 445.6 696.7 500.6999999999999 696.7C556.3 696.7 603.6999999999999 677.7 643 639.7C682.3 601.7 701.9 555.8 701.9 502C701.9 448.2000000000001 682.3 402.3 643 364.3C603.6999999999999 326.3 556.3 307.3 500.6999999999999 307.3C445.6 307.3 398.4 326.3 359.1 364.3S300.2 448.2 300.2 501.9999999999999C300.1 555.8 319.8 601.6999999999999 359.1 639.6999999999999zM886.7 154.9C886.7 143.6 882.8 134.1999999999999 875 126.6C867.2 119 857.9 115.2000000000001 847 115.2000000000001H151.1C139.8 115.2000000000001 130.4 119 122.8 126.6C115.2 134.2000000000001 111.4 143.6 111.4 154.9V576.8H203.2000000000001C194.5000000000001 549.5 190.2000000000001 521 190.2000000000001 491.5C190.2000000000001 408.2000000000001 220.6 337.1 281.3000000000001 278.3C342.1000000000001 219.5 415.2000000000001 190.0999999999999 500.7 190.0999999999999C557.1 190.0999999999999 609.2 203.5999999999999 657.0000000000001 230.4999999999999C704.7 257.3999999999999 742.5000000000001 293.9999999999999 770.3000000000001 340.2C798.1000000000001 386.3999999999999 812 436.8999999999999 812 491.5999999999999C812 521.0999999999999 807.6 549.4999999999999 799 576.8999999999999H886.9000000000001L886.7 154.8999999999999zM886.7 736.3C886.7 723.6999999999999 882.4 713.0999999999999 873.7 704.4S854.4 691.4 841.8 691.4H728.5C715.9 691.4 705.3 695.6999999999999 696.6 704.4S683.6 723.6999999999999 683.6 736.3V843.7C683.6 855.9 687.9 866.4 696.6 875.3C705.3 884.2 715.9 888.6 728.5 888.6H841.8C854.4000000000001 888.6 865 884.1 873.7 875.3C882.4 866.4 886.7 855.9 886.7 843.7V736.3z" />
    <glyph glyph-name="link"
      unicode="&#xF117;"
      horiz-adv-x="1000" d=" M948.5 389.7000000000001L821.1 517.2C786.8 551.5 745.1 568.7 696.1 568.7C646.3 568.7 603.8 550.7 568.7 514.8L514.8 568.7C550.7 603.8 568.7 646.5 568.7 696.8C568.7 745.8 551.7 787.3 517.8 821.2L391.6 948C357.7000000000001 982.7 316 1000.1 266.6 1000.1C217.6 1000.1 176.1 983.1 142.2000000000001 949.2L52.1 859.7C17.4 825.8 0 784.3 0 735.3S17.2 644.6 51.5 610.3L178.9 482.9C213.1999999999999 448.5999999999999 254.9 431.4 303.9 431.4C353.7 431.4 396.2 449.4 431.3 485.3L485.1999999999999 431.4C449.3 396.3 431.3 353.5999999999999 431.3 303.3C431.3 254.3 448.3 212.8 482.1999999999999 178.9L608.3999999999999 52.1C642.3 17.4 683.9999999999999 0 733.3999999999999 0C782.3999999999999 0 823.8999999999999 17 857.8 50.9L947.8999999999997 140.4C982.6 174.3 999.9999999999998 215.8 999.9999999999998 264.8C999.9999999999998 313.7 982.8 355.4 948.4999999999998 389.7zM431.4 651.9C430.2 653.0999999999999 426.4 657 420.1 663.5S409.4 674.4 406.9 676.7C404.4 678.9 400.6 682 395.3 685.9C390 689.8 384.8 692.4 379.7 693.9C374.5999999999999 695.3 369 696 362.8 696C346.5 696 332.6 690.3 321.1 678.8C309.7 667.4 303.9 653.5 303.9 637.0999999999999C303.9 631 304.6 625.4 306 620.3C307.4 615.1999999999999 310.1 610 314 604.6999999999999C317.9 599.4 320.9 595.5 323.2 593.0999999999999C325.4 590.5999999999999 329.8 586.3 336.4 579.9C342.9 573.5999999999999 346.8 569.8 348 568.5999999999999C335.7 555.9 321 549.5999999999999 303.9 549.5999999999999C287.2 549.5999999999999 273.3 555.0999999999999 262.2 566.0999999999999L134.8 693.6C123.4 705 117.5999999999999 718.9 117.5999999999999 735.3C117.5999999999999 751.2 123.3 764.9 134.8 776.3L224.9 865.8C236.8 876.8 250.6 882.3 266.6 882.3C282.9 882.3 296.8 876.6 308.3 865.1L434.5 738.3C445.8999999999999 726.9 451.6999999999999 713 451.6999999999999 696.6C451.5999999999999 679.5 444.8 664.6 431.3999999999999 651.9zM865.2 223.7000000000001L775.1 134.2000000000001C763.7 123.6 749.8 118.3000000000001 733.4 118.3000000000001C716.6 118.3000000000001 702.8 123.8000000000001 691.7 134.8000000000001L565.5 261.6C554.1 273 548.4 286.9000000000001 548.4 303.3C548.4 320.5 555.1 335.4000000000001 568.6 348C569.8 346.8 573.6 342.9 579.9 336.4C586.2 329.9 590.6 325.5 593.1 323.2000000000001C595.6 321 599.4 317.9 604.7 314C610 310.1 615.2 307.5 620.3 306C625.4 304.6 631 303.9 637.1 303.9C653.5 303.9 667.3 309.5999999999999 678.8 321C690.2 332.4 696 346.3 696 362.7000000000001C696 368.8 695.3 374.4 693.9 379.5C692.5 384.6 689.8 389.8 685.9 395.1C682 400.4000000000001 679 404.3 676.7 406.7000000000001C674.5 409.1 670.1 413.5 663.5 419.9000000000001C657 426.2000000000001 653.1 430 651.9 431.2000000000001C664.2 444.3000000000001 678.9 450.8000000000001 696 450.8000000000001C712.3 450.8000000000001 726.2 445.1000000000002 737.7 433.6000000000002L865.2 306.2000000000001C876.6 294.8000000000001 882.4 280.9000000000001 882.4 264.5C882.4 248.8 876.6 235.1 865.2 223.7000000000001z" />
    <glyph glyph-name="mail-padded"
      unicode="&#xF118;"
      horiz-adv-x="1200.1" d=" M95 164.5V688.1C98.9 685.1 102.9 682.2 106.8 679.2C214.1 598.4 321.6 517.9 435 445.9C476.5 419.5 520.3 396.6 563.4 372.7C587.9 359.0999999999999 613.1999999999999 359.4 638 372.2C666.1 386.5999999999999 694.8 399.9999999999999 721.7 416.2C833.5 483.5999999999999 938.1000000000003 561.3 1042.2 639.6999999999999C1063.7 655.8999999999999 1085.3 672 1106.9 688.1999999999999V170.4999999999999C1106.5 169.9999999999999 1105.9 169.5999999999999 1105.7 168.9999999999999C1092.7 120.7999999999999 1064.3 98.9999999999999 1014.4 98.9999999999999H256.5C229.5 98.9999999999999 202.5 98.3999999999999 175.5 99.1999999999999C142.3 100.0999999999999 118.2 116.4 102.7 145.4999999999999C99.6 151.3999999999999 97.6 158.0999999999999 95 164.4999999999999z M1107 869.9V814.6C1098.3 808.2 1089.5 802 1081.1 795.4000000000001C970.5 708.6 859 623 740.7 546.9C706.5 524.9 670 506.5 634.1 487.1999999999999C613.2 475.9999999999999 591.4 475.0999999999999 569.7 486.1999999999999C558.3000000000001 491.9999999999999 546.3000000000001 496.8 535.1 502.9999999999999C456.6 546.5 383.9000000000001 598.6999999999999 312.1 652.1999999999999C239.1 706.8 167.3 763 95 818.5V877.8C98.1 884.5999999999999 100.6 891.6999999999999 104.3 898.0999999999999C122.5 929.2 150.2000000000001 941.8 185.9 941.7C462.1 941.4 738.4000000000001 941.4999999999998 1014.6000000000003 941.4999999999998C1018.5000000000002 941.4999999999998 1022.5000000000002 941.4 1026.4 941.3C1062.1000000000001 939.9 1092.8000000000002 916.2 1103.2 882C1104.5 877.9 1105.7 873.9 1107 869.9z" />
    <glyph glyph-name="mail"
      unicode="&#xF119;"
      horiz-adv-x="1200.123" d=" M0 78.005V699.162C4.683 695.66 9.38 692.1759999999999 14.048 688.654C141.194 592.7470000000001 268.702 497.267 403.212 411.8140000000001C452.48 380.5140000000001 504.41 353.3640000000001 555.472 324.9410000000001C584.529 308.7670000000001 614.5 309.187 643.987 324.3110000000001C677.265 341.379 711.305 357.2530000000001 743.274 376.5310000000001C875.814 456.461 999.889 548.6610000000001 1123.3899999999999 641.628C1148.9299999999998 660.854 1174.543 679.9860000000001 1200.1229999999998 699.162V85.038C1199.6429999999998 84.443 1198.8999999999999 83.92 1198.7179999999998 83.245C1183.3159999999998 26.0890000000001 1149.6129999999998 0.231 1090.416 0.23C790.826 0.227 491.236 0.227 191.646 0.23C159.616 0.232 127.569 -0.423 95.564 0.47C56.234 1.5700000000001 27.644 20.918 9.284 55.388C5.47 62.5460000000001 3.057 70.448 0 78.008z M1200.123 914.81V849.178C1189.863 841.585 1179.406 834.24 1169.3690000000001 826.362C1038.2290000000003 723.432 906.0220000000002 621.889 765.7020000000002 531.634C725.1550000000002 505.554 681.8590000000003 483.66 639.2820000000003 460.86C614.5270000000003 447.605 588.6380000000003 446.514 562.8820000000003 459.66C549.3480000000003 466.5659999999999 535.1740000000003 472.276 521.9060000000003 479.6369999999999C428.8460000000003 531.2629999999999 342.5800000000003 593.2069999999999 257.5060000000003 656.673C170.858 721.313 85.772 788.048 0 853.866V924.186C3.646 932.226 6.62 940.656 11.053 948.236C32.653 985.162 65.493 1000.05 107.786 1000C435.384 999.598 762.982 999.78 1090.58 999.767C1095.264 999.767 1099.9499999999998 999.677 1104.6299999999999 999.494C1146.9959999999999 997.851 1183.3429999999998 969.722 1195.6599999999999 929.097C1197.11 924.323 1198.6339999999998 919.572 1200.1229999999998 914.81z" />
    <glyph glyph-name="minus-thick"
      unicode="&#xF11A;"
      horiz-adv-x="3323.1" d=" M0 1000H3323.1V0H0z" />
    <glyph glyph-name="minus"
      unicode="&#xF11B;"
      horiz-adv-x="1000" d=" M0 536H1000V450H0z" />
    <glyph glyph-name="petrol-engine"
      unicode="&#xF11C;"
      horiz-adv-x="884.4" d=" M177.2 876.9C207.3 876.9 231.2 853 231.2 822.9S207.3 768.9 177.2 768.9S123.2 792.8 123.2 822.9S147.1 876.9 177.2 876.9M177.2 1000C79.3 1000 0 920.7 0 822.8S79.3 645.7 177.2 645.7S354.3 725 354.3 822.8S275 1000 177.2 1000zM772.2 645.7C796.1 645.7 816 625.9 816 601.9C816 578 796.2 558.0999999999999 772.2 558.0999999999999S728.4000000000001 577.9 728.4000000000001 601.9S747.6000000000001 645.7 772.2 645.7M772.2 714.1C710 714.1 660 663.5 660 601.9000000000001S710.7 489.7 772.2 489.7S884.4000000000001 540.3 884.4000000000001 601.9S833.8000000000001 714.1 772.2 714.1zM340.6 373.5C390.5 373.5 431.6 332.5 431.6 282.5C431.6 232.6 390.6 191.5 340.6 191.5S249.6 232.5 249.6 282.5C249.7 332.4 290 373.5 340.6 373.5M340.6 503.4C218.8 503.4 119.7 404.2 119.7 282.5S218.9 61.6 340.6 61.6S561.5 160.8000000000001 561.5 282.5S462.3999999999999 503.4 340.6 503.4z M340.6 530.8C477.4 530.8 588.9000000000001 420 588.9000000000001 282.5S478.1 34.2 340.6 34.2C203.8 34.2 92.3 145 92.3 282.5S203.1 530.8 340.6 530.8M340.6 565C184.6 565 58.1 437.8 58.1 282.5S184.7 0 340.6 0S622.4000000000001 126.5 622.4000000000001 282.5S495.9 565 340.6 565zM7.5 720.9L47.9 359.0999999999999L85.5 439.8L57.5 667.5999999999999M328.3 947.3L365.9000000000001 876.9L713.4000000000001 720.9L779.8000000000001 742.0999999999999M766.1 464.4L640.2 293.4L631.3000000000001 200.4L833.8000000000001 474" />
    <glyph glyph-name="phone"
      unicode="&#xF11D;"
      horiz-adv-x="1000" d=" M997.8 225.2000000000001C995 233.7000000000001 977 246.3000000000001 943.8 262.8000000000001C934.8 268.0000000000001 922 275.1 905.5 284.1C888.9 293.1 873.9 301.4 860.4 309C846.9 316.6 834.1999999999999 323.9 822.4 331C820.5 332.4 814.6 336.6 804.6 343.4C794.7 350.3 786.3000000000001 355.4 779.4 358.7C772.5 361.9999999999999 765.8 363.7 759.1999999999999 363.7C749.6999999999999 363.7 737.9 356.9999999999999 723.6999999999999 343.4999999999999S696.4999999999999 315.2999999999999 684.5999999999999 299.4999999999999C672.8 283.5999999999999 660.1999999999999 268.9999999999999 646.9999999999999 255.4999999999999C633.6999999999999 241.9999999999999 622.7999999999998 235.2999999999999 614.2999999999998 235.2999999999999C609.9999999999999 235.2999999999999 604.6999999999998 236.4999999999999 598.2999999999998 238.7999999999999C591.8999999999999 241.1999999999998 587.0999999999998 243.1999999999998 583.6999999999998 244.7999999999999C580.3999999999999 246.4999999999999 574.6999999999998 249.7999999999999 566.6999999999998 254.7999999999999C558.5999999999998 259.7999999999999 554.0999999999998 262.4999999999999 553.1999999999998 262.9999999999999C488.2999999999998 298.9999999999999 432.6999999999998 340.2 386.2999999999999 386.5999999999999C339.8999999999999 432.9999999999999 298.6999999999998 488.5999999999999 262.6999999999998 553.4999999999999C262.1999999999998 554.4999999999999 259.4999999999999 558.8999999999999 254.4999999999999 566.9999999999999C249.4999999999999 575.0999999999999 246.1999999999998 580.6999999999998 244.5999999999998 584.0999999999999C242.8999999999999 587.3999999999999 240.8999999999999 592.3 238.5999999999998 598.6999999999999C236.1999999999998 605.0999999999999 235.0999999999998 610.3999999999999 235.0999999999998 614.6999999999999C235.0999999999998 623.1999999999999 241.7999999999998 634.0999999999999 255.2999999999998 647.3999999999999C268.7999999999999 660.6999999999999 283.4999999999999 673.1999999999999 299.2999999999999 685C315.1999999999998 696.8 329.7999999999999 709.8999999999999 343.2999999999999 724.0999999999999C356.7999999999999 738.3 363.4999999999999 750.0999999999999 363.4999999999999 759.5999999999999C363.4999999999999 766.1999999999999 361.7999999999999 773 358.4999999999999 779.8C355.1999999999998 786.6999999999999 350.0999999999999 795.0999999999999 343.1999999999998 805C336.2999999999999 814.9 332.1999999999998 820.9 330.7999999999999 822.8C323.6999999999998 834.5999999999999 316.3999999999999 847.3 308.7999999999999 860.8S292.8999999999999 889.3 283.8999999999999 905.9C274.8999999999999 922.5 267.7999999999999 935.3 262.5999999999999 944.2C246.2 977 233.7 995 225.2 997.9C221.9 999.3 216.9 1000 210.3 1000C197.5 1000 180.8 997.6 160.2 992.9C139.6 988.2 123.4 983.2 111.5 978C87.9 968 62.8 939.2 36.2 891.3C12.1 846.8 0 802.8 0 759.2C0 746.5 0.9 734 2.5 722C4.2 709.9 7.1 696.3 11.4 681.2C15.7 666 19.1 654.8 21.7 647.5S29.2 627 36.3 608.1S47.7 577.6 49.1 573.3C65.7 526.9 85.3 485.5 108 449C145.4 388.4 196.4 325.8 261 261.1S388.3 145.4 448.9 108C485.4 85.3 526.8 65.6 573.1999999999999 49C577.4999999999999 47.6 589.0999999999999 43.3 607.9999999999999 36.2C626.8999999999999 29.1 640.0999999999999 24.2 647.3999999999999 21.6S665.9999999999999 15.6 681.0999999999999 11.3000000000001C696.3 7.0000000000001 709.8999999999999 4.1 721.8999999999999 2.4000000000001C733.9999999999999 0.8000000000001 746.3999999999999 -0.0999999999999 759.1999999999998 -0.0999999999999C802.7999999999998 -0.0999999999999 846.7999999999998 12.0000000000001 891.2999999999998 36.1000000000001C939.0999999999998 62.6000000000001 967.9999999999998 87.7000000000002 977.8999999999997 111.4000000000001C983.1 123.2000000000001 988.1 139.4000000000001 992.7999999999998 160.0000000000001C997.4999999999998 180.6000000000001 999.8999999999997 197.3000000000001 999.8999999999997 210.1000000000001C999.9999999999998 216.9000000000001 999.2999999999998 221.8000000000002 997.7999999999998 225.2000000000002z" />
    <glyph glyph-name="pin"
      unicode="&#xF11E;"
      horiz-adv-x="748.489" d=" M375.194 0C402.7940000000001 0 430.01 33.11 430.01 33.11C489.537 97.744 544.365 165.523 593.795 238.15C646.005 314.8640000000001 691.8599999999999 394.682 722.2189999999999 482.904C747.9839999999999 557.777 757.319 633.434 738.7339999999999 711.534C695.852 891.736 526.02 1020.01 330.455 997.42C232.365 986.09 150.43 941.835 87.355 865.69C15.015 778.363 -12.465 677.76 5.173 565.485C14.988 503.007 37.68 444.6900000000001 65.708 388.41C130.676 257.9600000000001 217.796 144.314 315.142 36.694C315.142 36.694 346.018 0 375.194 0zM374.32 375.9600000000001C236.57 375.9160000000001 124.52 488.008 124.61 625.7620000000001C124.698 763.724 236.48 875.2370000000001 374.592 875.142C512.444 875.046 624.152 762.942 623.842 625.0060000000001C623.536 487.6930000000001 511.635 376.0060000000001 374.32 375.9610000000002z M232.264 625.39C232.264 547.1632834644668 295.6792834644667 483.748 373.906 483.748C452.1327165355333 483.748 515.548 547.1632834644668 515.548 625.39C515.548 703.6167165355332 452.1327165355333 767.0319999999999 373.906 767.0319999999999C295.6792834644667 767.0319999999999 232.264 703.6167165355332 232.264 625.39z" />
    <glyph glyph-name="plus-thick"
      unicode="&#xF11F;"
      horiz-adv-x="1000" d=" M1000 650.5H650.5V1000H349.5V650.5H0V349.5H349.5V0H650.5V349.5H1000" />
    <glyph glyph-name="plus"
      unicode="&#xF120;"
      horiz-adv-x="1000" d=" M449 1001.3H535V-1.3000000000001H449z M0 536H1000V450H0z" />
    <glyph glyph-name="refresh"
      unicode="&#xF121;"
      horiz-adv-x="1000" d=" M987.6 946C979.4 954.2 969.6 958.4 958.3 958.4S937.3 954.3 929 946L844.4 862C798 905.8 744.8 939.8 684.9 963.9C625 988 563.4 1000 500 1000C380.6 1000 276.5 963.9 187.5 891.6C98.5 819.3 39.9 725 11.7 608.7V604.1C11.7 598.5 13.8000000000001 593.6 17.9000000000001 589.5S26.9000000000001 583.3000000000001 32.5000000000001 583.3000000000001H162.1000000000001C171.6000000000001 583.3000000000001 178.2000000000002 588.3000000000001 181.6000000000001 598.3000000000001C199.8000000000002 641.7 211.3000000000002 667.1 216.1000000000001 674.5C246.5 724 286.9 762.8 337.2 791C387.6 819.2 441.8 833.3 500 833.3C587.2 833.3 663 803.6 727.2 744.1L637.3 654.3C629.1 646.1 624.9 636.3 624.9 625S629 604 637.3 595.7C645.6 587.5 655.3 583.3 666.6 583.3H958.3C969.6 583.3 979.3 587.4 987.6 595.7C995.8 603.9 1000 613.7 1000 625V916.7C1000 928 995.9 937.7 987.6 946zM962.9 416.7000000000001H837.9C828.4 416.7000000000001 821.8 411.7000000000001 818.4 401.7000000000001C800.2 358.3 788.7 332.9 783.9 325.5C753.5 276 713.1 237.2000000000001 662.8 209C612.4 180.8 558.2 166.7000000000001 500 166.7000000000001C457.9 166.7000000000001 417.3 174.5 378.3 190.1C339.2 205.7000000000001 304.3 227.9 273.5 256.5L362.7 345.7000000000001C370.9 353.9 375.1 363.7000000000001 375.1 375S371 396.1 362.7 404.3C354.5 412.6 344.7 416.7000000000001 333.4 416.7000000000001H41.7C30.4000000000001 416.7000000000001 20.6 412.5999999999999 12.4000000000001 404.3C4.2 396.1 1e-13 386.3 1e-13 375V83.3C1e-13 72 4.1000000000001 62.1999999999999 12.4000000000001 54S30.4000000000001 41.6 41.7 41.6S62.7000000000001 45.7 71 54L155 138C201.4 93.7000000000001 254.3 59.7000000000001 313.5 35.8C372.7 11.9 434 0 497.4 0C616.3 0 720.0999999999999 36.1 808.5999999999999 108.4C897.0999999999999 180.6999999999999 955.3 275 983.1 391.3C983.5 392.2 983.7 393.7 983.7 395.9C983.7 401.5 981.6 406.4 977.5 410.5S968.5 416.7000000000001 962.9 416.7000000000001z" />
    <glyph glyph-name="reply"
      unicode="&#xF122;"
      horiz-adv-x="1120" d=" M1120 340C1120 270.8 1093.5 176.9 1040.6 58.1C1039.3999999999999 55.2 1037.1999999999998 50.2 1034 43.1C1030.9 36 1028.1 29.8000000000001 1025.6 24.3000000000001C1023.1 18.9000000000001 1020.3999999999997 14.3000000000001 1017.5 10.5000000000001C1012.5 3.4000000000001 1006.7 -0.0999999999999 1000 -0.0999999999999C993.8 -0.0999999999999 988.9 2.0000000000001 985.3 6.1000000000001C981.8 10.3000000000002 980 15.5000000000001 980 21.7000000000002C980 25.4000000000002 980.5 31.0000000000001 981.6 38.3000000000002C982.6 45.6000000000001 983.1999999999998 50.5000000000002 983.1999999999998 53.0000000000002C985.2999999999998 81.3000000000002 986.2999999999998 107.0000000000002 986.2999999999998 129.9000000000002C986.2999999999998 172.0000000000002 982.6999999999998 209.7000000000002 975.3999999999996 243.0000000000003C968.0999999999996 276.3000000000002 957.9999999999995 305.2000000000003 945.0999999999996 329.6000000000003C932.1999999999996 354.0000000000003 915.4999999999998 375.0000000000003 895.0999999999997 392.7000000000003C874.6999999999997 410.4000000000002 852.6999999999997 424.9000000000002 829.1999999999997 436.1000000000003C805.6999999999997 447.3000000000002 777.9999999999997 456.2000000000003 746.0999999999997 462.7000000000003C714.1999999999997 469.2000000000003 682.0999999999997 473.6000000000003 649.8999999999996 476.1000000000003S580.9999999999997 479.9000000000002 540.1999999999996 479.9000000000002H400V319.9000000000002C400 309.1000000000003 396 299.7000000000002 388.1 291.8000000000002C380.2000000000001 283.9000000000002 370.8000000000001 279.9000000000002 360 279.9000000000002S339.8 283.9000000000002 331.9 291.8000000000002L11.9 611.8000000000002C4 619.7 0 629.1 0 639.9S4 660.1 11.9 668L331.9 988C339.8 995.9 349.2 999.9 360 999.9S380.2000000000001 995.9 388.1 988S400 970.9 400 960V800H540C837.1 800 1019.4 716 1086.9 548.1C1108.9 492.3 1120 423 1120 340z" />
    <glyph glyph-name="retweet"
      unicode="&#xF123;"
      horiz-adv-x="1666.7" d=" M966.1 212.7000000000001C960.9 219.1 953.7 222.2000000000001 944.4 222.2000000000001H444.4V555.6H611.0999999999999C626.0999999999999 555.6 639.2 561.1 650.2 572.1S666.7 596.1 666.7 611.2C666.7 625.1 662.4 637 653.7 646.8000000000001L375.8 980.1C364.8 992.8 350.5999999999999 999.2 333.3 999.2C315.9 999.2 301.8 992.8 290.8 980.1L13 646.8C4.3 637 0 625.0999999999999 0 611.2C0 596.0999999999999 5.5 583.0999999999999 16.5 572.0999999999999S40.5 555.5999999999999 55.6 555.5999999999999H222.3V34.8C222.3 33.0999999999999 222.5999999999999 29.6999999999999 223.1999999999999 24.8C223.8 19.9 224.6999999999999 16.5999999999999 225.8 14.8C227 13.0999999999999 228.5 10.6999999999999 230.5999999999999 7.9C232.5999999999999 5 235.2 3 238.3999999999999 1.8C241.5999999999999 0.5999999999999 245.4999999999999 0.0999999999999 250.0999999999999 0.0999999999999H1083.3C1090.8 0.0999999999999 1097.3 2.8 1102.8 8.3C1108.3 13.8 1111 20.3 1111 27.8C1111 33.5999999999999 1109 39.6999999999999 1104.8999999999999 46L966.1 212.7000000000001zM1650.1 427.9C1639.1 438.9 1626.1 444.4 1611 444.4H1444.4V965.3C1444.4 967 1444.1 970.4 1443.5 975.3C1442.9 980.2 1442 983.5 1440.9 985.3C1439.6999999999998 987 1438.1999999999998 989.4 1436.1 992.2C1434.1 995.1 1431.5 997.1 1428.3 998.3C1425.1 999.5 1421.2 1000 1416.6 1000H583.3C575.8 1000 569.3 997.3 563.8 991.8C558.3 986.3 555.5999999999999 979.8 555.5999999999999 972.3C555.5999999999999 965.9 557.5999999999999 960.2 561.7 954.9L700.6 788.2C705.8 781.3 713 777.8 722.3 777.8H1222.3V444.5H1055.5C1040.5 444.5 1027.3999999999999 439 1016.4 428S999.9 404 999.9 388.9C999.9 375 1004.3 363.1 1012.9 353.3L1290.8 20C1302.4 6.7 1316.5 0 1333.3 0S1364.1999999999998 6.6 1375.8 20L1653.6 353.3C1662.3 363.0999999999999 1666.6 375 1666.6 388.9C1666.6 403.9 1661.1 416.9 1650.1 427.9z" />
    <glyph glyph-name="rugged-pack-no"
      unicode="&#xF124;"
      horiz-adv-x="1000" d=" M911.1 339.9C805.3000000000001 492.2 698.1 644.5999999999999 592.3 796.9C569.6999999999999 829.3 535.9 829.3 513.3 795.5C482.3 750.4 452.6999999999999 703.8 423 658.6999999999999C420.2 654.5 417.3999999999999 650.1999999999999 413.1 646C384.9 678.3999999999999 358.1 677 335.5 643.1999999999999C329.9 636.0999999999999 325.6 627.6999999999999 320 620.5999999999999C257.9 528.8999999999999 195.9 437.2 132.4 344.2C159.2 324.4999999999999 188.8 317.4 218.4 321.5999999999999C267.8 328.7 315.7 337.0999999999999 363.7000000000001 351.2C434.2000000000001 370.9 501.9 394.9 575.3000000000001 397.7C613.4000000000001 399.0999999999999 651.5000000000001 397.7 688.1 390.5999999999999C554.1 366.5999999999999 449.7000000000001 334.2 421.5 304.5999999999999C462.4 303.2 501.9 301.8 542.8 303.2C555.5 303.2 568.1999999999999 304.5999999999999 580.9 308.8C665.5 342.7 753 361 844.7 348.3C867.3000000000001 345.5 889.8000000000001 338.4 913.8 334.2C912.6 335.7 911.1 338.4999999999999 911.1 339.9zM661.5 558.5L527.5 540.2C503.5 530.3 481 517.5999999999999 457 506.3C424.6 490.8 392.1 480.9 355.4 488C332.8 492.2 314.5 502.1 297.6 519C321.6 554.3 344.1 588.1 368.1 622C375.2 631.9 386.4 630.5 392.1 620.6C396.3 615 399.2 607.9000000000001 402 600.9000000000001C410.5 585.4000000000001 414.7 585.4000000000001 424.6 599.5C459.9 650.3000000000001 493.6999999999999 702.5 529 753.2C531.8 756 533.2 760.3000000000001 536.1 763.1C547.4 778.6 555.8000000000001 778.6 567.1 763.1C615.1 694 664.4 624.9000000000001 712.4000000000001 555.8000000000001C713.8000000000001 553 715.2 550.2 718.0000000000001 545.9000000000001C698.2000000000002 548.7 679.8000000000001 554.3000000000001 661.5000000000001 558.5000000000001z M499.3 999.9C638.9 998.5 760.2 949.2 857.5 849C961.9 743.2 1008.4 613.5 998.5 465.4C990 339.9 939.3 231.3 849 142.5C750.3 46.6 630.4 -2.8 492.2 0.1C354 2.9 234.1 55.1 138.2 155.2000000000001C43.8 255.3 -2.8 375.2000000000001 0.1 512C2.9 646 53.7 761.6 149.6 856.1C239.8 946.3 368.1 1001.3 499.3 999.9zM514.8 84.6999999999999C528.9 86.0999999999999 558.5 88.9 586.6999999999999 94.5999999999999C665.6999999999999 110.0999999999999 734.8 148.1999999999999 792.5999999999999 204.5999999999999C829.3 239.8999999999999 857.4999999999999 282.2 878.5999999999999 328.7C901.2 378.0999999999999 913.8999999999997 428.8 915.3 483.8V521.9C915.3 536 913.9 548.7 912.5 562.8C906.9 598.0999999999999 897 633.3 882.9 667.1999999999999C864.5 708 842 744.7 811 778.5C805.4 784.1 802.5 785.6 796.9 779.9C764.5 741.8 730.6 705.2 698.1999999999999 667.1C660.0999999999999 623.4000000000001 620.5999999999999 578.3 582.5999999999999 534.5C551.5999999999999 499.2 519.0999999999999 462.6 488.0999999999999 427.3C445.7999999999999 377.9 403.4999999999999 330 361.2 280.5999999999999C330.2 243.8999999999999 297.7 208.6999999999999 266.7 171.9999999999999C261.0999999999999 166.3999999999999 262.5 163.4999999999999 268.0999999999999 159.2999999999999C337.0999999999999 110.0999999999998 414.7 86.0999999999998 514.8 84.6999999999998zM84.6999999999999 493.6999999999999C86.0999999999999 485.1999999999999 86.0999999999999 469.6999999999999 88.8999999999999 454.1999999999999C93.0999999999999 430.2 95.9999999999999 404.8 102.9999999999999 380.9C119.8999999999999 323.1 148.0999999999999 270.9 189 225.8C194.5999999999999 220.1999999999999 196.0999999999999 220.1999999999999 201.6999999999999 225.8S211.5999999999999 237.0999999999999 217.1999999999999 242.7C255.3 286.4 294.8 331.4999999999999 332.8 375.3C370.9 419 409 462.7 447 506.5C479.4 543.2 510.5 579.8 542.9 616.5C585.1999999999999 665.9 628.9 715.2 671.2 763.2C690.9000000000001 785.8 710.7 808.3 730.4000000000001 830.9C736.0000000000001 838 737.5000000000001 839.4 729.0000000000001 843.5999999999999C710.7000000000002 853.5 693.7000000000002 864.8 674.0000000000001 874.5999999999999C630.3000000000001 895.8 582.3000000000001 907 534.4000000000001 912.7C516.1000000000001 914.1 496.3000000000001 914.1 478.0000000000001 912.7C455.4000000000001 911.3 432.9000000000001 909.9 410.3000000000002 904.2C318.6000000000002 883 241.1000000000002 836.5 180.4000000000001 764.5999999999999C117.1000000000001 688.3 86.1000000000001 599.4 84.7000000000001 493.7z" />
    <glyph glyph-name="rugged-pack-yes"
      unicode="&#xF125;"
      horiz-adv-x="1000" d=" M996.4 234.8C861 429.7000000000001 725.6 626.5 588.4 821.4C559.5 862.9 516.1999999999999 862.9 487.3 819.6C447.6 761.8 409.7 702.3 371.8 644.5C368.2 639.1 364.6 633.7 359.2 628.3C323.0999999999999 669.8 288.8 668 259.8999999999999 624.7C252.7 615.7 247.3 604.8 239.9999999999999 595.8C160.6 476.7 81.2 359.4 0 240.2000000000001C34.3 214.9000000000001 72.2 205.9000000000001 110.1 211.3000000000001C173.3 220.3000000000001 234.6 231.2000000000001 296 249.2000000000001C386.3 274.5 472.9 305.2000000000001 566.8 308.8000000000001C615.5 310.6 664.3 308.8000000000001 711.1999999999999 299.8000000000001C539.6999999999999 269.1 406.0999999999999 227.6 370 189.7000000000001C422.3 187.9000000000001 472.9 186.1 525.1999999999999 187.9000000000001C541.4 187.9000000000001 557.6999999999999 189.7000000000001 573.9 195.1000000000001C682.1999999999999 238.4000000000001 794.0999999999999 261.9000000000001 911.4 245.6000000000002C940.3 242.0000000000001 969.2 233.0000000000001 999.8 227.5000000000001C998.2 231.2000000000002 996.4 233.0000000000001 996.4 234.8000000000001zM676.9 514.6L505.4 491.1C474.7 478.5 445.8 462.2 415.1 447.8000000000001C373.6 427.9000000000001 332.1 415.3000000000001 285.1 424.3000000000001C256.2 429.7000000000001 232.8 442.4000000000001 211.1 464.0000000000001C241.8 509.1000000000001 270.7 552.4000000000001 301.4 595.8000000000002C310.4 608.4000000000001 324.9 606.6000000000001 332.1 594.0000000000001C337.5 586.8000000000002 341.1 577.8000000000002 344.7 568.7C355.5 548.8000000000002 360.9 548.8000000000002 373.6 566.9000000000001C418.7 631.9000000000001 462 698.7 507.1999999999999 763.7C510.8 767.3000000000001 512.5999999999999 772.7 516.1999999999999 776.3000000000001C530.5999999999999 796.2 541.4999999999999 796.2 555.9 776.3000000000001C617.3 687.9000000000001 680.4 599.4000000000001 741.8 511.0000000000001C743.5999999999999 507.4000000000001 745.4 503.8000000000001 749 498.4000000000001C723.8 503.8000000000001 700.4 511.0000000000001 676.9 514.6000000000001z" />
    <glyph glyph-name="search"
      unicode="&#xF126;"
      horiz-adv-x="997.046" d=" M450.296 998.097C553.323 987.562 641.146 944.527 710.654 868.024C805.9 763.192 839.364 640.1610000000001 811.054 500.957C802.8299999999999 460.527 787.009 422.865 767.019 386.639C769.332 383.992 771.179 381.6430000000001 773.264 379.529C828.184 323.8830000000001 883.2760000000001 268.405 937.989 212.5550000000001C957.254 192.8900000000001 975.599 172.3250000000001 994.366 152.172C994.366 152.172 996.726 149.1650000000001 997.014 143.967C997.308 138.6709999999999 995.444 136.023 995.444 136.023C993.254 132.918 990.377 130.0070000000001 987.731 127.3530000000001C946.784 86.287 905.727 45.33 864.6949999999999 4.3470000000001C864.6949999999999 4.3470000000001 859.5189999999999 -0.0009999999999 855.3019999999999 -0.0009999999999S846.5419999999999 4.3470000000001 846.5419999999999 4.3470000000001C831.0919999999999 19.2710000000001 815.367 33.9230000000001 800.2399999999999 49.1670000000001C742.7319999999999 107.1170000000002 685.1399999999999 164.9950000000001 628.3299999999999 223.6250000000001C619.9839999999999 232.2370000000001 614.7349999999999 232.9130000000001 604.7149999999999 227.3770000000001C526.295 184.0500000000001 442.6309999999999 168.1370000000001 353.603 180.1130000000001C185.353 202.7480000000001 44.826 331.68 8.83 497.237C-3.6 549.49 0.73 630.06 0.73 630.06C17.3 803.52 147.7 951.5 317.973 989.65C317.973 989.65 379.6600000000001 1005.32 450.2960000000001 998.097zM660.708 586.627C663.456 719.0369999999999 551.9449999999999 836.807 421.346 839.423C275.864 842.338 161.9 734.71 158.872 591.54C155.959 453.827 267.134 339.453 406.6950000000001 336.586C544.5 333.756 657.7750000000001 445.259 660.7080000000001 586.626z" />
    <glyph glyph-name="share"
      unicode="&#xF127;"
      horiz-adv-x="999.143" d=" M801.972 394.3390000000001C752.742 394.3390000000001 707.765 376.2560000000001 673.216 346.4240000000001C580.278 393.1620000000002 487.253 439.7280000000001 394.076 485.9870000000001C394.249 489.3850000000001 394.3400000000001 499.8870000000001 394.3400000000001 503.3270000000001C394.3400000000001 508.217 394.1 524.933 393.7500000000001 524.933H393.8160000000001C487.624 574.933 581.273 611.3330000000001 674.8510000000001 658.3610000000001C709.1810000000002 629.369 753.5210000000001 608.331 801.9740000000002 608.331C910.8680000000002 608.331 999.1440000000002 694.841 999.1440000000002 803.736C999.143 912.631 910.867 1000.024 801.973 1000.024S604.803 911.307 604.803 802.414C604.803 798.018 604.997 793.451 605.28 789.1279999999999C605.2099999999999 789.093 605.155 788.9449999999999 605.084 788.91C511.0239999999999 742.21 417.14 695.086 323.072 648.03C288.918 676.402 245.042 693.4449999999999 197.17 693.4449999999999C88.276 693.444 0 605.154 0 496.262C0 387.367 88.276 299.084 197.17 299.084C246.538 299.084 291.63 317.266 326.218 347.248C419.45 300.752 512.2829999999999 254.4409999999999 605.126 208.2009999999999C604.924 204.5479999999999 604.802 200.8729999999999 604.802 197.1709999999999C604.802 88.276 693.078 -0.0010000000001 801.972 -0.0010000000001S999.142 88.2749999999999 999.142 197.1689999999999C999.142 306.0629999999999 910.867 394.3389999999999 801.972 394.3389999999999z" />
    <glyph glyph-name="spanner-padded"
      unicode="&#xF128;"
      horiz-adv-x="1001.4" d=" M63.8 337.8C76.7 360.5 94.9 382 115.2 398.4C200 466.6999999999999 286.4 533.0999999999999 372.6 599.5999999999999C385.7 609.7 390.4 618.5 388 636.4C363.4 820 513.9 978.2 698.4 963C719 961.3 739.5 955.7 759.5 950.2C784.5 943.2 789.9 918.1 770.9 899.3C736 864.8 700.8 830.7 665.6999999999999 796.4C652.4 783.4 638.8 770.6 626.0999999999999 757.1C622.9999999999999 753.8 620.8999999999999 747.5 621.6999999999999 743.2C627.4 711.5 633.8 680 640.5999999999999 648.5C641.3999999999999 644.9000000000001 645.8999999999999 640.2 649.3999999999999 639.4000000000001C680.7999999999998 632.5 712.3999999999999 626 744.0999999999999 620.4000000000001C749.0999999999999 619.5 756.4999999999999 622.1 760.1999999999999 625.8C806.9999999999999 670.8 853.4 716.3 899.8999999999999 761.6C923.4999999999998 784.6 946.6 778.3 955.2999999999998 746.6C1001.4999999999998 578.1 883.2999999999998 403.6 709.7999999999998 386C682.5999999999998 383.2000000000001 654.6999999999998 386.7000000000001 627.2999999999998 388.5C619.0999999999998 389 613.9999999999999 387.7000000000001 608.8999999999999 381.1C554.6999999999998 310.5 500.4999999999999 240 445.7999999999999 169.8C429.0999999999999 148.3 411.2999999999999 127.5999999999999 393.5999999999999 106.9C393.5999999999999 106.9 310.8999999999999 28 209.4999999999999 36.8C127.5999999999999 51.4 73.1999999999999 98.3 45.4999999999999 176.4C16.3999999999999 259.4 63.7999999999999 337.8 63.7999999999999 337.8zM239.8 295.8C207.8 296.0999999999999 181.7 270.8 181 238.8C180.3 207 207.3 179.5 239.3 179.5C270.8 179.5 297.2 205.9 297.3 237.5C297.5 269.4 271.7 295.5 239.8 295.8z" />
    <glyph glyph-name="spanner"
      unicode="&#xF129;"
      horiz-adv-x="1001.354" d=" M29.87 325.207C43.754 349.704 63.34 372.867 85.302 390.557C176.697 464.171 269.734 535.755 362.7080000000001 607.384C376.798 618.239 381.9400000000001 627.764 379.353 647C352.747 844.88 514.918 1015.267 713.707 998.912C735.894 997.087 757.954 991.092 779.525 985.072C806.515 977.538 812.335 950.495 791.845 930.237C754.265 893.0840000000001 716.293 856.3299999999999 678.505 819.387C664.16 805.363 649.523 791.605 635.805 776.989C632.4979999999999 773.466 630.1949999999999 766.627 631.0379999999999 761.967C637.2129999999999 727.832 644.0709999999999 693.812 651.435 659.912C652.275 656.047 657.101 650.9760000000001 660.885 650.147C694.77 642.724 728.765 635.73 762.92 629.6990000000001C768.31 628.7470000000001 776.262 631.5790000000001 780.323 635.481C830.783 683.951 880.723 732.965 930.839 781.7940000000001C956.229 806.5340000000001 981.176 799.75 990.521 765.6410000000001C1040.278 584.03 912.887 396.02 725.97 377.0900000000001C696.692 374.125 666.642 377.8730000000001 637.0260000000001 379.7340000000001C628.22 380.2870000000001 622.7180000000001 378.874 617.2500000000001 371.7470000000001C558.8840000000001 295.6940000000001 500.4030000000001 219.7270000000001 441.5080000000002 144.0840000000001C423.4850000000002 120.9340000000001 404.3580000000002 98.628 385.2810000000002 76.3240000000001C385.2810000000002 76.3240000000001 296.1330000000002 -8.7159999999999 186.8880000000002 0.734C98.6420000000002 16.4240000000001 39.9880000000002 67.0110000000001 10.1940000000002 151.154C-21.175 240.68 29.87 325.207 29.87 325.207zM219.603 279.94C185.103 280.2199999999999 156.97 252.95 156.2 218.4849999999999C155.434 184.1789999999999 184.542 154.5709999999999 219.004 154.6019999999999C252.9940000000001 154.6319999999998 281.4000000000001 183.0319999999998 281.5560000000001 217.1389999999999C281.713 251.541 253.9730000000001 279.6589999999999 219.603 279.9389999999999z" />
    <glyph glyph-name="star-favorite"
      unicode="&#xF12A;"
      horiz-adv-x="1048.5" d=" M1048.6 612.5C1048.6 628 1036.8 637.7 1013.3 641.5L697 687.5L555.1999999999999 974.2C547.1999999999999 991.4 536.9 1000 524.3 1000S501.4 991.4 493.4 974.2L351.5999999999999 687.5L35.3 641.5C11.8 637.7 0 628.1 0 612.5C0 603.7 5.3 593.6 15.8 582.3L245.2 359.2000000000001L191 44.1C190.1999999999999 38.2 189.6999999999999 34 189.6999999999999 31.5C189.6999999999999 22.7 191.8999999999999 15.2 196.3 9.1C200.6999999999999 3 207.3 0 216.1 0C223.7 0 232.1 2.5 241.3 7.6L524.3 156.3L807.1999999999999 7.5999999999999C816 2.5999999999999 824.3999999999999 -1e-13 832.3999999999999 -1e-13C840.8 -1e-13 847.1999999999999 2.9999999999999 851.5999999999999 9.0999999999999C855.9999999999999 15.1999999999999 858.1999999999999 22.6999999999999 858.1999999999999 31.4999999999999C858.1999999999999 36.9999999999999 857.9999999999999 41.1999999999999 857.5999999999999 44.0999999999999L803.3999999999999 359.2L1032.1 582.3C1043.1 593.1999999999999 1048.6 603.1999999999999 1048.6 612.5z" />
    <glyph glyph-name="steering-wheel"
      unicode="&#xF12B;"
      horiz-adv-x="1001.6" d=" M472.4 998.7C549.7 1005 630.8 986.8 688 963.8C807 916.1 892.3 833.4 947.4 723.8C977 665 994.3 604.7 1000.3 527.6C1006.6 447.3000000000001 989.4 374.4000000000001 965.5 314.6C941.2 254 908.3 204.3000000000001 868.7 162.3C791.1 80.0999999999999 680 9.8 530.4000000000001 0.9C366.4000000000001 -8.8000000000001 245.3000000000001 57.6999999999999 162.5000000000001 132.5999999999999C73.5000000000001 213.0999999999999 12.3000000000001 320.3 1.2000000000001 470.8C-4.5999999999999 550.0999999999999 11.1000000000001 626.0999999999999 34.8000000000001 685.0999999999999C59.7 747 89.7 792 131.6 837.4C210.3 922.7 318.1 986.1 472.4 998.7zM402.7 911C330.6 891.3 270.5 856.8 224.6 815.5C182.2 777.3 138 718.1 111 655.4C97.1 623.0999999999999 77.3 564.0999999999999 117.5 553.4C136 548.5 148.4 556.4 158.8 563.7C171.4 572.5999999999999 178.7 578.9 189.8 584.4C211.2 595 237 602.0999999999999 263.4 610.2C282.4 616.0999999999999 303.2 621.4 321.5 625.7C328.9 627.4 336.7 627.5999999999999 343.4 629.5999999999999C351 631.9 356.7 636.9 364.1 638.5999999999999C385 643.5999999999999 409 645.5 431.2 647.5999999999999C479.1999999999999 652.3 528.5999999999999 652.2 575.8 647.5999999999999C599.5 645.3 624.5 643.8 644.1999999999999 638.5999999999999C650.9999999999999 636.8 656.3 631.7 663.5999999999999 629.5999999999999C669.8 627.7 677.3 627.3 684.3 625.7C706.0999999999999 620.8 723.5999999999999 616 742.4 610.2C768.9 602.0999999999999 796.4 595.9 817.3 585.7C828.3 580.3 838.0999999999999 572 848.3 565C858.3 558.2 870 549.3 887 552.1C900.4 554.3 909.4 565.6 912.8 577.9000000000001C916.5 591.2 913 606.5 908.9 620.5C900.6 648.9000000000001 889 670.2 876.6 692.8000000000001C852.5 736.7 820.7 779.7 786.2 811.6000000000001C752.3000000000001 842.9000000000001 712.6 870.8000000000001 658.4000000000001 892.9000000000001C608.4000000000001 913.3 545.1000000000001 930.1000000000003 481.6000000000001 925.2C452.8000000000001 922.9 427.5000000000001 917.8 402.7000000000001 911.0000000000002zM295.5 556C280.9 532 262.3 503.3 265.8 469.5C277.1 530.4 315.2 571.5 338.1 616.6C324 598.2 309.1 578.2 295.5 556zM742.1 469.5C741.3000000000001 506.8 726.5 533.8 711.1 558.6C704.5 569.2 696.2 578.8 689.2 588.3C681.9000000000001 598.2 676.5 609.6 667.3000000000001 615.4000000000001C696.3000000000001 570.8 727.6 528.5 742.1 469.5zM103.2 445C85.3 423.4 95.4 389.2000000000001 105.8 362.4C144.3 262.2 203.2 194.4 285.2 143C299.8 133.8 317.6 124.6 338.1 115.9C357.8 107.6 383.7 98.9 402.6 105.6C438.5 118.2000000000001 437.9 168.6 428.4 210.2000000000001C424.9 225.5 422.7 241.9000000000001 418.1 254.1C413.1 267.1 407.8 267.8000000000001 402.6 279.9C390.3 308.6 382 335.7 369 359.9C347.3999999999999 400.4 319.8999999999999 431.8 279.9 449C272.5 452.2 264.7 456.5 259.2 458C234.6 465 191 464.6 166.3 464.5C143.3 464.2 116.4 460.9 103.2 445zM787.3000000000001 463C773.5000000000001 461.7 758.4000000000001 461.6 746.0000000000001 457.8C739.3000000000001 455.8 731.7000000000002 450.5999999999999 724.1000000000001 447.5C687.0000000000001 432.3 661.2000000000002 400.8 642.8000000000002 368.8C634.8000000000002 354.9 628.7000000000002 340.3 622.1000000000001 324.9C615.9000000000001 310.3 611.1000000000001 294.1 604.0000000000001 278.4C600.2000000000002 269.9 594.2000000000002 267.9 589.8000000000001 257.7C586.0000000000001 248.9 583.9000000000001 234.3 580.8000000000001 221.5999999999999C571.0000000000001 182.3999999999999 565.7 122.5999999999999 598.9000000000001 106.6999999999999C617.6000000000001 97.8 649.8000000000001 106.4 668.6000000000001 114.4C688.3000000000002 122.8 707.1000000000001 133.8 721.5000000000001 142.8C806.8000000000001 196.0999999999999 864.6000000000001 263.5999999999999 902.2 364.8C910 385.7 918.6 412 911.2 431.9C900.7 460.6 863.5 464.4 833.8000000000001 464.1999999999999C817.0000000000001 464.1999999999999 801.7 464.4 787.3000000000001 462.9999999999999zM576.9 259.1C532.6 251.2000000000001 472.4 251.4 431 257.8000000000001C471.9 242.6 537.1 243.6 576.9 259.1z" />
    <glyph glyph-name="sun-clean"
      unicode="&#xF12C;"
      horiz-adv-x="1003.7" d=" M481.2 907L418.1 991.6C407.4000000000001 1005.9 384.9000000000001 1001.1 381 983.7L357.9 881.6C396.5 896 438 904.8 481.2 907zM217 792.9C247 821.6 281.2 845.9 318.7 864.5L227.8 915.4C212.2 924.1 193.6 910.6 197.1 893.1L217 792.9zM122.2 655.7C138.2 693.4 159.6 728.2 185.4 759.2L85 768.4C67.2 770 55.7 750.1 66 735.5L122.2 655.7zM645.9 881.5L622.8 983.7C618.9 1001.1 596.4 1005.9 585.6999999999999 991.6L522.5 907C565.8 904.8 607.2 896 645.9 881.5zM786.8 792.9L806.6999999999999 893.1C810.1999999999999 910.6 791.5999999999999 924.2 775.9999999999999 915.4L685.0999999999999 864.5C722.5999999999999 845.8 756.8 821.6 786.8 792.9zM881.6 655.7L937.8 735.4C948.1 750 936.6 769.9 918.8 768.3L818.4000000000001 759.1C844.2 728.1 865.6000000000001 693.3 881.6000000000001 655.7zM89.6 494.7C89.6 533.5999999999999 95.1 571.1 105.1 606.7L14.1 575.7C-2.8 570 -5.2 547 10.1 537.9L89.6 490.5C89.7 491.9 89.6 493.3 89.6 494.7zM846.6 268.4C826.6 237.8 802.6 210.1 775.4 185.9L855.1 161.1999999999999C872.1 155.9 887.5 172.9999999999999 880.5 189.4L846.6 268.4zM909.5 432.7000000000001C903.8 394.7000000000001 892.8 358.4000000000001 877.5 324.5L964.4 334.8C982.1 336.9 989.2 358.8 976.1 370.9L909.5 432.7zM94.3 432.7000000000001L27.7 371C14.6 358.9 21.7 337 39.4 334.9L126.3 324.6C111 358.4 100 394.6 94.3 432.7000000000001zM624.2 100.3L684.9000000000001 47.0999999999999C698.3000000000001 35.3 719.3000000000001 44.6999999999999 719.6000000000001 62.5999999999999L720.7000000000002 144.8C690.8000000000002 126 658.4000000000002 110.9 624.2000000000002 100.3zM989.6 575.7L898.6 606.7C908.6 571.0999999999999 914.1 533.5 914.1 494.7C914.1 493.3 914 491.9 914 490.5L993.5 537.9C1008.8 547.0999999999999 1006.4 570 989.6 575.7zM157.1 268.4L123.3 189.4C116.3 173 131.7 155.9 148.7 161.1999999999999L228.4 185.9C201.1 210.1 177.1 237.9 157.1 268.4zM501.9 81.8C484 81.8 466.5 83.0999999999999 449.2 85.3L482.9 12.1999999999999C490.4 -4.0000000000001 513.4 -4.0000000000001 520.8 12.1999999999999L554.5 85.3C537.3 83.0999999999999 519.7 81.8 501.9 81.8zM283.2 144.8L284.3 62.5999999999999C284.5 44.6999999999999 305.6 35.3999999999999 319 47.0999999999999L379.7 100.3C345.3 110.9 313 126 283.2 144.8z M135 500C135 297.0905829121665 299.2667252870819 132.6 501.9 132.6C704.5332747129181 132.6 868.8 297.0905829121665 868.8 500C868.8 702.9094170878335 704.5332747129181 867.4 501.9 867.4C299.2667252870819 867.4 135 702.9094170878335 135 500z" />
    <glyph glyph-name="sun-sat"
      unicode="&#xF12D;"
      horiz-adv-x="1003.7" d=" M481.2 907L418.1 991.6C407.4000000000001 1005.9 384.9000000000001 1001.1 381 983.7L357.9 881.6C396.5 896 438 904.8 481.2 907zM217 792.9C247 821.6 281.2 845.9 318.7 864.5L227.8 915.4C212.2 924.1 193.6 910.6 197.1 893.1L217 792.9zM122.2 655.7C138.2 693.4 159.6 728.2 185.4 759.2L85 768.4C67.2 770 55.7 750.1 66 735.5L122.2 655.7zM645.9 881.5L622.8 983.7C618.9 1001.1 596.4 1005.9 585.6999999999999 991.6L522.5 907C565.8 904.8 607.2 896 645.9 881.5zM786.8 792.9L806.6999999999999 893.1C810.1999999999999 910.6 791.5999999999999 924.2 775.9999999999999 915.4L685.0999999999999 864.5C722.5999999999999 845.8 756.8 821.6 786.8 792.9zM881.6 655.7L937.8 735.4C948.1 750 936.6 769.9 918.8 768.3L818.4000000000001 759.1C844.2 728.1 865.6000000000001 693.3 881.6000000000001 655.7zM89.6 494.7C89.6 533.5999999999999 95.1 571.1 105.1 606.7L14.1 575.7C-2.8 570 -5.2 547 10.1 537.9L89.6 490.5C89.7 491.9 89.6 493.3 89.6 494.7zM846.6 268.4C826.6 237.8 802.6 210.1 775.4 185.9L855.1 161.1999999999999C872.1 155.9 887.5 172.9999999999999 880.5 189.4L846.6 268.4zM909.5 432.7000000000001C903.8 394.7000000000001 892.8 358.4000000000001 877.5 324.5L964.4 334.8C982.1 336.9 989.2 358.8 976.1 370.9L909.5 432.7zM94.3 432.7000000000001L27.7 371C14.6 358.9 21.7 337 39.4 334.9L126.3 324.6C111 358.4 100 394.6 94.3 432.7000000000001zM624.2 100.3L684.9000000000001 47.0999999999999C698.3000000000001 35.3 719.3000000000001 44.6999999999999 719.6000000000001 62.5999999999999L720.7000000000002 144.8C690.8000000000002 126 658.4000000000002 110.9 624.2000000000002 100.3zM989.6 575.7L898.6 606.7C908.6 571.0999999999999 914.1 533.5 914.1 494.7C914.1 493.3 914 491.9 914 490.5L993.5 537.9C1008.8 547.0999999999999 1006.4 570 989.6 575.7zM157.1 268.4L123.3 189.4C116.3 173 131.7 155.9 148.7 161.1999999999999L228.4 185.9C201.1 210.1 177.1 237.9 157.1 268.4zM501.9 81.8C484 81.8 466.5 83.0999999999999 449.2 85.3L482.9 12.1999999999999C490.4 -4.0000000000001 513.4 -4.0000000000001 520.8 12.1999999999999L554.5 85.3C537.3 83.0999999999999 519.7 81.8 501.9 81.8zM283.2 144.8L284.3 62.5999999999999C284.5 44.6999999999999 305.6 35.3999999999999 319 47.0999999999999L379.7 100.3C345.3 110.9 313 126 283.2 144.8z M135 500C135 297.0905829121665 299.2667252870819 132.6 501.9 132.6C704.5332747129181 132.6 868.8 297.0905829121665 868.8 500C868.8 702.9094170878335 704.5332747129181 867.4 501.9 867.4C299.2667252870819 867.4 135 702.9094170878335 135 500z M332.1 606.4C326.8 606.4 322.5 604.0999999999999 319.3 599.5999999999999C316.1 595.0999999999999 314.5 588 314.5 578.4C314.5 573.5999999999999 315 569.2 315.9 565.2C316.8 561.2 318.8 557.2 321.9 553.2S329.3 545.2 334.9 541.2S348 532.8 357.3 528C366.4 523.2 374.1 517.9 380.5 512.2C386.8999999999999 506.5 392.2 499.9 396.3 492.6C400.4 485.3 403.4 476.9 405.3 467.4C407.2 457.9 408.1 447.1 408.1 434.8C408.1 408.0999999999999 401.6 387.3 388.7 372.4C375.8 357.5 356.4 350 330.5 350C316.6 350 305 352.3 295.7 357C286.4 361.7000000000001 278.8 367.6 272.9 374.8C267 382 262.6 389.8 259.7 398.2C256.8 406.5999999999999 254.8 414.4999999999999 253.7 421.9999999999999L310.1 429.9999999999999C310.6 420.3999999999999 312.4 411.9999999999999 315.5 404.7999999999999C318.6 397.5999999999998 323.7 393.9999999999999 330.8999999999999 393.9999999999999C336 393.9999999999999 340.2 396.3999999999999 343.5 401.2C346.8 405.9999999999999 348.5 415.3 348.5 429.2C348.5 436.4 348 442.4 346.8999999999999 447.2C345.7999999999999 451.9999999999999 343.7 456.4 340.5 460.4S332.8999999999999 468.3 327.3 472.1999999999999C321.7 476.0999999999999 314.5 480.4999999999999 305.7 485.5999999999999C289.7 494.6999999999999 277.3999999999999 505.6999999999999 268.7 518.5999999999999C260 531.4999999999999 255.7 548.3999999999999 255.7 569.1999999999999C255.7 580.8999999999999 257.3999999999999 591.6999999999999 260.8999999999999 601.5999999999999C264.3999999999999 611.4999999999999 269.3999999999999 619.9999999999999 275.8999999999999 627.1999999999999C282.3999999999999 634.3999999999999 290.5 640 300.0999999999999 644S320.5999999999999 650 332.8999999999999 650C345.7 650 356.5 647.8999999999999 365.2999999999999 643.5999999999999C374.0999999999999 639.3 381.3999999999999 633.9 387.0999999999999 627.2C392.7999999999999 620.5 397.2 613.0999999999999 400.2999999999999 605C403.3999999999999 596.9 405.5999999999999 589.1 406.8999999999999 581.6L351.2999999999999 571.6C349.9999999999999 581.7 348.0999999999999 590.1 345.6999999999999 596.6C343.2999999999999 603.1 338.6999999999999 606.4000000000001 332.0999999999999 606.4000000000001zM547.7 356L537.3000000000001 422.8H484.9000000000001L474.1 356H416.9000000000001L480.5000000000001 644H546.5L611.3 356H547.6999999999999zM491.3000000000001 463.6H530.9000000000001L511.7 590L491.3 463.6zM750.1 597.2H701.7V356H641.7V597.2H594.1V644H750.1V597.2z" />
    <glyph glyph-name="sun-sun"
      unicode="&#xF12E;"
      horiz-adv-x="1003.7" d=" M481.2 907L418.1 991.6C407.4000000000001 1005.9 384.9000000000001 1001.1 381 983.7L357.9 881.6C396.5 896 438 904.8 481.2 907zM217 792.9C247 821.6 281.2 845.9 318.7 864.5L227.8 915.4C212.2 924.1 193.6 910.6 197.1 893.1L217 792.9zM122.2 655.7C138.2 693.4 159.6 728.2 185.4 759.2L85 768.4C67.2 770 55.7 750.1 66 735.5L122.2 655.7zM645.9 881.5L622.8 983.7C618.9 1001.1 596.4 1005.9 585.6999999999999 991.6L522.5 907C565.8 904.8 607.2 896 645.9 881.5zM786.8 792.9L806.6999999999999 893.1C810.1999999999999 910.6 791.5999999999999 924.2 775.9999999999999 915.4L685.0999999999999 864.5C722.5999999999999 845.8 756.8 821.6 786.8 792.9zM881.6 655.7L937.8 735.4C948.1 750 936.6 769.9 918.8 768.3L818.4000000000001 759.1C844.2 728.1 865.6000000000001 693.3 881.6000000000001 655.7zM89.6 494.7C89.6 533.5999999999999 95.1 571.1 105.1 606.7L14.1 575.7C-2.8 570 -5.2 547 10.1 537.9L89.6 490.5C89.7 491.9 89.6 493.3 89.6 494.7zM846.6 268.4C826.6 237.8 802.6 210.1 775.4 185.9L855.1 161.1999999999999C872.1 155.9 887.5 172.9999999999999 880.5 189.4L846.6 268.4zM909.5 432.7000000000001C903.8 394.7000000000001 892.8 358.4000000000001 877.5 324.5L964.4 334.8C982.1 336.9 989.2 358.8 976.1 370.9L909.5 432.7zM94.3 432.7000000000001L27.7 371C14.6 358.9 21.7 337 39.4 334.9L126.3 324.6C111 358.4 100 394.6 94.3 432.7000000000001zM624.2 100.3L684.9000000000001 47.0999999999999C698.3000000000001 35.3 719.3000000000001 44.6999999999999 719.6000000000001 62.5999999999999L720.7000000000002 144.8C690.8000000000002 126 658.4000000000002 110.9 624.2000000000002 100.3zM989.6 575.7L898.6 606.7C908.6 571.0999999999999 914.1 533.5 914.1 494.7C914.1 493.3 914 491.9 914 490.5L993.5 537.9C1008.8 547.0999999999999 1006.4 570 989.6 575.7zM157.1 268.4L123.3 189.4C116.3 173 131.7 155.9 148.7 161.1999999999999L228.4 185.9C201.1 210.1 177.1 237.9 157.1 268.4zM501.9 81.8C484 81.8 466.5 83.0999999999999 449.2 85.3L482.9 12.1999999999999C490.4 -4.0000000000001 513.4 -4.0000000000001 520.8 12.1999999999999L554.5 85.3C537.3 83.0999999999999 519.7 81.8 501.9 81.8zM283.2 144.8L284.3 62.5999999999999C284.5 44.6999999999999 305.6 35.3999999999999 319 47.0999999999999L379.7 100.3C345.3 110.9 313 126 283.2 144.8z M135 500C135 297.0905829121665 299.2667252870819 132.6 501.9 132.6C704.5332747129181 132.6 868.8 297.0905829121665 868.8 500C868.8 702.9094170878335 704.5332747129181 867.4 501.9 867.4C299.2667252870819 867.4 135 702.9094170878335 135 500z M307.5 606.4C302.2 606.4 297.9 604.0999999999999 294.7 599.5999999999999C291.5 595.0999999999999 289.9 588 289.9 578.4C289.9 573.5999999999999 290.4 569.2 291.3 565.2C292.2 561.2 294.2 557.2 297.3 553.2S304.7 545.2 310.3 541.2S323.4 532.8 332.7 528C341.8 523.2 349.5 517.9 355.8999999999999 512.2C362.2999999999999 506.5 367.5999999999999 499.9 371.7 492.6C375.8 485.3 378.8 476.9 380.7 467.4C382.5999999999999 457.9 383.5 447.1 383.5 434.8C383.5 408.0999999999999 377 387.3 364.1 372.4C351.2 357.5 331.8 350 305.9 350C292 350 280.4 352.3 271.1 357C261.8 361.7000000000001 254.2 367.6 248.3 374.8C242.4 382 238 389.8 235.1 398.2C232.2 406.5999999999999 230.2 414.4999999999999 229.1 421.9999999999999L285.5 429.9999999999999C286 420.3999999999999 287.8 411.9999999999999 290.8999999999999 404.7999999999999C294 397.5999999999998 299.0999999999999 393.9999999999999 306.2999999999999 393.9999999999999C311.3999999999999 393.9999999999999 315.5999999999999 396.3999999999999 318.8999999999999 401.2C322.2 405.9999999999999 323.8999999999999 415.3 323.8999999999999 429.2C323.8999999999999 436.4 323.3999999999999 442.4 322.2999999999999 447.2C321.1999999999999 451.9999999999999 319.0999999999999 456.4 315.8999999999999 460.4S308.2999999999999 468.3 302.7 472.1999999999999C297.0999999999999 476.0999999999999 289.8999999999999 480.4999999999999 281.0999999999999 485.5999999999999C265.0999999999999 494.6999999999999 252.7999999999999 505.6999999999999 244.0999999999999 518.5999999999999C235.3999999999999 531.4999999999999 231.0999999999999 548.3999999999999 231.0999999999999 569.1999999999999C231.0999999999999 580.8999999999999 232.7999999999999 591.6999999999999 236.2999999999999 601.5999999999999C239.7999999999999 611.4999999999999 244.7999999999999 619.9999999999999 251.2999999999999 627.1999999999999C257.7999999999999 634.3999999999999 265.8999999999999 640 275.4999999999999 644S295.9999999999999 650 308.2999999999999 650C321.0999999999999 650 331.8999999999999 647.8999999999999 340.6999999999999 643.5999999999999C349.4999999999999 639.3 356.7999999999999 633.9 362.4999999999999 627.2C368.1999999999999 620.5 372.5999999999999 613.0999999999999 375.6999999999999 605C378.7999999999999 596.9 380.9999999999999 589.1 382.2999999999999 581.6L326.6999999999999 571.6C325.3999999999999 581.7 323.4999999999999 590.1 321.0999999999999 596.6C318.6999999999999 603.1 314.0999999999999 606.4000000000001 307.4999999999999 606.4000000000001zM471.5 644V443.2000000000001C471.5 433.3000000000001 471.8 425.2000000000001 472.5 418.8000000000001C473.2 412.4000000000001 474.2 407.4000000000001 475.5 403.8000000000001C476.8 400.2000000000001 478.7 397.7000000000001 481.1 396.2000000000001C483.5 394.7000000000001 486.4 394 489.9 394C493.4 394 496.3 394.7000000000001 498.7 396.2000000000001C501.1 397.7000000000001 503.0000000000001 400.2000000000001 504.5000000000001 403.8000000000001C506.0000000000001 407.4000000000001 507.0000000000001 412.4000000000001 507.7 418.8000000000001C508.4 425.2000000000001 508.7 433.3000000000001 508.7 443.2000000000001V644H566.3000000000001V446.8C566.3000000000001 431.0999999999999 565.1 417.2 562.7 405.2S556.2 383.0999999999999 550.3000000000001 374.9999999999999C544.4000000000001 366.8999999999999 536.6 360.7 526.7 356.3999999999999C516.8000000000001 352.0999999999999 504.4 349.9999999999999 489.5000000000001 349.9999999999999C474.6000000000001 349.9999999999999 462.1000000000001 352.0999999999999 452.1000000000001 356.3999999999999C442.1000000000001 360.6999999999998 434.1000000000001 366.8999999999999 428.1000000000001 374.9999999999999C422.1000000000001 383.0999999999999 417.8000000000001 393.2 415.3000000000001 405.2S411.5000000000001 431.0999999999999 411.5000000000001 446.8V644H471.5000000000001zM774.7 644V356H699.5L652.3 565.2V356H602.3V644H682.6999999999999L724.6999999999999 437.6V644H774.6999999999999z" />
    <glyph glyph-name="suzuki"
      unicode="&#xF12F;"
      horiz-adv-x="1001.4" d=" M1001.3 305S907.7 278 726.6999999999999 166.9C564.3 67.1 500.6999999999999 0 500.6999999999999 0L0 345.6S210.6 500.4 386.7 381.8000000000001L622.8 220L651.5999999999999 238.9L0.1 695S93.8 722.1 274.7000000000001 833.1C437.1 932.9 500.7 1000 500.7 1000L1001.4 654.4S790.8 499.6 614.7 618.0999999999999L378.6 779.9L349.8 761L1001.3 305z" />
    <glyph glyph-name="suzukipin"
      unicode="&#xF130;"
      horiz-adv-x="748.489" d=" M375.194 0C402.7940000000001 0 430.01 33.11 430.01 33.11C489.537 97.744 544.365 165.523 593.795 238.15C646.005 314.8640000000001 691.8599999999999 394.682 722.2189999999999 482.904C747.9839999999999 557.777 757.319 633.434 738.7339999999999 711.534C695.852 891.736 526.02 1020.01 330.455 997.42C232.365 986.09 150.43 941.835 87.355 865.69C15.015 778.363 -12.465 677.76 5.173 565.485C14.988 503.007 37.68 444.6900000000001 65.708 388.41C130.676 257.9600000000001 217.796 144.314 315.142 36.694C315.142 36.694 346.018 0 375.194 0zM374.32 375.9600000000001C236.57 375.9160000000001 124.52 488.008 124.61 625.7620000000001C124.698 763.724 236.48 875.2370000000001 374.592 875.142C512.444 875.046 624.152 762.942 623.842 625.0060000000001C623.536 487.6930000000001 511.635 376.0060000000001 374.32 375.9610000000002z M171.22 562.9739999999999C181.524 569.862 192.01 575.498 202.967 580.284C218.23 586.954 234.037 591.761 250.603 593.732C278.099 597.0039999999999 303.713 591.929 326.803 576.0619999999999C357.698 554.8319999999999 388.613 533.634 419.466 512.342C421.423 510.99 422.781 510.888 424.671 512.317C427.335 514.3299999999999 430.228 516.039 433.011 517.894C435.381 519.472 435.375 519.874 432.971 521.56C398.099 545.998 363.235 570.45 328.348 594.865C276.888 630.879 225.412 666.8679999999999 173.945 702.87C173.337 703.2950000000001 172.755 703.755 171.849 704.4300000000001C173.822 705.172 175.494 705.794 177.162 706.4300000000001C200.722 715.406 223.1469999999999 726.758 245.138 738.996C280.794 758.838 315.302 780.466 347.3829999999999 805.77C355.4359999999999 812.12 363.043 819.044 370.717 825.86C372.2269999999999 827.202 373.067 827.255 374.6739999999999 826.142C417.1819999999999 796.702 459.728 767.322 502.2659999999999 737.925C525.2239999999999 722.06 548.1759999999999 706.1890000000001 571.1309999999999 690.319C571.9259999999998 689.769 572.7069999999999 689.197 573.9039999999999 688.344C569.5239999999999 685.682 565.5269999999999 683.1 561.3899999999999 680.764C542.4559999999999 670.0799999999999 522.4759999999999 662.1500000000001 500.9519999999999 658.5540000000001C470.8359999999999 653.5240000000001 442.7719999999999 658.316 417.2799999999999 675.97C386.7119999999999 697.1400000000001 355.9579999999999 718.038 325.3259999999999 739.113C323.5789999999999 740.315 322.3199999999999 740.5430000000001 320.5429999999999 739.205C317.8759999999999 737.195 314.9869999999999 735.482 312.1989999999999 733.633C309.6509999999999 731.943 309.6419999999999 731.5730000000001 312.1029999999999 729.847C335.7029999999999 713.3050000000001 359.3009999999998 696.7620000000001 382.9029999999999 680.225C445.6129999999999 636.2850000000001 508.3279999999999 592.349 571.0389999999999 548.409C571.7089999999998 547.939 572.3569999999999 547.439 573.1289999999999 546.871C535.7669999999999 533.131 501.3039999999999 514.094 467.6019999999999 493.598C433.902 473.102 401.354 450.9879999999999 372.229 423.968L171.22 562.975z" />
    <glyph glyph-name="testdrive"
      unicode="&#xF131;"
      horiz-adv-x="999.764" d=" M998.206 461.323C996.906 447.738 995.811 434.091 993.558 420.653C976.062 316.2970000000001 930.968 225.653 856.674 150.1810000000001C777.928 70.186 682.7439999999999 21.8580000000001 571.547 5.4930000000001C571.547 5.4930000000001 512.8910000000001 -3.731 462.157 1.7310000000001C448.2650000000001 3.2270000000001 434.2690000000001 4.1210000000001 420.511 6.4260000000002C315.803 23.96 224.92 69.29 149.33 143.962C69.728 222.5940000000001 21.42 317.524 5.313 428.396C-3.825 491.2959999999999 1.597 538.846 1.597 538.846C3.19 552.3989999999999 3.992 566.078 6.245 579.516C23.741 683.872 68.835 774.516 143.13 849.9879999999999C221.875 929.984 317.06 978.313 428.256 994.678C428.256 994.678 486.351 1003.486 537.646 998.438C551.5509999999999 997.071 565.534 996.048 579.2909999999999 993.743C684.0029999999999 976.208 774.886 930.877 850.4759999999999 856.2049999999999C930.076 777.573 978.1789999999997 682.6129999999999 994.4909999999998 571.771C994.4909999999998 571.7729999999999 1003.2309999999998 513.8309999999999 998.2069999999998 461.324zM880.006 557.651C856.88 729.5899999999999 701.898 890.5 489.447 884.936C282.507 879.514 140.165 717.689 120.227 559.126C122.132 558.958 124.035 558.546 125.907 558.6610000000001C174.727 561.623 223.614 565.8910000000001 269.941 582.201C309.409 596.099 347.786 613.219 386.234 629.863C441.154 653.636 497.844 659.043 556.3009999999999 648.1890000000001C590.5329999999999 641.8330000000001 621.8649999999999 627.203 653.039 612.476C701.882 589.403 752.616 572.56 806.2819999999999 565.482C830.396 562.3019999999999 854.665 560.306 880.0039999999999 557.652zM423.036 123.5609999999999C423.189 126.804 423.463 129.9509999999999 423.466 133.1009999999999C423.491 189.3979999999999 423.588 245.6939999999999 423.456 301.9909999999999C423.299 368.9789999999998 368.694 423.5079999999998 301.666 423.6439999999999C245.696 423.757 189.7239999999999 423.6679999999999 133.7529999999999 423.6679999999999H123.22C149.807 274.137 278.037 148.8 423.037 123.56zM876.5909999999999 423.6669999999999H866.0559999999999C810.0339999999999 423.6669999999999 754.012 423.767 697.991 423.6389999999999C633.353 423.4889999999999 576.465 366.3989999999999 576.3439999999999 301.5949999999999C576.2389999999999 245.5729999999999 576.3119999999999 189.5509999999999 576.347 133.53C576.3489999999999 130.153 576.717 126.778 576.924 123.28C730.894 152.225 851.324 281.425 876.592 423.666zM407.4639999999999 506.3269999999999C403.0119999999999 458.4039999999999 440.7059999999999 410.445 494.8539999999999 407.3189999999999C541.9069999999999 404.6029999999999 589.5589999999999 440.6789999999999 592.6769999999999 495.2729999999999C595.3499999999999 542.0709999999999 559.2489999999999 589.9079999999999 504.4649999999999 592.8749999999999C457.5449999999999 595.415 410.2969999999999 559.3279999999999 407.4649999999999 506.3279999999999z" />
    </font>
</defs>
</svg>
