<?xml version="1.0" encoding="utf-8"?>
<!-- Generator: Adobe Illustrator 19.2.1, SVG Export Plug-In . SVG Version: 6.00 Build 0)  -->
<svg version="1.1" id="Layer_1" xmlns="http://www.w3.org/2000/svg" xmlns:xlink="http://www.w3.org/1999/xlink" x="0px" y="0px"
	 viewBox="0 0 16.6 17" style="enable-background:new 0 0 16.6 17;" xml:space="preserve">
<style type="text/css">
	.st0{fill:#035B2F;}
	.st1{fill:#FFFFFF;}
</style>
<title>Tick</title>
<circle class="st0" cx="8.3" cy="8.4" r="7.4"/>
<path class="st1" d="M7.4,11.9c-0.1,0-0.2,0-0.2-0.1L4.5,9.1c-0.1-0.2,0-0.2,0-0.3c0-0.1,0.1-0.1,0.2-0.2l0.1,0c0,0,0.1,0,0.1,0
	L7.3,11l3.8-5.9c0.1-0.1,0.2-0.2,0.3-0.2c0.1,0,0.1,0,0.2,0c0.1,0,0.1,0.1,0.2,0.2s0,0.2,0,0.3l-4.1,6.3C7.6,11.8,7.5,11.9,7.4,11.9
	L7.4,11.9z"/>
</svg>
