<?xml version="1.0" encoding="utf-8"?>
<!-- Generator: Adobe Illustrator 19.2.1, SVG Export Plug-In . SVG Version: 6.00 Build 0)  -->
<svg version="1.1" id="Layer_1" xmlns="http://www.w3.org/2000/svg" xmlns:xlink="http://www.w3.org/1999/xlink" x="0px" y="0px"
	 viewBox="0 0 14.9 14.9" style="enable-background:new 0 0 14.9 14.9;" xml:space="preserve">
<style type="text/css">
	.st0{fill:#FFFFFF;}
	.st1{fill:#045B2F;}
</style>
<circle class="st0" cx="7.4" cy="7.4" r="6.8"/>
<title>Plus</title>
<g>
	<path class="st1" d="M7.4,0C3.3,0,0,3.3,0,7.4c0,4.1,3.3,7.4,7.4,7.4c4.1,0,7.4-3.3,7.4-7.4C14.8,3.3,11.5,0,7.4,0z M7.4,14.2
		c-3.8,0-6.8-3-6.8-6.8c0-3.8,3-6.8,6.8-6.8s6.8,3,6.8,6.8C14.2,11.2,11.2,14.2,7.4,14.2z"/>
	<path class="st1" d="M11.7,6.9H7.8V3c0-0.2-0.2-0.4-0.4-0.4S7,2.8,7,3v3.9H3.1c-0.2,0-0.4,0.2-0.4,0.4s0.2,0.4,0.4,0.4H7v3.9
		C7,11.8,7.2,12,7.4,12s0.4-0.2,0.4-0.4V7.7h3.9c0.2,0,0.4-0.2,0.4-0.4S11.9,6.9,11.7,6.9z"/>
</g>
</svg>
