<?xml version="1.0" encoding="UTF-8" standalone="no"?>
<svg width="51px" height="51px" viewBox="0 0 51 51" version="1.1" xmlns="http://www.w3.org/2000/svg" xmlns:xlink="http://www.w3.org/1999/xlink">
    <!-- Generator: Sketch 3.7 (28169) - http://www.bohemiancoding.com/sketch -->
    <title>Scroll</title>
    <desc>Created with Sketch.</desc>
    <defs></defs>
    <g id="Desktop" stroke="none" stroke-width="1" fill="none" fill-rule="evenodd">
        <g id="02_960_Motor" transform="translate(-695.000000, -719.000000)">
            <g id="COVER" transform="translate(0.000000, 90.000000)">
                <g id="Scroll" transform="translate(720.000000, 654.500000) rotate(-270.000000) translate(-720.000000, -654.500000) translate(695.000000, 629.000000)">
                    <circle id="Oval-7" fill="#A5A5A5" cx="25" cy="25.1111111" r="25"></circle>
                    <path d="M0.829016134,25.0873843 C0.370629961,25.0873843 0,24.8231771 0,24.4970775 C0,24.170978 0.370629961,23.9061053 0.829016134,23.9061053 L28.1669435,23.9061053 C28.6243961,23.9061053 28.9959596,24.1703125 28.9959596,24.4970775 C28.9959596,24.8231771 28.6243961,25.0873843 28.1669435,25.0873843 L0.829016134,25.0873843 Z" id="Shape" stroke="#FFFFFF" fill="#FFFFFF"></path>
                    <path d="M18.5380471,34.8317708 C18.3818182,34.8317708 18.2255892,34.7712095 18.1084175,34.6514178 C17.8787879,34.4171586 17.8848485,34.0431424 18.1225589,33.8162037 L27.8673401,24.496412 L18.1225589,15.1766204 C17.8855219,14.9503472 17.8794613,14.576331 18.1084175,14.3414062 C18.3387205,14.107147 18.7158249,14.1018229 18.9535354,14.3280961 L29.1420875,24.0724826 C29.2585859,24.1836227 29.3239057,24.3366898 29.3239057,24.4970775 C29.3239057,24.6567998 29.2585859,24.8098669 29.1420875,24.9210069 L18.9535354,34.666059 C18.8377104,34.7765336 18.6875421,34.8317708 18.5380471,34.8317708 L18.5380471,34.8317708 Z" id="Shape" stroke="#FFFFFF" fill="#FFFFFF"></path>
                </g>
            </g>
        </g>
    </g>
</svg>