<?xml version="1.0" encoding="utf-8"?>
<!-- Generator: Adobe Illustrator 16.0.0, SVG Export Plug-In . SVG Version: 6.00 Build 0)  -->
<!DOCTYPE svg PUBLIC "-//W3C//DTD SVG 1.1//EN" "http://www.w3.org/Graphics/SVG/1.1/DTD/svg11.dtd">
<svg version="1.1" id="Layer_1" xmlns="http://www.w3.org/2000/svg" xmlns:xlink="http://www.w3.org/1999/xlink" x="0px" y="0px"
	 width="51px" height="50px" viewBox="0 0 51 50" enable-background="new 0 0 51 50" xml:space="preserve">
<title>right</title>
<desc>Created with Sketch.</desc>
<g id="Desktop">
	<g id="_x30_2_x5F_960_x5F_Motor" transform="translate(-65.000000, -1416.000000)">
		<g id="FEATURES" transform="translate(0.000000, 850.000000)">
			<g id="Navigation" transform="translate(65.000000, 565.000000)">
				
					<g id="left" transform="translate(25.000000, 26.388889) rotate(-180.000000) translate(-25.000000, -26.388889) translate(0.000000, 0.888889)">
					<circle id="Oval-7" fill="#004EB0" cx="24.5" cy="25.889" r="25"/>
					<path id="Shape" fill="#FFFFFF" stroke="#FFFFFF" d="M21.333,25.864c-0.458,0-0.829-0.265-0.829-0.589
						c0-0.328,0.371-0.592,0.829-0.592h27.338c0.458,0,0.829,0.266,0.829,0.592c0,0.324-0.371,0.589-0.829,0.589H21.333z"/>
					<path id="Shape_1_" fill="#FFFFFF" stroke="#FFFFFF" d="M30.962,35.61c-0.149,0-0.3-0.056-0.415-0.166l-10.189-9.745
						c-0.116-0.111-0.182-0.265-0.182-0.423c0-0.162,0.065-0.314,0.182-0.426l10.189-9.744c0.237-0.227,0.614-0.221,0.845,0.014
						c0.229,0.234,0.223,0.609-0.015,0.834l-9.744,9.32l9.744,9.32c0.238,0.227,0.244,0.601,0.015,0.835
						C31.274,35.549,31.118,35.61,30.962,35.61L30.962,35.61z"/>
				</g>
			</g>
		</g>
	</g>
</g>
</svg>
