<?xml version="1.0" encoding="UTF-8" standalone="no"?>
<svg width="30px" height="17px" viewBox="0 0 30 17" version="1.1" xmlns="http://www.w3.org/2000/svg" xmlns:xlink="http://www.w3.org/1999/xlink">
    <!-- Generator: Sketch 3.7 (28169) - http://www.bohemiancoding.com/sketch -->
    <title>view icon</title>
    <desc>Created with Sketch.</desc>
    <defs></defs>
    <g id="Desktop" stroke="none" stroke-width="1" fill="none" fill-rule="evenodd">
        <g id="02_960_Motor" transform="translate(-804.000000, -3327.000000)" fill="#FFFFFF">
            <g id="FICHA-TÉCNICA" transform="translate(470.000000, 2387.000000)">
                <g id="View-more" transform="translate(0.000000, 931.000000)">
                    <g id="view-icon" transform="translate(334.000000, 9.000000)">
                        <ellipse id="Oval" cx="14.9762648" cy="8.03944353" rx="2.97626484" ry="3.03944353"></ellipse>
                        <path d="M29.3543479,7.10747476 C27.1156698,4.86869741 21.4903564,0 14.9046325,0 C8.31890861,0 2.69359528,4.86869741 0.454917113,7.10747476 C-0.151639038,7.71404005 -0.151639038,8.70549859 0.454917113,9.31243149 C2.69359528,11.5512088 8.31890861,16.4199063 14.9046325,16.4199063 C21.4903564,16.4199063 27.1156698,11.5512088 29.3543479,9.31206388 C29.9609041,8.7058662 29.9609041,7.71404005 29.3543479,7.10747476 L29.3543479,7.10747476 Z M14.9046325,14.0645948 C11.7383014,14.0645948 9.17168697,11.4434976 9.17168697,8.20995313 C9.17168697,4.9764087 11.7383014,2.35531141 14.9046325,2.35531141 C18.0709636,2.35531141 20.6375781,4.9764087 20.6375781,8.20995313 C20.6375781,11.4434976 18.0709636,14.0645948 14.9046325,14.0645948 L14.9046325,14.0645948 Z" id="Shape"></path>
                    </g>
                </g>
            </g>
        </g>
    </g>
</svg>