<?xml version="1.0" encoding="UTF-8" standalone="no"?>
<svg width="85px" height="25px" viewBox="0 0 85 25" version="1.1" xmlns="http://www.w3.org/2000/svg" xmlns:xlink="http://www.w3.org/1999/xlink" xmlns:sketch="http://www.bohemiancoding.com/sketch/ns">
    <!-- Generator: Sketch 3.4.1 (15681) - http://www.bohemiancoding.com/sketch -->
    <title>360ยบ</title>
    <desc>Created with Sketch.</desc>
    <defs></defs>
    <g id="Mobile" stroke="none" stroke-width="1" fill="none" fill-rule="evenodd" sketch:type="MSPage">
        <g id="img/mobile/16_galleryGrid" sketch:type="MSArtboardGroup" transform="translate(-187.000000, -667.000000)" fill="#FFFFFF">
            <g id="Header-Browser" sketch:type="MSLayerGroup">
                <path d="M240.81295,672.47739 C241.395344,672.47739 241.920947,672.560379 242.389774,672.726362 C242.858601,672.892344 243.258991,673.122386 243.590956,673.416495 C243.92292,673.710604 244.177714,674.055668 244.355344,674.451696 C244.532975,674.847724 244.621788,675.275777 244.621788,675.735868 C244.621788,676.13772 244.576653,676.49152 244.486382,676.797276 C244.396111,677.103033 244.265075,677.369475 244.093268,677.596608 C243.921462,677.823742 243.711803,678.015929 243.464286,678.173176 C243.216768,678.330422 242.935767,678.461459 242.621274,678.56629 C243.378387,678.805071 243.943301,679.169062 244.316033,679.658273 C244.688765,680.147484 244.875128,680.761901 244.875128,681.501542 C244.875128,682.130527 244.758651,682.686705 244.525694,683.170092 C244.292736,683.65348 243.978248,684.059693 243.58222,684.388746 C243.186192,684.717799 242.727563,684.966769 242.206321,685.135663 C241.685078,685.304557 241.133268,685.389003 240.550874,685.389003 C239.916064,685.389003 239.362798,685.316205 238.891059,685.170606 C238.419319,685.025008 238.008738,684.809525 237.659301,684.524152 C237.309865,684.238779 237.012848,683.889348 236.768243,683.475848 C236.523637,683.062348 236.313978,682.584792 236.13926,682.043165 L237.09147,681.650051 C237.25454,681.580164 237.42052,681.545221 237.589414,681.545221 C237.740837,681.545221 237.876241,681.577252 237.995632,681.641316 C238.115023,681.705379 238.206749,681.798561 238.270812,681.920863 C238.375643,682.124701 238.490664,682.325624 238.615879,682.523638 C238.741093,682.721652 238.891058,682.897824 239.065776,683.052158 C239.240494,683.206493 239.445785,683.331706 239.681655,683.427801 C239.917524,683.523896 240.198525,683.571942 240.524666,683.571942 C240.891574,683.571942 241.211886,683.512248 241.485612,683.392857 C241.759337,683.273466 241.987923,683.117678 242.171377,682.925488 C242.354831,682.733298 242.491692,682.519271 242.581963,682.283402 C242.672234,682.047532 242.717369,681.81021 242.717369,681.571429 C242.717369,681.268584 242.685338,680.993407 242.621274,680.745889 C242.557211,680.498371 242.423262,680.287257 242.219424,680.112539 C242.015587,679.93782 241.722938,679.80096 241.34147,679.701953 C240.960002,679.602946 240.448958,679.553443 239.808325,679.553443 L239.808325,678.01593 C240.338303,678.010106 240.778004,677.960603 241.127441,677.86742 C241.476877,677.774237 241.754966,677.644657 241.961716,677.478674 C242.168466,677.312692 242.312607,677.113225 242.394142,676.880267 C242.475677,676.64731 242.516444,676.39106 242.516444,676.111511 C242.516444,675.511645 242.353376,675.05884 242.027235,674.753083 C241.701095,674.447326 241.25557,674.29445 240.690647,674.29445 C240.178141,674.29445 239.752999,674.429855 239.415211,674.700668 C239.077422,674.971481 238.841556,675.319457 238.707605,675.744604 C238.637718,675.965914 238.541624,676.124614 238.419322,676.220709 C238.297019,676.316804 238.136863,676.364851 237.938849,676.364851 C237.845666,676.364851 237.74666,676.356115 237.641829,676.338643 L236.506166,676.137718 C236.593526,675.532028 236.762417,675.000602 237.012847,674.543422 C237.263276,674.086243 237.576309,673.704781 237.951953,673.399024 C238.327597,673.093267 238.758562,672.863224 239.244861,672.70889 C239.73116,672.554556 240.253851,672.47739 240.81295,672.47739 L240.81295,672.47739 Z M251.339671,677.36074 C251.817234,677.36074 252.281687,677.439362 252.733042,677.596608 C253.184398,677.753855 253.581876,677.991177 253.925488,678.308582 C254.269101,678.625987 254.545734,679.020553 254.755396,679.492292 C254.965058,679.964031 255.069887,680.514385 255.069887,681.143371 C255.069887,681.731589 254.962146,682.283399 254.74666,682.798818 C254.531174,683.314237 254.228334,683.76413 253.838129,684.14851 C253.447925,684.53289 252.977649,684.83573 252.427287,685.05704 C251.876924,685.27835 251.269787,685.389003 250.605858,685.389003 C249.930281,685.389003 249.3246,685.281262 248.788798,685.065776 C248.252995,684.85029 247.795822,684.548906 247.417266,684.161614 C247.03871,683.774321 246.748973,683.308413 246.548047,682.763875 C246.347121,682.219336 246.24666,681.615111 246.24666,680.951182 C246.24666,680.35714 246.367505,679.747091 246.609198,679.121017 C246.850892,678.494944 247.225075,677.844128 247.731757,677.168551 L250.745632,673.123844 C250.850463,672.984069 251.003339,672.86468 251.204265,672.765673 C251.405191,672.666666 251.636689,672.617163 251.898767,672.617163 L253.820658,672.617163 L250.07297,677.203494 C249.991435,677.302501 249.914269,677.395683 249.84147,677.483042 C249.76867,677.570401 249.697328,677.660671 249.627441,677.753854 C249.872046,677.631551 250.135576,677.535458 250.418037,677.46557 C250.700498,677.395683 251.007706,677.36074 251.339671,677.36074 L251.339671,677.36074 Z M248.317061,681.283145 C248.317061,681.632581 248.365107,681.951437 248.461202,682.239723 C248.557297,682.528008 248.699982,682.774065 248.88926,682.977903 C249.078538,683.181741 249.312948,683.340441 249.592497,683.454008 C249.872047,683.567575 250.195271,683.624358 250.562179,683.624358 C250.905791,683.624358 251.221735,683.566119 251.510021,683.44964 C251.798306,683.333161 252.045819,683.170094 252.252569,682.960432 C252.459319,682.75077 252.620931,682.504712 252.73741,682.222251 C252.853889,681.93979 252.912127,681.632581 252.912127,681.300617 C252.912127,680.939532 252.856801,680.614852 252.746146,680.326567 C252.635491,680.038282 252.478247,679.79368 252.274409,679.592754 C252.070571,679.391828 251.825969,679.238952 251.540596,679.134121 C251.255223,679.02929 250.940735,678.976876 250.597122,678.976876 C250.25351,678.976876 249.941934,679.035114 249.662384,679.151593 C249.382835,679.268072 249.142601,679.429684 248.941675,679.636434 C248.740749,679.843184 248.586417,680.087786 248.478674,680.370247 C248.370931,680.652708 248.317061,680.957004 248.317061,681.283145 L248.317061,681.283145 Z M265.317061,678.933196 C265.317061,680.033921 265.199128,680.990489 264.963258,681.802929 C264.727388,682.615369 264.401253,683.286568 263.984841,683.816547 C263.568429,684.346525 263.076313,684.741092 262.508479,685.000257 C261.940645,685.259422 261.327684,685.389003 260.669579,685.389003 C260.011473,685.389003 259.401425,685.259422 258.839414,685.000257 C258.277404,684.741092 257.789656,684.346525 257.376156,683.816547 C256.962656,683.286568 256.639432,682.615369 256.406475,681.802929 C256.173517,680.990489 256.05704,680.033921 256.05704,678.933196 C256.05704,677.826647 256.173517,676.868623 256.406475,676.059096 C256.639432,675.249568 256.962656,674.579825 257.376156,674.049846 C257.789656,673.519867 258.277404,673.125301 258.839414,672.866136 C259.401425,672.60697 260.011473,672.47739 260.669579,672.47739 C261.327684,672.47739 261.940645,672.60697 262.508479,672.866136 C263.076313,673.125301 263.568429,673.519867 263.984841,674.049846 C264.401253,674.579825 264.727388,675.249568 264.963258,676.059096 C265.199128,676.868623 265.317061,677.826647 265.317061,678.933196 L265.317061,678.933196 Z M263.089414,678.933196 C263.089414,678.018837 263.02244,677.261736 262.888489,676.661871 C262.754539,676.062005 262.575455,675.584449 262.351233,675.229188 C262.127012,674.873928 261.869306,674.624958 261.578109,674.482271 C261.286912,674.339585 260.984071,674.268243 260.669579,674.268243 C260.36091,674.268243 260.062437,674.339585 259.774152,674.482271 C259.485867,674.624958 259.231073,674.873928 259.009764,675.229188 C258.788454,675.584449 258.612282,676.062005 258.481244,676.661871 C258.350205,677.261736 258.284687,678.018837 258.284687,678.933196 C258.284687,679.847555 258.350205,680.604656 258.481244,681.204522 C258.612282,681.804388 258.788454,682.281944 259.009764,682.637205 C259.231073,682.992465 259.485867,683.241435 259.774152,683.384121 C260.062437,683.526808 260.36091,683.59815 260.669579,683.59815 C260.984071,683.59815 261.286912,683.526808 261.578109,683.384121 C261.869306,683.241435 262.127012,682.992465 262.351233,682.637205 C262.575455,682.281944 262.754539,681.804388 262.888489,681.204522 C263.02244,680.604656 263.089414,679.847555 263.089414,678.933196 L263.089414,678.933196 Z M269.160843,672.459918 C269.580167,672.459918 269.964541,672.52398 270.313977,672.652107 C270.663414,672.780234 270.963342,672.962229 271.213772,673.198099 C271.464201,673.433968 271.657844,673.722249 271.794707,674.06295 C271.93157,674.40365 272,674.786569 272,675.211716 C272,675.642688 271.93157,676.03143 271.794707,676.377955 C271.657844,676.724479 271.464201,677.018584 271.213772,677.260277 C270.963342,677.501971 270.663414,677.686878 270.313977,677.815005 C269.964541,677.943132 269.580167,678.007194 269.160843,678.007194 C268.729871,678.007194 268.338217,677.943132 267.985868,677.815005 C267.63352,677.686878 267.332136,677.501971 267.081706,677.260277 C266.831277,677.018584 266.636177,676.724479 266.496403,676.377955 C266.356628,676.03143 266.286742,675.642688 266.286742,675.211716 C266.286742,674.786569 266.356628,674.40365 266.496403,674.06295 C266.636177,673.722249 266.831277,673.433968 267.081706,673.198099 C267.332136,672.962229 267.63352,672.780234 267.985868,672.652107 C268.338217,672.52398 268.729871,672.459918 269.160843,672.459918 L269.160843,672.459918 Z M269.160843,676.749229 C269.551047,676.749229 269.840784,676.625472 270.030062,676.377955 C270.21934,676.130437 270.313977,675.747519 270.313977,675.229188 C270.313977,674.710857 270.21934,674.329395 270.030062,674.084789 C269.840784,673.840184 269.551047,673.717883 269.160843,673.717883 C268.747343,673.717883 268.445958,673.840184 268.25668,674.084789 C268.067402,674.329395 267.972765,674.710857 267.972765,675.229188 C267.972765,675.747519 268.067402,676.130437 268.25668,676.377955 C268.445958,676.625472 268.747343,676.749229 269.160843,676.749229 L269.160843,676.749229 Z M202.833586,667 C192.75754,667 187,677.721263 187,679.061381 C187,680.401498 192.75754,691.122761 202.833586,691.122761 C212.909282,691.122761 218.667523,680.401498 218.667523,679.061381 C218.667523,677.721263 212.909282,667 202.833586,667 L202.833586,667 Z M202.833586,687.10241 C198.063763,687.10241 194.196926,683.501925 194.196926,679.061381 C194.196926,674.620837 198.063763,671.020352 202.833586,671.020352 C207.60306,671.020352 211.470247,674.620511 211.470247,679.061381 C211.470247,683.502251 207.60306,687.10241 202.833586,687.10241 L202.833586,687.10241 Z M202.833586,673.700912 C199.653354,673.700912 197.076046,676.101127 197.076046,679.061381 C197.076046,682.021635 199.653704,684.421849 202.833586,684.421849 C206.013119,684.421849 208.591127,682.021635 208.591127,679.061381 C208.591127,676.100801 206.013119,673.700912 202.833586,673.700912 L202.833586,673.700912 Z M226.311408,667.545992 L226.311408,689.494589 L226.311408,690.040581 L227.403392,690.040581 L227.403392,689.494589 L227.403392,667.545992 L227.403392,667 L226.311408,667 L226.311408,667.545992 L226.311408,667.545992 Z" id="360ยบ" sketch:type="MSShapeGroup"></path>
            </g>
        </g>
    </g>
</svg>