<?xml version="1.0" encoding="iso-8859-1"?>
<!-- Generator: Adobe Illustrator 18.0.0, SVG Export Plug-In . SVG Version: 6.00 Build 0)  -->
<!DOCTYPE svg PUBLIC "-//W3C//DTD SVG 1.1//EN" "http://www.w3.org/Graphics/SVG/1.1/DTD/svg11.dtd">
<svg version="1.1" id="Capa_1" xmlns="http://www.w3.org/2000/svg" xmlns:xlink="http://www.w3.org/1999/xlink" x="0px" y="0px"
	 viewBox="0 0 295.996 295.996" style="enable-background:new 0 0 295.996 295.996;" xml:space="preserve">
<g>
	<path d="M147.998,0C66.392,0,0,66.392,0,147.998s66.392,147.998,147.998,147.998c81.606,0,147.998-66.392,147.998-147.998
		S229.604,0,147.998,0z M88.664,266.052V131.997h17v141.146C99.664,271.171,94.664,268.793,88.664,266.052z M121.664,204.582
		c10-7.108,22.9-9.964,35.25-7.383c6.059,1.268,11.75,3.792,16.75,7.344v72.876c-8,1.686-17.102,2.577-25.999,2.577
		c-8.898,0-17.001-0.891-26.001-2.577V204.582z M189.664,273.144V131.997h17v134.056
		C201.664,268.794,195.664,271.172,189.664,273.144z M222.664,256.556V131.997h6v-16h-62v16h7v54.08
		c-4-2.021-8.794-3.56-13.475-4.539c-13.155-2.75-26.525-0.945-38.525,4.622v-54.163h7v-16h-62v16h6v124.558
		c-6-4.467-12.311-9.486-17.855-14.999c-9.536-9.482-17.548-20.41-23.85-32.42c-9.6-18.289-15-39.089-15-61.138
		C15.958,75.214,75.193,16,147.977,16c34.523,0,65.998,13.328,89.544,35.102c12.208,11.288,22.294,24.844,29.563,39.996
		c8.27,17.239,12.743,36.538,12.743,56.9C279.827,192.944,257.664,232.708,222.664,256.556z"/>
</g>
<g>
</g>
<g>
</g>
<g>
</g>
<g>
</g>
<g>
</g>
<g>
</g>
<g>
</g>
<g>
</g>
<g>
</g>
<g>
</g>
<g>
</g>
<g>
</g>
<g>
</g>
<g>
</g>
<g>
</g>
</svg>
