<?xml version="1.0" encoding="utf-8"?>
<!-- Generator: Adobe Illustrator 19.1.0, SVG Export Plug-In . SVG Version: 6.00 Build 0)  -->
<svg version="1.1" id="Layer_1" xmlns="http://www.w3.org/2000/svg" xmlns:xlink="http://www.w3.org/1999/xlink" x="0px" y="0px"
	 viewBox="0 0 93 91.4" style="enable-background:new 0 0 93 91.4;" xml:space="preserve">
<style type="text/css">
	.st0{fill:#FFFFFF;}
	.st1{fill:#1C5E36;}
</style>
<path class="st0" d="M0,0v91.4L93,0H0z"/>
<path class="st1" d="M40,25.1l-5.4,4l2.1,6.4c0.2,0.8,0,1.6-0.7,2.1c-0.3,0.2-0.7,0.4-1.1,0.4c-0.4,0-0.8-0.1-1.1-0.4l-5.4-4l-5.4,4
	c-0.7,0.5-1.5,0.5-2.2,0c-0.6-0.5-0.9-1.3-0.7-2.1l2.1-6.4l-5.4-4c-0.6-0.5-0.9-1.2-0.7-1.9c0.3-0.8,1-1.1,1.8-1.1h6.7l2.1-6.5
	c0.2-0.8,1-1.4,1.8-1.4c0.8,0,1.5,0.6,1.8,1.4l2.1,6.5h6.7c0.8,0,1.5,0.4,1.8,1.1C40.9,23.9,40.6,24.6,40,25.1z"/>
</svg>
