<?xml version="1.0" standalone="no"?>
<!DOCTYPE svg PUBLIC "-//W3C//DTD SVG 1.1//EN" "http://www.w3.org/Graphics/SVG/1.1/DTD/svg11.dtd" >
<svg xmlns="http://www.w3.org/2000/svg">
<metadata>Generated by IcoMoon</metadata>
<defs>
<font id="icomoon" horiz-adv-x="1024">
<font-face units-per-em="1024" ascent="960" descent="-64" />
<missing-glyph horiz-adv-x="1024" />
<glyph unicode="&#x20;" d="" horiz-adv-x="512" />
<glyph unicode="&#xe000;" d="M614.272 539.424q0-7.424-5.76-13.12l-266.24-266.304q-5.76-5.76-13.12-5.76t-13.184 5.76l-266.24 266.24q-5.76 5.76-5.76 13.184t5.76 13.12l28.544 28.608q5.76 5.76 13.12 5.76t13.184-5.76l224.576-224.448 224.576 224.576q5.76 5.76 13.12 5.76t13.184-5.76l28.576-28.544q5.6-5.76 5.6-13.12z" horiz-adv-x="672" />
<glyph unicode="&#xe001;" d="M358.272 649.152q0-7.424-5.76-13.12l-224.512-224.64 224.544-224.576q5.76-5.76 5.76-13.184t-5.76-13.12l-28.576-28.608q-5.76-5.76-13.12-5.76t-13.184 5.76l-266.24 266.24q-5.76 5.76-5.76 13.184t5.76 13.12l266.176 266.432q5.76 5.76 13.12 5.76t13.184-5.76l28.576-28.576q5.76-5.76 5.76-13.12z" horiz-adv-x="352" />
<glyph unicode="&#xe002;" d="M340 411.424q0-7.424-5.76-13.12l-266.24-266.304q-5.76-5.76-13.12-5.76t-13.184 5.76l-28.576 28.576q-5.76 5.76-5.76 13.12t5.76 13.184l224.576 224.576-224.576 224.576q-5.76 5.76-5.76 13.12t5.76 13.248l28.576 28.576q5.76 5.76 13.12 5.76t13.184-5.76l266.24-266.24q5.76-5.76 5.76-13.12z" horiz-adv-x="352" />
<glyph unicode="&#xe003;" d="M44.064 301.76c0 4.896 1.92 9.28 5.696 13.12l266.304 266.24c3.84 3.84 8.192 5.76 13.12 5.76 4.992 0 9.376-1.92 13.184-5.76l266.24-266.24c3.84-3.84 5.76-8.224 5.76-13.12 0-4.992-1.92-9.376-5.76-13.184l-28.704-28.608c-3.84-3.84-8.192-5.76-13.12-5.76-4.96 0-9.344 1.92-13.184 5.76l-224.544 224.64-224.64-224.64c-3.776-3.84-8.16-5.76-13.12-5.76s-9.28 1.92-13.12 5.76l-28.608 28.608c-3.84 3.84-5.76 8.192-5.76 13.12h0.16z" horiz-adv-x="672" />
<glyph unicode="&#xe004;" d="M0 960v-843.289c0-99.797 80.908-180.705 180.705-180.705h659.573c99.797 0 180.705 80.908 180.705 180.705v843.289h-1020.982zM972.794 658.825v-542.114c0-73.065-59.452-132.517-132.517-132.517h-659.573c-73.065 0-132.517 59.452-132.517 132.517v795.101h111.435v-78.305h48.188v78.305h605.361v-78.305h48.188v78.305h111.435v-252.987zM636.081 569.256l118.615 65.897v-479.482h48.188v561.39l-190.21-105.682zM457.075 427.463c39.032 26.521 64.391 69.132 64.391 117.097 0 80.233-70.939 145.51-158.147 145.51-85.311 0-156.249-63.813-158.117-142.251l48.17-1.144c1.253 52.525 50.579 95.231 109.947 95.231 60.632 0 109.965-43.67 109.965-97.316 0-48.814-40.863-89.238-93.876-96.165-2.217 0.072-4.439 0.151-6.674 0.151h-57.187v-48.188h47.778v-1.313c6.011 0 11.927 0.343 17.769 0.94 61.65-3.825 110.531-49.393 110.531-105.008 0-58.127-53.332-105.411-118.886-105.411s-118.856 47.284-118.856 105.399h-48.188c0-84.69 74.944-153.587 167.068-153.587s167.080 68.891 167.080 153.581c0 56.416-33.286 105.791-82.733 132.493z" horiz-adv-x="1021" />
<glyph unicode="&#xe005;" d="M944.663 454.74c-14.896 2.356-175.301 2.936-225.84 3.081h-7.109c-50.473-0.132-210.898-0.724-225.787-3.094-19.569-3.081-41.903 1.053-40.995-32.813 0.961-33.866 7.438-81.081 7.438-81.081s3.752-48.275 43.838-51.362c42.673-3.265 127.842-12.546 201.222-12.546 6.029 0 11.98 0.066 17.825 0.197 5.839-0.132 11.796-0.197 17.825-0.197 73.393 0 158.634 9.281 201.288 12.546 40.086 3.094 43.838 51.362 43.838 51.362s6.477 47.222 7.425 81.081c0.922 33.873-21.425 29.739-40.942 32.82zM926.035 347.975l-0.217-1.514-0.132-1.56c0-0.013-0.369-1.646-0.922-3.357-8.175-0.671-17.614-1.494-28.001-2.416-45.76-4.015-108.431-9.544-163.676-9.544-5.621 0-11.177 0.066-16.62 0.197l-1.205 0.026-1.211-0.026c-5.45-0.132-10.992-0.197-16.62-0.197-55.226 0-117.85 5.529-163.584 9.544-10.4 0.922-19.859 1.751-28.041 2.416-0.395 1.185-0.711 2.482-0.908 3.62l0.013 0.184-0.369 2.672c-0.020 0.349-3.818 28.192-5.825 54.897 20.372 0.889 84.761 1.909 213.004 2.277h7.043c128.29-0.362 192.691-1.382 213.11-2.277-1.988-26.724-5.766-54.568-5.819-54.91zM719.284 457.821v0.026h-8.011v-0.026h8.017zM1388.72 752.63l-98.755 13.718c-12.553 1.731-25.112-1.909-34.426-10.005-9.321-8.116-14.665-20.037-14.665-32.714v-57.707l-109.701 199.754c-37.98 68.568-119.272 94.325-178.447 94.325h-474.882c-59.175 0-134.115-21.59-178.447-94.325l-109.714-199.774v57.727c0 12.678-5.345 24.605-14.665 32.714-9.347 8.109-21.853 11.769-34.426 10.005l-98.774-13.711c-23.453-3.271-41.818-24.381-41.818-48.051v-22.288c0-23.631 18.325-44.76 41.732-48.084l121.049-17.285-10.887-19.833c-28.488-51.882-51.803-142.751-51.803-201.946v-459.131h186.833l35.571 147.076h785.601l35.571-147.082h186.82v459.118c0 59.195-23.301 150.064-51.803 201.946l-10.881 19.813 121.049 17.312c23.4 3.337 41.732 24.467 41.732 48.097v22.308c-0.020 23.677-18.391 44.78-41.864 48.051zM137.024 673.774l-84.366 12.046v15.139l84.372 11.717v-38.902zM1277.828-11.341h-92.725l-35.584 147.082h-868.473l-35.564-147.082h-92.732v406.479c0 50.138 21.169 132.654 45.3 176.604l146.885 267.473c36.71 59.241 98.959 68.127 132.91 68.127h474.869c47.38 0 106.7-20.774 132.305-67.008l147.51-268.605c24.124-43.944 45.286-126.447 45.286-176.604v-406.459zM1377.906 685.826l-84.366-12.046v38.902l84.366-11.717v-15.139zM1169.667 472.776l3.884-25.888c-9.61-1.817-20.892-3.574-34.268-5.068-50.052-5.628-77.474-6.122-90.665-6.372l-5.266-0.132 1.672-52.645 4.562 0.099c12.888 0.23 43.075 0.79 95.575 6.681 13.836 1.553 25.822 3.39 36.19 5.299l2.686-17.957 52.106 7.8-14.369 95.951-52.066-7.807zM291.281 441.799c-13.375 1.501-24.644 3.258-34.254 5.068l3.884 25.888-52.086 7.807-14.376-95.957 52.106-7.807 2.699 17.97c10.361-1.942 22.347-3.752 36.183-5.332 52.514-5.885 82.694-6.451 95.575-6.681l4.568-0.099 1.672 52.639-5.266 0.112c-13.178 0.25-40.613 0.75-90.665 6.372z" horiz-adv-x="1431" />
<glyph unicode="&#xe006;" d="M469.92-64l823.716 823.789-200.321 200.199-623.414-623.42-270.027 270.1-200.229-200.26 470.274-470.409z" horiz-adv-x="1294" />
<glyph unicode="&#xe007;" d="M1023.646 447.988c0-282.567-229.066-511.633-511.633-511.633s-511.633 229.066-511.633 511.633c0 282.567 229.066 511.633 511.633 511.633s511.633-229.066 511.633-511.633z" />
<glyph unicode="&#xe008;" d="M511.997 960c-282.784 0-511.997-229.231-511.997-511.997 0-282.778 229.213-512.003 511.997-512.003 282.766 0 512.003 229.225 512.003 512.003 0 282.766-229.237 511.997-512.003 511.997zM511.997-16.556c-256.156 0-464.553 208.397-464.553 464.559s208.397 464.553 464.553 464.553 464.559-208.397 464.559-464.553-208.397-464.559-464.559-464.559zM488.275 138.983h47.444v-106.263h-47.444zM488.275 865.112h47.444v-106.263h-47.444zM95.795 472.632h106.257v-47.444h-106.251zM821.924 472.632h106.274v-47.444h-106.274zM579.765 448.009c0 9.649-2.046 18.812-5.681 27.12l152.829 152.829-33.537 33.567-152.354-152.354c-8.801 4.211-18.622 6.624-29.024 6.624-37.421 0-67.768-30.34-67.768-67.768s30.34-67.786 67.768-67.786c10.023 0 19.511 2.236 28.081 6.144l153.303-153.303 33.537 33.549-153.303 153.303c3.914 8.564 6.15 18.052 6.15 28.075z" />
<glyph unicode="&#xe009;" d="M1024 845.424l-908.4-908.4-113.528 113.557 908.377 908.4 113.552-113.575zM910.448-62.976l-908.389 908.4 113.54 113.557 908.4-908.4-113.552-113.552z" />
<glyph unicode="&#xe00a;" d="M511.012 911.665c255.669 0 463.659-207.996 463.659-463.659s-207.996-463.641-463.659-463.641-463.659 207.979-463.659 463.635 207.996 463.671 463.659 463.671zM511.012 959.023c-282.239 0-511.012-228.802-511.012-511.023s228.772-511.012 511.012-511.012c282.222 0 511.012 228.784 511.012 511.017 0 282.222-228.79 511.035-511.012 511.035zM744.282 681.277l-137.204-329.337-329.337-137.204 137.204 329.337 329.337 137.204zM832.204 769.222l-453.472-188.931-188.907-453.49 453.472 188.913 188.907 453.508zM511.012 479.904c17.591 0 31.904-14.306 31.904-31.904s-14.312-31.892-31.904-31.892-31.904 14.306-31.904 31.904 14.324 31.892 31.904 31.892zM511.012 527.256c-43.777 0-79.256-35.491-79.256-79.256s35.485-79.245 79.256-79.245c43.766 0 79.256 35.479 79.256 79.256 0 43.76-35.491 79.245-79.256 79.245z" horiz-adv-x="1022" />
<glyph unicode="&#xe00b;" d="M1024 903.485v-910.958c0-31.194-25.334-56.527-56.527-56.527h-260.96v396.56h133.12l19.918 154.535h-153.038v98.641c0 44.772 12.43 75.231 76.617 75.231l81.837 0.041v138.228c-14.158 1.894-62.73 6.108-119.246 6.108-118.015 0-198.774-72.011-198.774-204.297v-113.942h-133.44v-154.547h133.44v-396.548h-490.431c-31.194 0-56.515 25.322-56.515 56.515v910.958c0 31.194 25.322 56.515 56.515 56.515h910.958c31.194 0 56.527-25.322 56.527-56.515z" />
<glyph unicode="&#xe00c;" d="M346.568 891.784h898.734v-47.037h-898.734zM346.568 483.895h898.734v-47.060h-898.734zM346.568 75.994h898.734v-47.037h-898.734zM104.601 156.161c-57.275 0-103.703-46.434-103.703-103.691 0-57.281 46.434-103.709 103.703-103.709s103.697 46.417 103.697 103.703c0 57.269-46.434 103.703-103.721 103.703zM104.601-4.197c-31.252 0-56.666 25.433-56.666 56.678 0 31.24 25.421 56.655 56.666 56.655 31.252 0 56.655-25.415 56.655-56.655 0-31.252-25.415-56.672-56.655-56.672zM43.043 772.491l61.558 61.546 61.558-61.546 33.248 33.26-61.546 61.546 61.546 61.534-33.26 33.26-61.546-61.546-61.558 61.546-33.26-33.26 61.558-61.546-61.558-61.546zM43.043 365.594l61.558 61.534 61.558-61.546 33.248 33.26-61.558 61.54 61.558 61.517-33.26 33.26-61.54-61.511-61.558 61.558-33.26-33.272 61.558-61.54-61.558-61.558z" horiz-adv-x="1245" />
<glyph unicode="&#xe00d;" d="M985.653 267.893c21.067 55.863 32.681 116.369 32.681 179.605 0 281.205-227.959 509.17-509.164 509.17-281.217 0-509.17-227.953-509.17-509.17s227.953-509.17 509.17-509.17c216.717 0 401.686 135.463 475.183 326.281l2.162 2.599-0.886 0.685zM693.478 167.711c15.36 53.772 26.431 114.609 32.061 180.007 105.050 21.504 191.32 58.705 245.346 107.147 0.035-2.463 0.177-4.903 0.177-7.367 0-55.757-9.925-109.233-28.109-158.751-49.294-56.324-139.48-99.042-249.481-121.036zM509.17-14.411c-37.797 0-79.913 45.117-112.659 120.67l-1.967 4.797c40.19-4.697 82.294-7.184 125.727-7.184h0.059c35.186 0 69.516 1.831 102.693 5.305l-1.205-2.918c-32.74-75.559-74.85-120.664-112.647-120.664zM520.318 151.122h-0.059c-50.18 0-98.646 3.521-144.177 10.002-16.937 53.098-28.782 113.522-35.062 177.998 52.649-7.993 109.032-12.258 167.719-12.258 59.059 0 115.731 4.277 168.569 12.276-6.38-65.327-18.461-126.483-35.741-180.083-38.813-5.199-79.517-7.928-121.273-7.928zM68.925 307.752c-14.043 44.113-21.663 91.049-21.663 139.746l0.177 7.077c54.51-48.301 140.75-85.395 245.346-106.858 5.553-64.441 16.4-124.451 31.411-177.644-125.243 25.551-220.935 75.181-255.27 137.678zM105.216 671.174c42.027-30.513 109.954-54.8 193.547-70.1-6.64-48.467-10.238-100.046-10.238-153.576 0-17.12 0.354-34.046 1.075-50.735-110.964 24.487-197.552 67.383-236.957 121.432 8.448 54.746 26.602 106.309 52.543 152.973zM509.164 909.401c30.466 0 63.726-29.337 92.632-80.273-28.268-3.267-58.899-4.962-91.793-4.962-33.532 0-64.689 1.749-93.4 5.128 28.889 50.83 62.107 80.108 92.544 80.108zM367.262 837.298c-25.698 5.406-48.638 12.465-68.647 21.126 33.656 17.309 69.669 30.59 107.461 39.245-13.883-16.996-26.88-37.26-38.813-60.376zM612.253 897.662c38.045-8.714 74.301-22.112 108.14-39.593-20.157-8.649-43.291-15.691-69.179-21.067-11.963 23.258-25.013 43.622-38.949 60.66zM510.009 776.91c41.336 0 79.204 2.481 113.675 7.296 17.924-42.453 32.020-91.451 41.933-144.809-45.725-5.76-96.909-9.157-153.127-9.157-58.332 0-111.832 3.71-159.625 10.067 9.925 53.11 23.985 101.878 41.856 144.147 34.914-4.962 73.314-7.52 115.288-7.52zM512.502 582.961c56.182 0 110.367 3.527 160.535 10.043 6.238-46.375 9.511-95.291 9.511-145.506 0-20.204-0.591-40.172-1.619-59.892-53.624-8.743-111.732-13.481-172.185-13.481-60.063 0-117.893 4.726-171.334 13.487-1.034 19.732-1.619 39.7-1.619 59.904 0 50.475 3.308 99.603 9.606 146.197 51.728-6.971 108.11-10.728 167.104-10.728zM965.52 518.981c-38.282-54.445-124.989-97.654-236.815-122.247 0.709 16.701 1.075 33.632 1.075 50.771 0 53.169-3.545 104.448-10.102 152.613 83.198 14.722 151.981 38.199 195.355 67.672 24.812-45.548 42.181-95.704 50.469-148.838zM890.315 708.062c-33.656-23.767-94.405-46.848-177.998-61.629-9.984 54.28-23.967 103.68-41.046 146.363 37.774 8.667 70.242 20.913 97.429 36.568 47.675-32.492 88.97-73.704 121.58-121.302zM250.296 829.854c27.010-15.703 59.313-28.002 96.886-36.722-17.014-42.447-30.956-91.557-40.952-145.494-82.69 15.206-143.556 38.695-175.978 63.584 32.451 46.434 73.137 86.748 120.044 118.626zM123.943 193.025c56.631-33.632 131.15-59.195 216.741-74.141 18.16-49.53 40.332-90.937 65.38-121.544-117.238 26.821-217.609 98.321-282.121 195.662zM612.271-2.661c24.617 30.070 46.458 70.62 64.453 119.040 82.766 13.765 156.27 38.429 214.584 71.932-64.612-94.966-163.672-164.588-279.043-190.995z" horiz-adv-x="1018" />
<glyph unicode="&#xe00e;" d="M425.997 648.012c17.972-66.108-5.69-130.228-52.922-143.053-47.323-12.824-100.155 30.344-118.127 96.542s5.69 130.228 52.922 143.053c47.233 12.824 100.155-30.344 118.127-96.542zM339.118 350.166c79.383 5.419 146.846-37.118 150.729-95.007 3.974-57.889-57.167-109.096-136.55-114.514-79.293-5.328-146.755 37.208-150.639 95.007-3.974 57.889 57.167 109.186 136.46 114.514zM339.118 350.166c79.383 5.419 146.846-37.118 150.729-95.007 3.974-57.889-57.167-109.096-136.55-114.514-79.293-5.328-146.755 37.208-150.639 95.007-3.974 57.889 57.167 109.186 136.46 114.514zM373.075 504.959c-47.323-12.824-100.155 30.344-118.127 96.542s5.69 130.228 52.922 143.053c47.233 12.824 100.155-30.344 118.127-96.542 17.972-66.108-5.69-130.228-52.922-143.053zM904.374 960.036h-786.428c-65.114 0-117.946-52.832-117.946-117.946v-786.338c0-65.205 52.832-118.036 117.946-118.036h786.428c65.114 0 117.856 52.832 117.856 118.036v786.338c0 65.114-52.742 117.946-117.856 117.946zM519.378 622.363c0-105.122-98.439-118.127-98.439-162.921 0-44.704 130.68-80.557 130.68-191.55 0-185.318-229.119-174.842-229.119-174.842s-198.142-7.135-198.142 142.059 224.784 143.233 236.344 143.233c-2.89 34.138-25.739 28.448-25.739 45.336v41.724s-170.056-19.056-170.056 145.672l194.53 169.514h192.182c0-29.261-87.692-18.965-87.692-34.679 49.671-22.397 55.451-60.418 55.451-123.545zM912.141 607.462h-133.751v-133.66h-39.376v133.66h-133.66v39.376h133.66v133.751h39.376v-133.751h133.751v-39.376zM339.118 350.166c-79.293-5.328-140.434-56.625-136.46-114.514 3.883-57.799 71.346-100.335 150.639-95.007 79.383 5.419 140.524 56.625 136.55 114.514-3.883 57.889-71.346 100.426-150.729 95.007zM307.87 744.554c-47.233-12.824-70.894-76.855-52.922-143.053s70.804-109.367 118.127-96.542c47.233 12.824 70.894 76.945 52.922 143.053-17.972 66.198-70.894 109.367-118.127 96.542z" />
<glyph unicode="&#xe00f;" d="M905.204 526.676h-89.023c6.499-25.168 10.323-51.466 10.323-78.665 0-173.737-140.815-314.54-314.522-314.54-173.713 0-314.54 140.803-314.54 314.54 0 27.198 3.847 53.497 10.335 78.665h-88.981v-432.53c0-21.676 17.615-39.285 39.362-39.285h707.685c21.741 0 39.362 17.639 39.362 39.303v432.501zM905.204 801.878c0 21.705-17.627 39.314-39.362 39.314h-117.926c-21.723 0-39.32-17.609-39.32-39.314v-117.967c0-21.705 17.597-39.32 39.32-39.32h117.92c21.723 0 39.362 17.615 39.362 39.314v117.967zM512 644.59c-108.585 0-196.59-87.993-196.59-196.572 0-108.556 88.017-196.596 196.59-196.596 108.568 0 196.602 88.017 196.602 196.572 0 108.58-88.040 196.572-196.602 196.572zM905.204-63.148h-786.408c-65.122 0.006-117.92 52.834-117.92 118.003v786.349c0 65.122 52.798 117.908 117.92 117.908h786.408c65.11 0 117.908-52.786 117.908-117.92v-786.325c0-65.181-52.798-117.991-117.908-117.991z" />
<glyph unicode="&#xe010;" d="M625.794 189.194l-63.968 33.183c24.94 27.69 52.754 70.283 56.29 104.478 5.333 51.57-53.826 191.184-53.153 208.564 0.655 17.38 8.66 8.69 0.679 93.848-7.994 85.158-109.341 92.687-109.341 92.687l-33.213 0.851-13.452 2.809-0.5-2.452-80.723 2.059-0.071 0.202-3.988-0.095-3.988 0.095-0.071-0.202-80.723-2.059-0.506 2.452-13.452-2.809-33.213-0.851s-101.342-7.529-109.341-92.687c-7.988-85.164 0-76.474 0.655-93.854 0.679-17.38-58.474-156.989-53.153-208.564 3.559-34.285 31.517-77.021 56.522-104.699l-61.843-31.588-2.357-1.369c-2.917-1.964-28.314-20.339-21.767-68.271 4.286-31.231 9.488-107.199 10.16-117.228-0.060-6.726 1.488-23.273 15.999-38.915 17.749-19.106 47.588-28.809 88.735-28.809l2.5 0.018c33.987 0.321 84.473 0.381 133.162 0.357v-0.345c0.75 0 30.511 0.119 71.533 0.226 42.219-0.095 73.075-0.22 73.837-0.22v0.357c48.689 0.030 99.163-0.036 133.15-0.357l2.5-0.012c41.147 0 70.998 9.702 88.747 28.809 14.511 15.642 16.047 32.201 15.999 38.927 0.673 10.029 5.893 86.009 10.16 117.21 6.595 47.957-18.833 66.337-21.755 68.271zM321.477 677.629l2.536 0.077 75.206-1.929-15.13-72.617-0.286-1.667c-1-6.547-5.357-21.773-24.571-22.142l-34.88-0.655-34.898 0.655c-19.226 0.375-23.594 15.595-24.523 21.821l-15.535 74.61 72.081 1.845zM112.937 466.327c14.345 42.629 18.868 56.784 18.321 70.89-0.357 9.309-1.887 15.642-2.905 19.833-0.929 3.809-3.095 12.738 2.071 67.771 1.113 11.863 5.399 26.987 28.868 38.82 15.749 7.94 32.118 10.297 36.058 10.762l5.69 0.143 16.749-80.247c3.119-21.874 21.547-61.581 70.736-62.528l29.017-0.554v-0.256l6.785 0.119 6.785-0.119v0.238l29.011 0.548c49.177 0.952 67.605 40.653 70.73 62.522l16.749 80.265 5.69-0.149c3.928-0.476 20.297-2.815 36.052-10.762 23.475-11.845 27.767-26.975 28.886-38.808 5.155-55.028 2.976-63.95 2.059-67.76-1.012-4.19-2.559-10.535-2.917-19.821-0.536-14.136 3.97-28.297 18.333-70.938 11.202-33.296 37.451-111.27 35.046-134.561-3.137-30.338-45.736-83.539-61.438-93.884l-0.774-0.345c-12.232-5.321-49.445-21.487-61.581-21.809h-245.23c-12.226 0.31-49.463 16.511-61.7 21.844l-0.714 0.298c-15.69 10.339-58.302 63.545-61.444 93.896-2.417 23.291 23.838 101.27 35.040 134.579zM600.384 127.392c-4.78-34.939-10.339-118.091-10.571-121.621l-0.655-0.327 0.554-2.619c-1.309-8.214-17.678-19.642-59.105-19.226-51.98 0.476-142.186 0.375-205.981 0.238-63.855 0.149-154.459 0.25-206.6-0.238-40.683-0.435-57.248 10.642-59.046 18.797l0.042 0.036-0.226 3.309c-0.238 3.524-5.774 86.693-10.583 121.627-1.869 13.69 0.774 20.237 2.083 22.541l73.361 37.469-3.5 6.869c22.755-9.904 59.849-26.166 81.485-26.166h245.289c21.053 0 56.712 15.386 79.616 25.338l-2.619-5.059 74.355-38.409c1.309-2.28 3.97-8.827 2.083-22.583zM205.35 786.81c4.791-14.369 22.785-26.624 39.975-27.219l68.902-2.44 3.94-0.060c2.024 0 4.089 0.048 6.16 0.119 2.036-0.071 4.107-0.119 6.131-0.119l3.94 0.060 68.896 2.44c17.202 0.595 35.177 12.857 39.969 27.219l10.785 32.338c4.786 14.369 3.452 37.475-2.952 51.367l-27.541 59.581c-6.381 13.892-25.69 26.035-42.856 26.999l-50.843 2.857-1.786 0.042c-1.238 0-2.5-0.060-3.75-0.149-1.238 0.095-2.5 0.155-3.738 0.155l-1.786-0.042-50.832-2.857c-17.19-0.97-36.487-13.113-42.897-27.005l-27.535-59.581c-6.416-13.886-7.75-36.999-2.946-51.367l10.773-32.338zM240.765 850.54l26.428 57.171c1.101 0.792 2.774 1.631 3.792 1.863l49.796 2.798 0.631-0.036 2.934-0.179 2.952 0.179 0.577 0.030 49.802-2.798c1.012-0.238 2.69-1.071 3.792-1.863l26.356-57.010c1.44-3.595 2.024-12.976 1.071-16.488l-9.047-27.1-69.384-2.405-4.482 0.060-1.667 0.060-1.649-0.060-4.506-0.083-2.262 0.030-67.099 2.381-8.97 26.922c-1.012 3.738-0.446 13.077 0.94 16.511z" horiz-adv-x="649" />
<glyph unicode="&#xe011;" d="M345.941 879.845h899.455v-47.261h-899.455zM103.786 960c-57.328 0-103.786-46.464-103.786-103.786s46.464-103.78 103.78-103.78 103.786 46.458 103.786 103.78-46.464 103.786-103.786 103.786zM103.786 799.695c-31.181 0-56.525 25.356-56.525 56.519 0 31.169 25.356 56.525 56.519 56.525 31.169 0 56.525-25.356 56.525-56.525 0-31.163-25.356-56.519-56.525-56.519zM345.941 471.642h899.455v-47.261h-899.455zM103.786 551.78c-57.328 0-103.786-46.458-103.786-103.768 0-57.328 46.464-103.798 103.78-103.798s103.786 46.47 103.786 103.798c0 57.304-46.47 103.78-103.786 103.78zM103.786 391.481c-31.181 0-56.525 25.368-56.525 56.525 0 31.163 25.356 56.519 56.519 56.519 31.169 0 56.525-25.344 56.525-56.495s-25.356-56.525-56.525-56.525zM345.941 63.417h899.455v-47.261h-899.455zM103.786 143.56c-57.328 0-103.786-46.452-103.786-103.768 0-57.322 46.464-103.786 103.78-103.786s103.786 46.464 103.786 103.786c0 57.316-46.47 103.78-103.786 103.78zM103.786-16.739c-31.169 0-56.525 25.362-56.525 56.525s25.356 56.513 56.519 56.513c31.169 0 56.525-25.344 56.525-56.513s-25.356-56.525-56.525-56.525z" horiz-adv-x="1245" />
<glyph unicode="&#xe012;" d="M344.641 501.977c125.447 0 227.512 102.070 227.512 227.524 0 125.459-102.064 227.524-227.512 227.524-125.453 0-227.524-102.064-227.524-227.524 0-125.453 102.070-227.524 227.524-227.524zM344.641 908.902c98.929 0 179.413-80.478 179.413-179.401s-80.49-179.407-179.413-179.407c-98.923 0-179.407 80.478-179.407 179.407 0 98.923 80.502 179.401 179.431 179.401zM500.767 461.233h-311.399c-104.421-0.012-189.367-84.947-189.367-189.337v-335.889h689.979l0.161 335.889c0 104.397-84.953 189.326-189.367 189.326zM189.367 413.146h311.417c77.884 0 141.262-63.366 141.262-141.25l-0.155-287.796h-593.799v287.796c0 77.884 63.366 141.25 141.25 141.25z" horiz-adv-x="690" />
<glyph unicode="&#xe013;" d="M800.484 239.649v-0.059l-0.012 0.059-800.472 568.953v-872.602h1600.932v872.602l-800.448-568.953zM1592.882 960h-1584.815l792.404-561.584 792.41 561.584z" horiz-adv-x="1601" />
<glyph unicode="&#xe014;" d="M724.209 835.803c-165.651 165.592-434.172 165.592-599.829 0-165.651-165.651-165.651-434.231 0-599.829l299.915-299.974 299.932 299.974c165.651 165.592 165.651 434.178 0 599.829zM424.289 371.478c-93.707 0-169.698 75.996-169.698 169.704 0 93.648 75.99 169.639 169.698 169.639 93.713 0 169.639-75.973 169.639-169.609 0-93.713-75.925-169.704-169.639-169.704z" horiz-adv-x="848" />
<glyph unicode="&#xe015;" d="M885.248 913.749c11.833-11.378 22.699-23.836 32.415-37.148l60.826 20.252v-814.251l-295.822-98.645-341.333 113.778-14.393-4.779-281.429-93.81v814.251l295.822 98.645 110.933-36.978c9.614 13.312 20.309 25.828 32.028 37.262l-142.962 47.673-341.333-113.778v-910.222l341.333 113.778 341.333-113.778 341.333 113.778v910.222l-138.752-46.251zM318.578 834.958h45.511v-665.839h-45.511zM659.911 305.892h45.511v-240.822h-45.511zM514.56 533.629l170.951-170.962 170.968 170.968c94.413 94.418 94.413 247.501 0 341.919-47.218 47.206-109.090 70.81-170.968 70.81s-123.745-23.609-170.951-70.81c-94.436-94.413-94.436-247.501 0-341.925zM546.731 843.366c37.074 37.069 86.357 57.486 138.786 57.486s101.717-20.412 138.809-57.475c76.516-76.544 76.516-201.045 0-277.561l-138.809-138.809-138.775 138.798c-76.516 76.516-76.516 201.045 0 277.561zM685.522 610.89c53.419 0 96.711 43.292 96.711 96.711 0 53.407-43.31 96.711-96.711 96.711-53.419 0-96.711-43.304-96.711-96.711 0-53.419 43.292-96.711 96.711-96.711zM685.522 758.801c28.234 0 51.2-22.966 51.2-51.2 0-28.228-22.966-51.2-51.2-51.2s-51.2 22.966-51.2 51.2 22.966 51.2 51.2 51.2z" />
<glyph unicode="&#xe016;" d="M124.534 235.755l299.755-299.755 299.755 299.767c165.557 165.545 165.557 433.966 0 599.51-165.533 165.545-433.954 165.545-599.51 0-165.551-165.545-165.551-433.977 0-599.522z" horiz-adv-x="848" />
<glyph unicode="&#xe017;" d="M1227.171 820.186h-1152.738c-39.263 0-71.091 31.827-71.091 71.091s31.827 71.091 71.091 71.091h1152.724c39.256 0 71.091-31.827 71.091-71.091s-31.827-71.091-71.091-71.091zM1227.171 378.093h-1152.738c-39.263 0-71.091 31.827-71.091 71.091s31.827 71.091 71.091 71.091h1152.724c39.256 0 71.091-31.827 71.091-71.091s-31.827-71.091-71.091-71.091zM1227.171-64h-1152.738c-39.263 0-71.091 31.806-71.091 71.091s31.827 71.091 71.091 71.091h1152.724c39.256 0 71.091-31.849 71.091-71.091s-31.827-71.091-71.091-71.091z" horiz-adv-x="1301" />
<glyph unicode="&#xe018;" d="M1024 384.003h-1024v128h1024v-128z" />
<glyph unicode="&#xe019;" d="M853.35 960h-682.702c-94.25 0-170.648-76.42-170.648-170.686v-682.63c0-94.266 76.398-170.684 170.648-170.684h682.702c94.25 0 170.65 76.418 170.65 170.684v682.63c0 94.266-76.4 170.686-170.65 170.686zM561.644 275.882c-46.52 3.614-66.042 26.656-102.504 48.808-20.060-105.178-44.562-206.018-117.138-258.688-22.404 158.968 32.894 278.364 58.57 405.114-43.786 73.706 5.27 222.034 97.62 185.474 113.626-44.948-98.4-274.008 43.932-302.616 148.62-29.868 209.288 257.858 117.142 351.424-133.158 135.106-387.598 3.080-356.31-190.356 7.614-47.292 56.472-61.638 19.524-126.902-85.22 18.892-110.65 86.102-107.376 175.712 5.268 146.674 131.784 249.364 258.686 263.566 160.484 17.964 311.106-58.908 331.906-209.876 23.41-170.388-72.45-354.928-244.052-341.66z" />
<glyph unicode="&#xe01a;" d="M575.997 960v-1024h-127.994v1024h127.994zM1024 384.003h-1024v128h1024v-128z" />
<glyph unicode="&#xe01b;" d="M683.713 475.989h-143.914v143.908h-55.966v-143.908h-143.908v-55.966h143.908v-143.914h55.966v143.914h143.914zM511.997 923.345c262.108 0 475.348-213.24 475.348-475.342 0-262.108-213.234-475.348-475.348-475.348-262.102 0-475.342 213.24-475.342 475.348 0 262.102 213.24 475.342 475.342 475.342zM511.997 960c-282.769 0-511.997-229.228-511.997-511.997s229.228-512.003 511.997-512.003c282.769 0 512.003 229.228 512.003 512.003 0 282.769-229.234 511.997-512.003 511.997v0z" />
<glyph unicode="&#xe01c;" d="M0 960v-1024h796.444v1024h-796.444zM750.933-18.489h-705.422v932.978h705.422v-932.978zM335.644 829.156h329.956v-45.511h-329.956zM335.644 732.444h329.956v-45.511h-329.956zM335.644 510.578h329.956v-45.511h-329.956zM335.644 413.867h329.956v-45.511h-329.956zM335.644 192h329.956v-45.511h-329.956zM335.644 95.289h329.956v-45.511h-329.956zM271.77 823.467h-135.236v-135.236h135.236v135.236zM226.258 733.742h-44.214v44.214h44.214v-44.214zM272.481 504.889h-135.947v-135.947h135.947v135.947zM226.97 414.453h-44.925v44.925h44.925v-44.925zM271.058 186.311h-134.525v-134.525h134.525v134.525zM225.547 97.297h-43.503v43.503h43.503v-43.503z" horiz-adv-x="796" />
<glyph unicode="&#xe01d;" d="M190.204 697.465l-190.204-64.755 135.517-416.685 54.692 35.118v446.298zM841.929 446.97l0.373-327.070h-271.703l-22.137-71.147 358.003-112.818 153.209 448.163-217.745 62.849zM815.145 146.151h-597.779v813.849h595.536l2.249-813.849zM271.715 198.665h489.081v708.833h-489.081v-708.833zM333.877 779.74h377.412v-27.737h-377.436v27.737zM333.877 724.302h377.412v-27.749h-377.436v27.749zM333.877 668.817h377.412v-27.713h-377.436v27.713zM333.877 613.373h377.412v-27.76h-377.436v27.76zM522.323 296.762v20.214c-14.916 0.651-29.317 4.439-37.764 9.175l6.689 24.931c9.317-4.913 22.392-9.376 36.805-9.376 12.69 0 21.321 4.688 21.321 13.2 0 8.109-7.067 13.2-23.54 18.598-23.724 7.624-39.918 18.32-39.918 38.936 0 18.734 13.732 33.419 37.515 37.941v20.243h21.753v-18.763c14.857-0.639 24.902-3.652 32.212-7.002l-6.44-24.085c-5.801 2.368-16.017 7.292-31.981 7.292-14.472 0-19.136-5.978-19.136-11.968 0-6.973 7.795-11.524 26.66-18.266 26.446-8.997 37.077-20.687 37.077-39.859 0-19-13.969-35.159-39.51-39.421v-21.723h-21.723v-0.047z" horiz-adv-x="1060" />
<glyph unicode="&#xe01e;" d="M1023.959 62.147l-119.938-119.932-218.544 218.497c-8.003 7.162-18.124 10.79-28.193 10.79-5.209 0-10.406-0.947-15.33-2.9-3.019-1.74-6.097-3.415-9.234-5.090-60.179-32.839-129.095-51.685-202.492-51.685-234.206 0-424.054 189.848-424.054 424.060s189.848 424.114 424.060 424.114c234.265 0 424.12-189.848 424.12-424.12 0-73.397-18.882-142.306-51.768-202.492-1.616-3.019-3.244-6.037-4.913-8.95-5.937-14.993-2.971-32.555 8.831-44.867l217.425-217.425zM750.645 535.881c0 176.708-143.703 320.471-320.411 320.471-176.649 0-320.411-143.774-320.411-320.494 0-176.649 143.763-320.358 320.411-320.358 176.708 0 320.411 143.715 320.411 320.364z" horiz-adv-x="1083" />
<glyph unicode="&#xe01f;" d="M511.985 960c-282.304 0-511.985-229.681-511.985-511.997 0-282.322 229.675-511.997 511.985-511.997 282.322 0 511.997 229.675 511.997 511.997 0.012 282.316-229.669 511.997-511.985 511.997zM511.985-16.066c-255.863 0-464.021 208.176-464.021 464.063 0 255.851 208.159 464.051 464.021 464.051 255.886 0 464.063-208.2 464.063-464.051 0-255.91-208.17-464.086-464.063-464.086zM727.117 528.956v-58.882h204.852l-3.129 26.725c-24.564 211.566-203.771 371.093-416.855 371.093-213.071 0-392.267-159.51-416.831-371.052l-3.129-26.748h204.864v58.864c0 33.551 27.303 60.854 60.86 60.854h308.503c33.556 0 60.866-27.303 60.866-60.86zM248.942 528.956v-10.941h-102.075c33.049 173.303 187.061 301.925 365.117 301.925 178.068 0 332.11-128.634 365.147-301.925h-102.081v10.941c0 59.992-48.808 108.8-108.8 108.8h-308.503c-59.992 0-108.806-48.808-108.806-108.8zM295.932 406.469l-3.749 19.426h-200.128l3.1-26.701c22.42-193.438 173.161-344.687 366.564-367.804l26.855-3.259v200.181l-19.35 3.797c-86.976 17.171-156.622 87.23-173.291 174.366zM253.341 377.973c24.664-90.944 96.465-163.147 187.285-188.331v-106.462c-150.228 28.874-265.476 144.524-293.783 294.792h106.468zM726.692 406.446c-16.639-87.106-86.28-157.166-173.268-174.336l-19.35-3.809v-200.17l26.807 3.248c193.397 23.129 344.156 174.378 366.594 367.816l3.088 26.707h-200.14l-3.755-19.456zM875.798 377.973c-28.313-150.275-143.567-265.93-293.789-294.798v106.462c90.814 25.195 162.616 97.398 187.285 188.337h106.503z" />
<glyph unicode="&#xe020;" d="M1260.112 838.777c-46.364-20.563-96.185-34.461-148.486-40.705 53.39 31.993 94.374 82.66 113.676 143.029-49.957-29.625-105.3-51.141-164.195-62.742-47.128 50.253-114.333 81.642-188.676 81.642-142.78 0-258.545-115.753-258.545-258.522 0-20.267 2.308-39.995 6.712-58.918-214.862 10.785-405.356 113.705-532.871 270.117-22.256-38.178-34.999-82.595-34.999-129.971 0-89.692 45.636-168.812 115.008-215.182-42.381 1.344-82.24 12.975-117.097 32.336l-0.024-3.255c0-125.248 89.118-229.743 207.387-253.496-21.699-5.919-44.535-9.086-68.111-9.086-16.656 0-32.851 1.616-48.637 4.635 32.898-102.696 128.373-177.454 241.498-179.543-88.478-69.318-199.952-110.651-321.074-110.651-20.865 0-41.445 1.231-61.677 3.611 114.416-73.337 250.318-116.132 396.312-116.132 475.527 0 735.563 393.926 735.563 735.563 0 11.205-0.249 22.35-0.746 33.443 50.49 36.444 94.309 81.979 128.977 133.83z" horiz-adv-x="1260" />
<glyph unicode="&#xe021;" d="M591.224 854.893l500.202-866.34h-1000.404l500.202 866.34zM591.224 960l-591.224-1024h1182.448l-591.224 1024zM591.224 566.127l252.4-437.144h-504.8l252.4 437.144zM591.224 671.233l-343.422-594.804h686.858l-343.435 594.804z" horiz-adv-x="1182" />
<glyph unicode="&#xe022;" d="M0-41.235h1287.298v1001.235h-1287.298v-1001.235zM47.353 6.117v658.438h1192.599v-658.438h-1192.599zM1239.946 912.647v-200.734h-1192.593v200.734h1192.599zM128.728 840.642h743.773v-47.353h-743.773zM944.021 840.642h42.913v-47.353h-42.913zM1036.992 840.642h42.913v-47.353h-42.913zM1129.963 840.642h42.913v-47.353h-42.913z" horiz-adv-x="1287" />
<glyph unicode="&#xe023;" d="M921.345 132.294h-93.622v54.195c-35.485-40.7-65.566-61.245-98.357-61.245-28.767 0-48.755 13.567-58.759 38.101-6.079 14.916-10.394 38.196-10.394 72.39v394.157h93.61v-404.001c2.19-13.827 8.050-18.882 19.959-18.882 17.917 0 34.135 15.567 53.946 43.517v379.383h93.64v-497.617zM591.239 467.326c0 53.177-10.684 93.107-29.566 118.251-24.937 34.035-64.044 47.968-103.465 47.968-44.618 0-78.564-13.934-103.465-47.968-19.178-25.138-29.477-65.5-29.477-118.677l-0.083-176.945c0-52.899 9.151-89.437 28.335-114.333 24.902-33.934 65.276-51.91 104.697-51.91s80.499 17.976 105.436 51.91c18.882 24.896 27.583 61.44 27.583 114.309v177.389zM497.623 280.105c4.954-49.276-10.358-73.722-39.421-73.722s-44.334 24.446-39.386 73.716v197.082c-4.925 49.27 10.358 72.361 39.421 72.361s44.393-23.084 39.462-72.361l-0.059-197.082zM221.734 403.281v-270.993h-98.559v270.975s-102.104 332.25-123.176 394.175h103.465l69.153-259.528 68.809 259.522h103.465l-123.176-394.151zM1879.306 547.364c-14.602 0-31.33-7.707-46.169-22.345l-0.089-297.149c14.833-14.827 31.667-22.345 46.258-22.345 25.582 0 37.136 18.775 37.136 67.773v210.689c0 48.992-11.554 63.381-37.136 63.381zM2244.72 488.469c0 45.281-11.708 58.895-41.114 58.895-29.637 0-42.185-12.489-42.185-58.279v-54.177l83.299 0.089v53.508zM2445.791 739.218s-14.289 100.376-58.155 144.573c-55.627 58.007-118.009 58.303-146.604 61.695-204.741 14.738-511.864 14.738-511.864 14.738h-0.639s-307.123 0-511.858-14.738c-28.613-3.392-90.958-3.688-146.615-61.695-43.86-44.204-58.137-144.567-58.137-144.567s-14.638-117.849-14.638-235.715v-110.509c0-117.849 14.632-235.715 14.632-235.715s14.265-100.364 58.137-144.567c55.639-58.025 128.758-56.172 161.313-62.257 117.050-11.187 497.451-14.644 497.451-14.644s307.437 0.462 512.166 15.188c28.589 3.403 90.976 3.688 146.604 61.706 43.86 44.192 58.167 144.562 58.167 144.562s14.62 117.861 14.62 235.721v110.509c0 117.878-14.62 235.739-14.62 235.739zM1318.652 131.211h-97.99v563.455h-102.903v92.989l308.68 0.107v-93.077h-107.798v-563.466zM1671.428 131.211h-93.083v53.887c-35.295-40.451-65.21-60.884-97.825-60.884-28.613 0-48.477 13.495-58.433 37.882-6.049 14.833-10.341 37.989-10.341 72v387.078h93.095v-396.874c2.172-13.75 8.014-18.775 19.853-18.775 17.816 0 33.946 15.484 53.65 43.28v372.369h93.089v-489.969zM2009.526 278.194c0-45.281-3.883-77.232-9.808-97.996-11.838-36.402-37.645-55.314-72.959-55.314-31.549 0-63.867 19-93.498 55.675l-0.118-49.33h-88.194v656.526h88.194l-0.089-214.057c28.648 35.254 61.085 55.326 93.723 55.326 35.313 0 59.072-20.403 70.911-57.072 5.919-19.681 11.856-51.378 11.856-97.783v-195.981zM2204.417 205.525c21.841 0 34.567 11.874 39.628 35.591 0.829 4.836 0.651 25.985 0.651 61.582h93.107v-13.886c0-28.589-2.368-48.815-3.155-57.693-2.995-19.693-9.962-37.468-20.746-53.153-24.529-35.574-60.931-53.094-107.271-53.094-46.406 0-81.731 16.692-107.372 50.158-18.852 24.505-30.939 60.919-30.939 112.948v171.505c0 52.325 11.009 92.782 29.832 117.553 25.665 33.502 60.99 51.23 106.277 51.23 44.5 0 79.819-17.734 104.685-51.236 18.55-24.801 28.855-63.068 28.855-115.398l0.012-100.163h-176.566v-87.993c-0.296-45.222 12.56-67.981 43.014-67.981z" horiz-adv-x="2460" />
</font>
</defs>
</svg>
