<?xml version="1.0" standalone="no"?>
<!DOCTYPE svg PUBLIC "-//W3C//DTD SVG 1.1//EN" "http://www.w3.org/Graphics/SVG/1.1/DTD/svg11.dtd" >
<svg xmlns="http://www.w3.org/2000/svg" xmlns:xlink="http://www.w3.org/1999/xlink" version="1.1">
<metadata></metadata>
<defs>
<font id="volvo_sans_prolight" horiz-adv-x="1193" >
<font-face units-per-em="2048" ascent="1495" descent="-553" />
<missing-glyph horiz-adv-x="555" />
<glyph unicode="&#xfb01;" horiz-adv-x="1040" d="M20 874v103h216v186v49q0 61 5 99.5t24.5 80.5t66.5 62.5t121 20.5q53 0 125 -15v-119q-51 27 -115 27q-109 0 -109 -139q0 -10 1 -28.5t1 -26.5v-197h222v-103h-222v-874h-120v874h-216zM768 0v977h119v-977h-119zM768 1206v187h119v-187h-119z" />
<glyph unicode="&#xfb02;" horiz-adv-x="1040" d="M20 874v103h216v186v49q0 61 5 99.5t24.5 80.5t66.5 62.5t121 20.5q53 0 125 -15v-119q-51 27 -115 27q-109 0 -109 -139q0 -10 1 -28.5t1 -26.5v-197h222v-103h-222v-874h-120v874h-216zM766 0v1446h121v-1446h-121z" />
<glyph horiz-adv-x="0" />
<glyph unicode="&#xd;" horiz-adv-x="681" />
<glyph unicode=" "  horiz-adv-x="555" />
<glyph unicode="&#x09;" horiz-adv-x="555" />
<glyph unicode="&#xa0;" horiz-adv-x="555" />
<glyph unicode="!" horiz-adv-x="425" d="M135 0v238h156v-238h-156zM147 629v829h132v-829l-19 -269h-96z" />
<glyph unicode="&#x22;" horiz-adv-x="811" d="M147 1446h172l-32 -588h-105zM489 1446h175l-35 -588h-105z" />
<glyph unicode="#" horiz-adv-x="1366" d="M86 530v111h358l27 199h-342v116h356l66 494h129l-70 -494h205l64 494h122l-67 -494h344v-116h-358l-27 -199h344v-111h-358l-72 -530h-127l78 530h-207l-78 -530h-119l74 530h-342zM565 641h207l27 199h-205z" />
<glyph unicode="$" horiz-adv-x="1236" d="M53 365l146 14q115 -219 344 -252v582q-2 0 -20.5 6t-41 12t-41.5 14q-301 109 -301 346q0 96 45 173q96 158 359 186v127h119v-127q166 -12 274 -109q47 -43 83 -109.5t46 -115.5l-137 -14q-82 201 -266 219v-506q70 -18 99.5 -27.5t99 -35t105 -51t81 -65.5t64.5 -92.5 t19 -115.5q0 -39 -9 -82t-34.5 -103.5t-88 -115.5t-154.5 -88q-98 -35 -182 -35v-188h-119v188q-352 43 -490 365zM274 1094q0 -61 27 -101q31 -51 111 -95t131 -50v473q-14 0 -40 -3t-68 -17.5t-75.5 -38t-59.5 -67.5t-26 -101zM662 123q164 0 246.5 87t82.5 193 q0 61 -31.5 108.5t-82 75t-99.5 46t-98 33.5q-12 2 -18 4v-547z" />
<glyph unicode="%" horiz-adv-x="1792" d="M55 991q0 223 90.5 347t241.5 124q98 0 168 -48t101.5 -127t44 -148.5t12.5 -141.5q0 -211 -85 -341t-249 -130q-96 0 -165 50.5t-100.5 129t-45 148.5t-13.5 137zM176 995q0 -55 7 -105t25.5 -114.5t64.5 -103.5t114 -39q66 0 110 38t62.5 100.5t25.5 113.5t7 102 q0 172 -55.5 271.5t-147.5 99.5q-102 0 -157.5 -100.5t-55.5 -262.5zM492 -39l725 1575l100 -45l-729 -1573zM1079 449q0 223 90.5 347t241.5 124q98 0 168 -48.5t101.5 -127t44 -148t12.5 -141.5q0 -211 -85 -341t-249 -130q-96 0 -165 50t-100.5 129t-45 148.5 t-13.5 137.5zM1200 453q0 -55 7 -105.5t25.5 -115t64.5 -103.5t114 -39q66 0 110 38t62.5 100.5t25.5 113.5t7 102q0 172 -55.5 271.5t-147.5 99.5q-102 0 -157.5 -100.5t-55.5 -261.5z" />
<glyph unicode="&#x26;" horiz-adv-x="1323" d="M113 387q0 59 14 114.5t43 100.5t56.5 81t70.5 70.5t67.5 53t64.5 44.5t46 30q-2 2 -13 19.5t-15.5 22.5t-14.5 23.5t-15 27.5t-15.5 28.5t-14.5 34t-11 34t-10.5 37.5t-5.5 39.5t-2 44.5q0 129 81 205t208 76q117 0 199 -66t82 -186q0 -174 -176 -312q-20 -16 -54 -36.5 t-51 -32.5q29 -51 154 -234.5t160 -222.5q51 168 51 264h129q0 -59 -21.5 -153.5t-48.5 -151.5l-33 -61q6 -8 47 -60q43 -53 78 -77.5t50.5 -28.5t56.5 -9v-124q-39 0 -77 10t-62.5 21.5t-55.5 37t-43 37.5t-39.5 45t-31.5 37q-137 -186 -400 -186q-111 0 -199 36 q-123 53 -186 153.5t-63 213.5zM254 393q0 -133 93 -212t220 -79q191 0 324 160q-20 33 -62.5 89.5t-58.5 80.5q-45 63 -152 230q-16 25 -41.5 63.5t-31.5 48.5q-291 -172 -291 -381zM483 1186q0 -80 99 -240q119 55 169 129t50 135q0 53 -35 100.5t-119 47.5 q-94 0 -129 -53.5t-35 -118.5z" />
<glyph unicode="'" horiz-adv-x="425" d="M127 1446h172l-33 -588h-104z" />
<glyph unicode="(" horiz-adv-x="641" d="M88 696q0 111 24.5 231t76 252t151.5 251.5t233 193.5l19 10v-102q-90 -80 -150 -156q-109 -139 -156.5 -328.5t-47.5 -367.5q0 -256 90 -475t204 -342q18 -18 72 -64v-106q-129 80 -233 207q-92 111 -153.5 239.5t-87.5 243.5t-34 185.5t-8 127.5z" />
<glyph unicode=")" horiz-adv-x="641" d="M37 1528v106q78 -53 125 -94q150 -135 269.5 -374.5t119.5 -530.5q0 -115 -25.5 -237t-79 -250t-151.5 -245.5t-229 -199.5l-17 -10v100q4 4 36 34t59.5 59.5t56.5 66.5q106 139 154 323.5t48 360.5q0 254 -91 477t-206 348q-8 8 -69 66z" />
<glyph unicode="*" horiz-adv-x="608" d="M61 1223l31 90l168 -53v186h94v-186l162 61l31 -88l-172 -57l104 -140l-76 -59l-96 149l-98 -149l-82 59l109 140z" />
<glyph unicode="+" d="M10 524v123h527v522h122v-522h525v-123h-525v-524h-122v524h-527z" />
<glyph unicode="," horiz-adv-x="342" d="M90 0v238h162v-164q0 -164 -16.5 -234.5t-77.5 -163.5l-68 48q29 47 42 72.5t24.5 75.5t11.5 116v12h-78z" />
<glyph unicode="-" horiz-adv-x="724" d="M78 600v133h571v-133h-571z" />
<glyph unicode="." horiz-adv-x="342" d="M90 0v238h162v-238h-162z" />
<glyph unicode="/" horiz-adv-x="980" d="M20 0l789 1446h152l-785 -1446h-156z" />
<glyph unicode="0" d="M90 721q0 354 138.5 558t371.5 204q125 0 220 -56.5t147.5 -137.5t85 -189.5t43 -196.5t10.5 -176q0 -344 -136 -554t-378 -210q-190 0 -320 141q-182 203 -182 617zM227 735q0 -59 4.5 -115.5t15.5 -138.5t36.5 -147.5t64.5 -127t103.5 -95t148.5 -33.5q182 0 275.5 171 t93.5 458q0 41 -1 79.5t-9.5 109.5t-21.5 129t-41 125t-65.5 113t-97 76.5t-133.5 30.5q-176 0 -274.5 -178t-98.5 -457z" />
<glyph unicode="1" d="M297 1116v111q164 0 229 84q35 45 35 125v10h125v-1446h-125v1176q-59 -59 -233 -60h-31z" />
<glyph unicode="2" d="M115 1063q0 205 139 312.5t336 107.5q215 0 352 -121t137 -340q0 -86 -33.5 -176t-78.5 -162t-126 -153.5t-136.5 -131t-152.5 -119t-132 -93t-115 -74.5h725v-113h-913v113q348 231 501 366q326 291 326 549q0 162 -98 254t-258 92q-98 0 -171 -34.5t-111 -88 t-55.5 -104.5t-17.5 -98q0 -92 54 -183q-2 0 -74 10.5t-72 12.5q-27 88 -26 174z" />
<glyph unicode="3" d="M88 403l137 48v-15q0 -176 99.5 -266t271.5 -90q178 0 259 92t81 209q0 313 -387 313q-152 0 -187 -6v125l183 -6q37 0 72.5 4t93 20.5t99.5 46t72.5 88t30.5 136.5q0 135 -94 203.5t-225 68.5q-90 0 -159.5 -32.5t-105.5 -82t-53.5 -97.5t-17.5 -91v-18l-143 39 q18 72 44.5 130t79 122.5t143.5 101.5t216 37q195 0 319.5 -97.5t124.5 -287.5q0 -141 -108.5 -233.5t-241.5 -108.5q156 -10 268.5 -100.5t112.5 -260.5q0 -203 -136 -317.5t-341 -114.5q-203 0 -341 105.5t-165 318.5z" />
<glyph unicode="4" d="M94 362v105l635 979h135v-971h226v-113h-226v-362h-125v362h-645zM236 475h503v768z" />
<glyph unicode="5" d="M109 371l133 39q0 -33 6 -69t27.5 -85t56.5 -88t99.5 -65.5t148.5 -26.5q174 0 266 118.5t92 299.5q0 109 -33 190.5t-86 124.5t-108.5 63.5t-114.5 20.5q-109 0 -201 -76t-112 -201l-105 13l27 817h762v-121h-645l-29 -498q43 90 131 132t194 42q217 0 336 -147 t119 -360q0 -223 -129 -377t-356 -154q-127 0 -222.5 40t-146.5 105.5t-77.5 130t-32.5 132.5z" />
<glyph unicode="6" d="M117 682q0 389 142 595t403 206q276 0 395 -223q33 -66 39 -97l-135 -49q-29 254 -295 254q-160 0 -261.5 -99.5t-140.5 -340.5q-16 -123 -16 -158q88 119 184 159t209 40q223 0 346 -146.5t123 -365.5q0 -223 -133 -358.5t-352 -135.5q-508 0 -508 719zM254 502 q0 -31 5 -72t28.5 -106.5t60.5 -117.5t110.5 -91t170.5 -39q162 0 254 101t92 294q0 76 -17.5 141.5t-56.5 123t-109.5 90t-168.5 32.5q-147 0 -258 -102.5t-111 -253.5z" />
<glyph unicode="7" d="M152 1325v121h870v-121q-193 -231 -333 -580.5t-173 -744.5h-137q16 272 115.5 561t207 473.5t203.5 290.5h-753z" />
<glyph unicode="8" d="M92 397q0 150 100.5 250.5t196.5 122.5q-92 31 -167 113t-75 211t72 221t171 130t212 38q121 0 214 -36t144.5 -93.5t76 -122t24.5 -129.5q0 -135 -76 -223t-174 -109q94 -23 192.5 -126t98.5 -257q0 -74 -27.5 -144.5t-83 -135t-156 -104.5t-231.5 -40q-135 0 -238.5 40 t-161 105.5t-85 139.5t-27.5 149zM229 391q0 -156 114 -233.5t257 -77.5q182 0 274.5 95t92.5 210q0 88 -39 154.5t-99.5 101.5t-121 51.5t-115.5 16.5q-139 0 -251 -83t-112 -235zM276 1087q0 -121 92.5 -193.5t231.5 -72.5q156 0 243 77t87 198q0 127 -86 200.5t-236 73.5 q-170 0 -251 -85t-81 -198z" />
<glyph unicode="9" d="M82 985q0 219 133 358.5t346 139.5q518 0 518 -727q0 -393 -140 -593t-407 -200q-188 0 -285 86t-145 234l142 53q23 -260 299 -260q123 0 205.5 54t122.5 153.5t56.5 195.5t20.5 226q-47 -98 -147.5 -162t-247.5 -64q-80 0 -157 24.5t-150.5 79t-118.5 158t-45 244.5z M219 985q0 -117 34 -198.5t90 -121.5t111.5 -55.5t118.5 -15.5q162 0 263.5 99t101.5 263q0 203 -105.5 311.5t-257.5 108.5q-59 0 -116.5 -17.5t-113.5 -58t-91 -121.5t-35 -194z" />
<glyph unicode=":" horiz-adv-x="425" d="M131 0v238h162v-238h-162zM131 721v237h162v-237h-162z" />
<glyph unicode=";" horiz-adv-x="425" d="M131 0v238h162v-164v-72q0 -100 -17.5 -166.5t-78.5 -159.5l-66 48q29 49 41 72.5t24.5 74.5t12.5 117v12h-78zM131 721v237h162v-237h-162z" />
<glyph unicode="&#x3c;" d="M10 524v123l1174 522v-133l-1012 -450l1012 -453v-133z" />
<glyph unicode="=" d="M10 354v119h1174v-119h-1174zM10 715v121h1174v-121h-1174z" />
<glyph unicode="&#x3e;" d="M10 0v133l1012 453l-1012 450v133l1174 -522v-123z" />
<glyph unicode="?" horiz-adv-x="929" d="M55 1083q0 182 110.5 284.5t289.5 102.5q94 0 166 -28q94 -39 168.5 -131.5t74.5 -235.5q0 -129 -51 -212t-188 -210q-104 -96 -124 -132t-20 -134v-41h-127v72q0 104 27 154.5t129 146.5q84 80 121 119t69.5 102.5t32.5 132.5q0 35 -11 76t-40 89t-88 80t-143 32 q-127 0 -199 -76t-72 -201q0 -113 51 -199l-153 46q-23 127 -23 163zM340 0v238h160v-238h-160z" />
<glyph unicode="@" horiz-adv-x="1835" d="M141 477q0 250 118 474.5t337 365.5t487 141q266 0 438.5 -152.5t172.5 -433.5q0 -289 -147.5 -507t-319.5 -218q-76 0 -120 45.5t-44 120.5v25q-133 -188 -307 -188q-111 0 -186.5 80.5t-75.5 242.5q0 172 68.5 306t164.5 206q94 70 195 70q168 0 243 -195l33 148h121 l-66 -299q-61 -281 -61 -363v-11t4 -24.5t11 -31t23.5 -23.5t37.5 -10q53 0 114 61q84 76 150.5 228.5t66.5 330.5q0 242 -145 372t-383 130q-233 0 -429 -130t-302.5 -333t-106.5 -426q0 -299 195 -470t496 -171q221 0 398 89t296 208l55 -65q-92 -82 -121 -105 q-285 -219 -626 -219q-166 0 -328 61q-233 88 -345 267.5t-112 402.5zM633 487q0 -115 51 -171t127 -56q88 0 171 81t120 230q20 79 20 140v10q0 115 -57 170t-131 55q-84 0 -160 -76q-51 -51 -96 -160.5t-45 -222.5z" />
<glyph unicode="A" horiz-adv-x="1280" d="M0 0l590 1446h115l575 -1446h-150l-165 436h-648l-165 -436h-152zM362 547h562l-279 739z" />
<glyph unicode="B" horiz-adv-x="1370" d="M160 0v1446h600q88 0 140 -5t132 -39t129 -102q68 -90 68 -215q0 -145 -84 -221t-176 -86q121 -25 214 -109.5t93 -256.5q0 -145 -74 -250q-53 -72 -135 -111t-140.5 -45t-146.5 -6h-620zM297 125h428h35q76 0 122 4t101 26.5t94 65.5q62 70 62 176q0 117 -68 199 q-45 53 -114.5 82t-116.5 33t-123 4h-19h-401v-590zM297 834h408q137 0 208.5 18t122.5 82q49 59 49 153q0 86 -49 148q-33 41 -85 61.5t-92 23.5t-111 3h-21h-430v-489z" />
<glyph unicode="C" horiz-adv-x="1325" d="M102 707v41q0 37 2 68.5t15.5 112.5t36 145.5t69.5 144t109.5 134t163 92.5t223.5 38q197 0 312.5 -70t189.5 -192q22 -37 57 -113l-139 -70q-23 104 -82 181q-109 143 -328 143q-141 0 -231 -51q-117 -68 -184.5 -210.5t-69.5 -344.5v-15q0 -655 504 -655q203 0 315 152 q63 84 76 155l129 -78q-43 -94 -113 -176q-154 -176 -426 -176q-123 0 -222 33t-162.5 84t-112 122.5t-73 138.5t-38.5 144.5t-17.5 124.5t-3.5 97z" />
<glyph unicode="D" horiz-adv-x="1402" d="M160 0v1446h387q289 0 395 -43q156 -66 257 -245t101 -429q0 -262 -107.5 -446.5t-270.5 -243.5q-109 -39 -365 -39h-20h-377zM299 123h276q238 0 328 45q109 55 182.5 200.5t75.5 340.5v8q0 72 -12 146.5t-40 160.5t-87 157.5t-141 106.5q-53 23 -119 28t-209 5h-254 v-1198z" />
<glyph unicode="E" horiz-adv-x="1189" d="M160 0v1446h944v-125h-807v-516h731v-127h-731v-551h858v-127h-995z" />
<glyph unicode="F" horiz-adv-x="1105" d="M160 0v1446h946v-121h-813v-489h729v-119h-729v-717h-133z" />
<glyph unicode="G" horiz-adv-x="1409" d="M102 719v4q0 150 39 282t114 241.5t202 173t293 63.5q98 0 180 -23.5t136 -58.5t99 -87t70.5 -97.5t48.5 -100.5l-129 -69q-16 57 -37.5 101t-64.5 100.5t-118 88t-175 31.5q-129 0 -234 -59q-278 -159 -278 -591q0 -370 198 -538q115 -94 281 -94q117 0 203 48t133 128 t69.5 169t22.5 185v15h-532v125h651v-756h-119v242q-111 -279 -432 -279h-2q-217 0 -373 127q-246 201 -246 629z" />
<glyph unicode="H" horiz-adv-x="1480" d="M160 0v1446h135v-645h889v645h137v-1446h-137v678h-889v-678h-135z" />
<glyph unicode="I" horiz-adv-x="456" d="M160 0v1446h137v-1446h-137z" />
<glyph unicode="J" horiz-adv-x="1001" d="M27 397l145 33q-4 -49 -4 -63q0 -279 287 -279q123 0 184 53q53 47 68.5 114t15.5 200v991h135v-848v-68q0 -203 -21.5 -307t-103.5 -174q-96 -82 -274 -82q-432 0 -432 430z" />
<glyph unicode="K" horiz-adv-x="1298" d="M160 0v1446h139v-807l786 807h189l-565 -574l614 -872h-168l-541 782l-315 -317v-465h-139z" />
<glyph unicode="L" horiz-adv-x="1097" d="M160 0v1446h139v-1319h799v-127h-938z" />
<glyph unicode="M" horiz-adv-x="1609" d="M160 0v1446h162l489 -1227l469 1227h170v-1446h-135l10 1229l-471 -1229h-94l-481 1229l16 -1229h-135z" />
<glyph unicode="N" horiz-adv-x="1437" d="M160 0v1446h135l858 -1237l-10 1237h135v-1446h-135l-848 1249v-1249h-135z" />
<glyph unicode="O" horiz-adv-x="1449" d="M102 723q0 145 36 276t107.5 242t196.5 176.5t289 65.5q135 0 242.5 -45t176.5 -118t115 -171t64.5 -197.5t18.5 -203.5q0 -190 -54 -355q-145 -430 -569 -430q-135 0 -245.5 48t-179.5 125t-115 179.5t-64.5 204t-18.5 203.5zM248 725q0 -80 11 -158t44 -168t84 -156.5 t138 -111.5t200 -45q135 0 233.5 64.5t148.5 167t72.5 206t22.5 207.5q0 137 -31 250q-10 41 -25.5 81t-50 98.5t-79.5 100.5t-120 72.5t-165 30.5q-135 0 -234.5 -62.5t-150.5 -163t-74.5 -204t-23.5 -209.5z" />
<glyph unicode="P" horiz-adv-x="1290" d="M160 0v1446h493h68q188 0 283.5 -22.5t162.5 -106.5q82 -102 82 -268v-2q0 -152 -80 -256q-106 -139 -362 -140h-31h-485v-651h-131zM291 772h454h60q184 0 262 105q49 68 49 163v15q0 121 -59 190q-45 53 -109.5 69.5t-179.5 16.5h-127h-350v-559z" />
<glyph unicode="Q" horiz-adv-x="1449" d="M102 711q0 143 37 276t111 246t199.5 181.5t287.5 68.5q168 0 293 -71t192.5 -185.5t98.5 -238.5t31 -255q0 -274 -123 -493l194 -181l-86 -92l-182 168q-172 -172 -426 -172q-164 0 -289 65.5t-196.5 176t-106.5 238.5t-35 268zM246 715q0 -139 43 -290t153 -245 q119 -100 285 -100q211 0 348 162t137 477q0 129 -30 250q-6 29 -17.5 60.5t-39 92t-79 115.5t-118.5 88q-78 39 -193 39q-109 0 -194.5 -42t-140 -108.5t-90.5 -153.5t-50 -173t-14 -172z" />
<glyph unicode="R" horiz-adv-x="1316" d="M160 0v1446h555q86 0 144.5 -6t140 -39t133.5 -94q92 -111 92 -273q0 -35 -5.5 -67.5t-24.5 -93t-72.5 -113.5t-135.5 -84q-92 -35 -190 -35l469 -641h-172l-457 641h-338v-641h-139zM299 760h338q176 0 258 16.5t137 85.5q58 70 58 176q0 100 -50 172q-43 63 -109.5 88 t-180.5 25h-451v-563z" />
<glyph unicode="S" horiz-adv-x="1236" d="M70 365l137 71q0 -178 114.5 -265t282.5 -87q197 0 300.5 91t103.5 218q0 61 -20.5 107.5t-58.5 76t-66.5 45t-67.5 29.5q-49 18 -205 57.5t-236 77.5q-211 106 -211 320q0 104 43 181t116 118t154 59.5t171 18.5q197 0 321.5 -90t169.5 -228l-127 -69q-29 88 -63 133 q-106 141 -303 141q-152 0 -250.5 -65.5t-98.5 -192.5q0 -168 199 -238q61 -23 203.5 -56.5t226.5 -72.5q80 -37 134.5 -89t75 -106t26.5 -87t6 -64q0 -117 -60 -209q-143 -227 -477 -227q-383 0 -508 293q-10 23 -16 44.5t-10 40.5t-6 24z" />
<glyph unicode="T" horiz-adv-x="1069" d="M10 1325v121h1049v-121h-457v-1325h-137v1325h-455z" />
<glyph unicode="U" horiz-adv-x="1368" d="M143 631v145v670h136v-670v-172q0 -143 12 -226t51 -140q35 -49 94 -86q102 -61 250 -62q127 0 212 38t124 107.5t52 136t13 154.5v920h138v-658v-157q0 -238 -35 -363t-160 -213q-137 -92 -342 -92q-236 0 -377 117q-109 90 -138.5 209t-29.5 342z" />
<glyph unicode="V" horiz-adv-x="1196" d="M0 1446h152l444 -1258l455 1258h145l-543 -1446h-123z" />
<glyph unicode="W" horiz-adv-x="1781" d="M16 1446h148l340 -1200l344 1200h94l356 -1200l330 1200h137l-411 -1446h-111l-346 1169l-344 -1169h-109z" />
<glyph unicode="X" horiz-adv-x="1280" d="M0 0l549 778l-473 668h174l393 -584l401 584h166l-475 -668l545 -778h-170l-467 692l-485 -692h-158z" />
<glyph unicode="Y" horiz-adv-x="1239" d="M0 1446h162l446 -719l465 719h166l-565 -848v-598h-135v598z" />
<glyph unicode="Z" d="M59 0v90l891 1233h-837v123h1022v-94l-881 -1229h868v-123h-1063z" />
<glyph unicode="[" horiz-adv-x="555" d="M152 -295v1917h348v-111h-224v-1699h224v-107h-348z" />
<glyph unicode="\" horiz-adv-x="980" d="M20 1446h156l785 -1446h-152z" />
<glyph unicode="]" horiz-adv-x="555" d="M55 -186h224v1699h-224v109h348v-1917h-348v109z" />
<glyph unicode="^" horiz-adv-x="976" d="M61 717l369 729h129l356 -729h-155l-268 561l-275 -561h-156z" />
<glyph unicode="_" horiz-adv-x="1024" d="M-20 -301h1064v-121h-1064v121z" />
<glyph unicode="`" horiz-adv-x="555" d="M47 1430h229l230 -287h-109z" />
<glyph unicode="a" horiz-adv-x="1009" d="M78 246q0 162 178 246q102 47 360 104l115 25v51q0 43 -7 75.5t-29.5 69.5t-74 57.5t-128.5 20.5q-205 0 -244 -150q-8 -31 -8 -81v-5l-134 23q16 106 56 166q99 153 324 153h3q207 0 297 -100q10 -12 19.5 -26.5t13.5 -25.5l8 -22l4 -10q16 -51 17 -151v-359v-26 q0 -111 19.5 -148t103.5 -37h22v-96h-16q-43 0 -71.5 2t-65.5 12.5t-57.5 27.5t-36 52t-15.5 84q-37 -74 -74 -106q-104 -92 -272 -92q-160 0 -233.5 82.5t-73.5 183.5zM195 248q0 -61 48 -111.5t144 -50.5q90 0 187.5 51t134.5 142q22 54 22 163v74l-219 -55 q-184 -47 -250.5 -93t-66.5 -120z" />
<glyph unicode="b" horiz-adv-x="1067" d="M154 0v1446h116v-637q29 49 35 57q92 131 266 131q137 0 236 -86q170 -147 170 -440q0 -90 -20.5 -172t-63.5 -156.5t-126 -120t-194 -45.5h-2q-162 0 -256 121q-18 23 -45 76v-174h-116zM270 481q2 -197 80 -296t209 -99q137 0 213 99t76 294q0 92 -23 174 q-25 96 -81 152.5t-100 70t-91 13.5q-137 0 -210 -101.5t-73 -298.5v-8z" />
<glyph unicode="c" horiz-adv-x="970" d="M90 481q0 307 209 447q111 73 260 73h4q223 0 334 -176q12 -18 33 -69l-113 -29q-31 84 -106.5 125t-153.5 41q-131 0 -233.5 -97.5t-102.5 -308.5q0 -74 15.5 -141t50.5 -128.5t100.5 -98.5t153.5 -37q176 0 266 164l123 -27q-29 -59 -43 -78q-119 -166 -346 -166 q-223 0 -337 148.5t-114 357.5z" />
<glyph unicode="d" horiz-adv-x="1067" d="M90 489q0 90 20.5 174.5t83 170.5t158.5 131q70 32 160 32h6q18 0 44 -4t76 -18t93 -54t64 -100v625h118v-1446h-118v176q-23 -76 -103 -137.5t-194 -61.5q-160 0 -284 130.5t-124 381.5zM221 489q0 -68 13.5 -131t43 -126.5t90 -101.5t144.5 -38q285 0 285 389v17 q0 135 -28 216t-97 128q-63 45 -154 45q-127 0 -212 -103.5t-85 -294.5z" />
<glyph unicode="e" horiz-adv-x="1062" d="M90 498q0 123 37 215q57 143 169 215.5t243 72.5q207 0 324.5 -149.5t117.5 -349.5v-13h-758v-20q0 -166 81 -274.5t255 -108.5q205 0 309 205l113 -33q-129 -283 -428 -283q-227 0 -345 150.5t-118 372.5zM225 588h617q-20 170 -108.5 237.5t-198.5 67.5 q-41 0 -84 -12.5t-91.5 -43t-85 -95t-49.5 -154.5z" />
<glyph unicode="f" horiz-adv-x="602" d="M20 874v103h216v186v49q0 61 5 99.5t24.5 80.5t66.5 62.5t121 20.5q53 0 125 -15v-119q-51 27 -115 27q-109 0 -109 -139q0 -10 1 -28.5t1 -26.5v-197h222v-103h-222v-874h-120v874h-216z" />
<glyph unicode="g" horiz-adv-x="1107" d="M90 496q0 137 41 240.5t106.5 156.5t135 78.5t143.5 25.5q127 0 214 -61.5t108 -138.5v180h116v-873v-36q0 -236 -30.5 -344.5t-155.5 -172.5q-102 -51 -246 -51q-295 0 -391 207q-25 51 -33 141l127 25q25 -268 307 -268q137 0 202 52t85 144q18 80 19 240v147 q-8 -33 -23 -57q-37 -66 -114.5 -108.5t-190.5 -42.5q-211 0 -315.5 155.5t-104.5 360.5zM213 498q0 -76 14.5 -142.5t47 -130t98 -100.5t157.5 -37q304 0 304 385q0 131 -23 213q-23 86 -88.5 146.5t-187.5 60.5q-133 0 -227.5 -94t-94.5 -301z" />
<glyph unicode="h" horiz-adv-x="1064" d="M154 0v1446h122v-625q31 59 77 99.5t96.5 54.5t77 18t51.5 4h2q94 0 182 -46t125 -148q24 -63 24 -149v-7v-647h-118v532v74q0 176 -84 240q-53 41 -142 41h-4q-100 0 -174 -53q-72 -53 -92.5 -132t-20.5 -200v-80v-422h-122z" />
<glyph unicode="i" horiz-adv-x="425" d="M154 0v977h118v-977h-118zM154 1206v187h118v-187h-118z" />
<glyph unicode="j" horiz-adv-x="425" d="M-98 -369q80 -49 164 -49q45 0 65 25q23 25 23 194v39v1137h118v-858v-66q0 -377 -8 -420q-10 -59 -31 -88q-50 -69 -167 -69h-3q-76 0 -161 41v114zM154 1206v187h118v-187h-118z" />
<glyph unicode="k" horiz-adv-x="972" d="M154 0v1446h118v-983l549 514h152l-408 -389l436 -588h-147l-373 506l-209 -199v-307h-118z" />
<glyph unicode="l" horiz-adv-x="430" d="M154 0v1446h122v-1446h-122z" />
<glyph unicode="m" horiz-adv-x="1579" d="M154 0v977h120v-203q57 223 293 223q37 0 73 -9t81 -31.5t75.5 -75t37.5 -127.5q16 63 38 100q84 143 265 143q289 0 288 -331v-666h-120v643q0 37 -1 58.5t-11.5 61.5t-29 63.5t-56.5 42t-91 18.5q-104 0 -174 -74q-94 -98 -94 -326v-79v-408h-119v541v45 q0 111 -13.5 169t-60.5 97q-47 35 -110 35q-109 0 -176 -72q-94 -96 -95 -344v-78v-393h-120z" />
<glyph unicode="n" horiz-adv-x="1069" d="M154 0v977h120v-174q25 66 70 109.5t97.5 60t81 20.5t52.5 4h5q135 0 215 -63q120 -97 120 -330q0 -18 -1 -50t-1 -46v-508h-120v508v70q0 111 -14.5 171t-67.5 99q-51 41 -148 41q-121 0 -192 -72q-66 -63 -81.5 -137t-15.5 -236v-16v-428h-120z" />
<glyph unicode="o" horiz-adv-x="1067" d="M90 475q0 135 42 249t146.5 195.5t258.5 81.5q147 0 249.5 -76.5t146.5 -188t44 -242.5q0 -121 -35 -220q-53 -152 -165.5 -225.5t-244.5 -73.5q-215 0 -328.5 148.5t-113.5 351.5zM219 475q0 -201 88 -297t219 -96q137 0 229.5 98.5t92.5 311.5q0 92 -17 155 q-25 102 -83 162.5t-107 75t-102 14.5q-115 0 -195 -68q-125 -106 -125 -356z" />
<glyph unicode="p" horiz-adv-x="1067" d="M154 -518v1495h118v-160q80 180 293 180h2q104 0 182 -41t120 -107.5t60.5 -113.5t31.5 -98q16 -91 16 -154q0 -84 -23.5 -169t-68.5 -162.5t-125 -126t-182 -48.5q-123 0 -201 55.5t-105 131.5v-682h-118zM272 459q0 -225 121 -318q68 -49 154 -49q72 0 127 30t88 73 t54.5 100t28.5 105.5t7 95.5q0 201 -88 296t-215 95q-86 0 -145.5 -38t-85 -102.5t-36 -122t-10.5 -122.5v-43z" />
<glyph unicode="q" horiz-adv-x="1064" d="M90 496q0 135 38 236.5t99.5 156.5t128 81.5t138.5 26.5h2q27 0 55.5 -4t79.5 -18t95 -54t69 -100v156h116v-1495h-116v688q-12 -37 -43 -78q-94 -115 -265 -115q-102 0 -182 49.5t-125 128t-67.5 166t-22.5 175.5zM215 506q0 -68 15.5 -135.5t48 -133t95 -106.5 t146.5 -41q90 0 154 49q53 41 82.5 113t35 126t5.5 134q0 86 -17 152q-53 223 -268 223q-121 0 -209 -96.5t-88 -284.5z" />
<glyph unicode="r" horiz-adv-x="626" d="M154 0v977h120v-156q78 172 273 172h12q31 0 68 -6v-108q-35 6 -74 6h-10q-102 0 -170 -58q-66 -55 -82.5 -130.5t-16.5 -225.5v-49v-422h-120z" />
<glyph unicode="s" horiz-adv-x="937" d="M70 238l118 43q8 -33 23 -58q74 -137 252 -137q123 0 185.5 54.5t62.5 136t-56.5 118.5t-144.5 56q-201 43 -250 67q-129 63 -129 215q0 113 87 190.5t257 77.5q297 0 352 -221l-114 -30q-10 41 -29 65q-61 80 -211 80q-113 0 -168 -44t-55 -118q0 -43 19.5 -72.5 t59.5 -48t62.5 -24.5t63.5 -15l100 -20q272 -62 272 -279q0 -113 -91 -206t-273 -93q-281 0 -393 263z" />
<glyph unicode="t" horiz-adv-x="598" d="M20 874v103h205v416h117v-416h215v-103h-215v-673q0 -113 78 -113q53 0 137 62v-121q-63 -47 -156 -47q-113 0 -144.5 54t-31.5 163v675h-205z" />
<glyph unicode="u" horiz-adv-x="1067" d="M154 498v479h122v-574q0 -53 2.5 -87.5t14.5 -83t34.5 -75t66.5 -47t106 -20.5q125 0 196 72q61 59 79 133t18 186v68v428h120v-977h-120v176q-18 -43 -41 -76q-92 -123 -271 -123h-6q-119 0 -199 66q-82 68 -102 161t-20 294z" />
<glyph unicode="v" horiz-adv-x="811" d="M0 977h121l270 -795l301 795h119l-375 -977h-98z" />
<glyph unicode="w" horiz-adv-x="1355" d="M16 977h117l262 -789l240 789h102l242 -789l244 789h116l-309 -977h-100l-242 805l-239 -805h-103z" />
<glyph unicode="x" horiz-adv-x="849" d="M0 0l358 508l-329 469h141l256 -373l264 373h129l-327 -469l358 -508h-137l-287 416l-297 -416h-129z" />
<glyph unicode="y" horiz-adv-x="841" d="M-10 -334q74 -47 129 -47q63 0 102 86q47 104 68 160l49 135l-338 977h117l284 -832l318 832h123l-441 -1118q-8 -23 -27.5 -71t-26.5 -66.5t-22.5 -55.5t-24.5 -50t-25.5 -37.5t-31 -34t-34 -20.5t-42 -15.5t-48.5 -4.5q-72 0 -129 39v123z" />
<glyph unicode="z" horiz-adv-x="811" d="M57 0v76l529 796h-484v105h654v-72l-529 -796h543v-109h-713z" />
<glyph unicode="{" horiz-adv-x="692" d="M117 514v92q106 12 137 84t31 236v256q0 143 8 178q27 133 135 176q63 27 193 31v-86q-57 -2 -97.5 -20.5t-61 -41t-30.5 -67.5t-12 -77t-2 -89v-225q0 -205 -31 -283t-139 -100v-35q109 -23 139.5 -100.5t30.5 -282.5v-226q0 -57 2 -88.5t12 -76.5t30.5 -68t60.5 -41 t98 -20v-86q-129 4 -193 30q-109 43 -135 176q-8 35 -8 179v256q0 164 -31 235.5t-137 83.5z" />
<glyph unicode="|" horiz-adv-x="468" d="M174 -512v2044h121v-2044h-121z" />
<glyph unicode="}" horiz-adv-x="692" d="M72 -360q57 2 97 20t60.5 41t30.5 68t12 76.5t2 88.5v226q0 205 31 282.5t139 100.5v35q-109 23 -139.5 100.5t-30.5 282.5v225q0 57 -2 89t-12 77t-30.5 67.5t-60.5 41t-97 20.5v86q129 -4 192 -31q109 -43 135 -176q8 -35 9 -178v-256q0 -164 30.5 -236t136.5 -84v-92 q-106 -12 -136.5 -84t-30.5 -235v-256q0 -143 -9 -179q-27 -133 -135 -176q-63 -27 -192 -30v86z" />
<glyph unicode="~" horiz-adv-x="1067" d="M61 580q20 31 37 50t49.5 50t76.5 47t98 16q72 0 223 -71l65 -31q84 -41 133 -41q57 0 102.5 33t96.5 96l64 -113q-125 -158 -263 -157q-68 0 -198 63l-60 29q-106 51 -170 51q-55 0 -94 -30.5t-92 -102.5z" />
<glyph unicode="&#xa1;" horiz-adv-x="425" d="M137 1221v237h154v-237h-154zM147 0v829l19 269h96l19 -269v-829h-134z" />
<glyph unicode="&#xa2;" horiz-adv-x="980" d="M90 481q0 127 37 226.5t98.5 158t128 91t138.5 40.5v191h102v-189q20 0 47 -4t76 -19t98 -55t86 -100q8 -14 29 -65l-113 -29q-47 131 -223 164v-805q59 10 104 39t64.5 54.5t44.5 66.5l123 -27q-18 -43 -43 -78q-104 -145 -293 -164v-208h-102v208q-139 14 -233.5 95.5 t-131.5 184.5t-37 224zM221 489q0 -240 131 -344q44 -34 140 -59v801q-100 -20 -164 -90t-85.5 -146t-21.5 -162z" />
<glyph unicode="&#xa3;" horiz-adv-x="1236" d="M96 152q0 63 51.5 110t149.5 47q127 0 225 -57q39 94 39 154q0 92 -82 172h-270v106h190q-31 23 -106 102q-74 86 -105.5 152t-31.5 139q0 109 63 193q55 76 156.5 126t232.5 50q45 0 88 -5t113 -27.5t121 -60.5t95 -115t54 -179l-135 -29q0 74 -26 127q-80 166 -312 166 q-109 0 -209 -59.5t-100 -184.5q0 -27 4 -50t18.5 -49t23.5 -42t36 -46t38 -42t47 -48t48 -48.5t32.5 -35t33.5 -34.5h311v-106h-248q55 -94 55 -197q0 -45 -17 -94t-38 -74q184 -98 262 -98q41 0 67.5 18.5t40 58t17.5 82.5t4 111l135 -14q0 -377 -272 -377 q-123 0 -317 108q-113 -113 -265 -112q-106 0 -161.5 46t-55.5 116zM203 150q0 -59 96 -60q123 1 180 62q-74 51 -192 51q-84 0 -84 -53z" />
<glyph unicode="&#xa4;" horiz-adv-x="1138" d="M59 279l117 116q-113 135 -113 314q0 176 111 315l-115 115l78 78l115 -115q139 115 319 115q178 0 314 -113l112 113l78 -78l-110 -111q115 -137 114.5 -319.5t-114.5 -319.5l110 -110l-78 -78l-112 112q-131 -113 -313.5 -112.5t-319.5 114.5l-115 -114zM193 708.5 q0 -163.5 110.5 -276.5t268 -113t268 113t110.5 276.5t-110.5 276.5t-268 113t-268 -113t-110.5 -276.5z" />
<glyph unicode="&#xa5;" horiz-adv-x="1239" d="M0 1446h162l446 -713l465 713h166l-420 -629h322v-115h-398l-69 -108h467v-115h-467v-479h-135v479h-441v115h441l-66 108h-375v115h301z" />
<glyph unicode="&#xa6;" horiz-adv-x="468" d="M174 389h121v-780h-121v780zM174 631v780h121v-780h-121z" />
<glyph unicode="&#xa7;" horiz-adv-x="1036" d="M70 29l80 77q57 -59 162.5 -112t213.5 -53q125 0 186.5 61t61.5 143q0 78 -67 127q-33 27 -78 47q-18 8 -54 24.5t-53 25.5q-125 57 -192.5 93t-130 84t-86 101t-23.5 125q0 96 63.5 186.5t178.5 126.5q-47 35 -73 57.5t-51.5 71t-25.5 107.5q0 98 79 190.5t237 92.5 q164 0 319 -121q45 -37 60 -51l-84 -84q-49 51 -130 99t-171 48q-76 0 -131.5 -47t-55.5 -123q0 -49 27 -86q39 -51 162 -104q205 -94 251 -119q59 -33 94 -58.5t71 -88t36 -144.5q0 -209 -219 -319q53 -31 82 -53.5t59.5 -78t30.5 -127.5q0 -152 -113.5 -233.5 t-263.5 -81.5q-260 0 -452 197zM211 770q0 -59 47 -111q29 -33 127 -86q121 -63 252 -120q25 14 63.5 45.5t82.5 95.5t44 123q0 84 -57 141q-76 76 -305 158l-41 14q-80 -29 -146.5 -100.5t-66.5 -159.5z" />
<glyph unicode="&#xa8;" horiz-adv-x="555" d="M39 1192v188h125v-188h-125zM391 1192v188h125v-188h-125z" />
<glyph unicode="&#xa9;" horiz-adv-x="1705" d="M94 725q0 315 222.5 537.5t537.5 222.5t537.5 -222.5t222.5 -537.5t-222.5 -537.5t-537.5 -222.5t-537.5 222.5t-222.5 537.5zM186 725q0 -276 196 -472t472 -196t472 196t196 472t-196 472t-472 196t-472 -196t-196 -472zM463 717q0 213 96 350t293 137q217 0 317 -168 q23 -37 41 -82l-118 -61v12q0 55 -52 119q-59 76 -176 76q-88 0 -137 -29q-147 -84 -147 -334q0 -387 292 -387q111 0 177 88q35 47 47 109l108 -66q-53 -117 -134 -176t-210 -59q-88 0 -157.5 27.5t-113.5 71.5t-73 106.5t-41 128t-12 137.5z" />
<glyph unicode="&#xaa;" horiz-adv-x="641" d="M47 991q0 61 35 101q61 78 301 125l63 12v22q0 127 -133 127q-51 0 -83.5 -12t-45 -37.5t-15.5 -45t-3 -52.5l-103 18q8 63 27 94q57 119 209 119h12q180 0 219 -125q6 -18 7 -61v-33v-213q0 -51 2 -70.5t16 -34t47 -14.5h25v-80h-21q-143 0 -155 84q-16 -25 -35 -41 q-72 -55 -170 -55q-104 0 -151.5 53.5t-47.5 118.5zM141 995q0 -37 27 -63.5t82 -26.5q16 0 41.5 4t72 31t66.5 72q16 39 16 100v31l-24 -6q-209 -51 -246 -78q-35 -23 -35 -64z" />
<glyph unicode="&#xab;" horiz-adv-x="788" d="M86 633l242 379l98 -62l-205 -317l205 -289l-98 -63zM362 633l244 379l96 -62l-202 -317l202 -289l-96 -63z" />
<glyph unicode="&#xac;" d="M10 715v121h1174v-482h-123v361h-1051z" />
<glyph unicode="&#xad;" horiz-adv-x="724" d="M78 600v133h571v-133h-571z" />
<glyph unicode="&#xae;" horiz-adv-x="1705" d="M94 725q0 315 222.5 537.5t537.5 222.5t537.5 -222.5t222.5 -537.5t-222.5 -537.5t-537.5 -222.5t-537.5 222.5t-222.5 537.5zM186 725q0 -276 196 -472t472 -196t472 196t196 472t-196 472t-472 196t-472 -196t-196 -472zM561 270v912h260h80q199 0 273 -90 q59 -72 59 -177q0 -174 -152 -231q-43 -16 -94 -20l285 -394h-139l-277 392h-182v-392h-113zM674 764h190q104 0 150.5 9t77 46t30.5 98.5t-26 96.5q-45 63 -164 63h-258v-313z" />
<glyph unicode="&#xaf;" horiz-adv-x="555" d="M39 1192v127h477v-127h-477z" />
<glyph unicode="&#xb0;" horiz-adv-x="724" d="M61 1145q0 125 88.5 213t213 88t213 -88t88.5 -213t-88.5 -213t-213 -88t-213 88t-88.5 213zM170 1145q0 -80 56.5 -136.5t136 -56.5t136 56.5t56.5 136.5t-56.5 136t-136 56t-136 -56t-56.5 -136z" />
<glyph unicode="&#xb1;" d="M10 0v121h1174v-121h-1174zM10 776v121h529v524h120v-524h525v-121h-525v-524h-120v524h-529z" />
<glyph unicode="&#xb2;" horiz-adv-x="768" d="M74 1192q0 133 92 201.5t215 68.5q141 0 230 -78t89 -215q0 -127 -98 -248.5t-326 -273.5h396v-104h-596v96q152 92 274.5 190.5t165.5 157.5q63 86 64 187q0 86 -53.5 137t-143.5 51q-104 0 -151.5 -58.5t-47.5 -117.5q0 -35 14.5 -68t29 -51t44.5 -53l-161 18 q-37 96 -37 160z" />
<glyph unicode="&#xb3;" horiz-adv-x="768" d="M51 821l125 41v-35q0 -63 22.5 -105t58.5 -59.5t65.5 -23.5t60.5 -6q102 0 145 50t43 116q0 53 -20 88q-27 43 -67 57t-124 14h-122v105h104q43 0 73.5 4t66.5 16.5t55.5 43t19.5 77.5q0 76 -50 117t-126 41q-98 0 -142 -57.5t-44 -112.5q0 -16 2 -29l-131 33 q14 53 30.5 90t50 82t93 69.5t141.5 24.5q125 0 210 -64.5t85 -191.5q0 -135 -139 -190q157 -51 157 -215q0 -111 -81 -193t-232 -82q-102 0 -184 45t-119 138q-20 51 -27 112z" />
<glyph unicode="&#xb4;" horiz-adv-x="555" d="M49 1143l230 287h227l-348 -287h-109z" />
<glyph unicode="&#xb5;" horiz-adv-x="1067" d="M154 -494v1471h122v-516v-33q0 -104 16.5 -172t74.5 -117q63 -49 153 -49q111 0 185 78q88 92 88 291v65v453h120v-977h-120v176q-96 -197 -275 -196q-88 0 -141 34.5t-101 96.5v-605h-122z" />
<glyph unicode="&#xb6;" horiz-adv-x="1048" d="M51 1044q0 162 84 256.5t189 124.5q72 20 178 21h452v-90h-67v-1698h-94v1698h-322v-1698h-94v1020q-49 0 -109 24q-90 37 -153.5 121t-63.5 221z" />
<glyph unicode="&#xb7;" horiz-adv-x="342" d="M90 549v237h162v-237h-162z" />
<glyph unicode="&#xb8;" horiz-adv-x="555" d="M135 -143l84 143h49l-49 -96q33 6 62 6q59 0 99 -35t40 -98q0 -82 -65.5 -124t-143.5 -42q-33 0 -76 6v55q37 -4 66 -4q53 0 83.5 23.5t30.5 58.5q0 31 -26.5 53.5t-73.5 22.5q-33 0 -80 -21v52z" />
<glyph unicode="&#xb9;" horiz-adv-x="768" d="M180 1210v105q90 0 125 26.5t35 79.5v25h115v-903h-115v688q-47 -20 -129 -21h-31z" />
<glyph unicode="&#xba;" horiz-adv-x="681" d="M59 1135q0 131 71 229t212 98q139 0 210 -96t71 -223q0 -78 -23 -137q-35 -96 -105.5 -142.5t-156.5 -46.5q-137 0 -208 94.5t-71 223.5zM160 1133q0 -119 50 -174.5t130 -55.5q76 0 129 56.5t53 175.5q0 59 -10 100q-33 143 -168 143q-84 0 -134 -61.5t-50 -183.5z" />
<glyph unicode="&#xbb;" horiz-adv-x="788" d="M86 342l203 317l-203 289l96 64l244 -353l-244 -378zM362 342l203 317l-203 289l99 64l241 -353l-241 -378z" />
<glyph unicode="&#xbc;" horiz-adv-x="1792" d="M109 1210v105q90 0 124.5 26.5t34.5 79.5v25h115v-903h-115v688q-47 -20 -129 -21h-30zM399 -39l725 1575l101 -45l-729 -1573zM1004 217v86l395 602h112v-583h136v-105h-136v-217h-114v217h-393zM1122 322h275v409z" />
<glyph unicode="&#xbd;" horiz-adv-x="1792" d="M98 1210v105q90 0 125 26.5t35 79.5v25h115v-903h-115v688q-47 -20 -129 -21h-31zM340 -39l727 1575l98 -45l-729 -1573zM995 649q0 133 92.5 202t215.5 69q141 0 230 -78t89 -215q0 -127 -98.5 -249t-325.5 -274h395v-104h-596v96q152 92 275 190.5t166 157.5 q63 86 63 187q0 86 -53 137t-143 51q-104 0 -151.5 -58.5t-47.5 -117.5q0 -35 14.5 -67.5t28.5 -51t45 -53.5l-162 18q-37 96 -37 160z" />
<glyph unicode="&#xbe;" horiz-adv-x="1792" d="M72 821l125 41v-35q0 -63 22.5 -105t58 -59.5t65.5 -23.5t60 -6q102 0 145.5 50t43.5 116q0 53 -21 88q-27 43 -66.5 57t-123.5 14h-123v105h104q43 0 74 4t67 16.5t55.5 43t19.5 77.5q0 76 -50.5 117t-126.5 41q-98 0 -142 -57.5t-44 -112.5q0 -16 2 -29l-131 33 q14 53 30.5 90t50.5 82t93 69.5t141 24.5q125 0 210 -64.5t85 -191.5q0 -135 -139 -190q158 -51 158 -215q0 -111 -81 -193t-233 -82q-102 0 -184 45t-119 138q-20 51 -26 112zM584 -39l727 1575l98 -45l-729 -1573zM1116 217v86l395 602h113v-583h135v-105h-135v-217h-115 v217h-393zM1235 322h274v409z" />
<glyph unicode="&#xbf;" horiz-adv-x="929" d="M66 371q0 129 51 212t188 210q104 96 124 132t20 134v41h126v-72q0 -104 -26.5 -154.5t-128.5 -146.5q-84 -80 -121 -119t-69.5 -102.5t-32.5 -132.5q0 -35 11 -76t39.5 -89t88 -80t143.5 -32q127 0 199 76t72 201q0 113 -52 198l154 -45q22 -127 22 -164 q0 -182 -110.5 -284.5t-288.5 -102.5q-94 0 -166 29q-94 39 -168.5 131t-74.5 236zM430 1208v238h160v-238h-160z" />
<glyph unicode="&#xc0;" horiz-adv-x="1280" d="M0 0l590 1446h115l575 -1446h-150l-165 436h-648l-165 -436h-152zM362 547h562l-279 739zM379 1833h217l203 -256h-119z" />
<glyph unicode="&#xc1;" horiz-adv-x="1280" d="M0 0l590 1446h115l575 -1446h-150l-165 436h-648l-165 -436h-152zM362 547h562l-279 739zM510 1577l203 256h215l-301 -256h-117z" />
<glyph unicode="&#xc2;" horiz-adv-x="1280" d="M0 0l590 1446h115l575 -1446h-150l-165 436h-648l-165 -436h-152zM362 547h562l-279 739zM395 1581l215 252h86l213 -252h-100l-160 115l-157 -115h-97z" />
<glyph unicode="&#xc3;" horiz-adv-x="1280" d="M0 0l590 1446h115l575 -1446h-150l-165 436h-648l-165 -436h-152zM299 1612q70 211 205 211q61 0 188 -76q66 -39 94 -39q70 0 113 107l88 -39l-2 -7q-2 -6 -6 -15t-10 -21.5t-13.5 -25.5t-17.5 -27.5t-20.5 -28t-24.5 -25.5t-29.5 -21.5t-34 -14.5t-39 -5t-42 4 t-45 14.5t-39 17.5t-41 21.5t-33.5 18.5q-70 37 -101 37q-23 0 -40 -9.5t-32.5 -34t-19.5 -31.5t-16 -38zM362 547h562l-279 739z" />
<glyph unicode="&#xc4;" horiz-adv-x="1280" d="M0 0l590 1446h115l575 -1446h-150l-165 436h-648l-165 -436h-152zM346 1606v198h137v-198h-137zM362 547h562l-279 739zM795 1606v198h137v-198h-137z" />
<glyph unicode="&#xc5;" horiz-adv-x="1280" d="M0 0l590 1446h115l575 -1446h-150l-165 436h-648l-165 -436h-152zM362 547h562l-279 739zM481 1730.5q0 67.5 48.5 115.5t116 48t115.5 -48t48 -115.5t-48 -115.5t-115.5 -48t-116 48t-48.5 115.5zM559 1730.5q0 -34.5 25.5 -60t60.5 -25.5t60.5 24.5t25.5 61t-25.5 61.5 t-60.5 25t-60.5 -26t-25.5 -60.5z" />
<glyph unicode="&#xc6;" horiz-adv-x="2000" d="M-20 0l925 1446h1022v-125h-842v-520h758v-127h-758v-551h881v-123h-1016v418h-544l-265 -418h-161zM487 547h463v747z" />
<glyph unicode="&#xc7;" horiz-adv-x="1325" d="M102 707v41q0 37 2 68.5t15.5 112.5t36 145.5t69.5 144t109.5 134t163 92.5t223.5 38q197 0 312.5 -70t189.5 -192q22 -37 57 -113l-139 -70q-23 104 -82 181q-109 143 -328 143q-141 0 -231 -51q-117 -68 -185.5 -211.5t-68.5 -343.5v-15q-4 -655 504 -655 q203 0 315 152q63 84 76 155l129 -78q-43 -94 -113 -176q-154 -176 -426 -176h-41l-31 -59q33 6 62 6q59 0 99 -35t40 -98q0 -82 -65.5 -124t-143.5 -42q-33 0 -76 6v55q37 -4 66 -4q53 0 84 23.5t31 58.5q0 31 -27 53.5t-74 22.5q-33 0 -80 -21v52l66 110q-104 12 -189 51 t-139.5 91.5t-95.5 122t-62.5 133t-33.5 135t-15.5 117t-3.5 90.5z" />
<glyph unicode="&#xc8;" horiz-adv-x="1189" d="M160 0v1446h944v-125h-807v-516h731v-127h-731v-551h858v-127h-995zM397 1833h217l203 -256h-119z" />
<glyph unicode="&#xc9;" horiz-adv-x="1189" d="M160 0v1446h944v-125h-807v-516h731v-127h-731v-551h858v-127h-995zM506 1577l203 256h215l-301 -256h-117z" />
<glyph unicode="&#xca;" horiz-adv-x="1189" d="M160 0v1446h944v-125h-807v-516h731v-127h-731v-551h858v-127h-995zM399 1581l215 252h86l213 -252h-100l-160 115l-157 -115h-97z" />
<glyph unicode="&#xcb;" horiz-adv-x="1189" d="M160 0v1446h944v-125h-807v-516h731v-127h-731v-551h858v-127h-995zM358 1606v198h138v-198h-138zM807 1606v198h137v-198h-137z" />
<glyph unicode="&#xcc;" horiz-adv-x="456" d="M-55 1833h217l203 -256h-119zM160 0v1446h137v-1446h-137z" />
<glyph unicode="&#xcd;" horiz-adv-x="456" d="M68 1577l202 256h215l-301 -256h-116zM160 0v1446h137v-1446h-137z" />
<glyph unicode="&#xce;" horiz-adv-x="456" d="M-35 1581l215 252h86l213 -252h-100l-160 115l-158 -115h-96zM160 0v1446h137v-1446h-137z" />
<glyph unicode="&#xcf;" horiz-adv-x="456" d="M-55 1606v198h137v-198h-137zM160 0v1446h137v-1446h-137zM393 1606v198h137v-198h-137z" />
<glyph unicode="&#xd0;" horiz-adv-x="1409" d="M0 721v110h166v615h387q289 0 395 -43q156 -66 257.5 -245t101.5 -429q0 -262 -107.5 -446.5t-271.5 -243.5q-109 -39 -365 -39h-20h-377v721h-166zM305 123h277q238 0 327 45q109 55 182.5 200.5t75.5 340.5v8q0 72 -12 146.5t-40 160.5t-87 157.5t-141 106.5 q-37 16 -87 23.5t-95.5 8.5t-145.5 1h-254v-490h453v-110h-453v-598z" />
<glyph unicode="&#xd1;" horiz-adv-x="1437" d="M160 0v1446h135l858 -1237l-10 1237h135v-1446h-135l-848 1249v-1249h-135zM391 1612q70 211 205 211q61 0 188 -76q66 -39 95 -39q70 0 112 107l88 -39l-2 -7q-2 -6 -6 -15t-10 -21.5t-13.5 -25.5t-17.5 -27.5t-20.5 -28t-24.5 -25.5t-29.5 -21.5t-34 -14.5t-39 -5 t-42 4t-45 14.5t-39 17.5t-41 21.5t-33.5 18.5q-70 37 -100 37q-23 0 -40.5 -9.5t-32.5 -34t-19.5 -31.5t-16.5 -38z" />
<glyph unicode="&#xd2;" horiz-adv-x="1449" d="M102 723q0 145 36 276t107.5 242t196.5 176.5t289 65.5q135 0 242.5 -45t176.5 -118t115 -171t64.5 -197.5t18.5 -203.5q0 -190 -54 -355q-145 -430 -569 -430q-135 0 -245.5 48t-179.5 125t-115 179.5t-64.5 204t-18.5 203.5zM248 725q0 -80 11 -158t44 -168t84 -156.5 t138 -111.5t200 -45q135 0 233.5 64.5t148.5 167t72.5 206t22.5 207.5q0 137 -31 250q-10 41 -25.5 81t-50 98.5t-79.5 100.5t-120 72.5t-165 30.5q-135 0 -234.5 -62.5t-150.5 -163t-74.5 -204t-23.5 -209.5zM477 1833h217l203 -256h-119z" />
<glyph unicode="&#xd3;" horiz-adv-x="1449" d="M102 723q0 145 36 276t107.5 242t196.5 176.5t289 65.5q135 0 242.5 -45t176.5 -118t115 -171t64.5 -197.5t18.5 -203.5q0 -190 -54 -355q-145 -430 -569 -430q-135 0 -245.5 48t-179.5 125t-115 179.5t-64.5 204t-18.5 203.5zM248 725q0 -80 11 -158t44 -168t84 -156.5 t138 -111.5t200 -45q135 0 233.5 64.5t148.5 167t72.5 206t22.5 207.5q0 137 -31 250q-10 41 -25.5 81t-50 98.5t-79.5 100.5t-120 72.5t-165 30.5q-135 0 -234.5 -62.5t-150.5 -163t-74.5 -204t-23.5 -209.5zM575 1577l203 256h215l-301 -256h-117z" />
<glyph unicode="&#xd4;" horiz-adv-x="1449" d="M102 723q0 145 36 276t107.5 242t196.5 176.5t289 65.5q135 0 242.5 -45t176.5 -118t115 -171t64.5 -197.5t18.5 -203.5q0 -190 -54 -355q-145 -430 -569 -430q-135 0 -245.5 48t-179.5 125t-115 179.5t-64.5 204t-18.5 203.5zM248 725q0 -80 11 -158t44 -168t84 -156.5 t138 -111.5t200 -45q135 0 233.5 64.5t148.5 167t72.5 206t22.5 207.5q0 137 -31 250q-10 41 -25.5 81t-50 98.5t-79.5 100.5t-120 72.5t-165 30.5q-135 0 -234.5 -62.5t-150.5 -163t-74.5 -204t-23.5 -209.5zM477 1581l215 252h86l213 -252h-100l-160 115l-158 -115h-96z " />
<glyph unicode="&#xd5;" horiz-adv-x="1449" d="M102 723q0 145 36 276t107.5 242t196.5 176.5t289 65.5q135 0 242.5 -45t176.5 -118t115 -171t64.5 -197.5t18.5 -203.5q0 -190 -54 -355q-145 -430 -569 -430q-135 0 -245.5 48t-179.5 125t-115 179.5t-64.5 204t-18.5 203.5zM248 725q0 -80 11 -158t44 -168t84 -156.5 t138 -111.5t200 -45q135 0 233.5 64.5t148.5 167t72.5 206t22.5 207.5q0 137 -31 250q-10 41 -25.5 81t-50 98.5t-79.5 100.5t-120 72.5t-165 30.5q-135 0 -234.5 -62.5t-150.5 -163t-74.5 -204t-23.5 -209.5zM401 1612q70 211 205 211q61 0 189 -76q66 -39 94 -39 q70 0 112 107l89 -39l-3 -7q-2 -6 -6 -15t-10 -21.5t-13 -25.5t-17.5 -27.5t-20.5 -28t-24.5 -25.5t-30 -21.5t-34 -14.5t-39 -5t-42 4t-45 14.5t-38.5 17.5t-41 21.5t-34 18.5q-70 37 -100 37q-23 0 -40 -9.5t-32.5 -34t-19.5 -31.5t-17 -38z" />
<glyph unicode="&#xd6;" horiz-adv-x="1449" d="M102 723q0 145 36 276t107.5 242t196.5 176.5t289 65.5q135 0 242.5 -45t176.5 -118t115 -171t64.5 -197.5t18.5 -203.5q0 -190 -54 -355q-145 -430 -569 -430q-135 0 -245.5 48t-179.5 125t-115 179.5t-64.5 204t-18.5 203.5zM248 725q0 -80 11 -158t44 -168t84 -156.5 t138 -111.5t200 -45q135 0 233.5 64.5t148.5 167t72.5 206t22.5 207.5q0 137 -31 250q-10 41 -25.5 81t-50 98.5t-79.5 100.5t-120 72.5t-165 30.5q-135 0 -234.5 -62.5t-150.5 -163t-74.5 -204t-23.5 -209.5zM428 1606v198h137v-198h-137zM877 1606v198h137v-198h-137z" />
<glyph unicode="&#xd7;" d="M86 170l426 426l-426 422l86 86l424 -424l426 424l86 -86l-426 -422l426 -426l-84 -84l-426 424l-424 -424z" />
<glyph unicode="&#xd8;" horiz-adv-x="1449" d="M102 723q0 145 36 276t107.5 242t196.5 176.5t289 65.5q264 0 428 -174l125 153l80 -63l-141 -172q125 -197 125 -479q0 -190 -54 -355q-145 -430 -569 -430q-250 0 -412 162l-118 -145l-78 65l131 158q-145 209 -146 520zM248 725q0 -238 92 -410l729 885 q-129 164 -338 164q-135 0 -234.5 -62.5t-150.5 -163t-74.5 -204t-23.5 -209.5zM399 227q123 -141 326 -141q135 0 233.5 64.5t148.5 167t72.5 206t22.5 207.5q0 137 -31 250q-16 66 -47 127z" />
<glyph unicode="&#xd9;" horiz-adv-x="1368" d="M143 631v145v670h136v-670v-172q0 -143 12 -226t51 -140q35 -49 94 -86q102 -61 250 -62q127 0 212 38t124 107.5t52 136t13 154.5v920h138v-658v-157q0 -238 -35 -363t-160 -213q-137 -92 -342 -92q-236 0 -377 117q-109 90 -138.5 209t-29.5 342zM391 1833h217 l203 -256h-119z" />
<glyph unicode="&#xda;" horiz-adv-x="1368" d="M143 631v145v670h136v-670v-172q0 -143 12 -226t51 -140q35 -49 94 -86q102 -61 250 -62q127 0 212 38t124 107.5t52 136t13 154.5v920h138v-658v-157q0 -238 -35 -363t-160 -213q-137 -92 -342 -92q-236 0 -377 117q-109 90 -138.5 209t-29.5 342zM537 1577l202 256h215 l-301 -256h-116z" />
<glyph unicode="&#xdb;" horiz-adv-x="1368" d="M143 631v145v670h136v-670v-172q0 -143 12 -226t51 -140q35 -49 94 -86q102 -61 250 -62q127 0 212 38t124 107.5t52 136t13 154.5v920h138v-658v-157q0 -238 -35 -363t-160 -213q-137 -92 -342 -92q-236 0 -377 117q-109 90 -138.5 209t-29.5 342zM412 1581l215 252h86 l213 -252h-101l-159 115l-158 -115h-96z" />
<glyph unicode="&#xdc;" horiz-adv-x="1368" d="M143 631v145v670h136v-670v-172q0 -143 12 -226t51 -140q35 -49 94 -86q102 -61 250 -62q127 0 212 38t124 107.5t52 136t13 154.5v920h138v-658v-157q0 -238 -35 -363t-160 -213q-137 -92 -342 -92q-236 0 -377 117q-109 90 -138.5 209t-29.5 342zM379 1606v198h137 v-198h-137zM827 1606v198h138v-198h-138z" />
<glyph unicode="&#xdd;" horiz-adv-x="1239" d="M0 1446h162l446 -719l465 719h166l-565 -848v-598h-135v598zM512 1577l203 256h215l-301 -256h-117z" />
<glyph unicode="&#xde;" horiz-adv-x="1290" d="M160 0v1446h131v-223h362h68q188 0 283.5 -22.5t162.5 -106.5q82 -102 82 -271v-2q0 -152 -80 -252q-68 -88 -167 -114.5t-236 -26.5h-475v-428h-131zM291 549h446q88 0 133 3t102.5 27.5t94.5 73.5q49 68 49 166v15q0 119 -59 188q-45 53 -109.5 69.5t-179.5 16.5h-127 h-350v-559z" />
<glyph unicode="&#xdf;" horiz-adv-x="1034" d="M154 0v926v94q0 137 23.5 227t101.5 158q94 78 237 78q139 0 218 -66.5t108 -161.5q18 -55 18 -118q0 -141 -74.5 -219t-167.5 -89q106 -16 168 -63q68 -51 107 -141t45 -142.5t6 -97.5v-10q0 -156 -82 -281t-248 -125q-125 0 -223 64v139l15 -10q115 -82 206 -82h4 q94 2 145.5 82t51.5 221q0 61 -13.5 116.5t-50 118t-118.5 100.5t-203 38h-63v118h51q63 0 110 11q115 25 168 108q37 55 37 144q0 100 -59.5 164.5t-159.5 64.5q-66 0 -114 -24.5t-71.5 -57.5t-37 -83t-16.5 -85t-3 -82v-1034h-116z" />
<glyph unicode="&#xe0;" horiz-adv-x="1009" d="M78 246q0 162 178 246q102 47 360 104l115 25v51q0 43 -7 75.5t-29.5 69.5t-74 57.5t-128.5 20.5q-205 0 -244 -150q-8 -31 -8 -81v-5l-134 23q16 106 56 166q100 154 327 153q207 0 297 -100q10 -12 19.5 -26.5t13.5 -25.5l8 -22l4 -10q16 -51 17 -151v-359v-26 q0 -111 19.5 -148t103.5 -37h22v-96h-16q-43 0 -71.5 2t-65.5 12.5t-57.5 27.5t-36 52t-15.5 84q-37 -74 -74 -106q-104 -92 -272 -92q-160 0 -233.5 82.5t-73.5 183.5zM195 248q0 -61 48 -111.5t144 -50.5q90 0 187.5 51t134.5 142q22 54 22 163v74l-219 -55 q-184 -47 -250.5 -93t-66.5 -120zM211 1430h229l230 -287h-109z" />
<glyph unicode="&#xe1;" horiz-adv-x="1009" d="M78 246q0 162 178 246q102 47 360 104l115 25v51q0 43 -7 75.5t-29.5 69.5t-74 57.5t-128.5 20.5q-205 0 -244 -150q-8 -31 -8 -81v-5l-134 23q16 106 56 166q100 154 327 153q207 0 297 -100q10 -12 19.5 -26.5t13.5 -25.5l8 -22l4 -10q16 -51 17 -151v-359v-26 q0 -111 19.5 -148t103.5 -37h22v-96h-16q-43 0 -71.5 2t-65.5 12.5t-57.5 27.5t-36 52t-15.5 84q-37 -74 -74 -106q-104 -92 -272 -92q-160 0 -233.5 82.5t-73.5 183.5zM195 248q0 -61 48 -111.5t144 -50.5q90 0 187.5 51t134.5 142q22 54 22 163v74l-219 -55 q-184 -47 -250.5 -93t-66.5 -120zM328 1143l229 287h227l-348 -287h-108z" />
<glyph unicode="&#xe2;" horiz-adv-x="1009" d="M78 246q0 162 178 246q102 47 360 104l115 25v51q0 43 -7 75.5t-29.5 69.5t-74 57.5t-128.5 20.5q-205 0 -244 -150q-8 -31 -8 -81v-5l-134 23q16 106 56 166q100 154 327 153q207 0 297 -100q10 -12 19.5 -26.5t13.5 -25.5l8 -22l4 -10q16 -51 17 -151v-359v-26 q0 -111 19.5 -148t103.5 -37h22v-96h-16q-43 0 -71.5 2t-65.5 12.5t-57.5 27.5t-36 52t-15.5 84q-37 -74 -74 -106q-104 -92 -272 -92q-160 0 -233.5 82.5t-73.5 183.5zM195 248q0 -61 48 -111.5t144 -50.5q90 0 187.5 51t134.5 142q22 54 22 163v74l-219 -55 q-184 -47 -250.5 -93t-66.5 -120zM217 1143l262 282h53l275 -282h-105l-200 133l-183 -133h-102z" />
<glyph unicode="&#xe3;" horiz-adv-x="1009" d="M78 246q0 162 178 246q102 47 360 104l115 25v51q0 43 -7 75.5t-29.5 69.5t-74 57.5t-128.5 20.5q-205 0 -244 -150q-8 -31 -8 -81v-5l-134 23q16 106 56 166q100 154 327 153q207 0 297 -100q10 -12 19.5 -26.5t13.5 -25.5l8 -22l4 -10q16 -51 17 -151v-359v-26 q0 -111 19.5 -148t103.5 -37h22v-96h-16q-43 0 -71.5 2t-65.5 12.5t-57.5 27.5t-36 52t-15.5 84q-37 -74 -74 -106q-104 -92 -272 -92q-160 0 -233.5 82.5t-73.5 183.5zM180 1208l4 13q4 12 8.5 20t12.5 24.5t16 29t19.5 27.5t26 25.5t30.5 20.5t36.5 15.5t43.5 5.5 q29 0 63.5 -12.5t67.5 -31t35 -18.5q66 -33 94 -33q18 0 34.5 7.5t28 20.5t18.5 22.5t13 23.5l6 14l82 -20l-4 -10q-4 -10 -8 -20.5t-12.5 -26t-17.5 -28.5t-20.5 -28.5t-24.5 -28t-29.5 -22.5t-36 -15t-40 -5t-47 7t-42 14t-49 24.5t-42.5 21.5q-68 31 -86 31 q-37 0 -56 -22.5t-38 -63.5zM195 248q0 -61 48 -111.5t144 -50.5q90 0 187.5 51t134.5 142q22 54 22 163v74l-219 -55q-184 -47 -250.5 -93t-66.5 -120z" />
<glyph unicode="&#xe4;" horiz-adv-x="1009" d="M78 246q0 162 178 246q102 47 360 104l115 25v51q0 43 -7 75.5t-29.5 69.5t-74 57.5t-128.5 20.5q-205 0 -244 -150q-8 -31 -8 -81v-5l-134 23q16 106 56 166q100 154 327 153q207 0 297 -100q10 -12 19.5 -26.5t13.5 -25.5l8 -22l4 -10q16 -51 17 -151v-359v-26 q0 -111 19.5 -148t103.5 -37h22v-96h-16q-43 0 -71.5 2t-65.5 12.5t-57.5 27.5t-36 52t-15.5 84q-37 -74 -74 -106q-104 -92 -272 -92q-160 0 -233.5 82.5t-73.5 183.5zM195 248q0 -61 48 -111.5t144 -50.5q90 0 187.5 51t134.5 142q22 54 22 163v74l-219 -55 q-184 -47 -250.5 -93t-66.5 -120zM264 1192v188h125v-188h-125zM616 1192v188h125v-188h-125z" />
<glyph unicode="&#xe5;" horiz-adv-x="1009" d="M78 246q0 162 178 246q102 47 360 104l115 25v51q0 43 -7 75.5t-29.5 69.5t-74 57.5t-128.5 20.5q-205 0 -244 -150q-8 -31 -8 -81v-5l-134 23q16 106 56 166q100 154 327 153q207 0 297 -100q10 -12 19.5 -26.5t13.5 -25.5l8 -22l4 -10q16 -51 17 -151v-359v-26 q0 -111 19.5 -148t103.5 -37h22v-96h-16q-43 0 -71.5 2t-65.5 12.5t-57.5 27.5t-36 52t-15.5 84q-37 -74 -74 -106q-104 -92 -272 -92q-160 0 -233.5 82.5t-73.5 183.5zM195 248q0 -61 48 -111.5t144 -50.5q90 0 187.5 51t134.5 142q22 54 22 163v74l-219 -55 q-184 -47 -250.5 -93t-66.5 -120zM346 1294.5q0 67.5 48 115.5t116 48t116 -48t48 -115.5t-48 -116t-116 -48.5t-116 48.5t-48 116zM424 1294.5q0 -34.5 25.5 -60.5t60.5 -26t60.5 24.5t25.5 61.5t-25.5 61.5t-60.5 24.5t-60.5 -25.5t-25.5 -60z" />
<glyph unicode="&#xe6;" horiz-adv-x="1703" d="M78 238q0 131 108 208q25 18 66 37t97.5 36.5t90 26.5t97 24.5t65.5 15.5l146 37v49q0 43 -2.5 65.5t-12.5 56t-32.5 51t-66.5 31t-108 13.5q-139 0 -198 -41q-84 -57 -84 -168v-4v-17l-135 17q10 80 38 135q96 190 371 190q258 0 332 -161q2 2 16.5 22.5t32.5 36.5 q102 102 283 102q117 0 205 -45t138 -120.5t73.5 -163.5t23.5 -187h-754v-49q0 -106 35 -182t90.5 -109.5t103.5 -48t95 -14.5q209 0 311 205l8 16l111 -22q-23 -70 -84 -146q-131 -160 -342 -160q-53 0 -107.5 11.5t-112.5 36t-106.5 73.5t-72.5 117q-117 -233 -402 -233 q-207 0 -284 131q-33 61 -33 127zM197 248q0 -70 48 -114t148 -44q86 0 183.5 42t144.5 128q27 49 27 160v94q-23 -6 -88.5 -22.5t-92 -22.5t-79 -20.5t-79 -22.5t-61.5 -20.5t-56.5 -22.5t-33.5 -21q-61 -47 -61 -114zM868 586h611q-14 102 -29 137q-70 170 -270 170 q-43 0 -87 -12.5t-95.5 -42t-86 -95t-43.5 -157.5z" />
<glyph unicode="&#xe7;" horiz-adv-x="970" d="M90 481q0 307 209 447q113 74 264 73q223 0 334 -176q12 -18 33 -69l-113 -29q-31 84 -106.5 125t-153.5 41q-131 0 -233.5 -97.5t-102.5 -308.5q0 -74 15.5 -141t50.5 -128.5t100.5 -98.5t153.5 -37q176 0 266 164l123 -27q-29 -59 -43 -78q-119 -166 -346 -166h-31 l-37 -71q35 6 62 6q59 0 99 -35t40 -98q0 -82 -65.5 -124t-143.5 -42q-33 0 -76 6v55q37 -4 66 -4q53 0 83.5 23.5t30.5 58.5q0 31 -26.5 53.5t-73.5 22.5q-33 0 -80 -21v52l74 125q-127 18 -213 96t-123 181t-37 222z" />
<glyph unicode="&#xe8;" horiz-adv-x="1062" d="M90 498q0 123 37 215q57 143 169 215.5t243 72.5q207 0 324.5 -149.5t117.5 -349.5v-13h-758v-20q0 -166 81 -274.5t255 -108.5q205 0 309 205l113 -33q-129 -283 -428 -283q-227 0 -345 150.5t-118 372.5zM225 588h617q-20 170 -108.5 237.5t-198.5 67.5 q-41 0 -84 -12.5t-91.5 -43t-85 -95t-49.5 -154.5zM252 1430h229l230 -287h-109z" />
<glyph unicode="&#xe9;" horiz-adv-x="1062" d="M90 498q0 123 37 215q57 143 169 215.5t243 72.5q207 0 324.5 -149.5t117.5 -349.5v-13h-758v-20q0 -166 81 -274.5t255 -108.5q205 0 309 205l113 -33q-129 -283 -428 -283q-227 0 -345 150.5t-118 372.5zM225 588h617q-20 170 -108.5 237.5t-198.5 67.5 q-41 0 -84 -12.5t-91.5 -43t-85 -95t-49.5 -154.5zM393 1143l230 287h227l-348 -287h-109z" />
<glyph unicode="&#xea;" horiz-adv-x="1062" d="M90 498q0 123 37 215q57 143 169 215.5t243 72.5q207 0 324.5 -149.5t117.5 -349.5v-13h-758v-20q0 -166 81 -274.5t255 -108.5q205 0 309 205l113 -33q-129 -283 -428 -283q-227 0 -345 150.5t-118 372.5zM225 588h617q-20 170 -108.5 237.5t-198.5 67.5 q-41 0 -84 -12.5t-91.5 -43t-85 -95t-49.5 -154.5zM264 1143l262 282h54l274 -282h-104l-201 133l-182 -133h-103z" />
<glyph unicode="&#xeb;" horiz-adv-x="1062" d="M90 498q0 123 37 215q57 143 169 215.5t243 72.5q207 0 324.5 -149.5t117.5 -349.5v-13h-758v-20q0 -166 81 -274.5t255 -108.5q205 0 309 205l113 -33q-129 -283 -428 -283q-227 0 -345 150.5t-118 372.5zM225 588h617q-20 170 -108.5 237.5t-198.5 67.5 q-41 0 -84 -12.5t-91.5 -43t-85 -95t-49.5 -154.5zM322 1192v188h124v-188h-124zM674 1192v188h125v-188h-125z" />
<glyph unicode="&#xec;" horiz-adv-x="425" d="M-96 1430h229l229 -287h-108zM154 0v977h118v-977h-118z" />
<glyph unicode="&#xed;" horiz-adv-x="425" d="M49 1143l230 287h227l-348 -287h-109zM154 0v977h118v-977h-118z" />
<glyph unicode="&#xee;" horiz-adv-x="425" d="M-78 1143l262 282h54l274 -282h-104l-201 133l-182 -133h-103zM154 0v977h118v-977h-118z" />
<glyph unicode="&#xef;" horiz-adv-x="425" d="M-23 1192v188h125v-188h-125zM154 0v977h118v-977h-118zM330 1192v188h125v-188h-125z" />
<glyph unicode="&#xf0;" horiz-adv-x="1067" d="M90 485q0 123 45 248t158 203q100 72 237 72q74 0 133.5 -25t89 -52.5t66.5 -72.5q-41 170 -137 320l-326 -105l-32 76l311 98q-55 74 -158 176l88 54q98 -104 168 -197l187 59l30 -77l-166 -54l9 -14q182 -317 184 -643v-6q0 -150 -31 -250q-39 -123 -140 -218t-276 -95 q-147 0 -250.5 74.5t-146.5 185t-43 243.5zM219 481q0 -201 87 -297t220 -96q135 0 228.5 97.5t93.5 306t-86 311t-223 102.5q-115 0 -195 -67q-125 -106 -125 -357z" />
<glyph unicode="&#xf1;" horiz-adv-x="1069" d="M154 0v977h120v-174q25 66 70 109.5t97.5 60t81 20.5t52.5 4h5q135 0 215 -63q120 -97 120 -330q0 -18 -1 -50t-1 -46v-508h-120v508v70q0 111 -14.5 171t-67.5 99q-51 41 -148 41q-121 0 -192 -72q-66 -63 -81.5 -137t-15.5 -236v-16v-428h-120zM225 1208l4 13 q4 12 8.5 20t12.5 24.5t16 29t19.5 27.5t26 25.5t30.5 20.5t36.5 15.5t43.5 5.5q29 0 63.5 -12.5t67.5 -31t35 -18.5q66 -33 94 -33q18 0 34.5 7.5t28 20.5t18.5 22.5t13 23.5l6 14l82 -20l-4 -10q-4 -10 -8 -20.5t-12.5 -26t-17.5 -28.5t-20 -28.5t-24.5 -28t-30 -22.5 t-36 -15t-40 -5t-47 7t-42 14t-49 24.5t-41.5 21.5q-68 31 -86 31q-37 0 -56.5 -22.5t-38.5 -63.5z" />
<glyph unicode="&#xf2;" horiz-adv-x="1067" d="M90 475q0 135 42 249t146.5 195.5t258.5 81.5q147 0 249.5 -76.5t146.5 -188t44 -242.5q0 -121 -35 -220q-53 -152 -165.5 -225.5t-244.5 -73.5q-215 0 -328.5 148.5t-113.5 351.5zM219 475q0 -201 88 -297t219 -96q137 0 229.5 98.5t92.5 311.5q0 92 -17 155 q-25 102 -83 162.5t-107 75t-102 14.5q-115 0 -195 -68q-125 -106 -125 -356zM248 1430h229l230 -287h-109z" />
<glyph unicode="&#xf3;" horiz-adv-x="1067" d="M90 475q0 135 42 249t146.5 195.5t258.5 81.5q147 0 249.5 -76.5t146.5 -188t44 -242.5q0 -121 -35 -220q-53 -152 -165.5 -225.5t-244.5 -73.5q-215 0 -328.5 148.5t-113.5 351.5zM219 475q0 -201 88 -297t219 -96q137 0 229.5 98.5t92.5 311.5q0 92 -17 155 q-25 102 -83 162.5t-107 75t-102 14.5q-115 0 -195 -68q-125 -106 -125 -356zM352 1143l230 287h227l-348 -287h-109z" />
<glyph unicode="&#xf4;" horiz-adv-x="1067" d="M90 475q0 135 42 249t146.5 195.5t258.5 81.5q147 0 249.5 -76.5t146.5 -188t44 -242.5q0 -121 -35 -220q-53 -152 -165.5 -225.5t-244.5 -73.5q-215 0 -328.5 148.5t-113.5 351.5zM219 475q0 -201 88 -297t219 -96q137 0 229.5 98.5t92.5 311.5q0 92 -17 155 q-25 102 -83 162.5t-107 75t-102 14.5q-115 0 -195 -68q-125 -106 -125 -356zM231 1143l263 282h53l274 -282h-104l-201 133l-182 -133h-103z" />
<glyph unicode="&#xf5;" horiz-adv-x="1067" d="M90 475q0 135 42 249t146.5 195.5t258.5 81.5q147 0 249.5 -76.5t146.5 -188t44 -242.5q0 -121 -35 -220q-53 -152 -165.5 -225.5t-244.5 -73.5q-215 0 -328.5 148.5t-113.5 351.5zM215 1208l4 13q4 12 8 20t12.5 24.5t16.5 29t19.5 27.5t25.5 25.5t30.5 20.5t37 15.5 t43.5 5.5q29 0 63.5 -12.5t67 -31t35.5 -18.5q66 -33 94 -33q18 0 34.5 7.5t27.5 20.5t18.5 22.5t13.5 23.5l6 14l82 -20l-4 -10q-4 -10 -8 -20.5t-12.5 -26t-17.5 -28.5t-20.5 -28.5t-24.5 -28t-29.5 -22.5t-36 -15t-40 -5t-47 7t-42 14t-49.5 24.5t-42 21.5q-68 31 -86 31 q-37 0 -56.5 -22.5t-37.5 -63.5zM219 475q0 -201 88 -297t219 -96q137 0 229.5 98.5t92.5 311.5q0 92 -17 155q-25 102 -83 162.5t-107 75t-102 14.5q-115 0 -195 -68q-125 -106 -125 -356z" />
<glyph unicode="&#xf6;" horiz-adv-x="1067" d="M90 475q0 135 42 249t146.5 195.5t258.5 81.5q147 0 249.5 -76.5t146.5 -188t44 -242.5q0 -121 -35 -220q-53 -152 -165.5 -225.5t-244.5 -73.5q-215 0 -328.5 148.5t-113.5 351.5zM219 475q0 -201 88 -297t219 -96q137 0 229.5 98.5t92.5 311.5q0 92 -17 155 q-25 102 -83 162.5t-107 75t-102 14.5q-115 0 -195 -68q-125 -106 -125 -356zM297 1192v188h125v-188h-125zM649 1192v188h125v-188h-125z" />
<glyph unicode="&#xf7;" d="M10 524v123h1174v-123h-1174zM504 317.5q0 38.5 27.5 66.5t66.5 28t66.5 -28t27.5 -66.5t-27.5 -66.5t-66.5 -28t-66.5 28t-27.5 66.5zM504 854q0 39 27.5 66.5t66.5 27.5t66.5 -27.5t27.5 -66.5t-27.5 -66.5t-66.5 -27.5t-66.5 27.5t-27.5 66.5z" />
<glyph unicode="&#xf8;" horiz-adv-x="1067" d="M90 475q0 135 42 249t146.5 195.5t258.5 81.5q109 0 206 -47l45 78l78 -47l-49 -84q160 -141 160 -407q0 -121 -35 -220q-53 -152 -165.5 -225.5t-244.5 -73.5q-121 0 -213 52l-40 -72l-78 45l45 80q-156 137 -156 395zM219 475q0 -190 86 -293l385 678q-66 39 -151 39 q-115 0 -195 -68q-125 -106 -125 -356zM375 121q70 -39 151 -39q137 0 229.5 98.5t92.5 311.5q0 92 -17 155q-23 94 -71 152z" />
<glyph unicode="&#xf9;" horiz-adv-x="1067" d="M154 498v479h122v-574q0 -53 2.5 -87.5t14.5 -83t34.5 -75t66.5 -47t106 -20.5q125 0 196 72q61 59 79 133t18 186v68v428h120v-977h-120v176q-18 -43 -41 -76q-92 -123 -271 -123h-6q-119 0 -199 66q-82 68 -102 161t-20 294zM203 1430h229l230 -287h-109z" />
<glyph unicode="&#xfa;" horiz-adv-x="1067" d="M154 498v479h122v-574q0 -53 2.5 -87.5t14.5 -83t34.5 -75t66.5 -47t106 -20.5q125 0 196 72q61 59 79 133t18 186v68v428h120v-977h-120v176q-18 -43 -41 -76q-92 -123 -271 -123h-6q-119 0 -199 66q-82 68 -102 161t-20 294zM401 1143l230 287h227l-348 -287h-109z" />
<glyph unicode="&#xfb;" horiz-adv-x="1067" d="M154 498v479h122v-574q0 -53 2.5 -87.5t14.5 -83t34.5 -75t66.5 -47t106 -20.5q125 0 196 72q61 59 79 133t18 186v68v428h120v-977h-120v176q-18 -43 -41 -76q-92 -123 -271 -123h-6q-119 0 -199 66q-82 68 -102 161t-20 294zM233 1143l263 282h53l274 -282h-104 l-201 133l-182 -133h-103z" />
<glyph unicode="&#xfc;" horiz-adv-x="1067" d="M154 498v479h122v-574q0 -53 2.5 -87.5t14.5 -83t34.5 -75t66.5 -47t106 -20.5q125 0 196 72q61 59 79 133t18 186v68v428h120v-977h-120v176q-18 -43 -41 -76q-92 -123 -271 -123h-6q-119 0 -199 66q-82 68 -102 161t-20 294zM287 1192v188h125v-188h-125zM639 1192v188 h125v-188h-125z" />
<glyph unicode="&#xfd;" horiz-adv-x="841" d="M-10 -334q74 -47 129 -47q63 0 102 86q47 104 68 160l49 135l-338 977h117l284 -832l318 832h123l-441 -1118q-8 -23 -27.5 -71t-26.5 -66.5t-22.5 -55.5t-24.5 -50t-25.5 -37.5t-31 -34t-34 -20.5t-42 -15.5t-48.5 -4.5q-72 0 -129 39v123zM332 1143l229 287h227 l-348 -287h-108z" />
<glyph unicode="&#xfe;" horiz-adv-x="1067" d="M154 -518v1964h118v-629q80 180 293 180h2q104 0 182 -41t120 -107.5t60.5 -113.5t31.5 -98q16 -90 16 -143q0 -88 -22.5 -175.5t-68.5 -166t-127 -127t-186 -48.5q-121 0 -197.5 55.5t-103.5 131.5v-682h-118zM272 459q0 -225 121 -318q68 -49 154 -49q72 0 128 30 t88 73t53.5 99t28.5 105.5t7 94.5q0 203 -88 298t-215 95q-86 0 -144.5 -38t-85 -101.5t-37 -122t-10.5 -123.5v-43z" />
<glyph unicode="&#xff;" horiz-adv-x="841" d="M-10 -334q74 -47 129 -47q63 0 102 86q47 104 68 160l49 135l-338 977h117l284 -832l318 832h123l-441 -1118q-8 -23 -27.5 -71t-26.5 -66.5t-22.5 -55.5t-24.5 -50t-25.5 -37.5t-31 -34t-34 -20.5t-42 -15.5t-48.5 -4.5q-72 0 -129 39v123zM158 1192v188h125v-188h-125z M510 1192v188h125v-188h-125z" />
<glyph unicode="&#x152;" horiz-adv-x="2136" d="M102 715q0 334 185.5 548t531.5 214q109 0 256 -31h975v-119h-836v-524h758v-127h-758v-553h887v-123h-1005q-166 -37 -283 -37q-334 0 -522.5 211t-188.5 541zM246 707q0 -283 157.5 -452t444.5 -169q110 0 227 37v1204q-190 23 -231 23q-317 0 -471 -199 q-14 -18 -28.5 -41t-24 -43t-16.5 -36.5t-12 -31t-5 -16.5q-41 -123 -41 -276z" />
<glyph unicode="&#x153;" horiz-adv-x="1830" d="M90 481q0 219 117 369.5t336 150.5q180 0 293 -108q55 -55 82 -123q39 70 81 113q121 119 304 118q109 0 192.5 -37.5t129.5 -100t70.5 -116t37.5 -110.5q8 -39 16 -148h-760q-2 -18 -2 -51q0 -150 84 -253t234 -103q223 0 327 211l117 -31q-31 -63 -45 -84 q-135 -203 -397 -203q-217 0 -334 146q-16 18 -26.5 36.5t-18.5 34t-10 19.5q-33 -82 -90.5 -135t-124 -71.5t-100.5 -24t-68 -5.5q-211 0 -328 148.5t-117 357.5zM221 494q0 -209 90 -310.5t224 -101.5q92 0 158.5 37t101 98.5t50 126.5t15.5 137q0 115 -26 197 q-27 84 -96.5 150.5t-190.5 66.5q-137 0 -231.5 -99.5t-94.5 -301.5zM989 590h621q-12 133 -89 218t-216 85q-219 0 -297 -221q-4 -14 -19 -82z" />
<glyph unicode="&#x178;" horiz-adv-x="1239" d="M0 1446h162l446 -719l465 719h166l-565 -848v-598h-135v598zM307 1606v198h137v-198h-137zM756 1606v198h137v-198h-137z" />
<glyph unicode="&#x2c6;" horiz-adv-x="555" d="M-16 1143l262 282h53l274 -282h-104l-201 133l-182 -133h-102z" />
<glyph unicode="&#x2dc;" horiz-adv-x="555" d="M-41 1208l4 13q4 12 8 20t12.5 24.5t16.5 29t19.5 27.5t25.5 25.5t30.5 20.5t37 15.5t43.5 5.5q29 0 63.5 -12.5t67 -31t35.5 -18.5q66 -33 94 -33q18 0 34.5 7.5t27.5 20.5t18.5 22.5t13.5 23.5l6 14l82 -20l-4 -10q-4 -10 -8 -20.5t-12.5 -26t-17.5 -28.5t-20.5 -28.5 t-24.5 -28t-29.5 -22.5t-36 -15t-40 -5t-47 7t-42 14t-49.5 24.5t-42 21.5q-68 31 -86 31q-37 0 -56.5 -22.5t-37.5 -63.5z" />
<glyph unicode="&#x2000;" horiz-adv-x="947" />
<glyph unicode="&#x2001;" horiz-adv-x="1894" />
<glyph unicode="&#x2002;" horiz-adv-x="947" />
<glyph unicode="&#x2003;" horiz-adv-x="1894" />
<glyph unicode="&#x2004;" horiz-adv-x="631" />
<glyph unicode="&#x2005;" horiz-adv-x="473" />
<glyph unicode="&#x2006;" horiz-adv-x="315" />
<glyph unicode="&#x2007;" horiz-adv-x="315" />
<glyph unicode="&#x2008;" horiz-adv-x="236" />
<glyph unicode="&#x2009;" horiz-adv-x="378" />
<glyph unicode="&#x200a;" horiz-adv-x="105" />
<glyph unicode="&#x2010;" horiz-adv-x="724" d="M78 600v133h571v-133h-571z" />
<glyph unicode="&#x2011;" horiz-adv-x="724" d="M78 600v133h571v-133h-571z" />
<glyph unicode="&#x2012;" horiz-adv-x="724" d="M78 600v133h571v-133h-571z" />
<glyph unicode="&#x2013;" horiz-adv-x="1024" d="M78 600v133h868v-133h-868z" />
<glyph unicode="&#x2014;" horiz-adv-x="2048" d="M78 600v133h1892v-133h-1892z" />
<glyph unicode="&#x2018;" horiz-adv-x="342" d="M90 885v164q0 164 17.5 236.5t76.5 160.5l66 -45q-31 -53 -42 -73.5t-23.5 -73t-12.5 -117.5v-13h78v-239h-160z" />
<glyph unicode="&#x2019;" horiz-adv-x="342" d="M90 932q29 47 42 72.5t24.5 75.5t11.5 116v12h-78v238h162v-162q0 -166 -16.5 -235.5t-77.5 -163.5z" />
<glyph unicode="&#x201a;" horiz-adv-x="342" d="M90 0v238h162v-164q0 -164 -16.5 -234.5t-77.5 -163.5l-68 48q29 47 42 72.5t24.5 75.5t11.5 116v12h-78z" />
<glyph unicode="&#x201c;" horiz-adv-x="618" d="M90 885v164q0 164 17.5 236.5t76.5 160.5l68 -45q-4 -4 -33 -55q-47 -94 -47 -209v-13h80v-239h-162zM367 885v164v47q0 113 16 186.5t78 163.5l67 -45q-29 -47 -42 -72.5t-24 -76t-11 -115.5v-13h77v-239h-161z" />
<glyph unicode="&#x201d;" horiz-adv-x="618" d="M90 932q29 47 42 72.5t24.5 75.5t11.5 116v12h-78v238h162v-162q0 -133 -10.5 -197.5t-42.5 -132.5q-6 -10 -20.5 -32.5t-20.5 -36.5zM367 932q8 10 32 55q45 90 45 209v12h-77v238h161v-162v-84q0 -94 -17 -159.5t-77 -155.5z" />
<glyph unicode="&#x201e;" horiz-adv-x="618" d="M90 0v238h162v-164q0 -133 -10.5 -196.5t-42.5 -131.5q-6 -10 -20.5 -32.5t-20.5 -37.5l-68 48q29 47 42 72.5t24.5 75.5t11.5 116v12h-78zM367 0v238h161v-164v-82q0 -94 -17 -159.5t-77 -156.5l-67 48q10 10 32 55q45 90 45 209v12h-77z" />
<glyph unicode="&#x2022;" horiz-adv-x="681" d="M98 723q0 100 72 172t172 72t172 -72t72 -172t-72 -172t-172 -72t-172 72t-72 172z" />
<glyph unicode="&#x2026;" horiz-adv-x="2048" d="M246 84q0 39 28.5 66.5t67.5 27.5t66.5 -27.5t27.5 -66.5t-27.5 -67.5t-66.5 -28.5t-67.5 28.5t-28.5 67.5zM930 84q0 39 28.5 66.5t67.5 27.5t66.5 -27.5t27.5 -66.5t-27.5 -67.5t-66.5 -28.5t-67.5 28.5t-28.5 67.5zM1612 84q0 39 28.5 66.5t67.5 27.5t66.5 -27.5 t27.5 -66.5t-27.5 -67.5t-66.5 -28.5t-67.5 28.5t-28.5 67.5z" />
<glyph unicode="&#x202f;" horiz-adv-x="378" />
<glyph unicode="&#x2039;" horiz-adv-x="512" d="M86 633l244 379l96 -62l-203 -317l203 -289l-96 -63z" />
<glyph unicode="&#x203a;" horiz-adv-x="512" d="M86 342l203 317l-203 289l96 64l244 -353l-244 -378z" />
<glyph unicode="&#x205f;" horiz-adv-x="473" />
<glyph unicode="&#x20ac;" horiz-adv-x="1206" d="M35 514l45 107h113q-4 66 -5 102q0 31 5 92h-158l45 107h127q25 125 83 224t130 160.5t160 102.5t168.5 57.5t160.5 16.5q174 -1 297 -58l-49 -108q-94 45 -256 45q-199 0 -347 -112.5t-200 -327.5h647l-45 -107h-616q-4 -53 -4 -92q0 -37 4 -102h539l-45 -107h-480 q43 -209 176.5 -319.5t348.5 -110.5q184 0 305 70v-136q-125 -55 -305 -55q-72 0 -141.5 11.5t-157.5 47t-158 93t-130.5 161t-84.5 238.5h-172z" />
<glyph unicode="&#x2122;" horiz-adv-x="1406" d="M49 1362v84h537v-84h-217v-596h-99v596h-221zM643 766v680h137l176 -557l174 557h140v-680h-94v446q0 39 4 138q-25 -86 -35 -117l-148 -467h-86l-147 467q-8 23 -18.5 59.5t-16.5 57.5q4 -51 4 -138l4 -446h-94z" />
<glyph unicode="&#x25fc;" horiz-adv-x="972" d="M0 0v973h973v-973h-973z" />
</font>
</defs>
</svg>
