<?xml version="1.0" standalone="no"?>
<!DOCTYPE svg PUBLIC "-//W3C//DTD SVG 1.1//EN" "http://www.w3.org/Graphics/SVG/1.1/DTD/svg11.dtd" >
<svg xmlns="http://www.w3.org/2000/svg" xmlns:xlink="http://www.w3.org/1999/xlink" version="1.1">
<metadata></metadata>
<defs>
<font id="volvo_sans_promedium" horiz-adv-x="724" >
<font-face units-per-em="2048" ascent="1495" descent="-553" />
<missing-glyph horiz-adv-x="555" />
<glyph unicode="&#xfb01;" horiz-adv-x="1146" d="M10 850v174h154v139q0 145 64.5 215t265.5 70q53 0 139 -10v-209q-31 6 -80 6q-88 0 -115.5 -36t-27.5 -97v-78h223v-174h-223v-850h-246v850h-154zM774 0v1024h246v-1024h-246zM774 1184v248h246v-248h-246z" />
<glyph unicode="&#xfb02;" horiz-adv-x="1150" d="M10 850v174h154v139q0 145 64.5 215t265.5 70q53 0 139 -10v-209q-31 6 -80 6q-88 0 -115.5 -36t-27.5 -97v-78h223v-174h-223v-850h-246v850h-154zM776 0v1446h248v-1446h-248z" />
<glyph horiz-adv-x="0" />
<glyph unicode="&#xd;" horiz-adv-x="681" />
<glyph unicode=" "  horiz-adv-x="555" />
<glyph unicode="&#x09;" horiz-adv-x="555" />
<glyph unicode="&#xa0;" horiz-adv-x="555" />
<glyph unicode="!" horiz-adv-x="512" d="M123 0v283h268v-283h-268zM123 893v553h268v-553l-78 -533h-114z" />
<glyph unicode="&#x22;" horiz-adv-x="811" d="M88 1446h250l-37 -588h-174zM471 1446h252l-39 -588h-174z" />
<glyph unicode="#" horiz-adv-x="1366" d="M88 438v205h277l26 193h-258v204h285l55 406h213l-57 -406h200l56 406h207l-56 -406h242v-204h-268l-29 -193h252v-205h-277l-63 -438h-207l64 438h-203l-62 -438h-209l62 438h-250zM571 643h205l27 193h-203z" />
<glyph unicode="$" horiz-adv-x="1280" d="M72 272l207 158q133 -172 266 -184v391q-227 16 -330.5 118.5t-103.5 250.5q0 61 18 121.5t62.5 125t131.5 111.5t205 61l17 2v222h188v-222l21 -2q215 -20 372 -170q18 -16 50 -51l-193 -153q-29 37 -58.5 63.5t-60 41.5t-50 23.5t-47.5 15.5t-34 9v-327 q467 -78 467 -422q0 -178 -96 -280.5t-217 -143.5q-68 -20 -154 -31v-233h-188v233q-129 25 -212 57.5t-175 116.5q-43 41 -86 98zM379 1042q0 -55 39 -85t127 -48v295q-88 -14 -127 -61t-39 -101zM733 242q104 20 150.5 75.5t46.5 118.5q0 61 -49.5 107.5t-147.5 64.5v-366 z" />
<glyph unicode="%" horiz-adv-x="1851" d="M51 926q0 313 170 422q76 47 174 47q162 0 252 -116.5t90 -352.5q0 -152 -30 -238q-82 -227 -316 -227q-72 0 -129 23.5t-90 56t-57.5 78t-34.5 75t-17 62.5q-12 55 -12 170zM256 924q0 -287 139 -287q137 0 137 283v16q0 96 -10 147q-27 139 -129 140q-137 0 -137 -299z M502 -8l655 1401l158 -74l-653 -1399zM1114 453q0 313 170 421q76 47 174 48q162 0 252 -116.5t90 -352.5q0 -152 -31 -238q-82 -227 -315 -227q-72 0 -129 23.5t-90 56t-57.5 77.5t-34.5 75t-17 63q-12 55 -12 170zM1319 451q0 -287 139 -287q137 -1 137 282v17 q0 96 -10 147q-27 139 -129 140q-137 0 -137 -299z" />
<glyph unicode="&#x26;" horiz-adv-x="1323" d="M78 377q0 129 74.5 224t226.5 198l12 8q-61 106 -61 217q0 147 93 239.5t241 92.5q135 0 234 -85t99 -222q0 -174 -174 -283q-20 -12 -39.5 -21.5t-36 -15.5t-22.5 -10q10 -20 98 -150q20 -33 54 -77q14 -20 36 -48q63 94 74 207l2 21h236q-25 -217 -168 -408 q68 -63 145 -63q12 0 45 4v-205q-8 0 -46 -3t-60 -3q-158 0 -256 84q-152 -109 -350 -109q-102 0 -184.5 28t-131.5 72t-83 100t-46 107.5t-12 100.5zM326 395q0 -96 69.5 -154.5t155.5 -58.5q109 0 199 78l-248 363l-13 -7q-84 -53 -123.5 -102t-39.5 -119zM561 1055 q0 -63 62 -154q8 4 14 4q145 44 145 148q0 49 -32.5 79.5t-77.5 30.5q-51 0 -81 -30.5t-30 -77.5z" />
<glyph unicode="'" horiz-adv-x="425" d="M88 1446h250l-37 -588h-174z" />
<glyph unicode="(" d="M96 705q0 412 328 747q94 98 176 158l70 -103q-287 -287 -287 -876q0 -236 84 -424.5t203 -290.5l-58 -102q-115 55 -243 200q-272 303 -273 691z" />
<glyph unicode=")" d="M55 -84q37 35 76 90q211 287 211 787q0 236 -84 424t-203 290l60 103q133 -76 254 -215q258 -293 260 -676v-4q0 -168 -49 -312q-106 -319 -455 -589z" />
<glyph unicode="*" horiz-adv-x="706" d="M41 1169l45 136l160 -52l65 -55l-30 84v164h143v-164l-37 -84l66 55l161 62l52 -131l-168 -66l-90 10l77 -49l111 -139l-111 -86l-110 137l-25 88l-18 -88l-101 -137l-114 86l100 139l64 39h-74z" />
<glyph unicode="+" horiz-adv-x="1150" d="M12 463v201h465v460h199v-460h463v-201h-463v-463h-199v463h-465z" />
<glyph unicode="," horiz-adv-x="425" d="M76 0v281h272v-277v-24q0 -41 -5 -70t-25.5 -68t-68.5 -69.5t-122 -48.5q-6 -2 -17.5 -4.5t-17.5 -4.5v119q111 12 111 150v16h-127z" />
<glyph unicode="-" d="M109 528v232h507v-232h-507z" />
<glyph unicode="." horiz-adv-x="425" d="M78 0v281h270v-281h-270z" />
<glyph unicode="/" horiz-adv-x="980" d="M27 0l686 1446h243l-686 -1446h-243z" />
<glyph unicode="0" horiz-adv-x="1247" d="M70 731q0 145 31.5 274.5t96 239t179.5 174t268 64.5q131 0 233.5 -54.5t161 -134.5t95 -186.5t49 -193.5t12.5 -171q0 -96 -11 -188t-49 -203.5t-97.5 -193.5t-166 -138.5t-245.5 -56.5q-147 0 -258 64.5t-174.5 175t-94 244t-30.5 284.5zM334 723q0 -106 15.5 -196.5 t48 -168t93 -123t142.5 -45.5q109 0 179.5 89.5t94 198t23.5 229.5q0 76 -8.5 146.5t-29 145t-52 130t-83.5 91t-120 35.5q-147 0 -225 -154.5t-78 -377.5z" />
<glyph unicode="1" horiz-adv-x="1150" d="M197 1020v162q125 2 172 20q133 51 180 244h205v-1446h-252v1100q-47 -49 -119 -64.5t-186 -15.5z" />
<glyph unicode="2" horiz-adv-x="1304" d="M121 0v199q39 31 159.5 116.5t209 154.5t188.5 163t155.5 190.5t55.5 186.5q0 238 -252 237q-141 0 -200.5 -84t-59.5 -202v-35l-256 22v19q0 236 149.5 376t388.5 140q254 0 383 -121t129 -340q0 -379 -716 -809h741v-213h-1075z" />
<glyph unicode="3" horiz-adv-x="1234" d="M61 367q0 45 5 67h272q-4 -33 -4 -43q0 -94 82 -149.5t205 -55.5q154 0 222 66.5t68 153.5q0 240 -313 239q-84 0 -90 -2v215q31 -2 108 -2q25 0 61 8t86 28.5t84 69t34 115.5q0 88 -71 133t-177 45q-119 0 -190.5 -59t-80.5 -172l-270 57q84 401 553 402 q227 0 367.5 -94.5t140.5 -268.5q0 -145 -90 -241.5t-229 -118.5q133 -12 242.5 -107.5t109.5 -261.5q0 -184 -143.5 -306t-419.5 -122q-262 0 -412 106.5t-150 297.5z" />
<glyph unicode="4" horiz-adv-x="1232" d="M35 348v180l688 918h252v-887h178v-211h-178v-348h-252v348h-688zM299 559h424l14 582z" />
<glyph unicode="5" horiz-adv-x="1267" d="M80 369l285 20q16 -197 253 -196q139 0 213 82.5t74 211.5q0 121 -77.5 199t-194.5 78q-195 0 -281 -133l-229 14l96 801h885l-21 -232h-653l-47 -346q96 102 324 103q229 0 353 -142t124 -337q0 -244 -160 -386.5t-420 -142.5q-225 0 -365.5 107.5t-158.5 298.5z" />
<glyph unicode="6" horiz-adv-x="1150" d="M29 664q0 387 169 603t429 216q219 0 345 -83t161 -263l-263 -35q-35 84 -90 119.5t-157 35.5q-160 0 -245 -150.5t-89 -358.5q125 166 368 165q236 0 364 -137t128 -334q0 -205 -147.5 -342t-395.5 -137q-293 0 -435 190.5t-142 510.5zM336 428q0 -94 67.5 -164.5 t200.5 -70.5q117 0 199 62t82 171q0 123 -83 189.5t-191.5 66.5t-191.5 -67.5t-83 -186.5z" />
<glyph unicode="7" horiz-adv-x="1234" d="M131 1204v242h1002v-225q-180 -221 -330 -534.5t-187 -686.5h-337q25 188 77 360t126.5 309.5t132 225.5t134 188.5t91.5 120.5h-709z" />
<glyph unicode="8" horiz-adv-x="1251" d="M61 406q0 229 240 339q-70 29 -130 117t-60 199q0 201 147.5 311.5t372.5 110.5q133 0 246.5 -38t196.5 -137.5t83 -248.5q0 -113 -61.5 -196t-137.5 -118q74 -27 124.5 -77t72 -106t28.5 -93t7 -66q0 -96 -31 -172.5t-83 -126t-125.5 -82t-152.5 -46t-167 -13.5 q-258 0 -414 122t-156 321zM350 406q0 -100 84 -156.5t195 -56.5q109 0 197.5 54t88.5 156q0 82 -69.5 153t-212.5 71q-123 0 -203 -51.5t-80 -169.5zM373 1057q0 -88 68.5 -150.5t187.5 -62.5q125 0 192.5 60.5t67.5 152.5q0 78 -67.5 139t-188.5 61q-106 0 -183 -52 t-77 -148z" />
<glyph unicode="9" horiz-adv-x="1320" d="M88 313l281 39q29 -90 87 -126t162 -36q303 0 312 453q-100 -121 -363 -121q-199 0 -339 128t-140 319q0 215 139.5 364.5t419.5 149.5q143 0 253 -57.5t167 -136.5t92 -182t44 -174t9 -132q0 -129 -12 -235.5t-52 -222.5t-105.5 -195.5t-181.5 -132t-269 -52.5 q-420 0 -504 350zM354 991q0 -98 70 -173t207 -75q111 0 194.5 57.5t83.5 186.5q0 119 -75.5 196t-196.5 77q-125 0 -204 -74t-79 -195z" />
<glyph unicode=":" horiz-adv-x="512" d="M121 0v281h270v-281h-270zM121 760v282h270v-282h-270z" />
<glyph unicode=";" horiz-adv-x="512" d="M119 0v281h272v-261v-38q0 -43 -6 -74t-28.5 -71t-74 -69.5t-132.5 -50.5l-17 -4v123q113 14 113 137v7v20h-127zM119 760v282h272v-282h-272z" />
<glyph unicode="&#x3c;" horiz-adv-x="1150" d="M12 479v168l1127 502v-217l-828 -369l828 -370v-218z" />
<glyph unicode="=" horiz-adv-x="1150" d="M12 297v201h1127v-201h-1127zM12 647v201h1127v-201h-1127z" />
<glyph unicode="&#x3e;" horiz-adv-x="1150" d="M12 -25v218l828 370l-828 369v217l1127 -502v-168z" />
<glyph unicode="?" horiz-adv-x="1089" d="M43 997q12 123 39 191q49 123 164.5 202.5t300.5 79.5q113 0 207 -34q111 -43 193.5 -137t82.5 -248q0 -195 -151 -322q-12 -10 -24.5 -19.5t-28 -18.5t-25.5 -17q-90 -63 -111.5 -106.5t-21.5 -137.5v-57h-242v51q0 221 57 303q25 35 78 78q14 10 47 30.5t56.5 40 t44.5 46.5q39 51 39 114q0 90 -66 145.5t-150 55.5q-63 0 -111 -24.5t-71.5 -57.5t-38 -75t-17.5 -66.5t-3 -44.5zM412 0v281h272v-281h-272z" />
<glyph unicode="@" horiz-adv-x="1835" d="M131 483q0 250 117 472.5t339 362.5t500 140q260 0 438.5 -155.5t178.5 -442.5q0 -94 -25 -205q-53 -238 -188 -378t-270 -140q-162 0 -191 142q-121 -141 -270 -142q-117 0 -202 85t-85 259q0 29 4 65t18.5 105.5t52.5 145t95 137.5q127 135 281 135q145 0 221 -127 l20 86h183q0 -2 -25 -111.5t-45.5 -208t-38.5 -204t-18 -139.5q0 -63 41 -64q39 0 98 61q68 70 123 204t55 290q0 117 -41 205t-94 132t-126 70.5t-118 33t-84 6.5q-197 0 -362 -95q-213 -123 -316.5 -322.5t-103.5 -396.5q0 -285 180 -436t459 -151q205 0 382 91t290 210 l96 -119q-344 -338 -764 -338q-176 0 -340 61q-127 47 -221 125t-139.5 152t-71 164t-29.5 137t-4 98zM680 489q0 -123 74 -161q29 -14 57 -15h6q76 0 146 76q55 57 85.5 153.5t30.5 170.5q0 37 -8 67q-14 55 -51 85t-88 30q-57 0 -117 -49q-66 -57 -99.5 -159.5 t-35.5 -186.5v-11z" />
<glyph unicode="A" horiz-adv-x="1290" d="M0 0l489 1446h308l493 -1446h-289l-83 283h-543l-84 -283h-291zM446 520h400l-199 666z" />
<glyph unicode="B" horiz-adv-x="1398" d="M154 0v1446h542h82q123 0 215 -25.5t164 -107.5q80 -94 82 -213v-6q0 -190 -145 -271q-27 -14 -95 -30q47 -8 96.5 -33t98.5 -67t81 -115.5t32 -163.5v-4q0 -143 -76 -244q-55 -76 -143.5 -115t-149.5 -45t-160 -6h-28h-596zM422 233h301h31q164 0 227 68q49 53 49 139 q0 88 -65 150q-76 72 -273 72h-270v-429zM422 864h92q276 0 332 23q45 18 78 55q37 44 37 105v2q0 63 -50 112q-63 63 -227 64h-66h-196v-361z" />
<glyph unicode="C" horiz-adv-x="1429" d="M96 719v29q0 154 47 288q80 223 255 335t388 112q324 0 486 -234q53 -76 98 -213l-268 -69q-4 39 -22.5 81t-52.5 86t-97.5 72.5t-143.5 28.5q-158 0 -277.5 -125t-119.5 -373q0 -254 116 -386t281 -132q82 0 150 33t108.5 84t63 93t33.5 81l256 -107l-8 -20 q-47 -117 -120 -201t-140.5 -125t-150.5 -63.5t-125 -26.5t-87 -4q-190 0 -342 92q-109 66 -180.5 164t-100 201.5t-38 170t-9.5 128.5z" />
<glyph unicode="D" horiz-adv-x="1474" d="M154 0v1446h518q172 0 274 -33q188 -61 310 -241t122 -463q0 -229 -90 -402q-39 -74 -90 -128t-111.5 -87t-113.5 -52.5t-126 -27.5t-117 -10t-116 -2h-460zM424 244h115q221 0 301 22q129 35 190.5 141.5t61.5 303.5v26q0 37 -4.5 76t-20.5 100.5t-46 111.5t-87 95 t-135 66q-66 16 -232 16h-143v-958z" />
<glyph unicode="E" horiz-adv-x="1253" d="M154 0v1446h1028v-242h-762v-340h698v-233h-698v-387h813v-244h-1079z" />
<glyph unicode="F" horiz-adv-x="1118" d="M154 0v1446h956v-242h-688v-360h604v-232h-604v-612h-268z" />
<glyph unicode="G" horiz-adv-x="1538" d="M96 692v17q0 41 3 86t23.5 132t54.5 161.5t103.5 158.5t165.5 142q158 94 349 94q106 0 206.5 -31t199.5 -108.5t163 -196.5q20 -39 41 -90l-258 -103q-35 86 -45 105q-104 180 -316 180q-111 0 -191.5 -50t-122.5 -131t-61.5 -166t-19.5 -173q0 -250 122 -375t284 -125 q111 0 204 54.5t132 170.5q2 4 24 109h-360v238h608v-791h-231v123q-23 -20 -52 -43q-150 -117 -340 -117h-10q-311 2 -493.5 214t-182.5 515z" />
<glyph unicode="H" horiz-adv-x="1472" d="M154 0v1446h272v-545h621v545h272v-1446h-272v657h-621v-657h-272z" />
<glyph unicode="I" horiz-adv-x="573" d="M154 0v1446h266v-1446h-266z" />
<glyph unicode="J" horiz-adv-x="770" d="M10 -12v266q102 -20 144 -21q74 0 127 29q61 37 75.5 89t14.5 171v924h266v-1022q0 -156 -23 -217q-27 -72 -79 -122t-118.5 -73.5t-123.5 -33t-115 -9.5q-86 0 -168 19z" />
<glyph unicode="K" horiz-adv-x="1325" d="M154 0v1446h268v-664l579 664h318l-473 -545l506 -901h-310l-385 680l-235 -270v-410h-268z" />
<glyph unicode="L" horiz-adv-x="999" d="M154 0v1446h272v-1200h573v-246h-845z" />
<glyph unicode="M" horiz-adv-x="1652" d="M154 0v1446h393l282 -1073l279 1073h391v-1446h-264l27 1188l-314 -1188h-243l-314 1188l27 -1188h-264z" />
<glyph unicode="N" horiz-adv-x="1425" d="M154 0v1446h243l641 -1020l-32 1020h266v-1446h-238l-633 1014l17 -1014h-264z" />
<glyph unicode="O" horiz-adv-x="1579" d="M96 717q0 233 93.5 400t228.5 255q166 111 377 111q207 0 376 -113q312 -211 312 -647q0 -139 -41 -274q-18 -61 -49 -121t-85.5 -128.5t-123 -118.5t-172 -84t-221.5 -34q-172 0 -304 66q-158 78 -274.5 257t-116.5 431zM375 733q0 -258 127 -388t293 -130 q68 0 135 25.5t132.5 78t106.5 149.5t41 226q0 102 -20 191q-12 49 -33.5 97t-65.5 111.5t-121 102.5t-175 39q-76 0 -146.5 -26.5t-134 -83t-101.5 -158t-38 -234.5z" />
<glyph unicode="P" horiz-adv-x="1275" d="M154 0v1446h487q76 0 123 -4t119.5 -18.5t133 -53.5t111.5 -100q101 -123 101 -297q0 -172 -80 -289q-43 -63 -102.5 -105t-127 -59.5t-118.5 -22.5t-117 -5h-260v-492h-270zM424 713h194q131 0 201 28.5t107 108.5q24 53 24 127q0 82 -35 133q-41 63 -104 83.5 t-180 20.5h-207v-501z" />
<glyph unicode="Q" horiz-adv-x="1572" d="M96 707q0 156 45 294t131 246.5t223.5 172t307.5 63.5q315 0 495 -216q179 -214 179 -521v-7q0 -31 -4.5 -85t-31 -164.5t-69.5 -180.5q20 -49 92 -79.5t121 -30.5q15 0 35 4l-76 -260q-88 18 -174 75.5t-133 104.5q-186 -160 -461 -160q-213 0 -379 113 q-160 109 -230.5 282.5t-70.5 348.5zM385 717q0 -268 172 -410q102 -86 240 -86q104 0 184 49t122 128t62.5 162t20.5 165q0 96 -23 178q-39 143 -142 232.5t-237 89.5q-84 0 -151.5 -33t-110.5 -85t-65.5 -93t-36.5 -82q-35 -102 -35 -215z" />
<glyph unicode="R" horiz-adv-x="1310" d="M154 0v1446h460h72q143 0 253 -33t196 -143q88 -115 88 -275q0 -170 -87 -271t-198 -134l322 -590h-310l-284 537h-244v-537h-268zM422 762h188q51 0 86 2t87.5 14.5t84 35t56 68.5t24.5 109q0 70 -28.5 118t-76.5 68.5t-86 27.5t-79 7h-256v-450z" />
<glyph unicode="S" horiz-adv-x="1366" d="M37 272l227 158q41 -55 45 -59q141 -158 400 -158q133 0 207.5 50t74.5 138q0 68 -51 111q-16 16 -51 30.5t-58.5 20.5t-70.5 17l-47 10l-172 39q-2 0 -28 5t-43 9t-51 13.5t-58.5 19.5t-58.5 28.5t-57.5 39t-50 50t-43 63.5t-26.5 79t-10 96q0 115 49 201 q66 117 200 183.5t324 66.5q328 0 533 -232q10 -12 26.5 -32.5t22.5 -28.5l-223 -166q-45 63 -56 76q-123 139 -313 139q-123 0 -201 -49t-78 -127q0 -41 17.5 -69.5t60.5 -48t79 -29t110 -25.5l149 -33q2 0 33 -7t67.5 -17.5t65.5 -20.5q303 -109 303 -377 q0 -90 -29.5 -164.5t-71.5 -121t-100.5 -82t-99.5 -52t-84 -26.5q-113 -27 -231 -27h-9q-319 0 -520 184q-72 63 -102 125z" />
<glyph unicode="T" horiz-adv-x="1103" d="M20 1202v244h1063v-244h-399v-1202h-270v1202h-394z" />
<glyph unicode="U" horiz-adv-x="1431" d="M133 586v860h273v-924q0 -92 18 -137q59 -160 292.5 -160t295.5 172q16 49 16 174v875h270v-834v-90q0 -154 -22 -223q-49 -152 -196.5 -244t-374.5 -92q-223 0 -366.5 95.5t-186.5 246.5q-18 66 -19 281z" />
<glyph unicode="V" horiz-adv-x="1202" d="M0 1446h285l323 -1141l316 1141h278l-411 -1446h-365z" />
<glyph unicode="W" horiz-adv-x="1660" d="M0 1446h276l197 -1102l225 1102h252l230 -1102l202 1102h279l-318 -1446h-315l-203 1006l-209 -1006h-315z" />
<glyph unicode="X" horiz-adv-x="1290" d="M0 0l485 784l-415 662h311l262 -414l252 414h313l-407 -662l489 -784h-309l-338 535l-330 -535h-313z" />
<glyph unicode="Y" horiz-adv-x="1239" d="M0 1446h307l314 -598l315 598h303l-487 -875v-571h-269v571z" />
<glyph unicode="Z" horiz-adv-x="1236" d="M49 0v221l791 983h-723v242h1061v-229l-760 -973h760v-244h-1129z" />
<glyph unicode="[" d="M125 -119v1673h543v-196h-277v-1276h277v-201h-543z" />
<glyph unicode="\" horiz-adv-x="980" d="M27 1446h243l686 -1446h-243z" />
<glyph unicode="]" d="M57 80h277v1276h-277v198h543v-1673h-543v199z" />
<glyph unicode="^" horiz-adv-x="1050" d="M41 662l399 784h187l383 -784h-242l-240 503l-247 -503h-240z" />
<glyph unicode="_" horiz-adv-x="1024" d="M-20 -256h1064v-211h-1064v211z" />
<glyph unicode="`" horiz-adv-x="555" d="M74 1446h305l104 -272h-182z" />
<glyph unicode="a" horiz-adv-x="1110" d="M53 297q0 104 64 186q20 27 41.5 46.5t51.5 36t50.5 26.5t60 20.5t57 14.5t67 13t63.5 13q98 18 225 58q0 63 -18 90q-45 63 -166 63q-76 0 -137.5 -31.5t-61.5 -109.5v-12l-250 14q0 74 37 143q100 186 420 187q322 0 399 -174q23 -47 23 -150v-588q0 -73 45 -143h-291 q-4 57 -4 80q-47 -39 -129 -72t-174 -33q-150 0 -261.5 84t-111.5 238zM313 307q0 -55 42 -88t124 -33q70 0 139.5 28t102.5 93q12 27 12 70v6v127q-74 -33 -165 -50.5t-147 -31.5t-85 -53q-23 -29 -23 -68z" />
<glyph unicode="b" horiz-adv-x="1191" d="M127 0v1446h244v-508q133 117 297 117q109 0 213 -64q100 -63 167.5 -182t67.5 -283q0 -158 -57.5 -278.5t-145.5 -188.5q-111 -82 -258 -90h-14q-150 0 -270 137v-106h-244zM369 528q0 -199 112 -282q61 -43 137 -43q90 0 148.5 57t78 126.5t19.5 145.5q0 147 -77.5 223 t-180.5 76q-92 0 -164.5 -75.5t-72.5 -227.5z" />
<glyph unicode="c" horiz-adv-x="1050" d="M76 508v4q0 223 143 383t373 160q174 0 283.5 -88t158.5 -203l-219 -102q-18 55 -51 94t-70 54t-61.5 20.5t-44.5 5.5q-133 0 -195.5 -97.5t-62.5 -220.5t63.5 -221t196.5 -98q57 0 101 18.5t74 59t40 59t31 63.5l208 -110q-37 -117 -155.5 -218.5t-298.5 -101.5 q-143 0 -260 68q-86 49 -143.5 122.5t-78 151.5t-26.5 120t-6 77z" />
<glyph unicode="d" horiz-adv-x="1185" d="M76 498q0 135 43 243q18 51 48 98.5t79 99.5t123.5 84t165.5 32q178 0 280 -115v506h244v-1446h-244v100q-102 -131 -285 -131q-125 0 -221 58q-233 135 -233 471zM332 512q0 -72 18.5 -138.5t74.5 -123.5t144 -57q102 0 173 79.5t71 233.5q0 59 -12 119q-12 61 -40 105 t-61.5 63.5t-62.5 26.5t-57 7q-129 0 -188.5 -98t-59.5 -217z" />
<glyph unicode="e" horiz-adv-x="1157" d="M76 512q0 154 49 260q55 119 169 201t292 82q281 0 415 -209q39 -61 62.5 -159.5t27 -146.5t3.5 -77h-758q14 -80 49 -135.5t82 -79t83 -31.5t73 -8q176 0 270 141l209 -121q-70 -84 -92 -104q-174 -156 -408 -156q-178 0 -298 84t-175 199q-53 113 -53 260zM344 643h479 q-33 215 -229 215h-2q-162 0 -227 -145q-20 -45 -21 -70z" />
<glyph unicode="f" horiz-adv-x="632" d="M10 850v174h154v139q0 145 64.5 215t265.5 70q53 0 139 -10v-209q-31 6 -80 6q-88 0 -115.5 -36t-27.5 -97v-78h223v-174h-223v-850h-246v850h-154z" />
<glyph unicode="g" horiz-adv-x="1198" d="M76 553q0 115 33.5 206t85 145t116 89t121.5 48.5t109 13.5q180 0 286 -140v109h244v-842v-82q0 -207 -76 -299q-41 -49 -125 -92q-113 -51 -295 -51h-8q-225 0 -325.5 81t-132.5 241h270q12 -39 31 -64q53 -66 186 -66q233 0 233 230q0 10 -1 26.5t-1 22.5v41 q-43 -43 -124.5 -77t-180.5 -34q-74 0 -144.5 22.5t-142 74t-115.5 154t-44 243.5zM328 557q0 -123 67.5 -198.5t190.5 -75.5q119 0 183.5 71.5t64.5 188.5q0 74 -19 127q-59 166 -227 166q-39 0 -80 -12.5t-84 -40t-69.5 -87t-26.5 -139.5z" />
<glyph unicode="h" horiz-adv-x="1189" d="M127 0v1446h246v-526q135 135 313 135q135 0 225 -56q98 -61 125 -143t27 -203v-20v-633h-242v563q0 104 -14 144q-45 114 -172 114h-2h-6q-100 0 -164 -59.5t-82 -124.5q-8 -37 -8 -131v-506h-246z" />
<glyph unicode="i" horiz-adv-x="497" d="M127 0v1024h244v-1024h-244zM127 1184v248h244v-248h-244z" />
<glyph unicode="j" horiz-adv-x="493" d="M-10 -106q12 2 26.5 4t18.5 2q61 16 75.5 42.5t14.5 102.5v27v952h242v-1034v-4q0 -135 -13 -168q-57 -150 -309 -150q-35 0 -55 2v224zM125 1186v250h242v-250h-242z" />
<glyph unicode="k" horiz-adv-x="1095" d="M127 0v1446h244v-813l399 391h313l-391 -391l430 -633h-299l-309 459l-143 -142v-317h-244z" />
<glyph unicode="l" horiz-adv-x="503" d="M127 0v1446h250v-1446h-250z" />
<glyph unicode="m" horiz-adv-x="1789" d="M127 0v1024h246v-115q55 72 149 109t172 37q102 0 178 -46t109 -112q45 68 134 113t204 45q111 0 202 -53.5t126 -170.5q16 -57 16 -161v-670h-244v565v6q0 41 -1 67t-10 65.5t-25.5 62t-51.5 41t-82 18.5q-80 0 -139 -51q-43 -37 -65.5 -96.5t-25.5 -97t-3 -99.5v-481 h-244v573v41q0 123 -65 177q-36 32 -95 32h-4q-74 0 -135 -51q-100 -88 -100 -317v-25v-430h-246z" />
<glyph unicode="n" horiz-adv-x="1148" d="M127 0v1024h248v-121q109 152 315 152h2q102 0 187 -49q84 -51 113.5 -131t29.5 -232v-643h-242v522v58q0 137 -65 196q-43 39 -115 39q-70 0 -119 -39q-106 -82 -106 -282v-494h-248z" />
<glyph unicode="o" horiz-adv-x="1204" d="M76 520q0 227 145.5 381t378.5 154q236 0 382 -155.5t146 -395.5q0 -143 -59 -260q-57 -113 -173 -194t-290 -81q-236 0 -383 157t-147 394zM332 524q0 -133 72.5 -231t209.5 -98q129 0 193.5 96t64.5 215q0 84 -30 160q-72 168 -248 168q-125 0 -193.5 -93.5 t-68.5 -216.5z" />
<glyph unicode="p" horiz-adv-x="1193" d="M127 -334v1358h246v-92q123 123 289 123q219 0 337.5 -170t118.5 -381t-123 -373t-342 -162q-152 0 -280 115v-418h-246zM369 518q0 -84 26 -156q61 -159 221 -159h2q100 0 174 75.5t74 231.5q0 154 -74.5 231.5t-170.5 77.5q-98 0 -175 -73.5t-77 -227.5z" />
<glyph unicode="q" horiz-adv-x="1191" d="M76 496q0 207 86 338t217 188q82 33 172 33q27 0 61.5 -5.5t100 -40t108.5 -94.5v109h244v-1358h-244v430q-127 -127 -295 -127q-152 0 -257 82t-149 196.5t-44 248.5zM328 510q0 -125 57 -220t184 -95q104 0 178 76.5t74 238.5q0 88 -28 154q-66 151 -209 151h-2 q-98 0 -176 -75.5t-78 -229.5z" />
<glyph unicode="r" horiz-adv-x="700" d="M127 0v1024h238v-145q84 168 313 168h12v-252h-16q-309 0 -309 -332v-33v-430h-238z" />
<glyph unicode="s" horiz-adv-x="1067" d="M45 154l182 149q109 -131 303 -131q80 0 137.5 35t57.5 82q0 37 -29 61q-23 20 -121 41l-167 33q-141 29 -229.5 103.5t-88.5 195.5q0 131 117 231.5t328 100.5q268 0 436 -191l-174 -162q-78 156 -279 156q-76 0 -123 -27.5t-47 -74.5q0 -51 43 -74t135 -41 q10 -2 78 -13.5t108 -19.5t94 -27.5t85 -41.5q106 -85 106 -222v-2q0 -139 -124.5 -242.5t-344.5 -103.5q-299 0 -483 185z" />
<glyph unicode="t" horiz-adv-x="651" d="M12 850v174h150v365h246v-365h219v-174h-219v-512q0 -72 22.5 -103.5t95.5 -31.5q47 0 101 12v-207q-76 -16 -170 -16q-225 0 -279 125q-16 35 -16 162v571h-150z" />
<glyph unicode="u" horiz-adv-x="1185" d="M127 365v10v649h248v-582q0 -94 21.5 -141t80.5 -74q41 -20 96 -20q86 0 148 51q59 49 75.5 116.5t16.5 172.5v43v434h246v-1024h-246v106q-147 -131 -332 -131q-354 0 -354 390z" />
<glyph unicode="v" horiz-adv-x="931" d="M0 1024h254l213 -705l209 705h256l-338 -1024h-262z" />
<glyph unicode="w" horiz-adv-x="1470" d="M0 1024h256l178 -700l191 700h219l188 -700l182 700h256l-307 -1024h-243l-185 653l-194 -653h-244z" />
<glyph unicode="x" horiz-adv-x="993" d="M0 0l352 549l-311 475h289l168 -258l161 258h293l-309 -475l350 -549h-282l-213 324l-205 -324h-293z" />
<glyph unicode="y" horiz-adv-x="937" d="M0 1024h264l230 -764l192 764h252l-260 -893q-8 -27 -23.5 -81t-22.5 -76.5t-20.5 -63.5t-23.5 -62.5t-24.5 -49t-31 -48t-34.5 -37.5q-73 -65 -220 -65h-4q-86 0 -137 14v213q6 0 28.5 -3t37.5 -3q135 0 168 111z" />
<glyph unicode="z" horiz-adv-x="1011" d="M51 0v188l553 617h-498v219h822v-190l-541 -617h541v-217h-877z" />
<glyph unicode="{" d="M35 500v118q94 25 132 91.5t38 199.5v269q0 154 31 227q49 109 137 134.5t289 27.5h28v-131q-82 -20 -124 -46t-65.5 -88.5t-23.5 -175.5v-102q0 -33 1 -88t1 -78q0 -137 -32.5 -202.5t-145.5 -96.5q20 -6 64 -35q76 -47 94 -122.5t18 -239.5v-166q0 -164 45 -221.5 t168 -87.5v-133q-70 2 -90 2t-75.5 3t-73 7t-57.5 12t-56 20.5t-41 31t-39 44t-27 58.5q-25 70 -24 213v266q0 131 -39 197.5t-133 91.5z" />
<glyph unicode="|" horiz-adv-x="468" d="M129 -512v2044h211v-2044h-211z" />
<glyph unicode="}" d="M35 -313q121 31 166 88t45 221v166q0 162 19.5 238.5t92.5 123.5q49 31 66 35q-113 31 -145.5 96.5t-32.5 202.5q0 23 1 78t1 88v102q0 164 -45 221.5t-168 88.5v131q231 -2 299 -23q106 -31 153 -139q31 -68 31 -227v-269q0 -133 38 -199.5t134 -91.5v-118 q-92 -25 -131 -91.5t-39 -197.5v-266q0 -143 -24 -213q-12 -33 -26.5 -58.5t-39 -44t-41 -31t-56.5 -20.5t-58.5 -12t-74 -7t-76 -3t-89.5 -2v133z" />
<glyph unicode="~" horiz-adv-x="1112" d="M41 604q119 182 297 182q78 0 219 -65l70 -33q90 -43 151 -43q20 0 41 5t38 15.5t32.5 20.5t31 24.5t23.5 23.5t19.5 22.5t13.5 15.5l94 -182q-94 -98 -160.5 -132t-134.5 -34q-78 0 -217 65l-59 29q-98 47 -158 47q-16 0 -32.5 -3t-28 -6t-26.5 -14.5t-22.5 -15.5 t-23.5 -21.5t-21.5 -22.5t-24 -27.5t-24.5 -28.5z" />
<glyph unicode="&#xa1;" horiz-adv-x="512" d="M123 0v555l78 532h114l76 -532v-555h-268zM123 1163v283h268v-283h-268z" />
<glyph unicode="&#xa2;" horiz-adv-x="1024" d="M45 522q0 203 108.5 352.5t327.5 194.5v203h160v-203q80 -10 141.5 -39t105.5 -78t64.5 -79.5t51.5 -86.5l-218 -102q-43 104 -104 145q-14 10 -45 17v-631q57 16 97 60t51.5 74t17.5 57l209 -113q-31 -78 -62 -123q-96 -141 -252 -178q-8 -2 -27.5 -5t-31.5 -5v-203 h-160v203q-115 16 -202 71.5t-129 119t-67.5 142t-30.5 123.5t-5 84zM297 532q0 -258 180 -309v625q-49 -25 -65 -39q-115 -92 -115 -277z" />
<glyph unicode="&#xa3;" horiz-adv-x="1280" d="M80 215q0 104 64.5 164.5t162.5 60.5q68 0 152 -30q6 31 6 36q0 68 -57 117h-267v217h166q-88 111 -88 254q0 129 72 217q57 72 164.5 122t240.5 50q131 0 248 -65q197 -115 197 -397q0 -14 -1 -37t-1 -35h-267q10 41 11 92q0 109 -65.5 161t-129.5 52 q-84 0 -141.5 -56.5t-57.5 -140.5t89 -200l12 -17h252v-217h-160q0 -12 6 -63t6 -82q0 -43 -12 -125q84 -59 139 -60q111 0 111 187v6v49h264v-20q0 -143 -38 -253t-101 -161q-68 -57 -172 -57q-20 0 -41 2t-36 4t-36.5 9t-33 11t-36 15.5t-34 15.5t-39 19.5t-39.5 19.5 l-21 -10q-14 -6 -44.5 -22.5t-43 -23t-36 -16.5t-39 -14t-36 -7t-40.5 -3q-109 0 -179.5 63.5t-70.5 167.5zM274 205q0 -16 15.5 -29.5t40.5 -13.5q57 0 80 55q-41 35 -80 35q-27 0 -41.5 -14.5t-14.5 -32.5z" />
<glyph unicode="&#xa4;" horiz-adv-x="1138" d="M41 299l117 125q-102 115 -103 291q0 195 103 295l-117 125l117 116l116 -114q111 94 299 94q178 0 281 -92l119 116l125 -125l-115 -118q96 -102 96 -293q0 -182 -98 -299l113 -121l-113 -113l-117 119q-106 -102 -293 -102q-190 0 -301 100l-114 -119zM276 715 q0 -127 85 -215t210 -88q123 0 205 90t82 217q0 123 -82 213t-203 90q-127 0 -212 -89t-85 -218z" />
<glyph unicode="&#xa5;" horiz-adv-x="1224" d="M0 1405h305l305 -584l314 584h301l-297 -524h172v-203h-291l-70 -125h361v-203h-361v-350h-264v350h-362v203h360l-63 125h-297v203h182z" />
<glyph unicode="&#xa6;" horiz-adv-x="468" d="M129 389h211v-780h-211v780zM129 631v780h211v-780h-211z" />
<glyph unicode="&#xa7;" horiz-adv-x="1230" d="M41 770q0 61 21.5 113.5t62.5 91.5t66.5 57.5t66.5 42.5q-80 72 -80 182v7q0 68 30 122t78 84.5t80.5 45t63.5 22.5q53 16 156 16q256 0 473 -137l-115 -172q-2 0 -26.5 12.5t-46 21.5t-58.5 23.5t-69.5 23.5t-71.5 16.5t-72 7.5q-147 0 -147 -68q0 -14 7 -26.5t16 -21.5 t25.5 -19.5t27 -14.5t26.5 -11t18 -9l191 -82q207 -90 285 -150q141 -108 141 -266q0 -162 -115 -266q-37 -35 -104 -68q84 -94 84 -188q0 -121 -107.5 -207t-298.5 -86q-156 0 -292 51t-218 111l119 168q190 -125 383 -125q61 0 100 23.5t39 62.5q0 20 -35 55 q-8 10 -178 86q-14 6 -86.5 37t-102.5 46t-94.5 49t-97 64.5t-71.5 73.5t-56.5 93.5t-17.5 107.5zM301 811q0 -20 6 -38.5t15.5 -33t29 -31t32.5 -25.5t44 -24.5t48.5 -23.5t56 -25.5t57.5 -25.5q164 -76 174 -82l61 -31q90 68 90 166q0 47 -26 82q-16 20 -42 40.5t-50.5 36 t-69.5 36t-72.5 31.5t-89 36t-88.5 35l-55 22q-121 -43 -121 -145z" />
<glyph unicode="&#xa8;" horiz-adv-x="555" d="M-43 1202v244h231v-244h-231zM367 1202v244h233v-244h-233z" />
<glyph unicode="&#xa9;" horiz-adv-x="1603" d="M41 723q0 315 223 537.5t537 222.5q315 0 538.5 -222.5t223.5 -537.5t-223.5 -537.5t-536.5 -222.5q-315 0 -538.5 222.5t-223.5 537.5zM203 723q0 -248 175 -424t423 -176t424 176t176 424t-176 424t-424 176t-423 -176t-175 -424zM383 735v2q0 86 31 172 q49 135 156.5 203t238.5 68q201 0 299 -142q33 -45 63 -139l-182 -45q-8 61 -51 110.5t-129 49.5q-90 0 -159.5 -71t-69.5 -212q0 -145 67.5 -219t161.5 -74q88 0 137 55.5t68 118.5l174 -71l-8 -21q-35 -86 -91.5 -142t-119 -77.5t-99 -28t-73.5 -6.5q-180 0 -290 117 t-122 297q-2 27 -2 55z" />
<glyph unicode="&#xaa;" horiz-adv-x="681" d="M74 1044q0 78 57 127q39 31 171 60t147 35v10q0 76 -97 76q-109 0 -108 -84l-144 10q0 51 31 94q63 90 223 90q164 0 217 -90q16 -25 17 -72v-311q-1 -78 24 -117h-141q-14 41 -14 46q-86 -57 -183 -58q-82 0 -141 49t-59 135zM223 1044q0 -59 82 -59h2q14 0 30.5 3 t44.5 11.5t45 30.5t17 55v62l-141 -33q-80 -16 -80 -70z" />
<glyph unicode="&#xab;" horiz-adv-x="884" d="M111 500v288l290 230v-230l-180 -147l180 -141v-228zM481 500v288l293 234v-234l-176 -145l176 -143v-230z" />
<glyph unicode="&#xac;" horiz-adv-x="1150" d="M12 647v201h1127v-551h-199v350h-928z" />
<glyph unicode="&#xad;" d="M109 528v232h507v-232h-507z" />
<glyph unicode="&#xae;" horiz-adv-x="1603" d="M41 723q0 315 223 537.5t537 222.5q315 0 538.5 -222.5t223.5 -537.5t-223.5 -537.5t-536.5 -222.5q-315 0 -538.5 222.5t-223.5 537.5zM203 723q0 -248 175 -424t423 -176t424 176t176 424t-176 424t-424 176t-423 -176t-175 -424zM475 289v868h287h33q86 0 129 -10 q98 -20 156.5 -93t58.5 -171.5t-50.5 -159.5t-115.5 -84l194 -350h-209l-172 315h-129v-315h-182zM657 756h88q102 0 142 16q65 27 65 107q0 84 -84 112q-23 8 -61 8h-29h-121v-243z" />
<glyph unicode="&#xaf;" horiz-adv-x="555" d="M-72 1200v184h699v-184h-699z" />
<glyph unicode="&#xb0;" horiz-adv-x="827" d="M61 1093.5q0 145.5 103.5 249t249 103.5t249 -103.5t103.5 -249t-103.5 -249t-249 -103.5t-249 103.5t-103.5 249zM242 1093.5q0 -69.5 51 -120.5t120.5 -51t121 51t51.5 120.5t-51.5 121t-121 51.5t-120.5 -51.5t-51 -121z" />
<glyph unicode="&#xb1;" horiz-adv-x="1150" d="M12 0v199h1127v-199h-1127zM12 694v201h467v428h197v-428h463v-201h-463v-428h-197v428h-467z" />
<glyph unicode="&#xb2;" horiz-adv-x="768" d="M61 1028q4 131 41 209q76 158 273 158q88 0 152.5 -30t96 -75t46 -88t14.5 -84q0 -123 -70.5 -221t-277.5 -260h366v-162h-639v150q129 84 229.5 180t137.5 153q43 70 43 144q0 61 -30.5 88t-69.5 27q-43 0 -66.5 -21.5t-30 -44.5t-12.5 -66q-6 -12 -6 -69z" />
<glyph unicode="&#xb3;" horiz-adv-x="768" d="M49 764v27h199q4 -68 16 -95q33 -70 113 -69q59 0 97 34.5t38 90.5q0 102 -111 118q-29 4 -63 4h-35v162h66q45 0 67 8q57 20 58 86q0 59 -34 81t-69 22q-113 0 -125 -139l-194 43q59 258 323 258q180 0 262 -123q39 -57 39 -127q0 -135 -135 -184l-2 -3 q156 -54 156 -206q0 -139 -96.5 -215t-235.5 -76q-240 0 -313 178q-20 49 -21 125z" />
<glyph unicode="&#xb4;" horiz-adv-x="555" d="M74 1174l102 272h303l-221 -272h-184z" />
<glyph unicode="&#xb5;" horiz-adv-x="1185" d="M127 -334v1358h248v-528q0 -289 217 -289q78 0 131 41t71.5 108.5t18.5 184.5v483h246v-1024h-246v106q-29 -33 -33 -36q-55 -55 -97 -75t-105 -20q-74 0 -118 27t-85 78v-414h-248z" />
<glyph unicode="&#xb6;" horiz-adv-x="1079" d="M61 1014v4q0 166 82 267t191 136q76 25 176 25h10h490v-135h-72v-1653h-143v1653h-271v-1653h-143v969q-84 16 -133 45q-63 37 -105.5 90t-57.5 108.5t-19.5 86t-4.5 57.5z" />
<glyph unicode="&#xb7;" horiz-adv-x="425" d="M78 504v280h270v-280h-270z" />
<glyph unicode="&#xb8;" horiz-adv-x="555" d="M72 -188l204 213h93l-93 -119h17q66 0 128 -29.5t62 -99.5q0 -51 -37 -88q-68 -70 -278 -70q-70 0 -86 2v64q16 -2 35 -2q131 0 131 51t-135 51q-29 0 -41 -4v31z" />
<glyph unicode="&#xb9;" horiz-adv-x="768" d="M100 1079v142q125 4 164 24q76 35 86 148h166v-916h-194v561q0 25 -14.5 33t-53.5 8h-154z" />
<glyph unicode="&#xba;" horiz-adv-x="681" d="M49 1155q0 129 80 218t209 89q135 0 215 -88t80 -221q0 -49 -17 -104q-25 -78 -94 -138.5t-184 -60.5q-129 0 -209 89t-80 216zM199 1157q0 -25 8 -65q29 -113 135 -113q57 0 101 46t44 136q0 66 -32.5 120t-104.5 54q-57 0 -104 -44t-47 -134z" />
<glyph unicode="&#xbb;" horiz-adv-x="886" d="M111 264v232l176 147l-176 141v232l292 -232v-288zM485 268v228l179 149l-179 139v230l291 -230v-288z" />
<glyph unicode="&#xbc;" horiz-adv-x="1792" d="M39 1079v142q125 4 164 24q76 35 86 148h166v-916h-195v561q0 25 -14.5 33t-52.5 8h-154zM432 -8l655 1401l158 -74l-653 -1399zM1026 203v139l401 563h187v-543h115v-163h-121v-199h-185v203h-397zM1212 365h218l4 311z" />
<glyph unicode="&#xbd;" horiz-adv-x="1792" d="M29 1079v142q125 4 164 24q76 35 86 148h165v-916h-194v561q0 25 -14.5 33t-53.5 8h-153zM383 -8l655 1401l158 -74l-653 -1399zM1034 553q4 131 41 209q76 158 273 158q88 0 152.5 -30t96 -75t46 -88t14.5 -84q0 -123 -70.5 -221t-277.5 -260h366v-162h-639v150 q129 84 229.5 180t137.5 153q43 70 43 144q0 61 -31 87.5t-69 26.5q-43 0 -67 -21.5t-30 -44t-12 -65.5q-6 -12 -6 -69z" />
<glyph unicode="&#xbe;" horiz-adv-x="1792" d="M61 764v27h199q4 -68 16 -95q33 -70 113 -69q59 0 97 34.5t38 90.5q0 102 -110 118q-29 4 -64 4h-35v162h66q45 0 68 8q57 20 57 86q0 59 -34 81t-69 22q-113 0 -124 -139l-195 43q59 258 324 258q180 0 262 -123q39 -57 39 -127q0 -135 -136 -184l-2 -3 q156 -54 156 -206q0 -139 -96 -215t-236 -76q-240 0 -313 178q-20 49 -21 125zM551 -8l655 1401l156 -74l-651 -1399zM1087 203v139l402 563h186v-543h115v-163h-121v-199h-184v203h-398zM1274 365h217l4 311z" />
<glyph unicode="&#xbf;" horiz-adv-x="1089" d="M59 395q0 195 152 322q12 10 24.5 19t28 18.5t25.5 17.5q90 63 111.5 106.5t21.5 137.5v57h242v-51q0 -221 -58 -303q-25 -35 -78 -78q-14 -10 -46.5 -30.5t-56.5 -40t-44 -46.5q-39 -51 -39 -114q0 -90 65.5 -145.5t149.5 -55.5q63 0 111.5 24.5t72 57.5t38 75 t17.5 66.5t3 44.5l248 -28q-12 -123 -39 -191q-49 -123 -165 -203t-300 -80q-113 0 -207 35q-111 43 -194 137.5t-83 247.5zM406 1165v281h272v-281h-272z" />
<glyph unicode="&#xc0;" horiz-adv-x="1290" d="M0 0l489 1446h308l493 -1446h-289l-83 283h-543l-84 -283h-291zM342 1833h291l110 -248h-182zM446 520h400l-199 666z" />
<glyph unicode="&#xc1;" horiz-adv-x="1290" d="M0 0l489 1446h308l493 -1446h-289l-83 283h-543l-84 -283h-291zM446 520h400l-199 666zM510 1587l111 246h292l-219 -246h-184z" />
<glyph unicode="&#xc2;" horiz-adv-x="1290" d="M0 0l489 1446h308l493 -1446h-289l-83 283h-543l-84 -283h-291zM322 1583l206 250h242l215 -250h-250l-86 115l-86 -115h-241zM446 520h400l-199 666z" />
<glyph unicode="&#xc3;" horiz-adv-x="1290" d="M0 0l489 1446h308l493 -1446h-289l-83 283h-543l-84 -283h-291zM258 1575q14 84 21 100q57 158 192 158q84 0 182 -49l19 -6q20 -8 45.5 -15.5t42.5 -7.5q18 0 31.5 6t20.5 17.5t11 19.5t8.5 20.5t4.5 14.5h159l-2 -14q-2 -12 -4 -29.5t-9 -41.5t-16.5 -47.5t-24.5 -47 t-35.5 -41t-50.5 -28.5t-65 -11q-55 0 -186 49q-57 29 -113 29q-12 0 -22 -4.5t-17.5 -10.5t-12.5 -13t-9 -15.5t-6 -14.5l-4 -12v-6h-160zM446 520h400l-199 666z" />
<glyph unicode="&#xc4;" horiz-adv-x="1290" d="M0 0l489 1446h308l493 -1446h-289l-83 283h-543l-84 -283h-291zM324 1581v252h231v-252h-231zM446 520h400l-199 666zM733 1581v252h234v-252h-234z" />
<glyph unicode="&#xc5;" horiz-adv-x="1290" d="M0 0l489 1446h308l493 -1446h-289l-83 283h-543l-84 -283h-291zM432 1765q0 86 60.5 146.5t146.5 60.5t146.5 -60.5t60.5 -146.5t-60.5 -146t-146.5 -60t-146.5 60t-60.5 146zM446 520h400l-199 666zM553 1765.5q0 -34.5 25.5 -60.5t60.5 -26t60.5 26t25.5 60.5t-25.5 60 t-60.5 25.5t-60.5 -25.5t-25.5 -60z" />
<glyph unicode="&#xc6;" horiz-adv-x="2072" d="M-20 0l856 1446h1185v-242h-753v-344h655v-237h-655v-377h784v-246h-1057v338h-508l-192 -338h-315zM625 582h370v661z" />
<glyph unicode="&#xc7;" horiz-adv-x="1429" d="M96 719v29q0 154 47 288q80 223 255 335t388 112q324 0 486 -234q53 -76 98 -213l-268 -69q-4 39 -22.5 81t-52.5 86t-97.5 72.5t-143.5 28.5q-158 0 -277.5 -125t-119.5 -373q0 -254 116 -386t281 -132q82 0 150 33t108.5 84t63 93t33.5 81l256 -107l-8 -20 q-41 -104 -105.5 -183t-126 -122t-134.5 -69.5t-121 -35t-97 -10.5l-45 -57h16q66 0 128.5 -30t62.5 -99q0 -51 -37 -88q-68 -70 -279 -70q-70 0 -86 2v64q16 -2 35 -2q131 0 131 51t-135 51q-29 0 -41 -4v31l147 153q-156 14 -278 90q-109 66 -180.5 164t-100 201.5 t-38 170t-9.5 128.5z" />
<glyph unicode="&#xc8;" horiz-adv-x="1253" d="M154 0v1446h1028v-242h-762v-340h698v-233h-698v-387h813v-244h-1079zM432 1833h291l111 -248h-183z" />
<glyph unicode="&#xc9;" horiz-adv-x="1253" d="M154 0v1446h1028v-242h-762v-340h698v-233h-698v-387h813v-244h-1079zM573 1587l111 246h293l-219 -246h-185z" />
<glyph unicode="&#xca;" horiz-adv-x="1253" d="M154 0v1446h1028v-242h-762v-340h698v-233h-698v-387h813v-244h-1079zM342 1583l207 250h242l215 -250h-250l-86 115l-86 -115h-242z" />
<glyph unicode="&#xcb;" horiz-adv-x="1253" d="M154 0v1446h1028v-242h-762v-340h698v-233h-698v-387h813v-244h-1079zM369 1581v252h231v-252h-231zM778 1581v252h234v-252h-234z" />
<glyph unicode="&#xcc;" horiz-adv-x="573" d="M35 1833h291l110 -248h-182zM154 0v1446h266v-1446h-266z" />
<glyph unicode="&#xcd;" horiz-adv-x="573" d="M137 1587l111 246h293l-219 -246h-185zM154 0v1446h266v-1446h-266z" />
<glyph unicode="&#xce;" horiz-adv-x="573" d="M-45 1583l207 250h241l215 -250h-249l-86 115l-86 -115h-242zM154 0v1446h266v-1446h-266z" />
<glyph unicode="&#xcf;" horiz-adv-x="573" d="M-37 1581v252h232v-252h-232zM154 0v1446h266v-1446h-266zM373 1581v252h233v-252h-233z" />
<glyph unicode="&#xd0;" horiz-adv-x="1474" d="M14 668v184h140v594h518q172 0 274 -33q188 -61 310 -241t122 -463q0 -229 -90 -402q-39 -74 -90 -128t-111.5 -87t-113.5 -52.5t-126 -27.5t-117 -10t-116 -2h-460v668h-140zM424 244h115q221 0 301 22q129 35 190.5 141.5t61.5 303.5v26q0 37 -4.5 76t-20.5 100.5 t-46 111.5t-87 95t-135 66q-66 16 -232 16h-143v-350h315v-184h-315v-424z" />
<glyph unicode="&#xd1;" horiz-adv-x="1425" d="M154 0v1446h243l641 -1020l-32 1020h266v-1446h-238l-633 1014l17 -1014h-264zM358 1575q14 84 21 100q57 158 192 158q84 0 183 -49l20 -6q18 -8 44 -15.5t42 -7.5q18 0 31.5 6t21 17.5t11.5 19.5t8 20.5t4 14.5h160l-2 -14q-2 -12 -4.5 -29.5t-9.5 -41.5t-16 -47.5 t-24.5 -47t-36 -41t-50 -28.5t-64.5 -11q-55 0 -187 49q-57 29 -112 29q-12 0 -22.5 -4.5t-17.5 -10.5t-12.5 -13t-9.5 -15.5t-6 -14.5t-2 -12l-2 -6h-160z" />
<glyph unicode="&#xd2;" horiz-adv-x="1579" d="M96 717q0 233 93.5 400t228.5 255q166 111 377 111q207 0 376 -113q312 -211 312 -647q0 -139 -41 -274q-18 -61 -49 -121t-85.5 -128.5t-123 -118.5t-172 -84t-221.5 -34q-172 0 -304 66q-158 78 -274.5 257t-116.5 431zM375 733q0 -258 127 -388t293 -130 q68 0 135 25.5t132.5 78t106.5 149.5t41 226q0 102 -20 191q-12 49 -33.5 97t-65.5 111.5t-121 102.5t-175 39q-76 0 -146.5 -26.5t-134 -83t-101.5 -158t-38 -234.5zM539 1833h290l111 -248h-182z" />
<glyph unicode="&#xd3;" horiz-adv-x="1579" d="M96 717q0 233 93.5 400t228.5 255q166 111 377 111q207 0 376 -113q312 -211 312 -647q0 -139 -41 -274q-18 -61 -49 -121t-85.5 -128.5t-123 -118.5t-172 -84t-221.5 -34q-172 0 -304 66q-158 78 -274.5 257t-116.5 431zM375 733q0 -258 127 -388t293 -130 q68 0 135 25.5t132.5 78t106.5 149.5t41 226q0 102 -20 191q-12 49 -33.5 97t-65.5 111.5t-121 102.5t-175 39q-76 0 -146.5 -26.5t-134 -83t-101.5 -158t-38 -234.5zM645 1587l111 246h293l-220 -246h-184z" />
<glyph unicode="&#xd4;" horiz-adv-x="1579" d="M96 717q0 233 93.5 400t228.5 255q166 111 377 111q207 0 376 -113q312 -211 312 -647q0 -139 -41 -274q-18 -61 -49 -121t-85.5 -128.5t-123 -118.5t-172 -84t-221.5 -34q-172 0 -304 66q-158 78 -274.5 257t-116.5 431zM375 733q0 -258 127 -388t293 -130 q68 0 135 25.5t132.5 78t106.5 149.5t41 226q0 102 -20 191q-12 49 -33.5 97t-65.5 111.5t-121 102.5t-175 39q-76 0 -146.5 -26.5t-134 -83t-101.5 -158t-38 -234.5zM449 1583l206 250h242l215 -250h-250l-86 115l-86 -115h-241z" />
<glyph unicode="&#xd5;" horiz-adv-x="1579" d="M96 717q0 233 93.5 400t228.5 255q166 111 377 111q207 0 376 -113q312 -211 312 -647q0 -139 -41 -274q-18 -61 -49 -121t-85.5 -128.5t-123 -118.5t-172 -84t-221.5 -34q-172 0 -304 66q-158 78 -274.5 257t-116.5 431zM375 733q0 -258 127 -388t293 -130 q68 0 135 25.5t132.5 78t106.5 149.5t41 226q0 102 -20 191q-12 49 -33.5 97t-65.5 111.5t-121 102.5t-175 39q-76 0 -146.5 -26.5t-134 -83t-101.5 -158t-38 -234.5zM444 1575q14 84 21 100q57 158 192 158q84 0 183 -49l20 -6q18 -8 44 -15.5t42 -7.5q18 0 31.5 6t21 17.5 t11.5 19.5t8 20.5t4 14.5h160l-2 -14q-2 -12 -4 -29.5t-9.5 -41.5t-16.5 -47.5t-24.5 -47t-36 -41t-50 -28.5t-64.5 -11q-55 0 -187 49q-57 29 -112 29q-12 0 -22.5 -4.5t-17.5 -10.5t-12.5 -13t-9.5 -15.5t-6 -14.5t-2 -12l-2 -6h-160z" />
<glyph unicode="&#xd6;" horiz-adv-x="1579" d="M96 717q0 233 93.5 400t228.5 255q166 111 377 111q207 0 376 -113q312 -211 312 -647q0 -139 -41 -274q-18 -61 -49 -121t-85.5 -128.5t-123 -118.5t-172 -84t-221.5 -34q-172 0 -304 66q-158 78 -274.5 257t-116.5 431zM375 733q0 -258 127 -388t293 -130 q68 0 135 25.5t132.5 78t106.5 149.5t41 226q0 102 -20 191q-12 49 -33.5 97t-65.5 111.5t-121 102.5t-175 39q-76 0 -146.5 -26.5t-134 -83t-101.5 -158t-38 -234.5zM451 1581v252h231v-252h-231zM860 1581v252h234v-252h-234z" />
<glyph unicode="&#xd7;" horiz-adv-x="1150" d="M66 201l370 372l-368 369l137 139l370 -370l373 370l135 -139l-368 -369l370 -372l-137 -135l-373 368l-368 -368z" />
<glyph unicode="&#xd8;" horiz-adv-x="1579" d="M45 203l143 127q-92 174 -92 387q0 233 93.5 400t228.5 255q166 111 377 111q207 0 376 -113q49 -35 99 -80l123 109l120 -137l-133 -119q102 -178 103 -420q0 -139 -41 -274q-18 -61 -49 -121t-85.5 -128.5t-123 -118.5t-172 -84t-221.5 -34q-172 0 -304 66 q-109 55 -196 153l-129 -114zM375 733q0 -115 28 -211l670 592q-106 121 -278 121q-76 0 -146.5 -26.5t-134 -83t-101.5 -158t-38 -234.5zM492 358q117 -143 303 -143q68 0 135 25.5t132.5 78t106.5 149.5t41 226q0 102 -20 191q-6 31 -23 71z" />
<glyph unicode="&#xd9;" horiz-adv-x="1431" d="M133 586v860h273v-924q0 -92 18 -137q59 -160 292.5 -160t295.5 172q16 49 16 174v875h270v-834v-90q0 -154 -22 -223q-49 -152 -196.5 -244t-374.5 -92q-223 0 -366.5 95.5t-186.5 246.5q-18 66 -19 281zM436 1833h291l111 -248h-183z" />
<glyph unicode="&#xda;" horiz-adv-x="1431" d="M133 586v860h273v-924q0 -92 18 -137q59 -160 292.5 -160t295.5 172q16 49 16 174v875h270v-834v-90q0 -154 -22 -223q-49 -152 -196.5 -244t-374.5 -92q-223 0 -366.5 95.5t-186.5 246.5q-18 66 -19 281zM600 1587l111 246h293l-220 -246h-184z" />
<glyph unicode="&#xdb;" horiz-adv-x="1431" d="M133 586v860h273v-924q0 -92 18 -137q59 -160 292.5 -160t295.5 172q16 49 16 174v875h270v-834v-90q0 -154 -22 -223q-49 -152 -196.5 -244t-374.5 -92q-223 0 -366.5 95.5t-186.5 246.5q-18 66 -19 281zM389 1583l207 250h242l215 -250h-250l-86 115l-86 -115h-242z " />
<glyph unicode="&#xdc;" horiz-adv-x="1431" d="M133 586v860h273v-924q0 -92 18 -137q59 -160 292.5 -160t295.5 172q16 49 16 174v875h270v-834v-90q0 -154 -22 -223q-49 -152 -196.5 -244t-374.5 -92q-223 0 -366.5 95.5t-186.5 246.5q-18 66 -19 281zM395 1581v252h232v-252h-232zM805 1581v252h233v-252h-233z" />
<glyph unicode="&#xdd;" horiz-adv-x="1239" d="M0 1446h307l314 -598l315 598h303l-487 -875v-571h-269v571zM518 1587l111 246h293l-220 -246h-184z" />
<glyph unicode="&#xde;" horiz-adv-x="1275" d="M154 0v1446h270v-205h217q102 0 165.5 -6t160 -48t161.5 -124q101 -121 101 -295q0 -172 -80 -289q-57 -84 -148.5 -129t-159 -54t-157.5 -9h-260v-287h-270zM424 508h194q131 0 201 28.5t107 108.5q24 53 24 127q0 82 -35 133q-41 63 -104 84t-180 21h-207v-502z" />
<glyph unicode="&#xdf;" horiz-adv-x="1148" d="M127 0v1012v47q0 98 18 158q23 72 73 125t112.5 79.5t121 37.5t115.5 11q72 0 148 -20t146.5 -60t115.5 -114t45 -166q0 -25 -5 -50.5t-20.5 -69.5t-57.5 -83t-103 -61q80 -35 104 -58q133 -108 133 -333q0 -217 -109.5 -344t-297.5 -127q-125 0 -201 32v238 q76 -45 141 -45q82 0 145.5 64.5t63.5 193.5q0 283 -313 283q-8 0 -19.5 -1t-17.5 -1v184q45 -4 63 -4q84 0 148.5 42t64.5 130q0 57 -38.5 104t-127.5 47q-76 0 -120 -28q-80 -51 -80 -199v-51v-973h-248z" />
<glyph unicode="&#xe0;" horiz-adv-x="1110" d="M53 297q0 104 64 186q20 27 41.5 46.5t51.5 36t50.5 26.5t60 20.5t57 14.5t67 13t63.5 13q98 18 225 58q0 63 -18 90q-45 63 -166 63q-76 0 -137.5 -31.5t-61.5 -109.5v-12l-250 14q0 74 37 143q100 186 420 187q322 0 399 -174q23 -47 23 -150v-588q0 -73 45 -143h-291 q-4 57 -4 80q-47 -39 -129 -72t-174 -33q-150 0 -261.5 84t-111.5 238zM270 1446h305l105 -272h-182zM313 307q0 -55 42 -88t124 -33q70 0 139.5 28t102.5 93q12 27 12 70v6v127q-74 -33 -165 -50.5t-147 -31.5t-85 -53q-23 -29 -23 -68z" />
<glyph unicode="&#xe1;" horiz-adv-x="1110" d="M53 297q0 104 64 186q20 27 41.5 46.5t51.5 36t50.5 26.5t60 20.5t57 14.5t67 13t63.5 13q98 18 225 58q0 63 -18 90q-45 63 -166 63q-76 0 -137.5 -31.5t-61.5 -109.5v-12l-250 14q0 74 37 143q100 186 420 187q322 0 399 -174q23 -47 23 -150v-588q0 -73 45 -143h-291 q-4 57 -4 80q-47 -39 -129 -72t-174 -33q-150 0 -261.5 84t-111.5 238zM313 307q0 -55 42 -88t124 -33q70 0 139.5 28t102.5 93q12 27 12 70v6v127q-74 -33 -165 -50.5t-147 -31.5t-85 -53q-23 -29 -23 -68zM426 1174l102 272h303l-221 -272h-184z" />
<glyph unicode="&#xe2;" horiz-adv-x="1110" d="M53 297q0 104 64 186q20 27 41.5 46.5t51.5 36t50.5 26.5t60 20.5t57 14.5t67 13t63.5 13q98 18 225 58q0 63 -18 90q-45 63 -166 63q-76 0 -137.5 -31.5t-61.5 -109.5v-12l-250 14q0 74 37 143q100 186 420 187q322 0 399 -174q23 -47 23 -150v-588q0 -73 45 -143h-291 q-4 57 -4 80q-47 -39 -129 -72t-174 -33q-150 0 -261.5 84t-111.5 238zM199 1171l227 275h242l229 -275h-252l-96 138l-103 -138h-247zM313 307q0 -55 42 -88t124 -33q70 0 139.5 28t102.5 93q12 27 12 70v6v127q-74 -33 -165 -50.5t-147 -31.5t-85 -53q-23 -29 -23 -68z " />
<glyph unicode="&#xe3;" horiz-adv-x="1110" d="M53 297q0 104 64 186q20 27 41.5 46.5t51.5 36t50.5 26.5t60 20.5t57 14.5t67 13t63.5 13q98 18 225 58q0 63 -18 90q-45 63 -166 63q-76 0 -137.5 -31.5t-61.5 -109.5v-12l-250 14q0 74 37 143q100 186 420 187q322 0 399 -174q23 -47 23 -150v-588q0 -73 45 -143h-291 q-4 57 -4 80q-47 -39 -129 -72t-174 -33q-150 0 -261.5 84t-111.5 238zM178 1196q12 82 21 102q57 156 192 156q57 0 182 -47q57 -29 107 -29q16 0 29.5 5.5t21.5 14.5t12.5 16t8.5 18.5t4 13.5h159l-2 -8l-4 -17q-2 -16 -6 -36.5t-13 -47t-24.5 -51t-36 -46t-52.5 -34 t-68 -12.5q-55 0 -187 49q-61 31 -112 31q-12 0 -22.5 -4t-18 -10.5t-12.5 -14.5t-9 -16t-6 -14.5t-2 -12.5l-2 -6h-160zM313 307q0 -55 42 -88t124 -33q70 0 139.5 28t102.5 93q12 27 12 70v6v127q-74 -33 -165 -50.5t-147 -31.5t-85 -53q-23 -29 -23 -68z" />
<glyph unicode="&#xe4;" horiz-adv-x="1110" d="M53 297q0 104 64 186q20 27 41.5 46.5t51.5 36t50.5 26.5t60 20.5t57 14.5t67 13t63.5 13q98 18 225 58q0 63 -18 90q-45 63 -166 63q-76 0 -137.5 -31.5t-61.5 -109.5v-12l-250 14q0 74 37 143q100 186 420 187q322 0 399 -174q23 -47 23 -150v-588q0 -73 45 -143h-291 q-4 57 -4 80q-47 -39 -129 -72t-174 -33q-150 0 -261.5 84t-111.5 238zM238 1202v244h231v-244h-231zM313 307q0 -55 42 -88t124 -33q70 0 139.5 28t102.5 93q12 27 12 70v6v127q-74 -33 -165 -50.5t-147 -31.5t-85 -53q-23 -29 -23 -68zM647 1202v244h234v-244h-234z" />
<glyph unicode="&#xe5;" horiz-adv-x="1110" d="M53 297q0 104 64 186q20 27 41.5 46.5t51.5 36t50.5 26.5t60 20.5t57 14.5t67 13t63.5 13q98 18 225 58q0 63 -18 90q-45 63 -166 63q-76 0 -137.5 -31.5t-61.5 -109.5v-12l-250 14q0 74 37 143q100 186 420 187q322 0 399 -174q23 -47 23 -150v-588q0 -73 45 -143h-291 q-4 57 -4 80q-47 -39 -129 -72t-174 -33q-150 0 -261.5 84t-111.5 238zM313 307q0 -55 42 -88t124 -33q70 0 139.5 28t102.5 93q12 27 12 70v6v127q-74 -33 -165 -50.5t-147 -31.5t-85 -53q-23 -29 -23 -68zM362 1354q0 86 60.5 146.5t146.5 60.5t146.5 -60.5t60.5 -146.5 t-60.5 -146.5t-146.5 -60.5t-146.5 60.5t-60.5 146.5zM483 1354q0 -35 26 -60.5t60.5 -25.5t60 25.5t25.5 60.5t-25.5 60.5t-60 25.5t-60.5 -25.5t-26 -60.5z" />
<glyph unicode="&#xe6;" horiz-adv-x="1781" d="M53 274q0 53 16.5 99.5t39 78t64.5 60.5t72.5 45t87 33.5t83 24t85 18.5t70.5 14q76 16 168 49q0 6 -2 27.5t-5 37t-11 30.5q-47 86 -172 86q-104 0 -155.5 -49.5t-51.5 -116.5h-238q10 145 111.5 244.5t323.5 99.5q168 0 268 -68q16 -12 32.5 -25.5t28 -25.5t15.5 -14 q74 66 145.5 99.5t190.5 33.5q131 0 232 -48.5t159.5 -130t87 -182t28.5 -213.5v-16h-747q14 -152 93 -214.5t171 -62.5q68 0 123 27t74.5 46.5t60.5 66.5l197 -119q-88 -106 -200 -173t-281 -67q-147 0 -283 80q-49 25 -96 72q-168 -152 -392 -152h-24q-217 0 -313 135 q-55 80 -56 170zM313 285q0 -55 42 -95t128 -40q88 0 146.5 40.5t83.5 100.5q26 57 26 168v33q-23 -10 -48 -18.5t-44.5 -13.5t-68 -14.5t-78.5 -15.5q-78 -16 -101 -29q-37 -14 -57 -39q-29 -35 -29 -77zM981 641h455q-18 96 -78 155.5t-152 59.5t-154.5 -60.5 t-70.5 -154.5z" />
<glyph unicode="&#xe7;" horiz-adv-x="1050" d="M76 508v4q0 223 143 383t373 160q174 0 283.5 -88t158.5 -203l-219 -102q-18 55 -51 94t-70 54t-61.5 20.5t-44.5 5.5q-133 0 -195.5 -97.5t-62.5 -220.5t63.5 -221t196.5 -98q57 0 101 18.5t74 59t40 59t31 63.5l208 -110q-37 -113 -152.5 -214.5t-291.5 -105.5l-49 -63 h16q66 0 128.5 -30t62.5 -99q0 -51 -37 -88q-68 -70 -279 -70q-70 0 -86 2v64q16 -2 35 -2q131 0 131 51t-135 51q-29 0 -41 -4v31l158 163q-88 14 -174 62q-86 49 -143.5 122.5t-78 151.5t-26.5 120t-6 77z" />
<glyph unicode="&#xe8;" horiz-adv-x="1157" d="M76 512q0 154 49 260q55 119 169 201t292 82q281 0 415 -209q39 -61 62.5 -159.5t27 -146.5t3.5 -77h-758q14 -80 49 -135.5t82 -79t83 -31.5t73 -8q176 0 270 141l209 -121q-70 -84 -92 -104q-174 -156 -408 -156q-178 0 -298 84t-175 199q-53 113 -53 260zM319 1446 h306l104 -272h-182zM344 643h479q-33 215 -229 215h-2q-162 0 -227 -145q-20 -45 -21 -70z" />
<glyph unicode="&#xe9;" horiz-adv-x="1157" d="M76 512q0 154 49 260q55 119 169 201t292 82q281 0 415 -209q39 -61 62.5 -159.5t27 -146.5t3.5 -77h-758q14 -80 49 -135.5t82 -79t83 -31.5t73 -8q176 0 270 141l209 -121q-70 -84 -92 -104q-174 -156 -408 -156q-178 0 -298 84t-175 199q-53 113 -53 260zM344 643h479 q-33 215 -229 215h-2q-162 0 -227 -145q-20 -45 -21 -70zM459 1174l102 272h303l-221 -272h-184z" />
<glyph unicode="&#xea;" horiz-adv-x="1157" d="M76 512q0 154 49 260q55 119 169 201t292 82q281 0 415 -209q39 -61 62.5 -159.5t27 -146.5t3.5 -77h-758q14 -80 49 -135.5t82 -79t83 -31.5t73 -8q176 0 270 141l209 -121q-70 -84 -92 -104q-174 -156 -408 -156q-178 0 -298 84t-175 199q-53 113 -53 260zM238 1171 l227 275h242l229 -275h-252l-96 138l-103 -138h-247zM344 643h479q-33 215 -229 215h-2q-162 0 -227 -145q-20 -45 -21 -70z" />
<glyph unicode="&#xeb;" horiz-adv-x="1157" d="M76 512q0 154 49 260q55 119 169 201t292 82q281 0 415 -209q39 -61 62.5 -159.5t27 -146.5t3.5 -77h-758q14 -80 49 -135.5t82 -79t83 -31.5t73 -8q176 0 270 141l209 -121q-70 -84 -92 -104q-174 -156 -408 -156q-178 0 -298 84t-175 199q-53 113 -53 260zM285 1202 v244h231v-244h-231zM344 643h479q-33 215 -229 215h-2q-162 0 -227 -145q-20 -45 -21 -70zM694 1202v244h234v-244h-234z" />
<glyph unicode="&#xec;" horiz-adv-x="497" d="M-29 1446h305l105 -272h-182zM127 0v1024h244v-1024h-244z" />
<glyph unicode="&#xed;" horiz-adv-x="497" d="M94 1174l103 272h303l-221 -272h-185zM127 0v1024h244v-1024h-244z" />
<glyph unicode="&#xee;" horiz-adv-x="497" d="M-98 1171l227 275h242l229 -275h-252l-96 138l-102 -138h-248zM127 0v1024h244v-1024h-244z" />
<glyph unicode="&#xef;" horiz-adv-x="497" d="M-72 1202v244h232v-244h-232zM127 0v1024h244v-1024h-244zM338 1202v244h233v-244h-233z" />
<glyph unicode="&#xf0;" horiz-adv-x="1206" d="M76 510q0 145 49 253.5t160.5 201t281.5 92.5q121 0 209 -78q-25 102 -102 205l-334 -90l-39 108l293 80l-98 96l229 99q20 -18 38.5 -39t41 -46.5t37.5 -41.5l188 51l41 -109l-156 -43q68 -109 103 -182q112 -231 112 -489q0 -281 -141 -447q-139 -162 -385 -162 q-231 0 -375 148q-78 78 -114 180q-39 106 -39 213zM332 518q0 -129 71.5 -226t202.5 -97q135 0 200.5 97t65.5 228q0 70 -30 146q-74 168 -238 168q-133 0 -202.5 -93.5t-69.5 -222.5z" />
<glyph unicode="&#xf1;" horiz-adv-x="1148" d="M127 0v1024h248v-121q109 152 315 152h2q102 0 187 -49q84 -51 113.5 -131t29.5 -232v-643h-242v522v58q0 137 -65 196q-43 39 -115 39q-70 0 -119 -39q-106 -82 -106 -282v-494h-248zM215 1196q12 82 21 102q57 156 192 156q57 0 182 -47q57 -29 107 -29q16 0 29.5 5.5 t21.5 14.5t12 16t8.5 18.5t4.5 13.5h159l-2 -8l-4 -17q-2 -16 -6 -36.5t-13 -47t-24.5 -51t-36 -46t-52.5 -34t-69 -12.5q-55 0 -186 49q-61 31 -113 31q-12 0 -22 -4t-17.5 -10.5t-12.5 -14.5t-9 -16t-6 -14.5t-2 -12.5l-2 -6h-160z" />
<glyph unicode="&#xf2;" horiz-adv-x="1204" d="M76 520q0 227 145.5 381t378.5 154q236 0 382 -155.5t146 -395.5q0 -143 -59 -260q-57 -113 -173 -194t-290 -81q-236 0 -383 157t-147 394zM332 524q0 -133 72.5 -231t209.5 -98q129 0 193.5 96t64.5 215q0 84 -30 160q-72 168 -248 168q-125 0 -193.5 -93.5 t-68.5 -216.5zM365 1446h305l104 -272h-182z" />
<glyph unicode="&#xf3;" horiz-adv-x="1204" d="M76 520q0 227 145.5 381t378.5 154q236 0 382 -155.5t146 -395.5q0 -143 -59 -260q-57 -113 -173 -194t-290 -81q-236 0 -383 157t-147 394zM332 524q0 -133 72.5 -231t209.5 -98q129 0 193.5 96t64.5 215q0 84 -30 160q-72 168 -248 168q-125 0 -193.5 -93.5 t-68.5 -216.5zM485 1174l103 272h303l-221 -272h-185z" />
<glyph unicode="&#xf4;" horiz-adv-x="1204" d="M76 520q0 227 145.5 381t378.5 154q236 0 382 -155.5t146 -395.5q0 -143 -59 -260q-57 -113 -173 -194t-290 -81q-236 0 -383 157t-147 394zM260 1171l227 275h242l229 -275h-251l-97 138l-102 -138h-248zM332 524q0 -133 72.5 -231t209.5 -98q129 0 193.5 96t64.5 215 q0 84 -30 160q-72 168 -248 168q-125 0 -193.5 -93.5t-68.5 -216.5z" />
<glyph unicode="&#xf5;" horiz-adv-x="1204" d="M76 520q0 227 145.5 381t378.5 154q236 0 382 -155.5t146 -395.5q0 -143 -59 -260q-57 -113 -173 -194t-290 -81q-236 0 -383 157t-147 394zM231 1196q12 82 21 102q57 156 192 156q57 0 183 -47q57 -29 106 -29q16 0 29.5 5.5t22 14.5t12.5 16t8 18.5t4 13.5h160l-2 -8 l-4 -17q-2 -16 -6.5 -36.5t-13.5 -47t-24.5 -51t-36 -46t-52 -34t-68.5 -12.5q-55 0 -187 49q-61 31 -112 31q-12 0 -22.5 -4t-17.5 -10.5t-12 -14.5t-9.5 -16t-6.5 -14.5t-2 -12.5l-2 -6h-160zM332 524q0 -133 72.5 -231t209.5 -98q129 0 193.5 96t64.5 215q0 84 -30 160 q-72 168 -248 168q-125 0 -193.5 -93.5t-68.5 -216.5z" />
<glyph unicode="&#xf6;" horiz-adv-x="1204" d="M76 520q0 227 145.5 381t378.5 154q236 0 382 -155.5t146 -395.5q0 -143 -59 -260q-57 -113 -173 -194t-290 -81q-236 0 -383 157t-147 394zM285 1202v244h231v-244h-231zM332 524q0 -133 72.5 -231t209.5 -98q129 0 193.5 96t64.5 215q0 84 -30 160q-72 168 -248 168 q-125 0 -193.5 -93.5t-68.5 -216.5zM694 1202v244h234v-244h-234z" />
<glyph unicode="&#xf7;" horiz-adv-x="1150" d="M12 469v190h1127v-190h-1127zM451 284.5q0 51.5 36.5 88.5t88 37t88 -37t36.5 -88.5t-36.5 -88t-88 -36.5t-88 36.5t-36.5 88zM451 844q0 53 36.5 89t88 36t88 -36t36.5 -89t-36.5 -89t-88 -36t-88 36t-36.5 89z" />
<glyph unicode="&#xf8;" horiz-adv-x="1204" d="M23 158l114 92q-61 127 -61 270q0 227 145.5 381t378.5 154q217 0 365 -137l102 81l94 -114l-106 -86q74 -131 73 -295q0 -143 -59 -260q-57 -113 -173 -194t-290 -81q-238 0 -387 160l-108 -86zM332 524q0 -49 14 -106l428 346q-72 70 -180 70q-125 0 -193.5 -93.5 t-68.5 -216.5zM412 283q78 -88 202 -88q129 0 193.5 96t64.5 215q0 70 -20 131z" />
<glyph unicode="&#xf9;" horiz-adv-x="1185" d="M127 365v10v649h248v-582q0 -94 21.5 -141t80.5 -74q41 -20 96 -20q86 0 148 51q59 49 75.5 116.5t16.5 172.5v43v434h246v-1024h-246v106q-147 -131 -332 -131q-354 0 -354 390zM305 1446h305l105 -272h-183z" />
<glyph unicode="&#xfa;" horiz-adv-x="1185" d="M127 365v10v649h248v-582q0 -94 21.5 -141t80.5 -74q41 -20 96 -20q86 0 148 51q59 49 75.5 116.5t16.5 172.5v43v434h246v-1024h-246v106q-147 -131 -332 -131q-354 0 -354 390zM475 1174l103 272h303l-222 -272h-184z" />
<glyph unicode="&#xfb;" horiz-adv-x="1185" d="M127 365v10v649h248v-582q0 -94 21.5 -141t80.5 -74q41 -20 96 -20q86 0 148 51q59 49 75.5 116.5t16.5 172.5v43v434h246v-1024h-246v106q-147 -131 -332 -131q-354 0 -354 390zM236 1171l227 275h242l229 -275h-252l-96 138l-103 -138h-247z" />
<glyph unicode="&#xfc;" horiz-adv-x="1185" d="M127 365v10v649h248v-582q0 -94 21.5 -141t80.5 -74q41 -20 96 -20q86 0 148 51q59 49 75.5 116.5t16.5 172.5v43v434h246v-1024h-246v106q-147 -131 -332 -131q-354 0 -354 390zM258 1202v244h231v-244h-231zM668 1202v244h233v-244h-233z" />
<glyph unicode="&#xfd;" horiz-adv-x="937" d="M0 1024h264l230 -764l192 764h252l-260 -893q-8 -27 -23.5 -81t-22.5 -76.5t-20.5 -63.5t-23.5 -62.5t-24.5 -49t-31 -48t-34.5 -37.5q-74 -66 -224 -65q-86 0 -137 14v213q6 0 28.5 -3t37.5 -3q135 0 168 111zM381 1174l102 272h303l-221 -272h-184z" />
<glyph unicode="&#xfe;" horiz-adv-x="1193" d="M127 -334v1780h246v-514q123 123 289 123q219 0 337.5 -170t118.5 -381t-123 -373t-342 -162q-154 0 -280 115v-418h-246zM369 518q0 -84 26 -156q61 -160 223 -159q100 0 174 75.5t74 231.5q0 154 -74.5 231.5t-170.5 77.5q-98 0 -175 -73.5t-77 -227.5z" />
<glyph unicode="&#xff;" horiz-adv-x="937" d="M0 1024h264l230 -764l192 764h252l-260 -893q-8 -27 -23.5 -81t-22.5 -76.5t-20.5 -63.5t-23.5 -62.5t-24.5 -49t-31 -48t-34.5 -37.5q-74 -66 -224 -65q-86 0 -137 14v213q6 0 28.5 -3t37.5 -3q135 0 168 111zM158 1202v244h231v-244h-231zM567 1202v244h234v-244h-234z " />
<glyph unicode="&#x152;" horiz-adv-x="2226" d="M96 709q0 162 62 323q84 211 259 331t374 120q172 0 337 -99v62h1033v-246h-764v-346h665v-233h-665v-377h809v-244h-1078v51q-4 -2 -22.5 -11t-24.5 -12t-25.5 -11.5t-29.5 -12.5t-31.5 -11t-36 -10t-38 -7.5t-45 -6.5t-48 -4t-55.5 -2q-129 0 -239.5 42t-185.5 111.5 t-123 141.5t-77 145q-51 133 -51 306zM385 684q0 -43 7 -88t28.5 -116.5t78 -136t140.5 -103.5q80 -37 188 -37q174 0 263 106q34 41 38 76v545q0 111 -14 141q-31 61 -113.5 108.5t-187.5 47.5q-170 0 -299 -132t-129 -393v-18z" />
<glyph unicode="&#x153;" horiz-adv-x="1873" d="M76 496v2q0 145 47 254q51 119 167 211t294 92q231 0 362 -154q172 154 361 154q109 0 197.5 -36t144 -94.5t87 -114.5t50.5 -116q10 -35 17 -77t9.5 -71.5t4.5 -60t2 -32.5h-736q10 -63 25 -99q72 -166 242 -166q154 0 247 140l199 -119q-53 -74 -123 -129 q-143 -111 -344 -111q-184 0 -307 113q-49 49 -64 74q-141 -186 -364 -187h-8q-137 0 -232 43q-119 55 -198.5 177t-79.5 307zM324 506q0 -125 66.5 -219t195.5 -94q102 0 182 74.5t80 234.5q0 94 -31 164q-27 61 -85 110t-150 49q-131 0 -194.5 -97t-63.5 -222zM1083 627 h451q-55 213 -225 215h-2q-72 0 -136.5 -47t-87.5 -168z" />
<glyph unicode="&#x178;" horiz-adv-x="1239" d="M0 1446h307l314 -598l315 598h303l-487 -875v-571h-269v571zM299 1581v252h231v-252h-231zM709 1581v252h233v-252h-233z" />
<glyph unicode="&#x2c6;" horiz-adv-x="555" d="M-72 1171l228 275h241l230 -275h-252l-96 138l-103 -138h-248z" />
<glyph unicode="&#x2dc;" horiz-adv-x="555" d="M-92 1196q12 82 20 102q57 156 193 156q57 0 182 -47q57 -29 107 -29q16 0 29.5 5.5t21.5 14.5t12 16t8 18.5t4 13.5h160l-2 -8l-4 -17q-2 -16 -6 -36.5t-13.5 -47t-24.5 -51t-35.5 -46t-52.5 -34t-69 -12.5q-55 0 -186 49q-61 31 -113 31q-12 0 -22.5 -4t-17.5 -10.5 t-12 -14.5t-9 -16t-6 -14.5t-2 -12.5l-2 -6h-160z" />
<glyph unicode="&#x2000;" horiz-adv-x="986" />
<glyph unicode="&#x2001;" horiz-adv-x="1972" />
<glyph unicode="&#x2002;" horiz-adv-x="986" />
<glyph unicode="&#x2003;" horiz-adv-x="1972" />
<glyph unicode="&#x2004;" horiz-adv-x="657" />
<glyph unicode="&#x2005;" horiz-adv-x="493" />
<glyph unicode="&#x2006;" horiz-adv-x="328" />
<glyph unicode="&#x2007;" horiz-adv-x="328" />
<glyph unicode="&#x2008;" horiz-adv-x="246" />
<glyph unicode="&#x2009;" horiz-adv-x="394" />
<glyph unicode="&#x200a;" horiz-adv-x="109" />
<glyph unicode="&#x2010;" d="M109 528v232h507v-232h-507z" />
<glyph unicode="&#x2011;" d="M109 528v232h507v-232h-507z" />
<glyph unicode="&#x2012;" d="M109 528v232h507v-232h-507z" />
<glyph unicode="&#x2013;" horiz-adv-x="1024" d="M86 528v230h852v-230h-852z" />
<glyph unicode="&#x2014;" horiz-adv-x="2048" d="M86 528v230h1876v-230h-1876z" />
<glyph unicode="&#x2018;" horiz-adv-x="425" d="M80 893v266v27q0 45 6 78.5t28.5 77.5t77 77t138.5 47v-114q-59 -18 -83 -47t-24 -84v-43h123v-285h-266z" />
<glyph unicode="&#x2019;" horiz-adv-x="425" d="M80 1161v285h266v-266v-27q0 -45 -6 -79t-28.5 -78t-77 -76.5t-138.5 -47.5v115q59 18 83 47t24 84v43h-123z" />
<glyph unicode="&#x201a;" horiz-adv-x="425" d="M80 0v285h266v-267v-28q0 -45 -6 -79t-28.5 -78t-77 -76.5t-138.5 -47.5v115q49 16 75 41.5t29 43t3 48.5v43h-123z" />
<glyph unicode="&#x201c;" horiz-adv-x="768" d="M55 893v266v27q0 45 6.5 78.5t29 77.5t76.5 77t138 47v-114q-59 -18 -82.5 -47t-23.5 -84v-43h123v-285h-267zM446 893v266v27q0 45 6.5 78.5t29 77.5t76.5 77t138 47v-114q-59 -18 -82.5 -47t-23.5 -84v-43h123v-285h-267z" />
<glyph unicode="&#x201d;" horiz-adv-x="768" d="M55 1161v285h267v-266v-27q0 -45 -6.5 -79t-29 -78t-76.5 -76.5t-138 -47.5v115q59 18 82.5 47t23.5 84v43h-123zM446 1161v285h267v-266v-27q0 -45 -6.5 -79t-29 -78t-76.5 -76.5t-138 -47.5v115q59 18 82.5 47t23.5 84v43h-123z" />
<glyph unicode="&#x201e;" horiz-adv-x="768" d="M55 0v285h267v-267v-28q0 -45 -6.5 -79t-29 -78t-76.5 -76.5t-138 -47.5v115q49 16 74.5 41.5t28.5 43t3 48.5v43h-123zM446 0v285h267v-267v-28q0 -45 -6.5 -79t-29 -78t-76.5 -76.5t-138 -47.5v115q49 16 74.5 41.5t28.5 43t3 48.5v43h-123z" />
<glyph unicode="&#x2022;" horiz-adv-x="684" d="M51 721q0 119 85 205t206 86t206 -86t85 -205t-85 -205t-206 -86t-206 86t-85 205z" />
<glyph unicode="&#x2026;" horiz-adv-x="2048" d="M203 127q0 57 40 98t99 41t99 -41t40 -98t-40 -98t-99 -41t-99 41t-40 98zM885 127q0 57 41 98t98 41t98 -41t41 -98t-41 -98t-98 -41t-98 41t-41 98zM1569 127q0 57 41 98t98 41t98 -41t41 -98t-41 -98t-98 -41t-98 41t-41 98z" />
<glyph unicode="&#x202f;" horiz-adv-x="394" />
<glyph unicode="&#x2039;" horiz-adv-x="512" d="M111 500v288l290 234v-234l-176 -145l176 -143v-230z" />
<glyph unicode="&#x203a;" horiz-adv-x="512" d="M111 264v232l176 147l-176 141v232l290 -232v-288z" />
<glyph unicode="&#x205f;" horiz-adv-x="493" />
<glyph unicode="&#x20ac;" horiz-adv-x="1204" d="M35 432l82 191h73q-2 27 -2 79q0 47 2 72h-155l82 191h108q31 106 92.5 191t131 137.5t151.5 87t152.5 48t136.5 13.5q206 0 325 -66l-100 -202q-90 37 -207 36q-109 0 -210 -59t-158 -186h503l-81 -191h-467q-2 -23 -2 -72q0 -53 2 -79h407l-82 -191h-291 q84 -238 357 -237q174 0 305 81v-253q-147 -59 -342 -60q-76 0 -156 18.5t-177 64.5t-176 145.5t-118 240.5h-186z" />
<glyph unicode="&#x2122;" horiz-adv-x="1406" d="M6 1327v119h569v-119h-208v-561h-146v561h-215zM633 766v680h188l164 -514l156 514h190v-680h-141l4 391q0 53 10 139l-6 -24q-12 -47 -24 -88l-127 -418h-129l-132 420q-6 20 -15 54t-15 54q10 -72 10 -137l8 -391h-141z" />
<glyph unicode="&#x25fc;" horiz-adv-x="1024" d="M0 0v1024h1024v-1024h-1024z" />
</font>
</defs>
</svg>
