<?xml version="1.0" encoding="utf-8"?>
<!-- Generator: Adobe Illustrator 19.1.0, SVG Export Plug-In . SVG Version: 6.00 Build 0)  -->
<svg version="1.1" id="Layer_1" xmlns="http://www.w3.org/2000/svg" xmlns:xlink="http://www.w3.org/1999/xlink" x="0px" y="0px"
	 viewBox="0 0 50 50" style="enable-background:new 0 0 50 50;" xml:space="preserve">
<style type="text/css">
	.st0{fill:#055B2B;}
	.st1{fill:#FFFFFF;}
</style>
<rect class="st0" width="50" height="50"/>
<path class="st1" d="M13.3,36.7c0.2,0.2,0.5,0.3,0.7,0.3s0.5-0.1,0.7-0.3L25,26.4l10.3,10.3c0.2,0.2,0.5,0.3,0.7,0.3
	s0.5-0.1,0.7-0.3c0.4-0.4,0.4-1,0-1.4L26.4,25l10.3-10.3c0.4-0.4,0.4-1,0-1.4c-0.4-0.4-1-0.4-1.4,0L25,23.6L14.7,13.3
	c-0.4-0.4-1-0.4-1.4,0c-0.4,0.4-0.4,1,0,1.4L23.6,25L13.3,35.3C12.9,35.7,12.9,36.3,13.3,36.7z"/>
</svg>
