<svg xmlns="http://www.w3.org/2000/svg" viewBox="0 0 946.7 1081.3"><path fill-rule="evenodd" clip-rule="evenodd" fill="#a0caeb" d="M912.7 664.3l-18 8-70 70-45-45c17.5-14.5 29.8-37.2 42-57 72.1-117.3 69.2-281.9-3-397-67.9-108.2-235-217-421-160-64.4 19.8-100.8 50-149 83l-45-45 74-74c13-20.6-3.4-43.4-21-47-25-5.1-83.9 66.9-99 82-83.4 83.4-128.7 163.6-153 308-5.5 32.8-6.7 76.6-1 111 31.7 191.7 124.6 314.8 272 390 52 26.5 119 53 195 53v75h-115c-14.2 0-34-2.4-45 2-12.2 4.9-23.9 22.5-17 40 9.8 24.9 48.8 19 83 19h236c31.1 0 78.5 6.4 92-12 10.9-14.9 2.8-37.9-9-45-16.1-9.7-133.5-4.4-164-4v-75c150.2-.8 262.2-85.3 339-162 15.6-15.6 67.1-58.5 74-76 8-20.4-9.7-46-32-42zm-97-198c-5.4 31.7-7.6 60.7-18 87l-24 51-2 1c-1.5-52.9-15.6-92.8-26-134l66-67c4.6 4.9 6.1 49.9 4 62zm-12-106l-72 72-1 2-28-50-44-58-6-6 83-84c24 17.7 64.3 87.1 68 124zm-276 85l98-99c26.6 19.9 45.6 56.9 62 87l15 29-15 16-64 63c-31.9-32-64-64-96-96zm69 122l-78 79c-32.4-7.2-65-32.8-89-51l-23-19-5-6 99-99c32 32 64.1 64 96 96zm-96-148l-95-96 78-79c35.9 11.3 95.2 49 116 76-32.9 33-66 66-99 99zm-26 26l-100 99c-18.4-8.2-64.3-91.7-75-115l79-80c32 32 64.1 64 96 96zm-164 78l37 46 2 2-84 83c-33.5-27.5-53.1-78.2-68-124l74-74c13 22.3 26 44.6 39 67zm64 74l28 23c24.5 18.8 55 43.5 87 53-8.2 22.6-58.2 51.5-72 75-36.9-3.2-74.8-28-100-46l-24-19-2-3 83-83zm151 93l38 12c29.1 8.7 62.1 12.3 97 14-35.4 35.7-129 44.9-200 42l-1-2c22-22 44.1-44 66-66zm30-29l67-68h1l83 84c-54.4 10-109.9-5.5-151-16zm94-94l66-67c20.5 24.8 19.1 105.3 18 150h-1l-9-9c-24.6-24.7-49.3-49.4-74-74zm60-357l-84 84c-18.3-24.5-80.9-67.2-113-77l73-75c40.3 6.9 102.9 41.4 124 68zm-261-76l39-4 55 3-67 68c-13.3-12.9-103.4-26.3-135-26 19.1-20.2 74.8-34.4 108-41zm-134 77c52.5.2 91.3 8.2 131 18v1l-67 67-83-84c6.4-.7 12.7-1.4 19-2zm-46 29l84 83-67 67c-19.8-32.5-18.8-102.1-17-150zm-35 90c6 31.9 12.9 61.8 23 89l-67 67c-4.3-10-3-26.3-3-40 0-70.2 20-115.2 43-161 1.4 15 2.7 30 4 45zm501 488c-46.3 29-99.5 47.8-162 61-73 15.4-163 1-217-20-134.4-52.2-224.9-140-273-278-17.8-51-29.8-132-17-198 13.3-68.5 32.7-124.4 64-174l47-61 46 45c-67 55.5-121.9 216.3-87 342 24.7 88.7 70.5 159.2 135 208 84.1 63.6 231 106.7 362 55 31.6-12.5 61.9-28.5 88-47l31-25c3.2-1.5 43.5 35.4 46 44-20.9 16-42 32-63 48z"/></svg>