<svg xmlns="http://www.w3.org/2000/svg" viewBox="0 0 246 21.1"><path fill="#fff" d="M116.2 3.5v13.9h-4.7v3.1h27.9v-9.3h-3.1c0 3.6-2.6 6.2-6.6 6.2h-4.3v-13.9h4.6v-3.1h-18.6v3.1h4.8zm-43.8-3.5c9.3 0 14.3 4.7 14.3 10.5 0 5.9-4.7 10.6-14.3 10.6-9.6 0-14.3-4.7-14.3-10.6 0-5.8 5-10.5 14.3-10.5m-.1 17.9c3.5.1 5-3.7 5.1-7.4.1-3.9-1.6-7.3-4.8-7.4-3.2-.1-5 3.3-5.1 7.2-.1 3.8 1.4 7.6 4.8 7.6m159.4-17.9c9.3 0 14.3 4.7 14.3 10.5 0 5.9-4.7 10.6-14.3 10.6-9.6 0-14.3-4.7-14.3-10.6 0-5.8 4.9-10.5 14.3-10.5m-.1 17.9c3.5.1 5-3.7 5.1-7.4.1-3.9-1.6-7.3-4.8-7.4-3.2-.1-5 3.3-5.1 7.2-.1 3.8 1.4 7.6 4.8 7.6m-72.3-14.4v-3.1h20.1v3.1h-4.9l6.8 12.4 6.7-12.4h-4v-3.1h13.9v3.1h-4.6l-9.2 17h-10.8l-9.4-17h-4.6zm-154.7 0l9.4 17h10.8l9.2-17h4.6v-3.1h-13.8v3.1h4l-6.7 12.4-6.8-12.4h4.9v-3.1h-20.2v3.1h4.6z"/></svg>