<?xml version="1.0" standalone="no"?>
<!DOCTYPE svg PUBLIC "-//W3C//DTD SVG 1.1//EN" "http://www.w3.org/Graphics/SVG/1.1/DTD/svg11.dtd" >
<svg xmlns="http://www.w3.org/2000/svg">
<metadata></metadata>
<defs>
<font id="Suzuki-HeadlineRegular" horiz-adv-x="860" >
<font-face units-per-em="2048" ascent="1634" descent="-414" />
<missing-glyph horiz-adv-x="450" />
<glyph unicode="&#xfb01;" horiz-adv-x="966" d="M0 901v205h102v82q0 75 20.5 134t54 96.5t80.5 62.5t97 35t107 10q188 0 403 -60v-211q-218 56 -342 56q-133 0 -133 -111v-94h506v-1106h-287v901h-219v-901h-287v901h-102z" />
<glyph unicode="&#xfb02;" horiz-adv-x="966" d="M0 901v205h102v82q0 75 20.5 134t54 96.5t80.5 62.5t97 35t107 10q91 0 213 -21h221v-1505h-287v1300q-50 11 -86 11q-133 0 -133 -111v-94h127v-205h-127v-901h-287v901h-102z" />
<glyph horiz-adv-x="0" />
<glyph horiz-adv-x="2048" />
<glyph unicode=" "  horiz-adv-x="450" />
<glyph unicode="&#x09;" horiz-adv-x="450" />
<glyph unicode="&#xa0;" horiz-adv-x="450" />
<glyph unicode="!" horiz-adv-x="450" d="M72 0v287h307v-287h-307zM76 1475h299l-31 -983h-238z" />
<glyph unicode="&#x22;" horiz-adv-x="819" d="M82 1290v215h287v-213l-70 -354h-147zM451 1290v215h286v-213l-69 -354h-148z" />
<glyph unicode="#" d="M12 367l17 200h100l27 314h-103l19 200h102l31 353h227l-31 -353h111l31 353h227l-31 -353h109l-19 -200h-108l-27 -314h111l-19 -200h-110l-31 -367h-227l31 367h-111l-31 -367h-227l31 367h-99zM356 567h111l27 314h-111z" />
<glyph unicode="$" d="M47 1040q0 155 72.5 262.5t206.5 139.5v196h209v-196q65 -16 114.5 -52.5t78.5 -84.5t45 -93t24 -94l-279 -51q-12 90 -32.5 136t-61.5 46q-45 0 -66.5 -41t-21.5 -133q0 -73 38 -120.5t138 -90.5q158 -69 229.5 -175t71.5 -286q0 -173 -70.5 -283t-207.5 -140v-216h-209 v218q-56 13 -102 43t-74.5 65t-50 79.5t-31.5 82t-15 76.5l277 41q4 -42 10 -71t17 -59.5t30 -46.5t45 -16q92 0 92 199q0 88 -49 143t-151 107q-146 74 -211.5 164t-65.5 251z" />
<glyph unicode="%" horiz-adv-x="1290" d="M61 1108q0 176 59.5 261t192.5 85t191.5 -84.5t58.5 -261.5q0 -176 -58.5 -259t-191.5 -83t-192.5 83t-59.5 259zM250 0l563 1434h227l-563 -1434h-227zM268 1108q0 -121 9 -161t36 -40t36 40t9 161q0 122 -9.5 163.5t-35.5 41.5t-35.5 -41.5t-9.5 -163.5zM727 322 q0 176 59.5 261t192.5 85t191.5 -84.5t58.5 -261.5q0 -176 -58.5 -259t-191.5 -83t-192.5 83t-59.5 259zM934 322q0 -121 9 -161t36 -40t36 40t9 161q0 122 -9.5 163t-35.5 41t-35.5 -41t-9.5 -163z" />
<glyph unicode="&#x26;" horiz-adv-x="1220" d="M72 354q0 128 48.5 218.5t153.5 181.5q-92 123 -122.5 199.5t-30.5 166.5q0 44 10.5 88t36.5 89t64.5 79.5t99.5 56t137 21.5q81 0 144 -24t100 -60.5t61 -85.5t32.5 -94t8.5 -92q0 -181 -207 -355l160 -194q22 105 31 209l252 -33q-21 -222 -99 -401l269 -324h-322 l-92 109q-135 -129 -338 -129q-182 0 -289.5 101t-107.5 273zM362 377q0 -81 42 -121.5t106 -40.5q82 0 147 74l-237 282q-58 -77 -58 -194zM403 1120q0 -64 13.5 -105.5t60.5 -105.5q40 42 52 89.5t12 123.5q0 127 -70 127q-68 0 -68 -129z" />
<glyph unicode="'" horiz-adv-x="450" d="M82 1290v215h287v-213l-70 -354h-147z" />
<glyph unicode="(" horiz-adv-x="614" d="M61 674q0 95 7 183.5t17 156t29 140t33.5 119.5t41.5 110.5t42 95.5t45.5 93.5t42.5 86.5h254q-53 -114 -87.5 -201.5t-71.5 -212t-55.5 -267.5t-18.5 -304q0 -150 14.5 -283.5t32.5 -225t54.5 -196.5t61 -161t70.5 -156h-254q-38 75 -52.5 104.5t-49 107t-50 126.5 t-40.5 135t-36.5 161.5t-20.5 177.5t-9 210z" />
<glyph unicode=")" horiz-adv-x="614" d="M61 -348q47 101 71 156t60.5 161t55 197t33 224.5t14.5 283.5q0 161 -18.5 304t-56 268t-72 211.5t-87.5 201.5h254q12 -25 42.5 -86.5t45.5 -93.5t42 -95.5t41.5 -110.5t33.5 -119.5t29 -140t17 -156t7 -183.5q0 -109 -9.5 -211t-20.5 -177t-36 -162t-40 -134.5 t-50.5 -126.5t-49 -106.5t-52.5 -104.5h-254z" />
<glyph unicode="*" horiz-adv-x="921" d="M61 1110l89 272l245 -163l-78 286h287l-80 -286l248 163l88 -272l-297 -14l234 -185l-232 -168l-104 277l-105 -277l-231 168l231 185z" />
<glyph unicode="+" d="M61 537v241h238v269h262v-269h238v-241h-238v-269h-262v269h-238z" />
<glyph unicode="," horiz-adv-x="460" d="M41 -332l113 332h-72v276h297v-274l-172 -334h-166z" />
<glyph unicode="-" horiz-adv-x="614" d="M61 535v245h492v-245h-492z" />
<glyph unicode="." horiz-adv-x="460" d="M82 0v276h297v-276h-297z" />
<glyph unicode="/" horiz-adv-x="655" d="M0 -184l399 1679h256l-399 -1679h-256z" />
<glyph unicode="0" d="M53 705q0 166 11 282t36 205t69.5 140.5t108 76.5t154.5 25t154.5 -25t107.5 -76.5t69 -140.5t35.5 -205t10.5 -282q0 -163 -10.5 -277.5t-36 -203.5t-69 -140.5t-107.5 -77.5t-154 -26t-154 26t-108 78.5t-69.5 141.5t-36.5 203.5t-11 275.5zM348 705q0 -86 0.5 -146.5 t2 -116.5t4.5 -92.5t7.5 -68t10.5 -49t15 -30.5t19.5 -17.5t24.5 -4.5t24.5 4.5t19.5 17.5t15 30.5t10.5 49t7.5 68t4.5 92.5t2 116.5t0.5 146.5q0 115 -1 189t-4.5 138.5t-9 99.5t-15 60.5t-22.5 34t-32 8.5t-32 -8.5t-22.5 -34t-15 -60.5t-9 -99.5t-4.5 -138.5t-1 -189z " />
<glyph unicode="1" d="M117 999v267l217 168h289v-1215h170v-219h-658v219h211v952z" />
<glyph unicode="2" d="M61 1071q5 52 20 103t45 102.5t71.5 90t104.5 63t138 24.5q348 0 348 -414q0 -114 -43 -225.5t-159 -292.5l-180 -282h356v-240h-670v240l260 419q82 133 113 208.5t31 166.5q0 121 -17.5 160t-54.5 39q-41 0 -60 -51t-30 -146z" />
<glyph unicode="3" d="M51 1102q22 159 118 255.5t239 96.5q79 0 139.5 -18.5t109.5 -62t75 -123t26 -193.5q0 -45 -11 -90.5t-33 -87t-60.5 -71t-88.5 -36.5q223 -12 223 -356q0 -117 -27.5 -203t-79 -136t-117 -73.5t-148.5 -23.5q-86 0 -151.5 29t-106 81t-64 111t-35.5 131l269 35 q3 -29 4.5 -40t5.5 -37.5t9.5 -38t14.5 -27.5t22 -22.5t30 -6.5q27 0 43.5 16.5t26.5 64.5t10 134q0 66 -6 111t-16.5 72t-30 41t-39.5 18.5t-52 4.5h-61v203h78q46 0 72 42t26 153q0 110 -15 147t-51 37q-72 0 -80 -172z" />
<glyph unicode="4" d="M49 281v233l221 920h271l-224 -934h123l45 409h207v-409h113v-219h-113v-281h-266v281h-377z" />
<glyph unicode="5" d="M63 311l269 35q16 -151 80 -151q29 0 46 21t26.5 81.5t9.5 169.5q0 85 -5.5 142t-16.5 86.5t-24.5 41t-31.5 11.5q-42 0 -70 -50l-18 -51h-222l39 787h576v-209h-326l-20 -346q58 69 145 69q268 0 268 -489q0 -234 -100 -356.5t-276 -122.5q-72 0 -130 22t-95 55.5 t-64 79.5t-40 87.5t-20 86.5z" />
<glyph unicode="6" d="M74 690q0 142 9.5 253.5t26 191.5t44 137.5t58.5 92.5t74 55t85.5 27t99.5 7q71 0 126.5 -22t88.5 -54t56.5 -79t33.5 -86t17 -87l-275 -34q-3 80 -16.5 120.5t-46.5 40.5q-23 0 -36 -11.5t-25 -51t-18 -121.5t-7 -217q75 96 176 96q146 0 204 -110.5t58 -362.5 q0 -141 -23 -238t-70.5 -153t-111.5 -80t-153 -24q-83 0 -141.5 19t-105 66t-73.5 128.5t-41 203t-14 293.5zM369 698q0 -140 4 -236t10 -150.5t17 -83.5t21.5 -36.5t27.5 -7.5q28 0 41 18t19.5 78t6.5 187q0 156 -15.5 208t-60.5 52q-26 0 -71 -29z" />
<glyph unicode="7" d="M68 1208v226h682v-246l-318 -1188h-291l338 1208h-411z" />
<glyph unicode="8" d="M47 399q0 143 52.5 221t133.5 105q-155 76 -155 336q0 393 352 393q169 0 260.5 -93t91.5 -286q0 -102 -48 -176t-118 -102q38 -15 70 -40.5t62.5 -69t47.5 -113.5t17 -160q0 -228 -90.5 -331t-292.5 -103q-199 0 -291 104t-92 315zM350 414q0 -121 15.5 -174.5 t64.5 -53.5t64.5 53t15.5 175q0 125 -19.5 173t-87.5 75q-34 -31 -43.5 -72.5t-9.5 -175.5zM360 1061q0 -92 26.5 -141.5t70.5 -59.5q12 10 19 21.5t15.5 58t8.5 121.5q0 87 -9 134t-23 61t-38 14t-38 -14t-23 -61t-9 -134z" />
<glyph unicode="9" d="M74 987q0 248 95.5 357.5t276.5 109.5q199 0 280 -164t81 -559q0 -184 -17 -317.5t-46.5 -217t-78 -132t-102.5 -66.5t-129 -18q-67 0 -121 21.5t-88.5 54t-59.5 78.5t-37 87t-19 86l253 35q7 -166 72 -166q24 0 36 12t22.5 57t14 128.5t5.5 232.5q-76 -90 -172 -90 q-142 0 -204 122t-62 349zM365 977q0 -107 7 -159.5t22 -71.5t46 -19q24 0 72 25q-1 140 -5 235t-10 146.5t-17.5 78t-21 32t-26.5 5.5q-27 0 -40.5 -20t-20 -78t-6.5 -174z" />
<glyph unicode=":" horiz-adv-x="460" d="M82 0v276h297v-276h-297zM82 829v277h297v-277h-297z" />
<glyph unicode=";" horiz-adv-x="460" d="M41 -332l113 332h-72v276h297v-274l-172 -334h-166zM82 829v277h297v-277h-297z" />
<glyph unicode="&#x3c;" d="M82 530v246l696 301v-276l-434 -154l434 -153v-273z" />
<glyph unicode="=" d="M82 350v246h696v-246h-696zM82 739v246h696v-246h-696z" />
<glyph unicode="&#x3e;" d="M82 221v277l434 153l-434 154v272l696 -309v-246z" />
<glyph unicode="?" horiz-adv-x="819" d="M51 1153q7 46 20.5 89t42 92.5t68 86t102.5 60.5t140 24t136.5 -19t108 -62t74 -120.5t25.5 -187.5q0 -76 -22.5 -137t-55 -101.5t-64.5 -78t-54.5 -86t-22.5 -105.5v-116h-285v161q0 69 21.5 123t52 90t60.5 73t51.5 92.5t21.5 127.5q0 76 -15 105.5t-46 29.5 q-67 0 -78 -176zM254 0v287h307v-287h-307z" />
<glyph unicode="@" horiz-adv-x="1603" d="M82 637q0 188 45.5 339t120.5 248t177 162t209.5 92t223.5 27q664 0 664 -733q0 -151 -45.5 -281t-133 -212t-198.5 -82q-80 0 -132.5 41.5t-70.5 111.5q-26 -66 -90 -109.5t-150 -43.5q-112 0 -173.5 78.5t-61.5 263.5q0 115 13.5 209t35 156.5t52 110.5t60.5 74 t64.5 42t60.5 21t52 5q91 0 135 -55l27 37h174l-60 -535q-8 -86 -8 -106q0 -123 64 -123q59 0 100 103.5t41 285.5q0 131 -16.5 225.5t-47.5 157t-83.5 99.5t-117.5 52t-155 15q-82 0 -155 -20t-141 -69.5t-116.5 -125t-78 -194t-29.5 -269.5q0 -146 26.5 -259.5t70 -184.5 t105.5 -116t127.5 -63t141.5 -18q118 0 276 35v-181q-164 -45 -292 -45q-149 0 -276.5 53t-225 154.5t-153.5 262.5t-56 364zM709 479q0 -61 11 -80.5t38 -19.5q66 0 76 113l45 477q-15 12 -37 12q-21 0 -36.5 -11.5t-32.5 -42.5t-30 -95.5t-22 -161.5q-12 -129 -12 -191z " />
<glyph unicode="A" horiz-adv-x="1003" d="M4 0l315 1475h338l342 -1475h-325l-56 342h-270l-51 -342h-293zM381 551h203l-105 647z" />
<glyph unicode="B" horiz-adv-x="964" d="M92 0v1475h301q125 0 211.5 -18t150.5 -62t94 -121t30 -191q0 -112 -52.5 -195t-152.5 -110q110 -13 183 -103.5t73 -242.5q0 -236 -115 -334t-393 -98h-330zM399 209h37q99 0 138.5 47.5t39.5 175.5q0 122 -35.5 181t-132.5 59h-47v-463zM399 868h27q69 0 108 45t39 164 q0 97 -38 143t-115 46h-21v-398z" />
<glyph unicode="C" horiz-adv-x="929" d="M72 737q0 182 19.5 315.5t54 220t90.5 138.5t122 73t154 21q83 0 149 -28t105 -70t66.5 -100.5t38.5 -109t15 -105.5l-284 -35q-3 43 -5.5 68t-9 59.5t-16 53t-26 32.5t-39.5 14q-24 0 -41 -10t-30 -36t-21 -64.5t-12.5 -102.5t-6.5 -142.5t-2 -191.5t2 -191.5t6.5 -142 t12.5 -101.5t21 -64t30 -35.5t41 -9.5q100 0 104 241l289 -31q-5 -60 -17 -113.5t-41 -114.5t-71 -104.5t-113 -72.5t-161 -29q-83 0 -145 19.5t-116.5 71t-89 137t-54 221t-19.5 319.5z" />
<glyph unicode="D" horiz-adv-x="1021" d="M92 0v1475h332q107 0 184.5 -17.5t146 -65.5t110 -130t65.5 -213t24 -312q0 -180 -25.5 -312t-69 -213t-112 -129t-143.5 -65.5t-176 -17.5h-336zM399 223h29q46 0 78 12t58.5 44t42 89.5t24 148t8.5 220.5q0 162 -12 263.5t-40 157.5t-65.5 75.5t-97.5 19.5h-25v-1030z " />
<glyph unicode="E" horiz-adv-x="802" d="M92 0v1475h656v-236h-349v-385h287v-221h-287v-402h349v-231h-656z" />
<glyph unicode="F" horiz-adv-x="776" d="M92 0v1475h649v-232h-342v-418h281v-221h-281v-604h-307z" />
<glyph unicode="G" horiz-adv-x="956" d="M68 737q0 181 21 315.5t58 220.5t94.5 138.5t123 73t151.5 20.5q72 0 132 -21.5t100.5 -56.5t70.5 -82.5t46 -94t24 -97.5l-281 -35q-18 168 -96 168q-45 0 -70.5 -46.5t-39 -167t-13.5 -335.5q0 -117 1.5 -192t6 -141.5t12 -102.5t21 -62.5t31.5 -36t45 -9.5 q67 0 100 57v393h-92v213h356v-856h-153l-43 78q-79 -109 -228 -109q-69 0 -122.5 19.5t-103 71.5t-82 136.5t-51.5 221t-19 319.5z" />
<glyph unicode="H" horiz-adv-x="1024" d="M92 0v1475h307v-619h226v619h307v-1475h-307v635h-226v-635h-307z" />
<glyph unicode="I" horiz-adv-x="491" d="M92 0v1475h307v-1475h-307z" />
<glyph unicode="J" horiz-adv-x="653" d="M20 0v219q71 -22 132 -22q41 0 61 14t30.5 57t10.5 131v1076h307v-1061q0 -56 -2 -97t-10 -90t-22 -84t-39.5 -70t-60.5 -56t-87 -34.5t-117 -13.5q-108 0 -203 31z" />
<glyph unicode="K" horiz-adv-x="1026" d="M92 0v1475h307v-574l240 574h309l-325 -684l403 -791h-354l-273 608v-608h-307z" />
<glyph unicode="L" horiz-adv-x="806" d="M92 0v1475h307v-1239h404v-236h-711z" />
<glyph unicode="M" horiz-adv-x="1335" d="M92 0v1475h400l172 -1008l170 1008h409v-1475h-280v1042l-187 -1042h-229l-197 1042v-1042h-258z" />
<glyph unicode="N" horiz-adv-x="1067" d="M92 0v1475h412l215 -1057v1057h256v-1475h-385l-242 1071v-1071h-256z" />
<glyph unicode="O" horiz-adv-x="1001" d="M68 737q0 288 43.5 454.5t136.5 240t252 73.5t252.5 -73.5t137.5 -240.5t44 -454q0 -147 -8.5 -255.5t-28.5 -197t-52 -146t-81.5 -96.5t-113.5 -56t-150 -17q-159 0 -252 73.5t-136.5 240t-43.5 454.5zM381 737q0 -83 1 -142.5t3 -116.5t6 -95t10.5 -72t15 -54t21 -35 t27.5 -21t35 -6q39 0 62.5 25t37 93.5t17.5 163.5t4 260q0 324 -22 434.5t-99 110.5q-20 0 -35.5 -6t-28 -21.5t-21 -35.5t-15 -54.5t-10 -72.5t-6 -95.5t-3 -117t-0.5 -142.5z" />
<glyph unicode="P" horiz-adv-x="944" d="M92 0v1475h320q100 0 173 -11.5t138 -43.5t104.5 -86t62.5 -140.5t23 -206.5q0 -100 -15 -177t-45.5 -130t-70.5 -88.5t-97.5 -55.5t-119 -28t-141.5 -8h-25v-500h-307zM399 719h29q57 0 90.5 19t54.5 79t21 170q0 112 -19.5 170.5t-55.5 78t-103 19.5h-17v-536z" />
<glyph unicode="Q" horiz-adv-x="1001" d="M68 737q0 288 43.5 454.5t136.5 240t252 73.5t252.5 -73.5t137.5 -240.5t44 -454q0 -341 -61 -516.5t-203 -218.5l264 -33v-241l-500 137v108q-199 20 -282.5 194t-83.5 570zM381 737q0 -83 1 -142.5t3 -116.5t6 -95t10.5 -72t15 -54t21 -35t27.5 -21t35 -6q39 0 62.5 25 t37 93.5t17.5 163.5t4 260q0 324 -22 434.5t-99 110.5q-20 0 -35.5 -6t-28 -21.5t-21 -35.5t-15 -54.5t-10 -72.5t-6 -95.5t-3 -117t-0.5 -142.5z" />
<glyph unicode="R" horiz-adv-x="991" d="M92 0v1475h324q121 0 208.5 -23.5t151.5 -77t95.5 -143.5t31.5 -219q0 -285 -205 -396l283 -616h-342l-211 547h-29v-547h-307zM399 766h33q78 0 115 55t37 191q0 101 -17.5 153.5t-50.5 70t-96 17.5h-21v-487z" />
<glyph unicode="S" horiz-adv-x="872" d="M31 338l288 41q3 -81 29 -132.5t78 -51.5q90 0 90 180q0 75 -18 119t-61.5 80t-139.5 90q-128 72 -192 173.5t-64 254.5q0 184 105.5 298.5t289.5 114.5q76 0 138 -22t101.5 -56t69.5 -82t45 -93t25 -97l-285 -51q-7 58 -15.5 93t-29.5 60t-53 25q-90 0 -90 -143 q0 -41 7.5 -69t30.5 -59.5t66.5 -62t114.5 -67.5q141 -74 200.5 -182.5t59.5 -295.5q0 -204 -102.5 -319t-294.5 -115q-81 0 -147 24t-108 61t-72 88t-44.5 98t-21.5 98z" />
<glyph unicode="T" horiz-adv-x="819" d="M10 1243v232h799v-232h-248v-1243h-307v1243h-244z" />
<glyph unicode="U" horiz-adv-x="976" d="M92 465v1010h307v-1029q0 -150 20 -200.5t75 -50.5q37 0 57 20.5t29.5 74.5t9.5 156v1029h295v-1010q0 -125 -19 -213t-63 -153.5t-121 -97.5t-190 -32t-191 32t-123.5 97t-65.5 154t-20 213z" />
<glyph unicode="V" horiz-adv-x="972" d="M10 1475h316l168 -1217l176 1217h293l-297 -1475h-367z" />
<glyph unicode="W" horiz-adv-x="1306" d="M20 1475h293l76 -1209l100 1209h342l97 -1205l88 1205h270l-158 -1475h-380l-97 1219l-100 -1219h-373z" />
<glyph unicode="X" horiz-adv-x="970" d="M10 0l309 780l-278 695h336l125 -398l135 398h291l-279 -674l312 -801h-347l-143 496l-166 -496h-295z" />
<glyph unicode="Y" horiz-adv-x="925" d="M0 1475h332l143 -586l164 586h287l-316 -885v-590h-286v590z" />
<glyph unicode="Z" horiz-adv-x="819" d="M20 0v240l463 1011h-415v224h731v-234l-465 -1018h444v-223h-758z" />
<glyph unicode="[" horiz-adv-x="614" d="M102 -348v2007h451v-211h-178v-1585h178v-211h-451z" />
<glyph unicode="\" horiz-adv-x="655" d="M0 1495h256l399 -1679h-256z" />
<glyph unicode="]" horiz-adv-x="614" d="M61 -137h179v1585h-179v211h451v-2007h-451v211z" />
<glyph unicode="^" d="M41 819l276 656h267l235 -656h-266l-109 455l-137 -455h-266z" />
<glyph unicode="_" horiz-adv-x="839" d="M-4 -66h848v-241h-848v241z" />
<glyph unicode="`" horiz-adv-x="598" d="M61 1505h312l164 -280h-215z" />
<glyph unicode="a" horiz-adv-x="819" d="M31 324q0 80 14.5 142t49 114.5t96.5 85t151 41.5l119 12v82q0 79 -12 110t-43 31q-53 0 -60 -135l-276 41q64 289 356 289q174 0 248 -92t74 -295v-750h-183l-57 104q-81 -120 -236 -120q-116 0 -178.5 80t-62.5 260zM322 360q0 -101 17 -137.5t54 -36.5q34 0 68 19v346 l-51 -6q-88 -9 -88 -185z" />
<glyph unicode="b" horiz-adv-x="835" d="M72 0v1505h286v-477q91 109 193 109q85 0 133.5 -46t74 -172t25.5 -356q0 -316 -60.5 -449.5t-225.5 -133.5q-61 0 -110.5 27.5t-78.5 72.5l-63 -80h-174zM358 164q27 -8 56 -8q15 0 25.5 3.5t19.5 14.5t15 24.5t10.5 39.5t7 54t4 73.5t2 92t0.5 115.5q0 77 -1 126.5 t-3.5 90.5t-7 62.5t-12.5 36.5t-17.5 19.5t-24.5 4.5q-24 0 -74 -24v-725z" />
<glyph unicode="c" horiz-adv-x="790" d="M51 563q0 301 84.5 437.5t276.5 136.5q82 0 144 -25t97 -60.5t59 -88t32.5 -93.5t13.5 -92l-273 -41q-5 105 -18.5 152t-46.5 47q-29 0 -43 -25.5t-21.5 -107t-7.5 -246.5q0 -164 7.5 -246t21 -106.5t41.5 -24.5q69 0 69 197l283 -33q-5 -53 -17 -99t-38 -96.5 t-63.5 -86.5t-98.5 -59t-139 -23q-70 0 -124 16.5t-100 57t-76 106.5t-46.5 167t-16.5 236z" />
<glyph unicode="d" horiz-adv-x="843" d="M51 553q0 313 64.5 448.5t230.5 135.5q76 0 139 -47v415h287v-1505h-194l-70 113q-97 -133 -207 -133q-64 0 -108 24.5t-77.5 87t-49 176t-15.5 285.5zM338 543q0 -145 8 -218.5t23.5 -97.5t46.5 -24q22 0 65 18v731q-45 9 -55 9q-29 0 -46 -16.5t-26.5 -67t-12.5 -125 t-3 -209.5z" />
<glyph unicode="e" horiz-adv-x="802" d="M51 553q0 215 39 344t116 184.5t202 55.5q54 0 98 -10t77.5 -25.5t59.5 -45.5t43.5 -59.5t30 -77.5t19.5 -90.5t10.5 -107.5t4.5 -118.5t1 -133.5h-412q2 -122 11.5 -184t24 -80.5t42.5 -18.5q31 0 47 34.5t22 103.5l263 -41q-5 -40 -18.5 -79t-40.5 -80.5t-63.5 -72.5 t-92.5 -51t-123 -20q-188 0 -274.5 137.5t-86.5 435.5zM340 657h149q-1 125 -9 189t-22.5 85t-41.5 21q-29 0 -43.5 -20t-23 -84t-9.5 -191z" />
<glyph unicode="f" horiz-adv-x="536" d="M0 901v205h102v82q0 184 76.5 261t220.5 77q104 0 199 -31v-207q-72 21 -117 21q-54 0 -73 -22t-19 -87v-94h166v-205h-166v-901h-287v901h-102z" />
<glyph unicode="g" horiz-adv-x="839" d="M20 -137q0 126 130 211q-66 60 -66 159q0 106 94 175q-135 91 -135 331q0 214 88.5 306t271.5 92q28 0 68 -7v66l332 61v-202l-180 4q131 -106 131 -320q0 -389 -355 -389q-58 0 -102 8q-4 -28 -4 -39q0 -35 23 -50t94 -19q204 -13 302.5 -90.5t98.5 -249.5 q0 -151 -116.5 -232t-301.5 -81q-169 0 -271 70.5t-102 195.5zM256 -86q0 -82 37.5 -119t97.5 -37q23 0 44.5 5.5t44 18.5t36.5 40.5t14 64.5q0 55 -38 85t-154 38q-30 0 -57 6q-25 -45 -25 -102zM326 739q0 -84 7.5 -127.5t22.5 -59t43 -15.5q43 0 57.5 39.5t14.5 162.5 q0 127 -14.5 170t-57.5 43t-58 -43.5t-15 -169.5z" />
<glyph unicode="h" horiz-adv-x="866" d="M72 0v1505h276v-473q98 105 221 105q119 0 172.5 -86.5t53.5 -296.5v-754h-287v774q0 86 -16.5 112.5t-61.5 26.5q-32 0 -82 -26v-887h-276z" />
<glyph unicode="i" horiz-adv-x="434" d="M61 1249v256h312v-256h-312zM72 0v1106h286v-1106h-286z" />
<glyph unicode="j" horiz-adv-x="434" d="M-113 -102q62 -17 103 -17q46 0 64 20.5t18 84.5v1120h286v-1126q0 -162 -69 -240t-215 -78q-44 0 -99 9.5t-88 21.5v205zM61 1249v256h312v-256h-312z" />
<glyph unicode="k" horiz-adv-x="827" d="M72 0v1505h286v-805l146 406h282l-213 -463l254 -643h-315l-154 514v-514h-286z" />
<glyph unicode="l" horiz-adv-x="430" d="M72 0v1505h286v-1505h-286z" />
<glyph unicode="m" horiz-adv-x="1249" d="M72 0v1106h194l49 -107q106 138 238 138q133 0 180 -117q93 117 230 117q118 0 166.5 -85.5t48.5 -297.5v-754h-287v774q0 89 -11.5 114t-54.5 25q-25 0 -63 -20q6 -61 6 -139v-754h-287v774q0 90 -11.5 114.5t-53.5 24.5q-26 0 -58 -16v-897h-286z" />
<glyph unicode="n" horiz-adv-x="866" d="M72 0v1106h194l51 -109q108 140 252 140q119 0 172.5 -86.5t53.5 -296.5v-754h-287v774q0 86 -16.5 112.5t-61.5 26.5q-30 0 -72 -22v-891h-286z" />
<glyph unicode="o" horiz-adv-x="858" d="M51 553q0 133 18.5 234.5t51 167t81 107t104 58.5t124.5 17q87 0 152.5 -27.5t118 -92t79.5 -181t27 -283.5q0 -134 -18.5 -234.5t-50.5 -164.5t-80.5 -103.5t-103 -55t-124.5 -15.5q-88 0 -153.5 26.5t-118 89t-80 177.5t-27.5 280zM346 553q0 -155 9 -236t26.5 -110 t50.5 -29t49.5 28.5t24.5 108t8 238.5q0 157 -8.5 240t-26 113t-49.5 30t-49.5 -31t-26 -114t-8.5 -238z" />
<glyph unicode="p" horiz-adv-x="829" d="M72 -348v1454h194l51 -111q107 142 228 142q85 0 133.5 -46t74 -172t25.5 -356q0 -316 -60.5 -449.5t-225.5 -133.5q-78 0 -134 43v-371h-286zM358 162q24 -6 50 -6q15 0 25.5 3.5t19.5 14.5t15 24.5t10.5 39.5t7 54t4 73.5t2 92t0.5 115.5q0 77 -1 126.5t-3.5 90.5 t-7 62.5t-12.5 36.5t-17.5 19.5t-24.5 4.5q-29 0 -68 -22v-729z" />
<glyph unicode="q" horiz-adv-x="831" d="M51 553q0 313 64.5 448.5t230.5 135.5q57 0 105 -26.5t79 -70.5l56 66h174v-1454h-287v416q-81 -88 -172 -88q-64 0 -108 24.5t-77.5 87t-49 176t-15.5 285.5zM338 543q0 -145 8 -218.5t23.5 -97.5t46.5 -24q20 0 57 16v735q-32 7 -47 7q-29 0 -46 -16.5t-26.5 -67 t-12.5 -125t-3 -209.5z" />
<glyph unicode="r" horiz-adv-x="587" d="M72 0v1106h194l53 -139q67 159 185 159q36 0 63 -8v-280q-40 16 -84 16q-72 0 -125 -84v-770h-286z" />
<glyph unicode="s" horiz-adv-x="763" d="M20 252l277 55q3 -55 24 -90t56 -35q67 0 67 111q0 64 -35.5 95t-156.5 89q-211 100 -211 326q0 162 96 248t252 86q59 0 107.5 -11.5t82.5 -33.5t59 -46t43 -57.5t28 -59t20 -59.5l-268 -53q-7 119 -66 119q-67 0 -67 -100q0 -48 32 -80.5t115 -67.5q58 -23 100.5 -50 t80.5 -67.5t57.5 -98t19.5 -130.5q0 -171 -91.5 -266.5t-266.5 -95.5q-80 0 -144.5 25t-106 66.5t-66.5 86.5t-38 94z" />
<glyph unicode="t" horiz-adv-x="559" d="M0 901v205h109l18 266h266v-266h156v-205h-156v-606q0 -61 14.5 -79.5t53.5 -18.5q40 0 86 12v-199q-77 -24 -166 -24q-141 0 -208 74.5t-67 244.5v596h-106z" />
<glyph unicode="u" d="M72 344v762h286v-764q0 -86 14.5 -112.5t55.5 -26.5q28 0 74 22v881h286v-1106h-215l-38 104q-92 -124 -220 -124q-129 0 -186 84.5t-57 279.5z" />
<glyph unicode="v" horiz-adv-x="835" d="M6 1106h313l91 -860l125 860h294l-245 -1106h-373z" />
<glyph unicode="w" horiz-adv-x="1196" d="M14 1106h291l41 -899l115 899h297l94 -897l66 897h264l-176 -1106h-322l-84 840l-113 -840h-325z" />
<glyph unicode="x" horiz-adv-x="872" d="M10 0l246 586l-219 520h321l74 -289l74 289h289l-201 -496l268 -610h-338l-110 362l-105 -362h-299z" />
<glyph unicode="y" horiz-adv-x="821" d="M0 1106h313l95 -877l129 877h284l-243 -1137q-34 -161 -113 -234t-205 -73q-76 0 -143 23v204q56 -16 100 -16t71.5 29t37.5 98h-95z" />
<glyph unicode="z" horiz-adv-x="708" d="M20 0v240l361 651h-322v217h619v-240l-352 -651h331v-217h-637z" />
<glyph unicode="{" horiz-adv-x="614" d="M41 539v235q69 0 92 43t23 137v322q0 101 18 170.5t48.5 111t84.5 64.5t111.5 30t144.5 7v-201q-41 -1 -64 -6t-41.5 -22t-26 -49t-7.5 -85v-338q0 -143 -32 -208.5t-118 -94.5q86 -29 118 -94.5t32 -208.5v-338q0 -70 15.5 -105t42.5 -45t81 -11v-201q-87 0 -144.5 7 t-111.5 30t-84.5 64.5t-48.5 111t-18 170.5v321q0 94 -23 138.5t-92 44.5z" />
<glyph unicode="|" horiz-adv-x="573" d="M152 -246v1884h270v-1884h-270z" />
<glyph unicode="}" horiz-adv-x="614" d="M51 -147q54 1 81 11t42.5 45t15.5 105v338q0 143 32 208.5t118 94.5q-86 29 -118 94.5t-32 208.5v338q0 53 -7.5 85t-26 49t-41.5 22t-64 6v201q87 0 144.5 -7t112 -30t85 -64.5t48.5 -111t18 -170.5v-322q0 -94 22.5 -137t91.5 -43v-235q-69 0 -91.5 -44.5t-22.5 -138.5 v-321q0 -101 -18 -170.5t-48.5 -111t-85 -64.5t-112 -30t-144.5 -7v201z" />
<glyph unicode="~" d="M82 506v242q101 81 205 81q49 0 94.5 -17t73.5 -37t65.5 -37t73.5 -17q53 0 92 21t92 67v-242q-102 -82 -205 -82q-49 0 -94.5 17t-73.5 37.5t-65.5 37.5t-73.5 17q-53 0 -92 -21t-92 -67z" />
<glyph unicode="&#xa1;" horiz-adv-x="450" d="M72 819v287h307v-287h-307zM76 -369l30 983h238l31 -983h-299z" />
<glyph unicode="&#xa2;" d="M66 563q0 259 61.5 394t198.5 167v248h209v-248q208 -54 237 -346l-272 -41q-5 104 -19 151.5t-47 47.5q-29 0 -43 -25.5t-21.5 -107t-7.5 -246.5q0 -164 7.5 -246t21 -106.5t41.5 -24.5q70 0 70 197l282 -33q-31 -296 -249 -352v-228h-209v228q-85 19 -141 79 t-87.5 182.5t-31.5 309.5z" />
<glyph unicode="&#xa3;" d="M31 0v225q47 0 80 19.5t48 51t21 59t6 55.5v264h-155v215h155v61q0 126 17 215.5t57 156.5t110.5 99.5t174.5 32.5q132 0 210.5 -83t94.5 -204l-262 -49q-5 63 -15.5 92t-33.5 29q-22 0 -32.5 -17.5t-17 -81t-6.5 -190.5v-61h238v-215h-238v-252q0 -131 -102 -197h412 v-225h-762z" />
<glyph unicode="&#xa4;" horiz-adv-x="1146" d="M57 328l129 129q-34 98 -34 239q0 128 32 234l-127 127l152 151l88 -90q110 101 274 101q163 0 275 -103l92 92l152 -151l-132 -131q31 -114 31 -230q0 -126 -33 -235l134 -133l-152 -152l-100 98q-106 -90 -267 -90q-163 0 -266 88l-96 -96zM410 696q0 -174 41 -243.5 t122 -69.5q80 0 120 69.5t40 243.5t-42.5 248t-119.5 74t-119 -74t-42 -248z" />
<glyph unicode="&#xa5;" d="M18 1434h304l120 -535l131 535h269l-238 -676h178v-191h-204v-131h204v-190h-204v-246h-287v246h-205v190h205v131h-205v191h174z" />
<glyph unicode="&#xa6;" horiz-adv-x="573" d="M152 -246v799h270v-799h-270zM152 840v798h270v-798h-270z" />
<glyph unicode="&#xa7;" d="M76 80l266 55q3 -56 23.5 -90.5t58.5 -34.5q35 0 55.5 28t20.5 83q0 35 -13.5 62.5t-41.5 48t-53.5 33.5t-67.5 30q-232 96 -232 334q0 76 33.5 141.5t93.5 106.5q-56 46 -87.5 111.5t-31.5 139.5q0 80 31 144.5t81 103t109.5 58.5t120.5 20q262 0 340 -266l-258 -53 q-7 118 -75 118q-36 0 -53 -25t-17 -81q0 -64 29.5 -100t95.5 -62q134 -53 206 -132t72 -212q0 -168 -120 -256q116 -92 116 -225q0 -70 -21.5 -132t-64 -112.5t-112.5 -79.5t-160 -29q-72 0 -134 25.5t-103 67.5t-68 87.5t-39 92.5zM358 676q0 -54 29.5 -103t77.5 -79 q49 27 49 98q0 49 -31 96.5t-80 83.5q-45 -23 -45 -96z" />
<glyph unicode="&#xa8;" horiz-adv-x="858" d="M102 1255v230h267v-230h-267zM489 1255v230h267v-230h-267z" />
<glyph unicode="&#xa9;" horiz-adv-x="1439" d="M61 737q0 167 35 299t95 218.5t144.5 144t179.5 82t204 24.5t204 -24.5t180 -82t145 -144t95 -218.5t35 -299t-35 -299t-95 -218.5t-145 -144t-180 -82t-204 -24.5t-204 24.5t-179.5 82t-144.5 144t-95 218.5t-35 299zM305 737q0 -299 109.5 -440t304.5 -141t305.5 142 t110.5 439q0 162 -29.5 277t-86 181.5t-130 96t-170.5 29.5t-170 -30t-129.5 -96.5t-85.5 -181.5t-29 -276zM444 739q0 125 18.5 208.5t56.5 129.5t88 65t122 19q53 0 95 -16.5t68 -41t44.5 -57.5t26 -62.5t10.5 -59.5l-185 -19q-5 54 -17.5 81.5t-43.5 27.5 q-32 0 -47 -22.5t-21 -79t-6 -173.5q0 -113 6 -168.5t21.5 -79.5t46.5 -24q65 0 68 117l186 -19q-3 -33 -11 -63t-27 -65t-46.5 -60.5t-73.5 -42.5t-104 -17q-68 0 -115.5 18t-85 63.5t-56 130t-18.5 210.5z" />
<glyph unicode="&#xaa;" horiz-adv-x="819" d="M82 895q0 121 64.5 197t205.5 90l94 10v61q0 55 -11 74t-34 19q-41 0 -47 -89l-227 31q10 39 27.5 72.5t49.5 68.5t87 55.5t127 20.5q142 0 210 -70.5t68 -220.5v-563h-166l-47 82q-67 -94 -188 -94q-96 0 -154.5 61.5t-58.5 194.5zM123 0v236h614v-236h-614zM336 922 q0 -74 13 -95.5t44 -21.5q25 0 53 14v248l-40 -4q-70 -6 -70 -141z" />
<glyph unicode="&#xab;" horiz-adv-x="942" d="M61 668l236 419h184l-147 -425l127 -455h-185zM440 668l236 419h184l-147 -425l127 -455h-185z" />
<glyph unicode="&#xac;" d="M82 535v245h696v-491h-243v246h-453z" />
<glyph unicode="&#xad;" horiz-adv-x="614" d="M61 535v245h492v-245h-492z" />
<glyph unicode="&#xae;" horiz-adv-x="1107" d="M102 1010q0 133 37.5 232t102.5 154.5t142 82t167 26.5q72 0 136 -15.5t123.5 -52.5t102 -93t68 -141.5t25.5 -192.5q0 -132 -38 -230.5t-104 -154t-144 -81.5t-169 -26q-90 0 -167 26t-142 81.5t-102.5 154t-37.5 230.5zM264 1010q0 -187 79.5 -275t207.5 -88 q132 0 212.5 88t80.5 275q0 368 -293 368q-287 0 -287 -368zM393 764v522h137q100 0 151.5 -40t51.5 -128q0 -100 -78 -143l86 -211h-133l-71 182h-17v-182h-127zM520 1047h15q63 0 63 71q0 70 -68 70h-10v-141z" />
<glyph unicode="&#xaf;" horiz-adv-x="675" d="M61 1292v213h553v-213h-553z" />
<glyph unicode="&#xb0;" horiz-adv-x="747" d="M61 1118q0 149 83.5 242.5t230.5 93.5t229 -93.5t82 -242.5t-82 -240.5t-229 -91.5t-230.5 92t-83.5 240zM283 1118q0 -166 92 -166q44 0 68 43t24 123q0 81 -23.5 125.5t-68.5 44.5q-92 0 -92 -170z" />
<glyph unicode="&#xb1;" d="M61 535v245h238v267h262v-267h238v-245h-238v-195h-262v195h-238zM82 0v246h696v-246h-696z" />
<glyph unicode="&#xb2;" horiz-adv-x="614" d="M47 1233q4 36 21 73t46.5 71t79.5 55.5t111 21.5q236 0 236 -227q0 -62 -29 -130.5t-102 -162.5l-88 -113h202v-166h-458v166l182 217q53 64 72.5 103t19.5 84q0 78 -47 78q-27 0 -38.5 -21.5t-18.5 -67.5z" />
<glyph unicode="&#xb3;" horiz-adv-x="614" d="M43 1249q14 89 81.5 147t160.5 58q237 0 237 -219q0 -54 -31.5 -101.5t-93.5 -54.5q146 -6 146 -196q0 -124 -70 -182t-182 -58q-107 0 -166.5 60t-75.5 145l184 18q3 -21 6.5 -34.5t16 -26t33.5 -12.5q51 0 51 86q0 36 -4.5 59.5t-10 36.5t-19.5 18.5t-24 6.5t-34 1h-41 v136h51q28 0 46 24.5t18 73.5q0 37 -10 53.5t-33 16.5q-48 0 -52 -74z" />
<glyph unicode="&#xb4;" horiz-adv-x="598" d="M61 1225l164 280h312l-261 -280h-215z" />
<glyph unicode="&#xb5;" d="M72 -348v1454h286v-764q0 -86 14.5 -112.5t55.5 -26.5q28 0 74 22v881h286v-1106h-215l-38 104q-75 -100 -177 -120v-332h-286z" />
<glyph unicode="&#xb6;" horiz-adv-x="983" d="M41 1100q0 85 21 149t51 98t72 55t75 26.5t70 5.5h237v-1434h-237v768q-27 0 -48.5 1.5t-53 9t-55.5 20.5t-50 38t-43 59t-28 86.5t-11 117.5zM664 0v1434h237v-1434h-237z" />
<glyph unicode="&#xb7;" horiz-adv-x="522" d="M113 573v277h297v-277h-297z" />
<glyph unicode="&#xb8;" horiz-adv-x="618" d="M61 -453l76 146q55 -35 115 -35q82 0 82 63q0 39 -34.5 58.5t-109.5 27.5l82 316h160l-24 -227q73 -22 111 -73.5t38 -113.5q0 -107 -67.5 -167t-200.5 -60q-128 0 -228 65z" />
<glyph unicode="&#xb9;" horiz-adv-x="614" d="M102 1163v176l142 95h196v-629h111v-150h-436v150h137v452z" />
<glyph unicode="&#xba;" horiz-adv-x="808" d="M82 1067q0 124 23 211t67.5 136t101 70t132.5 21q60 0 107.5 -12.5t88.5 -43.5t68 -80t42 -125t15 -177q0 -126 -22.5 -212t-66.5 -132.5t-99.5 -66t-132.5 -19.5q-76 0 -132.5 20t-101 67t-67.5 133t-23 210zM117 0v236h590v-236h-590zM338 1067q0 -161 15 -214.5 t55 -53.5q39 0 52 52t13 216q0 110 -7 169t-20.5 81t-39.5 22t-40 -22t-21 -81t-7 -169z" />
<glyph unicode="&#xbb;" horiz-adv-x="942" d="M82 1087h184l236 -419l-215 -461h-185l127 455zM461 1087h184l236 -419l-215 -461h-185l127 455z" />
<glyph unicode="&#xbc;" horiz-adv-x="1474" d="M106 1163v176l146 95h192v-629h91v-150h-406v150h127v452zM274 -205l697 1864h221l-696 -1864h-222zM856 145v160l152 473h188l-152 -481h78l23 195h147v-195h74v-152h-74v-145h-182v145h-254z" />
<glyph unicode="&#xbd;" horiz-adv-x="1474" d="M96 1163v176l146 95h192v-629h90v-150h-405v150h127v452zM264 -205l697 1864h221l-697 -1864h-221zM885 578q4 36 21 73t46.5 71t79.5 55.5t111 21.5q108 0 171.5 -54t63.5 -174q0 -62 -29 -130t-102 -162l-88 -113h203v-166h-459v166l182 217q54 65 73.5 103t19.5 83 q0 78 -48 78q-27 0 -38.5 -21t-18.5 -67z" />
<glyph unicode="&#xbe;" horiz-adv-x="1474" d="M94 1249q14 89 81.5 147t160.5 58q237 0 237 -219q0 -54 -31 -101.5t-93 -54.5q145 -6 145 -196q0 -124 -70 -182t-182 -58q-107 0 -166.5 60t-75.5 145l185 18q3 -22 6 -34.5t15.5 -25.5t33.5 -13q51 0 51 86q0 36 -4.5 59.5t-10 36.5t-19.5 18.5t-24 6.5t-34 1h-41v136 h51q28 0 46 24.5t18 73.5q0 37 -10 53.5t-33 16.5q-47 0 -51 -74zM309 -205l697 1864h221l-697 -1864h-221zM870 145v160l152 473h188l-151 -481h78l22 195h148v-195h73v-152h-73v-145h-183v145h-254z" />
<glyph unicode="&#xbf;" horiz-adv-x="819" d="M51 -10q0 64 16 118t40.5 89t53 71.5t53 66t40.5 72t16 91.5v116h285v-161q0 -69 -21.5 -123t-51.5 -90t-60.5 -73t-52 -92.5t-21.5 -127.5q0 -76 15.5 -105.5t46.5 -29.5q66 0 77 176l281 -35q-7 -46 -20.5 -89t-42 -92.5t-68 -86t-102.5 -60.5t-140 -24t-136.5 19 t-108 62t-74 120.5t-25.5 187.5zM258 819v287h307v-287h-307z" />
<glyph unicode="&#xc0;" horiz-adv-x="1003" d="M4 0l315 1475h338l342 -1475h-325l-56 342h-270l-51 -342h-293zM160 1812h311l164 -229h-225zM381 551h203l-105 647z" />
<glyph unicode="&#xc1;" horiz-adv-x="1003" d="M4 0l315 1475h338l342 -1475h-325l-56 342h-270l-51 -342h-293zM369 1583l163 229h312l-250 -229h-225zM381 551h203l-105 647z" />
<glyph unicode="&#xc2;" horiz-adv-x="1003" d="M4 0l315 1475h338l342 -1475h-325l-56 342h-270l-51 -342h-293zM150 1583l215 229h258l215 -229h-250l-94 82l-95 -82h-249zM381 551h203l-105 647z" />
<glyph unicode="&#xc3;" horiz-adv-x="1003" d="M4 0l315 1475h338l342 -1475h-325l-56 342h-270l-51 -342h-293zM178 1581v205q92 67 168 67q56 0 102.5 -19.5t86 -38.5t77.5 -19q68 0 160 73v-204q-93 -68 -168 -68q-56 0 -102.5 19.5t-86 39t-77.5 19.5q-67 0 -160 -74zM381 551h203l-105 647z" />
<glyph unicode="&#xc4;" horiz-adv-x="1003" d="M4 0l315 1475h338l342 -1475h-325l-56 342h-270l-51 -342h-293zM160 1583v229h266v-229h-266zM381 551h203l-105 647zM547 1583v229h266v-229h-266z" />
<glyph unicode="&#xc5;" horiz-adv-x="1003" d="M4 0l311 1454q-86 62 -86 197q0 116 68.5 179.5t194.5 63.5q125 0 192.5 -63.5t67.5 -179.5q0 -128 -93 -193l340 -1458h-325l-56 342h-270l-51 -342h-293zM381 551h203l-105 647zM430 1651q0 -95 62 -95q32 0 46.5 22.5t14.5 72.5q0 98 -61 98q-62 0 -62 -98z" />
<glyph unicode="&#xc6;" horiz-adv-x="1310" d="M4 0l397 1475h828v-236h-418l43 -385h326v-221h-301l43 -402h340v-231h-605l-30 342h-260l-74 -342h-289zM412 551h196l-57 647z" />
<glyph unicode="&#xc7;" horiz-adv-x="929" d="M72 737q0 182 19.5 315.5t54 220t90.5 138.5t122 73t154 21q83 0 149 -28t105 -70t66.5 -100.5t38.5 -109t16 -105.5l-285 -35q-3 43 -5.5 68t-9 59.5t-16 53t-26 32.5t-39.5 14q-24 0 -41 -10t-30 -36t-21 -64.5t-12.5 -102.5t-6.5 -142.5t-2 -191.5t2 -191.5t6.5 -142 t12.5 -101.5t21 -64t30 -35.5t41 -9.5q100 0 104 241l289 -31q-38 -383 -324 -428l-8 -79q73 -22 111.5 -73.5t38.5 -113.5q0 -107 -67.5 -167t-200.5 -60q-128 0 -228 65l76 146q55 -35 115 -35q82 0 82 63q0 39 -34.5 58.5t-109.5 27.5l43 173q-63 12 -111 41t-88.5 85.5 t-66.5 140.5t-40.5 207t-14.5 283z" />
<glyph unicode="&#xc8;" horiz-adv-x="802" d="M92 0v1475h656v-236h-349v-385h287v-221h-287v-402h349v-231h-656zM137 1812h312l163 -229h-225z" />
<glyph unicode="&#xc9;" horiz-adv-x="802" d="M92 0v1475h656v-236h-349l-18 -385h305v-221h-287v-402h349v-231h-656zM217 1583l164 229h311l-250 -229h-225z" />
<glyph unicode="&#xca;" horiz-adv-x="802" d="M76 1583l215 229h258l215 -229h-250l-94 82l-94 -82h-250zM92 0v1475h656v-236h-349v-385h287v-221h-287v-402h349v-231h-656z" />
<glyph unicode="&#xcb;" horiz-adv-x="802" d="M92 0v1475h656v-236h-349v-385h287v-221h-287v-402h349v-231h-656zM96 1583v229h266v-229h-266zM483 1583v229h267v-229h-267z" />
<glyph unicode="&#xcc;" horiz-adv-x="491" d="M-23 1812h312l164 -229h-226zM92 0v1475h307v-1475h-307z" />
<glyph unicode="&#xcd;" horiz-adv-x="491" d="M53 1583l164 229h311l-249 -229h-226zM92 0v1475h307v-1475h-307z" />
<glyph unicode="&#xce;" horiz-adv-x="491" d="M-98 1583l215 229h258l215 -229h-250l-94 82l-94 -82h-250zM92 0v1475h307v-1475h-307z" />
<glyph unicode="&#xcf;" horiz-adv-x="491" d="M-80 1583v229h266v-229h-266zM92 0v1475h307v-1475h-307zM307 1583v229h266v-229h-266z" />
<glyph unicode="&#xd0;" horiz-adv-x="1042" d="M20 678v246h93v551h331q107 0 184.5 -17.5t146 -65.5t110.5 -130t66 -213t24 -312q0 -180 -25.5 -312t-69 -213t-112 -129t-143.5 -65.5t-176 -17.5h-336v678h-93zM420 223h29q78 0 120.5 37t66 150.5t23.5 326.5q0 162 -12 263.5t-40 157.5t-65.5 75.5t-97.5 19.5h-24 v-329h123v-246h-123v-455z" />
<glyph unicode="&#xd1;" horiz-adv-x="1036" d="M92 0v1475h412l215 -1057v1057h256v-1475h-385l-242 1071v-1071h-256zM244 1581v205q92 67 168 67q56 0 102.5 -19.5t86 -38.5t77.5 -19q68 0 160 73v-204q-93 -68 -168 -68q-56 0 -102.5 19.5t-86.5 39t-78 19.5q-66 0 -159 -74z" />
<glyph unicode="&#xd2;" horiz-adv-x="1001" d="M68 737q0 288 43.5 454.5t136.5 240t252 73.5t252.5 -73.5t137.5 -240.5t44 -454q0 -147 -8.5 -255.5t-28.5 -197t-52 -146t-81.5 -96.5t-113.5 -56t-150 -17q-159 0 -252 73.5t-136.5 240t-43.5 454.5zM162 1812h311l164 -229h-225zM381 737q0 -83 1 -142.5t3 -116.5 t6 -95t10.5 -72t15 -54t21 -35t27.5 -21t35 -6q39 0 62.5 25t37 93.5t17.5 163.5t4 260q0 324 -22 434.5t-99 110.5q-20 0 -35.5 -6t-28 -21.5t-21 -35.5t-15 -54.5t-10 -72.5t-6 -95.5t-3 -117t-0.5 -142.5z" />
<glyph unicode="&#xd3;" horiz-adv-x="1001" d="M68 737q0 288 43.5 454.5t136.5 240t252 73.5t252.5 -73.5t137.5 -240.5t44 -454q0 -147 -8.5 -255.5t-28.5 -197t-52 -146t-81.5 -96.5t-113.5 -56t-150 -17q-159 0 -252 73.5t-136.5 240t-43.5 454.5zM367 1583l163 229h312l-250 -229h-225zM381 737q0 -83 1 -142.5 t3 -116.5t6 -95t10.5 -72t15 -54t21 -35t27.5 -21t35 -6q39 0 62.5 25t37 93.5t17.5 163.5t4 260q0 324 -22 434.5t-99 110.5q-20 0 -35.5 -6t-28 -21.5t-21 -35.5t-15 -54.5t-10 -72.5t-6 -95.5t-3 -117t-0.5 -142.5z" />
<glyph unicode="&#xd4;" horiz-adv-x="1001" d="M68 737q0 288 43.5 454.5t136.5 240t252 73.5t252.5 -73.5t137.5 -240.5t44 -454q0 -147 -8.5 -255.5t-28.5 -197t-52 -146t-81.5 -96.5t-113.5 -56t-150 -17q-159 0 -252 73.5t-136.5 240t-43.5 454.5zM154 1583l215 229h258l215 -229h-250l-94 82l-95 -82h-249z M381 737q0 -83 1 -142.5t3 -116.5t6 -95t10.5 -72t15 -54t21 -35t27.5 -21t35 -6q39 0 62.5 25t37 93.5t17.5 163.5t4 260q0 324 -22 434.5t-99 110.5q-20 0 -35.5 -6t-28 -21.5t-21 -35.5t-15 -54.5t-10 -72.5t-6 -95.5t-3 -117t-0.5 -142.5z" />
<glyph unicode="&#xd5;" horiz-adv-x="1001" d="M68 737q0 288 43.5 454.5t136.5 240t252 73.5t252.5 -73.5t137.5 -240.5t44 -454q0 -147 -8.5 -255.5t-28.5 -197t-52 -146t-81.5 -96.5t-113.5 -56t-150 -17q-159 0 -252 73.5t-136.5 240t-43.5 454.5zM205 1581v205q92 67 168 67q56 0 102.5 -19.5t86 -38.5t77.5 -19 q68 0 160 73v-204q-93 -68 -168 -68q-56 0 -102.5 19.5t-86 39t-77.5 19.5q-67 0 -160 -74zM381 737q0 -83 1 -142.5t3 -116.5t6 -95t10.5 -72t15 -54t21 -35t27.5 -21t35 -6q39 0 62.5 25t37 93.5t17.5 163.5t4 260q0 324 -22 434.5t-99 110.5q-20 0 -35.5 -6t-28 -21.5 t-21 -35.5t-15 -54.5t-10 -72.5t-6 -95.5t-3 -117t-0.5 -142.5z" />
<glyph unicode="&#xd6;" horiz-adv-x="1001" d="M68 737q0 288 43.5 454.5t136.5 240t252 73.5t252.5 -73.5t137.5 -240.5t44 -454q0 -147 -8.5 -255.5t-28.5 -197t-52 -146t-81.5 -96.5t-113.5 -56t-150 -17q-159 0 -252 73.5t-136.5 240t-43.5 454.5zM174 1581v229h266v-229h-266zM381 737q0 -83 1 -142.5t3 -116.5 t6 -95t10.5 -72t15 -54t21 -35t27.5 -21t35 -6q39 0 62.5 25t37 93.5t17.5 163.5t4 260q0 324 -22 434.5t-99 110.5q-20 0 -35.5 -6t-28 -21.5t-21 -35.5t-15 -54.5t-10 -72.5t-6 -95.5t-3 -117t-0.5 -142.5zM561 1581v229h266v-229h-266z" />
<glyph unicode="&#xd7;" d="M68 469l188 188l-188 189l174 174l188 -189l188 189l175 -174l-189 -189l189 -188l-175 -174l-188 188l-188 -188z" />
<glyph unicode="&#xd8;" horiz-adv-x="1001" d="M68 737q0 288 43.5 454.5t136.5 240t252 73.5q71 0 133 -16l59 190h174l-82 -276q78 -83 114 -244.5t36 -421.5q0 -147 -8.5 -255.5t-28.5 -197t-52 -146t-81.5 -96.5t-113.5 -56t-150 -17q-56 0 -129 15l-60 -193h-174l82 275q-79 83 -115 244t-36 427zM381 737 q0 -158 2 -221l186 729q-24 37 -69 37q-20 0 -35.5 -6t-28 -21.5t-21 -35.5t-15 -54.5t-10 -72.5t-6 -95.5t-3 -117t-0.5 -142.5zM438 219q21 -24 62 -24q39 0 62.5 25t37 93.5t17.5 163.5t4 260q0 99 -3 176z" />
<glyph unicode="&#xd9;" horiz-adv-x="976" d="M92 465v1010h307v-1029q0 -150 20 -200.5t75 -50.5q37 0 57 20.5t29.5 74.5t9.5 156v1029h295v-1010q0 -125 -19 -213t-63 -153.5t-121 -97.5t-190 -32t-191 32t-123.5 97t-65.5 154t-20 213zM193 1812h311l164 -229h-226z" />
<glyph unicode="&#xda;" horiz-adv-x="976" d="M92 465v1010h307v-1029q0 -150 20 -200.5t75 -50.5q37 0 57 20.5t29.5 74.5t9.5 156v1029h295v-1010q0 -125 -19 -213t-63 -153.5t-121 -97.5t-190 -32t-191 32t-123.5 97t-65.5 154t-20 213zM317 1583l164 229h312l-250 -229h-226z" />
<glyph unicode="&#xdb;" horiz-adv-x="976" d="M92 465v1010h307v-1029q0 -150 20 -200.5t75 -50.5q37 0 57 20.5t29.5 74.5t9.5 156v1029h295v-1010q0 -125 -19 -213t-63 -153.5t-121 -97.5t-190 -32t-191 32t-123.5 97t-65.5 154t-20 213zM152 1583l215 229h258l215 -229h-250l-94 82l-95 -82h-249z" />
<glyph unicode="&#xdc;" horiz-adv-x="976" d="M92 465v1010h307v-1029q0 -150 20 -200.5t75 -50.5q37 0 57 20.5t29.5 74.5t9.5 156v1029h295v-1010q0 -125 -19 -213t-63 -153.5t-121 -97.5t-190 -32t-191 32t-123.5 97t-65.5 154t-20 213zM170 1583v229h266v-229h-266zM557 1583v229h266v-229h-266z" />
<glyph unicode="&#xdd;" horiz-adv-x="925" d="M0 1475h332l141 -586l166 586h287l-316 -885v-590h-286v590zM309 1583l164 229h311l-249 -229h-226z" />
<glyph unicode="&#xde;" horiz-adv-x="954" d="M92 0v1475h307v-236h13q100 0 173 -11.5t138 -43t104.5 -85.5t62.5 -140.5t23 -206.5t-22.5 -206.5t-62 -140.5t-103 -86t-134.5 -43.5t-167 -11.5h-25v-264h-307zM399 483h29q33 0 57 6t46 23.5t35 47t20.5 77.5t7.5 115q0 112 -19.5 170.5t-55.5 78t-103 19.5h-17v-537 z" />
<glyph unicode="&#xdf;" horiz-adv-x="980" d="M72 0v1092q0 215 96.5 324.5t282.5 109.5q182 0 269 -86.5t87 -257.5q0 -127 -49 -215q-47 -7 -74 -37t-27 -70q0 -42 17 -65.5t71 -57.5q102 -64 153.5 -154.5t51.5 -224.5q0 -163 -77.5 -270.5t-227.5 -107.5q-76 0 -124.5 17.5t-86.5 55.5l103 187q31 -39 69 -39 q68 0 68 133q0 68 -24 105t-93 89q-65 47 -101 112.5t-36 172.5q0 93 32 154t97 104q10 41 10 121q0 62 -29.5 102.5t-78.5 40.5q-43 0 -67 -46t-24 -159v-1130h-288z" />
<glyph unicode="&#xe0;" horiz-adv-x="819" d="M31 324q0 80 14.5 142t49 114.5t96.5 85t151 41.5l119 12v82q0 79 -12 110t-43 31q-53 0 -60 -135l-276 41q64 289 356 289q174 0 248 -92t74 -295v-750h-183l-57 104q-81 -120 -236 -120q-116 0 -178.5 80t-62.5 260zM102 1505h312l164 -280h-216zM322 360 q0 -101 17 -137.5t54 -36.5q34 0 68 19v346l-51 -6q-46 -4 -67 -49t-21 -136z" />
<glyph unicode="&#xe1;" horiz-adv-x="819" d="M31 324q0 80 14.5 142t49 114.5t96.5 85t151 41.5l119 12v82q0 79 -12 110t-43 31q-53 0 -60 -135l-276 41q64 289 356 289q174 0 248 -92t74 -295v-750h-183l-57 104q-81 -120 -236 -120q-116 0 -178.5 80t-62.5 260zM246 1225l164 280h311l-260 -280h-215zM322 360 q0 -101 17 -137.5t54 -36.5q34 0 68 19v346l-51 -6q-46 -4 -67 -49t-21 -136z" />
<glyph unicode="&#xe2;" horiz-adv-x="819" d="M31 324q0 80 14.5 142t49 114.5t96.5 85t151 41.5l119 12v82q0 79 -12 110t-43 31q-53 0 -60 -135l-276 41q64 289 356 289q174 0 248 -92t74 -295v-750h-183l-57 104q-81 -120 -236 -120q-116 0 -178.5 80t-62.5 260zM74 1225l225 280h238l225 -280h-250l-94 106 l-94 -106h-250zM322 360q0 -101 17 -137.5t54 -36.5q34 0 68 19v346l-51 -6q-46 -4 -67 -49t-21 -136z" />
<glyph unicode="&#xe3;" horiz-adv-x="819" d="M31 324q0 80 14.5 142t49 114.5t96.5 85t151 41.5l119 12v82q0 79 -12 110t-43 31q-53 0 -60 -135l-276 41q64 289 356 289q174 0 248 -92t74 -295v-750h-183l-57 104q-81 -120 -236 -120q-116 0 -178.5 80t-62.5 260zM125 1253v205q93 68 168 68q56 0 102.5 -19.5 t86 -39t77.5 -19.5q67 0 160 74v-205q-93 -68 -168 -68q-56 0 -102.5 19.5t-86 39t-77.5 19.5q-67 0 -160 -74zM322 360q0 -101 17 -137.5t54 -36.5q34 0 68 19v346l-51 -6q-46 -4 -67 -49t-21 -136z" />
<glyph unicode="&#xe4;" horiz-adv-x="819" d="M31 324q0 80 14.5 142t49 114.5t96.5 85t151 41.5l119 12v82q0 79 -12 110t-43 31q-53 0 -60 -135l-276 41q64 289 356 289q174 0 248 -92t74 -295v-750h-183l-57 104q-81 -120 -236 -120q-116 0 -178.5 80t-62.5 260zM96 1255v230h266v-230h-266zM322 360 q0 -101 17 -137.5t54 -36.5q34 0 68 19v346l-51 -6q-46 -4 -67 -49t-21 -136zM483 1255v230h267v-230h-267z" />
<glyph unicode="&#xe5;" horiz-adv-x="819" d="M31 324q0 80 14.5 142t49 114.5t96.5 85t151 41.5l119 12v82q0 79 -12 110t-43 31q-53 0 -60 -135l-276 41q64 289 356 289q174 0 248 -92t74 -295v-750h-183l-57 104q-81 -120 -236 -120q-116 0 -178.5 80t-62.5 260zM160 1415q0 116 68 180t194 64q125 0 192.5 -64 t67.5 -180q0 -114 -72 -176.5t-198 -62.5q-124 0 -188 61.5t-64 177.5zM322 360q0 -101 17 -137.5t54 -36.5q34 0 68 19v346l-51 -6q-46 -4 -67 -49t-21 -136zM360 1415q0 -94 62 -94q32 0 46.5 22t14.5 72q0 98 -61 98q-62 0 -62 -98z" />
<glyph unicode="&#xe6;" horiz-adv-x="1212" d="M31 313q0 78 14.5 137t49 108t96.5 79t151 39l119 12v113q0 79 -12 110t-43 31q-53 0 -60 -135l-276 41q64 289 356 289q123 0 205 -76q73 76 186 76q54 0 98 -10t77.5 -26t59.5 -45t43.5 -58t30 -75.5t19.5 -86.5t10.5 -101.5t4.5 -111t1 -123.5h-416q1 -133 11 -203 t26 -90.5t45 -20.5q31 0 47.5 34.5t22.5 103.5l262 -41q-5 -40 -18.5 -79t-40.5 -80.5t-63.5 -72.5t-92.5 -51t-123 -20q-105 0 -165.5 37t-92.5 122q-30 -72 -103 -113.5t-179 -41.5q-125 0 -187.5 76.5t-62.5 252.5zM322 350q0 -69 9 -106t23 -47.5t39 -10.5q39 0 68 29 v305l-51 -6q-46 -5 -67 -42.5t-21 -121.5zM745 684h154q-1 116 -9 173.5t-22 76t-43 18.5q-30 0 -45 -18t-24 -76t-11 -174z" />
<glyph unicode="&#xe7;" horiz-adv-x="790" d="M51 563q0 301 84.5 437.5t276.5 136.5q82 0 144 -25t97 -60.5t59 -88t32.5 -93.5t13.5 -92l-273 -41q-5 105 -18.5 152t-46.5 47q-29 0 -43 -25.5t-21.5 -107t-7.5 -246.5q0 -164 7.5 -246t21 -106.5t41.5 -24.5q69 0 69 197l283 -33q-31 -307 -266 -354l-10 -94 q73 -22 111 -73.5t38 -113.5q0 -107 -67.5 -167t-200.5 -60q-128 0 -228 65l76 146q55 -35 115 -35q82 0 82 63q0 39 -34.5 58.5t-109.5 27.5l48 181q-89 18 -147 76.5t-92 182.5t-34 316z" />
<glyph unicode="&#xe8;" horiz-adv-x="802" d="M51 553q0 215 39 344t116 184.5t202 55.5q54 0 98 -10t77.5 -25.5t59.5 -45.5t43.5 -59.5t30 -77.5t19.5 -90.5t10.5 -107.5t4.5 -118.5t1 -133.5h-412q2 -122 11.5 -184t24 -80.5t42.5 -18.5q31 0 47 34.5t22 103.5l263 -41q-5 -40 -18.5 -79t-40.5 -80.5t-63.5 -72.5 t-92.5 -51t-123 -20q-188 0 -274.5 137.5t-86.5 435.5zM88 1505h311l164 -280h-215zM340 657h149q-1 125 -9 189t-22.5 85t-41.5 21q-29 0 -43.5 -20t-23 -84t-9.5 -191z" />
<glyph unicode="&#xe9;" horiz-adv-x="802" d="M51 553q0 215 39 344t116 184.5t202 55.5q54 0 98 -10t77.5 -25.5t59.5 -45.5t43.5 -59.5t30 -77.5t19.5 -90.5t10.5 -107.5t4.5 -118.5t1 -133.5h-412q2 -122 11.5 -184t24 -80.5t42.5 -18.5q31 0 47 34.5t22 103.5l263 -41q-5 -40 -18.5 -79t-40.5 -80.5t-63.5 -72.5 t-92.5 -51t-123 -20q-188 0 -274.5 137.5t-86.5 435.5zM248 1225l164 280h311l-260 -280h-215zM340 657h149q-1 125 -9 189t-22.5 85t-41.5 21q-29 0 -43.5 -20t-23 -84t-9.5 -191z" />
<glyph unicode="&#xea;" horiz-adv-x="802" d="M51 553q0 215 39 344t116 184.5t202 55.5q54 0 98 -10t77.5 -25.5t59.5 -45.5t43.5 -59.5t30 -77.5t19.5 -90.5t10.5 -107.5t4.5 -118.5t1 -133.5h-412q2 -122 11.5 -184t24 -80.5t42.5 -18.5q31 0 47 34.5t22 103.5l263 -41q-5 -40 -18.5 -79t-40.5 -80.5t-63.5 -72.5 t-92.5 -51t-123 -20q-188 0 -274.5 137.5t-86.5 435.5zM70 1225l225 280h237l226 -280h-250l-94 106l-95 -106h-249zM340 657h149q-1 125 -9 189t-22.5 85t-41.5 21q-29 0 -43.5 -20t-23 -84t-9.5 -191z" />
<glyph unicode="&#xeb;" horiz-adv-x="802" d="M51 553q0 215 39 344t116 184.5t202 55.5q54 0 98 -10t77.5 -25.5t59.5 -45.5t43.5 -59.5t30 -77.5t19.5 -90.5t10.5 -107.5t4.5 -118.5t1 -133.5h-412q2 -122 11.5 -184t24 -80.5t42.5 -18.5q31 0 47 34.5t22 103.5l263 -41q-5 -40 -18.5 -79t-40.5 -80.5t-63.5 -72.5 t-92.5 -51t-123 -20q-188 0 -274.5 137.5t-86.5 435.5zM88 1255v230h266v-230h-266zM340 657h149q-1 125 -9 189t-22.5 85t-41.5 21q-29 0 -43.5 -20t-23 -84t-9.5 -191zM475 1255v230h266v-230h-266z" />
<glyph unicode="&#xec;" horiz-adv-x="434" d="M-43 1505h311l164 -280h-215zM72 0v1106h286v-1106h-286z" />
<glyph unicode="&#xed;" horiz-adv-x="434" d="M-12 1225l164 280h311l-260 -280h-215zM72 0v1106h286v-1106h-286z" />
<glyph unicode="&#xee;" horiz-adv-x="434" d="M-127 1225l199 280h264l225 -280h-250l-94 106l-94 -106h-250zM72 0v1106h286v-1106h-286z" />
<glyph unicode="&#xef;" horiz-adv-x="434" d="M-109 1255v230h267v-230h-267zM72 0v1106h286v-1106h-286zM279 1255v230h266v-230h-266z" />
<glyph unicode="&#xf0;" horiz-adv-x="831" d="M57 485q0 254 58.5 369t203.5 115q93 0 168 -82q-17 150 -69 243l-49 -53h-209l159 166q-55 41 -149 74l96 188q116 -32 211 -94l62 64h209l-156 -162q199 -219 199 -623q0 -172 -14 -293.5t-41 -203t-73.5 -128.5t-105 -66t-141.5 -19q-89 0 -153.5 25.5t-111.5 83.5 t-70.5 156.5t-23.5 239.5zM348 477q0 -127 7 -189.5t20.5 -83t40.5 -20.5q28 0 43 28.5t26 150.5t11 360v2q-44 23 -72 23q-44 0 -60 -56.5t-16 -214.5z" />
<glyph unicode="&#xf1;" horiz-adv-x="856" d="M72 0v1106h194l51 -109q108 140 252 140q119 0 172.5 -86.5t53.5 -296.5v-754h-287v774q0 86 -16.5 112.5t-61.5 26.5q-30 0 -72 -22v-891h-286zM135 1253v205q93 68 168 68q56 0 102.5 -19.5t86 -39t77.5 -19.5q67 0 160 74v-205q-93 -68 -168 -68q-56 0 -102.5 19.5 t-86 39t-77.5 19.5q-67 0 -160 -74z" />
<glyph unicode="&#xf2;" horiz-adv-x="858" d="M51 553q0 133 18.5 234.5t51 167t81 107t104 58.5t124.5 17q87 0 152.5 -27.5t118 -92t79.5 -181t27 -283.5q0 -134 -18.5 -234.5t-50.5 -164.5t-80.5 -103.5t-103 -55t-124.5 -15.5q-88 0 -153.5 26.5t-118 89t-80 177.5t-27.5 280zM119 1505h311l164 -280h-215z M346 553q0 -155 9 -236t26.5 -110t50.5 -29t49.5 28.5t24.5 108t8 238.5q0 157 -8.5 240t-26 113t-49.5 30t-49.5 -31t-26 -114t-8.5 -238z" />
<glyph unicode="&#xf3;" horiz-adv-x="858" d="M51 553q0 133 18.5 234.5t51 167t81 107t104 58.5t124.5 17q87 0 152.5 -27.5t118 -92t79.5 -181t27 -283.5q0 -134 -18.5 -234.5t-50.5 -164.5t-80.5 -103.5t-103 -55t-124.5 -15.5q-88 0 -153.5 26.5t-118 89t-80 177.5t-27.5 280zM268 1225l164 280h311l-260 -280 h-215zM346 553q0 -155 9 -236t26.5 -110t50.5 -29t49.5 28.5t24.5 108t8 238.5q0 157 -8.5 240t-26 113t-49.5 30t-49.5 -31t-26 -114t-8.5 -238z" />
<glyph unicode="&#xf4;" horiz-adv-x="858" d="M51 553q0 133 18.5 234.5t51 167t81 107t104 58.5t124.5 17q87 0 152.5 -27.5t118 -92t79.5 -181t27 -283.5q0 -134 -18.5 -234.5t-50.5 -164.5t-80.5 -103.5t-103 -55t-124.5 -15.5q-88 0 -153.5 26.5t-118 89t-80 177.5t-27.5 280zM84 1225l225 280h238l225 -280h-250 l-94 106l-94 -106h-250zM346 553q0 -155 9 -236t26.5 -110t50.5 -29t49.5 28.5t24.5 108t8 238.5q0 157 -8.5 240t-26 113t-49.5 30t-49.5 -31t-26 -114t-8.5 -238z" />
<glyph unicode="&#xf5;" horiz-adv-x="858" d="M51 553q0 133 18.5 234.5t51 167t81 107t104 58.5t124.5 17q87 0 152.5 -27.5t118 -92t79.5 -181t27 -283.5q0 -134 -18.5 -234.5t-50.5 -164.5t-80.5 -103.5t-103 -55t-124.5 -15.5q-88 0 -153.5 26.5t-118 89t-80 177.5t-27.5 280zM135 1253v205q93 68 168 68 q56 0 102.5 -19.5t86 -39t77.5 -19.5q67 0 160 74v-205q-93 -68 -168 -68q-56 0 -102.5 19.5t-86 39t-77.5 19.5q-67 0 -160 -74zM346 553q0 -155 9 -236t26.5 -110t50.5 -29t49.5 28.5t24.5 108t8 238.5q0 157 -8.5 240t-26 113t-49.5 30t-49.5 -31t-26 -114t-8.5 -238z " />
<glyph unicode="&#xf6;" horiz-adv-x="858" d="M51 553q0 133 18.5 234.5t51 167t81 107t104 58.5t124.5 17q87 0 152.5 -27.5t118 -92t79.5 -181t27 -283.5q0 -134 -18.5 -234.5t-50.5 -164.5t-80.5 -103.5t-103 -55t-124.5 -15.5q-88 0 -153.5 26.5t-118 89t-80 177.5t-27.5 280zM109 1255v230h266v-230h-266z M346 553q0 -155 9 -236t26.5 -110t50.5 -29t49.5 28.5t24.5 108t8 238.5q0 157 -8.5 240t-26 113t-49.5 30t-49.5 -31t-26 -114t-8.5 -238zM496 1255v230h266v-230h-266z" />
<glyph unicode="&#xf7;" d="M82 535v245h696v-245h-696zM281 104v277h297v-277h-297zM281 934v276h297v-276h-297z" />
<glyph unicode="&#xf8;" horiz-adv-x="858" d="M51 553q0 133 18.5 234.5t51 167t81 107t104 58.5t124.5 17q46 0 90 -9l51 168h168l-71 -243q139 -133 139 -500q0 -134 -18.5 -234.5t-50.5 -164.5t-80.5 -103.5t-103 -55t-124.5 -15.5q-50 0 -86 8l-59 -197h-168l78 264q-144 128 -144 498zM346 553q0 -94 2 -133 l127 491q-17 25 -45 25q-32 0 -49.5 -31t-26 -114t-8.5 -238zM389 195q17 -17 43 -17q33 0 49.5 28.5t24.5 108t8 238.5q0 80 -2 113z" />
<glyph unicode="&#xf9;" d="M72 344v762h286v-764q0 -86 14.5 -112.5t55.5 -26.5q28 0 74 22v881h286v-1106h-215l-38 104q-92 -124 -220 -124q-129 0 -186 84.5t-57 279.5zM139 1505h312l163 -280h-215z" />
<glyph unicode="&#xfa;" d="M72 344v762h286v-764q0 -86 14.5 -112.5t55.5 -26.5q28 0 74 22v881h286v-1106h-215l-38 104q-92 -124 -220 -124q-129 0 -186 84.5t-57 279.5zM256 1225l164 280h311l-260 -280h-215z" />
<glyph unicode="&#xfb;" d="M72 344v762h286v-764q0 -86 14.5 -112.5t55.5 -26.5q28 0 74 22v881h286v-1106h-215l-38 104q-92 -124 -220 -124q-129 0 -186 84.5t-57 279.5zM82 1225l225 280h238l225 -280h-250l-94 106l-94 -106h-250z" />
<glyph unicode="&#xfc;" d="M72 344v762h286v-764q0 -86 14.5 -112.5t55.5 -26.5q28 0 74 22v881h286v-1106h-215l-38 104q-92 -124 -220 -124q-129 0 -186 84.5t-57 279.5zM104 1255v230h267v-230h-267zM492 1255v230h266v-230h-266z" />
<glyph unicode="&#xfd;" horiz-adv-x="821" d="M0 1106h313l95 -877l129 877h284l-243 -1137q-34 -161 -113 -234t-205 -73q-76 0 -143 23v204q56 -16 100 -16t71.5 29t37.5 98h-95zM225 1225l164 280h311l-260 -280h-215z" />
<glyph unicode="&#xfe;" horiz-adv-x="829" d="M72 -348v1853h286v-465q94 97 187 97q85 0 133.5 -46t74 -172t25.5 -356q0 -316 -60.5 -449.5t-225.5 -133.5q-78 0 -134 43v-371h-286zM358 162q24 -6 50 -6q15 0 25.5 3.5t19.5 14.5t15 24.5t10.5 39.5t7 54t4 73.5t2 92t0.5 115.5q0 77 -1 126.5t-3.5 90.5t-7 62.5 t-12.5 36.5t-17.5 19.5t-24.5 4.5q-29 0 -68 -22v-729z" />
<glyph unicode="&#xff;" horiz-adv-x="821" d="M0 1106h313l95 -877l129 877h284l-243 -1137q-34 -161 -113 -234t-205 -73q-76 0 -143 23v204q56 -16 100 -16t71.5 29t37.5 98h-95zM88 1255v230h266v-230h-266zM475 1255v230h266v-230h-266z" />
<glyph unicode="&#x152;" horiz-adv-x="1337" d="M68 737q0 288 43.5 454.5t136.5 240t252 73.5q102 0 178 -30h604v-236h-420q40 -131 49 -385h310v-221h-310q-3 -267 -43 -402h414v-231h-594q-79 -31 -188 -31q-159 0 -252 73.5t-136.5 240t-43.5 454.5zM381 737q0 -83 1 -142.5t3 -116.5t6 -95t10.5 -72t15 -54t21 -35 t27.5 -21t35 -6q39 0 62.5 25t37 93.5t17.5 163.5t4 260q0 324 -22 434.5t-99 110.5q-20 0 -35.5 -6t-28 -21.5t-21 -35.5t-15 -54.5t-10 -72.5t-6 -95.5t-3 -117t-0.5 -142.5z" />
<glyph unicode="&#x153;" horiz-adv-x="1236" d="M51 553q0 167 24.5 282t75 180.5t117.5 93.5t162 28q64 0 121 -26.5t86 -70.5q31 45 85 71t120 26q54 0 98 -10t77.5 -25.5t59.5 -45.5t43.5 -59.5t30 -77.5t19.5 -90.5t10.5 -107.5t4.5 -118.5t1 -133.5h-412q2 -122 11.5 -184t24 -80.5t42.5 -18.5q31 0 47.5 34.5 t22.5 103.5l262 -41q-5 -40 -18.5 -79t-40.5 -80.5t-63.5 -72.5t-92.5 -51t-123 -20q-65 0 -122.5 27t-80.5 69q-30 -44 -89 -70t-124 -26q-76 0 -133 16t-104.5 55.5t-78 104t-47 164t-16.5 233.5zM346 553q0 -155 9 -236t26.5 -110t50.5 -29t49.5 28.5t24.5 108t8 238.5 q0 157 -8.5 240t-26 113t-49.5 30t-49.5 -31t-26 -114t-8.5 -238zM774 657h150q-1 126 -9 189.5t-22.5 84.5t-42.5 21q-31 0 -45.5 -20t-22 -82.5t-8.5 -192.5z" />
<glyph unicode="&#x178;" horiz-adv-x="925" d="M0 1475h332l143 -586l164 586h287l-316 -885v-590h-286v590zM139 1583v229h267v-229h-267zM526 1583v229h267v-229h-267z" />
<glyph unicode="&#x2c6;" horiz-adv-x="811" d="M61 1225l226 280h237l226 -280h-250l-94 106l-95 -106h-250z" />
<glyph unicode="&#x2dc;" horiz-adv-x="716" d="M61 1253v205q93 68 168 68q56 0 102.5 -19.5t86.5 -39t78 -19.5q66 0 159 74v-205q-93 -68 -168 -68q-56 0 -102.5 19.5t-86 39t-77.5 19.5q-67 0 -160 -74z" />
<glyph unicode="&#x2000;" horiz-adv-x="947" />
<glyph unicode="&#x2001;" horiz-adv-x="1894" />
<glyph unicode="&#x2002;" horiz-adv-x="947" />
<glyph unicode="&#x2003;" horiz-adv-x="1894" />
<glyph unicode="&#x2004;" horiz-adv-x="631" />
<glyph unicode="&#x2005;" horiz-adv-x="473" />
<glyph unicode="&#x2006;" horiz-adv-x="315" />
<glyph unicode="&#x2007;" horiz-adv-x="315" />
<glyph unicode="&#x2008;" horiz-adv-x="236" />
<glyph unicode="&#x2009;" horiz-adv-x="378" />
<glyph unicode="&#x200a;" horiz-adv-x="105" />
<glyph unicode="&#x2010;" horiz-adv-x="614" d="M61 535v245h492v-245h-492z" />
<glyph unicode="&#x2011;" horiz-adv-x="614" d="M61 535v245h492v-245h-492z" />
<glyph unicode="&#x2012;" horiz-adv-x="614" d="M61 535v245h492v-245h-492z" />
<glyph unicode="&#x2013;" horiz-adv-x="788" d="M61 535v245h666v-245h-666z" />
<glyph unicode="&#x2014;" horiz-adv-x="1003" d="M82 535v245h840v-245h-840z" />
<glyph unicode="&#x2018;" horiz-adv-x="450" d="M82 938v254l123 313h153l-75 -311h86v-256h-287z" />
<glyph unicode="&#x2019;" horiz-adv-x="450" d="M82 1249v256h287v-254l-123 -313h-154l76 311h-86z" />
<glyph unicode="&#x201a;" horiz-adv-x="450" d="M82 0v256h287v-254l-123 -313h-154l76 311h-86z" />
<glyph unicode="&#x201c;" horiz-adv-x="819" d="M82 938v254l123 313h153l-75 -311h86v-256h-287zM451 938v254l122 313h154l-76 -311h86v-256h-286z" />
<glyph unicode="&#x201d;" horiz-adv-x="819" d="M82 1249v256h287v-254l-123 -313h-154l76 311h-86zM451 1249v256h286v-254l-123 -313h-153l76 311h-86z" />
<glyph unicode="&#x201e;" horiz-adv-x="819" d="M82 0v256h287v-254l-123 -313h-154l76 311h-86zM451 0v256h286v-254l-123 -313h-153l76 311h-86z" />
<glyph unicode="&#x2022;" horiz-adv-x="522" d="M61 522v379h400v-379h-400z" />
<glyph unicode="&#x2026;" horiz-adv-x="1382" d="M82 0v276h297v-276h-297zM543 0v276h297v-276h-297zM1004 0v276h296v-276h-296z" />
<glyph unicode="&#x202f;" horiz-adv-x="378" />
<glyph unicode="&#x2039;" horiz-adv-x="563" d="M61 668l236 419h184l-147 -425l127 -455h-185z" />
<glyph unicode="&#x203a;" horiz-adv-x="563" d="M82 1087h184l236 -419l-215 -461h-185l127 455z" />
<glyph unicode="&#x205f;" horiz-adv-x="473" />
<glyph unicode="&#x20ac;" d="M37 449l41 200h100v109h-141l41 200h112q16 146 52 245.5t92 153t121.5 75.5t152.5 22q127 0 234 -76l-45 -221q-59 44 -100 62t-89 18q-61 0 -92 -60t-43 -219h283l-41 -200h-248v-109h227l-41 -200h-180q7 -108 24.5 -166.5t41.5 -76.5t63 -18q78 0 170 50v-224 q-34 -18 -90.5 -31.5t-106.5 -13.5q-62 0 -110.5 11.5t-96 43.5t-81.5 84.5t-59.5 138.5t-37.5 202h-153z" />
<glyph unicode="&#x2122;" horiz-adv-x="1488" d="M31 1294v181h860l90 -514l90 514h315v-811h-210v573l-121 -573h-150l-127 573v-573h-194v630h-164v-630h-221v630h-168z" />
<glyph unicode="&#xe000;" horiz-adv-x="1105" d="M0 0v1106h1106v-1106h-1106z" />
</font>
</defs>
</svg>
