<?xml version="1.0" standalone="no"?>
<!DOCTYPE svg PUBLIC "-//W3C//DTD SVG 1.1//EN" "http://www.w3.org/Graphics/SVG/1.1/DTD/svg11.dtd" >
<svg xmlns="http://www.w3.org/2000/svg" xmlns:xlink="http://www.w3.org/1999/xlink" version="1.1">
<metadata>
Created by FontForge 20161003 at Fri Dec  2 17:19:36 2016
 By www-data
Designed by Paul van der Laan &#38; Pieter van Rosmalen 2008. Produced by Bold Monday. For exclusive use by AUDI AG and its affiliates only.
</metadata>
<defs>
<font id="AudiTypeV03ExtendedItalic" horiz-adv-x="800" >
  <font-face 
    font-family="AudiTypeV03ExtendedItalic"
    font-weight="400"
    font-style="italic"
    font-stretch="expanded"
    units-per-em="1000"
    panose-1="2 11 5 5 4 2 0 0 0 3"
    ascent="760"
    descent="-240"
    x-height="513"
    cap-height="724"
    bbox="-355 -240 2218 980"
    underline-thickness="50"
    underline-position="-150"
    slope="-16"
    unicode-range="U+000D-FB04"
  />
<missing-glyph horiz-adv-x="363" 
d="M-57 -211l268 935h193l-268 -935h-193z" />
    <glyph glyph-name="uniFB00" unicode="ff" horiz-adv-x="977" 
d="M78 435l19 65l145 12l10 35q55 189 266 189q73 0 136 -23l-21 -72q-54 18 -122 18t-107 -30.5t-58 -91.5l-7 -24h366l10 34q55 189 266 189q73 0 136 -23l-21 -72q-54 18 -122 18t-107 -30.5t-58 -91.5l-7 -24h207l-23 -78h-207l-187 -646h-97l187 646h-366l-187 -646
h-97l187 646h-141z" />
    <glyph glyph-name="fi" unicode="fi" horiz-adv-x="842" 
d="M78 435l19 65l145 12l10 35q55 189 266 189q73 0 136 -23l-21 -72q-54 18 -122 18t-107 -30.5t-58 -91.5l-7 -24h463l-149 -513h-99l126 435h-364l-187 -646h-97l187 646h-141zM733 615l31 109h99l-31 -109h-99z" />
    <glyph glyph-name="fl" unicode="fl" horiz-adv-x="903" 
d="M78 435l19 65l145 12l10 35q55 189 266 189q73 0 136 -23l-21 -72q-54 18 -122 18t-107 -30.5t-58 -91.5l-7 -24h207l-23 -78h-207l-187 -646h-97l187 646h-141zM688 -12q-54 0 -81.5 25t-27.5 69q0 27 8 52l171 590h98l-172 -593q-5 -18 -5 -28q0 -35 48 -35q41 0 79 11
l-21 -75q-41 -16 -97 -16z" />
    <glyph glyph-name="uniFB03" unicode="ffi" horiz-adv-x="1305" 
d="M78 435l19 65l145 12l10 35q55 189 266 189q73 0 136 -23l-21 -72q-54 18 -122 18t-107 -30.5t-58 -91.5l-7 -24h366l10 34q55 189 266 189q73 0 136 -23l-21 -72q-54 18 -122 18t-107 -30.5t-58 -91.5l-7 -24h463l-149 -513h-99l126 435h-364l-187 -646h-97l187 646
h-366l-187 -646h-97l187 646h-141zM1196 615l31 109h99l-31 -109h-99z" />
    <glyph glyph-name="uniFB04" unicode="ffl" horiz-adv-x="1366" 
d="M316 435l-187 -646h-97l187 646h-141l19 65l145 12l10 35q55 189 266 189q73 0 136 -23l-21 -72q-54 18 -122 18t-107 -30.5t-58 -91.5l-7 -24h366l10 34q55 189 266 189q73 0 136 -23l-21 -72q-54 18 -122 18t-107 -30.5t-58 -91.5l-7 -24h207l-23 -78h-207l-187 -646
h-97l187 646h-366zM1151 -12q-54 0 -81.5 25t-27.5 69q0 27 8 52l171 590h98l-172 -593q-5 -18 -5 -28q0 -35 48 -35q41 0 79 11l-21 -75q-41 -16 -97 -16z" />
    <glyph glyph-name=".notdef" horiz-adv-x="363" 
d="M-57 -211l268 935h193l-268 -935h-193z" />
    <glyph glyph-name=".null" horiz-adv-x="0" 
 />
    <glyph glyph-name=".null" horiz-adv-x="0" 
 />
    <glyph glyph-name="nonmarkingreturn" horiz-adv-x="333" 
 />
    <glyph glyph-name="CR" unicode="&#xd;" horiz-adv-x="0" 
 />
    <glyph glyph-name="space" unicode=" " horiz-adv-x="331" 
 />
    <glyph glyph-name="exclam" unicode="!" horiz-adv-x="402" 
d="M145 199l20 105q28 146 50 223l57 197h108l-57 -197q-9 -31 -25 -73.5t-35.5 -91t-23.5 -58.5l-40 -105h-54zM52 0l35 122h128l-35 -122h-128z" />
    <glyph glyph-name="quotedbl" unicode="&#x22;" horiz-adv-x="510" 
d="M171 470l3 46q8 76 14 98l31 110h104l-31 -110q-7 -24 -44 -98l-24 -46h-53zM389 470l3 46q8 76 14 98l31 110h104l-31 -110q-7 -24 -44 -98l-24 -46h-53z" />
    <glyph glyph-name="numbersign" unicode="#" 
d="M167 456l22 72h119l52 135h82l-52 -135h180l52 135h82l-52 -135h91l-21 -72h-98l-75 -197h116l-21 -72h-123l-54 -142h-81l54 142h-180l-54 -142h-82l54 142h-88l21 72h94l76 197h-114zM363 456l-76 -197h180l76 197h-180z" />
    <glyph glyph-name="dollar" unicode="$" 
d="M233 -93l34 115q-139 8 -213 42l22 74q40 -15 110.5 -26.5t127.5 -11.5q120 0 185.5 31t65.5 84q0 38 -41 63.5t-129 52.5q-40 12 -67 22t-58 26t-50 33.5t-31.5 42t-12.5 54.5q0 86 77.5 139t211.5 60l32 109h83l-32 -110q126 -7 199 -41l-22 -75q-89 39 -225 39
q-110 0 -166.5 -29.5t-56.5 -82.5q0 -37 38.5 -61.5t129.5 -52.5q45 -14 72 -24t59.5 -26t50 -32t29.5 -39.5t12 -51.5q0 -90 -83 -146.5t-236 -63.5l-33 -114h-83z" />
    <glyph glyph-name="percent" unicode="%" horiz-adv-x="1189" 
d="M320 361q-78 0 -126.5 43t-48.5 109q0 100 73.5 161.5t178.5 61.5q78 0 126.5 -43t48.5 -109q0 -100 -73.5 -161.5t-178.5 -61.5zM330 431q65 0 108.5 40.5t43.5 106.5q0 42 -25 65t-70 23q-65 0 -108.5 -40.5t-43.5 -106.5q0 -42 25 -65t70 -23zM863 -12
q-78 0 -126.5 43t-48.5 109q0 100 73.5 161.5t178.5 61.5q78 0 126.5 -43t48.5 -109q0 -100 -73.5 -161.5t-178.5 -61.5zM873 58q65 0 108.5 40.5t43.5 106.5q0 42 -25 65t-70 23q-65 0 -108.5 -40.5t-43.5 -106.5q0 -42 25 -65t70 -23zM165 0l813 724h115l-812 -724h-116z
" />
    <glyph glyph-name="ampersand" unicode="&#x26;" horiz-adv-x="1037" 
d="M419 -12q-165 0 -250 54t-85 137q0 40 16.5 73.5t41 55t58 38.5t61.5 26t59 15q-104 45 -104 132q0 101 98 159t254 58q57 0 124.5 -11t101.5 -29l-21 -72q-38 17 -101 27t-114 10q-108 0 -176 -38t-68 -98q0 -51 50.5 -80.5t145.5 -29.5h478l-23 -79h-122l-77 -267
q-141 -81 -347 -81zM427 65q143 0 251 45l65 226h-281q-121 0 -200 -41t-79 -102q0 -58 61.5 -93t182.5 -35z" />
    <glyph glyph-name="quotesingle" unicode="'" horiz-adv-x="294" 
d="M165 470l3 46q8 76 14 98l31 110h104l-31 -110q-7 -24 -44 -98l-24 -46h-53z" />
    <glyph glyph-name="parenleft" unicode="(" horiz-adv-x="451" 
d="M225 -92q-48 44 -84 132t-36 173q0 90 29 175.5t78 154t108.5 122.5t126.5 93h101q-68 -46 -124 -97.5t-108 -119t-81.5 -151.5t-29.5 -175q0 -81 31 -168t76 -139h-87z" />
    <glyph glyph-name="parenright" unicode=")" horiz-adv-x="451" 
d="M-69 -92q68 46 124 97.5t108 119t81.5 151.5t29.5 175q0 81 -31 168t-76 139h87q48 -44 84 -132t36 -173q0 -90 -29 -175.5t-78 -154t-108.5 -122.5t-126.5 -93h-101z" />
    <glyph glyph-name="asterisk" unicode="*" horiz-adv-x="540" 
d="M247 394l-57 39l48 55q28 34 60 54q-36 -9 -76 -9h-73l20 66h73q43 0 69 -6q-13 28 -19 51l-18 62l64 32l22 -74q3 -11 10 -44q14 32 43 67l44 51l57 -39l-48 -55q-33 -37 -60 -55q33 10 76 10h73l-20 -66h-73q-42 0 -70 6q10 -22 20 -51l18 -62l-64 -32l-22 74
q-8 25 -10 44q-17 -36 -43 -67z" />
    <glyph glyph-name="plus" unicode="+" horiz-adv-x="742" 
d="M61 261l23 78h253l62 213h91l-62 -213h253l-23 -78h-253l-64 -222h-91l64 222h-253z" />
    <glyph glyph-name="comma" unicode="," horiz-adv-x="354" 
d="M-77 -145l131 155v112h90q57 0 57 -38q0 -64 -144 -186l-51 -43h-83z" />
    <glyph glyph-name="hyphen" unicode="-" horiz-adv-x="478" 
d="M57 253l28 94h336l-27 -94h-337z" />
    <glyph glyph-name="period" unicode="." horiz-adv-x="354" 
d="M39 0l35 122h128l-35 -122h-128z" />
    <glyph glyph-name="slash" unicode="/" horiz-adv-x="539" 
d="M-49 0l594 724h107l-593 -724h-108z" />
    <glyph glyph-name="zero" unicode="0" 
d="M360 -12q-139 0 -215.5 77t-76.5 189q0 97 27.5 183t79.5 153t135 106.5t187 39.5q140 0 216 -75t76 -187q0 -97 -27.5 -183.5t-79.5 -154.5t-135.5 -108t-186.5 -40zM368 67q95 0 169 60t110 149.5t36 187.5q0 85 -49.5 139t-144.5 54q-96 0 -169.5 -59t-109.5 -147.5
t-36 -186.5q0 -86 49.5 -141.5t144.5 -55.5z" />
    <glyph glyph-name="one" unicode="1" 
d="M273 583l25 86l238 55h65l-186 -640h190l-25 -84h-477l24 84h186l158 541z" />
    <glyph glyph-name="two" unicode="2" 
d="M26 0l22 79l264 169q84 53 131.5 86t97 74t71.5 76t22 69q0 49 -40 72.5t-126 23.5q-115 0 -248 -45l26 88q109 44 240 44q125 0 190 -45.5t65 -127.5q0 -89 -81 -171.5t-285 -205.5l-169 -102h460l-24 -84h-616z" />
    <glyph glyph-name="three" unicode="3" 
d="M315 -12q-154 0 -256 49l23 81q134 -44 241 -44q106 0 174.5 35t68.5 103q0 56 -48 87t-140 31h-87l23 81h83q57 0 105.5 12.5t85 46t36.5 83.5q0 51 -44 74t-114 23q-132 0 -248 -42l25 85q111 43 238 43q112 0 181 -46t69 -124q0 -76 -45 -126t-125 -72
q112 -43 112 -151q0 -103 -93 -166t-265 -63z" />
    <glyph glyph-name="four" unicode="4" 
d="M435 0l46 160h-453l24 82l585 482h109l-140 -482h141l-23 -82h-142l-46 -160h-101zM179 242h325l102 351z" />
    <glyph glyph-name="five" unicode="5" 
d="M294 -12q-68 0 -139.5 13t-111.5 32l24 82q109 -41 235 -41q128 0 200.5 36.5t72.5 95.5q0 44 -40 76t-106 47.5t-130.5 22t-132.5 6.5l123 366h504l-24 -84h-407l-69 -205q76 -4 143.5 -18t125.5 -39t92.5 -65t34.5 -91q0 -111 -103 -172.5t-292 -61.5z" />
    <glyph glyph-name="six" unicode="6" 
d="M369 -12q-134 0 -214.5 69t-80.5 187q0 223 139 357.5t363 134.5q127 0 212 -29l-25 -84q-89 25 -195 25q-139 0 -236.5 -69t-133.5 -190q110 74 258 74q118 0 190 -59.5t72 -147.5q0 -87 -51 -149.5t-128 -90.5t-170 -28zM433 382q-134 0 -250 -65q-4 -27 -4 -63
q0 -94 54.5 -140.5t143.5 -46.5q60 0 110.5 16.5t87 58.5t36.5 104t-47.5 99t-130.5 37z" />
    <glyph glyph-name="seven" unicode="7" 
d="M107 0l583 640h-477l24 84h604l-23 -79l-588 -645h-123z" />
    <glyph glyph-name="eight" unicode="8" 
d="M349 -12q-153 0 -233 54t-80 137q0 49 23 88t61.5 62.5t73.5 37t74 22.5q-101 41 -101 130q0 101 96.5 159t251.5 58q121 0 196.5 -49t75.5 -121q0 -153 -185 -198q124 -56 124 -152q0 -99 -99.5 -163.5t-277.5 -64.5zM356 67q115 0 189 42.5t74 103.5q0 55 -54 89.5
t-159 34.5q-116 0 -189.5 -42t-73.5 -102q0 -56 54 -91t159 -35zM455 412q99 0 162 38t63 93q0 51 -46 82.5t-135 31.5q-99 0 -162 -38.5t-63 -93.5q0 -51 46 -82t135 -31z" />
    <glyph glyph-name="nine" unicode="9" 
d="M279 -12q-127 0 -212 29l25 83q89 -25 195 -25q144 0 241.5 74t128.5 203q-112 -77 -264 -77q-118 0 -190 57.5t-72 142.5q0 125 102 193t247 68q134 0 214.5 -69t80.5 -187q0 -223 -136.5 -357.5t-359.5 -134.5zM416 356q135 0 252 65q2 32 2 49q0 94 -54.5 140.5
t-143.5 46.5q-60 0 -110.5 -15.5t-87 -56t-36.5 -100.5q0 -59 47.5 -94t130.5 -35z" />
    <glyph glyph-name="colon" unicode=":" horiz-adv-x="354" 
d="M39 0l35 122h128l-35 -122h-128zM153 391l35 122h128l-35 -122h-128z" />
    <glyph glyph-name="semicolon" unicode=";" horiz-adv-x="354" 
d="M-77 -145l131 155v112h90q57 0 57 -38q0 -64 -144 -186l-51 -43h-83zM153 391l35 122h128l-35 -122h-128z" />
    <glyph glyph-name="less" unicode="&#x3c;" horiz-adv-x="742" 
d="M400 39l-299 261l425 252h150l-438 -261l289 -252h-127z" />
    <glyph glyph-name="equal" unicode="=" horiz-adv-x="742" 
d="M58 161l23 78h545l-22 -78h-546zM116 361l22 78h546l-23 -78h-545z" />
    <glyph glyph-name="greater" unicode="&#x3e;" horiz-adv-x="742" 
d="M27 39l437 260l-288 253h127l299 -261l-425 -252h-150z" />
    <glyph glyph-name="question" unicode="?" horiz-adv-x="567" 
d="M153 198l29 132l155 78q86 43 126.5 79.5t40.5 80.5q0 81 -150 81q-112 0 -233 -44l25 86q113 45 235 45q101 0 167.5 -42.5t66.5 -112.5q0 -43 -19 -80.5t-56.5 -68t-72.5 -51t-86 -45.5l-126 -61l-28 -77h-74zM73 0l35 122h128l-35 -122h-128z" />
    <glyph glyph-name="at" unicode="@" horiz-adv-x="1215" 
d="M536 24q-99 0 -158.5 56t-59.5 141q0 132 91 210t243 78q101 0 174 -41l15 29h74l-87 -299q-10 -36 -10 -54q0 -21 17.5 -36t52.5 -15q73 0 135 74t62 197q0 150 -104.5 225.5t-295.5 75.5q-229 0 -374 -120t-145 -331q0 -159 102.5 -256.5t286.5 -97.5q117 0 215 32
l-24 -75q-81 -28 -199 -28q-113 0 -204.5 33.5t-149.5 91.5t-89 132.5t-31 157.5q0 166 82.5 288t221.5 183t316 61q217 0 348.5 -96.5t131.5 -265.5q0 -147 -86 -247.5t-216 -100.5q-111 0 -136 71q-75 -73 -199 -73zM567 93q83 0 156 50l77 267q-64 28 -149 28
q-104 0 -171.5 -53.5t-67.5 -153.5q0 -67 41 -102.5t114 -35.5z" />
    <glyph glyph-name="A" unicode="A" horiz-adv-x="853" 
d="M-67 0l560 724h116l141 -724h-103l-35 179h-423l-138 -179h-118zM530 635l-281 -372h348z" />
    <glyph glyph-name="B" unicode="B" horiz-adv-x="802" 
d="M44 0l207 724h233q127 0 200.5 -43.5t73.5 -128.5q0 -72 -46.5 -119t-126.5 -68q124 -46 124 -150q0 -113 -92.5 -164t-274.5 -51h-298zM416 328h-177l-70 -245h177q127 0 193 29t66 101q0 56 -49 85.5t-140 29.5zM461 641h-132l-67 -233h146q120 0 182 28.5t62 102.5
q0 57 -47 79.5t-144 22.5z" />
    <glyph glyph-name="C" unicode="C" horiz-adv-x="768" 
d="M404 -12q-149 0 -235 83t-86 215q0 190 141.5 320t347.5 130q144 0 221 -39l-24 -82q-76 36 -198 36q-152 0 -267.5 -99.5t-115.5 -255.5q0 -224 243 -224q113 0 216 35l-26 -87q-78 -32 -217 -32z" />
    <glyph glyph-name="D" unicode="D" horiz-adv-x="877" 
d="M44 0l207 724h265q154 0 243.5 -79.5t89.5 -203.5q0 -125 -65.5 -226t-179 -158t-251.5 -57h-309zM513 640h-184l-159 -556h194q164 0 272 100t108 247q0 94 -59.5 151.5t-171.5 57.5z" />
    <glyph glyph-name="E" unicode="E" horiz-adv-x="772" 
d="M44 0l207 724h561l-24 -84h-459l-65 -226h400l-24 -84h-400l-70 -246h463l-24 -84h-565z" />
    <glyph glyph-name="F" unicode="F" horiz-adv-x="714" 
d="M44 0l207 724h528l-24 -84h-426l-71 -248h364l-24 -84h-364l-88 -308h-102z" />
    <glyph glyph-name="G" unicode="G" horiz-adv-x="894" 
d="M437 -12q-181 0 -267.5 82t-86.5 220q0 130 68.5 233t184 158t255.5 55q175 0 250 -39l-24 -82q-91 36 -226 36q-174 0 -288.5 -101t-114.5 -250q0 -125 66 -177.5t197 -52.5q98 0 188 30l72 249h102l-91 -314q-138 -47 -285 -47z" />
    <glyph glyph-name="H" unicode="H" horiz-adv-x="912" 
d="M613 0l93 321h-467l-93 -321h-102l210 724h102l-93 -319h467l93 319h102l-210 -724h-102z" />
    <glyph glyph-name="I" unicode="I" horiz-adv-x="533" 
d="M192 640l24 84h361l-24 -84h-129l-162 -556h129l-24 -84h-361l24 84h130l162 556h-130z" />
    <glyph glyph-name="J" unicode="J" horiz-adv-x="424" 
d="M157 640l25 84h250l-185 -638q-35 -123 -99 -175.5t-157 -52.5q-70 0 -104 15l22 83q31 -11 69 -11q70 0 108.5 36.5t65.5 129.5l153 529h-148z" />
    <glyph glyph-name="K" unicode="K" horiz-adv-x="845" 
d="M44 0l210 724h102l-94 -325l500 325h157l-573 -365l382 -359h-139l-347 333l-96 -333h-102z" />
    <glyph glyph-name="L" unicode="L" horiz-adv-x="674" 
d="M44 0l207 724h102l-183 -640h397l-24 -84h-499z" />
    <glyph glyph-name="M" unicode="M" horiz-adv-x="1069" 
d="M44 0l210 724h98l175 -414l414 414h117l-210 -724h-99l170 584l-385 -384h-58l-163 384l-170 -584h-99z" />
    <glyph glyph-name="N" unicode="N" horiz-adv-x="960" 
d="M44 0l210 724h103l320 -599l174 599h100l-210 -724h-102l-321 601l-174 -601h-100z" />
    <glyph glyph-name="O" unicode="O" horiz-adv-x="928" 
d="M416 -12q-86 0 -151.5 24.5t-104 67t-58 93t-19.5 107.5q0 189 130.5 322.5t337.5 133.5q85 0 151 -24.5t104.5 -67t58 -93t19.5 -107.5q0 -189 -130.5 -322.5t-337.5 -133.5zM424 70q85 0 155 33t112.5 87t65 117t22.5 128q0 101 -58.5 160t-178.5 59q-85 0 -154.5 -33
t-112 -87t-65 -117.5t-22.5 -127.5q0 -101 58 -160t178 -59z" />
    <glyph glyph-name="P" unicode="P" horiz-adv-x="767" 
d="M44 0l210 724h268q127 0 194 -54t67 -130q0 -72 -29.5 -125.5t-82 -84.5t-116.5 -45.5t-140 -14.5h-192l-77 -270h-102zM487 640h-157l-82 -286h163q267 0 267 176q0 50 -47 80t-144 30z" />
    <glyph glyph-name="Q" unicode="Q" horiz-adv-x="928" 
d="M416 -12q-86 0 -151.5 24.5t-104 67t-58 93t-19.5 107.5q0 189 130.5 322.5t337.5 133.5q85 0 151 -24.5t104.5 -67t58 -93t19.5 -107.5q0 -132 -66.5 -241.5t-182.5 -166.5l114 -138h-81q-37 0 -53 20l-71 85q-67 -15 -128 -15zM424 70q35 0 62 4l-86 105h35
q60 0 78 -7.5t49 -45.5l18 -23q95 46 147 139t52 193q0 101 -58.5 160t-178.5 59q-85 0 -154.5 -33t-112 -87t-65 -117.5t-22.5 -127.5q0 -101 58 -160t178 -59z" />
    <glyph glyph-name="R" unicode="R" horiz-adv-x="807" 
d="M44 0l210 724h255q264 0 264 -167q0 -113 -76.5 -175t-214.5 -76q25 -12 45 -39l200 -267h-121l-193 260q-18 24 -35 31t-58 7h-88l-86 -298h-102zM481 640h-150l-75 -259h139q273 0 273 166q0 51 -43.5 72t-143.5 21z" />
    <glyph glyph-name="S" unicode="S" horiz-adv-x="756" 
d="M274 -12q-150 0 -251 44l24 82q114 -42 235 -42t189.5 35t68.5 92q0 42 -37 68t-130 58q-54 19 -87 33.5t-66 37.5t-48.5 55t-15.5 74q0 96 91 153.5t243 57.5q151 0 243 -45l-24 -82q-100 42 -227 42q-106 0 -163 -33t-57 -90q0 -40 34.5 -66t128.5 -58q61 -21 93.5 -35
t66 -37t47.5 -53.5t14 -73.5q0 -96 -97 -156.5t-275 -60.5z" />
    <glyph glyph-name="T" unicode="T" horiz-adv-x="755" 
d="M142 640l24 84h692l-24 -84h-296l-185 -640h-102l185 640h-294z" />
    <glyph glyph-name="U" unicode="U" horiz-adv-x="879" 
d="M367 -12q-122 0 -193.5 57t-71.5 154q0 41 13 84l128 441h102l-128 -443q-13 -43 -13 -80q0 -127 170 -127q221 0 281 207l128 443h102l-136 -469q-78 -267 -382 -267z" />
    <glyph glyph-name="V" unicode="V" horiz-adv-x="807" 
d="M264 0l-125 724h102l102 -614l453 614h122l-544 -724h-110z" />
    <glyph glyph-name="W" unicode="W" horiz-adv-x="1337" 
d="M246 0l-94 724h102l69 -609l412 609h97l62 -613l426 613h113l-513 -724h-101l-65 594l-406 -594h-102z" />
    <glyph glyph-name="X" unicode="X" horiz-adv-x="793" 
d="M-60 0l420 378l-189 346h111l147 -281l303 281h134l-394 -356l214 -368h-113l-169 304l-331 -304h-133z" />
    <glyph glyph-name="Y" unicode="Y" horiz-adv-x="777" 
d="M254 0l78 270l-193 454h111l148 -371l365 371h126l-455 -451l-79 -273h-101z" />
    <glyph glyph-name="Z" unicode="Z" horiz-adv-x="761" 
d="M-8 0l22 79l621 561h-447l24 84h586l-24 -79l-621 -561h473l-24 -84h-610z" />
    <glyph glyph-name="bracketleft" unicode="[" horiz-adv-x="451" 
d="M29 -93l247 851h230l-17 -58h-136l-213 -735h136l-17 -58h-230z" />
    <glyph glyph-name="backslash" unicode="\" horiz-adv-x="539" 
d="M357 0l-200 724h83l200 -724h-83z" />
    <glyph glyph-name="bracketright" unicode="]" horiz-adv-x="451" 
d="M-47 -93l17 58h137l212 735h-136l17 58h230l-246 -851h-231z" />
    <glyph glyph-name="asciicircum" unicode="^" horiz-adv-x="544" 
d="M87 436l270 288h78l104 -288h-85l-75 210l-194 -210h-98z" />
    <glyph glyph-name="underscore" unicode="_" horiz-adv-x="550" 
d="M-93 -78l22 78h549l-23 -78h-548z" />
    <glyph glyph-name="grave" unicode="`" horiz-adv-x="504" 
d="M331 588l-101 158h121l63 -158h-83z" />
    <glyph glyph-name="a" unicode="a" horiz-adv-x="774" 
d="M509 0v49q-81 -61 -195 -61q-109 0 -175 63t-66 162q0 142 101 227t269 85q49 0 102 -13.5t88 -33.5l19 35h82l-149 -513h-76zM349 64q88 0 172 56l86 298q-68 30 -165 30q-116 0 -191.5 -59t-75.5 -166q0 -78 46 -118.5t128 -40.5z" />
    <glyph glyph-name="b" unicode="b" horiz-adv-x="776" 
d="M40 0l210 724h99l-74 -255q81 56 185 56q112 0 176.5 -62t64.5 -158q0 -145 -102.5 -231t-267.5 -86q-111 0 -191 46l-18 -34h-82zM425 448q-86 0 -173 -57l-86 -297q65 -30 166 -30q113 0 190 60.5t77 170.5q0 75 -44.5 114t-129.5 39z" />
    <glyph glyph-name="c" unicode="c" horiz-adv-x="628" 
d="M321 -12q-112 0 -180 63t-68 159q0 143 106 229t271 86q94 0 162 -33l-23 -75q-62 27 -148 27q-115 0 -190.5 -58t-75.5 -164q0 -77 47 -117t129 -40q79 0 162 32l-24 -80q-58 -29 -168 -29z" />
    <glyph glyph-name="d" unicode="d" horiz-adv-x="774" 
d="M508 0v49q-81 -61 -194 -61q-109 0 -175 63t-66 162q0 142 101 227t269 85q101 0 183 -43l70 242h99l-210 -724h-77zM349 64q88 0 172 56l86 298q-68 30 -165 30q-116 0 -191.5 -59t-75.5 -166q0 -78 46 -118.5t128 -40.5z" />
    <glyph glyph-name="e" unicode="e" horiz-adv-x="727" 
d="M351 -12q-123 0 -200.5 63.5t-77.5 172.5q0 131 91 216t245 85q108 0 180 -56t72 -135q0 -52 -17 -98h-471v-6q0 -79 50.5 -120.5t142.5 -41.5q126 0 225 45l-24 -82q-85 -43 -216 -43zM399 449q-83 0 -138.5 -36.5t-76.5 -102.5h381q2 12 2 18q0 51 -49 86t-119 35z" />
    <glyph glyph-name="f" unicode="f" horiz-adv-x="514" 
d="M78 435l19 65l145 12l10 35q55 189 266 189q73 0 136 -23l-21 -72q-54 18 -122 18t-107 -30.5t-58 -91.5l-7 -24h207l-23 -78h-207l-187 -646h-97l187 646h-141z" />
    <glyph glyph-name="g" unicode="g" horiz-adv-x="774" 
d="M250 -223q-156 0 -242 55l28 76q90 -51 214 -51q101 0 158 34t83 126l14 47q-80 -58 -191 -58q-109 0 -175 59.5t-66 149.5q0 143 100.5 226.5t269.5 83.5q49 0 102 -13.5t88 -33.5l19 35h82l-149 -513q-35 -119 -118 -171t-217 -52zM349 82q95 0 178 60l80 276
q-68 30 -165 30q-116 0 -191.5 -57.5t-75.5 -164.5q0 -71 46.5 -107.5t127.5 -36.5z" />
    <glyph glyph-name="h" unicode="h" horiz-adv-x="769" 
d="M40 0l210 724h99l-76 -261q81 62 195 62q89 0 152 -39t63 -115q0 -27 -9 -58l-91 -313h-99l89 306q7 24 7 46q0 95 -144 95q-101 0 -186 -62l-111 -385h-99z" />
    <glyph glyph-name="i" unicode="i" horiz-adv-x="328" 
d="M40 0l149 513h99l-149 -513h-99zM219 615l31 109h99l-31 -109h-99z" />
    <glyph glyph-name="j" unicode="j" horiz-adv-x="328" 
d="M-106 -223q-22 0 -53 6t-41 12l23 74q30 -14 74 -14q64 0 93 36.5t56 128.5l143 493h99l-151 -520q-36 -123 -86 -169.5t-157 -46.5zM219 615l31 109h99l-31 -109h-99z" />
    <glyph glyph-name="k" unicode="k" horiz-adv-x="679" 
d="M40 0l210 724h99l-126 -435l356 224h151l-419 -257l294 -256h-135l-263 236l-68 -236h-99z" />
    <glyph glyph-name="l" unicode="l" horiz-adv-x="389" 
d="M174 -12q-54 0 -81.5 25t-27.5 69q0 27 8 52l171 590h98l-172 -593q-5 -18 -5 -28q0 -35 48 -35q41 0 79 11l-21 -75q-41 -16 -97 -16z" />
    <glyph glyph-name="m" unicode="m" horiz-adv-x="1213" 
d="M40 0l149 513h76v-55q82 67 203 67q65 0 119 -22t79 -65q90 87 246 87q89 0 152 -39t63 -115q0 -27 -9 -58l-91 -313h-99l89 306q7 24 7 46q0 95 -144 95q-110 0 -197 -72v-4q0 -27 -9 -58l-91 -313h-99l89 306q7 24 7 46q0 95 -144 95q-102 0 -185 -62l-112 -385h-99z
" />
    <glyph glyph-name="n" unicode="n" horiz-adv-x="769" 
d="M40 0l149 513h76v-55q82 67 203 67q89 0 152 -39t63 -115q0 -27 -9 -58l-91 -313h-99l89 306q7 24 7 46q0 95 -144 95q-102 0 -185 -62l-112 -385h-99z" />
    <glyph glyph-name="o" unicode="o" horiz-adv-x="771" 
d="M351 -12q-128 0 -203 66.5t-75 165.5q0 143 96.5 224t250.5 81q128 0 203 -66.5t75 -165.5q0 -143 -96.5 -224t-250.5 -81zM359 63q104 0 170.5 58.5t66.5 161.5q0 77 -49.5 122t-134.5 45q-104 0 -170.5 -58.5t-66.5 -161.5q0 -77 49.5 -122t134.5 -45z" />
    <glyph glyph-name="p" unicode="p" horiz-adv-x="774" 
d="M-21 -211l210 724h77v-51q83 63 194 63q112 0 176.5 -62t64.5 -158q0 -145 -102.5 -231t-267.5 -86q-104 0 -183 42l-70 -241h-99zM425 448q-86 0 -173 -57l-86 -297q65 -30 166 -30q113 0 190 60.5t77 170.5q0 75 -44.5 114t-129.5 39z" />
    <glyph glyph-name="q" unicode="q" horiz-adv-x="774" 
d="M425 -211l73 253q-77 -54 -184 -54q-109 0 -175 63t-66 162q0 142 101 227t269 85q49 0 102 -13.5t88 -33.5l19 35h82l-210 -724h-99zM349 64q88 0 172 56l86 298q-68 30 -165 30q-116 0 -191.5 -59t-75.5 -166q0 -78 46 -118.5t128 -40.5z" />
    <glyph glyph-name="r" unicode="r" horiz-adv-x="523" 
d="M40 0l149 513h85l-13 -76q77 86 193 86q60 0 93 -13l-24 -85q-36 11 -90 11q-113 0 -193 -89l-101 -347h-99z" />
    <glyph glyph-name="s" unicode="s" horiz-adv-x="641" 
d="M237 -12q-122 0 -216 43l22 72q93 -37 201 -37q197 0 197 80q0 25 -31.5 40.5t-104.5 33.5q-98 25 -144 57t-46 81q0 86 74.5 126.5t194.5 40.5q64 0 125 -12.5t94 -31.5l-22 -72q-87 38 -204 38q-72 0 -116.5 -18.5t-44.5 -57.5q0 -26 32.5 -41.5t103.5 -32.5
q98 -25 144 -57t46 -81q0 -61 -44 -100.5t-109.5 -55t-151.5 -15.5z" />
    <glyph glyph-name="t" unicode="t" horiz-adv-x="541" 
d="M91 435l21 66l107 11l38 129h97l-37 -128h232l-23 -78h-232l-78 -270q-7 -22 -7 -40q0 -57 93 -57q65 0 122 18l-23 -77q-49 -21 -133 -21q-76 0 -117.5 29.5t-41.5 87.5q0 25 9 57l79 273h-106z" />
    <glyph glyph-name="u" unicode="u" horiz-adv-x="758" 
d="M493 0v53q-80 -65 -198 -65q-88 0 -149 38t-61 114q0 27 9 60l91 313h99l-89 -306q-8 -29 -8 -48q0 -93 137 -93q101 0 183 61l112 386h99l-149 -513h-76z" />
    <glyph glyph-name="v" unicode="v" horiz-adv-x="642" 
d="M191 0l-107 513h99l76 -410l313 410h114l-403 -513h-92z" />
    <glyph glyph-name="w" unicode="w" horiz-adv-x="1027" 
d="M180 0l-85 513h98l53 -406l281 406h96l46 -405l287 405h113l-379 -513h-92l-48 406l-279 -406h-91z" />
    <glyph glyph-name="x" unicode="x" horiz-adv-x="657" 
d="M-44 0l314 267l-157 246h112l113 -193l220 193h129l-303 -257l166 -256h-111l-124 203l-230 -203h-129z" />
    <glyph glyph-name="y" unicode="y" horiz-adv-x="642" 
d="M-67 -223q-36 0 -65 11l24 78q26 -7 49 -7q65 0 114.5 30t105.5 98l25 31l-102 495h99l76 -410l313 410h114l-424 -538q-83 -106 -153.5 -152t-175.5 -46z" />
    <glyph glyph-name="z" unicode="z" horiz-adv-x="690" 
d="M148 435l24 78h498l-20 -68l-479 -367h386l-23 -78h-524l19 69l478 366h-359z" />
    <glyph glyph-name="braceleft" unicode="{" horiz-adv-x="451" 
d="M201 -93q-51 0 -82.5 22t-31.5 64q0 16 6 37l63 218q5 18 5 29q0 40 -49 40h-36l18 59h35q34 0 53 14.5t31 54.5l60 206q17 59 54.5 83t109.5 24h97l-17 -58h-63q-40 0 -60.5 -13.5t-30.5 -47.5l-60 -207q-22 -74 -95 -89q44 -23 44 -71q0 -17 -6 -38l-59 -202
q-5 -18 -5 -30q0 -37 50 -37h72l-17 -58h-86z" />
    <glyph glyph-name="bar" unicode="|" horiz-adv-x="437" 
d="M36 -211l271 935h79l-271 -935h-79z" />
    <glyph glyph-name="braceright" unicode="}" horiz-adv-x="451" 
d="M-56 -93l17 58h63q40 0 60.5 13.5t30.5 47.5l60 207q11 39 33.5 60t60.5 29q-43 21 -43 71q0 17 6 38l59 202q5 18 5 30q0 37 -50 37h-72l17 58h86q51 0 82.5 -22t31.5 -64q0 -16 -6 -37l-63 -218q-5 -18 -5 -29q0 -40 49 -40h36l-18 -59h-35q-34 0 -53 -14.5t-31 -54.5
l-60 -206q-17 -59 -54.5 -83t-109.5 -24h-97z" />
    <glyph glyph-name="asciitilde" unicode="~" horiz-adv-x="553" 
d="M359 208q-39 0 -71.5 20.5t-55.5 41t-40 20.5q-46 0 -67 -72h-81q14 66 52 110t98 44q39 0 71.5 -20.5t55.5 -41t40 -20.5q47 0 67 72h81q-13 -65 -52 -109.5t-98 -44.5z" />
    <glyph glyph-name="uni00A0" unicode="&#xa0;" horiz-adv-x="331" 
 />
    <glyph glyph-name="exclamdown" unicode="&#xa1;" horiz-adv-x="402" 
d="M244 314l-20 -105q-28 -146 -50 -223l-57 -197h-108l57 197q9 31 25 73.5t35.5 91t23.5 58.5l40 105h54zM337 513l-35 -122h-128l35 122h128z" />
    <glyph glyph-name="cent" unicode="&#xa2;" 
d="M320 -43l35 123q-102 17 -164 78.5t-62 154.5q0 146 108.5 235t275.5 101l33 117h85l-33 -117q101 -8 167 -40l-24 -76q-80 37 -189 37q-140 0 -229.5 -65t-89.5 -182q0 -87 57.5 -127.5t155.5 -40.5q109 0 216 38l-24 -84q-91 -34 -200 -35l-33 -117h-85z" />
    <glyph glyph-name="sterling" unicode="&#xa3;" 
d="M154 312l24 84h109l36 123q31 108 100 162.5t191 54.5q90 0 142 -26l-23 -82q-49 20 -125 20q-82 0 -124.5 -35.5t-67.5 -122.5l-27 -94h264l-24 -84h-265l-37 -130q-20 -71 -56 -98h373l-24 -84h-588l22 79h18q72 0 105 25.5t55 102.5l30 105h-108z" />
    <glyph glyph-name="currency" unicode="&#xa4;" horiz-adv-x="833" 
d="M566 50l-55 102q-68 -22 -138 -22q-68 0 -121 22l-91 -83l-65 61l90 68q-43 48 -43 119q0 69 35 126t96 94l-58 84l76 51l55 -102q66 22 138 22q69 0 121 -23l91 84l65 -61l-90 -69q43 -48 43 -118q0 -141 -132 -220l59 -84zM385 209q98 0 165.5 53t67.5 136
q0 115 -145 115q-98 0 -165.5 -53t-67.5 -136q0 -115 145 -115z" />
    <glyph glyph-name="yen" unicode="&#xa5;" 
d="M101 317l24 81h153l-139 326h111l148 -371l365 371h126l-329 -326h155l-24 -81h-213l-44 -44l-16 -54h244l-23 -81h-244l-40 -138h-101l40 138h-245l24 81h244l15 51l-20 47h-211z" />
    <glyph glyph-name="brokenbar" unicode="&#xa6;" horiz-adv-x="437" 
d="M68 -93l90 311h79l-90 -311h-79zM225 447l90 311h79l-90 -311h-79z" />
    <glyph glyph-name="section" unicode="&#xa7;" 
d="M304 -66q-144 0 -258 39l23 74q115 -33 238 -33q79 0 138 20.5t59 60.5q0 23 -24.5 36.5t-83.5 30.5l-164 48q-137 40 -137 130q0 82 116 141q-47 36 -47 83t26.5 81.5t71.5 53.5t96.5 28t108.5 9q147 0 258 -38l-23 -75q-115 33 -238 33q-79 0 -138 -20.5t-59 -60.5
q0 -23 24.5 -36.5t83.5 -30.5l164 -48q137 -40 137 -130q0 -82 -117 -141q48 -38 48 -83q0 -47 -26.5 -81.5t-71.5 -53.5t-96.5 -28t-108.5 -9zM574 312q0 46 -94 73l-168 48l-36 12q-79 -42 -79 -87q0 -46 94 -73l168 -48q24 -8 36 -13q79 42 79 88z" />
    <glyph glyph-name="dieresis" unicode="&#xa8;" horiz-adv-x="504" 
d="M155 617l30 101h109l-30 -101h-109zM409 617l30 101h109l-30 -101h-109z" />
    <glyph glyph-name="copyright" unicode="&#xa9;" horiz-adv-x="918" 
d="M442 135q-94 0 -148 50t-54 125q0 118 85.5 196.5t207.5 78.5q84 0 142 -30l-18 -63q-51 27 -121 27q-84 0 -149.5 -55.5t-65.5 -141.5q0 -121 130 -121q58 0 139 26l-19 -67q-56 -25 -129 -25zM407 -12q-152 0 -243.5 85.5t-91.5 219.5q0 183 133.5 313t341.5 130
q152 0 243.5 -86t91.5 -219q0 -89 -34.5 -169.5t-95.5 -141t-151 -96.5t-194 -36zM413 47q94 0 171.5 32t125.5 85.5t74 120.5t26 139q0 111 -73.5 181.5t-195.5 70.5q-94 0 -171.5 -32t-125.5 -85.5t-74 -120t-26 -138.5q0 -112 73.5 -182.5t195.5 -70.5z" />
    <glyph glyph-name="ordfeminine" unicode="&#xaa;" horiz-adv-x="637" 
d="M485 311v37q-63 -47 -156 -47q-87 0 -140 52t-53 128q0 116 81.5 183t214.5 67q94 0 154 -35l13 25h66l-119 -410h-61zM357 362q72 0 137 44l69 237q-52 24 -132 24q-93 0 -152.5 -45.5t-59.5 -133.5q0 -57 37.5 -91.5t100.5 -34.5zM34 116l20 71h464l-20 -71h-464z" />
    <glyph glyph-name="guillemotleft" unicode="&#xab;" horiz-adv-x="688" 
d="M219 114l-150 186l238 186h103l-229 -196l121 -176h-83zM481 114l-150 186l238 186h103l-229 -196l121 -176h-83z" />
    <glyph glyph-name="logicalnot" unicode="&#xac;" horiz-adv-x="666" 
d="M449 84l50 172h-447l24 84h532l-74 -256h-85z" />
    <glyph glyph-name="uni00AD" unicode="&#xad;" horiz-adv-x="478" 
d="M57 253l28 94h336l-27 -94h-337z" />
    <glyph glyph-name="registered" unicode="&#xae;" horiz-adv-x="764" 
d="M373 200q-115 0 -184 65t-69 156q0 134 101.5 224.5t264.5 90.5q115 0 184 -65t69 -156q0 -134 -101.5 -224.5t-264.5 -90.5zM379 251q141 0 220.5 74.5t79.5 189.5q0 72 -49 121t-150 49q-141 0 -220.5 -74.5t-79.5 -189.5q0 -72 49 -121t150 -49zM268 325l83 291h124
q100 0 100 -73q0 -42 -31.5 -65.5t-72.5 -29.5q10 -7 17 -23l48 -100h-64l-43 93q-9 21 -31 21h-39l-32 -114h-59zM462 570h-65l-25 -85h64q77 0 77 51q0 34 -51 34z" />
    <glyph glyph-name="macron" unicode="&#xaf;" horiz-adv-x="504" 
d="M178 622l21 75h337l-21 -75h-337z" />
    <glyph glyph-name="degree" unicode="&#xb0;" horiz-adv-x="518" 
d="M314 384q-66 0 -115 43t-49 111q0 80 63 139t152 59q66 0 115 -43t49 -111q0 -80 -63 -139t-152 -59zM320 453q53 0 91 35t38 86q0 42 -26.5 67.5t-63.5 25.5q-53 0 -91 -35t-38 -86q0 -42 26.5 -67.5t63.5 -25.5z" />
    <glyph glyph-name="plusminus" unicode="&#xb1;" horiz-adv-x="742" 
d="M88 369l23 78h253l62 213h91l-62 -213h253l-23 -78h-253l-64 -222h-91l64 222h-253zM-18 0l23 78h597l-23 -78h-597z" />
    <glyph glyph-name="twosuperior" unicode="&#xb2;" horiz-adv-x="490" 
d="M80 333l15 53l154 93q84 50 118 80t34 62q0 49 -86 49q-58 0 -132 -23l18 62q60 23 129 23q73 0 114 -26t41 -77q0 -55 -47.5 -98t-145.5 -97l-76 -42h241l-17 -59h-360z" />
    <glyph glyph-name="threesuperior" unicode="&#xb3;" horiz-adv-x="490" 
d="M260 325q-96 0 -158 28l16 58q72 -26 137 -26q59 0 95 18.5t36 49.5q0 53 -102 53h-51l17 58h51q119 0 119 64q0 43 -86 43q-74 0 -145 -27l18 60q61 28 139 28q72 0 115 -25t43 -68q0 -77 -99 -106q65 -23 65 -80t-56 -92.5t-154 -35.5z" />
    <glyph glyph-name="acute" unicode="&#xb4;" horiz-adv-x="504" 
d="M214 588l135 158h141l-179 -158h-97z" />
    <glyph glyph-name="mu" unicode="&#xb5;" horiz-adv-x="767" 
d="M598 -12q-45 0 -67.5 20.5t-21.5 55.5q-81 -76 -210 -76q-102 0 -161 46q0 -38 -11 -75l-50 -170h-98l210 724h99l-89 -306q-21 -73 14.5 -107t114.5 -34q101 0 183 61l112 386h99l-115 -396q-3 -12 -3 -20q0 -27 37 -27q24 0 54 7l-22 -74q-30 -15 -75 -15z" />
    <glyph glyph-name="paragraph" unicode="&#xb6;" horiz-adv-x="777" 
d="M208 -211l151 521h-29q-104 0 -167.5 47t-63.5 124q0 81 49 138t121.5 81t160.5 24h331l-270 -935h-92l249 857h-100l-248 -857h-92z" />
    <glyph glyph-name="periodcentered" unicode="&#xb7;" horiz-adv-x="418" 
d="M135 240l35 122h128l-35 -122h-128z" />
    <glyph glyph-name="cedilla" unicode="&#xb8;" horiz-adv-x="504" 
d="M108 -216q-39 0 -62 9l14 50q18 -5 45 -5q58 0 58 36q0 30 -62 41l63 95h57l-40 -73q50 -18 50 -66q0 -44 -37.5 -65.5t-85.5 -21.5z" />
    <glyph glyph-name="onesuperior" unicode="&#xb9;" horiz-adv-x="490" 
d="M220 635l18 60l133 29h56l-101 -332h99l-17 -59h-280l17 59h99l80 263z" />
    <glyph glyph-name="ordmasculine" unicode="&#xba;" horiz-adv-x="683" 
d="M361 301q-99 0 -157 53.5t-58 133.5q0 115 79.5 179t206.5 64q99 0 156.5 -53.5t57.5 -132.5q0 -115 -79 -179.5t-206 -64.5zM368 361q87 0 143 47t56 129q0 62 -38.5 98.5t-103.5 36.5q-87 0 -143 -47.5t-56 -129.5q0 -61 38.5 -97.5t103.5 -36.5zM34 116l20 71h533
l-20 -71h-533z" />
    <glyph glyph-name="guillemotright" unicode="&#xbb;" horiz-adv-x="688" 
d="M16 114l229 195l-121 177h83l150 -186l-238 -186h-103zM278 114l229 195l-121 177h83l150 -186l-238 -186h-103z" />
    <glyph glyph-name="onequarter" unicode="&#xbc;" horiz-adv-x="1199" 
d="M220 635l18 60l133 29h56l-101 -332h99l-17 -59h-280l17 59h99l80 263zM135 -30l882 784h98l-882 -784h-98zM944 0l24 79h-249l16 53l332 259h77l-76 -253h81l-17 -59h-82l-23 -79h-83zM834 138h152l46 154z" />
    <glyph glyph-name="onehalf" unicode="&#xbd;" horiz-adv-x="1199" 
d="M220 635l18 60l133 29h56l-101 -332h99l-17 -59h-280l17 59h99l80 263zM135 -30l882 784h98l-882 -784h-98zM730 0l15 53l154 93q84 50 118 80t34 62q0 49 -86 49q-58 0 -132 -23l18 62q60 23 129 23q73 0 114 -26t41 -77q0 -55 -47.5 -98t-145.5 -97l-76 -42h241
l-17 -59h-360z" />
    <glyph glyph-name="threequarters" unicode="&#xbe;" horiz-adv-x="1199" 
d="M260 325q-96 0 -158 28l16 58q72 -26 137 -26q59 0 95 18.5t36 49.5q0 53 -102 53h-51l17 58h51q119 0 119 64q0 43 -86 43q-74 0 -145 -27l18 60q61 28 139 28q72 0 115 -25t43 -68q0 -77 -99 -106q65 -23 65 -80t-56 -92.5t-154 -35.5zM135 -30l882 784h98l-882 -784
h-98zM944 0l24 79h-249l16 53l332 259h77l-76 -253h81l-17 -59h-82l-23 -79h-83zM834 138h152l46 154z" />
    <glyph glyph-name="questiondown" unicode="&#xbf;" horiz-adv-x="513" 
d="M363 315l-29 -132l-155 -78q-86 -43 -126.5 -79.5t-40.5 -80.5q0 -81 150 -81q112 0 233 44l-25 -86q-113 -45 -235 -45q-101 0 -167.5 42.5t-66.5 112.5q0 43 19 80.5t56.5 68t72.5 51t86 45.5l126 61l28 77h74zM443 513l-35 -122h-128l35 122h128z" />
    <glyph glyph-name="Agrave" unicode="&#xc0;" horiz-adv-x="853" 
d="M-67 0l560 724h116l141 -724h-103l-35 179h-423l-138 -179h-118zM530 635l-281 -372h348zM524 772l-101 158h121l63 -158h-83z" />
    <glyph glyph-name="Aacute" unicode="&#xc1;" horiz-adv-x="853" 
d="M-67 0l560 724h116l141 -724h-103l-35 179h-423l-138 -179h-118zM530 635l-281 -372h348zM516 772l135 158h141l-179 -158h-97z" />
    <glyph glyph-name="Acircumflex" unicode="&#xc2;" horiz-adv-x="853" 
d="M-67 0l560 724h116l141 -724h-103l-35 179h-423l-138 -179h-118zM530 635l-281 -372h348zM364 772l191 158h85l100 -158h-82l-76 80l-122 -80h-96z" />
    <glyph glyph-name="Atilde" unicode="&#xc3;" horiz-adv-x="853" 
d="M-67 0l560 724h116l141 -724h-103l-35 179h-423l-138 -179h-118zM530 635l-281 -372h348zM647 783q-34 0 -60 15.5t-44.5 30.5t-34.5 15q-40 0 -60 -56h-72q39 131 132 131q34 0 60 -15.5t44.5 -30.5t34.5 -15q40 0 61 56h71q-16 -57 -49 -94t-83 -37z" />
    <glyph glyph-name="Adieresis" unicode="&#xc4;" horiz-adv-x="853" 
d="M-67 0l560 724h116l141 -724h-103l-35 179h-423l-138 -179h-118zM530 635l-281 -372h348zM387 801l30 101h109l-30 -101h-109zM641 801l30 101h109l-30 -101h-109z" />
    <glyph glyph-name="Aring" unicode="&#xc5;" horiz-adv-x="853" 
d="M-67 0l560 724h116l141 -724h-103l-35 179h-423l-138 -179h-118zM530 635l-281 -372h348zM567 768q-41 0 -69 27.5t-28 66.5q0 50 38 84t92 34q41 0 69 -27.5t28 -67.5q0 -50 -38 -83.5t-92 -33.5zM575 817q26 0 46 18.5t20 43.5q0 22 -13.5 37t-35.5 15q-26 0 -46 -18.5
t-20 -44.5q0 -21 13.5 -36t35.5 -15z" />
    <glyph glyph-name="AE" unicode="&#xc6;" horiz-adv-x="1207" 
d="M479 0l52 179h-363l-151 -179h-126l618 724h738l-24 -84h-457l-65 -226h398l-24 -84h-398l-72 -246h463l-24 -84h-565zM557 640l-318 -377h316l109 377h-107z" />
    <glyph glyph-name="Ccedilla" unicode="&#xc7;" horiz-adv-x="768" 
d="M322 -216q-39 0 -62 9l14 50q18 -5 45 -5q58 0 58 36q0 30 -62 41l49 75q-132 11 -206.5 92t-74.5 204q0 190 141.5 320t347.5 130q144 0 221 -39l-24 -82q-76 36 -198 36q-152 0 -267.5 -99.5t-115.5 -255.5q0 -224 243 -224q113 0 216 35l-26 -87q-68 -29 -198 -32
l-28 -51q50 -18 50 -66q0 -44 -37.5 -65.5t-85.5 -21.5z" />
    <glyph glyph-name="Egrave" unicode="&#xc8;" horiz-adv-x="772" 
d="M44 0l207 724h561l-24 -84h-459l-65 -226h400l-24 -84h-400l-70 -246h463l-24 -84h-565zM506 772l-101 158h121l63 -158h-83z" />
    <glyph glyph-name="Eacute" unicode="&#xc9;" horiz-adv-x="772" 
d="M44 0l207 724h561l-24 -84h-459l-65 -226h400l-24 -84h-400l-70 -246h463l-24 -84h-565zM498 772l135 158h141l-179 -158h-97z" />
    <glyph glyph-name="Ecircumflex" unicode="&#xca;" horiz-adv-x="772" 
d="M44 0l207 724h561l-24 -84h-459l-65 -226h400l-24 -84h-400l-70 -246h463l-24 -84h-565zM346 772l191 158h85l100 -158h-82l-76 80l-122 -80h-96z" />
    <glyph glyph-name="Edieresis" unicode="&#xcb;" horiz-adv-x="772" 
d="M44 0l207 724h561l-24 -84h-459l-65 -226h400l-24 -84h-400l-70 -246h463l-24 -84h-565zM369 801l30 101h109l-30 -101h-109zM623 801l30 101h109l-30 -101h-109z" />
    <glyph glyph-name="Igrave" unicode="&#xcc;" horiz-adv-x="533" 
d="M192 640l24 84h361l-24 -84h-129l-162 -556h129l-24 -84h-361l24 84h130l162 556h-130zM370 772l-101 158h121l63 -158h-83z" />
    <glyph glyph-name="Iacute" unicode="&#xcd;" horiz-adv-x="533" 
d="M192 640l24 84h361l-24 -84h-129l-162 -556h129l-24 -84h-361l24 84h130l162 556h-130zM362 772l135 158h141l-179 -158h-97z" />
    <glyph glyph-name="Icircumflex" unicode="&#xce;" horiz-adv-x="533" 
d="M192 640l24 84h361l-24 -84h-129l-162 -556h129l-24 -84h-361l24 84h130l162 556h-130zM218 772l191 158h85l100 -158h-82l-76 80l-122 -80h-96z" />
    <glyph glyph-name="Idieresis" unicode="&#xcf;" horiz-adv-x="533" 
d="M192 640l24 84h361l-24 -84h-129l-162 -556h129l-24 -84h-361l24 84h130l162 556h-130zM233 801l30 101h109l-30 -101h-109zM487 801l30 101h109l-30 -101h-109z" />
    <glyph glyph-name="Eth" unicode="&#xd0;" horiz-adv-x="885" 
d="M80 325l21 75h65l93 324h265q154 0 243.5 -79.5t89.5 -203.5q0 -125 -65.5 -226t-179 -158t-251.5 -57h-309l93 325h-65zM521 640h-184l-69 -240h193l-21 -75h-193l-69 -241h194q164 0 272 100t108 247q0 94 -59.5 151.5t-171.5 57.5z" />
    <glyph glyph-name="Ntilde" unicode="&#xd1;" horiz-adv-x="960" 
d="M44 0l210 724h103l320 -599l174 599h100l-210 -724h-102l-321 601l-174 -601h-100zM700 783q-34 0 -60 15.5t-44.5 30.5t-34.5 15q-40 0 -60 -56h-72q39 131 132 131q34 0 60 -15.5t44.5 -30.5t34.5 -15q40 0 61 56h71q-16 -57 -49 -94t-83 -37z" />
    <glyph glyph-name="Ograve" unicode="&#xd2;" horiz-adv-x="928" 
d="M416 -12q-86 0 -151.5 24.5t-104 67t-58 93t-19.5 107.5q0 189 130.5 322.5t337.5 133.5q85 0 151 -24.5t104.5 -67t58 -93t19.5 -107.5q0 -189 -130.5 -322.5t-337.5 -133.5zM424 70q85 0 155 33t112.5 87t65 117t22.5 128q0 101 -58.5 160t-178.5 59q-85 0 -154.5 -33
t-112 -87t-65 -117.5t-22.5 -127.5q0 -101 58 -160t178 -59zM534 772l-101 158h121l63 -158h-83z" />
    <glyph glyph-name="Oacute" unicode="&#xd3;" horiz-adv-x="928" 
d="M416 -12q-86 0 -151.5 24.5t-104 67t-58 93t-19.5 107.5q0 189 130.5 322.5t337.5 133.5q85 0 151 -24.5t104.5 -67t58 -93t19.5 -107.5q0 -189 -130.5 -322.5t-337.5 -133.5zM424 70q85 0 155 33t112.5 87t65 117t22.5 128q0 101 -58.5 160t-178.5 59q-85 0 -154.5 -33
t-112 -87t-65 -117.5t-22.5 -127.5q0 -101 58 -160t178 -59zM526 772l135 158h141l-179 -158h-97z" />
    <glyph glyph-name="Ocircumflex" unicode="&#xd4;" horiz-adv-x="928" 
d="M416 -12q-86 0 -151.5 24.5t-104 67t-58 93t-19.5 107.5q0 189 130.5 322.5t337.5 133.5q85 0 151 -24.5t104.5 -67t58 -93t19.5 -107.5q0 -189 -130.5 -322.5t-337.5 -133.5zM424 70q85 0 155 33t112.5 87t65 117t22.5 128q0 101 -58.5 160t-178.5 59q-85 0 -154.5 -33
t-112 -87t-65 -117.5t-22.5 -127.5q0 -101 58 -160t178 -59zM374 772l191 158h85l100 -158h-82l-76 80l-122 -80h-96z" />
    <glyph glyph-name="Otilde" unicode="&#xd5;" horiz-adv-x="928" 
d="M416 -12q-86 0 -151.5 24.5t-104 67t-58 93t-19.5 107.5q0 189 130.5 322.5t337.5 133.5q85 0 151 -24.5t104.5 -67t58 -93t19.5 -107.5q0 -189 -130.5 -322.5t-337.5 -133.5zM424 70q85 0 155 33t112.5 87t65 117t22.5 128q0 101 -58.5 160t-178.5 59q-85 0 -154.5 -33
t-112 -87t-65 -117.5t-22.5 -127.5q0 -101 58 -160t178 -59zM657 783q-34 0 -60 15.5t-44.5 30.5t-34.5 15q-40 0 -60 -56h-72q39 131 132 131q34 0 60 -15.5t44.5 -30.5t34.5 -15q40 0 61 56h71q-16 -57 -49 -94t-83 -37z" />
    <glyph glyph-name="Odieresis" unicode="&#xd6;" horiz-adv-x="928" 
d="M416 -12q-86 0 -151.5 24.5t-104 67t-58 93t-19.5 107.5q0 189 130.5 322.5t337.5 133.5q85 0 151 -24.5t104.5 -67t58 -93t19.5 -107.5q0 -189 -130.5 -322.5t-337.5 -133.5zM424 70q85 0 155 33t112.5 87t65 117t22.5 128q0 101 -58.5 160t-178.5 59q-85 0 -154.5 -33
t-112 -87t-65 -117.5t-22.5 -127.5q0 -101 58 -160t178 -59zM397 801l30 101h109l-30 -101h-109zM651 801l30 101h109l-30 -101h-109z" />
    <glyph glyph-name="multiply" unicode="&#xd7;" horiz-adv-x="742" 
d="M111 83l-61 49l255 172l-148 169l69 39l144 -165l245 165l60 -49l-255 -172l148 -169l-68 -39l-145 164z" />
    <glyph glyph-name="Oslash" unicode="&#xd8;" horiz-adv-x="928" 
d="M416 -12q-156 0 -244 80l-82 -68h-123l156 128q-40 66 -40 152q0 189 130.5 322.5t337.5 133.5q140 0 228 -68l67 56h122l-135 -112q51 -71 51 -168q0 -189 -130.5 -322.5t-337.5 -133.5zM424 70q85 0 155 33t112.5 87t65 117t22.5 128q0 63 -24 113l-509 -419
q62 -59 178 -59zM188 289q0 -52 15 -94l502 413q-60 46 -163 46q-85 0 -154.5 -33t-112 -87t-65 -117.5t-22.5 -127.5z" />
    <glyph glyph-name="Ugrave" unicode="&#xd9;" horiz-adv-x="879" 
d="M367 -12q-122 0 -193.5 57t-71.5 154q0 41 13 84l128 441h102l-128 -443q-13 -43 -13 -80q0 -127 170 -127q221 0 281 207l128 443h102l-136 -469q-78 -267 -382 -267zM537 772l-101 158h121l63 -158h-83z" />
    <glyph glyph-name="Uacute" unicode="&#xda;" horiz-adv-x="879" 
d="M367 -12q-122 0 -193.5 57t-71.5 154q0 41 13 84l128 441h102l-128 -443q-13 -43 -13 -80q0 -127 170 -127q221 0 281 207l128 443h102l-136 -469q-78 -267 -382 -267zM529 772l135 158h141l-179 -158h-97z" />
    <glyph glyph-name="Ucircumflex" unicode="&#xdb;" horiz-adv-x="879" 
d="M367 -12q-122 0 -193.5 57t-71.5 154q0 41 13 84l128 441h102l-128 -443q-13 -43 -13 -80q0 -127 170 -127q221 0 281 207l128 443h102l-136 -469q-78 -267 -382 -267zM377 772l191 158h85l100 -158h-82l-76 80l-122 -80h-96z" />
    <glyph glyph-name="Udieresis" unicode="&#xdc;" horiz-adv-x="879" 
d="M367 -12q-122 0 -193.5 57t-71.5 154q0 41 13 84l128 441h102l-128 -443q-13 -43 -13 -80q0 -127 170 -127q221 0 281 207l128 443h102l-136 -469q-78 -267 -382 -267zM398 801l30 101h109l-30 -101h-109zM652 801l30 101h109l-30 -101h-109z" />
    <glyph glyph-name="Yacute" unicode="&#xdd;" horiz-adv-x="777" 
d="M254 0l78 270l-193 454h111l148 -371l365 371h126l-455 -451l-79 -273h-101zM471 772l135 158h141l-179 -158h-97z" />
    <glyph glyph-name="Thorn" unicode="&#xde;" horiz-adv-x="774" 
d="M44 0l210 724h102l-38 -130h145q137 0 203 -52.5t66 -143.5q0 -87 -51 -146t-135 -85.5t-196 -26.5h-164l-40 -140h-102zM447 510h-153l-83 -286h153q127 0 195 44.5t68 118.5q0 64 -42 93.5t-138 29.5z" />
    <glyph glyph-name="germandbls" unicode="&#xdf;" horiz-adv-x="794" 
d="M-20 -211l200 699q71 248 331 248q112 0 180.5 -40t68.5 -111q0 -140 -241 -193l-31 -7l64 -26q88 -36 135 -77t47 -99q0 -54 -24 -93.5t-66 -61t-91 -31t-107 -9.5q-111 0 -187 37l21 72q72 -32 172 -32q180 0 180 108q0 34 -34 66t-115 66l-128 55l19 68l109 26
q177 42 177 122q0 42 -42.5 63.5t-116.5 21.5q-175 0 -229 -191l-195 -681h-97z" />
    <glyph glyph-name="agrave" unicode="&#xe0;" horiz-adv-x="774" 
d="M509 0v49q-81 -61 -195 -61q-109 0 -175 63t-66 162q0 142 101 227t269 85q49 0 102 -13.5t88 -33.5l19 35h82l-149 -513h-76zM349 64q88 0 172 56l86 298q-68 30 -165 30q-116 0 -191.5 -59t-75.5 -166q0 -78 46 -118.5t128 -40.5zM431 588l-101 158h121l63 -158h-83z
" />
    <glyph glyph-name="aacute" unicode="&#xe1;" horiz-adv-x="774" 
d="M509 0v49q-81 -61 -195 -61q-109 0 -175 63t-66 162q0 142 101 227t269 85q49 0 102 -13.5t88 -33.5l19 35h82l-149 -513h-76zM349 64q88 0 172 56l86 298q-68 30 -165 30q-116 0 -191.5 -59t-75.5 -166q0 -78 46 -118.5t128 -40.5zM423 588l135 158h141l-179 -158h-97z
" />
    <glyph glyph-name="acircumflex" unicode="&#xe2;" horiz-adv-x="774" 
d="M509 0v49q-81 -61 -195 -61q-109 0 -175 63t-66 162q0 142 101 227t269 85q49 0 102 -13.5t88 -33.5l19 35h82l-149 -513h-76zM349 64q88 0 172 56l86 298q-68 30 -165 30q-116 0 -191.5 -59t-75.5 -166q0 -78 46 -118.5t128 -40.5zM271 588l191 158h85l100 -158h-82
l-76 80l-122 -80h-96z" />
    <glyph glyph-name="atilde" unicode="&#xe3;" horiz-adv-x="774" 
d="M509 0v49q-81 -61 -195 -61q-109 0 -175 63t-66 162q0 142 101 227t269 85q49 0 102 -13.5t88 -33.5l19 35h82l-149 -513h-76zM349 64q88 0 172 56l86 298q-68 30 -165 30q-116 0 -191.5 -59t-75.5 -166q0 -78 46 -118.5t128 -40.5zM554 599q-34 0 -60 15.5t-44.5 30.5
t-34.5 15q-40 0 -60 -56h-72q39 131 132 131q34 0 60 -15.5t44.5 -30.5t34.5 -15q40 0 61 56h71q-16 -57 -49 -94t-83 -37z" />
    <glyph glyph-name="adieresis" unicode="&#xe4;" horiz-adv-x="774" 
d="M509 0v49q-81 -61 -195 -61q-109 0 -175 63t-66 162q0 142 101 227t269 85q49 0 102 -13.5t88 -33.5l19 35h82l-149 -513h-76zM349 64q88 0 172 56l86 298q-68 30 -165 30q-116 0 -191.5 -59t-75.5 -166q0 -78 46 -118.5t128 -40.5zM294 617l30 101h109l-30 -101h-109z
M548 617l30 101h109l-30 -101h-109z" />
    <glyph glyph-name="aring" unicode="&#xe5;" horiz-adv-x="774" 
d="M509 0v49q-81 -61 -195 -61q-109 0 -175 63t-66 162q0 142 101 227t269 85q49 0 102 -13.5t88 -33.5l19 35h82l-149 -513h-76zM349 64q88 0 172 56l86 298q-68 30 -165 30q-116 0 -191.5 -59t-75.5 -166q0 -78 46 -118.5t128 -40.5zM481 584q-41 0 -69 27.5t-28 66.5
q0 50 38 84t92 34q41 0 69 -27.5t28 -67.5q0 -50 -38 -83.5t-92 -33.5zM489 633q26 0 46 18.5t20 43.5q0 22 -13.5 37t-35.5 15q-26 0 -46 -18.5t-20 -44.5q0 -21 13.5 -36t35.5 -15z" />
    <glyph glyph-name="ae" unicode="&#xe6;" horiz-adv-x="1142" 
d="M766 -12q-159 0 -234 98q-120 -98 -288 -98q-87 0 -142.5 37t-55.5 104q0 182 346 182h108l1 4q6 21 6 38q0 47 -37.5 70t-101.5 23q-120 0 -229 -39l22 77q95 41 223 41q66 0 118.5 -22t76.5 -65q94 87 235 87q115 0 188.5 -55.5t73.5 -135.5q0 -52 -17 -98h-471v-6
q0 -79 50.5 -120t142.5 -41q126 0 225 45l-24 -83q-85 -43 -216 -43zM275 64q56 0 117 24t108 57q-12 36 -12 79v12h-83q-254 0 -254 -97q0 -40 29.5 -57.5t94.5 -17.5zM814 448q-83 0 -138 -36t-76 -101h380q2 10 2 17q0 51 -49 85.5t-119 34.5z" />
    <glyph glyph-name="ccedilla" unicode="&#xe7;" horiz-adv-x="628" 
d="M243 -216q-39 0 -62 9l14 50q18 -5 45 -5q58 0 58 36q0 30 -62 41l49 75q-97 10 -154.5 71t-57.5 149q0 143 106 229t271 86q94 0 162 -33l-23 -75q-62 27 -148 27q-115 0 -190.5 -58t-75.5 -164q0 -77 47 -117t129 -40q79 0 162 32l-24 -80q-49 -25 -145 -28l-28 -52
q50 -18 50 -66q0 -44 -37.5 -65.5t-85.5 -21.5z" />
    <glyph glyph-name="egrave" unicode="&#xe8;" horiz-adv-x="727" 
d="M351 -12q-123 0 -200.5 63.5t-77.5 172.5q0 131 91 216t245 85q108 0 180 -56t72 -135q0 -52 -17 -98h-471v-6q0 -79 50.5 -120.5t142.5 -41.5q126 0 225 45l-24 -82q-85 -43 -216 -43zM399 449q-83 0 -138.5 -36.5t-76.5 -102.5h381q2 12 2 18q0 51 -49 86t-119 35z
M386 588l-101 158h121l63 -158h-83z" />
    <glyph glyph-name="eacute" unicode="&#xe9;" horiz-adv-x="727" 
d="M351 -12q-123 0 -200.5 63.5t-77.5 172.5q0 131 91 216t245 85q108 0 180 -56t72 -135q0 -52 -17 -98h-471v-6q0 -79 50.5 -120.5t142.5 -41.5q126 0 225 45l-24 -82q-85 -43 -216 -43zM399 449q-83 0 -138.5 -36.5t-76.5 -102.5h381q2 12 2 18q0 51 -49 86t-119 35z
M378 588l135 158h141l-179 -158h-97z" />
    <glyph glyph-name="ecircumflex" unicode="&#xea;" horiz-adv-x="727" 
d="M351 -12q-123 0 -200.5 63.5t-77.5 172.5q0 131 91 216t245 85q108 0 180 -56t72 -135q0 -52 -17 -98h-471v-6q0 -79 50.5 -120.5t142.5 -41.5q126 0 225 45l-24 -82q-85 -43 -216 -43zM399 449q-83 0 -138.5 -36.5t-76.5 -102.5h381q2 12 2 18q0 51 -49 86t-119 35z
M226 588l191 158h85l100 -158h-82l-76 80l-122 -80h-96z" />
    <glyph glyph-name="edieresis" unicode="&#xeb;" horiz-adv-x="727" 
d="M351 -12q-123 0 -200.5 63.5t-77.5 172.5q0 131 91 216t245 85q108 0 180 -56t72 -135q0 -52 -17 -98h-471v-6q0 -79 50.5 -120.5t142.5 -41.5q126 0 225 45l-24 -82q-85 -43 -216 -43zM399 449q-83 0 -138.5 -36.5t-76.5 -102.5h381q2 12 2 18q0 51 -49 86t-119 35z
M249 617l30 101h109l-30 -101h-109zM503 617l30 101h109l-30 -101h-109z" />
    <glyph glyph-name="igrave" unicode="&#xec;" horiz-adv-x="328" 
d="M40 0l149 513h99l-149 -513h-99zM219 588l-101 158h121l63 -158h-83z" />
    <glyph glyph-name="iacute" unicode="&#xed;" horiz-adv-x="328" 
d="M40 0l149 513h99l-149 -513h-99zM211 588l135 158h141l-179 -158h-97z" />
    <glyph glyph-name="icircumflex" unicode="&#xee;" horiz-adv-x="328" 
d="M40 0l149 513h99l-149 -513h-99zM59 588l191 158h85l100 -158h-82l-76 80l-122 -80h-96z" />
    <glyph glyph-name="idieresis" unicode="&#xef;" horiz-adv-x="328" 
d="M40 0l149 513h99l-149 -513h-99zM82 617l30 101h109l-30 -101h-109zM336 617l30 101h109l-30 -101h-109z" />
    <glyph glyph-name="eth" unicode="&#xf0;" horiz-adv-x="754" 
d="M286 528l19 72l126 44q-43 28 -102 50l29 50q84 -22 155 -72l200 70l-19 -73l-125 -43q131 -128 131 -315q0 -154 -96.5 -238.5t-265.5 -84.5q-120 0 -194 62t-74 158q0 71 28 128t75 91.5t104 53t119 18.5q136 0 200 -60q-35 94 -106 159zM347 62q110 0 179.5 53
t69.5 155q0 76 -47.5 115.5t-130.5 39.5q-110 0 -179.5 -53t-69.5 -155q0 -74 50.5 -114.5t127.5 -40.5z" />
    <glyph glyph-name="ntilde" unicode="&#xf1;" horiz-adv-x="769" 
d="M40 0l149 513h76v-55q82 67 203 67q89 0 152 -39t63 -115q0 -27 -9 -58l-91 -313h-99l89 306q7 24 7 46q0 95 -144 95q-102 0 -185 -62l-112 -385h-99zM565 599q-34 0 -60 15.5t-44.5 30.5t-34.5 15q-40 0 -60 -56h-72q39 131 132 131q34 0 60 -15.5t44.5 -30.5t34.5 -15
q40 0 61 56h71q-16 -57 -49 -94t-83 -37z" />
    <glyph glyph-name="ograve" unicode="&#xf2;" horiz-adv-x="771" 
d="M351 -12q-128 0 -203 66.5t-75 165.5q0 143 96.5 224t250.5 81q128 0 203 -66.5t75 -165.5q0 -143 -96.5 -224t-250.5 -81zM359 63q104 0 170.5 58.5t66.5 161.5q0 77 -49.5 122t-134.5 45q-104 0 -170.5 -58.5t-66.5 -161.5q0 -77 49.5 -122t134.5 -45zM405 588
l-101 158h121l63 -158h-83z" />
    <glyph glyph-name="oacute" unicode="&#xf3;" horiz-adv-x="771" 
d="M351 -12q-128 0 -203 66.5t-75 165.5q0 143 96.5 224t250.5 81q128 0 203 -66.5t75 -165.5q0 -143 -96.5 -224t-250.5 -81zM359 63q104 0 170.5 58.5t66.5 161.5q0 77 -49.5 122t-134.5 45q-104 0 -170.5 -58.5t-66.5 -161.5q0 -77 49.5 -122t134.5 -45zM397 588l135 158
h141l-179 -158h-97z" />
    <glyph glyph-name="ocircumflex" unicode="&#xf4;" horiz-adv-x="771" 
d="M351 -12q-128 0 -203 66.5t-75 165.5q0 143 96.5 224t250.5 81q128 0 203 -66.5t75 -165.5q0 -143 -96.5 -224t-250.5 -81zM359 63q104 0 170.5 58.5t66.5 161.5q0 77 -49.5 122t-134.5 45q-104 0 -170.5 -58.5t-66.5 -161.5q0 -77 49.5 -122t134.5 -45zM245 588l191 158
h85l100 -158h-82l-76 80l-122 -80h-96z" />
    <glyph glyph-name="otilde" unicode="&#xf5;" horiz-adv-x="771" 
d="M351 -12q-128 0 -203 66.5t-75 165.5q0 143 96.5 224t250.5 81q128 0 203 -66.5t75 -165.5q0 -143 -96.5 -224t-250.5 -81zM359 63q104 0 170.5 58.5t66.5 161.5q0 77 -49.5 122t-134.5 45q-104 0 -170.5 -58.5t-66.5 -161.5q0 -77 49.5 -122t134.5 -45zM528 599
q-34 0 -60 15.5t-44.5 30.5t-34.5 15q-40 0 -60 -56h-72q39 131 132 131q34 0 60 -15.5t44.5 -30.5t34.5 -15q40 0 61 56h71q-16 -57 -49 -94t-83 -37z" />
    <glyph glyph-name="odieresis" unicode="&#xf6;" horiz-adv-x="771" 
d="M351 -12q-128 0 -203 66.5t-75 165.5q0 143 96.5 224t250.5 81q128 0 203 -66.5t75 -165.5q0 -143 -96.5 -224t-250.5 -81zM359 63q104 0 170.5 58.5t66.5 161.5q0 77 -49.5 122t-134.5 45q-104 0 -170.5 -58.5t-66.5 -161.5q0 -77 49.5 -122t134.5 -45zM268 617l30 101
h109l-30 -101h-109zM522 617l30 101h109l-30 -101h-109z" />
    <glyph glyph-name="divide" unicode="&#xf7;" horiz-adv-x="742" 
d="M221 0l35 122h128l-35 -122h-128zM52 261l23 78h614l-23 -78h-614zM358 478l35 122h128l-35 -122h-128z" />
    <glyph glyph-name="oslash" unicode="&#xf8;" horiz-adv-x="771" 
d="M351 -12q-119 0 -192 57l-61 -45h-119l131 97q-37 53 -37 123q0 143 96.5 224t250.5 81q116 0 191 -57l61 45h120l-131 -97q37 -56 37 -123q0 -143 -96.5 -224t-250.5 -81zM359 63q104 0 170.5 58.5t66.5 161.5q0 41 -15 74l-348 -257q48 -37 126 -37zM175 230
q0 -41 14 -74l348 257q-48 37 -125 37q-104 0 -170.5 -58.5t-66.5 -161.5z" />
    <glyph glyph-name="ugrave" unicode="&#xf9;" horiz-adv-x="758" 
d="M493 0v53q-80 -65 -198 -65q-88 0 -149 38t-61 114q0 27 9 60l91 313h99l-89 -306q-8 -29 -8 -48q0 -93 137 -93q101 0 183 61l112 386h99l-149 -513h-76zM432 588l-101 158h121l63 -158h-83z" />
    <glyph glyph-name="uacute" unicode="&#xfa;" horiz-adv-x="758" 
d="M493 0v53q-80 -65 -198 -65q-88 0 -149 38t-61 114q0 27 9 60l91 313h99l-89 -306q-8 -29 -8 -48q0 -93 137 -93q101 0 183 61l112 386h99l-149 -513h-76zM424 588l135 158h141l-179 -158h-97z" />
    <glyph glyph-name="ucircumflex" unicode="&#xfb;" horiz-adv-x="758" 
d="M493 0v53q-80 -65 -198 -65q-88 0 -149 38t-61 114q0 27 9 60l91 313h99l-89 -306q-8 -29 -8 -48q0 -93 137 -93q101 0 183 61l112 386h99l-149 -513h-76zM272 588l191 158h85l100 -158h-82l-76 80l-122 -80h-96z" />
    <glyph glyph-name="udieresis" unicode="&#xfc;" horiz-adv-x="758" 
d="M493 0v53q-80 -65 -198 -65q-88 0 -149 38t-61 114q0 27 9 60l91 313h99l-89 -306q-8 -29 -8 -48q0 -93 137 -93q101 0 183 61l112 386h99l-149 -513h-76zM295 617l30 101h109l-30 -101h-109zM549 617l30 101h109l-30 -101h-109z" />
    <glyph glyph-name="yacute" unicode="&#xfd;" horiz-adv-x="642" 
d="M-67 -223q-36 0 -65 11l24 78q26 -7 49 -7q65 0 114.5 30t105.5 98l25 31l-102 495h99l76 -410l313 410h114l-424 -538q-83 -106 -153.5 -152t-175.5 -46zM338 588l135 158h141l-179 -158h-97z" />
    <glyph glyph-name="thorn" unicode="&#xfe;" horiz-adv-x="774" 
d="M-22 -211l271 935h99l-74 -254q80 55 186 55q110 0 175.5 -61.5t65.5 -156.5q0 -146 -102 -232.5t-267 -86.5q-104 0 -185 44l-70 -243h-99zM425 449q-89 0 -173 -57l-86 -295q68 -31 166 -31q116 0 190.5 59.5t74.5 170.5q0 75 -45.5 114t-126.5 39z" />
    <glyph glyph-name="ydieresis" unicode="&#xff;" horiz-adv-x="642" 
d="M-67 -223q-36 0 -65 11l24 78q26 -7 49 -7q65 0 114.5 30t105.5 98l25 31l-102 495h99l76 -410l313 410h114l-424 -538q-83 -106 -153.5 -152t-175.5 -46zM209 617l30 101h109l-30 -101h-109zM463 617l30 101h109l-30 -101h-109z" />
    <glyph glyph-name="Amacron" unicode="&#x100;" horiz-adv-x="853" 
d="M-67 0l560 724h116l141 -724h-103l-35 179h-423l-138 -179h-118zM530 635l-281 -372h348zM401 806l21 75h337l-21 -75h-337z" />
    <glyph glyph-name="amacron" unicode="&#x101;" horiz-adv-x="774" 
d="M509 0v49q-81 -61 -195 -61q-109 0 -175 63t-66 162q0 142 101 227t269 85q49 0 102 -13.5t88 -33.5l19 35h82l-149 -513h-76zM349 64q88 0 172 56l86 298q-68 30 -165 30q-116 0 -191.5 -59t-75.5 -166q0 -78 46 -118.5t128 -40.5zM308 622l21 75h337l-21 -75h-337z" />
    <glyph glyph-name="Abreve" unicode="&#x102;" horiz-adv-x="853" 
d="M-67 0l560 724h116l141 -724h-103l-35 179h-423l-138 -179h-118zM530 635l-281 -372h348zM560 765q-64 0 -100 31.5t-36 85.5q0 24 7 48h68q-3 -16 -3 -32q0 -57 71 -57q97 0 131 89h70q-23 -77 -77 -121t-131 -44z" />
    <glyph glyph-name="abreve" unicode="&#x103;" horiz-adv-x="774" 
d="M509 0v49q-81 -61 -195 -61q-109 0 -175 63t-66 162q0 142 101 227t269 85q49 0 102 -13.5t88 -33.5l19 35h82l-149 -513h-76zM349 64q88 0 172 56l86 298q-68 30 -165 30q-116 0 -191.5 -59t-75.5 -166q0 -78 46 -118.5t128 -40.5zM467 581q-64 0 -100 31.5t-36 85.5
q0 24 7 48h68q-3 -17 -3 -32q0 -57 71 -57q97 0 131 89h70q-23 -77 -77 -121t-131 -44z" />
    <glyph glyph-name="Aogonek" unicode="&#x104;" horiz-adv-x="853" 
d="M627 -216q-47 0 -70.5 22.5t-23.5 52.5q0 69 114 141l-35 179h-423l-138 -179h-118l560 724h116l141 -724h-38q-100 -80 -100 -129q0 -31 48 -31q12 0 34 4l-16 -53q-20 -7 -51 -7zM530 635l-281 -372h348z" />
    <glyph glyph-name="aogonek" unicode="&#x105;" horiz-adv-x="774" 
d="M489 -216q-47 0 -70.5 22.5t-23.5 52.5q0 69 114 141v49q-81 -61 -195 -61q-109 0 -175 63t-66 162q0 142 101 227t269 85q49 0 102 -13.5t88 -33.5l19 35h82l-149 -513h-11q-100 -80 -100 -129q0 -31 48 -31q12 0 34 4l-16 -53q-20 -7 -51 -7zM349 64q88 0 172 56
l86 298q-68 30 -165 30q-116 0 -191.5 -59t-75.5 -166q0 -78 46 -118.5t128 -40.5z" />
    <glyph glyph-name="Cacute" unicode="&#x106;" horiz-adv-x="768" 
d="M404 -12q-149 0 -235 83t-86 215q0 190 141.5 320t347.5 130q144 0 221 -39l-24 -82q-76 36 -198 36q-152 0 -267.5 -99.5t-115.5 -255.5q0 -224 243 -224q113 0 216 35l-26 -87q-78 -32 -217 -32zM533 772l135 158h141l-179 -158h-97z" />
    <glyph glyph-name="cacute" unicode="&#x107;" horiz-adv-x="628" 
d="M321 -12q-112 0 -180 63t-68 159q0 143 106 229t271 86q94 0 162 -33l-23 -75q-62 27 -148 27q-115 0 -190.5 -58t-75.5 -164q0 -77 47 -117t129 -40q79 0 162 32l-24 -80q-58 -29 -168 -29zM413 588l135 158h141l-179 -158h-97z" />
    <glyph glyph-name="Ccircumflex" unicode="&#x108;" horiz-adv-x="768" 
d="M404 -12q-149 0 -235 83t-86 215q0 190 141.5 320t347.5 130q144 0 221 -39l-24 -82q-76 36 -198 36q-152 0 -267.5 -99.5t-115.5 -255.5q0 -224 243 -224q113 0 216 35l-26 -87q-78 -32 -217 -32zM381 772l191 158h85l100 -158h-82l-76 80l-122 -80h-96z" />
    <glyph glyph-name="ccircumflex" unicode="&#x109;" horiz-adv-x="628" 
d="M321 -12q-112 0 -180 63t-68 159q0 143 106 229t271 86q94 0 162 -33l-23 -75q-62 27 -148 27q-115 0 -190.5 -58t-75.5 -164q0 -77 47 -117t129 -40q79 0 162 32l-24 -80q-58 -29 -168 -29zM261 588l191 158h85l100 -158h-82l-76 80l-122 -80h-96z" />
    <glyph glyph-name="Cdotaccent" unicode="&#x10a;" horiz-adv-x="768" 
d="M404 -12q-149 0 -235 83t-86 215q0 190 141.5 320t347.5 130q144 0 221 -39l-24 -82q-76 36 -198 36q-152 0 -267.5 -99.5t-115.5 -255.5q0 -224 243 -224q113 0 216 35l-26 -87q-78 -32 -217 -32zM527 795l31 109h112l-31 -109h-112z" />
    <glyph glyph-name="cdotaccent" unicode="&#x10b;" horiz-adv-x="628" 
d="M321 -12q-112 0 -180 63t-68 159q0 143 106 229t271 86q94 0 162 -33l-23 -75q-62 27 -148 27q-115 0 -190.5 -58t-75.5 -164q0 -77 47 -117t129 -40q79 0 162 32l-24 -80q-58 -29 -168 -29zM407 611l31 109h112l-31 -109h-112z" />
    <glyph glyph-name="Ccaron" unicode="&#x10c;" horiz-adv-x="768" 
d="M404 -12q-149 0 -235 83t-86 215q0 190 141.5 320t347.5 130q144 0 221 -39l-24 -82q-76 36 -198 36q-152 0 -267.5 -99.5t-115.5 -255.5q0 -224 243 -224q113 0 216 35l-26 -87q-78 -32 -217 -32zM539 772l-100 158h82l76 -80l122 80h96l-191 -158h-85z" />
    <glyph glyph-name="ccaron" unicode="&#x10d;" horiz-adv-x="628" 
d="M321 -12q-112 0 -180 63t-68 159q0 143 106 229t271 86q94 0 162 -33l-23 -75q-62 27 -148 27q-115 0 -190.5 -58t-75.5 -164q0 -77 47 -117t129 -40q79 0 162 32l-24 -80q-58 -29 -168 -29zM419 588l-100 158h82l76 -80l122 80h96l-191 -158h-85z" />
    <glyph glyph-name="Dcaron" unicode="&#x10e;" horiz-adv-x="877" 
d="M44 0l207 724h265q154 0 243.5 -79.5t89.5 -203.5q0 -125 -65.5 -226t-179 -158t-251.5 -57h-309zM513 640h-184l-159 -556h194q164 0 272 100t108 247q0 94 -59.5 151.5t-171.5 57.5zM480 772l-100 158h82l76 -80l122 80h96l-191 -158h-85z" />
    <glyph glyph-name="dcaron" unicode="&#x10f;" horiz-adv-x="774" 
d="M509 0v49q-81 -61 -194 -61q-109 0 -175 63t-66 162q0 142 101 227t269 85q101 0 183 -43l70 242h99l-210 -724h-77zM350 64q88 0 172 56l86 298q-68 30 -165 30q-116 0 -191.5 -59t-75.5 -166q0 -78 46 -118.5t128 -40.5zM809 516l63 117v91h49q26 0 43 -12t17 -35
q0 -30 -54 -96q-3 -4 -9 -11l-8 -10l-37 -44h-64z" />
    <glyph glyph-name="Dcroat" unicode="&#x110;" horiz-adv-x="885" 
d="M80 325l21 75h65l93 324h265q154 0 243.5 -79.5t89.5 -203.5q0 -125 -65.5 -226t-179 -158t-251.5 -57h-309l93 325h-65zM521 640h-184l-69 -240h193l-21 -75h-193l-69 -241h194q164 0 272 100t108 247q0 94 -59.5 151.5t-171.5 57.5z" />
    <glyph glyph-name="dcroat" unicode="&#x111;" horiz-adv-x="774" 
d="M542 589l22 75h115l18 60h99l-18 -60h74l-22 -75h-73l-171 -589h-77v49q-81 -61 -194 -61q-109 0 -175 63t-66 162q0 142 101 227t269 85q101 0 183 -43l31 107h-116zM350 64q88 0 172 56l86 298q-68 30 -165 30q-116 0 -191.5 -59t-75.5 -166q0 -78 46 -118.5t128 -40.5
z" />
    <glyph glyph-name="Emacron" unicode="&#x112;" horiz-adv-x="772" 
d="M44 0l207 724h561l-24 -84h-459l-65 -226h400l-24 -84h-400l-70 -246h463l-24 -84h-565zM383 806l21 75h337l-21 -75h-337z" />
    <glyph glyph-name="emacron" unicode="&#x113;" horiz-adv-x="727" 
d="M351 -12q-123 0 -200.5 63.5t-77.5 172.5q0 131 91 216t245 85q108 0 180 -56t72 -135q0 -52 -17 -98h-471v-6q0 -79 50.5 -120.5t142.5 -41.5q126 0 225 45l-24 -82q-85 -43 -216 -43zM399 449q-83 0 -138.5 -36.5t-76.5 -102.5h381q2 12 2 18q0 51 -49 86t-119 35z
M263 622l21 75h337l-21 -75h-337z" />
    <glyph glyph-name="Ebreve" unicode="&#x114;" horiz-adv-x="772" 
d="M44 0l207 724h561l-24 -84h-459l-65 -226h400l-24 -84h-400l-70 -246h463l-24 -84h-565zM542 765q-64 0 -100 31.5t-36 85.5q0 24 7 48h68q-3 -16 -3 -32q0 -57 71 -57q97 0 131 89h70q-23 -77 -77 -121t-131 -44z" />
    <glyph glyph-name="ebreve" unicode="&#x115;" horiz-adv-x="727" 
d="M351 -12q-123 0 -200.5 63.5t-77.5 172.5q0 131 91 216t245 85q108 0 180 -56t72 -135q0 -52 -17 -98h-471v-6q0 -79 50.5 -120.5t142.5 -41.5q126 0 225 45l-24 -82q-85 -43 -216 -43zM399 449q-83 0 -138.5 -36.5t-76.5 -102.5h381q2 12 2 18q0 51 -49 86t-119 35z
M422 581q-64 0 -100 31.5t-36 85.5q0 24 7 48h68q-3 -17 -3 -32q0 -57 71 -57q97 0 131 89h70q-23 -77 -77 -121t-131 -44z" />
    <glyph glyph-name="Edotaccent" unicode="&#x116;" horiz-adv-x="772" 
d="M44 0l207 724h561l-24 -84h-459l-65 -226h400l-24 -84h-400l-70 -246h463l-24 -84h-565zM492 795l31 109h112l-31 -109h-112z" />
    <glyph glyph-name="edotaccent" unicode="&#x117;" horiz-adv-x="727" 
d="M351 -12q-123 0 -200.5 63.5t-77.5 172.5q0 131 91 216t245 85q108 0 180 -56t72 -135q0 -52 -17 -98h-471v-6q0 -79 50.5 -120.5t142.5 -41.5q126 0 225 45l-24 -82q-85 -43 -216 -43zM399 449q-83 0 -138.5 -36.5t-76.5 -102.5h381q2 12 2 18q0 51 -49 86t-119 35z
M372 611l31 109h112l-31 -109h-112z" />
    <glyph glyph-name="Eogonek" unicode="&#x118;" horiz-adv-x="772" 
d="M44 0l207 724h561l-24 -84h-459l-65 -226h400l-24 -84h-400l-70 -246h463l-24 -84h-27q-100 -80 -100 -129q0 -31 48 -31q12 0 34 4l-16 -53q-20 -7 -51 -7q-47 0 -70.5 22.5t-23.5 52.5q0 68 113 141h-472z" />
    <glyph glyph-name="eogonek" unicode="&#x119;" horiz-adv-x="727" 
d="M352 -12q-123 0 -200.5 63.5t-77.5 172.5q0 131 91 216t245 85q108 0 180 -56t72 -135q0 -52 -17 -98h-471v-6q0 -79 50.5 -120.5t142.5 -41.5q126 0 225 45l-24 -82q-141 -103 -141 -160q0 -31 48 -31q12 0 34 4l-16 -53q-20 -7 -51 -7q-47 0 -70.5 22.5t-23.5 52.5
q0 64 113 138q-49 -9 -109 -9zM400 449q-83 0 -138.5 -36.5t-76.5 -102.5h381q2 12 2 18q0 51 -49 86t-119 35z" />
    <glyph glyph-name="Ecaron" unicode="&#x11a;" horiz-adv-x="772" 
d="M44 0l207 724h561l-24 -84h-459l-65 -226h400l-24 -84h-400l-70 -246h463l-24 -84h-565zM504 772l-100 158h82l76 -80l122 80h96l-191 -158h-85z" />
    <glyph glyph-name="ecaron" unicode="&#x11b;" horiz-adv-x="727" 
d="M351 -12q-123 0 -200.5 63.5t-77.5 172.5q0 131 91 216t245 85q108 0 180 -56t72 -135q0 -52 -17 -98h-471v-6q0 -79 50.5 -120.5t142.5 -41.5q126 0 225 45l-24 -82q-85 -43 -216 -43zM399 449q-83 0 -138.5 -36.5t-76.5 -102.5h381q2 12 2 18q0 51 -49 86t-119 35z
M384 588l-100 158h82l76 -80l122 80h96l-191 -158h-85z" />
    <glyph glyph-name="Gcircumflex" unicode="&#x11c;" horiz-adv-x="894" 
d="M437 -12q-181 0 -267.5 82t-86.5 220q0 130 68.5 233t184 158t255.5 55q175 0 250 -39l-24 -82q-91 36 -226 36q-174 0 -288.5 -101t-114.5 -250q0 -125 66 -177.5t197 -52.5q98 0 188 30l72 249h102l-91 -314q-138 -47 -285 -47zM412 772l191 158h85l100 -158h-82
l-76 80l-122 -80h-96z" />
    <glyph glyph-name="gcircumflex" unicode="&#x11d;" horiz-adv-x="774" 
d="M250 -223q-156 0 -242 55l28 76q90 -51 214 -51q101 0 158 34t83 126l14 47q-80 -58 -191 -58q-109 0 -175 59.5t-66 149.5q0 143 100.5 226.5t269.5 83.5q49 0 102 -13.5t88 -33.5l19 35h82l-149 -513q-35 -119 -118 -171t-217 -52zM349 82q95 0 178 60l80 276
q-68 30 -165 30q-116 0 -191.5 -57.5t-75.5 -164.5q0 -71 46.5 -107.5t127.5 -36.5zM272 588l191 158h85l100 -158h-82l-76 80l-122 -80h-96z" />
    <glyph glyph-name="Gbreve" unicode="&#x11e;" horiz-adv-x="894" 
d="M437 -12q-181 0 -267.5 82t-86.5 220q0 130 68.5 233t184 158t255.5 55q175 0 250 -39l-24 -82q-91 36 -226 36q-174 0 -288.5 -101t-114.5 -250q0 -125 66 -177.5t197 -52.5q98 0 188 30l72 249h102l-91 -314q-138 -47 -285 -47zM608 765q-64 0 -100 31.5t-36 85.5
q0 24 7 48h68q-3 -16 -3 -32q0 -57 71 -57q97 0 131 89h70q-23 -77 -77 -121t-131 -44z" />
    <glyph glyph-name="gbreve" unicode="&#x11f;" horiz-adv-x="774" 
d="M250 -223q-156 0 -242 55l28 76q90 -51 214 -51q101 0 158 34t83 126l14 47q-80 -58 -191 -58q-109 0 -175 59.5t-66 149.5q0 143 100.5 226.5t269.5 83.5q49 0 102 -13.5t88 -33.5l19 35h82l-149 -513q-35 -119 -118 -171t-217 -52zM349 82q95 0 178 60l80 276
q-68 30 -165 30q-116 0 -191.5 -57.5t-75.5 -164.5q0 -71 46.5 -107.5t127.5 -36.5zM468 581q-64 0 -100 31.5t-36 85.5q0 24 7 48h68q-3 -17 -3 -32q0 -57 71 -57q97 0 131 89h70q-23 -77 -77 -121t-131 -44z" />
    <glyph glyph-name="Gdotaccent" unicode="&#x120;" horiz-adv-x="894" 
d="M437 -12q-181 0 -267.5 82t-86.5 220q0 130 68.5 233t184 158t255.5 55q175 0 250 -39l-24 -82q-91 36 -226 36q-174 0 -288.5 -101t-114.5 -250q0 -125 66 -177.5t197 -52.5q98 0 188 30l72 249h102l-91 -314q-138 -47 -285 -47zM558 795l31 109h112l-31 -109h-112z" />
    <glyph glyph-name="gdotaccent" unicode="&#x121;" horiz-adv-x="774" 
d="M250 -223q-156 0 -242 55l28 76q90 -51 214 -51q101 0 158 34t83 126l14 47q-80 -58 -191 -58q-109 0 -175 59.5t-66 149.5q0 143 100.5 226.5t269.5 83.5q49 0 102 -13.5t88 -33.5l19 35h82l-149 -513q-35 -119 -118 -171t-217 -52zM349 82q95 0 178 60l80 276
q-68 30 -165 30q-116 0 -191.5 -57.5t-75.5 -164.5q0 -71 46.5 -107.5t127.5 -36.5zM418 611l31 109h112l-31 -109h-112z" />
    <glyph glyph-name="Gcommaaccent" unicode="&#x122;" horiz-adv-x="894" 
d="M437 -12q-181 0 -267.5 82t-86.5 220q0 130 68.5 233t184 158t255.5 55q175 0 250 -39l-24 -82q-91 36 -226 36q-174 0 -288.5 -101t-114.5 -250q0 -125 66 -177.5t197 -52.5q98 0 188 30l72 249h102l-91 -314q-138 -47 -285 -47zM318 -240l-30 38l85 75l-9 85h60
q53 0 53 -48q0 -52 -104 -116z" />
    <glyph glyph-name="gcommaaccent" unicode="&#x123;" horiz-adv-x="774" 
d="M250 -223q-156 0 -242 55l28 76q90 -51 214 -51q101 0 158 34t83 126l14 47q-80 -58 -191 -58q-109 0 -175 59.5t-66 149.5q0 143 100.5 226.5t269.5 83.5q49 0 102 -13.5t88 -33.5l19 35h82l-149 -513q-35 -119 -118 -171t-217 -52zM349 82q95 0 178 60l80 276
q-68 30 -165 30q-116 0 -191.5 -57.5t-75.5 -164.5q0 -71 46.5 -107.5t127.5 -36.5zM462 570q-53 0 -53 48q0 49 113 119l55 34l30 -42l-88 -77v-82h-57z" />
    <glyph glyph-name="Hcircumflex" unicode="&#x124;" horiz-adv-x="912" 
d="M613 0l93 321h-467l-93 -321h-102l210 724h102l-93 -319h467l93 319h102l-210 -724h-102zM401 772l191 158h85l100 -158h-82l-76 80l-122 -80h-96z" />
    <glyph glyph-name="hcircumflex" unicode="&#x125;" horiz-adv-x="769" 
d="M40 0l210 724h99l-76 -261q81 62 195 62q89 0 152 -39t63 -115q0 -27 -9 -58l-91 -313h-99l89 306q7 24 7 46q0 95 -144 95q-101 0 -186 -62l-111 -385h-99zM112 768l191 158h85l100 -158h-82l-76 80l-122 -80h-96z" />
    <glyph glyph-name="Hbar" unicode="&#x126;" horiz-adv-x="912" 
d="M120 537l22 75h79l33 112h102l-33 -112h467l33 112h102l-33 -112h78l-22 -75h-77l-156 -537h-102l93 321h-467l-93 -321h-102l156 537h-80zM263 405h467l38 132h-467z" />
    <glyph glyph-name="hbar" unicode="&#x127;" horiz-adv-x="769" 
d="M134 589l22 75h76l18 60h99l-18 -60h113l-22 -75h-113l-36 -126q81 62 195 62q89 0 152 -39t63 -115q0 -27 -9 -58l-91 -313h-99l89 306q7 24 7 46q0 95 -144 95q-101 0 -186 -62l-111 -385h-99l171 589h-77z" />
    <glyph glyph-name="Itilde" unicode="&#x128;" horiz-adv-x="533" 
d="M192 640l24 84h361l-24 -84h-129l-162 -556h129l-24 -84h-361l24 84h130l162 556h-130zM493 783q-34 0 -60 15.5t-44.5 30.5t-34.5 15q-40 0 -60 -56h-72q39 131 132 131q34 0 60 -15.5t44.5 -30.5t34.5 -15q40 0 61 56h71q-16 -57 -49 -94t-83 -37z" />
    <glyph glyph-name="itilde" unicode="&#x129;" horiz-adv-x="328" 
d="M40 0l149 513h99l-149 -513h-99zM342 599q-34 0 -60 15.5t-44.5 30.5t-34.5 15q-40 0 -60 -56h-72q39 131 132 131q34 0 60 -15.5t44.5 -30.5t34.5 -15q40 0 61 56h71q-16 -57 -49 -94t-83 -37z" />
    <glyph glyph-name="Imacron" unicode="&#x12a;" horiz-adv-x="533" 
d="M192 640l24 84h361l-24 -84h-129l-162 -556h129l-24 -84h-361l24 84h130l162 556h-130zM247 806l21 75h337l-21 -75h-337z" />
    <glyph glyph-name="imacron" unicode="&#x12b;" horiz-adv-x="328" 
d="M40 0l149 513h99l-149 -513h-99zM96 622l21 75h337l-21 -75h-337z" />
    <glyph glyph-name="Ibreve" unicode="&#x12c;" horiz-adv-x="533" 
d="M192 640l24 84h361l-24 -84h-129l-162 -556h129l-24 -84h-361l24 84h130l162 556h-130zM406 765q-64 0 -100 31.5t-36 85.5q0 24 7 48h68q-3 -16 -3 -32q0 -57 71 -57q97 0 131 89h70q-23 -77 -77 -121t-131 -44z" />
    <glyph glyph-name="ibreve" unicode="&#x12d;" horiz-adv-x="328" 
d="M40 0l149 513h99l-149 -513h-99zM255 581q-64 0 -100 31.5t-36 85.5q0 24 7 48h68q-3 -17 -3 -32q0 -57 71 -57q97 0 131 89h70q-23 -77 -77 -121t-131 -44z" />
    <glyph glyph-name="Iogonek" unicode="&#x12e;" horiz-adv-x="533" 
d="M200 -216q-47 0 -70.5 22.5t-23.5 52.5q0 68 113 141h-161l24 84h130l162 556h-130l24 84h361l-24 -84h-129l-162 -556h129l-24 -84h-134q-100 -80 -100 -129q0 -31 48 -31q12 0 34 4l-16 -53q-20 -7 -51 -7z" />
    <glyph glyph-name="iogonek" unicode="&#x12f;" horiz-adv-x="328" 
d="M40 0l149 513h99l-149 -513h-17q-100 -80 -100 -129q0 -31 48 -31q12 0 34 4l-16 -53q-20 -7 -51 -7q-47 0 -70.5 22.5t-23.5 52.5q0 68 113 141h-16zM219 615l31 109h99l-31 -109h-99z" />
    <glyph glyph-name="Idotaccent" unicode="&#x130;" horiz-adv-x="533" 
d="M192 640l24 84h361l-24 -84h-129l-162 -556h129l-24 -84h-361l24 84h130l162 556h-130zM356 795l31 109h112l-31 -109h-112z" />
    <glyph glyph-name="dotlessi" unicode="&#x131;" horiz-adv-x="328" 
d="M40 0l149 513h99l-149 -513h-99z" />
    <glyph glyph-name="IJ" unicode="&#x132;" horiz-adv-x="957" 
d="M192 640l24 84h361l-24 -84h-129l-162 -556h129l-24 -84h-361l24 84h130l162 556h-130zM690 640l25 84h250l-185 -638q-35 -123 -98.5 -175.5t-157.5 -52.5q-70 0 -104 15l22 83q31 -11 69 -11q70 0 108.5 36.5t65.5 129.5l153 529h-148z" />
    <glyph glyph-name="ij" unicode="&#x133;" horiz-adv-x="656" 
d="M40 0l149 513h99l-149 -513h-99zM219 615l31 109h99l-31 -109h-99zM222 -223q-22 0 -53 6t-41 12l23 74q30 -14 74 -14q64 0 93 36.5t56 128.5l143 493h99l-151 -520q-36 -123 -86 -169.5t-157 -46.5zM547 615l31 109h99l-31 -109h-99z" />
    <glyph glyph-name="Jcircumflex" unicode="&#x134;" horiz-adv-x="424" 
d="M157 640l25 84h250l-185 -638q-35 -123 -99 -175.5t-157 -52.5q-70 0 -104 15l22 83q31 -11 69 -11q70 0 108.5 36.5t65.5 129.5l153 529h-148zM194 772l191 158h85l100 -158h-82l-76 80l-122 -80h-96z" />
    <glyph glyph-name="jcircumflex" unicode="&#x135;" horiz-adv-x="328" 
d="M-106 -223q-22 0 -53 6t-41 12l23 76q30 -14 74 -14q65 0 93.5 36t55.5 127l143 493h99l-151 -520q-36 -123 -86 -169.5t-157 -46.5zM59 588l191 158h85l100 -158h-82l-76 80l-122 -80h-96z" />
    <glyph glyph-name="Kcommaaccent" unicode="&#x136;" horiz-adv-x="845" 
d="M62 0l210 724h102l-94 -325l500 325h157l-573 -365l382 -359h-139l-347 333l-96 -333h-102zM237 -240l-30 38l85 75l-9 85h60q53 0 53 -48q0 -52 -104 -116z" />
    <glyph glyph-name="kcommaaccent" unicode="&#x137;" horiz-adv-x="679" 
d="M40 0l210 724h99l-126 -435l356 224h151l-419 -257l294 -256h-135l-263 236l-68 -236h-99zM202 -240l-30 38l85 75l-9 85h60q53 0 53 -48q0 -52 -104 -116z" />
    <glyph glyph-name="Lacute" unicode="&#x139;" horiz-adv-x="674" 
d="M44 0l207 724h102l-183 -640h397l-24 -84h-499zM270 772l135 158h141l-179 -158h-97z" />
    <glyph glyph-name="lacute" unicode="&#x13a;" horiz-adv-x="389" 
d="M174 -12q-54 0 -81.5 25t-27.5 69q0 27 8 52l171 590h98l-172 -593q-5 -18 -5 -28q0 -35 48 -35q41 0 79 11l-21 -75q-41 -16 -97 -16zM258 768l135 158h141l-179 -158h-97z" />
    <glyph glyph-name="Lcommaaccent" unicode="&#x13b;" horiz-adv-x="674" 
d="M44 0l207 724h102l-183 -640h397l-24 -84h-499zM183 -240l-30 38l85 75l-9 85h60q53 0 53 -48q0 -52 -104 -116z" />
    <glyph glyph-name="lcommaaccent" unicode="&#x13c;" horiz-adv-x="389" 
d="M174 -12q-54 0 -81.5 25t-27.5 69q0 27 8 52l171 590h98l-172 -593q-5 -18 -5 -28q0 -35 48 -35q41 0 79 11l-21 -75q-41 -16 -97 -16zM45 -240l-30 38l85 75l-9 85h60q53 0 53 -48q0 -52 -104 -116z" />
    <glyph glyph-name="Lcaron" unicode="&#x13d;" horiz-adv-x="674" 
d="M44 0l207 724h102l-183 -640h397l-24 -84h-499zM395 516l63 117v91h49q26 0 43 -12t17 -35q0 -30 -54 -96q-3 -4 -9 -11l-8 -10l-37 -44h-64z" />
    <glyph glyph-name="lcaron" unicode="&#x13e;" horiz-adv-x="389" 
d="M174 -12q-54 0 -81.5 25t-27.5 69q0 27 8 52l171 590h98l-172 -593q-5 -18 -5 -28q0 -35 48 -35q41 0 79 11l-21 -75q-41 -16 -97 -16zM356 516l63 117v91h49q26 0 43 -12t17 -35q0 -30 -54 -96q-3 -4 -9 -11l-8 -10l-37 -44h-64z" />
    <glyph glyph-name="Ldot" unicode="&#x13f;" horiz-adv-x="674" 
d="M44 0l207 724h102l-183 -640h397l-24 -84h-499zM379 332l31 109h112l-31 -109h-112z" />
    <glyph glyph-name="ldot" unicode="&#x140;" horiz-adv-x="429" 
d="M174 -12q-54 0 -81.5 25t-27.5 69q0 27 8 52l171 590h98l-172 -593q-5 -18 -5 -28q0 -35 48 -35q41 0 79 11l-21 -75q-41 -16 -97 -16zM322 307l31 109h112l-31 -109h-112z" />
    <glyph glyph-name="Lslash" unicode="&#x141;" horiz-adv-x="682" 
d="M41 221l24 92l89 44l105 367h102l-89 -309l224 110l-24 -92l-226 -111l-68 -238h397l-24 -84h-499l75 263z" />
    <glyph glyph-name="lslash" unicode="&#x142;" horiz-adv-x="409" 
d="M49 234l24 92l78 38l105 360h98l-88 -304l128 63l-24 -92l-131 -64l-57 -196q-5 -18 -5 -28q0 -35 48 -35q41 0 79 11l-21 -75q-41 -16 -97 -16q-54 0 -81.5 25t-27.5 69q0 27 8 52l39 137z" />
    <glyph glyph-name="Nacute" unicode="&#x143;" horiz-adv-x="960" 
d="M44 0l210 724h103l320 -599l174 599h100l-210 -724h-102l-321 601l-174 -601h-100zM569 772l135 158h141l-179 -158h-97z" />
    <glyph glyph-name="nacute" unicode="&#x144;" horiz-adv-x="769" 
d="M40 0l149 513h76v-55q82 67 203 67q89 0 152 -39t63 -115q0 -27 -9 -58l-91 -313h-99l89 306q7 24 7 46q0 95 -144 95q-102 0 -185 -62l-112 -385h-99zM434 588l135 158h141l-179 -158h-97z" />
    <glyph glyph-name="Ncommaaccent" unicode="&#x145;" horiz-adv-x="960" 
d="M44 0l210 724h103l320 -599l174 599h100l-210 -724h-102l-321 601l-174 -601h-100zM281 -240l-30 38l85 75l-9 85h60q53 0 53 -48q0 -52 -104 -116z" />
    <glyph glyph-name="ncommaaccent" unicode="&#x146;" horiz-adv-x="769" 
d="M40 0l149 513h76v-55q82 67 203 67q89 0 152 -39t63 -115q0 -27 -9 -58l-91 -313h-99l89 306q7 24 7 46q0 95 -144 95q-102 0 -185 -62l-112 -385h-99zM201 -240l-30 38l85 75l-9 85h60q53 0 53 -48q0 -52 -104 -116z" />
    <glyph glyph-name="Ncaron" unicode="&#x147;" horiz-adv-x="960" 
d="M44 0l210 724h103l320 -599l174 599h100l-210 -724h-102l-321 601l-174 -601h-100zM575 772l-100 158h82l76 -80l122 80h96l-191 -158h-85z" />
    <glyph glyph-name="ncaron" unicode="&#x148;" horiz-adv-x="769" 
d="M40 0l149 513h76v-55q82 67 203 67q89 0 152 -39t63 -115q0 -27 -9 -58l-91 -313h-99l89 306q7 24 7 46q0 95 -144 95q-102 0 -185 -62l-112 -385h-99zM440 588l-100 158h82l76 -80l122 80h96l-191 -158h-85z" />
    <glyph glyph-name="napostrophe" unicode="&#x149;" horiz-adv-x="1022" 
d="M293 0l149 513h76v-55q82 67 203 67q89 0 152 -39t63 -115q0 -27 -9 -58l-91 -313h-99l89 306q7 24 7 46q0 95 -144 95q-102 0 -185 -62l-112 -385h-99zM112 479l114 137v108h80q52 0 52 -45q0 -51 -122 -157l-49 -43h-75z" />
    <glyph glyph-name="Omacron" unicode="&#x14c;" horiz-adv-x="928" 
d="M416 -12q-86 0 -151.5 24.5t-104 67t-58 93t-19.5 107.5q0 189 130.5 322.5t337.5 133.5q85 0 151 -24.5t104.5 -67t58 -93t19.5 -107.5q0 -189 -130.5 -322.5t-337.5 -133.5zM424 70q85 0 155 33t112.5 87t65 117t22.5 128q0 101 -58.5 160t-178.5 59q-85 0 -154.5 -33
t-112 -87t-65 -117.5t-22.5 -127.5q0 -101 58 -160t178 -59zM411 806l21 75h337l-21 -75h-337z" />
    <glyph glyph-name="omacron" unicode="&#x14d;" horiz-adv-x="771" 
d="M351 -12q-128 0 -203 66.5t-75 165.5q0 143 96.5 224t250.5 81q128 0 203 -66.5t75 -165.5q0 -143 -96.5 -224t-250.5 -81zM359 63q104 0 170.5 58.5t66.5 161.5q0 77 -49.5 122t-134.5 45q-104 0 -170.5 -58.5t-66.5 -161.5q0 -77 49.5 -122t134.5 -45zM282 622l21 75
h337l-21 -75h-337z" />
    <glyph glyph-name="Obreve" unicode="&#x14e;" horiz-adv-x="928" 
d="M416 -12q-86 0 -151.5 24.5t-104 67t-58 93t-19.5 107.5q0 189 130.5 322.5t337.5 133.5q85 0 151 -24.5t104.5 -67t58 -93t19.5 -107.5q0 -189 -130.5 -322.5t-337.5 -133.5zM424 70q85 0 155 33t112.5 87t65 117t22.5 128q0 101 -58.5 160t-178.5 59q-85 0 -154.5 -33
t-112 -87t-65 -117.5t-22.5 -127.5q0 -101 58 -160t178 -59zM570 765q-64 0 -100 31.5t-36 85.5q0 24 7 48h68q-3 -16 -3 -32q0 -57 71 -57q97 0 131 89h70q-23 -77 -77 -121t-131 -44z" />
    <glyph glyph-name="obreve" unicode="&#x14f;" horiz-adv-x="771" 
d="M351 -12q-128 0 -203 66.5t-75 165.5q0 143 96.5 224t250.5 81q128 0 203 -66.5t75 -165.5q0 -143 -96.5 -224t-250.5 -81zM359 63q104 0 170.5 58.5t66.5 161.5q0 77 -49.5 122t-134.5 45q-104 0 -170.5 -58.5t-66.5 -161.5q0 -77 49.5 -122t134.5 -45zM441 581
q-64 0 -100 31.5t-36 85.5q0 24 7 48h68q-3 -17 -3 -32q0 -57 71 -57q97 0 131 89h70q-23 -77 -77 -121t-131 -44z" />
    <glyph glyph-name="Ohungarumlaut" unicode="&#x150;" horiz-adv-x="928" 
d="M416 -12q-86 0 -151.5 24.5t-104 67t-58 93t-19.5 107.5q0 189 130.5 322.5t337.5 133.5q85 0 151 -24.5t104.5 -67t58 -93t19.5 -107.5q0 -189 -130.5 -322.5t-337.5 -133.5zM424 70q85 0 155 33t112.5 87t65 117t22.5 128q0 101 -58.5 160t-178.5 59q-85 0 -154.5 -33
t-112 -87t-65 -117.5t-22.5 -127.5q0 -101 58 -160t178 -59zM416 772l103 158h127l-144 -158h-86zM626 772l104 158h128l-146 -158h-86z" />
    <glyph glyph-name="ohungarumlaut" unicode="&#x151;" horiz-adv-x="771" 
d="M351 -12q-128 0 -203 66.5t-75 165.5q0 143 96.5 224t250.5 81q128 0 203 -66.5t75 -165.5q0 -143 -96.5 -224t-250.5 -81zM359 63q104 0 170.5 58.5t66.5 161.5q0 77 -49.5 122t-134.5 45q-104 0 -170.5 -58.5t-66.5 -161.5q0 -77 49.5 -122t134.5 -45zM287 588l103 158
h127l-144 -158h-86zM497 588l104 158h128l-146 -158h-86z" />
    <glyph glyph-name="OE" unicode="&#x152;" horiz-adv-x="1289" 
d="M561 0q-86 -12 -158 -12q-82 0 -145 25t-100 67t-56 92.5t-19 107.5q0 92 34.5 174.5t97.5 145.5t160 99.5t213 36.5q97 0 183 -12h558l-24 -84h-457l-65 -226h398l-24 -84h-398l-72 -246h463l-24 -84h-565zM422 70q86 0 163 13l162 560q-78 11 -168 11q-99 0 -176.5 -33
t-122.5 -87.5t-68 -117t-23 -127.5q0 -102 56.5 -160.5t176.5 -58.5z" />
    <glyph glyph-name="oe" unicode="&#x153;" horiz-adv-x="1250" 
d="M341 -12q-124 0 -196 67t-72 166q0 143 99.5 223.5t257.5 80.5q84 0 142.5 -32t88.5 -88q86 120 261 120q115 0 188.5 -55.5t73.5 -135.5q0 -52 -17 -98h-471v-6q0 -79 50.5 -120t142.5 -41q126 0 225 45l-24 -83q-85 -43 -216 -43q-85 0 -147.5 31.5t-94.5 89.5
q-90 -121 -291 -121zM350 62q108 0 178.5 59t70.5 162q0 77 -48.5 122.5t-129.5 45.5q-108 0 -178.5 -59t-70.5 -162q0 -77 48.5 -122.5t129.5 -45.5zM922 448q-83 0 -138 -36t-76 -101h380q2 10 2 17q0 51 -49 85.5t-119 34.5z" />
    <glyph glyph-name="Racute" unicode="&#x154;" horiz-adv-x="807" 
d="M44 0l210 724h255q264 0 264 -167q0 -113 -76.5 -175t-214.5 -76q25 -12 45 -39l200 -267h-121l-193 260q-18 24 -35 31t-58 7h-88l-86 -298h-102zM481 640h-150l-75 -259h139q273 0 273 166q0 51 -43.5 72t-143.5 21zM463 772l135 158h141l-179 -158h-97z" />
    <glyph glyph-name="racute" unicode="&#x155;" horiz-adv-x="523" 
d="M40 0l149 513h85l-13 -76q77 86 193 86q60 0 93 -13l-24 -85q-36 11 -90 11q-113 0 -193 -89l-101 -347h-99zM323 588l135 158h141l-179 -158h-97z" />
    <glyph glyph-name="Rcommaaccent" unicode="&#x156;" horiz-adv-x="807" 
d="M44 0l210 724h255q264 0 264 -167q0 -113 -76.5 -175t-214.5 -76q25 -12 45 -39l200 -267h-121l-193 260q-18 24 -35 31t-58 7h-88l-86 -298h-102zM481 640h-150l-75 -259h139q273 0 273 166q0 51 -43.5 72t-143.5 21zM266 -240l-30 38l85 75l-9 85h60q53 0 53 -48
q0 -52 -104 -116z" />
    <glyph glyph-name="rcommaaccent" unicode="&#x157;" horiz-adv-x="523" 
d="M40 0l149 513h85l-13 -76q77 86 193 86q60 0 93 -13l-24 -85q-36 11 -90 11q-113 0 -193 -89l-101 -347h-99zM-22 -240l-30 38l85 75l-9 85h60q53 0 53 -48q0 -52 -104 -116z" />
    <glyph glyph-name="Rcaron" unicode="&#x158;" horiz-adv-x="807" 
d="M44 0l210 724h255q264 0 264 -167q0 -113 -76.5 -175t-214.5 -76q25 -12 45 -39l200 -267h-121l-193 260q-18 24 -35 31t-58 7h-88l-86 -298h-102zM481 640h-150l-75 -259h139q273 0 273 166q0 51 -43.5 72t-143.5 21zM469 772l-100 158h82l76 -80l122 80h96l-191 -158
h-85z" />
    <glyph glyph-name="rcaron" unicode="&#x159;" horiz-adv-x="523" 
d="M40 0l149 513h85l-13 -76q77 86 193 86q60 0 93 -13l-24 -85q-36 11 -90 11q-113 0 -193 -89l-101 -347h-99zM329 588l-100 158h82l76 -80l122 80h96l-191 -158h-85z" />
    <glyph glyph-name="Sacute" unicode="&#x15a;" horiz-adv-x="756" 
d="M274 -12q-150 0 -251 44l24 82q114 -42 235 -42t189.5 35t68.5 92q0 42 -37 68t-130 58q-54 19 -87 33.5t-66 37.5t-48.5 55t-15.5 74q0 96 91 153.5t243 57.5q151 0 243 -45l-24 -82q-100 42 -227 42q-106 0 -163 -33t-57 -90q0 -40 34.5 -66t128.5 -58q61 -21 93.5 -35
t66 -37t47.5 -53.5t14 -73.5q0 -96 -97 -156.5t-275 -60.5zM455 772l135 158h141l-179 -158h-97z" />
    <glyph glyph-name="sacute" unicode="&#x15b;" horiz-adv-x="641" 
d="M237 -12q-122 0 -216 43l22 72q93 -37 201 -37q197 0 197 80q0 25 -31.5 40.5t-104.5 33.5q-98 25 -144 57t-46 81q0 86 74.5 126.5t194.5 40.5q64 0 125 -12.5t94 -31.5l-22 -72q-87 38 -204 38q-72 0 -116.5 -18.5t-44.5 -57.5q0 -26 32.5 -41.5t103.5 -32.5
q98 -25 144 -57t46 -81q0 -61 -44 -100.5t-109.5 -55t-151.5 -15.5zM366 588l135 158h141l-179 -158h-97z" />
    <glyph glyph-name="Scircumflex" unicode="&#x15c;" horiz-adv-x="756" 
d="M274 -12q-150 0 -251 44l24 82q114 -42 235 -42t189.5 35t68.5 92q0 42 -37 68t-130 58q-54 19 -87 33.5t-66 37.5t-48.5 55t-15.5 74q0 96 91 153.5t243 57.5q151 0 243 -45l-24 -82q-100 42 -227 42q-106 0 -163 -33t-57 -90q0 -40 34.5 -66t128.5 -58q61 -21 93.5 -35
t66 -37t47.5 -53.5t14 -73.5q0 -96 -97 -156.5t-275 -60.5zM303 772l191 158h85l100 -158h-82l-76 80l-122 -80h-96z" />
    <glyph glyph-name="scircumflex" unicode="&#x15d;" horiz-adv-x="641" 
d="M237 -12q-122 0 -216 43l22 72q93 -37 201 -37q197 0 197 80q0 25 -31.5 40.5t-104.5 33.5q-98 25 -144 57t-46 81q0 86 74.5 126.5t194.5 40.5q64 0 125 -12.5t94 -31.5l-22 -72q-87 38 -204 38q-72 0 -116.5 -18.5t-44.5 -57.5q0 -26 32.5 -41.5t103.5 -32.5
q98 -25 144 -57t46 -81q0 -61 -44 -100.5t-109.5 -55t-151.5 -15.5zM214 588l191 158h85l100 -158h-82l-76 80l-122 -80h-96z" />
    <glyph glyph-name="Scedilla" unicode="&#x15e;" horiz-adv-x="756" 
d="M274 -12q-150 0 -251 44l24 82q114 -42 235 -42t189.5 35t68.5 92q0 42 -37 68t-130 58q-54 19 -87 33.5t-66 37.5t-48.5 55t-15.5 74q0 96 91 153.5t243 57.5q151 0 243 -45l-24 -82q-100 42 -227 42q-106 0 -163 -33t-57 -90q0 -40 34.5 -66t128.5 -58q61 -21 93.5 -35
t66 -37t47.5 -53.5t14 -73.5q0 -87 -79.5 -145.5t-228.5 -68.5l-29 -54q50 -18 50 -66q0 -44 -37.5 -65.5t-85.5 -21.5q-39 0 -62 9l14 50q18 -5 45 -5q58 0 58 36q0 30 -62 41l48 73h-3z" />
    <glyph glyph-name="scedilla" unicode="&#x15f;" horiz-adv-x="641" 
d="M167 -216q-39 0 -62 9l14 50q18 -5 45 -5q58 0 58 36q0 30 -62 41l49 74q-113 6 -188 42l22 72q93 -37 201 -37q197 0 197 80q0 25 -31.5 40.5t-104.5 33.5q-98 25 -144 57t-46 81q0 86 74.5 126.5t194.5 40.5q64 0 125 -12.5t94 -31.5l-22 -72q-87 38 -204 38
q-72 0 -116.5 -18.5t-44.5 -57.5q0 -26 32.5 -41.5t103.5 -32.5q98 -25 144 -57t46 -81q0 -43 -21.5 -75.5t-60.5 -52t-86.5 -30t-105.5 -12.5l-28 -52q50 -18 50 -66q0 -44 -37.5 -65.5t-85.5 -21.5z" />
    <glyph glyph-name="Scaron" unicode="&#x160;" horiz-adv-x="756" 
d="M274 -12q-150 0 -251 44l24 82q114 -42 235 -42t189.5 35t68.5 92q0 42 -37 68t-130 58q-54 19 -87 33.5t-66 37.5t-48.5 55t-15.5 74q0 96 91 153.5t243 57.5q151 0 243 -45l-24 -82q-100 42 -227 42q-106 0 -163 -33t-57 -90q0 -40 34.5 -66t128.5 -58q61 -21 93.5 -35
t66 -37t47.5 -53.5t14 -73.5q0 -96 -97 -156.5t-275 -60.5zM461 772l-100 158h82l76 -80l122 80h96l-191 -158h-85z" />
    <glyph glyph-name="scaron" unicode="&#x161;" horiz-adv-x="641" 
d="M237 -12q-122 0 -216 43l22 72q93 -37 201 -37q197 0 197 80q0 25 -31.5 40.5t-104.5 33.5q-98 25 -144 57t-46 81q0 86 74.5 126.5t194.5 40.5q64 0 125 -12.5t94 -31.5l-22 -72q-87 38 -204 38q-72 0 -116.5 -18.5t-44.5 -57.5q0 -26 32.5 -41.5t103.5 -32.5
q98 -25 144 -57t46 -81q0 -61 -44 -100.5t-109.5 -55t-151.5 -15.5zM372 588l-100 158h82l76 -80l122 80h96l-191 -158h-85z" />
    <glyph glyph-name="Tcommaaccent" unicode="&#x162;" horiz-adv-x="755" 
d="M142 640l24 84h692l-24 -84h-296l-185 -640h-102l185 640h-294zM197 -240l-30 38l85 75l-9 85h60q53 0 53 -48q0 -52 -104 -116z" />
    <glyph glyph-name="tcommaaccent" unicode="&#x163;" horiz-adv-x="541" 
d="M91 435l21 66l107 11l38 129h97l-37 -128h232l-23 -78h-232l-78 -270q-7 -22 -7 -40q0 -57 93 -57q65 0 122 18l-23 -77q-49 -21 -133 -21q-76 0 -117.5 29.5t-41.5 87.5q0 25 9 57l79 273h-106zM124 -240l-30 38l85 75l-9 85h60q53 0 53 -48q0 -52 -104 -116z" />
    <glyph glyph-name="Tcaron" unicode="&#x164;" horiz-adv-x="755" 
d="M142 640l24 84h692l-24 -84h-296l-185 -640h-102l185 640h-294zM483 772l-100 158h82l76 -80l122 80h96l-191 -158h-85z" />
    <glyph glyph-name="tcaron" unicode="&#x165;" horiz-adv-x="541" 
d="M91 435l21 66l107 11l38 129h97l-37 -128h232l-23 -78h-232l-78 -270q-7 -22 -7 -40q0 -57 93 -57q65 0 122 18l-23 -77q-49 -21 -133 -21q-76 0 -117.5 29.5t-41.5 87.5q0 25 9 57l79 273h-106zM449 606l63 117v91h49q26 0 43 -12t17 -35q0 -30 -54 -96q-3 -4 -9 -11
l-8 -10l-37 -44h-64z" />
    <glyph glyph-name="Tbar" unicode="&#x166;" horiz-adv-x="755" 
d="M142 640l24 84h692l-24 -84h-296l-78 -267h163l-21 -75h-163l-86 -298h-102l86 298h-146l21 75h146l78 267h-294z" />
    <glyph glyph-name="tbar" unicode="&#x167;" horiz-adv-x="553" 
d="M101 435l21 66l107 11l38 129h97l-37 -128h232l-23 -78h-232l-38 -131h165l-22 -75h-165l-18 -64q-7 -22 -7 -40q0 -57 93 -57q65 0 122 18l-23 -77q-49 -21 -133 -21q-76 0 -117.5 29.5t-41.5 87.5q0 25 9 57l19 67h-64l22 75h64l38 131h-106z" />
    <glyph glyph-name="Utilde" unicode="&#x168;" horiz-adv-x="879" 
d="M367 -12q-122 0 -193.5 57t-71.5 154q0 41 13 84l128 441h102l-128 -443q-13 -43 -13 -80q0 -127 170 -127q221 0 281 207l128 443h102l-136 -469q-78 -267 -382 -267zM660 783q-34 0 -60 15.5t-44.5 30.5t-34.5 15q-40 0 -60 -56h-72q39 131 132 131q34 0 60 -15.5
t44.5 -30.5t34.5 -15q40 0 61 56h71q-16 -57 -49 -94t-83 -37z" />
    <glyph glyph-name="utilde" unicode="&#x169;" horiz-adv-x="758" 
d="M493 0v53q-80 -65 -198 -65q-88 0 -149 38t-61 114q0 27 9 60l91 313h99l-89 -306q-8 -29 -8 -48q0 -93 137 -93q101 0 183 61l112 386h99l-149 -513h-76zM555 599q-34 0 -60 15.5t-44.5 30.5t-34.5 15q-40 0 -60 -56h-72q39 131 132 131q34 0 60 -15.5t44.5 -30.5
t34.5 -15q40 0 61 56h71q-16 -57 -49 -94t-83 -37z" />
    <glyph glyph-name="Umacron" unicode="&#x16a;" horiz-adv-x="879" 
d="M367 -12q-122 0 -193.5 57t-71.5 154q0 41 13 84l128 441h102l-128 -443q-13 -43 -13 -80q0 -127 170 -127q221 0 281 207l128 443h102l-136 -469q-78 -267 -382 -267zM409 806l21 75h337l-21 -75h-337z" />
    <glyph glyph-name="umacron" unicode="&#x16b;" horiz-adv-x="758" 
d="M493 0v53q-80 -65 -198 -65q-88 0 -149 38t-61 114q0 27 9 60l91 313h99l-89 -306q-8 -29 -8 -48q0 -93 137 -93q101 0 183 61l112 386h99l-149 -513h-76zM309 622l21 75h337l-21 -75h-337z" />
    <glyph glyph-name="Ubreve" unicode="&#x16c;" horiz-adv-x="879" 
d="M367 -12q-122 0 -193.5 57t-71.5 154q0 41 13 84l128 441h102l-128 -443q-13 -43 -13 -80q0 -127 170 -127q221 0 281 207l128 443h102l-136 -469q-78 -267 -382 -267zM564 765q-64 0 -100 31.5t-36 85.5q0 24 7 48h68q-3 -16 -3 -32q0 -57 71 -57q97 0 131 89h70
q-23 -77 -77 -121t-131 -44z" />
    <glyph glyph-name="ubreve" unicode="&#x16d;" horiz-adv-x="758" 
d="M493 0v53q-80 -65 -198 -65q-88 0 -149 38t-61 114q0 27 9 60l91 313h99l-89 -306q-8 -29 -8 -48q0 -93 137 -93q101 0 183 61l112 386h99l-149 -513h-76zM459 581q-64 0 -100 31.5t-36 85.5q0 24 7 48h68q-3 -17 -3 -32q0 -57 71 -57q97 0 131 89h70q-23 -77 -77 -121
t-131 -44z" />
    <glyph glyph-name="Uring" unicode="&#x16e;" horiz-adv-x="879" 
d="M367 -12q-122 0 -193.5 57t-71.5 154q0 41 13 84l128 441h102l-128 -443q-13 -43 -13 -80q0 -127 170 -127q221 0 281 207l128 443h102l-136 -469q-78 -267 -382 -267zM576 768q-41 0 -69 27.5t-28 66.5q0 50 38 84t92 34q41 0 69 -27.5t28 -67.5q0 -50 -38 -83.5
t-92 -33.5zM584 817q26 0 46 18.5t20 43.5q0 22 -13.5 37t-35.5 15q-26 0 -46 -18.5t-20 -44.5q0 -21 13.5 -36t35.5 -15z" />
    <glyph glyph-name="uring" unicode="&#x16f;" horiz-adv-x="758" 
d="M493 0v53q-80 -65 -198 -65q-88 0 -149 38t-61 114q0 27 9 60l91 313h99l-89 -306q-8 -29 -8 -48q0 -93 137 -93q101 0 183 61l112 386h99l-149 -513h-76zM462 584q-41 0 -69 27.5t-28 66.5q0 50 38 84t92 34q41 0 69 -27.5t28 -67.5q0 -50 -38 -83.5t-92 -33.5zM470 633
q26 0 46 18.5t20 43.5q0 22 -13.5 37t-35.5 15q-26 0 -46 -18.5t-20 -44.5q0 -21 13.5 -36t35.5 -15z" />
    <glyph glyph-name="Uhungarumlaut" unicode="&#x170;" horiz-adv-x="879" 
d="M367 -12q-122 0 -193.5 57t-71.5 154q0 41 13 84l128 441h102l-128 -443q-13 -43 -13 -80q0 -127 170 -127q221 0 281 207l128 443h102l-136 -469q-78 -267 -382 -267zM419 772l103 158h127l-144 -158h-86zM629 772l104 158h128l-146 -158h-86z" />
    <glyph glyph-name="uhungarumlaut" unicode="&#x171;" horiz-adv-x="758" 
d="M493 0v53q-80 -65 -198 -65q-88 0 -149 38t-61 114q0 27 9 60l91 313h99l-89 -306q-8 -29 -8 -48q0 -93 137 -93q101 0 183 61l112 386h99l-149 -513h-76zM314 588l103 158h127l-144 -158h-86zM524 588l104 158h128l-146 -158h-86z" />
    <glyph glyph-name="Uogonek" unicode="&#x172;" horiz-adv-x="879" 
d="M378 -216q-47 0 -70.5 22.5t-23.5 52.5q0 70 99 129q-137 1 -209 57t-72 154q0 41 13 84l128 441h102l-128 -443q-13 -43 -13 -80q0 -127 170 -127q221 0 281 207l128 443h102l-136 -469q-56 -192 -228 -246q-60 -19 -109 -61t-49 -74q0 -34 48 -34q12 0 34 4l-16 -53
q-20 -7 -51 -7z" />
    <glyph glyph-name="uogonek" unicode="&#x173;" horiz-adv-x="758" 
d="M473 -216q-47 0 -70.5 22.5t-23.5 52.5q0 69 114 141v53q-80 -65 -198 -65q-88 0 -149 38t-61 114q0 27 9 60l91 313h99l-89 -306q-8 -29 -8 -48q0 -93 137 -93q101 0 183 61l112 386h99l-149 -513h-11q-100 -80 -100 -129q0 -31 48 -31q12 0 34 4l-16 -53q-20 -7 -51 -7
z" />
    <glyph glyph-name="Wcircumflex" unicode="&#x174;" horiz-adv-x="1337" 
d="M239 0l-94 724h102l69 -609l412 609h97l62 -613l426 613h113l-513 -724h-101l-65 594l-406 -594h-102zM590 772l191 158h85l100 -158h-82l-76 80l-122 -80h-96z" />
    <glyph glyph-name="wcircumflex" unicode="&#x175;" horiz-adv-x="1027" 
d="M180 0l-85 513h98l53 -406l281 406h96l46 -405l287 405h113l-379 -513h-92l-48 406l-279 -406h-91zM391 588l191 158h85l100 -158h-82l-76 80l-122 -80h-96z" />
    <glyph glyph-name="Ycircumflex" unicode="&#x176;" horiz-adv-x="777" 
d="M254 0l78 270l-193 454h111l148 -371l365 371h126l-455 -451l-79 -273h-101zM319 772l191 158h85l100 -158h-82l-76 80l-122 -80h-96z" />
    <glyph glyph-name="ycircumflex" unicode="&#x177;" horiz-adv-x="642" 
d="M-67 -223q-36 0 -65 11l24 78q26 -7 49 -7q65 0 114.5 30t105.5 98l25 31l-102 495h99l76 -410l313 410h114l-424 -538q-83 -106 -153.5 -152t-175.5 -46zM186 588l191 158h85l100 -158h-82l-76 80l-122 -80h-96z" />
    <glyph glyph-name="Ydieresis" unicode="&#x178;" horiz-adv-x="777" 
d="M254 0l78 270l-193 454h111l148 -371l365 371h126l-455 -451l-79 -273h-101zM342 801l30 101h109l-30 -101h-109zM596 801l30 101h109l-30 -101h-109z" />
    <glyph glyph-name="Zacute" unicode="&#x179;" horiz-adv-x="761" 
d="M-8 0l22 79l621 561h-447l24 84h586l-24 -79l-621 -561h473l-24 -84h-610zM469 772l135 158h141l-179 -158h-97z" />
    <glyph glyph-name="zacute" unicode="&#x17a;" horiz-adv-x="680" 
d="M148 435l24 78h498l-20 -68l-479 -367h386l-23 -78h-524l19 69l478 366h-359zM389 588l135 158h141l-179 -158h-97z" />
    <glyph glyph-name="Zdotaccent" unicode="&#x17b;" horiz-adv-x="761" 
d="M-8 0l22 79l621 561h-447l24 84h586l-24 -79l-621 -561h473l-24 -84h-610zM463 795l31 109h112l-31 -109h-112z" />
    <glyph glyph-name="zdotaccent" unicode="&#x17c;" horiz-adv-x="680" 
d="M148 435l24 78h498l-20 -68l-479 -367h386l-23 -78h-524l19 69l478 366h-359zM383 611l31 109h112l-31 -109h-112z" />
    <glyph glyph-name="Zcaron" unicode="&#x17d;" horiz-adv-x="761" 
d="M-8 0l22 79l621 561h-447l24 84h586l-24 -79l-621 -561h473l-24 -84h-610zM475 772l-100 158h82l76 -80l122 80h96l-191 -158h-85z" />
    <glyph glyph-name="zcaron" unicode="&#x17e;" horiz-adv-x="680" 
d="M148 435l24 78h498l-20 -68l-479 -367h386l-23 -78h-524l19 69l478 366h-359zM395 588l-100 158h82l76 -80l122 80h96l-191 -158h-85z" />
    <glyph glyph-name="florin" unicode="&#x192;" 
d="M144 341l36 78h193l35 78q58 128 131.5 183.5t190.5 55.5q67 0 107 -20l-28 -74q-34 14 -88 14q-78 0 -128.5 -42.5t-95.5 -143.5l-23 -51h234l-35 -78h-233l-104 -233q-48 -109 -123 -161t-185 -52q-46 0 -73 11l30 72q16 -4 35 -4q87 1 137.5 38.5t90.5 128.5l90 200
h-194z" />
    <glyph glyph-name="Scommaaccent" unicode="&#x218;" horiz-adv-x="756" 
d="M274 -12q-150 0 -251 44l24 82q114 -42 235 -42t189.5 35t68.5 92q0 42 -37 68t-130 58q-54 19 -87 33.5t-66 37.5t-48.5 55t-15.5 74q0 96 91 153.5t243 57.5q151 0 243 -45l-24 -82q-100 42 -227 42q-106 0 -163 -33t-57 -90q0 -40 34.5 -66t128.5 -58q61 -21 93.5 -35
t66 -37t47.5 -53.5t14 -73.5q0 -96 -97 -156.5t-275 -60.5zM203 -240l-30 38l85 75l-9 85h60q53 0 53 -48q0 -52 -104 -116z" />
    <glyph glyph-name="scommaaccent" unicode="&#x219;" horiz-adv-x="641" 
d="M237 -12q-122 0 -216 43l22 72q93 -37 201 -37q197 0 197 80q0 25 -31.5 40.5t-104.5 33.5q-98 25 -144 57t-46 81q0 86 74.5 126.5t194.5 40.5q64 0 125 -12.5t94 -31.5l-22 -72q-87 38 -204 38q-72 0 -116.5 -18.5t-44.5 -57.5q0 -26 32.5 -41.5t103.5 -32.5
q98 -25 144 -57t46 -81q0 -61 -44 -100.5t-109.5 -55t-151.5 -15.5zM150 -240l-30 38l85 75l-9 85h60q53 0 53 -48q0 -52 -104 -116z" />
    <glyph glyph-name="uni021A" unicode="&#x21a;" horiz-adv-x="755" 
d="M142 640l24 84h692l-24 -84h-296l-185 -640h-102l185 640h-294zM197 -240l-30 38l85 75l-9 85h60q53 0 53 -48q0 -52 -104 -116z" />
    <glyph glyph-name="uni021B" unicode="&#x21b;" horiz-adv-x="541" 
d="M91 435l21 66l107 11l38 129h97l-37 -128h232l-23 -78h-232l-78 -270q-7 -22 -7 -40q0 -57 93 -57q65 0 122 18l-23 -77q-49 -21 -133 -21q-76 0 -117.5 29.5t-41.5 87.5q0 25 9 57l79 273h-106zM124 -240l-30 38l85 75l-9 85h60q53 0 53 -48q0 -52 -104 -116z" />
    <glyph glyph-name="dotlessj" unicode="&#x237;" horiz-adv-x="328" 
d="M-106 -223q-22 0 -53 6t-41 12l23 76q30 -14 74 -14q65 0 93.5 36t55.5 127l143 493h99l-151 -520q-36 -123 -86 -169.5t-157 -46.5z" />
    <glyph glyph-name="circumflex" unicode="&#x2c6;" horiz-adv-x="504" 
d="M149 588l191 158h85l100 -158h-82l-76 80l-122 -80h-96z" />
    <glyph glyph-name="caron" unicode="&#x2c7;" horiz-adv-x="504" 
d="M294 588l-100 158h82l76 -80l122 80h96l-191 -158h-85z" />
    <glyph glyph-name="breve" unicode="&#x2d8;" horiz-adv-x="504" 
d="M342 581q-64 0 -100 31.5t-36 85.5q0 24 7 48h68q-3 -17 -3 -32q0 -57 71 -57q97 0 131 89h70q-23 -77 -77 -121t-131 -44z" />
    <glyph glyph-name="dotaccent" unicode="&#x2d9;" horiz-adv-x="504" 
d="M280 611l31 109h112l-31 -109h-112z" />
    <glyph glyph-name="ring" unicode="&#x2da;" horiz-adv-x="504" 
d="M331 584q-41 0 -69 27.5t-28 66.5q0 50 38 84t92 34q41 0 69 -27.5t28 -67.5q0 -50 -38 -83.5t-92 -33.5zM339 633q26 0 46 18.5t20 43.5q0 22 -13.5 37t-35.5 15q-26 0 -46 -18.5t-20 -44.5q0 -21 13.5 -36t35.5 -15z" />
    <glyph glyph-name="ogonek" unicode="&#x2db;" horiz-adv-x="504" 
d="M140 -216q-47 0 -70.5 22.5t-23.5 52.5q0 24 12 47t34 42.5t40 32.5t44 29h62q-113 -89 -113 -139q0 -31 48 -31q12 0 34 4l-16 -53q-20 -7 -51 -7z" />
    <glyph glyph-name="tilde" unicode="&#x2dc;" horiz-adv-x="504" 
d="M431 599q-34 0 -60 15.5t-44.5 30.5t-34.5 15q-40 0 -60 -56h-72q39 131 132 131q34 0 60 -15.5t44.5 -30.5t34.5 -15q40 0 61 56h71q-16 -57 -49 -94t-83 -37z" />
    <glyph glyph-name="hungarumlaut" unicode="&#x2dd;" horiz-adv-x="504" 
d="M136 588l103 158h127l-144 -158h-86zM346 588l104 158h128l-146 -158h-86z" />
    <glyph glyph-name="commatop" unicode="&#x312;" horiz-adv-x="504" 
d="M331 570q-53 0 -53 48q0 49 113 119l55 34l30 -42l-88 -77v-82h-57z" />
    <glyph glyph-name="caronslovak" unicode="&#x315;" horiz-adv-x="504" 
d="M246 516l63 117v91h49q26 0 43 -12t17 -35q0 -30 -54 -96q-3 -4 -9 -11l-8 -10l-37 -44h-64z" />
    <glyph glyph-name="commaaccent" unicode="&#x326;" horiz-adv-x="504" 
d="M78 -240l-30 38l85 75l-9 85h60q53 0 53 -48q0 -52 -104 -116z" />
    <glyph glyph-name="tonos" unicode="&#x384;" horiz-adv-x="504" 
d="M325 582l6 176h126l-96 -176h-36z" />
    <glyph glyph-name="dieresistonos" unicode="&#x385;" horiz-adv-x="504" 
d="M149 617l29 101h97l-29 -101h-97zM325 582l16 176h106l-86 -176h-36zM460 617l29 101h97l-29 -101h-97z" />
    <glyph glyph-name="Alphatonos" unicode="&#x386;" horiz-adv-x="853" 
d="M-67 0l560 724h116l141 -724h-103l-35 179h-423l-138 -179h-118zM530 635l-281 -372h348zM210 548l6 176h126l-96 -176h-36z" />
    <glyph glyph-name="Epsilontonos" unicode="&#x388;" horiz-adv-x="830" 
d="M102 0l207 724h561l-24 -84h-459l-65 -226h400l-24 -84h-400l-70 -246h463l-24 -84h-565zM107 548l6 176h126l-96 -176h-36z" />
    <glyph glyph-name="Etatonos" unicode="&#x389;" horiz-adv-x="969" 
d="M670 0l93 321h-467l-93 -321h-102l210 724h102l-93 -319h467l93 319h102l-210 -724h-102zM108 548l6 176h126l-96 -176h-36z" />
    <glyph glyph-name="Iotatonos" unicode="&#x38a;" horiz-adv-x="623" 
d="M282 640l24 84h361l-24 -84h-129l-162 -556h129l-24 -84h-361l24 84h130l162 556h-130zM107 548l6 176h126l-96 -176h-36z" />
    <glyph glyph-name="Omicrontonos" unicode="&#x38c;" horiz-adv-x="994" 
d="M482 -12q-86 0 -151.5 24.5t-104 67t-58 93t-19.5 107.5q0 189 130.5 322.5t337.5 133.5q85 0 151 -24.5t104.5 -67t58 -93t19.5 -107.5q0 -189 -130.5 -322.5t-337.5 -133.5zM490 70q85 0 155 33t112.5 87t65 117t22.5 128q0 101 -58.5 160t-178.5 59q-85 0 -154.5 -33
t-112 -87t-65 -117.5t-22.5 -127.5q0 -101 58 -160t178 -59zM107 548l6 176h126l-96 -176h-36z" />
    <glyph glyph-name="Upsilontonos" unicode="&#x38e;" horiz-adv-x="898" 
d="M375 0l78 270l-193 454h111l148 -371l365 371h126l-455 -451l-79 -273h-101zM91 548l6 176h126l-96 -176h-36z" />
    <glyph glyph-name="Omegatonos" unicode="&#x38f;" horiz-adv-x="1038" 
d="M38 0l24 84h181q-94 74 -94 206q0 88 34 168.5t94.5 142.5t151.5 98.5t198 36.5q82 0 145.5 -25t100.5 -67t56 -92.5t19 -107.5q0 -121 -57.5 -214t-161.5 -146h201l-24 -84h-381l22 79q93 18 162 75.5t101 130.5t32 150q0 101 -56 160t-169 59q-71 0 -132 -22
t-102.5 -58.5t-71 -84t-43 -98.5t-13.5 -102q0 -160 130 -210l-22 -79h-325zM107 548l6 176h126l-96 -176h-36z" />
    <glyph glyph-name="iotadieresistonos" unicode="&#x390;" horiz-adv-x="389" 
d="M174 -12q-54 0 -81.5 25t-27.5 69q0 27 8 52l110 379h98l-111 -382q-5 -18 -5 -28q0 -35 48 -35q41 0 79 11l-21 -75q-41 -16 -97 -16zM57 617l29 101h97l-29 -101h-97zM233 582l16 176h106l-86 -176h-36zM368 617l29 101h97l-29 -101h-97z" />
    <glyph glyph-name="Alpha" unicode="&#x391;" horiz-adv-x="853" 
d="M-67 0l560 724h116l141 -724h-103l-35 179h-423l-138 -179h-118zM530 635l-281 -372h348z" />
    <glyph glyph-name="Beta" unicode="&#x392;" horiz-adv-x="802" 
d="M44 0l207 724h233q127 0 200.5 -43.5t73.5 -128.5q0 -72 -46.5 -119t-126.5 -68q124 -46 124 -150q0 -113 -92.5 -164t-274.5 -51h-298zM416 328h-177l-70 -245h177q127 0 193 29t66 101q0 56 -49 85.5t-140 29.5zM461 641h-132l-67 -233h146q120 0 182 28.5t62 102.5
q0 57 -47 79.5t-144 22.5z" />
    <glyph glyph-name="Gamma" unicode="&#x393;" horiz-adv-x="662" 
d="M44 0l210 724h511l-24 -84h-410l-185 -640h-102z" />
    <glyph glyph-name="uni0394" unicode="&#x394;" horiz-adv-x="865" 
d="M-16 0l22 79l505 645h109l131 -645l-22 -79h-745zM540 616l-413 -532h519z" />
    <glyph glyph-name="Epsilon" unicode="&#x395;" horiz-adv-x="772" 
d="M44 0l207 724h561l-24 -84h-459l-65 -226h400l-24 -84h-400l-70 -246h463l-24 -84h-565z" />
    <glyph glyph-name="Zeta" unicode="&#x396;" horiz-adv-x="761" 
d="M-8 0l22 79l621 561h-447l24 84h586l-24 -79l-621 -561h473l-24 -84h-610z" />
    <glyph glyph-name="Eta" unicode="&#x397;" horiz-adv-x="912" 
d="M613 0l93 321h-467l-93 -321h-102l210 724h102l-93 -319h467l93 319h102l-210 -724h-102z" />
    <glyph glyph-name="Theta" unicode="&#x398;" horiz-adv-x="928" 
d="M281 321l25 84h377l-25 -84h-377zM416 -12q-86 0 -151.5 24.5t-104 67t-58 93t-19.5 107.5q0 189 130.5 322.5t337.5 133.5q85 0 151 -24.5t104.5 -67t58 -93t19.5 -107.5q0 -189 -130.5 -322.5t-337.5 -133.5zM424 70q85 0 155 33t112.5 87t65 117t22.5 128
q0 101 -58.5 160t-178.5 59q-85 0 -154.5 -33t-112 -87t-65 -117.5t-22.5 -127.5q0 -101 58 -160t178 -59z" />
    <glyph glyph-name="Iota" unicode="&#x399;" horiz-adv-x="533" 
d="M192 640l24 84h361l-24 -84h-129l-162 -556h129l-24 -84h-361l24 84h130l162 556h-130z" />
    <glyph glyph-name="Kappa" unicode="&#x39a;" horiz-adv-x="845" 
d="M62 0l210 724h102l-94 -325l500 325h157l-573 -365l382 -359h-139l-347 333l-96 -333h-102z" />
    <glyph glyph-name="Lambda" unicode="&#x39b;" horiz-adv-x="815" 
d="M-67 0l544 724h110l125 -724h-102l-102 613l-453 -613h-122z" />
    <glyph glyph-name="Mu" unicode="&#x39c;" horiz-adv-x="1069" 
d="M44 0l210 724h98l175 -414l414 414h117l-210 -724h-99l170 584l-385 -384h-58l-163 384l-170 -584h-99z" />
    <glyph glyph-name="Nu" unicode="&#x39d;" horiz-adv-x="960" 
d="M44 0l210 724h103l320 -599l174 599h100l-210 -724h-102l-321 601l-174 -601h-100z" />
    <glyph glyph-name="Xi" unicode="&#x39e;" horiz-adv-x="741" 
d="M-19 0l25 88h601l-25 -88h-601zM137 328l25 88h475l-25 -88h-475zM161 636l25 88h595l-25 -88h-595z" />
    <glyph glyph-name="Omicron" unicode="&#x39f;" horiz-adv-x="928" 
d="M416 -12q-86 0 -151.5 24.5t-104 67t-58 93t-19.5 107.5q0 189 130.5 322.5t337.5 133.5q85 0 151 -24.5t104.5 -67t58 -93t19.5 -107.5q0 -189 -130.5 -322.5t-337.5 -133.5zM424 70q85 0 155 33t112.5 87t65 117t22.5 128q0 101 -58.5 160t-178.5 59q-85 0 -154.5 -33
t-112 -87t-65 -117.5t-22.5 -127.5q0 -101 58 -160t178 -59z" />
    <glyph glyph-name="Pi" unicode="&#x3a0;" horiz-adv-x="892" 
d="M593 0l185 640h-447l-185 -640h-102l210 724h651l-210 -724h-102z" />
    <glyph glyph-name="Rho" unicode="&#x3a1;" horiz-adv-x="767" 
d="M44 0l210 724h268q127 0 194 -54t67 -130q0 -72 -29.5 -125.5t-82 -84.5t-116.5 -45.5t-140 -14.5h-192l-77 -270h-102zM487 640h-157l-82 -286h163q267 0 267 176q0 50 -47 80t-144 30z" />
    <glyph glyph-name="Sigma" unicode="&#x3a3;" horiz-adv-x="768" 
d="M-9 0l22 79l436 294l-274 272l23 79h618l-24 -84h-482l246 -238l-23 -80l-353 -238h453l-24 -84h-618z" />
    <glyph glyph-name="Tau" unicode="&#x3a4;" horiz-adv-x="755" 
d="M142 640l24 84h692l-24 -84h-296l-185 -640h-102l185 640h-294z" />
    <glyph glyph-name="Upsilon" unicode="&#x3a5;" horiz-adv-x="777" 
d="M254 0l78 270l-193 454h111l148 -371l365 371h126l-455 -451l-79 -273h-101z" />
    <glyph glyph-name="Phi" unicode="&#x3a6;" horiz-adv-x="1063" 
d="M396 0l22 76q-155 5 -252 68t-97 171q0 75 29.5 134.5t77.5 97t116 62t139 34.5t152 11l20 70h99l-20 -71q153 -5 249.5 -67t96.5 -170q0 -75 -30.5 -134.5t-79.5 -96.5t-117.5 -62t-138 -35.5t-146.5 -11.5l-21 -76h-99zM174 323q0 -55 38 -93t96 -54.5t133 -18.5
l119 416q-74 -1 -137 -12.5t-122 -38t-93 -77.5t-34 -122zM923 407q0 80 -74.5 121t-190.5 44l-118 -415q58 1 108.5 8t102.5 24.5t89 44.5t60 71.5t23 101.5z" />
    <glyph glyph-name="Chi" unicode="&#x3a7;" horiz-adv-x="793" 
d="M-60 0l420 378l-189 346h111l147 -281l303 281h134l-394 -356l214 -368h-113l-169 304l-331 -304h-133z" />
    <glyph glyph-name="Psi" unicode="&#x3a8;" horiz-adv-x="969" 
d="M349 0l65 224q-137 0 -207 59.5t-70 160.5q0 45 16 103l51 177h102l-54 -186q-16 -56 -16 -94q0 -138 202 -138l121 418h102l-121 -418q129 0 206 58.5t114 184.5l51 175h102l-57 -198q-43 -151 -145.5 -226.5t-294.5 -75.5l-65 -224h-102z" />
    <glyph glyph-name="uni03A9" unicode="&#x3a9;" horiz-adv-x="1008" 
d="M8 0l24 84h181q-94 74 -94 206q0 88 34 168.5t94.5 142.5t151.5 98.5t198 36.5q82 0 145.5 -25t100.5 -67t56 -92.5t19 -107.5q0 -121 -57.5 -214t-161.5 -146h201l-24 -84h-381l22 79q93 18 162 75.5t101 130.5t32 150q0 101 -56 160t-169 59q-71 0 -132 -22
t-102.5 -58.5t-71 -84t-43 -98.5t-13.5 -102q0 -160 130 -210l-22 -79h-325z" />
    <glyph glyph-name="Iotadieresis" unicode="&#x3aa;" horiz-adv-x="533" 
d="M192 640l24 84h361l-24 -84h-129l-162 -556h129l-24 -84h-361l24 84h130l162 556h-130zM233 801l30 101h109l-30 -101h-109zM487 801l30 101h109l-30 -101h-109z" />
    <glyph glyph-name="Upsilondieresis" unicode="&#x3ab;" horiz-adv-x="777" 
d="M254 0l78 270l-193 454h111l148 -371l365 371h126l-455 -451l-79 -273h-101zM342 801l30 101h109l-30 -101h-109zM596 801l30 101h109l-30 -101h-109z" />
    <glyph glyph-name="alphatonos" unicode="&#x3ac;" horiz-adv-x="779" 
d="M610 -12q-45 0 -67.5 20.5t-21.5 54.5q-85 -75 -207 -75q-110 0 -175.5 62t-65.5 172q0 138 94.5 220.5t231.5 82.5q64 0 124 -22.5t94 -55.5l30 66h87l-115 -396q-3 -12 -3 -20q0 -27 37 -27q24 0 54 7l-22 -74q-30 -15 -75 -15zM339 64q107 0 191 86l64 224
q-69 74 -189 74q-92 0 -161 -58.5t-69 -166.5q0 -78 44.5 -118.5t119.5 -40.5zM448 582l6 176h126l-96 -176h-36z" />
    <glyph glyph-name="epsilontonos" unicode="&#x3ad;" horiz-adv-x="673" 
d="M302 -12q-127 0 -192.5 34t-65.5 97q0 116 179 148q-86 32 -86 102q0 78 83.5 117t220.5 39q62 0 130 -13t96 -31l-22 -75q-33 16 -92.5 28t-118.5 12q-194 0 -194 -79q0 -68 155 -68h111l-22 -76h-127q-90 0 -150 -21.5t-60 -65.5q0 -36 43 -52t133 -16q135 0 256 44
l-23 -79q-36 -19 -109.5 -32t-144.5 -13zM421 582l6 176h126l-96 -176h-36z" />
    <glyph glyph-name="etatonos" unicode="&#x3ae;" horiz-adv-x="769" 
d="M40 0l149 513h76v-55q82 67 203 67q89 0 152 -39t63 -115q0 -27 -9 -58l-152 -524h-99l150 517q7 24 7 46q0 95 -144 95q-102 0 -185 -62l-112 -385h-99zM459 582l6 176h126l-96 -176h-36z" />
    <glyph glyph-name="iotatonos" unicode="&#x3af;" horiz-adv-x="389" 
d="M174 -12q-54 0 -81.5 25t-27.5 69q0 27 8 52l110 379h98l-111 -382q-5 -18 -5 -28q0 -35 48 -35q41 0 79 11l-21 -75q-41 -16 -97 -16zM230 582l6 176h126l-96 -176h-36z" />
    <glyph glyph-name="upsilondieresistonos" unicode="&#x3b0;" horiz-adv-x="736" 
d="M316 -12q-110 0 -169 46t-59 132q0 41 15 92l74 255h99l-70 -243q-16 -53 -16 -94q0 -110 131 -110q66 0 118 31.5t83 84t47.5 115.5t16.5 131q0 42 -8 85h103q6 -42 6 -86q0 -81 -21 -156t-63.5 -140t-116.5 -104t-170 -39zM267 617l29 101h97l-29 -101h-97zM443 582
l16 176h106l-86 -176h-36zM578 617l29 101h97l-29 -101h-97z" />
    <glyph glyph-name="alpha" unicode="&#x3b1;" horiz-adv-x="779" 
d="M610 -12q-45 0 -67.5 20.5t-21.5 54.5q-85 -75 -207 -75q-110 0 -175.5 62t-65.5 172q0 138 94.5 220.5t231.5 82.5q64 0 124 -22.5t94 -55.5l30 66h87l-115 -396q-3 -12 -3 -20q0 -27 37 -27q24 0 54 7l-22 -74q-30 -15 -75 -15zM339 64q107 0 191 86l64 224
q-69 74 -189 74q-92 0 -161 -58.5t-69 -166.5q0 -78 44.5 -118.5t119.5 -40.5z" />
    <glyph glyph-name="beta" unicode="&#x3b2;" horiz-adv-x="775" 
d="M-21 -211l200 690q38 135 120 196t216 61q105 0 166.5 -43.5t61.5 -112.5q0 -80 -58.5 -132.5t-146.5 -75.5q77 -20 123 -67t46 -103q0 -94 -80.5 -154t-243.5 -60q-73 0 -134.5 17.5t-95.5 42.5l-75 -259h-99zM275 468l-103 -354q82 -49 211 -49q106 0 164.5 36
t58.5 101q0 62 -70 97.5t-189 39.5l21 74q71 0 129 13.5t101 51.5t43 96q0 85 -140 85q-90 0 -143 -43t-83 -148z" />
    <glyph glyph-name="gamma" unicode="&#x3b3;" horiz-adv-x="668" 
d="M152 -211l63 218l-78 376q-7 34 -19 48.5t-40 14.5q-24 0 -42 -6l20 72q30 13 65 13q54 0 75 -27t32 -86l57 -309l313 410h114l-398 -507l-63 -217h-99z" />
    <glyph glyph-name="delta" unicode="&#x3b4;" horiz-adv-x="754" 
d="M309 -12q-122 0 -187 56t-65 152q0 135 104 222t239 87q37 0 80 -12l-204 165l20 67h450l-22 -75h-317l131 -105q76 -61 113.5 -118.5t37.5 -130.5q0 -89 -52.5 -160t-139 -109.5t-188.5 -38.5zM321 65q109 0 189 65.5t80 169.5q0 129 -164 129q-120 0 -195 -65.5
t-75 -168.5q0 -64 43 -97t122 -33z" />
    <glyph glyph-name="epsilon" unicode="&#x3b5;" horiz-adv-x="673" 
d="M302 -12q-127 0 -192.5 34t-65.5 97q0 116 179 148q-86 32 -86 102q0 78 83.5 117t220.5 39q62 0 130 -13t96 -31l-22 -75q-33 16 -92.5 28t-118.5 12q-194 0 -194 -79q0 -68 155 -68h111l-22 -76h-127q-90 0 -150 -21.5t-60 -65.5q0 -36 43 -52t133 -16q135 0 256 44
l-23 -79q-36 -19 -109.5 -32t-144.5 -13z" />
    <glyph glyph-name="zeta" unicode="&#x3b6;" horiz-adv-x="582" 
d="M49 174q0 62 41.5 132t108.5 132.5t139.5 115t146.5 92.5h-287l22 78h452l-19 -67q-70 -32 -153 -84.5t-162.5 -117t-132.5 -137.5t-53 -132q0 -104 170 -104h138q23 0 36.5 -10.5t13.5 -28.5q0 -44 -47 -104.5t-96 -100.5h-81q67 73 115 162h-107q-129 0 -187 49.5
t-58 124.5z" />
    <glyph glyph-name="eta" unicode="&#x3b7;" horiz-adv-x="769" 
d="M40 0l149 513h76v-55q82 67 203 67q89 0 152 -39t63 -115q0 -27 -9 -58l-152 -524h-99l150 517q7 24 7 46q0 95 -144 95q-102 0 -185 -62l-112 -385h-99z" />
    <glyph glyph-name="theta" unicode="&#x3b8;" horiz-adv-x="782" 
d="M326 -12q-116 0 -181 65.5t-65 168.5q0 71 17.5 143t53.5 138.5t86 118.5t119.5 83t149.5 31q116 0 181 -66.5t65 -169.5q0 -71 -17.5 -143t-53.5 -138t-86 -117.5t-119.5 -82.5t-149.5 -31zM334 65q94 0 171.5 73t115.5 185h-431q-8 -48 -8 -91q0 -76 39 -121.5
t113 -45.5zM498 658q-94 0 -171.5 -72.5t-115.5 -184.5h431q8 46 8 89q0 77 -39 122.5t-113 45.5z" />
    <glyph glyph-name="iota" unicode="&#x3b9;" horiz-adv-x="389" 
d="M174 -12q-54 0 -81.5 25t-27.5 69q0 27 8 52l110 379h98l-111 -382q-5 -18 -5 -28q0 -35 48 -35q41 0 79 11l-21 -75q-41 -16 -97 -16z" />
    <glyph glyph-name="kappa" unicode="&#x3ba;" horiz-adv-x="679" 
d="M40 0l149 513h99l-65 -224l356 224h151l-419 -257l294 -256h-135l-263 235l-68 -235h-99z" />
    <glyph glyph-name="lambda" unicode="&#x3bb;" horiz-adv-x="681" 
d="M553 -7q-95 0 -112 96l-61 320l-328 -409h-114l421 510l-2 9q-20 81 -39.5 108t-73.5 27q-33 0 -63 -10l23 81q33 11 74 11q77 0 114 -53t58 -158l79 -393q6 -32 19.5 -44.5t42.5 -12.5q23 0 47 8l-22 -77q-28 -13 -63 -13z" />
    <glyph glyph-name="uni03BC" unicode="&#x3bc;" horiz-adv-x="767" 
d="M598 -12q-45 0 -67.5 20.5t-21.5 55.5q-81 -76 -210 -76q-102 0 -161 46q0 -38 -11 -75l-50 -170h-98l210 724h99l-89 -306q-21 -73 14.5 -107t114.5 -34q101 0 183 61l112 386h99l-115 -396q-3 -12 -3 -20q0 -27 37 -27q24 0 54 7l-22 -74q-30 -15 -75 -15z" />
    <glyph glyph-name="nu" unicode="&#x3bd;" horiz-adv-x="642" 
d="M191 0l-107 513h99l76 -410l313 410h114l-403 -513h-92z" />
    <glyph glyph-name="xi" unicode="&#x3be;" horiz-adv-x="584" 
d="M272 -162q69 75 116 162h-87q-133 0 -193.5 49.5t-60.5 128.5q0 89 54 149.5t143 87.5q-39 19 -60.5 51t-21.5 70q0 67 44.5 114t107 66.5t133.5 19.5q120 0 187 -31l-22 -78q-70 29 -173 29q-71 0 -123 -29.5t-52 -96.5q0 -38 37 -61t105 -23h95l-21 -76h-90
q-111 0 -176 -50t-65 -131q0 -53 42 -80t146 -27h110q23 0 36.5 -10.5t13.5 -28.5q0 -44 -47 -104.5t-96 -100.5h-82z" />
    <glyph glyph-name="omicron" unicode="&#x3bf;" horiz-adv-x="771" 
d="M351 -12q-128 0 -203 66.5t-75 165.5q0 143 96.5 224t250.5 81q128 0 203 -66.5t75 -165.5q0 -143 -96.5 -224t-250.5 -81zM359 63q104 0 170.5 58.5t66.5 161.5q0 77 -49.5 122t-134.5 45q-104 0 -170.5 -58.5t-66.5 -161.5q0 -77 49.5 -122t134.5 -45z" />
    <glyph glyph-name="pi" unicode="&#x3c0;" horiz-adv-x="772" 
d="M56 435l22 78h738l-23 -78h-130l-93 -321q-3 -12 -3 -20q0 -27 47 -27q20 0 44 4l-20 -71q-36 -12 -80 -12q-95 0 -95 75q0 22 7 46l94 326h-286l-126 -435h-99l126 435h-123z" />
    <glyph glyph-name="rho" unicode="&#x3c1;" horiz-adv-x="770" 
d="M-35 -211l134 456q29 99 66.5 157.5t102.5 90.5t164 32q120 0 192.5 -64t72.5 -161q0 -146 -94 -229t-262 -83q-115 0 -204 49l-73 -248h-99zM195 235l-39 -132q76 -39 196 -39q107 0 175 57t68 167q0 76 -47.5 119t-127.5 43q-95 0 -144 -52.5t-81 -162.5z" />
    <glyph glyph-name="sigma1" unicode="&#x3c2;" horiz-adv-x="638" 
d="M175 222q0 -140 192 -140h106q23 0 36.5 -10.5t13.5 -28.5q0 -44 -47 -104.5t-96 -100.5h-82q69 75 116 162h-83q-127 0 -192.5 61t-65.5 149q0 143 106 229t271 86q94 0 162 -33l-23 -75q-62 27 -148 27q-115 0 -190.5 -58t-75.5 -164z" />
    <glyph glyph-name="sigma" unicode="&#x3c3;" horiz-adv-x="801" 
d="M351 -12q-128 0 -203 66.5t-75 165.5q0 145 94.5 219t266.5 74h401l-22 -78h-158q43 -61 43 -142q0 -143 -96.5 -224t-250.5 -81zM596 283q0 96 -41 152h-122q-258 0 -258 -205q0 -77 49.5 -122t134.5 -45q104 0 170.5 58.5t66.5 161.5z" />
    <glyph glyph-name="tau" unicode="&#x3c4;" horiz-adv-x="568" 
d="M55 435l23 78h536l-23 -78h-249l-89 -304q-5 -18 -5 -28q0 -35 48 -35q41 0 79 11l-21 -75q-41 -16 -97 -16q-54 0 -81.5 25t-27.5 69q0 27 8 52l88 301h-189z" />
    <glyph glyph-name="upsilon" unicode="&#x3c5;" horiz-adv-x="736" 
d="M316 -12q-110 0 -169 46t-59 132q0 41 15 92l74 255h99l-70 -243q-16 -53 -16 -94q0 -110 131 -110q66 0 118 31.5t83 84t47.5 115.5t16.5 131q0 42 -8 85h103q6 -42 6 -86q0 -81 -21 -156t-63.5 -140t-116.5 -104t-170 -39z" />
    <glyph glyph-name="phi" unicode="&#x3c6;" horiz-adv-x="913" 
d="M270 -211l60 206q-129 1 -206 55.5t-77 145.5q0 97 58.5 171t157 112.5t219.5 38.5l60 206h99l-61 -208q129 0 206.5 -55t77.5 -146q0 -97 -58.5 -171t-157 -112.5t-219.5 -38.5h-1l-59 -204h-99zM763 307q0 61 -52 96.5t-153 35.5l-107 -369q135 0 223.5 63.5
t88.5 173.5zM148 204q0 -61 52 -96.5t152 -35.5l107 369q-135 0 -223 -63t-88 -174z" />
    <glyph glyph-name="chi" unicode="&#x3c7;" horiz-adv-x="698" 
d="M-96 -211l373 378l-81 216q-13 34 -29 47t-49 13q-27 0 -51 -8l22 77q28 13 70 13q52 0 80.5 -26.5t48.5 -83.5l61 -175l257 273h130l-357 -360l87 -234q13 -34 29 -47t49 -13q27 0 51 8l-22 -77q-28 -13 -70 -13q-52 0 -80.5 26.5t-48.5 83.5l-67 193l-274 -291h-129z
" />
    <glyph glyph-name="psi" unicode="&#x3c8;" horiz-adv-x="893" 
d="M265 -211l59 206q-111 4 -173.5 51.5t-62.5 140.5q0 45 16 99l66 227h99l-66 -227q-16 -55 -16 -96q0 -61 38.5 -88.5t121.5 -29.5l189 652h99l-189 -652h4q145 0 219 98t74 257q0 64 -4 86h100q5 -23 5 -80q0 -72 -11.5 -133.5t-41 -119t-76 -98t-119.5 -64.5t-168 -24
h-5l-59 -205h-99z" />
    <glyph glyph-name="omega" unicode="&#x3c9;" horiz-adv-x="985" 
d="M241 -12q-88 0 -135 46t-47 122q0 128 69.5 226.5t139.5 130.5h112q-96 -58 -160.5 -154t-64.5 -204q0 -42 26 -65.5t76 -23.5q61 0 108.5 42.5t70.5 125.5l33 116h99l-33 -116q-15 -51 -15 -86q0 -40 25.5 -61t70.5 -21q84 0 144.5 83.5t60.5 183.5q0 116 -70 180h94
q29 -18 49 -67.5t20 -119.5q0 -81 -33 -156.5t-103.5 -128.5t-163.5 -53q-66 0 -108 27t-60 68q-81 -95 -205 -95z" />
    <glyph glyph-name="iotadieresis" unicode="&#x3ca;" horiz-adv-x="389" 
d="M174 -12q-54 0 -81.5 25t-27.5 69q0 27 8 52l110 379h98l-111 -382q-5 -18 -5 -28q0 -35 48 -35q41 0 79 11l-21 -75q-41 -16 -97 -16zM76 617l30 101h109l-30 -101h-109zM330 617l30 101h109l-30 -101h-109z" />
    <glyph glyph-name="upsilondieresis" unicode="&#x3cb;" horiz-adv-x="736" 
d="M316 -12q-110 0 -169 46t-59 132q0 41 15 92l74 255h99l-70 -243q-16 -53 -16 -94q0 -110 131 -110q66 0 118 31.5t83 84t47.5 115.5t16.5 131q0 42 -8 85h103q6 -42 6 -86q0 -81 -21 -156t-63.5 -140t-116.5 -104t-170 -39zM286 617l30 101h109l-30 -101h-109zM540 617
l30 101h109l-30 -101h-109z" />
    <glyph glyph-name="omicrontonos" unicode="&#x3cc;" horiz-adv-x="771" 
d="M351 -12q-128 0 -203 66.5t-75 165.5q0 143 96.5 224t250.5 81q128 0 203 -66.5t75 -165.5q0 -143 -96.5 -224t-250.5 -81zM359 63q104 0 170.5 58.5t66.5 161.5q0 77 -49.5 122t-134.5 45q-104 0 -170.5 -58.5t-66.5 -161.5q0 -77 49.5 -122t134.5 -45zM422 582l6 176
h126l-96 -176h-36z" />
    <glyph glyph-name="upsilontonos" unicode="&#x3cd;" horiz-adv-x="736" 
d="M316 -12q-110 0 -169 46t-59 132q0 41 15 92l74 255h99l-70 -243q-16 -53 -16 -94q0 -110 131 -110q66 0 118 31.5t83 84t47.5 115.5t16.5 131q0 42 -8 85h103q6 -42 6 -86q0 -81 -21 -156t-63.5 -140t-116.5 -104t-170 -39zM440 582l6 176h126l-96 -176h-36z" />
    <glyph glyph-name="omegatonos" unicode="&#x3ce;" horiz-adv-x="985" 
d="M241 -12q-88 0 -135 46t-47 122q0 128 69.5 226.5t139.5 130.5h112q-96 -58 -160.5 -154t-64.5 -204q0 -42 26 -65.5t76 -23.5q61 0 108.5 42.5t70.5 125.5l33 116h99l-33 -116q-15 -51 -15 -86q0 -40 25.5 -61t70.5 -21q84 0 144.5 83.5t60.5 183.5q0 116 -70 180h94
q29 -18 49 -67.5t20 -119.5q0 -81 -33 -156.5t-103.5 -128.5t-163.5 -53q-66 0 -108 27t-60 68q-81 -95 -205 -95zM562 582l6 176h126l-96 -176h-36z" />
    <glyph glyph-name="uni0400" unicode="&#x400;" horiz-adv-x="772" 
d="M44 0l207 724h561l-24 -84h-459l-65 -226h400l-24 -84h-400l-70 -246h463l-24 -84h-565zM506 772l-101 158h121l63 -158h-83z" />
    <glyph glyph-name="uni0401" unicode="&#x401;" horiz-adv-x="772" 
d="M44 0l207 724h561l-24 -84h-459l-65 -226h400l-24 -84h-400l-70 -246h463l-24 -84h-565zM369 801l30 101h109l-30 -101h-109zM623 801l30 101h109l-30 -101h-109z" />
    <glyph glyph-name="uni0402" unicode="&#x402;" horiz-adv-x="1006" 
d="M142 640l24 84h652l-24 -84h-276l-56 -195h203q127 0 198 -53t71 -139q0 -253 -358 -253h-93l25 83h73q41 0 72.5 3t65.5 13t56 27.5t36.5 47.5t14.5 71q0 52 -40.5 84.5t-129.5 32.5h-218l-105 -362h-102l185 640h-274z" />
    <glyph glyph-name="uni0403" unicode="&#x403;" horiz-adv-x="662" 
d="M44 0l210 724h511l-24 -84h-410l-185 -640h-102zM472 772l135 158h141l-179 -158h-97z" />
    <glyph glyph-name="uni0404" unicode="&#x404;" horiz-adv-x="768" 
d="M404 -12q-149 0 -235 83t-86 215q0 190 141.5 320t347.5 130q144 0 221 -39l-24 -82q-76 36 -198 36t-225.5 -67t-140.5 -179h413l-24 -84h-405q-1 -8 -1 -25q0 -224 243 -224q113 0 216 35l-26 -87q-78 -32 -217 -32z" />
    <glyph glyph-name="uni0405" unicode="&#x405;" horiz-adv-x="756" 
d="M274 -12q-150 0 -251 44l24 82q114 -42 235 -42t189.5 35t68.5 92q0 42 -37 68t-130 58q-54 19 -87 33.5t-66 37.5t-48.5 55t-15.5 74q0 96 91 153.5t243 57.5q151 0 243 -45l-24 -82q-100 42 -227 42q-106 0 -163 -33t-57 -90q0 -40 34.5 -66t128.5 -58q61 -21 93.5 -35
t66 -37t47.5 -53.5t14 -73.5q0 -96 -97 -156.5t-275 -60.5z" />
    <glyph glyph-name="uni0406" unicode="&#x406;" horiz-adv-x="533" 
d="M192 640l24 84h361l-24 -84h-129l-162 -556h129l-24 -84h-361l24 84h130l162 556h-130z" />
    <glyph glyph-name="uni0407" unicode="&#x407;" horiz-adv-x="533" 
d="M192 640l24 84h361l-24 -84h-129l-162 -556h129l-24 -84h-361l24 84h130l162 556h-130zM233 801l30 101h109l-30 -101h-109zM487 801l30 101h109l-30 -101h-109z" />
    <glyph glyph-name="uni0408" unicode="&#x408;" horiz-adv-x="424" 
d="M157 640l25 84h250l-185 -638q-35 -123 -99 -175.5t-157 -52.5q-70 0 -104 15l22 83q31 -11 69 -11q70 0 108.5 36.5t65.5 129.5l153 529h-148z" />
    <glyph glyph-name="uni0409" unicode="&#x409;" horiz-adv-x="1353" 
d="M33 -12q-66 0 -98 16l21 76q22 -8 67 -8q42 0 76 19.5t66 61.5t65 121.5t67.5 184.5t80.5 265h542l-81 -279h183q127 0 198 -53t71 -139q0 -253 -358 -253h-325l185 640h-337q-65 -212 -115 -340q-17 -42 -26 -64t-28 -60.5t-34 -60t-39.5 -49.5t-49.5 -42.5t-59 -25
t-72 -10.5zM1013 362h-198l-81 -279h204q41 0 72.5 3t65.5 13t56 27.5t36.5 47.5t14.5 71q0 52 -40.5 84.5t-129.5 32.5z" />
    <glyph glyph-name="uni040A" unicode="&#x40a;" horiz-adv-x="1319" 
d="M44 0l210 724h102l-93 -319h428l93 319h102l-81 -279h183q127 0 198 -53t71 -139q0 -253 -358 -253h-325l93 321h-428l-93 -321h-102zM979 362h-198l-81 -279h204q41 0 72.5 3t65.5 13t56 27.5t36.5 47.5t14.5 71q0 52 -40.5 84.5t-129.5 32.5z" />
    <glyph glyph-name="uni040B" unicode="&#x40b;" horiz-adv-x="998" 
d="M142 640l24 84h652l-24 -84h-276l-56 -195q108 36 231 36q101 0 161 -43.5t60 -128.5q0 -35 -14 -85l-65 -224h-102l64 221q11 36 11 78q0 98 -150 98q-110 0 -219 -31l-106 -366h-102l185 640h-274z" />
    <glyph glyph-name="uni040C" unicode="&#x40c;" horiz-adv-x="845" 
d="M44 0l207 724h103l-91 -317h82q42 0 61.5 7t48.5 31l339 279h140l-378 -308q-45 -36 -79 -53q39 -17 69 -63l199 -300h-121l-185 287q-15 24 -33.5 31t-59.5 7h-106l-93 -325h-103zM530 772l135 158h141l-179 -158h-97z" />
    <glyph glyph-name="uni040D" unicode="&#x40d;" horiz-adv-x="960" 
d="M44 0l210 724h100l-172 -592l674 592h117l-210 -724h-100l172 591l-674 -591h-117zM587 772l-101 158h121l63 -158h-83z" />
    <glyph glyph-name="uni040E" unicode="&#x40e;" horiz-adv-x="728" 
d="M140 -12q-59 0 -100 16l24 81q28 -11 70 -11q61 0 98.5 25.5t92.5 91.5l-194 533h112l156 -449l336 449h122l-436 -569q-66 -86 -133 -126.5t-148 -40.5zM494 765q-64 0 -100 31.5t-36 85.5q0 24 7 48h68q-3 -16 -3 -32q0 -57 71 -57q97 0 131 89h70q-23 -77 -77 -121
t-131 -44z" />
    <glyph glyph-name="uni040F" unicode="&#x40f;" horiz-adv-x="872" 
d="M261 -178l51 178h-268l210 724h102l-186 -640h427l186 640h102l-210 -724h-269l-51 -178h-94z" />
    <glyph glyph-name="uni0410" unicode="&#x410;" horiz-adv-x="853" 
d="M-67 0l560 724h116l141 -724h-103l-35 179h-423l-138 -179h-118zM530 635l-281 -372h348z" />
    <glyph glyph-name="uni0411" unicode="&#x411;" 
d="M44 0l210 724h546l-24 -84h-445l-66 -229h197q120 0 184.5 -50.5t64.5 -126.5q0 -81 -48 -135.5t-120.5 -76.5t-166.5 -22h-332zM439 328h-198l-71 -245h203q46 0 81.5 5t72 19.5t56.5 45t20 75.5t-39 72.5t-125 27.5z" />
    <glyph glyph-name="uni0412" unicode="&#x412;" horiz-adv-x="802" 
d="M44 0l207 724h233q127 0 200.5 -43.5t73.5 -128.5q0 -72 -46.5 -119t-126.5 -68q124 -46 124 -150q0 -113 -92.5 -164t-274.5 -51h-298zM416 328h-177l-70 -245h177q127 0 193 29t66 101q0 56 -49 85.5t-140 29.5zM461 641h-132l-67 -233h146q120 0 182 28.5t62 102.5
q0 57 -47 79.5t-144 22.5z" />
    <glyph glyph-name="uni0413" unicode="&#x413;" horiz-adv-x="662" 
d="M44 0l210 724h511l-24 -84h-410l-185 -640h-102z" />
    <glyph glyph-name="uni0414" unicode="&#x414;" horiz-adv-x="918" 
d="M23 0l-49 -168h-94l72 252h44q71 0 128 57t116.5 196t130.5 387h535l-186 -640h121l-73 -252h-94l49 168h-700zM292 225q-53 -94 -117 -141h443l161 556h-328q-86 -282 -159 -415z" />
    <glyph glyph-name="uni0415" unicode="&#x415;" horiz-adv-x="772" 
d="M44 0l207 724h561l-24 -84h-459l-65 -226h400l-24 -84h-400l-70 -246h463l-24 -84h-565z" />
    <glyph glyph-name="uni0416" unicode="&#x416;" horiz-adv-x="1222" 
d="M476 0l93 325h-53q-44 0 -65.5 -7t-48.5 -31l-329 -287h-145l361 309q52 43 94 58q-32 17 -55 57l-175 300h113l159 -279q14 -24 31 -31t61 -7h75l91 317h103l-91 -317h52q44 0 65.5 7t48.5 31l319 279h136l-347 -300q-46 -41 -87 -57q35 -17 60 -58l185 -309h-122
l-165 287q-14 24 -31 31t-61 7h-76l-93 -325h-103z" />
    <glyph glyph-name="uni0417" unicode="&#x417;" horiz-adv-x="702" 
d="M242 -12q-154 0 -256 49l23 81q134 -44 241 -44q106 0 174.5 35t68.5 103q0 56 -48 87t-140 31h-87l23 81h83q57 0 105.5 12.5t85 46t36.5 83.5q0 51 -44 74t-114 23q-132 0 -248 -42l25 85q111 43 238 43q112 0 181 -46t69 -124q0 -76 -45 -126t-125 -72
q112 -43 112 -151q0 -103 -93 -166t-265 -63z" />
    <glyph glyph-name="uni0418" unicode="&#x418;" horiz-adv-x="960" 
d="M44 0l210 724h100l-172 -592l674 592h117l-210 -724h-100l172 591l-674 -591h-117z" />
    <glyph glyph-name="uni0419" unicode="&#x419;" horiz-adv-x="960" 
d="M44 0l210 724h100l-172 -592l674 592h117l-210 -724h-100l172 591l-674 -591h-117zM623 765q-64 0 -100 31.5t-36 85.5q0 24 7 48h68q-3 -16 -3 -32q0 -57 71 -57q97 0 131 89h70q-23 -77 -77 -121t-131 -44z" />
    <glyph glyph-name="uni041A" unicode="&#x41a;" horiz-adv-x="845" 
d="M44 0l207 724h103l-91 -317h82q42 0 61.5 7t48.5 31l339 279h140l-378 -308q-45 -36 -79 -53q39 -17 69 -63l199 -300h-121l-185 287q-15 24 -33.5 31t-59.5 7h-106l-93 -325h-103z" />
    <glyph glyph-name="uni041B" unicode="&#x41b;" horiz-adv-x="917" 
d="M618 0l185 640h-347q-65 -212 -115 -340q-17 -42 -26 -64t-28 -60.5t-34 -60t-39.5 -49.5t-49.5 -42.5t-59 -25t-72 -10.5q-66 0 -98 16l21 76q22 -8 67 -8q42 0 76 19.5t66 61.5t65 121.5t67.5 184.5t80.5 265h552l-210 -724h-102z" />
    <glyph glyph-name="uni041C" unicode="&#x41c;" horiz-adv-x="1045" 
d="M44 0l210 724h98l175 -414l414 414h117l-210 -724h-99l170 584l-385 -384h-58l-163 384l-170 -584h-99z" />
    <glyph glyph-name="uni041D" unicode="&#x41d;" horiz-adv-x="912" 
d="M613 0l93 321h-467l-93 -321h-102l210 724h102l-93 -319h467l93 319h102l-210 -724h-102z" />
    <glyph glyph-name="uni041E" unicode="&#x41e;" horiz-adv-x="928" 
d="M416 -12q-86 0 -151.5 24.5t-104 67t-58 93t-19.5 107.5q0 189 130.5 322.5t337.5 133.5q85 0 151 -24.5t104.5 -67t58 -93t19.5 -107.5q0 -189 -130.5 -322.5t-337.5 -133.5zM424 70q85 0 155 33t112.5 87t65 117t22.5 128q0 101 -58.5 160t-178.5 59q-85 0 -154.5 -33
t-112 -87t-65 -117.5t-22.5 -127.5q0 -101 58 -160t178 -59z" />
    <glyph glyph-name="uni041F" unicode="&#x41f;" horiz-adv-x="892" 
d="M593 0l185 640h-447l-185 -640h-102l210 724h651l-210 -724h-102z" />
    <glyph glyph-name="uni0420" unicode="&#x420;" horiz-adv-x="767" 
d="M44 0l210 724h268q127 0 194 -54t67 -130q0 -72 -29.5 -125.5t-82 -84.5t-116.5 -45.5t-140 -14.5h-192l-77 -270h-102zM487 640h-157l-82 -286h163q267 0 267 176q0 50 -47 80t-144 30z" />
    <glyph glyph-name="uni0421" unicode="&#x421;" horiz-adv-x="768" 
d="M404 -12q-149 0 -235 83t-86 215q0 190 141.5 320t347.5 130q144 0 221 -39l-24 -82q-76 36 -198 36q-152 0 -267.5 -99.5t-115.5 -255.5q0 -224 243 -224q113 0 216 35l-26 -87q-78 -32 -217 -32z" />
    <glyph glyph-name="uni0422" unicode="&#x422;" horiz-adv-x="755" 
d="M142 640l24 84h692l-24 -84h-296l-185 -640h-102l185 640h-294z" />
    <glyph glyph-name="uni0423" unicode="&#x423;" horiz-adv-x="728" 
d="M140 -12q-59 0 -100 16l24 81q28 -11 70 -11q61 0 98.5 25.5t92.5 91.5l-194 533h112l156 -449l336 449h122l-436 -569q-66 -86 -133 -126.5t-148 -40.5z" />
    <glyph glyph-name="uni0424" unicode="&#x424;" horiz-adv-x="1063" 
d="M407 0l22 76q-155 5 -252 68t-97 171q0 75 29.5 134.5t77.5 97t116 62t139 34.5t152 11l20 70h99l-20 -71q153 -5 249.5 -67t96.5 -170q0 -75 -30.5 -134.5t-79.5 -96.5t-117.5 -62t-138 -35.5t-146.5 -11.5l-21 -76h-99zM185 323q0 -55 38 -93t96 -54.5t133 -18.5
l119 416q-74 -1 -137 -12.5t-122 -38t-93 -77.5t-34 -122zM934 407q0 80 -74.5 121t-190.5 44l-118 -415q58 1 108.5 8t102.5 24.5t89 44.5t60 71.5t23 101.5z" />
    <glyph glyph-name="uni0425" unicode="&#x425;" horiz-adv-x="793" 
d="M-60 0l420 378l-189 346h111l147 -281l303 281h134l-394 -356l214 -368h-113l-169 304l-331 -304h-133z" />
    <glyph glyph-name="uni0426" unicode="&#x426;" horiz-adv-x="897" 
d="M44 0l210 724h102l-186 -640h427l186 640h102l-186 -640h121l-76 -262h-94l52 178h-658z" />
    <glyph glyph-name="uni0427" unicode="&#x427;" horiz-adv-x="806" 
d="M507 0l80 277q-102 -34 -228 -34q-101 0 -161 43.5t-60 128.5q0 35 14 85l65 224h102l-64 -221q-11 -36 -11 -78q0 -98 150 -98q112 0 216 30l107 367h102l-210 -724h-102z" />
    <glyph glyph-name="uni0428" unicode="&#x428;" horiz-adv-x="1301" 
d="M44 0l210 724h102l-186 -640h377l186 640h102l-186 -640h377l186 640h102l-210 -724h-1060z" />
    <glyph glyph-name="uni0429" unicode="&#x429;" horiz-adv-x="1326" 
d="M44 0l210 724h102l-186 -640h377l186 640h102l-186 -640h377l186 640h102l-186 -640h121l-76 -262h-94l52 178h-1087z" />
    <glyph glyph-name="uni042A" unicode="&#x42a;" horiz-adv-x="1006" 
d="M142 640l24 84h387l-81 -279h203q127 0 198 -53t71 -139q0 -253 -358 -253h-345l185 640h-284zM666 362h-218l-81 -279h224q41 0 72.5 3t65.5 13t56 27.5t36.5 47.5t14.5 71q0 52 -40.5 84.5t-129.5 32.5z" />
    <glyph glyph-name="uni042B" unicode="&#x42b;" horiz-adv-x="1101" 
d="M44 0l210 724h102l-81 -279h183q127 0 198 -53t71 -139q0 -253 -358 -253h-325zM449 362h-198l-81 -279h204q41 0 72.5 3t65.5 13t56 27.5t36.5 47.5t14.5 71q0 52 -40.5 84.5t-129.5 32.5zM802 0l210 724h102l-210 -724h-102z" />
    <glyph glyph-name="uni042C" unicode="&#x42c;" horiz-adv-x="809" 
d="M44 0l210 724h102l-81 -279h203q127 0 198 -53t71 -139q0 -253 -358 -253h-345zM469 362h-218l-81 -279h224q41 0 72.5 3t65.5 13t56 27.5t36.5 47.5t14.5 71q0 52 -40.5 84.5t-129.5 32.5z" />
    <glyph glyph-name="uni042D" unicode="&#x42d;" horiz-adv-x="768" 
d="M192 321l24 84h405q0 3 0.5 11t0.5 12q0 224 -243 224q-113 0 -216 -35l26 87q78 32 217 32q149 0 235 -83t86 -215q0 -190 -141.5 -320t-347.5 -130q-144 0 -221 39l24 82q76 -36 198 -36q123 0 226 67.5t140 180.5h-413z" />
    <glyph glyph-name="uni042E" unicode="&#x42e;" horiz-adv-x="1238" 
d="M44 0l210 724h102l-93 -319h176q39 145 156 238t281 93q82 0 145 -24.5t99.5 -67t55 -93t18.5 -107.5q0 -123 -55.5 -226.5t-160 -166.5t-237.5 -63q-82 0 -145 24.5t-99.5 67t-55 93t-18.5 107.5q0 13 2 41h-186l-93 -321h-102zM749 70q68 0 125 22t96 58.5t66 84
t39.5 98.5t12.5 102q0 101 -54.5 160t-166.5 59q-68 0 -125 -22t-96 -58.5t-66 -84t-39.5 -98.5t-12.5 -102q0 -101 54.5 -160t166.5 -59z" />
    <glyph glyph-name="uni042F" unicode="&#x42f;" horiz-adv-x="807" 
d="M508 0l86 298h-80q-43 0 -70.5 -9.5t-56.5 -33.5l-300 -255h-141l320 271q32 27 69 38q-81 15 -127.5 58.5t-46.5 117.5q0 117 97.5 178t281.5 61h280l-210 -724h-102zM266 492q0 -61 49.5 -86.5t144.5 -25.5h158l75 260h-166q-261 0 -261 -148z" />
    <glyph glyph-name="uni0430" unicode="&#x430;" horiz-adv-x="774" 
d="M509 0v49q-81 -61 -195 -61q-109 0 -175 63t-66 162q0 142 101 227t269 85q49 0 102 -13.5t88 -33.5l19 35h82l-149 -513h-76zM349 64q88 0 172 56l86 298q-68 30 -165 30q-116 0 -191.5 -59t-75.5 -166q0 -78 46 -118.5t128 -40.5z" />
    <glyph glyph-name="uni0431" unicode="&#x431;" horiz-adv-x="741" 
d="M349 -12q-128 0 -197 73t-69 191q0 196 96 319.5t295 140.5l276 24l-24 -81l-230 -19q-216 -19 -281 -188q98 61 208 61q120 0 195 -62t75 -161q0 -139 -95.5 -218.5t-248.5 -79.5zM411 433q-121 0 -217 -57q-12 -56 -12 -120q0 -92 45 -142.5t130 -50.5q103 0 168.5 57
t65.5 155q0 69 -48.5 113.5t-131.5 44.5z" />
    <glyph glyph-name="uni0432" unicode="&#x432;" horiz-adv-x="725" 
d="M40 0l149 513h281q89 0 139.5 -31t50.5 -91q0 -100 -116 -133q82 -32 82 -106q0 -80 -64 -116t-193 -36h-329zM410 224h-206l-43 -147h207q76 0 116 17.5t40 60.5q0 69 -114 69zM444 436h-179l-40 -139h188q71 0 108 17.5t37 60.5q0 34 -28 47.5t-86 13.5z" />
    <glyph glyph-name="uni0433" unicode="&#x433;" horiz-adv-x="592" 
d="M40 0l149 513h446l-23 -78h-347l-126 -435h-99z" />
    <glyph glyph-name="uni0434" unicode="&#x434;" horiz-adv-x="797" 
d="M-120 -178l74 256h37q31 0 55.5 9.5t47 35t39.5 55t38 85t37.5 109t42.5 141.5h483l-127 -435h105l-75 -256h-89l51 178h-578l-52 -178h-89zM210 126q-21 -28 -54 -48h352l104 357h-285q-45 -156 -67 -214t-50 -95z" />
    <glyph glyph-name="uni0435" unicode="&#x435;" horiz-adv-x="727" 
d="M351 -12q-123 0 -200.5 63.5t-77.5 172.5q0 131 91 216t245 85q108 0 180 -56t72 -135q0 -52 -17 -98h-471v-6q0 -79 50.5 -120.5t142.5 -41.5q126 0 225 45l-24 -82q-85 -43 -216 -43zM399 449q-83 0 -138.5 -36.5t-76.5 -102.5h381q2 12 2 18q0 51 -49 86t-119 35z" />
    <glyph glyph-name="uni0436" unicode="&#x436;" horiz-adv-x="1052" 
d="M406 0l66 229h-120q-24 -102 -98 -171.5t-184 -69.5q-73 0 -102 19l21 72q30 -15 81 -15q85 0 144.5 71.5t59.5 179.5q0 138 -116 138q-37 0 -65 -15l21 72q30 15 78 15q83 0 127 -59.5t44 -149.5q0 -12 -1 -17h131l62 214h91l-62 -214h119q29 97 101 161.5t178 64.5
q29 0 60 -5.5t42 -13.5l-21 -72q-30 15 -81 15q-85 0 -144.5 -71.5t-59.5 -179.5q0 -138 116 -138q37 0 65 15l-21 -72q-30 -15 -78 -15q-83 0 -127 59.5t-44 149.5q0 21 1 32h-127l-66 -229h-91z" />
    <glyph glyph-name="uni0437" unicode="&#x437;" horiz-adv-x="661" 
d="M247 -12q-76 0 -152 14.5t-109 36.5l22 75q94 -46 229 -46q103 0 161 22t58 64q0 65 -167 65h-121l22 76h105q89 0 145.5 24t56.5 63q0 64 -146 64q-130 0 -243 -40l21 76q42 19 108.5 31t119.5 12q103 0 173.5 -35.5t70.5 -96.5q0 -100 -142 -137q100 -27 100 -102
q0 -83 -89 -124.5t-223 -41.5z" />
    <glyph glyph-name="uni0438" unicode="&#x438;" horiz-adv-x="758" 
d="M493 0v53q-80 -65 -198 -65q-88 0 -149 38t-61 114q0 27 9 60l91 313h99l-89 -306q-8 -29 -8 -48q0 -93 137 -93q101 0 183 61l112 386h99l-149 -513h-76z" />
    <glyph glyph-name="uni0439" unicode="&#x439;" horiz-adv-x="758" 
d="M493 0v53q-80 -65 -198 -65q-88 0 -149 38t-61 114q0 27 9 60l91 313h99l-89 -306q-8 -29 -8 -48q0 -93 137 -93q101 0 183 61l112 386h99l-149 -513h-76zM459 581q-64 0 -100 31.5t-36 85.5q0 24 7 48h68q-3 -17 -3 -32q0 -57 71 -57q97 0 131 89h70q-23 -77 -77 -121
t-131 -44z" />
    <glyph glyph-name="uni043A" unicode="&#x43a;" horiz-adv-x="678" 
d="M40 0l147 513h99l-62 -216h34q35 0 54 7t47 28l242 181h136l-274 -205q-45 -34 -85 -50q34 -13 61 -47l161 -211h-118l-142 187q-15 20 -36 27.5t-58 7.5h-44l-63 -222h-99z" />
    <glyph glyph-name="uni043B" unicode="&#x43b;" horiz-adv-x="797" 
d="M509 0l126 435h-295q-73 -246 -120 -326q-36 -60 -84 -90.5t-124 -30.5q-48 0 -70 11l22 75q16 -4 37 -4q27 0 49 7.5t40.5 19.5t35.5 40t31.5 56t32.5 82t33.5 104t40.5 134h493l-149 -513h-99z" />
    <glyph glyph-name="uni043C" unicode="&#x43c;" horiz-adv-x="963" 
d="M40 0l149 513h99l179 -296l350 296h106l-149 -513h-95l110 380l-304 -256h-61l-172 280l-117 -404h-95z" />
    <glyph glyph-name="uni043D" unicode="&#x43d;" horiz-adv-x="819" 
d="M531 0l67 230h-392l-67 -230h-99l149 513h99l-60 -205h392l60 205h99l-149 -513h-99z" />
    <glyph glyph-name="uni043E" unicode="&#x43e;" horiz-adv-x="771" 
d="M351 -12q-128 0 -203 66.5t-75 165.5q0 143 96.5 224t250.5 81q128 0 203 -66.5t75 -165.5q0 -143 -96.5 -224t-250.5 -81zM359 63q104 0 170.5 58.5t66.5 161.5q0 77 -49.5 122t-134.5 45q-104 0 -170.5 -58.5t-66.5 -161.5q0 -77 49.5 -122t134.5 -45z" />
    <glyph glyph-name="uni043F" unicode="&#x43f;" horiz-adv-x="769" 
d="M40 0l149 513h76v-55q82 67 203 67q89 0 152 -39t63 -115q0 -27 -9 -58l-91 -313h-99l89 306q7 24 7 46q0 95 -144 95q-102 0 -185 -62l-112 -385h-99z" />
    <glyph glyph-name="uni0440" unicode="&#x440;" horiz-adv-x="774" 
d="M-21 -211l210 724h77v-51q83 63 194 63q112 0 176.5 -62t64.5 -158q0 -145 -102.5 -231t-267.5 -86q-104 0 -183 42l-70 -241h-99zM425 448q-86 0 -173 -57l-86 -297q65 -30 166 -30q113 0 190 60.5t77 170.5q0 75 -44.5 114t-129.5 39z" />
    <glyph glyph-name="uni0441" unicode="&#x441;" horiz-adv-x="628" 
d="M321 -12q-112 0 -180 63t-68 159q0 143 106 229t271 86q94 0 162 -33l-23 -75q-62 27 -148 27q-115 0 -190.5 -58t-75.5 -164q0 -77 47 -117t129 -40q79 0 162 32l-24 -80q-58 -29 -168 -29z" />
    <glyph glyph-name="uni0442" unicode="&#x442;" horiz-adv-x="619" 
d="M75 435l23 78h557l-23 -78h-228l-126 -435h-99l126 435h-230z" />
    <glyph glyph-name="uni0443" unicode="&#x443;" horiz-adv-x="642" 
d="M-67 -223q-36 0 -65 11l24 78q26 -7 49 -7q65 0 114.5 30t105.5 98l25 31l-102 495h99l76 -410l313 410h114l-424 -538q-83 -106 -153.5 -152t-175.5 -46z" />
    <glyph glyph-name="uni0444" unicode="&#x444;" horiz-adv-x="1110" 
d="M370 -211l72 249q-73 -50 -161 -50q-93 0 -149.5 52.5t-56.5 148.5q0 135 92 235.5t234 100.5q110 0 169 -47l72 246h99l-72 -248q73 49 160 49q93 0 149.5 -52.5t56.5 -148.5q0 -135 -92 -235.5t-234 -100.5q-111 0 -169 46l-71 -245h-99zM306 62q75 0 157 48l88 300
q-58 39 -143 39q-95 0 -161.5 -73.5t-66.5 -176.5q0 -70 35.5 -103.5t90.5 -33.5zM804 451q-74 0 -156 -48l-88 -302q57 -37 142 -37q95 0 161.5 73.5t66.5 176.5q0 70 -35.5 103.5t-90.5 33.5z" />
    <glyph glyph-name="uni0445" unicode="&#x445;" horiz-adv-x="657" 
d="M-44 0l314 267l-157 246h112l113 -193l220 193h129l-303 -257l166 -256h-111l-124 203l-230 -203h-129z" />
    <glyph glyph-name="uni0446" unicode="&#x446;" horiz-adv-x="780" 
d="M524 -168l46 161q-29 3 -46.5 23.5t-21.5 44.5q-82 -73 -207 -73q-88 0 -149 38t-61 114q0 27 9 60l91 313h99l-89 -306q-8 -29 -8 -48q0 -93 137 -93q101 0 183 61l112 386h99l-114 -391q-3 -10 -3 -19q0 -36 80 -36l-68 -235h-89z" />
    <glyph glyph-name="uni0447" unicode="&#x447;" horiz-adv-x="743" 
d="M455 0l54 188q-104 -40 -211 -40q-98 0 -151.5 38.5t-53.5 114.5q0 34 11 70l41 142h99l-40 -139q-10 -37 -10 -57q0 -90 140 -90q107 0 198 40l72 246h99l-149 -513h-99z" />
    <glyph glyph-name="uni0448" unicode="&#x448;" horiz-adv-x="1192" 
d="M729 -12q-65 0 -117.5 21.5t-76.5 64.5q-91 -86 -240 -86q-88 0 -149 38t-61 114q0 27 9 60l91 313h99l-89 -306q-8 -29 -8 -48q0 -93 137 -93q109 0 195 71v3q0 27 9 60l91 313h99l-89 -306q-8 -29 -8 -48q0 -93 137 -93q101 0 183 61l112 386h99l-149 -513h-76v53
q-80 -65 -198 -65z" />
    <glyph glyph-name="uni0449" unicode="&#x449;" horiz-adv-x="1214" 
d="M729 -12q-65 0 -117.5 21.5t-76.5 64.5q-91 -86 -240 -86q-88 0 -149 38t-61 114q0 27 9 60l91 313h99l-89 -306q-8 -29 -8 -48q0 -93 137 -93q109 0 195 71v3q0 27 9 60l91 313h99l-89 -306q-8 -29 -8 -48q0 -93 137 -93q101 0 183 61l112 386h99l-114 -391
q-3 -10 -3 -19q0 -36 80 -36l-68 -235h-89l46 161q-29 3 -46.5 23.5t-21.5 44.5q-82 -73 -207 -73z" />
    <glyph glyph-name="uni044A" unicode="&#x44a;" horiz-adv-x="859" 
d="M75 435l23 78h330l-52 -179h202q103 0 153 -38.5t50 -105.5q0 -190 -273 -190h-328l126 435h-231zM570 256h-217l-52 -178h222q33 0 57.5 4t48.5 14t37 32.5t13 56.5q0 71 -109 71z" />
    <glyph glyph-name="uni044B" unicode="&#x44b;" horiz-adv-x="972" 
d="M40 0l149 513h99l-52 -179h182q103 0 153 -38.5t50 -105.5q0 -190 -273 -190h-308zM410 256h-197l-52 -178h202q33 0 57.5 4t48.5 14t37 32.5t13 56.5q0 71 -109 71zM684 0l149 513h99l-149 -513h-99z" />
    <glyph glyph-name="uni044C" unicode="&#x44c;" horiz-adv-x="719" 
d="M40 0l149 513h99l-52 -179h202q103 0 153 -38.5t50 -105.5q0 -190 -273 -190h-328zM430 256h-217l-52 -178h222q33 0 57.5 4t48.5 14t37 32.5t13 56.5q0 71 -109 71z" />
    <glyph glyph-name="uni044D" unicode="&#x44d;" horiz-adv-x="648" 
d="M112 223l22 76h340q-3 73 -52.5 111t-134.5 38q-89 0 -172 -32l24 80q58 29 178 29q117 0 187.5 -63t70.5 -159q0 -143 -108.5 -229t-278.5 -86q-104 0 -172 33l23 75q62 -27 158 -27q101 0 173.5 39.5t94.5 114.5h-353z" />
    <glyph glyph-name="uni044E" unicode="&#x44e;" horiz-adv-x="1061" 
d="M40 0l149 513h99l-60 -205h162q27 103 115.5 160t212.5 57q125 0 197.5 -66.5t72.5 -165.5q0 -143 -94.5 -224t-244.5 -81q-125 0 -197.5 66.5t-72.5 165.5v10h-173l-67 -230h-99zM657 63q100 0 164.5 58.5t64.5 161.5q0 77 -47 122t-129 45q-100 0 -164.5 -58.5
t-64.5 -161.5q0 -77 47 -122t129 -45z" />
    <glyph glyph-name="uni044F" unicode="&#x44f;" horiz-adv-x="692" 
d="M404 0l58 201h-45q-65 0 -110 -35l-213 -166h-129l222 175q32 25 60 36q-131 22 -131 129q0 85 70.5 129t205.5 44h260l-149 -513h-99zM218 344q0 -68 120 -68h146l46 160h-151q-161 0 -161 -92z" />
    <glyph glyph-name="uni0450" unicode="&#x450;" horiz-adv-x="727" 
d="M351 -12q-123 0 -200.5 63.5t-77.5 172.5q0 131 91 216t245 85q108 0 180 -56t72 -135q0 -52 -17 -98h-471v-6q0 -79 50.5 -120.5t142.5 -41.5q126 0 225 45l-24 -82q-85 -43 -216 -43zM399 449q-83 0 -138.5 -36.5t-76.5 -102.5h381q2 12 2 18q0 51 -49 86t-119 35z
M386 588l-101 158h121l63 -158h-83z" />
    <glyph glyph-name="uni0451" unicode="&#x451;" horiz-adv-x="727" 
d="M351 -12q-123 0 -200.5 63.5t-77.5 172.5q0 131 91 216t245 85q108 0 180 -56t72 -135q0 -52 -17 -98h-471v-6q0 -79 50.5 -120.5t142.5 -41.5q126 0 225 45l-24 -82q-85 -43 -216 -43zM399 449q-83 0 -138.5 -36.5t-76.5 -102.5h381q2 12 2 18q0 51 -49 86t-119 35z
M249 617l30 101h109l-30 -101h-109zM503 617l30 101h109l-30 -101h-109z" />
    <glyph glyph-name="uni0452" unicode="&#x452;" horiz-adv-x="744" 
d="M134 589l22 75h76l18 60h99l-18 -60h113l-22 -75h-112l-38 -130q81 56 185 56q103 0 157 -58t54 -166q0 -71 -16.5 -142.5t-51.5 -139t-84.5 -119t-121.5 -82.5t-156 -31q-64 0 -96 16l23 73q27 -11 63 -11q84 0 152 42.5t107.5 109t60 138.5t20.5 139q0 74 -38 114
t-108 40q-86 0 -173 -57l-110 -381h-99l171 589h-77z" />
    <glyph glyph-name="uni0453" unicode="&#x453;" horiz-adv-x="592" 
d="M40 0l149 513h446l-23 -78h-347l-126 -435h-99zM383 588l135 158h141l-179 -158h-97z" />
    <glyph glyph-name="uni0454" unicode="&#x454;" horiz-adv-x="648" 
d="M331 -13q-117 0 -187.5 63t-70.5 159q0 143 108.5 229t278.5 86q104 0 172 -33l-23 -75q-62 27 -158 27q-98 0 -170 -37.5t-96 -108.5h346l-22 -76h-335q0 -78 49.5 -117.5t137.5 -39.5q89 0 172 32l-24 -80q-58 -29 -178 -29z" />
    <glyph glyph-name="uni0455" unicode="&#x455;" horiz-adv-x="641" 
d="M237 -12q-122 0 -216 43l22 72q93 -37 201 -37q197 0 197 80q0 25 -31.5 40.5t-104.5 33.5q-98 25 -144 57t-46 81q0 86 74.5 126.5t194.5 40.5q64 0 125 -12.5t94 -31.5l-22 -72q-87 38 -204 38q-72 0 -116.5 -18.5t-44.5 -57.5q0 -26 32.5 -41.5t103.5 -32.5
q98 -25 144 -57t46 -81q0 -61 -44 -100.5t-109.5 -55t-151.5 -15.5z" />
    <glyph glyph-name="uni0456" unicode="&#x456;" horiz-adv-x="328" 
d="M40 0l149 513h99l-149 -513h-99zM219 615l31 109h99l-31 -109h-99z" />
    <glyph glyph-name="uni0457" unicode="&#x457;" horiz-adv-x="328" 
d="M40 0l149 513h99l-149 -513h-99zM82 617l30 101h109l-30 -101h-109zM336 617l30 101h109l-30 -101h-109z" />
    <glyph glyph-name="uni0458" unicode="&#x458;" horiz-adv-x="328" 
d="M-106 -223q-22 0 -53 6t-41 12l23 74q30 -14 74 -14q64 0 93 36.5t56 128.5l143 493h99l-151 -520q-36 -123 -86 -169.5t-157 -46.5zM219 615l31 109h99l-31 -109h-99z" />
    <glyph glyph-name="uni0459" unicode="&#x459;" horiz-adv-x="1153" 
d="M12 -12q-48 0 -70 11l22 75q16 -4 37 -4q27 0 49 7.5t40.5 19.5t35.5 40t31.5 56t32.5 82t33.5 104t40.5 134h473l-52 -179h187q103 0 153 -38.5t50 -105.5q0 -190 -273 -190h-313l126 435h-275q-73 -246 -120 -326q-36 -60 -84 -90.5t-124 -30.5zM864 256h-202l-52 -178
h207q33 0 57.5 4t48.5 14t37 32.5t13 56.5q0 71 -109 71z" />
    <glyph glyph-name="uni045A" unicode="&#x45a;" horiz-adv-x="1168" 
d="M40 0l149 513h99l-60 -205h365l60 205h99l-52 -179h187q103 0 153 -38.5t50 -105.5q0 -190 -273 -190h-313l67 230h-365l-67 -230h-99zM879 256h-202l-52 -178h207q33 0 57.5 4t48.5 14t37 32.5t13 56.5q0 71 -109 71z" />
    <glyph glyph-name="uni045B" unicode="&#x45b;" horiz-adv-x="769" 
d="M134 589l22 75h76l18 60h99l-18 -60h113l-22 -75h-113l-36 -126q81 62 195 62q89 0 152 -39t63 -115q0 -27 -9 -58l-91 -313h-99l89 306q7 24 7 46q0 95 -144 95q-101 0 -186 -62l-111 -385h-99l171 589h-77z" />
    <glyph glyph-name="uni045C" unicode="&#x45c;" horiz-adv-x="678" 
d="M40 0l147 513h99l-62 -216h34q35 0 54 7t47 28l242 181h136l-274 -205q-45 -34 -85 -50q34 -13 61 -47l161 -211h-118l-142 187q-15 20 -36 27.5t-58 7.5h-44l-63 -222h-99zM403 588l135 158h141l-179 -158h-97z" />
    <glyph glyph-name="uni045D" unicode="&#x45d;" horiz-adv-x="758" 
d="M493 0v53q-80 -65 -198 -65q-88 0 -149 38t-61 114q0 27 9 60l91 313h99l-89 -306q-8 -29 -8 -48q0 -93 137 -93q101 0 183 61l112 386h99l-149 -513h-76zM432 588l-101 158h121l63 -158h-83z" />
    <glyph glyph-name="uni045E" unicode="&#x45e;" horiz-adv-x="642" 
d="M-67 -223q-36 0 -65 11l24 78q26 -7 49 -7q65 0 114.5 30t105.5 98l25 31l-102 495h99l76 -410l313 410h114l-424 -538q-83 -106 -153.5 -152t-175.5 -46zM382 581q-64 0 -100 31.5t-36 85.5q0 24 7 48h68q-3 -17 -3 -32q0 -57 71 -57q97 0 131 89h70q-23 -77 -77 -121
t-131 -44z" />
    <glyph glyph-name="uni045F" unicode="&#x45f;" horiz-adv-x="758" 
d="M493 0v53q-65 -51 -148 -62l-46 -159h-89l45 158q-75 8 -122.5 45.5t-47.5 104.5q0 27 9 60l91 313h99l-89 -306q-8 -29 -8 -48q0 -93 137 -93q101 0 183 61l112 386h99l-149 -513h-76z" />
    <glyph glyph-name="uni0472" unicode="&#x472;" horiz-adv-x="928" 
d="M416 -12q-86 0 -151.5 24.5t-104 67t-58 93t-19.5 107.5q0 189 130.5 322.5t337.5 133.5q85 0 151 -24.5t104.5 -67t58 -93t19.5 -107.5q0 -189 -130.5 -322.5t-337.5 -133.5zM424 70q131 0 217.5 71.5t119.5 179.5h-572q-1 -11 -1 -32q0 -101 58 -160t178 -59zM542 654
q-129 0 -215.5 -71t-120.5 -178h571q2 20 2 30q0 101 -58.5 160t-178.5 59z" />
    <glyph glyph-name="uni0473" unicode="&#x473;" horiz-adv-x="771" 
d="M351 -12q-128 0 -203 66.5t-75 165.5q0 143 96.5 224t250.5 81q128 0 203 -66.5t75 -165.5q0 -143 -96.5 -224t-250.5 -81zM359 63q87 0 149.5 42t80.5 119h-414q1 -75 50.5 -118t133.5 -43zM412 450q-85 0 -146 -40t-82 -112h411q-5 71 -53.5 111.5t-129.5 40.5z" />
    <glyph glyph-name="uni0490" unicode="&#x490;" horiz-adv-x="662" 
d="M44 0l210 724h417l48 168h94l-72 -252h-410l-185 -640h-102z" />
    <glyph glyph-name="uni0491" unicode="&#x491;" horiz-adv-x="592" 
d="M686 691l-74 -256h-347l-126 -435h-99l149 513h356l52 178h89z" />
    <glyph glyph-name="uni0492" unicode="&#x492;" horiz-adv-x="670" 
d="M80 325l21 75h67l94 324h511l-24 -84h-410l-70 -240h192l-21 -75h-192l-94 -325h-102l94 325h-66z" />
    <glyph glyph-name="uni0493" unicode="&#x493;" horiz-adv-x="597" 
d="M24 199l21 70h78l71 244h446l-23 -78h-347l-48 -166h149l-21 -70h-149l-57 -199h-99l58 199h-79z" />
    <glyph glyph-name="uni0496" unicode="&#x496;" horiz-adv-x="1239" 
d="M476 0l93 325h-53q-44 0 -65.5 -7t-48.5 -31l-329 -287h-145l361 309q52 43 94 58q-32 17 -55 57l-175 300h113l159 -279q14 -24 31 -31t61 -7h75l91 317h103l-91 -317h52q44 0 65.5 7t48.5 31l319 279h136l-347 -300q-46 -41 -87 -57q35 -17 60 -58l134 -225h93
l-76 -262h-94l52 178h-46l-165 287q-14 24 -31 31t-61 7h-76l-93 -325h-103z" />
    <glyph glyph-name="uni0497" unicode="&#x497;" horiz-adv-x="1052" 
d="M888 -168h-89l44 157q-75 6 -114.5 64.5t-39.5 143.5q0 21 1 32h-127l-66 -229h-91l66 229h-120q-24 -102 -98 -171.5t-184 -69.5q-73 0 -102 19l21 72q30 -15 81 -15q85 0 144.5 71.5t59.5 179.5q0 138 -116 138q-37 0 -65 -15l21 72q30 15 78 15q83 0 127 -59.5
t44 -149.5q0 -12 -1 -17h131l62 214h91l-62 -214h119q29 97 101 161.5t178 64.5q29 0 60 -5.5t42 -13.5l-21 -72q-30 15 -81 15q-85 0 -144.5 -71.5t-59.5 -179.5q0 -138 116 -138q37 0 65 15z" />
    <glyph glyph-name="uni0498" unicode="&#x498;" horiz-adv-x="702" 
d="M224 -178h-94l49 169q-120 10 -193 46l23 81q134 -44 241 -44q106 0 174.5 35t68.5 103q0 56 -48 87t-140 31h-87l23 81h83q57 0 105.5 12.5t85 46t36.5 83.5q0 51 -44 74t-114 23q-132 0 -248 -42l25 85q111 43 238 43q112 0 181 -46t69 -124q0 -76 -45 -126t-125 -72
q112 -43 112 -151q0 -98 -85 -160t-243 -68z" />
    <glyph glyph-name="uni0499" unicode="&#x499;" horiz-adv-x="661" 
d="M229 -168h-89l45 159q-143 10 -199 48l22 75q94 -46 229 -46q103 0 161 22t58 64q0 65 -167 65h-121l22 76h105q89 0 145.5 24t56.5 63q0 64 -146 64q-130 0 -243 -40l21 76q42 19 108.5 31t119.5 12q103 0 173.5 -35.5t70.5 -96.5q0 -100 -142 -137q100 -27 100 -102
q0 -79 -80.5 -120t-204.5 -45z" />
    <glyph glyph-name="uni049A" unicode="&#x49a;" horiz-adv-x="860" 
d="M44 0l207 724h103l-91 -317h82q42 0 61.5 7t48.5 31l339 279h140l-378 -308q-45 -36 -79 -53q39 -17 69 -63l143 -216h94l-76 -262h-94l51 178h-40l-185 287q-15 24 -33.5 31t-59.5 7h-106l-93 -325h-103z" />
    <glyph glyph-name="uni049B" unicode="&#x49b;" horiz-adv-x="696" 
d="M40 0l147 513h99l-62 -216h34q35 0 54 7t47 28l242 181h136l-274 -205q-45 -34 -85 -50q34 -13 61 -47l110 -144h89l-68 -235h-89l48 168h-47l-142 187q-15 20 -36 27.5t-58 7.5h-44l-63 -222h-99z" />
    <glyph glyph-name="uni049C" unicode="&#x49c;" horiz-adv-x="845" 
d="M44 0l207 724h103l-91 -317h80l36 124h95l-36 -124q34 0 49.5 6.5t39.5 31.5l273 279h134l-312 -308q-38 -37 -60 -50q28 -18 50 -66l133 -300h-115l-119 287q-10 25 -29 31.5t-64 6.5h-3l-35 -121h-95l35 121h-80l-93 -325h-103z" />
    <glyph glyph-name="uni049D" unicode="&#x49d;" horiz-adv-x="678" 
d="M40 0l147 513h99l-62 -216h56l31 106h87l-30 -103q19 4 48 32l192 181h129l-224 -205q-35 -33 -69 -50q28 -17 45 -47l111 -211h-111l-92 187q-9 17 -20 24.5t-31 9.5l-32 -111h-87l32 112h-57l-63 -222h-99z" />
    <glyph glyph-name="uni04A0" unicode="&#x4a0;" horiz-adv-x="1044" 
d="M243 0l183 640h-284l24 84h387l-91 -317h82q42 0 61.5 7t48.5 31l339 279h140l-378 -308q-45 -36 -79 -53q39 -17 69 -63l199 -300h-121l-185 287q-15 24 -33.5 31t-59.5 7h-106l-93 -325h-103z" />
    <glyph glyph-name="uni04A1" unicode="&#x4a1;" horiz-adv-x="820" 
d="M182 0l124 435h-231l23 78h330l-62 -216h34q35 0 54 7t47 28l242 181h136l-274 -205q-45 -34 -85 -50q34 -13 61 -47l161 -211h-118l-142 187q-15 20 -36 27.5t-58 7.5h-44l-63 -222h-99z" />
    <glyph glyph-name="uni04A2" unicode="&#x4a2;" horiz-adv-x="937" 
d="M613 0l93 321h-467l-93 -321h-102l210 724h102l-93 -319h467l93 319h102l-186 -640h121l-76 -262h-94l52 178h-129z" />
    <glyph glyph-name="uni04A3" unicode="&#x4a3;" horiz-adv-x="841" 
d="M531 0l67 230h-392l-67 -230h-99l149 513h99l-60 -205h392l60 205h99l-127 -435h115l-72 -248h-89l49 170h-124z" />
    <glyph glyph-name="uni04AA" unicode="&#x4aa;" horiz-adv-x="768" 
d="M403 -178h-94l48 168q-128 13 -201 93.5t-73 202.5q0 190 141.5 320t347.5 130q144 0 221 -39l-24 -82q-76 36 -198 36q-152 0 -267.5 -99.5t-115.5 -255.5q0 -224 243 -224q113 0 216 35l-26 -87q-61 -25 -170 -31z" />
    <glyph glyph-name="uni04AB" unicode="&#x4ab;" horiz-adv-x="628" 
d="M311 -168h-89l45 161q-90 14 -142 73.5t-52 143.5q0 143 106 229t271 86q94 0 162 -33l-23 -75q-62 27 -148 27q-115 0 -190.5 -58t-75.5 -164q0 -77 47 -117t129 -40q79 0 162 32l-24 -80q-42 -21 -133 -28z" />
    <glyph glyph-name="uni04AE" unicode="&#x4ae;" horiz-adv-x="777" 
d="M254 0l78 270l-193 454h111l148 -371l365 371h126l-455 -451l-79 -273h-101z" />
    <glyph glyph-name="uni04AF" unicode="&#x4af;" horiz-adv-x="642" 
d="M226 -211h-99l63 216l-106 508h99l76 -410l313 410h114l-397 -506z" />
    <glyph glyph-name="uni04B0" unicode="&#x4b0;" horiz-adv-x="777" 
d="M47 156l23 81h252l10 33l-193 454h111l148 -371l365 371h126l-455 -451l-11 -36h254l-23 -81h-254l-45 -156h-101l45 156h-252z" />
    <glyph glyph-name="uni04B1" unicode="&#x4b1;" horiz-adv-x="642" 
d="M-45 -56l22 78h209l-102 491h99l76 -410l313 410h114l-386 -491h212l-22 -78h-220l-44 -155h-99l45 155h-217z" />
    <glyph glyph-name="uni04B2" unicode="&#x4b2;" horiz-adv-x="813" 
d="M-60 0l420 378l-189 346h111l147 -281l303 281h134l-394 -356l165 -284h94l-76 -262h-94l52 178h-40l-169 304l-331 -304h-133z" />
    <glyph glyph-name="uni04B3" unicode="&#x4b3;" horiz-adv-x="677" 
d="M-44 0l314 267l-157 246h112l113 -193l220 193h129l-303 -257l122 -189h84l-68 -235h-89l48 168h-42l-124 203l-230 -203h-129z" />
    <glyph glyph-name="uni04B6" unicode="&#x4b6;" horiz-adv-x="831" 
d="M507 0l80 277q-102 -34 -228 -34q-101 0 -161 43.5t-60 128.5q0 35 14 85l65 224h102l-64 -221q-11 -36 -11 -78q0 -98 150 -98q112 0 216 30l107 367h102l-186 -640h121l-76 -262h-94l52 178h-129z" />
    <glyph glyph-name="uni04B7" unicode="&#x4b7;" horiz-adv-x="765" 
d="M455 0l54 188q-104 -40 -211 -40q-98 0 -151.5 38.5t-53.5 114.5q0 34 11 70l41 142h99l-40 -139q-10 -37 -10 -57q0 -90 140 -90q107 0 198 40l72 246h99l-127 -435h115l-72 -248h-89l49 170h-124z" />
    <glyph glyph-name="uni04B8" unicode="&#x4b8;" horiz-adv-x="806" 
d="M396 124h-95l34 119q-91 5 -144 48.5t-53 123.5q0 35 14 85l65 224h102l-64 -221q-11 -36 -11 -78q0 -85 116 -97l35 122h95l-35 -120q89 7 155 27l107 367h102l-210 -724h-102l80 277q-68 -23 -156 -31z" />
    <glyph glyph-name="uni04B9" unicode="&#x4b9;" horiz-adv-x="743" 
d="M334 54h-89l27 95q-179 10 -179 152q0 34 11 70l41 142h99l-40 -139q-10 -37 -10 -57q0 -77 101 -88l30 104h89l-30 -104q77 7 148 38l72 246h99l-149 -513h-99l54 188q-76 -29 -147 -37z" />
    <glyph glyph-name="uni04BA" unicode="&#x4ba;" horiz-adv-x="816" 
d="M356 724l-80 -277q102 34 228 34q101 0 161 -43.5t60 -128.5q0 -35 -14 -85l-65 -224h-102l64 221q11 36 11 78q0 98 -150 98q-112 0 -216 -30l-107 -367h-102l210 724h102z" />
    <glyph glyph-name="uni04BB" unicode="&#x4bb;" horiz-adv-x="769" 
d="M40 0l210 724h99l-76 -261q81 62 195 62q89 0 152 -39t63 -115q0 -27 -9 -58l-91 -313h-99l89 306q7 24 7 46q0 95 -144 95q-101 0 -186 -62l-111 -385h-99z" />
    <glyph glyph-name="uni04C1" unicode="&#x4c1;" horiz-adv-x="1222" 
d="M476 0l93 325h-53q-44 0 -65.5 -7t-48.5 -31l-329 -287h-145l361 309q52 43 94 58q-32 17 -55 57l-175 300h113l159 -279q14 -24 31 -31t61 -7h75l91 317h103l-91 -317h52q44 0 65.5 7t48.5 31l319 279h136l-347 -300q-46 -41 -87 -57q35 -17 60 -58l185 -309h-122
l-165 287q-14 24 -31 31t-61 7h-76l-93 -325h-103zM742 765q-64 0 -100 31.5t-36 85.5q0 24 7 48h68q-3 -16 -3 -32q0 -57 71 -57q97 0 131 89h70q-23 -77 -77 -121t-131 -44z" />
    <glyph glyph-name="uni04C2" unicode="&#x4c2;" horiz-adv-x="1052" 
d="M406 0l66 229h-120q-24 -102 -98 -171.5t-184 -69.5q-73 0 -102 19l21 72q30 -15 81 -15q85 0 144.5 71.5t59.5 179.5q0 138 -116 138q-37 0 -65 -15l21 72q30 15 78 15q83 0 127 -59.5t44 -149.5q0 -12 -1 -17h131l62 214h91l-62 -214h119q29 97 101 161.5t178 64.5
q29 0 60 -5.5t42 -13.5l-21 -72q-30 15 -81 15q-85 0 -144.5 -71.5t-59.5 -179.5q0 -138 116 -138q37 0 65 15l-21 -72q-30 -15 -78 -15q-83 0 -127 59.5t-44 149.5q0 21 1 32h-127l-66 -229h-91zM617 581q-64 0 -100 31.5t-36 85.5q0 24 7 48h68q-3 -17 -3 -32
q0 -57 71 -57q97 0 131 89h70q-23 -77 -77 -121t-131 -44z" />
    <glyph glyph-name="uni04D8" unicode="&#x4d8;" horiz-adv-x="890" 
d="M483 736q162 0 267.5 -90t105.5 -251q0 -174 -118.5 -290.5t-330.5 -116.5q-144 0 -238 77.5t-94 185.5q0 67 18 125h658v12q1 128 -74 195t-208 67q-164 0 -304 -67l29 95q122 58 289 58zM418 71q126 1 208 60.5t113 160.5h-558q-3 -15 -3 -37q0 -76 68 -130.5
t172 -53.5z" />
    <glyph glyph-name="uni04D9" unicode="&#x4d9;" horiz-adv-x="727" 
d="M376 525q123 0 200.5 -63.5t77.5 -172.5q0 -131 -91 -216t-245 -85q-108 0 -180 56t-72 135q0 52 17 98h471v6q0 79 -50.5 120.5t-142.5 41.5q-126 0 -225 -45l24 82q85 43 216 43zM328 64q83 0 138.5 36.5t76.5 102.5h-381q-2 -12 -2 -18q0 -51 49 -86t119 -35z" />
    <glyph glyph-name="uni04E2" unicode="&#x4e2;" horiz-adv-x="960" 
d="M44 0l210 724h100l-172 -592l674 592h117l-210 -724h-100l172 591l-674 -591h-117zM464 806l21 75h337l-21 -75h-337z" />
    <glyph glyph-name="uni04E3" unicode="&#x4e3;" horiz-adv-x="758" 
d="M493 0v53q-80 -65 -198 -65q-88 0 -149 38t-61 114q0 27 9 60l91 313h99l-89 -306q-8 -29 -8 -48q0 -93 137 -93q101 0 183 61l112 386h99l-149 -513h-76zM309 622l21 75h337l-21 -75h-337z" />
    <glyph glyph-name="uni04E8" unicode="&#x4e8;" horiz-adv-x="928" 
d="M416 -12q-86 0 -151.5 24.5t-104 67t-58 93t-19.5 107.5q0 189 130.5 322.5t337.5 133.5q85 0 151 -24.5t104.5 -67t58 -93t19.5 -107.5q0 -189 -130.5 -322.5t-337.5 -133.5zM424 70q131 0 217.5 71.5t119.5 179.5h-572q-1 -11 -1 -32q0 -101 58 -160t178 -59zM542 654
q-129 0 -215.5 -71t-120.5 -178h571q2 20 2 30q0 101 -58.5 160t-178.5 59z" />
    <glyph glyph-name="uni04E9" unicode="&#x4e9;" horiz-adv-x="771" 
d="M351 -12q-128 0 -203 66.5t-75 165.5q0 143 96.5 224t250.5 81q128 0 203 -66.5t75 -165.5q0 -143 -96.5 -224t-250.5 -81zM359 63q87 0 149.5 42t80.5 119h-414q1 -75 50.5 -118t133.5 -43zM412 450q-85 0 -146 -40t-82 -112h411q-5 71 -53.5 111.5t-129.5 40.5z" />
    <glyph glyph-name="uni04EE" unicode="&#x4ee;" horiz-adv-x="728" 
d="M140 -12q-59 0 -100 16l24 81q28 -11 70 -11q61 0 98.5 25.5t92.5 91.5l-194 533h112l156 -449l336 449h122l-436 -569q-66 -86 -133 -126.5t-148 -40.5zM335 806l21 75h337l-21 -75h-337z" />
    <glyph glyph-name="uni04EF" unicode="&#x4ef;" horiz-adv-x="642" 
d="M-67 -223q-36 0 -65 11l24 78q26 -7 49 -7q65 0 114.5 30t105.5 98l25 31l-102 495h99l76 -410l313 410h114l-424 -538q-83 -106 -153.5 -152t-175.5 -46zM223 622l21 75h337l-21 -75h-337z" />
    <glyph glyph-name="uni0E3F" unicode="&#xe3f;" 
d="M44 0l207 724h235l27 93h81l-28 -98q91 -13 141.5 -55t50.5 -112q0 -72 -46.5 -119t-126.5 -68q124 -46 124 -150q0 -110 -88 -161.5t-262 -53.5l-26 -93h-81l26 93h-234zM605 213q0 102 -152 113l-70 -243q109 4 165.5 33.5t56.5 96.5zM239 328l-70 -245h133l71 245
h-134zM329 641l-67 -233h134l66 233h-133zM652 539q0 82 -110 97l-65 -226q86 7 130.5 37t44.5 92z" />
    <glyph glyph-name="Wgrave" unicode="&#x1e80;" horiz-adv-x="1337" 
d="M239 0l-94 724h102l69 -609l412 609h97l62 -613l426 613h113l-513 -724h-101l-65 594l-406 -594h-102zM750 772l-101 158h121l63 -158h-83z" />
    <glyph glyph-name="wgrave" unicode="&#x1e81;" horiz-adv-x="1027" 
d="M180 0l-85 513h98l53 -406l281 406h96l46 -405l287 405h113l-379 -513h-92l-48 406l-279 -406h-91zM551 588l-101 158h121l63 -158h-83z" />
    <glyph glyph-name="Wacute" unicode="&#x1e82;" horiz-adv-x="1337" 
d="M239 0l-94 724h102l69 -609l412 609h97l62 -613l426 613h113l-513 -724h-101l-65 594l-406 -594h-102zM742 772l135 158h141l-179 -158h-97z" />
    <glyph glyph-name="wacute" unicode="&#x1e83;" horiz-adv-x="1027" 
d="M180 0l-85 513h98l53 -406l281 406h96l46 -405l287 405h113l-379 -513h-92l-48 406l-279 -406h-91zM543 588l135 158h141l-179 -158h-97z" />
    <glyph glyph-name="Wdieresis" unicode="&#x1e84;" horiz-adv-x="1337" 
d="M239 0l-94 724h102l69 -609l412 609h97l62 -613l426 613h113l-513 -724h-101l-65 594l-406 -594h-102zM613 801l30 101h109l-30 -101h-109zM867 801l30 101h109l-30 -101h-109z" />
    <glyph glyph-name="wdieresis" unicode="&#x1e85;" horiz-adv-x="1027" 
d="M180 0l-85 513h98l53 -406l281 406h96l46 -405l287 405h113l-379 -513h-92l-48 406l-279 -406h-91zM414 617l30 101h109l-30 -101h-109zM668 617l30 101h109l-30 -101h-109z" />
    <glyph glyph-name="Ygrave" unicode="&#x1ef2;" horiz-adv-x="777" 
d="M254 0l78 270l-193 454h111l148 -371l365 371h126l-455 -451l-79 -273h-101zM479 772l-101 158h121l63 -158h-83z" />
    <glyph glyph-name="ygrave" unicode="&#x1ef3;" horiz-adv-x="642" 
d="M-67 -223q-36 0 -65 11l24 78q26 -7 49 -7q65 0 114.5 30t105.5 98l25 31l-102 495h99l76 -410l313 410h114l-424 -538q-83 -106 -153.5 -152t-175.5 -46zM346 588l-101 158h121l63 -158h-83z" />
    <glyph glyph-name="endash" unicode="&#x2013;" horiz-adv-x="666" 
d="M41 256l24 84h561l-24 -84h-561z" />
    <glyph glyph-name="emdash" unicode="&#x2014;" horiz-adv-x="967" 
d="M41 256l24 84h862l-24 -84h-862z" />
    <glyph glyph-name="uni2015" unicode="&#x2015;" horiz-adv-x="967" 
d="M41 256l24 84h862l-24 -84h-862z" />
    <glyph glyph-name="quoteleft" unicode="&#x2018;" horiz-adv-x="315" 
d="M396 724l-114 -137v-108h-80q-52 0 -52 45q0 51 122 157l49 43h75z" />
    <glyph glyph-name="quoteright" unicode="&#x2019;" horiz-adv-x="315" 
d="M112 479l114 137v108h80q52 0 52 -45q0 -51 -122 -157l-49 -43h-75z" />
    <glyph glyph-name="quotesinglbase" unicode="&#x201a;" horiz-adv-x="315" 
d="M-66 -147l114 137v108h80q52 0 52 -45q0 -51 -122 -157l-49 -43h-75z" />
    <glyph glyph-name="quotedblleft" unicode="&#x201c;" horiz-adv-x="544" 
d="M396 724l-114 -137v-108h-80q-52 0 -52 45q0 51 122 157l49 43h75zM627 724l-114 -137v-108h-80q-52 0 -52 45q0 51 122 157l49 43h75z" />
    <glyph glyph-name="quotedblright" unicode="&#x201d;" horiz-adv-x="543" 
d="M112 479l114 137v108h80q52 0 52 -45q0 -51 -122 -157l-49 -43h-75zM340 479l114 137v108h80q52 0 52 -45q0 -51 -122 -157l-49 -43h-75z" />
    <glyph glyph-name="quotedblbase" unicode="&#x201e;" horiz-adv-x="543" 
d="M-66 -147l114 137v108h80q52 0 52 -45q0 -51 -122 -157l-49 -43h-75zM162 -147l114 137v108h80q52 0 52 -45q0 -51 -122 -157l-49 -43h-75z" />
    <glyph glyph-name="dagger" unicode="&#x2020;" horiz-adv-x="575" 
d="M150 505l20 68h158q1 43 16 92l17 59h84l-17 -59q-16 -56 -37 -92h158l-20 -68h-159q-1 -39 -15 -92l-46 -156h-84l46 156q17 57 37 92h-158z" />
    <glyph glyph-name="daggerdbl" unicode="&#x2021;" horiz-adv-x="575" 
d="M150 505l20 68h158q1 43 16 92l17 59h84l-17 -59q-16 -56 -37 -92h158l-20 -68h-150l-41 -138h151l-20 -68h-159q-1 -39 -15 -92l-17 -59h-84l17 59q16 55 37 92h-158l20 68h150l41 138h-151z" />
    <glyph glyph-name="bullet" unicode="&#x2022;" horiz-adv-x="566" 
d="M83 145l126 434l301 -217z" />
    <glyph glyph-name="ellipsis" unicode="&#x2026;" horiz-adv-x="982" 
d="M39 0l35 122h128l-35 -122h-128zM356 0l35 122h128l-35 -122h-128zM673 0l35 122h128l-35 -122h-128z" />
    <glyph glyph-name="perthousand" unicode="&#x2030;" horiz-adv-x="1682" 
d="M1356 -12q-78 0 -126.5 43t-48.5 109q0 100 73.5 161.5t178.5 61.5q78 0 126.5 -43t48.5 -109q0 -100 -73.5 -161.5t-178.5 -61.5zM1366 58q65 0 108.5 40.5t43.5 106.5q0 42 -25 65t-70 23q-65 0 -108.5 -40.5t-43.5 -106.5q0 -42 25 -65t70 -23zM320 361
q-78 0 -126.5 43t-48.5 109q0 100 73.5 161.5t178.5 61.5q78 0 126.5 -43t48.5 -109q0 -100 -73.5 -161.5t-178.5 -61.5zM330 431q65 0 108.5 40.5t43.5 106.5q0 42 -25 65t-70 23q-65 0 -108.5 -40.5t-43.5 -106.5q0 -42 25 -65t70 -23zM863 -12q-78 0 -126.5 43t-48.5 109
q0 100 73.5 161.5t178.5 61.5q78 0 126.5 -43t48.5 -109q0 -100 -73.5 -161.5t-178.5 -61.5zM873 58q65 0 108.5 40.5t43.5 106.5q0 42 -25 65t-70 23q-65 0 -108.5 -40.5t-43.5 -106.5q0 -42 25 -65t70 -23zM165 0l813 724h115l-812 -724h-116z" />
    <glyph glyph-name="guilsinglleft" unicode="&#x2039;" horiz-adv-x="426" 
d="M219 114l-150 186l238 186h103l-229 -196l121 -176h-83z" />
    <glyph glyph-name="guilsinglright" unicode="&#x203a;" horiz-adv-x="426" 
d="M16 114l229 195l-121 177h83l150 -186l-238 -186h-103z" />
    <glyph glyph-name="fraction" unicode="&#x2044;" horiz-adv-x="219" 
d="M-355 -30l882 784h98l-882 -784h-98z" />
    <glyph glyph-name="uni2070" unicode="&#x2070;" horiz-adv-x="490" 
d="M274 325q-83 0 -128 42.5t-45 103.5q0 107 70 184t185 77q84 0 129 -41t45 -103q0 -107 -70 -185t-186 -78zM279 385q75 0 121.5 59t46.5 136q0 42 -24 67t-70 25q-76 0 -122.5 -58t-46.5 -135q0 -42 24 -68t71 -26z" />
    <glyph glyph-name="uni2074" unicode="&#x2074;" horiz-adv-x="490" 
d="M305 333l24 79h-249l16 53l332 259h77l-76 -253h81l-17 -59h-82l-23 -79h-83zM195 471h152l46 154z" />
    <glyph glyph-name="uni2075" unicode="&#x2075;" horiz-adv-x="490" 
d="M247 325q-94 0 -154 28l17 57q66 -25 142 -25q65 0 99 17t34 46q0 21 -23.5 36.5t-60.5 23t-73.5 11t-73.5 3.5l71 202h300l-17 -59h-225l-32 -88q57 -5 103 -16.5t82 -40t36 -69.5q0 -58 -59 -92t-166 -34z" />
    <glyph glyph-name="uni2076" unicode="&#x2076;" horiz-adv-x="490" 
d="M299 325q-86 0 -136.5 40t-50.5 112q0 116 81 185.5t213 69.5q75 0 131 -20l-18 -61q-50 19 -118 19q-74 0 -128.5 -33t-70.5 -89q65 43 144 43q69 0 111.5 -31.5t42.5 -81.5q0 -75 -59 -114t-142 -39zM324 531q-65 0 -129 -31q-1 -7 -1 -20q0 -48 28 -73t76 -25
q46 0 81.5 22t35.5 65q0 27 -24 44.5t-67 17.5z" />
    <glyph glyph-name="uni2077" unicode="&#x2077;" horiz-adv-x="490" 
d="M124 333l310 332h-259l17 59h356l-16 -53l-317 -338h-91z" />
    <glyph glyph-name="uni2078" unicode="&#x2078;" horiz-adv-x="490" 
d="M267 325q-89 0 -137 29.5t-48 75.5q0 43 37.5 72t93.5 41q-60 26 -60 73q0 56 57.5 86t147.5 30q73 0 119 -27.5t46 -68.5q0 -75 -103 -102q75 -25 75 -81q0 -53 -57 -90.5t-171 -37.5zM275 382q60 0 97.5 20t37.5 49q0 26 -27.5 42t-81.5 16q-60 0 -97.5 -19.5
t-37.5 -48.5q0 -26 27.5 -42.5t81.5 -16.5zM327 564q50 0 82 17.5t32 42.5q0 24 -23 38t-69 14q-50 0 -82 -17.5t-32 -42.5q0 -24 23 -38t69 -14z" />
    <glyph glyph-name="uni2079" unicode="&#x2079;" horiz-adv-x="490" 
d="M230 325q-72 0 -128 20l18 61q54 -19 113 -19q76 0 131.5 34.5t68.5 93.5q-65 -43 -145 -43q-70 0 -112 30t-42 80q0 74 59 112t142 38q86 0 136.5 -40.5t50.5 -111.5q0 -116 -80.5 -185.5t-211.5 -69.5zM310 532q64 0 129 30q1 5 1 15q0 48 -28 73t-76 25
q-47 0 -82 -20.5t-35 -63.5q0 -27 23.5 -43t67.5 -16z" />
    <glyph glyph-name="uni2080" unicode="&#x2080;" horiz-adv-x="490" 
d="M139 -152q-83 0 -128 42.5t-45 103.5q0 107 70 184t185 77q84 0 129 -41t45 -103q0 -107 -70 -185t-186 -78zM144 -92q75 0 121.5 59t46.5 136q0 42 -24 67t-70 25q-76 0 -122.5 -58t-46.5 -135q0 -42 24 -68t71 -26z" />
    <glyph glyph-name="uni2081" unicode="&#x2081;" horiz-adv-x="490" 
d="M91 158l18 60l133 29h56l-101 -332h99l-17 -59h-280l17 59h99l80 263z" />
    <glyph glyph-name="uni2082" unicode="&#x2082;" horiz-adv-x="490" 
d="M-32 -144l15 53l154 93q84 50 118 80t34 62q0 49 -86 49q-58 0 -132 -23l18 62q60 23 129 23q73 0 114 -26t41 -77q0 -55 -47.5 -98t-145.5 -97l-76 -42h241l-17 -59h-360z" />
    <glyph glyph-name="uni2083" unicode="&#x2083;" horiz-adv-x="490" 
d="M119 -152q-96 0 -158 28l16 58q72 -26 137 -26q59 0 95 18.5t36 49.5q0 53 -102 53h-51l17 58h51q119 0 119 64q0 43 -86 43q-74 0 -145 -27l18 60q61 28 139 28q72 0 115 -25t43 -68q0 -77 -99 -106q65 -23 65 -80t-56 -92.5t-154 -35.5z" />
    <glyph glyph-name="uni2084" unicode="&#x2084;" horiz-adv-x="490" 
d="M182 -144l24 79h-249l16 53l332 259h77l-76 -253h81l-17 -59h-82l-23 -79h-83zM72 -6h152l46 154z" />
    <glyph glyph-name="uni2085" unicode="&#x2085;" horiz-adv-x="490" 
d="M121 -152q-94 0 -154 28l17 57q66 -25 142 -25q65 0 99 17t34 46q0 21 -23.5 36.5t-60.5 23t-73.5 11t-73.5 3.5l71 202h300l-17 -59h-225l-32 -88q57 -5 103 -16.5t82 -40t36 -69.5q0 -58 -59 -92t-166 -34z" />
    <glyph glyph-name="uni2086" unicode="&#x2086;" horiz-adv-x="490" 
d="M167 -152q-86 0 -136.5 40t-50.5 112q0 116 81 185.5t213 69.5q75 0 131 -20l-18 -61q-50 19 -118 19q-74 0 -128.5 -33t-70.5 -89q65 43 144 43q69 0 111.5 -31.5t42.5 -81.5q0 -75 -59 -114t-142 -39zM192 54q-65 0 -129 -31q-1 -7 -1 -20q0 -48 28 -73t76 -25
q46 0 81.5 22t35.5 65q0 27 -24 44.5t-67 17.5z" />
    <glyph glyph-name="uni2087" unicode="&#x2087;" horiz-adv-x="490" 
d="M0 -144l310 332h-259l17 59h356l-16 -53l-317 -338h-91z" />
    <glyph glyph-name="uni2088" unicode="&#x2088;" horiz-adv-x="490" 
d="M142 -152q-89 0 -137 29.5t-48 75.5q0 43 37.5 72t93.5 41q-60 26 -60 73q0 56 57.5 86t147.5 30q73 0 119 -27.5t46 -68.5q0 -75 -103 -102q75 -25 75 -81q0 -53 -57 -90.5t-171 -37.5zM150 -95q60 0 97.5 20t37.5 49q0 26 -27.5 42t-81.5 16q-60 0 -97.5 -19.5
t-37.5 -48.5q0 -26 27.5 -42.5t81.5 -16.5zM202 87q50 0 82 17.5t32 42.5q0 24 -23 38t-69 14q-50 0 -82 -17.5t-32 -42.5q0 -24 23 -38t69 -14z" />
    <glyph glyph-name="uni2089" unicode="&#x2089;" horiz-adv-x="490" 
d="M98 -152q-72 0 -128 20l18 61q54 -19 113 -19q75 0 131 35t69 93q-65 -43 -145 -43q-70 0 -112 30t-42 80q0 74 59 112t142 38q86 0 136.5 -40.5t50.5 -111.5q0 -116 -80.5 -185.5t-211.5 -69.5zM178 55q64 0 129 30q1 5 1 15q0 48 -28 73t-76 25q-47 0 -82 -20.5
t-35 -63.5q0 -27 23.5 -43t67.5 -16z" />
    <glyph glyph-name="uni20A1" unicode="&#x20a1;" 
d="M144 -93l69 148q-104 83 -104 231q0 172 118.5 297t298.5 148l40 86h84l-38 -81q60 -2 99 -8l41 89h84l-49 -107q22 -8 32 -13l-24 -82q-19 9 -45 17l-259 -559q95 5 182 34l-26 -87q-68 -29 -196 -32l-37 -81h-84l39 85q-49 8 -90 24l-51 -109h-84zM317 99
q39 -19 91 -25l265 573q-35 4 -76 4q-4 0 -12.5 -0.5t-12.5 -0.5zM214 296q0 -94 42 -148l225 486q-116 -33 -191.5 -123t-75.5 -215z" />
    <glyph glyph-name="uni20A4" unicode="&#x20a4;" 
d="M179 404l24 81h109l10 34q31 108 100 162.5t191 54.5q90 0 142 -26l-23 -82q-49 20 -125 20q-83 0 -124 -33t-67 -120l-3 -10h266l-24 -81h-265l-28 -97h266l-24 -81h-266l-12 -44q-20 -71 -56 -98h373l-24 -84h-588l22 79h18q72 0 105 25.5t55 102.5l5 19h-108l24 81
h108l28 97h-109z" />
    <glyph glyph-name="uni20A6" unicode="&#x20a6;" 
d="M81 405l23 81h69l69 238h106l84 -238h220l69 238h101l-69 -238h71l-23 -81h-71l-27 -97h70l-23 -81h-70l-65 -227h-106l-81 227h-227l-65 -227h-101l65 227h-70l23 81h70l27 97h-69zM252 405l-28 -97h175l-34 97h-113zM461 405l35 -97h106l27 97h-168zM301 596l-27 -110
h63l-32 110h-4zM552 128h4l24 99h-58z" />
    <glyph glyph-name="uni20A8" unicode="&#x20a8;" 
d="M8 0l207 724h159q74 0 119 -35.5t45 -104.5q0 -90 -55.5 -154.5t-139.5 -77.5q29 -16 35 -70l13 -118q5 -51 32 -74t87 -23q129 0 129 75q0 20 -9.5 38t-20.5 29t-31 27q-66 55 -66 122q0 78 52 120.5t150 42.5q30 0 60 -7.5t43 -17.5l-22 -73q-33 18 -86 18
q-96 0 -96 -75q0 -36 48 -79q25 -22 37.5 -35.5t27 -40.5t14.5 -54q0 -169 -212 -169q-69 0 -115.5 11.5t-71 34.5t-35 48.5t-14.5 62.5l-13 132q-4 35 -16.5 46t-50.5 11h-12l-95 -334h-97zM347 651h-56l-71 -247h41q81 0 127 50t46 116q0 42 -20.5 61.5t-66.5 19.5z" />
    <glyph glyph-name="uni20A9" unicode="&#x20a9;" 
d="M71 405l23 81h47l11 238h91l-14 -238h137l113 238h98l-24 -238h137l123 238h99l-125 -238h47l-23 -81h-67l-51 -97h90l-23 -81h-109l-119 -227h-104l21 227h-118l-109 -227h-104l10 227h-108l23 81h89l5 97h-66zM225 405l-6 -97h62l46 97h-102zM545 405l-9 -97h62l50 97
h-103zM416 405l-46 -97h86l9 97h-49zM511 132h4l43 95h-32zM201 132h4l40 95h-33zM487 582l-36 -96h24l16 96h-4z" />
    <glyph glyph-name="uni20AA" unicode="&#x20aa;" 
d="M432 0q-195 0 -195 132q0 32 12 73l102 356h91l-107 -373q-8 -29 -8 -46q0 -35 26 -49t81 -14h134l185 645h91l-207 -724h-205zM13 0l207 724h205q195 0 195 -132q0 -32 -12 -73l-102 -356h-91l107 373q8 29 8 46q0 35 -26 49t-81 14h-134l-185 -645h-91z" />
    <glyph glyph-name="uni20AB" unicode="&#x20ab;" 
d="M506 602l22 76h161l13 46h99l-14 -46h62l-22 -76h-62l-128 -442h-83l6 47q-93 -58 -226 -58q-100 0 -162.5 42.5t-62.5 128.5q0 58 28 102.5t75 70.5t102 39t115 13q135 0 205 -55l33 112h-161zM373 226q118 0 199 50l44 151q-59 41 -177 41q-39 0 -76 -7t-72 -21.5
t-56.5 -42.5t-21.5 -65q0 -106 160 -106zM41 0l23 81h551l-23 -81h-551z" />
    <glyph glyph-name="Euro" unicode="&#x20ac;" 
d="M81 414l23 81h95q63 111 180 176t259 65q144 0 221 -39l-24 -85q-80 38 -198 38q-97 0 -186 -41t-143 -114h362l-23 -81h-379q-19 -51 -20 -107h379l-24 -81h-351q34 -153 237 -153q107 0 216 37l-26 -90q-78 -32 -217 -32q-132 0 -215.5 66.5t-100.5 171.5h-109l24 81
h82q3 54 20 107h-82z" />
    <glyph glyph-name="uni20AD" unicode="&#x20ad;" 
d="M75 326l23 81h73l92 317h102l-94 -324l478 324h146l-404 -271q-37 -25 -84 -46h342l-23 -81h-348q30 -20 51 -41l286 -285h-132l-332 333l-96 -333h-102l94 326h-72z" />
    <glyph glyph-name="uni20AE" unicode="&#x20ae;" 
d="M163 640l24 84h692l-24 -84h-296l-45 -158l215 76l-28 -91l-213 -75l-30 -102l216 76l-28 -91l-214 -76l-58 -199h-102l46 159l-212 -74l27 91l212 74l29 102l-213 -75l27 91l212 74l57 198h-294z" />
    <glyph glyph-name="uni20B1" unicode="&#x20b1;" 
d="M109 479l23 81h92l47 164h199q118 0 183.5 -43t77.5 -121h107l-23 -81h-87q-3 -20 -9 -38l-12 -38h86l-23 -81h-97q-45 -88 -122 -126t-216 -38h-123l-45 -158h-103l92 322h-92l23 81h92l22 76h-92zM617 441q3 9 10 38h-323l-22 -76h323zM337 242q88 0 142 17.5t88 62.5
h-308l-23 -80h101zM451 640h-101l-23 -80h303q-11 42 -52 61t-127 19z" />
    <glyph glyph-name="uni20B2" unicode="&#x20b2;" 
d="M266 -93l26 92q-110 25 -164 103t-54 191q0 179 122 302t307 139l24 83h81l-24 -82q152 -4 218 -38l-24 -82q-86 34 -218 36l-166 -581h18q81 0 157 27l73 252h102l-91 -314q-138 -47 -255 -47q-19 0 -28 1l-23 -82h-81zM179 300q0 -179 137 -218l161 562
q-131 -23 -214.5 -118t-83.5 -226z" />
    <glyph glyph-name="uni20B4" unicode="&#x20b4;" 
d="M375 -12q-147 0 -223 44.5t-76 120.5q0 39 16 74h-51l23 81h91q40 28 107 51t106 31.5t121 24.5q-88 -10 -141 -10h-256l23 81h515q41 33 41 82q0 80 -184 80q-130 0 -258 -41l25 89q110 40 251 40q131 0 201.5 -42.5t70.5 -114.5q0 -51 -29 -93h57l-23 -81h-119
q-35 -19 -87 -37t-81.5 -25.5t-102 -23.5t-83.5 -19q54 8 107 8h338l-23 -81h-526q-23 -28 -23 -63q0 -88 209 -88q136 0 272 39l-25 -88q-114 -39 -263 -39z" />
    <glyph glyph-name="uni20B5" unicode="&#x20b5;" 
d="M327 -93l25 88q-115 20 -179 98.5t-64 192.5q0 182 130.5 310t324.5 139l24 82h81l-24 -82q111 -6 174 -38l-24 -82q-70 32 -174 36l-166 -579h2q113 0 216 35l-26 -87q-78 -32 -216 -32l-23 -81h-81zM214 296q0 -183 162 -217l163 568q-136 -20 -230.5 -115.5
t-94.5 -235.5z" />
    <glyph glyph-name="uni2113" unicode="&#x2113;" horiz-adv-x="500" 
d="M207 -12q-141 0 -141 108q0 26 9 58l16 58l-87 -21l20 66l87 24l76 267q26 94 73 141t123 47q65 0 99 -33.5t34 -98.5q0 -130 -90 -230t-235 -138l-24 -86q-7 -22 -7 -41q0 -44 62 -44q48 0 102 16l-22 -75q-39 -18 -95 -18zM275 525l-62 -215q110 42 169 139
q43 71 43 155q0 58 -45 58q-36 0 -61 -34.5t-44 -102.5z" />
    <glyph glyph-name="uni2116" unicode="&#x2116;" horiz-adv-x="1515" 
d="M44 0l210 724h103l320 -599l174 599h100l-210 -724h-102l-321 601l-174 -601h-100zM1193 301q-99 0 -157 53.5t-58 133.5q0 115 79.5 179t206.5 64q99 0 156.5 -53.5t57.5 -132.5q0 -115 -79 -179.5t-206 -64.5zM1200 361q87 0 143 47t56 129q0 62 -38.5 98.5
t-103.5 36.5q-87 0 -143 -47.5t-56 -129.5q0 -61 38.5 -97.5t103.5 -36.5zM866 116l20 71h533l-20 -71h-533z" />
    <glyph glyph-name="uni2117" unicode="&#x2117;" horiz-adv-x="918" 
d="M402 -12q-151 0 -240.5 85.5t-89.5 219.5q0 88 35.5 169t97.5 141.5t152.5 96.5t194.5 36q151 0 240.5 -85.5t89.5 -219.5q0 -89 -35.5 -169.5t-97.5 -141t-152.5 -96.5t-194.5 -36zM401 47q95 0 173.5 32t129.5 85.5t78.5 120.5t27.5 139q0 112 -68.5 182t-188.5 70
q-95 0 -173.5 -32t-129 -85t-78.5 -120t-28 -139q0 -113 68.5 -183t188.5 -70zM263 149l122 425h154q77 0 119 -31t42 -85q0 -70 -54.5 -114t-161.5 -44h-102l-43 -151h-76zM528 511h-85l-43 -148h86q66 0 99.5 24t33.5 64q0 32 -20.5 46t-70.5 14z" />
    <glyph glyph-name="trademark" unicode="&#x2122;" horiz-adv-x="1069" 
d="M502 385l98 339h68l94 -168q11 -21 14 -36q14 18 35 36l189 168h83l-98 -339h-65l65 224q6 22 17 46q-15 -20 -41 -44l-167 -146h-54l-82 146q-9 15 -16 38q0 -3 -9 -40l-65 -224h-66zM165 667l16 57h328l-16 -57h-126l-82 -282h-74l82 282h-128z" />
    <glyph glyph-name="Omega" unicode="&#x2126;" horiz-adv-x="1008" 
d="M8 0l24 84h181q-94 74 -94 206q0 88 34 168.5t94.5 142.5t151.5 98.5t198 36.5q82 0 145.5 -25t100.5 -67t56 -92.5t19 -107.5q0 -121 -57.5 -214t-161.5 -146h201l-24 -84h-381l22 79q93 18 162 75.5t101 130.5t32 150q0 101 -56 160t-169 59q-71 0 -132 -22
t-102.5 -58.5t-71 -84t-43 -98.5t-13.5 -102q0 -160 130 -210l-22 -79h-325z" />
    <glyph glyph-name="uni212E" unicode="&#x212e;" horiz-adv-x="960" 
d="M519 -12q-105 0 -186 29t-130.5 80.5t-75 118.5t-25.5 146q0 161 105.5 267.5t301.5 106.5q136 0 229.5 -51t135.5 -133.5t42 -189.5v-28h-663v-185q90 -97 268 -97q89 0 163.5 28.5t119.5 75.5l44 -42q-110 -126 -329 -126zM509 672q-170 0 -256 -88v-187h512v191
q-84 84 -256 84z" />
    <glyph glyph-name="uni2153" unicode="&#x2153;" horiz-adv-x="1199" 
d="M220 635l18 60l133 29h56l-101 -332h99l-17 -59h-280l17 59h99l80 263zM135 -30l882 784h98l-882 -784h-98zM881 -8q-96 0 -158 28l16 58q71 -26 137 -26q59 0 95 18.5t36 49.5q0 53 -102 53h-51l17 58h51q119 0 119 64q0 43 -86 43q-74 0 -145 -27l18 60q61 28 139 28
q72 0 115 -25t43 -68q0 -77 -99 -106q65 -23 65 -80t-56 -92.5t-154 -35.5z" />
    <glyph glyph-name="uni2154" unicode="&#x2154;" horiz-adv-x="1199" 
d="M80 333l15 53l154 93q84 50 118 80t34 62q0 49 -86 49q-58 0 -132 -23l18 62q60 23 129 23q73 0 114 -26t41 -77q0 -55 -47.5 -98t-145.5 -97l-76 -42h241l-17 -59h-360zM135 -30l882 784h98l-882 -784h-98zM881 -8q-96 0 -158 28l16 58q71 -26 137 -26q59 0 95 18.5
t36 49.5q0 53 -102 53h-51l17 58h51q119 0 119 64q0 43 -86 43q-74 0 -145 -27l18 60q61 28 139 28q72 0 115 -25t43 -68q0 -77 -99 -106q65 -23 65 -80t-56 -92.5t-154 -35.5z" />
    <glyph glyph-name="uni2155" unicode="&#x2155;" horiz-adv-x="1199" 
d="M220 635l18 60l133 29h56l-101 -332h99l-17 -59h-280l17 59h99l80 263zM135 -30l882 784h98l-882 -784h-98zM883 -8q-94 0 -154 28l17 57q66 -25 142 -25q65 0 99 17t34 46q0 21 -23.5 36.5t-60.5 23t-73.5 11t-73.5 3.5l71 202h300l-17 -59h-225l-32 -88
q57 -5 103 -16.5t82 -40t36 -69.5q0 -58 -59 -92t-166 -34z" />
    <glyph glyph-name="uni2156" unicode="&#x2156;" horiz-adv-x="1199" 
d="M80 333l15 53l154 93q84 50 118 80t34 62q0 49 -86 49q-58 0 -132 -23l18 62q60 23 129 23q73 0 114 -26t41 -77q0 -55 -47.5 -98t-145.5 -97l-76 -42h241l-17 -59h-360zM135 -30l882 784h98l-882 -784h-98zM883 -8q-94 0 -154 28l17 57q66 -25 142 -25q65 0 99 17t34 46
q0 21 -23.5 36.5t-60.5 23t-73.5 11t-73.5 3.5l71 202h300l-17 -59h-225l-32 -88q57 -5 103 -16.5t82 -40t36 -69.5q0 -58 -59 -92t-166 -34z" />
    <glyph glyph-name="uni2157" unicode="&#x2157;" horiz-adv-x="1199" 
d="M260 325q-96 0 -158 28l16 58q72 -26 137 -26q59 0 95 18.5t36 49.5q0 53 -102 53h-51l17 58h51q119 0 119 64q0 43 -86 43q-74 0 -145 -27l18 60q61 28 139 28q72 0 115 -25t43 -68q0 -77 -99 -106q65 -23 65 -80t-56 -92.5t-154 -35.5zM135 -30l882 784h98l-882 -784
h-98zM883 -8q-94 0 -154 28l17 57q66 -25 142 -25q65 0 99 17t34 46q0 21 -23.5 36.5t-60.5 23t-73.5 11t-73.5 3.5l71 202h300l-17 -59h-225l-32 -88q57 -5 103 -16.5t82 -40t36 -69.5q0 -58 -59 -92t-166 -34z" />
    <glyph glyph-name="uni2158" unicode="&#x2158;" horiz-adv-x="1199" 
d="M305 333l24 79h-249l16 53l332 259h77l-76 -253h81l-17 -59h-82l-23 -79h-83zM195 471h152l46 154zM135 -30l882 784h98l-882 -784h-98zM883 -8q-94 0 -154 28l17 57q66 -25 142 -25q65 0 99 17t34 46q0 21 -23.5 36.5t-60.5 23t-73.5 11t-73.5 3.5l71 202h300l-17 -59
h-225l-32 -88q57 -5 103 -16.5t82 -40t36 -69.5q0 -58 -59 -92t-166 -34z" />
    <glyph glyph-name="uni2159" unicode="&#x2159;" horiz-adv-x="1199" 
d="M220 635l18 60l133 29h56l-101 -332h99l-17 -59h-280l17 59h99l80 263zM135 -30l882 784h98l-882 -784h-98zM929 -8q-86 0 -136.5 40t-50.5 112q0 116 81 185.5t213 69.5q75 0 131 -20l-18 -61q-50 19 -118 19q-74 0 -128.5 -33t-70.5 -89q65 43 144 43q69 0 111.5 -31.5
t42.5 -81.5q0 -75 -59 -114t-142 -39zM954 198q-65 0 -129 -31q-1 -7 -1 -20q0 -48 28 -73t76 -25q46 0 81.5 22t35.5 65q0 27 -24 44.5t-67 17.5z" />
    <glyph glyph-name="uni215A" unicode="&#x215a;" horiz-adv-x="1199" 
d="M247 325q-94 0 -154 28l17 57q66 -25 142 -25q65 0 99 17t34 46q0 21 -23.5 36.5t-60.5 23t-73.5 11t-73.5 3.5l71 202h300l-17 -59h-225l-32 -88q57 -5 103 -16.5t82 -40t36 -69.5q0 -58 -59 -92t-166 -34zM135 -30l882 784h98l-882 -784h-98zM929 -8q-86 0 -136.5 40
t-50.5 112q0 116 81 185.5t213 69.5q75 0 131 -20l-18 -61q-50 19 -118 19q-74 0 -128.5 -33t-70.5 -89q65 43 144 43q69 0 111.5 -31.5t42.5 -81.5q0 -75 -59 -114t-142 -39zM954 198q-65 0 -129 -31q-1 -7 -1 -20q0 -48 28 -73t76 -25q46 0 81.5 22t35.5 65q0 27 -24 44.5
t-67 17.5z" />
    <glyph glyph-name="uni215B" unicode="&#x215b;" horiz-adv-x="1199" 
d="M220 635l18 60l133 29h56l-101 -332h99l-17 -59h-280l17 59h99l80 263zM135 -30l882 784h98l-882 -784h-98zM904 -8q-89 0 -137 29.5t-48 75.5q0 43 37.5 72t93.5 41q-60 26 -60 73q0 56 57.5 86t147.5 30q73 0 119 -27.5t46 -68.5q0 -75 -103 -102q75 -25 75 -81
q0 -53 -57 -90.5t-171 -37.5zM912 49q60 0 97.5 20t37.5 49q0 26 -27.5 42t-81.5 16q-60 0 -97.5 -19.5t-37.5 -48.5q0 -26 27.5 -42.5t81.5 -16.5zM964 231q50 0 82 17.5t32 42.5q0 24 -23 38t-69 14q-50 0 -82 -17.5t-32 -42.5q0 -24 23 -38t69 -14z" />
    <glyph glyph-name="uni215C" unicode="&#x215c;" horiz-adv-x="1199" 
d="M260 325q-96 0 -158 28l16 58q72 -26 137 -26q59 0 95 18.5t36 49.5q0 53 -102 53h-51l17 58h51q119 0 119 64q0 43 -86 43q-74 0 -145 -27l18 60q61 28 139 28q72 0 115 -25t43 -68q0 -77 -99 -106q65 -23 65 -80t-56 -92.5t-154 -35.5zM135 -30l882 784h98l-882 -784
h-98zM904 -8q-89 0 -137 29.5t-48 75.5q0 43 37.5 72t93.5 41q-60 26 -60 73q0 56 57.5 86t147.5 30q73 0 119 -27.5t46 -68.5q0 -75 -103 -102q75 -25 75 -81q0 -53 -57 -90.5t-171 -37.5zM912 49q60 0 97.5 20t37.5 49q0 26 -27.5 42t-81.5 16q-60 0 -97.5 -19.5
t-37.5 -48.5q0 -26 27.5 -42.5t81.5 -16.5zM964 231q50 0 82 17.5t32 42.5q0 24 -23 38t-69 14q-50 0 -82 -17.5t-32 -42.5q0 -24 23 -38t69 -14z" />
    <glyph glyph-name="uni215D" unicode="&#x215d;" horiz-adv-x="1199" 
d="M247 325q-94 0 -154 28l17 57q66 -25 142 -25q65 0 99 17t34 46q0 21 -23.5 36.5t-60.5 23t-73.5 11t-73.5 3.5l71 202h300l-17 -59h-225l-32 -88q57 -5 103 -16.5t82 -40t36 -69.5q0 -58 -59 -92t-166 -34zM135 -30l882 784h98l-882 -784h-98zM904 -8q-89 0 -137 29.5
t-48 75.5q0 43 37.5 72t93.5 41q-60 26 -60 73q0 56 57.5 86t147.5 30q73 0 119 -27.5t46 -68.5q0 -75 -103 -102q75 -25 75 -81q0 -53 -57 -90.5t-171 -37.5zM912 49q60 0 97.5 20t37.5 49q0 26 -27.5 42t-81.5 16q-60 0 -97.5 -19.5t-37.5 -48.5q0 -26 27.5 -42.5
t81.5 -16.5zM964 231q50 0 82 17.5t32 42.5q0 24 -23 38t-69 14q-50 0 -82 -17.5t-32 -42.5q0 -24 23 -38t69 -14z" />
    <glyph glyph-name="uni215E" unicode="&#x215e;" horiz-adv-x="1199" 
d="M124 333l310 332h-259l17 59h356l-16 -53l-317 -338h-91zM135 -30l882 784h98l-882 -784h-98zM904 -8q-89 0 -137 29.5t-48 75.5q0 43 37.5 72t93.5 41q-60 26 -60 73q0 56 57.5 86t147.5 30q73 0 119 -27.5t46 -68.5q0 -75 -103 -102q75 -25 75 -81q0 -53 -57 -90.5
t-171 -37.5zM912 49q60 0 97.5 20t37.5 49q0 26 -27.5 42t-81.5 16q-60 0 -97.5 -19.5t-37.5 -48.5q0 -26 27.5 -42.5t81.5 -16.5zM964 231q50 0 82 17.5t32 42.5q0 24 -23 38t-69 14q-50 0 -82 -17.5t-32 -42.5q0 -24 23 -38t69 -14z" />
    <glyph glyph-name="uni2190" unicode="&#x2190;" horiz-adv-x="930" 
d="M416 0l-362 362l362 362l59 -60l-261 -262h682v-80h-682l262 -263z" />
    <glyph glyph-name="uni2191" unicode="&#x2191;" horiz-adv-x="930" 
d="M195 350l-57 58l362 362l362 -362l-58 -57l-262 261v-684h-84v684z" />
    <glyph glyph-name="uni2192" unicode="&#x2192;" horiz-adv-x="930" 
d="M44 322v80h682l-262 263l60 59l362 -362l-362 -362l-59 60l261 262h-682z" />
    <glyph glyph-name="uni2193" unicode="&#x2193;" horiz-adv-x="930" 
d="M460 -84l-362 362l58 57l262 -261v684h84v-684l263 262l57 -58z" />
    <glyph glyph-name="uni2196" unicode="&#x2196;" horiz-adv-x="930" 
d="M754 54l-481 482v-372h-85v512h512v-81h-372l485 -484z" />
    <glyph glyph-name="uni2197" unicode="&#x2197;" horiz-adv-x="930" 
d="M212 54l-59 57l485 484h-372v81h512v-512h-85v372z" />
    <glyph glyph-name="uni2198" unicode="&#x2198;" horiz-adv-x="930" 
d="M266 54v81h372l-485 484l59 57l481 -482v372h85v-512h-512z" />
    <glyph glyph-name="uni2199" unicode="&#x2199;" horiz-adv-x="930" 
d="M188 54v512h85v-372l481 482l59 -57l-485 -484h372v-81h-512z" />
    <glyph glyph-name="partialdiff" unicode="&#x2202;" horiz-adv-x="754" 
d="M323 -12q-120 0 -194 62t-74 158q0 71 28 128t75 91.5t104 53t119 18.5q134 0 197 -57q-66 159 -269 242l34 60q68 -21 127.5 -58.5t108.5 -91t77.5 -126.5t28.5 -157q0 -154 -96.5 -238.5t-265.5 -84.5zM332 62q110 0 179.5 53t69.5 155q0 76 -47.5 115.5t-130.5 39.5
q-110 0 -179.5 -53t-69.5 -155q0 -74 50.5 -114.5t127.5 -40.5z" />
    <glyph glyph-name="Delta" unicode="&#x2206;" horiz-adv-x="865" 
d="M-16 0l22 79l505 645h109l131 -645l-22 -79h-745zM540 616l-413 -532h519z" />
    <glyph glyph-name="product" unicode="&#x220f;" horiz-adv-x="872" 
d="M494 -211l245 851h-413l-245 -851h-100l270 935h613l-270 -935h-100z" />
    <glyph glyph-name="summation" unicode="&#x2211;" horiz-adv-x="770" 
d="M-49 -211l23 79l535 400l-313 377l23 79h604l-24 -84h-488l291 -349l-22 -79l-456 -339h455l-24 -84h-604z" />
    <glyph glyph-name="minus" unicode="&#x2212;" horiz-adv-x="742" 
d="M61 261l24 78h596l-24 -78h-596z" />
    <glyph glyph-name="radical" unicode="&#x221a;" horiz-adv-x="668" 
d="M186 0l-66 435h-128l22 78h192l53 -396l443 607h111l-538 -724h-89z" />
    <glyph glyph-name="infinity" unicode="&#x221e;" horiz-adv-x="1114" 
d="M227 89q-71 0 -118.5 41t-47.5 107q0 107 75 190.5t185 83.5q60 0 107.5 -26.5t99.5 -82.5l48 -51l83 54q91 60 140.5 83t106.5 23q71 0 118.5 -41t47.5 -107q0 -107 -75 -190.5t-185 -83.5q-60 0 -107 27t-100 83l-48 51l-83 -55q-91 -60 -140.5 -83t-106.5 -23z
M245 168q57 0 184 84l80 52l-41 44q-79 84 -147 84q-71 0 -120.5 -54.5t-49.5 -128.5q0 -81 94 -81zM704 348l-80 -52l41 -43q79 -85 147 -85q71 0 120.5 54.5t49.5 128.5q0 81 -94 81q-57 0 -184 -84z" />
    <glyph glyph-name="integral" unicode="&#x222b;" horiz-adv-x="361" 
d="M-135 -223q-52 0 -83 12l21 74q30 -8 57 -8q70 0 104.5 36.5t59.5 124.5l146 501q34 117 90.5 168t163.5 51q52 0 83 -12l-21 -74q-30 8 -57 8q-70 0 -105.5 -37t-60.5 -124l-146 -501q-34 -118 -89.5 -168.5t-162.5 -50.5z" />
    <glyph glyph-name="approxequal" unicode="&#x2248;" horiz-adv-x="742" 
d="M477 119q-53 0 -145.5 41.5t-130.5 41.5q-32 0 -53 -19.5t-27 -53.5h-75q29 154 160 154q53 0 145.5 -41.5t130.5 -41.5q32 0 53 19.5t27 53.5h75q-29 -154 -160 -154zM536 319q-53 0 -145.5 41.5t-130.5 41.5q-61 0 -80 -73h-75q29 154 160 154q53 0 145.5 -41.5
t130.5 -41.5q61 0 80 73h75q-29 -154 -160 -154z" />
    <glyph glyph-name="notequal" unicode="&#x2260;" horiz-adv-x="742" 
d="M135 361l22 78h308l144 140h101l-144 -140h137l-23 -78h-194l-126 -122h285l-22 -78h-343l-148 -144h-100l148 144h-103l23 78h160l125 122h-250z" />
    <glyph glyph-name="lessequal" unicode="&#x2264;" horiz-adv-x="742" 
d="M436 147l-299 261l425 252h150l-438 -261l289 -252h-127zM8 0l22 78h514l-22 -78h-514z" />
    <glyph glyph-name="greaterequal" unicode="&#x2265;" horiz-adv-x="742" 
d="M82 147l437 260l-288 253h127l299 -261l-425 -252h-150zM40 0l22 78h514l-22 -78h-514z" />
    <glyph glyph-name="uni2300" unicode="&#x2300;" horiz-adv-x="716" 
d="M137 66l-48 48l65 65q-63 81 -63 183q0 122 86 208t208 86q102 0 182 -64l66 66l48 -48l-66 -66q64 -80 64 -182q0 -122 -86 -208t-208 -86q-102 0 -183 63zM164 362q0 -73 42 -131l309 309q-57 43 -130 43q-91 0 -156 -64.5t-65 -156.5zM385 141q91 0 156 64.5t65 156.5
q0 73 -43 130l-309 -309q58 -42 131 -42z" />
    <glyph glyph-name="uni25AA" unicode="&#x25aa;" horiz-adv-x="467" 
d="M123 218l47 165h173l-48 -165h-172z" />
    <glyph glyph-name="uni25BA" unicode="&#x25ba;" horiz-adv-x="566" 
d="M140 145v434l376 -217z" />
    <glyph glyph-name="uni25C0" unicode="&#x25c0;" horiz-adv-x="566" 
d="M466 145l-376 217l376 217v-434z" />
    <glyph glyph-name="uni25C6" unicode="&#x25c6;" horiz-adv-x="566" 
d="M303 124l-238 238l238 238l238 -238z" />
    <glyph glyph-name="lozenge" unicode="&#x25ca;" horiz-adv-x="918" 
d="M318 0l-234 362l444 362h88l234 -362l-442 -362h-90zM374 78l357 293l-175 275l-359 -294z" />
    <glyph glyph-name="uni5143" unicode="&#x5143;" horiz-adv-x="1000" 
d="M80 429v84h849v-84h-283v-337q0 -33 19 -43.5t74 -10.5q62 0 85.5 14.5t23.5 54.5v70l92 -19v-57q0 -82 -43.5 -113t-159.5 -31q-108 0 -150 27.5t-42 101.5v343h-139q-10 -168 -88.5 -296t-208.5 -192l-52 67q117 71 177.5 172.5t68.5 248.5h-223zM192 640v84h632v-84
h-632z" />
    <glyph glyph-name="uni5186" unicode="&#x5186;" horiz-adv-x="1000" 
d="M155 -43v767h764l-1 -629q0 -79 -42.5 -108.5t-144.5 -29.5h-31l-20 83h49q49 0 67.5 13t18.5 47v171h-557v-314h-103zM258 640v-288h232v288h-232zM584 640v-288h231v288h-231z" />
    <glyph glyph-name="section.alt01" unicode="&#xf62f;" 
d="M183 -223q-67 0 -122.5 12t-82.5 29l22 78q70 -31 129 -31q63 0 109 34.5t46 92.5q0 38 -27 114l-56 153q-30 81 -30 150q0 160 117.5 243.5t330.5 83.5q58 0 116.5 -10t86.5 -23l-24 -83q-46 28 -110 28q-68 0 -115 -34.5t-47 -92.5q0 -37 27 -114l56 -153
q30 -81 30 -150q0 -161 -119 -244t-337 -83zM384 10q0 -104 -79 -158q234 57 234 241q0 63 -21 123l-56 153q-36 97 -36 134q0 104 78 158q-233 -57 -233 -241q0 -63 21 -123l56 -153q2 -5 11.5 -31t13 -37t7.5 -31t4 -35z" />
    <glyph glyph-name="zero.lntx" unicode="&#xf630;" horiz-adv-x="848" 
d="M366 -12q-139 0 -212.5 72.5t-73.5 183.5q0 129 54.5 240t161.5 181.5t245 70.5q139 0 212.5 -72.5t73.5 -183.5q0 -129 -54.5 -240t-161.5 -181.5t-245 -70.5zM369 67q97 0 179 60t127.5 153t45.5 194q0 78 -47.5 130.5t-135.5 52.5q-97 0 -179 -60t-127.5 -153
t-45.5 -194q0 -78 47.5 -130.5t135.5 -52.5z" />
    <glyph glyph-name="one.lntx" unicode="&#xf631;" horiz-adv-x="500" 
d="M135 583l25 86l238 55h65l-210 -724h-102l182 625z" />
    <glyph glyph-name="two.lntx" unicode="&#xf632;" 
d="M26 0l22 79l264 169q84 53 131.5 86t97 74t71.5 76t22 69q0 49 -40 72.5t-126 23.5q-115 0 -248 -45l26 88q109 44 240 44q125 0 190 -45.5t65 -127.5q0 -89 -81 -171.5t-285 -205.5l-169 -102h460l-24 -84h-616z" />
    <glyph glyph-name="three.lntx" unicode="&#xf633;" 
d="M315 -12q-154 0 -256 49l23 81q134 -44 241 -44q106 0 174.5 35t68.5 103q0 56 -48 87t-140 31h-87l23 81h83q57 0 105.5 12.5t85 46t36.5 83.5q0 51 -44 74t-114 23q-132 0 -248 -42l25 85q111 43 238 43q112 0 181 -46t69 -124q0 -76 -45 -126t-125 -72
q112 -43 112 -151q0 -103 -93 -166t-265 -63z" />
    <glyph glyph-name="four.lntx" unicode="&#xf634;" horiz-adv-x="778" 
d="M430 0l46 160h-478l24 82l610 482h109l-140 -482h155l-23 -82h-156l-46 -160h-101zM151 242h348l103 355z" />
    <glyph glyph-name="five.lntx" unicode="&#xf635;" 
d="M294 -12q-68 0 -139.5 13t-111.5 32l24 82q109 -41 235 -41q128 0 200.5 36.5t72.5 95.5q0 44 -40 76t-106 47.5t-130.5 22t-132.5 6.5l123 366h504l-24 -84h-407l-69 -205q76 -4 143.5 -18t125.5 -39t92.5 -65t34.5 -91q0 -111 -103 -172.5t-292 -61.5z" />
    <glyph glyph-name="six.lntx" unicode="&#xf636;" horiz-adv-x="793" 
d="M363 -12q-134 0 -214.5 69t-80.5 187q0 223 139 357.5t363 134.5q127 0 212 -29l-25 -84q-89 25 -195 25q-139 0 -236.5 -69t-133.5 -190q110 74 258 74q118 0 190 -59.5t72 -147.5q0 -87 -51 -149.5t-128 -90.5t-170 -28zM427 382q-134 0 -250 -65q-4 -27 -4 -63
q0 -94 54.5 -140.5t143.5 -46.5q60 0 110.5 16.5t87 58.5t36.5 104t-47.5 99t-130.5 37z" />
    <glyph glyph-name="seven.lntx" unicode="&#xf637;" horiz-adv-x="705" 
d="M77 0l583 640h-477l24 84h604l-23 -79l-588 -645h-123z" />
    <glyph glyph-name="eight.lntx" unicode="&#xf638;" horiz-adv-x="906" 
d="M390 -12q-153 0 -233 54t-80 137q0 49 23 88t61.5 62.5t73.5 37t74 22.5q-101 41 -101 130q0 101 96.5 159t251.5 58q121 0 196.5 -49t75.5 -121q0 -153 -185 -198q124 -56 124 -152q0 -99 -99.5 -163.5t-277.5 -64.5zM397 67q115 0 189 42.5t74 103.5q0 55 -54 89.5
t-159 34.5q-116 0 -189.5 -42t-73.5 -102q0 -56 54 -91t159 -35zM496 412q99 0 162 38t63 93q0 51 -46 82.5t-135 31.5q-99 0 -162 -38.5t-63 -93.5q0 -51 46 -82t135 -31z" />
    <glyph glyph-name="nine.lntx" unicode="&#xf639;" horiz-adv-x="793" 
d="M283 -12q-127 0 -212 29l25 83q89 -25 195 -25q144 0 241.5 74t128.5 203q-112 -77 -264 -77q-118 0 -190 57.5t-72 142.5q0 125 102 193t247 68q134 0 214.5 -69t80.5 -187q0 -223 -136.5 -357.5t-359.5 -134.5zM420 356q135 0 252 65q2 32 2 49q0 94 -54.5 140.5
t-143.5 46.5q-60 0 -110.5 -15.5t-87 -56t-36.5 -100.5q0 -59 47.5 -94t130.5 -35z" />
    <glyph glyph-name="apple" unicode="&#xf8ff;" horiz-adv-x="2282" 
d="M436 -11q-154 0 -263 108.5t-109 263.5t108.5 264t263.5 109q133 0 235 -83q102 83 235 83t235 -83q104 83 235 83t235 -83q102 83 235 83q154 0 263 -109t109 -264q0 -154 -109 -263t-263 -109q-133 0 -235 83q-104 -83 -235 -83t-235 83q-102 -83 -235 -83t-235 83
q-102 -83 -235 -83zM906 73q99 0 176 60q-79 100 -79 228q0 129 79 229q-77 60 -176 60q-98 0 -175 -60q78 -100 78 -229q0 -128 -78 -228q77 -60 175 -60zM1376 73q99 0 176 60q-79 100 -79 228q0 129 79 229q-77 60 -176 60t-176 -60q79 -100 79 -229q0 -128 -79 -228
q77 -60 176 -60zM436 73q100 0 176 60q-78 100 -78 228q0 129 78 229q-76 60 -176 60q-119 0 -203.5 -84.5t-84.5 -204.5q0 -119 84.5 -203.5t203.5 -84.5zM1846 73q119 0 203.5 84.5t84.5 203.5q0 120 -84.5 204.5t-203.5 84.5q-99 0 -176 -60q79 -100 79 -229
q0 -128 -79 -228q77 -60 176 -60zM671 194q54 75 54 167q0 93 -54 168q-53 -73 -53 -168q0 -94 53 -167zM1141 194q54 75 54 167q0 93 -54 168q-54 -75 -54 -168q0 -92 54 -167zM1611 194q54 77 54 167q0 91 -54 168q-54 -75 -54 -168q0 -92 54 -167z" />
    </font>
</defs>
</svg>
