<?xml version="1.0" standalone="no"?>
<!DOCTYPE svg PUBLIC "-//W3C//DTD SVG 1.1//EN" "http://www.w3.org/Graphics/SVG/1.1/DTD/svg11.dtd" >
<svg xmlns="http://www.w3.org/2000/svg" xmlns:xlink="http://www.w3.org/1999/xlink" version="1.1">
<metadata>
Created by FontForge 20161003 at Fri Dec  2 17:18:07 2016
 By www-data
Designed by Paul van der Laan &#38; Pieter van Rosmalen 2008. Produced by Bold Monday. For exclusive use by AUDI AG and its affiliates only.
</metadata>
<defs>
<font id="AudiTypeBold" horiz-adv-x="2716" >
  <font-face 
    font-family="AudiTypeBold"
    font-weight="700"
    font-stretch="normal"
    units-per-em="4096"
    panose-1="2 11 8 3 4 2 0 0 0 3"
    ascent="3113"
    descent="-983"
    x-height="2101"
    cap-height="2966"
    bbox="-823 -983 9085 4014"
    underline-thickness="205"
    underline-position="-614"
    unicode-range="U+000D-FB04"
  />
<missing-glyph horiz-adv-x="1090" 
d="M197 -860v3768h696v-3768h-696z" />
    <glyph glyph-name="uniFB00" unicode="ff" horiz-adv-x="3154" 
d="M1942 0v1634h-951v-1634h-565v1634h-344v467h344v246q0 199 57 350.5t165 252.5t264 152.5t354 51.5q66 0 128.5 -4.5t118.5 -12t104.5 -18t86.5 -22.5v-435q-28 6 -64 12t-79 10.5t-90.5 7.5t-98.5 3q-95 0 -166.5 -21.5t-119 -68t-71.5 -119.5t-24 -176v-209h951v246
q0 199 57 350.5t164.5 252.5t263.5 152.5t354 51.5q66 0 128.5 -4.5t118.5 -12t104.5 -18t86.5 -22.5v-435q-27 6 -63.5 12t-79 10.5t-90 7.5t-98.5 3q-95 0 -166.5 -21.5t-119 -68t-71.5 -119.5t-24 -176v-209h631v-467h-631v-1634h-565z" />
    <glyph glyph-name="fi" unicode="fi" horiz-adv-x="2871" 
d="M1974 0v1634h-983v-1634h-565v1634h-344v467h344v246q0 199 57 350.5t165 252.5t264 152.5t354 51.5q66 0 128.5 -4.5t118.5 -12t104.5 -18t86.5 -22.5v-435q-28 6 -64 12t-79 10.5t-90.5 7.5t-98.5 3q-95 0 -166.5 -21.5t-119 -68t-71.5 -119.5t-24 -176v-209h1544
v-2101h-561zM1974 2417v549h561v-549h-561z" />
    <glyph glyph-name="fl" unicode="fl" horiz-adv-x="2998" 
d="M426 0v1634h-344v467h344v246q0 199 57 350.5t165 252.5t264 152.5t354 51.5q66 0 128.5 -4.5t118.5 -12t104.5 -18t86.5 -22.5v-435q-28 6 -64 12t-79 10.5t-90.5 7.5t-98.5 3q-95 0 -166.5 -21.5t-119 -68t-71.5 -119.5t-24 -176v-209h631v-467h-631v-1634h-565z
M2867 16q-35 -12 -76.5 -21t-89 -15.5t-100.5 -9.5t-111 -3q-135 0 -233 37.5t-162 108t-94.5 172.5t-30.5 231v2589h561v-2515q0 -40 8.5 -67.5t27 -44.5t47 -24.5t68.5 -7.5q47 0 92.5 4t92.5 13v-447z" />
    <glyph glyph-name="uniFB03" unicode="ffi" horiz-adv-x="4387" 
d="M3490 0v1634h-983v-1634h-565v1634h-951v-1634h-565v1634h-344v467h344v246q0 199 57 350.5t165 252.5t264 152.5t354 51.5q66 0 128.5 -4.5t118.5 -12t104.5 -18t86.5 -22.5v-435q-28 6 -64 12t-79 10.5t-90.5 7.5t-98.5 3q-95 0 -166.5 -21.5t-119 -68t-71.5 -119.5
t-24 -176v-209h951v246q0 199 57 350.5t164.5 252.5t263.5 152.5t354 51.5q66 0 128.5 -4.5t118.5 -12t104.5 -18t86.5 -22.5v-435q-27 6 -63.5 12t-79 10.5t-90 7.5t-98.5 3q-95 0 -166.5 -21.5t-119 -68t-71.5 -119.5t-24 -176v-209h1544v-2101h-561zM3490 2417v549h561
v-549h-561z" />
    <glyph glyph-name="uniFB04" unicode="ffl" horiz-adv-x="4637" 
d="M1942 0v1634h-951v-1634h-565v1634h-344v467h344v246q0 199 57 350.5t165 252.5t264 152.5t354 51.5q66 0 128.5 -4.5t118.5 -12t104.5 -18t86.5 -22.5v-435q-28 6 -64 12t-79 10.5t-90.5 7.5t-98.5 3q-95 0 -166.5 -21.5t-119 -68t-71.5 -119.5t-24 -176v-209h951v246
q0 199 57 350.5t164.5 252.5t263.5 152.5t354 51.5q66 0 128.5 -4.5t118.5 -12t104.5 -18t86.5 -22.5v-435q-27 6 -63.5 12t-79 10.5t-90 7.5t-98.5 3q-95 0 -166.5 -21.5t-119 -68t-71.5 -119.5t-24 -176v-209h631v-467h-631v-1634h-565zM4383 16q-35 -12 -76.5 -21
t-89 -15.5t-100.5 -9.5t-111 -3q-135 0 -233 37.5t-162 108t-94.5 172.5t-30.5 231v2589h561v-2515q0 -40 8.5 -67.5t27 -44.5t47 -24.5t68.5 -7.5q47 0 92.5 4t92.5 13v-447z" />
    <glyph glyph-name=".notdef" horiz-adv-x="1090" 
d="M197 -860v3768h696v-3768h-696z" />
    <glyph glyph-name=".null" horiz-adv-x="0" 
 />
    <glyph glyph-name=".null" horiz-adv-x="0" 
 />
    <glyph glyph-name="nonmarkingreturn" unicode="&#xd;" horiz-adv-x="1049" 
 />
    <glyph glyph-name="space" unicode=" " horiz-adv-x="1049" 
 />
    <glyph glyph-name="exclam" unicode="!" horiz-adv-x="1446" 
d="M565 893l-61 385q-8 49 -17.5 116.5t-19.5 145.5t-18.5 163t-15.5 170.5t-11 167.5t-4 154v771h610v-771q0 -72 -4.5 -154t-12 -167t-17.5 -170t-20 -163t-19.5 -144.5t-16.5 -114.5l-57 -389h-316zM401 0v606h643v-606h-643z" />
    <glyph glyph-name="quotedbl" unicode="&#x22;" horiz-adv-x="1942" 
d="M434 1806l-53 213q-12 55 -28.5 123t-31 140t-24.5 143.5t-10 134.5v406h553v-406q0 -63 -9.5 -134.5t-23.5 -143.5t-29.5 -140t-27.5 -123l-54 -213h-262zM1249 1806l-53 213q-12 55 -28.5 123t-31 140t-24.5 143.5t-10 134.5v406h553v-406q0 -63 -9.5 -134.5
t-23.5 -143.5t-29.5 -140t-27.5 -123l-54 -213h-262z" />
    <glyph glyph-name="numbersign" unicode="#" 
d="M1487 184l53 561h-504l-53 -561h-459l54 561h-312v426h352l62 607h-414v426h455l49 512h459l-49 -512h503l50 512h458l-49 -512h307v-426h-348l-61 -607h409v-426h-450l-53 -561h-459zM1642 1778h-503l-62 -607h504z" />
    <glyph glyph-name="dollar" unicode="$" 
d="M1065 -238v373q-115 6 -230 23t-217.5 40t-185 50t-133.5 55v455q44 -20 106 -40t134.5 -38t153 -33t162 -26t160 -17t148.5 -6q171 0 296 20.5t206.5 62t121.5 104.5t40 149q0 57 -20 100t-59 75.5t-96.5 57.5t-131.5 47t-165 43t-196 46q-203 48 -359 108t-261.5 148
t-160 212.5t-54.5 301.5q0 153 48.5 283t147 230.5t246.5 169t348 99.5v389h451v-369q112 -6 219 -22t202 -39t173.5 -51.5t134.5 -59.5v-454q-75 32 -180 62t-221 52.5t-235.5 36t-223.5 13.5q-131 0 -229.5 -19t-164 -58t-98.5 -99.5t-33 -143.5q0 -57 20 -100t59 -75.5
t96.5 -57.5t131.5 -47t164.5 -43t196.5 -46q203 -48 359 -108t262 -148t160.5 -212.5t54.5 -301.5q0 -155 -55.5 -289.5t-167.5 -239.5t-280 -177t-394 -101v-385h-451z" />
    <glyph glyph-name="percent" unicode="%" horiz-adv-x="4391" 
d="M1069 1303q-215 0 -370.5 65t-256 180t-148.5 271.5t-48 339.5q0 178 49.5 334t151.5 272t257 183t365 67q215 0 370.5 -65.5t256 -180t148.5 -271t48 -339.5q0 -119 -22 -228.5t-66.5 -205t-112.5 -173t-159.5 -133t-207 -86t-255.5 -30.5zM1069 1696q88 0 152 33.5
t106 94.5t62 146.5t20 188.5t-20 188t-62 146t-106 94.5t-152 33.5q-87 0 -151 -33.5t-106 -94.5t-62.5 -146t-20.5 -188t20.5 -188.5t62.5 -146.5t106 -94.5t151 -33.5zM3322 -49q-215 0 -370.5 65t-256 180t-148.5 271.5t-48 339.5q0 178 49.5 334t151.5 272t257 183
t365 67q215 0 370.5 -65.5t256 -180t148.5 -271t48 -339.5q0 -178 -49.5 -334t-151.5 -272t-257 -183t-365 -67zM3322 344q87 0 151 33.5t106 94.5t62.5 146.5t20.5 188.5t-20.5 188t-62.5 146t-106 95t-151 34q-88 0 -152 -34t-106 -95t-62 -146t-20 -188t20 -188.5
t62 -146.5t106 -94.5t152 -33.5zM1049 0l1802 2966h491l-1802 -2966h-491z" />
    <glyph glyph-name="ampersand" unicode="&#x26;" horiz-adv-x="3441" 
d="M2585 0l-308 274q-106 -81 -224.5 -144.5t-245.5 -107t-259.5 -66t-265.5 -22.5q-182 0 -333 31.5t-271 88.5t-209.5 134.5t-149 169.5t-89 194.5t-29.5 209.5q0 89 18 172t53.5 160.5t87.5 148.5t120 135.5t151 122.5t180 109v0v0q-69 70 -134 149.5t-115 168t-80.5 186
t-30.5 204.5q0 104 29 197.5t84 173t135 143t182 107.5t224.5 68t262.5 24q192 0 357 -43.5t285.5 -129t189.5 -212.5t69 -295q0 -134 -45.5 -247.5t-128.5 -211t-199.5 -181t-257.5 -155.5l-20 -8l623 -561q23 55 41 116t31 127t19.5 137.5t6.5 148.5v258h876v-426h-348
q-6 -100 -25.5 -194.5t-51 -183t-74.5 -171.5t-95 -160l713 -639h-749zM1139 1307v0q-95 -49 -165.5 -102.5t-116.5 -113t-68.5 -126.5t-22.5 -142q0 -100 44.5 -177.5t122 -131t181 -81t221.5 -27.5q83 0 163 11.5t156 34.5t146 57.5t133 80.5zM1294 1843q108 52 187 102.5
t131.5 106.5t78 121.5t25.5 148.5q0 58 -24 110t-69 90t-109.5 60.5t-145.5 22.5q-87 0 -154.5 -21.5t-113 -62t-69 -98t-23.5 -129.5q0 -63 20 -119t56 -109.5t85.5 -105t108.5 -105.5l12 -12h4z" />
    <glyph glyph-name="quotesingle" unicode="'" horiz-adv-x="1126" 
d="M434 1806l-53 213q-12 55 -28.5 123t-31 140t-24.5 143.5t-10 134.5v406h553v-406q0 -63 -9.5 -134.5t-23.5 -143.5t-29.5 -140t-27.5 -123l-54 -213h-262z" />
    <glyph glyph-name="parenleft" unicode="(" horiz-adv-x="1729" 
d="M1229 -377q-130 69 -242 175.5t-204 240.5t-163 291.5t-120 328t-74 349.5t-25 356q0 178 25 357.5t74 350t120 327.5t163 291t204 240t242 175h409q-105 -74 -200.5 -184.5t-177 -247t-147 -294.5t-112 -327t-71.5 -343.5t-25 -344.5q0 -169 25 -343t71.5 -343
t112 -327.5t147 -295.5t177 -247.5t200.5 -184.5h-409z" />
    <glyph glyph-name="parenright" unicode=")" horiz-adv-x="1729" 
d="M90 -377q105 74 200.5 184.5t177 247.5t147 295.5t112 327.5t71.5 343t25 343q0 170 -25 344.5t-71.5 343.5t-112 327t-147 294.5t-177 247t-200.5 184.5h410q130 -69 242 -175t203.5 -240t163 -291t120 -327.5t73.5 -350t25 -357.5q0 -177 -25 -356t-73.5 -349.5
t-120 -328t-163 -291.5t-203.5 -240.5t-242 -175.5h-410z" />
    <glyph glyph-name="asterisk" unicode="*" horiz-adv-x="1999" 
d="M1237 1417l-115 197q-17 29 -34.5 63t-34 70.5t-31.5 74t-27 74.5q-11 -37 -25 -74.5t-30 -74t-33.5 -70.5t-34.5 -63l-114 -197l-332 193l115 196q31 59 77 124.5t99 121.5q-75 -15 -155 -22t-148 -7h-226v385h226q68 0 151 -8.5t160 -23.5q-53 55 -99.5 121.5
t-80.5 128.5l-115 196l332 193l115 -197q17 -31 34 -65.5t33 -71.5t30 -75t25 -75q12 37 27 75t31.5 75t34 71.5t34.5 65.5l115 197l332 -193l-115 -196q-17 -29 -37.5 -61t-43.5 -64t-48 -64t-51 -61q38 9 78 15t80 10t77.5 5.5t71.5 1.5h225v-385h-225q-35 0 -74.5 2
t-79.5 5.5t-80 10t-77 15.5q52 -59 99 -125t81 -125l115 -196z" />
    <glyph glyph-name="plus" unicode="+" horiz-adv-x="2458" 
d="M971 156v819h-848v491h848v820h516v-820h848v-491h-848v-819h-516z" />
    <glyph glyph-name="comma" unicode="," horiz-adv-x="1397" 
d="M160 -623l282 656l-82 573h345q89 0 159 -14.5t118 -47.5t73.5 -85t25.5 -127q0 -65 -10 -127t-30 -122.5t-51 -122t-73 -127.5t-95 -137t-117 -151l-136 -168h-409z" />
    <glyph glyph-name="hyphen" unicode="-" horiz-adv-x="1511" 
d="M201 946v553h1110v-553h-1110z" />
    <glyph glyph-name="period" unicode="." horiz-adv-x="1397" 
d="M377 0v606h643v-606h-643z" />
    <glyph glyph-name="slash" unicode="/" horiz-adv-x="2007" 
d="M74 0l1335 3105h524l-1331 -3105h-528z" />
    <glyph glyph-name="zero" unicode="0" 
d="M1356 -66q-231 0 -404.5 54.5t-299.5 154.5t-209 239.5t-132.5 310.5t-69.5 367.5t-20 409.5q0 212 21 410t71 371.5t134 317t210 246.5t298.5 159.5t400.5 56.5q230 0 403.5 -54.5t299.5 -154.5t209 -239.5t132.5 -310.5t69.5 -367.5t20 -409.5q0 -212 -21 -410
t-71 -371.5t-134 -317t-210 -246.5t-298.5 -159.5t-399.5 -56.5zM1356 397q101 0 181 34t141 98.5t104 158.5t70.5 214.5t40 266.5t12.5 314t-12.5 313.5t-40 266t-70.5 214.5t-104 158.5t-141 98.5t-181 34t-181.5 -34t-141.5 -98.5t-104 -158.5t-70 -214.5t-39.5 -266
t-12.5 -313.5t12.5 -314t39.5 -266.5t70 -214.5t104 -158.5t141 -98.5t182 -34z" />
    <glyph glyph-name="one" unicode="1" 
d="M430 0v492h668v1937l-668 -148v492l873 193h372v-2474h668v-492h-1913z" />
    <glyph glyph-name="two" unicode="2" 
d="M238 0v430l626 524q146 122 265.5 229t213.5 203.5t162.5 184t113.5 171.5t67 165.5t22 165.5q0 101 -33 187.5t-103.5 149.5t-180 98.5t-261.5 35.5q-118 0 -235.5 -18t-225.5 -47t-203 -65t-167 -71v475q64 40 154 78.5t201.5 68.5t244 48t281.5 18q205 0 368 -34.5
t288 -96.5t214 -148t146 -189.5t83.5 -220.5t26.5 -241q0 -148 -41.5 -284.5t-115.5 -265t-175 -249t-220.5 -235t-252 -224.5t-268.5 -216l-197 -152h1401v-475h-2199z" />
    <glyph glyph-name="three" unicode="3" 
d="M319 582q72 -36 173.5 -65.5t217.5 -50.5t240 -32.5t242 -11.5q152 0 267.5 31.5t193.5 88t117.5 134.5t39.5 172q0 103 -40.5 185.5t-124.5 140.5t-212 89t-303 31h-352v492h352q129 0 242 20.5t197 65t132 114.5t48 168q0 72 -20 128.5t-57 100t-88 74t-113 50
t-132.5 28.5t-146.5 9q-118 0 -231 -13t-216 -35.5t-193.5 -53.5t-162.5 -66v475q43 25 102 48.5t129 43.5t147.5 36.5t158 27.5t160.5 17.5t155 6.5q269 0 475.5 -60t346.5 -167t212 -255t72 -325q0 -121 -30.5 -223t-87.5 -185.5t-139 -150t-185 -117.5q124 -54 218 -124
t157.5 -160t95.5 -200.5t32 -244.5q0 -130 -34.5 -246t-102 -214.5t-167 -177t-229.5 -133.5t-289 -84.5t-345 -29.5q-149 0 -287.5 12t-257.5 34.5t-215.5 54t-161.5 71.5v476z" />
    <glyph glyph-name="four" unicode="4" 
d="M1520 0v582h-1459v381l1500 2003h536v-1913h504v-471h-504v-582h-577zM1520 1720q0 164 8 293t20 232q-46 -93 -109.5 -202t-156.5 -233l-565 -757h803v667z" />
    <glyph glyph-name="five" unicode="5" 
d="M360 582q72 -36 167 -65.5t203.5 -50.5t226 -32.5t235.5 -11.5q152 0 261 31.5t179.5 90t103.5 141t33 183.5q0 92 -40.5 163t-110 124t-162.5 90.5t-197.5 62t-215.5 39t-217 22.5t-200.5 10.5t-166.5 4.5l53 1582h1769v-476h-1208l-24 -626q104 -8 215.5 -23.5
t223.5 -41.5t221 -64t206.5 -92t180.5 -126t143 -165.5t94 -210t34 -260.5q0 -130 -26.5 -251t-83.5 -226t-146 -191.5t-214 -148.5t-288 -96t-368 -34q-149 0 -281 12t-244 34.5t-202 54t-154 71.5v476z" />
    <glyph glyph-name="six" unicode="6" 
d="M2335 2429q-65 29 -144 54.5t-167.5 44t-183 29.5t-189.5 11q-206 0 -348.5 -58t-235 -168t-142 -268t-69.5 -358q60 51 130 93t149 72.5t165.5 47.5t178.5 17q163 0 301.5 -29t252 -85.5t200.5 -140.5t146 -194t89.5 -246t30.5 -297q0 -143 -33.5 -274.5t-98.5 -244.5
t-159.5 -205.5t-217 -158t-271.5 -101.5t-322 -36q-260 0 -469.5 92t-357.5 271t-228 443t-80 608q0 411 90 725.5t265 527.5t431.5 321.5t589.5 108.5q106 0 207 -10t191 -27.5t166 -40.5t133 -49v-475zM840 1303q0 -153 17.5 -279t50.5 -226.5t81.5 -175t110.5 -124.5
t136.5 -75t160.5 -26q129 -2 227 36t164 108.5t99.5 171t33.5 225.5q0 133 -32.5 235t-98.5 171t-166 104t-235 35q-89 0 -165 -13t-142.5 -37t-125.5 -57t-116 -73z" />
    <glyph glyph-name="seven" unicode="7" 
d="M590 0l1163 2490h-1434v476h2073v-402l-1180 -2564h-622z" />
    <glyph glyph-name="eight" unicode="8" 
d="M1970 1556q95 -35 171.5 -81t136 -102t102 -121t70 -138.5t40.5 -154.5t13 -168q0 -122 -30.5 -233t-93 -206t-156.5 -172.5t-221 -132t-287.5 -84t-354.5 -29.5q-196 0 -356.5 29.5t-288 84t-222 132t-157 172.5t-93 206t-30.5 233q0 87 14 168t43 154.5t73.5 138.5
t105.5 121t139 102t174 81q-111 49 -193 119t-136.5 156.5t-81.5 187.5t-27 213q0 192 69 341t201.5 250.5t325 154.5t440.5 53q246 0 438 -53t324 -154.5t201 -250.5t69 -341q0 -112 -25.5 -213t-78 -187.5t-131.5 -156.5t-187 -119zM1901 840q0 95 -32.5 180.5t-99.5 150
t-169 102.5t-240 38q-140 0 -242.5 -38t-170 -102.5t-100 -150t-32.5 -180.5t34 -177.5t102 -143.5t170 -95.5t239 -34.5q135 0 236.5 34.5t169 95.5t101.5 143.5t34 177.5zM1815 2187q0 95 -31.5 170.5t-90.5 128t-143 80t-190 27.5q-108 0 -193.5 -27.5t-145.5 -80
t-92 -128t-32 -170.5t30.5 -176t89 -140t145 -92.5t198.5 -33.5t197 33.5t142.5 92.5t86.5 140t29 176z" />
    <glyph glyph-name="nine" unicode="9" 
d="M377 537q64 -29 143.5 -54.5t168 -44.5t183 -30t189.5 -11q210 0 354.5 61t237 176.5t140.5 281t67 374.5q-60 -51 -131 -93t-150.5 -72t-166.5 -47t-179 -17q-244 0 -434 63t-320 186t-198 304t-68 418q0 140 33.5 268.5t98.5 239.5t159.5 201.5t217 155t271.5 99.5
t322 35q259 0 469 -92t357.5 -271t227.5 -442.5t80 -607.5q0 -412 -90 -726.5t-264.5 -527.5t-431.5 -321.5t-590 -108.5q-106 0 -206.5 10t-190.5 27.5t-166 40.5t-133 49v476zM1872 1704q-3 145 -22.5 265.5t-53.5 216t-82.5 167t-109.5 119t-133.5 71.5t-155.5 25
q-129 1 -227 -35t-164 -104t-99.5 -164.5t-33.5 -216.5q0 -129 32.5 -227t98.5 -164t166 -99.5t235 -33.5q87 0 162.5 12.5t142.5 36t127 56.5t117 75z" />
    <glyph glyph-name="colon" unicode=":" horiz-adv-x="1397" 
d="M377 1495v606h643v-606h-643zM377 0v606h643v-606h-643z" />
    <glyph glyph-name="semicolon" unicode=";" horiz-adv-x="1397" 
d="M377 1495v606h643v-606h-643zM160 -623l282 656l-82 573h345q89 0 159 -14.5t118 -47.5t73.5 -85t25.5 -127q0 -65 -10 -127t-30 -122.5t-51 -122t-73 -127.5t-95 -137t-117 -151l-136 -168h-409z" />
    <glyph glyph-name="less" unicode="&#x3c;" horiz-adv-x="2458" 
d="M1483 184l-1258 1028l1258 1029h729l-1258 -1029l1258 -1028h-729z" />
    <glyph glyph-name="equal" unicode="=" horiz-adv-x="2458" 
d="M172 479v492h2114v-492h-2114zM172 1462v492h2114v-492h-2114z" />
    <glyph glyph-name="greater" unicode="&#x3e;" horiz-adv-x="2458" 
d="M963 184h-730l1266 1028l-1266 1029h730l1265 -1029z" />
    <glyph glyph-name="question" unicode="?" horiz-adv-x="2195" 
d="M643 893l-61 446l307 205q117 78 208.5 151t155.5 149t97.5 159.5t33.5 183.5q0 88 -34.5 154.5t-97.5 111.5t-151 68t-196 23q-64 0 -129.5 -6.5t-130.5 -18.5t-128.5 -28.5t-123 -36.5t-113.5 -43t-100 -48v476q64 41 150 76.5t186.5 61t211.5 40t226 14.5
q152 0 287 -25t249.5 -72.5t205.5 -116t154.5 -156t97.5 -192t34 -224.5t-29 -225t-79.5 -197t-120 -173t-150 -153.5t-169 -138t-177.5 -125.5l-94 -62l-41 -278h-479zM573 0v606h644v-606h-644z" />
    <glyph glyph-name="at" unicode="@" horiz-adv-x="4415" 
d="M2925 -709q-53 -25 -116 -46.5t-132.5 -40.5t-144.5 -34t-152.5 -25.5t-156 -16t-155.5 -5.5q-297 0 -548.5 57t-456 164.5t-360.5 263t-261 352.5t-159 433t-54 504q0 309 69 588t198 517t313 430t414.5 326.5t502.5 207.5t576 73q320 0 584.5 -55t474 -156.5
t364.5 -244.5t257.5 -318.5t153 -379.5t50.5 -427q0 -224 -40.5 -415.5t-114 -348.5t-175 -277t-223.5 -202t-260.5 -124t-284.5 -42q-112 0 -210.5 20.5t-179 62t-139.5 103t-93 142.5q-42 -69 -102 -129t-140 -104t-180 -69.5t-221 -25.5q-161 0 -287.5 60.5t-213.5 169.5
t-133 259t-46 330q0 162 32 321t95 303t156.5 266.5t216.5 212.5t276 141t334 51q87 0 166.5 -12t148.5 -34.5t127 -54t103 -71.5l53 110h438l-311 -1462q-3 -16 -5.5 -35t-2.5 -35q0 -37 10.5 -69t32.5 -56t57 -37.5t84 -13.5q68 0 137.5 29.5t133 87.5t118.5 145t96 203
t64.5 260t23.5 316q0 187 -35.5 350.5t-109.5 299t-188 241.5t-272.5 179t-362.5 111.5t-457 38.5q-233 0 -443.5 -55.5t-390 -161t-324 -257.5t-246 -345.5t-156 -425.5t-54.5 -496q0 -217 38.5 -405t115.5 -343t191.5 -275.5t266 -203.5t340 -126t412.5 -43q120 0 240 10
t233 30t215 49.5t185 69.5v-385zM2679 1655q-37 14 -80.5 27t-93.5 23.5t-107 17t-121 6.5q-97 0 -180 -29.5t-150 -83t-118.5 -128t-86.5 -165t-53 -194.5t-18 -216q0 -90 20 -168.5t63 -136.5t111 -91.5t163 -33.5q69 0 131.5 13t118 36.5t104 56t88.5 70.5z" />
    <glyph glyph-name="A" unicode="A" horiz-adv-x="2822" 
d="M2171 0l-213 639h-1127l-208 -639h-590l1069 2966h618l1069 -2966h-618zM1536 1917q-43 133 -78.5 265t-60.5 272q-25 -140 -60.5 -272t-79.5 -265l-270 -811h815z" />
    <glyph glyph-name="B" unicode="B" horiz-adv-x="2703" 
d="M369 0v2966h1003q247 0 430.5 -52t304.5 -152t180.5 -246t59.5 -333q0 -117 -22.5 -213.5t-65.5 -174.5t-105.5 -139.5t-142.5 -107.5q114 -49 203 -121.5t150.5 -166t93.5 -207.5t32 -246q0 -120 -25.5 -226t-79 -196t-136 -161t-196 -121t-260 -76.5t-327.5 -26.5
h-1097zM1454 459q118 0 202 28t137 79.5t78 125t25 164.5q0 95 -26.5 175t-85.5 137.5t-152.5 89.5t-226.5 32h-455v-831h504zM1303 1724q124 0 210 28t139 80.5t77 128.5t24 173q0 83 -24.5 151t-75.5 116.5t-130 75t-188 26.5h-385v-779h353z" />
    <glyph glyph-name="C" unicode="C" horiz-adv-x="2544" 
d="M2396 102q-91 -40 -184 -71t-201 -52.5t-238 -33t-294 -11.5q-214 0 -391 48.5t-317.5 141.5t-245.5 228t-174 308.5t-103.5 383t-34.5 451.5q0 226 35.5 428t107.5 372.5t180 307t252.5 231.5t326.5 146t401 51q135 0 256 -12.5t227.5 -36t197.5 -57t166 -74.5v-479
q-75 37 -163.5 66.5t-190 50t-217 31.5t-244.5 11q-125 0 -227.5 -32t-184 -93.5t-142 -151.5t-100.5 -205t-59.5 -254t-19.5 -300q0 -192 20.5 -346t62 -272.5t104 -203t146.5 -138.5t189 -79.5t232 -25.5q135 0 246.5 9.5t209.5 28t188.5 47t182.5 67.5v-480z" />
    <glyph glyph-name="D" unicode="D" horiz-adv-x="3006" 
d="M369 0v2966h1048q258 0 459 -51t352 -145t256 -227.5t170 -298t94 -357t29 -404.5t-31.5 -404.5t-99 -357t-174.5 -298t-258 -227.5t-349 -145t-448 -51h-1048zM1397 475q124 0 230 27t193 81.5t154 137.5t112.5 195t69 253.5t23.5 313.5t-23.5 313.5t-69 253.5
t-112.5 194.5t-154 137t-193 81.5t-230 27h-451v-2015h451z" />
    <glyph glyph-name="E" unicode="E" horiz-adv-x="2478" 
d="M369 0v2966h1872v-476h-1295v-733h1114v-475h-1114v-807h1311v-475h-1888z" />
    <glyph glyph-name="F" unicode="F" horiz-adv-x="2314" 
d="M369 0v2966h1765v-476h-1188v-811h1077v-475h-1077v-1204h-577z" />
    <glyph glyph-name="G" unicode="G" horiz-adv-x="2982" 
d="M2118 1430h577v-1291q-72 -31 -149 -58t-160 -50t-173 -41t-187.5 -30.5t-203.5 -19t-220 -6.5q-358 0 -620 101t-433 298.5t-253.5 489t-82.5 672.5q0 237 40.5 443.5t120 377t198 303.5t274.5 224.5t349 139.5t423 48q95 0 183.5 -5.5t169.5 -17t155.5 -27.5t142.5 -37
t129.5 -46.5t116.5 -54.5v-484q-81 40 -178 72t-206.5 54t-230 34t-249.5 12q-203 0 -359 -65t-262 -195t-160.5 -324t-54.5 -452q0 -204 27 -362t77.5 -276.5t123.5 -200t164.5 -131.5t201 -72.5t233.5 -22.5q71 0 135 2.5t123 7.5t113 12.5t105 18.5v959z" />
    <glyph glyph-name="H" unicode="H" horiz-adv-x="3064" 
d="M2118 0v1286h-1172v-1286h-577v2966h577v-1205h1172v1205h577v-2966h-577z" />
    <glyph glyph-name="I" unicode="I" horiz-adv-x="1749" 
d="M246 0v459h340v2048h-340v459h1257v-459h-340v-2048h340v-459h-1257z" />
    <glyph glyph-name="J" unicode="J" horiz-adv-x="1516" 
d="M-74 -135q22 -5 45 -8t48.5 -5t53 -3t58.5 -1q121 0 205 41t135.5 119t74.5 191.5t23 259.5v2048h-422v459h1000v-2573q0 -261 -67.5 -455t-194.5 -322t-310 -191.5t-415 -63.5q-37 0 -70.5 1.5t-63 5t-55 9t-45.5 13.5v475z" />
    <glyph glyph-name="K" unicode="K" horiz-adv-x="2757" 
d="M2023 0l-1077 1348v-1348h-577v2966h577v-1303l1004 1303h708l-938 -1188q-71 -89 -135.5 -157t-122.5 -114q32 -23 65.5 -51.5t68 -63t70.5 -75t75 -88.5l991 -1229h-709z" />
    <glyph glyph-name="L" unicode="L" horiz-adv-x="2175" 
d="M369 0v2966h573v-2491h1159v-475h-1732z" />
    <glyph glyph-name="M" unicode="M" horiz-adv-x="3740" 
d="M2826 0v1638q0 127 11 301.5t26 317.5q-53 -149 -120.5 -299.5t-141.5 -274.5l-557 -938h-352l-557 938q-37 61 -72 128.5t-68 142t-63 149t-55 146.5q15 -149 25.5 -310t10.5 -301v-1638h-544v2966h606l700 -1205q50 -86 103.5 -198t93.5 -236q37 123 92 236.5
t104 197.5l701 1205h602v-2966h-545z" />
    <glyph glyph-name="N" unicode="N" horiz-adv-x="3142" 
d="M2187 0l-1073 1712q-53 84 -111.5 201t-117.5 250q7 -66 14 -131t12 -124t8 -109t3 -87v-1712h-553v2966h585l1074 -1713q26 -41 54 -92.5t56.5 -109.5t57.5 -121t57 -127q-8 64 -14 128.5t-10.5 123t-6.5 109.5t-2 89v1713h553v-2966h-586z" />
    <glyph glyph-name="O" unicode="O" horiz-adv-x="3056" 
d="M1528 -66q-258 0 -454.5 56t-341 157.5t-241 243t-155 314t-83 369.5t-24.5 409t27 409t88 369t159.5 314t243 243t338 157t443.5 56q258 0 454.5 -56t340.5 -157t241 -243t155 -314t82.5 -369t24.5 -409t-27 -409t-87.5 -369.5t-159.5 -314t-243.5 -243t-337.5 -157.5
t-443 -56zM1528 422q124 0 224 32t177.5 94.5t134 153.5t93 209t54 261.5t17.5 310.5t-17.5 310.5t-54 261t-93 209t-134 153.5t-177.5 94.5t-224 32.5t-224 -32.5t-178 -94.5t-134.5 -153.5t-93 -209t-54 -261t-17.5 -310.5t17.5 -310.5t54 -261.5t93 -209t134.5 -153.5
t178 -94.5t224 -32z" />
    <glyph glyph-name="P" unicode="P" horiz-adv-x="2556" 
d="M369 0v2966h1032q174 0 317.5 -28.5t257.5 -84t198 -137.5t140 -189t83.5 -238.5t27.5 -285.5q0 -155 -28.5 -287.5t-86.5 -241.5t-146 -193t-207 -141t-269 -86.5t-332 -29.5h-414v-1024h-573zM1298 1475q143 0 244.5 37.5t166.5 106.5t95.5 166.5t30.5 217.5
q0 118 -29.5 213.5t-90 162.5t-152 103.5t-215.5 36.5h-406v-1044h356z" />
    <glyph glyph-name="Q" unicode="Q" horiz-adv-x="3056" 
d="M2273 -549q-57 0 -96 5t-69 17.5t-56 33t-57 51.5l-377 381q-22 0 -45.5 -2.5t-44.5 -2.5q-258 0 -454.5 56t-341 157.5t-241 243t-155 314t-83 369.5t-24.5 409t27 409t88 369t159.5 314t243 243t338 157t443.5 56q258 0 454.5 -56t340.5 -157t241 -243t155 -314
t82.5 -369t24.5 -409q0 -240 -34 -459t-113.5 -404.5t-209 -329.5t-319.5 -233q49 -21 96.5 -54.5t100.5 -88.5l459 -463h-533zM1528 422q124 0 224 32t177.5 94.5t134 153.5t93 209t54 261.5t17.5 310.5t-17.5 310.5t-54 261t-93 209t-134 153.5t-177.5 94.5t-224 32.5
t-224 -32.5t-178 -94.5t-134.5 -153.5t-93 -209t-54 -261t-17.5 -310.5t17.5 -310.5t54 -261.5t93 -209t134.5 -153.5t178 -94.5t224 -32z" />
    <glyph glyph-name="R" unicode="R" horiz-adv-x="2744" 
d="M2028 0l-582 954q-28 46 -51 80t-45 58.5t-45 39.5t-51.5 24t-64.5 12t-83 3h-164v-1171h-573v2966h1007q255 0 451 -53t328.5 -162t201 -274.5t68.5 -391.5q0 -169 -48 -305t-129 -237.5t-188 -169t-225 -99.5q65 -31 117.5 -80.5t95.5 -120.5l655 -1073h-675z
M1323 1610q118 0 213 28.5t161.5 87.5t102 148t35.5 211q0 108 -35 189t-101 135.5t-161 82t-215 27.5h-381v-909h381z" />
    <glyph glyph-name="S" unicode="S" horiz-adv-x="2540" 
d="M205 582q72 -36 171 -65.5t213 -50.5t237 -32.5t243 -11.5q163 0 284.5 26.5t202 78t120.5 127t40 173.5q0 55 -13 101.5t-41.5 86t-75.5 73t-114.5 63.5t-158 57t-207.5 54q-138 32 -257.5 74t-218 98t-174.5 126.5t-128.5 159t-79.5 196.5t-27 238t25 245.5t80.5 213
t143.5 175t215 131.5t295.5 83t383.5 29q126 0 247 -11.5t228 -33t197 -53.5t155 -74v-475q-74 35 -170.5 64.5t-205.5 50.5t-224.5 33t-226.5 12q-132 0 -231 -26.5t-165 -76.5t-99 -122.5t-33 -164.5q0 -56 13 -102t42.5 -84.5t76.5 -70t115 -60t159 -54t208 -50.5
q145 -32 267.5 -74.5t220.5 -99t172.5 -127.5t124.5 -159.5t75 -196t25 -236.5q0 -131 -31 -249.5t-95 -219t-163 -181.5t-234 -138t-308 -87.5t-386 -30.5q-147 0 -283.5 12t-254.5 34.5t-213.5 54t-161.5 71.5v476z" />
    <glyph glyph-name="T" unicode="T" horiz-adv-x="2273" 
d="M848 0v2490h-766v476h2109v-476h-766v-2490h-577z" />
    <glyph glyph-name="U" unicode="U" horiz-adv-x="2941" 
d="M2044 2966h577v-1954q0 -151 -18.5 -290t-66.5 -259t-130.5 -217.5t-210.5 -166.5t-306.5 -107t-418.5 -38q-239 0 -417.5 38t-306.5 107t-210.5 166.5t-131 217.5t-67 258.5t-18.5 290.5v1954h578v-1872q0 -191 32 -319.5t101 -207t178 -112t262 -33.5q154 0 263 33.5
t178 112t101 207t32 319.5v1872z" />
    <glyph glyph-name="V" unicode="V" horiz-adv-x="2740" 
d="M1069 0l-1036 2966h647l586 -1905q31 -101 60.5 -203t53.5 -207q22 106 49.5 207t61.5 203l602 1905h614l-1036 -2966h-602z" />
    <glyph glyph-name="W" unicode="W" horiz-adv-x="4321" 
d="M2724 0l-496 1892q-8 26 -16 61.5t-17 78.5t-18 91.5t-18 100.5q-9 -52 -18.5 -100.5t-18 -91.5t-16 -78.5t-13.5 -61.5l-496 -1892h-655l-893 2966h615l507 -1913q9 -36 20 -86t22 -109.5t22 -126t22 -133.5q12 67 25.5 133.5t27 126t25.5 109.5t21 86l516 1913h577
l517 -1913q9 -36 21 -86t25 -109.5t26.5 -126t25.5 -133.5q9 67 19.5 133.5t21.5 126t22.5 109.5t22.5 86l508 1913h614l-893 -2966h-655z" />
    <glyph glyph-name="X" unicode="X" horiz-adv-x="2630" 
d="M1950 0l-553 942q-14 23 -26.5 47t-24 49t-22.5 51t-21 54q-9 -28 -20.5 -54t-24 -51t-25.5 -49t-25 -47l-553 -942h-647l967 1520l-922 1446h672l504 -857q12 -23 24.5 -47.5t23.5 -49.5t22 -51t20 -52q11 26 22.5 52t23.5 51t25 49.5t27 47.5l508 857h647l-921 -1446
l970 -1520h-671z" />
    <glyph glyph-name="Y" unicode="Y" horiz-adv-x="2617" 
d="M1020 0v1126l-1004 1840h668l438 -934q28 -60 54 -117t49.5 -111t44 -106t37.5 -101q17 49 37.5 101t44 106t50.5 111t56 117l438 934h668l-1004 -1840v-1126h-577z" />
    <glyph glyph-name="Z" unicode="Z" horiz-adv-x="2499" 
d="M156 0v442l1454 2048h-1405v476h2076v-443l-1450 -2048h1512v-475h-2187z" />
    <glyph glyph-name="bracketleft" unicode="[" horiz-adv-x="1729" 
d="M532 -381v3486h918v-307h-430v-2872h430v-307h-918z" />
    <glyph glyph-name="backslash" unicode="\" horiz-adv-x="2007" 
d="M1405 0l-1331 3105h524l1335 -3105h-528z" />
    <glyph glyph-name="bracketright" unicode="]" horiz-adv-x="1729" 
d="M279 -381v307h430v2872h-430v307h917v-3486h-917z" />
    <glyph glyph-name="asciicircum" unicode="^" horiz-adv-x="1868" 
d="M1315 1794l-381 754l-381 -754h-479l557 1172h610l553 -1172h-479z" />
    <glyph glyph-name="underscore" unicode="_" horiz-adv-x="1761" 
d="M-41 -492v492h1843v-492h-1843z" />
    <glyph glyph-name="grave" unicode="`" horiz-adv-x="1868" 
d="M1024 2408l-606 648h647l385 -648h-426z" />
    <glyph glyph-name="a" unicode="a" horiz-adv-x="2286" 
d="M1483 0l-29 160q-60 -51 -128.5 -92.5t-147 -71t-167 -46t-188.5 -16.5q-147 0 -268.5 45t-208.5 127t-134.5 198t-47.5 257q0 123 32.5 222t96.5 176t158 132.5t217 91.5t274 53t328 17q34 0 63.5 -0.5t54 -1.5t46.5 -2v45q0 102 -24 174t-77 118t-136.5 67.5
t-201.5 21.5q-97 0 -188 -9t-175.5 -26t-161.5 -41t-146 -55v447q66 37 150 68.5t181 54.5t204.5 36t221.5 13q221 0 391.5 -46.5t286.5 -147.5t176 -260.5t60 -385.5v-1323h-512zM1434 889h-45q-165 0 -287.5 -14.5t-203.5 -47t-121 -84t-40 -125.5q0 -52 17.5 -98
t54 -80.5t93 -54.5t134.5 -20q58 0 112.5 8.5t104.5 24.5t95.5 37.5t85.5 47.5v406z" />
    <glyph glyph-name="b" unicode="b" horiz-adv-x="2556" 
d="M336 0v3105h561v-1151q49 49 109.5 88.5t133 67t158 42.5t185.5 15q210 0 376.5 -74t282 -215.5t177 -348.5t61.5 -472q0 -260 -66 -467.5t-191 -353.5t-305 -224t-409 -78q-91 0 -168 13t-143.5 39.5t-125 65.5t-112.5 91l-37 -143h-487zM897 512q43 -26 91 -45.5
t101 -32t111 -18.5t123 -6q126 0 217 49t150.5 134.5t87.5 201t28 249.5t-29 252t-88.5 206t-151.5 139t-218 51q-65 0 -122.5 -6.5t-110 -19.5t-99.5 -33t-90 -48v-1073z" />
    <glyph glyph-name="c" unicode="c" horiz-adv-x="1913" 
d="M1782 57q-59 -27 -134.5 -49t-162.5 -37.5t-183 -23.5t-196 -8q-227 0 -402 77.5t-294 221.5t-180.5 348.5t-61.5 457.5q0 179 27.5 331.5t82.5 277t137 220t190.5 160t244 97.5t297.5 33q80 0 169 -8t173.5 -22.5t157 -35t118.5 -45.5v-459q-55 20 -115 35.5t-126 26
t-138.5 15.5t-152.5 5q-126 0 -218.5 -46t-153.5 -127.5t-90.5 -194.5t-29.5 -246q0 -134 30 -250.5t91.5 -202.5t155 -136t219.5 -50q81 0 155.5 5.5t142.5 16t129.5 25.5t117.5 35v-447z" />
    <glyph glyph-name="d" unicode="d" horiz-adv-x="2548" 
d="M1733 0l-50 180q-49 -55 -109.5 -100.5t-135.5 -77.5t-165.5 -50t-199.5 -18q-210 0 -378 77t-285 221t-179.5 349.5t-62.5 462.5q0 269 64.5 478t187.5 352.5t302 218t408 74.5q78 0 149 -9.5t135.5 -28t123.5 -47t113 -67.5v1090h561v-3105h-479zM1651 1585
q-45 28 -94.5 48t-104.5 33t-113.5 19.5t-121.5 6.5q-126 0 -216 -49t-148 -135t-85 -202t-27 -249q0 -134 30 -252t91.5 -205.5t155 -138.5t219.5 -51q63 0 120 6t108.5 18.5t97.5 32t88 45.5v1073z" />
    <glyph glyph-name="e" unicode="e" horiz-adv-x="2224" 
d="M1950 86q-72 -34 -151 -61t-170 -46t-196 -29.5t-229 -10.5q-172 0 -316 34.5t-259.5 101t-202.5 162t-145 218t-87.5 269.5t-29.5 316q0 153 22 296t69.5 268t122.5 228.5t180.5 178t243.5 115.5t312 41q179 0 319.5 -42.5t246.5 -117t180 -177t120 -222.5t67 -253.5
t21 -269.5q0 -18 -1 -44t-2.5 -54t-3.5 -54t-5 -44h-1331q7 -106 41 -192.5t99 -147.5t165 -94t240 -33q94 0 186.5 7.5t179.5 21t166.5 33.5t147.5 44v-442zM1507 1286q-8 103 -35.5 185t-76.5 139.5t-119 88t-162 30.5t-161 -30.5t-116 -88t-73.5 -139.5t-34.5 -185h778z
" />
    <glyph glyph-name="f" unicode="f" horiz-adv-x="1638" 
d="M426 0v1634h-344v467h344v246q0 199 57 350.5t165 252.5t264 152.5t354 51.5q66 0 128.5 -4.5t118.5 -12t104.5 -18t86.5 -22.5v-435q-28 6 -64 12t-79 10.5t-90.5 7.5t-98.5 3q-95 0 -166.5 -21.5t-119 -68t-71.5 -119.5t-24 -176v-209h631v-467h-631v-1634h-565z" />
    <glyph glyph-name="g" unicode="g" horiz-adv-x="2556" 
d="M1659 143q-49 -48 -108 -86.5t-130 -65.5t-155.5 -42t-184.5 -15q-210 0 -378 77t-285 221t-179.5 349.5t-62.5 462.5q0 269 64.5 478t188 352.5t302.5 218t408 74.5q89 0 167 -12.5t146.5 -37t129 -61.5t114.5 -86l37 131h487v-2044q0 -267 -74 -463t-214.5 -324
t-344 -190.5t-461.5 -62.5q-128 0 -240.5 10.5t-211 30.5t-182 49t-152.5 66v458q66 -27 147 -51t173.5 -42t193.5 -28t207 -10q150 0 262.5 27.5t187 90.5t111.5 165.5t37 253.5v106zM1659 1585q-45 28 -94.5 48t-104 33t-113.5 19.5t-122 6.5q-126 0 -216 -49t-147.5 -135
t-84.5 -202t-27 -249q0 -134 30 -252t91.5 -205.5t154.5 -138.5t219 -51q63 0 120 6t108.5 18.5t97.5 32t88 45.5v1073z" />
    <glyph glyph-name="h" unicode="h" horiz-adv-x="2568" 
d="M1720 0v1303q0 97 -24.5 167.5t-73 117t-120.5 69t-167 22.5q-65 0 -124.5 -7.5t-114.5 -22t-104.5 -36t-94.5 -48.5v-1565h-561v3105h561v-1147q61 52 129.5 91t145.5 65.5t164.5 39.5t187.5 13q133 0 241 -25.5t192 -74t145 -118t101 -157.5t59 -192.5t19 -223.5v-1376
h-561z" />
    <glyph glyph-name="i" unicode="i" horiz-adv-x="1233" 
d="M336 0v2101h561v-2101h-561zM336 2417v549h561v-549h-561z" />
    <glyph glyph-name="j" unicode="j" horiz-adv-x="1233" 
d="M-274 -471q31 -6 72 -11t100 -5q100 0 181 31t138 99.5t88 176.5t31 262v2019h561v-2015q0 -273 -67 -470.5t-190.5 -325t-297.5 -188t-387 -60.5q-29 0 -61.5 3t-63.5 7.5t-58.5 11t-45.5 14.5v451zM336 2417v549h561v-549h-561z" />
    <glyph glyph-name="k" unicode="k" horiz-adv-x="2363" 
d="M1647 0l-750 950v-950h-561v3105h561v-1852l733 848h668l-676 -782q-26 -29 -53.5 -56t-56.5 -52t-58.5 -48t-60.5 -45q32 -23 63 -49.5t60.5 -56t59 -61.5t58.5 -66l709 -885h-696z" />
    <glyph glyph-name="l" unicode="l" horiz-adv-x="1360" 
d="M1229 16q-35 -12 -76.5 -21t-89 -15.5t-100.5 -9.5t-111 -3q-135 0 -233 37.5t-162 108t-94.5 172.5t-30.5 231v2589h561v-2515q0 -40 8.5 -67.5t27 -44.5t47 -24.5t68.5 -7.5q47 0 92.5 4t92.5 13v-447z" />
    <glyph glyph-name="m" unicode="m" horiz-adv-x="3953" 
d="M3105 0v1303q0 97 -24.5 167.5t-73 117t-120.5 69t-167 22.5q-65 0 -124.5 -7.5t-114.5 -22t-105 -36t-95 -48.5v-123v-123v-1319h-561v1303q0 97 -24.5 167.5t-73 117t-120.5 69t-167 22.5q-65 0 -124.5 -7.5t-114.5 -22t-104.5 -36t-94.5 -48.5v-1565h-561v2101h487
l45 -172q64 58 135 102.5t151.5 74.5t172 45.5t197.5 15.5q115 0 211.5 -19.5t174.5 -57t139 -91.5t105 -123q69 69 151.5 123t177 91.5t201 57t224.5 19.5q133 0 241 -25.5t192.5 -74t145.5 -118t101 -157.5t59 -192.5t19 -223.5v-1376h-561z" />
    <glyph glyph-name="n" unicode="n" horiz-adv-x="2568" 
d="M1720 0v1303q0 97 -24.5 167.5t-73 117t-120.5 69t-167 22.5q-65 0 -124.5 -7.5t-114.5 -22t-104.5 -36t-94.5 -48.5v-1565h-561v2101h487l45 -172q64 58 135 102.5t151.5 74.5t172 45.5t197.5 15.5q133 0 241 -25.5t192 -74t145 -118t101 -157.5t59 -192.5t19 -223.5
v-1376h-561z" />
    <glyph glyph-name="o" unicode="o" horiz-adv-x="2433" 
d="M1217 -66q-188 0 -339.5 37.5t-268 107.5t-200 169.5t-137 223.5t-79 269.5t-25.5 307.5q0 163 26.5 309t82 270t140.5 224t201.5 170t265.5 107.5t333 37.5q188 0 339 -37.5t267.5 -107.5t200 -169.5t137 -223t79 -269t25.5 -307.5q0 -163 -26.5 -309.5t-82 -270.5
t-140.5 -224t-201.5 -170t-265.5 -107.5t-332 -37.5zM1217 389q132 0 222 52.5t145.5 142.5t79.5 211t24 258q0 136 -24 256.5t-79.5 209.5t-145.5 141t-222 52t-222.5 -52.5t-146 -142.5t-79.5 -211t-24 -257q0 -137 24 -257t79.5 -209.5t146 -141.5t222.5 -52z" />
    <glyph glyph-name="p" unicode="p" horiz-adv-x="2552" 
d="M336 -934v3035h487l45 -176q49 55 111 100t138 76.5t167 48.5t199 17q210 0 376.5 -74t282 -215.5t177 -348.5t61.5 -472q0 -260 -66 -467.5t-191 -353.5t-305 -224t-409 -78q-78 0 -148.5 9.5t-134 28t-120.5 46t-109 64.5v-1016h-561zM897 512q43 -26 91 -45.5t101 -32
t111 -18.5t123 -6q126 0 217 49t150.5 134.5t87.5 201t28 249.5t-29 252t-88.5 206t-151.5 139t-218 51q-65 0 -122.5 -6.5t-110 -19.5t-99.5 -33t-90 -48v-1073z" />
    <glyph glyph-name="q" unicode="q" horiz-adv-x="2556" 
d="M1659 -934v1077q-49 -48 -108 -86.5t-130 -65.5t-155.5 -42t-184.5 -15q-210 0 -378 77t-285 221t-179.5 349.5t-62.5 462.5q0 269 64.5 478t188 352.5t302.5 218t408 74.5q89 0 167 -12.5t146.5 -37t129 -61.5t114.5 -86l37 131h487v-3035h-561zM1659 1585
q-45 28 -94.5 48t-104 33t-113.5 19.5t-122 6.5q-126 0 -216 -49t-147.5 -135t-84.5 -202t-27 -249q0 -134 30 -252t91.5 -205.5t154.5 -138.5t219 -51q63 0 120 6t108.5 18.5t97.5 32t88 45.5v1073z" />
    <glyph glyph-name="r" unicode="r" horiz-adv-x="1667" 
d="M336 0v2101h528l21 -262q46 71 102.5 130.5t124 102.5t147 67t171.5 24q43 0 90 -6.5t82 -18.5v-536q-43 9 -74.5 14.5t-61 8.5t-61 4t-74.5 1q-46 0 -88.5 -5.5t-82 -15.5t-75.5 -24.5t-69 -33t-62.5 -41t-56.5 -48.5v-1462h-561z" />
    <glyph glyph-name="s" unicode="s" horiz-adv-x="1991" 
d="M188 524q36 -16 85.5 -31.5t107 -29t121 -25t128 -20t127.5 -13t120 -4.5q93 0 167 10.5t125 34t78 60t27 88.5q0 54 -23 90.5t-72.5 64t-127.5 50.5t-187 49q-174 41 -298 97.5t-203.5 136t-116.5 186.5t-37 248q0 144 50.5 263.5t158 204.5t275 132t401.5 47
q61 0 125.5 -4.5t128 -13.5t123.5 -21.5t113 -28t96 -34t73 -38.5v-450q-37 17 -85.5 33t-104.5 30.5t-116.5 26t-121.5 20t-120 13t-111 4.5q-68 0 -124.5 -10.5t-97.5 -32.5t-63.5 -57t-22.5 -84q0 -54 23 -89.5t72.5 -61.5t126 -47.5t184.5 -47.5q172 -42 296.5 -98
t205 -135t119 -185.5t38.5 -249.5t-60 -264.5t-178.5 -210t-293.5 -138.5t-406 -50q-106 0 -214.5 10.5t-206 29t-177 43t-127.5 52.5v450z" />
    <glyph glyph-name="t" unicode="t" horiz-adv-x="1757" 
d="M1659 25q-59 -22 -119 -38t-123 -26.5t-129.5 -16t-136.5 -5.5q-218 0 -360 51.5t-225 149t-115.5 238t-32.5 318.5v938h-328v467h328v652h561v-652h688v-467h-688v-901q0 -80 12.5 -138t47.5 -95.5t96 -55.5t159 -18q48 0 94 2.5t91.5 7t90 11.5t89.5 16v-438z" />
    <glyph glyph-name="u" unicode="u" horiz-adv-x="2531" 
d="M1708 0l-45 168q-62 -57 -129 -100.5t-143 -73.5t-162 -45t-185 -15q-133 0 -241 25.5t-192 74t-145 118t-101 157.5t-59 192.5t-19 223.5v1376h561v-1302q0 -97 24.5 -168.5t73 -119t120.5 -70.5t167 -23q57 0 110.5 7.5t104 21.5t97 34.5t89.5 46.5v1573h561v-2101
h-487z" />
    <glyph glyph-name="v" unicode="v" horiz-adv-x="2150" 
d="M778 0l-762 2101h611l381 -1245q18 -65 38 -147.5t35 -171.5q19 89 40 171.5t42 147.5l402 1245h569l-750 -2101h-606z" />
    <glyph glyph-name="w" unicode="w" horiz-adv-x="3346" 
d="M2060 0l-315 1114q-25 78 -43 156.5t-31 159.5q-15 -78 -33.5 -158t-40.5 -158l-319 -1114h-561l-684 2101h585l316 -1151q18 -68 36 -153t34 -174q18 89 37 174t40 153l328 1151h528l320 -1151q18 -74 38.5 -160.5t39.5 -179.5q15 93 33.5 181t39.5 159l324 1151h582
l-688 -2101h-566z" />
    <glyph glyph-name="x" unicode="x" horiz-adv-x="2183" 
d="M1511 0l-426 692l-430 -692h-635l754 1065l-733 1036h655l406 -651l409 651h635l-741 -1032l758 -1069h-652z" />
    <glyph glyph-name="y" unicode="y" horiz-adv-x="2150" 
d="M0 -471q46 -9 92.5 -12.5t95.5 -3.5q74 0 138 7t120 25t104 49.5t90 79.5t78 115.5t68 157.5l9 20l-779 2134h611l381 -1241q18 -65 38 -149.5t35 -173.5q19 89 40 173.5t42 149.5l402 1241h569l-754 -2121q-61 -171 -129 -307t-147 -240.5t-171 -178.5t-201 -121
t-238 -69t-281 -22q-28 0 -57.5 2t-58 6t-54 9t-43.5 11v459z" />
    <glyph glyph-name="z" unicode="z" horiz-adv-x="2105" 
d="M180 0v344l1004 1290h-979v467h1720v-344l-1007 -1290h1048v-467h-1786z" />
    <glyph glyph-name="braceleft" unicode="{" horiz-adv-x="1860" 
d="M1335 -381q-111 0 -203.5 12.5t-167 40t-131 72.5t-94 110.5t-56.5 152t-19 198.5v663q0 91 -18 155.5t-56.5 105.5t-97.5 60t-140 19h-106v312h106q81 0 140 19t97.5 60t56.5 105.5t18 155.5v659q0 112 19 198.5t56.5 152t94 110.5t131 72.5t167 40t203.5 12.5h246v-307
h-151q-82 0 -135.5 -23.5t-85.5 -70t-45 -115.5t-13 -160v-569q0 -100 -18 -178.5t-53 -139t-86 -104t-117 -74.5q66 -29 117 -72.5t86 -104t53 -138.5t18 -177v-577q0 -91 13 -160t45 -115.5t85.5 -70t135.5 -23.5h151v-307h-246z" />
    <glyph glyph-name="bar" unicode="|" horiz-adv-x="1458" 
d="M508 -934v4039h442v-4039h-442z" />
    <glyph glyph-name="braceright" unicode="}" horiz-adv-x="1860" 
d="M279 -381v307h151q81 0 135 23.5t86 70t45 115.5t13 160v577q0 99 17.5 177t51.5 138.5t84.5 104t116.5 72.5q-66 31 -116.5 74.5t-84.5 104t-51.5 139t-17.5 178.5v569q0 91 -13 160t-45 115.5t-86 70t-135 23.5h-151v307h245q166 0 292 -28.5t210.5 -96.5t127 -180.5
t42.5 -280.5v-659q0 -91 18 -155.5t56 -105.5t97 -60t140 -19h107v-312h-107q-81 0 -140 -19t-97 -60t-56 -105.5t-18 -155.5v-663q0 -168 -42.5 -280.5t-127 -180.5t-210.5 -96.5t-292 -28.5h-245z" />
    <glyph glyph-name="asciitilde" unicode="~" horiz-adv-x="2171" 
d="M1999 1565q0 -158 -46 -285.5t-124 -217t-182.5 -137.5t-221.5 -48q-77 0 -141.5 14t-120.5 35t-105.5 45t-96.5 45t-94 35t-97 14q-45 0 -81 -13t-62.5 -36.5t-41.5 -56t-16 -70.5h-397q0 105 20.5 197t57 168.5t88.5 136.5t114.5 101.5t134.5 63t150 21.5q77 0 142 -14
t122 -35t108 -45t99 -45t95.5 -35t97.5 -14q45 0 82 12t63.5 34.5t41 55t14.5 74.5h397z" />
    <glyph glyph-name="uni00A0" unicode="&#xa0;" horiz-adv-x="1049" 
 />
    <glyph glyph-name="exclamdown" unicode="&#xa1;" horiz-adv-x="1446" 
d="M418 -864v770q0 72 4.5 154t12 167.5t17.5 170.5t20 162.5t19.5 144t16.5 114.5l57 389h316l61 -385q8 -49 17.5 -116t19.5 -145t18.5 -163.5t15.5 -171t11 -167.5t4 -154v-770h-610zM401 1495v606h643v-606h-643z" />
    <glyph glyph-name="cent" unicode="&#xa2;" 
d="M1233 -131v463q-238 29 -414.5 121t-292.5 240t-173.5 349t-57.5 449q0 227 58 420t174.5 340.5t292.5 244t413 130.5v471h450v-459q91 -6 173.5 -18.5t157 -29t139.5 -38t120 -45.5v-459q-69 28 -147 50.5t-168.5 38.5t-194 25t-223.5 9q-155 0 -281 -41.5t-214.5 -126
t-136.5 -212.5t-48 -300q0 -123 22 -222.5t64 -176.5t103 -133.5t139 -92.5t171.5 -53.5t201.5 -17.5q124 0 224 7t187 21t167.5 35.5t166.5 50.5v-458q-68 -25 -136 -45.5t-143 -36.5t-159.5 -27.5t-184.5 -17.5v-455h-450z" />
    <glyph glyph-name="sterling" unicode="&#xa3;" 
d="M319 0v418h74q91 0 158 32.5t111 90t66 136.5t22 171v409h-357v426h357v500q0 133 28.5 248t83.5 209t135 167t182.5 122.5t226 75.5t265.5 26q81 0 158.5 -8.5t145 -21.5t123 -29t93.5 -31v-442q-31 10 -77 21.5t-100.5 21.5t-115 16t-120.5 6q-111 0 -195 -28t-141 -82
t-86 -133.5t-29 -182.5v-455h807v-426h-807v-434q0 -58 -9 -112t-27.5 -100t-46 -83t-64.5 -61h1278v-467h-2139z" />
    <glyph glyph-name="currency" unicode="&#xa4;" 
d="M1835 700q-105 -58 -225.5 -90t-253.5 -32t-254 32t-230 90l-262 -282l-336 336l279 258q-62 105 -94.5 226.5t-32.5 260.5t32.5 260t94.5 223l-279 263l336 335l262 -286q109 62 230 94.5t254 32.5t253.5 -32.5t225.5 -94.5l266 286l336 -335l-283 -263q62 -102 97 -223
t35 -260t-35 -260.5t-97 -226.5l283 -258l-336 -336zM1356 1016q101 0 186.5 37.5t148 102.5t97.5 153.5t35 189.5t-35 189t-97.5 153.5t-148 103t-186.5 37.5q-102 0 -187.5 -37.5t-147.5 -103t-97 -153.5t-35 -189t35 -189.5t97 -153.5t147.5 -102.5t187.5 -37.5z" />
    <glyph glyph-name="yen" unicode="&#xa5;" 
d="M1647 578v-578h-578v578h-836v393h836v151l-115 209h-721v393h508l-675 1242h667l438 -934q56 -121 103.5 -228t81.5 -207q34 100 81.5 207t106.5 228l438 934h668l-676 -1242h496v-393h-713l-110 -209v-151h823v-393h-823z" />
    <glyph glyph-name="brokenbar" unicode="&#xa6;" horiz-adv-x="1458" 
d="M508 -381v1274h442v-1274h-442zM508 1831v1274h442v-1274h-442z" />
    <glyph glyph-name="section" unicode="&#xa7;" 
d="M1516 2568q-114 0 -194 -17t-131 -47.5t-74 -73.5t-23 -95q0 -49 23.5 -87t65.5 -67.5t100.5 -52.5t129.5 -43l471 -131q132 -39 244 -92.5t193 -126.5t127 -168.5t46 -218.5q0 -94 -33 -180.5t-90.5 -161t-135.5 -133t-167 -95.5q75 -77 119.5 -171.5t44.5 -209.5
q0 -120 -35.5 -219.5t-100.5 -179t-157 -139t-205.5 -99t-245.5 -59.5t-276 -20q-118 0 -238.5 11.5t-229.5 31.5t-200 46.5t-151 57.5v451q77 -28 165.5 -52.5t186 -43t202.5 -29.5t216 -11q123 0 210.5 17t144 48t82.5 74t26 95q0 49 -26 86t-71 66t-106.5 51.5
t-132.5 42.5l-471 135q-132 38 -241.5 91.5t-187.5 127t-121.5 169t-43.5 218.5q0 92 33 178.5t91 161t135.5 132.5t166.5 93q-74 78 -119 174.5t-45 210.5q0 120 34 219.5t97 179t151.5 139.5t197 99.5t235 59.5t264.5 20q109 0 224.5 -10t221.5 -28.5t193 -44t140 -56.5
v-451q-155 56 -340 91.5t-389 35.5zM1581 1053q59 -19 114.5 -41t110.5 -49q31 24 57 54.5t45.5 65.5t30.5 75t11 83q0 55 -16.5 95t-49 69t-80 50.5t-108.5 39.5l-553 164q-59 15 -118.5 38.5t-115.5 51.5q-62 -50 -100.5 -122.5t-38.5 -156.5q0 -55 17 -94.5t50 -68.5
t81 -50.5t110 -39.5z" />
    <glyph glyph-name="dieresis" unicode="&#xa8;" horiz-adv-x="1868" 
d="M258 2482v500h537v-500h-537zM1073 2482v500h537v-500h-537z" />
    <glyph glyph-name="copyright" unicode="&#xa9;" horiz-adv-x="3564" 
d="M2363 733q-60 -24 -116.5 -44t-122 -33.5t-146 -21t-188.5 -7.5q-136 0 -247 29.5t-198 84.5t-150.5 133t-105 175t-61.5 210.5t-20 239.5q0 122 23.5 232t69.5 203.5t115 169.5t160 129t204 81.5t247 28.5q87 0 159.5 -7.5t135 -22t116.5 -35t105 -46.5v-352
q-49 21 -100.5 38t-110 28.5t-127.5 17.5t-154 6q-90 0 -161.5 -33t-121 -94.5t-76 -148.5t-26.5 -195q0 -137 22 -232t69.5 -154.5t123 -86.5t183.5 -27q86 0 152.5 5.5t123.5 17t110 29.5t113 43v-361zM1782 3031q239 0 445.5 -53t376.5 -151t301.5 -237t221.5 -311
t136.5 -373t46.5 -423t-46.5 -423.5t-136.5 -373.5t-221.5 -311t-301.5 -237t-376.5 -151t-445.5 -53q-240 0 -446.5 53t-376 151t-301 237t-221.5 311t-136.5 373.5t-46.5 423.5t46.5 423t136.5 373t221.5 311t301 237t376 151t446.5 53zM1782 2703q-190 0 -346.5 -40
t-281.5 -115t-218 -183t-154.5 -243.5t-92 -296.5t-30.5 -342t30.5 -342t92 -296.5t154.5 -243.5t218 -183.5t281.5 -115.5t346.5 -40q189 0 346 40t281.5 115.5t217.5 183.5t154.5 243.5t92 296.5t30.5 342t-30.5 342t-92 296.5t-154.5 243.5t-217.5 183t-281.5 115
t-346 40z" />
    <glyph glyph-name="ordfeminine" unicode="&#xaa;" horiz-adv-x="2068" 
d="M1348 1212l-29 148q-52 -43 -111 -78t-125.5 -59.5t-142.5 -38t-162 -13.5q-129 0 -234.5 37.5t-181 106t-116.5 164.5t-41 213q0 102 28.5 183.5t83.5 144t136.5 106.5t187.5 72.5t235.5 41.5t282.5 13q31 0 70.5 -2t77.5 -2v16q0 77 -21.5 135t-68.5 97t-121 59
t-178 20q-85 0 -163.5 -6.5t-150.5 -19.5t-138 -32t-126 -44v377q58 31 131 56.5t156 44t175 28.5t189 10q189 0 335 -38t245.5 -121t151 -215.5t51.5 -321.5v-1082h-426zM180 340v451h1635v-451h-1635zM1307 1942h-50q-146 0 -255 -11t-181.5 -36t-108.5 -65.5t-36 -100.5
q0 -45 17 -81t51 -62t85.5 -40t120.5 -14q52 0 100.5 7.5t93 21t85.5 32t78 41.5v308z" />
    <glyph glyph-name="guillemotleft" unicode="&#xab;" horiz-adv-x="2671" 
d="M950 467l-696 762l696 762h484l-562 -762l562 -762h-484zM1933 467l-696 762l696 762h484l-562 -762l562 -762h-484z" />
    <glyph glyph-name="logicalnot" unicode="&#xac;" horiz-adv-x="2458" 
d="M1819 401v574h-1696v491h2212v-1065h-516z" />
    <glyph glyph-name="uni00AD" unicode="&#xad;" horiz-adv-x="1511" 
d="M201 946v553h1110v-553h-1110z" />
    <glyph glyph-name="registered" unicode="&#xae;" horiz-adv-x="2761" 
d="M2527 2015q0 -170 -41 -320.5t-116 -277t-180 -226.5t-232.5 -170t-273.5 -107t-304 -37q-157 0 -303.5 37t-274 107t-232.5 170t-180 226.5t-116 277t-41 320.5t41 320.5t116 277t180 227t232.5 170.5t273.5 107t304 37t304 -37t273.5 -107t232.5 -170.5t180 -227
t116 -277t41 -320.5zM1380 1126q126 0 239 31t208.5 87.5t172 137t130 179t82.5 213.5t29 241t-29 241t-82.5 213.5t-130 179t-172 137t-208.5 87.5t-239 31t-238.5 -31t-208 -87.5t-172 -137t-130 -179t-82.5 -213.5t-29 -241t29 -241t82.5 -213.5t130 -179t172 -137
t208 -87.5t238.5 -31zM1651 1438l-238 372q-15 25 -29 39.5t-29 22t-32.5 10t-40.5 2.5h-86v-446h-283v1183h484q101 0 186 -21t146.5 -64.5t96 -109.5t34.5 -157q0 -68 -16.5 -120t-48 -91t-76 -66.5t-101.5 -45.5q28 -16 44 -37t26 -33l282 -438h-319zM1352 2101
q52 0 93 9.5t69.5 30t43.5 52t15 76.5q0 67 -51.5 101t-161.5 34h-164v-303h156z" />
    <glyph glyph-name="macron" unicode="&#xaf;" horiz-adv-x="1868" 
d="M307 2503v426h1254v-426h-1254z" />
    <glyph glyph-name="degree" unicode="&#xb0;" horiz-adv-x="2064" 
d="M1827 2232q0 -108 -27.5 -205.5t-78.5 -181.5t-122.5 -152.5t-160 -117t-191 -74.5t-215.5 -26q-112 0 -215 26t-191 74.5t-159.5 117t-122.5 152.5t-78.5 181.5t-27.5 205.5q0 107 27.5 204.5t78.5 181.5t122.5 152.5t159.5 117.5t190.5 75.5t215.5 26.5t215.5 -26.5
t191 -75.5t160 -117.5t122.5 -152.5t78.5 -182t27.5 -204zM1032 1868q86 0 153.5 29.5t113.5 79t70 115.5t24 140q0 71 -24 137t-70 116.5t-113.5 81t-153.5 30.5t-153 -30.5t-113 -81t-70 -116.5t-24 -137q0 -74 24 -140t70 -115.5t113 -79t153 -29.5z" />
    <glyph glyph-name="plusminus" unicode="&#xb1;" horiz-adv-x="2458" 
d="M1487 1389v-627h-516v627h-807v491h807v610h516v-610h807v-491h-807zM164 0v492h2130v-492h-2130z" />
    <glyph glyph-name="twosuperior" unicode="&#xb2;" horiz-adv-x="1794" 
d="M197 1503v303l290 189q152 98 260 178t177 150t101 135.5t32 134.5q0 43 -18.5 79.5t-57.5 63.5t-100.5 42t-147.5 15q-75 0 -145 -9.5t-134 -25.5t-121 -37.5t-108 -45.5v311q37 21 93 46t128 46.5t157.5 36t182.5 14.5q131 0 235 -20.5t183 -56.5t135 -85.5t91.5 -107
t52 -120.5t16.5 -126q0 -78 -24 -152t-67 -144t-102 -135.5t-129.5 -125.5t-150 -114.5t-162.5 -102.5v0h725v-336h-1392z" />
    <glyph glyph-name="threesuperior" unicode="&#xb3;" horiz-adv-x="1794" 
d="M270 1900q51 -21 115.5 -38t134.5 -28.5t142.5 -17.5t140.5 -6q83 0 147 12t108 34.5t66.5 54t22.5 71.5q0 43 -22 80.5t-68 65t-117.5 43.5t-169.5 16h-225v295h225q64 0 128.5 8t116 26t83.5 47t32 71q0 55 -28 87.5t-73 49.5t-102.5 22t-115.5 5q-72 0 -141.5 -7.5
t-133.5 -20t-122 -30t-107 -37.5v312q49 23 108 43.5t127.5 36.5t146 25t163.5 9q174 0 308 -34.5t226 -93.5t139.5 -138t47.5 -168q0 -74 -20 -132t-56.5 -103t-88 -78t-114.5 -56q71 -24 125.5 -57.5t91 -78.5t55.5 -104.5t19 -135.5q0 -111 -52 -198t-148 -148t-232 -93
t-305 -32q-97 0 -183.5 7.5t-160.5 21t-133 32t-101 41.5v319z" />
    <glyph glyph-name="acute" unicode="&#xb4;" horiz-adv-x="1868" 
d="M418 2408l385 648h647l-606 -648h-426z" />
    <glyph glyph-name="mu" unicode="&#xb5;" horiz-adv-x="2621" 
d="M1094 -49q-124 0 -234 37q22 -92 29.5 -200.5t7.5 -250.5v-471h-561v3035h561v-1294q0 -194 97 -283.5t288 -89.5q115 0 215 23t186 75v1569h562v-1511q0 -80 29.5 -112t97.5 -32q46 0 84 3.5t75 9.5v-447q-71 -24 -157.5 -34.5t-194.5 -10.5q-164 0 -271 59.5
t-163 174.5q-65 -60 -135.5 -106.5t-150.5 -78.5t-170.5 -48.5t-194.5 -16.5z" />
    <glyph glyph-name="paragraph" unicode="&#xb6;" horiz-adv-x="3170" 
d="M2208 -934v3502h-365v-3502h-454v2204h-5q-198 0 -355.5 30t-277.5 84.5t-205 131t-139 171t-79 203.5t-25 228t24.5 228t78.5 203t139 171t205.5 131.5t279 84.5t359.5 30h1273v-3900h-454z" />
    <glyph glyph-name="periodcentered" unicode="&#xb7;" horiz-adv-x="1536" 
d="M447 922v606h643v-606h-643z" />
    <glyph glyph-name="cedilla" unicode="&#xb8;" horiz-adv-x="1868" 
d="M586 -586q40 -9 82 -14.5t98 -5.5q37 0 72 7t63 22.5t45 39.5t17 58q0 37 -25.5 66.5t-67 51.5t-94.5 35.5t-108 18.5l204 348h291l-114 -238q61 -6 116.5 -31.5t98 -66.5t67.5 -94.5t25 -114.5q0 -94 -42 -164t-114.5 -116.5t-170.5 -69.5t-210 -23q-68 0 -126 8.5
t-107 20.5v262z" />
    <glyph glyph-name="onesuperior" unicode="&#xb9;" horiz-adv-x="1794" 
d="M283 1503v336h405v889l-405 -90v352l553 115h278v-1266h406v-336h-1237z" />
    <glyph glyph-name="ordmasculine" unicode="&#xba;" horiz-adv-x="2228" 
d="M1114 1171q-160 0 -288.5 30t-229 86t-173 136.5t-119 181.5t-69 221t-22.5 255q0 202 54 369.5t165 287.5t280.5 186t401.5 66q159 0 287.5 -30t228.5 -85.5t172.5 -136t120 -181t70 -219.5t22.5 -253q0 -136 -24 -257t-72.5 -222.5t-122 -182t-173.5 -136.5t-227 -86
t-282 -30zM1114 1565q117 0 196.5 40.5t129 110.5t71 165t21.5 204t-21.5 203.5t-71 164t-129 109t-196.5 39.5t-196.5 -40.5t-129 -110.5t-71 -165t-21.5 -204t21.5 -203.5t71 -164t129 -109t196.5 -39.5zM188 340v451h1852v-451h-1852z" />
    <glyph glyph-name="guillemotright" unicode="&#xbb;" horiz-adv-x="2671" 
d="M254 467l561 762l-561 762h483l697 -762l-697 -762h-483zM1237 467l561 762l-561 762h483l697 -762l-697 -762h-483z" />
    <glyph glyph-name="onequarter" unicode="&#xbc;" horiz-adv-x="4108" 
d="M971 0l1724 2966h434l-1720 -2966h-438zM283 1364v336h405v889l-405 -90v352l553 115h278v-1266h406v-336h-1237zM3252 0v250h-832v246l869 1106h389v-1069h295v-283h-295v-250h-426zM3252 852q0 68 3.5 126t12.5 108q-34 -65 -80.5 -137.5t-111.5 -149.5l-213 -266h389
v319z" />
    <glyph glyph-name="onehalf" unicode="&#xbd;" horiz-adv-x="4108" 
d="M283 1364v336h405v889l-405 -90v352l553 115h278v-1266h406v-336h-1237zM971 0l1724 2966h434l-1720 -2966h-438zM2511 0v303l290 189q152 98 260 178t177 150t101 135.5t32 134.5q0 43 -18.5 79.5t-57.5 63.5t-100.5 42t-147.5 15q-75 0 -145 -9.5t-134 -25.5
t-121 -37.5t-108 -45.5v311q37 21 93 46t128 46.5t157.5 36t182.5 14.5q131 0 235 -20.5t183 -56.5t135 -85.5t91.5 -107t52 -120.5t16.5 -126q0 -78 -24 -152t-67 -144t-102 -135.5t-129.5 -125.5t-150 -114.5t-162.5 -102.5v0h725v-336h-1392z" />
    <glyph glyph-name="threequarters" unicode="&#xbe;" horiz-adv-x="4108" 
d="M971 0l1724 2966h434l-1720 -2966h-438zM270 1761q51 -21 115.5 -38t134.5 -28.5t142.5 -17.5t140.5 -6q83 0 147 12t108 34.5t66.5 54t22.5 71.5q0 43 -22 80.5t-68 65t-117.5 43.5t-169.5 16h-225v295h225q64 0 128.5 8t116 26t83.5 47t32 71q0 55 -28 87.5t-73 49.5
t-102.5 22t-115.5 5q-72 0 -141.5 -7.5t-133.5 -20t-122 -30t-107 -37.5v312q49 23 108 43.5t127.5 36.5t146 25t163.5 9q174 0 308 -34.5t226 -93.5t139.5 -138t47.5 -168q0 -74 -20 -132t-56.5 -103t-88 -78t-114.5 -56q71 -24 125.5 -57.5t91 -78.5t55.5 -104.5
t19 -135.5q0 -111 -52 -198t-148 -148t-232 -93t-305 -32q-97 0 -183.5 7.5t-160.5 21t-133 32t-101 41.5v319zM3252 0v250h-832v246l869 1106h389v-1069h295v-283h-295v-250h-426zM3252 852q0 68 3.5 126t12.5 108q-34 -65 -80.5 -137.5t-111.5 -149.5l-213 -266h389v319z
" />
    <glyph glyph-name="questiondown" unicode="&#xbf;" horiz-adv-x="2195" 
d="M2015 -733q-65 -42 -150.5 -77t-186 -61t-211.5 -40.5t-226 -14.5q-151 0 -286.5 25t-249.5 72.5t-205 116.5t-155 156.5t-98 192t-34 224.5t29 224.5t80 197t120 173.5t149.5 153.5t169 137.5t177.5 125l94 62l41 278h479l62 -446l-307 -205q-117 -78 -209 -151
t-156 -149t-97.5 -159.5t-33.5 -183.5q0 -87 34.5 -153.5t97.5 -111.5t151.5 -68t195.5 -23q95 0 194.5 14.5t194.5 39t181 57t155 69.5v-475zM979 1499v606h643v-606h-643z" />
    <glyph glyph-name="Agrave" unicode="&#xc0;" horiz-adv-x="2822" 
d="M2171 0l-213 639h-1127l-208 -639h-590l1069 2966h618l1069 -2966h-618zM1536 1917q-43 133 -78.5 265t-60.5 272q-25 -140 -60.5 -272t-79.5 -265l-270 -811h815zM1257 3162l-606 648h647l385 -648h-426z" />
    <glyph glyph-name="Aacute" unicode="&#xc1;" horiz-adv-x="2822" 
d="M2171 0l-213 639h-1127l-208 -639h-590l1069 2966h618l1069 -2966h-618zM1536 1917q-43 133 -78.5 265t-60.5 272q-25 -140 -60.5 -272t-79.5 -265l-270 -811h815zM1118 3162l385 648h647l-606 -648h-426z" />
    <glyph glyph-name="Acircumflex" unicode="&#xc2;" horiz-adv-x="2822" 
d="M2171 0l-213 639h-1127l-208 -639h-590l1069 2966h618l1069 -2966h-618zM1536 1917q-43 133 -78.5 265t-60.5 272q-25 -140 -60.5 -272t-79.5 -265l-270 -811h815zM1684 3162l-283 336l-279 -336h-409l434 648h512l434 -648h-409z" />
    <glyph glyph-name="Atilde" unicode="&#xc3;" horiz-adv-x="2822" 
d="M2171 0l-213 639h-1127l-208 -639h-590l1069 2966h618l1069 -2966h-618zM1536 1917q-43 133 -78.5 265t-60.5 272q-25 -140 -60.5 -272t-79.5 -265l-270 -811h815zM2175 3769q0 -140 -37.5 -250t-104 -186.5t-157.5 -117t-197 -40.5q-61 0 -114 14t-100 35.5t-89 46.5
t-81.5 46.5t-76.5 35.5t-75 14q-43 0 -76 -12t-55.5 -35t-35 -56.5t-13.5 -76.5h-336q0 140 36.5 250t101.5 186.5t154 117t195 40.5q61 0 115 -14.5t102 -35.5t91 -46.5t83 -46.5t78 -35.5t76 -14.5q43 0 76.5 11.5t56.5 34.5t35 56.5t12 78.5h336z" />
    <glyph glyph-name="Adieresis" unicode="&#xc4;" horiz-adv-x="2822" 
d="M2171 0l-213 639h-1127l-208 -639h-590l1069 2966h618l1069 -2966h-618zM1536 1917q-43 133 -78.5 265t-60.5 272q-25 -140 -60.5 -272t-79.5 -265l-270 -811h815zM725 3236v500h537v-500h-537zM1540 3236v500h537v-500h-537z" />
    <glyph glyph-name="Aring" unicode="&#xc5;" horiz-adv-x="2822" 
d="M2171 0l-213 639h-1127l-208 -639h-590l1069 2966h618l1069 -2966h-618zM1536 1917q-43 133 -78.5 265t-60.5 272q-25 -140 -60.5 -272t-79.5 -265l-270 -811h815zM1892 3547q0 -100 -37.5 -185.5t-103.5 -148t-156 -98t-194 -35.5q-105 0 -195 35.5t-156 98t-103.5 148
t-37.5 185.5t37.5 185.5t103.5 148t156 98t195 35.5q104 0 194 -35.5t156 -98t103.5 -148t37.5 -185.5zM1401 3342q45 0 82 16.5t63.5 44.5t41 65t14.5 79q0 40 -14.5 76.5t-41 64t-63.5 44t-82 16.5t-82.5 -16.5t-64.5 -44t-42.5 -64t-15.5 -76.5q0 -42 15.5 -79t42.5 -65
t64.5 -44.5t82.5 -16.5z" />
    <glyph glyph-name="AE" unicode="&#xc6;" horiz-adv-x="3932" 
d="M1823 0v639h-951l-249 -639h-590l1163 2966h2499v-476h-1295v-733h1114v-475h-1114v-807h1311v-475h-1888zM1823 2490h-226l-540 -1384h766v1384z" />
    <glyph glyph-name="Ccedilla" unicode="&#xc7;" horiz-adv-x="2544" 
d="M1081 -586q41 -9 83 -14.5t98 -5.5q37 0 72 7t62.5 22.5t44.5 39.5t17 58q0 37 -25.5 66.5t-66.5 51.5t-94.5 35.5t-108.5 18.5l148 250q-185 18 -338.5 77.5t-275.5 157t-213 231t-151 300t-90 364t-30 422.5q0 226 35.5 428t107.5 372.5t180 307t252.5 231.5t326.5 146
t401 51q135 0 256 -12.5t227.5 -36t197.5 -57t166 -74.5v-479q-75 37 -163.5 66.5t-190 50t-217 31.5t-244.5 11q-125 0 -227.5 -32t-184 -93.5t-142 -151.5t-100.5 -205t-59.5 -254t-19.5 -300q0 -192 20.5 -346t62 -272.5t104 -203t146.5 -138.5t189 -79.5t232 -25.5
q135 0 246.5 9.5t209.5 28t188.5 47t182.5 67.5v-480q-54 -24 -108.5 -45.5t-112.5 -38.5t-120.5 -31t-132 -24t-148 -16t-168.5 -8l-62 -136q61 -6 117 -31.5t98 -66.5t67 -94.5t25 -114.5q0 -94 -41.5 -164t-114 -116.5t-170.5 -69.5t-210 -23q-68 0 -126 8.5t-108 20.5
v262z" />
    <glyph glyph-name="Egrave" unicode="&#xc8;" horiz-adv-x="2478" 
d="M369 0v2966h1872v-476h-1295v-733h1114v-475h-1114v-807h1311v-475h-1888zM1167 3162l-606 648h647l385 -648h-426z" />
    <glyph glyph-name="Eacute" unicode="&#xc9;" horiz-adv-x="2478" 
d="M369 0v2966h1872v-476h-1295v-733h1114v-475h-1114v-807h1311v-475h-1888zM1028 3162l385 648h647l-606 -648h-426z" />
    <glyph glyph-name="Ecircumflex" unicode="&#xca;" horiz-adv-x="2478" 
d="M369 0v2966h1872v-476h-1295v-733h1114v-475h-1114v-807h1311v-475h-1888zM1594 3162l-283 336l-279 -336h-409l434 648h512l434 -648h-409z" />
    <glyph glyph-name="Edieresis" unicode="&#xcb;" horiz-adv-x="2478" 
d="M369 0v2966h1872v-476h-1295v-733h1114v-475h-1114v-807h1311v-475h-1888zM635 3236v500h537v-500h-537zM1450 3236v500h537v-500h-537z" />
    <glyph glyph-name="Igrave" unicode="&#xcc;" horiz-adv-x="1749" 
d="M246 0v459h340v2048h-340v459h1257v-459h-340v-2048h340v-459h-1257zM730 3162l-606 648h647l385 -648h-426z" />
    <glyph glyph-name="Iacute" unicode="&#xcd;" horiz-adv-x="1749" 
d="M246 0v459h340v2048h-340v459h1257v-459h-340v-2048h340v-459h-1257zM590 3162l385 648h647l-606 -648h-426z" />
    <glyph glyph-name="Icircumflex" unicode="&#xce;" horiz-adv-x="1749" 
d="M246 0v459h340v2048h-340v459h1257v-459h-340v-2048h340v-459h-1257zM1157 3162l-283 336l-279 -336h-409l434 648h512l434 -648h-409z" />
    <glyph glyph-name="Idieresis" unicode="&#xcf;" horiz-adv-x="1749" 
d="M246 0v459h340v2048h-340v459h1257v-459h-340v-2048h340v-459h-1257zM198 3236v500h537v-500h-537zM1013 3236v500h537v-500h-537z" />
    <glyph glyph-name="Eth" unicode="&#xd0;" horiz-adv-x="3047" 
d="M410 0v1217h-254v491h254v1258h1048q258 0 459 -51t352 -145t256 -227.5t170 -298t94 -357t29 -404.5t-31.5 -404.5t-99 -357t-174.5 -298t-258 -227.5t-349 -145t-448 -51h-1048zM1438 475q124 0 230 27t193 81.5t154 137.5t112.5 195t69 253.5t23.5 313.5t-23.5 313.5
t-69 253.5t-112.5 194.5t-154 137t-193 81.5t-230 27h-451v-782h569v-491h-569v-742h451z" />
    <glyph glyph-name="Ntilde" unicode="&#xd1;" horiz-adv-x="3142" 
d="M2187 0l-1073 1712q-53 84 -111.5 201t-117.5 250q7 -66 14 -131t12 -124t8 -109t3 -87v-1712h-553v2966h585l1074 -1713q26 -41 54 -92.5t56.5 -109.5t57.5 -121t57 -127q-8 64 -14 128.5t-10.5 123t-6.5 109.5t-2 89v1713h553v-2966h-586zM2343 3769q0 -140 -37.5 -250
t-104 -186.5t-157.5 -117t-197 -40.5q-61 0 -114 14t-100 35.5t-89 46.5t-81.5 46.5t-76.5 35.5t-75 14q-43 0 -76 -12t-55.5 -35t-35 -56.5t-13.5 -76.5h-336q0 140 36.5 250t101.5 186.5t154 117t195 40.5q61 0 115 -14.5t102 -35.5t91 -46.5t83 -46.5t78 -35.5t76 -14.5
q43 0 76.5 11.5t56.5 34.5t35 56.5t12 78.5h336z" />
    <glyph glyph-name="Ograve" unicode="&#xd2;" horiz-adv-x="3056" 
d="M1528 -66q-258 0 -454.5 56t-341 157.5t-241 243t-155 314t-83 369.5t-24.5 409t27 409t88 369t159.5 314t243 243t338 157t443.5 56q258 0 454.5 -56t340.5 -157t241 -243t155 -314t82.5 -369t24.5 -409t-27 -409t-87.5 -369.5t-159.5 -314t-243.5 -243t-337.5 -157.5
t-443 -56zM1528 422q124 0 224 32t177.5 94.5t134 153.5t93 209t54 261.5t17.5 310.5t-17.5 310.5t-54 261t-93 209t-134 153.5t-177.5 94.5t-224 32.5t-224 -32.5t-178 -94.5t-134.5 -153.5t-93 -209t-54 -261t-17.5 -310.5t17.5 -310.5t54 -261.5t93 -209t134.5 -153.5
t178 -94.5t224 -32zM1384 3162l-606 648h647l385 -648h-426z" />
    <glyph glyph-name="Oacute" unicode="&#xd3;" horiz-adv-x="3056" 
d="M1528 -66q-258 0 -454.5 56t-341 157.5t-241 243t-155 314t-83 369.5t-24.5 409t27 409t88 369t159.5 314t243 243t338 157t443.5 56q258 0 454.5 -56t340.5 -157t241 -243t155 -314t82.5 -369t24.5 -409t-27 -409t-87.5 -369.5t-159.5 -314t-243.5 -243t-337.5 -157.5
t-443 -56zM1528 422q124 0 224 32t177.5 94.5t134 153.5t93 209t54 261.5t17.5 310.5t-17.5 310.5t-54 261t-93 209t-134 153.5t-177.5 94.5t-224 32.5t-224 -32.5t-178 -94.5t-134.5 -153.5t-93 -209t-54 -261t-17.5 -310.5t17.5 -310.5t54 -261.5t93 -209t134.5 -153.5
t178 -94.5t224 -32zM1245 3162l385 648h647l-606 -648h-426z" />
    <glyph glyph-name="Ocircumflex" unicode="&#xd4;" horiz-adv-x="3056" 
d="M1528 -66q-258 0 -454.5 56t-341 157.5t-241 243t-155 314t-83 369.5t-24.5 409t27 409t88 369t159.5 314t243 243t338 157t443.5 56q258 0 454.5 -56t340.5 -157t241 -243t155 -314t82.5 -369t24.5 -409t-27 -409t-87.5 -369.5t-159.5 -314t-243.5 -243t-337.5 -157.5
t-443 -56zM1528 422q124 0 224 32t177.5 94.5t134 153.5t93 209t54 261.5t17.5 310.5t-17.5 310.5t-54 261t-93 209t-134 153.5t-177.5 94.5t-224 32.5t-224 -32.5t-178 -94.5t-134.5 -153.5t-93 -209t-54 -261t-17.5 -310.5t17.5 -310.5t54 -261.5t93 -209t134.5 -153.5
t178 -94.5t224 -32zM1811 3162l-283 336l-279 -336h-409l434 648h512l434 -648h-409z" />
    <glyph glyph-name="Otilde" unicode="&#xd5;" horiz-adv-x="3056" 
d="M1528 -66q-258 0 -454.5 56t-341 157.5t-241 243t-155 314t-83 369.5t-24.5 409t27 409t88 369t159.5 314t243 243t338 157t443.5 56q258 0 454.5 -56t340.5 -157t241 -243t155 -314t82.5 -369t24.5 -409t-27 -409t-87.5 -369.5t-159.5 -314t-243.5 -243t-337.5 -157.5
t-443 -56zM1528 422q124 0 224 32t177.5 94.5t134 153.5t93 209t54 261.5t17.5 310.5t-17.5 310.5t-54 261t-93 209t-134 153.5t-177.5 94.5t-224 32.5t-224 -32.5t-178 -94.5t-134.5 -153.5t-93 -209t-54 -261t-17.5 -310.5t17.5 -310.5t54 -261.5t93 -209t134.5 -153.5
t178 -94.5t224 -32zM2302 3769q0 -140 -37.5 -250t-104 -186.5t-157.5 -117t-197 -40.5q-61 0 -114 14t-100 35.5t-89 46.5t-81.5 46.5t-76.5 35.5t-75 14q-43 0 -76 -12t-55.5 -35t-35 -56.5t-13.5 -76.5h-336q0 140 36.5 250t101.5 186.5t154 117t195 40.5q61 0 115 -14.5
t102 -35.5t91 -46.5t83 -46.5t78 -35.5t76 -14.5q43 0 76.5 11.5t56.5 34.5t35 56.5t12 78.5h336z" />
    <glyph glyph-name="Odieresis" unicode="&#xd6;" horiz-adv-x="3056" 
d="M1528 -66q-258 0 -454.5 56t-341 157.5t-241 243t-155 314t-83 369.5t-24.5 409t27 409t88 369t159.5 314t243 243t338 157t443.5 56q258 0 454.5 -56t340.5 -157t241 -243t155 -314t82.5 -369t24.5 -409t-27 -409t-87.5 -369.5t-159.5 -314t-243.5 -243t-337.5 -157.5
t-443 -56zM1528 422q124 0 224 32t177.5 94.5t134 153.5t93 209t54 261.5t17.5 310.5t-17.5 310.5t-54 261t-93 209t-134 153.5t-177.5 94.5t-224 32.5t-224 -32.5t-178 -94.5t-134.5 -153.5t-93 -209t-54 -261t-17.5 -310.5t17.5 -310.5t54 -261.5t93 -209t134.5 -153.5
t178 -94.5t224 -32zM852 3236v500h537v-500h-537zM1667 3236v500h537v-500h-537z" />
    <glyph glyph-name="multiply" unicode="&#xd7;" horiz-adv-x="2458" 
d="M1229 856l-598 -598l-365 365l598 598l-598 598l365 364l598 -598l598 598l364 -364l-598 -598l598 -598l-364 -365z" />
    <glyph glyph-name="Oslash" unicode="&#xd8;" horiz-adv-x="3056" 
d="M205 -41l295 418q-75 106 -127 231t-84 265t-46 293.5t-14 316.5q0 212 27 409t88 369t159.5 314t243 243t338 157t443.5 56q242 0 431 -50.5t331 -141.5l123 167h446l-303 -426q75 -106 127 -230.5t83.5 -264t45.5 -291t14 -311.5q0 -212 -27 -409t-87.5 -369.5
t-159.5 -314t-243.5 -243t-337.5 -157.5t-443 -56q-243 0 -430 50t-328 139l-115 -164h-450zM1942 2404q-80 67 -182.5 103.5t-231.5 36.5q-124 0 -224 -32.5t-178 -94.5t-134.5 -153.5t-93 -209t-54 -261t-17.5 -310.5q0 -161 16 -300t50 -253zM1118 553q77 -65 179 -98
t231 -33q124 0 224 32t177.5 94.5t134 153.5t93 209t54 261.5t17.5 310.5q0 158 -15.5 294t-49.5 251z" />
    <glyph glyph-name="Ugrave" unicode="&#xd9;" horiz-adv-x="2941" 
d="M2044 2966h577v-1954q0 -151 -18.5 -290t-66.5 -259t-130.5 -217.5t-210.5 -166.5t-306.5 -107t-418.5 -38q-239 0 -417.5 38t-306.5 107t-210.5 166.5t-131 217.5t-67 258.5t-18.5 290.5v1954h578v-1872q0 -191 32 -319.5t101 -207t178 -112t262 -33.5q154 0 263 33.5
t178 112t101 207t32 319.5v1872zM1327 3162l-606 648h647l385 -648h-426z" />
    <glyph glyph-name="Uacute" unicode="&#xda;" horiz-adv-x="2941" 
d="M2044 2966h577v-1954q0 -151 -18.5 -290t-66.5 -259t-130.5 -217.5t-210.5 -166.5t-306.5 -107t-418.5 -38q-239 0 -417.5 38t-306.5 107t-210.5 166.5t-131 217.5t-67 258.5t-18.5 290.5v1954h578v-1872q0 -191 32 -319.5t101 -207t178 -112t262 -33.5q154 0 263 33.5
t178 112t101 207t32 319.5v1872zM1188 3162l385 648h647l-606 -648h-426z" />
    <glyph glyph-name="Ucircumflex" unicode="&#xdb;" horiz-adv-x="2941" 
d="M2044 2966h577v-1954q0 -151 -18.5 -290t-66.5 -259t-130.5 -217.5t-210.5 -166.5t-306.5 -107t-418.5 -38q-239 0 -417.5 38t-306.5 107t-210.5 166.5t-131 217.5t-67 258.5t-18.5 290.5v1954h578v-1872q0 -191 32 -319.5t101 -207t178 -112t262 -33.5q154 0 263 33.5
t178 112t101 207t32 319.5v1872zM1754 3162l-283 336l-279 -336h-409l434 648h512l434 -648h-409z" />
    <glyph glyph-name="Udieresis" unicode="&#xdc;" horiz-adv-x="2941" 
d="M2044 2966h577v-1954q0 -151 -18.5 -290t-66.5 -259t-130.5 -217.5t-210.5 -166.5t-306.5 -107t-418.5 -38q-239 0 -417.5 38t-306.5 107t-210.5 166.5t-131 217.5t-67 258.5t-18.5 290.5v1954h578v-1872q0 -191 32 -319.5t101 -207t178 -112t262 -33.5q154 0 263 33.5
t178 112t101 207t32 319.5v1872zM795 3236v500h537v-500h-537zM1610 3236v500h537v-500h-537z" />
    <glyph glyph-name="Yacute" unicode="&#xdd;" horiz-adv-x="2617" 
d="M1020 0v1126l-1004 1840h668l438 -934q28 -60 54 -117t49.5 -111t44 -106t37.5 -101q17 49 37.5 101t44 106t50.5 111t56 117l438 934h668l-1004 -1840v-1126h-577zM1032 3162l385 648h647l-606 -648h-426z" />
    <glyph glyph-name="Thorn" unicode="&#xde;" horiz-adv-x="2556" 
d="M369 0v2966h573v-451h459q174 0 317.5 -28.5t257.5 -84t198 -137t140 -188.5t83.5 -238.5t27.5 -286.5q0 -232 -64.5 -414t-196.5 -307.5t-333.5 -191.5t-474.5 -66h-414v-573h-573zM1298 1024q143 0 244.5 37.5t166.5 106.5t95.5 166.5t30.5 217.5q0 118 -29.5 213.5
t-90 163t-152 103.5t-215.5 36h-406v-1044h356z" />
    <glyph glyph-name="germandbls" unicode="&#xdf;" horiz-adv-x="2662" 
d="M1679 -61q-95 0 -175 9t-147.5 25.5t-124.5 40t-106 52.5v454q118 -59 257.5 -91t287.5 -32q92 0 156 23t104 64t58 96t18 120q0 63 -15.5 120.5t-54.5 111t-104.5 104t-165.5 99.5l-541 266v381l230 94q117 48 195.5 103t126 116t67.5 125.5t20 130.5q0 60 -21 122
t-69 112t-125.5 82t-189.5 32q-109 0 -195 -31t-145.5 -97t-91 -169t-31.5 -248v-2154h-561v2208q0 160 37 292t105 237t162.5 183.5t209 130.5t246 77.5t272.5 25.5q229 0 408 -62.5t302.5 -169.5t188 -250t64.5 -305q0 -131 -41 -242.5t-111 -201.5t-163 -157.5
t-197 -110.5l-144 -58l172 -73q172 -74 307 -152.5t228 -174t141.5 -214.5t48.5 -274t-53.5 -295t-164 -245.5t-278.5 -167.5t-397 -62z" />
    <glyph glyph-name="agrave" unicode="&#xe0;" horiz-adv-x="2286" 
d="M1483 0l-29 160q-60 -51 -128.5 -92.5t-147 -71t-167 -46t-188.5 -16.5q-147 0 -268.5 45t-208.5 127t-134.5 198t-47.5 257q0 123 32.5 222t96.5 176t158 132.5t217 91.5t274 53t328 17q34 0 63.5 -0.5t54 -1.5t46.5 -2v45q0 102 -24 174t-77 118t-136.5 67.5
t-201.5 21.5q-97 0 -188 -9t-175.5 -26t-161.5 -41t-146 -55v447q66 37 150 68.5t181 54.5t204.5 36t221.5 13q221 0 391.5 -46.5t286.5 -147.5t176 -260.5t60 -385.5v-1323h-512zM1434 889h-45q-165 0 -287.5 -14.5t-203.5 -47t-121 -84t-40 -125.5q0 -52 17.5 -98
t54 -80.5t93 -54.5t134.5 -20q58 0 112.5 8.5t104.5 24.5t95.5 37.5t85.5 47.5v406zM988 2408l-606 648h647l385 -648h-426z" />
    <glyph glyph-name="aacute" unicode="&#xe1;" horiz-adv-x="2286" 
d="M1483 0l-29 160q-60 -51 -128.5 -92.5t-147 -71t-167 -46t-188.5 -16.5q-147 0 -268.5 45t-208.5 127t-134.5 198t-47.5 257q0 123 32.5 222t96.5 176t158 132.5t217 91.5t274 53t328 17q34 0 63.5 -0.5t54 -1.5t46.5 -2v45q0 102 -24 174t-77 118t-136.5 67.5
t-201.5 21.5q-97 0 -188 -9t-175.5 -26t-161.5 -41t-146 -55v447q66 37 150 68.5t181 54.5t204.5 36t221.5 13q221 0 391.5 -46.5t286.5 -147.5t176 -260.5t60 -385.5v-1323h-512zM1434 889h-45q-165 0 -287.5 -14.5t-203.5 -47t-121 -84t-40 -125.5q0 -52 17.5 -98
t54 -80.5t93 -54.5t134.5 -20q58 0 112.5 8.5t104.5 24.5t95.5 37.5t85.5 47.5v406zM848 2408l385 648h647l-606 -648h-426z" />
    <glyph glyph-name="acircumflex" unicode="&#xe2;" horiz-adv-x="2286" 
d="M1483 0l-29 160q-60 -51 -128.5 -92.5t-147 -71t-167 -46t-188.5 -16.5q-147 0 -268.5 45t-208.5 127t-134.5 198t-47.5 257q0 123 32.5 222t96.5 176t158 132.5t217 91.5t274 53t328 17q34 0 63.5 -0.5t54 -1.5t46.5 -2v45q0 102 -24 174t-77 118t-136.5 67.5
t-201.5 21.5q-97 0 -188 -9t-175.5 -26t-161.5 -41t-146 -55v447q66 37 150 68.5t181 54.5t204.5 36t221.5 13q221 0 391.5 -46.5t286.5 -147.5t176 -260.5t60 -385.5v-1323h-512zM1434 889h-45q-165 0 -287.5 -14.5t-203.5 -47t-121 -84t-40 -125.5q0 -52 17.5 -98
t54 -80.5t93 -54.5t134.5 -20q58 0 112.5 8.5t104.5 24.5t95.5 37.5t85.5 47.5v406zM1414 2408l-283 336l-279 -336h-409l434 648h512l434 -648h-409z" />
    <glyph glyph-name="atilde" unicode="&#xe3;" horiz-adv-x="2286" 
d="M1483 0l-29 160q-60 -51 -128.5 -92.5t-147 -71t-167 -46t-188.5 -16.5q-147 0 -268.5 45t-208.5 127t-134.5 198t-47.5 257q0 123 32.5 222t96.5 176t158 132.5t217 91.5t274 53t328 17q34 0 63.5 -0.5t54 -1.5t46.5 -2v45q0 102 -24 174t-77 118t-136.5 67.5
t-201.5 21.5q-97 0 -188 -9t-175.5 -26t-161.5 -41t-146 -55v447q66 37 150 68.5t181 54.5t204.5 36t221.5 13q221 0 391.5 -46.5t286.5 -147.5t176 -260.5t60 -385.5v-1323h-512zM1434 889h-45q-165 0 -287.5 -14.5t-203.5 -47t-121 -84t-40 -125.5q0 -52 17.5 -98
t54 -80.5t93 -54.5t134.5 -20q58 0 112.5 8.5t104.5 24.5t95.5 37.5t85.5 47.5v406zM1905 3015q0 -140 -37.5 -250t-104 -186.5t-157.5 -117t-197 -40.5q-61 0 -114 14t-100 35.5t-89 46.5t-81.5 46.5t-76.5 35.5t-75 14q-43 0 -76 -12t-55.5 -35t-35 -56.5t-13.5 -76.5
h-336q0 140 36.5 250t101.5 186.5t154 117t195 40.5q61 0 115 -14.5t102 -35.5t91 -46.5t83 -46.5t78 -35.5t76 -14.5q43 0 76.5 11.5t56.5 34.5t35 56.5t12 78.5h336z" />
    <glyph glyph-name="adieresis" unicode="&#xe4;" horiz-adv-x="2286" 
d="M1483 0l-29 160q-60 -51 -128.5 -92.5t-147 -71t-167 -46t-188.5 -16.5q-147 0 -268.5 45t-208.5 127t-134.5 198t-47.5 257q0 123 32.5 222t96.5 176t158 132.5t217 91.5t274 53t328 17q34 0 63.5 -0.5t54 -1.5t46.5 -2v45q0 102 -24 174t-77 118t-136.5 67.5
t-201.5 21.5q-97 0 -188 -9t-175.5 -26t-161.5 -41t-146 -55v447q66 37 150 68.5t181 54.5t204.5 36t221.5 13q221 0 391.5 -46.5t286.5 -147.5t176 -260.5t60 -385.5v-1323h-512zM1434 889h-45q-165 0 -287.5 -14.5t-203.5 -47t-121 -84t-40 -125.5q0 -52 17.5 -98
t54 -80.5t93 -54.5t134.5 -20q58 0 112.5 8.5t104.5 24.5t95.5 37.5t85.5 47.5v406zM455 2482v500h537v-500h-537zM1270 2482v500h537v-500h-537z" />
    <glyph glyph-name="aring" unicode="&#xe5;" horiz-adv-x="2286" 
d="M1483 0l-29 160q-60 -51 -128.5 -92.5t-147 -71t-167 -46t-188.5 -16.5q-147 0 -268.5 45t-208.5 127t-134.5 198t-47.5 257q0 123 32.5 222t96.5 176t158 132.5t217 91.5t274 53t328 17q34 0 63.5 -0.5t54 -1.5t46.5 -2v45q0 102 -24 174t-77 118t-136.5 67.5
t-201.5 21.5q-97 0 -188 -9t-175.5 -26t-161.5 -41t-146 -55v447q66 37 150 68.5t181 54.5t204.5 36t221.5 13q221 0 391.5 -46.5t286.5 -147.5t176 -260.5t60 -385.5v-1323h-512zM1434 889h-45q-165 0 -287.5 -14.5t-203.5 -47t-121 -84t-40 -125.5q0 -52 17.5 -98
t54 -80.5t93 -54.5t134.5 -20q58 0 112.5 8.5t104.5 24.5t95.5 37.5t85.5 47.5v406zM1622 2859q0 -100 -37.5 -185.5t-103.5 -148t-156 -98t-194 -35.5q-105 0 -195 35.5t-156 98t-103.5 148t-37.5 185.5t37.5 185.5t103.5 148t156 98t195 35.5q104 0 194 -35.5t156 -98
t103.5 -148t37.5 -185.5zM1131 2654q45 0 82 16.5t63.5 44.5t41 65t14.5 79q0 40 -14.5 76.5t-41 64t-63.5 44t-82 16.5t-82.5 -16.5t-64.5 -44t-42.5 -64t-15.5 -76.5q0 -42 15.5 -79t42.5 -65t64.5 -44.5t82.5 -16.5z" />
    <glyph glyph-name="ae" unicode="&#xe6;" horiz-adv-x="3494" 
d="M3219 82q-72 -34 -150.5 -61t-169.5 -46.5t-196 -30t-229 -10.5q-129 0 -242.5 20.5t-211.5 59.5t-180 95.5t-148 128.5q-66 -71 -147 -127.5t-180 -95.5t-218 -60t-262 -21q-168 0 -301.5 45t-226.5 127t-143 198t-50 257q0 122 32.5 220.5t96.5 175.5t158 133t217 92
t274 53.5t328 17.5q34 0 77 -2t87 -2v45q0 97 -25 168.5t-78.5 118.5t-138.5 70.5t-205 23.5q-97 0 -186.5 -9t-172.5 -26t-159 -41t-145 -55v447q66 37 150 68.5t181 54.5t204.5 36t221.5 13q112 0 213.5 -17.5t188 -49.5t157 -78.5t121.5 -104.5q51 58 116 105t143 80
t169.5 51t194.5 18q179 0 319.5 -42.5t246.5 -117t180 -177t120 -222.5t67 -253.5t21 -269.5q0 -18 -1 -44t-2.5 -54t-3.5 -54t-5 -44h-1331q7 -106 41 -193t99 -148.5t165 -95.5t240 -34q93 0 185.5 7.5t179.5 21t166.5 33.5t147.5 44v-442zM1389 889q-165 0 -287.5 -14.5
t-203.5 -47t-121 -84t-40 -125.5q0 -52 17.5 -98t54 -80.5t93 -54.5t134.5 -20q58 0 112.5 8t104.5 22.5t95.5 35t85.5 44.5v200.5v213.5h-45zM2777 1286q-9 103 -37.5 185t-77.5 139.5t-118 88t-160 30.5t-159.5 -30.5t-116 -88t-75 -139.5t-34.5 -185h778z" />
    <glyph glyph-name="ccedilla" unicode="&#xe7;" horiz-adv-x="1913" 
d="M709 -586q40 -9 82 -14.5t98 -5.5q37 0 72 7t62.5 22.5t44.5 39.5t17 58q0 37 -25.5 66.5t-66.5 51.5t-94 35.5t-108 18.5l151 258q-189 26 -333.5 113.5t-242.5 228.5t-148 331t-50 420q0 179 27.5 331.5t82.5 277t137 220t190.5 160t244 97.5t297.5 33q80 0 169 -8
t173.5 -22.5t157 -35t118.5 -45.5v-459q-55 20 -115 35.5t-126 26t-138.5 15.5t-152.5 5q-126 0 -218.5 -46t-153.5 -127.5t-90.5 -194.5t-29.5 -246q0 -134 30 -250.5t91.5 -202.5t155 -136t219.5 -50q81 0 155.5 5.5t142.5 16t129.5 25.5t117.5 35v-447q-49 -23 -110 -42
t-130.5 -33.5t-146.5 -24.5t-158 -14l-66 -140q61 -6 117 -31.5t98.5 -66.5t67.5 -94.5t25 -114.5q0 -63 -19 -114.5t-54 -93t-83.5 -72.5t-108.5 -51.5t-128.5 -31t-143.5 -10.5q-68 0 -126 8.5t-107 20.5v262z" />
    <glyph glyph-name="egrave" unicode="&#xe8;" horiz-adv-x="2224" 
d="M1950 86q-72 -34 -151 -61t-170 -46t-196 -29.5t-229 -10.5q-172 0 -316 34.5t-259.5 101t-202.5 162t-145 218t-87.5 269.5t-29.5 316q0 153 22 296t69.5 268t122.5 228.5t180.5 178t243.5 115.5t312 41q179 0 319.5 -42.5t246.5 -117t180 -177t120 -222.5t67 -253.5
t21 -269.5q0 -18 -1 -44t-2.5 -54t-3.5 -54t-5 -44h-1331q7 -106 41 -192.5t99 -147.5t165 -94t240 -33q94 0 186.5 7.5t179.5 21t166.5 33.5t147.5 44v-442zM1507 1286q-8 103 -35.5 185t-76.5 139.5t-119 88t-162 30.5t-161 -30.5t-116 -88t-73.5 -139.5t-34.5 -185h778z
M972 2408l-606 648h647l385 -648h-426z" />
    <glyph glyph-name="eacute" unicode="&#xe9;" horiz-adv-x="2224" 
d="M1950 86q-72 -34 -151 -61t-170 -46t-196 -29.5t-229 -10.5q-172 0 -316 34.5t-259.5 101t-202.5 162t-145 218t-87.5 269.5t-29.5 316q0 153 22 296t69.5 268t122.5 228.5t180.5 178t243.5 115.5t312 41q179 0 319.5 -42.5t246.5 -117t180 -177t120 -222.5t67 -253.5
t21 -269.5q0 -18 -1 -44t-2.5 -54t-3.5 -54t-5 -44h-1331q7 -106 41 -192.5t99 -147.5t165 -94t240 -33q94 0 186.5 7.5t179.5 21t166.5 33.5t147.5 44v-442zM1507 1286q-8 103 -35.5 185t-76.5 139.5t-119 88t-162 30.5t-161 -30.5t-116 -88t-73.5 -139.5t-34.5 -185h778z
M832 2408l385 648h647l-606 -648h-426z" />
    <glyph glyph-name="ecircumflex" unicode="&#xea;" horiz-adv-x="2224" 
d="M1950 86q-72 -34 -151 -61t-170 -46t-196 -29.5t-229 -10.5q-172 0 -316 34.5t-259.5 101t-202.5 162t-145 218t-87.5 269.5t-29.5 316q0 153 22 296t69.5 268t122.5 228.5t180.5 178t243.5 115.5t312 41q179 0 319.5 -42.5t246.5 -117t180 -177t120 -222.5t67 -253.5
t21 -269.5q0 -18 -1 -44t-2.5 -54t-3.5 -54t-5 -44h-1331q7 -106 41 -192.5t99 -147.5t165 -94t240 -33q94 0 186.5 7.5t179.5 21t166.5 33.5t147.5 44v-442zM1507 1286q-8 103 -35.5 185t-76.5 139.5t-119 88t-162 30.5t-161 -30.5t-116 -88t-73.5 -139.5t-34.5 -185h778z
M1397 2408l-283 336l-279 -336h-409l434 648h512l434 -648h-409z" />
    <glyph glyph-name="edieresis" unicode="&#xeb;" horiz-adv-x="2224" 
d="M1950 86q-72 -34 -151 -61t-170 -46t-196 -29.5t-229 -10.5q-172 0 -316 34.5t-259.5 101t-202.5 162t-145 218t-87.5 269.5t-29.5 316q0 153 22 296t69.5 268t122.5 228.5t180.5 178t243.5 115.5t312 41q179 0 319.5 -42.5t246.5 -117t180 -177t120 -222.5t67 -253.5
t21 -269.5q0 -18 -1 -44t-2.5 -54t-3.5 -54t-5 -44h-1331q7 -106 41 -192.5t99 -147.5t165 -94t240 -33q94 0 186.5 7.5t179.5 21t166.5 33.5t147.5 44v-442zM1507 1286q-8 103 -35.5 185t-76.5 139.5t-119 88t-162 30.5t-161 -30.5t-116 -88t-73.5 -139.5t-34.5 -185h778z
M438 2482v500h537v-500h-537zM1253 2482v500h537v-500h-537z" />
    <glyph glyph-name="igrave" unicode="&#xec;" horiz-adv-x="1233" 
d="M336 0v2101h561v-2101h-561zM472 2408l-606 648h647l385 -648h-426z" />
    <glyph glyph-name="iacute" unicode="&#xed;" horiz-adv-x="1233" 
d="M336 0v2101h561v-2101h-561zM333 2408l385 648h647l-606 -648h-426z" />
    <glyph glyph-name="icircumflex" unicode="&#xee;" horiz-adv-x="1233" 
d="M336 0v2101h561v-2101h-561zM899 2408l-283 336l-279 -336h-409l434 648h512l434 -648h-409z" />
    <glyph glyph-name="idieresis" unicode="&#xef;" horiz-adv-x="1233" 
d="M336 0v2101h561v-2101h-561zM-60 2482v500h537v-500h-537zM755 2482v500h537v-500h-537z" />
    <glyph glyph-name="eth" unicode="&#xf0;" horiz-adv-x="2433" 
d="M1602 2486q146 -137 268 -297.5t209.5 -342t136.5 -381t49 -412.5q0 -163 -25 -309.5t-78.5 -270.5t-136.5 -224t-199.5 -170t-268 -107.5t-340.5 -37.5q-195 0 -348.5 35.5t-270 101.5t-198.5 159t-133.5 208t-75 249.5t-23.5 283.5t28.5 281t83 242t134.5 197t183 147
t227.5 92t269.5 32q69 0 130 -9.5t115 -27t102 -41.5t91 -53q-84 136 -180 252.5t-201 218.5l-594 -242v353l303 122q-90 62 -176.5 113.5t-167.5 91.5l229 266q72 -26 144 -56.5t143.5 -66t141 -76.5t137.5 -87l647 262v-352zM1217 389q129 0 218.5 43.5t146 121.5
t81.5 184.5t25 232.5t-25 233t-81.5 185.5t-146 122.5t-218.5 44t-219 -44t-146.5 -122.5t-81.5 -185.5t-25 -233q0 -84 11 -160t34.5 -140.5t61 -116.5t90 -88.5t121 -56.5t154.5 -20z" />
    <glyph glyph-name="ntilde" unicode="&#xf1;" horiz-adv-x="2568" 
d="M1720 0v1303q0 97 -24.5 167.5t-73 117t-120.5 69t-167 22.5q-65 0 -124.5 -7.5t-114.5 -22t-104.5 -36t-94.5 -48.5v-1565h-561v2101h487l45 -172q64 58 135 102.5t151.5 74.5t172 45.5t197.5 15.5q133 0 241 -25.5t192 -74t145 -118t101 -157.5t59 -192.5t19 -223.5
v-1376h-561zM2081 3015q0 -140 -37.5 -250t-104 -186.5t-157.5 -117t-197 -40.5q-61 0 -114 14t-100 35.5t-89 46.5t-81.5 46.5t-76.5 35.5t-75 14q-43 0 -76 -12t-55.5 -35t-35 -56.5t-13.5 -76.5h-336q0 140 36.5 250t101.5 186.5t154 117t195 40.5q61 0 115 -14.5
t102 -35.5t91 -46.5t83 -46.5t78 -35.5t76 -14.5q43 0 76.5 11.5t56.5 34.5t35 56.5t12 78.5h336z" />
    <glyph glyph-name="ograve" unicode="&#xf2;" horiz-adv-x="2433" 
d="M1217 -66q-188 0 -339.5 37.5t-268 107.5t-200 169.5t-137 223.5t-79 269.5t-25.5 307.5q0 163 26.5 309t82 270t140.5 224t201.5 170t265.5 107.5t333 37.5q188 0 339 -37.5t267.5 -107.5t200 -169.5t137 -223t79 -269t25.5 -307.5q0 -163 -26.5 -309.5t-82 -270.5
t-140.5 -224t-201.5 -170t-265.5 -107.5t-332 -37.5zM1217 389q132 0 222 52.5t145.5 142.5t79.5 211t24 258q0 136 -24 256.5t-79.5 209.5t-145.5 141t-222 52t-222.5 -52.5t-146 -142.5t-79.5 -211t-24 -257q0 -137 24 -257t79.5 -209.5t146 -141.5t222.5 -52zM1073 2408
l-606 648h647l385 -648h-426z" />
    <glyph glyph-name="oacute" unicode="&#xf3;" horiz-adv-x="2433" 
d="M1217 -66q-188 0 -339.5 37.5t-268 107.5t-200 169.5t-137 223.5t-79 269.5t-25.5 307.5q0 163 26.5 309t82 270t140.5 224t201.5 170t265.5 107.5t333 37.5q188 0 339 -37.5t267.5 -107.5t200 -169.5t137 -223t79 -269t25.5 -307.5q0 -163 -26.5 -309.5t-82 -270.5
t-140.5 -224t-201.5 -170t-265.5 -107.5t-332 -37.5zM1217 389q132 0 222 52.5t145.5 142.5t79.5 211t24 258q0 136 -24 256.5t-79.5 209.5t-145.5 141t-222 52t-222.5 -52.5t-146 -142.5t-79.5 -211t-24 -257q0 -137 24 -257t79.5 -209.5t146 -141.5t222.5 -52zM934 2408
l385 648h647l-606 -648h-426z" />
    <glyph glyph-name="ocircumflex" unicode="&#xf4;" horiz-adv-x="2433" 
d="M1217 -66q-188 0 -339.5 37.5t-268 107.5t-200 169.5t-137 223.5t-79 269.5t-25.5 307.5q0 163 26.5 309t82 270t140.5 224t201.5 170t265.5 107.5t333 37.5q188 0 339 -37.5t267.5 -107.5t200 -169.5t137 -223t79 -269t25.5 -307.5q0 -163 -26.5 -309.5t-82 -270.5
t-140.5 -224t-201.5 -170t-265.5 -107.5t-332 -37.5zM1217 389q132 0 222 52.5t145.5 142.5t79.5 211t24 258q0 136 -24 256.5t-79.5 209.5t-145.5 141t-222 52t-222.5 -52.5t-146 -142.5t-79.5 -211t-24 -257q0 -137 24 -257t79.5 -209.5t146 -141.5t222.5 -52zM1500 2408
l-283 336l-279 -336h-409l434 648h512l434 -648h-409z" />
    <glyph glyph-name="otilde" unicode="&#xf5;" horiz-adv-x="2433" 
d="M1217 -66q-188 0 -339.5 37.5t-268 107.5t-200 169.5t-137 223.5t-79 269.5t-25.5 307.5q0 163 26.5 309t82 270t140.5 224t201.5 170t265.5 107.5t333 37.5q188 0 339 -37.5t267.5 -107.5t200 -169.5t137 -223t79 -269t25.5 -307.5q0 -163 -26.5 -309.5t-82 -270.5
t-140.5 -224t-201.5 -170t-265.5 -107.5t-332 -37.5zM1217 389q132 0 222 52.5t145.5 142.5t79.5 211t24 258q0 136 -24 256.5t-79.5 209.5t-145.5 141t-222 52t-222.5 -52.5t-146 -142.5t-79.5 -211t-24 -257q0 -137 24 -257t79.5 -209.5t146 -141.5t222.5 -52zM1991 3015
q0 -140 -37.5 -250t-104 -186.5t-157.5 -117t-197 -40.5q-61 0 -114 14t-100 35.5t-89 46.5t-81.5 46.5t-76.5 35.5t-75 14q-43 0 -76 -12t-55.5 -35t-35 -56.5t-13.5 -76.5h-336q0 140 36.5 250t101.5 186.5t154 117t195 40.5q61 0 115 -14.5t102 -35.5t91 -46.5t83 -46.5
t78 -35.5t76 -14.5q43 0 76.5 11.5t56.5 34.5t35 56.5t12 78.5h336z" />
    <glyph glyph-name="odieresis" unicode="&#xf6;" horiz-adv-x="2433" 
d="M1217 -66q-188 0 -339.5 37.5t-268 107.5t-200 169.5t-137 223.5t-79 269.5t-25.5 307.5q0 163 26.5 309t82 270t140.5 224t201.5 170t265.5 107.5t333 37.5q188 0 339 -37.5t267.5 -107.5t200 -169.5t137 -223t79 -269t25.5 -307.5q0 -163 -26.5 -309.5t-82 -270.5
t-140.5 -224t-201.5 -170t-265.5 -107.5t-332 -37.5zM1217 389q132 0 222 52.5t145.5 142.5t79.5 211t24 258q0 136 -24 256.5t-79.5 209.5t-145.5 141t-222 52t-222.5 -52.5t-146 -142.5t-79.5 -211t-24 -257q0 -137 24 -257t79.5 -209.5t146 -141.5t222.5 -52zM541 2482
v500h537v-500h-537zM1356 2482v500h537v-500h-537z" />
    <glyph glyph-name="divide" unicode="&#xf7;" horiz-adv-x="2458" 
d="M123 987v467h2212v-467h-2212zM950 1778v549h561v-549h-561zM950 115v549h561v-549h-561z" />
    <glyph glyph-name="oslash" unicode="&#xf8;" horiz-adv-x="2433" 
d="M111 -41l266 328q-56 73 -95.5 158.5t-64.5 181.5t-37 202t-12 220q0 163 26.5 309t82 270t140.5 224t201.5 170t265.5 107.5t333 37.5q193 0 347 -41.5t271 -114.5l107 131h380l-270 -332q55 -72 95.5 -156.5t66.5 -180t38.5 -201t12.5 -219.5q0 -163 -26.5 -309.5
t-82 -270.5t-140.5 -224t-201.5 -170t-265.5 -107.5t-332 -37.5q-194 0 -348 40.5t-271 111.5l-102 -127h-385zM950 467q50 -37 116.5 -57.5t150.5 -20.5q132 0 222 52.5t145.5 142.5t79.5 211t24 258q0 77 -9 147t-24 135zM1483 1630q-53 37 -118 59.5t-148 22.5
q-132 0 -222.5 -52.5t-146 -142.5t-79.5 -211t-24 -257q0 -78 7 -148t22 -135z" />
    <glyph glyph-name="ugrave" unicode="&#xf9;" horiz-adv-x="2531" 
d="M1708 0l-45 168q-62 -57 -129 -100.5t-143 -73.5t-162 -45t-185 -15q-133 0 -241 25.5t-192 74t-145 118t-101 157.5t-59 192.5t-19 223.5v1376h561v-1302q0 -97 24.5 -168.5t73 -119t120.5 -70.5t167 -23q57 0 110.5 7.5t104 21.5t97 34.5t89.5 46.5v1573h561v-2101
h-487zM1098 2408l-606 648h647l385 -648h-426z" />
    <glyph glyph-name="uacute" unicode="&#xfa;" horiz-adv-x="2531" 
d="M1708 0l-45 168q-62 -57 -129 -100.5t-143 -73.5t-162 -45t-185 -15q-133 0 -241 25.5t-192 74t-145 118t-101 157.5t-59 192.5t-19 223.5v1376h561v-1302q0 -97 24.5 -168.5t73 -119t120.5 -70.5t167 -23q57 0 110.5 7.5t104 21.5t97 34.5t89.5 46.5v1573h561v-2101
h-487zM959 2408l385 648h647l-606 -648h-426z" />
    <glyph glyph-name="ucircumflex" unicode="&#xfb;" horiz-adv-x="2531" 
d="M1708 0l-45 168q-62 -57 -129 -100.5t-143 -73.5t-162 -45t-185 -15q-133 0 -241 25.5t-192 74t-145 118t-101 157.5t-59 192.5t-19 223.5v1376h561v-1302q0 -97 24.5 -168.5t73 -119t120.5 -70.5t167 -23q57 0 110.5 7.5t104 21.5t97 34.5t89.5 46.5v1573h561v-2101
h-487zM1524 2408l-283 336l-279 -336h-409l434 648h512l434 -648h-409z" />
    <glyph glyph-name="udieresis" unicode="&#xfc;" horiz-adv-x="2531" 
d="M1708 0l-45 168q-62 -57 -129 -100.5t-143 -73.5t-162 -45t-185 -15q-133 0 -241 25.5t-192 74t-145 118t-101 157.5t-59 192.5t-19 223.5v1376h561v-1302q0 -97 24.5 -168.5t73 -119t120.5 -70.5t167 -23q57 0 110.5 7.5t104 21.5t97 34.5t89.5 46.5v1573h561v-2101
h-487zM565 2482v500h537v-500h-537zM1380 2482v500h537v-500h-537z" />
    <glyph glyph-name="yacute" unicode="&#xfd;" horiz-adv-x="2150" 
d="M0 -471q46 -9 92.5 -12.5t95.5 -3.5q74 0 138 7t120 25t104 49.5t90 79.5t78 115.5t68 157.5l9 20l-779 2134h611l381 -1241q18 -65 38 -149.5t35 -173.5q19 89 40 173.5t42 149.5l402 1241h569l-754 -2121q-61 -171 -129 -307t-147 -240.5t-171 -178.5t-201 -121
t-238 -69t-281 -22q-28 0 -57.5 2t-58 6t-54 9t-43.5 11v459zM803 2408l385 648h647l-606 -648h-426z" />
    <glyph glyph-name="thorn" unicode="&#xfe;" horiz-adv-x="2552" 
d="M336 -934v4039h561v-1151q49 49 109.5 88.5t133 67t158 42.5t185.5 15q210 0 376.5 -74t282 -215.5t177 -348.5t61.5 -472q0 -173 -29.5 -323.5t-86.5 -275t-140.5 -222.5t-191.5 -165t-239.5 -102t-283.5 -35q-78 0 -148.5 9.5t-134 28t-120.5 46t-109 64.5v-1016h-561z
M897 512q43 -26 91 -45.5t101 -32t111 -18.5t123 -6q126 0 217 49t150.5 134.5t87.5 201t28 249.5t-29 252t-88.5 206t-151.5 139t-218 51q-65 0 -122.5 -6.5t-110 -19.5t-99.5 -33t-90 -48v-1073z" />
    <glyph glyph-name="ydieresis" unicode="&#xff;" horiz-adv-x="2150" 
d="M0 -471q46 -9 92.5 -12.5t95.5 -3.5q74 0 138 7t120 25t104 49.5t90 79.5t78 115.5t68 157.5l9 20l-779 2134h611l381 -1241q18 -65 38 -149.5t35 -173.5q19 89 40 173.5t42 149.5l402 1241h569l-754 -2121q-61 -171 -129 -307t-147 -240.5t-171 -178.5t-201 -121
t-238 -69t-281 -22q-28 0 -57.5 2t-58 6t-54 9t-43.5 11v459zM410 2482v500h537v-500h-537zM1225 2482v500h537v-500h-537z" />
    <glyph glyph-name="Amacron" unicode="&#x100;" horiz-adv-x="2822" 
d="M2171 0l-213 639h-1127l-208 -639h-590l1069 2966h618l1069 -2966h-618zM1536 1917q-43 133 -78.5 265t-60.5 272q-25 -140 -60.5 -272t-79.5 -265l-270 -811h815zM774 3257v426h1254v-426h-1254z" />
    <glyph glyph-name="amacron" unicode="&#x101;" horiz-adv-x="2286" 
d="M1483 0l-29 160q-60 -51 -128.5 -92.5t-147 -71t-167 -46t-188.5 -16.5q-147 0 -268.5 45t-208.5 127t-134.5 198t-47.5 257q0 123 32.5 222t96.5 176t158 132.5t217 91.5t274 53t328 17q34 0 63.5 -0.5t54 -1.5t46.5 -2v45q0 102 -24 174t-77 118t-136.5 67.5
t-201.5 21.5q-97 0 -188 -9t-175.5 -26t-161.5 -41t-146 -55v447q66 37 150 68.5t181 54.5t204.5 36t221.5 13q221 0 391.5 -46.5t286.5 -147.5t176 -260.5t60 -385.5v-1323h-512zM1434 889h-45q-165 0 -287.5 -14.5t-203.5 -47t-121 -84t-40 -125.5q0 -52 17.5 -98
t54 -80.5t93 -54.5t134.5 -20q58 0 112.5 8.5t104.5 24.5t95.5 37.5t85.5 47.5v406zM504 2503v426h1254v-426h-1254z" />
    <glyph glyph-name="Abreve" unicode="&#x102;" horiz-adv-x="2822" 
d="M2171 0l-213 639h-1127l-208 -639h-590l1069 2966h618l1069 -2966h-618zM1536 1917q-43 133 -78.5 265t-60.5 272q-25 -140 -60.5 -272t-79.5 -265l-270 -811h815zM2097 3810q-6 -137 -53 -258.5t-134 -212.5t-214.5 -144t-294.5 -53q-168 0 -295.5 53t-214.5 144
t-133.5 212.5t-52.5 258.5h352q4 -56 27.5 -109.5t66 -95.5t105 -68t145.5 -26t144.5 26.5t103.5 69t64.5 96t27.5 107.5h356z" />
    <glyph glyph-name="abreve" unicode="&#x103;" horiz-adv-x="2286" 
d="M1483 0l-29 160q-60 -51 -128.5 -92.5t-147 -71t-167 -46t-188.5 -16.5q-147 0 -268.5 45t-208.5 127t-134.5 198t-47.5 257q0 123 32.5 222t96.5 176t158 132.5t217 91.5t274 53t328 17q34 0 63.5 -0.5t54 -1.5t46.5 -2v45q0 102 -24 174t-77 118t-136.5 67.5
t-201.5 21.5q-97 0 -188 -9t-175.5 -26t-161.5 -41t-146 -55v447q66 37 150 68.5t181 54.5t204.5 36t221.5 13q221 0 391.5 -46.5t286.5 -147.5t176 -260.5t60 -385.5v-1323h-512zM1434 889h-45q-165 0 -287.5 -14.5t-203.5 -47t-121 -84t-40 -125.5q0 -52 17.5 -98
t54 -80.5t93 -54.5t134.5 -20q58 0 112.5 8.5t104.5 24.5t95.5 37.5t85.5 47.5v406zM1827 3056q-6 -137 -53 -258.5t-134 -212.5t-214.5 -144t-294.5 -53q-168 0 -295.5 53t-214.5 144t-133.5 212.5t-52.5 258.5h352q4 -56 27.5 -109.5t66 -95.5t105 -68t145.5 -26
t144.5 26.5t103.5 69t64.5 96t27.5 107.5h356z" />
    <glyph glyph-name="Aogonek" unicode="&#x104;" horiz-adv-x="2822" 
d="M2597 -852q-50 -12 -106 -18.5t-115 -6.5q-126 0 -225 26.5t-167.5 77.5t-104.5 125t-36 169q0 73 27 140t72.5 127t104.5 113t124 99l-213 639h-1127l-208 -639h-590l1069 2966h618l1069 -2966h-311q-51 -52 -91.5 -104.5t-69.5 -103.5t-44.5 -100t-15.5 -93
q0 -77 50.5 -124.5t158.5 -47.5q23 0 40.5 1.5t32.5 3.5t29 5t29 6v-295zM1536 1917q-43 133 -78.5 265t-60.5 272q-25 -140 -60.5 -272t-79.5 -265l-270 -811h815z" />
    <glyph glyph-name="aogonek" unicode="&#x105;" horiz-adv-x="2286" 
d="M1909 -852q-50 -12 -106.5 -18.5t-114.5 -6.5q-126 0 -225 26.5t-167.5 77.5t-104.5 125t-36 169q0 73 27 140t72.5 127t104.5 113t124 99l-29 160q-60 -51 -128.5 -92.5t-147 -71t-167 -46t-188.5 -16.5q-147 0 -268.5 45t-208.5 127t-134.5 198t-47.5 257
q0 123 32.5 222t96.5 176t158 132.5t217 91.5t274 53t328 17q34 0 63.5 -0.5t54 -1.5t46.5 -2v45q0 102 -24 174t-77 118t-136.5 67.5t-201.5 21.5q-97 0 -188 -9t-175.5 -26t-161.5 -41t-146 -55v447q66 37 150 68.5t181 54.5t204.5 36t221.5 13q221 0 391.5 -46.5
t286.5 -147.5t176 -260.5t60 -385.5v-1323h-205q-51 -52 -91.5 -104.5t-69.5 -103.5t-44.5 -100t-15.5 -93q0 -77 50.5 -124.5t158.5 -47.5q23 0 40.5 1.5t32.5 3.5t29 5t29 6v-295zM1434 889h-45q-165 0 -287.5 -14.5t-203.5 -47t-121 -84t-40 -125.5q0 -52 17.5 -98
t54 -80.5t93 -54.5t134.5 -20q58 0 112.5 8.5t104.5 24.5t95.5 37.5t85.5 47.5v406z" />
    <glyph glyph-name="Cacute" unicode="&#x106;" horiz-adv-x="2544" 
d="M2396 102q-91 -40 -184 -71t-201 -52.5t-238 -33t-294 -11.5q-214 0 -391 48.5t-317.5 141.5t-245.5 228t-174 308.5t-103.5 383t-34.5 451.5q0 226 35.5 428t107.5 372.5t180 307t252.5 231.5t326.5 146t401 51q135 0 256 -12.5t227.5 -36t197.5 -57t166 -74.5v-479
q-75 37 -163.5 66.5t-190 50t-217 31.5t-244.5 11q-125 0 -227.5 -32t-184 -93.5t-142 -151.5t-100.5 -205t-59.5 -254t-19.5 -300q0 -192 20.5 -346t62 -272.5t104 -203t146.5 -138.5t189 -79.5t232 -25.5q135 0 246.5 9.5t209.5 28t188.5 47t182.5 67.5v-480zM1209 3162
l385 648h647l-606 -648h-426z" />
    <glyph glyph-name="cacute" unicode="&#x107;" horiz-adv-x="1913" 
d="M1782 57q-59 -27 -134.5 -49t-162.5 -37.5t-183 -23.5t-196 -8q-227 0 -402 77.5t-294 221.5t-180.5 348.5t-61.5 457.5q0 179 27.5 331.5t82.5 277t137 220t190.5 160t244 97.5t297.5 33q80 0 169 -8t173.5 -22.5t157 -35t118.5 -45.5v-459q-55 20 -115 35.5t-126 26
t-138.5 15.5t-152.5 5q-126 0 -218.5 -46t-153.5 -127.5t-90.5 -194.5t-29.5 -246q0 -134 30 -250.5t91.5 -202.5t155 -136t219.5 -50q81 0 155.5 5.5t142.5 16t129.5 25.5t117.5 35v-447zM832 2408l385 648h647l-606 -648h-426z" />
    <glyph glyph-name="Ccircumflex" unicode="&#x108;" horiz-adv-x="2544" 
d="M2396 102q-91 -40 -184 -71t-201 -52.5t-238 -33t-294 -11.5q-214 0 -391 48.5t-317.5 141.5t-245.5 228t-174 308.5t-103.5 383t-34.5 451.5q0 226 35.5 428t107.5 372.5t180 307t252.5 231.5t326.5 146t401 51q135 0 256 -12.5t227.5 -36t197.5 -57t166 -74.5v-479
q-75 37 -163.5 66.5t-190 50t-217 31.5t-244.5 11q-125 0 -227.5 -32t-184 -93.5t-142 -151.5t-100.5 -205t-59.5 -254t-19.5 -300q0 -192 20.5 -346t62 -272.5t104 -203t146.5 -138.5t189 -79.5t232 -25.5q135 0 246.5 9.5t209.5 28t188.5 47t182.5 67.5v-480zM1774 3162
l-283 336l-279 -336h-409l434 648h512l434 -648h-409z" />
    <glyph glyph-name="ccircumflex" unicode="&#x109;" horiz-adv-x="1913" 
d="M1782 57q-59 -27 -134.5 -49t-162.5 -37.5t-183 -23.5t-196 -8q-227 0 -402 77.5t-294 221.5t-180.5 348.5t-61.5 457.5q0 179 27.5 331.5t82.5 277t137 220t190.5 160t244 97.5t297.5 33q80 0 169 -8t173.5 -22.5t157 -35t118.5 -45.5v-459q-55 20 -115 35.5t-126 26
t-138.5 15.5t-152.5 5q-126 0 -218.5 -46t-153.5 -127.5t-90.5 -194.5t-29.5 -246q0 -134 30 -250.5t91.5 -202.5t155 -136t219.5 -50q81 0 155.5 5.5t142.5 16t129.5 25.5t117.5 35v-447zM1397 2408l-283 336l-279 -336h-409l434 648h512l434 -648h-409z" />
    <glyph glyph-name="Cdotaccent" unicode="&#x10a;" horiz-adv-x="2544" 
d="M2396 102q-91 -40 -184 -71t-201 -52.5t-238 -33t-294 -11.5q-214 0 -391 48.5t-317.5 141.5t-245.5 228t-174 308.5t-103.5 383t-34.5 451.5q0 226 35.5 428t107.5 372.5t180 307t252.5 231.5t326.5 146t401 51q135 0 256 -12.5t227.5 -36t197.5 -57t166 -74.5v-479
q-75 37 -163.5 66.5t-190 50t-217 31.5t-244.5 11q-125 0 -227.5 -32t-184 -93.5t-142 -151.5t-100.5 -205t-59.5 -254t-19.5 -300q0 -192 20.5 -346t62 -272.5t104 -203t146.5 -138.5t189 -79.5t232 -25.5q135 0 246.5 9.5t209.5 28t188.5 47t182.5 67.5v-480zM1204 3236
v533h570v-533h-570z" />
    <glyph glyph-name="cdotaccent" unicode="&#x10b;" horiz-adv-x="1913" 
d="M1782 57q-59 -27 -134.5 -49t-162.5 -37.5t-183 -23.5t-196 -8q-227 0 -402 77.5t-294 221.5t-180.5 348.5t-61.5 457.5q0 179 27.5 331.5t82.5 277t137 220t190.5 160t244 97.5t297.5 33q80 0 169 -8t173.5 -22.5t157 -35t118.5 -45.5v-459q-55 20 -115 35.5t-126 26
t-138.5 15.5t-152.5 5q-126 0 -218.5 -46t-153.5 -127.5t-90.5 -194.5t-29.5 -246q0 -134 30 -250.5t91.5 -202.5t155 -136t219.5 -50q81 0 155.5 5.5t142.5 16t129.5 25.5t117.5 35v-447zM827 2482v533h570v-533h-570z" />
    <glyph glyph-name="Ccaron" unicode="&#x10c;" horiz-adv-x="2544" 
d="M2396 102q-91 -40 -184 -71t-201 -52.5t-238 -33t-294 -11.5q-214 0 -391 48.5t-317.5 141.5t-245.5 228t-174 308.5t-103.5 383t-34.5 451.5q0 226 35.5 428t107.5 372.5t180 307t252.5 231.5t326.5 146t401 51q135 0 256 -12.5t227.5 -36t197.5 -57t166 -74.5v-479
q-75 37 -163.5 66.5t-190 50t-217 31.5t-244.5 11q-125 0 -227.5 -32t-184 -93.5t-142 -151.5t-100.5 -205t-59.5 -254t-19.5 -300q0 -192 20.5 -346t62 -272.5t104 -203t146.5 -138.5t189 -79.5t232 -25.5q135 0 246.5 9.5t209.5 28t188.5 47t182.5 67.5v-480zM1233 3162
l-434 648h409l279 -340l282 340h410l-434 -648h-512z" />
    <glyph glyph-name="ccaron" unicode="&#x10d;" horiz-adv-x="1913" 
d="M1782 57q-59 -27 -134.5 -49t-162.5 -37.5t-183 -23.5t-196 -8q-227 0 -402 77.5t-294 221.5t-180.5 348.5t-61.5 457.5q0 179 27.5 331.5t82.5 277t137 220t190.5 160t244 97.5t297.5 33q80 0 169 -8t173.5 -22.5t157 -35t118.5 -45.5v-459q-55 20 -115 35.5t-126 26
t-138.5 15.5t-152.5 5q-126 0 -218.5 -46t-153.5 -127.5t-90.5 -194.5t-29.5 -246q0 -134 30 -250.5t91.5 -202.5t155 -136t219.5 -50q81 0 155.5 5.5t142.5 16t129.5 25.5t117.5 35v-447zM856 2408l-434 648h409l279 -340l282 340h410l-434 -648h-512z" />
    <glyph glyph-name="Dcaron" unicode="&#x10e;" horiz-adv-x="3006" 
d="M369 0v2966h1048q258 0 459 -51t352 -145t256 -227.5t170 -298t94 -357t29 -404.5t-31.5 -404.5t-99 -357t-174.5 -298t-258 -227.5t-349 -145t-448 -51h-1048zM1397 475q124 0 230 27t193 81.5t154 137.5t112.5 195t69 253.5t23.5 313.5t-23.5 313.5t-69 253.5
t-112.5 194.5t-154 137t-193 81.5t-230 27h-451v-2015h451zM1192 3162l-434 648h409l279 -340l282 340h410l-434 -648h-512z" />
    <glyph glyph-name="dcaron" unicode="&#x10f;" horiz-adv-x="2548" 
d="M1733 0l-50 180q-49 -55 -109.5 -100.5t-135.5 -77.5t-165.5 -50t-199.5 -18q-210 0 -378 77t-285 221t-179.5 349.5t-62.5 462.5q0 269 64.5 478t187.5 352.5t302 218t408 74.5q78 0 149 -9.5t135.5 -28t123.5 -47t113 -67.5v1090h561v-3105h-479zM1651 1585
q-45 28 -94.5 48t-104.5 33t-113.5 19.5t-121.5 6.5q-126 0 -216 -49t-148 -135t-85 -202t-27 -249q0 -134 30 -252t91.5 -205.5t155 -138.5t219.5 -51q63 0 120 6t108.5 18.5t97.5 32t88 45.5v1073zM2416 2212l152 475l-127 418h365q51 0 95 -15t76.5 -43.5t51 -69.5
t18.5 -93q0 -60 -22 -125.5t-57.5 -135t-81 -144t-93.5 -152.5l-69 -115h-308z" />
    <glyph glyph-name="Dcroat" unicode="&#x110;" horiz-adv-x="3047" 
d="M410 0v1217h-254v491h254v1258h1048q258 0 459 -51t352 -145t256 -227.5t170 -298t94 -357t29 -404.5t-31.5 -404.5t-99 -357t-174.5 -298t-258 -227.5t-349 -145t-448 -51h-1048zM1438 475q124 0 230 27t193 81.5t154 137.5t112.5 195t69 253.5t23.5 313.5t-23.5 313.5
t-69 253.5t-112.5 194.5t-154 137t-193 81.5t-230 27h-451v-782h569v-491h-569v-742h451z" />
    <glyph glyph-name="dcroat" unicode="&#x111;" horiz-adv-x="2548" 
d="M1733 0l-50 180q-49 -55 -109.5 -100.5t-135.5 -77.5t-165.5 -50t-199.5 -18q-210 0 -378 77t-285 221t-179.5 349.5t-62.5 462.5q0 269 64.5 478t187.5 352.5t302 218t408 74.5q78 0 149 -9.5t135.5 -28t123.5 -47t113 -67.5v414h-369v442h369v234h561v-234h246v-442
h-246v-2429h-479zM1651 1585q-45 28 -94.5 48t-104.5 33t-113.5 19.5t-121.5 6.5q-126 0 -216 -49t-148 -135t-85 -202t-27 -249q0 -134 30 -252t91.5 -205.5t155 -138.5t219.5 -51q63 0 120 6t108.5 18.5t97.5 32t88 45.5v1073z" />
    <glyph glyph-name="Emacron" unicode="&#x112;" horiz-adv-x="2478" 
d="M369 0v2966h1872v-476h-1295v-733h1114v-475h-1114v-807h1311v-475h-1888zM684 3257v426h1254v-426h-1254z" />
    <glyph glyph-name="emacron" unicode="&#x113;" horiz-adv-x="2224" 
d="M1950 86q-72 -34 -151 -61t-170 -46t-196 -29.5t-229 -10.5q-172 0 -316 34.5t-259.5 101t-202.5 162t-145 218t-87.5 269.5t-29.5 316q0 153 22 296t69.5 268t122.5 228.5t180.5 178t243.5 115.5t312 41q179 0 319.5 -42.5t246.5 -117t180 -177t120 -222.5t67 -253.5
t21 -269.5q0 -18 -1 -44t-2.5 -54t-3.5 -54t-5 -44h-1331q7 -106 41 -192.5t99 -147.5t165 -94t240 -33q94 0 186.5 7.5t179.5 21t166.5 33.5t147.5 44v-442zM1507 1286q-8 103 -35.5 185t-76.5 139.5t-119 88t-162 30.5t-161 -30.5t-116 -88t-73.5 -139.5t-34.5 -185h778z
M487 2503v426h1254v-426h-1254z" />
    <glyph glyph-name="Ebreve" unicode="&#x114;" horiz-adv-x="2478" 
d="M369 0v2966h1872v-476h-1295v-733h1114v-475h-1114v-807h1311v-475h-1888zM2007 3810q-6 -137 -53 -258.5t-134 -212.5t-214.5 -144t-294.5 -53q-168 0 -295.5 53t-214.5 144t-133.5 212.5t-52.5 258.5h352q4 -56 27.5 -109.5t66 -95.5t105 -68t145.5 -26t144.5 26.5
t103.5 69t64.5 96t27.5 107.5h356z" />
    <glyph glyph-name="ebreve" unicode="&#x115;" horiz-adv-x="2224" 
d="M1950 86q-72 -34 -151 -61t-170 -46t-196 -29.5t-229 -10.5q-172 0 -316 34.5t-259.5 101t-202.5 162t-145 218t-87.5 269.5t-29.5 316q0 153 22 296t69.5 268t122.5 228.5t180.5 178t243.5 115.5t312 41q179 0 319.5 -42.5t246.5 -117t180 -177t120 -222.5t67 -253.5
t21 -269.5q0 -18 -1 -44t-2.5 -54t-3.5 -54t-5 -44h-1331q7 -106 41 -192.5t99 -147.5t165 -94t240 -33q94 0 186.5 7.5t179.5 21t166.5 33.5t147.5 44v-442zM1507 1286q-8 103 -35.5 185t-76.5 139.5t-119 88t-162 30.5t-161 -30.5t-116 -88t-73.5 -139.5t-34.5 -185h778z
M1810 3056q-6 -137 -53 -258.5t-134 -212.5t-214.5 -144t-294.5 -53q-168 0 -295.5 53t-214.5 144t-133.5 212.5t-52.5 258.5h352q4 -56 27.5 -109.5t66 -95.5t105 -68t145.5 -26t144.5 26.5t103.5 69t64.5 96t27.5 107.5h356z" />
    <glyph glyph-name="Edotaccent" unicode="&#x116;" horiz-adv-x="2478" 
d="M369 0v2966h1872v-476h-1295v-733h1114v-475h-1114v-807h1311v-475h-1888zM1024 3236v533h570v-533h-570z" />
    <glyph glyph-name="edotaccent" unicode="&#x117;" horiz-adv-x="2224" 
d="M1950 86q-72 -34 -151 -61t-170 -46t-196 -29.5t-229 -10.5q-172 0 -316 34.5t-259.5 101t-202.5 162t-145 218t-87.5 269.5t-29.5 316q0 153 22 296t69.5 268t122.5 228.5t180.5 178t243.5 115.5t312 41q179 0 319.5 -42.5t246.5 -117t180 -177t120 -222.5t67 -253.5
t21 -269.5q0 -18 -1 -44t-2.5 -54t-3.5 -54t-5 -44h-1331q7 -106 41 -192.5t99 -147.5t165 -94t240 -33q94 0 186.5 7.5t179.5 21t166.5 33.5t147.5 44v-442zM1507 1286q-8 103 -35.5 185t-76.5 139.5t-119 88t-162 30.5t-161 -30.5t-116 -88t-73.5 -139.5t-34.5 -185h778z
M827 2482v533h570v-533h-570z" />
    <glyph glyph-name="Eogonek" unicode="&#x118;" horiz-adv-x="2478" 
d="M2236 -852q-49 -12 -105.5 -18.5t-115.5 -6.5q-126 0 -225 26.5t-167 77.5t-104 125t-36 169q0 73 27 140t72 127t104 113t124 99h-1441v2966h1872v-476h-1295v-733h1114v-475h-1114v-807h1311v-475h-139q-51 -52 -92 -104.5t-70 -103.5t-44.5 -100t-15.5 -93
q0 -77 51 -124.5t158 -47.5q23 0 40.5 1.5t32.5 3.5t29 5t29 6v-295z" />
    <glyph glyph-name="eogonek" unicode="&#x119;" horiz-adv-x="2224" 
d="M1913 -852q-50 -12 -106.5 -18.5t-114.5 -6.5q-126 0 -225 25.5t-167.5 74.5t-104.5 120t-36 161q0 69 21.5 131.5t58.5 118t86 105t105 92.5q-53 -4 -108.5 -8t-117.5 -4q-172 0 -316 34.5t-259.5 101t-202.5 162t-145 218t-87.5 269.5t-29.5 316q0 153 22 296t69.5 268
t122.5 228.5t180.5 178t243.5 115.5t312 41q179 0 319.5 -42.5t246.5 -117t180 -177t120 -222.5t67 -253.5t21 -269.5q0 -18 -1 -44t-2.5 -54t-3.5 -54t-5 -44h-1331q7 -106 41 -192.5t99 -147.5t165 -94t240 -33q94 0 186.5 7.5t179.5 21t166.5 33.5t147.5 44v-442
q-88 -43 -158 -106t-118.5 -131.5t-74.5 -134.5t-26 -115q0 -77 50.5 -124.5t158.5 -47.5q23 0 40.5 1.5t32.5 3.5t29 5t29 6v-295zM1507 1286q-8 103 -35.5 185t-76.5 139.5t-119 88t-162 30.5t-161 -30.5t-116 -88t-73.5 -139.5t-34.5 -185h778z" />
    <glyph glyph-name="Ecaron" unicode="&#x11a;" horiz-adv-x="2478" 
d="M369 0v2966h1872v-476h-1295v-733h1114v-475h-1114v-807h1311v-475h-1888zM1053 3162l-434 648h409l279 -340l282 340h410l-434 -648h-512z" />
    <glyph glyph-name="ecaron" unicode="&#x11b;" horiz-adv-x="2224" 
d="M1950 86q-72 -34 -151 -61t-170 -46t-196 -29.5t-229 -10.5q-172 0 -316 34.5t-259.5 101t-202.5 162t-145 218t-87.5 269.5t-29.5 316q0 153 22 296t69.5 268t122.5 228.5t180.5 178t243.5 115.5t312 41q179 0 319.5 -42.5t246.5 -117t180 -177t120 -222.5t67 -253.5
t21 -269.5q0 -18 -1 -44t-2.5 -54t-3.5 -54t-5 -44h-1331q7 -106 41 -192.5t99 -147.5t165 -94t240 -33q94 0 186.5 7.5t179.5 21t166.5 33.5t147.5 44v-442zM1507 1286q-8 103 -35.5 185t-76.5 139.5t-119 88t-162 30.5t-161 -30.5t-116 -88t-73.5 -139.5t-34.5 -185h778z
M856 2408l-434 648h409l279 -340l282 340h410l-434 -648h-512z" />
    <glyph glyph-name="Gcircumflex" unicode="&#x11c;" horiz-adv-x="2982" 
d="M2118 1430h577v-1291q-72 -31 -149 -58t-160 -50t-173 -41t-187.5 -30.5t-203.5 -19t-220 -6.5q-358 0 -620 101t-433 298.5t-253.5 489t-82.5 672.5q0 237 40.5 443.5t120 377t198 303.5t274.5 224.5t349 139.5t423 48q95 0 183.5 -5.5t169.5 -17t155.5 -27.5t142.5 -37
t129.5 -46.5t116.5 -54.5v-484q-81 40 -178 72t-206.5 54t-230 34t-249.5 12q-203 0 -359 -65t-262 -195t-160.5 -324t-54.5 -452q0 -204 27 -362t77.5 -276.5t123.5 -200t164.5 -131.5t201 -72.5t233.5 -22.5q71 0 135 2.5t123 7.5t113 12.5t105 18.5v959zM1872 3162
l-283 336l-279 -336h-409l434 648h512l434 -648h-409z" />
    <glyph glyph-name="gcircumflex" unicode="&#x11d;" horiz-adv-x="2556" 
d="M1659 143q-49 -48 -108 -86.5t-130 -65.5t-155.5 -42t-184.5 -15q-210 0 -378 77t-285 221t-179.5 349.5t-62.5 462.5q0 269 64.5 478t188 352.5t302.5 218t408 74.5q89 0 167 -12.5t146.5 -37t129 -61.5t114.5 -86l37 131h487v-2044q0 -267 -74 -463t-214.5 -324
t-344 -190.5t-461.5 -62.5q-128 0 -240.5 10.5t-211 30.5t-182 49t-152.5 66v458q66 -27 147 -51t173.5 -42t193.5 -28t207 -10q150 0 262.5 27.5t187 90.5t111.5 165.5t37 253.5v106zM1659 1585q-45 28 -94.5 48t-104 33t-113.5 19.5t-122 6.5q-126 0 -216 -49t-147.5 -135
t-84.5 -202t-27 -249q0 -134 30 -252t91.5 -205.5t154.5 -138.5t219 -51q63 0 120 6t108.5 18.5t97.5 32t88 45.5v1073zM1504 2408l-283 336l-279 -336h-409l434 648h512l434 -648h-409z" />
    <glyph glyph-name="Gbreve" unicode="&#x11e;" horiz-adv-x="2982" 
d="M2118 1430h577v-1291q-72 -31 -149 -58t-160 -50t-173 -41t-187.5 -30.5t-203.5 -19t-220 -6.5q-358 0 -620 101t-433 298.5t-253.5 489t-82.5 672.5q0 237 40.5 443.5t120 377t198 303.5t274.5 224.5t349 139.5t423 48q95 0 183.5 -5.5t169.5 -17t155.5 -27.5t142.5 -37
t129.5 -46.5t116.5 -54.5v-484q-81 40 -178 72t-206.5 54t-230 34t-249.5 12q-203 0 -359 -65t-262 -195t-160.5 -324t-54.5 -452q0 -204 27 -362t77.5 -276.5t123.5 -200t164.5 -131.5t201 -72.5t233.5 -22.5q71 0 135 2.5t123 7.5t113 12.5t105 18.5v959zM2285 3810
q-6 -137 -53 -258.5t-134 -212.5t-214.5 -144t-294.5 -53q-168 0 -295.5 53t-214.5 144t-133.5 212.5t-52.5 258.5h352q4 -56 27.5 -109.5t66 -95.5t105 -68t145.5 -26t144.5 26.5t103.5 69t64.5 96t27.5 107.5h356z" />
    <glyph glyph-name="gbreve" unicode="&#x11f;" horiz-adv-x="2556" 
d="M1659 143q-49 -48 -108 -86.5t-130 -65.5t-155.5 -42t-184.5 -15q-210 0 -378 77t-285 221t-179.5 349.5t-62.5 462.5q0 269 64.5 478t188 352.5t302.5 218t408 74.5q89 0 167 -12.5t146.5 -37t129 -61.5t114.5 -86l37 131h487v-2044q0 -267 -74 -463t-214.5 -324
t-344 -190.5t-461.5 -62.5q-128 0 -240.5 10.5t-211 30.5t-182 49t-152.5 66v458q66 -27 147 -51t173.5 -42t193.5 -28t207 -10q150 0 262.5 27.5t187 90.5t111.5 165.5t37 253.5v106zM1659 1585q-45 28 -94.5 48t-104 33t-113.5 19.5t-122 6.5q-126 0 -216 -49t-147.5 -135
t-84.5 -202t-27 -249q0 -134 30 -252t91.5 -205.5t154.5 -138.5t219 -51q63 0 120 6t108.5 18.5t97.5 32t88 45.5v1073zM1917 3056q-6 -137 -53 -258.5t-134 -212.5t-214.5 -144t-294.5 -53q-168 0 -295.5 53t-214.5 144t-133.5 212.5t-52.5 258.5h352q4 -56 27.5 -109.5
t66 -95.5t105 -68t145.5 -26t144.5 26.5t103.5 69t64.5 96t27.5 107.5h356z" />
    <glyph glyph-name="Gdotaccent" unicode="&#x120;" horiz-adv-x="2982" 
d="M2118 1430h577v-1291q-72 -31 -149 -58t-160 -50t-173 -41t-187.5 -30.5t-203.5 -19t-220 -6.5q-358 0 -620 101t-433 298.5t-253.5 489t-82.5 672.5q0 237 40.5 443.5t120 377t198 303.5t274.5 224.5t349 139.5t423 48q95 0 183.5 -5.5t169.5 -17t155.5 -27.5t142.5 -37
t129.5 -46.5t116.5 -54.5v-484q-81 40 -178 72t-206.5 54t-230 34t-249.5 12q-203 0 -359 -65t-262 -195t-160.5 -324t-54.5 -452q0 -204 27 -362t77.5 -276.5t123.5 -200t164.5 -131.5t201 -72.5t233.5 -22.5q71 0 135 2.5t123 7.5t113 12.5t105 18.5v959zM1302 3236v533
h570v-533h-570z" />
    <glyph glyph-name="gdotaccent" unicode="&#x121;" horiz-adv-x="2556" 
d="M1659 143q-49 -48 -108 -86.5t-130 -65.5t-155.5 -42t-184.5 -15q-210 0 -378 77t-285 221t-179.5 349.5t-62.5 462.5q0 269 64.5 478t188 352.5t302.5 218t408 74.5q89 0 167 -12.5t146.5 -37t129 -61.5t114.5 -86l37 131h487v-2044q0 -267 -74 -463t-214.5 -324
t-344 -190.5t-461.5 -62.5q-128 0 -240.5 10.5t-211 30.5t-182 49t-152.5 66v458q66 -27 147 -51t173.5 -42t193.5 -28t207 -10q150 0 262.5 27.5t187 90.5t111.5 165.5t37 253.5v106zM1659 1585q-45 28 -94.5 48t-104 33t-113.5 19.5t-122 6.5q-126 0 -216 -49t-147.5 -135
t-84.5 -202t-27 -249q0 -134 30 -252t91.5 -205.5t154.5 -138.5t219 -51q63 0 120 6t108.5 18.5t97.5 32t88 45.5v1073zM934 2482v533h570v-533h-570z" />
    <glyph glyph-name="Gcommaaccent" unicode="&#x122;" horiz-adv-x="2982" 
d="M2118 1430h577v-1291q-72 -31 -149 -58t-160 -50t-173 -41t-187.5 -30.5t-203.5 -19t-220 -6.5q-358 0 -620 101t-433 298.5t-253.5 489t-82.5 672.5q0 237 40.5 443.5t120 377t198 303.5t274.5 224.5t349 139.5t423 48q95 0 183.5 -5.5t169.5 -17t155.5 -27.5t142.5 -37
t129.5 -46.5t116.5 -54.5v-484q-81 40 -178 72t-206.5 54t-230 34t-249.5 12q-203 0 -359 -65t-262 -195t-160.5 -324t-54.5 -452q0 -204 27 -362t77.5 -276.5t123.5 -200t164.5 -131.5t201 -72.5t233.5 -22.5q71 0 135 2.5t123 7.5t113 12.5t105 18.5v959zM1315 -983
l-184 192l278 297l-82 322h365q55 0 99 -17.5t74.5 -49t47 -75.5t16.5 -96q0 -78 -38 -151t-101 -135t-144 -115t-167 -94z" />
    <glyph glyph-name="gcommaaccent" unicode="&#x123;" horiz-adv-x="2556" 
d="M1659 143q-49 -48 -108 -86.5t-130 -65.5t-155.5 -42t-184.5 -15q-210 0 -378 77t-285 221t-179.5 349.5t-62.5 462.5q0 269 64.5 478t188 352.5t302.5 218t408 74.5q89 0 167 -12.5t146.5 -37t129 -61.5t114.5 -86l37 131h487v-2044q0 -267 -74 -463t-214.5 -324
t-344 -190.5t-461.5 -62.5q-128 0 -240.5 10.5t-211 30.5t-182 49t-152.5 66v458q66 -27 147 -51t173.5 -42t193.5 -28t207 -10q150 0 262.5 27.5t187 90.5t111.5 165.5t37 253.5v106zM1659 1585q-45 28 -94.5 48t-104 33t-113.5 19.5t-122 6.5q-126 0 -216 -49t-147.5 -135
t-84.5 -202t-27 -249q0 -134 30 -252t91.5 -205.5t154.5 -138.5t219 -51q63 0 120 6t108.5 18.5t97.5 32t88 45.5v1073zM1131 2408q-56 0 -100 17.5t-74.5 49t-47 75.5t-16.5 96q0 80 38 153.5t101 138.5t144.5 119.5t167.5 96.5l164 78l184 -193l-283 -307l86 -324h-364z
" />
    <glyph glyph-name="Hcircumflex" unicode="&#x124;" horiz-adv-x="3064" 
d="M2118 0v1286h-1172v-1286h-577v2966h577v-1205h1172v1205h577v-2966h-577zM1815 3162l-283 336l-279 -336h-409l434 648h512l434 -648h-409z" />
    <glyph glyph-name="hcircumflex" unicode="&#x125;" horiz-adv-x="2568" 
d="M1720 0v1303q0 97 -24.5 167.5t-73 117t-120.5 69t-167 22.5q-65 0 -124.5 -7.5t-114.5 -22t-104.5 -36t-94.5 -48.5v-1565h-561v3105h561v-1147q61 52 129.5 91t145.5 65.5t164.5 39.5t187.5 13q133 0 241 -25.5t192 -74t145 -118t101 -157.5t59 -192.5t19 -223.5v-1376
h-561zM899 3228l-283 336l-279 -336h-409l434 648h512l434 -648h-409z" />
    <glyph glyph-name="Hbar" unicode="&#x126;" horiz-adv-x="3129" 
d="M2150 0v1286h-1171v-1286h-578v2150h-245v443h245v373h578v-373h1171v373h578v-373h246v-443h-246v-2150h-578zM2150 2150h-1171v-389h1171v389z" />
    <glyph glyph-name="hbar" unicode="&#x127;" horiz-adv-x="2568" 
d="M1720 0v1303q0 97 -24.5 167.5t-73 117t-120.5 69t-167 22.5q-65 0 -124.5 -7.5t-114.5 -22t-104.5 -36t-94.5 -48.5v-1565h-561v2429h-246v442h246v234h561v-234h369v-442h-369v-471q61 52 129.5 91t145.5 65.5t164.5 39.5t187.5 13q133 0 241 -25.5t192 -74t145 -118
t101 -157.5t59 -192.5t19 -223.5v-1376h-561z" />
    <glyph glyph-name="Itilde" unicode="&#x128;" horiz-adv-x="1749" 
d="M246 0v459h340v2048h-340v459h1257v-459h-340v-2048h340v-459h-1257zM1648 3769q0 -140 -37.5 -250t-104 -186.5t-157.5 -117t-197 -40.5q-61 0 -114 14t-100 35.5t-89 46.5t-81.5 46.5t-76.5 35.5t-75 14q-43 0 -76 -12t-55.5 -35t-35 -56.5t-13.5 -76.5h-336
q0 140 36.5 250t101.5 186.5t154 117t195 40.5q61 0 115 -14.5t102 -35.5t91 -46.5t83 -46.5t78 -35.5t76 -14.5q43 0 76.5 11.5t56.5 34.5t35 56.5t12 78.5h336z" />
    <glyph glyph-name="itilde" unicode="&#x129;" horiz-adv-x="1233" 
d="M336 0v2101h561v-2101h-561zM1390 3015q0 -140 -37.5 -250t-104 -186.5t-157.5 -117t-197 -40.5q-61 0 -114 14t-100 35.5t-89 46.5t-81.5 46.5t-76.5 35.5t-75 14q-43 0 -76 -12t-55.5 -35t-35 -56.5t-13.5 -76.5h-336q0 140 36.5 250t101.5 186.5t154 117t195 40.5
q61 0 115 -14.5t102 -35.5t91 -46.5t83 -46.5t78 -35.5t76 -14.5q43 0 76.5 11.5t56.5 34.5t35 56.5t12 78.5h336z" />
    <glyph glyph-name="Imacron" unicode="&#x12a;" horiz-adv-x="1749" 
d="M246 0v459h340v2048h-340v459h1257v-459h-340v-2048h340v-459h-1257zM247 3257v426h1254v-426h-1254z" />
    <glyph glyph-name="imacron" unicode="&#x12b;" horiz-adv-x="1233" 
d="M336 0v2101h561v-2101h-561zM-11 2503v426h1254v-426h-1254z" />
    <glyph glyph-name="Ibreve" unicode="&#x12c;" horiz-adv-x="1749" 
d="M246 0v459h340v2048h-340v459h1257v-459h-340v-2048h340v-459h-1257zM1570 3810q-6 -137 -53 -258.5t-134 -212.5t-214.5 -144t-294.5 -53q-168 0 -295.5 53t-214.5 144t-133.5 212.5t-52.5 258.5h352q4 -56 27.5 -109.5t66 -95.5t105 -68t145.5 -26t144.5 26.5t103.5 69
t64.5 96t27.5 107.5h356z" />
    <glyph glyph-name="ibreve" unicode="&#x12d;" horiz-adv-x="1233" 
d="M336 0v2101h561v-2101h-561zM1312 3056q-6 -137 -53 -258.5t-134 -212.5t-214.5 -144t-294.5 -53q-168 0 -295.5 53t-214.5 144t-133.5 212.5t-52.5 258.5h352q4 -56 27.5 -109.5t66 -95.5t105 -68t145.5 -26t144.5 26.5t103.5 69t64.5 96t27.5 107.5h356z" />
    <glyph glyph-name="Iogonek" unicode="&#x12e;" horiz-adv-x="1749" 
d="M1176 -852q-50 -12 -106.5 -18.5t-115.5 -6.5q-126 0 -225 26.5t-167 77.5t-104 125t-36 169q0 73 27 140t72.5 127t104.5 113t124 99h-504v459h340v2048h-340v459h1257v-459h-340v-2048h340v-459h-446q-51 -52 -91.5 -104.5t-69.5 -103.5t-44.5 -100t-15.5 -93
q0 -77 50.5 -124.5t157.5 -47.5q23 0 41 1.5t33 3.5t29 5t29 6v-295z" />
    <glyph glyph-name="iogonek" unicode="&#x12f;" horiz-adv-x="1233" 
d="M877 -852q-50 -12 -106.5 -18.5t-115.5 -6.5q-126 0 -225 26.5t-167 77.5t-104 125t-36 169q0 73 27 140t72.5 127t104.5 113t124 99h-115v2101h561v-2101h-139q-51 -52 -91.5 -104.5t-69.5 -103.5t-44.5 -100t-15.5 -93q0 -77 50.5 -124.5t157.5 -47.5q23 0 41 1.5
t33 3.5t29 5t29 6v-295zM336 2417v549h561v-549h-561z" />
    <glyph glyph-name="Idotaccent" unicode="&#x130;" horiz-adv-x="1749" 
d="M246 0v459h340v2048h-340v459h1257v-459h-340v-2048h340v-459h-1257zM587 3236v533h570v-533h-570z" />
    <glyph glyph-name="dotlessi" unicode="&#x131;" horiz-adv-x="1233" 
d="M336 0v2101h561v-2101h-561z" />
    <glyph glyph-name="IJ" unicode="&#x132;" horiz-adv-x="3265" 
d="M246 0v459h340v2048h-340v459h1257v-459h-340v-2048h340v-459h-1257zM1675 -135q22 -5 45 -8t48.5 -5t53 -3t58.5 -1q121 0 205 41t135.5 119t74.5 191.5t23 259.5v2048h-422v459h1000v-2573q0 -261 -67.5 -455t-194.5 -322t-310 -191.5t-415 -63.5q-37 0 -70.5 1.5
t-63 5t-55 9t-45.5 13.5v475z" />
    <glyph glyph-name="ij" unicode="&#x133;" horiz-adv-x="2466" 
d="M336 0v2101h561v-2101h-561zM336 2417v549h561v-549h-561zM959 -471q31 -6 72 -11t100 -5q100 0 181 31t138 99.5t88 176.5t31 262v2019h561v-2015q0 -273 -67 -470.5t-190.5 -325t-297.5 -188t-387 -60.5q-29 0 -61.5 3t-63.5 7.5t-58.5 11t-45.5 14.5v451zM1569 2417
v549h561v-549h-561z" />
    <glyph glyph-name="Jcircumflex" unicode="&#x134;" horiz-adv-x="1516" 
d="M-74 -135q22 -5 45 -8t48.5 -5t53 -3t58.5 -1q121 0 205 41t135.5 119t74.5 191.5t23 259.5v2048h-422v459h1000v-2573q0 -261 -67.5 -455t-194.5 -322t-310 -191.5t-415 -63.5q-37 0 -70.5 1.5t-63 5t-55 9t-45.5 13.5v475zM1140 3162l-283 336l-279 -336h-409l434 648
h512l434 -648h-409z" />
    <glyph glyph-name="jcircumflex" unicode="&#x135;" horiz-adv-x="1233" 
d="M-274 -471q31 -6 72 -11t100 -5q100 0 181 31t138 99.5t88 176.5t31 262v2019h561v-2015q0 -273 -67 -470.5t-190.5 -325t-297.5 -188t-387 -60.5q-29 0 -61.5 3t-63.5 7.5t-58.5 11t-45.5 14.5v451zM899 2408l-283 336l-279 -336h-409l434 648h512l434 -648h-409z" />
    <glyph glyph-name="Kcommaaccent" unicode="&#x136;" horiz-adv-x="2757" 
d="M2023 0l-1077 1348v-1348h-577v2966h577v-1303l1004 1303h708l-938 -1188q-71 -89 -135.5 -157t-122.5 -114q32 -23 65.5 -51.5t68 -63t70.5 -75t75 -88.5l991 -1229h-709zM1176 -983l-184 192l278 297l-82 322h365q55 0 99 -17.5t74.5 -49t47 -75.5t16.5 -96
q0 -78 -38 -151t-101 -135t-144 -115t-167 -94z" />
    <glyph glyph-name="kcommaaccent" unicode="&#x137;" horiz-adv-x="2363" 
d="M1647 0l-750 950v-950h-561v3105h561v-1852l733 848h668l-676 -782q-26 -29 -53.5 -56t-56.5 -52t-58.5 -48t-60.5 -45q32 -23 63 -49.5t60.5 -56t59 -61.5t58.5 -66l709 -885h-696zM967 -983l-184 192l278 297l-82 322h365q55 0 99 -17.5t74.5 -49t47 -75.5t16.5 -96
q0 -78 -38 -151t-101 -135t-144 -115t-167 -94z" />
    <glyph glyph-name="Lacute" unicode="&#x139;" horiz-adv-x="2175" 
d="M369 0v2966h573v-2491h1159v-475h-1732zM374 3162l385 648h647l-606 -648h-426z" />
    <glyph glyph-name="lacute" unicode="&#x13a;" horiz-adv-x="1360" 
d="M1229 16q-35 -12 -76.5 -21t-89 -15.5t-100.5 -9.5t-111 -3q-135 0 -233 37.5t-162 108t-94.5 172.5t-30.5 231v2589h561v-2515q0 -40 8.5 -67.5t27 -44.5t47 -24.5t68.5 -7.5q47 0 92.5 4t92.5 13v-447zM345 3228l385 648h647l-606 -648h-426z" />
    <glyph glyph-name="Lcommaaccent" unicode="&#x13b;" horiz-adv-x="2175" 
d="M369 0v2966h573v-2491h1159v-475h-1732zM958 -983l-184 192l278 297l-82 322h365q55 0 99 -17.5t74.5 -49t47 -75.5t16.5 -96q0 -78 -38 -151t-101 -135t-144 -115t-167 -94z" />
    <glyph glyph-name="lcommaaccent" unicode="&#x13c;" horiz-adv-x="1360" 
d="M1229 16q-35 -12 -76.5 -21t-89 -15.5t-100.5 -9.5t-111 -3q-135 0 -233 37.5t-162 108t-94.5 172.5t-30.5 231v2589h561v-2515q0 -40 8.5 -67.5t27 -44.5t47 -24.5t68.5 -7.5q47 0 92.5 4t92.5 13v-447zM505 -983l-184 192l278 297l-82 322h365q55 0 99 -17.5t74.5 -49
t47 -75.5t16.5 -96q0 -78 -38 -151t-101 -135t-144 -115t-167 -94z" />
    <glyph glyph-name="Lcaron" unicode="&#x13d;" horiz-adv-x="2175" 
d="M369 0v2966h573v-2491h1159v-475h-1732zM1187 2212l152 475l-127 418h365q51 0 95 -15t76.5 -43.5t51 -69.5t18.5 -93q0 -60 -22 -125.5t-57.5 -135t-81 -144t-93.5 -152.5l-69 -115h-308z" />
    <glyph glyph-name="lcaron" unicode="&#x13e;" horiz-adv-x="1360" 
d="M1229 16q-35 -12 -76.5 -21t-89 -15.5t-100.5 -9.5t-111 -3q-135 0 -233 37.5t-162 108t-94.5 172.5t-30.5 231v2589h561v-2515q0 -40 8.5 -67.5t27 -44.5t47 -24.5t68.5 -7.5q47 0 92.5 4t92.5 13v-447zM1097 2212l152 475l-127 418h365q51 0 95 -15t76.5 -43.5
t51 -69.5t18.5 -93q0 -60 -22 -125.5t-57.5 -135t-81 -144t-93.5 -152.5l-69 -115h-308z" />
    <glyph glyph-name="Ldot" unicode="&#x13f;" horiz-adv-x="2175" 
d="M369 0v2966h573v-2491h1159v-475h-1732zM1302 1356v557h590v-557h-590z" />
    <glyph glyph-name="ldot" unicode="&#x140;" horiz-adv-x="1704" 
d="M1229 16q-35 -12 -76.5 -21t-89 -15.5t-100.5 -9.5t-111 -3q-135 0 -233 37.5t-162 108t-94.5 172.5t-30.5 231v2589h561v-2515q0 -40 8.5 -67.5t27 -44.5t47 -24.5t68.5 -7.5q47 0 92.5 4t92.5 13v-447zM1179 1266v532h566v-532h-566z" />
    <glyph glyph-name="Lslash" unicode="&#x141;" horiz-adv-x="2216" 
d="M410 0v1151l-254 -102v483l254 102v1332h573v-1094l557 233v-483l-557 -233v-914h1159v-475h-1732z" />
    <glyph glyph-name="lslash" unicode="&#x142;" horiz-adv-x="1401" 
d="M1270 16q-35 -12 -76.5 -21t-89 -15.5t-100.5 -9.5t-111 -3q-135 0 -233.5 37.5t-162 108t-94 172.5t-30.5 231v614l-283 -114v471l283 115v1503h561v-1270l381 156v-471l-381 -156v-774q0 -40 8.5 -67.5t27 -44.5t47 -24.5t68.5 -7.5q47 0 92.5 4t92.5 13v-447z" />
    <glyph glyph-name="Nacute" unicode="&#x143;" horiz-adv-x="3142" 
d="M2187 0l-1073 1712q-53 84 -111.5 201t-117.5 250q7 -66 14 -131t12 -124t8 -109t3 -87v-1712h-553v2966h585l1074 -1713q26 -41 54 -92.5t56.5 -109.5t57.5 -121t57 -127q-8 64 -14 128.5t-10.5 123t-6.5 109.5t-2 89v1713h553v-2966h-586zM1286 3162l385 648h647
l-606 -648h-426z" />
    <glyph glyph-name="nacute" unicode="&#x144;" horiz-adv-x="2568" 
d="M1720 0v1303q0 97 -24.5 167.5t-73 117t-120.5 69t-167 22.5q-65 0 -124.5 -7.5t-114.5 -22t-104.5 -36t-94.5 -48.5v-1565h-561v2101h487l45 -172q64 58 135 102.5t151.5 74.5t172 45.5t197.5 15.5q133 0 241 -25.5t192 -74t145 -118t101 -157.5t59 -192.5t19 -223.5
v-1376h-561zM1024 2408l385 648h647l-606 -648h-426z" />
    <glyph glyph-name="Ncommaaccent" unicode="&#x145;" horiz-adv-x="3142" 
d="M2187 0l-1073 1712q-53 84 -111.5 201t-117.5 250q7 -66 14 -131t12 -124t8 -109t3 -87v-1712h-553v2966h585l1074 -1713q26 -41 54 -92.5t56.5 -109.5t57.5 -121t57 -127q-8 64 -14 128.5t-10.5 123t-6.5 109.5t-2 89v1713h553v-2966h-586zM1294 -983l-184 192l278 297
l-82 322h365q55 0 99 -17.5t74.5 -49t47 -75.5t16.5 -96q0 -78 -38 -151t-101 -135t-144 -115t-167 -94z" />
    <glyph glyph-name="ncommaaccent" unicode="&#x146;" horiz-adv-x="2568" 
d="M1720 0v1303q0 97 -24.5 167.5t-73 117t-120.5 69t-167 22.5q-65 0 -124.5 -7.5t-114.5 -22t-104.5 -36t-94.5 -48.5v-1565h-561v2101h487l45 -172q64 58 135 102.5t151.5 74.5t172 45.5t197.5 15.5q133 0 241 -25.5t192 -74t145 -118t101 -157.5t59 -192.5t19 -223.5
v-1376h-561zM1032 -983l-184 192l278 297l-82 322h365q55 0 99 -17.5t74.5 -49t47 -75.5t16.5 -96q0 -78 -38 -151t-101 -135t-144 -115t-167 -94z" />
    <glyph glyph-name="Ncaron" unicode="&#x147;" horiz-adv-x="3142" 
d="M2187 0l-1073 1712q-53 84 -111.5 201t-117.5 250q7 -66 14 -131t12 -124t8 -109t3 -87v-1712h-553v2966h585l1074 -1713q26 -41 54 -92.5t56.5 -109.5t57.5 -121t57 -127q-8 64 -14 128.5t-10.5 123t-6.5 109.5t-2 89v1713h553v-2966h-586zM1311 3162l-434 648h409
l279 -340l282 340h410l-434 -648h-512z" />
    <glyph glyph-name="ncaron" unicode="&#x148;" horiz-adv-x="2568" 
d="M1720 0v1303q0 97 -24.5 167.5t-73 117t-120.5 69t-167 22.5q-65 0 -124.5 -7.5t-114.5 -22t-104.5 -36t-94.5 -48.5v-1565h-561v2101h487l45 -172q64 58 135 102.5t151.5 74.5t172 45.5t197.5 15.5q133 0 241 -25.5t192 -74t145 -118t101 -157.5t59 -192.5t19 -223.5
v-1376h-561zM1049 2408l-434 648h409l279 -340l282 340h410l-434 -648h-512z" />
    <glyph glyph-name="napostrophe" unicode="&#x149;" horiz-adv-x="3445" 
d="M172 1987l242 573l-123 545h315q89 0 154.5 -15.5t108.5 -49.5t64 -89t21 -133q0 -86 -28 -179t-77 -186.5t-115.5 -185t-143.5 -174.5l-98 -106h-320zM2597 0v1303q0 97 -24.5 167.5t-73 117t-120.5 69t-167 22.5q-65 0 -124.5 -7.5t-114.5 -22t-104.5 -36t-94.5 -48.5
v-1565h-561v2101h487l45 -172q64 58 135 102.5t151.5 74.5t172 45.5t197.5 15.5q133 0 241 -25.5t192 -74t145 -118t101 -157.5t59 -192.5t19 -223.5v-1376h-561z" />
    <glyph glyph-name="Omacron" unicode="&#x14c;" horiz-adv-x="3056" 
d="M1528 -66q-258 0 -454.5 56t-341 157.5t-241 243t-155 314t-83 369.5t-24.5 409t27 409t88 369t159.5 314t243 243t338 157t443.5 56q258 0 454.5 -56t340.5 -157t241 -243t155 -314t82.5 -369t24.5 -409t-27 -409t-87.5 -369.5t-159.5 -314t-243.5 -243t-337.5 -157.5
t-443 -56zM1528 422q124 0 224 32t177.5 94.5t134 153.5t93 209t54 261.5t17.5 310.5t-17.5 310.5t-54 261t-93 209t-134 153.5t-177.5 94.5t-224 32.5t-224 -32.5t-178 -94.5t-134.5 -153.5t-93 -209t-54 -261t-17.5 -310.5t17.5 -310.5t54 -261.5t93 -209t134.5 -153.5
t178 -94.5t224 -32zM901 3257v426h1254v-426h-1254z" />
    <glyph glyph-name="omacron" unicode="&#x14d;" horiz-adv-x="2433" 
d="M1217 -66q-188 0 -339.5 37.5t-268 107.5t-200 169.5t-137 223.5t-79 269.5t-25.5 307.5q0 163 26.5 309t82 270t140.5 224t201.5 170t265.5 107.5t333 37.5q188 0 339 -37.5t267.5 -107.5t200 -169.5t137 -223t79 -269t25.5 -307.5q0 -163 -26.5 -309.5t-82 -270.5
t-140.5 -224t-201.5 -170t-265.5 -107.5t-332 -37.5zM1217 389q132 0 222 52.5t145.5 142.5t79.5 211t24 258q0 136 -24 256.5t-79.5 209.5t-145.5 141t-222 52t-222.5 -52.5t-146 -142.5t-79.5 -211t-24 -257q0 -137 24 -257t79.5 -209.5t146 -141.5t222.5 -52zM590 2503
v426h1254v-426h-1254z" />
    <glyph glyph-name="Obreve" unicode="&#x14e;" horiz-adv-x="3056" 
d="M1528 -66q-258 0 -454.5 56t-341 157.5t-241 243t-155 314t-83 369.5t-24.5 409t27 409t88 369t159.5 314t243 243t338 157t443.5 56q258 0 454.5 -56t340.5 -157t241 -243t155 -314t82.5 -369t24.5 -409t-27 -409t-87.5 -369.5t-159.5 -314t-243.5 -243t-337.5 -157.5
t-443 -56zM1528 422q124 0 224 32t177.5 94.5t134 153.5t93 209t54 261.5t17.5 310.5t-17.5 310.5t-54 261t-93 209t-134 153.5t-177.5 94.5t-224 32.5t-224 -32.5t-178 -94.5t-134.5 -153.5t-93 -209t-54 -261t-17.5 -310.5t17.5 -310.5t54 -261.5t93 -209t134.5 -153.5
t178 -94.5t224 -32zM2224 3810q-6 -137 -53 -258.5t-134 -212.5t-214.5 -144t-294.5 -53q-168 0 -295.5 53t-214.5 144t-133.5 212.5t-52.5 258.5h352q4 -56 27.5 -109.5t66 -95.5t105 -68t145.5 -26t144.5 26.5t103.5 69t64.5 96t27.5 107.5h356z" />
    <glyph glyph-name="obreve" unicode="&#x14f;" horiz-adv-x="2433" 
d="M1217 -66q-188 0 -339.5 37.5t-268 107.5t-200 169.5t-137 223.5t-79 269.5t-25.5 307.5q0 163 26.5 309t82 270t140.5 224t201.5 170t265.5 107.5t333 37.5q188 0 339 -37.5t267.5 -107.5t200 -169.5t137 -223t79 -269t25.5 -307.5q0 -163 -26.5 -309.5t-82 -270.5
t-140.5 -224t-201.5 -170t-265.5 -107.5t-332 -37.5zM1217 389q132 0 222 52.5t145.5 142.5t79.5 211t24 258q0 136 -24 256.5t-79.5 209.5t-145.5 141t-222 52t-222.5 -52.5t-146 -142.5t-79.5 -211t-24 -257q0 -137 24 -257t79.5 -209.5t146 -141.5t222.5 -52zM1913 3056
q-6 -137 -53 -258.5t-134 -212.5t-214.5 -144t-294.5 -53q-168 0 -295.5 53t-214.5 144t-133.5 212.5t-52.5 258.5h352q4 -56 27.5 -109.5t66 -95.5t105 -68t145.5 -26t144.5 26.5t103.5 69t64.5 96t27.5 107.5h356z" />
    <glyph glyph-name="Ohungarumlaut" unicode="&#x150;" horiz-adv-x="3056" 
d="M1528 -66q-258 0 -454.5 56t-341 157.5t-241 243t-155 314t-83 369.5t-24.5 409t27 409t88 369t159.5 314t243 243t338 157t443.5 56q258 0 454.5 -56t340.5 -157t241 -243t155 -314t82.5 -369t24.5 -409t-27 -409t-87.5 -369.5t-159.5 -314t-243.5 -243t-337.5 -157.5
t-443 -56zM1528 422q124 0 224 32t177.5 94.5t134 153.5t93 209t54 261.5t17.5 310.5t-17.5 310.5t-54 261t-93 209t-134 153.5t-177.5 94.5t-224 32.5t-224 -32.5t-178 -94.5t-134.5 -153.5t-93 -209t-54 -261t-17.5 -310.5t17.5 -310.5t54 -261.5t93 -209t134.5 -153.5
t178 -94.5t224 -32zM938 3162l262 648h590l-443 -648h-409zM1712 3162l262 648h590l-442 -648h-410z" />
    <glyph glyph-name="ohungarumlaut" unicode="&#x151;" horiz-adv-x="2433" 
d="M1217 -66q-188 0 -339.5 37.5t-268 107.5t-200 169.5t-137 223.5t-79 269.5t-25.5 307.5q0 163 26.5 309t82 270t140.5 224t201.5 170t265.5 107.5t333 37.5q188 0 339 -37.5t267.5 -107.5t200 -169.5t137 -223t79 -269t25.5 -307.5q0 -163 -26.5 -309.5t-82 -270.5
t-140.5 -224t-201.5 -170t-265.5 -107.5t-332 -37.5zM1217 389q132 0 222 52.5t145.5 142.5t79.5 211t24 258q0 136 -24 256.5t-79.5 209.5t-145.5 141t-222 52t-222.5 -52.5t-146 -142.5t-79.5 -211t-24 -257q0 -137 24 -257t79.5 -209.5t146 -141.5t222.5 -52zM627 2408
l262 648h590l-443 -648h-409zM1401 2408l262 648h590l-442 -648h-410z" />
    <glyph glyph-name="OE" unicode="&#x152;" horiz-adv-x="4207" 
d="M2130 0q-69 -5 -143 -8.5t-150.5 -6t-155.5 -4t-157 -1.5q-210 0 -389 45t-324.5 133t-257 217t-187 297.5t-114.5 374.5t-39 448q0 226 40 424.5t118 364t193 296t265 221t333.5 138t398.5 47.5q80 0 156 -1.5t147 -4t137.5 -6.5t128.5 -8h1839v-476h-1294v-733h1114
v-475h-1114v-807h1310v-475h-1855zM2097 2503l-114 8t-115.5 6.5t-118.5 4t-123 1.5q-125 0 -233.5 -31.5t-199 -92t-160.5 -149t-118.5 -203t-74 -253t-25.5 -299.5q0 -192 26.5 -345t76.5 -270t122.5 -200t165 -136t203.5 -77.5t238 -24.5q54 0 113 1t118 3t115 5t104 8
v2044z" />
    <glyph glyph-name="oe" unicode="&#x153;" horiz-adv-x="3748" 
d="M3473 82q-72 -34 -150.5 -61t-169.5 -46.5t-196 -30t-229 -10.5q-132 0 -243.5 21.5t-204.5 63t-167 101t-131 134.5q-54 -74 -127 -133t-168 -100.5t-212 -64t-258 -22.5q-198 0 -352.5 37.5t-271 107.5t-197.5 169.5t-131.5 223.5t-73.5 269.5t-23 307.5q0 163 24 309
t76.5 270t135 224t199 170t269 107.5t345.5 37.5q141 0 257 -21t209 -60t165 -95.5t126 -126.5q48 70 111.5 126.5t145 95.5t183 60t224.5 21q179 0 319.5 -42.5t246.5 -117t180 -177t120 -222.5t67 -253.5t21 -269.5q0 -18 -1 -44t-2.5 -54t-3.5 -54t-5 -44h-1331
q7 -106 41 -193t99 -148.5t164.5 -95.5t239.5 -34q94 0 186.5 7.5t179.5 21t166.5 33.5t147.5 44v-442zM1217 389q132 0 222 52.5t145.5 142.5t79.5 211t24 258q0 136 -24 256.5t-79.5 209.5t-145.5 141t-222 52t-222.5 -52.5t-146 -142.5t-79.5 -211t-24 -257
q0 -137 24 -257t79.5 -209.5t146 -141.5t222.5 -52zM3031 1286q-9 103 -38 185t-77.5 139.5t-118 88t-159.5 30.5q-91 0 -159.5 -30.5t-116 -88t-75 -139.5t-34.5 -185h778z" />
    <glyph glyph-name="Racute" unicode="&#x154;" horiz-adv-x="2744" 
d="M2028 0l-582 954q-28 46 -51 80t-45 58.5t-45 39.5t-51.5 24t-64.5 12t-83 3h-164v-1171h-573v2966h1007q255 0 451 -53t328.5 -162t201 -274.5t68.5 -391.5q0 -169 -48 -305t-129 -237.5t-188 -169t-225 -99.5q65 -31 117.5 -80.5t95.5 -120.5l655 -1073h-675z
M1323 1610q118 0 213 28.5t161.5 87.5t102 148t35.5 211q0 108 -35 189t-101 135.5t-161 82t-215 27.5h-381v-909h381zM1094 3162l385 648h647l-606 -648h-426z" />
    <glyph glyph-name="racute" unicode="&#x155;" horiz-adv-x="1667" 
d="M336 0v2101h528l21 -262q46 71 102.5 130.5t124 102.5t147 67t171.5 24q43 0 90 -6.5t82 -18.5v-536q-43 9 -74.5 14.5t-61 8.5t-61 4t-74.5 1q-46 0 -88.5 -5.5t-82 -15.5t-75.5 -24.5t-69 -33t-62.5 -41t-56.5 -48.5v-1462h-561zM684 2408l385 648h647l-606 -648h-426z
" />
    <glyph glyph-name="Rcommaaccent" unicode="&#x156;" horiz-adv-x="2744" 
d="M2028 0l-582 954q-28 46 -51 80t-45 58.5t-45 39.5t-51.5 24t-64.5 12t-83 3h-164v-1171h-573v2966h1007q255 0 451 -53t328.5 -162t201 -274.5t68.5 -391.5q0 -169 -48 -305t-129 -237.5t-188 -169t-225 -99.5q65 -31 117.5 -80.5t95.5 -120.5l655 -1073h-675z
M1323 1610q118 0 213 28.5t161.5 87.5t102 148t35.5 211q0 108 -35 189t-101 135.5t-161 82t-215 27.5h-381v-909h381zM1143 -983l-184 192l278 297l-82 322h365q55 0 99 -17.5t74.5 -49t47 -75.5t16.5 -96q0 -78 -38 -151t-101 -135t-144 -115t-167 -94z" />
    <glyph glyph-name="rcommaaccent" unicode="&#x157;" horiz-adv-x="1667" 
d="M336 0v2101h528l21 -262q46 71 102.5 130.5t124 102.5t147 67t171.5 24q43 0 90 -6.5t82 -18.5v-536q-43 9 -74.5 14.5t-61 8.5t-61 4t-74.5 1q-46 0 -88.5 -5.5t-82 -15.5t-75.5 -24.5t-69 -33t-62.5 -41t-56.5 -48.5v-1462h-561zM341 -983l-184 192l278 297l-82 322
h365q55 0 99 -17.5t74.5 -49t47 -75.5t16.5 -96q0 -78 -38 -151t-101 -135t-144 -115t-167 -94z" />
    <glyph glyph-name="Rcaron" unicode="&#x158;" horiz-adv-x="2744" 
d="M2028 0l-582 954q-28 46 -51 80t-45 58.5t-45 39.5t-51.5 24t-64.5 12t-83 3h-164v-1171h-573v2966h1007q255 0 451 -53t328.5 -162t201 -274.5t68.5 -391.5q0 -169 -48 -305t-129 -237.5t-188 -169t-225 -99.5q65 -31 117.5 -80.5t95.5 -120.5l655 -1073h-675z
M1323 1610q118 0 213 28.5t161.5 87.5t102 148t35.5 211q0 108 -35 189t-101 135.5t-161 82t-215 27.5h-381v-909h381zM1118 3162l-434 648h409l279 -340l282 340h410l-434 -648h-512z" />
    <glyph glyph-name="rcaron" unicode="&#x159;" horiz-adv-x="1667" 
d="M336 0v2101h528l21 -262q46 71 102.5 130.5t124 102.5t147 67t171.5 24q43 0 90 -6.5t82 -18.5v-536q-43 9 -74.5 14.5t-61 8.5t-61 4t-74.5 1q-46 0 -88.5 -5.5t-82 -15.5t-75.5 -24.5t-69 -33t-62.5 -41t-56.5 -48.5v-1462h-561zM709 2408l-434 648h409l279 -340
l282 340h410l-434 -648h-512z" />
    <glyph glyph-name="Sacute" unicode="&#x15a;" horiz-adv-x="2540" 
d="M205 582q72 -36 171 -65.5t213 -50.5t237 -32.5t243 -11.5q163 0 284.5 26.5t202 78t120.5 127t40 173.5q0 55 -13 101.5t-41.5 86t-75.5 73t-114.5 63.5t-158 57t-207.5 54q-138 32 -257.5 74t-218 98t-174.5 126.5t-128.5 159t-79.5 196.5t-27 238t25 245.5t80.5 213
t143.5 175t215 131.5t295.5 83t383.5 29q126 0 247 -11.5t228 -33t197 -53.5t155 -74v-475q-74 35 -170.5 64.5t-205.5 50.5t-224.5 33t-226.5 12q-132 0 -231 -26.5t-165 -76.5t-99 -122.5t-33 -164.5q0 -56 13 -102t42.5 -84.5t76.5 -70t115 -60t159 -54t208 -50.5
q145 -32 267.5 -74.5t220.5 -99t172.5 -127.5t124.5 -159.5t75 -196t25 -236.5q0 -131 -31 -249.5t-95 -219t-163 -181.5t-234 -138t-308 -87.5t-386 -30.5q-147 0 -283.5 12t-254.5 34.5t-213.5 54t-161.5 71.5v476zM987 3162l385 648h647l-606 -648h-426z" />
    <glyph glyph-name="sacute" unicode="&#x15b;" horiz-adv-x="1991" 
d="M188 524q36 -16 85.5 -31.5t107 -29t121 -25t128 -20t127.5 -13t120 -4.5q93 0 167 10.5t125 34t78 60t27 88.5q0 54 -23 90.5t-72.5 64t-127.5 50.5t-187 49q-174 41 -298 97.5t-203.5 136t-116.5 186.5t-37 248q0 144 50.5 263.5t158 204.5t275 132t401.5 47
q61 0 125.5 -4.5t128 -13.5t123.5 -21.5t113 -28t96 -34t73 -38.5v-450q-37 17 -85.5 33t-104.5 30.5t-116.5 26t-121.5 20t-120 13t-111 4.5q-68 0 -124.5 -10.5t-97.5 -32.5t-63.5 -57t-22.5 -84q0 -54 23 -89.5t72.5 -61.5t126 -47.5t184.5 -47.5q172 -42 296.5 -98
t205 -135t119 -185.5t38.5 -249.5t-60 -264.5t-178.5 -210t-293.5 -138.5t-406 -50q-106 0 -214.5 10.5t-206 29t-177 43t-127.5 52.5v450zM774 2408l385 648h647l-606 -648h-426z" />
    <glyph glyph-name="Scircumflex" unicode="&#x15c;" horiz-adv-x="2540" 
d="M205 582q72 -36 171 -65.5t213 -50.5t237 -32.5t243 -11.5q163 0 284.5 26.5t202 78t120.5 127t40 173.5q0 55 -13 101.5t-41.5 86t-75.5 73t-114.5 63.5t-158 57t-207.5 54q-138 32 -257.5 74t-218 98t-174.5 126.5t-128.5 159t-79.5 196.5t-27 238t25 245.5t80.5 213
t143.5 175t215 131.5t295.5 83t383.5 29q126 0 247 -11.5t228 -33t197 -53.5t155 -74v-475q-74 35 -170.5 64.5t-205.5 50.5t-224.5 33t-226.5 12q-132 0 -231 -26.5t-165 -76.5t-99 -122.5t-33 -164.5q0 -56 13 -102t42.5 -84.5t76.5 -70t115 -60t159 -54t208 -50.5
q145 -32 267.5 -74.5t220.5 -99t172.5 -127.5t124.5 -159.5t75 -196t25 -236.5q0 -131 -31 -249.5t-95 -219t-163 -181.5t-234 -138t-308 -87.5t-386 -30.5q-147 0 -283.5 12t-254.5 34.5t-213.5 54t-161.5 71.5v476zM1553 3162l-283 336l-279 -336h-409l434 648h512
l434 -648h-409z" />
    <glyph glyph-name="scircumflex" unicode="&#x15d;" horiz-adv-x="1991" 
d="M188 524q36 -16 85.5 -31.5t107 -29t121 -25t128 -20t127.5 -13t120 -4.5q93 0 167 10.5t125 34t78 60t27 88.5q0 54 -23 90.5t-72.5 64t-127.5 50.5t-187 49q-174 41 -298 97.5t-203.5 136t-116.5 186.5t-37 248q0 144 50.5 263.5t158 204.5t275 132t401.5 47
q61 0 125.5 -4.5t128 -13.5t123.5 -21.5t113 -28t96 -34t73 -38.5v-450q-37 17 -85.5 33t-104.5 30.5t-116.5 26t-121.5 20t-120 13t-111 4.5q-68 0 -124.5 -10.5t-97.5 -32.5t-63.5 -57t-22.5 -84q0 -54 23 -89.5t72.5 -61.5t126 -47.5t184.5 -47.5q172 -42 296.5 -98
t205 -135t119 -185.5t38.5 -249.5t-60 -264.5t-178.5 -210t-293.5 -138.5t-406 -50q-106 0 -214.5 10.5t-206 29t-177 43t-127.5 52.5v450zM1340 2408l-283 336l-279 -336h-409l434 648h512l434 -648h-409z" />
    <glyph glyph-name="Scedilla" unicode="&#x15e;" horiz-adv-x="2540" 
d="M811 -586q40 -9 82.5 -14.5t97.5 -5.5q37 0 72.5 7t63 22.5t44.5 39.5t17 58q0 37 -25.5 66.5t-67 51.5t-94.5 35.5t-108 18.5l143 241q-135 3 -258.5 16.5t-230.5 36t-194 52.5t-148 67v476q72 -36 171 -65.5t213 -50.5t237 -32.5t243 -11.5q163 0 284.5 26.5t202 78
t120.5 127t40 173.5q0 55 -13 101.5t-41.5 86t-75.5 73t-114.5 63.5t-158 57t-207.5 54q-138 32 -257.5 74t-218 98t-174.5 126.5t-128.5 159t-79.5 196.5t-27 238t25 245.5t80.5 213t143.5 175t215 131.5t295.5 83t383.5 29q126 0 247 -11.5t228 -33t197 -53.5t155 -74
v-475q-74 35 -170.5 64.5t-205.5 50.5t-224.5 33t-226.5 12q-132 0 -231 -26.5t-165 -76.5t-99 -122.5t-33 -164.5q0 -56 13 -102t42.5 -84.5t76.5 -70t115 -60t159 -54t208 -50.5q145 -32 267.5 -74.5t220.5 -99t172.5 -127.5t124.5 -159.5t75 -196t25 -236.5
q0 -178 -58 -332t-180 -272t-310 -194t-448 -99l-65 -140q61 -6 117 -31.5t98 -66.5t67 -94.5t25 -114.5q0 -94 -42 -164t-114.5 -116.5t-170.5 -69.5t-210 -23q-68 0 -125.5 8.5t-107.5 20.5v262z" />
    <glyph glyph-name="scedilla" unicode="&#x15f;" horiz-adv-x="1991" 
d="M610 -586q41 -9 83 -14.5t98 -5.5q37 0 72 7t62.5 22.5t44.5 39.5t17 58q0 37 -25.5 66.5t-66.5 51.5t-94.5 35.5t-108.5 18.5l144 246q-99 4 -196 16t-183.5 29.5t-156 40.5t-112.5 49v450q36 -16 85.5 -31.5t107 -29t121 -25t128 -20t127.5 -13t120 -4.5q93 0 167 10.5
t125 34t78 60t27 88.5q0 54 -23 90.5t-72.5 64t-127.5 50.5t-187 49q-174 41 -298 97.5t-203.5 136t-116.5 186.5t-37 248q0 144 50.5 263.5t158 204.5t275 132t401.5 47q61 0 125.5 -4.5t128 -13.5t123.5 -21.5t113 -28t96 -34t73 -38.5v-450q-37 17 -85.5 33t-104.5 30.5
t-116.5 26t-121.5 20t-120 13t-111 4.5q-68 0 -124.5 -10.5t-97.5 -32.5t-63.5 -57t-22.5 -84q0 -54 23 -89.5t72.5 -61.5t126 -47.5t184.5 -47.5q172 -42 296.5 -98t205 -135t119 -185.5t38.5 -249.5q0 -125 -45.5 -233t-135 -192.5t-221.5 -141.5t-306 -80l-70 -152
q61 -6 117 -31.5t98 -66.5t67 -94.5t25 -114.5q0 -94 -41.5 -164t-114 -116.5t-170.5 -69.5t-210 -23q-68 0 -126 8.5t-108 20.5v262z" />
    <glyph glyph-name="Scaron" unicode="&#x160;" horiz-adv-x="2540" 
d="M205 582q72 -36 171 -65.5t213 -50.5t237 -32.5t243 -11.5q163 0 284.5 26.5t202 78t120.5 127t40 173.5q0 55 -13 101.5t-41.5 86t-75.5 73t-114.5 63.5t-158 57t-207.5 54q-138 32 -257.5 74t-218 98t-174.5 126.5t-128.5 159t-79.5 196.5t-27 238t25 245.5t80.5 213
t143.5 175t215 131.5t295.5 83t383.5 29q126 0 247 -11.5t228 -33t197 -53.5t155 -74v-475q-74 35 -170.5 64.5t-205.5 50.5t-224.5 33t-226.5 12q-132 0 -231 -26.5t-165 -76.5t-99 -122.5t-33 -164.5q0 -56 13 -102t42.5 -84.5t76.5 -70t115 -60t159 -54t208 -50.5
q145 -32 267.5 -74.5t220.5 -99t172.5 -127.5t124.5 -159.5t75 -196t25 -236.5q0 -131 -31 -249.5t-95 -219t-163 -181.5t-234 -138t-308 -87.5t-386 -30.5q-147 0 -283.5 12t-254.5 34.5t-213.5 54t-161.5 71.5v476zM1012 3162l-434 648h409l279 -340l282 340h410
l-434 -648h-512z" />
    <glyph glyph-name="scaron" unicode="&#x161;" horiz-adv-x="1991" 
d="M188 524q36 -16 85.5 -31.5t107 -29t121 -25t128 -20t127.5 -13t120 -4.5q93 0 167 10.5t125 34t78 60t27 88.5q0 54 -23 90.5t-72.5 64t-127.5 50.5t-187 49q-174 41 -298 97.5t-203.5 136t-116.5 186.5t-37 248q0 144 50.5 263.5t158 204.5t275 132t401.5 47
q61 0 125.5 -4.5t128 -13.5t123.5 -21.5t113 -28t96 -34t73 -38.5v-450q-37 17 -85.5 33t-104.5 30.5t-116.5 26t-121.5 20t-120 13t-111 4.5q-68 0 -124.5 -10.5t-97.5 -32.5t-63.5 -57t-22.5 -84q0 -54 23 -89.5t72.5 -61.5t126 -47.5t184.5 -47.5q172 -42 296.5 -98
t205 -135t119 -185.5t38.5 -249.5t-60 -264.5t-178.5 -210t-293.5 -138.5t-406 -50q-106 0 -214.5 10.5t-206 29t-177 43t-127.5 52.5v450zM799 2408l-434 648h409l279 -340l282 340h410l-434 -648h-512z" />
    <glyph glyph-name="Tcommaaccent" unicode="&#x162;" horiz-adv-x="2273" 
d="M848 0v2490h-766v476h2109v-476h-766v-2490h-577zM860 -983l-184 192l278 297l-82 322h365q55 0 99 -17.5t74.5 -49t47 -75.5t16.5 -96q0 -78 -38 -151t-101 -135t-144 -115t-167 -94z" />
    <glyph glyph-name="tcommaaccent" unicode="&#x163;" horiz-adv-x="1757" 
d="M1659 25q-59 -22 -119 -38t-123 -26.5t-129.5 -16t-136.5 -5.5q-218 0 -360 51.5t-225 149t-115.5 238t-32.5 318.5v938h-328v467h328v652h561v-652h688v-467h-688v-901q0 -80 12.5 -138t47.5 -95.5t96 -55.5t159 -18q48 0 94 2.5t91.5 7t90 11.5t89.5 16v-438zM807 -983
l-184 192l278 297l-82 322h365q55 0 99 -17.5t74.5 -49t47 -75.5t16.5 -96q0 -78 -38 -151t-101 -135t-144 -115t-167 -94z" />
    <glyph glyph-name="Tcaron" unicode="&#x164;" horiz-adv-x="2273" 
d="M848 0v2490h-766v476h2109v-476h-766v-2490h-577zM877 3162l-434 648h409l279 -340l282 340h410l-434 -648h-512z" />
    <glyph glyph-name="tcaron" unicode="&#x165;" horiz-adv-x="1757" 
d="M1659 25q-59 -22 -119 -38t-123 -26.5t-129.5 -16t-136.5 -5.5q-218 0 -360 51.5t-225 149t-115.5 238t-32.5 318.5v938h-328v467h328v652h561v-652h688v-467h-688v-901q0 -80 12.5 -138t47.5 -95.5t96 -55.5t159 -18q48 0 94 2.5t91.5 7t90 11.5t89.5 16v-438z
M1228 2359l152 475l-127 418h365q51 0 95 -15t76.5 -43.5t51 -69.5t18.5 -93q0 -60 -22 -125.5t-57.5 -135t-81 -144t-93.5 -152.5l-69 -115h-308z" />
    <glyph glyph-name="Tbar" unicode="&#x166;" horiz-adv-x="2273" 
d="M848 0v1151h-520v442h520v897h-766v476h2109v-476h-766v-897h521v-442h-521v-1151h-577z" />
    <glyph glyph-name="tbar" unicode="&#x167;" horiz-adv-x="1757" 
d="M1659 25q-59 -22 -119 -38t-123 -26.5t-129.5 -16t-136.5 -5.5q-218 0 -360 51.5t-225 149t-115.5 238t-32.5 318.5v156h-246v405h246v377h-328v467h328v652h561v-652h688v-467h-688v-377h451v-405h-451v-119q0 -80 12.5 -138t47.5 -95.5t96 -55.5t159 -18q48 0 94 2.5
t91.5 7t90 11.5t89.5 16v-438z" />
    <glyph glyph-name="Utilde" unicode="&#x168;" horiz-adv-x="2941" 
d="M2044 2966h577v-1954q0 -151 -18.5 -290t-66.5 -259t-130.5 -217.5t-210.5 -166.5t-306.5 -107t-418.5 -38q-239 0 -417.5 38t-306.5 107t-210.5 166.5t-131 217.5t-67 258.5t-18.5 290.5v1954h578v-1872q0 -191 32 -319.5t101 -207t178 -112t262 -33.5q154 0 263 33.5
t178 112t101 207t32 319.5v1872zM2245 3769q0 -140 -37.5 -250t-104 -186.5t-157.5 -117t-197 -40.5q-61 0 -114 14t-100 35.5t-89 46.5t-81.5 46.5t-76.5 35.5t-75 14q-43 0 -76 -12t-55.5 -35t-35 -56.5t-13.5 -76.5h-336q0 140 36.5 250t101.5 186.5t154 117t195 40.5
q61 0 115 -14.5t102 -35.5t91 -46.5t83 -46.5t78 -35.5t76 -14.5q43 0 76.5 11.5t56.5 34.5t35 56.5t12 78.5h336z" />
    <glyph glyph-name="utilde" unicode="&#x169;" horiz-adv-x="2531" 
d="M1708 0l-45 168q-62 -57 -129 -100.5t-143 -73.5t-162 -45t-185 -15q-133 0 -241 25.5t-192 74t-145 118t-101 157.5t-59 192.5t-19 223.5v1376h561v-1302q0 -97 24.5 -168.5t73 -119t120.5 -70.5t167 -23q57 0 110.5 7.5t104 21.5t97 34.5t89.5 46.5v1573h561v-2101
h-487zM2015 3015q0 -140 -37.5 -250t-104 -186.5t-157.5 -117t-197 -40.5q-61 0 -114 14t-100 35.5t-89 46.5t-81.5 46.5t-76.5 35.5t-75 14q-43 0 -76 -12t-55.5 -35t-35 -56.5t-13.5 -76.5h-336q0 140 36.5 250t101.5 186.5t154 117t195 40.5q61 0 115 -14.5t102 -35.5
t91 -46.5t83 -46.5t78 -35.5t76 -14.5q43 0 76.5 11.5t56.5 34.5t35 56.5t12 78.5h336z" />
    <glyph glyph-name="Umacron" unicode="&#x16a;" horiz-adv-x="2941" 
d="M2044 2966h577v-1954q0 -151 -18.5 -290t-66.5 -259t-130.5 -217.5t-210.5 -166.5t-306.5 -107t-418.5 -38q-239 0 -417.5 38t-306.5 107t-210.5 166.5t-131 217.5t-67 258.5t-18.5 290.5v1954h578v-1872q0 -191 32 -319.5t101 -207t178 -112t262 -33.5q154 0 263 33.5
t178 112t101 207t32 319.5v1872zM844 3257v426h1254v-426h-1254z" />
    <glyph glyph-name="umacron" unicode="&#x16b;" horiz-adv-x="2531" 
d="M1708 0l-45 168q-62 -57 -129 -100.5t-143 -73.5t-162 -45t-185 -15q-133 0 -241 25.5t-192 74t-145 118t-101 157.5t-59 192.5t-19 223.5v1376h561v-1302q0 -97 24.5 -168.5t73 -119t120.5 -70.5t167 -23q57 0 110.5 7.5t104 21.5t97 34.5t89.5 46.5v1573h561v-2101
h-487zM614 2503v426h1254v-426h-1254z" />
    <glyph glyph-name="Ubreve" unicode="&#x16c;" horiz-adv-x="2941" 
d="M2044 2966h577v-1954q0 -151 -18.5 -290t-66.5 -259t-130.5 -217.5t-210.5 -166.5t-306.5 -107t-418.5 -38q-239 0 -417.5 38t-306.5 107t-210.5 166.5t-131 217.5t-67 258.5t-18.5 290.5v1954h578v-1872q0 -191 32 -319.5t101 -207t178 -112t262 -33.5q154 0 263 33.5
t178 112t101 207t32 319.5v1872zM2167 3810q-6 -137 -53 -258.5t-134 -212.5t-214.5 -144t-294.5 -53q-168 0 -295.5 53t-214.5 144t-133.5 212.5t-52.5 258.5h352q4 -56 27.5 -109.5t66 -95.5t105 -68t145.5 -26t144.5 26.5t103.5 69t64.5 96t27.5 107.5h356z" />
    <glyph glyph-name="ubreve" unicode="&#x16d;" horiz-adv-x="2531" 
d="M1708 0l-45 168q-62 -57 -129 -100.5t-143 -73.5t-162 -45t-185 -15q-133 0 -241 25.5t-192 74t-145 118t-101 157.5t-59 192.5t-19 223.5v1376h561v-1302q0 -97 24.5 -168.5t73 -119t120.5 -70.5t167 -23q57 0 110.5 7.5t104 21.5t97 34.5t89.5 46.5v1573h561v-2101
h-487zM1937 3056q-6 -137 -53 -258.5t-134 -212.5t-214.5 -144t-294.5 -53q-168 0 -295.5 53t-214.5 144t-133.5 212.5t-52.5 258.5h352q4 -56 27.5 -109.5t66 -95.5t105 -68t145.5 -26t144.5 26.5t103.5 69t64.5 96t27.5 107.5h356z" />
    <glyph glyph-name="Uring" unicode="&#x16e;" horiz-adv-x="2941" 
d="M2044 2966h577v-1954q0 -151 -18.5 -290t-66.5 -259t-130.5 -217.5t-210.5 -166.5t-306.5 -107t-418.5 -38q-239 0 -417.5 38t-306.5 107t-210.5 166.5t-131 217.5t-67 258.5t-18.5 290.5v1954h578v-1872q0 -191 32 -319.5t101 -207t178 -112t262 -33.5q154 0 263 33.5
t178 112t101 207t32 319.5v1872zM1962 3547q0 -100 -37.5 -185.5t-103.5 -148t-156 -98t-194 -35.5q-105 0 -195 35.5t-156 98t-103.5 148t-37.5 185.5t37.5 185.5t103.5 148t156 98t195 35.5q104 0 194 -35.5t156 -98t103.5 -148t37.5 -185.5zM1471 3342q45 0 82 16.5
t63.5 44.5t41 65t14.5 79q0 40 -14.5 76.5t-41 64t-63.5 44t-82 16.5t-82.5 -16.5t-64.5 -44t-42.5 -64t-15.5 -76.5q0 -42 15.5 -79t42.5 -65t64.5 -44.5t82.5 -16.5z" />
    <glyph glyph-name="uring" unicode="&#x16f;" horiz-adv-x="2531" 
d="M1708 0l-45 168q-62 -57 -129 -100.5t-143 -73.5t-162 -45t-185 -15q-133 0 -241 25.5t-192 74t-145 118t-101 157.5t-59 192.5t-19 223.5v1376h561v-1302q0 -97 24.5 -168.5t73 -119t120.5 -70.5t167 -23q57 0 110.5 7.5t104 21.5t97 34.5t89.5 46.5v1573h561v-2101
h-487zM1732 2859q0 -100 -37.5 -185.5t-103.5 -148t-156 -98t-194 -35.5q-105 0 -195 35.5t-156 98t-103.5 148t-37.5 185.5t37.5 185.5t103.5 148t156 98t195 35.5q104 0 194 -35.5t156 -98t103.5 -148t37.5 -185.5zM1241 2654q45 0 82 16.5t63.5 44.5t41 65t14.5 79
q0 40 -14.5 76.5t-41 64t-63.5 44t-82 16.5t-82.5 -16.5t-64.5 -44t-42.5 -64t-15.5 -76.5q0 -42 15.5 -79t42.5 -65t64.5 -44.5t82.5 -16.5z" />
    <glyph glyph-name="Uhungarumlaut" unicode="&#x170;" horiz-adv-x="2941" 
d="M2044 2966h577v-1954q0 -151 -18.5 -290t-66.5 -259t-130.5 -217.5t-210.5 -166.5t-306.5 -107t-418.5 -38q-239 0 -417.5 38t-306.5 107t-210.5 166.5t-131 217.5t-67 258.5t-18.5 290.5v1954h578v-1872q0 -191 32 -319.5t101 -207t178 -112t262 -33.5q154 0 263 33.5
t178 112t101 207t32 319.5v1872zM881 3162l262 648h590l-443 -648h-409zM1655 3162l262 648h590l-442 -648h-410z" />
    <glyph glyph-name="uhungarumlaut" unicode="&#x171;" horiz-adv-x="2531" 
d="M1708 0l-45 168q-62 -57 -129 -100.5t-143 -73.5t-162 -45t-185 -15q-133 0 -241 25.5t-192 74t-145 118t-101 157.5t-59 192.5t-19 223.5v1376h561v-1302q0 -97 24.5 -168.5t73 -119t120.5 -70.5t167 -23q57 0 110.5 7.5t104 21.5t97 34.5t89.5 46.5v1573h561v-2101
h-487zM651 2408l262 648h590l-443 -648h-409zM1425 2408l262 648h590l-442 -648h-410z" />
    <glyph glyph-name="Uogonek" unicode="&#x172;" horiz-adv-x="2941" 
d="M1843 -852q-49 -12 -105.5 -18.5t-115.5 -6.5q-126 0 -225 24.5t-167 72.5t-104 119.5t-36 164.5q0 75 23 137.5t63.5 114.5t95 96t117.5 82q-222 7 -388 49t-284.5 112.5t-195.5 167t-122 214t-62.5 252.5t-17.5 283v1954h578v-1872q0 -191 32 -319.5t101 -207t178 -112
t262 -33.5q154 0 263 33.5t178 112t101 207t32 319.5v1872h577v-1954q0 -127 -13 -244.5t-44.5 -222t-85.5 -195t-136.5 -164t-196.5 -128t-265 -87.5q-100 -21 -171.5 -64t-117 -95.5t-67 -108.5t-21.5 -104q0 -77 51 -124.5t158 -47.5q23 0 40.5 1.5t32.5 3.5t29 5t29 6
v-295z" />
    <glyph glyph-name="uogonek" unicode="&#x173;" horiz-adv-x="2531" 
d="M2134 -852q-50 -12 -106 -18.5t-115 -6.5q-126 0 -225 26.5t-167.5 77.5t-104.5 125t-36 169q0 73 27 140t72.5 127t104.5 113t124 99l-45 168q-62 -57 -129 -100.5t-143 -73.5t-162 -45t-185 -15q-133 0 -241 25.5t-192 74t-145 118t-101 157.5t-59 192.5t-19 223.5
v1376h561v-1302q0 -97 24.5 -168.5t73 -119t120.5 -70.5t167 -23q57 0 110.5 7.5t104 21.5t97 34.5t89.5 46.5v1573h561v-2101h-180q-51 -52 -91.5 -104.5t-69.5 -103.5t-44.5 -100t-15.5 -93q0 -77 51 -124.5t158 -47.5q23 0 40.5 1.5t32.5 3.5t29 5t29 6v-295z" />
    <glyph glyph-name="Wcircumflex" unicode="&#x174;" horiz-adv-x="4321" 
d="M2724 0l-496 1892q-8 26 -16 61.5t-17 78.5t-18 91.5t-18 100.5q-9 -52 -18.5 -100.5t-18 -91.5t-16 -78.5t-13.5 -61.5l-496 -1892h-655l-893 2966h615l507 -1913q9 -36 20 -86t22 -109.5t22 -126t22 -133.5q12 67 25.5 133.5t27 126t25.5 109.5t21 86l516 1913h577
l517 -1913q9 -36 21 -86t25 -109.5t26.5 -126t25.5 -133.5q9 67 19.5 133.5t21.5 126t22.5 109.5t22.5 86l508 1913h614l-893 -2966h-655zM2442 3162l-283 336l-279 -336h-409l434 648h512l434 -648h-409z" />
    <glyph glyph-name="wcircumflex" unicode="&#x175;" horiz-adv-x="3346" 
d="M2060 0l-315 1114q-25 78 -43 156.5t-31 159.5q-15 -78 -33.5 -158t-40.5 -158l-319 -1114h-561l-684 2101h585l316 -1151q18 -68 36 -153t34 -174q18 89 37 174t40 153l328 1151h528l320 -1151q18 -74 38.5 -160.5t39.5 -179.5q15 93 33.5 181t39.5 159l324 1151h582
l-688 -2101h-566zM1954 2408l-283 336l-279 -336h-409l434 648h512l434 -648h-409z" />
    <glyph glyph-name="Ycircumflex" unicode="&#x176;" horiz-adv-x="2617" 
d="M1020 0v1126l-1004 1840h668l438 -934q28 -60 54 -117t49.5 -111t44 -106t37.5 -101q17 49 37.5 101t44 106t50.5 111t56 117l438 934h668l-1004 -1840v-1126h-577zM1598 3162l-283 336l-279 -336h-409l434 648h512l434 -648h-409z" />
    <glyph glyph-name="ycircumflex" unicode="&#x177;" horiz-adv-x="2150" 
d="M0 -471q46 -9 92.5 -12.5t95.5 -3.5q74 0 138 7t120 25t104 49.5t90 79.5t78 115.5t68 157.5l9 20l-779 2134h611l381 -1241q18 -65 38 -149.5t35 -173.5q19 89 40 173.5t42 149.5l402 1241h569l-754 -2121q-61 -171 -129 -307t-147 -240.5t-171 -178.5t-201 -121
t-238 -69t-281 -22q-28 0 -57.5 2t-58 6t-54 9t-43.5 11v459zM1369 2408l-283 336l-279 -336h-409l434 648h512l434 -648h-409z" />
    <glyph glyph-name="Ydieresis" unicode="&#x178;" horiz-adv-x="2617" 
d="M1020 0v1126l-1004 1840h668l438 -934q28 -60 54 -117t49.5 -111t44 -106t37.5 -101q17 49 37.5 101t44 106t50.5 111t56 117l438 934h668l-1004 -1840v-1126h-577zM639 3236v500h537v-500h-537zM1454 3236v500h537v-500h-537z" />
    <glyph glyph-name="Zacute" unicode="&#x179;" horiz-adv-x="2499" 
d="M156 0v442l1454 2048h-1405v476h2076v-443l-1450 -2048h1512v-475h-2187zM963 3162l385 648h647l-606 -648h-426z" />
    <glyph glyph-name="zacute" unicode="&#x17a;" horiz-adv-x="2105" 
d="M180 0v344l1004 1290h-979v467h1720v-344l-1007 -1290h1048v-467h-1786zM791 2408l385 648h647l-606 -648h-426z" />
    <glyph glyph-name="Zdotaccent" unicode="&#x17b;" horiz-adv-x="2499" 
d="M156 0v442l1454 2048h-1405v476h2076v-443l-1450 -2048h1512v-475h-2187zM958 3236v533h570v-533h-570z" />
    <glyph glyph-name="zdotaccent" unicode="&#x17c;" horiz-adv-x="2105" 
d="M180 0v344l1004 1290h-979v467h1720v-344l-1007 -1290h1048v-467h-1786zM786 2482v533h570v-533h-570z" />
    <glyph glyph-name="Zcaron" unicode="&#x17d;" horiz-adv-x="2499" 
d="M156 0v442l1454 2048h-1405v476h2076v-443l-1450 -2048h1512v-475h-2187zM987 3162l-434 648h409l279 -340l282 340h410l-434 -648h-512z" />
    <glyph glyph-name="zcaron" unicode="&#x17e;" horiz-adv-x="2105" 
d="M180 0v344l1004 1290h-979v467h1720v-344l-1007 -1290h1048v-467h-1786zM815 2408l-434 648h409l279 -340l282 340h410l-434 -648h-512z" />
    <glyph glyph-name="florin" unicode="&#x192;" 
d="M1597 1323l-114 -725q-43 -273 -140 -463.5t-239 -309.5t-324 -172.5t-395 -53.5q-29 0 -61.5 3t-63.5 7.5t-57 11t-43 14.5l69 451q15 -3 33 -6t39.5 -5t46 -3.5t53.5 -1.5q100 0 186 32.5t153.5 101.5t115 177t70.5 258l106 684h-631l74 467h631l74 451
q32 199 114 343.5t207 238.5t290 138.5t363 44.5q41 0 81 -2t77.5 -5.5t73 -8.5t68 -11.5t61 -14t53.5 -15.5l-69 -434q-26 6 -61 12t-76.5 10.5t-88.5 7.5t-98 3q-95 0 -170 -21.5t-129.5 -68t-90 -119.5t-52.5 -176l-62 -373h746l-74 -467h-746z" />
    <glyph glyph-name="Scommaaccent" unicode="&#x218;" horiz-adv-x="2540" 
d="M205 582q72 -36 171 -65.5t213 -50.5t237 -32.5t243 -11.5q163 0 284.5 26.5t202 78t120.5 127t40 173.5q0 55 -13 101.5t-41.5 86t-75.5 73t-114.5 63.5t-158 57t-207.5 54q-138 32 -257.5 74t-218 98t-174.5 126.5t-128.5 159t-79.5 196.5t-27 238t25 245.5t80.5 213
t143.5 175t215 131.5t295.5 83t383.5 29q126 0 247 -11.5t228 -33t197 -53.5t155 -74v-475q-74 35 -170.5 64.5t-205.5 50.5t-224.5 33t-226.5 12q-132 0 -231 -26.5t-165 -76.5t-99 -122.5t-33 -164.5q0 -56 13 -102t42.5 -84.5t76.5 -70t115 -60t159 -54t208 -50.5
q145 -32 267.5 -74.5t220.5 -99t172.5 -127.5t124.5 -159.5t75 -196t25 -236.5q0 -131 -31 -249.5t-95 -219t-163 -181.5t-234 -138t-308 -87.5t-386 -30.5q-147 0 -283.5 12t-254.5 34.5t-213.5 54t-161.5 71.5v476zM946 -983l-184 192l278 297l-82 322h365q55 0 99 -17.5
t74.5 -49t47 -75.5t16.5 -96q0 -78 -38 -151t-101 -135t-144 -115t-167 -94z" />
    <glyph glyph-name="scommaaccent" unicode="&#x219;" horiz-adv-x="1991" 
d="M188 524q36 -16 85.5 -31.5t107 -29t121 -25t128 -20t127.5 -13t120 -4.5q93 0 167 10.5t125 34t78 60t27 88.5q0 54 -23 90.5t-72.5 64t-127.5 50.5t-187 49q-174 41 -298 97.5t-203.5 136t-116.5 186.5t-37 248q0 144 50.5 263.5t158 204.5t275 132t401.5 47
q61 0 125.5 -4.5t128 -13.5t123.5 -21.5t113 -28t96 -34t73 -38.5v-450q-37 17 -85.5 33t-104.5 30.5t-116.5 26t-121.5 20t-120 13t-111 4.5q-68 0 -124.5 -10.5t-97.5 -32.5t-63.5 -57t-22.5 -84q0 -54 23 -89.5t72.5 -61.5t126 -47.5t184.5 -47.5q172 -42 296.5 -98
t205 -135t119 -185.5t38.5 -249.5t-60 -264.5t-178.5 -210t-293.5 -138.5t-406 -50q-106 0 -214.5 10.5t-206 29t-177 43t-127.5 52.5v450zM745 -983l-184 192l278 297l-82 322h365q55 0 99 -17.5t74.5 -49t47 -75.5t16.5 -96q0 -78 -38 -151t-101 -135t-144 -115t-167 -94z
" />
    <glyph glyph-name="uni021A" unicode="&#x21a;" horiz-adv-x="2273" 
d="M848 0v2490h-766v476h2109v-476h-766v-2490h-577zM860 -983l-184 192l278 297l-82 322h365q55 0 99 -17.5t74.5 -49t47 -75.5t16.5 -96q0 -78 -38 -151t-101 -135t-144 -115t-167 -94z" />
    <glyph glyph-name="uni021B" unicode="&#x21b;" horiz-adv-x="1757" 
d="M1659 25q-59 -22 -119 -38t-123 -26.5t-129.5 -16t-136.5 -5.5q-218 0 -360 51.5t-225 149t-115.5 238t-32.5 318.5v938h-328v467h328v652h561v-652h688v-467h-688v-901q0 -80 12.5 -138t47.5 -95.5t96 -55.5t159 -18q48 0 94 2.5t91.5 7t90 11.5t89.5 16v-438zM807 -983
l-184 192l278 297l-82 322h365q55 0 99 -17.5t74.5 -49t47 -75.5t16.5 -96q0 -78 -38 -151t-101 -135t-144 -115t-167 -94z" />
    <glyph glyph-name="dotlessj" unicode="&#x237;" horiz-adv-x="1233" 
d="M-274 -471q31 -6 72 -11t100 -5q100 0 181 31t138 99.5t88 176.5t31 262v2019h561v-2015q0 -273 -67 -470.5t-190.5 -325t-297.5 -188t-387 -60.5q-29 0 -61.5 3t-63.5 7.5t-58.5 11t-45.5 14.5v451z" />
    <glyph glyph-name="circumflex" unicode="&#x2c6;" horiz-adv-x="1868" 
d="M1217 2408l-283 336l-279 -336h-409l434 648h512l434 -648h-409z" />
    <glyph glyph-name="caron" unicode="&#x2c7;" horiz-adv-x="1868" 
d="M676 2408l-434 648h409l279 -340l282 340h410l-434 -648h-512z" />
    <glyph glyph-name="breve" unicode="&#x2d8;" horiz-adv-x="1868" 
d="M1630 3056q-6 -137 -53 -258.5t-134 -212.5t-214.5 -144t-294.5 -53q-168 0 -295.5 53t-214.5 144t-133.5 212.5t-52.5 258.5h352q4 -56 27.5 -109.5t66 -95.5t105 -68t145.5 -26t144.5 26.5t103.5 69t64.5 96t27.5 107.5h356z" />
    <glyph glyph-name="dotaccent" unicode="&#x2d9;" horiz-adv-x="1868" 
d="M647 2482v533h570v-533h-570z" />
    <glyph glyph-name="ring" unicode="&#x2da;" horiz-adv-x="1868" 
d="M1425 2859q0 -100 -37.5 -185.5t-103.5 -148t-156 -98t-194 -35.5q-105 0 -195 35.5t-156 98t-103.5 148t-37.5 185.5t37.5 185.5t103.5 148t156 98t195 35.5q104 0 194 -35.5t156 -98t103.5 -148t37.5 -185.5zM934 2654q45 0 82 16.5t63.5 44.5t41 65t14.5 79
q0 40 -14.5 76.5t-41 64t-63.5 44t-82 16.5t-82.5 -16.5t-64.5 -44t-42.5 -64t-15.5 -76.5q0 -42 15.5 -79t42.5 -65t64.5 -44.5t82.5 -16.5z" />
    <glyph glyph-name="ogonek" unicode="&#x2db;" horiz-adv-x="1868" 
d="M1257 -852q-49 -12 -105.5 -18.5t-115.5 -6.5q-126 0 -225 26.5t-167 77.5t-104 125t-36 169q0 81 33.5 154t88 138t123.5 122t140 106h291q-59 -59 -107 -117.5t-82.5 -114.5t-53.5 -109t-19 -101q0 -77 50.5 -124.5t157.5 -47.5q23 0 41 1.5t33 3.5t28.5 5t28.5 6v-295
z" />
    <glyph glyph-name="tilde" unicode="&#x2dc;" horiz-adv-x="1868" 
d="M1708 3015q0 -140 -37.5 -250t-104 -186.5t-157.5 -117t-197 -40.5q-61 0 -114 14t-100 35.5t-89 46.5t-81.5 46.5t-76.5 35.5t-75 14q-43 0 -76 -12t-55.5 -35t-35 -56.5t-13.5 -76.5h-336q0 140 36.5 250t101.5 186.5t154 117t195 40.5q61 0 115 -14.5t102 -35.5
t91 -46.5t83 -46.5t78 -35.5t76 -14.5q43 0 76.5 11.5t56.5 34.5t35 56.5t12 78.5h336z" />
    <glyph glyph-name="hungarumlaut" unicode="&#x2dd;" horiz-adv-x="1868" 
d="M119 2408l262 648h590l-443 -648h-409zM893 2408l262 648h590l-442 -648h-410z" />
    <glyph glyph-name="commatop" unicode="&#x312;" horiz-adv-x="1868" 
d="M844 2408q-56 0 -100 17.5t-74.5 49t-47 75.5t-16.5 96q0 80 38 153.5t101 138.5t144.5 119.5t167.5 96.5l164 78l184 -193l-283 -307l86 -324h-364z" />
    <glyph glyph-name="caronslovak" unicode="&#x315;" horiz-adv-x="1868" 
d="M618 2212l152 475l-127 418h365q51 0 95 -15t76.5 -43.5t51 -69.5t18.5 -93q0 -60 -22 -125.5t-57.5 -135t-81 -144t-93.5 -152.5l-69 -115h-308z" />
    <glyph glyph-name="commaaccent" unicode="&#x326;" horiz-adv-x="1868" 
d="M684 -983l-184 192l278 297l-82 322h365q55 0 99 -17.5t74.5 -49t47 -75.5t16.5 -96q0 -78 -38 -151t-101 -135t-144 -115t-167 -94z" />
    <glyph glyph-name="tonos" unicode="&#x384;" horiz-adv-x="1868" 
d="M614 3146h639l-196 -774h-246z" />
    <glyph glyph-name="dieresistonos" unicode="&#x385;" horiz-adv-x="1868" 
d="M94 2982h414v-500h-414v500zM623 3146h622l-213 -774h-196zM1360 2982h414v-500h-414v500z" />
    <glyph glyph-name="Alphatonos" unicode="&#x386;" horiz-adv-x="2822" 
d="M2171 0l-213 639h-1127l-208 -639h-590l1069 2966h618l1069 -2966h-618zM1536 1917q-43 133 -78.5 265t-60.5 272q-25 -140 -60.5 -272t-79.5 -265l-270 -811h815zM74 3130h639l-196 -774h-246z" />
    <glyph glyph-name="Epsilontonos" unicode="&#x388;" horiz-adv-x="2920" 
d="M811 0v2966h1872v-476h-1295v-733h1114v-475h-1114v-807h1311v-475h-1888zM-32 3130h639l-196 -774h-246z" />
    <glyph glyph-name="Etatonos" unicode="&#x389;" horiz-adv-x="3506" 
d="M2560 0v1286h-1172v-1286h-577v2966h577v-1205h1172v1205h577v-2966h-577zM-32 3130h639l-196 -774h-246z" />
    <glyph glyph-name="Iotatonos" unicode="&#x38a;" horiz-adv-x="2314" 
d="M811 0v459h340v2048h-340v459h1257v-459h-340v-2048h340v-459h-1257zM-32 3130h639l-196 -774h-246z" />
    <glyph glyph-name="Omicrontonos" unicode="&#x38c;" horiz-adv-x="3441" 
d="M1913 -66q-258 0 -454.5 56t-341 157.5t-241 243t-155 314t-83 369.5t-24.5 409t27 409t88 369t159.5 314t243 243t338 157t443.5 56q258 0 454.5 -56t340.5 -157t241 -243t155 -314t82.5 -369t24.5 -409t-27 -409t-87.5 -369.5t-159.5 -314t-243.5 -243t-337.5 -157.5
t-443 -56zM1913 422q124 0 224 32t177.5 94.5t134 153.5t93 209t54 261.5t17.5 310.5t-17.5 310.5t-54 261t-93 209t-134 153.5t-177.5 94.5t-224 32.5t-224 -32.5t-178 -94.5t-134.5 -153.5t-93 -209t-54 -261t-17.5 -310.5t17.5 -310.5t54 -261.5t93 -209t134.5 -153.5
t178 -94.5t224 -32zM-32 3130h639l-196 -774h-246z" />
    <glyph glyph-name="Upsilontonos" unicode="&#x38e;" horiz-adv-x="3322" 
d="M1725 0v1126l-1004 1840h668l438 -934q28 -60 54 -117t49.5 -111t44 -106t37.5 -101q17 49 37.5 101t44 106t50.5 111t56 117l438 934h668l-1004 -1840v-1126h-577zM-32 3130h639l-196 -774h-246z" />
    <glyph glyph-name="Omegatonos" unicode="&#x38f;" horiz-adv-x="3494" 
d="M2073 0v365q129 84 229 200t168.5 263t104 325t35.5 387q0 146 -16.5 277.5t-51.5 243t-90.5 201t-133.5 152.5t-179.5 96.5t-229.5 33.5t-229.5 -33.5t-179.5 -96.5t-133 -152.5t-90 -201t-51.5 -243t-16.5 -277.5q0 -209 35.5 -387t103.5 -325t168 -263t229 -200v-365
h-1208v475h516q-100 89 -181.5 201.5t-139.5 252.5t-89.5 309t-31.5 372q0 181 32 357t99.5 334t172 291.5t248.5 231t330 152.5t416 55q235 0 423 -53.5t332.5 -149.5t247.5 -228.5t168.5 -290t96.5 -335.5t31 -364q0 -203 -32 -372t-90.5 -309t-141 -252.5t-183.5 -201.5
h520v-475h-1208zM-32 3130h639l-196 -774h-246z" />
    <glyph glyph-name="iotadieresistonos" unicode="&#x390;" horiz-adv-x="1360" 
d="M852 -33q-135 0 -233 37.5t-162 108t-94.5 172.5t-30.5 231v1585h561v-1511q0 -40 8.5 -67.5t27 -44.5t47 -24.5t68.5 -7.5q47 0 92.5 4t92.5 13v-447q-35 -12 -76.5 -21t-89 -15.5t-100.5 -9.5t-111 -3zM-212 2982h414v-500h-414v500zM317 3146h622l-213 -774h-196z
M1054 2982h414v-500h-414v500z" />
    <glyph glyph-name="Alpha" unicode="&#x391;" horiz-adv-x="2822" 
d="M2171 0l-213 639h-1127l-208 -639h-590l1069 2966h618l1069 -2966h-618zM1536 1917q-43 133 -78.5 265t-60.5 272q-25 -140 -60.5 -272t-79.5 -265l-270 -811h815z" />
    <glyph glyph-name="Beta" unicode="&#x392;" horiz-adv-x="2703" 
d="M369 0v2966h1003q247 0 430.5 -52t304.5 -152t180.5 -246t59.5 -333q0 -117 -22.5 -213.5t-65.5 -174.5t-105.5 -139.5t-142.5 -107.5q114 -49 203 -121.5t150.5 -166t93.5 -207.5t32 -246q0 -120 -25.5 -226t-79 -196t-136 -161t-196 -121t-260 -76.5t-327.5 -26.5
h-1097zM1454 459q118 0 202 28t137 79.5t78 125t25 164.5q0 95 -26.5 175t-85.5 137.5t-152.5 89.5t-226.5 32h-455v-831h504zM1303 1724q124 0 210 28t139 80.5t77 128.5t24 173q0 83 -24.5 151t-75.5 116.5t-130 75t-188 26.5h-385v-779h353z" />
    <glyph glyph-name="Gamma" unicode="&#x393;" horiz-adv-x="2175" 
d="M369 2966h1732v-476h-1155v-2490h-577v2966z" />
    <glyph glyph-name="uni0394" unicode="&#x394;" horiz-adv-x="2896" 
d="M115 0v442l1024 2524h618l1024 -2524v-442h-2666zM1577 1958q-18 45 -38 99t-39 114t-37 123.5t-33 126.5q-14 -62 -32 -125t-37.5 -123.5t-40 -115t-38.5 -99.5l-590 -1483h1475z" />
    <glyph glyph-name="Epsilon" unicode="&#x395;" horiz-adv-x="2478" 
d="M369 0v2966h1872v-476h-1295v-733h1114v-475h-1114v-807h1311v-475h-1888z" />
    <glyph glyph-name="Zeta" unicode="&#x396;" horiz-adv-x="2499" 
d="M156 0v442l1454 2048h-1405v476h2076v-443l-1450 -2048h1512v-475h-2187z" />
    <glyph glyph-name="Eta" unicode="&#x397;" horiz-adv-x="3064" 
d="M2118 0v1286h-1172v-1286h-577v2966h577v-1205h1172v1205h577v-2966h-577z" />
    <glyph glyph-name="Theta" unicode="&#x398;" horiz-adv-x="3056" 
d="M1528 -66q-258 0 -454.5 56t-341 157.5t-241 243t-155 314t-83 369.5t-24.5 409t27 409t88 369t159.5 314t243 243t338 157t443.5 56q258 0 454.5 -56t340.5 -157t241 -243t155 -314t82.5 -369t24.5 -409t-27 -409t-87.5 -369.5t-159.5 -314t-243.5 -243t-337.5 -157.5
t-443 -56zM1528 422q124 0 224 32t177.5 94.5t134 153.5t93 209t54 261.5t17.5 310.5t-17.5 310.5t-54 261t-93 209t-134 153.5t-177.5 94.5t-224 32.5t-224 -32.5t-178 -94.5t-134.5 -153.5t-93 -209t-54 -261t-17.5 -310.5t17.5 -310.5t54 -261.5t93 -209t134.5 -153.5
t178 -94.5t224 -32zM1069 1712h918v-475h-918v475z" />
    <glyph glyph-name="Iota" unicode="&#x399;" horiz-adv-x="1749" 
d="M246 0v459h340v2048h-340v459h1257v-459h-340v-2048h340v-459h-1257z" />
    <glyph glyph-name="Kappa" unicode="&#x39a;" horiz-adv-x="2757" 
d="M2023 0l-1077 1348v-1348h-577v2966h577v-1303l1004 1303h708l-938 -1188q-71 -89 -135.5 -157t-122.5 -114q32 -23 65.5 -51.5t68 -63t70.5 -75t75 -88.5l991 -1229h-709z" />
    <glyph glyph-name="Lambda" unicode="&#x39b;" horiz-adv-x="2822" 
d="M1102 2966h618l1069 -2966h-618l-635 1917q-43 133 -78.5 265t-60.5 272q-25 -140 -60.5 -272t-79.5 -265l-634 -1917h-590z" />
    <glyph glyph-name="Mu" unicode="&#x39c;" horiz-adv-x="3740" 
d="M2826 0v1638q0 127 11 301.5t26 317.5q-53 -149 -120.5 -299.5t-141.5 -274.5l-557 -938h-352l-557 938q-37 61 -72 128.5t-68 142t-63 149t-55 146.5q15 -149 25.5 -310t10.5 -301v-1638h-544v2966h606l700 -1205q50 -86 103.5 -198t93.5 -236q37 123 92 236.5
t104 197.5l701 1205h602v-2966h-545z" />
    <glyph glyph-name="Nu" unicode="&#x39d;" horiz-adv-x="3142" 
d="M2187 0l-1073 1712q-53 84 -111.5 201t-117.5 250q7 -66 14 -131t12 -124t8 -109t3 -87v-1712h-553v2966h585l1074 -1713q26 -41 54 -92.5t56.5 -109.5t57.5 -121t57 -127q-8 64 -14 128.5t-10.5 123t-6.5 109.5t-2 89v1713h553v-2966h-586z" />
    <glyph glyph-name="Xi" unicode="&#x39e;" horiz-adv-x="2462" 
d="M205 483h2036v-483h-2036v483zM471 1765h1516v-491h-1516v491zM221 2966h2003v-484h-2003v484z" />
    <glyph glyph-name="Omicron" unicode="&#x39f;" horiz-adv-x="3056" 
d="M1528 -66q-258 0 -454.5 56t-341 157.5t-241 243t-155 314t-83 369.5t-24.5 409t27 409t88 369t159.5 314t243 243t338 157t443.5 56q258 0 454.5 -56t340.5 -157t241 -243t155 -314t82.5 -369t24.5 -409t-27 -409t-87.5 -369.5t-159.5 -314t-243.5 -243t-337.5 -157.5
t-443 -56zM1528 422q124 0 224 32t177.5 94.5t134 153.5t93 209t54 261.5t17.5 310.5t-17.5 310.5t-54 261t-93 209t-134 153.5t-177.5 94.5t-224 32.5t-224 -32.5t-178 -94.5t-134.5 -153.5t-93 -209t-54 -261t-17.5 -310.5t17.5 -310.5t54 -261.5t93 -209t134.5 -153.5
t178 -94.5t224 -32z" />
    <glyph glyph-name="Pi" unicode="&#x3a0;" horiz-adv-x="2908" 
d="M2003 2490h-1057v-2490h-577v2966h2211v-2966h-577v2490z" />
    <glyph glyph-name="Rho" unicode="&#x3a1;" horiz-adv-x="2556" 
d="M369 0v2966h1032q174 0 317.5 -28.5t257.5 -84t198 -137.5t140 -189t83.5 -238.5t27.5 -285.5q0 -155 -28.5 -287.5t-86.5 -241.5t-146 -193t-207 -141t-269 -86.5t-332 -29.5h-414v-1024h-573zM1298 1475q143 0 244.5 37.5t166.5 106.5t95.5 166.5t30.5 217.5
q0 118 -29.5 213.5t-90 162.5t-152 103.5t-215.5 36.5h-406v-1044h356z" />
    <glyph glyph-name="Sigma" unicode="&#x3a3;" horiz-adv-x="2359" 
d="M197 442l897 1053l-881 1028v443h1974v-476h-1274l734 -807v-348l-766 -860h1306v-475h-1990v442z" />
    <glyph glyph-name="Tau" unicode="&#x3a4;" horiz-adv-x="2273" 
d="M848 0v2490h-766v476h2109v-476h-766v-2490h-577z" />
    <glyph glyph-name="Upsilon" unicode="&#x3a5;" horiz-adv-x="2617" 
d="M1020 0v1126l-1004 1840h668l438 -934q28 -60 54 -117t49.5 -111t44 -106t37.5 -101q17 49 37.5 101t44 106t50.5 111t56 117l438 934h668l-1004 -1840v-1126h-577z" />
    <glyph glyph-name="Phi" unicode="&#x3a6;" horiz-adv-x="3342" 
d="M1384 307q-190 8 -355.5 54t-303 124.5t-245 188t-181.5 245t-113 295t-39 338.5t40.5 334.5t117 284.5t186 230.5t247 173t300.5 111.5t346 46v234h574v-234q183 -6 346 -46t300.5 -111.5t247 -173t186 -230.5t117 -284.5t40.5 -334.5t-38.5 -338.5t-112.5 -295
t-181.5 -245t-245 -188t-303.5 -124.5t-356 -54v-307h-574v307zM737 1552q0 -111 19.5 -210.5t57.5 -184.5t94 -154.5t130 -121.5t164.5 -85.5t198.5 -45.5v1548q-99 -10 -187 -39t-161.5 -75t-132 -109.5t-99.5 -143t-62.5 -174.5t-21.5 -205zM2605 1552q0 110 -22 205
t-62.5 174.5t-99.5 143t-132.5 109.5t-161 75t-185.5 39v-1548q106 12 196.5 45.5t164 85.5t130 121.5t95 154.5t58 184t19.5 211z" />
    <glyph glyph-name="Chi" unicode="&#x3a7;" horiz-adv-x="2630" 
d="M1950 0l-553 942q-14 23 -26.5 47t-24 49t-22.5 51t-21 54q-9 -28 -20.5 -54t-24 -51t-25.5 -49t-25 -47l-553 -942h-647l967 1520l-922 1446h672l504 -857q12 -23 24.5 -47.5t23.5 -49.5t22 -51t20 -52q11 26 22.5 52t23.5 51t25 49.5t27 47.5l508 857h647l-921 -1446
l970 -1520h-671z" />
    <glyph glyph-name="Psi" unicode="&#x3a8;" horiz-adv-x="3232" 
d="M1319 852q-205 16 -367.5 70t-287.5 136t-213.5 188t-145 228t-82.5 255.5t-26 269.5v967h581v-885q0 -155 33 -281.5t100.5 -221t169 -154t238.5 -81.5v1623h573v-1627q141 20 246.5 79t175.5 153.5t105 223t35 286.5v885h581v-967q0 -137 -27 -271.5t-85 -257.5
t-149 -229.5t-218 -189t-292 -135.5t-372 -68v-848h-573v852z" />
    <glyph glyph-name="uni03A9" unicode="&#x3a9;" horiz-adv-x="3170" 
d="M1749 0v365q129 84 229 200t168.5 263t104 325t35.5 387q0 146 -16.5 277.5t-51.5 243t-90.5 201t-133.5 152.5t-179.5 96.5t-229.5 33.5t-229.5 -33.5t-179.5 -96.5t-133 -152.5t-90 -201t-51.5 -243t-16.5 -277.5q0 -209 35.5 -387t103.5 -325t168 -263t229 -200v-365
h-1208v475h516q-100 89 -181.5 201.5t-139.5 252.5t-89.5 309t-31.5 372q0 181 32 357t99.5 334t172 291.5t248.5 231t330 152.5t416 55q235 0 423 -53.5t332.5 -149.5t247.5 -228.5t168.5 -290t96.5 -335.5t31 -364q0 -203 -32 -372t-90.5 -309t-141 -252.5t-183.5 -201.5
h520v-475h-1208z" />
    <glyph glyph-name="Iotadieresis" unicode="&#x3aa;" horiz-adv-x="1749" 
d="M246 0v459h340v2048h-340v459h1257v-459h-340v-2048h340v-459h-1257zM198 3236v500h537v-500h-537zM1013 3236v500h537v-500h-537z" />
    <glyph glyph-name="Upsilondieresis" unicode="&#x3ab;" horiz-adv-x="2617" 
d="M1020 0v1126l-1004 1840h668l438 -934q28 -60 54 -117t49.5 -111t44 -106t37.5 -101q17 49 37.5 101t44 106t50.5 111t56 117l438 934h668l-1004 -1840v-1126h-577zM639 3236v500h537v-500h-537zM1454 3236v500h537v-500h-537z" />
    <glyph glyph-name="alphatonos" unicode="&#x3ac;" horiz-adv-x="2556" 
d="M1053 -66q-212 0 -377 75t-278 218.5t-171.5 351.5t-58.5 474q0 265 61.5 472.5t177.5 350t283 217t379 74.5q92 0 176 -20t158 -55t136.5 -82t111.5 -101l41 192h487v-1511q0 -40 7 -67.5t22.5 -44.5t39.5 -24.5t58 -7.5q46 0 84.5 3.5t75.5 9.5v-447
q-35 -12 -74.5 -20.5t-83 -14t-92 -8t-102.5 -2.5q-83 0 -152.5 16.5t-124.5 48.5t-96.5 78.5t-69.5 106.5q-52 -60 -121.5 -111.5t-149.5 -90t-168.5 -60t-178.5 -21.5zM1171 410q71 0 135.5 13t121 37t104.5 58t86 76v913q-38 42 -85 76t-103 58t-120.5 37.5t-138.5 13.5
q-115 0 -196.5 -49t-133.5 -135t-76 -202t-24 -249q0 -134 23.5 -252t75 -205.5t133 -138.5t198.5 -51zM950 3146h639l-196 -774h-246z" />
    <glyph glyph-name="epsilontonos" unicode="&#x3ad;" horiz-adv-x="1970" 
d="M1073 -61q-232 0 -405.5 50t-289 135.5t-173.5 199t-58 241.5q0 98 25 181.5t73.5 152t119.5 120.5t163 87q-72 34 -127 79.5t-92.5 104t-56.5 130t-19 157.5q0 133 52.5 241.5t158.5 185t266 118t375 41.5q72 0 138 -4t127 -11.5t117 -19t108.5 -26t100.5 -32.5t93 -38
v-414q-68 24 -140 43t-150 32t-162 20t-174 7q-89 0 -153.5 -16.5t-106 -44.5t-61 -65t-19.5 -78q0 -53 19 -98t60 -78t105.5 -51.5t155.5 -18.5h360v-402h-409q-69 0 -123.5 -8.5t-96.5 -24t-71.5 -37.5t-48.5 -48.5t-28 -57.5t-9 -65q0 -46 21.5 -88.5t71.5 -74.5
t131.5 -51.5t201.5 -19.5q111 0 202.5 7t173.5 20.5t158 33.5t154 46v-430q-74 -32 -156 -56.5t-175.5 -41t-199.5 -25t-227 -8.5zM733 3146h639l-196 -774h-246z" />
    <glyph glyph-name="etatonos" unicode="&#x3ae;" horiz-adv-x="2568" 
d="M336 2101h487l45 -172q64 58 135 102.5t151.5 74.5t172 45.5t197.5 15.5q133 0 241 -25.5t192 -74t145 -118t101 -157.5t59 -192.5t19 -223.5v-2310h-561v2237q0 97 -24.5 167.5t-73 117t-120.5 69t-167 22.5q-65 0 -124.5 -7.5t-114.5 -22t-104.5 -36t-94.5 -48.5v-1565
h-561v2101zM987 3146h639l-196 -774h-246z" />
    <glyph glyph-name="iotatonos" unicode="&#x3af;" horiz-adv-x="1360" 
d="M852 -33q-135 0 -233 37.5t-162 108t-94.5 172.5t-30.5 231v1585h561v-1511q0 -40 8.5 -67.5t27 -44.5t47 -24.5t68.5 -7.5q47 0 92.5 4t92.5 13v-447q-35 -12 -76.5 -21t-89 -15.5t-100.5 -9.5t-111 -3zM308 3146h639l-196 -774h-246z" />
    <glyph glyph-name="upsilondieresistonos" unicode="&#x3b0;" horiz-adv-x="2384" 
d="M1221 -66q-185 0 -328.5 33.5t-250 97.5t-179.5 156.5t-117.5 210.5t-64 259.5t-19.5 303.5v1106h561v-1085q0 -91 6 -173t22 -151.5t43.5 -125.5t72 -95.5t107 -60.5t147.5 -21q127 0 205 49.5t121 148.5t57 248t14 349q0 112 -9.5 233t-25.5 241t-37.5 233t-46.5 210
h545q29 -98 55 -208.5t45.5 -227.5t31 -238.5t11.5 -242.5q0 -205 -20 -377t-65.5 -311t-119.5 -244t-181.5 -176t-251 -106.5t-328.5 -35.5zM364 2982h414v-500h-414v500zM893 3146h622l-213 -774h-196zM1630 2982h414v-500h-414v500z" />
    <glyph glyph-name="alpha" unicode="&#x3b1;" horiz-adv-x="2556" 
d="M1053 -66q-212 0 -377 75t-278 218.5t-171.5 351.5t-58.5 474q0 265 61.5 472.5t177.5 350t283 217t379 74.5q92 0 176 -20t158 -55t136.5 -82t111.5 -101l41 192h487v-1511q0 -40 7 -67.5t22.5 -44.5t39.5 -24.5t58 -7.5q46 0 84.5 3.5t75.5 9.5v-447
q-35 -12 -74.5 -20.5t-83 -14t-92 -8t-102.5 -2.5q-83 0 -152.5 16.5t-124.5 48.5t-96.5 78.5t-69.5 106.5q-52 -60 -121.5 -111.5t-149.5 -90t-168.5 -60t-178.5 -21.5zM1171 410q71 0 135.5 13t121 37t104.5 58t86 76v913q-38 42 -85 76t-103 58t-120.5 37.5t-138.5 13.5
q-115 0 -196.5 -49t-133.5 -135t-76 -202t-24 -249q0 -134 23.5 -252t75 -205.5t133 -138.5t198.5 -51z" />
    <glyph glyph-name="beta" unicode="&#x3b2;" horiz-adv-x="2552" 
d="M336 2208q0 160 35.5 292t100 237t156 183.5t203.5 130.5t241.5 77.5t270.5 25.5q240 0 414.5 -61t288 -165t168.5 -242.5t55 -293.5q0 -101 -29 -201t-90 -190.5t-155.5 -166.5t-225.5 -130q149 -46 267 -121t199.5 -179.5t125 -237t43.5 -294.5q0 -140 -30 -264
t-87 -228.5t-140 -187t-189 -140t-234 -88t-274 -30.5q-91 0 -171 11t-149 30t-127 44.5t-106 54.5v-1008h-561v3142zM897 504q54 -25 110 -42.5t114 -29t117.5 -17t121.5 -5.5q123 0 212 30.5t146.5 89t85 143t27.5 191.5q0 71 -12 138.5t-41.5 129t-79 116.5t-124.5 101.5
t-178.5 82t-240.5 59.5v381q109 20 192 51.5t144 70t101 82.5t64 90.5t34 93.5t10 91q0 60 -19 122t-62 112t-112.5 82t-171.5 32q-109 0 -191 -31t-137 -97t-82.5 -169t-27.5 -248v-1650z" />
    <glyph glyph-name="gamma" unicode="&#x3b3;" horiz-adv-x="2204" 
d="M852 -57l-598 1634q-8 20 -20 34.5t-28.5 24.5t-36 14.5t-42.5 4.5q-31 0 -59.5 -3t-59.5 -10v443q31 12 65 21.5t72 15.5t81.5 9t92.5 3q97 0 171 -23.5t129 -68t93 -107.5t62 -141l287 -938q18 -65 38 -149.5t36 -174.5q18 90 39 174.5t43 149.5l401 1245h569
l-774 -2162v-873h-561v877z" />
    <glyph glyph-name="delta" unicode="&#x3b4;" horiz-adv-x="2433" 
d="M1217 -66q-195 0 -348.5 40.5t-270 113.5t-198.5 175t-133.5 225.5t-75 264t-23.5 291.5q0 179 31.5 325t88 260.5t135 198t173 138t201 81t219.5 26.5q65 0 126 -7t120 -22q-47 46 -93 89.5t-96 86.5l-667 553v332h1605v-467h-766l352 -271q106 -82 196.5 -172
t164.5 -188.5t131.5 -207t96.5 -227.5t59 -248.5t20 -270.5q0 -163 -26.5 -309.5t-82 -270.5t-140.5 -224t-201.5 -170t-265.5 -107.5t-332 -37.5zM1217 389q88 0 157 24t121.5 67t89 104t59.5 134.5t33.5 158.5t10.5 176t-11 173.5t-34.5 153t-61 127.5t-89.5 97t-120.5 62
t-154.5 22q-129 0 -219 -48.5t-146.5 -134.5t-81.5 -203t-25 -253q0 -137 24 -257t79.5 -209.5t146 -141.5t222.5 -52z" />
    <glyph glyph-name="epsilon" unicode="&#x3b5;" horiz-adv-x="1970" 
d="M1073 -61q-232 0 -405.5 50t-289 135.5t-173.5 199t-58 241.5q0 98 25 181.5t73.5 152t119.5 120.5t163 87q-72 34 -127 79.5t-92.5 104t-56.5 130t-19 157.5q0 133 52.5 241.5t158.5 185t266 118t375 41.5q72 0 138 -4t127 -11.5t117 -19t108.5 -26t100.5 -32.5t93 -38
v-414q-68 24 -140 43t-150 32t-162 20t-174 7q-89 0 -153.5 -16.5t-106 -44.5t-61 -65t-19.5 -78q0 -53 19 -98t60 -78t105.5 -51.5t155.5 -18.5h360v-402h-409q-69 0 -123.5 -8.5t-96.5 -24t-71.5 -37.5t-48.5 -48.5t-28 -57.5t-9 -65q0 -46 21.5 -88.5t71.5 -74.5
t131.5 -51.5t201.5 -19.5q111 0 202.5 7t173.5 20.5t158 33.5t154 46v-430q-74 -32 -156 -56.5t-175.5 -41t-199.5 -25t-227 -8.5z" />
    <glyph glyph-name="zeta" unicode="&#x3b6;" horiz-adv-x="1966" 
d="M1192 -635q34 72 65.5 154t57 165.5t43.5 164t26 151.5h-139q-189 0 -340.5 32t-268 91t-199.5 144.5t-136.5 192.5t-78.5 233.5t-25 269.5q0 168 31.5 330.5t89.5 316.5t141 298t186 274t224.5 245t256.5 211h-864v467h1737v-332q-114 -60 -227 -141t-220.5 -178.5
t-206.5 -209t-185.5 -232.5t-157.5 -248.5t-121.5 -257t-78.5 -258.5t-28 -253q0 -84 13.5 -156.5t41 -132.5t69.5 -107t100.5 -79t133 -48.5t166.5 -16.5h234q89 0 160 -18.5t121 -57t77 -96.5t27 -136q0 -67 -9 -137.5t-25.5 -140.5t-38.5 -139t-48.5 -133t-56 -123
t-60.5 -109h-487v0z" />
    <glyph glyph-name="eta" unicode="&#x3b7;" horiz-adv-x="2568" 
d="M336 2101h487l45 -172q64 58 135 102.5t151.5 74.5t172 45.5t197.5 15.5q133 0 241 -25.5t192 -74t145 -118t101 -157.5t59 -192.5t19 -223.5v-2310h-561v2237q0 97 -24.5 167.5t-73 117t-120.5 69t-167 22.5q-65 0 -124.5 -7.5t-114.5 -22t-104.5 -36t-94.5 -48.5v-1565
h-561v2101z" />
    <glyph glyph-name="theta" unicode="&#x3b8;" horiz-adv-x="2458" 
d="M1229 -74q-188 0 -339.5 56.5t-268 160t-200 249t-137 324.5t-79 386.5t-25.5 433.5q0 228 27 436.5t82.5 388.5t140.5 326.5t201.5 250t265.5 160t332 56.5q188 0 339 -56.5t267.5 -160t200 -250t137 -326.5t79 -388.5t25.5 -436.5q0 -226 -26.5 -433.5t-82 -386.5
t-140.5 -324.5t-201.5 -249t-265.5 -160t-332 -56.5zM1229 393q118 0 204 68.5t144.5 192.5t91 297.5t43.5 383.5h-967q9 -210 41.5 -383.5t91.5 -297.5t145.5 -192.5t205.5 -68.5zM1229 2695q-114 0 -198.5 -65t-143 -183t-92 -282.5t-45.5 -362.5h958q-12 198 -46 362.5
t-92.5 282.5t-142.5 183t-198 65z" />
    <glyph glyph-name="iota" unicode="&#x3b9;" horiz-adv-x="1360" 
d="M852 -33q-135 0 -233 37.5t-162 108t-94.5 172.5t-30.5 231v1585h561v-1511q0 -40 8.5 -67.5t27 -44.5t47 -24.5t68.5 -7.5q47 0 92.5 4t92.5 13v-447q-35 -12 -76.5 -21t-89 -15.5t-100.5 -9.5t-111 -3z" />
    <glyph glyph-name="kappa" unicode="&#x3ba;" horiz-adv-x="2363" 
d="M336 2101h561v-848l733 848h668l-676 -782q-26 -29 -53.5 -56t-56.5 -52t-58.5 -48t-60.5 -45q32 -23 63 -49.5t60.5 -56t59 -61.5t58.5 -66l709 -885h-696l-750 950v-950h-561v2101z" />
    <glyph glyph-name="lambda" unicode="&#x3bb;" horiz-adv-x="2294" 
d="M819 2167l-53 147q-23 62 -45.5 114t-48.5 93t-55.5 71.5t-66 50.5t-81.5 30t-100 10q-25 0 -49 -1t-47 -3t-46.5 -5t-46.5 -8v455q18 6 45.5 12t59.5 10.5t66.5 7.5t66.5 3q112 0 208 -12t179 -41.5t153.5 -79t133 -123.5t117.5 -176t106 -236l749 -1962q8 -20 20 -34.5
t28.5 -24.5t36 -14.5t42.5 -4.5q31 0 59.5 3.5t59.5 9.5v-443q-31 -12 -65 -21t-72 -15.5t-81.5 -9.5t-92.5 -3q-97 0 -172 23.5t-132 68t-97 107.5t-66 141l-303 881q-15 43 -31 97.5t-31.5 116t-30 127.5t-26.5 134q-12 -68 -25.5 -134t-27 -127.5t-28.5 -116t-30 -97.5
l-413 -1188h-570z" />
    <glyph glyph-name="uni03BC" unicode="&#x3bc;" horiz-adv-x="2621" 
d="M1094 -49q-124 0 -234 37q22 -92 29.5 -200.5t7.5 -250.5v-471h-561v3035h561v-1294q0 -194 97 -283.5t288 -89.5q115 0 215 23t186 75v1569h562v-1511q0 -80 29.5 -112t97.5 -32q46 0 84 3.5t75 9.5v-447q-71 -24 -157.5 -34.5t-194.5 -10.5q-164 0 -271 59.5
t-163 174.5q-65 -60 -135.5 -106.5t-150.5 -78.5t-170.5 -48.5t-194.5 -16.5z" />
    <glyph glyph-name="nu" unicode="&#x3bd;" horiz-adv-x="2150" 
d="M778 0l-762 2101h611l381 -1245q18 -65 38 -147.5t35 -171.5q19 89 40 171.5t42 147.5l402 1245h569l-750 -2101h-606z" />
    <glyph glyph-name="xi" unicode="&#x3be;" horiz-adv-x="1884" 
d="M1184 -635q34 72 65.5 154t57 165.5t43.5 164t26 151.5h-139q-189 0 -343 36t-274 101t-207.5 156.5t-144.5 202t-84.5 237t-27.5 262.5q0 140 38.5 262.5t108 224t166 179.5t211.5 129q-92 42 -167 103.5t-128 142.5t-82 179.5t-29 213.5q0 164 52.5 298t158.5 229
t266 146.5t375 51.5q108 0 203 -9t179.5 -26t159 -41t142.5 -55v-414q-68 25 -140 44t-150 32t-162 20t-174 7q-89 0 -153.5 -27t-106 -73.5t-61 -109.5t-19.5 -135q0 -83 25 -149.5t76 -113.5t128.5 -72t183.5 -25h410v-451h-401q-125 0 -224 -37t-169 -106.5t-107 -169
t-37 -223.5q0 -82 16 -155.5t47.5 -136.5t79 -113.5t109.5 -86t139.5 -54.5t169.5 -19h234q89 0 160 -18.5t121 -57t77 -96.5t27 -136q0 -101 -20 -207.5t-53 -209t-76 -196.5t-89 -169h-487z" />
    <glyph glyph-name="omicron" unicode="&#x3bf;" horiz-adv-x="2433" 
d="M1217 -66q-188 0 -339.5 37.5t-268 107.5t-200 169.5t-137 223.5t-79 269.5t-25.5 307.5q0 163 26.5 309t82 270t140.5 224t201.5 170t265.5 107.5t333 37.5q188 0 339 -37.5t267.5 -107.5t200 -169.5t137 -223t79 -269t25.5 -307.5q0 -163 -26.5 -309.5t-82 -270.5
t-140.5 -224t-201.5 -170t-265.5 -107.5t-332 -37.5zM1217 389q132 0 222 52.5t145.5 142.5t79.5 211t24 258q0 136 -24 256.5t-79.5 209.5t-145.5 141t-222 52t-222.5 -52.5t-146 -142.5t-79.5 -211t-24 -257q0 -137 24 -257t79.5 -209.5t146 -141.5t222.5 -52z" />
    <glyph glyph-name="pi" unicode="&#x3c0;" horiz-adv-x="2732" 
d="M2515 25q-35 -12 -76.5 -21.5t-89 -16t-100.5 -9.5t-111 -3q-135 0 -233 37.5t-162 108t-94.5 172.5t-30.5 231v1110h-602v-1634h-561v1634h-340v467h2470v-467h-406v-1036q0 -40 8.5 -67t27 -44t47.5 -24.5t69 -7.5q23 0 46 1t46 2.5t46 4.5t46 8v-446z" />
    <glyph glyph-name="rho" unicode="&#x3c1;" horiz-adv-x="2458" 
d="M246 1073q0 159 23.5 301.5t74 264t129.5 219.5t190.5 166.5t257 105.5t328.5 37q188 0 338.5 -37.5t266.5 -107.5t198.5 -169.5t135.5 -223t77.5 -269t24.5 -307.5q0 -260 -66 -467.5t-191 -352t-305 -222t-409 -77.5q-78 0 -148.5 9.5t-134 28t-120.5 46t-109 64.5
v-1016h-561v2007zM1233 410q126 0 216.5 50.5t149 137.5t86 204t27.5 251q0 136 -22.5 256.5t-76.5 209.5t-143 141t-221 52q-88 0 -155 -24t-116 -67t-82 -104t-52.5 -134.5t-28 -158t-8.5 -175.5v-537q43 -26 91 -45.5t101 -32t111 -18.5t123 -6z" />
    <glyph glyph-name="sigma1" unicode="&#x3c2;" horiz-adv-x="1913" 
d="M1130 -635q34 72 65.5 154t57.5 165.5t44 164t26 151.5h-106q-189 0 -340.5 38t-268 106.5t-200 164t-137 211.5t-78.5 249t-25 275q0 179 27.5 331.5t82.5 277t137 220t190.5 160t244 97.5t297.5 33q80 0 169 -8t173.5 -22.5t157 -35t118.5 -45.5v-459q-55 20 -115 35.5
t-126 26t-138.5 15.5t-152.5 5q-126 0 -218.5 -46t-153.5 -127.5t-90.5 -194.5t-29.5 -246q0 -126 31 -236.5t95.5 -192.5t164.5 -129.5t238 -47.5h200q89 0 160.5 -18.5t121.5 -57t76.5 -96.5t26.5 -136q0 -101 -19.5 -207.5t-52.5 -209t-76 -196.5t-89 -169h-488v0z" />
    <glyph glyph-name="sigma" unicode="&#x3c3;" horiz-adv-x="2486" 
d="M1200 -66q-188 0 -338 35t-264.5 101.5t-196 162t-133.5 215.5t-76 263t-24 305q0 160 26.5 302.5t82 263t140.5 216.5t201.5 163.5t265.5 103.5t333 36h1261v-467h-487q52 -60 96 -129.5t76.5 -147.5t50.5 -164.5t18 -180.5q0 -150 -25.5 -288.5t-79 -258.5t-136.5 -218
t-197.5 -167.5t-262.5 -107.5t-331 -38zM1655 1053q0 92 -13 175t-37.5 156.5t-60.5 136t-82 113.5h-205q-132 0 -228.5 -45.5t-159.5 -127t-93.5 -195.5t-30.5 -250q0 -131 21.5 -245t74 -199t140 -134t219.5 -49q88 0 156 24t118.5 67t85 104t55.5 134.5t30.5 158.5
t9.5 176z" />
    <glyph glyph-name="tau" unicode="&#x3c4;" horiz-adv-x="1855" 
d="M33 2101h1790v-467h-680v-1044q0 -40 8.5 -67.5t27 -44.5t47 -24.5t68.5 -7.5q47 0 92.5 4t92.5 13v-447q-36 -12 -77.5 -21t-88.5 -15.5t-100 -9.5t-111 -3q-135 0 -233.5 37.5t-162 108t-94 172.5t-30.5 231v1118h-549v467z" />
    <glyph glyph-name="upsilon" unicode="&#x3c5;" horiz-adv-x="2384" 
d="M1221 -66q-185 0 -328.5 33.5t-250 97.5t-179.5 156.5t-117.5 210.5t-64 259.5t-19.5 303.5v1106h561v-1085q0 -91 6 -173t22 -151.5t43.5 -125.5t72 -95.5t107 -60.5t147.5 -21q127 0 205 49.5t121 148.5t57 248t14 349q0 112 -9.5 233t-25.5 241t-37.5 233t-46.5 210
h545q29 -98 55 -208.5t45.5 -227.5t31 -238.5t11.5 -242.5q0 -205 -20 -377t-65.5 -311t-119.5 -244t-181.5 -176t-251 -106.5t-328.5 -35.5z" />
    <glyph glyph-name="phi" unicode="&#x3c6;" horiz-adv-x="3043" 
d="M1241 -41q-269 12 -473.5 92t-342.5 219.5t-208 336t-70 442.5t72.5 442t212 336t343 220.5t466.5 94.5v963h561v-963q264 -11 468 -90t343 -219.5t211 -338.5t72 -445q0 -248 -69.5 -445t-207 -336.5t-342.5 -218.5t-475 -90v-893h-561v893zM717 1049q0 -149 39 -266
t112 -199.5t175.5 -130t230.5 -56.5v1303q-128 -9 -230.5 -57t-175.5 -130.5t-112 -199.5t-39 -264zM2327 1049q0 150 -38.5 268.5t-111 201.5t-176 130t-232.5 55v-1307q129 8 232.5 54.5t176 129t111 200t38.5 268.5z" />
    <glyph glyph-name="chi" unicode="&#x3c7;" horiz-adv-x="2146" 
d="M1892 -967q-84 0 -149 20t-115.5 55.5t-88.5 85.5t-69 110l-262 516q-18 35 -36 74t-34.5 80t-30 83.5t-22.5 85.5q-9 -43 -22.5 -85.5t-29.5 -83.5t-34 -80t-36 -74l-390 -754h-573l799 1507l-508 971q-15 29 -31.5 50t-35 34.5t-39.5 20t-46 6.5q-15 0 -30.5 -1
t-31 -2.5t-31 -4t-30.5 -5.5v443q31 12 65 21.5t72.5 15.5t82 9t92.5 3q84 0 149 -19t115.5 -54.5t88.5 -85.5t69 -111l241 -480q17 -35 34 -74t33 -80t29.5 -83.5t22.5 -85.5q11 43 25 85.5t30.5 83.5t35 80t36.5 74l373 717h573l-782 -1474l528 -1004q15 -29 31.5 -50
t35 -34.5t39.5 -19.5t46 -6q15 0 30.5 0.5t31 2t31 4t30.5 5.5v-443q-31 -12 -65 -21t-72.5 -15.5t-82 -9.5t-92.5 -3z" />
    <glyph glyph-name="psi" unicode="&#x3c8;" horiz-adv-x="2978" 
d="M1225 -45q-172 23 -310 74t-245 125.5t-184.5 171t-127 210.5t-73 244t-23.5 273v1048h561v-1028q0 -120 23.5 -227t74 -193t130.5 -148t194 -91v2105h520v-2113v0q124 21 209.5 83t138.5 161t76 233.5t23 300.5q0 112 -11 233t-33 241t-55 233t-77 210h532
q49 -98 88.5 -208.5t67 -227.5t42.5 -238.5t15 -242.5q0 -184 -25.5 -342t-78 -288.5t-133 -233.5t-191 -178.5t-252 -123.5t-315.5 -67v0v-885h-561v889z" />
    <glyph glyph-name="omega" unicode="&#x3c9;" horiz-adv-x="3363" 
d="M1040 -66q-163 0 -288.5 36.5t-219.5 104.5t-158 165t-103.5 218t-56.5 262.5t-17 299.5q0 140 16.5 262t44 227.5t64 194t76.5 162t81 132t78 103.5h553q-69 -104 -129.5 -217.5t-105.5 -241t-71 -271.5t-26 -310q0 -160 13 -285t46.5 -211t92.5 -131t151 -45
q109 0 175 46.5t102 130t47.5 198.5t11.5 252v438h529v-438q0 -137 11.5 -252t47 -198.5t101.5 -130t175 -46.5q92 0 151 45t93 131t47 211t13 285q0 166 -25.5 310t-70 271.5t-105.5 241t-131 217.5h553q35 -45 75 -103.5t80 -132t77 -162t65.5 -194t45.5 -227.5t17 -262
q0 -158 -17 -299.5t-56.5 -262.5t-104 -218t-158 -165t-219.5 -104.5t-289 -36.5q-118 0 -216.5 24t-178.5 66t-141.5 99t-106.5 123q-43 -66 -103.5 -123t-140 -99t-178.5 -66t-217 -24z" />
    <glyph glyph-name="iotadieresis" unicode="&#x3ca;" horiz-adv-x="1360" 
d="M852 -33q-135 0 -233 37.5t-162 108t-94.5 172.5t-30.5 231v1585h561v-1511q0 -40 8.5 -67.5t27 -44.5t47 -24.5t68.5 -7.5q47 0 92.5 4t92.5 13v-447q-35 -12 -76.5 -21t-89 -15.5t-100.5 -9.5t-111 -3zM-48 2482v500h537v-500h-537zM767 2482v500h537v-500h-537z" />
    <glyph glyph-name="upsilondieresis" unicode="&#x3cb;" horiz-adv-x="2384" 
d="M1221 -66q-185 0 -328.5 33.5t-250 97.5t-179.5 156.5t-117.5 210.5t-64 259.5t-19.5 303.5v1106h561v-1085q0 -91 6 -173t22 -151.5t43.5 -125.5t72 -95.5t107 -60.5t147.5 -21q127 0 205 49.5t121 148.5t57 248t14 349q0 112 -9.5 233t-25.5 241t-37.5 233t-46.5 210
h545q29 -98 55 -208.5t45.5 -227.5t31 -238.5t11.5 -242.5q0 -205 -20 -377t-65.5 -311t-119.5 -244t-181.5 -176t-251 -106.5t-328.5 -35.5zM528 2482v500h537v-500h-537zM1343 2482v500h537v-500h-537z" />
    <glyph glyph-name="omicrontonos" unicode="&#x3cc;" horiz-adv-x="2433" 
d="M1217 -66q-188 0 -339.5 37.5t-268 107.5t-200 169.5t-137 223.5t-79 269.5t-25.5 307.5q0 163 26.5 309t82 270t140.5 224t201.5 170t265.5 107.5t333 37.5q188 0 339 -37.5t267.5 -107.5t200 -169.5t137 -223t79 -269t25.5 -307.5q0 -163 -26.5 -309.5t-82 -270.5
t-140.5 -224t-201.5 -170t-265.5 -107.5t-332 -37.5zM1217 389q132 0 222 52.5t145.5 142.5t79.5 211t24 258q0 136 -24 256.5t-79.5 209.5t-145.5 141t-222 52t-222.5 -52.5t-146 -142.5t-79.5 -211t-24 -257q0 -137 24 -257t79.5 -209.5t146 -141.5t222.5 -52zM897 3146
h639l-196 -774h-246z" />
    <glyph glyph-name="upsilontonos" unicode="&#x3cd;" horiz-adv-x="2384" 
d="M1221 -66q-185 0 -328.5 33.5t-250 97.5t-179.5 156.5t-117.5 210.5t-64 259.5t-19.5 303.5v1106h561v-1085q0 -91 6 -173t22 -151.5t43.5 -125.5t72 -95.5t107 -60.5t147.5 -21q127 0 205 49.5t121 148.5t57 248t14 349q0 112 -9.5 233t-25.5 241t-37.5 233t-46.5 210
h545q29 -98 55 -208.5t45.5 -227.5t31 -238.5t11.5 -242.5q0 -205 -20 -377t-65.5 -311t-119.5 -244t-181.5 -176t-251 -106.5t-328.5 -35.5zM884 3146h639l-196 -774h-246z" />
    <glyph glyph-name="omegatonos" unicode="&#x3ce;" horiz-adv-x="3363" 
d="M1040 -66q-163 0 -288.5 36.5t-219.5 104.5t-158 165t-103.5 218t-56.5 262.5t-17 299.5q0 140 16.5 262t44 227.5t64 194t76.5 162t81 132t78 103.5h553q-69 -104 -129.5 -217.5t-105.5 -241t-71 -271.5t-26 -310q0 -160 13 -285t46.5 -211t92.5 -131t151 -45
q109 0 175 46.5t102 130t47.5 198.5t11.5 252v438h529v-438q0 -137 11.5 -252t47 -198.5t101.5 -130t175 -46.5q92 0 151 45t93 131t47 211t13 285q0 166 -25.5 310t-70 271.5t-105.5 241t-131 217.5h553q35 -45 75 -103.5t80 -132t77 -162t65.5 -194t45.5 -227.5t17 -262
q0 -158 -17 -299.5t-56.5 -262.5t-104 -218t-158 -165t-219.5 -104.5t-289 -36.5q-118 0 -216.5 24t-178.5 66t-141.5 99t-106.5 123q-43 -66 -103.5 -123t-140 -99t-178.5 -66t-217 -24zM1359 3146h639l-196 -774h-246z" />
    <glyph glyph-name="uni0400" unicode="&#x400;" horiz-adv-x="2478" 
d="M369 0v2966h1872v-476h-1295v-733h1114v-475h-1114v-807h1311v-475h-1888zM1167 3162l-606 648h647l385 -648h-426z" />
    <glyph glyph-name="uni0401" unicode="&#x401;" horiz-adv-x="2478" 
d="M369 0v2966h1872v-476h-1295v-733h1114v-475h-1114v-807h1311v-475h-1888zM635 3236v500h537v-500h-537zM1450 3236v500h537v-500h-537z" />
    <glyph glyph-name="uni0402" unicode="&#x402;" horiz-adv-x="3060" 
d="M82 2966h1864v-476h-643v-671h520q166 0 306 -24.5t254 -74.5t200.5 -124.5t145 -174.5t88.5 -226t30 -277q0 -144 -29.5 -268.5t-87.5 -226.5t-144.5 -181t-199.5 -132.5t-253 -81.5t-306 -28h-144v451h86q81 0 148.5 14t122 41.5t95 67.5t68 92t41 115t13.5 137
q0 73 -15 134.5t-43.5 112t-70 89t-96 65t-120.5 40t-143 13.5h-466v-1372h-578v2490h-643v476z" />
    <glyph glyph-name="uni0403" unicode="&#x403;" horiz-adv-x="2175" 
d="M369 2966h1732v-476h-1155v-2490h-577v2966zM950 3162l385 648h647l-606 -648h-426z" />
    <glyph glyph-name="uni0404" unicode="&#x404;" horiz-adv-x="2544" 
d="M1479 -66q-214 0 -391 48.5t-317.5 141.5t-245.5 228t-174 308.5t-103.5 383t-34.5 451.5q0 226 35.5 428t107.5 372.5t180 307t252.5 231.5t326.5 146t401 51q135 0 256 -12.5t227.5 -36t197.5 -57t166 -74.5v-479q-75 37 -163.5 66.5t-190 50t-217 31.5t-244.5 11
q-163 0 -292.5 -54.5t-222.5 -157.5t-147.5 -251t-66.5 -335h1176v-476h-1180q8 -146 36 -264.5t74 -210t110 -158t145 -110t178.5 -64t210.5 -20.5q135 0 246.5 9.5t209.5 28t188.5 47t182.5 67.5v-480q-91 -40 -184 -71t-201 -52.5t-238 -33t-294 -11.5z" />
    <glyph glyph-name="uni0405" unicode="&#x405;" horiz-adv-x="2540" 
d="M205 582q72 -36 171 -65.5t213 -50.5t237 -32.5t243 -11.5q163 0 284.5 26.5t202 78t120.5 127t40 173.5q0 55 -13 101.5t-41.5 86t-75.5 73t-114.5 63.5t-158 57t-207.5 54q-138 32 -257.5 74t-218 98t-174.5 126.5t-128.5 159t-79.5 196.5t-27 238t25 245.5t80.5 213
t143.5 175t215 131.5t295.5 83t383.5 29q126 0 247 -11.5t228 -33t197 -53.5t155 -74v-475q-74 35 -170.5 64.5t-205.5 50.5t-224.5 33t-226.5 12q-132 0 -231 -26.5t-165 -76.5t-99 -122.5t-33 -164.5q0 -56 13 -102t42.5 -84.5t76.5 -70t115 -60t159 -54t208 -50.5
q145 -32 267.5 -74.5t220.5 -99t172.5 -127.5t124.5 -159.5t75 -196t25 -236.5q0 -131 -31 -249.5t-95 -219t-163 -181.5t-234 -138t-308 -87.5t-386 -30.5q-147 0 -283.5 12t-254.5 34.5t-213.5 54t-161.5 71.5v476z" />
    <glyph glyph-name="uni0406" unicode="&#x406;" horiz-adv-x="1749" 
d="M246 0v459h340v2048h-340v459h1257v-459h-340v-2048h340v-459h-1257z" />
    <glyph glyph-name="uni0407" unicode="&#x407;" horiz-adv-x="1749" 
d="M246 0v459h340v2048h-340v459h1257v-459h-340v-2048h340v-459h-1257zM198 3236v500h537v-500h-537zM1013 3236v500h537v-500h-537z" />
    <glyph glyph-name="uni0408" unicode="&#x408;" horiz-adv-x="1516" 
d="M-74 -135q22 -5 45 -8t48.5 -5t53 -3t58.5 -1q121 0 205 41t135.5 119t74.5 191.5t23 259.5v2048h-422v459h1000v-2573q0 -261 -67.5 -455t-194.5 -322t-310 -191.5t-415 -63.5q-37 0 -70.5 1.5t-63 5t-55 9t-45.5 13.5v475z" />
    <glyph glyph-name="uni0409" unicode="&#x409;" horiz-adv-x="4293" 
d="M2040 2490h-828v-42q-3 -234 -8 -452t-17.5 -446.5t-36.5 -439t-64 -386t-109.5 -334t-169 -255t-209.5 -132.5t-233 -36q-51 0 -98.5 3t-88.5 8.5t-76 13t-61 16.5v459q40 -9 81 -15t91 -6q63 0 117.5 20t103.5 75t92.5 176t73.5 331t44 421t23 485t11 483.5t2 487.5v41
h1937v-1229h521q166 0 306 -23.5t254 -71t200.5 -119t145 -167t88.5 -215.5t30 -264t-31 -265.5t-91.5 -219t-151 -171t-209.5 -122.5t-266 -74t-321 -25h-1052v2490zM2617 1290v-839h418q132 0 232.5 27.5t168 81t102 133t34.5 184.5q0 103 -33 180t-96 129t-153.5 78
t-205.5 26h-467z" />
    <glyph glyph-name="uni040A" unicode="&#x40a;" horiz-adv-x="4370" 
d="M369 2966h577v-1205h1172v1205h577v-1229h520q166 0 306.5 -23.5t254 -71t200.5 -119t145.5 -167t88 -215.5t29.5 -264t-31 -265.5t-91.5 -219t-150.5 -171t-209 -122.5t-266 -74t-321 -25h-1052v1286h-1172v-1286h-577v2966zM2695 1290v-839h418q132 0 232.5 27.5
t168 81t102 133t34.5 184.5q0 103 -33 180t-96 129t-153.5 78t-205.5 26h-467z" />
    <glyph glyph-name="uni040B" unicode="&#x40b;" horiz-adv-x="3265" 
d="M82 2966h1905v-476h-644v-671q60 12 125.5 23t135.5 19.5t144.5 13.5t152.5 5q182 0 329.5 -29.5t263 -87t199 -143.5t138 -198.5t80.5 -251t26 -302.5v-868h-578v844q0 132 -32 237.5t-99.5 179t-171 113t-246.5 39.5q-66 0 -127.5 -2.5t-119.5 -7t-113 -11.5t-107 -16
v-1376h-577v2490h-684v476z" />
    <glyph glyph-name="uni040C" unicode="&#x40c;" horiz-adv-x="2781" 
d="M369 2966h573v-1254h164q47 0 83 3.5t64.5 12t51.5 24t45 39.5t45 58t51 80l631 1037h676l-705 -1156q-32 -51 -73 -101t-89 -93.5t-102.5 -76.5t-112.5 -48q58 -14 112.5 -46t102.5 -75t89 -93t73 -101l717 -1176h-676l-643 1057q-28 46 -51 80t-45 58t-45 39.5
t-51.5 24t-64.5 12t-83 3.5h-164v-1274h-573v2966zM1200 3162l385 648h647l-606 -648h-426z" />
    <glyph glyph-name="uni040D" unicode="&#x40d;" horiz-adv-x="3142" 
d="M369 2966h553v-1713q0 -41 -3.5 -98t-9.5 -122.5t-13.5 -137t-14.5 -141.5q29 72 60.5 142.5t64 135t64 121t60.5 100.5l1098 1713h545v-2966h-553v1712q0 42 3 98.5t8 122t13 137t17 142.5q-31 -72 -63 -142t-63.5 -134t-63 -121t-60.5 -103l-1089 -1712h-553v2966z
M1425 3162l-606 648h647l385 -648h-426z" />
    <glyph glyph-name="uni040E" unicode="&#x40e;" horiz-adv-x="2613" 
d="M594 -25q-31 0 -63.5 2.5t-63.5 6t-57.5 9t-44.5 11.5v459q21 -5 44 -8t46.5 -5t48 -3t49.5 -1q84 0 155 20.5t130 62t106 104.5t84 149l12 29l-974 2155h577l545 -1192q17 -39 36 -85.5t38.5 -99t37 -108.5t31.5 -113q14 57 32 113t37.5 108.5t40 99t38.5 85.5l540 1192
h578l-967 -2135q-98 -215 -198 -375.5t-220 -267.5t-270 -160t-348 -53zM2027 3810q-6 -137 -53 -258.5t-134 -212.5t-214.5 -144t-294.5 -53q-168 0 -295.5 53t-214.5 144t-133.5 212.5t-52.5 258.5h352q4 -56 27.5 -109.5t66 -95.5t105 -68t145.5 -26t144.5 26.5t103.5 69
t64.5 96t27.5 107.5h356z" />
    <glyph glyph-name="uni040F" unicode="&#x40f;" horiz-adv-x="2884" 
d="M369 2966h577v-2491h991v2491h578v-2966h-811v-725h-520v725h-815v2966z" />
    <glyph glyph-name="uni0410" unicode="&#x410;" horiz-adv-x="2822" 
d="M2171 0l-213 639h-1127l-208 -639h-590l1069 2966h618l1069 -2966h-618zM1536 1917q-43 133 -78.5 265t-60.5 272q-25 -140 -60.5 -272t-79.5 -265l-270 -811h815z" />
    <glyph glyph-name="uni0411" unicode="&#x411;" horiz-adv-x="2646" 
d="M369 2966h1917v-476h-1340v-753h520q166 0 306.5 -23.5t254 -71t200.5 -119t145.5 -167t88 -215.5t29.5 -264t-31 -265.5t-91.5 -219t-150.5 -171t-209 -122.5t-266 -74t-321 -25h-1052v2966zM946 1290v-839h418q132 0 232.5 27.5t168 81t102 133t34.5 184.5
q0 103 -33 180t-96 129t-153.5 78t-205.5 26h-467z" />
    <glyph glyph-name="uni0412" unicode="&#x412;" horiz-adv-x="2703" 
d="M369 0v2966h1003q247 0 430.5 -52t304.5 -152t180.5 -246t59.5 -333q0 -117 -22.5 -213.5t-65.5 -174.5t-105.5 -139.5t-142.5 -107.5q114 -49 203 -121.5t150.5 -166t93.5 -207.5t32 -246q0 -120 -25.5 -226t-79 -196t-136 -161t-196 -121t-260 -76.5t-327.5 -26.5
h-1097zM1454 459q118 0 202 28t137 79.5t78 125t25 164.5q0 95 -26.5 175t-85.5 137.5t-152.5 89.5t-226.5 32h-455v-831h504zM1303 1724q124 0 210 28t139 80.5t77 128.5t24 173q0 83 -24.5 151t-75.5 116.5t-130 75t-188 26.5h-385v-779h353z" />
    <glyph glyph-name="uni0413" unicode="&#x413;" horiz-adv-x="2175" 
d="M369 2966h1732v-476h-1155v-2490h-577v2966z" />
    <glyph glyph-name="uni0414" unicode="&#x414;" horiz-adv-x="3269" 
d="M98 475h172q103 0 175 51t120.5 139.5t81 194t59.5 253t48 364.5t32.5 460t16 490t4.5 509v30h1925v-2491h438v-1200h-520v725h-2032v-725h-520v1200zM1352 2490v-37q0 -251 -8 -474t-22 -400t-39.5 -356t-61.5 -316t-94.5 -251t-151.5 -181h1179v2015h-802z" />
    <glyph glyph-name="uni0415" unicode="&#x415;" horiz-adv-x="2478" 
d="M369 0v2966h1872v-476h-1295v-733h1114v-475h-1114v-807h1311v-475h-1888z" />
    <glyph glyph-name="uni0416" unicode="&#x416;" horiz-adv-x="4104" 
d="M1765 1274h-131q-55 0 -92 -8t-67 -31.5t-60 -66t-72 -111.5l-643 -1057h-675l716 1176q31 51 72 101t89.5 93t103 75t112.5 46q-55 15 -104 48t-92 76.5t-80 93.5t-68 101l-704 1156h643l630 -1037q28 -46 50 -80t42 -58t40 -39.5t43 -24t51 -12t65 -3.5h131v1254h574
v-1254h131q55 0 92 8t67 31.5t60 66t72 111.5l630 1037h644l-705 -1156q-32 -51 -69.5 -101t-80.5 -93.5t-92 -76.5t-106 -48q60 -14 115 -46t103.5 -75t89.5 -93t73 -101l717 -1176h-676l-643 1057q-28 46 -50 80t-42 58t-40 39.5t-43 24t-51 12t-65 3.5h-131v-1274h-574
v1274z" />
    <glyph glyph-name="uni0417" unicode="&#x417;" horiz-adv-x="2392" 
d="M1069 -66q-164 0 -289.5 11.5t-228.5 33t-191.5 52.5t-179.5 71v467q92 -38 178.5 -66.5t183 -47.5t212 -28t266.5 -9q99 0 179.5 15t143.5 42.5t108.5 66.5t75 87t44 103t14.5 116q0 95 -32 176t-97.5 140t-166 92.5t-236.5 33.5h-492v434h430q124 0 216.5 33.5t154 93
t91.5 141.5t30 179q0 55 -14 105t-40.5 93t-66 77.5t-90.5 59t-113 37.5t-135 13q-115 0 -221.5 -10t-203.5 -29t-183.5 -47.5t-161.5 -65.5v455q75 42 163 74t188.5 53.5t214 33t241.5 11.5q165 0 304 -25.5t252 -74t199 -118.5t144 -160.5t87.5 -199t29.5 -233.5
q0 -120 -26 -221t-76 -184.5t-123.5 -148t-168.5 -110.5q117 -51 209 -125.5t156 -170.5t97.5 -212t33.5 -249q0 -120 -32 -230.5t-95 -207t-156.5 -175t-216.5 -135t-276 -87t-334 -30.5z" />
    <glyph glyph-name="uni0418" unicode="&#x418;" horiz-adv-x="3142" 
d="M369 2966h553v-1713q0 -41 -3.5 -98t-9.5 -122.5t-13.5 -137t-14.5 -141.5q29 72 60.5 142.5t64 135t64 121t60.5 100.5l1098 1713h545v-2966h-553v1712q0 42 3 98.5t8 122t13 137t17 142.5q-31 -72 -63 -142t-63.5 -134t-63 -121t-60.5 -103l-1089 -1712h-553v2966z" />
    <glyph glyph-name="uni0419" unicode="&#x419;" horiz-adv-x="3142" 
d="M369 2966h553v-1713q0 -41 -3.5 -98t-9.5 -122.5t-13.5 -137t-14.5 -141.5q29 72 60.5 142.5t64 135t64 121t60.5 100.5l1098 1713h545v-2966h-553v1712q0 42 3 98.5t8 122t13 137t17 142.5q-31 -72 -63 -142t-63.5 -134t-63 -121t-60.5 -103l-1089 -1712h-553v2966z
M2265 3810q-6 -137 -53 -258.5t-134 -212.5t-214.5 -144t-294.5 -53q-168 0 -295.5 53t-214.5 144t-133.5 212.5t-52.5 258.5h352q4 -56 27.5 -109.5t66 -95.5t105 -68t145.5 -26t144.5 26.5t103.5 69t64.5 96t27.5 107.5h356z" />
    <glyph glyph-name="uni041A" unicode="&#x41a;" horiz-adv-x="2781" 
d="M369 2966h573v-1254h164q47 0 83 3.5t64.5 12t51.5 24t45 39.5t45 58t51 80l631 1037h676l-705 -1156q-32 -51 -73 -101t-89 -93.5t-102.5 -76.5t-112.5 -48q58 -14 112.5 -46t102.5 -75t89 -93t73 -101l717 -1176h-676l-643 1057q-28 46 -51 80t-45 58t-45 39.5
t-51.5 24t-64.5 12t-83 3.5h-164v-1274h-573v2966z" />
    <glyph glyph-name="uni041B" unicode="&#x41b;" horiz-adv-x="2986" 
d="M2040 0v2490h-828v-42q-3 -234 -8 -452t-17.5 -446.5t-36.5 -439t-64 -386t-109.5 -334t-169 -255t-209.5 -132.5t-233 -36q-51 0 -98.5 3t-88.5 8.5t-76 13t-61 16.5v459q40 -9 81 -15t91 -6q63 0 117.5 20t103.5 75t92.5 176t73.5 331t44 421t23 485t11 483.5t2 487.5
v41h1937v-2966h-577z" />
    <glyph glyph-name="uni041C" unicode="&#x41c;" horiz-adv-x="3740" 
d="M2826 0v1638q0 127 11 301.5t26 317.5q-53 -149 -120.5 -299.5t-141.5 -274.5l-557 -938h-352l-557 938q-37 61 -72 128.5t-68 142t-63 149t-55 146.5q15 -149 25.5 -310t10.5 -301v-1638h-544v2966h606l700 -1205q50 -86 103.5 -198t93.5 -236q37 123 92 236.5
t104 197.5l701 1205h602v-2966h-545z" />
    <glyph glyph-name="uni041D" unicode="&#x41d;" horiz-adv-x="3064" 
d="M2118 0v1286h-1172v-1286h-577v2966h577v-1205h1172v1205h577v-2966h-577z" />
    <glyph glyph-name="uni041E" unicode="&#x41e;" horiz-adv-x="3056" 
d="M1528 -66q-258 0 -454.5 56t-341 157.5t-241 243t-155 314t-83 369.5t-24.5 409t27 409t88 369t159.5 314t243 243t338 157t443.5 56q258 0 454.5 -56t340.5 -157t241 -243t155 -314t82.5 -369t24.5 -409t-27 -409t-87.5 -369.5t-159.5 -314t-243.5 -243t-337.5 -157.5
t-443 -56zM1528 422q124 0 224 32t177.5 94.5t134 153.5t93 209t54 261.5t17.5 310.5t-17.5 310.5t-54 261t-93 209t-134 153.5t-177.5 94.5t-224 32.5t-224 -32.5t-178 -94.5t-134.5 -153.5t-93 -209t-54 -261t-17.5 -310.5t17.5 -310.5t54 -261.5t93 -209t134.5 -153.5
t178 -94.5t224 -32z" />
    <glyph glyph-name="uni041F" unicode="&#x41f;" horiz-adv-x="2949" 
d="M2003 2490h-1057v-2490h-577v2966h2211v-2966h-577v2490z" />
    <glyph glyph-name="uni0420" unicode="&#x420;" horiz-adv-x="2556" 
d="M369 0v2966h1032q174 0 317.5 -28.5t257.5 -84t198 -137.5t140 -189t83.5 -238.5t27.5 -285.5q0 -155 -28.5 -287.5t-86.5 -241.5t-146 -193t-207 -141t-269 -86.5t-332 -29.5h-414v-1024h-573zM1298 1475q143 0 244.5 37.5t166.5 106.5t95.5 166.5t30.5 217.5
q0 118 -29.5 213.5t-90 162.5t-152 103.5t-215.5 36.5h-406v-1044h356z" />
    <glyph glyph-name="uni0421" unicode="&#x421;" horiz-adv-x="2544" 
d="M2396 102q-91 -40 -184 -71t-201 -52.5t-238 -33t-294 -11.5q-214 0 -391 48.5t-317.5 141.5t-245.5 228t-174 308.5t-103.5 383t-34.5 451.5q0 226 35.5 428t107.5 372.5t180 307t252.5 231.5t326.5 146t401 51q135 0 256 -12.5t227.5 -36t197.5 -57t166 -74.5v-479
q-75 37 -163.5 66.5t-190 50t-217 31.5t-244.5 11q-125 0 -227.5 -32t-184 -93.5t-142 -151.5t-100.5 -205t-59.5 -254t-19.5 -300q0 -192 20.5 -346t62 -272.5t104 -203t146.5 -138.5t189 -79.5t232 -25.5q135 0 246.5 9.5t209.5 28t188.5 47t182.5 67.5v-480z" />
    <glyph glyph-name="uni0422" unicode="&#x422;" horiz-adv-x="2273" 
d="M848 0v2490h-766v476h2109v-476h-766v-2490h-577z" />
    <glyph glyph-name="uni0423" unicode="&#x423;" horiz-adv-x="2613" 
d="M594 -25q-31 0 -63.5 2.5t-63.5 6t-57.5 9t-44.5 11.5v459q21 -5 44 -8t46.5 -5t48 -3t49.5 -1q84 0 155 20.5t130 62t106 104.5t84 149l12 29l-974 2155h577l545 -1192q17 -39 36 -85.5t38.5 -99t37 -108.5t31.5 -113q14 57 32 113t37.5 108.5t40 99t38.5 85.5l540 1192
h578l-967 -2135q-98 -215 -198 -375.5t-220 -267.5t-270 -160t-348 -53z" />
    <glyph glyph-name="uni0424" unicode="&#x424;" horiz-adv-x="3342" 
d="M1384 307q-190 8 -355.5 54t-303 124.5t-245 188t-181.5 245t-113 295t-39 338.5t40.5 334.5t117 284.5t186 230.5t247 173t300.5 111.5t346 46v234h574v-234q183 -6 346 -46t300.5 -111.5t247 -173t186 -230.5t117 -284.5t40.5 -334.5t-38.5 -338.5t-112.5 -295
t-181.5 -245t-245 -188t-303.5 -124.5t-356 -54v-307h-574v307zM737 1552q0 -111 19.5 -210.5t57.5 -184.5t94 -154.5t130 -121.5t164.5 -85.5t198.5 -45.5v1548q-99 -10 -187 -39t-161.5 -75t-132 -109.5t-99.5 -143t-62.5 -174.5t-21.5 -205zM2605 1552q0 110 -22 205
t-62.5 174.5t-99.5 143t-132.5 109.5t-161 75t-185.5 39v-1548q106 12 196.5 45.5t164 85.5t130 121.5t95 154.5t58 184t19.5 211z" />
    <glyph glyph-name="uni0425" unicode="&#x425;" horiz-adv-x="2630" 
d="M1950 0l-553 942q-14 23 -26.5 47t-24 49t-22.5 51t-21 54q-9 -28 -20.5 -54t-24 -51t-25.5 -49t-25 -47l-553 -942h-647l967 1520l-922 1446h672l504 -857q12 -23 24.5 -47.5t23.5 -49.5t22 -51t20 -52q11 26 22.5 52t23.5 51t25 49.5t27 47.5l508 857h647l-921 -1446
l970 -1520h-671z" />
    <glyph glyph-name="uni0426" unicode="&#x426;" horiz-adv-x="3097" 
d="M369 2966h577v-2491h1036v2491h578v-2491h438v-1200h-520v725h-2109v2966z" />
    <glyph glyph-name="uni0427" unicode="&#x427;" horiz-adv-x="2793" 
d="M1847 1188q-60 -14 -125.5 -25.5t-136 -19.5t-144.5 -12.5t-151 -4.5q-182 0 -329.5 29t-263 85.5t-199 139.5t-138 190.5t-80.5 239.5t-26 287v869h577v-844q0 -120 32 -217.5t99.5 -167t171 -107t246.5 -37.5q66 0 127 2.5t119 7t112.5 11.5t108.5 16v1336h578v-2966
h-578v1188z" />
    <glyph glyph-name="uni0428" unicode="&#x428;" horiz-adv-x="4354" 
d="M369 2966h577v-2491h942v2491h578v-2491h942v2491h577v-2966h-3616v2966z" />
    <glyph glyph-name="uni0429" unicode="&#x429;" horiz-adv-x="4522" 
d="M369 2966h577v-2491h942v2491h578v-2491h942v2491h577v-2491h439v-1200h-521v725h-3534v2966z" />
    <glyph glyph-name="uni042A" unicode="&#x42a;" horiz-adv-x="3015" 
d="M66 2966h1273v-1229h521q166 0 306 -23.5t254 -71t200.5 -119t145 -167t88.5 -215.5t30 -264t-31 -265.5t-91.5 -219t-151 -171t-209 -122.5t-265.5 -74t-321 -25h-1053v2490h-696v476zM1339 1290v-839h418q132 0 232.5 27.5t168 81t102 133t34.5 184.5q0 103 -33 180
t-95.5 129t-153.5 78t-206 26h-467z" />
    <glyph glyph-name="uni042B" unicode="&#x42b;" horiz-adv-x="3797" 
d="M369 2966h577v-1229h520q166 0 306.5 -23.5t254 -71t200.5 -119t145.5 -167t88 -215.5t29.5 -264t-31 -265.5t-91.5 -219t-150.5 -171t-209 -122.5t-266 -74t-321 -25h-1052v2966zM2851 2966h577v-2966h-577v2966zM946 1290v-839h418q132 0 232.5 27.5t168 81t102 133
t34.5 184.5q0 103 -33 180t-96 129t-153.5 78t-205.5 26h-467z" />
    <glyph glyph-name="uni042C" unicode="&#x42c;" horiz-adv-x="2621" 
d="M369 2966h577v-1229h520q166 0 306.5 -23.5t254 -71t200.5 -119t145.5 -167t88 -215.5t29.5 -264t-31 -265.5t-91.5 -219t-150.5 -171t-209 -122.5t-266 -74t-321 -25h-1052v2966zM946 1290v-839h418q132 0 232.5 27.5t168 81t102 133t34.5 184.5q0 103 -33 180t-96 129
t-153.5 78t-205.5 26h-467z" />
    <glyph glyph-name="uni042D" unicode="&#x42d;" horiz-adv-x="2544" 
d="M594 1733h1135q-14 183 -68.5 330.5t-147.5 251.5t-223 160t-295 56q-129 0 -244 -11t-217 -31.5t-190.5 -50t-163.5 -66.5v479q75 41 166.5 74.5t198 57t227.5 36t256 12.5q219 0 401 -51t326.5 -146t252.5 -231.5t180 -307t107.5 -372.5t35.5 -428q0 -242 -34.5 -451.5
t-103.5 -383t-174 -308.5t-245.5 -228t-317.5 -141.5t-391 -48.5q-164 0 -294 11.5t-238.5 33t-201.5 52.5t-184 71v480q92 -39 182.5 -67.5t188.5 -47t210 -28t247 -9.5q114 0 211.5 20.5t178.5 64t145 110t110 158t73.5 210t35.5 264.5h-1135v476z" />
    <glyph glyph-name="uni042E" unicode="&#x42e;" horiz-adv-x="4379" 
d="M369 2966h577v-1205h619q15 179 54.5 343t108.5 305t169.5 256t238.5 196t315.5 125.5t399.5 44.5q258 0 454.5 -56t340.5 -157t241 -243t155 -314t82.5 -369t24.5 -409t-27 -409t-87.5 -369.5t-159.5 -314t-243.5 -243t-337.5 -157.5t-443 -56q-239 0 -425 47.5
t-326.5 134.5t-239 209.5t-163 273t-98 324t-43.5 363.5h-610v-1286h-577v2966zM2851 422q124 0 224 32t177.5 94.5t134 153.5t93 209t54 261.5t17.5 310.5t-17.5 310.5t-54 261t-93 209t-134 153.5t-177.5 94.5t-224 32.5t-224 -32.5t-178 -94.5t-134.5 -153.5t-93 -209
t-54 -261t-17.5 -310.5t17.5 -310.5t54 -261.5t93 -209t134.5 -153.5t178 -94.5t224 -32z" />
    <glyph glyph-name="uni042F" unicode="&#x42f;" horiz-adv-x="2744" 
d="M1802 1171h-164q-47 0 -83 -3t-64.5 -12t-51.5 -24t-45 -39.5t-45 -58.5t-51 -80l-581 -954h-676l655 1073q44 71 94 120.5t115 80.5q-117 32 -223 99.5t-186.5 169t-128.5 237.5t-48 305q0 226 68.5 391.5t201 274.5t328.5 162t451 53h1008v-2966h-574v1171zM909 2085
q0 -122 35.5 -211t102 -148t161.5 -87.5t213 -28.5h381v909h-381q-120 0 -215 -27.5t-161 -82t-101 -135.5t-35 -189z" />
    <glyph glyph-name="uni0430" unicode="&#x430;" horiz-adv-x="2286" 
d="M1483 0l-29 160q-60 -51 -128.5 -92.5t-147 -71t-167 -46t-188.5 -16.5q-147 0 -268.5 45t-208.5 127t-134.5 198t-47.5 257q0 123 32.5 222t96.5 176t158 132.5t217 91.5t274 53t328 17q34 0 63.5 -0.5t54 -1.5t46.5 -2v45q0 102 -24 174t-77 118t-136.5 67.5
t-201.5 21.5q-97 0 -188 -9t-175.5 -26t-161.5 -41t-146 -55v447q66 37 150 68.5t181 54.5t204.5 36t221.5 13q221 0 391.5 -46.5t286.5 -147.5t176 -260.5t60 -385.5v-1323h-512zM1434 889h-45q-165 0 -287.5 -14.5t-203.5 -47t-121 -84t-40 -125.5q0 -52 17.5 -98
t54 -80.5t93 -54.5t134.5 -20q58 0 112.5 8.5t104.5 24.5t95.5 37.5t85.5 47.5v406z" />
    <glyph glyph-name="uni0431" unicode="&#x431;" horiz-adv-x="2449" 
d="M1217 -66q-181 0 -326.5 38.5t-258 115.5t-193.5 191t-133 265.5t-76.5 339t-24.5 410.5q0 319 30 559t90.5 417.5t151 300t212 206.5t274 136t335.5 89l762 152v-496l-696 -139q-84 -18 -153.5 -37.5t-126.5 -48.5t-101.5 -71t-78.5 -105t-58 -150t-39 -206
q54 43 116.5 78t134.5 60.5t152.5 39.5t169.5 14q147 0 273 -36.5t228.5 -104t181 -163.5t131.5 -215.5t80.5 -260.5t27.5 -297q0 -163 -29 -306.5t-88.5 -263.5t-149 -215t-210 -161t-272.5 -101t-336 -35zM1225 1638q-68 0 -128 -9t-114 -25.5t-103.5 -40t-97.5 -52.5
v-110v-111q0 -227 23 -396.5t76.5 -281.5t142.5 -167.5t221 -55.5q88 0 157.5 21t123 60.5t91 95.5t61.5 125.5t35 151.5t11 173q0 87 -10.5 167t-34 149t-62 125.5t-94 96.5t-129.5 62t-169 22z" />
    <glyph glyph-name="uni0432" unicode="&#x432;" horiz-adv-x="2343" 
d="M336 2101h909q220 0 380 -39t264 -111.5t154 -174.5t50 -228q0 -83 -18 -152t-53 -125.5t-86 -100.5t-117 -76q93 -34 165 -81t121 -108t74 -136.5t25 -166.5q0 -126 -49 -236t-156.5 -191t-277 -128t-410.5 -47h-975v2101zM889 872v-446h418q87 0 149 15.5t101.5 43
t58 66t18.5 84.5q0 52 -21 95.5t-68.5 75t-124 49t-187.5 17.5h-344zM889 1671v-405h270q102 0 171.5 14t112.5 42t62 68t19 93q0 41 -17.5 75.5t-54.5 59.5t-95.5 39t-139.5 14h-328z" />
    <glyph glyph-name="uni0433" unicode="&#x433;" horiz-adv-x="1835" 
d="M336 2101h1458v-467h-897v-1634h-561v2101z" />
    <glyph glyph-name="uni0434" unicode="&#x434;" horiz-adv-x="2732" 
d="M41 467h94q98 0 170.5 49.5t126 160.5t87 291t48 380.5t19 391.5t4.5 343v18h1663v-1634h397v-1073h-520v606h-1569v-606h-520v1073zM1106 1634v-23q0 -104 -6 -247.5t-23 -284.5t-44 -248t-59.5 -176.5t-69.5 -113t-85 -74.5h873v1167h-586z" />
    <glyph glyph-name="uni0435" unicode="&#x435;" horiz-adv-x="2224" 
d="M1950 86q-72 -34 -151 -61t-170 -46t-196 -29.5t-229 -10.5q-172 0 -316 34.5t-259.5 101t-202.5 162t-145 218t-87.5 269.5t-29.5 316q0 153 22 296t69.5 268t122.5 228.5t180.5 178t243.5 115.5t312 41q179 0 319.5 -42.5t246.5 -117t180 -177t120 -222.5t67 -253.5
t21 -269.5q0 -18 -1 -44t-2.5 -54t-3.5 -54t-5 -44h-1331q7 -106 41 -192.5t99 -147.5t165 -94t240 -33q94 0 186.5 7.5t179.5 21t166.5 33.5t147.5 44v-442zM1507 1286q-8 103 -35.5 185t-76.5 139.5t-119 88t-162 30.5t-161 -30.5t-116 -88t-73.5 -139.5t-34.5 -185h778z
" />
    <glyph glyph-name="uni0436" unicode="&#x436;" horiz-adv-x="3330" 
d="M1384 844h-77q-48 0 -74.5 -3t-45 -15.5t-35 -37t-42.5 -67.5l-426 -721h-668l512 844q19 31 42.5 61.5t53 58.5t65.5 52t81 41q-37 15 -66.5 37t-54.5 49t-46.5 58t-41.5 65l-512 835h606l418 -712q26 -45 48 -69t47.5 -35t58 -13t80.5 -2h77v831h562v-831h77
q48 0 80.5 2t58 13t47.5 35t48 69l418 712h606l-512 -835q-21 -34 -43 -65t-47 -58t-55 -49t-68 -37q45 -17 81 -41t66 -52t54.5 -58.5t44.5 -61.5l512 -844h-668l-426 721q-26 43 -42.5 67.5t-35 37t-45 15.5t-74.5 3h-77v-844h-562v844z" />
    <glyph glyph-name="uni0437" unicode="&#x437;" horiz-adv-x="1995" 
d="M913 -61q-121 0 -227 8.5t-199 25t-175.5 41t-155.5 56.5v430q78 -26 154 -46t157.5 -33.5t173.5 -20.5t203 -7q120 0 201.5 19.5t131.5 51.5t71.5 74.5t21.5 88.5q0 34 -9 65t-28 57.5t-49 48.5t-71.5 37.5t-96.5 24t-123 8.5h-410v402h361q90 0 154.5 18.5t106 51.5
t60.5 78t19 98q0 41 -20 78t-61.5 65t-105.5 44.5t-153 16.5q-91 0 -175 -7t-162 -20t-150.5 -32t-139.5 -43v414q45 20 93 38t100.5 32.5t108.5 26t117 19t127 11.5t138 4q215 0 375 -41.5t266 -118t158.5 -185t52.5 -241.5q0 -86 -19 -157.5t-56.5 -130t-93.5 -104
t-130 -79.5q92 -35 164 -87t121 -120.5t74.5 -152t25.5 -181.5q0 -85 -25.5 -164.5t-77 -149t-128.5 -127t-180 -98.5t-231.5 -64t-283.5 -23z" />
    <glyph glyph-name="uni0438" unicode="&#x438;" horiz-adv-x="2695" 
d="M336 2101h545v-1003q0 -48 -3 -103t-8 -114.5t-12 -122t-14 -123.5q31 64 63.5 127t66.5 121.5t68 112.5t68 102l717 1003h532v-2101h-544v1004q0 47 2 103t6.5 116t10 123t13.5 124q-29 -65 -61 -128t-65.5 -122.5t-67.5 -114t-68 -101.5l-708 -1004h-541v2101z" />
    <glyph glyph-name="uni0439" unicode="&#x439;" horiz-adv-x="2695" 
d="M336 2101h545v-1003q0 -48 -3 -103t-8 -114.5t-12 -122t-14 -123.5q31 64 63.5 127t66.5 121.5t68 112.5t68 102l717 1003h532v-2101h-544v1004q0 47 2 103t6.5 116t10 123t13.5 124q-29 -65 -61 -128t-65.5 -122.5t-67.5 -114t-68 -101.5l-708 -1004h-541v2101z
M2043 3056q-6 -137 -53 -258.5t-134 -212.5t-214.5 -144t-294.5 -53q-168 0 -295.5 53t-214.5 144t-133.5 212.5t-52.5 258.5h352q4 -56 27.5 -109.5t66 -95.5t105 -68t145.5 -26t144.5 26.5t103.5 69t64.5 96t27.5 107.5h356z" />
    <glyph glyph-name="uni043A" unicode="&#x43a;" horiz-adv-x="2388" 
d="M336 2101h561v-831h94q48 0 80 2.5t57.5 14t48.5 35.5t52 67l479 712h623l-574 -835q-21 -32 -44.5 -63t-51.5 -58.5t-60.5 -50t-72.5 -37.5q46 -18 85.5 -43t72 -53t58.5 -58t46 -59l573 -844h-667l-488 721q-27 41 -46.5 65.5t-41.5 37t-51.5 16.5t-77.5 4h-94v-844
h-561v2101z" />
    </font>
</defs>
</svg>
