<?xml version="1.0" standalone="no"?>
<!DOCTYPE svg PUBLIC "-//W3C//DTD SVG 1.1//EN" "http://www.w3.org/Graphics/SVG/1.1/DTD/svg11.dtd" >
<svg xmlns="http://www.w3.org/2000/svg" xmlns:xlink="http://www.w3.org/1999/xlink" version="1.1">
<metadata>
Created by FontForge 20161003 at Fri Dec  2 17:19:23 2016
 By www-data
Designed by Paul van der Laan &#38; Pieter van Rosmalen 2008. Produced by Bold Monday. For exclusive use by AUDI AG and its affiliates only.
</metadata>
<defs>
<font id="AudiTypeV03ExtendedBoldItalic" horiz-adv-x="846" >
  <font-face 
    font-family="AudiTypeV03ExtendedBoldItalic"
    font-weight="700"
    font-style="italic"
    font-stretch="expanded"
    units-per-em="1000"
    panose-1="2 11 8 5 4 2 0 0 0 3"
    ascent="760"
    descent="-240"
    x-height="513"
    cap-height="724"
    bbox="-404 -240 2218 980"
    underline-thickness="50"
    underline-position="-150"
    slope="-16"
    unicode-range="U+000D-FB04"
  />
<missing-glyph horiz-adv-x="296" 
d="M-61 -211l265 935h178l-267 -935h-176z" />
    <glyph glyph-name="uniFB00" unicode="ff" horiz-adv-x="994" 
d="M76 401l26 91l113 20l9 29q30 104 97 151.5t182 47.5q79 0 132 -21l-30 -107q-42 14 -87 14q-56 0 -89 -23.5t-49 -78.5l-3 -11h311l9 28q33 104 99 151.5t180 47.5q79 0 132 -21l-30 -107q-42 14 -87 14q-56 0 -89 -23.5t-49 -78.5l-3 -11h176l-32 -112h-176l-174 -612
h-161l174 612h-312l-174 -612h-161l174 612h-108z" />
    <glyph glyph-name="fi" unicode="fi" horiz-adv-x="874" 
d="M543 0l114 401h-312l-174 -612h-161l174 612h-108l26 91l113 20l9 29q30 104 97 151.5t182 47.5q79 0 132 -21l-30 -107q-42 14 -87 14q-56 0 -89 -23.5t-49 -78.5l-3 -11h475l-146 -513h-163zM710 587l39 137h163l-39 -137h-163z" />
    <glyph glyph-name="fl" unicode="fl" horiz-adv-x="943" 
d="M76 401l26 91l113 20l9 29q30 104 97 151.5t182 47.5q79 0 132 -21l-30 -107q-42 14 -87 14q-56 0 -89 -23.5t-49 -78.5l-3 -11h176l-32 -112h-176l-174 -612h-161l174 612h-108zM728 -13q-75 0 -111.5 34t-36.5 91q0 30 9 61l157 551h163l-157 -551q-5 -20 -5 -32
q0 -19 13 -27.5t44 -8.5q42 0 71 12l-31 -108q-41 -22 -116 -22z" />
    <glyph glyph-name="uniFB03" unicode="ffi" horiz-adv-x="1347" 
d="M76 401l26 91l113 20l9 29q30 104 97 151.5t182 47.5q79 0 132 -21l-30 -107q-42 14 -87 14q-56 0 -89 -23.5t-49 -78.5l-3 -11h311l9 28q33 104 99 151.5t180 47.5q79 0 132 -21l-30 -107q-42 14 -87 14q-56 0 -89 -23.5t-49 -78.5l-3 -11h475l-146 -513h-163l114 401
h-312l-174 -612h-161l174 612h-312l-174 -612h-161l174 612h-108zM1183 587l39 137h163l-39 -137h-163z" />
    <glyph glyph-name="uniFB04" unicode="ffl" horiz-adv-x="1416" 
d="M345 401l-174 -612h-161l174 612h-108l26 91l113 20l9 29q30 104 97 151.5t182 47.5q79 0 132 -21l-30 -107q-42 14 -87 14q-56 0 -89 -23.5t-49 -78.5l-3 -11h311l9 28q33 104 99 151.5t180 47.5q79 0 132 -21l-30 -107q-42 14 -87 14q-56 0 -89 -23.5t-49 -78.5l-3 -11
h176l-32 -112h-176l-174 -612h-161l174 612h-312zM1201 -13q-75 0 -111.5 34t-36.5 91q0 30 9 61l157 551h163l-157 -551q-5 -20 -5 -32q0 -19 13 -27.5t44 -8.5q42 0 71 12l-31 -108q-41 -22 -116 -22z" />
    <glyph glyph-name=".notdef" horiz-adv-x="296" 
d="M-61 -211l265 935h178l-267 -935h-176z" />
    <glyph glyph-name=".null" horiz-adv-x="0" 
 />
    <glyph glyph-name=".null" horiz-adv-x="0" 
 />
    <glyph glyph-name="nonmarkingreturn" horiz-adv-x="333" 
 />
    <glyph glyph-name="CR" unicode="&#xd;" horiz-adv-x="0" 
 />
    <glyph glyph-name="space" unicode=" " horiz-adv-x="341" 
 />
    <glyph glyph-name="exclam" unicode="!" horiz-adv-x="409" 
d="M143 228l12 94q12 100 48 224l51 178h169l-53 -186q-27 -94 -81 -215l-43 -95h-103zM45 0l43 151h173l-43 -151h-173z" />
    <glyph glyph-name="quotedbl" unicode="&#x22;" horiz-adv-x="567" 
d="M170 441l2 53q6 116 16 153l22 77h160l-22 -77q-12 -41 -72 -153l-28 -53h-78zM410 441l2 53q6 116 16 153l22 77h160l-22 -77q-12 -41 -72 -153l-28 -53h-78z" />
    <glyph glyph-name="numbersign" unicode="#" 
d="M129 450l29 104h146l44 115h134l-44 -115h160l44 115h134l-44 -115h110l-29 -104h-120l-70 -185h136l-29 -104h-146l-46 -122h-134l46 122h-160l-46 -122h-134l46 122h-110l29 104h120l70 185h-136zM399 450l-70 -185h160l70 185h-160z" />
    <glyph glyph-name="dollar" unicode="$" 
d="M261 -93l27 97q-151 9 -221 46l30 111q115 -41 242 -41q113 0 169 21t56 68q0 29 -39 53t-126 50q-115 35 -169.5 79.5t-54.5 111.5q0 96 79 153t238 64l28 97h118l-28 -100q119 -11 182 -44l-30 -108q-116 38 -229 38q-98 0 -146 -19.5t-48 -62.5q0 -29 39 -52t128 -52
q115 -38 169.5 -80.5t54.5 -108.5q0 -95 -83.5 -154t-239.5 -69l-28 -98h-118z" />
    <glyph glyph-name="percent" unicode="%" horiz-adv-x="1308" 
d="M337 322q-90 0 -144 44t-54 118q0 111 83 183.5t205 72.5q90 0 144 -44t54 -118q0 -111 -83 -183.5t-205 -72.5zM350 421q58 0 97 46t39 100q0 74 -72 74q-58 0 -97 -46t-39 -100q0 -74 72 -74zM941 -16q-90 0 -144 44t-54 118q0 111 83 183.5t205 72.5q90 0 144 -44
t54 -118q0 -111 -83 -183.5t-205 -72.5zM954 83q58 0 97 46t39 100q0 74 -72 74q-58 0 -97 -46t-39 -100q0 -74 72 -74zM184 0l835 724h169l-835 -724h-169z" />
    <glyph glyph-name="ampersand" unicode="&#x26;" horiz-adv-x="1106" 
d="M427 -16q-159 0 -248.5 55t-89.5 142q0 76 61.5 131t177.5 79q-48 23 -75 58.5t-27 77.5q0 102 102 157.5t260 55.5q142 0 223 -40l-33 -108q-77 31 -206 31q-88 0 -140 -26t-52 -71q0 -42 42 -67t129 -25h525l-32 -112h-136l-66 -231q-140 -107 -415 -107zM458 98
q131 0 237 53l49 171h-246q-110 0 -176.5 -34t-66.5 -86q0 -48 49.5 -76t153.5 -28z" />
    <glyph glyph-name="quotesingle" unicode="'" horiz-adv-x="327" 
d="M170 441l2 53q6 116 16 153l22 77h160l-22 -77q-12 -41 -72 -153l-28 -53h-78z" />
    <glyph glyph-name="parenleft" unicode="(" horiz-adv-x="464" 
d="M236 -92q-61 54 -100 135.5t-39 169.5q0 174 101.5 319t249.5 226h138q-67 -45 -124 -98t-109 -121t-81.5 -152t-29.5 -174q0 -79 34 -164.5t76 -140.5h-116z" />
    <glyph glyph-name="parenright" unicode=")" horiz-adv-x="464" 
d="M-83 -92q67 45 124 98t109 121t81.5 152t29.5 174q0 79 -34 164.5t-76 140.5h116q61 -54 100 -135.5t39 -169.5q0 -174 -101.5 -319t-249.5 -226h-138z" />
    <glyph glyph-name="asterisk" unicode="*" horiz-adv-x="564" 
d="M248 344l-74 51l41 47q34 40 66 60q-33 -8 -78 -8h-71l27 94h71q35 0 73 -8q-14 29 -23 60l-16 53l87 44l20 -67q7 -24 12 -57q16 39 51 82l37 43l74 -51l-41 -47q-37 -41 -67 -61q39 9 79 9h71l-27 -94h-71q-38 0 -72 7q14 -29 23 -58l16 -53l-87 -44l-20 67
q-9 31 -13 57q-14 -38 -51 -83z" />
    <glyph glyph-name="plus" unicode="+" horiz-adv-x="798" 
d="M47 238l34 120h260l56 194h154l-56 -194h260l-34 -120h-260l-57 -199h-154l57 199h-260z" />
    <glyph glyph-name="comma" unicode="," horiz-adv-x="393" 
d="M-81 -152l141 175v143h98q48 0 73 -23t25 -55q0 -51 -41 -97.5t-131 -115.5l-35 -27h-130z" />
    <glyph glyph-name="hyphen" unicode="-" horiz-adv-x="473" 
d="M49 230l39 135h353l-39 -135h-353z" />
    <glyph glyph-name="period" unicode="." horiz-adv-x="393" 
d="M33 0l47 167h187l-47 -167h-187z" />
    <glyph glyph-name="slash" unicode="/" horiz-adv-x="562" 
d="M-67 0l600 724h157l-599 -724h-158z" />
    <glyph glyph-name="zero" unicode="0" 
d="M368 -16q-143 0 -221 79t-78 193q0 94 33 181t92 154.5t148.5 108t196.5 40.5q144 0 221.5 -77t77.5 -191q0 -94 -33 -181.5t-92 -156t-149 -109.5t-196 -41zM386 106q85 0 152 52t100.5 131t33.5 167q0 74 -38 117.5t-113 43.5q-127 0 -206.5 -104t-79.5 -241
q0 -74 38.5 -120t112.5 -46z" />
    <glyph glyph-name="one" unicode="1" 
d="M278 550l35 122l232 52h115l-173 -606h166l-33 -118h-499l33 118h166l133 468z" />
    <glyph glyph-name="two" unicode="2" 
d="M29 0l29 104l277 174q144 90 197 140t53 109q0 89 -132 89q-108 0 -235 -44l36 125q101 43 227 43q272 0 272 -198q0 -55 -27.5 -106.5t-80 -96.5t-103.5 -79t-123 -73l-125 -69h409l-33 -118h-641z" />
    <glyph glyph-name="three" unicode="3" 
d="M318 -16q-156 0 -266 54l32 116q117 -49 240 -49q101 0 161 34t60 86q0 40 -41.5 66t-131.5 26h-91l34 116h91q98 0 149 31t51 80q0 72 -146 72q-136 0 -259 -52l34 120q107 56 253 56q128 0 207 -47.5t79 -125.5q0 -142 -185 -196q124 -41 124 -148
q0 -106 -104.5 -172.5t-290.5 -66.5z" />
    <glyph glyph-name="four" unicode="4" 
d="M417 0l40 142h-430l30 104l582 478h150l-132 -464h144l-34 -118h-143l-40 -142h-167zM249 260h241l73 258z" />
    <glyph glyph-name="five" unicode="5" 
d="M334 -16q-168 0 -278 54l32 114q117 -47 257 -47q106 0 158.5 29t52.5 81q0 38 -41 65.5t-106 41.5t-128.5 20t-125.5 6l124 376h538l-34 -118h-383l-50 -148q72 -6 133 -20t120 -40t93 -72.5t34 -108.5q0 -105 -104.5 -169t-291.5 -64z" />
    <glyph glyph-name="six" unicode="6" 
d="M400 -16q-144 0 -233.5 76.5t-89.5 199.5q0 221 145.5 350.5t383.5 129.5q143 0 232 -38l-36 -125q-95 39 -212 39q-116 0 -204 -56t-122 -148q110 72 237 72q123 0 199.5 -59t76.5 -152q0 -73 -31 -129.5t-84.5 -90.5t-119.5 -51.5t-142 -17.5zM456 362q-103 0 -213 -52
q-2 -28 -2 -44q0 -73 47.5 -119.5t125.5 -46.5q46 0 87 14.5t72 51t31 89.5q0 46 -38 76.5t-110 30.5z" />
    <glyph glyph-name="seven" unicode="7" 
d="M130 0l528 606h-446l34 118h634l-30 -105l-541 -619h-179z" />
    <glyph glyph-name="eight" unicode="8" 
d="M374 -16q-158 0 -245 54.5t-87 142.5q0 75 58 130t171 79q-49 22 -77.5 58.5t-28.5 78.5q0 102 103 157.5t261 55.5q133 0 216 -52t83 -129q0 -135 -181 -184q137 -44 137 -150q0 -46 -22 -87t-68 -76.5t-128.5 -56.5t-191.5 -21zM391 100q99 0 161.5 34.5t62.5 85.5
q0 46 -46 74.5t-135 28.5q-99 0 -161.5 -34.5t-62.5 -85.5q0 -46 46 -74.5t135 -28.5zM479 433q82 0 134 30.5t52 74.5q0 40 -38 65t-113 25q-82 0 -134 -30.5t-52 -74.5q0 -40 38 -65t113 -25z" />
    <glyph glyph-name="nine" unicode="9" 
d="M297 -16q-64 0 -131 12t-105 28l36 125q95 -39 212 -39q121 0 208.5 60.5t113.5 158.5q-109 -75 -242 -75q-124 0 -200 55.5t-76 148.5q0 96 54.5 161.5t137 93t185.5 27.5q144 0 233.5 -76.5t89.5 -199.5q0 -222 -140 -351t-376 -129zM434 376q105 0 213 50q2 20 2 32
q0 73 -47.5 119.5t-125.5 46.5q-75 0 -132.5 -35.5t-57.5 -112.5q0 -45 37.5 -72.5t110.5 -27.5z" />
    <glyph glyph-name="colon" unicode=":" horiz-adv-x="393" 
d="M33 0l47 167h187l-47 -167h-187zM131 346l47 167h187l-47 -167h-187z" />
    <glyph glyph-name="semicolon" unicode=";" horiz-adv-x="393" 
d="M-81 -152l141 175v143h98q48 0 73 -23t25 -55q0 -51 -41 -97.5t-131 -115.5l-35 -27h-130zM131 346l47 167h187l-47 -167h-187z" />
    <glyph glyph-name="less" unicode="&#x3c;" horiz-adv-x="798" 
d="M407 45l-308 251l451 251h235l-458 -261l286 -241h-206z" />
    <glyph glyph-name="equal" unicode="=" horiz-adv-x="798" 
d="M32 118l35 120h634l-35 -120h-634zM101 358l35 120h634l-35 -120h-634z" />
    <glyph glyph-name="greater" unicode="&#x3e;" horiz-adv-x="798" 
d="M25 45l458 260l-286 242h206l308 -251l-451 -251h-235z" />
    <glyph glyph-name="question" unicode="?" horiz-adv-x="580" 
d="M140 228l25 131l166 77q71 33 104 60t33 66q0 60 -129 60q-47 0 -115.5 -13.5t-121.5 -33.5l35 118q110 47 246 47q113 0 183 -44t70 -119q0 -20 -4 -38t-9.5 -32.5t-18 -29.5t-20.5 -25t-27.5 -23.5t-28.5 -20.5t-34 -20t-34.5 -17.5t-38 -18.5t-36.5 -18l-92 -45
l-22 -61h-131zM57 0l43 151h173l-43 -151h-173z" />
    <glyph glyph-name="at" unicode="@" horiz-adv-x="1271" 
d="M561 26q-103 0 -161 57t-58 150q0 87 46 151.5t112.5 93.5t140.5 29q103 0 170 -45l22 30h112l-77 -271q-6 -22 -6 -35q0 -26 15 -45t48 -18q80 1 129 74.5t49 166.5q0 90 -56 155.5t-139.5 95t-182.5 29.5q-246 0 -387 -115t-141 -323q0 -141 97 -232t267 -91
q149 0 268 37l-26 -100q-101 -34 -257 -34q-115 0 -208.5 35t-151.5 93.5t-89 130.5t-31 150q0 172 83 296t229.5 186.5t340.5 62.5q104 0 194.5 -23t161.5 -66.5t111.5 -114.5t40.5 -161q0 -157 -91 -253t-227 -96q-121 0 -159 73q-31 -32 -83 -52.5t-106 -20.5zM596 131
q62 0 115 42l60 210q-53 18 -99 18q-84 0 -134 -41t-50 -121q0 -47 26 -77.5t82 -30.5z" />
    <glyph glyph-name="A" unicode="A" horiz-adv-x="932" 
d="M-71 0l587 724h168l173 -724h-168l-36 150h-415l-120 -150h-189zM565 574l-239 -299h304z" />
    <glyph glyph-name="B" unicode="B" horiz-adv-x="857" 
d="M35 0l206 724h334q127 0 192 -44t65 -126q0 -121 -142 -180q95 -41 95 -132q0 -116 -94 -179t-272 -63h-384zM496 314h-207l-57 -200h206q87 0 133.5 33t46.5 88q0 40 -29 59.5t-93 19.5zM548 610h-175l-52 -186h174q76 0 122.5 32t46.5 81q0 73 -116 73z" />
    <glyph glyph-name="C" unicode="C" horiz-adv-x="823" 
d="M457 -16q-96 0 -170 26.5t-117 71t-64 98t-21 112.5q0 193 145 320.5t371 127.5q172 0 278 -53l-35 -124q-104 52 -243 52q-147 0 -247.5 -88t-100.5 -227q0 -86 57.5 -138.5t175.5 -52.5q104 0 252 45l-38 -132q-106 -38 -243 -38z" />
    <glyph glyph-name="D" unicode="D" horiz-adv-x="937" 
d="M35 0l207 724h336q156 0 247.5 -82.5t91.5 -201.5q0 -198 -145 -319t-367 -121h-370zM525 606h-151l-140 -488h168q164 0 256 85t92 219q0 82 -56 133t-169 51z" />
    <glyph glyph-name="E" unicode="E" horiz-adv-x="802" 
d="M35 0l206 724h611l-34 -118h-445l-50 -176h381l-34 -118h-381l-55 -194h448l-33 -118h-614z" />
    <glyph glyph-name="F" unicode="F" horiz-adv-x="747" 
d="M35 0l206 724h576l-34 -118h-410l-56 -196h343l-34 -118h-342l-83 -292h-166z" />
    <glyph glyph-name="G" unicode="G" horiz-adv-x="956" 
d="M473 -16q-182 0 -285 82t-103 222q0 90 30 165.5t81.5 128t121 88.5t149 53t166.5 17q184 0 308 -52l-34 -122q-114 49 -274 49q-170 0 -275.5 -86.5t-105.5 -228.5q0 -94 59.5 -143t193.5 -49q75 0 155 16l65 226h165l-93 -324q-126 -42 -324 -42z" />
    <glyph glyph-name="H" unicode="H" horiz-adv-x="963" 
d="M616 0l86 304h-415l-86 -304h-166l206 724h166l-86 -302h415l86 302h166l-206 -724h-166z" />
    <glyph glyph-name="I" unicode="I" horiz-adv-x="551" 
d="M176 606l34 118h399l-34 -118h-117l-139 -488h117l-34 -118h-399l34 118h116l139 488h-116z" />
    <glyph glyph-name="J" unicode="J" horiz-adv-x="471" 
d="M163 606l34 118h300l-183 -643q-38 -133 -112.5 -185t-188.5 -52q-81 0 -117 18l34 120q35 -11 64 -11q75 0 108.5 34t57.5 118l137 483h-134z" />
    <glyph glyph-name="K" unicode="K" horiz-adv-x="879" 
d="M35 0l206 724h166l-88 -308l433 308h235l-533 -368l320 -356h-217l-266 318l-90 -318h-166z" />
    <glyph glyph-name="L" unicode="L" horiz-adv-x="694" 
d="M35 0l206 724h166l-173 -606h388l-33 -118h-554z" />
    <glyph glyph-name="M" unicode="M" horiz-adv-x="1174" 
d="M35 0l206 724h163l185 -442l437 442h174l-206 -724h-161l139 490l-356 -360h-115l-159 382l-146 -512h-161z" />
    <glyph glyph-name="N" unicode="N" horiz-adv-x="983" 
d="M35 0l206 724h179l273 -540l154 540h162l-207 -724h-178l-274 538l-153 -538h-162z" />
    <glyph glyph-name="O" unicode="O" horiz-adv-x="979" 
d="M441 -16q-163 0 -259.5 89.5t-96.5 214.5q0 197 145 324.5t364 127.5q163 0 259.5 -88t96.5 -212q0 -197 -145.5 -326.5t-363.5 -129.5zM460 111q138 0 229 88.5t91 222.5q0 81 -54 136t-151 55q-139 0 -229.5 -87t-90.5 -220q0 -81 54 -138t151 -57z" />
    <glyph glyph-name="P" unicode="P" horiz-adv-x="817" 
d="M35 0l206 724h302q142 0 222 -50t80 -140q0 -286 -433 -286h-140l-70 -248h-167zM527 606h-153l-68 -240h137q43 0 81 6.5t74.5 22t58 47t21.5 76.5q0 88 -151 88z" />
    <glyph glyph-name="Q" unicode="Q" horiz-adv-x="979" 
d="M441 -16q-163 0 -259.5 89.5t-96.5 214.5q0 197 145 324.5t364 127.5q163 0 259.5 -88t96.5 -212q0 -119 -56.5 -217t-155.5 -159l154 -166h-142q-26 0 -38.5 5t-27.5 21l-78 82q-82 -22 -165 -22zM460 111q14 0 44 2l-95 101h67q69 0 103.5 -8t62.5 -38l3 -4
q63 42 99 109.5t36 148.5t-54 136t-151 55q-139 0 -229.5 -87t-90.5 -220q0 -81 54 -138t151 -57z" />
    <glyph glyph-name="R" unicode="R" horiz-adv-x="864" 
d="M35 0l206 724h302q136 0 212 -50t76 -133q0 -195 -254 -242q29 -14 51 -48l159 -251h-189l-133 225q-20 34 -39 43t-73 9h-73l-79 -277h-166zM498 606h-125l-60 -212h125q38 0 71 4.5t71.5 16.5t61 39t22.5 67q0 85 -166 85z" />
    <glyph glyph-name="S" unicode="S" horiz-adv-x="791" 
d="M307 -16q-91 0 -169.5 15t-116.5 35l32 117q124 -44 254 -44q119 0 178 22t59 72q0 31 -40.5 55t-132.5 52q-120 37 -178 84.5t-58 118.5q0 108 95 168.5t288 60.5q81 0 154.5 -14.5t111.5 -35.5l-31 -114q-122 40 -241 40q-104 0 -154.5 -20.5t-50.5 -66.5
q0 -30 40 -52.5t136 -54.5q120 -40 178 -85.5t58 -115.5q0 -110 -107 -173.5t-305 -63.5z" />
    <glyph glyph-name="T" unicode="T" horiz-adv-x="758" 
d="M132 606l34 118h694l-34 -118h-265l-172 -606h-166l172 606h-263z" />
    <glyph glyph-name="U" unicode="U" horiz-adv-x="916" 
d="M394 -16q-140 0 -220 63.5t-80 169.5q0 43 13 86l120 421h165l-121 -425q-13 -47 -13 -77q0 -112 158 -112q103 0 164.5 46.5t89.5 143.5l121 424h165l-127 -443q-31 -107 -79 -169.5t-134.5 -95t-221.5 -32.5z" />
    <glyph glyph-name="V" unicode="V" horiz-adv-x="892" 
d="M289 0l-159 724h172l105 -565l427 565h196l-573 -724h-168z" />
    <glyph glyph-name="W" unicode="W" horiz-adv-x="1421" 
d="M242 0l-102 724h169l58 -543l381 543h179l68 -538l369 538h185l-518 -724h-161l-72 560l-394 -560h-162z" />
    <glyph glyph-name="X" unicode="X" horiz-adv-x="848" 
d="M-63 0l428 382l-198 342h185l126 -238l255 238h206l-393 -353l219 -371h-185l-147 268l-290 -268h-206z" />
    <glyph glyph-name="Y" unicode="Y" horiz-adv-x="821" 
d="M255 0l79 280l-202 444h174l137 -319l311 319h203l-460 -454l-77 -270h-165z" />
    <glyph glyph-name="Z" unicode="Z" horiz-adv-x="873" 
d="M0 0l29 104l623 502h-465l34 118h692l-29 -103l-625 -503h500l-33 -118h-726z" />
    <glyph glyph-name="bracketleft" unicode="[" horiz-adv-x="464" 
d="M26 -93l244 851h282l-24 -83h-140l-196 -685h140l-24 -83h-282z" />
    <glyph glyph-name="backslash" unicode="\" horiz-adv-x="562" 
d="M345 0l-207 758h131l208 -758h-132z" />
    <glyph glyph-name="bracketright" unicode="]" horiz-adv-x="464" 
d="M-44 -93l24 83h140l196 685h-140l24 83h282l-244 -851h-282z" />
    <glyph glyph-name="asciicircum" unicode="^" horiz-adv-x="562" 
d="M77 436l270 288h116l106 -288h-131l-60 174l-158 -174h-143z" />
    <glyph glyph-name="underscore" unicode="_" horiz-adv-x="590" 
d="M-115 -120l34 120h606l-35 -120h-605z" />
    <glyph glyph-name="grave" unicode="`" horiz-adv-x="550" 
d="M368 588l-130 158h188l55 -158h-113z" />
    <glyph glyph-name="a" unicode="a" horiz-adv-x="813" 
d="M513 0v55q-83 -71 -214 -71q-113 0 -181 64t-68 162q0 79 32.5 142t86 100.5t116.5 57t130 19.5q133 0 222 -52l26 36h128l-146 -513h-132zM350 103q101 0 175 49l67 236q-74 22 -144 22q-103 0 -168 -45.5t-65 -139.5q0 -53 34 -87.5t101 -34.5z" />
    <glyph glyph-name="b" unicode="b" horiz-adv-x="813" 
d="M22 0l206 724h163l-73 -257q82 62 206 62q110 0 174.5 -61.5t64.5 -159.5q0 -79 -33.5 -143t-87.5 -102t-118 -58.5t-130 -20.5q-136 0 -217 54l-27 -38h-128zM463 409q-103 0 -176 -50l-67 -235q74 -22 145 -22q102 0 167.5 48.5t65.5 142.5q0 52 -34 84t-101 32z" />
    <glyph glyph-name="c" unicode="c" horiz-adv-x="641" 
d="M331 -16q-129 0 -205 64t-76 168q0 67 23 121t61 89t89 59t104.5 34t110.5 10q129 0 195 -33l-32 -112q-60 24 -157 24t-163 -43t-66 -137q0 -54 40 -90t122 -36q33 0 83.5 9.5t82.5 23.5l-35 -118q-26 -13 -78.5 -23t-98.5 -10z" />
    <glyph glyph-name="d" unicode="d" horiz-adv-x="813" 
d="M513 0v55q-83 -71 -214 -71q-113 0 -181 64t-68 162q0 79 32.5 142t86 100.5t116.5 57t130 19.5q123 0 205 -42l68 237h163l-206 -724h-132zM350 103q101 0 175 49l67 236q-74 22 -144 22q-103 0 -168 -45.5t-65 -139.5q0 -53 34 -87.5t101 -34.5z" />
    <glyph glyph-name="e" unicode="e" horiz-adv-x="739" 
d="M350 -15q-143 0 -221.5 62.5t-78.5 161.5q0 144 104 232t261 88q127 0 204.5 -56t77.5 -141q0 -59 -25 -116h-464q1 -55 43.5 -84t140.5 -29q48 0 112.5 12.5t112.5 31.5l-31 -114q-96 -48 -236 -48zM401 419q-137 0 -179 -110h317q1 4 1 12q0 47 -38.5 72.5t-100.5 25.5
z" />
    <glyph glyph-name="f" unicode="f" horiz-adv-x="521" 
d="M76 401l26 91l113 20l9 29q30 104 97 151.5t182 47.5q79 0 132 -21l-30 -107q-42 14 -87 14q-56 0 -89 -23.5t-49 -78.5l-3 -11h176l-32 -112h-176l-174 -612h-161l174 612h-108z" />
    <glyph glyph-name="g" unicode="g" horiz-adv-x="815" 
d="M265 -227q-73 0 -146.5 16t-108.5 38l32 112q37 -19 101.5 -32.5t132.5 -13.5q98 0 147.5 34t72.5 115l7 24q-81 -62 -203 -62q-113 0 -181 61t-68 155q0 77 32.5 138t86 97.5t116.5 55t130 18.5q133 0 222 -51l25 35h130l-140 -492q-38 -135 -132.5 -191.5t-255.5 -56.5
zM351 123q111 0 184 56l59 208q-72 23 -145 23q-104 0 -168.5 -43t-64.5 -132q0 -48 34 -80t101 -32z" />
    <glyph glyph-name="h" unicode="h" horiz-adv-x="808" 
d="M22 0l206 724h163l-72 -253q83 58 205 58q93 0 155.5 -42t62.5 -119q0 -36 -10 -69l-85 -299h-163l81 285q7 22 7 47q0 80 -109 80q-104 0 -176 -52l-102 -360h-163z" />
    <glyph glyph-name="i" unicode="i" horiz-adv-x="353" 
d="M22 0l146 513h163l-146 -513h-163zM189 587l39 137h163l-39 -137h-163z" />
    <glyph glyph-name="j" unicode="j" horiz-adv-x="353" 
d="M-93 -225q-79 0 -121 20l34 117q32 -14 80 -14q61 0 86.5 32t49.5 118l132 465h163l-143 -502q-37 -129 -101 -182.5t-180 -53.5zM189 587l39 137h163l-39 -137h-163z" />
    <glyph glyph-name="k" unicode="k" horiz-adv-x="708" 
d="M22 0l206 724h163l-118 -416l273 205h208l-336 -251l218 -262h-194l-188 242l-69 -242h-163z" />
    <glyph glyph-name="l" unicode="l" horiz-adv-x="422" 
d="M207 -13q-75 0 -111.5 34t-36.5 91q0 30 9 61l157 551h163l-157 -551q-5 -20 -5 -32q0 -19 13 -27.5t44 -8.5q42 0 71 12l-31 -108q-41 -22 -116 -22z" />
    <glyph glyph-name="m" unicode="m" horiz-adv-x="1267" 
d="M22 0l146 513h133v-56q84 72 223 72q65 0 117.5 -21.5t78.5 -62.5q43 38 112.5 61t150.5 23q93 0 155.5 -42t62.5 -119q0 -36 -10 -69l-85 -299h-163l81 285q7 23 7 47q0 80 -109 80q-108 0 -180 -55q-2 -32 -10 -58l-85 -299h-163l81 285q7 22 7 47q0 80 -109 80
q-104 0 -176 -52l-102 -360h-163z" />
    <glyph glyph-name="n" unicode="n" horiz-adv-x="808" 
d="M22 0l146 513h133v-56q84 72 223 72q93 0 155.5 -42t62.5 -119q0 -36 -10 -69l-85 -299h-163l81 285q7 22 7 47q0 80 -109 80q-104 0 -176 -52l-102 -360h-163z" />
    <glyph glyph-name="o" unicode="o" horiz-adv-x="794" 
d="M365 -16q-146 0 -229.5 65t-84.5 163q-1 147 108 232t270 85q146 0 229.5 -65t84.5 -163q1 -147 -108 -232t-270 -85zM373 98q89 0 147.5 48.5t57.5 140.5q-1 56 -44.5 92t-112.5 36q-89 0 -147.5 -48.5t-57.5 -140.5q1 -56 44.5 -92t112.5 -36z" />
    <glyph glyph-name="p" unicode="p" horiz-adv-x="813" 
d="M-38 -211l206 724h138l-5 -59q87 75 223 75q110 0 174.5 -61.5t64.5 -159.5q0 -79 -33.5 -143t-87.5 -102t-118 -58.5t-130 -20.5q-124 0 -202 40l-67 -235h-163zM463 410q-103 0 -175 -50l-68 -235q74 -22 145 -22q102 0 167.5 48t65.5 142q0 52 -34 84.5t-101 32.5z
" />
    <glyph glyph-name="q" unicode="q" horiz-adv-x="813" 
d="M422 -211l72 254q-83 -59 -195 -59q-113 0 -181 64t-68 162q0 79 32.5 142t86 100.5t116.5 57t130 19.5q134 0 224 -49l24 33h128l-206 -724h-163zM350 103q101 0 175 49l67 236q-74 22 -144 22q-103 0 -168 -45.5t-65 -139.5q0 -53 34 -87.5t101 -34.5z" />
    <glyph glyph-name="r" unicode="r" horiz-adv-x="530" 
d="M22 0l146 513h142l-13 -81q78 95 189 95q43 0 77 -15l-40 -136q-36 14 -86 14q-97 0 -162 -73l-90 -317h-163z" />
    <glyph glyph-name="s" unicode="s" horiz-adv-x="674" 
d="M260 -15q-69 0 -136.5 13.5t-105.5 34.5l30 108q36 -17 97.5 -28t119.5 -11q159 0 159 44q0 20 -29.5 31t-107.5 29q-96 22 -142 54t-46 88q0 180 303 180q134 0 235 -48l-30 -107q-38 17 -98 28t-110 11q-139 0 -139 -43q0 -19 30 -31t107 -29q95 -22 142 -54t47 -88
q0 -53 -28.5 -90t-78.5 -56.5t-103 -27.5t-116 -8z" />
    <glyph glyph-name="t" unicode="t" horiz-adv-x="549" 
d="M62 401l27 91l119 20l37 129h157l-37 -128h200l-32 -112h-199l-55 -193q-9 -29 -9 -50q0 -48 74 -48q59 0 109 18l-31 -110q-52 -30 -138 -30t-130.5 36.5t-44.5 103.5q0 35 12 77l55 196h-114z" />
    <glyph glyph-name="u" unicode="u" horiz-adv-x="799" 
d="M498 0v53q-82 -69 -214 -69q-91 0 -154.5 42t-63.5 119q0 36 10 69l85 299h162l-81 -285q-7 -22 -7 -47q0 -80 108 -80q95 0 168 50l103 362h163l-146 -513h-133z" />
    <glyph glyph-name="v" unicode="v" horiz-adv-x="691" 
d="M194 0l-114 513h160l68 -362l252 362h177l-374 -513h-169z" />
    <glyph glyph-name="w" unicode="w" horiz-adv-x="1044" 
d="M152 0l-64 513h157l33 -345l222 345h171l26 -349l223 349h176l-356 -513h-169l-26 351l-224 -351h-169z" />
    <glyph glyph-name="x" unicode="x" horiz-adv-x="720" 
d="M-46 0l309 266l-159 247h181l91 -158l172 158h198l-304 -262l168 -251h-184l-97 162l-180 -162h-195z" />
    <glyph glyph-name="y" unicode="y" horiz-adv-x="691" 
d="M12 -225q-56 0 -100 18l30 119q28 -10 55 -10q62 0 107.5 20t80.5 73l8 11l-113 507h160l68 -362l252 362h177l-398 -545q-83 -113 -152.5 -153t-174.5 -40z" />
    <glyph glyph-name="z" unicode="z" horiz-adv-x="693" 
d="M106 399l32 114h557l-25 -88l-412 -311h337l-32 -114h-582l25 89l424 310h-324z" />
    <glyph glyph-name="braceleft" unicode="{" horiz-adv-x="464" 
d="M227 -93q-68 0 -108.5 27t-40.5 80q0 20 8 49l47 165q6 21 6 36q0 44 -56 44h-25l22 78h25q40 0 61.5 18t34.5 62l49 171q22 76 72 98.5t153 22.5h71l-24 -83h-47q-43 0 -61 -14.5t-31 -58.5l-42 -143q-27 -88 -102 -116q42 -25 42 -75q0 -21 -7 -45l-44 -152
q-8 -25 -8 -45q0 -19 11.5 -27.5t37.5 -8.5h57l-24 -83h-77z" />
    <glyph glyph-name="bar" unicode="|" horiz-adv-x="434" 
d="M41 -211l259 935h118l-259 -935h-118z" />
    <glyph glyph-name="braceright" unicode="}" horiz-adv-x="464" 
d="M-66 -93l24 83h47q43 0 61 14.5t31 58.5l42 143q25 87 101 115q-41 25 -41 76q0 21 7 45l44 152q8 29 8 45q0 36 -49 36h-57l24 83h77q68 0 108 -26.5t40 -80.5q0 -24 -7 -49l-47 -165q-6 -21 -6 -36q0 -44 56 -44h25l-22 -78h-25q-40 0 -61.5 -18t-34.5 -62l-49 -171
q-22 -76 -72 -98.5t-153 -22.5h-71z" />
    <glyph glyph-name="asciitilde" unicode="~" horiz-adv-x="590" 
d="M372 188q-40 0 -73 23t-57.5 46t-42.5 23q-20 0 -36.5 -23t-25.5 -57h-97q19 91 65.5 142.5t112.5 51.5q40 0 73 -23t57.5 -46t42.5 -23q20 0 36.5 23t25.5 57h97q-19 -91 -65.5 -142.5t-112.5 -51.5z" />
    <glyph glyph-name="uni00A0" unicode="&#xa0;" horiz-adv-x="341" 
 />
    <glyph glyph-name="exclamdown" unicode="&#xa1;" horiz-adv-x="409" 
d="M266 285l-12 -94q-12 -100 -48 -224l-51 -178h-169l53 186q27 94 81 215l43 95h103zM364 513l-43 -151h-173l43 151h173z" />
    <glyph glyph-name="cent" unicode="&#xa2;" 
d="M305 -30l33 113q-100 23 -163.5 86t-63.5 154q0 145 108 229t281 99l30 103h122l-30 -102q112 -10 191 -49l-33 -109q-86 46 -228 46q-120 0 -201.5 -54.5t-81.5 -150.5q0 -148 210 -148q116 0 233 36l-32 -116q-95 -32 -223 -34l-30 -103h-122z" />
    <glyph glyph-name="sterling" unicode="&#xa3;" 
d="M143 293l32 114h110l27 96q67 237 329 237q43 0 94 -9.5t76 -21.5l-32 -116q-53 23 -138 23q-75 0 -113.5 -34t-57.5 -100l-22 -75h260l-32 -114h-261l-23 -81q-18 -62 -64 -94h375l-33 -118h-641l30 107h19q65 0 100.5 26.5t56.5 98.5l17 61h-109z" />
    <glyph glyph-name="currency" unicode="&#xa4;" 
d="M595 41l-54 102q-75 -23 -158 -23t-142 27l-95 -88l-71 90l83 63q-35 47 -35 108q0 130 115 208l-55 76l106 77l54 -103q72 24 158 24q80 0 142 -28l95 89l71 -90l-83 -64q35 -48 35 -107q0 -128 -115 -209l55 -75zM404 229q89 0 148.5 42.5t59.5 120.5q0 45 -35 73
t-97 28q-89 0 -148.5 -42.5t-59.5 -120.5q0 -45 35 -73t97 -28z" />
    <glyph glyph-name="yen" unicode="&#xa5;" 
d="M124 321l32 114h116l-128 289h174l132 -319l316 319h203l-297 -289h118l-32 -114h-204l-43 -43l-13 -45h234l-32 -114h-234l-34 -119h-165l34 119h-235l32 114h235l11 39l-21 49h-199z" />
    <glyph glyph-name="brokenbar" unicode="&#xa6;" horiz-adv-x="434" 
d="M58 -93l91 325h118l-91 -325h-118zM204 433l91 325h118l-91 -325h-118z" />
    <glyph glyph-name="section" unicode="&#xa7;" 
d="M772 344q0 -48 -36.5 -87.5t-94.5 -63.5q36 -39 36 -87q0 -57 -34 -96t-89 -56t-100 -23.5t-91 -6.5q-175 0 -283 47l32 109q117 -44 244 -44q151 0 151 49q0 39 -75 58l-171 44q-70 18 -106 48.5t-36 84.5q0 48 36 87t94 63q-35 38 -35 88q0 57 34 96t89 56t100 23.5
t91 6.5q175 0 283 -47l-32 -109q-117 44 -244 44q-152 0 -152 -49q0 -39 76 -58l171 -44q70 -18 106 -48.5t36 -84.5zM611 312q0 32 -74 51l-171 44l-31 9q-55 -30 -55 -64q0 -32 74 -51l171 -44q23 -7 30 -10q56 32 56 65z" />
    <glyph glyph-name="dieresis" unicode="&#xa8;" horiz-adv-x="550" 
d="M149 596l38 128h145l-38 -128h-145zM418 596l38 128h145l-38 -128h-145z" />
    <glyph glyph-name="copyright" unicode="&#xa9;" horiz-adv-x="952" 
d="M469 152q-94 0 -145 48.5t-51 116.5q0 109 79 182t218 73q79 0 139 -30l-27 -93q-51 29 -123 29q-75 0 -122 -42.5t-47 -112.5q0 -36 26.5 -57.5t75.5 -21.5q55 0 143 26l-26 -93q-64 -25 -140 -25zM435 -16q-162 0 -260 91t-98 213q0 194 141 323t360 129q162 0 260 -91
t98 -213q0 -194 -141 -323t-360 -129zM445 67q91 0 166 29.5t122.5 79.5t73.5 114.5t26 137.5q0 92 -71.5 160.5t-193.5 68.5q-91 0 -166 -29.5t-122.5 -79.5t-73.5 -114.5t-26 -137.5q0 -92 71.5 -160.5t193.5 -68.5z" />
    <glyph glyph-name="ordfeminine" unicode="&#xaa;" horiz-adv-x="650" 
d="M473 298v47q-70 -61 -177 -61q-94 0 -150.5 53t-56.5 134q0 66 27 118t71 82.5t95 46.5t105 16q118 0 192 -41l19 27h106l-121 -422h-110zM338 383q86 0 147 42l55 191q-64 18 -121 18q-86 0 -140 -36.5t-54 -114.5q0 -43 28.5 -71.5t84.5 -28.5zM9 83l32 110h522
l-32 -110h-522z" />
    <glyph glyph-name="guillemotleft" unicode="&#xab;" horiz-adv-x="734" 
d="M230 114l-153 186l237 186h142l-201 -189l93 -183h-118zM530 114l-153 186l237 186h142l-201 -189l93 -183h-118z" />
    <glyph glyph-name="logicalnot" unicode="&#xac;" horiz-adv-x="690" 
d="M448 60l51 178h-468l34 120h588l-85 -298h-120z" />
    <glyph glyph-name="uni00AD" unicode="&#xad;" horiz-adv-x="473" 
d="M49 230l39 135h353l-39 -135h-353z" />
    <glyph glyph-name="registered" unicode="&#xae;" horiz-adv-x="776" 
d="M378 204q-123 0 -194 61t-71 152q0 135 108 229t278 94q123 0 194 -61t71 -152q0 -135 -108 -229t-278 -94zM386 269q145 0 221.5 72t76.5 181q0 65 -50 109t-143 44q-145 0 -221.5 -72t-76.5 -181q0 -65 50 -109t143 -44zM273 337l80 280h115q55 0 86.5 -18t31.5 -54
q0 -76 -89 -93q13 -9 21 -23l48 -92h-89l-40 82q-8 14 -14 17.5t-26 3.5h-19l-29 -103h-76zM452 560h-40l-18 -65h39q72 0 72 38q0 27 -53 27z" />
    <glyph glyph-name="macron" unicode="&#xaf;" horiz-adv-x="550" 
d="M190 606l31 108h346l-31 -108h-346z" />
    <glyph glyph-name="degree" unicode="&#xb0;" horiz-adv-x="548" 
d="M308 340q-77 0 -129 48t-52 119q0 102 75 167.5t181 65.5q77 0 129 -48t52 -119q0 -102 -75 -167.5t-181 -65.5zM326 436q45 0 86.5 34t41.5 89q0 39 -23.5 62t-65.5 23q-45 0 -86.5 -34t-41.5 -89q0 -39 23.5 -62t65.5 -23z" />
    <glyph glyph-name="plusminus" unicode="&#xb1;" horiz-adv-x="798" 
d="M106 410l34 120h260l56 194h154l-56 -194h260l-34 -120h-260l-57 -199h-154l57 199h-260zM-11 0l34 120h674l-34 -120h-674z" />
    <glyph glyph-name="twosuperior" unicode="&#xb2;" horiz-adv-x="535" 
d="M103 333l20 68l157 91q43 25 64 39t39 35t18 43q0 42 -80 42q-56 0 -122 -24l25 85q56 22 115 22q83 0 134.5 -27.5t51.5 -84.5q0 -33 -13.5 -60.5t-44 -51t-56 -38t-72.5 -38.5l-52 -26h230l-22 -75h-392z" />
    <glyph glyph-name="threesuperior" unicode="&#xb3;" horiz-adv-x="535" 
d="M280 323q-99 0 -163 31l23 79q66 -29 138 -29q59 0 89 16t30 40q0 38 -94 38h-54l24 79h56q105 0 105 39q0 36 -79 36q-85 0 -154 -29l24 78q56 33 151 33q81 0 131 -25.5t50 -68.5q0 -71 -104 -106q68 -23 68 -78q0 -59 -65 -96t-176 -37z" />
    <glyph glyph-name="acute" unicode="&#xb4;" horiz-adv-x="550" 
d="M216 588l130 158h198l-205 -158h-123z" />
    <glyph glyph-name="mu" unicode="&#xb5;" horiz-adv-x="805" 
d="M631 -12q-48 0 -78 20.5t-35 57.5q-37 -36 -96.5 -59t-125.5 -23q-71 0 -129 26q7 -34 -5 -77l-41 -144h-163l208 724h163l-82 -286q-19 -64 11 -95t94 -31q92 0 164 51l103 361h163l-99 -350q-4 -16 -4 -24q0 -30 38 -30q29 0 58 9l-30 -107q-37 -23 -114 -23z" />
    <glyph glyph-name="paragraph" unicode="&#xb6;" horiz-adv-x="840" 
d="M217 -211l148 521q-125 0 -192 49t-67 125q0 56 23 99.5t59.5 69.5t88.5 42.5t103 22.5t109 6h377l-265 -935h-141l236 833h-102l-236 -833h-141z" />
    <glyph glyph-name="periodcentered" unicode="&#xb7;" horiz-adv-x="437" 
d="M105 216l47 167h187l-47 -167h-187z" />
    <glyph glyph-name="cedilla" unicode="&#xb8;" horiz-adv-x="550" 
d="M131 -216q-48 0 -78 14l22 71q30 -8 51 -8q45 0 45 23q0 24 -60 36l76 90h81l-45 -64q53 -20 53 -68q0 -46 -40 -70t-105 -24z" />
    <glyph glyph-name="onesuperior" unicode="&#xb9;" horiz-adv-x="535" 
d="M239 615l25 82l132 27h86l-95 -312h88l-22 -79h-299l23 79h90l67 221z" />
    <glyph glyph-name="ordmasculine" unicode="&#xba;" horiz-adv-x="724" 
d="M396 285q-124 0 -194.5 53.5t-71.5 134.5q-1 122 95.5 191.5t245.5 69.5q124 0 194.5 -53.5t71.5 -134.5q1 -122 -95.5 -191.5t-245.5 -69.5zM402 383q89 0 142 38.5t52 113.5q-1 45 -37 73t-94 28q-89 0 -142 -38.5t-52 -113.5q1 -45 37 -73t94 -28zM9 83l32 110h606
l-32 -110h-606z" />
    <glyph glyph-name="guillemotright" unicode="&#xbb;" horiz-adv-x="734" 
d="M-2 114l200 189l-92 183h118l153 -186l-237 -186h-142zM298 114l200 189l-92 183h118l153 -186l-237 -186h-142z" />
    <glyph glyph-name="onequarter" unicode="&#xbc;" horiz-adv-x="1249" 
d="M239 615l25 82l132 27h86l-95 -312h88l-22 -79h-299l23 79h90l67 221zM131 -30l892 784h146l-892 -784h-146zM935 0l22 73h-244l18 62l336 256h105l-73 -243h85l-23 -75h-84l-22 -73h-120zM866 148h113l33 111z" />
    <glyph glyph-name="onehalf" unicode="&#xbd;" horiz-adv-x="1249" 
d="M239 615l25 82l132 27h86l-95 -312h88l-22 -79h-299l23 79h90l67 221zM131 -30l892 784h146l-892 -784h-146zM724 0l20 68l157 91q43 25 64 39t39 35t18 43q0 42 -80 42q-56 0 -122 -24l25 85q56 22 115 22q83 0 134.5 -27.5t51.5 -84.5q0 -33 -13.5 -60.5t-44 -51
t-56 -38t-72.5 -38.5l-52 -26h230l-22 -75h-392z" />
    <glyph glyph-name="threequarters" unicode="&#xbe;" horiz-adv-x="1249" 
d="M280 323q-99 0 -163 31l23 79q66 -29 138 -29q59 0 89 16t30 40q0 38 -94 38h-54l24 79h56q105 0 105 39q0 36 -79 36q-85 0 -154 -29l24 78q56 33 151 33q81 0 131 -25.5t50 -68.5q0 -71 -104 -106q68 -23 68 -78q0 -59 -65 -96t-176 -37zM131 -30l892 784h146
l-892 -784h-146zM935 0l22 73h-244l18 62l336 256h105l-73 -243h85l-23 -75h-84l-22 -73h-120zM866 148h113l33 111z" />
    <glyph glyph-name="questiondown" unicode="&#xbf;" horiz-adv-x="511" 
d="M398 285l-25 -131l-166 -77q-71 -33 -104 -60t-33 -66q0 -60 129 -60q47 0 115.5 13.5t121.5 33.5l-35 -118q-110 -47 -246 -47q-113 0 -183 44t-70 119q0 20 4 38t9.5 32.5t18 29.5t20.5 25t27.5 23.5t28.5 20.5t34 20t34.5 17.5t38 18.5t36.5 18l92 45l22 61h131z
M481 513l-43 -151h-173l43 151h173z" />
    <glyph glyph-name="Agrave" unicode="&#xc0;" horiz-adv-x="932" 
d="M-71 0l587 724h168l173 -724h-168l-36 150h-415l-120 -150h-189zM565 574l-239 -299h304zM583 772l-130 158h188l55 -158h-113z" />
    <glyph glyph-name="Aacute" unicode="&#xc1;" horiz-adv-x="932" 
d="M-71 0l587 724h168l173 -724h-168l-36 150h-415l-120 -150h-189zM565 574l-239 -299h304zM546 772l130 158h198l-205 -158h-123z" />
    <glyph glyph-name="Acircumflex" unicode="&#xc2;" horiz-adv-x="932" 
d="M-71 0l587 724h168l173 -724h-168l-36 150h-415l-120 -150h-189zM565 574l-239 -299h304zM416 772l149 158h188l59 -158h-115l-55 78l-101 -78h-125z" />
    <glyph glyph-name="Atilde" unicode="&#xc3;" horiz-adv-x="932" 
d="M-71 0l587 724h168l173 -724h-168l-36 150h-415l-120 -150h-189zM565 574l-239 -299h304zM698 768q-40 0 -87.5 27.5t-65.5 27.5q-33 0 -51 -51h-89q38 162 150 162q40 0 87.5 -27.5t65.5 -27.5q33 0 51 51h89q-38 -162 -150 -162z" />
    <glyph glyph-name="Adieresis" unicode="&#xc4;" horiz-adv-x="932" 
d="M-71 0l587 724h168l173 -724h-168l-36 150h-415l-120 -150h-189zM565 574l-239 -299h304zM416 780l38 128h145l-38 -128h-145zM685 780l38 128h145l-38 -128h-145z" />
    <glyph glyph-name="Aring" unicode="&#xc5;" horiz-adv-x="932" 
d="M-71 0l587 724h168l173 -724h-168l-36 150h-415l-120 -150h-189zM565 574l-239 -299h304zM616 752q-44 0 -74.5 27.5t-30.5 67.5q0 55 40.5 94t98.5 39q44 0 74.5 -27.5t30.5 -67.5q0 -55 -40.5 -94t-98.5 -39zM626 815q22 0 40 17.5t18 42.5q0 17 -12.5 29t-31.5 12
q-22 0 -40 -17.5t-18 -42.5q0 -17 12.5 -29t31.5 -12z" />
    <glyph glyph-name="AE" unicode="&#xc6;" horiz-adv-x="1280" 
d="M523 0l45 160h-335l-131 -160h-190l605 724h823l-34 -118h-445l-50 -176h381l-34 -118h-380l-56 -194h448l-33 -118h-614zM597 606l-262 -321h269l91 321h-98z" />
    <glyph glyph-name="Ccedilla" unicode="&#xc7;" horiz-adv-x="823" 
d="M340 -214q-48 0 -78 14l22 71q30 -8 51 -8q45 0 45 23q0 24 -60 36l59 70q-139 23 -207.5 107t-68.5 193q0 193 145 320.5t371 127.5q172 0 278 -53l-35 -124q-104 52 -243 52q-147 0 -247.5 -88t-100.5 -227q0 -86 57.5 -138.5t175.5 -52.5q104 0 252 45l-38 -132
q-106 -38 -243 -38q-3 0 -9 0.5t-9 0.5l-25 -37q53 -20 53 -68q0 -46 -40 -70t-105 -24z" />
    <glyph glyph-name="Egrave" unicode="&#xc8;" horiz-adv-x="802" 
d="M35 0l206 724h611l-34 -118h-445l-50 -176h381l-34 -118h-381l-55 -194h448l-33 -118h-614zM526 772l-130 158h188l55 -158h-113z" />
    <glyph glyph-name="Eacute" unicode="&#xc9;" horiz-adv-x="802" 
d="M35 0l206 724h611l-34 -118h-445l-50 -176h381l-34 -118h-381l-55 -194h448l-33 -118h-614zM489 772l130 158h198l-205 -158h-123z" />
    <glyph glyph-name="Ecircumflex" unicode="&#xca;" horiz-adv-x="802" 
d="M35 0l206 724h611l-34 -118h-445l-50 -176h381l-34 -118h-381l-55 -194h448l-33 -118h-614zM359 772l149 158h188l59 -158h-115l-55 78l-101 -78h-125z" />
    <glyph glyph-name="Edieresis" unicode="&#xcb;" horiz-adv-x="802" 
d="M35 0l206 724h611l-34 -118h-445l-50 -176h381l-34 -118h-381l-55 -194h448l-33 -118h-614zM359 780l38 128h145l-38 -128h-145zM628 780l38 128h145l-38 -128h-145z" />
    <glyph glyph-name="Igrave" unicode="&#xcc;" horiz-adv-x="551" 
d="M176 606l34 118h399l-34 -118h-117l-139 -488h117l-34 -118h-399l34 118h116l139 488h-116zM385 772l-130 158h188l55 -158h-113z" />
    <glyph glyph-name="Iacute" unicode="&#xcd;" horiz-adv-x="551" 
d="M176 606l34 118h399l-34 -118h-117l-139 -488h117l-34 -118h-399l34 118h116l139 488h-116zM348 772l130 158h198l-205 -158h-123z" />
    <glyph glyph-name="Icircumflex" unicode="&#xce;" horiz-adv-x="551" 
d="M176 606l34 118h399l-34 -118h-117l-139 -488h117l-34 -118h-399l34 118h116l139 488h-116zM218 772l149 158h188l59 -158h-115l-55 78l-101 -78h-125z" />
    <glyph glyph-name="Idieresis" unicode="&#xcf;" horiz-adv-x="551" 
d="M176 606l34 118h399l-34 -118h-117l-139 -488h117l-34 -118h-399l34 118h116l139 488h-116zM218 780l38 128h145l-38 -128h-145zM487 780l38 128h145l-38 -128h-145z" />
    <glyph glyph-name="Eth" unicode="&#xd0;" horiz-adv-x="946" 
d="M65 309l31 108h67l88 307h336q156 0 247.5 -82.5t91.5 -201.5q0 -198 -145 -319t-367 -121h-370l88 309h-67zM534 606h-151l-54 -189h141l-31 -108h-141l-55 -191h168q164 0 256 85t92 219q0 82 -56 133t-169 51z" />
    <glyph glyph-name="Ntilde" unicode="&#xd1;" horiz-adv-x="983" 
d="M35 0l206 724h179l273 -540l154 540h162l-207 -724h-178l-274 538l-153 -538h-162zM693 768q-40 0 -87.5 27.5t-65.5 27.5q-33 0 -51 -51h-89q38 162 150 162q40 0 87.5 -27.5t65.5 -27.5q33 0 51 51h89q-38 -162 -150 -162z" />
    <glyph glyph-name="Ograve" unicode="&#xd2;" horiz-adv-x="979" 
d="M441 -16q-163 0 -259.5 89.5t-96.5 214.5q0 197 145 324.5t364 127.5q163 0 259.5 -88t96.5 -212q0 -197 -145.5 -326.5t-363.5 -129.5zM460 111q138 0 229 88.5t91 222.5q0 81 -54 136t-151 55q-139 0 -229.5 -87t-90.5 -220q0 -81 54 -138t151 -57zM575 772l-130 158
h188l55 -158h-113z" />
    <glyph glyph-name="Oacute" unicode="&#xd3;" horiz-adv-x="979" 
d="M441 -16q-163 0 -259.5 89.5t-96.5 214.5q0 197 145 324.5t364 127.5q163 0 259.5 -88t96.5 -212q0 -197 -145.5 -326.5t-363.5 -129.5zM460 111q138 0 229 88.5t91 222.5q0 81 -54 136t-151 55q-139 0 -229.5 -87t-90.5 -220q0 -81 54 -138t151 -57zM538 772l130 158
h198l-205 -158h-123z" />
    <glyph glyph-name="Ocircumflex" unicode="&#xd4;" horiz-adv-x="979" 
d="M441 -16q-163 0 -259.5 89.5t-96.5 214.5q0 197 145 324.5t364 127.5q163 0 259.5 -88t96.5 -212q0 -197 -145.5 -326.5t-363.5 -129.5zM460 111q138 0 229 88.5t91 222.5q0 81 -54 136t-151 55q-139 0 -229.5 -87t-90.5 -220q0 -81 54 -138t151 -57zM408 772l149 158
h188l59 -158h-115l-55 78l-101 -78h-125z" />
    <glyph glyph-name="Otilde" unicode="&#xd5;" horiz-adv-x="979" 
d="M441 -16q-163 0 -259.5 89.5t-96.5 214.5q0 197 145 324.5t364 127.5q163 0 259.5 -88t96.5 -212q0 -197 -145.5 -326.5t-363.5 -129.5zM460 111q138 0 229 88.5t91 222.5q0 81 -54 136t-151 55q-139 0 -229.5 -87t-90.5 -220q0 -81 54 -138t151 -57zM690 768
q-40 0 -87.5 27.5t-65.5 27.5q-33 0 -51 -51h-89q38 162 150 162q40 0 87.5 -27.5t65.5 -27.5q33 0 51 51h89q-38 -162 -150 -162z" />
    <glyph glyph-name="Odieresis" unicode="&#xd6;" horiz-adv-x="979" 
d="M441 -16q-163 0 -259.5 89.5t-96.5 214.5q0 197 145 324.5t364 127.5q163 0 259.5 -88t96.5 -212q0 -197 -145.5 -326.5t-363.5 -129.5zM460 111q138 0 229 88.5t91 222.5q0 81 -54 136t-151 55q-139 0 -229.5 -87t-90.5 -220q0 -81 54 -138t151 -57zM408 780l38 128h145
l-38 -128h-145zM677 780l38 128h145l-38 -128h-145z" />
    <glyph glyph-name="multiply" unicode="&#xd7;" horiz-adv-x="798" 
d="M122 49l-94 79l276 176l-162 164l106 79l169 -171l267 171l94 -79l-277 -177l163 -163l-106 -79l-169 170z" />
    <glyph glyph-name="Oslash" unicode="&#xd8;" horiz-adv-x="979" 
d="M441 -16q-139 0 -234 69l-67 -53h-166l161 126q-50 73 -50 162q0 197 145 324.5t364 127.5q138 0 235 -69l68 53h166l-162 -127q49 -72 49 -157q0 -197 -145.5 -326.5t-363.5 -129.5zM255 306q0 -42 13 -75l438 343q-54 39 -131 39q-139 0 -229.5 -87t-90.5 -220z
M460 111q138 0 229 88.5t91 222.5q0 37 -12 70l-438 -343q52 -38 130 -38z" />
    <glyph glyph-name="Ugrave" unicode="&#xd9;" horiz-adv-x="916" 
d="M394 -16q-140 0 -220 63.5t-80 169.5q0 43 13 86l120 421h165l-121 -425q-13 -47 -13 -77q0 -112 158 -112q103 0 164.5 46.5t89.5 143.5l121 424h165l-127 -443q-31 -107 -79 -169.5t-134.5 -95t-221.5 -32.5zM567 772l-130 158h188l55 -158h-113z" />
    <glyph glyph-name="Uacute" unicode="&#xda;" horiz-adv-x="916" 
d="M394 -16q-140 0 -220 63.5t-80 169.5q0 43 13 86l120 421h165l-121 -425q-13 -47 -13 -77q0 -112 158 -112q103 0 164.5 46.5t89.5 143.5l121 424h165l-127 -443q-31 -107 -79 -169.5t-134.5 -95t-221.5 -32.5zM530 772l130 158h198l-205 -158h-123z" />
    <glyph glyph-name="Ucircumflex" unicode="&#xdb;" horiz-adv-x="916" 
d="M394 -16q-140 0 -220 63.5t-80 169.5q0 43 13 86l120 421h165l-121 -425q-13 -47 -13 -77q0 -112 158 -112q103 0 164.5 46.5t89.5 143.5l121 424h165l-127 -443q-31 -107 -79 -169.5t-134.5 -95t-221.5 -32.5zM400 772l149 158h188l59 -158h-115l-55 78l-101 -78h-125z
" />
    <glyph glyph-name="Udieresis" unicode="&#xdc;" horiz-adv-x="916" 
d="M394 -16q-140 0 -220 63.5t-80 169.5q0 43 13 86l120 421h165l-121 -425q-13 -47 -13 -77q0 -112 158 -112q103 0 164.5 46.5t89.5 143.5l121 424h165l-127 -443q-31 -107 -79 -169.5t-134.5 -95t-221.5 -32.5zM400 780l38 128h145l-38 -128h-145zM669 780l38 128h145
l-38 -128h-145z" />
    <glyph glyph-name="Yacute" unicode="&#xdd;" horiz-adv-x="821" 
d="M255 0l79 280l-202 444h174l137 -319l311 319h203l-460 -454l-77 -270h-165zM466 772l130 158h198l-205 -158h-123z" />
    <glyph glyph-name="Thorn" unicode="&#xde;" horiz-adv-x="817" 
d="M35 0l206 724h166l-34 -120h136q142 0 221.5 -50t79.5 -140q0 -286 -432 -286h-141l-36 -128h-166zM493 486h-154l-68 -240h138q43 0 81 6.5t74.5 22t58 47t21.5 76.5q0 88 -151 88z" />
    <glyph glyph-name="germandbls" unicode="&#xdf;" horiz-adv-x="838" 
d="M-39 -211l203 708q69 243 355 243q124 0 199.5 -45t75.5 -115q0 -84 -62.5 -130t-180.5 -78l18 -5q116 -36 165 -81.5t49 -109.5q0 -53 -25 -92t-69 -60t-94.5 -30.5t-109.5 -9.5q-56 0 -115 12t-88 28l32 110q29 -13 83.5 -23t101.5 -10q54 0 88 18.5t34 56.5
q0 30 -24.5 52.5t-94.5 48.5l-137 52l27 94l102 33q71 23 103.5 45t32.5 56q0 30 -33.5 50t-89.5 20q-77 0 -121 -37.5t-68 -122.5l-195 -678h-162z" />
    <glyph glyph-name="agrave" unicode="&#xe0;" horiz-adv-x="813" 
d="M513 0v55q-83 -71 -214 -71q-113 0 -181 64t-68 162q0 79 32.5 142t86 100.5t116.5 57t130 19.5q133 0 222 -52l26 36h128l-146 -513h-132zM350 103q101 0 175 49l67 236q-74 22 -144 22q-103 0 -168 -45.5t-65 -139.5q0 -53 34 -87.5t101 -34.5zM407 588l-130 158h188
l55 -158h-113z" />
    <glyph glyph-name="aacute" unicode="&#xe1;" horiz-adv-x="813" 
d="M513 0v55q-83 -71 -214 -71q-113 0 -181 64t-68 162q0 79 32.5 142t86 100.5t116.5 57t130 19.5q133 0 222 -52l26 36h128l-146 -513h-132zM350 103q101 0 175 49l67 236q-74 22 -144 22q-103 0 -168 -45.5t-65 -139.5q0 -53 34 -87.5t101 -34.5zM370 588l130 158h198
l-205 -158h-123z" />
    <glyph glyph-name="acircumflex" unicode="&#xe2;" horiz-adv-x="813" 
d="M513 0v55q-83 -71 -214 -71q-113 0 -181 64t-68 162q0 79 32.5 142t86 100.5t116.5 57t130 19.5q133 0 222 -52l26 36h128l-146 -513h-132zM350 103q101 0 175 49l67 236q-74 22 -144 22q-103 0 -168 -45.5t-65 -139.5q0 -53 34 -87.5t101 -34.5zM240 588l149 158h188
l59 -158h-115l-55 78l-101 -78h-125z" />
    <glyph glyph-name="atilde" unicode="&#xe3;" horiz-adv-x="813" 
d="M513 0v55q-83 -71 -214 -71q-113 0 -181 64t-68 162q0 79 32.5 142t86 100.5t116.5 57t130 19.5q133 0 222 -52l26 36h128l-146 -513h-132zM350 103q101 0 175 49l67 236q-74 22 -144 22q-103 0 -168 -45.5t-65 -139.5q0 -53 34 -87.5t101 -34.5zM522 584
q-40 0 -87.5 27.5t-65.5 27.5q-33 0 -51 -51h-89q38 162 150 162q40 0 87.5 -27.5t65.5 -27.5q33 0 51 51h89q-38 -162 -150 -162z" />
    <glyph glyph-name="adieresis" unicode="&#xe4;" horiz-adv-x="813" 
d="M513 0v55q-83 -71 -214 -71q-113 0 -181 64t-68 162q0 79 32.5 142t86 100.5t116.5 57t130 19.5q133 0 222 -52l26 36h128l-146 -513h-132zM350 103q101 0 175 49l67 236q-74 22 -144 22q-103 0 -168 -45.5t-65 -139.5q0 -53 34 -87.5t101 -34.5zM240 596l38 128h145
l-38 -128h-145zM509 596l38 128h145l-38 -128h-145z" />
    <glyph glyph-name="aring" unicode="&#xe5;" horiz-adv-x="813" 
d="M513 0v55q-83 -71 -214 -71q-113 0 -181 64t-68 162q0 79 32.5 142t86 100.5t116.5 57t130 19.5q133 0 222 -52l26 36h128l-146 -513h-132zM350 103q101 0 175 49l67 236q-74 22 -144 22q-103 0 -168 -45.5t-65 -139.5q0 -53 34 -87.5t101 -34.5zM444 584
q-44 0 -74.5 27.5t-30.5 67.5q0 55 40.5 94t98.5 39q44 0 74.5 -27.5t30.5 -67.5q0 -55 -40.5 -94t-98.5 -39zM454 647q22 0 40 17.5t18 42.5q0 17 -12.5 29t-31.5 12q-22 0 -40 -17.5t-18 -42.5q0 -17 12.5 -29t31.5 -12z" />
    <glyph glyph-name="ae" unicode="&#xe6;" horiz-adv-x="1149" 
d="M760 -15q-167 0 -247 86q-127 -87 -275 -87q-99 0 -156.5 38t-57.5 106q0 181 360 181h90q4 12 4 26q0 75 -136 75q-115 0 -230 -42l33 112q112 49 238 49q155 0 206 -69q87 69 236 69q127 0 204.5 -56t77.5 -141q0 -59 -25 -116h-464q1 -55 43.5 -84t140.5 -29
q48 0 112.5 12.5t112.5 31.5l-31 -114q-96 -48 -236 -48zM275 88q99 0 197 49q-12 35 -12 72v7h-45q-119 0 -171.5 -17t-52.5 -57q0 -54 84 -54zM811 419q-137 0 -179 -110h317q1 4 1 12q0 47 -38.5 72.5t-100.5 25.5z" />
    <glyph glyph-name="ccedilla" unicode="&#xe7;" horiz-adv-x="641" 
d="M214 -216q-48 0 -78 14l22 71q30 -8 51 -8q45 0 45 23q0 24 -60 36l60 71q-96 18 -150 78t-54 147q0 67 23 121t61 89t89 59t104.5 34t110.5 10q129 0 195 -33l-32 -112q-60 24 -157 24t-163 -43t-66 -137q0 -54 40 -90t122 -36q33 0 83.5 9.5t82.5 23.5l-35 -118
q-26 -13 -78 -23t-98 -10l-26 -38q53 -20 53 -68q0 -46 -40 -70t-105 -24z" />
    <glyph glyph-name="egrave" unicode="&#xe8;" horiz-adv-x="739" 
d="M350 -15q-143 0 -221.5 62.5t-78.5 161.5q0 144 104 232t261 88q127 0 204.5 -56t77.5 -141q0 -59 -25 -116h-464q1 -55 43.5 -84t140.5 -29q48 0 112.5 12.5t112.5 31.5l-31 -114q-96 -48 -236 -48zM401 419q-137 0 -179 -110h317q1 4 1 12q0 47 -38.5 72.5t-100.5 25.5
zM383 588l-130 158h188l55 -158h-113z" />
    <glyph glyph-name="eacute" unicode="&#xe9;" horiz-adv-x="739" 
d="M350 -15q-143 0 -221.5 62.5t-78.5 161.5q0 144 104 232t261 88q127 0 204.5 -56t77.5 -141q0 -59 -25 -116h-464q1 -55 43.5 -84t140.5 -29q48 0 112.5 12.5t112.5 31.5l-31 -114q-96 -48 -236 -48zM401 419q-137 0 -179 -110h317q1 4 1 12q0 47 -38.5 72.5t-100.5 25.5
zM346 588l130 158h198l-205 -158h-123z" />
    <glyph glyph-name="ecircumflex" unicode="&#xea;" horiz-adv-x="739" 
d="M350 -15q-143 0 -221.5 62.5t-78.5 161.5q0 144 104 232t261 88q127 0 204.5 -56t77.5 -141q0 -59 -25 -116h-464q1 -55 43.5 -84t140.5 -29q48 0 112.5 12.5t112.5 31.5l-31 -114q-96 -48 -236 -48zM401 419q-137 0 -179 -110h317q1 4 1 12q0 47 -38.5 72.5t-100.5 25.5
zM216 588l149 158h188l59 -158h-115l-55 78l-101 -78h-125z" />
    <glyph glyph-name="edieresis" unicode="&#xeb;" horiz-adv-x="739" 
d="M350 -15q-143 0 -221.5 62.5t-78.5 161.5q0 144 104 232t261 88q127 0 204.5 -56t77.5 -141q0 -59 -25 -116h-464q1 -55 43.5 -84t140.5 -29q48 0 112.5 12.5t112.5 31.5l-31 -114q-96 -48 -236 -48zM401 419q-137 0 -179 -110h317q1 4 1 12q0 47 -38.5 72.5t-100.5 25.5
zM216 596l38 128h145l-38 -128h-145zM485 596l38 128h145l-38 -128h-145z" />
    <glyph glyph-name="igrave" unicode="&#xec;" horiz-adv-x="353" 
d="M22 0l146 513h163l-146 -513h-163zM234 588l-130 158h188l55 -158h-113z" />
    <glyph glyph-name="iacute" unicode="&#xed;" horiz-adv-x="353" 
d="M22 0l146 513h163l-146 -513h-163zM197 588l130 158h198l-205 -158h-123z" />
    <glyph glyph-name="icircumflex" unicode="&#xee;" horiz-adv-x="353" 
d="M22 0l146 513h163l-146 -513h-163zM67 588l149 158h188l59 -158h-115l-55 78l-101 -78h-125z" />
    <glyph glyph-name="idieresis" unicode="&#xef;" horiz-adv-x="353" 
d="M22 0l146 513h163l-146 -513h-163zM67 596l38 128h145l-38 -128h-145zM336 596l38 128h145l-38 -128h-145z" />
    <glyph glyph-name="eth" unicode="&#xf0;" horiz-adv-x="794" 
d="M299 510l26 90l78 27q-48 26 -102 39l44 78q100 -19 185 -72l207 72l-26 -91l-107 -38q127 -120 127 -299q0 -332 -384 -332q-139 0 -218 62t-79 159q0 73 29.5 130t78 90t104.5 49.5t115 16.5q118 0 199 -56q-25 78 -94 138zM355 98q212 0 212 159q0 56 -46 88t-124 32
q-80 0 -133 -38t-53 -121q0 -55 42 -87.5t102 -32.5z" />
    <glyph glyph-name="ntilde" unicode="&#xf1;" horiz-adv-x="808" 
d="M22 0l146 513h133v-56q84 72 223 72q93 0 155.5 -42t62.5 -119q0 -36 -10 -69l-85 -299h-163l81 285q7 22 7 47q0 80 -109 80q-104 0 -176 -52l-102 -360h-163zM579 584q-40 0 -87.5 27.5t-65.5 27.5q-33 0 -51 -51h-89q38 162 150 162q40 0 87.5 -27.5t65.5 -27.5
q33 0 51 51h89q-38 -162 -150 -162z" />
    <glyph glyph-name="ograve" unicode="&#xf2;" horiz-adv-x="794" 
d="M365 -16q-146 0 -229.5 65t-84.5 163q-1 147 108 232t270 85q146 0 229.5 -65t84.5 -163q1 -147 -108 -232t-270 -85zM373 98q89 0 147.5 48.5t57.5 140.5q-1 56 -44.5 92t-112.5 36q-89 0 -147.5 -48.5t-57.5 -140.5q1 -56 44.5 -92t112.5 -36zM402 588l-130 158h188
l55 -158h-113z" />
    <glyph glyph-name="oacute" unicode="&#xf3;" horiz-adv-x="794" 
d="M365 -16q-146 0 -229.5 65t-84.5 163q-1 147 108 232t270 85q146 0 229.5 -65t84.5 -163q1 -147 -108 -232t-270 -85zM373 98q89 0 147.5 48.5t57.5 140.5q-1 56 -44.5 92t-112.5 36q-89 0 -147.5 -48.5t-57.5 -140.5q1 -56 44.5 -92t112.5 -36zM365 588l130 158h198
l-205 -158h-123z" />
    <glyph glyph-name="ocircumflex" unicode="&#xf4;" horiz-adv-x="794" 
d="M365 -16q-146 0 -229.5 65t-84.5 163q-1 147 108 232t270 85q146 0 229.5 -65t84.5 -163q1 -147 -108 -232t-270 -85zM373 98q89 0 147.5 48.5t57.5 140.5q-1 56 -44.5 92t-112.5 36q-89 0 -147.5 -48.5t-57.5 -140.5q1 -56 44.5 -92t112.5 -36zM235 588l149 158h188
l59 -158h-115l-55 78l-101 -78h-125z" />
    <glyph glyph-name="otilde" unicode="&#xf5;" horiz-adv-x="794" 
d="M365 -16q-146 0 -229.5 65t-84.5 163q-1 147 108 232t270 85q146 0 229.5 -65t84.5 -163q1 -147 -108 -232t-270 -85zM373 98q89 0 147.5 48.5t57.5 140.5q-1 56 -44.5 92t-112.5 36q-89 0 -147.5 -48.5t-57.5 -140.5q1 -56 44.5 -92t112.5 -36zM517 584
q-40 0 -87.5 27.5t-65.5 27.5q-33 0 -51 -51h-89q38 162 150 162q40 0 87.5 -27.5t65.5 -27.5q33 0 51 51h89q-38 -162 -150 -162z" />
    <glyph glyph-name="odieresis" unicode="&#xf6;" horiz-adv-x="794" 
d="M365 -16q-146 0 -229.5 65t-84.5 163q-1 147 108 232t270 85q146 0 229.5 -65t84.5 -163q1 -147 -108 -232t-270 -85zM373 98q89 0 147.5 48.5t57.5 140.5q-1 56 -44.5 92t-112.5 36q-89 0 -147.5 -48.5t-57.5 -140.5q1 -56 44.5 -92t112.5 -36zM235 596l38 128h145
l-38 -128h-145zM504 596l38 128h145l-38 -128h-145z" />
    <glyph glyph-name="divide" unicode="&#xf7;" horiz-adv-x="798" 
d="M224 0l47 167h187l-47 -167h-187zM45 238l34 120h674l-34 -120h-674zM346 429l47 167h187l-47 -167h-187z" />
    <glyph glyph-name="oslash" unicode="&#xf8;" horiz-adv-x="794" 
d="M365 -16q-132 0 -215 54l-57 -38h-151l145 98q-36 52 -36 114q-1 147 108 232t270 85q131 0 215 -55l58 39h151l-146 -99q34 -49 36 -113q1 -147 -108 -232t-270 -85zM216 226q0 -20 6 -37l297 200q-42 26 -98 26q-89 0 -147.5 -48.5t-57.5 -140.5zM373 98
q89 0 147.5 48.5t57.5 140.5q0 19 -6 36l-297 -200q41 -25 98 -25z" />
    <glyph glyph-name="ugrave" unicode="&#xf9;" horiz-adv-x="799" 
d="M498 0v53q-82 -69 -214 -69q-91 0 -154.5 42t-63.5 119q0 36 10 69l85 299h162l-81 -285q-7 -22 -7 -47q0 -80 108 -80q95 0 168 50l103 362h163l-146 -513h-133zM452 588l-130 158h188l55 -158h-113z" />
    <glyph glyph-name="uacute" unicode="&#xfa;" horiz-adv-x="799" 
d="M498 0v53q-82 -69 -214 -69q-91 0 -154.5 42t-63.5 119q0 36 10 69l85 299h162l-81 -285q-7 -22 -7 -47q0 -80 108 -80q95 0 168 50l103 362h163l-146 -513h-133zM415 588l130 158h198l-205 -158h-123z" />
    <glyph glyph-name="ucircumflex" unicode="&#xfb;" horiz-adv-x="799" 
d="M498 0v53q-82 -69 -214 -69q-91 0 -154.5 42t-63.5 119q0 36 10 69l85 299h162l-81 -285q-7 -22 -7 -47q0 -80 108 -80q95 0 168 50l103 362h163l-146 -513h-133zM285 588l149 158h188l59 -158h-115l-55 78l-101 -78h-125z" />
    <glyph glyph-name="udieresis" unicode="&#xfc;" horiz-adv-x="799" 
d="M498 0v53q-82 -69 -214 -69q-91 0 -154.5 42t-63.5 119q0 36 10 69l85 299h162l-81 -285q-7 -22 -7 -47q0 -80 108 -80q95 0 168 50l103 362h163l-146 -513h-133zM285 596l38 128h145l-38 -128h-145zM554 596l38 128h145l-38 -128h-145z" />
    <glyph glyph-name="yacute" unicode="&#xfd;" horiz-adv-x="691" 
d="M12 -225q-56 0 -100 18l30 119q28 -10 55 -10q62 0 107.5 20t80.5 73l8 11l-113 507h160l68 -362l252 362h177l-398 -545q-83 -113 -152.5 -153t-174.5 -40zM334 588l130 158h198l-205 -158h-123z" />
    <glyph glyph-name="thorn" unicode="&#xfe;" horiz-adv-x="813" 
d="M-38 -211l266 935h163l-72 -254q78 59 195 59q113 0 181 -64t68 -162q0 -79 -32.5 -142t-85.5 -100.5t-114.5 -57t-126.5 -19.5q-127 0 -213 39l-66 -234h-163zM463 410q-103 0 -176 -50l-67 -235q70 -21 145 -21q104 0 168.5 45t64.5 139q0 53 -34 87.5t-101 34.5z" />
    <glyph glyph-name="ydieresis" unicode="&#xff;" horiz-adv-x="691" 
d="M12 -225q-56 0 -100 18l30 119q28 -10 55 -10q62 0 107.5 20t80.5 73l8 11l-113 507h160l68 -362l252 362h177l-398 -545q-83 -113 -152.5 -153t-174.5 -40zM204 596l38 128h145l-38 -128h-145zM473 596l38 128h145l-38 -128h-145z" />
    <glyph glyph-name="Amacron" unicode="&#x100;" horiz-adv-x="932" 
d="M-71 0l587 724h168l173 -724h-168l-36 150h-415l-120 -150h-189zM565 574l-239 -299h304zM454 790l31 108h346l-31 -108h-346z" />
    <glyph glyph-name="amacron" unicode="&#x101;" horiz-adv-x="813" 
d="M513 0v55q-83 -71 -214 -71q-113 0 -181 64t-68 162q0 79 32.5 142t86 100.5t116.5 57t130 19.5q133 0 222 -52l26 36h128l-146 -513h-132zM350 103q101 0 175 49l67 236q-74 22 -144 22q-103 0 -168 -45.5t-65 -139.5q0 -53 34 -87.5t101 -34.5zM278 606l31 108h346
l-31 -108h-346z" />
    <glyph glyph-name="Abreve" unicode="&#x102;" horiz-adv-x="932" 
d="M-71 0l587 724h168l173 -724h-168l-36 150h-415l-120 -150h-189zM565 574l-239 -299h304zM619 765q-83 0 -123 47.5t-24 117.5h92q4 -60 71 -60q69 0 105 60h102q-25 -75 -80.5 -120t-142.5 -45z" />
    <glyph glyph-name="abreve" unicode="&#x103;" horiz-adv-x="813" 
d="M513 0v55q-83 -71 -214 -71q-113 0 -181 64t-68 162q0 79 32.5 142t86 100.5t116.5 57t130 19.5q133 0 222 -52l26 36h128l-146 -513h-132zM350 103q101 0 175 49l67 236q-74 22 -144 22q-103 0 -168 -45.5t-65 -139.5q0 -53 34 -87.5t101 -34.5zM443 581
q-83 0 -123 47.5t-24 117.5h92q4 -60 71 -60q69 0 105 60h102q-25 -75 -80.5 -120t-142.5 -45z" />
    <glyph glyph-name="Aogonek" unicode="&#x104;" horiz-adv-x="932" 
d="M696 -216q-50 0 -82 21.5t-32 63.5q0 69 107 131l-36 150h-415l-120 -150h-189l587 724h168l173 -724h-64q-92 -68 -92 -103q0 -29 44 -29q14 0 42 4l-23 -80q-34 -8 -68 -8zM565 574l-239 -299h304z" />
    <glyph glyph-name="aogonek" unicode="&#x105;" horiz-adv-x="813" 
d="M507 -216q-50 0 -82 21.5t-32 63.5q0 40 34.5 76t85.5 62v48q-83 -71 -214 -71q-113 0 -181 64t-68 162q0 79 32.5 142t86 100.5t116.5 57t130 19.5q133 0 222 -52l26 36h128l-146 -513h-41q-92 -68 -92 -103q0 -29 44 -29q14 0 42 4l-23 -80q-34 -8 -68 -8zM350 103
q101 0 175 49l67 236q-74 22 -144 22q-103 0 -168 -45.5t-65 -139.5q0 -53 34 -87.5t101 -34.5z" />
    <glyph glyph-name="Cacute" unicode="&#x106;" horiz-adv-x="823" 
d="M475 -16q-96 0 -170 26.5t-117 71t-64 98t-21 112.5q0 193 145 320.5t371 127.5q172 0 278 -53l-35 -124q-104 52 -243 52q-147 0 -247.5 -88t-100.5 -227q0 -86 57.5 -138.5t175.5 -52.5q104 0 252 45l-38 -132q-106 -38 -243 -38zM543 772l130 158h198l-205 -158h-123z
" />
    <glyph glyph-name="cacute" unicode="&#x107;" horiz-adv-x="641" 
d="M331 -16q-129 0 -205 64t-76 168q0 67 23 121t61 89t89 59t104.5 34t110.5 10q129 0 195 -33l-32 -112q-60 24 -157 24t-163 -43t-66 -137q0 -54 40 -90t122 -36q33 0 83.5 9.5t82.5 23.5l-35 -118q-26 -13 -78.5 -23t-98.5 -10zM343 588l130 158h198l-205 -158h-123z
" />
    <glyph glyph-name="Ccircumflex" unicode="&#x108;" horiz-adv-x="823" 
d="M475 -16q-96 0 -170 26.5t-117 71t-64 98t-21 112.5q0 193 145 320.5t371 127.5q172 0 278 -53l-35 -124q-104 52 -243 52q-147 0 -247.5 -88t-100.5 -227q0 -86 57.5 -138.5t175.5 -52.5q104 0 252 45l-38 -132q-106 -38 -243 -38zM413 772l149 158h188l59 -158h-115
l-55 78l-101 -78h-125z" />
    <glyph glyph-name="ccircumflex" unicode="&#x109;" horiz-adv-x="641" 
d="M331 -16q-129 0 -205 64t-76 168q0 67 23 121t61 89t89 59t104.5 34t110.5 10q129 0 195 -33l-32 -112q-60 24 -157 24t-163 -43t-66 -137q0 -54 40 -90t122 -36q33 0 83.5 9.5t82.5 23.5l-35 -118q-26 -13 -78.5 -23t-98.5 -10zM213 588l149 158h188l59 -158h-115
l-55 78l-101 -78h-125z" />
    <glyph glyph-name="Cdotaccent" unicode="&#x10a;" horiz-adv-x="823" 
d="M475 -16q-96 0 -170 26.5t-117 71t-64 98t-21 112.5q0 193 145 320.5t371 127.5q172 0 278 -53l-35 -124q-104 52 -243 52q-147 0 -247.5 -88t-100.5 -227q0 -86 57.5 -138.5t175.5 -52.5q104 0 252 45l-38 -132q-106 -38 -243 -38zM544 790l39 136h161l-39 -136h-161z
" />
    <glyph glyph-name="cdotaccent" unicode="&#x10b;" horiz-adv-x="641" 
d="M331 -16q-129 0 -205 64t-76 168q0 67 23 121t61 89t89 59t104.5 34t110.5 10q129 0 195 -33l-32 -112q-60 24 -157 24t-163 -43t-66 -137q0 -54 40 -90t122 -36q33 0 83.5 9.5t82.5 23.5l-35 -118q-26 -13 -78.5 -23t-98.5 -10zM344 606l39 136h161l-39 -136h-161z" />
    <glyph glyph-name="Ccaron" unicode="&#x10c;" horiz-adv-x="823" 
d="M475 -16q-96 0 -170 26.5t-117 71t-64 98t-21 112.5q0 193 145 320.5t371 127.5q172 0 278 -53l-35 -124q-104 52 -243 52q-147 0 -247.5 -88t-100.5 -227q0 -86 57.5 -138.5t175.5 -52.5q104 0 252 45l-38 -132q-106 -38 -243 -38zM508 772l-59 158h115l55 -78l101 78
h125l-149 -158h-188z" />
    <glyph glyph-name="ccaron" unicode="&#x10d;" horiz-adv-x="641" 
d="M331 -16q-129 0 -205 64t-76 168q0 67 23 121t61 89t89 59t104.5 34t110.5 10q129 0 195 -33l-32 -112q-60 24 -157 24t-163 -43t-66 -137q0 -54 40 -90t122 -36q33 0 83.5 9.5t82.5 23.5l-35 -118q-26 -13 -78.5 -23t-98.5 -10zM308 588l-59 158h115l55 -78l101 78h125
l-149 -158h-188z" />
    <glyph glyph-name="Dcaron" unicode="&#x10e;" horiz-adv-x="937" 
d="M35 0l207 724h336q156 0 247.5 -82.5t91.5 -201.5q0 -198 -145 -319t-367 -121h-370zM525 606h-151l-140 -488h168q164 0 256 85t92 219q0 82 -56 133t-169 51zM465 772l-59 158h115l55 -78l101 78h125l-149 -158h-188z" />
    <glyph glyph-name="dcaron" unicode="&#x10f;" horiz-adv-x="813" 
d="M517 0v55q-83 -71 -214 -71q-113 0 -181 64t-68 162q0 79 32.5 142t86 100.5t116.5 57t130 19.5q123 0 205 -42l68 237h163l-206 -724h-132zM354 103q101 0 175 49l67 236q-74 22 -144 22q-103 0 -168 -45.5t-65 -139.5q0 -53 34 -87.5t101 -34.5zM848 493l73 126v105h67
q34 0 52 -16t18 -44q0 -13 -3 -24t-6.5 -19t-14.5 -20.5t-17 -19t-24.5 -24.5t-27.5 -27l-37 -37h-80z" />
    <glyph glyph-name="Dcroat" unicode="&#x110;" horiz-adv-x="946" 
d="M65 309l31 108h67l88 307h336q156 0 247.5 -82.5t91.5 -201.5q0 -198 -145 -319t-367 -121h-370l88 309h-67zM534 606h-151l-54 -189h141l-31 -108h-141l-55 -191h168q164 0 256 85t92 219q0 82 -56 133t-169 51z" />
    <glyph glyph-name="dcroat" unicode="&#x111;" horiz-adv-x="813" 
d="M541 572l30 108h108l13 44h163l-13 -44h57l-30 -108h-57l-163 -572h-132v55q-83 -71 -214 -71q-113 0 -181 64t-68 162q0 79 32.5 142t86 100.5t116.5 57t130 19.5q123 0 205 -42l24 85h-107zM354 103q101 0 175 49l67 236q-74 22 -144 22q-103 0 -168 -45.5t-65 -139.5
q0 -53 34 -87.5t101 -34.5z" />
    <glyph glyph-name="Emacron" unicode="&#x112;" horiz-adv-x="802" 
d="M35 0l206 724h611l-34 -118h-445l-50 -176h381l-34 -118h-381l-55 -194h448l-33 -118h-614zM397 790l31 108h346l-31 -108h-346z" />
    <glyph glyph-name="emacron" unicode="&#x113;" horiz-adv-x="739" 
d="M350 -15q-143 0 -221.5 62.5t-78.5 161.5q0 144 104 232t261 88q127 0 204.5 -56t77.5 -141q0 -59 -25 -116h-464q1 -55 43.5 -84t140.5 -29q48 0 112.5 12.5t112.5 31.5l-31 -114q-96 -48 -236 -48zM401 419q-137 0 -179 -110h317q1 4 1 12q0 47 -38.5 72.5t-100.5 25.5
zM254 606l31 108h346l-31 -108h-346z" />
    <glyph glyph-name="Ebreve" unicode="&#x114;" horiz-adv-x="802" 
d="M35 0l206 724h611l-34 -118h-445l-50 -176h381l-34 -118h-381l-55 -194h448l-33 -118h-614zM562 765q-83 0 -123 47.5t-24 117.5h92q4 -60 71 -60q69 0 105 60h102q-25 -75 -80.5 -120t-142.5 -45z" />
    <glyph glyph-name="ebreve" unicode="&#x115;" horiz-adv-x="739" 
d="M350 -15q-143 0 -221.5 62.5t-78.5 161.5q0 144 104 232t261 88q127 0 204.5 -56t77.5 -141q0 -59 -25 -116h-464q1 -55 43.5 -84t140.5 -29q48 0 112.5 12.5t112.5 31.5l-31 -114q-96 -48 -236 -48zM401 419q-137 0 -179 -110h317q1 4 1 12q0 47 -38.5 72.5t-100.5 25.5
zM419 581q-83 0 -123 47.5t-24 117.5h92q4 -60 71 -60q69 0 105 60h102q-25 -75 -80.5 -120t-142.5 -45z" />
    <glyph glyph-name="Edotaccent" unicode="&#x116;" horiz-adv-x="802" 
d="M35 0l206 724h611l-34 -118h-445l-50 -176h381l-34 -118h-381l-55 -194h448l-33 -118h-614zM490 790l39 136h161l-39 -136h-161z" />
    <glyph glyph-name="edotaccent" unicode="&#x117;" horiz-adv-x="739" 
d="M350 -15q-143 0 -221.5 62.5t-78.5 161.5q0 144 104 232t261 88q127 0 204.5 -56t77.5 -141q0 -59 -25 -116h-464q1 -55 43.5 -84t140.5 -29q48 0 112.5 12.5t112.5 31.5l-31 -114q-96 -48 -236 -48zM401 419q-137 0 -179 -110h317q1 4 1 12q0 47 -38.5 72.5t-100.5 25.5
zM347 606l39 136h161l-39 -136h-161z" />
    <glyph glyph-name="Eogonek" unicode="&#x118;" horiz-adv-x="802" 
d="M35 0l206 724h611l-34 -118h-445l-50 -176h381l-34 -118h-381l-55 -194h448l-33 -118h-31q-92 -68 -92 -103q0 -29 44 -29q14 0 42 4l-23 -80q-34 -8 -68 -8q-50 0 -82 21.5t-32 63.5q0 69 106 131h-478z" />
    <glyph glyph-name="eogonek" unicode="&#x119;" horiz-adv-x="739" 
d="M350 -15q-143 0 -221.5 62.5t-78.5 161.5q0 144 104 232t261 88q127 0 204.5 -56t77.5 -141q0 -59 -25 -116h-464q1 -55 43.5 -84t140.5 -29q48 0 112.5 12.5t112.5 31.5l-31 -114q-145 -93 -145 -134q0 -31 44 -31q14 0 42 4l-23 -80q-34 -8 -68 -8q-50 0 -82 21.5
t-32 63.5q0 62 102 121q-42 -5 -74 -5zM401 419q-137 0 -179 -110h317q1 4 1 12q0 47 -38.5 72.5t-100.5 25.5z" />
    <glyph glyph-name="Ecaron" unicode="&#x11a;" horiz-adv-x="802" 
d="M35 0l206 724h611l-34 -118h-445l-50 -176h381l-34 -118h-381l-55 -194h448l-33 -118h-614zM454 772l-59 158h115l55 -78l101 78h125l-149 -158h-188z" />
    <glyph glyph-name="ecaron" unicode="&#x11b;" horiz-adv-x="739" 
d="M350 -15q-143 0 -221.5 62.5t-78.5 161.5q0 144 104 232t261 88q127 0 204.5 -56t77.5 -141q0 -59 -25 -116h-464q1 -55 43.5 -84t140.5 -29q48 0 112.5 12.5t112.5 31.5l-31 -114q-96 -48 -236 -48zM401 419q-137 0 -179 -110h317q1 4 1 12q0 47 -38.5 72.5t-100.5 25.5
zM311 588l-59 158h115l55 -78l101 78h125l-149 -158h-188z" />
    <glyph glyph-name="Gcircumflex" unicode="&#x11c;" horiz-adv-x="956" 
d="M473 -16q-182 0 -285 82t-103 222q0 90 30 165.5t81.5 128t121 88.5t149 53t166.5 17q184 0 308 -52l-34 -122q-114 49 -274 49q-170 0 -275.5 -86.5t-105.5 -228.5q0 -94 59.5 -143t193.5 -49q75 0 155 16l65 226h165l-93 -324q-126 -42 -324 -42zM459 772l149 158h188
l59 -158h-115l-55 78l-101 -78h-125z" />
    <glyph glyph-name="gcircumflex" unicode="&#x11d;" horiz-adv-x="815" 
d="M265 -227q-73 0 -146.5 16t-108.5 38l32 112q37 -19 101.5 -32.5t132.5 -13.5q98 0 147.5 34t72.5 115l7 24q-81 -62 -203 -62q-113 0 -181 61t-68 155q0 77 32.5 138t86 97.5t116.5 55t130 18.5q133 0 222 -51l25 35h130l-140 -492q-38 -135 -132.5 -191.5t-255.5 -56.5
zM351 123q111 0 184 56l59 208q-72 23 -145 23q-104 0 -168.5 -43t-64.5 -132q0 -48 34 -80t101 -32zM241 588l149 158h188l59 -158h-115l-55 78l-101 -78h-125z" />
    <glyph glyph-name="Gbreve" unicode="&#x11e;" horiz-adv-x="956" 
d="M473 -16q-182 0 -285 82t-103 222q0 90 30 165.5t81.5 128t121 88.5t149 53t166.5 17q184 0 308 -52l-34 -122q-114 49 -274 49q-170 0 -275.5 -86.5t-105.5 -228.5q0 -94 59.5 -143t193.5 -49q75 0 155 16l65 226h165l-93 -324q-126 -42 -324 -42zM662 765
q-83 0 -123 47.5t-24 117.5h92q4 -60 71 -60q69 0 105 60h102q-25 -75 -80.5 -120t-142.5 -45z" />
    <glyph glyph-name="gbreve" unicode="&#x11f;" horiz-adv-x="815" 
d="M265 -227q-73 0 -146.5 16t-108.5 38l32 112q37 -19 101.5 -32.5t132.5 -13.5q98 0 147.5 34t72.5 115l7 24q-81 -62 -203 -62q-113 0 -181 61t-68 155q0 77 32.5 138t86 97.5t116.5 55t130 18.5q133 0 222 -51l25 35h130l-140 -492q-38 -135 -132.5 -191.5t-255.5 -56.5
zM351 123q111 0 184 56l59 208q-72 23 -145 23q-104 0 -168.5 -43t-64.5 -132q0 -48 34 -80t101 -32zM444 581q-83 0 -123 47.5t-24 117.5h92q4 -60 71 -60q69 0 105 60h102q-25 -75 -80.5 -120t-142.5 -45z" />
    <glyph glyph-name="Gdotaccent" unicode="&#x120;" horiz-adv-x="956" 
d="M473 -16q-182 0 -285 82t-103 222q0 90 30 165.5t81.5 128t121 88.5t149 53t166.5 17q184 0 308 -52l-34 -122q-114 49 -274 49q-170 0 -275.5 -86.5t-105.5 -228.5q0 -94 59.5 -143t193.5 -49q75 0 155 16l65 226h165l-93 -324q-126 -42 -324 -42zM590 790l39 136h161
l-39 -136h-161z" />
    <glyph glyph-name="gdotaccent" unicode="&#x121;" horiz-adv-x="815" 
d="M265 -227q-73 0 -146.5 16t-108.5 38l32 112q37 -19 101.5 -32.5t132.5 -13.5q98 0 147.5 34t72.5 115l7 24q-81 -62 -203 -62q-113 0 -181 61t-68 155q0 77 32.5 138t86 97.5t116.5 55t130 18.5q133 0 222 -51l25 35h130l-140 -492q-38 -135 -132.5 -191.5t-255.5 -56.5
zM351 123q111 0 184 56l59 208q-72 23 -145 23q-104 0 -168.5 -43t-64.5 -132q0 -48 34 -80t101 -32zM372 606l39 136h161l-39 -136h-161z" />
    <glyph glyph-name="Gcommaaccent" unicode="&#x122;" horiz-adv-x="956" 
d="M473 -16q-182 0 -285 82t-103 222q0 90 30 165.5t81.5 128t121 88.5t149 53t166.5 17q184 0 308 -52l-34 -122q-114 49 -274 49q-170 0 -275.5 -86.5t-105.5 -228.5q0 -94 59.5 -143t193.5 -49q75 0 155 16l65 226h165l-93 -324q-126 -42 -324 -42zM346 -240l-35 54
l97 63l-17 81h82q34 0 52 -16t18 -44q0 -40 -37 -71t-126 -57z" />
    <glyph glyph-name="gcommaaccent" unicode="&#x123;" horiz-adv-x="815" 
d="M265 -227q-73 0 -146.5 16t-108.5 38l32 112q37 -19 101.5 -32.5t132.5 -13.5q98 0 147.5 34t72.5 115l7 24q-81 -62 -203 -62q-113 0 -181 61t-68 155q0 77 32.5 138t86 97.5t116.5 55t130 18.5q133 0 222 -51l25 35h130l-140 -492q-38 -135 -132.5 -191.5t-255.5 -56.5
zM351 123q111 0 184 56l59 208q-72 23 -145 23q-104 0 -168.5 -43t-64.5 -132q0 -48 34 -80t101 -32zM482 566q-34 0 -52 16t-18 44q0 35 30.5 62.5t95.5 62.5l73 39l39 -51l-95 -85l11 -88h-84z" />
    <glyph glyph-name="Hcircumflex" unicode="&#x124;" horiz-adv-x="963" 
d="M616 0l86 304h-415l-86 -304h-166l206 724h166l-86 -302h415l86 302h166l-206 -724h-166zM424 772l149 158h188l59 -158h-115l-55 78l-101 -78h-125z" />
    <glyph glyph-name="hcircumflex" unicode="&#x125;" horiz-adv-x="808" 
d="M22 0l206 724h163l-72 -253q83 58 205 58q93 0 155.5 -42t62.5 -119q0 -36 -10 -69l-85 -299h-163l81 285q7 22 7 47q0 80 -109 80q-104 0 -176 -52l-102 -360h-163zM116 772l149 158h188l59 -158h-115l-55 78l-101 -78h-125z" />
    <glyph glyph-name="Hbar" unicode="&#x126;" horiz-adv-x="963" 
d="M127 520l31 108h55l28 96h166l-28 -96h415l28 96h166l-28 -96h57l-31 -108h-56l-148 -520h-166l86 304h-415l-86 -304h-166l148 520h-56zM321 422h415l28 98h-415z" />
    <glyph glyph-name="hbar" unicode="&#x127;" horiz-adv-x="808" 
d="M123 572l30 108h62l13 44h163l-13 -44h103l-30 -108h-104l-28 -101q83 58 205 58q93 0 155.5 -42t62.5 -119q0 -36 -10 -69l-85 -299h-163l81 285q7 22 7 47q0 80 -109 80q-104 0 -176 -52l-102 -360h-163l163 572h-62z" />
    <glyph glyph-name="Itilde" unicode="&#x128;" horiz-adv-x="551" 
d="M176 606l34 118h399l-34 -118h-117l-139 -488h117l-34 -118h-399l34 118h116l139 488h-116zM500 768q-40 0 -87.5 27.5t-65.5 27.5q-33 0 -51 -51h-89q38 162 150 162q40 0 87.5 -27.5t65.5 -27.5q33 0 51 51h89q-38 -162 -150 -162z" />
    <glyph glyph-name="itilde" unicode="&#x129;" horiz-adv-x="353" 
d="M22 0l146 513h163l-146 -513h-163zM349 584q-40 0 -87.5 27.5t-65.5 27.5q-33 0 -51 -51h-89q38 162 150 162q40 0 87.5 -27.5t65.5 -27.5q33 0 51 51h89q-38 -162 -150 -162z" />
    <glyph glyph-name="Imacron" unicode="&#x12a;" horiz-adv-x="551" 
d="M176 606l34 118h399l-34 -118h-117l-139 -488h117l-34 -118h-399l34 118h116l139 488h-116zM256 790l31 108h346l-31 -108h-346z" />
    <glyph glyph-name="imacron" unicode="&#x12b;" horiz-adv-x="353" 
d="M22 0l146 513h163l-146 -513h-163zM105 606l31 108h346l-31 -108h-346z" />
    <glyph glyph-name="Ibreve" unicode="&#x12c;" horiz-adv-x="551" 
d="M176 606l34 118h399l-34 -118h-117l-139 -488h117l-34 -118h-399l34 118h116l139 488h-116zM421 765q-83 0 -123 47.5t-24 117.5h92q4 -60 71 -60q69 0 105 60h102q-25 -75 -80.5 -120t-142.5 -45z" />
    <glyph glyph-name="ibreve" unicode="&#x12d;" horiz-adv-x="353" 
d="M22 0l146 513h163l-146 -513h-163zM270 581q-83 0 -123 47.5t-24 117.5h92q4 -60 71 -60q69 0 105 60h102q-25 -75 -80.5 -120t-142.5 -45z" />
    <glyph glyph-name="Iogonek" unicode="&#x12e;" horiz-adv-x="551" 
d="M173 -216q-50 0 -82 21.5t-32 63.5q0 69 106 131h-162l34 118h116l139 488h-116l34 118h399l-34 -118h-117l-139 -488h117l-34 -118h-132q-92 -68 -92 -103q0 -29 44 -29q14 0 42 4l-23 -80q-34 -8 -68 -8z" />
    <glyph glyph-name="iogonek" unicode="&#x12f;" horiz-adv-x="353" 
d="M24 -216q-50 0 -82 21.5t-32 63.5q0 38 32.5 73t80.5 61l145 510h163l-146 -513h-64q-92 -68 -92 -103q0 -29 44 -29q14 0 42 4l-23 -80q-34 -8 -68 -8zM189 587l39 137h163l-39 -137h-163z" />
    <glyph glyph-name="Idotaccent" unicode="&#x130;" horiz-adv-x="551" 
d="M176 606l34 118h399l-34 -118h-117l-139 -488h117l-34 -118h-399l34 118h116l139 488h-116zM349 790l39 136h161l-39 -136h-161z" />
    <glyph glyph-name="dotlessi" unicode="&#x131;" horiz-adv-x="353" 
d="M22 0l146 513h163l-146 -513h-163z" />
    <glyph glyph-name="IJ" unicode="&#x132;" horiz-adv-x="1022" 
d="M176 606l34 118h399l-34 -118h-117l-139 -488h117l-34 -118h-399l34 118h116l139 488h-116zM714 606l34 118h300l-183 -643q-38 -133 -112.5 -185t-188.5 -52q-81 0 -117 18l34 120q35 -11 64 -11q75 0 108.5 34t57.5 118l137 483h-134z" />
    <glyph glyph-name="ij" unicode="&#x133;" horiz-adv-x="706" 
d="M22 0l146 513h163l-146 -513h-163zM189 587l39 137h163l-39 -137h-163zM260 -225q-79 0 -121 20l34 117q32 -14 80 -14q61 0 86.5 32t49.5 118l132 465h163l-143 -502q-37 -129 -101 -182.5t-180 -53.5zM542 587l39 137h163l-39 -137h-163z" />
    <glyph glyph-name="Jcircumflex" unicode="&#x134;" horiz-adv-x="471" 
d="M163 606l34 118h300l-183 -643q-38 -133 -112.5 -185t-188.5 -52q-81 0 -117 18l34 120q35 -11 64 -11q75 0 108.5 34t57.5 118l137 483h-134zM223 772l149 158h188l59 -158h-115l-55 78l-101 -78h-125z" />
    <glyph glyph-name="jcircumflex" unicode="&#x135;" horiz-adv-x="353" 
d="M-93 -225q-79 0 -121 20l34 117q32 -14 80 -14q61 0 86.5 32t49.5 118l132 465h163l-143 -502q-37 -129 -101 -182.5t-180 -53.5zM67 588l149 158h188l59 -158h-115l-55 78l-101 -78h-125z" />
    <glyph glyph-name="Kcommaaccent" unicode="&#x136;" horiz-adv-x="879" 
d="M35 0l206 724h166l-88 -308l433 308h235l-533 -368l320 -356h-217l-266 318l-90 -318h-166zM246 -240l-35 54l97 63l-17 81h82q34 0 52 -16t18 -44q0 -40 -37 -71t-126 -57z" />
    <glyph glyph-name="kcommaaccent" unicode="&#x137;" horiz-adv-x="708" 
d="M22 0l206 724h163l-118 -416l273 205h208l-336 -251l218 -262h-194l-188 242l-69 -242h-163zM180 -240l-35 54l97 63l-17 81h82q34 0 52 -16t18 -44q0 -40 -37 -71t-126 -57z" />
    <glyph glyph-name="Lacute" unicode="&#x139;" horiz-adv-x="694" 
d="M35 0l206 724h166l-173 -606h388l-33 -118h-554zM263 772l130 158h198l-205 -158h-123z" />
    <glyph glyph-name="lacute" unicode="&#x13a;" horiz-adv-x="422" 
d="M207 -13q-75 0 -111.5 34t-36.5 91q0 30 9 61l157 551h163l-157 -551q-5 -20 -5 -32q0 -19 13 -27.5t44 -8.5q42 0 71 12l-31 -108q-41 -22 -116 -22zM243 772l130 158h198l-205 -158h-123z" />
    <glyph glyph-name="Lcommaaccent" unicode="&#x13b;" horiz-adv-x="694" 
d="M35 0l206 724h166l-173 -606h388l-33 -118h-554zM180 -240l-35 54l97 63l-17 81h82q34 0 52 -16t18 -44q0 -40 -37 -71t-126 -57z" />
    <glyph glyph-name="lcommaaccent" unicode="&#x13c;" horiz-adv-x="422" 
d="M207 -13q-75 0 -111.5 34t-36.5 91q0 30 9 61l157 551h163l-157 -551q-5 -20 -5 -32q0 -19 13 -27.5t44 -8.5q42 0 71 12l-31 -108q-41 -22 -116 -22zM62 -240l-35 54l97 63l-17 81h82q34 0 52 -16t18 -44q0 -40 -37 -71t-126 -57z" />
    <glyph glyph-name="Lcaron" unicode="&#x13d;" horiz-adv-x="694" 
d="M35 0l206 724h166l-173 -606h388l-33 -118h-554zM497 493l73 126v105h67q34 0 52 -16t18 -44q0 -13 -3 -24t-6.5 -19t-14.5 -20.5t-17 -19t-24.5 -24.5t-27.5 -27l-37 -37h-80z" />
    <glyph glyph-name="lcaron" unicode="&#x13e;" horiz-adv-x="422" 
d="M207 -13q-75 0 -111.5 34t-36.5 91q0 30 9 61l157 551h163l-157 -551q-5 -20 -5 -32q0 -19 13 -27.5t44 -8.5q42 0 71 12l-31 -108q-41 -22 -116 -22zM392 493l73 126v105h67q34 0 52 -16t18 -44q0 -13 -3 -24t-6.5 -19t-14.5 -20.5t-17 -19t-24.5 -24.5t-27.5 -27
l-37 -37h-80z" />
    <glyph glyph-name="Ldot" unicode="&#x13f;" horiz-adv-x="694" 
d="M35 0l206 724h166l-173 -606h388l-33 -118h-554zM403 331l39 136h161l-39 -136h-161z" />
    <glyph glyph-name="ldot" unicode="&#x140;" horiz-adv-x="486" 
d="M207 -13q-75 0 -111.5 34t-36.5 91q0 30 9 61l157 551h163l-157 -551q-5 -20 -5 -32q0 -19 13 -27.5t44 -8.5q42 0 71 12l-31 -108q-41 -22 -116 -22zM351 316l39 136h161l-39 -136h-161z" />
    <glyph glyph-name="Lslash" unicode="&#x141;" horiz-adv-x="703" 
d="M31 190l35 124l78 39l106 371h166l-78 -274l148 75l-35 -124l-149 -75l-59 -208h388l-33 -118h-554l65 229z" />
    <glyph glyph-name="lslash" unicode="&#x142;" horiz-adv-x="441" 
d="M32 188l35 124l65 33l108 379h163l-80 -282l110 57l-35 -124l-111 -57l-41 -145q-5 -20 -5 -32q0 -19 13 -27.5t44 -8.5q42 0 71 12l-31 -108q-41 -22 -116 -22t-111.5 34t-36.5 91q0 30 9 61l13 48z" />
    <glyph glyph-name="Nacute" unicode="&#x143;" horiz-adv-x="983" 
d="M35 0l206 724h179l273 -540l154 540h162l-207 -724h-178l-274 538l-153 -538h-162zM541 772l130 158h198l-205 -158h-123z" />
    <glyph glyph-name="nacute" unicode="&#x144;" horiz-adv-x="808" 
d="M22 0l146 513h133v-56q84 72 223 72q93 0 155.5 -42t62.5 -119q0 -36 -10 -69l-85 -299h-163l81 285q7 22 7 47q0 80 -109 80q-104 0 -176 -52l-102 -360h-163zM427 588l130 158h198l-205 -158h-123z" />
    <glyph glyph-name="Ncommaaccent" unicode="&#x145;" horiz-adv-x="983" 
d="M35 0l206 724h179l273 -540l154 540h162l-207 -724h-178l-274 538l-153 -538h-162zM264 -240l-35 54l97 63l-17 81h82q34 0 52 -16t18 -44q0 -40 -37 -71t-126 -57z" />
    <glyph glyph-name="ncommaaccent" unicode="&#x146;" horiz-adv-x="808" 
d="M22 0l146 513h133v-56q84 72 223 72q93 0 155.5 -42t62.5 -119q0 -36 -10 -69l-85 -299h-163l81 285q7 22 7 47q0 80 -109 80q-104 0 -176 -52l-102 -360h-163zM207 -240l-35 54l97 63l-17 81h82q34 0 52 -16t18 -44q0 -40 -37 -71t-126 -57z" />
    <glyph glyph-name="Ncaron" unicode="&#x147;" horiz-adv-x="983" 
d="M35 0l206 724h179l273 -540l154 540h162l-207 -724h-178l-274 538l-153 -538h-162zM506 772l-59 158h115l55 -78l101 78h125l-149 -158h-188z" />
    <glyph glyph-name="ncaron" unicode="&#x148;" horiz-adv-x="808" 
d="M22 0l146 513h133v-56q84 72 223 72q93 0 155.5 -42t62.5 -119q0 -36 -10 -69l-85 -299h-163l81 285q7 22 7 47q0 80 -109 80q-104 0 -176 -52l-102 -360h-163zM392 588l-59 158h115l55 -78l101 78h125l-149 -158h-188z" />
    <glyph glyph-name="napostrophe" unicode="&#x149;" horiz-adv-x="1060" 
d="M274 0l146 513h133v-56q84 72 223 72q93 0 155.5 -42t62.5 -119q0 -36 -10 -69l-85 -299h-163l81 285q7 22 7 47q0 80 -109 80q-104 0 -176 -52l-102 -360h-163zM86 438l125 157v127h87q43 0 65 -20.5t22 -49.5q0 -12 -4 -24.5t-8.5 -22.5t-16 -23t-19 -21.5t-25 -23.5
t-26.5 -22.5t-31.5 -25.5l-32.5 -26l-31 -25h-105z" />
    <glyph glyph-name="Omacron" unicode="&#x14c;" horiz-adv-x="979" 
d="M441 -16q-163 0 -259.5 89.5t-96.5 214.5q0 197 145 324.5t364 127.5q163 0 259.5 -88t96.5 -212q0 -197 -145.5 -326.5t-363.5 -129.5zM460 111q138 0 229 88.5t91 222.5q0 81 -54 136t-151 55q-139 0 -229.5 -87t-90.5 -220q0 -81 54 -138t151 -57zM446 790l31 108h346
l-31 -108h-346z" />
    <glyph glyph-name="omacron" unicode="&#x14d;" horiz-adv-x="794" 
d="M365 -16q-146 0 -229.5 65t-84.5 163q-1 147 108 232t270 85q146 0 229.5 -65t84.5 -163q1 -147 -108 -232t-270 -85zM373 98q89 0 147.5 48.5t57.5 140.5q-1 56 -44.5 92t-112.5 36q-89 0 -147.5 -48.5t-57.5 -140.5q1 -56 44.5 -92t112.5 -36zM273 606l31 108h346
l-31 -108h-346z" />
    <glyph glyph-name="Obreve" unicode="&#x14e;" horiz-adv-x="979" 
d="M441 -16q-163 0 -259.5 89.5t-96.5 214.5q0 197 145 324.5t364 127.5q163 0 259.5 -88t96.5 -212q0 -197 -145.5 -326.5t-363.5 -129.5zM460 111q138 0 229 88.5t91 222.5q0 81 -54 136t-151 55q-139 0 -229.5 -87t-90.5 -220q0 -81 54 -138t151 -57zM611 765
q-83 0 -123 47.5t-24 117.5h92q4 -60 71 -60q69 0 105 60h102q-25 -75 -80.5 -120t-142.5 -45z" />
    <glyph glyph-name="obreve" unicode="&#x14f;" horiz-adv-x="794" 
d="M365 -16q-146 0 -229.5 65t-84.5 163q-1 147 108 232t270 85q146 0 229.5 -65t84.5 -163q1 -147 -108 -232t-270 -85zM373 98q89 0 147.5 48.5t57.5 140.5q-1 56 -44.5 92t-112.5 36q-89 0 -147.5 -48.5t-57.5 -140.5q1 -56 44.5 -92t112.5 -36zM438 581q-83 0 -123 47.5
t-24 117.5h92q4 -60 71 -60q69 0 105 60h102q-25 -75 -80.5 -120t-142.5 -45z" />
    <glyph glyph-name="Ohungarumlaut" unicode="&#x150;" horiz-adv-x="979" 
d="M441 -16q-163 0 -259.5 89.5t-96.5 214.5q0 197 145 324.5t364 127.5q163 0 259.5 -88t96.5 -212q0 -197 -145.5 -326.5t-363.5 -129.5zM460 111q138 0 229 88.5t91 222.5q0 81 -54 136t-151 55q-139 0 -229.5 -87t-90.5 -220q0 -81 54 -138t151 -57zM422 772l103 158
h180l-166 -158h-117zM670 772l103 158h180l-166 -158h-117z" />
    <glyph glyph-name="ohungarumlaut" unicode="&#x151;" horiz-adv-x="794" 
d="M365 -16q-146 0 -229.5 65t-84.5 163q-1 147 108 232t270 85q146 0 229.5 -65t84.5 -163q1 -147 -108 -232t-270 -85zM373 98q89 0 147.5 48.5t57.5 140.5q-1 56 -44.5 92t-112.5 36q-89 0 -147.5 -48.5t-57.5 -140.5q1 -56 44.5 -92t112.5 -36zM249 588l103 158h180
l-166 -158h-117zM497 588l103 158h180l-166 -158h-117z" />
    <glyph glyph-name="OE" unicode="&#x152;" horiz-adv-x="1319" 
d="M573 0q-91 -16 -144 -16q-168 0 -256 87.5t-88 214.5q0 94 35.5 176t102 144t168.5 98t227 36q81 0 161 -16h601l-34 -118h-435l-50 -176h371l-34 -118h-371l-55 -194h438l-33 -118h-604zM452 108q78 0 157 18l136 478q-72 12 -125 12q-93 0 -166 -27t-116 -72.5
t-65 -100.5t-22 -116q0 -93 50.5 -142.5t150.5 -49.5z" />
    <glyph glyph-name="oe" unicode="&#x153;" horiz-adv-x="1262" 
d="M355 -16q-139 0 -221 65t-83 163q-1 147 109.5 232t278.5 85q162 0 240 -91q99 91 259 91q127 0 204.5 -56t77.5 -141q0 -59 -25 -116h-464q1 -55 43.5 -84t140.5 -29q48 0 112.5 12.5t112.5 31.5l-31 -114q-96 -48 -236 -48q-167 0 -243 87q-102 -88 -275 -88zM363 98
q96 0 156 48t59 141q-1 56 -43 92t-104 36q-96 0 -156 -48t-59 -141q1 -56 43 -92t104 -36zM924 419q-137 0 -179 -110h317q1 4 1 12q0 47 -38.5 72.5t-100.5 25.5z" />
    <glyph glyph-name="Racute" unicode="&#x154;" horiz-adv-x="864" 
d="M35 0l206 724h302q136 0 212 -50t76 -133q0 -195 -254 -242q29 -14 51 -48l159 -251h-189l-133 225q-20 34 -39 43t-73 9h-73l-79 -277h-166zM498 606h-125l-60 -212h125q38 0 71 4.5t71.5 16.5t61 39t22.5 67q0 85 -166 85zM491 772l130 158h198l-205 -158h-123z" />
    <glyph glyph-name="racute" unicode="&#x155;" horiz-adv-x="530" 
d="M22 0l146 513h142l-13 -81q78 95 189 95q43 0 77 -15l-40 -136q-36 14 -86 14q-97 0 -162 -73l-90 -317h-163zM302 588l130 158h198l-205 -158h-123z" />
    <glyph glyph-name="Rcommaaccent" unicode="&#x156;" horiz-adv-x="864" 
d="M35 0l206 724h302q136 0 212 -50t76 -133q0 -195 -254 -242q29 -14 51 -48l159 -251h-189l-133 225q-20 34 -39 43t-73 9h-73l-79 -277h-166zM498 606h-125l-60 -212h125q38 0 71 4.5t71.5 16.5t61 39t22.5 67q0 85 -166 85zM250 -240l-35 54l97 63l-17 81h82
q34 0 52 -16t18 -44q0 -40 -37 -71t-126 -57z" />
    <glyph glyph-name="rcommaaccent" unicode="&#x157;" horiz-adv-x="530" 
d="M22 0l146 513h142l-13 -81q78 95 189 95q43 0 77 -15l-40 -136q-36 14 -86 14q-97 0 -162 -73l-90 -317h-163zM-29 -240l-35 54l97 63l-17 81h82q34 0 52 -16t18 -44q0 -40 -37 -71t-126 -57z" />
    <glyph glyph-name="Rcaron" unicode="&#x158;" horiz-adv-x="864" 
d="M35 0l206 724h302q136 0 212 -50t76 -133q0 -195 -254 -242q29 -14 51 -48l159 -251h-189l-133 225q-20 34 -39 43t-73 9h-73l-79 -277h-166zM498 606h-125l-60 -212h125q38 0 71 4.5t71.5 16.5t61 39t22.5 67q0 85 -166 85zM456 772l-59 158h115l55 -78l101 78h125
l-149 -158h-188z" />
    <glyph glyph-name="rcaron" unicode="&#x159;" horiz-adv-x="530" 
d="M22 0l146 513h142l-13 -81q78 95 189 95q43 0 77 -15l-40 -136q-36 14 -86 14q-97 0 -162 -73l-90 -317h-163zM267 588l-59 158h115l55 -78l101 78h125l-149 -158h-188z" />
    <glyph glyph-name="Sacute" unicode="&#x15a;" horiz-adv-x="791" 
d="M307 -16q-91 0 -169.5 15t-116.5 35l32 117q124 -44 254 -44q119 0 178 22t59 72q0 31 -40.5 55t-132.5 52q-120 37 -178 84.5t-58 118.5q0 108 95 168.5t288 60.5q81 0 154.5 -14.5t111.5 -35.5l-31 -114q-122 40 -241 40q-104 0 -154.5 -20.5t-50.5 -66.5
q0 -30 40 -52.5t136 -54.5q120 -40 178 -85.5t58 -115.5q0 -110 -107 -173.5t-305 -63.5zM447 772l130 158h198l-205 -158h-123z" />
    <glyph glyph-name="sacute" unicode="&#x15b;" horiz-adv-x="674" 
d="M260 -15q-69 0 -136.5 13.5t-105.5 34.5l30 108q36 -17 97.5 -28t119.5 -11q159 0 159 44q0 20 -29.5 31t-107.5 29q-96 22 -142 54t-46 88q0 180 303 180q134 0 235 -48l-30 -107q-38 17 -98 28t-110 11q-139 0 -139 -43q0 -19 30 -31t107 -29q95 -22 142 -54t47 -88
q0 -53 -28.5 -90t-78.5 -56.5t-103 -27.5t-116 -8zM325 588l130 158h198l-205 -158h-123z" />
    <glyph glyph-name="Scircumflex" unicode="&#x15c;" horiz-adv-x="791" 
d="M307 -16q-91 0 -169.5 15t-116.5 35l32 117q124 -44 254 -44q119 0 178 22t59 72q0 31 -40.5 55t-132.5 52q-120 37 -178 84.5t-58 118.5q0 108 95 168.5t288 60.5q81 0 154.5 -14.5t111.5 -35.5l-31 -114q-122 40 -241 40q-104 0 -154.5 -20.5t-50.5 -66.5
q0 -30 40 -52.5t136 -54.5q120 -40 178 -85.5t58 -115.5q0 -110 -107 -173.5t-305 -63.5zM317 772l149 158h188l59 -158h-115l-55 78l-101 -78h-125z" />
    <glyph glyph-name="scircumflex" unicode="&#x15d;" horiz-adv-x="674" 
d="M260 -15q-69 0 -136.5 13.5t-105.5 34.5l30 108q36 -17 97.5 -28t119.5 -11q159 0 159 44q0 20 -29.5 31t-107.5 29q-96 22 -142 54t-46 88q0 180 303 180q134 0 235 -48l-30 -107q-38 17 -98 28t-110 11q-139 0 -139 -43q0 -19 30 -31t107 -29q95 -22 142 -54t47 -88
q0 -53 -28.5 -90t-78.5 -56.5t-103 -27.5t-116 -8zM195 588l149 158h188l59 -158h-115l-55 78l-101 -78h-125z" />
    <glyph glyph-name="Scedilla" unicode="&#x15e;" horiz-adv-x="791" 
d="M242 -214q-48 0 -78 14l22 71q30 -8 51 -8q45 0 45 23q0 24 -60 36l52 63q-81 2 -149.5 16t-103.5 33l32 117q124 -44 254 -44q119 0 178 22t59 72q0 31 -40.5 55t-132.5 52q-120 37 -178 84.5t-58 118.5q0 108 95 168.5t288 60.5q81 0 154.5 -14.5t111.5 -35.5l-31 -114
q-122 40 -241 40q-104 0 -154.5 -20.5t-50.5 -66.5q0 -30 40 -52.5t136 -54.5q120 -40 178 -85.5t58 -115.5q0 -102 -92.5 -164.5t-266.5 -71.5l-26 -37q53 -20 53 -68q0 -46 -40 -70t-105 -24z" />
    <glyph glyph-name="scedilla" unicode="&#x15f;" horiz-adv-x="674" 
d="M175 -216q-48 0 -78 14l22 71q30 -8 51 -8q45 0 45 23q0 24 -60 36l56 67q-129 10 -193 46l30 108q36 -17 97.5 -28t119.5 -11q159 0 159 44q0 20 -29.5 31t-107.5 29q-96 22 -142 54t-46 88q0 180 303 180q134 0 235 -48l-30 -107q-38 17 -98 28t-110 11
q-139 0 -139 -43q0 -19 30 -31t107 -29q95 -22 142 -54t47 -88q0 -49 -25 -84.5t-68 -55.5t-91.5 -29.5t-106.5 -11.5l-28 -40q53 -20 53 -68q0 -46 -40 -70t-105 -24z" />
    <glyph glyph-name="Scaron" unicode="&#x160;" horiz-adv-x="791" 
d="M307 -16q-91 0 -169.5 15t-116.5 35l32 117q124 -44 254 -44q119 0 178 22t59 72q0 31 -40.5 55t-132.5 52q-120 37 -178 84.5t-58 118.5q0 108 95 168.5t288 60.5q81 0 154.5 -14.5t111.5 -35.5l-31 -114q-122 40 -241 40q-104 0 -154.5 -20.5t-50.5 -66.5
q0 -30 40 -52.5t136 -54.5q120 -40 178 -85.5t58 -115.5q0 -110 -107 -173.5t-305 -63.5zM412 772l-59 158h115l55 -78l101 78h125l-149 -158h-188z" />
    <glyph glyph-name="scaron" unicode="&#x161;" horiz-adv-x="674" 
d="M260 -15q-69 0 -136.5 13.5t-105.5 34.5l30 108q36 -17 97.5 -28t119.5 -11q159 0 159 44q0 20 -29.5 31t-107.5 29q-96 22 -142 54t-46 88q0 180 303 180q134 0 235 -48l-30 -107q-38 17 -98 28t-110 11q-139 0 -139 -43q0 -19 30 -31t107 -29q95 -22 142 -54t47 -88
q0 -53 -28.5 -90t-78.5 -56.5t-103 -27.5t-116 -8zM290 588l-59 158h115l55 -78l101 78h125l-149 -158h-188z" />
    <glyph glyph-name="Tcommaaccent" unicode="&#x162;" horiz-adv-x="758" 
d="M132 606l34 118h694l-34 -118h-265l-172 -606h-166l172 606h-263zM174 -240l-35 54l97 63l-17 81h82q34 0 52 -16t18 -44q0 -40 -37 -71t-126 -57z" />
    <glyph glyph-name="tcommaaccent" unicode="&#x163;" horiz-adv-x="549" 
d="M62 401l27 91l119 20l37 129h157l-37 -128h200l-32 -112h-199l-55 -193q-9 -29 -9 -50q0 -48 74 -48q59 0 109 18l-31 -110q-52 -30 -138 -30t-130.5 36.5t-44.5 103.5q0 35 12 77l55 196h-114zM136 -240l-35 54l97 63l-17 81h82q34 0 52 -16t18 -44q0 -40 -37 -71
t-126 -57z" />
    <glyph glyph-name="Tcaron" unicode="&#x164;" horiz-adv-x="758" 
d="M132 606l34 118h694l-34 -118h-265l-172 -606h-166l172 606h-263zM415 772l-59 158h115l55 -78l101 78h125l-149 -158h-188z" />
    <glyph glyph-name="tcaron" unicode="&#x165;" horiz-adv-x="565" 
d="M74 401l27 91l119 20l37 129h157l-37 -128h200l-32 -112h-199l-55 -193q-9 -29 -9 -50q0 -48 74 -48q59 0 109 18l-31 -110q-52 -30 -138 -30t-130.5 36.5t-44.5 103.5q0 35 12 77l55 196h-114zM487 583l73 126v105h67q34 0 52 -16t18 -44q0 -13 -3 -24t-6.5 -19
t-14.5 -20.5t-17 -19t-24.5 -24.5t-27.5 -27l-37 -37h-80z" />
    <glyph glyph-name="Tbar" unicode="&#x166;" horiz-adv-x="758" 
d="M132 606l34 118h694l-34 -118h-265l-62 -217h136l-31 -108h-135l-80 -281h-166l80 281h-137l31 108h136l62 217h-263z" />
    <glyph glyph-name="tbar" unicode="&#x167;" horiz-adv-x="585" 
d="M88 401l27 91l119 20l37 129h157l-37 -128h200l-32 -112h-199l-24 -85h134l-29 -103h-135l-1 -5q-9 -29 -9 -50q0 -48 74 -48q59 0 109 18l-31 -110q-52 -30 -138 -30t-130.5 36.5t-44.5 103.5q0 35 12 77l2 8h-76l29 103h76l24 85h-114z" />
    <glyph glyph-name="Utilde" unicode="&#x168;" horiz-adv-x="916" 
d="M394 -16q-140 0 -220 63.5t-80 169.5q0 43 13 86l120 421h165l-121 -425q-13 -47 -13 -77q0 -112 158 -112q103 0 164.5 46.5t89.5 143.5l121 424h165l-127 -443q-31 -107 -79 -169.5t-134.5 -95t-221.5 -32.5zM682 768q-40 0 -87.5 27.5t-65.5 27.5q-33 0 -51 -51h-89
q38 162 150 162q40 0 87.5 -27.5t65.5 -27.5q33 0 51 51h89q-38 -162 -150 -162z" />
    <glyph glyph-name="utilde" unicode="&#x169;" horiz-adv-x="799" 
d="M498 0v53q-82 -69 -214 -69q-91 0 -154.5 42t-63.5 119q0 36 10 69l85 299h162l-81 -285q-7 -22 -7 -47q0 -80 108 -80q95 0 168 50l103 362h163l-146 -513h-133zM567 584q-40 0 -87.5 27.5t-65.5 27.5q-33 0 -51 -51h-89q38 162 150 162q40 0 87.5 -27.5t65.5 -27.5
q33 0 51 51h89q-38 -162 -150 -162z" />
    <glyph glyph-name="Umacron" unicode="&#x16a;" horiz-adv-x="916" 
d="M394 -16q-140 0 -220 63.5t-80 169.5q0 43 13 86l120 421h165l-121 -425q-13 -47 -13 -77q0 -112 158 -112q103 0 164.5 46.5t89.5 143.5l121 424h165l-127 -443q-31 -107 -79 -169.5t-134.5 -95t-221.5 -32.5zM438 790l31 108h346l-31 -108h-346z" />
    <glyph glyph-name="umacron" unicode="&#x16b;" horiz-adv-x="799" 
d="M498 0v53q-82 -69 -214 -69q-91 0 -154.5 42t-63.5 119q0 36 10 69l85 299h162l-81 -285q-7 -22 -7 -47q0 -80 108 -80q95 0 168 50l103 362h163l-146 -513h-133zM323 606l31 108h346l-31 -108h-346z" />
    <glyph glyph-name="Ubreve" unicode="&#x16c;" horiz-adv-x="916" 
d="M394 -16q-140 0 -220 63.5t-80 169.5q0 43 13 86l120 421h165l-121 -425q-13 -47 -13 -77q0 -112 158 -112q103 0 164.5 46.5t89.5 143.5l121 424h165l-127 -443q-31 -107 -79 -169.5t-134.5 -95t-221.5 -32.5zM603 765q-83 0 -123 47.5t-24 117.5h92q4 -60 71 -60
q69 0 105 60h102q-25 -75 -80.5 -120t-142.5 -45z" />
    <glyph glyph-name="ubreve" unicode="&#x16d;" horiz-adv-x="799" 
d="M498 0v53q-82 -69 -214 -69q-91 0 -154.5 42t-63.5 119q0 36 10 69l85 299h162l-81 -285q-7 -22 -7 -47q0 -80 108 -80q95 0 168 50l103 362h163l-146 -513h-133zM488 581q-83 0 -123 47.5t-24 117.5h92q4 -60 71 -60q69 0 105 60h102q-25 -75 -80.5 -120t-142.5 -45z
" />
    <glyph glyph-name="Uring" unicode="&#x16e;" horiz-adv-x="916" 
d="M394 -16q-140 0 -220 63.5t-80 169.5q0 43 13 86l120 421h165l-121 -425q-13 -47 -13 -77q0 -112 158 -112q103 0 164.5 46.5t89.5 143.5l121 424h165l-127 -443q-31 -107 -79 -169.5t-134.5 -95t-221.5 -32.5zM601 752q-44 0 -74.5 27.5t-30.5 67.5q0 55 40.5 94
t98.5 39q44 0 74.5 -27.5t30.5 -67.5q0 -55 -40.5 -94t-98.5 -39zM611 815q22 0 40 17.5t18 42.5q0 17 -12.5 29t-31.5 12q-22 0 -40 -17.5t-18 -42.5q0 -17 12.5 -29t31.5 -12z" />
    <glyph glyph-name="uring" unicode="&#x16f;" horiz-adv-x="799" 
d="M498 0v53q-82 -69 -214 -69q-91 0 -154.5 42t-63.5 119q0 36 10 69l85 299h162l-81 -285q-7 -22 -7 -47q0 -80 108 -80q95 0 168 50l103 362h163l-146 -513h-133zM489 584q-44 0 -74.5 27.5t-30.5 67.5q0 55 40.5 94t98.5 39q44 0 74.5 -27.5t30.5 -67.5q0 -55 -40.5 -94
t-98.5 -39zM499 647q22 0 40 17.5t18 42.5q0 17 -12.5 29t-31.5 12q-22 0 -40 -17.5t-18 -42.5q0 -17 12.5 -29t31.5 -12z" />
    <glyph glyph-name="Uhungarumlaut" unicode="&#x170;" horiz-adv-x="916" 
d="M394 -16q-140 0 -220 63.5t-80 169.5q0 43 13 86l120 421h165l-121 -425q-13 -47 -13 -77q0 -112 158 -112q103 0 164.5 46.5t89.5 143.5l121 424h165l-127 -443q-31 -107 -79 -169.5t-134.5 -95t-221.5 -32.5zM414 772l103 158h180l-166 -158h-117zM662 772l103 158h180
l-166 -158h-117z" />
    <glyph glyph-name="uhungarumlaut" unicode="&#x171;" horiz-adv-x="799" 
d="M498 0v53q-82 -69 -214 -69q-91 0 -154.5 42t-63.5 119q0 36 10 69l85 299h162l-81 -285q-7 -22 -7 -47q0 -80 108 -80q95 0 168 50l103 362h163l-146 -513h-133zM299 588l103 158h180l-166 -158h-117zM547 588l103 158h180l-166 -158h-117z" />
    <glyph glyph-name="Uogonek" unicode="&#x172;" horiz-adv-x="916" 
d="M415 -216q-50 0 -82 21.5t-32 63.5q0 37 29.5 67.5t75.5 48.5q-312 13 -312 232q0 43 13 86l120 421h165l-121 -425q-13 -47 -13 -77q0 -112 158 -112q103 0 164.5 46.5t89.5 143.5l121 424h165l-127 -443q-35 -121 -96 -187t-172 -94q-55 -14 -98 -46t-43 -55
q0 -31 44 -31q14 0 42 4l-23 -80q-34 -8 -68 -8z" />
    <glyph glyph-name="uogonek" unicode="&#x173;" horiz-adv-x="799" 
d="M504 -216q-50 0 -82 21.5t-32 63.5q0 70 108 132v52q-82 -69 -214 -69q-91 0 -154.5 42t-63.5 119q0 36 10 69l85 299h162l-81 -285q-7 -22 -7 -47q0 -80 108 -80q95 0 168 50l103 362h163l-146 -513h-30q-92 -68 -92 -103q0 -29 44 -29q14 0 42 4l-23 -80q-34 -8 -68 -8
z" />
    <glyph glyph-name="Wcircumflex" unicode="&#x174;" horiz-adv-x="1421" 
d="M242 0l-102 724h169l58 -543l381 543h179l68 -538l369 538h185l-518 -724h-161l-72 560l-394 -560h-162zM652 772l149 158h188l59 -158h-115l-55 78l-101 -78h-125z" />
    <glyph glyph-name="wcircumflex" unicode="&#x175;" horiz-adv-x="1044" 
d="M152 0l-64 513h157l33 -345l222 345h171l26 -349l223 349h176l-356 -513h-169l-26 351l-224 -351h-169zM401 588l149 158h188l59 -158h-115l-55 78l-101 -78h-125z" />
    <glyph glyph-name="Ycircumflex" unicode="&#x176;" horiz-adv-x="821" 
d="M255 0l79 280l-202 444h174l137 -319l311 319h203l-460 -454l-77 -270h-165zM336 772l149 158h188l59 -158h-115l-55 78l-101 -78h-125z" />
    <glyph glyph-name="ycircumflex" unicode="&#x177;" horiz-adv-x="691" 
d="M12 -225q-56 0 -100 18l30 119q28 -10 55 -10q62 0 107.5 20t80.5 73l8 11l-113 507h160l68 -362l252 362h177l-398 -545q-83 -113 -152.5 -153t-174.5 -40zM204 588l149 158h188l59 -158h-115l-55 78l-101 -78h-125z" />
    <glyph glyph-name="Ydieresis" unicode="&#x178;" horiz-adv-x="821" 
d="M255 0l79 280l-202 444h174l137 -319l311 319h203l-460 -454l-77 -270h-165zM336 780l38 128h145l-38 -128h-145zM605 780l38 128h145l-38 -128h-145z" />
    <glyph glyph-name="Zacute" unicode="&#x179;" horiz-adv-x="873" 
d="M0 0l29 104l623 502h-465l34 118h692l-29 -103l-625 -503h500l-33 -118h-726zM505 772l130 158h198l-205 -158h-123z" />
    <glyph glyph-name="zacute" unicode="&#x17a;" horiz-adv-x="693" 
d="M96 399l32 114h557l-25 -88l-412 -311h337l-32 -114h-582l25 89l424 310h-324zM353 588l130 158h198l-205 -158h-123z" />
    <glyph glyph-name="Zdotaccent" unicode="&#x17b;" horiz-adv-x="873" 
d="M0 0l29 104l623 502h-465l34 118h692l-29 -103l-625 -503h500l-33 -118h-726zM506 790l39 136h161l-39 -136h-161z" />
    <glyph glyph-name="zdotaccent" unicode="&#x17c;" horiz-adv-x="693" 
d="M96 399l32 114h557l-25 -88l-412 -311h337l-32 -114h-582l25 89l424 310h-324zM354 606l39 136h161l-39 -136h-161z" />
    <glyph glyph-name="Zcaron" unicode="&#x17d;" horiz-adv-x="873" 
d="M0 0l29 104l623 502h-465l34 118h692l-29 -103l-625 -503h500l-33 -118h-726zM470 772l-59 158h115l55 -78l101 78h125l-149 -158h-188z" />
    <glyph glyph-name="zcaron" unicode="&#x17e;" horiz-adv-x="693" 
d="M96 399l32 114h557l-25 -88l-412 -311h337l-32 -114h-582l25 89l424 310h-324zM318 588l-59 158h115l55 -78l101 78h125l-149 -158h-188z" />
    <glyph glyph-name="florin" unicode="&#x192;" 
d="M134 323l51 114h198l29 64q56 125 139 182t198 57q39 0 86 -10.5t70 -21.5l-51 -114q-49 22 -115 22t-106 -36t-72 -109l-15 -34h241l-51 -114h-241l-84 -192q-55 -125 -144.5 -180.5t-221.5 -55.5q-30 0 -58.5 5t-35.5 10l50 113q18 -4 45 -4q86 0 136.5 38t90.5 130
l60 136h-199z" />
    <glyph glyph-name="Scommaaccent" unicode="&#x218;" horiz-adv-x="791" 
d="M307 -16q-91 0 -169.5 15t-116.5 35l32 117q124 -44 254 -44q119 0 178 22t59 72q0 31 -40.5 55t-132.5 52q-120 37 -178 84.5t-58 118.5q0 108 95 168.5t288 60.5q81 0 154.5 -14.5t111.5 -35.5l-31 -114q-122 40 -241 40q-104 0 -154.5 -20.5t-50.5 -66.5
q0 -30 40 -52.5t136 -54.5q120 -40 178 -85.5t58 -115.5q0 -110 -107 -173.5t-305 -63.5zM207 -240l-35 54l97 63l-17 81h82q34 0 52 -16t18 -44q0 -40 -37 -71t-126 -57z" />
    <glyph glyph-name="scommaaccent" unicode="&#x219;" horiz-adv-x="674" 
d="M260 -15q-69 0 -136.5 13.5t-105.5 34.5l30 108q36 -17 97.5 -28t119.5 -11q159 0 159 44q0 20 -29.5 31t-107.5 29q-96 22 -142 54t-46 88q0 180 303 180q134 0 235 -48l-30 -107q-38 17 -98 28t-110 11q-139 0 -139 -43q0 -19 30 -31t107 -29q95 -22 142 -54t47 -88
q0 -53 -28.5 -90t-78.5 -56.5t-103 -27.5t-116 -8zM145 -240l-35 54l97 63l-17 81h82q34 0 52 -16t18 -44q0 -40 -37 -71t-126 -57z" />
    <glyph glyph-name="uni021A" unicode="&#x21a;" horiz-adv-x="758" 
d="M132 606l34 118h694l-34 -118h-265l-172 -606h-166l172 606h-263zM174 -240l-35 54l97 63l-17 81h82q34 0 52 -16t18 -44q0 -40 -37 -71t-126 -57z" />
    <glyph glyph-name="uni021B" unicode="&#x21b;" horiz-adv-x="549" 
d="M62 401l27 91l119 20l37 129h157l-37 -128h200l-32 -112h-199l-55 -193q-9 -29 -9 -50q0 -48 74 -48q59 0 109 18l-31 -110q-52 -30 -138 -30t-130.5 36.5t-44.5 103.5q0 35 12 77l55 196h-114zM136 -240l-35 54l97 63l-17 81h82q34 0 52 -16t18 -44q0 -40 -37 -71
t-126 -57z" />
    <glyph glyph-name="dotlessj" unicode="&#x237;" horiz-adv-x="353" 
d="M-93 -225q-79 0 -121 20l34 117q32 -14 80 -14q61 0 86.5 32t49.5 118l132 465h163l-143 -502q-37 -129 -101 -182.5t-180 -53.5z" />
    <glyph glyph-name="circumflex" unicode="&#x2c6;" horiz-adv-x="550" 
d="M157 588l149 158h188l59 -158h-115l-55 78l-101 -78h-125z" />
    <glyph glyph-name="caron" unicode="&#x2c7;" horiz-adv-x="550" 
d="M267 588l-59 158h115l55 -78l101 78h125l-149 -158h-188z" />
    <glyph glyph-name="breve" unicode="&#x2d8;" horiz-adv-x="550" 
d="M349 581q-83 0 -123 47.5t-24 117.5h92q4 -60 71 -60q69 0 105 60h102q-25 -75 -80.5 -120t-142.5 -45z" />
    <glyph glyph-name="dotaccent" unicode="&#x2d9;" horiz-adv-x="550" 
d="M275 606l39 136h161l-39 -136h-161z" />
    <glyph glyph-name="ring" unicode="&#x2da;" horiz-adv-x="550" 
d="M361 584q-44 0 -74.5 27.5t-30.5 67.5q0 55 40.5 94t98.5 39q44 0 74.5 -27.5t30.5 -67.5q0 -55 -40.5 -94t-98.5 -39zM371 647q22 0 40 17.5t18 42.5q0 17 -12.5 29t-31.5 12q-22 0 -40 -17.5t-18 -42.5q0 -17 12.5 -29t31.5 -12z" />
    <glyph glyph-name="ogonek" unicode="&#x2db;" horiz-adv-x="550" 
d="M276 -216q-50 0 -82 21.5t-32 63.5q0 75 125 141h100q-106 -76 -106 -113q0 -29 44 -29q14 0 42 4l-23 -80q-34 -8 -68 -8z" />
    <glyph glyph-name="tilde" unicode="&#x2dc;" horiz-adv-x="550" 
d="M456 584q-40 0 -87.5 27.5t-65.5 27.5q-33 0 -51 -51h-89q38 162 150 162q40 0 87.5 -27.5t65.5 -27.5q33 0 51 51h89q-38 -162 -150 -162z" />
    <glyph glyph-name="hungarumlaut" unicode="&#x2dd;" horiz-adv-x="550" 
d="M114 588l103 158h180l-166 -158h-117zM362 588l103 158h180l-166 -158h-117z" />
    <glyph glyph-name="commatop" unicode="&#x312;" horiz-adv-x="550" 
d="M347 566q-34 0 -52 16t-18 44q0 35 30.5 62.5t95.5 62.5l73 39l39 -51l-95 -85l11 -88h-84z" />
    <glyph glyph-name="caronslovak" unicode="&#x315;" horiz-adv-x="550" 
d="M245 493l73 126v105h67q34 0 52 -16t18 -44q0 -13 -3 -24t-6.5 -19t-14.5 -20.5t-17 -19t-24.5 -24.5t-27.5 -27l-37 -37h-80z" />
    <glyph glyph-name="commaaccent" unicode="&#x326;" horiz-adv-x="550" 
d="M87 -240l-35 54l97 63l-17 81h82q34 0 52 -16t18 -44q0 -40 -37 -71t-126 -57z" />
    <glyph glyph-name="tonos" unicode="&#x384;" horiz-adv-x="550" 
d="M337 579l-10 189h190l-120 -189h-60z" />
    <glyph glyph-name="dieresistonos" unicode="&#x385;" horiz-adv-x="550" 
d="M121 596l37 128h127l-37 -128h-127zM337 579l7 189h156l-103 -189h-60zM498 596l37 128h127l-37 -128h-127z" />
    <glyph glyph-name="Alphatonos" unicode="&#x386;" horiz-adv-x="932" 
d="M-71 0l587 724h168l173 -724h-168l-36 150h-415l-120 -150h-189zM565 574l-239 -299h304zM186 535l-10 189h190l-120 -189h-60z" />
    <glyph glyph-name="Epsilontonos" unicode="&#x388;" horiz-adv-x="838" 
d="M71 0l206 724h611l-34 -118h-445l-50 -176h381l-34 -118h-381l-55 -194h448l-33 -118h-614zM34 535l-10 189h190l-120 -189h-60z" />
    <glyph glyph-name="Etatonos" unicode="&#x389;" horiz-adv-x="999" 
d="M652 0l86 304h-415l-86 -304h-166l206 724h166l-86 -302h415l86 302h166l-206 -724h-166zM34 535l-10 189h190l-120 -189h-60z" />
    <glyph glyph-name="Iotatonos" unicode="&#x38a;" horiz-adv-x="599" 
d="M224 606l34 118h399l-34 -118h-117l-139 -488h117l-34 -118h-399l34 118h116l139 488h-116zM34 535l-10 189h190l-120 -189h-60z" />
    <glyph glyph-name="Omicrontonos" unicode="&#x38c;" horiz-adv-x="1004" 
d="M466 -16q-163 0 -259.5 89.5t-96.5 214.5q0 197 145 324.5t364 127.5q163 0 259.5 -88t96.5 -212q0 -197 -145.5 -326.5t-363.5 -129.5zM485 111q138 0 229 88.5t91 222.5q0 81 -54 136t-151 55q-139 0 -229.5 -87t-90.5 -220q0 -81 54 -138t151 -57zM34 535l-10 189h190
l-120 -189h-60z" />
    <glyph glyph-name="Upsilontonos" unicode="&#x38e;" horiz-adv-x="907" 
d="M341 0l79 280l-202 444h174l137 -319l311 319h203l-460 -454l-77 -270h-165zM18 535l-10 189h190l-120 -189h-60z" />
    <glyph glyph-name="Omegatonos" unicode="&#x38f;" horiz-adv-x="1035" 
d="M24 0l32 114h155q-88 73 -88 199q0 60 22 120.5t66 115.5t104.5 97.5t142.5 68t174 25.5q169 0 261 -78t92 -193q0 -232 -200 -355h170l-32 -114h-403l31 111q122 26 192 122.5t70 209.5q0 76 -48 123t-150 47q-146 0 -235.5 -97.5t-89.5 -232.5q0 -60 29.5 -108.5
t90.5 -63.5l-31 -111h-355zM48 535l-10 189h190l-120 -189h-60z" />
    <glyph glyph-name="iotadieresistonos" unicode="&#x390;" horiz-adv-x="422" 
d="M207 -13q-75 0 -111.5 34t-36.5 91q0 30 9 61l97 340h163l-97 -340q-5 -20 -5 -32q0 -19 13 -27.5t44 -8.5q42 0 71 12l-31 -108q-41 -22 -116 -22zM21 596l37 128h127l-37 -128h-127zM237 579l7 189h156l-103 -189h-60zM398 596l37 128h127l-37 -128h-127z" />
    <glyph glyph-name="Alpha" unicode="&#x391;" horiz-adv-x="932" 
d="M-71 0l587 724h168l173 -724h-168l-36 150h-415l-120 -150h-189zM565 574l-239 -299h304z" />
    <glyph glyph-name="Beta" unicode="&#x392;" horiz-adv-x="857" 
d="M35 0l206 724h334q127 0 192 -44t65 -126q0 -121 -142 -180q95 -41 95 -132q0 -116 -94 -179t-272 -63h-384zM496 314h-207l-57 -200h206q87 0 133.5 33t46.5 88q0 40 -29 59.5t-93 19.5zM548 610h-175l-52 -186h174q76 0 122.5 32t46.5 81q0 73 -116 73z" />
    <glyph glyph-name="Gamma" unicode="&#x393;" horiz-adv-x="694" 
d="M35 0l206 724h555l-33 -118h-390l-172 -606h-166z" />
    <glyph glyph-name="uni0394" unicode="&#x394;" horiz-adv-x="910" 
d="M-30 0l32 112l503 612h168l153 -612l-32 -112h-824zM560 589l-375 -471h482z" />
    <glyph glyph-name="Epsilon" unicode="&#x395;" horiz-adv-x="802" 
d="M35 0l206 724h611l-34 -118h-445l-50 -176h381l-34 -118h-381l-55 -194h448l-33 -118h-614z" />
    <glyph glyph-name="Zeta" unicode="&#x396;" horiz-adv-x="873" 
d="M0 0l29 104l623 502h-465l34 118h692l-29 -103l-625 -503h500l-33 -118h-726z" />
    <glyph glyph-name="Eta" unicode="&#x397;" horiz-adv-x="963" 
d="M616 0l86 304h-415l-86 -304h-166l206 724h166l-86 -302h415l86 302h166l-206 -724h-166z" />
    <glyph glyph-name="Theta" unicode="&#x398;" horiz-adv-x="979" 
d="M337 304l34 118h330l-34 -118h-330zM441 -16q-163 0 -259.5 89.5t-96.5 214.5q0 197 145 324.5t364 127.5q163 0 259.5 -88t96.5 -212q0 -197 -145.5 -326.5t-363.5 -129.5zM460 111q138 0 229 88.5t91 222.5q0 81 -54 136t-151 55q-139 0 -229.5 -87t-90.5 -220
q0 -81 54 -138t151 -57z" />
    <glyph glyph-name="Iota" unicode="&#x399;" horiz-adv-x="551" 
d="M176 606l34 118h399l-34 -118h-117l-139 -488h117l-34 -118h-399l34 118h116l139 488h-116z" />
    <glyph glyph-name="Kappa" unicode="&#x39a;" horiz-adv-x="879" 
d="M35 0l206 724h166l-88 -308l433 308h235l-533 -368l320 -356h-217l-266 318l-90 -318h-166z" />
    <glyph glyph-name="Lambda" unicode="&#x39b;" horiz-adv-x="904" 
d="M-71 0l573 724h168l159 -724h-172l-105 564l-427 -564h-196z" />
    <glyph glyph-name="Mu" unicode="&#x39c;" horiz-adv-x="1174" 
d="M35 0l206 724h163l185 -442l437 442h174l-206 -724h-161l139 490l-356 -360h-115l-159 382l-146 -512h-161z" />
    <glyph glyph-name="Nu" unicode="&#x39d;" horiz-adv-x="983" 
d="M35 0l206 724h179l273 -540l154 540h162l-207 -724h-178l-274 538l-153 -538h-162z" />
    <glyph glyph-name="Xi" unicode="&#x39e;" horiz-adv-x="780" 
d="M-17 0l36 126h644l-36 -126h-644zM139 308l36 126h508l-36 -126h-508zM158 598l36 126h636l-36 -126h-636z" />
    <glyph glyph-name="Omicron" unicode="&#x39f;" horiz-adv-x="979" 
d="M441 -16q-163 0 -259.5 89.5t-96.5 214.5q0 197 145 324.5t364 127.5q163 0 259.5 -88t96.5 -212q0 -197 -145.5 -326.5t-363.5 -129.5zM460 111q138 0 229 88.5t91 222.5q0 81 -54 136t-151 55q-139 0 -229.5 -87t-90.5 -220q0 -81 54 -138t151 -57z" />
    <glyph glyph-name="Pi" unicode="&#x3a0;" horiz-adv-x="943" 
d="M596 0l172 606h-395l-172 -606h-166l206 724h727l-206 -724h-166z" />
    <glyph glyph-name="Rho" unicode="&#x3a1;" horiz-adv-x="817" 
d="M35 0l206 724h302q142 0 222 -50t80 -140q0 -286 -433 -286h-140l-70 -248h-167zM527 606h-153l-68 -240h137q43 0 81 6.5t74.5 22t58 47t21.5 76.5q0 88 -151 88z" />
    <glyph glyph-name="Sigma" unicode="&#x3a3;" horiz-adv-x="815" 
d="M8 0l30 105l412 267l-266 248l30 104h666l-34 -118h-446l219 -200l-25 -88l-310 -200h422l-33 -118h-665z" />
    <glyph glyph-name="Tau" unicode="&#x3a4;" horiz-adv-x="758" 
d="M132 606l34 118h694l-34 -118h-265l-172 -606h-166l172 606h-263z" />
    <glyph glyph-name="Upsilon" unicode="&#x3a5;" horiz-adv-x="821" 
d="M255 0l79 280l-202 444h174l137 -319l311 319h203l-460 -454l-77 -270h-165z" />
    <glyph glyph-name="Phi" unicode="&#x3a6;" horiz-adv-x="1090" 
d="M395 0l17 62q-90 2 -165.5 28t-127 85.5t-51.5 142.5q0 88 41 156t113 108.5t163 61.5t199 22l17 58h156l-18 -63q89 -2 164 -28.5t126.5 -85.5t51.5 -142q0 -88 -40.5 -156t-112.5 -108.5t-163 -61.5t-198 -22l-16 -57h-156zM226 328q0 -72 58.5 -110t160.5 -40l106 370
q-67 -1 -123.5 -14t-102.5 -38.5t-72.5 -68.5t-26.5 -99zM923 395q0 72 -58 109.5t-159 39.5l-106 -369q90 2 160 23.5t116.5 72t46.5 124.5z" />
    <glyph glyph-name="Chi" unicode="&#x3a7;" horiz-adv-x="848" 
d="M-63 0l428 382l-198 342h185l126 -238l255 238h206l-393 -353l219 -371h-185l-147 268l-290 -268h-206z" />
    <glyph glyph-name="Psi" unicode="&#x3a8;" horiz-adv-x="1089" 
d="M388 0l59 209q-149 0 -224.5 68t-75.5 177q0 48 15 99l49 171h166l-50 -173q-16 -56 -16 -95q0 -59 40 -90t132 -31l111 389h166l-111 -389q124 1 187.5 59t93.5 164l48 166h167l-54 -188q-19 -66 -42 -114t-60.5 -90t-87.5 -68t-122 -40.5t-166 -14.5l-59 -209h-166z
" />
    <glyph glyph-name="uni03A9" unicode="&#x3a9;" horiz-adv-x="1025" 
d="M14 0l32 114h155q-88 73 -88 199q0 60 22 120.5t66 115.5t104.5 97.5t142.5 68t174 25.5q169 0 261 -78t92 -193q0 -232 -200 -355h170l-32 -114h-403l31 111q122 26 192 122.5t70 209.5q0 76 -48 123t-150 47q-146 0 -235.5 -97.5t-89.5 -232.5q0 -60 29.5 -108.5
t90.5 -63.5l-31 -111h-355z" />
    <glyph glyph-name="Iotadieresis" unicode="&#x3aa;" horiz-adv-x="551" 
d="M176 606l34 118h399l-34 -118h-117l-139 -488h117l-34 -118h-399l34 118h116l139 488h-116zM218 780l38 128h145l-38 -128h-145zM487 780l38 128h145l-38 -128h-145z" />
    <glyph glyph-name="Upsilondieresis" unicode="&#x3ab;" horiz-adv-x="821" 
d="M255 0l79 280l-202 444h174l137 -319l311 319h203l-460 -454l-77 -270h-165zM336 780l38 128h145l-38 -128h-145zM605 780l38 128h145l-38 -128h-145z" />
    <glyph glyph-name="alphatonos" unicode="&#x3ac;" horiz-adv-x="815" 
d="M640 -12q-51 0 -81.5 23.5t-32.5 64.5q-88 -92 -238 -92q-106 0 -172 64.5t-66 161.5q0 79 30 142t81 100.5t112 57t128 19.5q66 0 124 -20.5t95 -51.5l33 56h138l-99 -350q-4 -16 -4 -24q0 -30 38 -30q30 0 58 9l-30 -107q-37 -23 -114 -23zM342 103q97 0 191 79l49 170
q-74 58 -167 58q-37 0 -71.5 -10.5t-64 -32t-47 -58.5t-17.5 -84q0 -52 33 -87t94 -35zM413 579l-10 189h190l-120 -189h-60z" />
    <glyph glyph-name="epsilontonos" unicode="&#x3ad;" horiz-adv-x="677" 
d="M303 -16q-134 0 -208.5 37.5t-74.5 104.5q0 117 174 143q-88 32 -88 103t79.5 114t217.5 43q160 0 260 -50l-32 -106q-105 38 -222 38q-138 0 -138 -52q0 -26 30 -36.5t92 -10.5h127l-32 -111h-162q-73 0 -107 -12t-34 -41q0 -46 144 -46q154 0 261 39l-35 -117
q-103 -40 -252 -40zM390 579l-10 189h190l-120 -189h-60z" />
    <glyph glyph-name="etatonos" unicode="&#x3ae;" horiz-adv-x="808" 
d="M22 0l146 513h133v-56q84 72 223 72q93 0 155.5 -42t62.5 -119q0 -36 -10 -69l-145 -510h-163l141 496q7 22 7 47q0 80 -109 80q-104 0 -176 -52l-102 -360h-163zM470 579l-10 189h190l-120 -189h-60z" />
    <glyph glyph-name="iotatonos" unicode="&#x3af;" horiz-adv-x="422" 
d="M207 -13q-75 0 -111.5 34t-36.5 91q0 30 9 61l97 340h163l-97 -340q-5 -20 -5 -32q0 -19 13 -27.5t44 -8.5q42 0 71 12l-31 -108q-41 -22 -116 -22zM237 579l-10 189h190l-120 -189h-60z" />
    <glyph glyph-name="upsilondieresistonos" unicode="&#x3b0;" horiz-adv-x="784" 
d="M345 -16q-130 0 -201.5 52t-71.5 149q0 42 15 93l67 235h162l-66 -232q-14 -47 -14 -82q0 -93 117 -93q62 0 107.5 29t70.5 78t36.5 103.5t11.5 114.5q0 47 -9 82h161q11 -42 11 -103q0 -79 -21.5 -151t-66 -135.5t-124.5 -101.5t-185 -38zM223 596l37 128h127l-37 -128
h-127zM439 579l7 189h156l-103 -189h-60zM600 596l37 128h127l-37 -128h-127z" />
    <glyph glyph-name="alpha" unicode="&#x3b1;" horiz-adv-x="839" 
d="M640 -12q-51 0 -81.5 23.5t-32.5 64.5q-88 -92 -238 -92q-106 0 -172 64.5t-66 161.5q0 79 30 142t81 100.5t112 57t128 19.5q66 0 124 -20.5t95 -51.5l33 56h138l-99 -350q-4 -16 -4 -24q0 -30 38 -30q30 0 58 9l-30 -107q-37 -23 -114 -23zM342 103q97 0 191 79l49 170
q-74 58 -167 58q-37 0 -71.5 -10.5t-64 -32t-47 -58.5t-17.5 -84q0 -52 33 -87t94 -35z" />
    <glyph glyph-name="beta" unicode="&#x3b2;" horiz-adv-x="821" 
d="M-39 -211l203 708q37 129 127 186t233 57q128 0 194 -46.5t66 -129.5q0 -73 -50 -124t-145 -71q91 -19 133.5 -59.5t42.5 -105.5q0 -74 -51.5 -125.5t-125.5 -73t-162 -21.5q-70 0 -133 15.5t-98 40.5l-72 -251h-162zM318 467l-95 -329q76 -37 198 -37q91 0 135 28.5
t44 76.5q0 113 -238 113l28 98q120 0 175 36t55 90q0 40 -30 62t-88 22q-76 0 -118 -37.5t-66 -122.5z" />
    <glyph glyph-name="gamma" unicode="&#x3b3;" horiz-adv-x="714" 
d="M159 -211l59 208l-76 343q-8 36 -20.5 51t-40.5 15q-26 0 -44 -6l30 106q33 21 88 21q65 0 90.5 -29.5t42.5 -118.5l43 -228l252 362h177l-380 -521l-58 -203h-163z" />
    <glyph glyph-name="delta" unicode="&#x3b4;" horiz-adv-x="794" 
d="M371 -15q-147 0 -232 61.5t-88 156.5q-2 90 48 159t126.5 102.5t162.5 33.5q28 0 56 -5l-199 153l22 78h510l-33 -114h-273l110 -81q162 -120 162 -249q2 -91 -49 -159.5t-135 -102t-188 -33.5zM376 98q87 0 145 42t58 118q0 62 -44.5 95t-115.5 33q-87 0 -144.5 -42
t-57.5 -118q0 -62 44 -95t115 -33z" />
    <glyph glyph-name="epsilon" unicode="&#x3b5;" horiz-adv-x="677" 
d="M305 -16q-134 0 -208.5 37.5t-74.5 104.5q0 117 174 143q-88 32 -88 103t79.5 114t217.5 43q160 0 260 -50l-32 -106q-105 38 -222 38q-138 0 -138 -52q0 -26 30 -36.5t92 -10.5h127l-32 -111h-162q-73 0 -107 -12t-34 -41q0 -46 144 -46q154 0 261 39l-35 -117
q-103 -40 -252 -40z" />
    <glyph glyph-name="zeta" unicode="&#x3b6;" horiz-adv-x="596" 
d="M270 -166q69 77 116 166h-85q-121 0 -191.5 49t-70.5 136q0 80 56.5 165t135 148.5t169.5 111.5h-253l33 114h506l-25 -88q-67 -30 -142.5 -77t-147.5 -105.5t-119.5 -126t-47.5 -125.5q0 -82 128 -82h115q101 0 103 -72q1 -36 -25 -80t-51.5 -71t-64.5 -63h-139z" />
    <glyph glyph-name="eta" unicode="&#x3b7;" horiz-adv-x="808" 
d="M22 0l146 513h133v-56q84 72 223 72q93 0 155.5 -42t62.5 -119q0 -36 -10 -69l-145 -510h-163l141 496q7 22 7 47q0 80 -109 80q-104 0 -176 -52l-102 -360h-163z" />
    <glyph glyph-name="theta" unicode="&#x3b8;" horiz-adv-x="812" 
d="M347 -16q-128 0 -206 66.5t-78 176.5q0 94 32.5 185.5t90.5 164.5t146.5 118t191.5 45q128 0 206 -67t78 -177q0 -128 -54.5 -243.5t-162 -192t-244.5 -76.5zM361 104q77 0 142 51.5t101 151.5h-370q-7 -34 -7 -66q0 -67 36 -102t98 -35zM509 620q-76 0 -140.5 -50.5
t-100.5 -148.5h368q7 31 7 61q0 68 -35.5 103t-98.5 35z" />
    <glyph glyph-name="iota" unicode="&#x3b9;" horiz-adv-x="422" 
d="M207 -13q-75 0 -111.5 34t-36.5 91q0 30 9 61l97 340h163l-97 -340q-5 -20 -5 -32q0 -19 13 -27.5t44 -8.5q42 0 71 12l-31 -108q-41 -22 -116 -22z" />
    <glyph glyph-name="kappa" unicode="&#x3ba;" horiz-adv-x="708" 
d="M22 0l146 513h163l-58 -205l273 205h208l-336 -251l218 -262h-194l-188 242l-69 -242h-163z" />
    <glyph glyph-name="lambda" unicode="&#x3bb;" horiz-adv-x="748" 
d="M584 -14q-73 0 -106 35.5t-43 105.5l-34 230l-284 -357h-180l431 521l-2 12q-14 87 -114 87q-58 0 -93 -13l33 115q36 18 106 18q103 0 152 -44.5t67 -148.5l67 -383q5 -32 19.5 -44.5t45.5 -12.5q30 0 57 9l-27 -108q-35 -22 -95 -22z" />
    <glyph glyph-name="uni03BC" unicode="&#x3bc;" horiz-adv-x="830" 
d="M631 -12q-48 0 -78 20.5t-35 57.5q-37 -36 -96.5 -59t-125.5 -23q-71 0 -129 26q7 -34 -5 -77l-41 -144h-163l208 724h163l-82 -286q-19 -64 11 -95t94 -31q92 0 164 51l103 361h163l-99 -350q-4 -16 -4 -24q0 -30 38 -30q29 0 58 9l-30 -107q-37 -23 -114 -23z" />
    <glyph glyph-name="nu" unicode="&#x3bd;" horiz-adv-x="691" 
d="M194 0l-114 513h160l68 -362l252 362h177l-374 -513h-169z" />
    <glyph glyph-name="xi" unicode="&#x3be;" horiz-adv-x="617" 
d="M273 -166q69 77 116 166h-84q-116 0 -189.5 51t-73.5 133q0 173 199 219q-81 39 -81 116q0 54 28 97t73 67.5t98 37.5t108 13q124 0 204 -37l-33 -111q-84 27 -186 27q-53 0 -95 -23t-42 -74q0 -65 107 -65h130l-33 -114h-124q-83 0 -135.5 -30.5t-52.5 -99.5
q0 -43 37 -65t104 -22h102q101 0 103 -72q1 -36 -25 -80t-51.5 -71t-64.5 -63h-139z" />
    <glyph glyph-name="omicron" unicode="&#x3bf;" horiz-adv-x="794" 
d="M365 -16q-146 0 -229.5 65t-84.5 163q-1 147 108 232t270 85q146 0 229.5 -65t84.5 -163q1 -147 -108 -232t-270 -85zM373 98q89 0 147.5 48.5t57.5 140.5q-1 56 -44.5 92t-112.5 36q-89 0 -147.5 -48.5t-57.5 -140.5q1 -56 44.5 -92t112.5 -36z" />
    <glyph glyph-name="pi" unicode="&#x3c0;" horiz-adv-x="873" 
d="M68 399l33 114h786l-33 -114h-127l-70 -244q-4 -16 -4 -21q0 -30 53 -30q20 0 34 3l-30 -105q-43 -15 -99 -15q-129 0 -129 96q0 29 10 62l72 254h-216l-113 -399h-163l113 399h-117z" />
    <glyph glyph-name="rho" unicode="&#x3c1;" horiz-adv-x="818" 
d="M-38 -211l138 478q40 138 125 200t255 62q139 0 213 -59.5t74 -161.5q0 -79 -33.5 -143t-87.5 -102t-118 -58.5t-130 -20.5q-125 0 -206 42l-67 -237h-163zM254 243l-33 -117q72 -23 148 -23q102 0 167.5 48t65.5 142q0 59 -39.5 90.5t-103.5 31.5q-89 0 -134 -39.5
t-71 -132.5z" />
    <glyph glyph-name="sigma1" unicode="&#x3c2;" horiz-adv-x="641" 
d="M50 216q0 67 23 121t61 89t89 59t104.5 34t110.5 10q129 0 195 -33l-32 -112q-60 24 -157 24t-163 -43t-66 -137q0 -54 38.5 -81t102.5 -27h102q101 0 103 -72q1 -36 -25 -80t-51.5 -71t-64.5 -63h-139q69 77 116 166h-84q-114 0 -188.5 58t-74.5 158z" />
    <glyph glyph-name="sigma" unicode="&#x3c3;" horiz-adv-x="817" 
d="M355 -16q-146 0 -230 65t-84 163q0 77 30.5 136.5t84.5 94.5t123 52.5t150 17.5h434l-32 -112h-135q37 -46 37 -115q1 -137 -108.5 -219.5t-269.5 -82.5zM568 300q0 64 -29 101h-106q-102 0 -164.5 -41.5t-62.5 -133.5q0 -56 44 -92t113 -36q94 0 150 53.5t55 148.5z" />
    <glyph glyph-name="tau" unicode="&#x3c4;" horiz-adv-x="586" 
d="M43 401l32 112h554l-32 -112h-218l-64 -228q-5 -20 -5 -32q0 -19 13 -27.5t44 -8.5q42 0 71 12l-31 -108q-41 -22 -116 -22t-111.5 34t-36.5 91q0 30 9 61l64 228h-173z" />
    <glyph glyph-name="upsilon" unicode="&#x3c5;" horiz-adv-x="784" 
d="M345 -16q-130 0 -201.5 52t-71.5 149q0 42 15 93l67 235h162l-66 -232q-14 -47 -14 -82q0 -93 117 -93q62 0 107.5 29t70.5 78t36.5 103.5t11.5 114.5q0 47 -9 82h161q11 -42 11 -103q0 -79 -21.5 -151t-66 -135.5t-124.5 -101.5t-185 -38z" />
    <glyph glyph-name="phi" unicode="&#x3c6;" horiz-adv-x="999" 
d="M285 -211l59 208q-118 2 -208.5 62.5t-90.5 155.5q0 149 120.5 227t328.5 80l58 202h163l-61 -212q77 -2 144.5 -26.5t112 -74t44.5 -113.5q0 -149 -120.5 -227t-329.5 -80l-57 -202h-163zM210 229q0 -55 47.5 -86.5t118.5 -31.5h1l85 297q-252 0 -252 -179zM624 402h-1
l-85 -295q252 0 252 177q0 55 -47.5 86.5t-118.5 31.5z" />
    <glyph glyph-name="chi" unicode="&#x3c7;" horiz-adv-x="695" 
d="M470 -225q-57 0 -89.5 28.5t-53.5 90.5l-47 140l-221 -245h-201l377 379l-60 180q-10 30 -25 43.5t-41 13.5q-30 0 -56 -8l31 108q37 21 89 21q57 0 89.5 -28.5t53.5 -90.5l41 -123l207 229h202l-364 -364l66 -196q10 -30 25 -43.5t41 -13.5q30 0 56 8l-31 -108
q-37 -21 -89 -21z" />
    <glyph glyph-name="psi" unicode="&#x3c8;" horiz-adv-x="999" 
d="M282 -211l58 206q-134 7 -201 63.5t-67 150.5q0 42 16 100l59 204h162l-58 -201q-18 -63 -18 -95q0 -45 32.5 -70.5t109.5 -31.5l173 609h163l-174 -610h10q67 0 116.5 28t76 75t39 100.5t12.5 113.5q0 47 -9 82h164q11 -42 11 -103q0 -63 -12.5 -119.5t-43.5 -112
t-78.5 -95.5t-124 -64.5t-173.5 -24.5h-22l-58 -205h-163z" />
    <glyph glyph-name="omega" unicode="&#x3c9;" horiz-adv-x="1035" 
d="M254 -16q-99 0 -152.5 49.5t-53.5 136.5q0 105 51.5 199t143.5 144h172q-89 -53 -148.5 -141t-59.5 -182q0 -84 81 -84q51 0 91 44.5t61 117.5l33 115h157l-33 -115q-15 -53 -15 -86q0 -76 79 -76q69 0 118.5 76t49.5 172q0 103 -60 159h152q61 -47 61 -187
q0 -153 -89.5 -247.5t-233.5 -94.5q-141 0 -192 87q-83 -87 -213 -87z" />
    <glyph glyph-name="iotadieresis" unicode="&#x3ca;" horiz-adv-x="422" 
d="M207 -13q-75 0 -111.5 34t-36.5 91q0 30 9 61l97 340h163l-97 -340q-5 -20 -5 -32q0 -19 13 -27.5t44 -8.5q42 0 71 12l-31 -108q-41 -22 -116 -22zM64 596l38 128h145l-38 -128h-145zM333 596l38 128h145l-38 -128h-145z" />
    <glyph glyph-name="upsilondieresis" unicode="&#x3cb;" horiz-adv-x="784" 
d="M345 -16q-130 0 -201.5 52t-71.5 149q0 42 15 93l67 235h162l-66 -232q-14 -47 -14 -82q0 -93 117 -93q62 0 107.5 29t70.5 78t36.5 103.5t11.5 114.5q0 47 -9 82h161q11 -42 11 -103q0 -79 -21.5 -151t-66 -135.5t-124.5 -101.5t-185 -38zM266 596l38 128h145l-38 -128
h-145zM535 596l38 128h145l-38 -128h-145z" />
    <glyph glyph-name="omicrontonos" unicode="&#x3cc;" horiz-adv-x="794" 
d="M365 -16q-146 0 -229.5 65t-84.5 163q-1 147 108 232t270 85q146 0 229.5 -65t84.5 -163q1 -147 -108 -232t-270 -85zM373 98q89 0 147.5 48.5t57.5 140.5q-1 56 -44.5 92t-112.5 36q-89 0 -147.5 -48.5t-57.5 -140.5q1 -56 44.5 -92t112.5 -36zM408 579l-10 189h190
l-120 -189h-60z" />
    <glyph glyph-name="upsilontonos" unicode="&#x3cd;" horiz-adv-x="784" 
d="M345 -16q-130 0 -201.5 52t-71.5 149q0 42 15 93l67 235h162l-66 -232q-14 -47 -14 -82q0 -93 117 -93q62 0 107.5 29t70.5 78t36.5 103.5t11.5 114.5q0 47 -9 82h161q11 -42 11 -103q0 -79 -21.5 -151t-66 -135.5t-124.5 -101.5t-185 -38zM439 579l-10 189h190
l-120 -189h-60z" />
    <glyph glyph-name="omegatonos" unicode="&#x3ce;" horiz-adv-x="1035" 
d="M251 -16q-99 0 -152.5 49.5t-53.5 136.5q0 105 51.5 199t143.5 144h172q-89 -53 -148.5 -141t-59.5 -182q0 -84 81 -84q51 0 91 44.5t61 117.5l33 115h157l-33 -115q-15 -53 -15 -86q0 -76 79 -76q69 0 118.5 76t49.5 172q0 103 -60 159h152q61 -47 61 -187
q0 -153 -89.5 -247.5t-233.5 -94.5q-141 0 -192 87q-83 -87 -213 -87zM573 579l-10 189h190l-120 -189h-60z" />
    <glyph glyph-name="uni0400" unicode="&#x400;" horiz-adv-x="802" 
d="M35 0l206 724h611l-34 -118h-445l-50 -176h381l-34 -118h-381l-55 -194h448l-33 -118h-614zM526 772l-130 158h188l55 -158h-113z" />
    <glyph glyph-name="uni0401" unicode="&#x401;" horiz-adv-x="802" 
d="M35 0l206 724h611l-34 -118h-445l-50 -176h381l-34 -118h-381l-55 -194h448l-33 -118h-614zM359 780l38 128h145l-38 -128h-145zM628 780l38 128h145l-38 -128h-145z" />
    <glyph glyph-name="uni0402" unicode="&#x402;" horiz-adv-x="1010" 
d="M131 606l34 118h614l-34 -118h-225l-40 -139h186q287 0 287 -197q0 -130 -99 -200t-293 -70h-90l35 114h73q105 0 156 38.5t51 103.5q0 97 -136 97h-202l-100 -353h-166l172 606h-223z" />
    <glyph glyph-name="uni0403" unicode="&#x403;" horiz-adv-x="694" 
d="M35 0l206 724h555l-33 -118h-390l-172 -606h-166zM461 772l130 158h198l-205 -158h-123z" />
    <glyph glyph-name="uni0404" unicode="&#x404;" horiz-adv-x="823" 
d="M457 -16q-96 0 -170 26.5t-117 71t-64 98t-21 112.5q0 193 145 320.5t371 127.5q172 0 278 -53l-35 -127q-104 52 -243 52q-111 0 -201.5 -51.5t-126.5 -134.5h423l-34 -118h-409v-8q0 -86 58 -140t175 -54q104 0 252 45l-38 -129q-106 -38 -243 -38z" />
    <glyph glyph-name="uni0405" unicode="&#x405;" horiz-adv-x="791" 
d="M307 -16q-91 0 -169.5 15t-116.5 35l32 117q124 -44 254 -44q119 0 178 22t59 72q0 31 -40.5 55t-132.5 52q-120 37 -178 84.5t-58 118.5q0 108 95 168.5t288 60.5q81 0 154.5 -14.5t111.5 -35.5l-31 -114q-122 40 -241 40q-104 0 -154.5 -20.5t-50.5 -66.5
q0 -30 40 -52.5t136 -54.5q120 -40 178 -85.5t58 -115.5q0 -110 -107 -173.5t-305 -63.5z" />
    <glyph glyph-name="uni0406" unicode="&#x406;" horiz-adv-x="551" 
d="M176 606l34 118h399l-34 -118h-117l-139 -488h117l-34 -118h-399l34 118h116l139 488h-116z" />
    <glyph glyph-name="uni0407" unicode="&#x407;" horiz-adv-x="551" 
d="M176 606l34 118h399l-34 -118h-117l-139 -488h117l-34 -118h-399l34 118h116l139 488h-116zM218 780l38 128h145l-38 -128h-145zM487 780l38 128h145l-38 -128h-145z" />
    <glyph glyph-name="uni0408" unicode="&#x408;" horiz-adv-x="471" 
d="M163 606l34 118h300l-183 -643q-38 -133 -112.5 -185t-188.5 -52q-81 0 -117 18l34 120q35 -11 64 -11q75 0 108.5 34t57.5 118l137 483h-134z" />
    <glyph glyph-name="uni0409" unicode="&#x409;" horiz-adv-x="1370" 
d="M30 -13q-81 0 -110 18l33 115q30 -10 56 -10q94 0 154 86q56 80 128 320q18 60 59 202v1l1 1v1v1l1 1v1h581l-73 -257h166q287 0 287 -198q0 -130 -102.5 -199.5t-297.5 -69.5h-352l172 606h-250q-75 -254 -146 -415q-44 -100 -123.5 -152t-183.5 -52zM1010 353h-183
l-68 -239h180q104 0 155.5 42.5t51.5 108.5q0 45 -32 66.5t-104 21.5z" />
    <glyph glyph-name="uni040A" unicode="&#x40a;" horiz-adv-x="1385" 
d="M35 0l206 724h166l-86 -302h375l86 302h166l-73 -257h166q287 0 287 -198q0 -130 -102.5 -199.5t-297.5 -69.5h-352l86 304h-375l-86 -304h-166zM1025 353h-183l-68 -239h180q104 0 155.5 42.5t51.5 108.5q0 45 -32 66.5t-104 21.5z" />
    <glyph glyph-name="uni040B" unicode="&#x40b;" horiz-adv-x="1030" 
d="M131 606l34 118h614l-34 -118h-225l-48 -167q104 34 226 34q106 0 170.5 -45t64.5 -135q0 -41 -13 -86l-59 -207h-166l57 198q11 38 11 62q0 46 -35 66.5t-111 20.5q-97 0 -176 -19l-93 -328h-166l172 606h-223z" />
    <glyph glyph-name="uni040C" unicode="&#x40c;" horiz-adv-x="879" 
d="M35 0l206 724h166l-85 -299h39q53 0 77 9.5t61 42.5l271 247h207l-299 -273q-69 -63 -129 -83q55 -18 91 -86l148 -282h-181l-134 256q-18 34 -36 43t-72 9h-77l-87 -308h-166zM505 799l130 158h198l-205 -158h-123z" />
    <glyph glyph-name="uni040D" unicode="&#x40d;" horiz-adv-x="984" 
d="M35 0l206 724h161l-149 -521l573 521h183l-206 -724h-161l148 520l-572 -520h-183zM578 772l-130 158h188l55 -158h-113z" />
    <glyph glyph-name="uni040E" unicode="&#x40e;" horiz-adv-x="833" 
d="M175 -13q-73 0 -111 20l43 116q26 -13 66 -13q52 0 90 26.5t82 81.5l-190 506h172l130 -387l322 387h189l-485 -563q-84 -97 -154 -135.5t-154 -38.5zM552 765q-83 0 -123 47.5t-24 117.5h92q4 -60 71 -60q69 0 105 60h102q-25 -75 -80.5 -120t-142.5 -45z" />
    <glyph glyph-name="uni040F" unicode="&#x40f;" horiz-adv-x="926" 
d="M35 0l206 724h166l-173 -606h378l173 606h166l-206 -724h-284l-51 -178h-142l51 178h-284z" />
    <glyph glyph-name="uni0410" unicode="&#x410;" horiz-adv-x="932" 
d="M-71 0l587 724h168l173 -724h-168l-36 150h-415l-120 -150h-189zM565 574l-239 -299h304z" />
    <glyph glyph-name="uni0411" unicode="&#x411;" horiz-adv-x="847" 
d="M35 0l206 724h618l-34 -118h-453l-50 -178h200q263 0 263 -182q0 -118 -94 -182t-272 -64h-384zM496 314h-207l-57 -200h206q87 0 133.5 33t46.5 88q0 40 -29 59.5t-93 19.5z" />
    <glyph glyph-name="uni0412" unicode="&#x412;" horiz-adv-x="857" 
d="M35 0l206 724h334q127 0 192 -44t65 -126q0 -121 -142 -180q95 -41 95 -132q0 -116 -94 -179t-272 -63h-384zM496 314h-207l-57 -200h206q87 0 133.5 33t46.5 88q0 40 -29 59.5t-93 19.5zM548 610h-175l-52 -186h174q76 0 122.5 32t46.5 81q0 73 -116 73z" />
    <glyph glyph-name="uni0413" unicode="&#x413;" horiz-adv-x="694" 
d="M35 0l206 724h555l-33 -118h-390l-172 -606h-166z" />
    <glyph glyph-name="uni0414" unicode="&#x414;" horiz-adv-x="944" 
d="M-119 -178l86 296h27q28 0 52 7.5t47 29t41 43t39.5 67t37.5 81.5t40.5 107t41.5 123t48 148h610l-173 -606h115l-85 -296h-142l51 178h-643l-51 -178h-142zM329 242q-49 -82 -106 -124h389l139 488h-282q-87 -277 -140 -364z" />
    <glyph glyph-name="uni0415" unicode="&#x415;" horiz-adv-x="802" 
d="M35 0l206 724h611l-34 -118h-445l-50 -176h381l-34 -118h-381l-55 -194h448l-33 -118h-614z" />
    <glyph glyph-name="uni0416" unicode="&#x416;" horiz-adv-x="1286" 
d="M483 0l87 308h-36q-47 0 -69.5 -9t-56.5 -43l-265 -256h-207l312 300q73 71 140 82q-32 18 -66 80l-151 262h169l133 -237q14 -26 21.5 -36t24.5 -18t43 -8h42l85 299h166l-85 -299h6q54 0 78 9.5t60 42.5l261 247h207l-289 -273q-63 -61 -128 -83q57 -19 90 -86
l138 -282h-181l-119 246q-18 36 -39.5 49t-73.5 13h-44l-87 -308h-166z" />
    <glyph glyph-name="uni0417" unicode="&#x417;" horiz-adv-x="752" 
d="M275 -16q-156 0 -266 54l32 116q117 -49 240 -49q101 0 161 34t60 86q0 40 -41.5 66t-131.5 26h-91l34 116h91q98 0 149 31t51 80q0 72 -146 72q-136 0 -259 -52l34 120q107 56 253 56q128 0 207 -47.5t79 -125.5q0 -142 -185 -196q124 -41 124 -148
q0 -106 -104.5 -172.5t-290.5 -66.5z" />
    <glyph glyph-name="uni0418" unicode="&#x418;" horiz-adv-x="984" 
d="M35 0l206 724h161l-149 -521l573 521h183l-206 -724h-161l148 520l-572 -520h-183z" />
    <glyph glyph-name="uni0419" unicode="&#x419;" horiz-adv-x="984" 
d="M35 0l206 724h161l-149 -521l573 521h183l-206 -724h-161l148 520l-572 -520h-183zM614 765q-83 0 -123 47.5t-24 117.5h92q4 -60 71 -60q69 0 105 60h102q-25 -75 -80.5 -120t-142.5 -45z" />
    <glyph glyph-name="uni041A" unicode="&#x41a;" horiz-adv-x="879" 
d="M35 0l206 724h166l-85 -299h39q53 0 77 9.5t61 42.5l271 247h207l-299 -273q-69 -63 -129 -83q55 -18 91 -86l148 -282h-181l-134 256q-18 34 -36 43t-72 9h-77l-87 -308h-166z" />
    <glyph glyph-name="uni041B" unicode="&#x41b;" horiz-adv-x="928" 
d="M581 0l172 606h-270q-75 -254 -146 -415q-44 -100 -123.5 -152t-183.5 -52q-81 0 -110 18l33 115q30 -10 56 -10q94 0 154 86q56 80 128 320q18 60 59 202v1l1 1v1v1l1 1v1h601l-206 -724h-166z" />
    <glyph glyph-name="uni041C" unicode="&#x41c;" horiz-adv-x="1175" 
d="M35 0l206 724h163l185 -442l437 442h174l-206 -724h-161l139 490l-356 -360h-115l-159 382l-146 -512h-161z" />
    <glyph glyph-name="uni041D" unicode="&#x41d;" horiz-adv-x="963" 
d="M616 0l86 304h-415l-86 -304h-166l206 724h166l-86 -302h415l86 302h166l-206 -724h-166z" />
    <glyph glyph-name="uni041E" unicode="&#x41e;" horiz-adv-x="979" 
d="M441 -16q-163 0 -259.5 89.5t-96.5 214.5q0 197 145 324.5t364 127.5q163 0 259.5 -88t96.5 -212q0 -197 -145.5 -326.5t-363.5 -129.5zM460 111q138 0 229 88.5t91 222.5q0 81 -54 136t-151 55q-139 0 -229.5 -87t-90.5 -220q0 -81 54 -138t151 -57z" />
    <glyph glyph-name="uni041F" unicode="&#x41f;" horiz-adv-x="943" 
d="M596 0l172 606h-395l-172 -606h-166l206 724h727l-206 -724h-166z" />
    <glyph glyph-name="uni0420" unicode="&#x420;" horiz-adv-x="817" 
d="M35 0l206 724h302q142 0 222 -50t80 -140q0 -286 -433 -286h-140l-70 -248h-167zM527 606h-153l-68 -240h137q43 0 81 6.5t74.5 22t58 47t21.5 76.5q0 88 -151 88z" />
    <glyph glyph-name="uni0421" unicode="&#x421;" horiz-adv-x="823" 
d="M457 -16q-96 0 -170 26.5t-117 71t-64 98t-21 112.5q0 193 145 320.5t371 127.5q172 0 278 -53l-35 -124q-104 52 -243 52q-147 0 -247.5 -88t-100.5 -227q0 -86 57.5 -138.5t175.5 -52.5q104 0 252 45l-38 -132q-106 -38 -243 -38z" />
    <glyph glyph-name="uni0422" unicode="&#x422;" horiz-adv-x="758" 
d="M132 606l34 118h694l-34 -118h-265l-172 -606h-166l172 606h-263z" />
    <glyph glyph-name="uni0423" unicode="&#x423;" horiz-adv-x="833" 
d="M175 -13q-73 0 -111 20l43 116q26 -13 66 -13q52 0 90 26.5t82 81.5l-190 506h172l130 -387l322 387h189l-485 -563q-84 -97 -154 -135.5t-154 -38.5z" />
    <glyph glyph-name="uni0424" unicode="&#x424;" horiz-adv-x="1090" 
d="M395 0l17 62q-90 2 -165.5 28t-127 85.5t-51.5 142.5q0 88 41 156t113 108.5t163 61.5t199 22l17 58h156l-18 -63q89 -2 164 -28.5t126.5 -85.5t51.5 -142q0 -88 -40.5 -156t-112.5 -108.5t-163 -61.5t-198 -22l-16 -57h-156zM226 328q0 -72 58.5 -110t160.5 -40l106 370
q-67 -1 -123.5 -14t-102.5 -38.5t-72.5 -68.5t-26.5 -99zM923 395q0 72 -58 109.5t-159 39.5l-106 -369q90 2 160 23.5t116.5 72t46.5 124.5z" />
    <glyph glyph-name="uni0425" unicode="&#x425;" horiz-adv-x="848" 
d="M-63 0l428 382l-198 342h185l126 -238l255 238h206l-393 -353l219 -371h-185l-147 268l-290 -268h-206z" />
    <glyph glyph-name="uni0426" unicode="&#x426;" horiz-adv-x="941" 
d="M35 0l206 724h166l-173 -606h375l173 606h166l-173 -606h116l-85 -296h-142l51 178h-680z" />
    <glyph glyph-name="uni0427" unicode="&#x427;" horiz-adv-x="861" 
d="M514 0l70 245q-100 -34 -226 -34q-106 0 -170.5 45t-64.5 135q0 41 13 86l71 247h166l-69 -238q-11 -38 -11 -62q0 -46 35 -66.5t111 -20.5q95 0 176 18l105 369h166l-206 -724h-166z" />
    <glyph glyph-name="uni0428" unicode="&#x428;" horiz-adv-x="1370" 
d="M35 0l206 724h166l-173 -606h328l173 606h166l-173 -606h328l173 606h166l-206 -724h-1154z" />
    <glyph glyph-name="uni0429" unicode="&#x429;" horiz-adv-x="1388" 
d="M35 0l206 724h166l-173 -606h328l173 606h166l-173 -606h328l173 606h166l-173 -606h115l-85 -296h-142l51 178h-1126z" />
    <glyph glyph-name="uni042A" unicode="&#x42a;" horiz-adv-x="1051" 
d="M132 606l34 118h429l-73 -257h185q287 0 287 -198q0 -130 -102.5 -199.5t-297.5 -69.5h-371l172 606h-263zM691 353h-202l-68 -239h199q104 0 155.5 42.5t51.5 108.5q0 45 -32 66.5t-104 21.5z" />
    <glyph glyph-name="uni042B" unicode="&#x42b;" horiz-adv-x="1182" 
d="M35 0l206 724h166l-73 -257h165q287 0 287 -198q0 -130 -102.5 -199.5t-297.5 -69.5h-351zM836 0l206 724h165l-206 -724h-165zM483 353h-182l-68 -239h179q104 0 155.5 42.5t51.5 108.5q0 45 -32 66.5t-104 21.5z" />
    <glyph glyph-name="uni042C" unicode="&#x42c;" horiz-adv-x="863" 
d="M35 0l206 724h166l-73 -257h185q287 0 287 -198q0 -130 -102.5 -199.5t-297.5 -69.5h-371zM503 353h-202l-68 -239h199q104 0 155.5 42.5t51.5 108.5q0 45 -32 66.5t-104 21.5z" />
    <glyph glyph-name="uni042D" unicode="&#x42d;" horiz-adv-x="823" 
d="M185 298l34 118h409v8q0 86 -58 140t-175 54q-104 0 -252 -45l38 129q106 38 243 38q96 0 170 -26.5t117 -71t64 -98t21 -112.5q0 -193 -145 -320.5t-371 -127.5q-172 0 -278 53l35 127q104 -52 243 -52q110 0 200.5 51.5t127.5 134.5h-423z" />
    <glyph glyph-name="uni042E" unicode="&#x42e;" horiz-adv-x="1308" 
d="M35 0l206 724h166l-86 -302h142q44 145 172 231.5t303 86.5q158 0 249.5 -89.5t91.5 -214.5q0 -198 -139 -325t-355 -127q-158 0 -249.5 89.5t-91.5 214.5v16h-157l-86 -304h-166zM804 111q134 0 219.5 86.5t85.5 220.5q0 82 -49 138.5t-141 56.5q-134 0 -219.5 -86.5
t-85.5 -220.5q0 -82 49 -138.5t141 -56.5z" />
    <glyph glyph-name="uni042F" unicode="&#x42f;" horiz-adv-x="858" 
d="M510 0l78 277h-56q-54 0 -77 -9t-60 -43l-244 -225h-205l275 251q38 36 89 53q-145 45 -145 174q0 68 33 117t91 76.5t128 40t155 12.5h311l-206 -724h-167zM337 483q0 -89 148 -89h137l60 212h-138q-38 0 -71.5 -5.5t-65.5 -18t-51 -38t-19 -61.5z" />
    <glyph glyph-name="uni0430" unicode="&#x430;" horiz-adv-x="813" 
d="M513 0v55q-83 -71 -214 -71q-113 0 -181 64t-68 162q0 79 32.5 142t86 100.5t116.5 57t130 19.5q133 0 222 -52l26 36h128l-146 -513h-132zM350 103q101 0 175 49l67 236q-74 22 -144 22q-103 0 -168 -45.5t-65 -139.5q0 -53 34 -87.5t101 -34.5z" />
    <glyph glyph-name="uni0431" unicode="&#x431;" horiz-adv-x="794" 
d="M367 -16q-146 0 -228.5 68t-82.5 191q0 207 131.5 340.5t344.5 143.5l277 13l-36 -128l-239 -11q-111 -5 -174.5 -43.5t-99.5 -113.5q86 58 199 58q138 0 213.5 -63.5t75.5 -155.5q0 -79 -32 -138.5t-87 -93.5t-121 -50.5t-141 -16.5zM419 384q-103 0 -195 -48
q-7 -43 -7 -74q0 -83 38 -123.5t120 -40.5q95 0 151.5 44t56.5 123q0 52 -42 85.5t-122 33.5z" />
    <glyph glyph-name="uni0432" unicode="&#x432;" horiz-adv-x="746" 
d="M22 0l146 513h346q90 0 136 -31.5t46 -89.5q0 -83 -113 -128q80 -27 80 -93q0 -82 -66.5 -126.5t-192.5 -44.5h-382zM429 209h-185l-30 -105h182q107 0 107 60q0 45 -74 45zM452 409h-151l-30 -105h149q108 0 108 61q0 44 -76 44z" />
    <glyph glyph-name="uni0433" unicode="&#x433;" horiz-adv-x="589" 
d="M22 0l146 513h439l-32 -112h-276l-114 -401h-163z" />
    <glyph glyph-name="uni0434" unicode="&#x434;" horiz-adv-x="836" 
d="M73 0l-48 -168h-141l81 280h41q30 0 53 8t44 32.5t36 49t34.5 79.5t33.5 99.5t40 132.5h546l-114 -401h95l-79 -280h-142l48 168h-528zM292 197q-33 -58 -89 -85h313l82 289h-225q-45 -138 -81 -204z" />
    <glyph glyph-name="uni0435" unicode="&#x435;" horiz-adv-x="739" 
d="M350 -15q-143 0 -221.5 62.5t-78.5 161.5q0 144 104 232t261 88q127 0 204.5 -56t77.5 -141q0 -59 -25 -116h-464q1 -55 43.5 -84t140.5 -29q48 0 112.5 12.5t112.5 31.5l-31 -114q-96 -48 -236 -48zM401 419q-137 0 -179 -110h317q1 4 1 12q0 47 -38.5 72.5t-100.5 25.5
z" />
    <glyph glyph-name="uni0436" unicode="&#x436;" horiz-adv-x="1111" 
d="M395 0l59 208h-111q-30 -97 -98 -160.5t-179 -63.5q-28 0 -60 7t-40 14l31 108q29 -11 60 -11q56 0 95 36.5t54 82.5t15 94q0 55 -22 75.5t-64 20.5q-31 0 -56 -10l31 108q32 20 87 20q67 0 116.5 -47t49.5 -140q0 -10 -2 -32h122l58 203h147l-58 -203h111
q31 95 98.5 157t177.5 62q28 0 60 -7t40 -14l-31 -108q-29 11 -60 11q-56 0 -95 -36.5t-54 -82.5t-15 -94q0 -55 22 -75.5t64 -20.5q31 0 56 10l-31 -108q-32 -20 -87 -20q-67 0 -116.5 47t-49.5 140q0 11 2 37h-121l-59 -208h-147z" />
    <glyph glyph-name="uni0437" unicode="&#x437;" horiz-adv-x="677" 
d="M252 -16q-159 0 -252 50l32 107q113 -40 232 -40q169 0 169 62q-2 39 -109 39h-161l32 109h146q132 0 132 57q0 20 -33.5 32.5t-99.5 12.5q-121 0 -238 -37l32 115q98 38 258 38q119 0 182.5 -33t63.5 -90q0 -115 -136 -149q96 -25 96 -92q0 -55 -34.5 -93t-91.5 -56
t-110 -25t-110 -7z" />
    <glyph glyph-name="uni0438" unicode="&#x438;" horiz-adv-x="799" 
d="M498 0v53q-82 -69 -214 -69q-91 0 -154.5 42t-63.5 119q0 36 10 69l85 299h162l-81 -285q-7 -22 -7 -47q0 -80 108 -80q95 0 168 50l103 362h163l-146 -513h-133z" />
    <glyph glyph-name="uni0439" unicode="&#x439;" horiz-adv-x="799" 
d="M498 0v53q-82 -69 -214 -69q-91 0 -154.5 42t-63.5 119q0 36 10 69l85 299h162l-81 -285q-7 -22 -7 -47q0 -80 108 -80q95 0 168 50l103 362h163l-146 -513h-133zM488 581q-83 0 -123 47.5t-24 117.5h92q4 -60 71 -60q69 0 105 60h102q-25 -75 -80.5 -120t-142.5 -45z
" />
    <glyph glyph-name="uni043A" unicode="&#x43a;" horiz-adv-x="749" 
d="M22 0l146 513h163l-57 -200h43q31 0 50.5 7.5t44.5 28.5l194 164h189l-227 -192q-55 -46 -107 -61q45 -17 86 -77l119 -183h-181l-105 170q-12 21 -27 28.5t-46 7.5h-64l-58 -206h-163z" />
    <glyph glyph-name="uni043B" unicode="&#x43b;" horiz-adv-x="826" 
d="M495 0l114 401h-225q-40 -136 -89 -237q-42 -88 -103.5 -132.5t-153.5 -44.5q-67 0 -95 19l30 104q20 -6 43 -6q86 0 128.5 81.5t112.5 327.5h547l-146 -513h-163z" />
    <glyph glyph-name="uni043C" unicode="&#x43c;" horiz-adv-x="1002" 
d="M22 0l147 513h144l175 -274l322 274h170l-147 -513h-157l92 320l-253 -213h-94l-148 229l-96 -336h-155z" />
    <glyph glyph-name="uni043D" unicode="&#x43d;" horiz-adv-x="839" 
d="M508 0l60 211h-323l-60 -211h-163l146 513h163l-54 -190h323l54 190h163l-146 -513h-163z" />
    <glyph glyph-name="uni043E" unicode="&#x43e;" horiz-adv-x="794" 
d="M365 -16q-146 0 -229.5 65t-84.5 163q-1 147 108 232t270 85q146 0 229.5 -65t84.5 -163q1 -147 -108 -232t-270 -85zM373 98q89 0 147.5 48.5t57.5 140.5q-1 56 -44.5 92t-112.5 36q-89 0 -147.5 -48.5t-57.5 -140.5q1 -56 44.5 -92t112.5 -36z" />
    <glyph glyph-name="uni043F" unicode="&#x43f;" horiz-adv-x="808" 
d="M22 0l146 513h133v-56q84 72 223 72q93 0 155.5 -42t62.5 -119q0 -36 -10 -69l-85 -299h-163l81 285q7 22 7 47q0 80 -109 80q-104 0 -176 -52l-102 -360h-163z" />
    <glyph glyph-name="uni0440" unicode="&#x440;" horiz-adv-x="813" 
d="M-38 -211l206 724h138l-5 -59q87 75 223 75q110 0 174.5 -61.5t64.5 -159.5q0 -79 -33.5 -143t-87.5 -102t-118 -58.5t-130 -20.5q-124 0 -202 40l-67 -235h-163zM463 410q-103 0 -175 -50l-68 -235q74 -22 145 -22q102 0 167.5 48t65.5 142q0 52 -34 84.5t-101 32.5z
" />
    <glyph glyph-name="uni0441" unicode="&#x441;" horiz-adv-x="641" 
d="M331 -16q-129 0 -205 64t-76 168q0 67 23 121t61 89t89 59t104.5 34t110.5 10q129 0 195 -33l-32 -112q-60 24 -157 24t-163 -43t-66 -137q0 -54 40 -90t122 -36q33 0 83.5 9.5t82.5 23.5l-35 -118q-26 -13 -78.5 -23t-98.5 -10z" />
    <glyph glyph-name="uni0442" unicode="&#x442;" horiz-adv-x="593" 
d="M60 401l32 112h554l-32 -112h-196l-114 -401h-163l114 401h-195z" />
    <glyph glyph-name="uni0443" unicode="&#x443;" horiz-adv-x="691" 
d="M12 -225q-56 0 -100 18l30 119q28 -10 55 -10q62 0 107.5 20t80.5 73l8 11l-113 507h160l68 -362l252 362h177l-398 -545q-83 -113 -152.5 -153t-174.5 -40z" />
    <glyph glyph-name="uni0444" unicode="&#x444;" horiz-adv-x="1118" 
d="M347 -211l69 245q-68 -50 -155 -50q-96 0 -153.5 52t-57.5 148q0 154 94 249.5t232 95.5q102 0 170 -41l67 236h157l-70 -246q67 51 157 51q96 0 153.5 -52t57.5 -148q0 -154 -94 -249.5t-232 -95.5q-103 0 -171 41l-67 -236h-157zM797 414q-64 0 -124 -30l-75 -265
q58 -20 118 -20q86 0 141 61t55 144q0 53 -32 81.5t-83 28.5zM321 99q64 0 122 29l76 266q-58 20 -117 20q-86 0 -141 -61t-55 -144q0 -53 32 -81.5t83 -28.5z" />
    <glyph glyph-name="uni0445" unicode="&#x445;" horiz-adv-x="720" 
d="M-46 0l309 266l-159 247h181l91 -158l172 158h198l-304 -262l168 -251h-184l-97 162l-180 -162h-195z" />
    <glyph glyph-name="uni0446" unicode="&#x446;" horiz-adv-x="820" 
d="M540 -168l46 161q-65 7 -83 65q-81 -74 -219 -74q-91 0 -154.5 42t-63.5 119q0 36 10 69l85 299h162l-81 -285q-7 -22 -7 -47q0 -80 108 -80q95 0 168 50l103 362h163l-99 -349q-4 -16 -4 -23q0 -50 81 -50l-73 -259h-142z" />
    <glyph glyph-name="uni0447" unicode="&#x447;" horiz-adv-x="789" 
d="M458 0l47 167q-93 -43 -196 -43q-92 0 -156 40t-64 126q0 33 12 75l42 148h163l-41 -145q-10 -33 -10 -58q0 -34 26 -50t87 -16q91 0 167 26l69 243h163l-146 -513h-163z" />
    <glyph glyph-name="uni0448" unicode="&#x448;" horiz-adv-x="1252" 
d="M737 -16q-64 0 -116.5 21t-79.5 62q-41 -38 -109.5 -60.5t-147.5 -22.5q-91 0 -154.5 42t-63.5 119q0 36 10 69l85 299h162l-81 -285q-7 -22 -7 -47q0 -80 108 -80q103 0 176 54q2 32 10 59l85 299h162l-81 -285q-7 -22 -7 -47q0 -80 108 -80q95 0 168 50l103 362h163
l-146 -513h-133v53q-82 -69 -214 -69z" />
    <glyph glyph-name="uni0449" unicode="&#x449;" horiz-adv-x="1273" 
d="M737 -16q-64 0 -116.5 21t-79.5 62q-41 -38 -109.5 -60.5t-147.5 -22.5q-91 0 -154.5 42t-63.5 119q0 36 10 69l85 299h162l-81 -285q-7 -22 -7 -47q0 -80 108 -80q103 0 176 54q2 32 10 59l85 299h162l-81 -285q-7 -22 -7 -47q0 -80 108 -80q95 0 168 50l103 362h163
l-99 -349q-4 -16 -4 -24q0 -49 81 -49l-73 -259h-142l46 161q-65 7 -83 65q-81 -74 -219 -74z" />
    <glyph glyph-name="uni044A" unicode="&#x44a;" horiz-adv-x="866" 
d="M60 401l32 112h358l-46 -159h174q108 0 162 -40.5t54 -112.5q0 -96 -76 -148.5t-220 -52.5h-357l114 401h-195zM552 246h-178l-40 -138h182q57 0 85 23.5t28 59.5q0 25 -19.5 40t-57.5 15z" />
    <glyph glyph-name="uni044B" unicode="&#x44b;" horiz-adv-x="1043" 
d="M22 0l146 513h163l-48 -167h167q213 0 213 -148q0 -96 -76 -147t-220 -51h-345zM712 0l146 513h163l-146 -513h-163zM422 238h-170l-37 -130h170q57 0 85 21t28 57q0 52 -76 52z" />
    <glyph glyph-name="uni044C" unicode="&#x44c;" horiz-adv-x="747" 
d="M22 0l146 513h163l-46 -159h174q108 0 162 -40.5t54 -112.5q0 -96 -76 -148.5t-220 -52.5h-357zM433 246h-178l-40 -138h182q57 0 85 23.5t28 59.5q0 25 -19.5 40t-57.5 15z" />
    <glyph glyph-name="uni044D" unicode="&#x44d;" horiz-adv-x="660" 
d="M155 211l28 97h263q-15 105 -171 105q-102 0 -178 -33l35 116q29 14 81 23.5t96 9.5q140 0 220.5 -63.5t80.5 -168.5q0 -83 -33.5 -145.5t-90.5 -98t-123 -52.5t-141 -17q-70 0 -130 10t-85 23l32 110q60 -24 176 -24q80 0 141.5 26t81.5 82h-283z" />
    <glyph glyph-name="uni044E" unicode="&#x44e;" horiz-adv-x="1115" 
d="M22 0l146 513h163l-54 -190h131q35 98 130 152t221 54q145 0 224.5 -64.5t80.5 -163.5q1 -147 -104 -232t-265 -85q-145 0 -224.5 64t-80.5 163h-145l-60 -211h-163zM703 98q88 0 142.5 48t53.5 141q-1 57 -40.5 92.5t-107.5 35.5q-88 0 -142.5 -48t-53.5 -141
q1 -57 40.5 -92.5t107.5 -35.5z" />
    <glyph glyph-name="uni044F" unicode="&#x44f;" horiz-adv-x="763" 
d="M432 0l53 187h-82q-68 0 -109 -39l-160 -148h-198l191 169q50 43 107 54q-120 22 -120 113q0 81 84.5 129t211.5 48h331l-146 -513h-163zM275 339q0 -51 106 -51h133l34 122h-131q-63 0 -102.5 -17.5t-39.5 -53.5z" />
    <glyph glyph-name="uni0450" unicode="&#x450;" horiz-adv-x="739" 
d="M350 -15q-143 0 -221.5 62.5t-78.5 161.5q0 144 104 232t261 88q127 0 204.5 -56t77.5 -141q0 -59 -25 -116h-464q1 -55 43.5 -84t140.5 -29q48 0 112.5 12.5t112.5 31.5l-31 -114q-96 -48 -236 -48zM401 419q-137 0 -179 -110h317q1 4 1 12q0 47 -38.5 72.5t-100.5 25.5
zM383 588l-130 158h188l55 -158h-113z" />
    <glyph glyph-name="uni0451" unicode="&#x451;" horiz-adv-x="739" 
d="M350 -15q-143 0 -221.5 62.5t-78.5 161.5q0 144 104 232t261 88q127 0 204.5 -56t77.5 -141q0 -59 -25 -116h-464q1 -55 43.5 -84t140.5 -29q48 0 112.5 12.5t112.5 31.5l-31 -114q-96 -48 -236 -48zM401 419q-137 0 -179 -110h317q1 4 1 12q0 47 -38.5 72.5t-100.5 25.5
zM216 596l38 128h145l-38 -128h-145zM485 596l38 128h145l-38 -128h-145z" />
    <glyph glyph-name="uni0452" unicode="&#x452;" horiz-adv-x="787" 
d="M123 572l30 108h62l13 44h163l-13 -44h103l-30 -108h-103l-36 -125q83 62 187 62q93 0 153.5 -62.5t60.5 -179.5q0 -212 -122 -353t-310 -141q-88 0 -127 21l31 106q32 -13 86 -13q81 0 146 57.5t97 141t32 170.5q0 63 -27 98t-78 35q-87 0 -160 -50l-96 -339h-163
l163 572h-62z" />
    <glyph glyph-name="uni0453" unicode="&#x453;" horiz-adv-x="589" 
d="M22 0l146 513h439l-32 -112h-276l-114 -401h-163zM335 588l130 158h198l-205 -158h-123z" />
    <glyph glyph-name="uni0454" unicode="&#x454;" horiz-adv-x="661" 
d="M351 -16q-140 0 -220.5 63.5t-80.5 168.5q0 83 33.5 145.5t90.5 98t123 52.5t141 17q70 0 130 -10t85 -23l-32 -110q-60 24 -176 24q-77 0 -137 -24t-83 -75h283l-28 -97h-266q9 -114 171 -114q102 0 178 33l-35 -116q-29 -14 -81 -23.5t-96 -9.5z" />
    <glyph glyph-name="uni0455" unicode="&#x455;" horiz-adv-x="674" 
d="M260 -15q-69 0 -136.5 13.5t-105.5 34.5l30 108q36 -17 97.5 -28t119.5 -11q159 0 159 44q0 20 -29.5 31t-107.5 29q-96 22 -142 54t-46 88q0 180 303 180q134 0 235 -48l-30 -107q-38 17 -98 28t-110 11q-139 0 -139 -43q0 -19 30 -31t107 -29q95 -22 142 -54t47 -88
q0 -53 -28.5 -90t-78.5 -56.5t-103 -27.5t-116 -8z" />
    <glyph glyph-name="uni0456" unicode="&#x456;" horiz-adv-x="353" 
d="M22 0l146 513h163l-146 -513h-163zM189 587l39 137h163l-39 -137h-163z" />
    <glyph glyph-name="uni0457" unicode="&#x457;" horiz-adv-x="353" 
d="M22 0l146 513h163l-146 -513h-163zM67 596l38 128h145l-38 -128h-145zM336 596l38 128h145l-38 -128h-145z" />
    <glyph glyph-name="uni0458" unicode="&#x458;" horiz-adv-x="353" 
d="M-93 -225q-79 0 -121 20l34 117q32 -14 80 -14q61 0 86.5 32t49.5 118l132 465h163l-143 -502q-37 -129 -101 -182.5t-180 -53.5zM189 587l39 137h163l-39 -137h-163z" />
    <glyph glyph-name="uni0459" unicode="&#x459;" horiz-adv-x="1193" 
d="M38 -13q-67 0 -95 19l30 104q20 -6 43 -6q86 0 128.5 81.5t112.5 327.5h533l-48 -167h166q213 0 213 -148q0 -96 -76 -147t-220 -51h-344l114 401h-211q-40 -136 -89 -237q-42 -88 -103.5 -132.5t-153.5 -44.5zM880 238h-169l-37 -130h169q57 0 85 21t28 57q0 52 -76 52z
" />
    <glyph glyph-name="uni045A" unicode="&#x45a;" horiz-adv-x="1195" 
d="M22 0l146 513h163l-54 -190h299l54 190h163l-48 -167h165q213 0 213 -148q0 -96 -76 -147t-220 -51h-343l60 211h-299l-60 -211h-163zM882 238h-168l-37 -130h168q57 0 85 21t28 57q0 52 -76 52z" />
    <glyph glyph-name="uni045B" unicode="&#x45b;" horiz-adv-x="808" 
d="M123 572l30 108h62l13 44h163l-13 -44h103l-30 -108h-104l-28 -101q83 58 205 58q93 0 155.5 -42t62.5 -119q0 -36 -10 -69l-85 -299h-163l81 285q7 22 7 47q0 80 -109 80q-104 0 -176 -52l-102 -360h-163l163 572h-62z" />
    <glyph glyph-name="uni045C" unicode="&#x45c;" horiz-adv-x="749" 
d="M22 0l146 513h163l-57 -200h43q31 0 50.5 7.5t44.5 28.5l194 164h189l-227 -192q-55 -46 -107 -61q45 -17 86 -77l119 -183h-181l-105 170q-12 21 -27 28.5t-46 7.5h-64l-58 -206h-163zM416 588l130 158h198l-205 -158h-123z" />
    <glyph glyph-name="uni045D" unicode="&#x45d;" horiz-adv-x="799" 
d="M498 0v53q-82 -69 -214 -69q-91 0 -154.5 42t-63.5 119q0 36 10 69l85 299h162l-81 -285q-7 -22 -7 -47q0 -80 108 -80q95 0 168 50l103 362h163l-146 -513h-133zM452 588l-130 158h188l55 -158h-113z" />
    <glyph glyph-name="uni045E" unicode="&#x45e;" horiz-adv-x="691" 
d="M12 -225q-56 0 -100 18l30 119q28 -10 55 -10q62 0 107.5 20t80.5 73l8 11l-113 507h160l68 -362l252 362h177l-398 -545q-83 -113 -152.5 -153t-174.5 -40zM420 581q-83 0 -123 47.5t-24 117.5h92q4 -60 71 -60q69 0 105 60h102q-25 -75 -80.5 -120t-142.5 -45z" />
    <glyph glyph-name="uni045F" unicode="&#x45f;" horiz-adv-x="799" 
d="M498 0v53q-46 -38 -107 -54l-47 -167h-142l44 154q-79 9 -129.5 50t-50.5 109q0 36 10 69l85 299h162l-81 -285q-7 -22 -7 -47q0 -80 108 -80q95 0 168 50l103 362h163l-146 -513h-133z" />
    <glyph glyph-name="uni0472" unicode="&#x472;" horiz-adv-x="979" 
d="M441 -16q-163 0 -259.5 89.5t-96.5 214.5q0 197 145 324.5t364 127.5q163 0 259.5 -88t96.5 -212q0 -197 -145.5 -326.5t-363.5 -129.5zM460 111q104 0 183.5 52.5t114.5 140.5h-503q1 -81 55 -137t150 -56zM575 613q-105 0 -185 -52t-114 -139h504q0 81 -54 136t-151 55
z" />
    <glyph glyph-name="uni0473" unicode="&#x473;" horiz-adv-x="794" 
d="M365 -16q-146 0 -229.5 65t-84.5 163q-1 147 108 232t270 85q146 0 229.5 -65t84.5 -163q1 -147 -108 -232t-270 -85zM422 421q-76 0 -129 -30t-73 -89h364q-5 54 -47.5 86.5t-114.5 32.5zM372 92q76 0 129 30t73 89h-365q5 -55 47.5 -87t115.5 -32z" />
    <glyph glyph-name="uni0490" unicode="&#x490;" horiz-adv-x="694" 
d="M35 0l206 724h414l51 178h142l-85 -296h-390l-172 -606h-166z" />
    <glyph glyph-name="uni0491" unicode="&#x491;" horiz-adv-x="589" 
d="M22 0l146 513h297l48 168h142l-79 -280h-277l-114 -401h-163z" />
    <glyph glyph-name="uni0492" unicode="&#x492;" horiz-adv-x="703" 
d="M69 309l30 108h63l88 307h555l-33 -118h-390l-54 -189h144l-30 -108h-145l-87 -309h-166l88 309h-63z" />
    <glyph glyph-name="uni0493" unicode="&#x493;" horiz-adv-x="593" 
d="M16 185l28 98h62l66 230h439l-32 -112h-276l-34 -118h113l-28 -98h-113l-52 -185h-163l52 185h-62z" />
    <glyph glyph-name="uni0496" unicode="&#x496;" horiz-adv-x="1307" 
d="M483 0l87 308h-36q-47 0 -69.5 -9t-56.5 -43l-265 -256h-207l312 300q73 71 140 82q-32 18 -66 80l-151 262h169l133 -237q14 -26 21.5 -36t24.5 -18t43 -8h42l85 299h166l-85 -299h6q54 0 78 9.5t60 42.5l261 247h207l-289 -273q-63 -61 -128 -83q57 -19 90 -86l80 -164
h112l-85 -296h-142l51 178h-59l-119 246q-18 36 -39.5 49t-73.5 13h-44l-87 -308h-166z" />
    <glyph glyph-name="uni0497" unicode="&#x497;" horiz-adv-x="1111" 
d="M395 0l59 208h-111q-30 -97 -98 -160.5t-179 -63.5q-28 0 -60 7t-40 14l31 108q29 -11 60 -11q56 0 95 36.5t54 82.5t15 94q0 55 -22 75.5t-64 20.5q-31 0 -56 -10l31 108q32 20 87 20q67 0 116.5 -47t49.5 -140q0 -10 -2 -32h122l58 203h147l-58 -203h111
q31 95 98.5 157t177.5 62q28 0 60 -7t40 -14l-31 -108q-29 11 -60 11q-56 0 -95 -36.5t-54 -82.5t-15 -94q0 -55 22 -75.5t64 -20.5q31 0 56 10l-79 -280h-142l47 161q-48 16 -79 61t-31 117q0 11 2 37h-121l-59 -208h-147z" />
    <glyph glyph-name="uni0498" unicode="&#x498;" horiz-adv-x="752" 
d="M291 -178h-142l47 166q-107 10 -187 50l32 116q117 -49 240 -49q101 0 161 34t60 86q0 40 -41.5 66t-131.5 26h-91l34 116h91q98 0 149 31t51 80q0 72 -146 72q-136 0 -259 -52l34 120q107 56 253 56q128 0 207 -47.5t79 -125.5q0 -142 -185 -196q124 -41 124 -148
q0 -97 -87.5 -161.5t-244.5 -75.5z" />
    <glyph glyph-name="uni0499" unicode="&#x499;" horiz-adv-x="677" 
d="M261 -168h-142l45 157q-99 10 -164 45l32 107q113 -40 232 -40q169 0 169 62q-2 39 -109 39h-161l32 109h146q132 0 132 57q0 20 -33.5 32.5t-99.5 12.5q-121 0 -238 -37l32 115q98 38 258 38q119 0 182.5 -33t63.5 -90q0 -115 -136 -149q96 -25 96 -92q0 -48 -27 -83.5
t-73.5 -54.5t-93.5 -28.5t-101 -12.5z" />
    <glyph glyph-name="uni049A" unicode="&#x49a;" horiz-adv-x="900" 
d="M35 0l206 724h166l-85 -299h39q53 0 77 9.5t61 42.5l271 247h207l-299 -273q-69 -63 -129 -83q55 -18 91 -86l86 -164h116l-85 -296h-142l51 178h-59l-134 256q-18 34 -36 43t-72 9h-77l-87 -308h-166z" />
    <glyph glyph-name="uni049B" unicode="&#x49b;" horiz-adv-x="767" 
d="M22 0l146 513h163l-57 -200h43q31 0 50.5 7.5t44.5 28.5l194 164h189l-227 -192q-55 -46 -107 -61q49 -19 86 -77l46 -71h125l-79 -280h-142l49 168h-61l-105 170q-12 21 -27 28.5t-46 7.5h-64l-58 -206h-163z" />
    <glyph glyph-name="uni049C" unicode="&#x49c;" horiz-adv-x="879" 
d="M35 0l207 724h166l-86 -299h64l34 116h122l-33 -113q23 4 37 14t36 35l211 247h186l-239 -273q-54 -62 -113 -83q55 -19 75 -86l88 -282h-178l-74 256q-8 27 -21.5 37.5t-42.5 13.5l-32 -112h-122l32 113h-63l-88 -308h-166z" />
    <glyph glyph-name="uni049D" unicode="&#x49d;" horiz-adv-x="749" 
d="M22 0l147 513h163l-58 -200h44l28 97h112l-27 -94q32 6 54 33l134 164h176l-167 -192q-39 -46 -97 -61q56 -14 76 -77l59 -183h-175l-45 170q-9 32 -47 35l-29 -101h-112l29 102h-43l-59 -206h-163z" />
    <glyph glyph-name="uni04A0" unicode="&#x4a0;" horiz-adv-x="1067" 
d="M223 0l172 606h-263l34 118h429l-85 -299h39q53 0 77 9.5t61 42.5l271 247h207l-299 -273q-69 -63 -129 -83q55 -18 91 -86l148 -282h-181l-134 256q-18 34 -36 43t-72 9h-77l-87 -308h-166z" />
    <glyph glyph-name="uni04A1" unicode="&#x4a1;" horiz-adv-x="868" 
d="M141 0l114 401h-195l32 112h358l-57 -200h43q32 0 51 7.5t44 28.5l194 164h189l-227 -192q-55 -46 -107 -61q45 -17 86 -77l119 -183h-181l-105 170q-12 21 -27 28.5t-46 7.5h-64l-58 -206h-163z" />
    <glyph glyph-name="uni04A2" unicode="&#x4a2;" horiz-adv-x="963" 
d="M616 0l86 304h-415l-86 -304h-166l206 724h166l-86 -302h415l86 302h166l-173 -606h115l-85 -296h-142l51 178h-138z" />
    <glyph glyph-name="uni04A3" unicode="&#x4a3;" horiz-adv-x="839" 
d="M508 0l60 211h-323l-60 -211h-163l146 513h163l-54 -190h323l54 190h163l-114 -401h98l-79 -280h-142l49 168h-121z" />
    <glyph glyph-name="uni04AA" unicode="&#x4aa;" horiz-adv-x="823" 
d="M461 -178h-142l48 169q-141 21 -211.5 106t-70.5 195q0 193 145 320.5t371 127.5q172 0 278 -53l-35 -124q-104 52 -243 52q-147 0 -247.5 -88t-100.5 -227q0 -86 57.5 -138.5t175.5 -52.5q104 0 252 45l-38 -132q-85 -30 -192 -36z" />
    <glyph glyph-name="uni04AB" unicode="&#x4ab;" horiz-adv-x="641" 
d="M347 -168h-142l46 160q-94 18 -147.5 77.5t-53.5 146.5q0 67 23 121t61 89t89 59t104.5 34t110.5 10q129 0 195 -33l-32 -112q-60 24 -157 24t-163 -43t-66 -137q0 -54 40 -90t122 -36q33 0 83.5 9.5t82.5 23.5l-35 -118q-40 -21 -118 -29z" />
    <glyph glyph-name="uni04AE" unicode="&#x4ae;" horiz-adv-x="821" 
d="M255 0l79 280l-202 444h174l137 -319l311 319h203l-460 -454l-77 -270h-165z" />
    <glyph glyph-name="uni04AF" unicode="&#x4af;" horiz-adv-x="691" 
d="M300 -211h-163l58 206l-115 518h160l68 -362l252 362h177l-378 -518z" />
    <glyph glyph-name="uni04B0" unicode="&#x4b0;" horiz-adv-x="821" 
d="M255 0l39 139h-235l33 114h234l8 27l-202 444h174l137 -319l311 319h203l-460 -454l-5 -17h234l-33 -114h-234l-39 -139h-165z" />
    <glyph glyph-name="uni04B1" unicode="&#x4b1;" horiz-adv-x="691" 
d="M-26 -85l32 112h188l-114 486h160l68 -362l252 362h177l-361 -486h192l-32 -112h-200l-36 -126h-163l36 126h-199z" />
    <glyph glyph-name="uni04B2" unicode="&#x4b2;" horiz-adv-x="869" 
d="M-63 0l428 382l-198 342h185l126 -238l255 238h206l-393 -353l149 -253h124l-85 -296h-142l51 178h-63l-147 268l-290 -268h-206z" />
    <glyph glyph-name="uni04B3" unicode="&#x4b3;" horiz-adv-x="738" 
d="M-46 0l309 266l-159 247h181l91 -158l172 158h198l-304 -262l93 -139h127l-79 -280h-142l49 168h-64l-97 162l-180 -162h-195z" />
    <glyph glyph-name="uni04B6" unicode="&#x4b6;" horiz-adv-x="879" 
d="M514 0l70 245q-100 -34 -226 -34q-106 0 -170.5 45t-64.5 135q0 41 13 86l71 247h166l-69 -238q-11 -38 -11 -62q0 -46 35 -66.5t111 -20.5q95 0 176 18l105 369h166l-173 -606h115l-85 -296h-142l51 178h-138z" />
    <glyph glyph-name="uni04B7" unicode="&#x4b7;" horiz-adv-x="810" 
d="M458 0l47 167q-93 -43 -196 -43q-92 0 -156 40t-64 126q0 33 12 75l42 148h163l-41 -145q-10 -33 -10 -58q0 -34 26 -50t87 -16q91 0 167 26l69 243h163l-114 -401h98l-79 -280h-142l49 168h-121z" />
    <glyph glyph-name="uni04B8" unicode="&#x4b8;" horiz-adv-x="861" 
d="M514 0l70 245q-56 -20 -121 -28l-33 -113h-122l31 107q-99 4 -157.5 49t-58.5 131q0 41 13 86l71 247h166l-69 -238q-11 -38 -11 -62q0 -36 20 -55.5t63 -27.5l32 109h122l-32 -111q56 3 117 16l105 369h166l-206 -724h-166z" />
    <glyph glyph-name="uni04B9" unicode="&#x4b9;" horiz-adv-x="789" 
d="M458 0l47 167q-52 -23 -105 -34l-28 -99h-112l26 90q-85 5 -141 45t-56 121q0 33 12 75l42 148h163l-41 -145q-10 -33 -10 -58q0 -53 66 -63l27 93h112l-27 -93q52 6 102 23l69 243h163l-146 -513h-163z" />
    <glyph glyph-name="uni04BA" unicode="&#x4ba;" horiz-adv-x="869" 
d="M407 724l-70 -245q100 34 226 34q106 0 170.5 -45t64.5 -135q0 -41 -13 -86l-71 -247h-166l69 238q11 38 11 62q0 46 -35 66.5t-111 20.5q-95 0 -176 -18l-105 -369h-166l206 724h166z" />
    <glyph glyph-name="uni04BB" unicode="&#x4bb;" horiz-adv-x="808" 
d="M22 0l206 724h163l-72 -253q83 58 205 58q93 0 155.5 -42t62.5 -119q0 -36 -10 -69l-85 -299h-163l81 285q7 22 7 47q0 80 -109 80q-104 0 -176 -52l-102 -360h-163z" />
    <glyph glyph-name="uni04C1" unicode="&#x4c1;" horiz-adv-x="1286" 
d="M483 0l87 308h-36q-47 0 -69.5 -9t-56.5 -43l-265 -256h-207l312 300q73 71 140 82q-32 18 -66 80l-151 262h169l133 -237q14 -26 21.5 -36t24.5 -18t43 -8h42l85 299h166l-85 -299h6q54 0 78 9.5t60 42.5l261 247h207l-289 -273q-63 -61 -128 -83q57 -19 90 -86
l138 -282h-181l-119 246q-18 36 -39.5 49t-73.5 13h-44l-87 -308h-166zM780 765q-83 0 -123 47.5t-24 117.5h92q4 -60 71 -60q69 0 105 60h102q-25 -75 -80.5 -120t-142.5 -45z" />
    <glyph glyph-name="uni04C2" unicode="&#x4c2;" horiz-adv-x="1111" 
d="M395 0l59 208h-111q-30 -97 -98 -160.5t-179 -63.5q-28 0 -60 7t-40 14l31 108q29 -11 60 -11q56 0 95 36.5t54 82.5t15 94q0 55 -22 75.5t-64 20.5q-31 0 -56 -10l31 108q32 20 87 20q67 0 116.5 -47t49.5 -140q0 -10 -2 -32h122l58 203h147l-58 -203h111
q31 95 98.5 157t177.5 62q28 0 60 -7t40 -14l-31 -108q-29 11 -60 11q-56 0 -95 -36.5t-54 -82.5t-15 -94q0 -55 22 -75.5t64 -20.5q31 0 56 10l-31 -108q-32 -20 -87 -20q-67 0 -116.5 47t-49.5 140q0 11 2 37h-121l-59 -208h-147zM629 581q-83 0 -123 47.5t-24 117.5h92
q4 -60 71 -60q69 0 105 60h102q-25 -75 -80.5 -120t-142.5 -45z" />
    <glyph glyph-name="uni04D8" unicode="&#x4d8;" horiz-adv-x="930" 
d="M506 740q174 0 284.5 -90t110.5 -243q0 -185 -129 -304t-345 -119q-161 0 -261.5 81t-100.5 202q0 68 30 134h639q-1 101 -66 154t-182 53q-171 0 -331 -73l42 141q124 64 309 64zM716 283h-488q-2 -7 -2 -19q0 -65 63 -109.5t151 -44.5q102 0 172 45t104 128z" />
    <glyph glyph-name="uni04D9" unicode="&#x4d9;" horiz-adv-x="739" 
d="M389 528q143 0 221.5 -62.5t78.5 -161.5q0 -144 -104 -232t-261 -88q-127 0 -204.5 56t-77.5 141q0 59 25 116h464q-1 55 -43.5 84t-140.5 29q-48 0 -112.5 -12.5t-112.5 -31.5l31 114q96 48 236 48zM338 94q137 0 179 110h-317q-1 -4 -1 -12q0 -47 38.5 -72.5
t100.5 -25.5z" />
    <glyph glyph-name="uni04E2" unicode="&#x4e2;" horiz-adv-x="984" 
d="M35 0l206 724h161l-149 -521l573 521h183l-206 -724h-161l148 520l-572 -520h-183zM449 790l31 108h346l-31 -108h-346z" />
    <glyph glyph-name="uni04E3" unicode="&#x4e3;" horiz-adv-x="799" 
d="M498 0v53q-82 -69 -214 -69q-91 0 -154.5 42t-63.5 119q0 36 10 69l85 299h162l-81 -285q-7 -22 -7 -47q0 -80 108 -80q95 0 168 50l103 362h163l-146 -513h-133zM323 606l31 108h346l-31 -108h-346z" />
    <glyph glyph-name="uni04E8" unicode="&#x4e8;" horiz-adv-x="979" 
d="M441 -16q-163 0 -259.5 89.5t-96.5 214.5q0 197 145 324.5t364 127.5q163 0 259.5 -88t96.5 -212q0 -197 -145.5 -326.5t-363.5 -129.5zM460 111q104 0 183.5 52.5t114.5 140.5h-503q1 -81 55 -137t150 -56zM575 613q-105 0 -185 -52t-114 -139h504q0 81 -54 136t-151 55
z" />
    <glyph glyph-name="uni04E9" unicode="&#x4e9;" horiz-adv-x="794" 
d="M365 -16q-146 0 -229.5 65t-84.5 163q-1 147 108 232t270 85q146 0 229.5 -65t84.5 -163q1 -147 -108 -232t-270 -85zM422 421q-76 0 -129 -30t-73 -89h364q-5 54 -47.5 86.5t-114.5 32.5zM372 92q76 0 129 30t73 89h-365q5 -55 47.5 -87t115.5 -32z" />
    <glyph glyph-name="uni04EE" unicode="&#x4ee;" horiz-adv-x="833" 
d="M175 -13q-73 0 -111 20l43 116q26 -13 66 -13q52 0 90 26.5t82 81.5l-190 506h172l130 -387l322 387h189l-485 -563q-84 -97 -154 -135.5t-154 -38.5zM387 790l31 108h346l-31 -108h-346z" />
    <glyph glyph-name="uni04EF" unicode="&#x4ef;" horiz-adv-x="691" 
d="M12 -225q-56 0 -100 18l30 119q28 -10 55 -10q62 0 107.5 20t80.5 73l8 11l-113 507h160l68 -362l252 362h177l-398 -545q-83 -113 -152.5 -153t-174.5 -40zM255 606l31 108h346l-31 -108h-346z" />
    <glyph glyph-name="uni0E3F" unicode="&#xe3f;" 
d="M34 0l206 724h258l27 93h112l-28 -95q210 -17 210 -168q0 -121 -142 -180q95 -41 95 -132q0 -116 -94 -179t-272 -63h-4l-26 -93h-112l26 93h-256zM605 235q0 39 -27 58.5t-86 20.5l-57 -200q82 2 126 34.5t44 86.5zM288 314l-57 -200h92l57 200h-92zM372 610l-52 -186
h92l53 186h-93zM651 537q0 58 -75 70l-51 -180q58 8 92 38t34 72z" />
    <glyph glyph-name="Wgrave" unicode="&#x1e80;" horiz-adv-x="1421" 
d="M242 0l-102 724h169l58 -543l381 543h179l68 -538l369 538h185l-518 -724h-161l-72 560l-394 -560h-162zM819 772l-130 158h188l55 -158h-113z" />
    <glyph glyph-name="wgrave" unicode="&#x1e81;" horiz-adv-x="1044" 
d="M152 0l-64 513h157l33 -345l222 345h171l26 -349l223 349h176l-356 -513h-169l-26 351l-224 -351h-169zM568 588l-130 158h188l55 -158h-113z" />
    <glyph glyph-name="Wacute" unicode="&#x1e82;" horiz-adv-x="1421" 
d="M242 0l-102 724h169l58 -543l381 543h179l68 -538l369 538h185l-518 -724h-161l-72 560l-394 -560h-162zM782 772l130 158h198l-205 -158h-123z" />
    <glyph glyph-name="wacute" unicode="&#x1e83;" horiz-adv-x="1044" 
d="M152 0l-64 513h157l33 -345l222 345h171l26 -349l223 349h176l-356 -513h-169l-26 351l-224 -351h-169zM531 588l130 158h198l-205 -158h-123z" />
    <glyph glyph-name="Wdieresis" unicode="&#x1e84;" horiz-adv-x="1421" 
d="M242 0l-102 724h169l58 -543l381 543h179l68 -538l369 538h185l-518 -724h-161l-72 560l-394 -560h-162zM652 780l38 128h145l-38 -128h-145zM921 780l38 128h145l-38 -128h-145z" />
    <glyph glyph-name="wdieresis" unicode="&#x1e85;" horiz-adv-x="1044" 
d="M152 0l-64 513h157l33 -345l222 345h171l26 -349l223 349h176l-356 -513h-169l-26 351l-224 -351h-169zM401 596l38 128h145l-38 -128h-145zM670 596l38 128h145l-38 -128h-145z" />
    <glyph glyph-name="Ygrave" unicode="&#x1ef2;" horiz-adv-x="821" 
d="M255 0l79 280l-202 444h174l137 -319l311 319h203l-460 -454l-77 -270h-165zM503 772l-130 158h188l55 -158h-113z" />
    <glyph glyph-name="ygrave" unicode="&#x1ef3;" horiz-adv-x="691" 
d="M12 -225q-56 0 -100 18l30 119q28 -10 55 -10q62 0 107.5 20t80.5 73l8 11l-113 507h160l68 -362l252 362h177l-398 -545q-83 -113 -152.5 -153t-174.5 -40zM371 588l-130 158h188l55 -158h-113z" />
    <glyph glyph-name="endash" unicode="&#x2013;" horiz-adv-x="690" 
d="M23 238l34 120h618l-34 -120h-618z" />
    <glyph glyph-name="emdash" unicode="&#x2014;" horiz-adv-x="1000" 
d="M23 238l34 120h928l-34 -120h-928z" />
    <glyph glyph-name="uni2015" unicode="&#x2015;" horiz-adv-x="1000" 
d="M23 238l34 120h928l-34 -120h-928z" />
    <glyph glyph-name="quoteleft" unicode="&#x2018;" horiz-adv-x="340" 
d="M419 724l-125 -157v-127h-87q-43 0 -65 20.5t-22 49.5q0 12 4 24.5t8.5 22.5t16 23t19 21.5t25 23.5t26.5 22.5t31.5 25.5l32.5 26l31 25h105z" />
    <glyph glyph-name="quoteright" unicode="&#x2019;" horiz-adv-x="340" 
d="M86 440l125 157v127h87q43 0 65 -20.5t22 -49.5q0 -12 -4 -24.5t-8.5 -22.5t-16 -23t-19 -21.5t-25 -23.5t-26.5 -22.5t-31.5 -25.5l-32.5 -26l-31 -25h-105z" />
    <glyph glyph-name="quotesinglbase" unicode="&#x201a;" horiz-adv-x="340" 
d="M-89 -176l125 157v127h87q43 0 65 -20.5t22 -49.5q0 -12 -4 -24.5t-8.5 -22.5t-16 -23t-19 -21.5t-25 -23.5t-26.5 -22.5t-31.5 -25.5l-32.5 -26l-31 -25h-105z" />
    <glyph glyph-name="quotedblleft" unicode="&#x201c;" horiz-adv-x="612" 
d="M419 724l-125 -157v-127h-87q-43 0 -65 20.5t-22 49.5q0 12 4 24.5t8.5 22.5t16 23t19 21.5t25 23.5t26.5 22.5t31.5 25.5l32.5 26l31 25h105zM691 724l-125 -157v-127h-87q-43 0 -65 20.5t-22 49.5q0 12 4 24.5t8.5 22.5t16 23t19 21.5t25 23.5t26.5 22.5t31.5 25.5
l32.5 26l31 25h105z" />
    <glyph glyph-name="quotedblright" unicode="&#x201d;" horiz-adv-x="612" 
d="M86 440l125 157v127h87q43 0 65 -20.5t22 -49.5q0 -12 -4 -24.5t-8.5 -22.5t-16 -23t-19 -21.5t-25 -23.5t-26.5 -22.5t-31.5 -25.5l-32.5 -26l-31 -25h-105zM358 440l125 157v127h87q43 0 65 -20.5t22 -49.5q0 -12 -4 -24.5t-8.5 -22.5t-16 -23t-19 -21.5t-25 -23.5
t-26.5 -22.5t-31.5 -25.5l-32.5 -26l-31 -25h-105z" />
    <glyph glyph-name="quotedblbase" unicode="&#x201e;" horiz-adv-x="612" 
d="M-89 -176l125 157v127h87q43 0 65 -20.5t22 -49.5q0 -12 -4 -24.5t-8.5 -22.5t-16 -23t-19 -21.5t-25 -23.5t-26.5 -22.5t-31.5 -25.5l-32.5 -26l-31 -25h-105zM183 -176l125 157v127h87q43 0 65 -20.5t22 -49.5q0 -12 -4 -24.5t-8.5 -22.5t-16 -23t-19 -21.5t-25 -23.5
t-26.5 -22.5t-31.5 -25.5l-32.5 -26l-31 -25h-105z" />
    <glyph glyph-name="dagger" unicode="&#x2020;" horiz-adv-x="581" 
d="M142 490l28 98h167q-2 46 12 92l12 44h115l-13 -46q-16 -54 -36 -90h164l-28 -98h-168q1 -43 -12 -93l-39 -140h-116l40 141q14 52 37 92h-163z" />
    <glyph glyph-name="daggerdbl" unicode="&#x2021;" horiz-adv-x="581" 
d="M148 494l28 98h167q-2 46 12 92l11 40h115l-12 -42q-16 -54 -36 -90h164l-28 -98h-157l-33 -116h157l-28 -98h-168q3 -40 -11 -92l-11 -40h-115l12 42q14 51 36 90h-164l28 98h156l33 116h-156z" />
    <glyph glyph-name="bullet" unicode="&#x2022;" horiz-adv-x="620" 
d="M50 94l152 536l389 -268z" />
    <glyph glyph-name="ellipsis" unicode="&#x2026;" horiz-adv-x="1119" 
d="M33 0l47 167h187l-47 -167h-187zM396 0l47 167h187l-47 -167h-187zM759 0l47 167h187l-47 -167h-187z" />
    <glyph glyph-name="perthousand" unicode="&#x2030;" horiz-adv-x="1850" 
d="M1482 -16q-90 0 -144 44t-54 118q0 111 83 183.5t205 72.5q90 0 144 -44t54 -118q0 -111 -83 -183.5t-205 -72.5zM1495 83q58 0 97 46t39 100q0 74 -72 74q-58 0 -97 -46t-39 -100q0 -74 72 -74zM336 322q-90 0 -144 44t-54 118q0 111 83 183.5t205 72.5q90 0 144 -44
t54 -118q0 -111 -83 -183.5t-205 -72.5zM349 421q58 0 97 46t39 100q0 74 -72 74q-58 0 -97 -46t-39 -100q0 -74 72 -74zM940 -16q-90 0 -144 44t-54 118q0 111 83 183.5t205 72.5q90 0 144 -44t54 -118q0 -111 -83 -183.5t-205 -72.5zM953 83q58 0 97 46t39 100
q0 74 -72 74q-58 0 -97 -46t-39 -100q0 -74 72 -74zM183 0l835 724h169l-835 -724h-169z" />
    <glyph glyph-name="guilsinglleft" unicode="&#x2039;" horiz-adv-x="434" 
d="M220 114l-153 186l237 186h142l-201 -189l93 -183h-118z" />
    <glyph glyph-name="guilsinglright" unicode="&#x203a;" horiz-adv-x="434" 
d="M8 114l200 189l-92 183h118l153 -186l-237 -186h-142z" />
    <glyph glyph-name="fraction" unicode="&#x2044;" horiz-adv-x="179" 
d="M-404 -30l892 784h146l-892 -784h-146z" />
    <glyph glyph-name="uni2070" unicode="&#x2070;" horiz-adv-x="535" 
d="M286 323q-85 0 -131 43.5t-46 105.5q0 110 81.5 186t208.5 76q86 0 131.5 -42t45.5 -105q0 -110 -81.5 -187t-208.5 -77zM301 408q67 0 109 50.5t42 117.5q0 72 -67 72t-109.5 -48.5t-42.5 -115.5q0 -76 68 -76z" />
    <glyph glyph-name="uni2074" unicode="&#x2074;" horiz-adv-x="535" 
d="M314 333l22 73h-244l18 62l336 256h105l-73 -243h85l-23 -75h-84l-22 -73h-120zM245 481h113l33 111z" />
    <glyph glyph-name="uni2075" unicode="&#x2075;" horiz-adv-x="535" 
d="M296 323q-107 0 -174 31l22 76q75 -26 159 -26q96 0 96 40q0 36 -74.5 54t-154.5 18l73 208h326l-24 -79h-213l-21 -59q215 -31 215 -138q0 -61 -59.5 -93t-170.5 -32z" />
    <glyph glyph-name="uni2076" unicode="&#x2076;" horiz-adv-x="535" 
d="M334 323q-95 0 -152 45.5t-57 121.5q0 111 84 177.5t211 66.5q105 0 165 -27l-24 -83q-58 27 -130 27q-73 0 -121 -25t-59 -68q58 37 132 37q70 0 121 -29t51 -88q0 -75 -65 -115t-156 -40zM353 519q-51 0 -108 -23v-1q0 -40 23.5 -66.5t66.5 -26.5q38 0 64.5 16.5
t26.5 47.5q0 53 -73 53z" />
    <glyph glyph-name="uni2077" unicode="&#x2077;" horiz-adv-x="535" 
d="M156 333l290 312h-252l24 79h380l-20 -69l-294 -322h-128z" />
    <glyph glyph-name="uni2078" unicode="&#x2078;" horiz-adv-x="535" 
d="M302 323q-99 0 -153.5 29.5t-54.5 79.5q0 33 29.5 65.5t100.5 47.5q-62 29 -62 76q0 56 62.5 84.5t155.5 28.5q83 0 134 -29t51 -73q0 -33 -29.5 -58t-78.5 -38q89 -21 89 -86q0 -57 -63.5 -92t-180.5 -35zM309 402q51 0 82 15t31 38q0 21 -23 33.5t-68 12.5
q-50 0 -82 -15.5t-32 -38.5q0 -45 92 -45zM355 576q40 0 65.5 13t25.5 32q0 38 -74 38q-40 0 -66 -13t-26 -31q0 -39 75 -39z" />
    <glyph glyph-name="uni2079" unicode="&#x2079;" horiz-adv-x="535" 
d="M274 323q-100 0 -160 27l24 83q58 -27 125 -27q74 0 122.5 26t58.5 71q-57 -37 -133 -37q-71 0 -121.5 27.5t-50.5 86.5q0 75 65.5 114.5t155.5 39.5q95 0 152 -45.5t57 -121.5q0 -111 -84 -177.5t-211 -66.5zM341 542q53 0 108 23q-1 39 -24.5 64.5t-65.5 25.5
q-36 0 -63.5 -16t-27.5 -47q0 -50 73 -50z" />
    <glyph glyph-name="uni2080" unicode="&#x2080;" horiz-adv-x="535" 
d="M145 -154q-85 0 -131 43.5t-46 105.5q0 110 81.5 186t208.5 76q86 0 131.5 -42t45.5 -105q0 -110 -81.5 -187t-208.5 -77zM160 -69q67 0 109 50.5t42 117.5q0 72 -67 72t-109.5 -48.5t-42.5 -115.5q0 -76 68 -76z" />
    <glyph glyph-name="uni2081" unicode="&#x2081;" horiz-adv-x="535" 
d="M98 138l25 82l132 27h86l-95 -312h88l-22 -79h-299l23 79h90l67 221z" />
    <glyph glyph-name="uni2082" unicode="&#x2082;" horiz-adv-x="535" 
d="M-38 -144l20 68l157 91q43 25 64 39t39 35t18 43q0 42 -80 42q-56 0 -122 -24l25 85q56 22 115 22q83 0 134.5 -27.5t51.5 -84.5q0 -33 -13.5 -60.5t-44 -51t-56 -38t-72.5 -38.5l-52 -26h230l-22 -75h-392z" />
    <glyph glyph-name="uni2083" unicode="&#x2083;" horiz-adv-x="535" 
d="M139 -154q-99 0 -163 31l23 79q66 -29 138 -29q59 0 89 16t30 40q0 38 -94 38h-54l24 79h56q105 0 105 39q0 36 -79 36q-85 0 -154 -29l24 78q56 33 151 33q81 0 131 -25.5t50 -68.5q0 -71 -104 -106q68 -23 68 -78q0 -59 -65 -96t-176 -37z" />
    <glyph glyph-name="uni2084" unicode="&#x2084;" horiz-adv-x="535" 
d="M173 -144l22 73h-244l18 62l336 256h105l-73 -243h85l-23 -75h-84l-22 -73h-120zM104 4h113l33 111z" />
    <glyph glyph-name="uni2085" unicode="&#x2085;" horiz-adv-x="535" 
d="M155 -154q-107 0 -174 31l22 76q75 -26 159 -26q96 0 96 40q0 36 -74.5 54t-154.5 18l73 208h326l-24 -79h-213l-21 -59q215 -31 215 -138q0 -61 -59.5 -93t-170.5 -32z" />
    <glyph glyph-name="uni2086" unicode="&#x2086;" horiz-adv-x="535" 
d="M193 -154q-95 0 -152 45.5t-57 121.5q0 111 84 177.5t211 66.5q105 0 165 -27l-24 -83q-58 27 -130 27q-73 0 -121 -25t-59 -68q58 37 132 37q70 0 121 -29t51 -88q0 -75 -65 -115t-156 -40zM212 42q-51 0 -108 -23v-1q0 -40 23.5 -66.5t66.5 -26.5q38 0 64.5 16.5
t26.5 47.5q0 53 -73 53z" />
    <glyph glyph-name="uni2087" unicode="&#x2087;" horiz-adv-x="535" 
d="M15 -144l290 312h-252l24 79h380l-20 -69l-294 -322h-128z" />
    <glyph glyph-name="uni2088" unicode="&#x2088;" horiz-adv-x="535" 
d="M161 -154q-99 0 -153.5 29.5t-54.5 79.5q0 33 29.5 65.5t100.5 47.5q-62 29 -62 76q0 56 62.5 84.5t155.5 28.5q83 0 134 -29t51 -73q0 -33 -29.5 -58t-78.5 -38q89 -21 89 -86q0 -57 -63.5 -92t-180.5 -35zM168 -75q51 0 82 15t31 38q0 21 -23 33.5t-68 12.5
q-50 0 -82 -15.5t-32 -38.5q0 -45 92 -45zM214 99q40 0 65.5 13t25.5 32q0 38 -74 38q-40 0 -66 -13t-26 -31q0 -39 75 -39z" />
    <glyph glyph-name="uni2089" unicode="&#x2089;" horiz-adv-x="535" 
d="M133 -154q-100 0 -160 27l24 83q58 -27 125 -27q74 0 122.5 26.5t58.5 70.5q-57 -37 -133 -37q-71 0 -121.5 27.5t-50.5 86.5q0 75 65.5 114.5t155.5 39.5q95 0 152 -45.5t57 -121.5q0 -111 -84 -177.5t-211 -66.5zM200 65q53 0 108 23q-1 39 -24.5 64.5t-65.5 25.5
q-36 0 -63.5 -16t-27.5 -47q0 -50 73 -50z" />
    <glyph glyph-name="uni20A1" unicode="&#x20a1;" 
d="M159 -93l63 136q-67 42 -100.5 108t-33.5 141q0 179 126.5 303.5t329.5 141.5l37 80h102l-36 -78q47 -1 98 -10l41 88h102l-51 -111q5 -2 45 -19l-35 -124q-34 16 -65 26l-221 -476q78 9 180 41l-38 -132q-87 -31 -201 -37l-36 -78h-102l37 80q-43 4 -95 18l-45 -98h-102
zM364 130q40 -17 94 -20l232 499q-41 6 -86 6h-15zM256 300q0 -68 33 -112l189 407q-100 -32 -161 -110.5t-61 -184.5z" />
    <glyph glyph-name="uni20A4" unicode="&#x20a4;" 
d="M172 401l28 96h109l2 6q67 237 329 237q43 0 94 -9.5t76 -21.5l-32 -116q-53 23 -138 23q-72 0 -112 -34t-54 -83l-1 -2h260l-28 -96h-260l-25 -88h260l-27 -96h-261l-1 -5q-18 -62 -64 -94h375l-33 -118h-641l30 107h19q63 0 99 25.5t53 83.5v1h-109l27 96h110l25 88
h-110z" />
    <glyph glyph-name="uni20A6" unicode="&#x20a6;" 
d="M76 404l26 93h73l65 227h178l68 -227h167l66 227h151l-65 -227h74l-27 -93h-73l-27 -94h73l-26 -93h-74l-61 -217h-177l-65 217h-173l-62 -217h-153l61 217h-72l26 93h73l27 94h-73zM302 404l-27 -94h119l-28 94h-64zM514 404l28 -94h58l27 94h-113zM330 573l-9 -76h27
l-7 76h-11zM564 151h11l8 66h-26z" />
    <glyph glyph-name="uni20A8" unicode="&#x20a8;" 
d="M-7 0l206 724h165q187 0 187 -151q0 -90 -61 -157t-128 -86q22 -13 28 -44l19 -94q10 -50 41 -75.5t96 -25.5q112 0 112 56q0 36 -58 77q-39 28 -59 58.5t-20 76.5q0 67 53.5 116.5t154.5 49.5q85 0 135 -27l-29 -100q-40 20 -100 20q-83 0 -83 -55q0 -14 8 -27.5t18 -22
t31 -24.5q40 -30 60.5 -60.5t20.5 -75.5q0 -73 -54 -121t-180 -48q-73 0 -124 12.5t-80 37.5t-43 53t-21 68l-18 102q-5 32 -16.5 42t-45.5 10h-2l-88 -309h-125zM334 624h-39l-62 -218h39q62 0 104 45.5t42 110.5q0 62 -84 62z" />
    <glyph glyph-name="uni20A9" unicode="&#x20a9;" 
d="M61 404l27 93h57l20 227h126l-29 -227h118l103 227h140l-28 -227h118l102 227h132l-110 -227h57l-27 -93h-75l-45 -94h93l-26 -93h-112l-105 -217h-157l27 217h-112l-97 -217h-157l19 217h-112l26 93h94l9 94h-76zM584 404l-11 -94h56l42 94h-87zM251 404l-12 -94h55
l43 94h-86zM439 404l-42 -94h81l12 94h-51zM552 148h11l25 69h-26zM213 148h11l28 69h-26zM507 569l-28 -72h24l14 72h-10z" />
    <glyph glyph-name="uni20AA" unicode="&#x20aa;" 
d="M470 0q-117 0 -170.5 32t-53.5 103q0 43 18 102l91 314h113l-99 -346q-9 -32 -9 -52q0 -33 25 -46.5t85 -13.5h139l180 631h113l-207 -724h-225zM3 0l207 724h225q117 0 170 -32t53 -103q0 -42 -17 -102l-91 -314h-113l99 346q9 30 9 51q0 34 -25 47.5t-85 13.5h-139
l-180 -631h-113z" />
    <glyph glyph-name="uni20AB" unicode="&#x20ab;" 
d="M504 587l26 93h129l13 44h158l-13 -44h49l-26 -93h-49l-122 -430h-123v51q-79 -64 -203 -64q-106 0 -173 45.5t-67 128.5q0 109 83 169.5t212 60.5q139 0 208 -52l26 91h-128zM26 0l26 93h598l-26 -93h-598zM390 250q46 0 90 13t68 28l32 113q-54 35 -152 35
q-70 0 -118 -27t-48 -80q0 -82 128 -82z" />
    <glyph glyph-name="Euro" unicode="&#x20ac;" 
d="M68 411l28 96h84q58 108 172.5 170.5t268.5 62.5q170 0 268 -49l-36 -119q-96 48 -233 48q-83 0 -160.5 -30.5t-120.5 -82.5h371l-28 -96h-394q-15 -40 -18 -88h387l-27 -96h-352q20 -62 75 -92.5t153 -30.5q104 0 252 45l-38 -126q-109 -39 -243 -39q-160 0 -243.5 67.5
t-101.5 175.5h-106l27 96h75q3 49 14 88h-74z" />
    <glyph glyph-name="uni20AD" unicode="&#x20ad;" 
d="M59 318l27 96h67l88 310h166l-88 -310l429 310h226l-353 -247q-50 -35 -116 -63h284l-27 -96h-283q36 -30 50 -47l228 -271h-210l-255 320l-91 -320h-166l90 318h-66z" />
    <glyph glyph-name="uni20AE" unicode="&#x20ae;" 
d="M175 606l34 118h694l-34 -118h-265l-36 -127l179 63l-30 -104l-179 -63l-25 -88l179 63l-30 -104l-178 -63l-52 -183h-166l33 119l-178 -63l30 104l178 62l25 88l-178 -62l30 104l177 62l55 192h-263z" />
    <glyph glyph-name="uni20B1" unicode="&#x20b1;" 
d="M51 0l86 303h-90l25 86h89l22 75h-89l24 86h89l50 174h225q270 0 298 -174h114l-24 -86h-89q-6 -35 -21 -75h88l-25 -86h-102q-54 -94 -150.5 -134.5t-259.5 -40.5h-57l-36 -128h-167zM594 389q17 47 21 75h-265l-22 -75h266zM344 236q80 0 126.5 15t79.5 52h-246
l-19 -67h59zM453 616h-60l-19 -66h245q-11 35 -49.5 50.5t-116.5 15.5z" />
    <glyph glyph-name="uni20B2" unicode="&#x20b2;" 
d="M282 -93l26 90q-116 26 -180 102.5t-64 188.5q0 204 127 318t329 131l23 80h112l-22 -78q134 -5 237 -51l-34 -122q-105 48 -239 50l-146 -509h8q67 0 129 14l66 229h165l-93 -324q-126 -42 -299 -42h-11l-22 -77h-112zM229 300q0 -135 115 -176l138 482
q-120 -25 -186.5 -106t-66.5 -200z" />
    <glyph glyph-name="uni20B4" unicode="&#x20b4;" 
d="M398 -16q-160 0 -243.5 52.5t-83.5 135.5q0 20 7 45h-73l26 93h97q20 19 49 35t53 25.5t65.5 18.5t61 12.5t68 10t60.5 8.5q-152 -16 -248 -16h-179l27 93h554q24 20 24 52q0 67 -166 67q-122 0 -273 -44l35 123q117 45 264 45q153 0 228 -48t75 -127q0 -35 -14 -68h79
l-27 -93h-118q-48 -37 -119 -56.5t-163 -31.5t-128 -21q137 15 232 15h269l-26 -93h-566q-9 -17 -9 -36q0 -74 194 -74q137 0 290 48l-36 -124q-127 -47 -286 -47z" />
    <glyph glyph-name="uni20B5" unicode="&#x20b5;" 
d="M346 -93l24 84q-141 21 -211.5 106t-70.5 195q0 188 139.5 314.5t357.5 132.5l22 78h112l-23 -81q106 -10 186 -49l-35 -124q-82 41 -187 50l-144 -504q91 5 225 45l-38 -132q-99 -35 -223 -38l-22 -77h-112zM256 300q0 -69 37 -117.5t113 -65.5l142 494
q-127 -17 -209.5 -102t-82.5 -209z" />
    <glyph glyph-name="uni2113" unicode="&#x2113;" horiz-adv-x="500" 
d="M211 -16q-157 0 -157 118q0 28 11 67l7 24l-54 -13l26 90l54 15l81 283q49 172 227 172q66 0 111.5 -33t45.5 -105q0 -125 -86.5 -222t-229.5 -143l-14 -50q-9 -31 -9 -47q0 -35 46 -35q44 0 92 15l-32 -114q-54 -22 -119 -22zM337 549l-59 -206q90 53 128 181
q13 45 13 71q0 36 -26 36q-20 0 -31.5 -19.5t-24.5 -62.5z" />
    <glyph glyph-name="uni2116" unicode="&#x2116;" horiz-adv-x="1628" 
d="M1298 285q-124 0 -194.5 53.5t-71.5 134.5q-1 122 95.5 191.5t245.5 69.5q124 0 194.5 -53.5t71.5 -134.5q1 -122 -95.5 -191.5t-245.5 -69.5zM1304 383q89 0 142 38.5t52 113.5q-1 45 -37 73t-94 28q-89 0 -142 -38.5t-52 -113.5q1 -45 37 -73t94 -28zM911 83l32 110
h606l-32 -110h-606zM35 0l206 724h179l273 -540l154 540h162l-207 -724h-178l-274 538l-153 -538h-162z" />
    <glyph glyph-name="uni2117" unicode="&#x2117;" horiz-adv-x="952" 
d="M435 -16q-162 0 -260 91t-98 213q0 194 141 323t360 129q162 0 260 -91t98 -213q0 -194 -141 -323t-360 -129zM445 67q91 0 166 29.5t122.5 79.5t73.5 114.5t26 137.5q0 92 -71.5 160.5t-193.5 68.5q-91 0 -166 -29.5t-122.5 -79.5t-73.5 -114.5t-26 -137.5
q0 -92 71.5 -160.5t193.5 -68.5zM278 164l114 398h180q79 0 126 -33t47 -87q0 -82 -70.5 -124t-185.5 -42h-64l-32 -112h-115zM546 475h-65l-32 -112h57q117 0 117 67q0 24 -18 34.5t-59 10.5z" />
    <glyph glyph-name="trademark" unicode="&#x2122;" horiz-adv-x="1128" 
d="M531 385l97 339h130l64 -171q2 -5 4 -19q8 12 15 19l160 171h144l-97 -339h-96l65 226q5 16 10 28q-10 -17 -22 -28l-150 -156h-89l-61 156q-4 10 -10 34q0 -21 -3 -34l-65 -226h-96zM143 649l21 75h374l-21 -75h-135l-75 -264h-106l75 264h-133z" />
    <glyph glyph-name="Omega" unicode="&#x2126;" horiz-adv-x="1025" 
d="M14 0l32 114h155q-88 73 -88 199q0 60 22 120.5t66 115.5t104.5 97.5t142.5 68t174 25.5q169 0 261 -78t92 -193q0 -232 -200 -355h170l-32 -114h-403l31 111q122 26 192 122.5t70 209.5q0 76 -48 123t-150 47q-146 0 -235.5 -97.5t-89.5 -232.5q0 -60 29.5 -108.5
t90.5 -63.5l-31 -111h-355z" />
    <glyph glyph-name="uni212E" unicode="&#x212e;" horiz-adv-x="952" 
d="M516 -16q-105 0 -186.5 29.5t-132.5 82t-77 120t-26 146.5q0 162 106.5 270t305.5 108q104 0 184.5 -29.5t129.5 -82t73.5 -120t24.5 -146.5v-45h-633v-184q89 -71 232 -71q86 0 163.5 30t120.5 76l52 -51q-52 -61 -139.5 -97t-197.5 -36zM506 662q-136 0 -221 -61v-187
h442v188q-81 60 -221 60z" />
    <glyph glyph-name="uni2153" unicode="&#x2153;" horiz-adv-x="1249" 
d="M239 615l25 82l132 27h86l-95 -312h88l-22 -79h-299l23 79h90l67 221zM131 -30l892 784h146l-892 -784h-146zM901 -10q-99 0 -163 31l23 79q66 -29 138 -29q59 0 89 16t30 40q0 38 -94 38h-54l24 79h56q105 0 105 39q0 36 -79 36q-85 0 -154 -29l24 78q56 33 151 33
q81 0 131 -25.5t50 -68.5q0 -71 -104 -106q68 -23 68 -78q0 -59 -65 -96t-176 -37z" />
    <glyph glyph-name="uni2154" unicode="&#x2154;" horiz-adv-x="1249" 
d="M103 333l20 68l157 91q43 25 64 39t39 35t18 43q0 42 -80 42q-56 0 -122 -24l25 85q56 22 115 22q83 0 134.5 -27.5t51.5 -84.5q0 -33 -13.5 -60.5t-44 -51t-56 -38t-72.5 -38.5l-52 -26h230l-22 -75h-392zM131 -30l892 784h146l-892 -784h-146zM901 -10q-99 0 -163 31
l23 79q66 -29 138 -29q59 0 89 16t30 40q0 38 -94 38h-54l24 79h56q105 0 105 39q0 36 -79 36q-85 0 -154 -29l24 78q56 33 151 33q81 0 131 -25.5t50 -68.5q0 -71 -104 -106q68 -23 68 -78q0 -59 -65 -96t-176 -37z" />
    <glyph glyph-name="uni2155" unicode="&#x2155;" horiz-adv-x="1249" 
d="M239 615l25 82l132 27h86l-95 -312h88l-22 -79h-299l23 79h90l67 221zM131 -30l892 784h146l-892 -784h-146zM917 -10q-107 0 -174 31l22 76q75 -26 159 -26q96 0 96 40q0 36 -74.5 54t-154.5 18l73 208h326l-24 -79h-213l-21 -59q215 -31 215 -138q0 -61 -59.5 -93
t-170.5 -32z" />
    <glyph glyph-name="uni2156" unicode="&#x2156;" horiz-adv-x="1249" 
d="M103 333l20 68l157 91q43 25 64 39t39 35t18 43q0 42 -80 42q-56 0 -122 -24l25 85q56 22 115 22q83 0 134.5 -27.5t51.5 -84.5q0 -33 -13.5 -60.5t-44 -51t-56 -38t-72.5 -38.5l-52 -26h230l-22 -75h-392zM131 -30l892 784h146l-892 -784h-146zM917 -10q-107 0 -174 31
l22 76q75 -26 159 -26q96 0 96 40q0 36 -74.5 54t-154.5 18l73 208h326l-24 -79h-213l-21 -59q215 -31 215 -138q0 -61 -59.5 -93t-170.5 -32z" />
    <glyph glyph-name="uni2157" unicode="&#x2157;" horiz-adv-x="1249" 
d="M280 323q-99 0 -163 31l23 79q66 -29 138 -29q59 0 89 16t30 40q0 38 -94 38h-54l24 79h56q105 0 105 39q0 36 -79 36q-85 0 -154 -29l24 78q56 33 151 33q81 0 131 -25.5t50 -68.5q0 -71 -104 -106q68 -23 68 -78q0 -59 -65 -96t-176 -37zM131 -30l892 784h146
l-892 -784h-146zM917 -10q-107 0 -174 31l22 76q75 -26 159 -26q96 0 96 40q0 36 -74.5 54t-154.5 18l73 208h326l-24 -79h-213l-21 -59q215 -31 215 -138q0 -61 -59.5 -93t-170.5 -32z" />
    <glyph glyph-name="uni2158" unicode="&#x2158;" horiz-adv-x="1249" 
d="M314 333l22 73h-244l18 62l336 256h105l-73 -243h85l-23 -75h-84l-22 -73h-120zM245 481h113l33 111zM131 -30l892 784h146l-892 -784h-146zM917 -10q-107 0 -174 31l22 76q75 -26 159 -26q96 0 96 40q0 36 -74.5 54t-154.5 18l73 208h326l-24 -79h-213l-21 -59
q215 -31 215 -138q0 -61 -59.5 -93t-170.5 -32z" />
    <glyph glyph-name="uni2159" unicode="&#x2159;" horiz-adv-x="1249" 
d="M239 615l25 82l132 27h86l-95 -312h88l-22 -79h-299l23 79h90l67 221zM131 -30l892 784h146l-892 -784h-146zM955 -10q-95 0 -152 45.5t-57 121.5q0 111 84 177.5t211 66.5q105 0 165 -27l-24 -83q-58 27 -130 27q-73 0 -121 -25t-59 -68q58 37 132 37q70 0 121 -29
t51 -88q0 -75 -65 -115t-156 -40zM974 186q-51 0 -108 -23v-1q0 -40 23.5 -66.5t66.5 -26.5q38 0 64.5 16.5t26.5 47.5q0 53 -73 53z" />
    <glyph glyph-name="uni215A" unicode="&#x215a;" horiz-adv-x="1249" 
d="M296 323q-107 0 -174 31l22 76q75 -26 159 -26q96 0 96 40q0 36 -74.5 54t-154.5 18l73 208h326l-24 -79h-213l-21 -59q215 -31 215 -138q0 -61 -59.5 -93t-170.5 -32zM131 -30l892 784h146l-892 -784h-146zM955 -10q-95 0 -152 45.5t-57 121.5q0 111 84 177.5t211 66.5
q105 0 165 -27l-24 -83q-58 27 -130 27q-73 0 -121 -25t-59 -68q58 37 132 37q70 0 121 -29t51 -88q0 -75 -65 -115t-156 -40zM974 186q-51 0 -108 -23v-1q0 -40 23.5 -66.5t66.5 -26.5q38 0 64.5 16.5t26.5 47.5q0 53 -73 53z" />
    <glyph glyph-name="uni215B" unicode="&#x215b;" horiz-adv-x="1249" 
d="M239 615l25 82l132 27h86l-95 -312h88l-22 -79h-299l23 79h90l67 221zM131 -30l892 784h146l-892 -784h-146zM923 -10q-99 0 -153.5 29.5t-54.5 79.5q0 33 29.5 65.5t100.5 47.5q-62 29 -62 76q0 56 62.5 84.5t155.5 28.5q83 0 134 -29t51 -73q0 -33 -29.5 -58t-78.5 -38
q89 -21 89 -86q0 -57 -63.5 -92t-180.5 -35zM930 69q51 0 82 15t31 38q0 21 -23 33.5t-68 12.5q-50 0 -82 -15.5t-32 -38.5q0 -45 92 -45zM976 243q40 0 65.5 13t25.5 32q0 38 -74 38q-40 0 -66 -13t-26 -31q0 -39 75 -39z" />
    <glyph glyph-name="uni215C" unicode="&#x215c;" horiz-adv-x="1249" 
d="M280 323q-99 0 -163 31l23 79q66 -29 138 -29q59 0 89 16t30 40q0 38 -94 38h-54l24 79h56q105 0 105 39q0 36 -79 36q-85 0 -154 -29l24 78q56 33 151 33q81 0 131 -25.5t50 -68.5q0 -71 -104 -106q68 -23 68 -78q0 -59 -65 -96t-176 -37zM131 -30l892 784h146
l-892 -784h-146zM923 -10q-99 0 -153.5 29.5t-54.5 79.5q0 33 29.5 65.5t100.5 47.5q-62 29 -62 76q0 56 62.5 84.5t155.5 28.5q83 0 134 -29t51 -73q0 -33 -29.5 -58t-78.5 -38q89 -21 89 -86q0 -57 -63.5 -92t-180.5 -35zM930 69q51 0 82 15t31 38q0 21 -23 33.5t-68 12.5
q-50 0 -82 -15.5t-32 -38.5q0 -45 92 -45zM976 243q40 0 65.5 13t25.5 32q0 38 -74 38q-40 0 -66 -13t-26 -31q0 -39 75 -39z" />
    <glyph glyph-name="uni215D" unicode="&#x215d;" horiz-adv-x="1249" 
d="M296 323q-107 0 -174 31l22 76q75 -26 159 -26q96 0 96 40q0 36 -74.5 54t-154.5 18l73 208h326l-24 -79h-213l-21 -59q215 -31 215 -138q0 -61 -59.5 -93t-170.5 -32zM131 -30l892 784h146l-892 -784h-146zM923 -10q-99 0 -153.5 29.5t-54.5 79.5q0 33 29.5 65.5
t100.5 47.5q-62 29 -62 76q0 56 62.5 84.5t155.5 28.5q83 0 134 -29t51 -73q0 -33 -29.5 -58t-78.5 -38q89 -21 89 -86q0 -57 -63.5 -92t-180.5 -35zM930 69q51 0 82 15t31 38q0 21 -23 33.5t-68 12.5q-50 0 -82 -15.5t-32 -38.5q0 -45 92 -45zM976 243q40 0 65.5 13
t25.5 32q0 38 -74 38q-40 0 -66 -13t-26 -31q0 -39 75 -39z" />
    <glyph glyph-name="uni215E" unicode="&#x215e;" horiz-adv-x="1249" 
d="M156 333l290 312h-252l24 79h380l-20 -69l-294 -322h-128zM131 -30l892 784h146l-892 -784h-146zM923 -10q-99 0 -153.5 29.5t-54.5 79.5q0 33 29.5 65.5t100.5 47.5q-62 29 -62 76q0 56 62.5 84.5t155.5 28.5q83 0 134 -29t51 -73q0 -33 -29.5 -58t-78.5 -38
q89 -21 89 -86q0 -57 -63.5 -92t-180.5 -35zM930 69q51 0 82 15t31 38q0 21 -23 33.5t-68 12.5q-50 0 -82 -15.5t-32 -38.5q0 -45 92 -45zM976 243q40 0 65.5 13t25.5 32q0 38 -74 38q-40 0 -66 -13t-26 -31q0 -39 75 -39z" />
    <glyph glyph-name="uni2190" unicode="&#x2190;" horiz-adv-x="914" 
d="M408 0l-362 362l362 362l81 -82l-223 -223h622v-116h-620l221 -221z" />
    <glyph glyph-name="uni2191" unicode="&#x2191;" horiz-adv-x="914" 
d="M205 329l-80 79l362 362l362 -362l-81 -79l-222 222v-623h-120v621z" />
    <glyph glyph-name="uni2192" unicode="&#x2192;" horiz-adv-x="914" 
d="M76 305v116h620l-221 221l81 82l362 -362l-362 -362l-81 82l223 223h-622z" />
    <glyph glyph-name="uni2193" unicode="&#x2193;" horiz-adv-x="914" 
d="M467 -84l-362 362l81 79l222 -222v623h120v-621l221 220l80 -79z" />
    <glyph glyph-name="uni2196" unicode="&#x2196;" horiz-adv-x="914" 
d="M744 55l-441 440v-317h-115v512h512v-111h-315l442 -441z" />
    <glyph glyph-name="uni2197" unicode="&#x2197;" horiz-adv-x="914" 
d="M201 55l-83 83l442 441h-315v111h512v-512h-115v317z" />
    <glyph glyph-name="uni2198" unicode="&#x2198;" horiz-adv-x="914" 
d="M245 55v111h315l-442 441l83 83l441 -440v317h115v-512h-512z" />
    <glyph glyph-name="uni2199" unicode="&#x2199;" horiz-adv-x="914" 
d="M188 55v512h115v-317l441 440l83 -83l-442 -441h315v-111h-512z" />
    <glyph glyph-name="partialdiff" unicode="&#x2202;" horiz-adv-x="794" 
d="M337 -16q-139 0 -218 62t-79 159q0 73 29.5 130t78 90t104.5 49.5t115 16.5q109 0 184 -46q-34 79 -107 132.5t-159 74.5l50 92q46 -8 94.5 -26.5t102 -53.5t94.5 -81t68 -115.5t27 -151.5q0 -332 -384 -332zM345 98q212 0 212 159q0 56 -46 88t-124 32q-80 0 -133 -38
t-53 -121q0 -55 42 -87.5t102 -32.5z" />
    <glyph glyph-name="Delta" unicode="&#x2206;" horiz-adv-x="910" 
d="M-30 0l32 112l503 612h168l153 -612l-32 -112h-824zM560 589l-375 -471h482z" />
    <glyph glyph-name="product" unicode="&#x220f;" horiz-adv-x="923" 
d="M516 -211l232 817h-374l-232 -817h-167l266 935h708l-266 -935h-167z" />
    <glyph glyph-name="summation" unicode="&#x2211;" horiz-adv-x="790" 
d="M-65 -211l30 103l472 378l-263 351l29 103h629l-34 -118h-442l227 -297l-34 -117l-356 -285h405l-34 -118h-629z" />
    <glyph glyph-name="minus" unicode="&#x2212;" horiz-adv-x="798" 
d="M57 238l34 120h674l-34 -120h-674z" />
    <glyph glyph-name="radical" unicode="&#x221a;" horiz-adv-x="720" 
d="M211 0l-73 399h-109l33 114h203l54 -371l426 582h177l-555 -724h-156z" />
    <glyph glyph-name="infinity" unicode="&#x221e;" horiz-adv-x="1150" 
d="M242 61q-84 0 -137.5 52t-53.5 141q0 114 77 197.5t206 83.5q137 0 231 -115l35 -44l60 43q90 64 148 90t124 26q84 0 137.5 -52.5t53.5 -140.5q0 -114 -77 -197.5t-206 -83.5q-137 0 -231 115l-36 43l-59 -42q-89 -64 -147 -90t-125 -26zM276 179q24 0 51.5 12t46 24
t64.5 45l64 46l-23 29q-67 82 -135 82q-61 0 -104 -43.5t-43 -109.5q0 -85 79 -85zM736 336l-65 -47l24 -28q67 -82 135 -82q66 0 106.5 48t40.5 103q0 87 -79 87q-24 0 -51.5 -11.5t-47.5 -25t-63 -44.5z" />
    <glyph glyph-name="integral" unicode="&#x222b;" horiz-adv-x="439" 
d="M-120 -225q-66 0 -98 15l32 116q26 -9 63 -9q73 0 108 34.5t58 116.5l129 452q38 133 114 185.5t201 52.5q66 0 98 -15l-32 -116q-25 9 -63 9q-73 0 -108 -34.5t-58 -116.5l-129 -452q-38 -133 -114 -185.5t-201 -52.5z" />
    <glyph glyph-name="approxequal" unicode="&#x2248;" horiz-adv-x="798" 
d="M527 75q-66 0 -165.5 44.5t-146.5 44.5q-31 0 -54 -21t-33 -56h-100q36 194 197 194q66 0 165.5 -44.5t146.5 -44.5q31 0 54 21t33 56h100q-36 -194 -197 -194zM596 315q-66 0 -165.5 44.5t-146.5 44.5q-31 0 -54 -21t-33 -56h-100q36 194 197 194q66 0 165.5 -44.5
t146.5 -44.5q31 0 54 21t33 56h100q-36 -194 -197 -194z" />
    <glyph glyph-name="notequal" unicode="&#x2260;" horiz-adv-x="798" 
d="M101 358l35 120h396l106 101h136l-106 -101h102l-35 -120h-193l-126 -120h285l-35 -120h-376l-106 -101h-136l106 101h-122l35 120h213l126 120h-305z" />
    <glyph glyph-name="lessequal" unicode="&#x2264;" horiz-adv-x="798" 
d="M467 217l-308 251l451 251h235l-458 -261l286 -241h-206zM30 0l34 120h593l-34 -120h-593z" />
    <glyph glyph-name="greaterequal" unicode="&#x2265;" horiz-adv-x="798" 
d="M75 217l458 260l-286 242h206l308 -251l-451 -251h-235zM29 0l34 120h593l-34 -120h-593z" />
    <glyph glyph-name="uni2300" unicode="&#x2300;" horiz-adv-x="750" 
d="M149 39l-72 72l73 73q-56 80 -56 178q0 128 89 217t217 89q98 0 177 -57l74 74l72 -72l-74 -74q57 -79 57 -177q0 -128 -89 -217t-217 -89q-98 0 -178 56zM217 362q0 -48 23 -88l248 248q-43 23 -88 23q-76 0 -129.5 -53.5t-53.5 -129.5zM400 179q76 0 129.5 53.5
t53.5 129.5q0 45 -23 88l-248 -248q40 -23 88 -23z" />
    <glyph glyph-name="uni25AA" unicode="&#x25aa;" horiz-adv-x="495" 
d="M93 190l62 220h246l-62 -220h-246z" />
    <glyph glyph-name="uni25BA" unicode="&#x25ba;" horiz-adv-x="620" 
d="M138 94v536l464 -268z" />
    <glyph glyph-name="uni25C0" unicode="&#x25c0;" horiz-adv-x="620" 
d="M542 94l-464 268l464 268v-536z" />
    <glyph glyph-name="uni25C6" unicode="&#x25c6;" horiz-adv-x="620" 
d="M335 86l-276 276l276 276l276 -276z" />
    <glyph glyph-name="lozenge" unicode="&#x25ca;" horiz-adv-x="952" 
d="M310 1l-251 362l458 361h164l251 -362l-458 -361h-164zM411 108l337 266l-168 243l-338 -267z" />
    <glyph glyph-name="uni5143" unicode="&#x5143;" horiz-adv-x="1000" 
d="M76 363v118h861v-118h-249v-241q0 -29 11.5 -42.5t41.5 -13.5q63 0 63 71v82l147 -28v-60q0 -95 -50.5 -134.5t-161.5 -39.5q-116 0 -162 34.5t-46 124.5v247h-107q-39 -309 -290 -422l-81 104q178 101 215 318h-192zM187 602v122h646v-122h-646z" />
    <glyph glyph-name="uni5186" unicode="&#x5186;" horiz-adv-x="1000" 
d="M156 -43v767h763v-595q0 -105 -44.5 -138.5t-178.5 -33.5h-34l-21 118h49q44 0 61.5 13.5t17.5 46.5v122h-462v-300h-151zM609 612v-245h160v245h-160zM307 612v-245h157v245h-157z" />
    <glyph glyph-name="section.alt01" unicode="&#xf62f;" 
d="M215 -227q-72 0 -141 19.5t-96 39.5l30 104q69 -45 146 -45q69 0 105.5 33t36.5 87q0 35 -21 80l-62 142q-41 93 -41 188q0 80 39.5 143t106.5 100.5t148 56.5t171 19q58 0 129.5 -16t102.5 -36l-31 -108q-68 42 -140 42q-69 0 -105.5 -33t-36.5 -87q0 -35 21 -80
l62 -142q41 -93 41 -188q0 -80 -39.5 -143t-106.5 -100.5t-148 -56.5t-171 -19zM431 33q2 -93 -55 -150q167 67 167 210q0 59 -31 127l-55 124q-35 78 -36 136q-2 93 55 150q-167 -67 -167 -210q0 -59 31 -127l55 -124q35 -78 36 -136z" />
    <glyph glyph-name="zero.lntx" unicode="&#xf630;" horiz-adv-x="950" 
d="M418 -16q-144 0 -226.5 79.5t-82.5 192.5q0 94 33 181t93 154.5t152 108t202 40.5q144 0 226.5 -78t82.5 -190q0 -94 -33 -181.5t-93 -156t-152 -109.5t-202 -41zM436 106q90 0 159 52t103 130.5t34 167.5q0 72 -42.5 116.5t-118.5 44.5q-90 0 -159 -50.5t-103 -128.5
t-34 -166q0 -73 43 -119.5t118 -46.5z" />
    <glyph glyph-name="one.lntx" unicode="&#xf631;" horiz-adv-x="582" 
d="M165 550l35 122l232 52h115l-206 -724h-167l166 586z" />
    <glyph glyph-name="two.lntx" unicode="&#xf632;" 
d="M29 0l29 104l277 174q144 90 197 140t53 109q0 89 -132 89q-108 0 -235 -44l36 125q101 43 227 43q272 0 272 -198q0 -55 -27.5 -106.5t-80 -96.5t-103.5 -79t-123 -73l-125 -69h409l-33 -118h-641z" />
    <glyph glyph-name="three.lntx" unicode="&#xf633;" 
d="M308 -16q-156 0 -266 54l32 116q117 -49 240 -49q101 0 161 34t60 86q0 40 -41.5 66t-131.5 26h-91l34 116h91q98 0 149 31t51 80q0 72 -146 72q-136 0 -259 -52l34 120q107 56 253 56q128 0 207 -47.5t79 -125.5q0 -142 -185 -196q124 -41 124 -148
q0 -106 -104.5 -172.5t-290.5 -66.5z" />
    <glyph glyph-name="four.lntx" unicode="&#xf634;" horiz-adv-x="906" 
d="M458 0l40 142h-464l30 104l616 478h150l-132 -464h150l-34 -118h-149l-40 -142h-167zM264 260h267l75 266z" />
    <glyph glyph-name="five.lntx" unicode="&#xf635;" 
d="M324 -16q-168 0 -278 54l32 114q117 -47 257 -47q106 0 158.5 29t52.5 81q0 38 -41 65.5t-106 41.5t-128.5 20t-125.5 6l124 376h538l-34 -118h-383l-50 -148q72 -6 133 -20t120 -40t93 -72.5t34 -108.5q0 -105 -104.5 -169t-291.5 -64z" />
    <glyph glyph-name="six.lntx" unicode="&#xf636;" horiz-adv-x="908" 
d="M432 -16q-144 0 -233.5 76.5t-89.5 199.5q0 221 145.5 350.5t383.5 129.5q143 0 232 -38l-36 -125q-95 39 -212 39q-116 0 -204 -56t-122 -148q110 72 237 72q123 0 199.5 -59t76.5 -152q0 -73 -31 -129.5t-84.5 -90.5t-119.5 -51.5t-142 -17.5zM488 362q-103 0 -213 -52
q-2 -28 -2 -44q0 -73 47.5 -119.5t125.5 -46.5q46 0 87 14.5t72 51t31 89.5q0 46 -38 76.5t-110 30.5z" />
    <glyph glyph-name="seven.lntx" unicode="&#xf637;" horiz-adv-x="736" 
d="M73 0l528 606h-446l34 118h634l-30 -105l-541 -619h-179z" />
    <glyph glyph-name="eight.lntx" unicode="&#xf638;" horiz-adv-x="958" 
d="M421 -16q-158 0 -245 54.5t-87 142.5q0 75 58 130t171 79q-49 22 -77.5 58.5t-28.5 78.5q0 102 103 157.5t261 55.5q133 0 216 -52t83 -129q0 -135 -181 -184q137 -44 137 -150q0 -46 -22 -87t-68 -76.5t-128.5 -56.5t-191.5 -21zM438 100q99 0 161.5 34.5t62.5 85.5
q0 46 -46 74.5t-135 28.5q-99 0 -161.5 -34.5t-62.5 -85.5q0 -46 46 -74.5t135 -28.5zM526 433q82 0 134 30.5t52 74.5q0 40 -38 65t-113 25q-82 0 -134 -30.5t-52 -74.5q0 -40 38 -65t113 -25z" />
    <glyph glyph-name="nine.lntx" unicode="&#xf639;" horiz-adv-x="909" 
d="M323 -16q-64 0 -131 12t-105 28l36 125q95 -39 212 -39q121 0 208.5 60.5t113.5 158.5q-109 -75 -242 -75q-124 0 -200 55.5t-76 148.5q0 96 54.5 161.5t137 93t185.5 27.5q144 0 233.5 -76.5t89.5 -199.5q0 -222 -140 -351t-376 -129zM460 376q105 0 213 50q2 20 2 32
q0 73 -47.5 119.5t-125.5 46.5q-75 0 -132.5 -35.5t-57.5 -112.5q0 -45 37.5 -72.5t110.5 -27.5z" />
    <glyph glyph-name="apple" unicode="&#xf8ff;" horiz-adv-x="2282" 
d="M436 -11q-154 0 -263 108.5t-109 263.5t108.5 264t263.5 109q133 0 235 -83q102 83 235 83t235 -83q104 83 235 83t235 -83q102 83 235 83q154 0 263 -109t109 -264q0 -154 -109 -263t-263 -109q-133 0 -235 83q-104 -83 -235 -83t-235 83q-102 -83 -235 -83t-235 83
q-102 -83 -235 -83zM906 73q99 0 176 60q-79 100 -79 228q0 129 79 229q-77 60 -176 60q-98 0 -175 -60q78 -100 78 -229q0 -128 -78 -228q77 -60 175 -60zM1376 73q99 0 176 60q-79 100 -79 228q0 129 79 229q-77 60 -176 60t-176 -60q79 -100 79 -229q0 -128 -79 -228
q77 -60 176 -60zM436 73q100 0 176 60q-78 100 -78 228q0 129 78 229q-76 60 -176 60q-119 0 -203.5 -84.5t-84.5 -204.5q0 -119 84.5 -203.5t203.5 -84.5zM1846 73q119 0 203.5 84.5t84.5 203.5q0 120 -84.5 204.5t-203.5 84.5q-99 0 -176 -60q79 -100 79 -229
q0 -128 -79 -228q77 -60 176 -60zM671 194q54 75 54 167q0 93 -54 168q-53 -73 -53 -168q0 -94 53 -167zM1141 194q54 75 54 167q0 93 -54 168q-54 -75 -54 -168q0 -92 54 -167zM1611 194q54 77 54 167q0 91 -54 168q-54 -75 -54 -168q0 -92 54 -167z" />
    </font>
</defs>
</svg>
