<?xml version="1.0" standalone="no"?>
<!DOCTYPE svg PUBLIC "-//W3C//DTD SVG 1.1//EN" "http://www.w3.org/Graphics/SVG/1.1/DTD/svg11.dtd" >
<svg xmlns="http://www.w3.org/2000/svg" xmlns:xlink="http://www.w3.org/1999/xlink" version="1.1">
<metadata>
Created by FontForge 20161003 at Fri Dec  2 17:17:15 2016
 By www-data
Designed by Paul van der Laan &#38; Pieter van Rosmalen 2008. Produced by Bold Monday. For exclusive use by AUDI AG and its affiliates only.
</metadata>
<defs>
<font id="AudiTypeV01ExtendedBold" horiz-adv-x="535" >
  <font-face 
    font-family="AudiTypeV01ExtendedBold"
    font-weight="700"
    font-stretch="expanded"
    units-per-em="1000"
    panose-1="2 11 8 5 4 2 0 0 0 3"
    ascent="760"
    descent="-240"
    x-height="513"
    cap-height="724"
    bbox="-355 -266 2218 1043"
    underline-thickness="50"
    underline-position="-150"
    unicode-range="U+0020-FB04"
  />
<missing-glyph horiz-adv-x="296" 
d="M63 -211v935h170v-935h-170z" />
    <glyph glyph-name="uniFB00" unicode="ff" horiz-adv-x="984" 
d="M304 399v-399h-155v399h-113v114h113v15q0 106 65 158t177 52q68 0 137 -18v-110q-64 16 -106 16q-61 0 -89.5 -23.5t-28.5 -82.5v-7h309v15q0 106 65 158t177 52q68 0 137 -18v-110q-64 16 -106 16q-61 0 -89.5 -23.5t-28.5 -82.5v-7h200v-114h-200v-399h-155v399h-309z
" />
    <glyph glyph-name="fi" unicode="fi" horiz-adv-x="873" 
d="M618 0v399h-314v-399h-155v399h-113v114h113v15q0 106 65 158t177 52q68 0 137 -18v-110q-64 16 -106 16q-61 0 -89.5 -23.5t-28.5 -82.5v-7h471v-513h-157zM618 588v136h157v-136h-157z" />
    <glyph glyph-name="fl" unicode="fl" horiz-adv-x="942" 
d="M36 399v114h113v15q0 106 65 158t177 52q68 0 137 -18v-110q-64 16 -106 16q-61 0 -89.5 -23.5t-28.5 -82.5v-7h200v-114h-200v-399h-155v399h-113zM791 -13q-94 0 -136.5 40.5t-42.5 118.5v578h157v-557q0 -31 14.5 -45t59.5 -14q37 0 81 11v-110q-58 -22 -133 -22z" />
    <glyph glyph-name="uniFB03" unicode="ffi" horiz-adv-x="1337" 
d="M304 399v-399h-155v399h-113v114h113v15q0 106 65 158t177 52q68 0 137 -18v-110q-64 16 -106 16q-61 0 -89.5 -23.5t-28.5 -82.5v-7h309v15q0 106 65 158t177 52q68 0 137 -18v-110q-64 16 -106 16q-61 0 -89.5 -23.5t-28.5 -82.5v-7h471v-513h-157v399h-314v-399h-155
v399h-309zM1082 588v136h157v-136h-157z" />
    <glyph glyph-name="uniFB04" unicode="ffl" horiz-adv-x="1406" 
d="M304 399v-399h-155v399h-113v114h113v15q0 106 65 158t177 52q68 0 137 -18v-110q-64 16 -106 16q-61 0 -89.5 -23.5t-28.5 -82.5v-7h309v15q0 106 65 158t177 52q68 0 137 -18v-110q-64 16 -106 16q-61 0 -89.5 -23.5t-28.5 -82.5v-7h200v-114h-200v-399h-155v399h-309z
M1255 -13q-94 0 -136.5 40.5t-42.5 118.5v578h157v-557q0 -31 14.5 -45t59.5 -14q37 0 81 11v-110q-58 -22 -133 -22z" />
    <glyph glyph-name=".notdef" horiz-adv-x="296" 
d="M63 -211v935h170v-935h-170z" />
    <glyph glyph-name=".null" horiz-adv-x="0" 
 />
    <glyph glyph-name="nonmarkingreturn" horiz-adv-x="333" 
 />
    <glyph glyph-name="space" unicode=" " horiz-adv-x="341" 
 />
    <glyph glyph-name="exclam" unicode="!" horiz-adv-x="409" 
d="M155 228l-15 94q-18 108 -18 224v178h165v-178q0 -95 -19 -223l-14 -95h-99zM120 0v151h169v-151h-169z" />
    <glyph glyph-name="quotedbl" unicode="&#x22;" horiz-adv-x="567" 
d="M440 441h-73l-13 53q-28 115 -28 153v77h155v-77q0 -38 -28 -153zM200 441h-73l-13 53q-28 115 -28 153v77h155v-77q0 -38 -28 -153z" />
    <glyph glyph-name="numbersign" unicode="#" horiz-adv-x="846" 
d="M476 39l11 122h-164l-11 -122h-130l11 122h-112v104h121l17 185h-138v104h148l11 115h130l-11 -115h164l11 115h130l-11 -115h112v-104h-122l-17 -185h139v-104h-148l-11 -122h-130zM349 450l-17 -185h164l17 185h-164z" />
    <glyph glyph-name="dollar" unicode="$" horiz-adv-x="846" 
d="M361 -93v96q-160 3 -252 43v120q122 -44 266 -44q107 0 156.5 20t49.5 65q0 34 -40.5 55t-145.5 44q-135 29 -205.5 78t-70.5 132q0 80 63.5 132t178.5 67v102h122v-97q138 -4 219 -40v-119q-120 40 -251 40q-94 0 -136 -18.5t-42 -59.5q0 -35 42 -56.5t147 -42.5
q138 -28 206.5 -75.5t68.5 -135.5q0 -83 -64 -136.5t-190 -68.5v-101h-122z" />
    <glyph glyph-name="percent" unicode="%" horiz-adv-x="1263" 
d="M238 0l631 724h154l-631 -724h-154zM311 421q48 0 72 31t24 79t-24 79t-72 31t-72 -31t-24 -79t24 -79t72 -31zM311 322q-109 0 -170 56t-61 153q0 95 62.5 152t168.5 57q109 0 170 -56t61 -153q0 -95 -62.5 -152t-168.5 -57zM952 83q48 0 72 31t24 79t-24 79t-72 31
t-72 -31t-24 -79t24 -79t72 -31zM952 -16q-109 0 -170 56t-61 153q0 95 62.5 152t168.5 57q109 0 170 -56t61 -153q0 -95 -62.5 -152t-168.5 -57z" />
    <glyph glyph-name="ampersand" unicode="&#x26;" horiz-adv-x="1006" 
d="M883 336q-22 -105 -100 -189l195 -147h-202l-88 66q-132 -82 -301 -82q-164 0 -249.5 59.5t-85.5 149.5q0 69 46 115t139 89l12 5l-12 10q-92 69 -92 162q0 85 67 125.5t180 40.5q247 0 247 -166q0 -54 -42.5 -101t-103.5 -76l-23 -11l214 -163q69 83 69 201v30h216v-118
h-86zM397 100q104 0 189 44l-239 183l-40 -19q-94 -45 -94 -103q0 -105 184 -105zM289 571q0 -48 61 -94l22 -17l42 20q81 39 81 91q0 28 -27 45.5t-76 17.5q-103 0 -103 -63z" />
    <glyph glyph-name="quotesingle" unicode="'" horiz-adv-x="327" 
d="M200 441h-73l-13 53q-28 115 -28 153v77h155v-77q0 -38 -28 -153z" />
    <glyph glyph-name="parenleft" unicode="(" horiz-adv-x="464" 
d="M318 -92q-97 63 -159.5 176.5t-62.5 248.5t62.5 248.5t159.5 176.5h124q-86 -72 -141 -182.5t-55 -242.5q0 -133 55 -242.5t141 -182.5h-124z" />
    <glyph glyph-name="parenright" unicode=")" horiz-adv-x="464" 
d="M146 -92h-124q86 73 141 182.5t55 242.5q0 132 -55 242.5t-141 182.5h124q97 -63 159.5 -176.5t62.5 -248.5t-62.5 -248.5t-159.5 -176.5z" />
    <glyph glyph-name="asterisk" unicode="*" horiz-adv-x="564" 
d="M223 346l-81 47l28 48q17 33 43 60q-34 -7 -74 -7h-71v94h71q36 0 76 -8q-25 26 -44 61l-28 48l81 47l28 -48q20 -37 30 -70q12 35 31 70l28 48l81 -47l-28 -48q-19 -34 -44 -61q33 8 75 8h71v-94h-71q-44 0 -76 8q25 -28 44 -61l28 -48l-81 -47l-28 48q-19 33 -31 69
q-10 -35 -30 -69z" />
    <glyph glyph-name="plus" unicode="+" horiz-adv-x="798" 
d="M62 238v120h262v194h150v-194h262v-120h-262v-199h-150v199h-262z" />
    <glyph glyph-name="comma" unicode="," horiz-adv-x="393" 
d="M35 -152l91 174l-26 144h114q87 0 87 -85q0 -41 -35 -97.5t-87 -108.5l-27 -27h-117z" />
    <glyph glyph-name="hyphen" unicode="-" horiz-adv-x="473" 
d="M60 230v135h353v-135h-353z" />
    <glyph glyph-name="period" unicode="." horiz-adv-x="393" 
d="M106 0v167h181v-167h-181z" />
    <glyph glyph-name="slash" unicode="/" horiz-adv-x="562" 
d="M12 0l395 724h143l-394 -724h-144z" />
    <glyph glyph-name="zero" unicode="0" horiz-adv-x="846" 
d="M421 -16q-97 0 -168.5 30t-112 83.5t-59 118t-18.5 142.5t19.5 144.5t61 121t113.5 85.5t169 31t168.5 -30t111.5 -83t58.5 -117.5t18.5 -142.5t-19.5 -144.5t-60.5 -121.5t-113 -86t-169 -31zM423 106q198 0 198 256q0 255 -198 255q-197 0 -197 -255q0 -256 197 -256z
" />
    <glyph glyph-name="one" unicode="1" horiz-adv-x="846" 
d="M194 550v122l217 52h113v-606h169v-118h-499v118h169v469z" />
    <glyph glyph-name="two" unicode="2" horiz-adv-x="846" 
d="M102 0v104l235 174q97 72 137.5 118.5t40.5 95.5q0 62 -37.5 93t-119.5 31q-118 0 -223 -45v122q116 47 234 47q310 0 310 -241q0 -30 -8.5 -58.5t-18 -50t-33.5 -48.5t-36.5 -40.5t-47.5 -40.5t-46.5 -35.5t-51.5 -36.5l-100 -71h406v-118h-641z" />
    <glyph glyph-name="three" unicode="3" horiz-adv-x="846" 
d="M379 -16q-153 0 -265 45v120q128 -44 256 -44q90 0 141.5 29.5t51.5 74.5q0 46 -51.5 78.5t-147.5 32.5h-91v116h91q82 0 123.5 25t41.5 67q0 39 -46 63.5t-116 24.5q-125 0 -235 -50v120q104 54 246 54q146 0 231.5 -54t85.5 -143q0 -52 -34 -94.5t-101 -66.5
q172 -50 172 -177q0 -95 -91.5 -158t-261.5 -63z" />
    <glyph glyph-name="four" unicode="4" horiz-adv-x="846" 
d="M497 0v142h-437v104l445 478h152v-464h143v-118h-143v-142h-160zM241 260h256v275z" />
    <glyph glyph-name="five" unicode="5" horiz-adv-x="846" 
d="M384 -16q-153 0 -265 45v120q128 -44 256 -44q104 0 153 28.5t49 76.5q0 31 -31.5 55t-77.5 37t-109 21t-115 10t-105 2l16 389h550v-118h-399l-6 -150q444 -24 444 -238q0 -104 -90 -169t-270 -65z" />
    <glyph glyph-name="six" unicode="6" horiz-adv-x="846" 
d="M426 -16q-170 0 -260 89.5t-90 257.5q0 198 106 303.5t321 105.5q118 0 217 -38v-122q-108 36 -213 36q-224 0 -258 -181q85 49 194 49q155 0 242 -65.5t87 -179.5q0 -108 -90.5 -181.5t-255.5 -73.5zM432 362q-112 0 -195 -41v-7q0 -100 50.5 -157t143.5 -57
q83 0 128 40t45 99t-45.5 91t-126.5 32z" />
    <glyph glyph-name="seven" unicode="7" horiz-adv-x="846" 
d="M193 0l374 606h-455v118h634v-105l-384 -619h-169z" />
    <glyph glyph-name="eight" unicode="8" horiz-adv-x="846" 
d="M423 -16q-178 0 -271.5 61t-93.5 153q0 64 45.5 112t137.5 73q-71 22 -108 62.5t-37 94.5q0 92 86.5 146t240.5 54q155 0 241.5 -54t86.5 -146q0 -112 -142 -157q90 -25 134.5 -73t44.5 -112q0 -92 -93.5 -153t-271.5 -61zM423 100q95 0 147 33.5t52 78.5t-50.5 78
t-148.5 33q-97 0 -148 -33t-51 -78t51.5 -78.5t147.5 -33.5zM423 433q82 0 123.5 25.5t41.5 68.5t-44 71.5t-121 28.5t-121 -28.5t-44 -71.5t41.5 -68.5t123.5 -25.5z" />
    <glyph glyph-name="nine" unicode="9" horiz-adv-x="846" 
d="M343 -16q-118 0 -217 38v122q108 -36 213 -36q237 0 262 197q-87 -51 -198 -51q-155 0 -242 62t-87 176q0 106 90.5 177t255.5 71q170 0 260 -89.5t90 -257.5q0 -198 -106 -303.5t-321 -105.5zM414 376q109 0 195 40q-2 97 -52.5 152.5t-141.5 55.5q-83 0 -128 -38
t-45 -94q0 -57 45.5 -86.5t126.5 -29.5z" />
    <glyph glyph-name="colon" unicode=":" horiz-adv-x="393" 
d="M106 346v167h181v-167h-181zM106 0v167h181v-167h-181z" />
    <glyph glyph-name="semicolon" unicode=";" horiz-adv-x="393" 
d="M35 -152l91 174l-26 144h114q87 0 87 -85q0 -41 -35 -97.5t-87 -108.5l-27 -27h-117zM106 346v167h181v-167h-181z" />
    <glyph glyph-name="less" unicode="&#x3c;" horiz-adv-x="798" 
d="M477 45l-379 251l379 251h223l-369 -251l369 -251h-223z" />
    <glyph glyph-name="equal" unicode="=" horiz-adv-x="798" 
d="M82 118v120h634v-120h-634zM82 358v120h634v-120h-634z" />
    <glyph glyph-name="greater" unicode="&#x3e;" horiz-adv-x="798" 
d="M98 45l369 251l-369 251h223l379 -251l-379 -251h-223z" />
    <glyph glyph-name="question" unicode="?" horiz-adv-x="580" 
d="M150 228l-12 120l144 77q100 53 100 115q0 38 -37.5 58t-98.5 20q-54 0 -120.5 -13.5t-113.5 -33.5v122q116 47 245 47q132 0 209.5 -48.5t77.5 -139.5q0 -41 -14 -74t-44.5 -60t-54.5 -43t-68 -41l-80 -45l-6 -61h-127zM132 0v151h169v-151h-169z" />
    <glyph glyph-name="at" unicode="@" horiz-adv-x="1314" 
d="M582 27q-107 0 -166 54t-59 144q0 120 74.5 201.5t207.5 81.5q78 0 154 -43l18 37h126l-41 -295q-6 -40 9.5 -64.5t55.5 -24.5q63 0 103.5 63t40.5 151q0 149 -100.5 227t-322.5 78q-221 0 -344.5 -122t-123.5 -306q0 -156 114.5 -237.5t315.5 -81.5q118 0 267 45v-103
q-133 -46 -272 -46q-274 0 -419.5 108t-145.5 315q0 108 41 204t117 169t192.5 115.5t257.5 42.5q271 0 414.5 -106.5t143.5 -297.5q0 -135 -79.5 -222t-209.5 -87q-119 0 -170 62q-99 -62 -199 -62zM750 169q0 25 2 38l23 170q-57 31 -123 31q-75 0 -112 -51t-37 -121
q0 -103 121 -103q67 0 126 36z" />
    <glyph glyph-name="A" unicode="A" horiz-adv-x="932" 
d="M2 0l380 724h168l380 -724h-181l-78 150h-413l-77 -150h-179zM465 568l-147 -293h294z" />
    <glyph glyph-name="B" unicode="B" horiz-adv-x="857" 
d="M108 0v724h349q153 0 220.5 -50t67.5 -151q0 -102 -101 -145q147 -48 147 -170q0 -208 -308 -208h-375zM481 314h-213v-200h213q78 0 112 25t34 74q0 101 -146 101zM443 610h-175v-186h175q68 0 103 25t35 69t-35 68t-103 24z" />
    <glyph glyph-name="C" unicode="C" horiz-adv-x="813" 
d="M475 -16q-104 0 -184.5 29.5t-129 82t-73 119.5t-24.5 147q0 162 106 270t305 108q146 0 269 -53v-127q-126 55 -258 55q-127 0 -192 -69.5t-65 -183.5q0 -111 63.5 -182t193.5 -71q134 0 269 45v-123q-51 -16 -79 -23.5t-83.5 -15.5t-117.5 -8z" />
    <glyph glyph-name="D" unicode="D" horiz-adv-x="926" 
d="M108 0v724h352q201 0 301.5 -96t100.5 -259q0 -78 -25 -143.5t-74 -116.5t-129 -80t-184 -29h-342zM427 606h-159v-488h159q146 0 208.5 64t62.5 180t-62.5 180t-208.5 64z" />
    <glyph glyph-name="E" unicode="E" horiz-adv-x="790" 
d="M108 0v724h610v-118h-449v-176h385v-118h-385v-194h453v-118h-614z" />
    <glyph glyph-name="F" unicode="F" horiz-adv-x="725" 
d="M108 0v724h575v-118h-414v-196h347v-118h-347v-292h-161z" />
    <glyph glyph-name="G" unicode="G" horiz-adv-x="926" 
d="M500 -16q-205 0 -320.5 96.5t-115.5 281.5q0 171 113.5 274.5t327.5 103.5q157 0 300 -53v-129q-164 57 -288 57q-288 0 -288 -253q0 -254 286 -254q92 0 174 23v219h161v-311q-165 -55 -350 -55z" />
    <glyph glyph-name="H" unicode="H" horiz-adv-x="963" 
d="M694 0v304h-425v-304h-161v724h161v-302h425v302h161v-724h-161z" />
    <glyph glyph-name="I" unicode="I" horiz-adv-x="551" 
d="M76 606v118h399v-118h-119v-488h119v-118h-399v118h119v488h-119z" />
    <glyph glyph-name="J" unicode="J" horiz-adv-x="471" 
d="M63 606v118h300v-621q0 -139 -67.5 -199t-211.5 -60q-48 0 -74 8v121q28 -5 66 -5q75 0 100.5 34.5t25.5 118.5v485h-139z" />
    <glyph glyph-name="K" unicode="K" horiz-adv-x="879" 
d="M108 0v724h161v-312l379 312h215l-437 -351l451 -373h-237l-371 322v-322h-161z" />
    <glyph glyph-name="L" unicode="L" horiz-adv-x="694" 
d="M108 0v724h161v-606h393v-118h-554z" />
    <glyph glyph-name="M" unicode="M" horiz-adv-x="1174" 
d="M108 0v724h178l306 -437l306 437h168v-724h-156v510l-267 -380h-113l-266 380v-510h-156z" />
    <glyph glyph-name="N" unicode="N" horiz-adv-x="983" 
d="M108 0v724h188l422 -532v532h157v-724h-188l-422 531v-531h-157z" />
    <glyph glyph-name="O" unicode="O" horiz-adv-x="952" 
d="M476 -16q-104 0 -184.5 29.5t-129.5 82t-73.5 120t-24.5 146.5q0 162 106.5 270t305.5 108q104 0 184.5 -29.5t129.5 -82t73.5 -120t24.5 -146.5q0 -162 -106.5 -270t-305.5 -108zM476 111q125 0 185.5 70t60.5 181t-60.5 181t-185.5 70t-185.5 -70t-60.5 -181t60.5 -181
t185.5 -70z" />
    <glyph glyph-name="P" unicode="P" horiz-adv-x="817" 
d="M108 0v724h321q338 0 338 -237q0 -239 -353 -239h-145v-248h-161zM414 606h-145v-240h135q107 0 151.5 28.5t44.5 92.5q0 62 -43 90.5t-143 28.5z" />
    <glyph glyph-name="Q" unicode="Q" horiz-adv-x="952" 
d="M476 -16q-104 0 -184.5 29.5t-129.5 82t-73.5 120t-24.5 146.5q0 162 106.5 270t305.5 108q104 0 184.5 -29.5t129.5 -82t73.5 -120t24.5 -146.5q0 -117 -57 -209t-166 -136q27 -10 59 -37l144 -121h-175q-17 0 -29 3.5t-17.5 7t-19.5 15.5l-121 100q-5 0 -15 -0.5
t-15 -0.5zM476 111q125 0 185.5 70t60.5 181t-60.5 181t-185.5 70t-185.5 -70t-60.5 -181t60.5 -181t185.5 -70z" />
    <glyph glyph-name="R" unicode="R" horiz-adv-x="853" 
d="M108 0v724h307q164 0 251 -55.5t87 -161.5q0 -153 -185 -203q31 -14 65 -53l204 -251h-201l-180 225q-27 34 -48 43t-75 9h-64v-277h-161zM398 606h-129v-212h129q186 0 186 111q0 101 -186 101z" />
    <glyph glyph-name="S" unicode="S" horiz-adv-x="791" 
d="M347 -16q-167 0 -283 47v124q140 -48 276 -48q218 0 218 95q0 34 -43.5 54t-155.5 43q-147 29 -219.5 82t-72.5 140q0 100 86 159.5t266 59.5q157 0 261 -45v-123q-138 44 -261 44q-188 0 -188 -88q0 -34 44.5 -54t157.5 -43q150 -30 221 -81t71 -142q0 -101 -96 -162.5
t-282 -61.5z" />
    <glyph glyph-name="T" unicode="T" horiz-adv-x="758" 
d="M32 606v118h694v-118h-267v-606h-161v606h-266z" />
    <glyph glyph-name="U" unicode="U" horiz-adv-x="916" 
d="M458 -16q-189 0 -276.5 76t-87.5 232v432h160v-424q0 -97 48.5 -143.5t155.5 -46.5t155.5 46.5t48.5 143.5v424h160v-432q0 -308 -364 -308z" />
    <glyph glyph-name="V" unicode="V" horiz-adv-x="892" 
d="M362 0l-366 724h184l270 -565l270 565h176l-366 -724h-168z" />
    <glyph glyph-name="W" unicode="W" horiz-adv-x="1421" 
d="M315 0l-309 724h181l215 -546l226 546h176l225 -546l217 546h169l-311 -724h-160l-234 564l-235 -564h-160z" />
    <glyph glyph-name="X" unicode="X" horiz-adv-x="848" 
d="M10 0l317 375l-294 349h200l190 -238l191 238h191l-289 -344l322 -380h-200l-218 271l-219 -271h-191z" />
    <glyph glyph-name="Y" unicode="Y" horiz-adv-x="821" 
d="M330 0v269l-332 455h191l223 -319l225 319h186l-332 -448v-276h-161z" />
    <glyph glyph-name="Z" unicode="Z" horiz-adv-x="834" 
d="M54 0v104l497 502h-483v118h692v-103l-499 -503h519v-118h-726z" />
    <glyph glyph-name="bracketleft" unicode="[" horiz-adv-x="464" 
d="M126 -93v851h282v-83h-145v-685h145v-83h-282z" />
    <glyph glyph-name="backslash" unicode="\" horiz-adv-x="562" 
d="M137 758l413 -758h-144l-412 758h143z" />
    <glyph glyph-name="bracketright" unicode="]" horiz-adv-x="464" 
d="M56 -93v83h145v685h-145v83h282v-851h-282z" />
    <glyph glyph-name="asciicircum" unicode="^" horiz-adv-x="562" 
d="M527 436h-135l-111 175l-111 -175h-135l188 288h116z" />
    <glyph glyph-name="underscore" unicode="_" horiz-adv-x="590" 
d="M-8 -120v120h606v-120h-606z" />
    <glyph glyph-name="grave" unicode="`" horiz-adv-x="550" 
d="M301 588l-170 158h188l100 -158h-118z" />
    <glyph glyph-name="a" unicode="a" horiz-adv-x="720" 
d="M499 0l-10 52q-81 -68 -217 -68q-105 0 -164 41.5t-59 118.5q0 90 86.5 128t241.5 38q53 0 104 -3q-1 101 -160 101q-115 0 -218 -42v114q98 49 234 49q299 0 299 -211v-318h-137zM309 88q84 0 172 46v81h-80q-104 0 -148 -14.5t-44 -50.5q0 -27 25 -44.5t75 -17.5z" />
    <glyph glyph-name="b" unicode="b" horiz-adv-x="808" 
d="M255 724v-261q79 66 211 66q136 0 212 -71t76 -196q0 -130 -76.5 -204t-217.5 -74q-143 0 -220 60l-18 -44h-124v724h157zM431 106q79 0 121 39.5t42 112.5q0 72 -42 111t-121 39q-92 0 -176 -42v-218q81 -42 176 -42z" />
    <glyph glyph-name="c" unicode="c" horiz-adv-x="618" 
d="M363 -15q-154 0 -231.5 69.5t-77.5 204.5q0 123 80 196t234 73q54 0 109 -11.5t87 -30.5v-115q-85 36 -190 36q-78 0 -119 -38.5t-41 -109.5q0 -73 40.5 -113t116.5 -40q109 0 197 35v-116q-92 -40 -205 -40z" />
    <glyph glyph-name="d" unicode="d" horiz-adv-x="808" 
d="M346 -16q-138 0 -215 72t-77 201q0 128 78 200t222 72q122 0 199 -50v245h157v-724h-137l-11 56q-36 -33 -95 -52.5t-121 -19.5zM377 105q95 0 176 42v218q-81 42 -176 42q-79 0 -121 -39t-42 -111q0 -73 42 -112.5t121 -39.5z" />
    <glyph glyph-name="e" unicode="e" horiz-adv-x="729" 
d="M680 216h-467q13 -112 186 -112q137 0 238 41v-112q-98 -48 -256 -48q-159 0 -243 74t-84 195q0 117 80 196t234 79q157 0 236 -73.5t79 -191.5q0 -28 -3 -48zM368 418q-131 0 -153 -105h307q-22 105 -154 105z" />
    <glyph glyph-name="f" unicode="f" horiz-adv-x="520" 
d="M36 399v114h113v15q0 106 65 158t177 52q68 0 137 -18v-110q-64 16 -106 16q-61 0 -89.5 -23.5t-28.5 -82.5v-7h200v-114h-200v-399h-155v399h-113z" />
    <glyph glyph-name="g" unicode="g" horiz-adv-x="808" 
d="M364 -227q-155 0 -247 32v125q90 -31 226 -31q110 0 160 30t50 99v32q-82 -56 -211 -56q-135 0 -211.5 70t-76.5 193q0 122 76.5 192t217.5 70q60 0 119 -19.5t97 -49.5l22 53h124v-480q0 -260 -346 -260zM377 125q95 0 176 42v198q-81 42 -176 42q-78 0 -120.5 -37.5
t-42.5 -102.5q0 -66 42.5 -104t120.5 -38z" />
    <glyph glyph-name="h" unicode="h" horiz-adv-x="803" 
d="M98 0v724h157v-255q84 60 206 60q55 0 98.5 -10t81 -34.5t58 -70.5t20.5 -112v-302h-157v282q0 65 -32 96t-102 31q-91 0 -173 -43v-366h-157z" />
    <glyph glyph-name="i" unicode="i" horiz-adv-x="353" 
d="M98 0v513h157v-513h-157zM98 588v136h157v-136h-157z" />
    <glyph glyph-name="j" unicode="j" horiz-adv-x="353" 
d="M-18 -225q-47 0 -73 8v119q28 -5 65 -5q74 0 99 34t25 116v466h157v-484q0 -136 -66 -195t-207 -59zM98 588v136h157v-136h-157z" />
    <glyph glyph-name="k" unicode="k" horiz-adv-x="717" 
d="M98 0v724h157v-420l255 209h205l-300 -240l308 -273h-219l-249 235v-235h-157z" />
    <glyph glyph-name="l" unicode="l" horiz-adv-x="422" 
d="M271 -13q-94 0 -136.5 40.5t-42.5 118.5v578h157v-557q0 -31 14.5 -45t59.5 -14q37 0 81 11v-110q-58 -22 -133 -22z" />
    <glyph glyph-name="m" unicode="m" horiz-adv-x="1267" 
d="M1026 0v282q0 65 -32 96t-102 31q-91 0 -173 -43v-366h-157v282q0 65 -32 96t-102 31q-91 0 -173 -43v-366h-157v513h137l9 -51q88 67 217 67q156 0 221 -81q92 81 243 81q55 0 98.5 -10t81 -34.5t58 -70.5t20.5 -112v-302h-157z" />
    <glyph glyph-name="n" unicode="n" horiz-adv-x="803" 
d="M98 0v513h137l9 -51q88 67 217 67q55 0 98.5 -10t81 -34.5t58 -70.5t20.5 -112v-302h-157v282q0 65 -32 96t-102 31q-91 0 -173 -43v-366h-157z" />
    <glyph glyph-name="o" unicode="o" horiz-adv-x="794" 
d="M397 -16q-166 0 -254.5 71.5t-88.5 201.5q0 126 89.5 199t253.5 73q166 0 254.5 -71t88.5 -202q0 -126 -89.5 -199t-253.5 -73zM397 99q82 0 132 42.5t50 114.5t-50 115t-132 43t-132 -42.5t-50 -114.5t50 -115t132 -43z" />
    <glyph glyph-name="p" unicode="p" horiz-adv-x="808" 
d="M98 513h137l10 -56q92 72 221 72q136 0 212 -71t76 -196q0 -130 -76.5 -204t-217.5 -74q-131 0 -205 50v-245h-157v724zM431 105q79 0 121 39.5t42 111.5t-42 111t-121 39q-95 0 -176 -42v-217q81 -42 176 -42z" />
    <glyph glyph-name="q" unicode="q" horiz-adv-x="808" 
d="M553 -211v261q-82 -66 -211 -66q-136 0 -212 72.5t-76 200.5q0 127 76.5 199.5t217.5 72.5q64 0 123.5 -16t95.5 -44l19 44h124v-724h-157zM377 105q95 0 176 42v218q-81 42 -176 42q-79 0 -121 -39t-42 -111q0 -73 42 -112.5t121 -39.5z" />
    <glyph glyph-name="r" unicode="r" horiz-adv-x="527" 
d="M98 0v513h143l6 -94q57 108 182 108q44 0 74 -9v-136q-35 8 -86 8q-115 0 -162 -68v-322h-157z" />
    <glyph glyph-name="s" unicode="s" horiz-adv-x="646" 
d="M292 -15q-66 0 -131 12.5t-97 29.5v113q36 -15 104.5 -27t123.5 -12q149 0 149 45q0 22 -31.5 32t-114.5 22q-115 16 -172 54t-57 110q0 164 283 164q60 0 125.5 -12.5t93.5 -29.5v-112q-35 15 -101 27t-118 12q-126 0 -126 -44q0 -22 31 -31.5t116 -21.5
q118 -17 173 -53t55 -111q0 -79 -79 -123t-227 -44z" />
    <glyph glyph-name="t" unicode="t" horiz-adv-x="570" 
d="M28 399v114h120l16 128h133v-128h233v-114h-233v-201q0 -48 22 -67.5t78 -19.5q79 0 137 18v-114q-75 -27 -169 -27q-223 0 -223 192v219h-114z" />
    <glyph glyph-name="u" unicode="u" horiz-adv-x="791" 
d="M556 0l-10 51q-36 -28 -93.5 -47t-115.5 -20q-253 0 -253 227v302h157v-282q0 -65 32 -96t102 -31q78 0 161 43v366h157v-513h-137z" />
    <glyph glyph-name="v" unicode="v" horiz-adv-x="698" 
d="M268 0l-260 513h170l175 -368l174 368h163l-260 -513h-162z" />
    <glyph glyph-name="w" unicode="w" horiz-adv-x="1074" 
d="M233 0l-225 513h164l145 -361l133 361h172l136 -361l147 361h161l-225 -513h-169l-137 351l-132 -351h-170z" />
    <glyph glyph-name="x" unicode="x" horiz-adv-x="711" 
d="M13 0l249 257l-241 256h198l140 -155l138 155h193l-244 -251l252 -262h-201l-147 161l-146 -161h-191z" />
    <glyph glyph-name="y" unicode="y" horiz-adv-x="698" 
d="M99 -227q-69 0 -95 13v118q26 -7 63 -7q151 0 195 94l5 10l-259 512h170l175 -368l174 368h163l-267 -529q-60 -119 -128.5 -165t-195.5 -46z" />
    <glyph glyph-name="z" unicode="z" horiz-adv-x="661" 
d="M56 399v114h548v-88l-335 -311h348v-114h-573v89l339 310h-327z" />
    <glyph glyph-name="braceleft" unicode="{" horiz-adv-x="464" 
d="M136 454v161q0 77 47.5 110t134.5 33h90v-83h-59q-40 0 -58 -19t-18 -63v-139q0 -88 -67 -121q67 -31 67 -120v-141q0 -44 18 -63t58 -19h59v-83h-90q-87 0 -134.5 33t-47.5 110v162q0 44 -18 63t-58 19h-26v78h26q40 0 58 19t18 63z" />
    <glyph glyph-name="bar" unicode="|" horiz-adv-x="434" 
d="M160 -211v935h114v-935h-114z" />
    <glyph glyph-name="braceright" unicode="}" horiz-adv-x="464" 
d="M328 615v-161q0 -44 18 -63t58 -19h26v-78h-26q-40 0 -58 -19t-18 -63v-162q0 -77 -47.5 -110t-134.5 -33h-90v83h59q40 0 58 19t18 63v141q0 89 66 120q-66 33 -66 121v139q0 44 -18 63t-58 19h-59v83h90q87 0 134.5 -33t47.5 -110z" />
    <glyph glyph-name="asciitilde" unicode="~" horiz-adv-x="590" 
d="M205 393q37 0 73 -22t63 -44t44 -22q20 0 34 24.5t16 51.5h99q0 -90 -40 -142t-109 -52q-37 0 -73 22t-63 44t-44 22q-20 0 -34 -24.5t-16 -51.5h-99q0 90 40 142t109 52z" />
    <glyph glyph-name="uni00A0" unicode="&#xa0;" horiz-adv-x="341" 
 />
    <glyph glyph-name="exclamdown" unicode="&#xa1;" horiz-adv-x="409" 
d="M254 285l15 -94q18 -108 18 -224v-178h-165v178q0 95 19 223l14 95h99zM289 513v-151h-169v151h169z" />
    <glyph glyph-name="cent" unicode="&#xa2;" horiz-adv-x="846" 
d="M371 -30v109q-134 19 -205.5 91.5t-71.5 192.5q0 116 73 190t204 94v107h122v-101q123 -4 219 -43v-116q-103 46 -233 46q-231 0 -231 -177q0 -176 231 -176q136 0 243 36v-111q-118 -37 -229 -39v-103h-122z" />
    <glyph glyph-name="sterling" unicode="&#xa3;" horiz-adv-x="846" 
d="M682 714v-121q-73 23 -144 23q-75 0 -107 -35t-32 -99v-75h266v-114h-266v-81q0 -63 -39 -94h383v-118h-641v107h19q59 0 90 27.5t31 97.5v61h-110v114h110v82q0 113 66 182t214 69q82 0 160 -26z" />
    <glyph glyph-name="currency" unicode="&#xa4;" horiz-adv-x="846" 
d="M732 361q0 -96 -66 -159l72 -70l-94 -86l-77 96q-62 -22 -144 -22q-81 0 -145 23l-76 -97l-94 86l71 70q-65 62 -65 159q0 96 65 159l-71 70l94 86l76 -97q64 23 145 23q80 0 144 -23l77 97l94 -86l-72 -70q66 -64 66 -159zM587 361q0 63 -43.5 97.5t-120.5 34.5
t-120.5 -34.5t-43.5 -97.5t43.5 -97.5t120.5 -34.5t120.5 34.5t43.5 97.5z" />
    <glyph glyph-name="yen" unicode="&#xa5;" horiz-adv-x="846" 
d="M105 119v114h242v29l-43 59h-199v114h116l-211 289h184l230 -338l232 338h179l-215 -289h119v-114h-203l-38 -52v-36h241v-114h-241v-119h-151v119h-242z" />
    <glyph glyph-name="brokenbar" unicode="&#xa6;" horiz-adv-x="434" 
d="M160 -93v325h114v-325h-114zM160 433v325h114v-325h-114z" />
    <glyph glyph-name="section" unicode="&#xa7;" horiz-adv-x="846" 
d="M471 634q-173 0 -176 -49q-1 -19 24.5 -30t72.5 -18l181 -26q85 -12 131.5 -45t44.5 -86q-1 -37 -34.5 -70t-83.5 -50q80 -43 77 -113q-2 -56 -52.5 -94t-121 -53.5t-153.5 -15.5q-79 0 -150 13t-105 32v103q42 -17 113 -29.5t133 -12.5q175 0 178 49q1 19 -24.5 30
t-72.5 18l-181 26q-85 12 -131.5 45t-44.5 86q1 37 34 69.5t83 49.5q-79 44 -76 114q2 56 52 94t120 53.5t153 15.5q144 0 228 -38v-103q-103 35 -219 35zM514 297q24 -4 36 -7q50 26 51 59q1 23 -22.5 34t-70.5 18l-177 26q-5 0 -11 1t-13.5 2.5t-11.5 2.5q-51 -27 -51 -58
q-1 -23 22.5 -34t70.5 -18z" />
    <glyph glyph-name="dieresis" unicode="&#xa8;" horiz-adv-x="550" 
d="M76 596v128h137v-128h-137zM337 596v128h137v-128h-137z" />
    <glyph glyph-name="copyright" unicode="&#xa9;" horiz-adv-x="952" 
d="M476 67q153 0 232.5 84t79.5 211t-79.5 211t-232.5 84t-232.5 -84t-79.5 -211t79.5 -211t232.5 -84zM476 -16q-193 0 -302.5 107.5t-109.5 270.5t109.5 270.5t302.5 107.5t302.5 -107.5t109.5 -270.5t-109.5 -270.5t-302.5 -107.5zM489 152q-115 0 -175.5 59t-60.5 151
q0 90 61.5 150t174.5 60q72 0 138 -26v-97q-62 29 -132 29q-61 0 -92.5 -30.5t-31.5 -85.5q0 -52 31.5 -84t92.5 -32q70 0 136 24v-94q-72 -24 -142 -24z" />
    <glyph glyph-name="ordfeminine" unicode="&#xaa;" horiz-adv-x="650" 
d="M458 298l-8 41q-70 -54 -188 -54q-90 0 -141.5 34.5t-51.5 97.5q0 76 73 106.5t209 30.5q31 0 91 -2q-2 39 -33 59t-106 20q-94 0 -188 -35v97q85 41 201 41q128 0 191.5 -41.5t63.5 -133.5v-261h-113zM59 83v110h522v-110h-522zM292 373q74 0 150 36v65h-71
q-91 0 -130 -11.5t-39 -40.5q0 -21 22.5 -35t67.5 -14z" />
    <glyph glyph-name="guillemotleft" unicode="&#xab;" horiz-adv-x="734" 
d="M553 114l-199 186l199 186h127l-143 -186l143 -186h-127zM253 114l-199 186l199 186h127l-143 -186l143 -186h-127z" />
    <glyph glyph-name="logicalnot" unicode="&#xac;" horiz-adv-x="690" 
d="M36 238v120h588v-298h-114v178h-474z" />
    <glyph glyph-name="uni00AD" unicode="&#xad;" horiz-adv-x="473" 
d="M60 230v135h353v-135h-353z" />
    <glyph glyph-name="registered" unicode="&#xae;" horiz-adv-x="776" 
d="M388 204q-154 0 -233.5 74t-79.5 194t79.5 194t233.5 74t233.5 -74t79.5 -194t-79.5 -194t-233.5 -74zM388 270q118 0 177 55t59 147t-59 147t-177 55t-177 -55t-59 -147t59 -147t177 -55zM261 337v280h121q132 0 132 -86q0 -58 -63 -77q18 -7 32 -25l71 -92h-95l-64 82
q-11 14 -18 17.5t-28 3.5h-12v-103h-76zM376 560h-39v-65h39q60 0 60 36q0 29 -60 29z" />
    <glyph glyph-name="macron" unicode="&#xaf;" horiz-adv-x="550" 
d="M102 606v108h346v-108h-346z" />
    <glyph glyph-name="degree" unicode="&#xb0;" horiz-adv-x="548" 
d="M68 540q0 82 60.5 141t145.5 59t145.5 -59t60.5 -141q0 -83 -60.5 -141.5t-145.5 -58.5t-145.5 58.5t-60.5 141.5zM170 540q0 -42 31 -73t73 -31t73 31t31 73t-31 73t-73 31t-73 -31t-31 -73z" />
    <glyph glyph-name="plusminus" unicode="&#xb1;" horiz-adv-x="798" 
d="M62 410v120h262v194h150v-194h262v-120h-262v-199h-150v199h-262zM62 0v120h674v-120h-674z" />
    <glyph glyph-name="twosuperior" unicode="&#xb2;" 
d="M72 333v68l150 93q75 49 75 92q0 65 -94 65q-62 0 -111 -22v82q57 23 122 23q90 0 144 -36t54 -108q0 -83 -132 -154l-49 -27h224v-76h-383z" />
    <glyph glyph-name="threesuperior" unicode="&#xb3;" 
d="M238 322q-89 0 -160 27v80q78 -26 150 -26q51 0 77.5 14.5t26.5 38.5q0 48 -106 48h-54v70h54q86 0 86 41q0 38 -86 38q-74 0 -136 -29v80q56 30 147 30q89 0 143.5 -30.5t54.5 -77.5q0 -60 -73 -83q95 -24 95 -94q0 -51 -60 -89t-159 -38z" />
    <glyph glyph-name="acute" unicode="&#xb4;" horiz-adv-x="550" 
d="M131 588l100 158h188l-170 -158h-118z" />
    <glyph glyph-name="mu" unicode="&#xb5;" horiz-adv-x="805" 
d="M98 -211v724h157v-300q0 -48 32 -78.5t102 -30.5q78 0 161 43v366h157v-513h-137l-10 50q-37 -29 -89 -47.5t-102 -18.5q-77 0 -125 22q11 -35 11 -72v-145h-157z" />
    <glyph glyph-name="paragraph" unicode="&#xb6;" horiz-adv-x="840" 
d="M732 724v-935h-137v833h-103v-833h-137v521q-315 0 -315 207t315 207h377z" />
    <glyph glyph-name="periodcentered" unicode="&#xb7;" horiz-adv-x="437" 
d="M128 216v167h181v-167h-181z" />
    <glyph glyph-name="cedilla" unicode="&#xb8;" horiz-adv-x="550" 
d="M250 10h81l-27 -55q69 -23 69 -74q0 -47 -38.5 -72t-91.5 -25q-38 0 -66 8v77q24 -6 52 -6q37 0 37 20q0 28 -68 39z" />
    <glyph glyph-name="onesuperior" unicode="&#xb9;" 
d="M134 620v77l121 27h83v-311h89v-80h-292v80h89v221z" />
    <glyph glyph-name="ordmasculine" unicode="&#xba;" horiz-adv-x="724" 
d="M362 285q-143 0 -218 58t-75 166q0 105 76 165t217 60q143 0 218 -58t75 -167q0 -104 -76 -164t-217 -60zM362 382q73 0 116 34t43 93q0 58 -43 92.5t-116 34.5t-116.5 -34t-43.5 -93q0 -58 43.5 -92.5t116.5 -34.5zM59 83v110h606v-110h-606z" />
    <glyph glyph-name="guillemotright" unicode="&#xbb;" horiz-adv-x="734" 
d="M354 114l143 186l-143 186h127l199 -186l-199 -186h-127zM54 114l143 186l-143 186h127l199 -186l-199 -186h-127z" />
    <glyph glyph-name="onequarter" unicode="&#xbc;" horiz-adv-x="1184" 
d="M180 -30l686 784h138l-686 -784h-138zM952 0v73h-255l1 67l256 251h109v-243h82v-75h-82v-73h-111zM134 620v77l121 27h83v-311h89v-80h-292v80h89v221zM820 148h132v128z" />
    <glyph glyph-name="onehalf" unicode="&#xbd;" horiz-adv-x="1184" 
d="M180 -30l686 784h138l-686 -784h-138zM721 0v68l150 93q75 49 75 92q0 65 -94 65q-62 0 -111 -22v82q57 23 122 23q90 0 144 -36t54 -108q0 -83 -132 -154l-49 -27h224v-76h-383zM134 620v77l121 27h83v-311h89v-80h-292v80h89v221z" />
    <glyph glyph-name="threequarters" unicode="&#xbe;" horiz-adv-x="1184" 
d="M180 -30l686 784h138l-686 -784h-138zM952 0v73h-255l1 67l256 251h109v-243h82v-75h-82v-73h-111zM238 322q-89 0 -160 27v80q78 -26 150 -26q51 0 77.5 14.5t26.5 38.5q0 48 -106 48h-54v70h54q86 0 86 41q0 38 -86 38q-74 0 -136 -29v80q56 30 147 30
q89 0 143.5 -30.5t54.5 -77.5q0 -60 -73 -83q95 -24 95 -94q0 -51 -60 -89t-159 -38zM820 148h132v128z" />
    <glyph glyph-name="questiondown" unicode="&#xbf;" horiz-adv-x="511" 
d="M388 285l12 -120l-144 -77q-100 -53 -100 -115q0 -38 37.5 -58t98.5 -20q54 0 120.5 13.5t113.5 33.5v-122q-116 -47 -245 -47q-132 0 -209.5 48.5t-77.5 139.5q0 41 14 74t44.5 60t54.5 43t68 41l80 45l6 61h127zM406 513v-151h-169v151h169z" />
    <glyph glyph-name="Agrave" unicode="&#xc0;" horiz-adv-x="932" 
d="M2 0l380 724h168l380 -724h-181l-78 150h-413l-77 -150h-179zM465 568l-147 -293h294zM413 772l-170 158h188l100 -158h-118z" />
    <glyph glyph-name="Aacute" unicode="&#xc1;" horiz-adv-x="932" 
d="M2 0l380 724h168l380 -724h-181l-78 150h-413l-77 -150h-179zM465 568l-147 -293h294zM393 772l100 158h188l-170 -158h-118z" />
    <glyph glyph-name="Acircumflex" unicode="&#xc2;" horiz-adv-x="932" 
d="M2 0l380 724h168l380 -724h-181l-78 150h-413l-77 -150h-179zM465 568l-147 -293h294zM260 772l104 158h188l104 -158h-120l-78 78l-78 -78h-120z" />
    <glyph glyph-name="Atilde" unicode="&#xc3;" horiz-adv-x="932" 
d="M2 0l380 724h168l380 -724h-181l-78 150h-413l-77 -150h-179zM538 768q-37 0 -85.5 26.5t-63.5 26.5q-36 0 -41 -49h-89q0 71 31 116.5t88 45.5q37 0 85.5 -26.5t63.5 -26.5q36 0 41 49h89q0 -71 -31 -116.5t-88 -45.5zM465 568l-147 -293h294z" />
    <glyph glyph-name="Adieresis" unicode="&#xc4;" horiz-adv-x="932" 
d="M2 0l380 724h168l380 -724h-181l-78 150h-413l-77 -150h-179zM465 568l-147 -293h294zM259 780v128h137v-128h-137zM520 780v128h137v-128h-137z" />
    <glyph glyph-name="Aring" unicode="&#xc5;" horiz-adv-x="932" 
d="M2 0l380 724h168l380 -724h-181l-78 150h-413l-77 -150h-179zM608 904q0 -59 -41 -99t-102 -40t-102 40t-41 99t41 99t102 40t102 -40t41 -99zM465 568l-147 -293h294zM408 904q0 -26 16 -42.5t41 -16.5t41 16.5t16 42.5t-16 42.5t-41 16.5t-41 -16.5t-16 -42.5z" />
    <glyph glyph-name="AE" unicode="&#xc6;" horiz-adv-x="1280" 
d="M598 0v160h-349l-85 -160h-179l398 724h825v-118h-449v-176h385v-118h-385v-194h453v-118h-614zM486 606l-171 -321h283v321h-112z" />
    <glyph glyph-name="Ccedilla" unicode="&#xc7;" horiz-adv-x="813" 
d="M755 31q-49 -16 -77.5 -23.5t-81.5 -15.5t-113 -8l-14 -29q69 -23 69 -74q0 -47 -38.5 -72t-91.5 -25q-38 0 -66 8v77q24 -6 52 -6q37 0 37 20q0 28 -68 39l39 66q-114 13 -191.5 67t-112 131.5t-34.5 175.5q0 162 106 270t305 108q146 0 269 -53v-127q-126 55 -258 55
q-127 0 -192 -69.5t-65 -183.5q0 -111 63.5 -182t193.5 -71q134 0 269 45v-123z" />
    <glyph glyph-name="Egrave" unicode="&#xc8;" horiz-adv-x="790" 
d="M108 0v724h610v-118h-449v-176h385v-118h-385v-194h453v-118h-614zM371 772l-170 158h188l100 -158h-118z" />
    <glyph glyph-name="Eacute" unicode="&#xc9;" horiz-adv-x="790" 
d="M108 0v724h610v-118h-449v-176h385v-118h-385v-194h453v-118h-614zM351 772l100 158h188l-170 -158h-118z" />
    <glyph glyph-name="Ecircumflex" unicode="&#xca;" horiz-adv-x="790" 
d="M108 0v724h610v-118h-449v-176h385v-118h-385v-194h453v-118h-614zM218 772l104 158h188l104 -158h-120l-78 78l-78 -78h-120z" />
    <glyph glyph-name="Edieresis" unicode="&#xcb;" horiz-adv-x="790" 
d="M108 0v724h610v-118h-449v-176h385v-118h-385v-194h453v-118h-614zM217 780v128h137v-128h-137zM478 780v128h137v-128h-137z" />
    <glyph glyph-name="Igrave" unicode="&#xcc;" horiz-adv-x="551" 
d="M76 606v118h399v-118h-119v-488h119v-118h-399v118h119v488h-119zM230 772l-170 158h188l100 -158h-118z" />
    <glyph glyph-name="Iacute" unicode="&#xcd;" horiz-adv-x="551" 
d="M76 606v118h399v-118h-119v-488h119v-118h-399v118h119v488h-119zM210 772l100 158h188l-170 -158h-118z" />
    <glyph glyph-name="Icircumflex" unicode="&#xce;" horiz-adv-x="551" 
d="M76 606v118h399v-118h-119v-488h119v-118h-399v118h119v488h-119zM77 772l104 158h188l104 -158h-120l-78 78l-78 -78h-120z" />
    <glyph glyph-name="Idieresis" unicode="&#xcf;" horiz-adv-x="551" 
d="M76 606v118h399v-118h-119v-488h119v-118h-399v118h119v488h-119zM337 780v128h137v-128h-137zM76 780v128h137v-128h-137z" />
    <glyph glyph-name="Eth" unicode="&#xd0;" horiz-adv-x="935" 
d="M52 309v108h65v307h352q201 0 301.5 -96t100.5 -259q0 -78 -25 -143.5t-74 -116.5t-129 -80t-184 -29h-342v309h-65zM442 309h-165v-191h159q146 0 208.5 64t62.5 180t-62.5 180t-208.5 64h-159v-189h165v-108z" />
    <glyph glyph-name="Ntilde" unicode="&#xd1;" horiz-adv-x="983" 
d="M108 0v724h188l422 -532v532h157v-724h-188l-422 531v-531h-157zM571 768q-37 0 -85.5 26.5t-63.5 26.5q-36 0 -41 -49h-89q0 71 31 116.5t88 45.5q37 0 85.5 -26.5t63.5 -26.5q36 0 41 49h89q0 -71 -31 -116.5t-88 -45.5z" />
    <glyph glyph-name="Ograve" unicode="&#xd2;" horiz-adv-x="952" 
d="M476 -16q-104 0 -184.5 29.5t-129.5 82t-73.5 120t-24.5 146.5q0 162 106.5 270t305.5 108q104 0 184.5 -29.5t129.5 -82t73.5 -120t24.5 -146.5q0 -162 -106.5 -270t-305.5 -108zM476 111q125 0 185.5 70t60.5 181t-60.5 181t-185.5 70t-185.5 -70t-60.5 -181t60.5 -181
t185.5 -70zM431 772l-170 158h188l100 -158h-118z" />
    <glyph glyph-name="Oacute" unicode="&#xd3;" horiz-adv-x="952" 
d="M476 -16q-104 0 -184.5 29.5t-129.5 82t-73.5 120t-24.5 146.5q0 162 106.5 270t305.5 108q104 0 184.5 -29.5t129.5 -82t73.5 -120t24.5 -146.5q0 -162 -106.5 -270t-305.5 -108zM476 111q125 0 185.5 70t60.5 181t-60.5 181t-185.5 70t-185.5 -70t-60.5 -181t60.5 -181
t185.5 -70zM411 772l100 158h188l-170 -158h-118z" />
    <glyph glyph-name="Ocircumflex" unicode="&#xd4;" horiz-adv-x="952" 
d="M476 -16q-104 0 -184.5 29.5t-129.5 82t-73.5 120t-24.5 146.5q0 162 106.5 270t305.5 108q104 0 184.5 -29.5t129.5 -82t73.5 -120t24.5 -146.5q0 -162 -106.5 -270t-305.5 -108zM476 111q125 0 185.5 70t60.5 181t-60.5 181t-185.5 70t-185.5 -70t-60.5 -181t60.5 -181
t185.5 -70zM278 772l104 158h188l104 -158h-120l-78 78l-78 -78h-120z" />
    <glyph glyph-name="Otilde" unicode="&#xd5;" horiz-adv-x="952" 
d="M476 -16q-104 0 -184.5 29.5t-129.5 82t-73.5 120t-24.5 146.5q0 162 106.5 270t305.5 108q104 0 184.5 -29.5t129.5 -82t73.5 -120t24.5 -146.5q0 -162 -106.5 -270t-305.5 -108zM476 111q125 0 185.5 70t60.5 181t-60.5 181t-185.5 70t-185.5 -70t-60.5 -181t60.5 -181
t185.5 -70zM556 768q-37 0 -85.5 26.5t-63.5 26.5q-36 0 -41 -49h-89q0 71 31 116.5t88 45.5q37 0 85.5 -26.5t63.5 -26.5q36 0 41 49h89q0 -71 -31 -116.5t-88 -45.5z" />
    <glyph glyph-name="Odieresis" unicode="&#xd6;" horiz-adv-x="952" 
d="M476 -16q-104 0 -184.5 29.5t-129.5 82t-73.5 120t-24.5 146.5q0 162 106.5 270t305.5 108q104 0 184.5 -29.5t129.5 -82t73.5 -120t24.5 -146.5q0 -162 -106.5 -270t-305.5 -108zM476 111q125 0 185.5 70t60.5 181t-60.5 181t-185.5 70t-185.5 -70t-60.5 -181t60.5 -181
t185.5 -70zM277 780v128h137v-128h-137zM538 780v128h137v-128h-137z" />
    <glyph glyph-name="multiply" unicode="&#xd7;" horiz-adv-x="798" 
d="M181 49l-100 79l217 170l-217 170l100 79l218 -171l218 171l100 -79l-218 -170l218 -170l-100 -79l-218 170z" />
    <glyph glyph-name="Oslash" unicode="&#xd8;" horiz-adv-x="962" 
d="M481 -16q-151 0 -250 60l-45 -44h-146l113 111q-84 99 -84 251q0 162 106.5 270t305.5 108q148 0 249 -61l46 45h146l-113 -112q84 -99 84 -250q0 -162 -106.5 -270t-305.5 -108zM235 362q0 -79 31 -140l360 354q-60 37 -145 37q-125 0 -185.5 -70t-60.5 -181zM481 111
q125 0 185.5 70t60.5 181q0 80 -31 139l-360 -354q58 -36 145 -36z" />
    <glyph glyph-name="Ugrave" unicode="&#xd9;" horiz-adv-x="916" 
d="M458 -16q-189 0 -276.5 76t-87.5 232v432h160v-424q0 -97 48.5 -143.5t155.5 -46.5t155.5 46.5t48.5 143.5v424h160v-432q0 -308 -364 -308zM413 772l-170 158h188l100 -158h-118z" />
    <glyph glyph-name="Uacute" unicode="&#xda;" horiz-adv-x="916" 
d="M458 -16q-189 0 -276.5 76t-87.5 232v432h160v-424q0 -97 48.5 -143.5t155.5 -46.5t155.5 46.5t48.5 143.5v424h160v-432q0 -308 -364 -308zM393 772l100 158h188l-170 -158h-118z" />
    <glyph glyph-name="Ucircumflex" unicode="&#xdb;" horiz-adv-x="916" 
d="M458 -16q-189 0 -276.5 76t-87.5 232v432h160v-424q0 -97 48.5 -143.5t155.5 -46.5t155.5 46.5t48.5 143.5v424h160v-432q0 -308 -364 -308zM260 772l104 158h188l104 -158h-120l-78 78l-78 -78h-120z" />
    <glyph glyph-name="Udieresis" unicode="&#xdc;" horiz-adv-x="916" 
d="M458 -16q-189 0 -276.5 76t-87.5 232v432h160v-424q0 -97 48.5 -143.5t155.5 -46.5t155.5 46.5t48.5 143.5v424h160v-432q0 -308 -364 -308zM259 780v128h137v-128h-137zM520 780v128h137v-128h-137z" />
    <glyph glyph-name="Yacute" unicode="&#xdd;" horiz-adv-x="821" 
d="M330 0v269l-332 455h191l223 -319l225 319h186l-332 -448v-276h-161zM345 772l100 158h188l-170 -158h-118z" />
    <glyph glyph-name="Thorn" unicode="&#xde;" horiz-adv-x="843" 
d="M119 0v724h160v-120h161q338 0 338 -237q0 -239 -353 -239h-146v-128h-160zM425 486h-146v-240h136q107 0 151.5 28.5t44.5 92.5q0 62 -43 90.5t-143 28.5z" />
    <glyph glyph-name="germandbls" unicode="&#xdf;" horiz-adv-x="841" 
d="M536 -16q-110 0 -186 36v115q84 -34 186 -34q109 0 109 76q0 33 -28.5 54t-86.5 37l-180 51v98l65 16q75 18 108.5 43.5t33.5 65.5q0 38 -38 61.5t-104 23.5q-82 0 -121 -40t-39 -124v-463h-157v475q0 130 87 197.5t230 67.5q139 0 220 -45t81 -131q0 -138 -192 -190
l78 -16q203 -43 203 -187q0 -87 -66.5 -137t-202.5 -50z" />
    <glyph glyph-name="agrave" unicode="&#xe0;" horiz-adv-x="720" 
d="M499 0l-10 52q-81 -68 -217 -68q-105 0 -164 41.5t-59 118.5q0 90 86.5 128t241.5 38q53 0 104 -3q-1 101 -160 101q-115 0 -218 -42v114q98 49 234 49q299 0 299 -211v-318h-137zM309 88q84 0 172 46v81h-80q-104 0 -148 -14.5t-44 -50.5q0 -27 25 -44.5t75 -17.5z
M317 588l-170 158h188l100 -158h-118z" />
    <glyph glyph-name="aacute" unicode="&#xe1;" horiz-adv-x="720" 
d="M499 0l-10 52q-81 -68 -217 -68q-105 0 -164 41.5t-59 118.5q0 90 86.5 128t241.5 38q53 0 104 -3q-1 101 -160 101q-115 0 -218 -42v114q98 49 234 49q299 0 299 -211v-318h-137zM309 88q84 0 172 46v81h-80q-104 0 -148 -14.5t-44 -50.5q0 -27 25 -44.5t75 -17.5z
M297 588l100 158h188l-170 -158h-118z" />
    <glyph glyph-name="acircumflex" unicode="&#xe2;" horiz-adv-x="720" 
d="M499 0l-10 52q-81 -68 -217 -68q-105 0 -164 41.5t-59 118.5q0 90 86.5 128t241.5 38q53 0 104 -3q-1 101 -160 101q-115 0 -218 -42v114q98 49 234 49q299 0 299 -211v-318h-137zM164 588l104 158h188l104 -158h-120l-78 78l-78 -78h-120zM309 88q84 0 172 46v81h-80
q-104 0 -148 -14.5t-44 -50.5q0 -27 25 -44.5t75 -17.5z" />
    <glyph glyph-name="atilde" unicode="&#xe3;" horiz-adv-x="720" 
d="M499 0l-10 52q-81 -68 -217 -68q-105 0 -164 41.5t-59 118.5q0 90 86.5 128t241.5 38q53 0 104 -3q-1 101 -160 101q-115 0 -218 -42v114q98 49 234 49q299 0 299 -211v-318h-137zM442 584q-37 0 -85.5 26.5t-63.5 26.5q-36 0 -41 -49h-89q0 71 31 116.5t88 45.5
q37 0 85.5 -26.5t63.5 -26.5q36 0 41 49h89q0 -71 -31 -116.5t-88 -45.5zM309 88q84 0 172 46v81h-80q-104 0 -148 -14.5t-44 -50.5q0 -27 25 -44.5t75 -17.5z" />
    <glyph glyph-name="adieresis" unicode="&#xe4;" horiz-adv-x="720" 
d="M499 0l-10 52q-81 -68 -217 -68q-105 0 -164 41.5t-59 118.5q0 90 86.5 128t241.5 38q53 0 104 -3q-1 101 -160 101q-115 0 -218 -42v114q98 49 234 49q299 0 299 -211v-318h-137zM309 88q84 0 172 46v81h-80q-104 0 -148 -14.5t-44 -50.5q0 -27 25 -44.5t75 -17.5z
M163 596v128h137v-128h-137zM424 596v128h137v-128h-137z" />
    <glyph glyph-name="aring" unicode="&#xe5;" horiz-adv-x="720" 
d="M499 0l-10 52q-81 -68 -217 -68q-105 0 -164 41.5t-59 118.5q0 90 86.5 128t241.5 38q53 0 104 -3q-1 101 -160 101q-115 0 -218 -42v114q98 49 234 49q299 0 299 -211v-318h-137zM505 720q0 -59 -41 -99t-102 -40t-102 40t-41 99t41 99t102 40t102 -40t41 -99zM309 88
q84 0 172 46v81h-80q-104 0 -148 -14.5t-44 -50.5q0 -27 25 -44.5t75 -17.5zM305 720q0 -26 16 -42.5t41 -16.5t41 16.5t16 42.5t-16 42.5t-41 16.5t-41 -16.5t-16 -42.5z" />
    <glyph glyph-name="ae" unicode="&#xe6;" horiz-adv-x="1153" 
d="M272 -16q-105 0 -164 41.5t-59 118.5q0 90 86.5 128t241.5 38q53 0 104 -3q-2 49 -36.5 75t-123.5 26q-115 0 -218 -42v114q98 49 234 49q167 0 232 -73q79 73 223 73q157 0 236 -73.5t79 -191.5q0 -30 -3 -49h-467q15 -112 186 -112q135 0 238 42v-112
q-44 -22 -115 -35.5t-141 -13.5q-170 0 -256 86q-105 -86 -277 -86zM500 143q-16 34 -20 72h-79q-104 0 -148 -14.5t-44 -50.5q0 -27 25 -44.5t75 -17.5q95 0 191 55zM792 418q-134 0 -153 -108h308q-10 54 -51 81t-104 27z" />
    <glyph glyph-name="ccedilla" unicode="&#xe7;" horiz-adv-x="618" 
d="M568 25q-84 -37 -193 -40l-14 -30q69 -23 69 -74q0 -47 -38.5 -72t-91.5 -25q-38 0 -66 8v77q24 -6 52 -6q37 0 37 20q0 28 -68 39l39 67q-240 30 -240 270q0 123 80 196t234 73q54 0 109 -11.5t87 -30.5v-115q-85 36 -190 36q-78 0 -119 -38.5t-41 -109.5
q0 -73 40.5 -113t116.5 -40q109 0 197 35v-116z" />
    <glyph glyph-name="egrave" unicode="&#xe8;" horiz-adv-x="729" 
d="M680 216h-467q13 -112 186 -112q137 0 238 41v-112q-98 -48 -256 -48q-159 0 -243 74t-84 195q0 117 80 196t234 79q157 0 236 -73.5t79 -191.5q0 -28 -3 -48zM368 418q-131 0 -153 -105h307q-22 105 -154 105zM321 588l-170 158h188l100 -158h-118z" />
    <glyph glyph-name="eacute" unicode="&#xe9;" horiz-adv-x="729" 
d="M680 216h-467q13 -112 186 -112q137 0 238 41v-112q-98 -48 -256 -48q-159 0 -243 74t-84 195q0 117 80 196t234 79q157 0 236 -73.5t79 -191.5q0 -28 -3 -48zM368 418q-131 0 -153 -105h307q-22 105 -154 105zM301 588l100 158h188l-170 -158h-118z" />
    <glyph glyph-name="ecircumflex" unicode="&#xea;" horiz-adv-x="729" 
d="M680 216h-467q13 -112 186 -112q137 0 238 41v-112q-98 -48 -256 -48q-159 0 -243 74t-84 195q0 117 80 196t234 79q157 0 236 -73.5t79 -191.5q0 -28 -3 -48zM168 588l104 158h188l104 -158h-120l-78 78l-78 -78h-120zM368 418q-131 0 -153 -105h307q-22 105 -154 105z
" />
    <glyph glyph-name="edieresis" unicode="&#xeb;" horiz-adv-x="729" 
d="M680 216h-467q13 -112 186 -112q137 0 238 41v-112q-98 -48 -256 -48q-159 0 -243 74t-84 195q0 117 80 196t234 79q157 0 236 -73.5t79 -191.5q0 -28 -3 -48zM368 418q-131 0 -153 -105h307q-22 105 -154 105zM167 596v128h137v-128h-137zM428 596v128h137v-128h-137z
" />
    <glyph glyph-name="igrave" unicode="&#xec;" horiz-adv-x="353" 
d="M98 0v513h157v-513h-157zM131 588l-170 158h188l100 -158h-118z" />
    <glyph glyph-name="iacute" unicode="&#xed;" horiz-adv-x="353" 
d="M98 0v513h157v-513h-157zM111 588l100 158h188l-170 -158h-118z" />
    <glyph glyph-name="icircumflex" unicode="&#xee;" horiz-adv-x="353" 
d="M98 0v513h157v-513h-157zM-22 588l104 158h188l104 -158h-120l-78 78l-78 -78h-120z" />
    <glyph glyph-name="idieresis" unicode="&#xef;" horiz-adv-x="353" 
d="M98 0v513h157v-513h-157zM-23 596v128h137v-128h-137zM238 596v128h137v-128h-137z" />
    <glyph glyph-name="eth" unicode="&#xf0;" horiz-adv-x="794" 
d="M220 510v85l78 30q-58 23 -110 32l27 87q113 -19 219 -67l173 67v-86l-80 -31q213 -137 213 -355q0 -60 -18.5 -109.5t-57 -91t-107 -64.5t-160.5 -23q-343 0 -343 253q0 128 88 191.5t235 63.5q87 0 162 -39q-49 67 -144 124zM397 98q82 0 132 33t50 106t-50.5 107
t-131.5 34t-131.5 -34t-50.5 -107t50 -106t132 -33z" />
    <glyph glyph-name="ntilde" unicode="&#xf1;" horiz-adv-x="803" 
d="M98 0v513h137l9 -51q88 67 217 67q55 0 98.5 -10t81 -34.5t58 -70.5t20.5 -112v-302h-157v282q0 65 -32 96t-102 31q-91 0 -173 -43v-366h-157zM488 584q-37 0 -85.5 26.5t-63.5 26.5q-36 0 -41 -49h-89q0 71 31 116.5t88 45.5q37 0 85.5 -26.5t63.5 -26.5q36 0 41 49h89
q0 -71 -31 -116.5t-88 -45.5z" />
    <glyph glyph-name="ograve" unicode="&#xf2;" horiz-adv-x="794" 
d="M412 -16q-166 0 -254.5 71.5t-88.5 201.5q0 126 89.5 199t253.5 73q166 0 254.5 -71t88.5 -202q0 -126 -89.5 -199t-253.5 -73zM412 99q82 0 132 42.5t50 114.5t-50 115t-132 43t-132 -42.5t-50 -114.5t50 -115t132 -43zM352 588l-170 158h188l100 -158h-118z" />
    <glyph glyph-name="oacute" unicode="&#xf3;" horiz-adv-x="794" 
d="M412 -16q-166 0 -254.5 71.5t-88.5 201.5q0 126 89.5 199t253.5 73q166 0 254.5 -71t88.5 -202q0 -126 -89.5 -199t-253.5 -73zM412 99q82 0 132 42.5t50 114.5t-50 115t-132 43t-132 -42.5t-50 -114.5t50 -115t132 -43zM332 588l100 158h188l-170 -158h-118z" />
    <glyph glyph-name="ocircumflex" unicode="&#xf4;" horiz-adv-x="794" 
d="M412 -16q-166 0 -254.5 71.5t-88.5 201.5q0 126 89.5 199t253.5 73q166 0 254.5 -71t88.5 -202q0 -126 -89.5 -199t-253.5 -73zM412 99q82 0 132 42.5t50 114.5t-50 115t-132 43t-132 -42.5t-50 -114.5t50 -115t132 -43zM199 588l104 158h188l104 -158h-120l-78 78
l-78 -78h-120z" />
    <glyph glyph-name="otilde" unicode="&#xf5;" horiz-adv-x="794" 
d="M412 -16q-166 0 -254.5 71.5t-88.5 201.5q0 126 89.5 199t253.5 73q166 0 254.5 -71t88.5 -202q0 -126 -89.5 -199t-253.5 -73zM412 99q82 0 132 42.5t50 114.5t-50 115t-132 43t-132 -42.5t-50 -114.5t50 -115t132 -43zM477 584q-37 0 -85.5 26.5t-63.5 26.5
q-36 0 -41 -49h-89q0 71 31 116.5t88 45.5q37 0 85.5 -26.5t63.5 -26.5q36 0 41 49h89q0 -71 -31 -116.5t-88 -45.5z" />
    <glyph glyph-name="odieresis" unicode="&#xf6;" horiz-adv-x="794" 
d="M412 -16q-166 0 -254.5 71.5t-88.5 201.5q0 126 89.5 199t253.5 73q166 0 254.5 -71t88.5 -202q0 -126 -89.5 -199t-253.5 -73zM412 99q82 0 132 42.5t50 114.5t-50 115t-132 43t-132 -42.5t-50 -114.5t50 -115t132 -43zM198 596v128h137v-128h-137zM459 596v128h137
v-128h-137z" />
    <glyph glyph-name="divide" unicode="&#xf7;" horiz-adv-x="798" 
d="M62 238v120h674v-120h-674zM309 429v167h181v-167h-181zM309 0v167h181v-167h-181z" />
    <glyph glyph-name="oslash" unicode="&#xf8;" horiz-adv-x="804" 
d="M412 -16q-134 0 -217 47l-38 -31h-137l105 86q-56 67 -56 171q0 126 89.5 199t253.5 73q123 0 205 -41l30 25h137l-94 -77q65 -68 65 -180q0 -126 -89.5 -199t-253.5 -73zM412 99q82 0 132 42.5t50 114.5q0 48 -23 83l-264 -216q43 -24 105 -24zM230 257q0 -41 16 -72
l258 211q-43 18 -92 18q-82 0 -132 -42.5t-50 -114.5z" />
    <glyph glyph-name="ugrave" unicode="&#xf9;" horiz-adv-x="791" 
d="M556 0l-10 51q-36 -28 -93.5 -47t-115.5 -20q-253 0 -253 227v302h157v-282q0 -65 32 -96t102 -31q78 0 161 43v366h157v-513h-137zM343 588l-170 158h188l100 -158h-118z" />
    <glyph glyph-name="uacute" unicode="&#xfa;" horiz-adv-x="791" 
d="M556 0l-10 51q-36 -28 -93.5 -47t-115.5 -20q-253 0 -253 227v302h157v-282q0 -65 32 -96t102 -31q78 0 161 43v366h157v-513h-137zM323 588l100 158h188l-170 -158h-118z" />
    <glyph glyph-name="ucircumflex" unicode="&#xfb;" horiz-adv-x="791" 
d="M556 0l-10 51q-36 -28 -93.5 -47t-115.5 -20q-253 0 -253 227v302h157v-282q0 -65 32 -96t102 -31q78 0 161 43v366h157v-513h-137zM190 588l104 158h188l104 -158h-120l-78 78l-78 -78h-120z" />
    <glyph glyph-name="udieresis" unicode="&#xfc;" horiz-adv-x="791" 
d="M556 0l-10 51q-36 -28 -93.5 -47t-115.5 -20q-253 0 -253 227v302h157v-282q0 -65 32 -96t102 -31q78 0 161 43v366h157v-513h-137zM450 596v128h137v-128h-137zM189 596v128h137v-128h-137z" />
    <glyph glyph-name="yacute" unicode="&#xfd;" horiz-adv-x="698" 
d="M99 -227q-69 0 -95 13v118q26 -7 63 -7q151 0 195 94l5 10l-259 512h170l175 -368l174 368h163l-267 -529q-60 -119 -128.5 -165t-195.5 -46zM278 588l100 158h188l-170 -158h-118z" />
    <glyph glyph-name="thorn" unicode="&#xfe;" horiz-adv-x="808" 
d="M98 -211v935h157v-261q79 66 211 66q136 0 212 -71.5t76 -199.5q0 -126 -76.5 -200t-211.5 -74q-140 0 -211 56v-251h-157zM594 256q0 72 -42 111.5t-121 39.5q-92 0 -176 -42v-218q84 -42 176 -42q79 0 121 39.5t42 111.5z" />
    <glyph glyph-name="ydieresis" unicode="&#xff;" horiz-adv-x="698" 
d="M99 -227q-69 0 -95 13v118q26 -7 63 -7q151 0 195 94l5 10l-259 512h170l175 -368l174 368h163l-267 -529q-60 -119 -128.5 -165t-195.5 -46zM405 596v128h137v-128h-137zM144 596v128h137v-128h-137z" />
    <glyph glyph-name="Amacron" unicode="&#x100;" horiz-adv-x="932" 
d="M2 0l380 724h168l380 -724h-181l-78 150h-413l-77 -150h-179zM465 568l-147 -293h294zM285 790v108h346v-108h-346z" />
    <glyph glyph-name="amacron" unicode="&#x101;" horiz-adv-x="720" 
d="M499 0l-10 52q-81 -68 -217 -68q-105 0 -164 41.5t-59 118.5q0 90 86.5 128t241.5 38q53 0 104 -3q-1 101 -160 101q-115 0 -218 -42v114q98 49 234 49q299 0 299 -211v-318h-137zM189 606v108h346v-108h-346zM309 88q84 0 172 46v81h-80q-104 0 -148 -14.5t-44 -50.5
q0 -27 25 -44.5t75 -17.5z" />
    <glyph glyph-name="Abreve" unicode="&#x102;" horiz-adv-x="932" 
d="M2 0l380 724h168l380 -724h-181l-78 150h-413l-77 -150h-179zM465 568l-147 -293h294zM458 765q-87 0 -134 46t-51 119h97q20 -60 88 -60t88 60h97q-4 -73 -51 -119t-134 -46z" />
    <glyph glyph-name="abreve" unicode="&#x103;" horiz-adv-x="720" 
d="M499 0l-10 52q-81 -68 -217 -68q-105 0 -164 41.5t-59 118.5q0 90 86.5 128t241.5 38q53 0 104 -3q-1 101 -160 101q-115 0 -218 -42v114q98 49 234 49q299 0 299 -211v-318h-137zM362 581q-87 0 -134 46t-51 119h97q20 -60 88 -60t88 60h97q-4 -73 -51 -119t-134 -46z
M309 88q84 0 172 46v81h-80q-104 0 -148 -14.5t-44 -50.5q0 -27 25 -44.5t75 -17.5z" />
    <glyph glyph-name="Aogonek" unicode="&#x104;" horiz-adv-x="932" 
d="M2 0l380 724h168l380 -724h-83q-63 -60 -63 -95q0 -37 48 -37q21 0 45 5v-81q-37 -8 -66 -8q-136 0 -136 94q0 65 74 122l-78 150h-413l-77 -150h-179zM465 568l-147 -293h294z" />
    <glyph glyph-name="aogonek" unicode="&#x105;" horiz-adv-x="720" 
d="M272 -16q-105 0 -164 41.5t-59 118.5q0 90 86.5 128t241.5 38q53 0 104 -3q-1 101 -160 101q-115 0 -218 -42v114q98 49 234 49q299 0 299 -211v-318h-39q-63 -60 -63 -95q0 -37 48 -37q21 0 45 5v-81q-37 -8 -66 -8q-136 0 -136 94q0 65 74 122l-10 52q-81 -68 -217 -68
zM309 88q84 0 172 46v81h-80q-104 0 -148 -14.5t-44 -50.5q0 -27 25 -44.5t75 -17.5z" />
    <glyph glyph-name="Cacute" unicode="&#x106;" horiz-adv-x="813" 
d="M475 -16q-104 0 -184.5 29.5t-129 82t-73 119.5t-24.5 147q0 162 106 270t305 108q146 0 269 -53v-127q-126 55 -258 55q-127 0 -192 -69.5t-65 -183.5q0 -111 63.5 -182t193.5 -71q134 0 269 45v-123q-51 -16 -79 -23.5t-83.5 -15.5t-117.5 -8zM394 772l100 158h188
l-170 -158h-118z" />
    <glyph glyph-name="cacute" unicode="&#x107;" horiz-adv-x="618" 
d="M363 -15q-154 0 -231.5 69.5t-77.5 204.5q0 123 80 196t234 73q54 0 109 -11.5t87 -30.5v-115q-85 36 -190 36q-78 0 -119 -38.5t-41 -109.5q0 -73 40.5 -113t116.5 -40q109 0 197 35v-116q-92 -40 -205 -40zM266 588l100 158h188l-170 -158h-118z" />
    <glyph glyph-name="Ccircumflex" unicode="&#x108;" horiz-adv-x="813" 
d="M475 -16q-104 0 -184.5 29.5t-129 82t-73 119.5t-24.5 147q0 162 106 270t305 108q146 0 269 -53v-127q-126 55 -258 55q-127 0 -192 -69.5t-65 -183.5q0 -111 63.5 -182t193.5 -71q134 0 269 45v-123q-51 -16 -79 -23.5t-83.5 -15.5t-117.5 -8zM261 772l104 158h188
l104 -158h-120l-78 78l-78 -78h-120z" />
    <glyph glyph-name="ccircumflex" unicode="&#x109;" horiz-adv-x="618" 
d="M363 -15q-154 0 -231.5 69.5t-77.5 204.5q0 123 80 196t234 73q54 0 109 -11.5t87 -30.5v-115q-85 36 -190 36q-78 0 -119 -38.5t-41 -109.5q0 -73 40.5 -113t116.5 -40q109 0 197 35v-116q-92 -40 -205 -40zM133 588l104 158h188l104 -158h-120l-78 78l-78 -78h-120z
" />
    <glyph glyph-name="Cdotaccent" unicode="&#x10a;" horiz-adv-x="813" 
d="M475 -16q-104 0 -184.5 29.5t-129 82t-73 119.5t-24.5 147q0 162 106 270t305 108q146 0 269 -53v-127q-126 55 -258 55q-127 0 -192 -69.5t-65 -183.5q0 -111 63.5 -182t193.5 -71q134 0 269 45v-123q-51 -16 -79 -23.5t-83.5 -15.5t-117.5 -8zM381 790v136h157v-136
h-157z" />
    <glyph glyph-name="cdotaccent" unicode="&#x10b;" horiz-adv-x="618" 
d="M363 -15q-154 0 -231.5 69.5t-77.5 204.5q0 123 80 196t234 73q54 0 109 -11.5t87 -30.5v-115q-85 36 -190 36q-78 0 -119 -38.5t-41 -109.5q0 -73 40.5 -113t116.5 -40q109 0 197 35v-116q-92 -40 -205 -40zM253 606v136h157v-136h-157z" />
    <glyph glyph-name="Ccaron" unicode="&#x10c;" horiz-adv-x="813" 
d="M475 -16q-104 0 -184.5 29.5t-129 82t-73 119.5t-24.5 147q0 162 106 270t305 108q146 0 269 -53v-127q-126 55 -258 55q-127 0 -192 -69.5t-65 -183.5q0 -111 63.5 -182t193.5 -71q134 0 269 45v-123q-51 -16 -79 -23.5t-83.5 -15.5t-117.5 -8zM365 772l-104 158h120
l78 -78l78 78h120l-104 -158h-188z" />
    <glyph glyph-name="ccaron" unicode="&#x10d;" horiz-adv-x="618" 
d="M363 -15q-154 0 -231.5 69.5t-77.5 204.5q0 123 80 196t234 73q54 0 109 -11.5t87 -30.5v-115q-85 36 -190 36q-78 0 -119 -38.5t-41 -109.5q0 -73 40.5 -113t116.5 -40q109 0 197 35v-116q-92 -40 -205 -40zM237 588l-104 158h120l78 -78l78 78h120l-104 -158h-188z" />
    <glyph glyph-name="Dcaron" unicode="&#x10e;" horiz-adv-x="926" 
d="M108 0v724h352q201 0 301.5 -96t100.5 -259q0 -78 -25 -143.5t-74 -116.5t-129 -80t-184 -29h-342zM427 606h-159v-488h159q146 0 208.5 64t62.5 180t-62.5 180t-208.5 64zM361 772l-104 158h120l78 -78l78 78h120l-104 -158h-188z" />
    <glyph glyph-name="dcaron" unicode="&#x10f;" horiz-adv-x="848" 
d="M346 -16q-138 0 -215 72t-77 201q0 128 78 200t222 72q122 0 199 -50v245h157v-724h-137l-11 56q-36 -33 -95 -52.5t-121 -19.5zM377 105q95 0 176 42v218q-81 42 -176 42q-79 0 -121 -39t-42 -111q0 -73 42 -112.5t121 -39.5zM781 493l32 125l-31 106h88
q35 0 53.5 -18.5t18.5 -49.5q0 -33 -56 -117l-31 -46h-74z" />
    <glyph glyph-name="Dcroat" unicode="&#x110;" horiz-adv-x="935" 
d="M52 309v108h65v307h352q201 0 301.5 -96t100.5 -259q0 -78 -25 -143.5t-74 -116.5t-129 -80t-184 -29h-342v309h-65zM442 309h-165v-191h159q146 0 208.5 64t62.5 180t-62.5 180t-208.5 64h-159v-189h165v-108z" />
    <glyph glyph-name="dcroat" unicode="&#x111;" horiz-adv-x="808" 
d="M447 572v108h106v44h157v-44h65v-108h-65v-572h-137l-11 56q-36 -33 -95 -52.5t-121 -19.5q-138 0 -215 72t-77 201q0 128 78 200t222 72q122 0 199 -50v93h-106zM377 105q95 0 176 42v218q-81 42 -176 42q-79 0 -121 -39t-42 -111q0 -73 42 -112.5t121 -39.5z" />
    <glyph glyph-name="Emacron" unicode="&#x112;" horiz-adv-x="790" 
d="M108 0v724h610v-118h-449v-176h385v-118h-385v-194h453v-118h-614zM243 790v108h346v-108h-346z" />
    <glyph glyph-name="emacron" unicode="&#x113;" horiz-adv-x="729" 
d="M680 216h-467q13 -112 186 -112q137 0 238 41v-112q-98 -48 -256 -48q-159 0 -243 74t-84 195q0 117 80 196t234 79q157 0 236 -73.5t79 -191.5q0 -28 -3 -48zM193 606v108h346v-108h-346zM368 418q-131 0 -153 -105h307q-22 105 -154 105z" />
    <glyph glyph-name="Ebreve" unicode="&#x114;" horiz-adv-x="790" 
d="M108 0v724h610v-118h-449v-176h385v-118h-385v-194h453v-118h-614zM416 765q-87 0 -134 46t-51 119h97q20 -60 88 -60t88 60h97q-4 -73 -51 -119t-134 -46z" />
    <glyph glyph-name="ebreve" unicode="&#x115;" horiz-adv-x="729" 
d="M680 216h-467q13 -112 186 -112q137 0 238 41v-112q-98 -48 -256 -48q-159 0 -243 74t-84 195q0 117 80 196t234 79q157 0 236 -73.5t79 -191.5q0 -28 -3 -48zM366 581q-87 0 -134 46t-51 119h97q20 -60 88 -60t88 60h97q-4 -73 -51 -119t-134 -46zM368 418
q-131 0 -153 -105h307q-22 105 -154 105z" />
    <glyph glyph-name="Edotaccent" unicode="&#x116;" horiz-adv-x="790" 
d="M108 0v724h610v-118h-449v-176h385v-118h-385v-194h453v-118h-614zM338 790v136h157v-136h-157z" />
    <glyph glyph-name="edotaccent" unicode="&#x117;" horiz-adv-x="729" 
d="M680 216h-467q13 -112 186 -112q137 0 238 41v-112q-98 -48 -256 -48q-159 0 -243 74t-84 195q0 117 80 196t234 79q157 0 236 -73.5t79 -191.5q0 -28 -3 -48zM368 418q-131 0 -153 -105h307q-22 105 -154 105zM288 606v136h157v-136h-157z" />
    <glyph glyph-name="Eogonek" unicode="&#x118;" horiz-adv-x="790" 
d="M108 0v724h610v-118h-449v-176h385v-118h-385v-194h453v-118h-30q-63 -60 -63 -95q0 -37 48 -37q21 0 45 5v-81q-37 -8 -66 -8q-136 0 -136 94q0 66 73 122h-485z" />
    <glyph glyph-name="eogonek" unicode="&#x119;" horiz-adv-x="729" 
d="M430 -122q0 62 74 117q-67 -10 -123 -10q-159 0 -243 74t-84 195q0 117 80 196t234 79q157 0 236 -73.5t79 -191.5q0 -28 -3 -48h-467q13 -112 186 -112q137 0 238 41v-112q-98 -87 -98 -128q0 -37 48 -37q21 0 45 5v-81q-37 -8 -66 -8q-136 0 -136 94zM368 418
q-131 0 -153 -105h307q-22 105 -154 105z" />
    <glyph glyph-name="Ecaron" unicode="&#x11a;" horiz-adv-x="790" 
d="M108 0v724h610v-118h-449v-176h385v-118h-385v-194h453v-118h-614zM322 772l-104 158h120l78 -78l78 78h120l-104 -158h-188z" />
    <glyph glyph-name="ecaron" unicode="&#x11b;" horiz-adv-x="729" 
d="M680 216h-467q13 -112 186 -112q137 0 238 41v-112q-98 -48 -256 -48q-159 0 -243 74t-84 195q0 117 80 196t234 79q157 0 236 -73.5t79 -191.5q0 -28 -3 -48zM272 588l-104 158h120l78 -78l78 78h120l-104 -158h-188zM368 418q-131 0 -153 -105h307q-22 105 -154 105z
" />
    <glyph glyph-name="Gcircumflex" unicode="&#x11c;" horiz-adv-x="926" 
d="M500 -16q-205 0 -320.5 96.5t-115.5 281.5q0 171 113.5 274.5t327.5 103.5q157 0 300 -53v-129q-164 57 -288 57q-288 0 -288 -253q0 -254 286 -254q92 0 174 23v219h161v-311q-165 -55 -350 -55zM299 772l104 158h188l104 -158h-120l-78 78l-78 -78h-120z" />
    <glyph glyph-name="gcircumflex" unicode="&#x11d;" horiz-adv-x="808" 
d="M364 -227q-155 0 -247 32v125q90 -31 226 -31q110 0 160 30t50 99v32q-82 -56 -211 -56q-135 0 -211.5 70t-76.5 193q0 122 76.5 192t217.5 70q60 0 119 -19.5t97 -49.5l22 53h124v-480q0 -260 -346 -260zM377 125q95 0 176 42v198q-81 42 -176 42q-78 0 -120.5 -37.5
t-42.5 -102.5q0 -66 42.5 -104t120.5 -38zM195 588l104 158h188l104 -158h-120l-78 78l-78 -78h-120z" />
    <glyph glyph-name="Gbreve" unicode="&#x11e;" horiz-adv-x="926" 
d="M500 -16q-205 0 -320.5 96.5t-115.5 281.5q0 171 113.5 274.5t327.5 103.5q157 0 300 -53v-129q-164 57 -288 57q-288 0 -288 -253q0 -254 286 -254q92 0 174 23v219h161v-311q-165 -55 -350 -55zM497 765q-87 0 -134 46t-51 119h97q20 -60 88 -60t88 60h97
q-4 -73 -51 -119t-134 -46z" />
    <glyph glyph-name="gbreve" unicode="&#x11f;" horiz-adv-x="808" 
d="M364 -227q-155 0 -247 32v125q90 -31 226 -31q110 0 160 30t50 99v32q-82 -56 -211 -56q-135 0 -211.5 70t-76.5 193q0 122 76.5 192t217.5 70q60 0 119 -19.5t97 -49.5l22 53h124v-480q0 -260 -346 -260zM377 125q95 0 176 42v198q-81 42 -176 42q-78 0 -120.5 -37.5
t-42.5 -102.5q0 -66 42.5 -104t120.5 -38zM393 581q-87 0 -134 46t-51 119h97q20 -60 88 -60t88 60h97q-4 -73 -51 -119t-134 -46z" />
    <glyph glyph-name="Gdotaccent" unicode="&#x120;" horiz-adv-x="926" 
d="M500 -16q-205 0 -320.5 96.5t-115.5 281.5q0 171 113.5 274.5t327.5 103.5q157 0 300 -53v-129q-164 57 -288 57q-288 0 -288 -253q0 -254 286 -254q92 0 174 23v219h161v-311q-165 -55 -350 -55zM419 790v136h157v-136h-157z" />
    <glyph glyph-name="gdotaccent" unicode="&#x121;" horiz-adv-x="808" 
d="M364 -227q-155 0 -247 32v125q90 -31 226 -31q110 0 160 30t50 99v32q-82 -56 -211 -56q-135 0 -211.5 70t-76.5 193q0 122 76.5 192t217.5 70q60 0 119 -19.5t97 -49.5l22 53h124v-480q0 -260 -346 -260zM377 125q95 0 176 42v198q-81 42 -176 42q-78 0 -120.5 -37.5
t-42.5 -102.5q0 -66 42.5 -104t120.5 -38zM315 606v136h157v-136h-157z" />
    <glyph glyph-name="Gcommaaccent" unicode="&#x122;" horiz-adv-x="926" 
d="M500 -16q-205 0 -320.5 96.5t-115.5 281.5q0 171 113.5 274.5t327.5 103.5q157 0 300 -53v-129q-164 57 -288 57q-288 0 -288 -253q0 -254 286 -254q92 0 174 23v219h161v-311q-165 -55 -350 -55zM480 -227l-62 -39l-43 48q67 70 70 73l-30 103h88q35 0 53.5 -18.5
t18.5 -49.5q0 -57 -95 -117z" />
    <glyph glyph-name="gcommaaccent" unicode="&#x123;" horiz-adv-x="808" 
d="M364 -227q-155 0 -247 32v125q90 -31 226 -31q110 0 160 30t50 99v32q-82 -56 -211 -56q-135 0 -211.5 70t-76.5 193q0 122 76.5 192t217.5 70q60 0 119 -19.5t97 -49.5l22 53h124v-480q0 -260 -346 -260zM377 125q95 0 176 42v198q-81 42 -176 42q-78 0 -120.5 -37.5
t-42.5 -102.5q0 -66 42.5 -104t120.5 -38zM461 566h-88q-35 0 -53.5 18.5t-18.5 49.5q0 57 95 117l62 39l43 -48q-49 -49 -70 -73z" />
    <glyph glyph-name="Hcircumflex" unicode="&#x124;" horiz-adv-x="963" 
d="M694 0v304h-425v-304h-161v724h161v-302h425v302h161v-724h-161zM283 772l104 158h188l104 -158h-120l-78 78l-78 -78h-120z" />
    <glyph glyph-name="hcircumflex" unicode="&#x125;" horiz-adv-x="803" 
d="M98 0v724h157v-255q84 60 206 60q55 0 98.5 -10t81 -34.5t58 -70.5t20.5 -112v-302h-157v282q0 65 -32 96t-102 31q-91 0 -173 -43v-366h-157zM-21 772l104 158h188l104 -158h-120l-78 78l-78 -78h-120z" />
    <glyph glyph-name="Hbar" unicode="&#x126;" horiz-adv-x="963" 
d="M52 520v108h56v96h161v-96h425v96h161v-96h56v-108h-56v-520h-161v304h-425v-304h-161v520h-56zM269 520v-98h425v98h-425z" />
    <glyph glyph-name="hbar" unicode="&#x127;" horiz-adv-x="803" 
d="M33 572v108h65v44h157v-44h106v-108h-106v-103q84 60 206 60q55 0 98.5 -10t81 -34.5t58 -70.5t20.5 -112v-302h-157v282q0 65 -32 96t-102 31q-91 0 -173 -43v-366h-157v572h-65z" />
    <glyph glyph-name="Itilde" unicode="&#x128;" horiz-adv-x="551" 
d="M76 606v118h399v-118h-119v-488h119v-118h-399v118h119v488h-119zM355 768q-37 0 -85.5 26.5t-63.5 26.5q-36 0 -41 -49h-89q0 71 31 116.5t88 45.5q37 0 85.5 -26.5t63.5 -26.5q36 0 41 49h89q0 -71 -31 -116.5t-88 -45.5z" />
    <glyph glyph-name="itilde" unicode="&#x129;" horiz-adv-x="353" 
d="M98 0v513h157v-513h-157zM256 584q-37 0 -85.5 26.5t-63.5 26.5q-36 0 -41 -49h-89q0 71 31 116.5t88 45.5q37 0 85.5 -26.5t63.5 -26.5q36 0 41 49h89q0 -71 -31 -116.5t-88 -45.5z" />
    <glyph glyph-name="Imacron" unicode="&#x12a;" horiz-adv-x="551" 
d="M76 606v118h399v-118h-119v-488h119v-118h-399v118h119v488h-119zM102 790v108h346v-108h-346z" />
    <glyph glyph-name="imacron" unicode="&#x12b;" horiz-adv-x="353" 
d="M98 0v513h157v-513h-157zM3 606v108h346v-108h-346z" />
    <glyph glyph-name="Ibreve" unicode="&#x12c;" horiz-adv-x="551" 
d="M76 606v118h399v-118h-119v-488h119v-118h-399v118h119v488h-119zM275 765q-87 0 -134 46t-51 119h97q20 -60 88 -60t88 60h97q-4 -73 -51 -119t-134 -46z" />
    <glyph glyph-name="ibreve" unicode="&#x12d;" horiz-adv-x="353" 
d="M98 0v513h157v-513h-157zM176 581q-87 0 -134 46t-51 119h97q20 -60 88 -60t88 60h97q-4 -73 -51 -119t-134 -46z" />
    <glyph glyph-name="Iogonek" unicode="&#x12e;" horiz-adv-x="551" 
d="M76 606v118h399v-118h-119v-488h119v-118h-128q-63 -60 -63 -95q0 -37 48 -37q21 0 45 5v-81q-37 -8 -66 -8q-136 0 -136 94q0 66 73 122h-172v118h119v488h-119z" />
    <glyph glyph-name="iogonek" unicode="&#x12f;" horiz-adv-x="353" 
d="M98 0v513h157v-513h-27q-63 -60 -63 -95q0 -37 48 -37q21 0 45 5v-81q-37 -8 -66 -8q-136 0 -136 94q0 66 73 122h-31zM98 588v136h157v-136h-157z" />
    <glyph glyph-name="Idotaccent" unicode="&#x130;" horiz-adv-x="551" 
d="M76 606v118h399v-118h-119v-488h119v-118h-399v118h119v488h-119zM197 790v136h157v-136h-157z" />
    <glyph glyph-name="dotlessi" unicode="&#x131;" horiz-adv-x="353" 
d="M98 0v513h157v-513h-157z" />
    <glyph glyph-name="IJ" unicode="&#x132;" horiz-adv-x="1022" 
d="M614 606v118h300v-621q0 -139 -67.5 -199t-211.5 -60q-48 0 -74 8v121q28 -5 66 -5q75 0 100.5 34.5t25.5 118.5v485h-139zM76 606v118h399v-118h-119v-488h119v-118h-399v118h119v488h-119z" />
    <glyph glyph-name="ij" unicode="&#x133;" horiz-adv-x="706" 
d="M98 0v513h157v-513h-157zM98 588v136h157v-136h-157zM335 -225q-47 0 -73 8v119q28 -5 65 -5q74 0 99 34t25 116v466h157v-484q0 -136 -66 -195t-207 -59zM451 588v136h157v-136h-157z" />
    <glyph glyph-name="Jcircumflex" unicode="&#x134;" horiz-adv-x="471" 
d="M63 606v118h300v-621q0 -139 -67.5 -199t-211.5 -60q-48 0 -74 8v121q28 -5 66 -5q75 0 100.5 34.5t25.5 118.5v485h-139zM84 772l104 158h188l104 -158h-120l-78 78l-78 -78h-120z" />
    <glyph glyph-name="jcircumflex" unicode="&#x135;" horiz-adv-x="353" 
d="M-18 -225q-47 0 -73 8v119q28 -5 65 -5q74 0 99 34t25 116v466h157v-484q0 -136 -66 -195t-207 -59zM-22 588l104 158h188l104 -158h-120l-78 78l-78 -78h-120z" />
    <glyph glyph-name="Kcommaaccent" unicode="&#x136;" horiz-adv-x="879" 
d="M108 0v724h161v-312l379 312h215l-437 -351l451 -373h-237l-371 322v-322h-161zM435 -227l-62 -39l-43 48q67 70 70 73l-30 103h88q35 0 53.5 -18.5t18.5 -49.5q0 -57 -95 -117z" />
    <glyph glyph-name="kcommaaccent" unicode="&#x137;" horiz-adv-x="717" 
d="M98 0v724h157v-420l255 209h205l-300 -240l308 -273h-219l-249 235v-235h-157zM363 -227l-62 -39l-43 48q67 70 70 73l-30 103h88q35 0 53.5 -18.5t18.5 -49.5q0 -57 -95 -117z" />
    <glyph glyph-name="Lacute" unicode="&#x139;" horiz-adv-x="694" 
d="M108 0v724h161v-606h393v-118h-554zM124 772l100 158h188l-170 -158h-118z" />
    <glyph glyph-name="lacute" unicode="&#x13a;" horiz-adv-x="422" 
d="M271 -13q-94 0 -136.5 40.5t-42.5 118.5v578h157v-557q0 -31 14.5 -45t59.5 -14q37 0 81 11v-110q-58 -22 -133 -22zM106 772l100 158h188l-170 -158h-118z" />
    <glyph glyph-name="Lcommaaccent" unicode="&#x13b;" horiz-adv-x="694" 
d="M108 0v724h161v-606h393v-118h-554zM368 -227l-62 -39l-43 48q67 70 70 73l-30 103h88q35 0 53.5 -18.5t18.5 -49.5q0 -57 -95 -117z" />
    <glyph glyph-name="lcommaaccent" unicode="&#x13c;" horiz-adv-x="422" 
d="M271 -13q-94 0 -136.5 40.5t-42.5 118.5v578h157v-557q0 -31 14.5 -45t59.5 -14q37 0 81 11v-110q-58 -22 -133 -22zM231 -227l-62 -39l-43 48q67 70 70 73l-30 103h88q35 0 53.5 -18.5t18.5 -49.5q0 -57 -95 -117z" />
    <glyph glyph-name="Lcaron" unicode="&#x13d;" horiz-adv-x="694" 
d="M108 0v724h161v-606h393v-118h-554zM360 493l32 125l-31 106h88q35 0 53.5 -18.5t18.5 -49.5q0 -33 -56 -117l-31 -46h-74z" />
    <glyph glyph-name="lcaron" unicode="&#x13e;" horiz-adv-x="422" 
d="M271 -13q-94 0 -136.5 40.5t-42.5 118.5v578h157v-557q0 -31 14.5 -45t59.5 -14q37 0 81 11v-110q-58 -22 -133 -22zM320 493l32 125l-31 106h88q35 0 53.5 -18.5t18.5 -49.5q0 -33 -56 -117l-31 -46h-74z" />
    <glyph glyph-name="Ldot" unicode="&#x13f;" horiz-adv-x="694" 
d="M108 0v724h161v-606h393v-118h-554zM379 331v136h157v-136h-157z" />
    <glyph glyph-name="ldot" unicode="&#x140;" horiz-adv-x="486" 
d="M271 -13q-94 0 -136.5 40.5t-42.5 118.5v578h157v-557q0 -31 14.5 -45t59.5 -14q37 0 81 11v-110q-58 -22 -133 -22zM329 316v136h157v-136h-157z" />
    <glyph glyph-name="Lslash" unicode="&#x141;" horiz-adv-x="703" 
d="M52 190v118l65 37v379h161v-285l148 86v-118l-148 -86v-203h393v-118h-554v227z" />
    <glyph glyph-name="lslash" unicode="&#x142;" horiz-adv-x="441" 
d="M280 -13q-94 0 -136.5 40.5t-42.5 118.5v72l-49 -28v118l49 28v388h157v-297l118 69v-118l-118 -69v-142q0 -31 14.5 -45t59.5 -14q37 0 81 11v-110q-58 -22 -133 -22z" />
    <glyph glyph-name="Nacute" unicode="&#x143;" horiz-adv-x="983" 
d="M108 0v724h188l422 -532v532h157v-724h-188l-422 531v-531h-157zM426 772l100 158h188l-170 -158h-118z" />
    <glyph glyph-name="nacute" unicode="&#x144;" horiz-adv-x="803" 
d="M98 0v513h137l9 -51q88 67 217 67q55 0 98.5 -10t81 -34.5t58 -70.5t20.5 -112v-302h-157v282q0 65 -32 96t-102 31q-91 0 -173 -43v-366h-157zM343 588l100 158h188l-170 -158h-118z" />
    <glyph glyph-name="Ncommaaccent" unicode="&#x145;" horiz-adv-x="983" 
d="M108 0v724h188l422 -532v532h157v-724h-188l-422 531v-531h-157zM474 -227l-62 -39l-43 48q67 70 70 73l-30 103h88q35 0 53.5 -18.5t18.5 -49.5q0 -57 -95 -117z" />
    <glyph glyph-name="ncommaaccent" unicode="&#x146;" horiz-adv-x="803" 
d="M98 0v513h137l9 -51q88 67 217 67q55 0 98.5 -10t81 -34.5t58 -70.5t20.5 -112v-302h-157v282q0 65 -32 96t-102 31q-91 0 -173 -43v-366h-157zM391 -227l-62 -39l-43 48q67 70 70 73l-30 103h88q35 0 53.5 -18.5t18.5 -49.5q0 -57 -95 -117z" />
    <glyph glyph-name="Ncaron" unicode="&#x147;" horiz-adv-x="983" 
d="M108 0v724h188l422 -532v532h157v-724h-188l-422 531v-531h-157zM397 772l-104 158h120l78 -78l78 78h120l-104 -158h-188z" />
    <glyph glyph-name="ncaron" unicode="&#x148;" horiz-adv-x="803" 
d="M98 0v513h137l9 -51q88 67 217 67q55 0 98.5 -10t81 -34.5t58 -70.5t20.5 -112v-302h-157v282q0 65 -32 96t-102 31q-91 0 -173 -43v-366h-157zM314 588l-104 158h120l78 -78l78 78h120l-104 -158h-188z" />
    <glyph glyph-name="napostrophe" unicode="&#x149;" horiz-adv-x="1053" 
d="M348 0v513h137l9 -51q88 67 217 67q55 0 98.5 -10t81 -34.5t58 -70.5t20.5 -112v-302h-157v282q0 65 -32 96t-102 31q-91 0 -173 -43v-366h-157zM38 441l83 158l-22 125h99q39 0 59.5 -19.5t20.5 -52.5q0 -63 -115 -183l-27 -28h-98z" />
    <glyph glyph-name="Omacron" unicode="&#x14c;" horiz-adv-x="952" 
d="M476 -16q-104 0 -184.5 29.5t-129.5 82t-73.5 120t-24.5 146.5q0 162 106.5 270t305.5 108q104 0 184.5 -29.5t129.5 -82t73.5 -120t24.5 -146.5q0 -162 -106.5 -270t-305.5 -108zM476 111q125 0 185.5 70t60.5 181t-60.5 181t-185.5 70t-185.5 -70t-60.5 -181t60.5 -181
t185.5 -70zM303 790v108h346v-108h-346z" />
    <glyph glyph-name="omacron" unicode="&#x14d;" horiz-adv-x="794" 
d="M397 -16q-166 0 -254.5 71.5t-88.5 201.5q0 126 89.5 199t253.5 73q166 0 254.5 -71t88.5 -202q0 -126 -89.5 -199t-253.5 -73zM397 99q82 0 132 42.5t50 114.5t-50 115t-132 43t-132 -42.5t-50 -114.5t50 -115t132 -43zM224 606v108h346v-108h-346z" />
    <glyph glyph-name="Obreve" unicode="&#x14e;" horiz-adv-x="952" 
d="M476 -16q-104 0 -184.5 29.5t-129.5 82t-73.5 120t-24.5 146.5q0 162 106.5 270t305.5 108q104 0 184.5 -29.5t129.5 -82t73.5 -120t24.5 -146.5q0 -162 -106.5 -270t-305.5 -108zM476 111q125 0 185.5 70t60.5 181t-60.5 181t-185.5 70t-185.5 -70t-60.5 -181t60.5 -181
t185.5 -70zM476 765q-87 0 -134 46t-51 119h97q20 -60 88 -60t88 60h97q-4 -73 -51 -119t-134 -46z" />
    <glyph glyph-name="obreve" unicode="&#x14f;" horiz-adv-x="794" 
d="M412 -16q-166 0 -254.5 71.5t-88.5 201.5q0 126 89.5 199t253.5 73q166 0 254.5 -71t88.5 -202q0 -126 -89.5 -199t-253.5 -73zM412 99q82 0 132 42.5t50 114.5t-50 115t-132 43t-132 -42.5t-50 -114.5t50 -115t132 -43zM397 581q-87 0 -134 46t-51 119h97q20 -60 88 -60
t88 60h97q-4 -73 -51 -119t-134 -46z" />
    <glyph glyph-name="Ohungarumlaut" unicode="&#x150;" horiz-adv-x="952" 
d="M476 -16q-104 0 -184.5 29.5t-129.5 82t-73.5 120t-24.5 146.5q0 162 106.5 270t305.5 108q104 0 184.5 -29.5t129.5 -82t73.5 -120t24.5 -146.5q0 -162 -106.5 -270t-305.5 -108zM476 111q125 0 185.5 70t60.5 181t-60.5 181t-185.5 70t-185.5 -70t-60.5 -181t60.5 -181
t185.5 -70zM297 772l60 158h178l-128 -158h-110zM545 772l60 158h178l-128 -158h-110z" />
    <glyph glyph-name="ohungarumlaut" unicode="&#x151;" horiz-adv-x="794" 
d="M412 -16q-166 0 -254.5 71.5t-88.5 201.5q0 126 89.5 199t253.5 73q166 0 254.5 -71t88.5 -202q0 -126 -89.5 -199t-253.5 -73zM412 99q82 0 132 42.5t50 114.5t-50 115t-132 43t-132 -42.5t-50 -114.5t50 -115t132 -43zM218 588l60 158h178l-128 -158h-110zM466 588
l60 158h178l-128 -158h-110z" />
    <glyph glyph-name="OE" unicode="&#x152;" horiz-adv-x="1319" 
d="M1247 724v-118h-439v-176h375v-118h-375v-194h443v-118h-603q-85 -16 -152 -16q-209 0 -320.5 107t-111.5 271q0 161 114 269.5t318 108.5q67 0 152 -16h599zM496 613q-133 0 -199.5 -70.5t-66.5 -180.5t66.5 -180.5t199.5 -70.5q81 0 152 19v464q-71 19 -152 19z" />
    <glyph glyph-name="oe" unicode="&#x153;" horiz-adv-x="1257" 
d="M397 -16q-168 0 -255.5 71t-87.5 202q0 127 88 199.5t255 72.5q175 0 259 -101q74 101 240 101q157 0 236 -73.5t79 -191.5q0 -28 -3 -48h-467q13 -113 186 -113q135 0 238 42v-112q-44 -22 -115 -35.5t-141 -13.5q-177 0 -254 100q-82 -100 -258 -100zM397 99
q85 0 133.5 42t48.5 115t-48.5 115.5t-133.5 42.5t-133.5 -42t-48.5 -115t48.5 -115.5t133.5 -42.5zM896 418q-131 0 -153 -105h307q-22 105 -154 105z" />
    <glyph glyph-name="Racute" unicode="&#x154;" horiz-adv-x="853" 
d="M108 0v724h307q164 0 251 -55.5t87 -161.5q0 -153 -185 -203q31 -14 65 -53l204 -251h-201l-180 225q-27 34 -48 43t-75 9h-64v-277h-161zM398 606h-129v-212h129q186 0 186 111q0 101 -186 101zM361 772l100 158h188l-170 -158h-118z" />
    <glyph glyph-name="racute" unicode="&#x155;" horiz-adv-x="527" 
d="M98 0v513h143l6 -94q57 108 182 108q44 0 74 -9v-136q-35 8 -86 8q-115 0 -162 -68v-322h-157zM231 588l100 158h188l-170 -158h-118z" />
    <glyph glyph-name="Rcommaaccent" unicode="&#x156;" horiz-adv-x="853" 
d="M108 0v724h307q164 0 251 -55.5t87 -161.5q0 -153 -185 -203q31 -14 65 -53l204 -251h-201l-180 225q-27 34 -48 43t-75 9h-64v-277h-161zM398 606h-129v-212h129q186 0 186 111q0 101 -186 101zM434 -227l-62 -39l-43 48q67 70 70 73l-30 103h88q35 0 53.5 -18.5
t18.5 -49.5q0 -57 -95 -117z" />
    <glyph glyph-name="rcommaaccent" unicode="&#x157;" horiz-adv-x="527" 
d="M98 0v513h143l6 -94q57 108 182 108q44 0 74 -9v-136q-35 8 -86 8q-115 0 -162 -68v-322h-157zM160 -227l-62 -39l-43 48q67 70 70 73l-30 103h88q35 0 53.5 -18.5t18.5 -49.5q0 -57 -95 -117z" />
    <glyph glyph-name="Rcaron" unicode="&#x158;" horiz-adv-x="853" 
d="M108 0v724h307q164 0 251 -55.5t87 -161.5q0 -153 -185 -203q31 -14 65 -53l204 -251h-201l-180 225q-27 34 -48 43t-75 9h-64v-277h-161zM398 606h-129v-212h129q186 0 186 111q0 101 -186 101zM332 772l-104 158h120l78 -78l78 78h120l-104 -158h-188z" />
    <glyph glyph-name="rcaron" unicode="&#x159;" horiz-adv-x="527" 
d="M98 0v513h143l6 -94q57 108 182 108q44 0 74 -9v-136q-35 8 -86 8q-115 0 -162 -68v-322h-157zM202 588l-104 158h120l78 -78l78 78h120l-104 -158h-188z" />
    <glyph glyph-name="Sacute" unicode="&#x15a;" horiz-adv-x="791" 
d="M347 -16q-167 0 -283 47v124q140 -48 276 -48q218 0 218 95q0 34 -43.5 54t-155.5 43q-147 29 -219.5 82t-72.5 140q0 100 86 159.5t266 59.5q157 0 261 -45v-123q-138 44 -261 44q-188 0 -188 -88q0 -34 44.5 -54t157.5 -43q150 -30 221 -81t71 -142q0 -101 -96 -162.5
t-282 -61.5zM342 772l100 158h188l-170 -158h-118z" />
    <glyph glyph-name="sacute" unicode="&#x15b;" horiz-adv-x="646" 
d="M292 -15q-66 0 -131 12.5t-97 29.5v113q36 -15 104.5 -27t123.5 -12q149 0 149 45q0 22 -31.5 32t-114.5 22q-115 16 -172 54t-57 110q0 164 283 164q60 0 125.5 -12.5t93.5 -29.5v-112q-35 15 -101 27t-118 12q-126 0 -126 -44q0 -22 31 -31.5t116 -21.5
q118 -17 173 -53t55 -111q0 -79 -79 -123t-227 -44zM254 588l100 158h188l-170 -158h-118z" />
    <glyph glyph-name="Scircumflex" unicode="&#x15c;" horiz-adv-x="791" 
d="M347 -16q-167 0 -283 47v124q140 -48 276 -48q218 0 218 95q0 34 -43.5 54t-155.5 43q-147 29 -219.5 82t-72.5 140q0 100 86 159.5t266 59.5q157 0 261 -45v-123q-138 44 -261 44q-188 0 -188 -88q0 -34 44.5 -54t157.5 -43q150 -30 221 -81t71 -142q0 -101 -96 -162.5
t-282 -61.5zM209 772l104 158h188l104 -158h-120l-78 78l-78 -78h-120z" />
    <glyph glyph-name="scircumflex" unicode="&#x15d;" horiz-adv-x="646" 
d="M292 -15q-66 0 -131 12.5t-97 29.5v113q36 -15 104.5 -27t123.5 -12q149 0 149 45q0 22 -31.5 32t-114.5 22q-115 16 -172 54t-57 110q0 164 283 164q60 0 125.5 -12.5t93.5 -29.5v-112q-35 15 -101 27t-118 12q-126 0 -126 -44q0 -22 31 -31.5t116 -21.5
q118 -17 173 -53t55 -111q0 -79 -79 -123t-227 -44zM121 588l104 158h188l104 -158h-120l-78 78l-78 -78h-120z" />
    <glyph glyph-name="Scedilla" unicode="&#x15e;" horiz-adv-x="791" 
d="M725 208q0 -94 -84.5 -154.5t-249.5 -68.5l-14 -30q69 -23 69 -74q0 -47 -38.5 -72t-91.5 -25q-38 0 -66 8v77q24 -6 52 -6q37 0 37 20q0 28 -68 39l37 63q-149 6 -244 46v124q140 -48 276 -48q218 0 218 95q0 34 -43.5 54t-155.5 43q-147 29 -219.5 82t-72.5 140
q0 100 86 159.5t266 59.5q157 0 261 -45v-123q-138 44 -261 44q-188 0 -188 -88q0 -34 44.5 -54t157.5 -43q150 -30 221 -81t71 -142z" />
    <glyph glyph-name="scedilla" unicode="&#x15f;" horiz-adv-x="646" 
d="M598 152q0 -71 -64 -114t-185 -51l-15 -32q69 -23 69 -74q0 -47 -38.5 -72t-91.5 -25q-38 0 -66 8v77q24 -6 52 -6q37 0 37 20q0 28 -68 39l37 64q-132 5 -201 41v113q36 -15 104.5 -27t123.5 -12q149 0 149 45q0 22 -31.5 32t-114.5 22q-115 16 -172 54t-57 110
q0 164 283 164q60 0 125.5 -12.5t93.5 -29.5v-112q-35 15 -101 27t-118 12q-126 0 -126 -44q0 -22 31 -31.5t116 -21.5q118 -17 173 -53t55 -111z" />
    <glyph glyph-name="Scaron" unicode="&#x160;" horiz-adv-x="791" 
d="M347 -16q-167 0 -283 47v124q140 -48 276 -48q218 0 218 95q0 34 -43.5 54t-155.5 43q-147 29 -219.5 82t-72.5 140q0 100 86 159.5t266 59.5q157 0 261 -45v-123q-138 44 -261 44q-188 0 -188 -88q0 -34 44.5 -54t157.5 -43q150 -30 221 -81t71 -142q0 -101 -96 -162.5
t-282 -61.5zM313 772l-104 158h120l78 -78l78 78h120l-104 -158h-188z" />
    <glyph glyph-name="scaron" unicode="&#x161;" horiz-adv-x="646" 
d="M292 -15q-66 0 -131 12.5t-97 29.5v113q36 -15 104.5 -27t123.5 -12q149 0 149 45q0 22 -31.5 32t-114.5 22q-115 16 -172 54t-57 110q0 164 283 164q60 0 125.5 -12.5t93.5 -29.5v-112q-35 15 -101 27t-118 12q-126 0 -126 -44q0 -22 31 -31.5t116 -21.5
q118 -17 173 -53t55 -111q0 -79 -79 -123t-227 -44zM230 588l-104 158h120l78 -78l78 78h120l-104 -158h-188z" />
    <glyph glyph-name="Tcommaaccent" unicode="&#x162;" horiz-adv-x="758" 
d="M32 606v118h694v-118h-267v-606h-161v606h-266zM362 -227l-62 -39l-43 48q67 70 70 73l-30 103h88q35 0 53.5 -18.5t18.5 -49.5q0 -57 -95 -117z" />
    <glyph glyph-name="tcommaaccent" unicode="&#x163;" horiz-adv-x="570" 
d="M28 399v114h120l16 128h133v-128h233v-114h-233v-201q0 -48 22 -67.5t78 -19.5q79 0 137 18v-114q-75 -27 -169 -27q-223 0 -223 192v219h-114zM324 -227l-62 -39l-43 48q67 70 70 73l-30 103h88q35 0 53.5 -18.5t18.5 -49.5q0 -57 -95 -117z" />
    <glyph glyph-name="Tcaron" unicode="&#x164;" horiz-adv-x="758" 
d="M32 606v118h694v-118h-267v-606h-161v606h-266zM283 772l-104 158h120l78 -78l78 78h120l-104 -158h-188z" />
    <glyph glyph-name="tcaron" unicode="&#x165;" horiz-adv-x="570" 
d="M28 399v114h120l16 128h133v-128h233v-114h-233v-201q0 -48 22 -67.5t78 -19.5q79 0 137 18v-114q-75 -27 -169 -27q-223 0 -223 192v219h-114zM388 583l32 125l-31 106h88q35 0 53.5 -18.5t18.5 -49.5q0 -33 -56 -117l-31 -46h-74z" />
    <glyph glyph-name="Tbar" unicode="&#x166;" horiz-adv-x="758" 
d="M32 606v118h694v-118h-267v-217h139v-108h-139v-281h-161v281h-138v108h138v217h-266z" />
    <glyph glyph-name="tbar" unicode="&#x167;" horiz-adv-x="591" 
d="M35 399v114h120l16 128h133v-128h233v-114h-233v-83h150v-103h-150v-15q0 -48 22 -67.5t78 -19.5q79 0 137 18v-114q-75 -27 -169 -27q-223 0 -223 192v33h-63v103h63v83h-114z" />
    <glyph glyph-name="Utilde" unicode="&#x168;" horiz-adv-x="916" 
d="M458 -16q-189 0 -276.5 76t-87.5 232v432h160v-424q0 -97 48.5 -143.5t155.5 -46.5t155.5 46.5t48.5 143.5v424h160v-432q0 -308 -364 -308zM538 768q-37 0 -85.5 26.5t-63.5 26.5q-36 0 -41 -49h-89q0 71 31 116.5t88 45.5q37 0 85.5 -26.5t63.5 -26.5q36 0 41 49h89
q0 -71 -31 -116.5t-88 -45.5z" />
    <glyph glyph-name="utilde" unicode="&#x169;" horiz-adv-x="791" 
d="M556 0l-10 51q-36 -28 -93.5 -47t-115.5 -20q-253 0 -253 227v302h157v-282q0 -65 32 -96t102 -31q78 0 161 43v366h157v-513h-137zM468 584q-37 0 -85.5 26.5t-63.5 26.5q-36 0 -41 -49h-89q0 71 31 116.5t88 45.5q37 0 85.5 -26.5t63.5 -26.5q36 0 41 49h89
q0 -71 -31 -116.5t-88 -45.5z" />
    <glyph glyph-name="Umacron" unicode="&#x16a;" horiz-adv-x="916" 
d="M458 -16q-189 0 -276.5 76t-87.5 232v432h160v-424q0 -97 48.5 -143.5t155.5 -46.5t155.5 46.5t48.5 143.5v424h160v-432q0 -308 -364 -308zM285 790v108h346v-108h-346z" />
    <glyph glyph-name="umacron" unicode="&#x16b;" horiz-adv-x="791" 
d="M556 0l-10 51q-36 -28 -93.5 -47t-115.5 -20q-253 0 -253 227v302h157v-282q0 -65 32 -96t102 -31q78 0 161 43v366h157v-513h-137zM215 606v108h346v-108h-346z" />
    <glyph glyph-name="Ubreve" unicode="&#x16c;" horiz-adv-x="916" 
d="M458 -16q-189 0 -276.5 76t-87.5 232v432h160v-424q0 -97 48.5 -143.5t155.5 -46.5t155.5 46.5t48.5 143.5v424h160v-432q0 -308 -364 -308zM458 765q-87 0 -134 46t-51 119h97q20 -60 88 -60t88 60h97q-4 -73 -51 -119t-134 -46z" />
    <glyph glyph-name="ubreve" unicode="&#x16d;" horiz-adv-x="791" 
d="M556 0l-10 51q-36 -28 -93.5 -47t-115.5 -20q-253 0 -253 227v302h157v-282q0 -65 32 -96t102 -31q78 0 161 43v366h157v-513h-137zM388 581q-87 0 -134 46t-51 119h97q20 -60 88 -60t88 60h97q-4 -73 -51 -119t-134 -46z" />
    <glyph glyph-name="Uring" unicode="&#x16e;" horiz-adv-x="916" 
d="M458 -16q-189 0 -276.5 76t-87.5 232v432h160v-424q0 -97 48.5 -143.5t155.5 -46.5t155.5 46.5t48.5 143.5v424h160v-432q0 -308 -364 -308zM401 904q0 -26 16 -42.5t41 -16.5t41 16.5t16 42.5t-16 42.5t-41 16.5t-41 -16.5t-16 -42.5zM601 904q0 -59 -41 -99t-102 -40
t-102 40t-41 99t41 99t102 40t102 -40t41 -99z" />
    <glyph glyph-name="uring" unicode="&#x16f;" horiz-adv-x="791" 
d="M556 0l-10 51q-36 -28 -93.5 -47t-115.5 -20q-253 0 -253 227v302h157v-282q0 -65 32 -96t102 -31q78 0 161 43v366h157v-513h-137zM531 720q0 -59 -41 -99t-102 -40t-102 40t-41 99t41 99t102 40t102 -40t41 -99zM331 720q0 -26 16 -42.5t41 -16.5t41 16.5t16 42.5
t-16 42.5t-41 16.5t-41 -16.5t-16 -42.5z" />
    <glyph glyph-name="Uhungarumlaut" unicode="&#x170;" horiz-adv-x="916" 
d="M458 -16q-189 0 -276.5 76t-87.5 232v432h160v-424q0 -97 48.5 -143.5t155.5 -46.5t155.5 46.5t48.5 143.5v424h160v-432q0 -308 -364 -308zM279 772l60 158h178l-128 -158h-110zM527 772l60 158h178l-128 -158h-110z" />
    <glyph glyph-name="uhungarumlaut" unicode="&#x171;" horiz-adv-x="791" 
d="M556 0l-10 51q-36 -28 -93.5 -47t-115.5 -20q-253 0 -253 227v302h157v-282q0 -65 32 -96t102 -31q78 0 161 43v366h157v-513h-137zM457 588l60 158h178l-128 -158h-110zM209 588l60 158h178l-128 -158h-110z" />
    <glyph glyph-name="Uogonek" unicode="&#x172;" horiz-adv-x="916" 
d="M355 -125q0 66 63 110q-168 8 -246 84t-78 223v432h160v-424q0 -97 48.5 -143.5t155.5 -46.5t155.5 46.5t48.5 143.5v424h160v-432q0 -70 -17 -121.5t-51 -85t-73.5 -54t-96.5 -36.5q-54 -15 -87 -39.5t-33 -50.5q0 -37 48 -37q21 0 45 5v-81q-37 -8 -66 -8
q-136 0 -136 91z" />
    <glyph glyph-name="uogonek" unicode="&#x173;" horiz-adv-x="791" 
d="M337 -16q-253 0 -253 227v302h157v-282q0 -65 32 -96t102 -31q78 0 161 43v366h157v-513h-39q-63 -60 -63 -95q0 -37 48 -37q21 0 45 5v-81q-37 -8 -66 -8q-136 0 -136 94q0 65 74 122l-10 51q-36 -28 -93.5 -47t-115.5 -20z" />
    <glyph glyph-name="Wcircumflex" unicode="&#x174;" horiz-adv-x="1421" 
d="M315 0l-309 724h181l215 -546l226 546h176l225 -546l217 546h169l-311 -724h-160l-234 564l-235 -564h-160zM512 772l104 158h188l104 -158h-120l-78 78l-78 -78h-120z" />
    <glyph glyph-name="wcircumflex" unicode="&#x175;" horiz-adv-x="1074" 
d="M233 0l-225 513h164l145 -361l133 361h172l136 -361l147 361h161l-225 -513h-169l-137 351l-132 -351h-170zM339 588l104 158h188l104 -158h-120l-78 78l-78 -78h-120z" />
    <glyph glyph-name="Ycircumflex" unicode="&#x176;" horiz-adv-x="821" 
d="M330 0v269l-332 455h191l223 -319l225 319h186l-332 -448v-276h-161zM212 772l104 158h188l104 -158h-120l-78 78l-78 -78h-120z" />
    <glyph glyph-name="ycircumflex" unicode="&#x177;" horiz-adv-x="698" 
d="M99 -227q-69 0 -95 13v118q26 -7 63 -7q151 0 195 94l5 10l-259 512h170l175 -368l174 368h163l-267 -529q-60 -119 -128.5 -165t-195.5 -46zM145 588l104 158h188l104 -158h-120l-78 78l-78 -78h-120z" />
    <glyph glyph-name="Ydieresis" unicode="&#x178;" horiz-adv-x="821" 
d="M330 0v269l-332 455h191l223 -319l225 319h186l-332 -448v-276h-161zM211 780v128h137v-128h-137zM472 780v128h137v-128h-137z" />
    <glyph glyph-name="Zacute" unicode="&#x179;" horiz-adv-x="834" 
d="M54 0v104l497 502h-483v118h692v-103l-499 -503h519v-118h-726zM332 772l100 158h188l-170 -158h-118z" />
    <glyph glyph-name="zacute" unicode="&#x17a;" horiz-adv-x="661" 
d="M56 399v114h548v-88l-335 -311h348v-114h-573v89l339 310h-327zM265 588l100 158h188l-170 -158h-118z" />
    <glyph glyph-name="Zdotaccent" unicode="&#x17b;" horiz-adv-x="834" 
d="M54 0v104l497 502h-483v118h692v-103l-499 -503h519v-118h-726zM319 790v136h157v-136h-157z" />
    <glyph glyph-name="zdotaccent" unicode="&#x17c;" horiz-adv-x="661" 
d="M56 399v114h548v-88l-335 -311h348v-114h-573v89l339 310h-327zM252 606v136h157v-136h-157z" />
    <glyph glyph-name="Zcaron" unicode="&#x17d;" horiz-adv-x="834" 
d="M54 0v104l497 502h-483v118h692v-103l-499 -503h519v-118h-726zM303 772l-104 158h120l78 -78l78 78h120l-104 -158h-188z" />
    <glyph glyph-name="zcaron" unicode="&#x17e;" horiz-adv-x="661" 
d="M56 399v114h548v-88l-335 -311h348v-114h-573v89l339 310h-327zM236 588l-104 158h120l78 -78l78 78h120l-104 -158h-188z" />
    <glyph glyph-name="florin" unicode="&#x192;" horiz-adv-x="846" 
d="M115 323l18 114h201l8 47q40 256 280 256q33 0 82 -9t72 -19l-18 -118q-62 22 -122 22q-66 0 -97.5 -36.5t-42.5 -108.5l-5 -34h244l-18 -114h-244l-23 -152q-22 -142 -98.5 -209t-223.5 -67q-47 0 -79 9l19 119q18 -4 46 -4q86 0 127 38.5t55 129.5l21 136h-202z" />
    <glyph glyph-name="Scommaaccent" unicode="&#x218;" horiz-adv-x="791" 
d="M347 -16q-167 0 -283 47v124q140 -48 276 -48q218 0 218 95q0 34 -43.5 54t-155.5 43q-147 29 -219.5 82t-72.5 140q0 100 86 159.5t266 59.5q157 0 261 -45v-123q-138 44 -261 44q-188 0 -188 -88q0 -34 44.5 -54t157.5 -43q150 -30 221 -81t71 -142q0 -101 -96 -162.5
t-282 -61.5zM366 -227l-62 -39l-43 48q67 70 70 73l-30 103h88q35 0 53.5 -18.5t18.5 -49.5q0 -57 -95 -117z" />
    <glyph glyph-name="scommaaccent" unicode="&#x219;" horiz-adv-x="646" 
d="M292 -15q-66 0 -131 12.5t-97 29.5v113q36 -15 104.5 -27t123.5 -12q149 0 149 45q0 22 -31.5 32t-114.5 22q-115 16 -172 54t-57 110q0 164 283 164q60 0 125.5 -12.5t93.5 -29.5v-112q-35 15 -101 27t-118 12q-126 0 -126 -44q0 -22 31 -31.5t116 -21.5
q118 -17 173 -53t55 -111q0 -79 -79 -123t-227 -44zM307 -227l-62 -39l-43 48q67 70 70 73l-30 103h88q35 0 53.5 -18.5t18.5 -49.5q0 -57 -95 -117z" />
    <glyph glyph-name="uni021A" unicode="&#x21a;" horiz-adv-x="758" 
d="M32 606v118h694v-118h-267v-606h-161v606h-266zM362 -227l-62 -39l-43 48q67 70 70 73l-30 103h88q35 0 53.5 -18.5t18.5 -49.5q0 -57 -95 -117z" />
    <glyph glyph-name="uni021B" unicode="&#x21b;" horiz-adv-x="570" 
d="M28 399v114h120l16 128h133v-128h233v-114h-233v-201q0 -48 22 -67.5t78 -19.5q79 0 137 18v-114q-75 -27 -169 -27q-223 0 -223 192v219h-114zM324 -227l-62 -39l-43 48q67 70 70 73l-30 103h88q35 0 53.5 -18.5t18.5 -49.5q0 -57 -95 -117z" />
    <glyph glyph-name="dotlessj" unicode="&#x237;" horiz-adv-x="353" 
d="M-18 -225q-47 0 -73 8v119q28 -5 65 -5q74 0 99 34t25 116v466h157v-484q0 -136 -66 -195t-207 -59z" />
    <glyph glyph-name="circumflex" unicode="&#x2c6;" horiz-adv-x="550" 
d="M77 588l104 158h188l104 -158h-120l-78 78l-78 -78h-120z" />
    <glyph glyph-name="caron" unicode="&#x2c7;" horiz-adv-x="550" 
d="M181 588l-104 158h120l78 -78l78 78h120l-104 -158h-188z" />
    <glyph glyph-name="breve" unicode="&#x2d8;" horiz-adv-x="550" 
d="M275 581q-87 0 -134 46t-51 119h97q20 -60 88 -60t88 60h97q-4 -73 -51 -119t-134 -46z" />
    <glyph glyph-name="dotaccent" unicode="&#x2d9;" horiz-adv-x="550" 
d="M196 606v136h157v-136h-157z" />
    <glyph glyph-name="ring" unicode="&#x2da;" horiz-adv-x="550" 
d="M218 720q0 -26 16 -42.5t41 -16.5t41 16.5t16 42.5t-16 42.5t-41 16.5t-41 -16.5t-16 -42.5zM418 720q0 -59 -41 -99t-102 -40t-102 40t-41 99t41 99t102 40t102 -40t41 -99z" />
    <glyph glyph-name="ogonek" unicode="&#x2db;" horiz-adv-x="550" 
d="M261 10h96q-74 -67 -74 -105q0 -37 48 -37q21 0 45 5v-81q-37 -8 -66 -8q-136 0 -136 94q0 69 87 132z" />
    <glyph glyph-name="tilde" unicode="&#x2dc;" horiz-adv-x="550" 
d="M355 584q-37 0 -85.5 26.5t-63.5 26.5q-36 0 -41 -49h-89q0 71 31 116.5t88 45.5q37 0 85.5 -26.5t63.5 -26.5q36 0 41 49h89q0 -71 -31 -116.5t-88 -45.5z" />
    <glyph glyph-name="hungarumlaut" unicode="&#x2dd;" horiz-adv-x="550" 
d="M32 588l60 158h178l-128 -158h-110zM280 588l60 158h178l-128 -158h-110z" />
    <glyph glyph-name="pi" unicode="&#x3c0;" horiz-adv-x="826" 
d="M15 399v114h756v-114h-97v-243q0 -29 12 -40.5t52 -11.5q15 0 33 3v-105q-38 -15 -105 -15q-84 0 -116.5 37.5t-32.5 116.5v258h-247v-399h-157v399h-98z" />
    <glyph glyph-name="Wgrave" unicode="&#x1e80;" horiz-adv-x="1421" 
d="M315 0l-309 724h181l215 -546l226 546h176l225 -546l217 546h169l-311 -724h-160l-234 564l-235 -564h-160zM665 772l-170 158h188l100 -158h-118z" />
    <glyph glyph-name="wgrave" unicode="&#x1e81;" horiz-adv-x="1074" 
d="M233 0l-225 513h164l145 -361l133 361h172l136 -361l147 361h161l-225 -513h-169l-137 351l-132 -351h-170zM492 588l-170 158h188l100 -158h-118z" />
    <glyph glyph-name="Wacute" unicode="&#x1e82;" horiz-adv-x="1421" 
d="M315 0l-309 724h181l215 -546l226 546h176l225 -546l217 546h169l-311 -724h-160l-234 564l-235 -564h-160zM645 772l100 158h188l-170 -158h-118z" />
    <glyph glyph-name="wacute" unicode="&#x1e83;" horiz-adv-x="1074" 
d="M233 0l-225 513h164l145 -361l133 361h172l136 -361l147 361h161l-225 -513h-169l-137 351l-132 -351h-170zM472 588l100 158h188l-170 -158h-118z" />
    <glyph glyph-name="Wdieresis" unicode="&#x1e84;" horiz-adv-x="1421" 
d="M315 0l-309 724h181l215 -546l226 546h176l225 -546l217 546h169l-311 -724h-160l-234 564l-235 -564h-160zM511 780v128h137v-128h-137zM772 780v128h137v-128h-137z" />
    <glyph glyph-name="wdieresis" unicode="&#x1e85;" horiz-adv-x="1074" 
d="M233 0l-225 513h164l145 -361l133 361h172l136 -361l147 361h161l-225 -513h-169l-137 351l-132 -351h-170zM338 596v128h137v-128h-137zM599 596v128h137v-128h-137z" />
    <glyph glyph-name="Ygrave" unicode="&#x1ef2;" horiz-adv-x="821" 
d="M330 0v269l-332 455h191l223 -319l225 319h186l-332 -448v-276h-161zM365 772l-170 158h188l100 -158h-118z" />
    <glyph glyph-name="ygrave" unicode="&#x1ef3;" horiz-adv-x="698" 
d="M99 -227q-69 0 -95 13v118q26 -7 63 -7q151 0 195 94l5 10l-259 512h170l175 -368l174 368h163l-267 -529q-60 -119 -128.5 -165t-195.5 -46zM298 588l-170 158h188l100 -158h-118z" />
    <glyph glyph-name="endash" unicode="&#x2013;" horiz-adv-x="690" 
d="M36 238v120h618v-120h-618z" />
    <glyph glyph-name="emdash" unicode="&#x2014;" horiz-adv-x="1000" 
d="M36 238v120h928v-120h-928z" />
    <glyph glyph-name="quoteleft" unicode="&#x2018;" horiz-adv-x="340" 
d="M302 718l-84 -159l23 -124h-99q-39 0 -59.5 19.5t-20.5 52.5q0 63 115 183l27 28h98z" />
    <glyph glyph-name="quoteright" unicode="&#x2019;" horiz-adv-x="340" 
d="M38 441l83 158l-22 125h99q39 0 59.5 -19.5t20.5 -52.5q0 -63 -115 -183l-27 -28h-98z" />
    <glyph glyph-name="quotesinglbase" unicode="&#x201a;" horiz-adv-x="340" 
d="M38 -175l83 159l-22 124h99q39 0 59.5 -19.5t20.5 -52.5q0 -63 -115 -183l-27 -28h-98z" />
    <glyph glyph-name="quotedblleft" unicode="&#x201c;" horiz-adv-x="612" 
d="M302 718l-84 -159l23 -124h-99q-39 0 -59.5 19.5t-20.5 52.5q0 63 115 183l27 28h98zM574 718l-84 -159l23 -124h-99q-39 0 -59.5 19.5t-20.5 52.5q0 63 115 183l27 28h98z" />
    <glyph glyph-name="quotedblright" unicode="&#x201d;" horiz-adv-x="612" 
d="M38 441l83 158l-22 125h99q39 0 59.5 -19.5t20.5 -52.5q0 -63 -115 -183l-27 -28h-98zM310 441l83 158l-22 125h99q39 0 59.5 -19.5t20.5 -52.5q0 -63 -115 -183l-27 -28h-98z" />
    <glyph glyph-name="quotedblbase" unicode="&#x201e;" horiz-adv-x="612" 
d="M38 -175l83 159l-22 124h99q39 0 59.5 -19.5t20.5 -52.5q0 -63 -115 -183l-27 -28h-98zM310 -175l83 159l-22 124h99q39 0 59.5 -19.5t20.5 -52.5q0 -63 -115 -183l-27 -28h-98z" />
    <glyph glyph-name="dagger" unicode="&#x2020;" horiz-adv-x="581" 
d="M80 490v98h167q-13 40 -13 92v44h113v-44q0 -48 -14 -92h168v-98h-168q14 -44 14 -92v-141h-113v141q0 52 13 92h-167z" />
    <glyph glyph-name="daggerdbl" unicode="&#x2021;" horiz-adv-x="581" 
d="M80 494v98h167q-13 40 -13 92v40h113v-40q0 -48 -14 -92h168v-98h-157v-116h157v-98h-168q14 -44 14 -92v-40h-113v40q0 52 13 92h-167v98h157v116h-157z" />
    <glyph glyph-name="bullet" unicode="&#x2022;" horiz-adv-x="620" 
d="M108 94v536l464 -268z" />
    <glyph glyph-name="ellipsis" unicode="&#x2026;" horiz-adv-x="1119" 
d="M106 0v167h181v-167h-181zM469 0v167h181v-167h-181zM832 0v167h181v-167h-181z" />
    <glyph glyph-name="perthousand" unicode="&#x2030;" horiz-adv-x="1791" 
d="M238 0l631 724h154l-631 -724h-154zM311 421q48 0 72 31t24 79t-24 79t-72 31t-72 -31t-24 -79t24 -79t72 -31zM311 322q-109 0 -170 56t-61 153q0 95 62.5 152t168.5 57q109 0 170 -56t61 -153q0 -95 -62.5 -152t-168.5 -57zM952 83q48 0 72 31t24 79t-24 79t-72 31
t-72 -31t-24 -79t24 -79t72 -31zM952 -16q-109 0 -170 56t-61 153q0 95 62.5 152t168.5 57q109 0 170 -56t61 -153q0 -95 -62.5 -152t-168.5 -57zM1480 83q48 0 72 31t24 79t-24 79t-72 31t-72 -31t-24 -79t24 -79t72 -31zM1480 -16q-109 0 -170 56t-61 153q0 95 62.5 152
t168.5 57q109 0 170 -56t61 -153q0 -95 -62.5 -152t-168.5 -57z" />
    <glyph glyph-name="guilsinglleft" unicode="&#x2039;" horiz-adv-x="434" 
d="M253 114l-199 186l199 186h127l-143 -186l143 -186h-127z" />
    <glyph glyph-name="guilsinglright" unicode="&#x203a;" horiz-adv-x="434" 
d="M54 114l143 186l-143 186h127l199 -186l-199 -186h-127z" />
    <glyph glyph-name="fraction" unicode="&#x2044;" horiz-adv-x="114" 
d="M-355 -30l686 784h138l-686 -784h-138z" />
    <glyph glyph-name="uni2070" unicode="&#x2070;" 
d="M267 408q52 0 75.5 30t23.5 90t-23.5 90t-75.5 30t-75.5 -30t-23.5 -90t23.5 -90t75.5 -30zM267 322q-59 0 -103 17t-68.5 46.5t-36 64.5t-11.5 75q0 88 52.5 148.5t166.5 60.5q59 0 103 -17t68.5 -46.5t36 -64.5t11.5 -75q0 -88 -52.5 -148.5t-166.5 -60.5z" />
    <glyph glyph-name="uni2074" unicode="&#x2074;" 
d="M303 333v73h-255l1 67l256 251h109v-243h82v-75h-82v-73h-111zM171 481h132v128z" />
    <glyph glyph-name="uni2075" unicode="&#x2075;" 
d="M246 322q-93 0 -161 28v79q76 -26 151 -26q55 0 80.5 14t25.5 34q0 33 -73.5 47t-174.5 14l7 212h340v-78h-231l-2 -60q256 -14 256 -131q0 -58 -54.5 -95.5t-163.5 -37.5z" />
    <glyph glyph-name="uni2076" unicode="&#x2076;" 
d="M306 658q-58 0 -94 -25t-41 -66q49 26 114 26q95 0 145 -32.5t50 -95.5q0 -62 -56 -102.5t-157 -40.5q-103 0 -157.5 51.5t-54.5 139.5q0 105 66.5 163t182.5 58q82 0 144 -27v-78q-68 29 -142 29zM271 520q-55 0 -100 -18q0 -45 24.5 -72.5t76.5 -27.5q43 0 63 17t20 40
q0 29 -23 45t-61 16z" />
    <glyph glyph-name="uni2077" unicode="&#x2077;" 
d="M129 333l207 311h-256v80h381v-69l-209 -322h-123z" />
    <glyph glyph-name="uni2078" unicode="&#x2078;" 
d="M267 322q-104 0 -164 35t-60 85q0 32 26 59t74 41q-76 29 -76 85q0 44 53.5 75.5t146.5 31.5t146.5 -31.5t53.5 -75.5q0 -56 -77 -85q48 -14 74.5 -41t26.5 -59q0 -50 -60 -85t-164 -35zM267 398q52 0 80.5 15.5t28.5 37.5q0 21 -28 36.5t-81 15.5t-81 -15.5t-28 -36.5
q0 -22 28.5 -37.5t80.5 -15.5zM267 574q44 0 67.5 12t23.5 30q0 19 -24.5 32t-66.5 13t-66.5 -13t-24.5 -32q0 -18 23.5 -30t67.5 -12z" />
    <glyph glyph-name="uni2079" unicode="&#x2079;" 
d="M364 493v2q-53 -29 -120 -29q-89 0 -139 32.5t-50 95.5q0 62 55.5 101t157.5 39q103 0 157.5 -51.5t54.5 -139.5q0 -105 -67.5 -163t-184.5 -58q-82 0 -144 27v78q68 -29 142 -29q59 0 96.5 26.5t41.5 68.5zM261 539q57 0 103 20q-2 42 -26.5 68.5t-74.5 26.5
q-43 0 -63 -16t-20 -38q0 -30 21.5 -45.5t59.5 -15.5z" />
    <glyph glyph-name="uni2080" unicode="&#x2080;" 
d="M267 -69q52 0 75.5 30t23.5 90t-23.5 90t-75.5 30t-75.5 -30t-23.5 -90t23.5 -90t75.5 -30zM267 -155q-59 0 -103 17t-68.5 46.5t-36 64.5t-11.5 75q0 88 52.5 148.5t166.5 60.5q59 0 103 -17t68.5 -46.5t36 -64.5t11.5 -75q0 -88 -52.5 -148.5t-166.5 -60.5z" />
    <glyph glyph-name="uni2081" unicode="&#x2081;" 
d="M134 143v77l121 27h83v-311h89v-80h-292v80h89v221z" />
    <glyph glyph-name="uni2082" unicode="&#x2082;" 
d="M72 -144v68l150 93q75 49 75 92q0 65 -94 65q-62 0 -111 -22v82q58 23 122 23q90 0 144 -36t54 -108q0 -83 -132 -154l-49 -27h224v-76h-383z" />
    <glyph glyph-name="uni2083" unicode="&#x2083;" 
d="M238 -155q-89 0 -160 27v80q78 -26 150 -26q51 0 77.5 14.5t26.5 38.5q0 48 -106 48h-54v70h54q86 0 86 41q0 38 -86 38q-74 0 -136 -29v80q56 30 147 30q89 0 143.5 -30.5t54.5 -77.5q0 -60 -73 -83q95 -24 95 -94q0 -51 -60 -89t-159 -38z" />
    <glyph glyph-name="uni2084" unicode="&#x2084;" 
d="M303 -144v73h-255l1 67l256 251h109v-243h82v-75h-82v-73h-111zM171 4h132v128z" />
    <glyph glyph-name="uni2085" unicode="&#x2085;" 
d="M246 -155q-93 0 -161 28v79q76 -26 151 -26q55 0 80.5 14t25.5 34q0 33 -73.5 47t-174.5 14l7 212h340v-78h-231l-2 -60q256 -14 256 -131q0 -58 -54.5 -95.5t-163.5 -37.5z" />
    <glyph glyph-name="uni2086" unicode="&#x2086;" 
d="M306 181q-58 0 -94 -25t-41 -66q49 26 114 26q95 0 145 -32.5t50 -95.5q0 -62 -56 -102.5t-157 -40.5q-103 0 -157.5 51.5t-54.5 139.5q0 105 66.5 163t182.5 58q82 0 144 -27v-78q-68 29 -142 29zM271 43q-55 0 -100 -18q0 -45 24.5 -72.5t76.5 -27.5q43 0 63 17t20 40
q0 29 -23 45t-61 16z" />
    <glyph glyph-name="uni2087" unicode="&#x2087;" 
d="M129 -144l207 311h-256v80h381v-69l-209 -322h-123z" />
    <glyph glyph-name="uni2088" unicode="&#x2088;" 
d="M267 -155q-104 0 -164 35t-60 85q0 32 26 59t74 41q-76 29 -76 85q0 44 53.5 75.5t146.5 31.5t146.5 -31.5t53.5 -75.5q0 -56 -77 -85q48 -14 74.5 -41t26.5 -59q0 -50 -60 -85t-164 -35zM267 -79q52 0 80.5 15.5t28.5 37.5q0 21 -28 36.5t-81 15.5t-81 -15.5t-28 -36.5
q0 -22 28.5 -37.5t80.5 -15.5zM267 97q44 0 67.5 12t23.5 30q0 19 -24.5 32t-66.5 13t-66.5 -13t-24.5 -32q0 -18 23.5 -30t67.5 -12z" />
    <glyph glyph-name="uni2089" unicode="&#x2089;" 
d="M364 16v2q-53 -29 -120 -29q-89 0 -139 32.5t-50 95.5q0 62 55.5 101t157.5 39q103 0 157.5 -51.5t54.5 -139.5q0 -105 -67.5 -163t-184.5 -58q-82 0 -144 27v78q68 -29 142 -29q59 0 96.5 26.5t41.5 68.5zM261 62q57 0 103 20q-2 42 -26.5 68.5t-74.5 26.5
q-43 0 -63 -16t-20 -38q0 -30 21.5 -45.5t59.5 -15.5z" />
    <glyph glyph-name="Euro" unicode="&#x20ac;" horiz-adv-x="846" 
d="M58 401v96h86q38 110 137 176.5t253 66.5q135 0 248 -45v-120q-110 45 -237 45q-93 0 -158.5 -33.5t-93.5 -89.5h369v-96h-393q-1 -13 -1 -39q0 -25 3 -49h391v-96h-362q27 -51 90.5 -82t154.5 -31q121 0 242 35v-117q-125 -38 -253 -38q-155 0 -252.5 62.5t-135.5 170.5
h-88v96h67q-2 32 -2 49q0 26 1 39h-66z" />
    <glyph glyph-name="uni2113" unicode="&#x2113;" horiz-adv-x="500" 
d="M278 -16q-102 0 -145 46.5t-43 138.5v24l-50 -13v90l50 15v258q0 91 52 144t142 53q78 0 127 -45.5t49 -139.5q0 -110 -56 -195.5t-157 -124.5v-48q0 -43 13.5 -62t52.5 -19q48 0 89 19v-110q-42 -31 -124 -31zM247 549v-211q76 50 76 197q0 49 -8 72.5t-31 23.5
q-37 0 -37 -82z" />
    <glyph glyph-name="uni2117" unicode="&#x2117;" horiz-adv-x="952" 
d="M476 -16q-193 0 -302.5 107.5t-109.5 270.5t109.5 270.5t302.5 107.5t302.5 -107.5t109.5 -270.5t-109.5 -270.5t-302.5 -107.5zM476 67q153 0 232.5 84t79.5 211t-79.5 211t-232.5 84t-232.5 -84t-79.5 -211t79.5 -211t232.5 -84zM298 163v398h187q96 0 147 -36t51 -106
t-52.5 -107t-153.5 -37h-69v-112h-110zM477 474h-69v-112h63q53 0 74 13t21 44q0 29 -20 42t-69 13z" />
    <glyph glyph-name="trademark" unicode="&#x2122;" horiz-adv-x="1128" 
d="M505 385v339h136l113 -171q1 -2 4.5 -8t4.5 -9l10 17l111 171h136v-339h-93v226q0 13 3 29q-3 -7 -17 -29l-105 -156h-89l-106 156q-12 18 -19 32q4 -24 4 -32v-226h-93zM40 649v75h374v-75h-135v-264h-104v264h-135z" />
    <glyph glyph-name="Omega" unicode="&#x2126;" horiz-adv-x="975" 
d="M899 379q0 -176 -121 -265h159v-114h-379v111q176 41 176 251q0 111 -60.5 181t-185.5 70t-186 -70t-61 -181q0 -210 176 -251v-111h-379v114h158q-120 90 -120 265q0 72 26.5 136t76.5 114.5t130 80.5t179 30q102 0 182 -28.5t129.5 -78.5t74.5 -114.5t25 -139.5z" />
    <glyph glyph-name="uni212E" unicode="&#x212e;" horiz-adv-x="952" 
d="M888 317h-633v-184q89 -71 232 -71q86 0 163.5 30t120.5 76l52 -51q-52 -61 -139.5 -97t-197.5 -36q-105 0 -186.5 29.5t-132.5 82t-77 120t-26 146.5q0 162 106.5 270t305.5 108q104 0 184.5 -29.5t129.5 -82t73.5 -120t24.5 -146.5v-45zM476 662q-136 0 -221 -61v-187
h442v188q-81 60 -221 60z" />
    <glyph glyph-name="uni2153" unicode="&#x2153;" horiz-adv-x="1184" 
d="M180 -30l686 784h138l-686 -784h-138zM887 -11q-89 0 -160 27v80q78 -26 150 -26q51 0 77.5 14.5t26.5 38.5q0 48 -106 48h-54v70h54q86 0 86 41q0 38 -86 38q-74 0 -136 -29v80q56 30 147 30q89 0 143.5 -30.5t54.5 -77.5q0 -60 -73 -83q95 -24 95 -94q0 -51 -60 -89
t-159 -38zM134 620v77l121 27h83v-311h89v-80h-292v80h89v221z" />
    <glyph glyph-name="uni2154" unicode="&#x2154;" horiz-adv-x="1184" 
d="M180 -30l686 784h138l-686 -784h-138zM887 -11q-89 0 -160 27v80q78 -26 150 -26q51 0 77.5 14.5t26.5 38.5q0 48 -106 48h-54v70h54q86 0 86 41q0 38 -86 38q-74 0 -136 -29v80q56 30 147 30q89 0 143.5 -30.5t54.5 -77.5q0 -60 -73 -83q95 -24 95 -94q0 -51 -60 -89
t-159 -38zM72 333v68l150 93q75 49 75 92q0 65 -94 65q-62 0 -111 -22v82q57 23 122 23q90 0 144 -36t54 -108q0 -83 -132 -154l-49 -27h224v-76h-383z" />
    <glyph glyph-name="uni2155" unicode="&#x2155;" horiz-adv-x="1184" 
d="M180 -30l686 784h138l-686 -784h-138zM895 -11q-93 0 -161 28v79q76 -26 151 -26q55 0 80.5 14t25.5 34q0 33 -73.5 47t-174.5 14l7 212h340v-78h-231l-2 -60q256 -14 256 -131q0 -58 -54.5 -95.5t-163.5 -37.5zM134 620v77l121 27h83v-311h89v-80h-292v80h89v221z" />
    <glyph glyph-name="uni2156" unicode="&#x2156;" horiz-adv-x="1184" 
d="M180 -30l686 784h138l-686 -784h-138zM895 -11q-93 0 -161 28v79q76 -26 151 -26q55 0 80.5 14t25.5 34q0 33 -73.5 47t-174.5 14l7 212h340v-78h-231l-2 -60q256 -14 256 -131q0 -58 -54.5 -95.5t-163.5 -37.5zM72 333v68l150 93q75 49 75 92q0 65 -94 65
q-62 0 -111 -22v82q57 23 122 23q90 0 144 -36t54 -108q0 -83 -132 -154l-49 -27h224v-76h-383z" />
    <glyph glyph-name="uni2157" unicode="&#x2157;" horiz-adv-x="1184" 
d="M180 -30l686 784h138l-686 -784h-138zM895 -11q-93 0 -161 28v79q76 -26 151 -26q55 0 80.5 14t25.5 34q0 33 -73.5 47t-174.5 14l7 212h340v-78h-231l-2 -60q256 -14 256 -131q0 -58 -54.5 -95.5t-163.5 -37.5zM238 322q-89 0 -160 27v80q78 -26 150 -26q51 0 77.5 14.5
t26.5 38.5q0 48 -106 48h-54v70h54q86 0 86 41q0 38 -86 38q-74 0 -136 -29v80q56 30 147 30q89 0 143.5 -30.5t54.5 -77.5q0 -60 -73 -83q95 -24 95 -94q0 -51 -60 -89t-159 -38z" />
    <glyph glyph-name="uni2158" unicode="&#x2158;" horiz-adv-x="1184" 
d="M180 -30l686 784h138l-686 -784h-138zM303 333v73h-255l1 67l256 251h109v-243h82v-75h-82v-73h-111zM895 -11q-93 0 -161 28v79q76 -26 151 -26q55 0 80.5 14t25.5 34q0 33 -73.5 47t-174.5 14l7 212h340v-78h-231l-2 -60q256 -14 256 -131q0 -58 -54.5 -95.5
t-163.5 -37.5zM171 481h132v128z" />
    <glyph glyph-name="uni2159" unicode="&#x2159;" horiz-adv-x="1184" 
d="M955 325q-58 0 -94 -25t-41 -66q49 26 114 26q95 0 145 -32.5t50 -95.5q0 -62 -56 -102.5t-157 -40.5q-103 0 -157.5 51.5t-54.5 139.5q0 105 66.5 163t182.5 58q82 0 144 -27v-78q-68 29 -142 29zM180 -30l686 784h138l-686 -784h-138zM134 620v77l121 27h83v-311h89
v-80h-292v80h89v221zM920 187q-55 0 -100 -18q0 -45 24.5 -72.5t76.5 -27.5q43 0 63 17t20 40q0 29 -23 45t-61 16z" />
    <glyph glyph-name="uni215A" unicode="&#x215a;" horiz-adv-x="1184" 
d="M955 325q-58 0 -94 -25t-41 -66q49 26 114 26q95 0 145 -32.5t50 -95.5q0 -62 -56 -102.5t-157 -40.5q-103 0 -157.5 51.5t-54.5 139.5q0 105 66.5 163t182.5 58q82 0 144 -27v-78q-68 29 -142 29zM180 -30l686 784h138l-686 -784h-138zM246 322q-93 0 -161 28v79
q76 -26 151 -26q55 0 80.5 14t25.5 34q0 33 -73.5 47t-174.5 14l7 212h340v-78h-231l-2 -60q256 -14 256 -131q0 -58 -54.5 -95.5t-163.5 -37.5zM920 187q-55 0 -100 -18q0 -45 24.5 -72.5t76.5 -27.5q43 0 63 17t20 40q0 29 -23 45t-61 16z" />
    <glyph glyph-name="uni215B" unicode="&#x215b;" horiz-adv-x="1184" 
d="M916 -11q-104 0 -164 35t-60 85q0 32 26 59t74 41q-76 29 -76 85q0 44 53.5 75.5t146.5 31.5t146.5 -31.5t53.5 -75.5q0 -56 -77 -85q48 -14 74.5 -41t26.5 -59q0 -50 -60 -85t-164 -35zM180 -30l686 784h138l-686 -784h-138zM134 620v77l121 27h83v-311h89v-80h-292v80
h89v221zM916 65q52 0 80.5 15.5t28.5 37.5q0 21 -28 36.5t-81 15.5t-81 -15.5t-28 -36.5q0 -22 28.5 -37.5t80.5 -15.5zM916 241q44 0 67.5 12t23.5 30q0 19 -24.5 32t-66.5 13t-66.5 -13t-24.5 -32q0 -18 23.5 -30t67.5 -12z" />
    <glyph glyph-name="uni215C" unicode="&#x215c;" horiz-adv-x="1184" 
d="M916 -11q-104 0 -164 35t-60 85q0 32 26 59t74 41q-76 29 -76 85q0 44 53.5 75.5t146.5 31.5t146.5 -31.5t53.5 -75.5q0 -56 -77 -85q48 -14 74.5 -41t26.5 -59q0 -50 -60 -85t-164 -35zM180 -30l686 784h138l-686 -784h-138zM238 322q-89 0 -160 27v80q78 -26 150 -26
q51 0 77.5 14.5t26.5 38.5q0 48 -106 48h-54v70h54q86 0 86 41q0 38 -86 38q-74 0 -136 -29v80q56 30 147 30q89 0 143.5 -30.5t54.5 -77.5q0 -60 -73 -83q95 -24 95 -94q0 -51 -60 -89t-159 -38zM916 65q52 0 80.5 15.5t28.5 37.5q0 21 -28 36.5t-81 15.5t-81 -15.5
t-28 -36.5q0 -22 28.5 -37.5t80.5 -15.5zM916 241q44 0 67.5 12t23.5 30q0 19 -24.5 32t-66.5 13t-66.5 -13t-24.5 -32q0 -18 23.5 -30t67.5 -12z" />
    <glyph glyph-name="uni215D" unicode="&#x215d;" horiz-adv-x="1184" 
d="M916 -11q-104 0 -164 35t-60 85q0 32 26 59t74 41q-76 29 -76 85q0 44 53.5 75.5t146.5 31.5t146.5 -31.5t53.5 -75.5q0 -56 -77 -85q48 -14 74.5 -41t26.5 -59q0 -50 -60 -85t-164 -35zM180 -30l686 784h138l-686 -784h-138zM246 322q-93 0 -161 28v79q76 -26 151 -26
q55 0 80.5 14t25.5 34q0 33 -73.5 47t-174.5 14l7 212h340v-78h-231l-2 -60q256 -14 256 -131q0 -58 -54.5 -95.5t-163.5 -37.5zM916 65q52 0 80.5 15.5t28.5 37.5q0 21 -28 36.5t-81 15.5t-81 -15.5t-28 -36.5q0 -22 28.5 -37.5t80.5 -15.5zM916 241q44 0 67.5 12t23.5 30
q0 19 -24.5 32t-66.5 13t-66.5 -13t-24.5 -32q0 -18 23.5 -30t67.5 -12z" />
    <glyph glyph-name="uni215E" unicode="&#x215e;" horiz-adv-x="1184" 
d="M916 -11q-104 0 -164 35t-60 85q0 32 26 59t74 41q-76 29 -76 85q0 44 53.5 75.5t146.5 31.5t146.5 -31.5t53.5 -75.5q0 -56 -77 -85q48 -14 74.5 -41t26.5 -59q0 -50 -60 -85t-164 -35zM180 -30l686 784h138l-686 -784h-138zM129 333l207 311h-256v80h381v-69l-209 -322
h-123zM916 65q52 0 80.5 15.5t28.5 37.5q0 21 -28 36.5t-81 15.5t-81 -15.5t-28 -36.5q0 -22 28.5 -37.5t80.5 -15.5zM916 241q44 0 67.5 12t23.5 30q0 19 -24.5 32t-66.5 13t-66.5 -13t-24.5 -32q0 -18 23.5 -30t67.5 -12z" />
    <glyph glyph-name="uni2190" unicode="&#x2190;" horiz-adv-x="914" 
d="M479 82l-81 -82l-362 362l362 362l81 -82l-223 -223h622v-116h-620z" />
    <glyph glyph-name="uni2191" unicode="&#x2191;" horiz-adv-x="914" 
d="M175 329l-80 79l362 362l362 -362l-81 -79l-222 222v-623h-120v621z" />
    <glyph glyph-name="uni2192" unicode="&#x2192;" horiz-adv-x="914" 
d="M36 305v116h620l-221 221l81 82l362 -362l-362 -362l-81 82l223 223h-622z" />
    <glyph glyph-name="uni2193" unicode="&#x2193;" horiz-adv-x="914" 
d="M457 -84l-362 362l81 79l222 -222v623h120v-621l221 220l80 -79z" />
    <glyph glyph-name="uni2196" unicode="&#x2196;" horiz-adv-x="914" 
d="M253 178h-115v512h512v-111h-315l442 -441l-83 -83l-441 440v-317z" />
    <glyph glyph-name="uni2197" unicode="&#x2197;" horiz-adv-x="914" 
d="M221 55l-83 83l442 441h-315v111h512v-512h-115v317z" />
    <glyph glyph-name="uni2198" unicode="&#x2198;" horiz-adv-x="914" 
d="M138 607l83 83l441 -440v317h115v-512h-512v111h315z" />
    <glyph glyph-name="uni2199" unicode="&#x2199;" horiz-adv-x="914" 
d="M138 55v512h115v-317l441 440l83 -83l-442 -441h315v-111h-512z" />
    <glyph glyph-name="partialdiff" unicode="&#x2202;" horiz-adv-x="794" 
d="M740 272q0 -60 -17.5 -109.5t-56 -91t-107 -64.5t-162.5 -23q-343 0 -343 258q0 129 86.5 193.5t236.5 64.5q73 0 139 -27q-58 62 -151.5 106.5t-181.5 60.5l32 104q41 -6 85 -18t96.5 -32.5t100 -47t92.5 -64.5t78 -82.5t53 -103t20 -124.5zM397 98q84 0 133 35t49 109
t-49 109t-133 35t-133 -35t-49 -109t49 -109t133 -35z" />
    <glyph glyph-name="Delta" unicode="&#x2206;" horiz-adv-x="910" 
d="M867 112v-112h-824v112l328 612h168zM451 579l-236 -461h473z" />
    <glyph glyph-name="product" unicode="&#x220f;" horiz-adv-x="923" 
d="M654 -211v817h-385v-817h-161v935h707v-935h-161z" />
    <glyph glyph-name="summation" unicode="&#x2211;" horiz-adv-x="790" 
d="M89 -211v103l358 362l-358 367v103h629v-118h-417l285 -291v-117l-289 -291h421v-118h-629z" />
    <glyph glyph-name="minus" unicode="&#x2212;" horiz-adv-x="798" 
d="M62 238v120h674v-120h-674z" />
    <glyph glyph-name="radical" unicode="&#x221a;" horiz-adv-x="720" 
d="M-12 513h217l161 -371l259 582h163l-348 -724h-156l-187 399h-109v114z" />
    <glyph glyph-name="infinity" unicode="&#x221e;" horiz-adv-x="1150" 
d="M528 420l47 -43l47 43q69 63 123 89t122 26q105 0 168 -61.5t63 -175.5t-63 -175.5t-168 -61.5q-68 0 -122 26t-123 89l-47 42l-47 -42q-69 -63 -123 -89t-122 -26q-105 0 -168 61.5t-63 175.5t63 175.5t168 61.5q68 0 122 -26t123 -89zM298 417q-50 0 -78 -30.5
t-28 -88.5t28 -88.5t78 -30.5q35 0 68.5 20t79.5 62l41 37l-41 37q-46 42 -79.5 62t-68.5 20zM704 335l-41 -37l41 -37q46 -42 79.5 -62t68.5 -20q50 0 78 30.5t28 88.5t-28 88.5t-78 30.5q-35 0 -68.5 -20t-79.5 -62z" />
    <glyph glyph-name="integral" unicode="&#x222b;" horiz-adv-x="439" 
d="M376 738q47 0 73 -8v-119q-28 5 -65 5q-74 0 -99 -34t-25 -116v-437q0 -136 -66 -195t-207 -59q-47 0 -73 8v119q28 -5 65 -5q74 0 99 34t25 116v437q0 136 66 195t207 59z" />
    <glyph glyph-name="approxequal" unicode="&#x2248;" horiz-adv-x="798" 
d="M624 509h97q0 -90 -42.5 -142t-115.5 -52q-58 0 -117 22t-111 44t-93 22q-31 0 -49.5 -20.5t-18.5 -55.5h-97q0 90 42.5 142t115.5 52q58 0 117 -22t111 -44t93 -22q31 0 49.5 20.5t18.5 55.5zM624 269h97q0 -90 -42.5 -142t-115.5 -52q-58 0 -117 22t-111 44t-93 22
q-31 0 -49.5 -20.5t-18.5 -55.5h-97q0 90 42.5 142t115.5 52q58 0 117 -22t111 -44t93 -22q31 0 49.5 20.5t18.5 55.5z" />
    <glyph glyph-name="notequal" unicode="&#x2260;" horiz-adv-x="798" 
d="M82 358v120h393l77 101h124l-77 -101h117v-120h-209l-92 -120h301v-120h-393l-77 -101h-124l77 101h-117v120h209l92 120h-301z" />
    <glyph glyph-name="lessequal" unicode="&#x2264;" horiz-adv-x="798" 
d="M103 0v120h593v-120h-593zM477 217l-379 251l379 251h223l-369 -251l369 -251h-223z" />
    <glyph glyph-name="greaterequal" unicode="&#x2265;" horiz-adv-x="798" 
d="M695 120v-120h-593v120h593zM700 468l-379 -251h-223l369 251l-369 251h223z" />
    <glyph glyph-name="uni2300" unicode="&#x2300;" horiz-adv-x="750" 
d="M124 39l-72 72l73 73q-56 80 -56 178q0 128 89.5 217t216.5 89q98 0 177 -57l74 74l72 -72l-74 -74q57 -79 57 -177q0 -128 -89.5 -217t-216.5 -89q-98 0 -178 56zM375 545q-76 0 -129.5 -53.5t-53.5 -129.5q0 -48 23 -88l248 248q-43 23 -88 23zM558 362q0 45 -23 88
l-248 -248q40 -23 88 -23q76 0 129.5 53.5t53.5 129.5z" />
    <glyph glyph-name="uni25BA" unicode="&#x25ba;" horiz-adv-x="620" 
d="M108 94v536l464 -268z" />
    <glyph glyph-name="uni25C0" unicode="&#x25c0;" horiz-adv-x="620" 
d="M512 630v-536l-464 268z" />
    <glyph glyph-name="uni25C6" unicode="&#x25c6;" horiz-adv-x="620" 
d="M586 362l-276 -276l-276 276l276 276z" />
    <glyph glyph-name="lozenge" unicode="&#x25ca;" horiz-adv-x="952" 
d="M226 363l250 -257l250 256l-250 255zM559 0h-166l-354 363l355 361h164l355 -362z" />
    <glyph glyph-name="apple" horiz-adv-x="2282" 
d="M1846 734q154 0 263 -109t109 -264q0 -154 -109 -263t-263 -109q-133 0 -235 83q-104 -83 -235 -83t-235 83q-102 -83 -235 -83t-235 83q-102 -83 -235 -83q-154 0 -263 108.5t-109 263.5t108.5 264t263.5 109q133 0 235 -83q102 83 235 83t235 -83q104 83 235 83
t235 -83q102 83 235 83zM1611 194q54 77 54 167q0 91 -54 168q-54 -75 -54 -168q0 -92 54 -167zM1141 194q54 75 54 167q0 93 -54 168q-54 -75 -54 -168q0 -92 54 -167zM671 194q54 75 54 167q0 93 -54 168q-53 -73 -53 -168q0 -94 53 -167zM148 361q0 -119 84.5 -203.5
t203.5 -84.5q100 0 176 60q-78 100 -78 228q0 129 78 229q-76 60 -176 60q-119 0 -203.5 -84.5t-84.5 -204.5zM731 133q77 -60 175 -60q99 0 176 60q-79 100 -79 228q0 129 79 229q-77 60 -176 60q-98 0 -175 -60q78 -100 78 -229q0 -128 -78 -228zM1200 133q77 -60 176 -60
t176 60q-79 100 -79 228q0 129 79 229q-77 60 -176 60t-176 -60q79 -100 79 -229q0 -128 -79 -228zM1846 73q119 0 203.5 84.5t84.5 203.5q0 120 -84.5 204.5t-203.5 84.5q-99 0 -176 -60q79 -100 79 -229q0 -128 -79 -228q77 -60 176 -60z" />
    <glyph glyph-name="caronslovak" horiz-adv-x="550" 
d="M194 493l32 125l-31 106h88q35 0 53.5 -18.5t18.5 -49.5q0 -33 -56 -117l-31 -46h-74z" />
    <glyph glyph-name="commaaccent" horiz-adv-x="550" 
d="M280 -227l-62 -39l-43 48q67 70 70 73l-30 103h88q35 0 53.5 -18.5t18.5 -49.5q0 -57 -95 -117z" />
    <glyph glyph-name="commatop" horiz-adv-x="550" 
d="M335 566h-88q-35 0 -53.5 18.5t-18.5 49.5q0 57 95 117l62 39l43 -48q-49 -49 -70 -73z" />
    <glyph glyph-name="zero.lntb" horiz-adv-x="950" 
d="M473 -16q-97 0 -170.5 30t-116.5 83t-63.5 118.5t-20.5 142.5q0 78 21.5 144.5t65.5 121t118 85.5t171 31t170.5 -30t116 -83t63 -118t20.5 -142q0 -78 -21.5 -145t-65 -121t-117.5 -85.5t-171 -31.5zM475 106q106 0 158.5 68.5t52.5 187.5q0 120 -52.5 187.5
t-158.5 67.5t-158 -67.5t-52 -187.5t52 -188t158 -68z" />
    <glyph glyph-name="one.lntb" horiz-adv-x="582" 
d="M82 550v122l217 52h113v-724h-161v587z" />
    <glyph glyph-name="two.lntb" horiz-adv-x="846" 
d="M102 0v104l235 174q97 72 137.5 118.5t40.5 95.5q0 62 -37.5 93t-119.5 31q-118 0 -223 -45v122q116 47 234 47q310 0 310 -241q0 -39 -15 -77t-35.5 -66t-57 -61.5t-63 -53.5t-71.5 -52l-100 -71h406v-118h-641z" />
    <glyph glyph-name="three.lntb" horiz-adv-x="846" 
d="M379 -16q-153 0 -265 45v120q128 -44 256 -44q90 0 141.5 29.5t51.5 74.5q0 46 -51.5 78.5t-147.5 32.5h-91v116h91q82 0 123.5 25t41.5 67q0 39 -46 63.5t-116 24.5q-125 0 -235 -50v120q104 54 246 54q146 0 231.5 -54t85.5 -143q0 -52 -34 -94.5t-101 -66.5
q172 -50 172 -177q0 -95 -91.5 -158t-261.5 -63z" />
    <glyph glyph-name="four.lntb" horiz-adv-x="906" 
d="M535 0v142h-467v104l475 478h152v-464h153v-118h-153v-142h-160zM254 260h281v282z" />
    <glyph glyph-name="five.lntb" horiz-adv-x="846" 
d="M384 -16q-153 0 -265 45v120q128 -44 256 -44q104 0 153 28.5t49 76.5q0 31 -31.5 55t-77.5 37t-109 21t-115 10t-105 2l16 389h550v-118h-399l-6 -150q444 -24 444 -238q0 -104 -90 -169t-270 -65z" />
    <glyph glyph-name="six.lntb" horiz-adv-x="900" 
d="M457 -16q-171 0 -263 89.5t-92 257.5q0 409 427 409q118 0 217 -38v-122q-108 36 -213 36q-224 0 -258 -181q85 49 194 49q155 0 242 -65.5t87 -179.5q0 -108 -88.5 -181.5t-252.5 -73.5zM458 362q-112 0 -195 -41v-7q0 -100 50.5 -157t143.5 -57q83 0 128 40t45 99
t-45.5 91t-126.5 32z" />
    <glyph glyph-name="seven.lntb" horiz-adv-x="736" 
d="M137 0l374 606h-455v118h634v-105l-384 -619h-169z" />
    <glyph glyph-name="eight.lntb" horiz-adv-x="958" 
d="M479 -16q-178 0 -271.5 61t-93.5 153q0 64 45.5 112t137.5 73q-71 22 -108 62.5t-37 94.5q0 92 86.5 146t240.5 54q155 0 241.5 -54t86.5 -146q0 -112 -142 -157q90 -25 134.5 -73t44.5 -112q0 -92 -93.5 -153t-271.5 -61zM479 100q95 0 147 33.5t52 78.5t-50.5 78
t-148.5 33q-97 0 -148 -33t-51 -78t51.5 -78.5t147.5 -33.5zM479 433q82 0 123.5 25.5t41.5 68.5t-44 71.5t-121 28.5t-121 -28.5t-44 -71.5t41.5 -68.5t123.5 -25.5z" />
    <glyph glyph-name="nine.lntb" horiz-adv-x="900" 
d="M371 -16q-118 0 -217 38v122q108 -36 213 -36q237 0 262 197q-87 -51 -198 -51q-155 0 -242 62t-87 176q0 106 88.5 177t252.5 71q171 0 263 -89.5t92 -257.5q0 -409 -427 -409zM442 376q109 0 195 40q-2 97 -52.5 152.5t-141.5 55.5q-83 0 -128 -38t-45 -94
q0 -57 45.5 -86.5t126.5 -29.5z" />
    <glyph glyph-name="zero.dnom" 
d="M267 75q52 0 75.5 30t23.5 90t-23.5 90t-75.5 30t-75.5 -30t-23.5 -90t23.5 -90t75.5 -30zM267 -11q-59 0 -103 17t-68.5 46.5t-36 64.5t-11.5 75q0 88 52.5 148.5t166.5 60.5q59 0 103 -17t68.5 -46.5t36 -64.5t11.5 -75q0 -88 -52.5 -148.5t-166.5 -60.5z" />
    <glyph glyph-name="one.dnom" 
d="M134 287v77l121 27h83v-311h89v-80h-292v80h89v221z" />
    <glyph glyph-name="two.dnom" 
d="M72 0v68l150 93q75 49 75 92q0 65 -94 65q-62 0 -111 -22v82q58 23 122 23q90 0 144 -36t54 -108q0 -83 -132 -154l-49 -27h224v-76h-383z" />
    <glyph glyph-name="three.dnom" 
d="M238 -11q-89 0 -160 27v80q78 -26 150 -26q51 0 77.5 14.5t26.5 38.5q0 48 -106 48h-54v70h54q86 0 86 41q0 38 -86 38q-74 0 -136 -29v80q56 30 147 30q89 0 143.5 -30.5t54.5 -77.5q0 -60 -73 -83q95 -24 95 -94q0 -51 -60 -89t-159 -38z" />
    <glyph glyph-name="four.dnom" 
d="M303 0v73h-255l1 67l256 251h109v-243h82v-75h-82v-73h-111zM171 148h132v128z" />
    <glyph glyph-name="five.dnom" 
d="M246 -11q-93 0 -161 28v79q76 -26 151 -26q55 0 80.5 14t25.5 34q0 33 -73.5 47t-174.5 14l7 212h340v-78h-231l-2 -60q256 -14 256 -131q0 -58 -54.5 -95.5t-163.5 -37.5z" />
    <glyph glyph-name="six.dnom" 
d="M306 325q-58 0 -94 -25t-41 -66q49 26 114 26q95 0 145 -32.5t50 -95.5q0 -62 -56 -102.5t-157 -40.5q-103 0 -157.5 51.5t-54.5 139.5q0 105 66.5 163t182.5 58q82 0 144 -27v-78q-68 29 -142 29zM271 187q-55 0 -100 -18q0 -45 24.5 -72.5t76.5 -27.5q43 0 63 17t20 40
q0 29 -23 45t-61 16z" />
    <glyph glyph-name="seven.dnom" 
d="M129 0l207 311h-256v80h381v-69l-209 -322h-123z" />
    <glyph glyph-name="eight.dnom" 
d="M267 -11q-104 0 -164 35t-60 85q0 32 26 59t74 41q-76 29 -76 85q0 44 53.5 75.5t146.5 31.5t146.5 -31.5t53.5 -75.5q0 -56 -77 -85q48 -14 74.5 -41t26.5 -59q0 -50 -60 -85t-164 -35zM267 65q52 0 80.5 15.5t28.5 37.5q0 21 -28 36.5t-81 15.5t-81 -15.5t-28 -36.5
q0 -22 28.5 -37.5t80.5 -15.5zM267 241q44 0 67.5 12t23.5 30q0 19 -24.5 32t-66.5 13t-66.5 -13t-24.5 -32q0 -18 23.5 -30t67.5 -12z" />
    <glyph glyph-name="nine.dnom" 
d="M364 160v2q-53 -29 -120 -29q-89 0 -139 32.5t-50 95.5q0 62 55.5 101t157.5 39q103 0 157.5 -51.5t54.5 -139.5q0 -105 -67.5 -163t-184.5 -58q-82 0 -144 27v78q68 -29 142 -29q59 0 96.5 26.5t41.5 68.5zM261 206q57 0 103 20q-2 42 -26.5 68.5t-74.5 26.5
q-43 0 -63 -16t-20 -38q0 -30 21.5 -45.5t59.5 -15.5z" />
    <glyph glyph-name="zero.numr" 
d="M267 408q52 0 75.5 30t23.5 90t-23.5 90t-75.5 30t-75.5 -30t-23.5 -90t23.5 -90t75.5 -30zM267 322q-59 0 -103 17t-68.5 46.5t-36 64.5t-11.5 75q0 88 52.5 148.5t166.5 60.5q59 0 103 -17t68.5 -46.5t36 -64.5t11.5 -75q0 -88 -52.5 -148.5t-166.5 -60.5z" />
    <glyph glyph-name="one.numr" 
d="M134 620v77l121 27h83v-311h89v-80h-292v80h89v221z" />
    <glyph glyph-name="two.numr" 
d="M72 333v68l150 93q75 49 75 92q0 65 -94 65q-62 0 -111 -22v82q57 23 122 23q90 0 144 -36t54 -108q0 -83 -132 -154l-49 -27h224v-76h-383z" />
    <glyph glyph-name="three.numr" 
d="M238 322q-89 0 -160 27v80q78 -26 150 -26q51 0 77.5 14.5t26.5 38.5q0 48 -106 48h-54v70h54q86 0 86 41q0 38 -86 38q-74 0 -136 -29v80q56 30 147 30q89 0 143.5 -30.5t54.5 -77.5q0 -60 -73 -83q95 -24 95 -94q0 -51 -60 -89t-159 -38z" />
    <glyph glyph-name="four.numr" 
d="M303 333v73h-255l1 67l256 251h109v-243h82v-75h-82v-73h-111zM171 481h132v128z" />
    <glyph glyph-name="five.numr" 
d="M246 322q-93 0 -161 28v79q76 -26 151 -26q55 0 80.5 14t25.5 34q0 33 -73.5 47t-174.5 14l7 212h340v-78h-231l-2 -60q256 -14 256 -131q0 -58 -54.5 -95.5t-163.5 -37.5z" />
    <glyph glyph-name="six.numr" 
d="M306 658q-58 0 -94 -25t-41 -66q49 26 114 26q95 0 145 -32.5t50 -95.5q0 -62 -56 -102.5t-157 -40.5q-103 0 -157.5 51.5t-54.5 139.5q0 105 66.5 163t182.5 58q82 0 144 -27v-78q-68 29 -142 29zM271 520q-55 0 -100 -18q0 -45 24.5 -72.5t76.5 -27.5q43 0 63 17t20 40
q0 29 -23 45t-61 16z" />
    <glyph glyph-name="seven.numr" 
d="M129 333l207 311h-256v80h381v-69l-209 -322h-123z" />
    <glyph glyph-name="eight.numr" 
d="M267 322q-104 0 -164 35t-60 85q0 32 26 59t74 41q-76 29 -76 85q0 44 53.5 75.5t146.5 31.5t146.5 -31.5t53.5 -75.5q0 -56 -77 -85q48 -14 74.5 -41t26.5 -59q0 -50 -60 -85t-164 -35zM267 398q52 0 80.5 15.5t28.5 37.5q0 21 -28 36.5t-81 15.5t-81 -15.5t-28 -36.5
q0 -22 28.5 -37.5t80.5 -15.5zM267 574q44 0 67.5 12t23.5 30q0 19 -24.5 32t-66.5 13t-66.5 -13t-24.5 -32q0 -18 23.5 -30t67.5 -12z" />
    <glyph glyph-name="nine.numr" 
d="M364 493v2q-53 -29 -120 -29q-89 0 -139 32.5t-50 95.5q0 62 55.5 101t157.5 39q103 0 157.5 -51.5t54.5 -139.5q0 -105 -67.5 -163t-184.5 -58q-82 0 -144 27v78q68 -29 142 -29q59 0 96.5 26.5t41.5 68.5zM261 539q57 0 103 20q-2 42 -26.5 68.5t-74.5 26.5
q-43 0 -63 -16t-20 -38q0 -30 21.5 -45.5t59.5 -15.5z" />
    <glyph glyph-name="section.alt01" horiz-adv-x="846" 
d="M412 637q-59 -21 -100.5 -62.5t-41.5 -105.5q0 -54 18.5 -95.5t55.5 -90.5l86 -114q63 -83 63 -155q0 -90 -52 -138q59 21 100.5 62.5t41.5 105.5q0 54 -18.5 95.5t-55.5 90.5l-86 114q-63 83 -63 155q0 90 52 138zM536 740q57 0 118.5 -14t91.5 -32v-114q-89 42 -152 42
q-48 0 -75.5 -24.5t-27.5 -64.5q0 -45 49 -111l100 -132q82 -109 82 -227q0 -96 -54.5 -163t-140 -97t-193.5 -30q-73 0 -137 15t-97 34v114q82 -45 159 -45q48 0 75.5 24.5t27.5 64.5q0 45 -49 111l-100 132q-82 109 -82 227q0 74 32.5 131t89.5 91t128.5 51t154.5 17z" />
    <glyph glyph-name="bullet.alt01" horiz-adv-x="495" 
d="M128 190v220h239v-220h-239z" />
    </font>
</defs>
</svg>
