<?xml version="1.0" standalone="no"?>
<!DOCTYPE svg PUBLIC "-//W3C//DTD SVG 1.1//EN" "http://www.w3.org/Graphics/SVG/1.1/DTD/svg11.dtd" >
<svg xmlns="http://www.w3.org/2000/svg" xmlns:xlink="http://www.w3.org/1999/xlink" version="1.1">
<metadata>
Created by FontForge 20161003 at Fri Dec  2 17:19:47 2016
 By www-data
Designed by Paul van der Laan &#38; Pieter van Rosmalen 2008. Produced by Bold Monday. For exclusive use by AUDI AG and its affiliates only.
</metadata>
<defs>
<font id="AudiTypeV03ExtendedNormal" horiz-adv-x="800" >
  <font-face 
    font-family="AudiTypeV03ExtendedNormal"
    font-weight="400"
    font-stretch="expanded"
    units-per-em="1000"
    panose-1="2 11 5 5 4 2 0 0 0 3"
    ascent="760"
    descent="-240"
    x-height="513"
    cap-height="724"
    bbox="-310 -240 2218 980"
    underline-thickness="50"
    underline-position="-150"
    unicode-range="U+000D-FB04"
  />
<missing-glyph horiz-adv-x="363" 
d="M83 -211v935h199v-935h-199z" />
    <glyph glyph-name="uniFB00" unicode="ff" horiz-adv-x="960" 
d="M275 435v-435h-99v435h-147v78h147v34q0 189 229 189q84 0 140 -21v-78q-57 19 -138 19q-72 0 -102 -27.5t-30 -88.5v-27h361v34q0 189 229 189q84 0 140 -21v-78q-57 19 -138 19q-72 0 -102 -27.5t-30 -88.5v-27h216v-78h-216v-435h-99v435h-361z" />
    <glyph glyph-name="fi" unicode="fi" horiz-adv-x="829" 
d="M275 435v-435h-99v435h-147v78h147v34q0 189 229 189q84 0 140 -21v-78q-57 19 -138 19q-72 0 -102 -27.5t-30 -88.5v-27h439v-513h-99v435h-340zM615 616v108h99v-108h-99z" />
    <glyph glyph-name="fl" unicode="fl" horiz-adv-x="889" 
d="M29 435v78h147v34q0 189 229 189q84 0 140 -21v-78q-57 19 -138 19q-72 0 -102 -27.5t-30 -88.5v-27h216v-78h-216v-435h-99v435h-147zM748 -12q-74 0 -106 32.5t-32 99.5v604h99v-592q0 -33 13 -47.5t50 -14.5q57 0 95 10v-76q-56 -16 -119 -16z" />
    <glyph glyph-name="uniFB03" unicode="ffi" horiz-adv-x="1289" 
d="M29 435v78h147v34q0 189 229 189q84 0 140 -21v-78q-57 19 -138 19q-72 0 -102 -27.5t-30 -88.5v-27h361v34q0 189 229 189q84 0 140 -21v-78q-57 19 -138 19q-72 0 -102 -27.5t-30 -88.5v-27h439v-513h-99v435h-340v-435h-99v435h-361v-435h-99v435h-147zM1075 616v108
h99v-108h-99z" />
    <glyph glyph-name="uniFB04" unicode="ffl" horiz-adv-x="1349" 
d="M275 435v-435h-99v435h-147v78h147v34q0 189 229 189q84 0 140 -21v-78q-57 19 -138 19q-72 0 -102 -27.5t-30 -88.5v-27h361v34q0 189 229 189q84 0 140 -21v-78q-57 19 -138 19q-72 0 -102 -27.5t-30 -88.5v-27h216v-78h-216v-435h-99v435h-361zM1208 -12
q-74 0 -106 32.5t-32 99.5v604h99v-592q0 -33 13 -47.5t50 -14.5q57 0 95 10v-76q-56 -16 -119 -16z" />
    <glyph glyph-name=".notdef" horiz-adv-x="363" 
d="M83 -211v935h199v-935h-199z" />
    <glyph glyph-name=".null" horiz-adv-x="0" 
 />
    <glyph glyph-name=".null" horiz-adv-x="0" 
 />
    <glyph glyph-name="nonmarkingreturn" horiz-adv-x="333" 
 />
    <glyph glyph-name="CR" unicode="&#xd;" horiz-adv-x="0" 
 />
    <glyph glyph-name="space" unicode=" " horiz-adv-x="331" 
 />
    <glyph glyph-name="exclam" unicode="!" horiz-adv-x="402" 
d="M176 199l-11 105q-17 160 -17 223v197h107v-197q0 -63 -17 -223l-11 -105h-51zM140 0v122h122v-122h-122z" />
    <glyph glyph-name="quotedbl" unicode="&#x22;" horiz-adv-x="510" 
d="M339 470l-11 46q-16 80 -16 98v110h102v-110q0 -18 -16 -98l-11 -46h-48zM123 470l-11 46q-16 80 -16 98v110h102v-110q0 -18 -16 -98l-11 -46h-48z" />
    <glyph glyph-name="numbersign" unicode="#" 
d="M465 45l13 142h-190l-13 -142h-80l13 142h-94v72h101l18 197h-119v72h126l13 135h80l-13 -135h190l13 135h80l-13 -135h95v-72h-102l-18 -197h120v-72h-127l-13 -142h-80zM313 456l-18 -197h190l18 197h-190z" />
    <glyph glyph-name="dollar" unicode="$" 
d="M349 -93v119q-141 3 -239 36v77q43 -13 114.5 -24t133.5 -11q106 0 168 27.5t62 71.5t-45 71t-153 53q-150 37 -210.5 81.5t-60.5 122.5q0 68 58.5 113.5t171.5 56.5v116h81v-112q135 -1 221 -37v-78q-102 37 -229 37q-97 0 -149 -26t-52 -69q0 -44 44.5 -71t153.5 -53
q144 -35 207.5 -81t63.5 -123q0 -68 -69 -116.5t-191 -59.5v-121h-81z" />
    <glyph glyph-name="percent" unicode="%" horiz-adv-x="1238" 
d="M298 361q-95 0 -149.5 51t-54.5 136t56 136.5t148 51.5q95 0 149.5 -51t54.5 -137q0 -85 -56 -136t-148 -51zM298 431q57 0 86.5 30.5t29.5 86.5q0 57 -29.5 87.5t-86.5 30.5t-86.5 -30.5t-29.5 -87.5q0 -56 29.5 -86.5t86.5 -30.5zM940 -12q-95 0 -149.5 51t-54.5 136
t56 136.5t148 51.5q95 0 149.5 -51t54.5 -137q0 -85 -56 -136t-148 -51zM940 58q57 0 86.5 30.5t29.5 86.5q0 57 -29.5 87.5t-86.5 30.5t-86.5 -30.5t-29.5 -87.5q0 -56 29.5 -86.5t86.5 -30.5zM248 0l631 724h110l-631 -724h-110z" />
    <glyph glyph-name="ampersand" unicode="&#x26;" horiz-adv-x="971" 
d="M380 -12q-149 0 -232.5 51.5t-83.5 143.5q0 38 16.5 71t48 59t66 46t80.5 39l2 1l-13 11q-113 89 -113 165q0 78 60.5 119.5t169.5 41.5q111 0 170 -40.5t59 -120.5q0 -106 -176 -187l-6 -3l249 -195q85 96 85 235v29h173v-78h-83q-16 -138 -108 -238l177 -138h-138
l-104 82q-129 -94 -299 -94zM380 70q138 0 232 64l-268 212l-23 -10q-74 -34 -113.5 -68t-39.5 -81q0 -51 53.5 -84t158.5 -33zM251 572q0 -48 71 -103l42 -34l25 11q122 52 122 126q0 45 -36.5 65.5t-93.5 20.5t-93.5 -20.5t-36.5 -65.5z" />
    <glyph glyph-name="quotesingle" unicode="'" horiz-adv-x="294" 
d="M123 470l-11 46q-16 80 -16 98v110h102v-110q0 -18 -16 -98l-11 -46h-48z" />
    <glyph glyph-name="parenleft" unicode="(" horiz-adv-x="451" 
d="M323 -92q-93 63 -153 176.5t-60 248.5t60 248.5t153 176.5h94q-89 -72 -146 -182.5t-57 -242.5q0 -133 56.5 -242.5t146.5 -182.5h-94z" />
    <glyph glyph-name="parenright" unicode=")" horiz-adv-x="451" 
d="M34 -92q90 73 146.5 182.5t56.5 242.5q0 132 -57 242.5t-146 182.5h94q93 -63 153 -176.5t60 -248.5t-60 -248.5t-153 -176.5h-94z" />
    <glyph glyph-name="asterisk" unicode="*" horiz-adv-x="540" 
d="M211 397l-59 33l34 60q13 23 39 51q-42 -8 -64 -8h-83v68h83q22 0 64 -8q-26 28 -39 51l-34 60l59 33l34 -59q11 -19 25 -60q12 38 25 60l34 59l59 -33l-34 -60q-11 -17 -39 -52q36 9 64 9h83v-68h-83q-32 0 -64 8q31 -38 39 -51l34 -60l-59 -33l-34 59q-13 22 -25 60
q-14 -41 -25 -60z" />
    <glyph glyph-name="plus" unicode="+" horiz-adv-x="742" 
d="M64 261v78h263v213h88v-213h263v-78h-263v-222h-88v222h-263z" />
    <glyph glyph-name="comma" unicode="," horiz-adv-x="354" 
d="M34 -145l91 146l-22 121h103q27 0 37.5 -11t10.5 -36q0 -66 -101 -177l-40 -43h-79z" />
    <glyph glyph-name="hyphen" unicode="-" horiz-adv-x="478" 
d="M66 253v94h346v-94h-346z" />
    <glyph glyph-name="period" unicode="." horiz-adv-x="354" 
d="M116 0v122h122v-122h-122z" />
    <glyph glyph-name="slash" unicode="/" horiz-adv-x="539" 
d="M16 0l412 724h95l-411 -724h-96z" />
    <glyph glyph-name="zero" unicode="0" 
d="M400 -12q-336 0 -336 375q0 81 18 146.5t56.5 117.5t105 80.5t156.5 28.5q336 0 336 -375q0 -81 -18 -146.5t-56.5 -117.5t-105 -80.5t-156.5 -28.5zM400 67q123 0 177.5 80.5t54.5 214.5q0 64 -12 115.5t-38.5 93t-72.5 64t-109 22.5q-123 0 -177.5 -80.5t-54.5 -214.5
q0 -64 12 -115.5t38.5 -93t72.5 -64t109 -22.5z" />
    <glyph glyph-name="one" unicode="1" 
d="M172 584v85l229 55h67v-640h195v-84h-493v84h195v543z" />
    <glyph glyph-name="two" unicode="2" 
d="M100 0v79l215 172q145 116 181 153q63 65 63 128q0 56 -44.5 86t-130.5 30q-134 0 -254 -45v89q102 44 256 44q140 0 209 -53.5t69 -148.5q0 -80 -61.5 -151t-215.5 -189l-143 -110h472v-84h-616z" />
    <glyph glyph-name="three" unicode="3" 
d="M364 -12q-142 0 -250 40v87q129 -39 252 -39q93 0 153 31.5t60 90.5q0 62 -57.5 98.5t-164.5 36.5h-87v83h87q187 0 187 123q0 54 -51.5 82.5t-128.5 28.5q-134 0 -236 -41v85q98 42 236 42q132 0 208.5 -51t76.5 -142q0 -112 -118 -165q72 -23 112.5 -72t40.5 -112
q0 -92 -86.5 -149t-233.5 -57z" />
    <glyph glyph-name="four" unicode="4" 
d="M505 0v160h-448l-1 82l448 482h104v-480h145v-84h-145v-160h-103zM178 244h327v352z" />
    <glyph glyph-name="five" unicode="5" 
d="M359 -12q-145 0 -250 39v88q129 -39 252 -39q227 0 227 129q0 38 -34 67t-81.5 44.5t-114.5 25t-116.5 12.5t-103.5 4l18 366h504v-84h-411l-10 -198q458 -23 458 -234q0 -100 -84 -160t-254 -60z" />
    <glyph glyph-name="six" unicode="6" 
d="M412 -12q-162 0 -248 86.5t-86 254.5q0 198 104 302.5t304 104.5q110 0 191 -24v-89q-96 25 -187 25q-142 0 -218 -62t-87 -194q94 75 238 75t223 -64.5t79 -175.5q0 -100 -80.5 -169.5t-232.5 -69.5zM412 382q-130 0 -230 -67q4 -136 64.5 -191.5t165.5 -55.5
q98 0 153 41.5t55 117.5q0 155 -208 155z" />
    <glyph glyph-name="seven" unicode="7" 
d="M181 0l411 640h-488v84h604v-79l-414 -645h-113z" />
    <glyph glyph-name="eight" unicode="8" 
d="M400 -12q-173 0 -255 59t-82 153q0 115 147 176q-112 50 -112 159q0 92 81.5 146.5t220.5 54.5q144 0 223 -54t79 -147q0 -109 -112 -159q147 -61 147 -176q0 -93 -84.5 -152.5t-252.5 -59.5zM400 69q114 0 173.5 35t59.5 98q0 58 -60.5 96.5t-172.5 38.5t-172.5 -38.5
t-60.5 -96.5q0 -63 59.5 -98t173.5 -35zM400 412q93 0 145.5 31t52.5 92t-52.5 91t-145.5 30t-145.5 -30t-52.5 -91t52.5 -92t145.5 -31z" />
    <glyph glyph-name="nine" unicode="9" 
d="M320 -12q-110 0 -191 24v89q96 -25 187 -25q145 0 219 65.5t81 205.5v1q-97 -77 -239 -77q-144 0 -223 62t-79 172q0 98 82 164.5t231 66.5q162 0 248 -86.5t86 -254.5q0 -199 -101.5 -303t-300.5 -104zM388 356q127 0 229 68q-7 127 -67.5 179.5t-161.5 52.5
q-95 0 -151.5 -38t-56.5 -113q0 -149 208 -149z" />
    <glyph glyph-name="colon" unicode=":" horiz-adv-x="354" 
d="M116 391v122h122v-122h-122zM116 0v122h122v-122h-122z" />
    <glyph glyph-name="semicolon" unicode=";" horiz-adv-x="354" 
d="M34 -145l91 146l-22 121h103q27 0 37.5 -11t10.5 -36q0 -66 -101 -177l-40 -43h-79zM116 391v122h122v-122h-122z" />
    <glyph glyph-name="less" unicode="&#x3c;" horiz-adv-x="742" 
d="M486 39l-374 261l374 252h144l-374 -252l374 -261h-144z" />
    <glyph glyph-name="equal" unicode="=" horiz-adv-x="742" 
d="M90 161v78h562v-78h-562zM90 361v78h562v-78h-562z" />
    <glyph glyph-name="greater" unicode="&#x3e;" horiz-adv-x="742" 
d="M112 39l374 261l-374 252h144l374 -252l-374 -261h-144z" />
    <glyph glyph-name="question" unicode="?" horiz-adv-x="567" 
d="M172 198l-9 134l132 76q63 36 93 70t30 73q0 44 -44 70.5t-120 26.5q-125 0 -232 -43v87q103 44 232 44q119 0 194 -47t75 -134q0 -117 -166 -210l-107 -61l-6 -86h-72zM151 0v122h122v-122h-122z" />
    <glyph glyph-name="at" unicode="@" horiz-adv-x="1215" 
d="M538 24q-99 0 -160 56t-61 141q0 131 90 209.5t234 78.5q110 0 181 -41l15 29h74l-87 -299q-10 -36 -10 -54q0 -21 17.5 -36t52.5 -15q68 0 117 71t49 185q0 145 -96.5 228.5t-303.5 83.5q-231 0 -355.5 -122t-124.5 -313q0 -177 111.5 -269.5t333.5 -92.5q154 0 245 32
v-75q-43 -14 -116.5 -23t-134.5 -9q-274 0 -405.5 115t-131.5 322q0 104 38 195.5t109.5 162t182.5 111.5t248 41q130 0 227.5 -30.5t155 -85t85 -121.5t27.5 -147q0 -147 -74.5 -236.5t-203.5 -89.5q-102 0 -133 69q-74 -71 -196 -71zM569 93q81 0 150 50l77 267
q-59 28 -143 28q-104 0 -171 -53.5t-67 -153.5q0 -67 41 -102.5t113 -35.5z" />
    <glyph glyph-name="A" unicode="A" horiz-adv-x="853" 
d="M5 0l362 724h119l362 -724h-115l-90 179h-436l-89 -179h-113zM425 629l-181 -366h362z" />
    <glyph glyph-name="B" unicode="B" horiz-adv-x="812" 
d="M120 0v724h273q152 0 230.5 -51.5t78.5 -150.5q0 -115 -117 -153q153 -39 153 -167q0 -99 -78.5 -150.5t-230.5 -51.5h-309zM407 322h-184v-239h184q116 0 170.5 26t54.5 93t-54.5 93.5t-170.5 26.5zM371 641h-148v-239h148q116 0 170.5 26.5t54.5 93.5t-54.5 93
t-170.5 26z" />
    <glyph glyph-name="C" unicode="C" horiz-adv-x="768" 
d="M473 -12q-179 0 -289.5 97t-110.5 277q0 172 110.5 273t280.5 101q137 0 228 -39v-89q-99 40 -214 40q-140 0 -220 -72.5t-80 -213.5q0 -77 25.5 -134.5t69 -89.5t94 -47.5t108.5 -15.5q137 0 233 35v-86q-90 -36 -235 -36z" />
    <glyph glyph-name="D" unicode="D" horiz-adv-x="877" 
d="M120 0v724h288q188 0 292 -97t104 -265q0 -162 -106.5 -262t-289.5 -100h-288zM415 640h-192v-556h192q138 0 211 76t73 202t-73 202t-211 76z" />
    <glyph glyph-name="E" unicode="E" horiz-adv-x="772" 
d="M120 0v724h576v-84h-473v-226h413v-84h-413v-246h479v-84h-582z" />
    <glyph glyph-name="F" unicode="F" horiz-adv-x="714" 
d="M120 0v724h542v-84h-439v-248h376v-84h-376v-308h-103z" />
    <glyph glyph-name="G" unicode="G" horiz-adv-x="894" 
d="M484 -12q-192 0 -301.5 97.5t-109.5 276.5q0 175 111 274.5t305 99.5q168 0 259 -39v-89q-99 40 -244 40q-159 0 -242.5 -71.5t-83.5 -214.5q0 -149 85 -218t236 -69q118 0 207 27v247h102v-315q-128 -46 -324 -46z" />
    <glyph glyph-name="H" unicode="H" horiz-adv-x="912" 
d="M689 0v321h-466v-321h-103v724h103v-319h466v319h103v-724h-103z" />
    <glyph glyph-name="I" unicode="I" horiz-adv-x="533" 
d="M80 640v84h373v-84h-135v-556h135v-84h-373v84h135v556h-135z" />
    <glyph glyph-name="J" unicode="J" horiz-adv-x="424" 
d="M46 640v84h258v-617q0 -123 -54 -186t-175 -63q-55 0 -81 9v87q27 -9 74 -9q73 0 103 39t30 133v523h-155z" />
    <glyph glyph-name="K" unicode="K" horiz-adv-x="845" 
d="M120 0v724h103v-328l452 328h152l-496 -354l511 -370h-161l-458 335v-335h-103z" />
    <glyph glyph-name="L" unicode="L" horiz-adv-x="674" 
d="M120 0v724h103v-640h411v-84h-514z" />
    <glyph glyph-name="M" unicode="M" horiz-adv-x="1069" 
d="M120 0v724h112l305 -415l305 415h107v-724h-100v588l-286 -388h-57l-286 388v-588h-100z" />
    <glyph glyph-name="N" unicode="N" horiz-adv-x="960" 
d="M120 0v724h112l507 -596v596h101v-724h-112l-507 595v-595h-101z" />
    <glyph glyph-name="O" unicode="O" horiz-adv-x="918" 
d="M459 -12q-186 0 -286 102t-100 272q0 165 102.5 269.5t283.5 104.5q186 0 286 -102t100 -272q0 -165 -102.5 -269.5t-283.5 -104.5zM459 70q137 0 209 82t72 210t-72 210t-209 82t-209 -82t-72 -210t72 -210t209 -82z" />
    <glyph glyph-name="P" unicode="P" horiz-adv-x="767" 
d="M120 0v724h286q303 0 303 -225q0 -106 -74.5 -167.5t-233.5 -61.5h-178v-270h-103zM384 640h-161v-286h161q120 0 170 36t50 109t-49.5 107t-170.5 34z" />
    <glyph glyph-name="Q" unicode="Q" horiz-adv-x="918" 
d="M459 -12q-186 0 -286 102t-100 272q0 165 102.5 269.5t283.5 104.5q186 0 286 -102t100 -272q0 -122 -57.5 -213.5t-164.5 -132.5q19 -8 45 -28l139 -115h-108q-29 0 -45 13l-128 106q-29 -4 -67 -4zM459 70q137 0 209 82t72 210t-72 210t-209 82t-209 -82t-72 -210
t72 -210t209 -82z" />
    <glyph glyph-name="R" unicode="R" horiz-adv-x="807" 
d="M120 0v724h281q162 0 235 -54.5t73 -157.5q0 -84 -55.5 -136t-160.5 -68q25 -9 51 -37l243 -271h-132l-232 260q-22 24 -41 31t-62 7h-97v-298h-103zM379 640h-156v-260h156q124 0 174.5 30.5t50.5 101.5q0 70 -50 99t-175 29z" />
    <glyph glyph-name="S" unicode="S" horiz-adv-x="756" 
d="M327 -12q-155 0 -258 39v88q124 -39 261 -39q114 0 176.5 28.5t62.5 80.5q0 48 -43.5 75t-162.5 60q-57 16 -93 27.5t-76 31t-62 40.5t-36 52.5t-13 70.5q2 90 83.5 142t233.5 52q147 0 245 -40v-89q-118 41 -247 41q-209 0 -209 -102q0 -49 39.5 -76t164.5 -61
q55 -15 86 -24.5t68.5 -24.5t57.5 -29.5t38.5 -35t25.5 -46.5t6 -60q-2 -92 -90 -146.5t-258 -54.5z" />
    <glyph glyph-name="T" unicode="T" horiz-adv-x="755" 
d="M33 640v84h689v-84h-293v-640h-103v640h-293z" />
    <glyph glyph-name="U" unicode="U" horiz-adv-x="879" 
d="M439 -12q-153 0 -242 76t-89 209v451h103v-443q0 -102 57.5 -154.5t170.5 -52.5q114 0 171.5 52.5t57.5 154.5v443h103v-451q0 -133 -90 -209t-242 -76z" />
    <glyph glyph-name="V" unicode="V" horiz-adv-x="807" 
d="M347 0l-345 724h114l289 -613l288 613h112l-345 -724h-113z" />
    <glyph glyph-name="W" unicode="W" horiz-adv-x="1337" 
d="M321 0l-313 724h113l254 -611l245 611h97l248 -617l258 617h106l-313 -724h-105l-243 594l-242 -594h-105z" />
    <glyph glyph-name="X" unicode="X" horiz-adv-x="793" 
d="M12 0l321 374l-298 350h130l231 -280l233 280h123l-296 -346l325 -378h-130l-258 308l-258 -308h-123z" />
    <glyph glyph-name="Y" unicode="Y" horiz-adv-x="777" 
d="M337 0v270l-335 454h121l266 -371l269 371h117l-335 -453v-271h-103z" />
    <glyph glyph-name="Z" unicode="Z" horiz-adv-x="761" 
d="M66 0v79l488 561h-477v84h604v-79l-487 -561h501v-84h-629z" />
    <glyph glyph-name="bracketleft" unicode="[" horiz-adv-x="451" 
d="M146 -93v851h237v-58h-140v-735h140v-58h-237z" />
    <glyph glyph-name="backslash" unicode="\" horiz-adv-x="539" 
d="M427 0l-411 724h95l412 -724h-96z" />
    <glyph glyph-name="bracketright" unicode="]" horiz-adv-x="451" 
d="M68 700v58h237v-851h-237v58h140v735h-140z" />
    <glyph glyph-name="asciicircum" unicode="^" horiz-adv-x="544" 
d="M39 436l193 288h80l193 -288h-94l-139 211l-139 -211h-94z" />
    <glyph glyph-name="underscore" unicode="_" horiz-adv-x="550" 
d="M-8 -78v78h566v-78h-566z" />
    <glyph glyph-name="grave" unicode="`" horiz-adv-x="504" 
d="M281 588l-148 158h128l110 -158h-90z" />
    <glyph glyph-name="a" unicode="a" horiz-adv-x="718" 
d="M531 0l-8 47q-82 -59 -218 -59q-101 0 -164 39.5t-63 114.5q0 159 314 159q45 0 123 -4v18q0 130 -170 130q-123 0 -218 -38v77q92 41 227 41q120 0 190 -50t70 -147v-328h-83zM324 64q120 0 191 50v114h-99q-127 0 -181.5 -19t-54.5 -63q0 -82 144 -82z" />
    <glyph glyph-name="b" unicode="b" horiz-adv-x="776" 
d="M405 -12q-127 0 -200 54l-7 -42h-83v724h99v-251q82 52 197 52q137 0 217 -70.5t80 -197.5q0 -126 -80 -197.5t-223 -71.5zM391 64q105 0 160 49t55 144q0 94 -55 142t-160 48q-98 0 -177 -50v-283q79 -50 177 -50z" />
    <glyph glyph-name="c" unicode="c" horiz-adv-x="627" 
d="M356 -12q-134 0 -211 73t-77 196q0 120 78 194t228 74q111 0 183 -32v-81q-83 33 -185 33q-103 0 -152.5 -50t-49.5 -138q0 -91 52.5 -140t143.5 -49q107 0 199 42v-83q-91 -39 -209 -39z" />
    <glyph glyph-name="d" unicode="d" horiz-adv-x="776" 
d="M365 -12q-137 0 -217 71t-80 198q0 126 80 197t223 71q117 0 191 -48v247h99v-724h-83l-8 45q-85 -57 -205 -57zM385 65q98 0 177 50v283q-79 50 -177 50q-105 0 -160 -48t-55 -143t55 -143.5t160 -48.5z" />
    <glyph glyph-name="e" unicode="e" horiz-adv-x="699" 
d="M369 -12q-147 0 -224 75.5t-77 200.5q0 114 76.5 187.5t209.5 73.5q132 0 207.5 -69.5t75.5 -180.5q0 -21 -2 -39h-468q5 -79 58.5 -123.5t154.5 -44.5q107 0 222 46v-79q-101 -47 -233 -47zM354 449q-76 0 -128 -38t-58 -99h372q-7 61 -58.5 99t-127.5 38z" />
    <glyph glyph-name="f" unicode="f" horiz-adv-x="500" 
d="M29 435v78h147v34q0 189 229 189q84 0 140 -21v-78q-57 19 -138 19q-72 0 -102 -27.5t-30 -88.5v-27h216v-78h-216v-435h-99v435h-147z" />
    <glyph glyph-name="g" unicode="g" horiz-adv-x="776" 
d="M352 -223q-152 0 -239 38v84q98 -41 233 -41q107 0 161.5 37t54.5 130v31q-84 -52 -197 -52q-138 0 -217.5 68t-79.5 193q0 124 80 192t223 68q124 0 200 -54l7 42h83v-496q0 -240 -309 -240zM385 81q98 0 177 50v267q-79 50 -177 50q-215 0 -215 -183q0 -184 215 -184z
" />
    <glyph glyph-name="h" unicode="h" horiz-adv-x="775" 
d="M115 0v724h99v-260q89 61 217 61q240 0 240 -197v-328h-99v311q0 74 -39.5 105t-122.5 31q-110 0 -196 -54v-393h-99z" />
    <glyph glyph-name="i" unicode="i" horiz-adv-x="329" 
d="M115 0v513h99v-513h-99zM115 616v108h99v-108h-99z" />
    <glyph glyph-name="j" unicode="j" horiz-adv-x="329" 
d="M-3 -223q-39 0 -68 8v77q31 -7 61 -7q70 0 97.5 37.5t27.5 123.5v497h99v-504q0 -120 -50.5 -176t-166.5 -56zM115 616v108h99v-108h-99z" />
    <glyph glyph-name="k" unicode="k" horiz-adv-x="678" 
d="M115 0v724h99v-436l308 225h136l-347 -250l365 -263h-150l-312 234v-234h-99z" />
    <glyph glyph-name="l" unicode="l" horiz-adv-x="389" 
d="M248 -12q-74 0 -106 32.5t-32 99.5v604h99v-592q0 -33 13 -47.5t50 -14.5q57 0 95 10v-76q-56 -16 -119 -16z" />
    <glyph glyph-name="m" unicode="m" horiz-adv-x="1231" 
d="M572 0v311q0 74 -39.5 105t-122.5 31q-110 0 -196 -54v-393h-99v513h83l8 -51q87 63 225 63q147 0 206 -79q38 34 106.5 56.5t143.5 22.5q240 0 240 -197v-328h-99v311q0 74 -39.5 105t-122.5 31q-57 0 -111.5 -16.5t-90.5 -41.5q7 -31 7 -61v-328h-99z" />
    <glyph glyph-name="n" unicode="n" horiz-adv-x="775" 
d="M115 0v513h83l8 -51q87 63 225 63q240 0 240 -197v-328h-99v311q0 74 -39.5 105t-122.5 31q-110 0 -196 -54v-393h-99z" />
    <glyph glyph-name="o" unicode="o" horiz-adv-x="754" 
d="M377 -12q-155 0 -232 73.5t-77 195.5q0 120 78 194t231 74q155 0 232 -73.5t77 -195.5q0 -120 -78 -194t-231 -74zM377 65q104 0 155.5 50.5t51.5 140.5t-52 141t-155 51q-104 0 -155.5 -50.5t-51.5 -140.5t52 -141t155 -51z" />
    <glyph glyph-name="p" unicode="p" horiz-adv-x="776" 
d="M115 -211v724h83l7 -45q86 57 206 57q137 0 217 -70.5t80 -197.5q0 -126 -80 -197.5t-223 -71.5q-118 0 -191 48v-247h-99zM391 66q105 0 160 48t55 143t-55 143.5t-160 48.5q-98 0 -177 -50v-283q79 -50 177 -50z" />
    <glyph glyph-name="q" unicode="q" horiz-adv-x="776" 
d="M562 -211v250q-85 -51 -197 -51q-137 0 -217 71t-80 198q0 126 80 197t223 71q125 0 200 -55l7 43h83v-724h-99zM385 67q98 0 177 50v283q-79 50 -177 50q-105 0 -160 -49t-55 -144q0 -94 55 -142t160 -48z" />
    <glyph glyph-name="r" unicode="r" horiz-adv-x="522" 
d="M115 0v513h89l8 -93q68 103 193 103q55 0 91 -13v-88q-44 12 -103 12q-120 0 -179 -100v-334h-99z" />
    <glyph glyph-name="s" unicode="s" horiz-adv-x="641" 
d="M289 -12q-128 0 -209 37v76q94 -34 209 -34q180 0 180 73q0 18 -8.5 30t-32.5 21.5t-44 14t-67 13.5q-126 23 -178 55.5t-52 101.5q0 149 256 149q118 0 194 -38v-77q-85 36 -194 36q-82 0 -118.5 -17t-36.5 -52q0 -37 49 -54q25 -9 103 -24q125 -23 177.5 -56t52.5 -102
q0 -70 -73 -111.5t-208 -41.5z" />
    <glyph glyph-name="t" unicode="t" horiz-adv-x="534" 
d="M34 435v78h115l12 128h82v-128h247v-78h-247v-273q0 -52 27.5 -73t90.5 -21q65 0 121 22v-77q-66 -25 -151 -25q-95 0 -140.5 38t-45.5 123v286h-111z" />
    <glyph glyph-name="u" unicode="u" horiz-adv-x="765" 
d="M567 0l-8 44q-87 -56 -210 -56q-53 0 -93.5 8.5t-76.5 28.5t-55.5 59t-19.5 96v333h99v-316q0 -70 41.5 -100.5t125.5 -30.5q97 0 181 49v398h99v-513h-83z" />
    <glyph glyph-name="v" unicode="v" horiz-adv-x="642" 
d="M275 0l-263 513h110l201 -409l199 409h108l-263 -513h-92z" />
    <glyph glyph-name="w" unicode="w" horiz-adv-x="1035" 
d="M256 0l-240 513h108l179 -409l169 409h92l172 -408l177 408h106l-240 -513h-92l-171 408l-168 -408h-92z" />
    <glyph glyph-name="x" unicode="x" horiz-adv-x="658" 
d="M18 0l250 261l-242 252h128l174 -189l176 189h123l-240 -251l253 -262h-128l-185 199l-186 -199h-123z" />
    <glyph glyph-name="y" unicode="y" horiz-adv-x="642" 
d="M55 -223q-33 0 -51 7v81q26 -6 50 -6q70 0 118 30.5t84 97.5l13 24l-257 502h110l201 -409l199 409h108l-271 -528q-53 -103 -122.5 -155.5t-181.5 -52.5z" />
    <glyph glyph-name="z" unicode="z" horiz-adv-x="646" 
d="M73 435v78h502v-67l-384 -368h397v-78h-530v68l382 367h-367z" />
    <glyph glyph-name="braceleft" unicode="{" horiz-adv-x="451" 
d="M283 -93q-137 0 -137 114v215q0 67 -66 67h-36v59h36q66 0 66 67v215q0 114 137 114h100v-58h-74q-66 0 -66 -67v-201q0 -78 -64 -100q64 -22 64 -99v-201q0 -67 66 -67h74v-58h-100z" />
    <glyph glyph-name="bar" unicode="|" horiz-adv-x="437" 
d="M178 -211v935h81v-935h-81z" />
    <glyph glyph-name="braceright" unicode="}" horiz-adv-x="451" 
d="M68 -93v58h74q66 0 66 67v201q0 77 64 99q-64 22 -64 100v201q0 67 -66 67h-74v58h100q137 0 137 -114v-215q0 -67 66 -67h36v-59h-36q-66 0 -66 -67v-215q0 -114 -137 -114h-100z" />
    <glyph glyph-name="asciitilde" unicode="~" horiz-adv-x="553" 
d="M371 208q-36 0 -74 20t-69 40.5t-49 20.5q-44 0 -47 -71h-74q0 67 29.5 110.5t94.5 43.5q36 0 74 -20t69 -40.5t49 -20.5q44 0 47 71h74q0 -67 -29.5 -110.5t-94.5 -43.5z" />
    <glyph glyph-name="uni00A0" unicode="&#xa0;" horiz-adv-x="331" 
 />
    <glyph glyph-name="exclamdown" unicode="&#xa1;" horiz-adv-x="402" 
d="M227 314l11 -105q17 -160 17 -223v-197h-107v197q0 63 17 223l11 105h51zM263 513v-122h-122v122h122z" />
    <glyph glyph-name="cent" unicode="&#xa2;" 
d="M397 -43v120q-133 13 -207.5 84t-74.5 200q0 124 74.5 198t207.5 88v119h81v-115q113 -3 191 -36v-82q-91 37 -200 37q-253 0 -253 -209q0 -206 249 -206q120 0 216 38v-81q-83 -35 -203 -38v-117h-81z" />
    <glyph glyph-name="sterling" unicode="&#xa3;" 
d="M139 312v84h108v109q0 108 61.5 169.5t182.5 61.5q75 0 136 -23v-85q-63 20 -130 20q-77 0 -112 -35.5t-35 -119.5v-97h264v-84h-264v-122q0 -73 -38 -106h382v-84h-588v79h18q71 0 97 27t26 104v102h-108z" />
    <glyph glyph-name="currency" unicode="&#xa4;" 
d="M617 53l-83 100q-58 -23 -134 -23q-75 0 -135 23l-82 -100l-66 58l81 82q-73 62 -73 168t73 168l-81 82l66 58l82 -100q60 23 135 23q76 0 134 -23l83 100l66 -58l-81 -82q73 -62 73 -168t-74 -168l82 -82zM400 209q87 0 134 39.5t47 112.5t-47 112.5t-134 39.5
t-134 -39.5t-47 -112.5t47 -112.5t134 -39.5z" />
    <glyph glyph-name="yen" unicode="&#xa5;" 
d="M96 317v81h157l-240 326h121l266 -371l269 371h117l-242 -326h160v-81h-220l-33 -46v-52h253v-81h-253v-138h-103v138h-252v81h252v51l-35 47h-217z" />
    <glyph glyph-name="brokenbar" unicode="&#xa6;" horiz-adv-x="437" 
d="M178 -93v311h81v-311h-81zM178 447v311h81v-311h-81z" />
    <glyph glyph-name="section" unicode="&#xa7;" 
d="M373 -76q-155 0 -257 42v78q105 -40 245 -40q204 0 204 67q0 30 -29 45.5t-103 35.5l-182 48q-162 42 -162 138q0 44 30 80.5t79 60.5q-67 44 -67 105q0 54 41 89t101 49t138 14q164 0 242 -31v-79q-77 30 -230 30q-189 0 -189 -67q0 -30 29 -45.5t103 -35.5l182 -48
q162 -42 162 -138q0 -89 -110 -141q68 -43 68 -105q0 -54 -44.5 -89.5t-108 -49t-142.5 -13.5zM608 302q0 54 -114 83l-182 48q-26 6 -48 15q-36 -25 -54.5 -45t-18.5 -45q0 -54 114 -83l182 -48q20 -5 48 -15q35 23 54 44t19 46z" />
    <glyph glyph-name="dieresis" unicode="&#xa8;" horiz-adv-x="504" 
d="M68 617v101h107v-101h-107zM329 617v101h107v-101h-107z" />
    <glyph glyph-name="copyright" unicode="&#xa9;" horiz-adv-x="918" 
d="M474 138q-115 0 -174 63t-59 161q0 95 60 159.5t171 64.5q76 0 140 -28v-68q-68 29 -133 29q-77 0 -114 -42t-37 -115q0 -72 38 -114.5t112 -42.5q72 0 142 24v-66q-73 -25 -146 -25zM459 -12q-181 0 -283.5 104.5t-102.5 269.5t102.5 269.5t283.5 104.5t283.5 -104.5
t102.5 -269.5t-102.5 -269.5t-283.5 -104.5zM459 47q153 0 234 88.5t81 226.5t-81 226.5t-234 88.5t-234 -88.5t-81 -226.5t81 -226.5t234 -88.5z" />
    <glyph glyph-name="ordfeminine" unicode="&#xaa;" horiz-adv-x="637" 
d="M464 311l-7 37q-68 -47 -183 -47q-84 0 -137.5 32t-53.5 92q0 63 62.5 95t200.5 32q54 0 104 -3v14q0 103 -143 103q-101 0 -183 -31v63q78 33 190 33q100 0 158.5 -40t58.5 -118v-262h-67zM75 116v71h464v-71h-464zM289 363q102 0 161 40v90h-84q-107 0 -153 -15
t-46 -50q0 -65 122 -65z" />
    <glyph glyph-name="guillemotleft" unicode="&#xab;" horiz-adv-x="688" 
d="M527 114l-201 186l201 186h95l-179 -186l179 -186h-95zM267 114l-201 186l201 186h95l-179 -186l179 -186h-95z" />
    <glyph glyph-name="logicalnot" unicode="&#xac;" horiz-adv-x="666" 
d="M504 84v172h-460v84h548v-256h-88z" />
    <glyph glyph-name="uni00AD" unicode="&#xad;" horiz-adv-x="478" 
d="M66 253v94h346v-94h-346z" />
    <glyph glyph-name="registered" unicode="&#xae;" horiz-adv-x="764" 
d="M382 200q-124 0 -211 73t-87 195t87 195t211 73t211 -73t87 -195t-87 -195t-211 -73zM382 247q102 0 171.5 61.5t69.5 159.5t-69.5 159.5t-171.5 61.5t-171.5 -61.5t-69.5 -159.5t69.5 -159.5t171.5 -61.5zM262 325v291h129q52 0 83.5 -21.5t31.5 -63.5q0 -72 -73 -81
q10 -7 22 -22l75 -103h-65l-69 93q-15 21 -37 21h-38v-114h-59zM386 570h-65v-85h63q62 0 62 46q0 39 -60 39z" />
    <glyph glyph-name="macron" unicode="&#xaf;" horiz-adv-x="504" 
d="M78 622v75h348v-75h-348z" />
    <glyph glyph-name="degree" unicode="&#xb0;" horiz-adv-x="518" 
d="M259 384q-75 0 -128 52t-53 124t53 124t128 52t128 -52t53 -124t-53 -124t-128 -52zM259 456q42 0 73 31t31 73t-31 73t-73 31t-73 -31t-31 -73t31 -73t73 -31z" />
    <glyph glyph-name="plusminus" unicode="&#xb1;" horiz-adv-x="742" 
d="M64 369v78h263v213h88v-213h263v-78h-263v-222h-88v222h-263zM64 0v78h614v-78h-614z" />
    <glyph glyph-name="twosuperior" unicode="&#xb2;" horiz-adv-x="490" 
d="M66 333v53l130 94q66 48 90 72t24 52q0 66 -93 66q-70 0 -133 -25v62q65 25 137 25q81 0 126 -33.5t45 -92.5q0 -32 -20 -61t-45 -49.5t-66 -48.5l-18 -12l-63 -43h247v-59h-361z" />
    <glyph glyph-name="threesuperior" unicode="&#xb3;" horiz-adv-x="490" 
d="M221 325q-83 0 -148 24v60q71 -23 145 -23q56 0 85 16.5t29 43.5t-29.5 44t-88.5 17h-51v59h51q98 0 98 54q0 52 -95 52q-76 0 -134 -25v59q57 26 138 26q84 0 129.5 -28.5t45.5 -77.5q0 -59 -75 -87q47 -13 71.5 -38t24.5 -59q0 -52 -49.5 -84.5t-146.5 -32.5z" />
    <glyph glyph-name="acute" unicode="&#xb4;" horiz-adv-x="504" 
d="M133 588l110 158h128l-148 -158h-90z" />
    <glyph glyph-name="mu" unicode="&#xb5;" horiz-adv-x="776" 
d="M360 -12q-93 0 -155 47q9 -36 9 -69v-177h-99v724h99v-316q0 -68 47 -99.5t120 -31.5q97 0 181 49v398h99v-397q0 -25 11.5 -35.5t35.5 -10.5q26 0 52 7v-74q-27 -15 -86 -15q-78 0 -101 58q-89 -58 -213 -58z" />
    <glyph glyph-name="paragraph" unicode="&#xb6;" horiz-adv-x="777" 
d="M326 310q-130 0 -205.5 53.5t-75.5 153.5t75.5 153.5t205.5 53.5h331v-935h-94v857h-103v-857h-94v521h-40z" />
    <glyph glyph-name="periodcentered" unicode="&#xb7;" horiz-adv-x="418" 
d="M148 240v122h122v-122h-122z" />
    <glyph glyph-name="cedilla" unicode="&#xb8;" horiz-adv-x="504" 
d="M224 -216q-26 0 -54 7v52q22 -5 47 -5q47 0 47 32q0 36 -68 48l55 92h52l-34 -70q29 -7 47 -25t18 -43q0 -43 -32 -65.5t-78 -22.5z" />
    <glyph glyph-name="onesuperior" unicode="&#xb9;" horiz-adv-x="490" 
d="M115 636v59l125 29h57v-332h101v-59h-284v59h101v264z" />
    <glyph glyph-name="ordmasculine" unicode="&#xba;" horiz-adv-x="683" 
d="M341 301q-130 0 -194 59t-64 157q0 96 65 155t193 59q131 0 195 -58.5t64 -156.5q0 -97 -65 -156t-194 -59zM341 364q88 0 131.5 40t43.5 112t-43.5 112t-131.5 40q-87 0 -130.5 -40t-43.5 -111q0 -72 43.5 -112.5t130.5 -40.5zM75 116v71h533v-71h-533z" />
    <glyph glyph-name="guillemotright" unicode="&#xbb;" horiz-adv-x="688" 
d="M326 114l179 186l-179 186h95l201 -186l-201 -186h-95zM66 114l179 186l-179 186h95l201 -186l-201 -186h-95z" />
    <glyph glyph-name="onequarter" unicode="&#xbc;" horiz-adv-x="1149" 
d="M115 636v59l125 29h57v-332h101v-59h-284v59h101v264zM180 -30l686 784h103l-686 -784h-103zM952 0v79h-251l-1 53l255 259h78v-254h82v-58h-82v-79h-81zM791 137h161v164z" />
    <glyph glyph-name="onehalf" unicode="&#xbd;" horiz-adv-x="1149" 
d="M115 636v59l125 29h57v-332h101v-59h-284v59h101v264zM180 -30l686 784h103l-686 -784h-103zM725 0v53l130 94q66 48 90 72t24 52q0 66 -93 66q-70 0 -133 -25v62q65 25 137 25q81 0 126 -33.5t45 -92.5q0 -32 -20 -61t-45 -49.5t-66 -48.5l-18 -12l-63 -43h247v-59h-361
z" />
    <glyph glyph-name="threequarters" unicode="&#xbe;" horiz-adv-x="1149" 
d="M221 325q-83 0 -148 24v60q71 -23 145 -23q56 0 85 16.5t29 43.5t-29.5 44t-88.5 17h-51v59h51q98 0 98 54q0 52 -95 52q-76 0 -134 -25v59q57 26 138 26q84 0 129.5 -28.5t45.5 -77.5q0 -59 -75 -87q47 -13 71.5 -38t24.5 -59q0 -52 -49.5 -84.5t-146.5 -32.5zM180 -30
l686 784h103l-686 -784h-103zM952 0v79h-251l-1 53l255 259h78v-254h82v-58h-82v-79h-81zM791 137h161v164z" />
    <glyph glyph-name="questiondown" unicode="&#xbf;" horiz-adv-x="567" 
d="M395 315l9 -134l-132 -76q-63 -36 -93 -70t-30 -73q0 -44 44 -70.5t120 -26.5q125 0 232 43v-87q-103 -44 -232 -44q-119 0 -194 47t-75 134q0 117 166 210l107 61l6 86h72zM416 513v-122h-122v122h122z" />
    <glyph glyph-name="Agrave" unicode="&#xc0;" horiz-adv-x="853" 
d="M5 0l362 724h119l362 -724h-115l-90 179h-436l-89 -179h-113zM425 629l-181 -366h362zM385 772l-148 158h128l110 -158h-90z" />
    <glyph glyph-name="Aacute" unicode="&#xc1;" horiz-adv-x="853" 
d="M5 0l362 724h119l362 -724h-115l-90 179h-436l-89 -179h-113zM425 629l-181 -366h362zM376 772l110 158h128l-148 -158h-90z" />
    <glyph glyph-name="Acircumflex" unicode="&#xc2;" horiz-adv-x="853" 
d="M5 0l362 724h119l362 -724h-115l-90 179h-436l-89 -179h-113zM425 629l-181 -366h362zM231 772l150 158h88l150 -158h-90l-104 80l-104 -80h-90z" />
    <glyph glyph-name="Atilde" unicode="&#xc3;" horiz-adv-x="853" 
d="M5 0l362 724h119l362 -724h-115l-90 179h-436l-89 -179h-113zM425 629l-181 -366h362zM503 783q-39 0 -87 29.5t-65 29.5q-41 0 -46 -54h-69q0 55 28 93t84 38q39 0 87 -29.5t65 -29.5q41 0 46 54h69q0 -55 -28 -93t-84 -38z" />
    <glyph glyph-name="Adieresis" unicode="&#xc4;" horiz-adv-x="853" 
d="M5 0l362 724h119l362 -724h-115l-90 179h-436l-89 -179h-113zM425 629l-181 -366h362zM241 801v101h107v-101h-107zM502 801v101h107v-101h-107z" />
    <glyph glyph-name="Aring" unicode="&#xc5;" horiz-adv-x="853" 
d="M5 0l362 724h119l362 -724h-115l-90 179h-436l-89 -179h-113zM425 629l-181 -366h362zM536 874q0 -45 -32 -75.5t-79 -30.5t-79 30.5t-32 75.5t32 75.5t79 30.5t79 -30.5t32 -75.5zM480 874q0 22 -16 38.5t-39 16.5t-39 -16.5t-16 -38.5q0 -23 15.5 -39t39.5 -16t39.5 16
t15.5 39z" />
    <glyph glyph-name="AE" unicode="&#xc6;" horiz-adv-x="1245" 
d="M593 0v179h-389l-103 -179h-116l422 724h762v-84h-473v-226h413v-84h-413v-246h479v-84h-582zM471 640l-218 -377h340v377h-122z" />
    <glyph glyph-name="Ccedilla" unicode="&#xc7;" horiz-adv-x="768" 
d="M383 -216q-26 0 -54 7v52q22 -5 47 -5q47 0 47 32q0 36 -68 48l44 75q-149 19 -237.5 113.5t-88.5 255.5q0 172 110.5 273t280.5 101q137 0 228 -39v-89q-99 40 -214 40q-140 0 -220 -72.5t-80 -213.5q0 -77 25.5 -134.5t69 -89.5t94 -47.5t108.5 -15.5q137 0 233 35v-86
q-90 -36 -235 -36q-15 0 -22 1l-23 -49q29 -7 47 -25t18 -43q0 -43 -32 -65.5t-78 -22.5z" />
    <glyph glyph-name="Egrave" unicode="&#xc8;" horiz-adv-x="772" 
d="M120 0v724h576v-84h-473v-226h413v-84h-413v-246h479v-84h-582zM372 772l-148 158h128l110 -158h-90z" />
    <glyph glyph-name="Eacute" unicode="&#xc9;" horiz-adv-x="772" 
d="M120 0v724h576v-84h-473v-226h413v-84h-413v-246h479v-84h-582zM363 772l110 158h128l-148 -158h-90z" />
    <glyph glyph-name="Ecircumflex" unicode="&#xca;" horiz-adv-x="772" 
d="M120 0v724h576v-84h-473v-226h413v-84h-413v-246h479v-84h-582zM218 772l150 158h88l150 -158h-90l-104 80l-104 -80h-90z" />
    <glyph glyph-name="Edieresis" unicode="&#xcb;" horiz-adv-x="772" 
d="M120 0v724h576v-84h-473v-226h413v-84h-413v-246h479v-84h-582zM228 801v101h107v-101h-107zM489 801v101h107v-101h-107z" />
    <glyph glyph-name="Igrave" unicode="&#xcc;" horiz-adv-x="533" 
d="M80 640v84h373v-84h-135v-556h135v-84h-373v84h135v556h-135zM225 772l-148 158h128l110 -158h-90z" />
    <glyph glyph-name="Iacute" unicode="&#xcd;" horiz-adv-x="533" 
d="M80 640v84h373v-84h-135v-556h135v-84h-373v84h135v556h-135zM216 772l110 158h128l-148 -158h-90z" />
    <glyph glyph-name="Icircumflex" unicode="&#xce;" horiz-adv-x="533" 
d="M80 640v84h373v-84h-135v-556h135v-84h-373v84h135v556h-135zM71 772l150 158h88l150 -158h-90l-104 80l-104 -80h-90z" />
    <glyph glyph-name="Idieresis" unicode="&#xcf;" horiz-adv-x="533" 
d="M80 640v84h373v-84h-135v-556h135v-84h-373v84h135v556h-135zM81 801v101h107v-101h-107zM342 801v101h107v-101h-107z" />
    <glyph glyph-name="Eth" unicode="&#xd0;" horiz-adv-x="889" 
d="M62 325v75h70v324h288q188 0 292 -97t104 -265q0 -162 -106.5 -262t-289.5 -100h-288v325h-70zM427 640h-192v-240h199v-75h-199v-241h192q138 0 211 76t73 202t-73 202t-211 76z" />
    <glyph glyph-name="Ntilde" unicode="&#xd1;" horiz-adv-x="960" 
d="M120 0v724h112l507 -596v596h101v-724h-112l-507 595v-595h-101zM558 783q-39 0 -87 29.5t-65 29.5q-41 0 -46 -54h-69q0 55 28 93t84 38q39 0 87 -29.5t65 -29.5q41 0 46 54h69q0 -55 -28 -93t-84 -38z" />
    <glyph glyph-name="Ograve" unicode="&#xd2;" horiz-adv-x="918" 
d="M459 -12q-186 0 -286 102t-100 272q0 165 102.5 269.5t283.5 104.5q186 0 286 -102t100 -272q0 -165 -102.5 -269.5t-283.5 -104.5zM459 70q137 0 209 82t72 210t-72 210t-209 82t-209 -82t-72 -210t72 -210t209 -82zM419 772l-148 158h128l110 -158h-90z" />
    <glyph glyph-name="Oacute" unicode="&#xd3;" horiz-adv-x="918" 
d="M459 -12q-186 0 -286 102t-100 272q0 165 102.5 269.5t283.5 104.5q186 0 286 -102t100 -272q0 -165 -102.5 -269.5t-283.5 -104.5zM459 70q137 0 209 82t72 210t-72 210t-209 82t-209 -82t-72 -210t72 -210t209 -82zM410 772l110 158h128l-148 -158h-90z" />
    <glyph glyph-name="Ocircumflex" unicode="&#xd4;" horiz-adv-x="918" 
d="M459 -12q-186 0 -286 102t-100 272q0 165 102.5 269.5t283.5 104.5q186 0 286 -102t100 -272q0 -165 -102.5 -269.5t-283.5 -104.5zM459 70q137 0 209 82t72 210t-72 210t-209 82t-209 -82t-72 -210t72 -210t209 -82zM265 772l150 158h88l150 -158h-90l-104 80l-104 -80
h-90z" />
    <glyph glyph-name="Otilde" unicode="&#xd5;" horiz-adv-x="918" 
d="M459 -12q-186 0 -286 102t-100 272q0 165 102.5 269.5t283.5 104.5q186 0 286 -102t100 -272q0 -165 -102.5 -269.5t-283.5 -104.5zM459 70q137 0 209 82t72 210t-72 210t-209 82t-209 -82t-72 -210t72 -210t209 -82zM537 783q-39 0 -87 29.5t-65 29.5q-41 0 -46 -54h-69
q0 55 28 93t84 38q39 0 87 -29.5t65 -29.5q41 0 46 54h69q0 -55 -28 -93t-84 -38z" />
    <glyph glyph-name="Odieresis" unicode="&#xd6;" horiz-adv-x="918" 
d="M459 -12q-186 0 -286 102t-100 272q0 165 102.5 269.5t283.5 104.5q186 0 286 -102t100 -272q0 -165 -102.5 -269.5t-283.5 -104.5zM459 70q137 0 209 82t72 210t-72 210t-209 82t-209 -82t-72 -210t72 -210t209 -82zM275 801v101h107v-101h-107zM536 801v101h107v-101
h-107z" />
    <glyph glyph-name="multiply" unicode="&#xd7;" horiz-adv-x="742" 
d="M160 83l-62 49l210 165l-210 166l62 49l210 -166l211 166l62 -49l-211 -166l211 -165l-62 -49l-211 165z" />
    <glyph glyph-name="Oslash" unicode="&#xd8;" horiz-adv-x="918" 
d="M459 -12q-149 0 -244 67l-54 -55h-111l106 108q-83 98 -83 254q0 165 102.5 269.5t283.5 104.5q147 0 244 -67l54 55h111l-106 -109q83 -97 83 -253q0 -165 -102.5 -269.5t-283.5 -104.5zM178 362q0 -107 49 -181l409 419q-70 54 -177 54q-137 0 -209 -82t-72 -210z
M459 70q137 0 209 82t72 210q0 107 -49 180l-410 -419q70 -53 178 -53z" />
    <glyph glyph-name="Ugrave" unicode="&#xd9;" horiz-adv-x="879" 
d="M439 -12q-153 0 -242 76t-89 209v451h103v-443q0 -102 57.5 -154.5t170.5 -52.5q114 0 171.5 52.5t57.5 154.5v443h103v-451q0 -133 -90 -209t-242 -76zM399 772l-148 158h128l110 -158h-90z" />
    <glyph glyph-name="Uacute" unicode="&#xda;" horiz-adv-x="879" 
d="M439 -12q-153 0 -242 76t-89 209v451h103v-443q0 -102 57.5 -154.5t170.5 -52.5q114 0 171.5 52.5t57.5 154.5v443h103v-451q0 -133 -90 -209t-242 -76zM390 772l110 158h128l-148 -158h-90z" />
    <glyph glyph-name="Ucircumflex" unicode="&#xdb;" horiz-adv-x="879" 
d="M439 -12q-153 0 -242 76t-89 209v451h103v-443q0 -102 57.5 -154.5t170.5 -52.5q114 0 171.5 52.5t57.5 154.5v443h103v-451q0 -133 -90 -209t-242 -76zM245 772l150 158h88l150 -158h-90l-104 80l-104 -80h-90z" />
    <glyph glyph-name="Udieresis" unicode="&#xdc;" horiz-adv-x="879" 
d="M439 -12q-153 0 -242 76t-89 209v451h103v-443q0 -102 57.5 -154.5t170.5 -52.5q114 0 171.5 52.5t57.5 154.5v443h103v-451q0 -133 -90 -209t-242 -76zM255 801v101h107v-101h-107zM516 801v101h107v-101h-107z" />
    <glyph glyph-name="Yacute" unicode="&#xdd;" horiz-adv-x="777" 
d="M337 0v270l-335 454h121l266 -371l269 371h117l-335 -453v-271h-103zM339 772l110 158h128l-148 -158h-90z" />
    <glyph glyph-name="Thorn" unicode="&#xde;" horiz-adv-x="767" 
d="M120 0v724h102v-130h183q303 0 303 -225q0 -106 -74.5 -167.5t-233.5 -61.5h-178v-140h-102zM383 510h-161v-286h161q120 0 170 36t50 109t-49.5 107t-170.5 34z" />
    <glyph glyph-name="germandbls" unicode="&#xdf;" horiz-adv-x="794" 
d="M502 -12q-101 0 -176 32v79q81 -32 173 -32q80 0 119 22t39 71q0 25 -13.5 46t-40.5 38.5t-54 30t-68 27.5l-155 58v68l57 14q39 10 60 15.5t50.5 17t44.5 23t26 29.5t11 41q0 46 -48.5 68.5t-127.5 22.5q-94 0 -139.5 -45.5t-45.5 -138.5v-475h-99v487q0 122 74.5 185.5
t209.5 63.5q125 0 200.5 -41.5t75.5 -122.5q0 -69 -58 -114t-156 -66l78 -28q117 -42 168 -85t51 -122q0 -83 -65.5 -126t-190.5 -43z" />
    <glyph glyph-name="agrave" unicode="&#xe0;" horiz-adv-x="718" 
d="M531 0l-8 47q-82 -59 -218 -59q-101 0 -164 39.5t-63 114.5q0 159 314 159q45 0 123 -4v18q0 130 -170 130q-123 0 -218 -38v77q92 41 227 41q120 0 190 -50t70 -147v-328h-83zM324 64q120 0 191 50v114h-99q-127 0 -181.5 -19t-54.5 -63q0 -82 144 -82zM322 588
l-148 158h128l110 -158h-90z" />
    <glyph glyph-name="aacute" unicode="&#xe1;" horiz-adv-x="718" 
d="M531 0l-8 47q-82 -59 -218 -59q-101 0 -164 39.5t-63 114.5q0 159 314 159q45 0 123 -4v18q0 130 -170 130q-123 0 -218 -38v77q92 41 227 41q120 0 190 -50t70 -147v-328h-83zM324 64q120 0 191 50v114h-99q-127 0 -181.5 -19t-54.5 -63q0 -82 144 -82zM313 588l110 158
h128l-148 -158h-90z" />
    <glyph glyph-name="acircumflex" unicode="&#xe2;" horiz-adv-x="718" 
d="M531 0l-8 47q-82 -59 -218 -59q-101 0 -164 39.5t-63 114.5q0 159 314 159q45 0 123 -4v18q0 130 -170 130q-123 0 -218 -38v77q92 41 227 41q120 0 190 -50t70 -147v-328h-83zM324 64q120 0 191 50v114h-99q-127 0 -181.5 -19t-54.5 -63q0 -82 144 -82zM168 588l150 158
h88l150 -158h-90l-104 80l-104 -80h-90z" />
    <glyph glyph-name="atilde" unicode="&#xe3;" horiz-adv-x="718" 
d="M531 0l-8 47q-82 -59 -218 -59q-101 0 -164 39.5t-63 114.5q0 159 314 159q45 0 123 -4v18q0 130 -170 130q-123 0 -218 -38v77q92 41 227 41q120 0 190 -50t70 -147v-328h-83zM324 64q120 0 191 50v114h-99q-127 0 -181.5 -19t-54.5 -63q0 -82 144 -82zM440 599
q-39 0 -87 29.5t-65 29.5q-41 0 -46 -54h-69q0 55 28 93t84 38q39 0 87 -29.5t65 -29.5q41 0 46 54h69q0 -55 -28 -93t-84 -38z" />
    <glyph glyph-name="adieresis" unicode="&#xe4;" horiz-adv-x="718" 
d="M531 0l-8 47q-82 -59 -218 -59q-101 0 -164 39.5t-63 114.5q0 159 314 159q45 0 123 -4v18q0 130 -170 130q-123 0 -218 -38v77q92 41 227 41q120 0 190 -50t70 -147v-328h-83zM324 64q120 0 191 50v114h-99q-127 0 -181.5 -19t-54.5 -63q0 -82 144 -82zM178 617v101h107
v-101h-107zM439 617v101h107v-101h-107z" />
    <glyph glyph-name="aring" unicode="&#xe5;" horiz-adv-x="718" 
d="M531 0l-8 47q-82 -59 -218 -59q-101 0 -164 39.5t-63 114.5q0 159 314 159q45 0 123 -4v18q0 130 -170 130q-123 0 -218 -38v77q92 41 227 41q120 0 190 -50t70 -147v-328h-83zM324 64q120 0 191 50v114h-99q-127 0 -181.5 -19t-54.5 -63q0 -82 144 -82zM473 690
q0 -45 -32 -75.5t-79 -30.5t-79 30.5t-32 75.5t32 75.5t79 30.5t79 -30.5t32 -75.5zM417 690q0 22 -16 38.5t-39 16.5t-39 -16.5t-16 -38.5q0 -23 15.5 -39t39.5 -16t39.5 16t15.5 39z" />
    <glyph glyph-name="ae" unicode="&#xe6;" horiz-adv-x="1146" 
d="M305 -12q-100 0 -163.5 40.5t-63.5 115.5q0 161 314 161q45 0 123 -4v14q0 130 -170 130q-123 0 -218 -38v77q92 41 227 41q161 0 222 -95q77 95 225 95q132 0 207.5 -69.5t75.5 -180.5q0 -25 -2 -43h-467q13 -164 207 -164q112 0 227 46v-79q-101 -47 -233 -47
q-162 0 -240 91q-44 -40 -116 -65.5t-155 -25.5zM542 132q-22 46 -26 100h-100q-127 0 -181.5 -20t-54.5 -64q0 -84 144 -84q56 0 117 20t101 48zM801 449q-77 0 -129.5 -39.5t-57.5 -101.5h373q-4 62 -56.5 101.5t-129.5 39.5z" />
    <glyph glyph-name="ccedilla" unicode="&#xe7;" horiz-adv-x="627" 
d="M297 -216q-26 0 -54 7v52q22 -5 47 -5q47 0 47 32q0 36 -68 48l43 73q-115 11 -179.5 82.5t-64.5 183.5q0 120 78 194t228 74q111 0 183 -32v-81q-83 33 -185 33q-103 0 -152.5 -50t-49.5 -138q0 -91 52.5 -140t143.5 -49q107 0 199 42v-83q-86 -38 -200 -39l-23 -48
q29 -7 47 -25t18 -43q0 -43 -32 -65.5t-78 -22.5z" />
    <glyph glyph-name="egrave" unicode="&#xe8;" horiz-adv-x="699" 
d="M369 -12q-147 0 -224 75.5t-77 200.5q0 114 76.5 187.5t209.5 73.5q132 0 207.5 -69.5t75.5 -180.5q0 -21 -2 -39h-468q5 -79 58.5 -123.5t154.5 -44.5q107 0 222 46v-79q-101 -47 -233 -47zM354 449q-76 0 -128 -38t-58 -99h372q-7 61 -58.5 99t-127.5 38zM321 588
l-148 158h128l110 -158h-90z" />
    <glyph glyph-name="eacute" unicode="&#xe9;" horiz-adv-x="699" 
d="M369 -12q-147 0 -224 75.5t-77 200.5q0 114 76.5 187.5t209.5 73.5q132 0 207.5 -69.5t75.5 -180.5q0 -21 -2 -39h-468q5 -79 58.5 -123.5t154.5 -44.5q107 0 222 46v-79q-101 -47 -233 -47zM354 449q-76 0 -128 -38t-58 -99h372q-7 61 -58.5 99t-127.5 38zM312 588
l110 158h128l-148 -158h-90z" />
    <glyph glyph-name="ecircumflex" unicode="&#xea;" horiz-adv-x="699" 
d="M369 -12q-147 0 -224 75.5t-77 200.5q0 114 76.5 187.5t209.5 73.5q132 0 207.5 -69.5t75.5 -180.5q0 -21 -2 -39h-468q5 -79 58.5 -123.5t154.5 -44.5q107 0 222 46v-79q-101 -47 -233 -47zM354 449q-76 0 -128 -38t-58 -99h372q-7 61 -58.5 99t-127.5 38zM167 588
l150 158h88l150 -158h-90l-104 80l-104 -80h-90z" />
    <glyph glyph-name="edieresis" unicode="&#xeb;" horiz-adv-x="699" 
d="M369 -12q-147 0 -224 75.5t-77 200.5q0 114 76.5 187.5t209.5 73.5q132 0 207.5 -69.5t75.5 -180.5q0 -21 -2 -39h-468q5 -79 58.5 -123.5t154.5 -44.5q107 0 222 46v-79q-101 -47 -233 -47zM354 449q-76 0 -128 -38t-58 -99h372q-7 61 -58.5 99t-127.5 38zM177 617v101
h107v-101h-107zM438 617v101h107v-101h-107z" />
    <glyph glyph-name="igrave" unicode="&#xec;" horiz-adv-x="329" 
d="M115 0v513h99v-513h-99zM124 588l-148 158h128l110 -158h-90z" />
    <glyph glyph-name="iacute" unicode="&#xed;" horiz-adv-x="329" 
d="M115 0v513h99v-513h-99zM115 588l110 158h128l-148 -158h-90z" />
    <glyph glyph-name="icircumflex" unicode="&#xee;" horiz-adv-x="329" 
d="M115 0v513h99v-513h-99zM-30 588l150 158h88l150 -158h-90l-104 80l-104 -80h-90z" />
    <glyph glyph-name="idieresis" unicode="&#xef;" horiz-adv-x="329" 
d="M115 0v513h99v-513h-99zM-20 617v101h107v-101h-107zM241 617v101h107v-101h-107z" />
    <glyph glyph-name="eth" unicode="&#xf0;" horiz-adv-x="754" 
d="M210 524v66l116 45q-55 28 -125 52l18 57q100 -25 190 -77l169 65v-67l-104 -40q97 -71 154.5 -165.5t57.5 -203.5q0 -129 -77.5 -198.5t-231.5 -69.5t-231.5 68.5t-77.5 187.5q0 114 80.5 184.5t210.5 70.5q109 0 175 -44q-59 84 -140 139zM377 65q102 0 154.5 45.5
t52.5 132.5t-52.5 133t-154.5 46t-154.5 -45.5t-52.5 -132.5t52.5 -133t154.5 -46z" />
    <glyph glyph-name="ntilde" unicode="&#xf1;" horiz-adv-x="775" 
d="M115 0v513h83l8 -51q87 63 225 63q240 0 240 -197v-328h-99v311q0 74 -39.5 105t-122.5 31q-110 0 -196 -54v-393h-99zM475 599q-39 0 -87 29.5t-65 29.5q-41 0 -46 -54h-69q0 55 28 93t84 38q39 0 87 -29.5t65 -29.5q41 0 46 54h69q0 -55 -28 -93t-84 -38z" />
    <glyph glyph-name="ograve" unicode="&#xf2;" horiz-adv-x="754" 
d="M377 -12q-155 0 -232 73.5t-77 195.5q0 120 78 194t231 74q155 0 232 -73.5t77 -195.5q0 -120 -78 -194t-231 -74zM377 65q104 0 155.5 50.5t51.5 140.5t-52 141t-155 51q-104 0 -155.5 -50.5t-51.5 -140.5t52 -141t155 -51zM338 588l-148 158h128l110 -158h-90z" />
    <glyph glyph-name="oacute" unicode="&#xf3;" horiz-adv-x="754" 
d="M377 -12q-155 0 -232 73.5t-77 195.5q0 120 78 194t231 74q155 0 232 -73.5t77 -195.5q0 -120 -78 -194t-231 -74zM377 65q104 0 155.5 50.5t51.5 140.5t-52 141t-155 51q-104 0 -155.5 -50.5t-51.5 -140.5t52 -141t155 -51zM329 588l110 158h128l-148 -158h-90z" />
    <glyph glyph-name="ocircumflex" unicode="&#xf4;" horiz-adv-x="754" 
d="M377 -12q-155 0 -232 73.5t-77 195.5q0 120 78 194t231 74q155 0 232 -73.5t77 -195.5q0 -120 -78 -194t-231 -74zM377 65q104 0 155.5 50.5t51.5 140.5t-52 141t-155 51q-104 0 -155.5 -50.5t-51.5 -140.5t52 -141t155 -51zM184 588l150 158h88l150 -158h-90l-104 80
l-104 -80h-90z" />
    <glyph glyph-name="otilde" unicode="&#xf5;" horiz-adv-x="754" 
d="M377 -12q-155 0 -232 73.5t-77 195.5q0 120 78 194t231 74q155 0 232 -73.5t77 -195.5q0 -120 -78 -194t-231 -74zM377 65q104 0 155.5 50.5t51.5 140.5t-52 141t-155 51q-104 0 -155.5 -50.5t-51.5 -140.5t52 -141t155 -51zM458 599q-39 0 -87 29.5t-65 29.5
q-41 0 -46 -54h-69q0 55 28 93t84 38q39 0 87 -29.5t65 -29.5q41 0 46 54h69q0 -55 -28 -93t-84 -38z" />
    <glyph glyph-name="odieresis" unicode="&#xf6;" horiz-adv-x="754" 
d="M377 -12q-155 0 -232 73.5t-77 195.5q0 120 78 194t231 74q155 0 232 -73.5t77 -195.5q0 -120 -78 -194t-231 -74zM377 65q104 0 155.5 50.5t51.5 140.5t-52 141t-155 51q-104 0 -155.5 -50.5t-51.5 -140.5t52 -141t155 -51zM194 617v101h107v-101h-107zM455 617v101h107
v-101h-107z" />
    <glyph glyph-name="divide" unicode="&#xf7;" horiz-adv-x="742" 
d="M64 261v78h614v-78h-614zM310 478v122h122v-122h-122zM310 0v122h122v-122h-122z" />
    <glyph glyph-name="oslash" unicode="&#xf8;" horiz-adv-x="754" 
d="M377 -12q-120 0 -197 47l-39 -35h-107l91 81q-57 67 -57 176q0 120 78 194t231 74q121 0 196 -47l40 35h107l-92 -81q58 -68 58 -176q0 -120 -78 -194t-231 -74zM377 65q104 0 155.5 50.5t51.5 140.5q0 67 -28 111l-308 -272q52 -30 129 -30zM170 257q0 -66 28 -112
l307 272q-50 31 -128 31q-104 0 -155.5 -50.5t-51.5 -140.5z" />
    <glyph glyph-name="ugrave" unicode="&#xf9;" horiz-adv-x="765" 
d="M567 0l-8 44q-87 -56 -210 -56q-53 0 -93.5 8.5t-76.5 28.5t-55.5 59t-19.5 96v333h99v-316q0 -70 41.5 -100.5t125.5 -30.5q97 0 181 49v398h99v-513h-83zM337 588l-148 158h128l110 -158h-90z" />
    <glyph glyph-name="uacute" unicode="&#xfa;" horiz-adv-x="765" 
d="M567 0l-8 44q-87 -56 -210 -56q-53 0 -93.5 8.5t-76.5 28.5t-55.5 59t-19.5 96v333h99v-316q0 -70 41.5 -100.5t125.5 -30.5q97 0 181 49v398h99v-513h-83zM328 588l110 158h128l-148 -158h-90z" />
    <glyph glyph-name="ucircumflex" unicode="&#xfb;" horiz-adv-x="765" 
d="M567 0l-8 44q-87 -56 -210 -56q-53 0 -93.5 8.5t-76.5 28.5t-55.5 59t-19.5 96v333h99v-316q0 -70 41.5 -100.5t125.5 -30.5q97 0 181 49v398h99v-513h-83zM183 588l150 158h88l150 -158h-90l-104 80l-104 -80h-90z" />
    <glyph glyph-name="udieresis" unicode="&#xfc;" horiz-adv-x="765" 
d="M567 0l-8 44q-87 -56 -210 -56q-53 0 -93.5 8.5t-76.5 28.5t-55.5 59t-19.5 96v333h99v-316q0 -70 41.5 -100.5t125.5 -30.5q97 0 181 49v398h99v-513h-83zM193 617v101h107v-101h-107zM454 617v101h107v-101h-107z" />
    <glyph glyph-name="yacute" unicode="&#xfd;" horiz-adv-x="642" 
d="M55 -223q-33 0 -51 7v81q26 -6 50 -6q70 0 118 30.5t84 97.5l13 24l-257 502h110l201 -409l199 409h108l-271 -528q-53 -103 -122.5 -155.5t-181.5 -52.5zM268 588l110 158h128l-148 -158h-90z" />
    <glyph glyph-name="thorn" unicode="&#xfe;" horiz-adv-x="775" 
d="M115 -211v935h99v-258q75 59 189 59q144 0 224 -74t80 -194t-80 -194.5t-224 -74.5q-114 0 -189 56v-255h-99zM391 65q105 0 160 48.5t55 143.5t-55 143t-160 48q-98 0 -177 -50v-283q79 -50 177 -50z" />
    <glyph glyph-name="ydieresis" unicode="&#xff;" horiz-adv-x="642" 
d="M55 -223q-33 0 -51 7v81q26 -6 50 -6q70 0 118 30.5t84 97.5l13 24l-257 502h110l201 -409l199 409h108l-271 -528q-53 -103 -122.5 -155.5t-181.5 -52.5zM133 617v101h107v-101h-107zM394 617v101h107v-101h-107z" />
    <glyph glyph-name="Amacron" unicode="&#x100;" horiz-adv-x="853" 
d="M5 0l362 724h119l362 -724h-115l-90 179h-436l-89 -179h-113zM425 629l-181 -366h362zM251 806v75h348v-75h-348z" />
    <glyph glyph-name="amacron" unicode="&#x101;" horiz-adv-x="718" 
d="M531 0l-8 47q-82 -59 -218 -59q-101 0 -164 39.5t-63 114.5q0 159 314 159q45 0 123 -4v18q0 130 -170 130q-123 0 -218 -38v77q92 41 227 41q120 0 190 -50t70 -147v-328h-83zM324 64q120 0 191 50v114h-99q-127 0 -181.5 -19t-54.5 -63q0 -82 144 -82zM188 622v75h348
v-75h-348z" />
    <glyph glyph-name="Abreve" unicode="&#x102;" horiz-adv-x="853" 
d="M5 0l362 724h119l362 -724h-115l-90 179h-436l-89 -179h-113zM425 629l-181 -366h362zM425 765q-78 0 -125 45t-49 120h70q8 -89 104 -89t104 89h70q-2 -75 -49 -120t-125 -45z" />
    <glyph glyph-name="abreve" unicode="&#x103;" horiz-adv-x="718" 
d="M531 0l-8 47q-82 -59 -218 -59q-101 0 -164 39.5t-63 114.5q0 159 314 159q45 0 123 -4v18q0 130 -170 130q-123 0 -218 -38v77q92 41 227 41q120 0 190 -50t70 -147v-328h-83zM324 64q120 0 191 50v114h-99q-127 0 -181.5 -19t-54.5 -63q0 -82 144 -82zM362 581
q-78 0 -125 45t-49 120h70q8 -89 104 -89t104 89h70q-2 -75 -49 -120t-125 -45z" />
    <glyph glyph-name="Aogonek" unicode="&#x104;" horiz-adv-x="853" 
d="M763 -216q-57 0 -86 26.5t-29 63.5q0 63 85 126l-90 179h-436l-89 -179h-113l362 724h119l362 -724h-55q-70 -68 -70 -111q0 -49 58 -49q16 0 36 4v-54q-24 -6 -54 -6zM425 629l-181 -366h362z" />
    <glyph glyph-name="aogonek" unicode="&#x105;" horiz-adv-x="718" 
d="M560 -216q-57 0 -86 26.5t-29 63.5q0 64 86 126l-8 47q-82 -59 -218 -59q-101 0 -164 39.5t-63 114.5q0 159 314 159q45 0 123 -4v18q0 130 -170 130q-123 0 -218 -38v77q92 41 227 41q120 0 190 -50t70 -147v-328h-24q-70 -68 -70 -111q0 -49 58 -49q16 0 36 4v-54
q-24 -6 -54 -6zM324 64q120 0 191 50v114h-99q-127 0 -181.5 -19t-54.5 -63q0 -82 144 -82z" />
    <glyph glyph-name="Cacute" unicode="&#x106;" horiz-adv-x="768" 
d="M473 -12q-179 0 -289.5 97t-110.5 277q0 172 110.5 273t280.5 101q137 0 228 -39v-89q-99 40 -214 40q-140 0 -220 -72.5t-80 -213.5q0 -77 25.5 -134.5t69 -89.5t94 -47.5t108.5 -15.5q137 0 233 35v-86q-90 -36 -235 -36zM401 772l110 158h128l-148 -158h-90z" />
    <glyph glyph-name="cacute" unicode="&#x107;" horiz-adv-x="627" 
d="M356 -12q-134 0 -211 73t-77 196q0 120 78 194t228 74q111 0 183 -32v-81q-83 33 -185 33q-103 0 -152.5 -50t-49.5 -138q0 -91 52.5 -140t143.5 -49q107 0 199 42v-83q-91 -39 -209 -39zM315 588l110 158h128l-148 -158h-90z" />
    <glyph glyph-name="Ccircumflex" unicode="&#x108;" horiz-adv-x="768" 
d="M473 -12q-179 0 -289.5 97t-110.5 277q0 172 110.5 273t280.5 101q137 0 228 -39v-89q-99 40 -214 40q-140 0 -220 -72.5t-80 -213.5q0 -77 25.5 -134.5t69 -89.5t94 -47.5t108.5 -15.5q137 0 233 35v-86q-90 -36 -235 -36zM256 772l150 158h88l150 -158h-90l-104 80
l-104 -80h-90z" />
    <glyph glyph-name="ccircumflex" unicode="&#x109;" horiz-adv-x="627" 
d="M356 -12q-134 0 -211 73t-77 196q0 120 78 194t228 74q111 0 183 -32v-81q-83 33 -185 33q-103 0 -152.5 -50t-49.5 -138q0 -91 52.5 -140t143.5 -49q107 0 199 42v-83q-91 -39 -209 -39zM170 588l150 158h88l150 -158h-90l-104 80l-104 -80h-90z" />
    <glyph glyph-name="Cdotaccent" unicode="&#x10a;" horiz-adv-x="768" 
d="M473 -12q-179 0 -289.5 97t-110.5 277q0 172 110.5 273t280.5 101q137 0 228 -39v-89q-99 40 -214 40q-140 0 -220 -72.5t-80 -213.5q0 -77 25.5 -134.5t69 -89.5t94 -47.5t108.5 -15.5q137 0 233 35v-86q-90 -36 -235 -36zM395 795v109h111v-109h-111z" />
    <glyph glyph-name="cdotaccent" unicode="&#x10b;" horiz-adv-x="627" 
d="M356 -12q-134 0 -211 73t-77 196q0 120 78 194t228 74q111 0 183 -32v-81q-83 33 -185 33q-103 0 -152.5 -50t-49.5 -138q0 -91 52.5 -140t143.5 -49q107 0 199 42v-83q-91 -39 -209 -39zM309 611v109h111v-109h-111z" />
    <glyph glyph-name="Ccaron" unicode="&#x10c;" horiz-adv-x="768" 
d="M473 -12q-179 0 -289.5 97t-110.5 277q0 172 110.5 273t280.5 101q137 0 228 -39v-89q-99 40 -214 40q-140 0 -220 -72.5t-80 -213.5q0 -77 25.5 -134.5t69 -89.5t94 -47.5t108.5 -15.5q137 0 233 35v-86q-90 -36 -235 -36zM406 772l-150 158h90l104 -81l104 81h90
l-150 -158h-88z" />
    <glyph glyph-name="ccaron" unicode="&#x10d;" horiz-adv-x="627" 
d="M356 -12q-134 0 -211 73t-77 196q0 120 78 194t228 74q111 0 183 -32v-81q-83 33 -185 33q-103 0 -152.5 -50t-49.5 -138q0 -91 52.5 -140t143.5 -49q107 0 199 42v-83q-91 -39 -209 -39zM320 588l-150 158h90l104 -81l104 81h90l-150 -158h-88z" />
    <glyph glyph-name="Dcaron" unicode="&#x10e;" horiz-adv-x="877" 
d="M120 0v724h288q188 0 292 -97t104 -265q0 -162 -106.5 -262t-289.5 -100h-288zM415 640h-192v-556h192q138 0 211 76t73 202t-73 202t-211 76zM349 772l-150 158h90l104 -81l104 81h90l-150 -158h-88z" />
    <glyph glyph-name="dcaron" unicode="&#x10f;" horiz-adv-x="776" 
d="M365 -12q-137 0 -217 71t-80 198q0 126 80 197t223 71q117 0 191 -48v247h99v-724h-83l-8 45q-85 -57 -205 -57zM385 65q98 0 177 50v283q-79 50 -177 50q-105 0 -160 -48t-55 -143t55 -143.5t160 -48.5zM746 516l30 107l-25 101h61q26 0 42.5 -14.5t16.5 -39.5
q0 -18 -6 -37.5t-12.5 -32t-21.5 -40.5l-24 -44h-61z" />
    <glyph glyph-name="Dcroat" unicode="&#x110;" horiz-adv-x="889" 
d="M62 325v75h70v324h288q188 0 292 -97t104 -265q0 -162 -106.5 -262t-289.5 -100h-288v325h-70zM427 640h-192v-240h199v-75h-199v-241h192q138 0 211 76t73 202t-73 202t-211 76z" />
    <glyph glyph-name="dcroat" unicode="&#x111;" horiz-adv-x="776" 
d="M448 589v75h114v60h99v-60h75v-75h-75v-589h-83l-8 45q-85 -57 -205 -57q-137 0 -217 71t-80 198q0 126 80 197t223 71q117 0 191 -48v112h-114zM385 65q98 0 177 50v283q-79 50 -177 50q-105 0 -160 -48t-55 -143t55 -143.5t160 -48.5z" />
    <glyph glyph-name="Emacron" unicode="&#x112;" horiz-adv-x="772" 
d="M120 0v724h576v-84h-473v-226h413v-84h-413v-246h479v-84h-582zM238 806v75h348v-75h-348z" />
    <glyph glyph-name="emacron" unicode="&#x113;" horiz-adv-x="699" 
d="M369 -12q-147 0 -224 75.5t-77 200.5q0 114 76.5 187.5t209.5 73.5q132 0 207.5 -69.5t75.5 -180.5q0 -21 -2 -39h-468q5 -79 58.5 -123.5t154.5 -44.5q107 0 222 46v-79q-101 -47 -233 -47zM354 449q-76 0 -128 -38t-58 -99h372q-7 61 -58.5 99t-127.5 38zM187 622v75
h348v-75h-348z" />
    <glyph glyph-name="Ebreve" unicode="&#x114;" horiz-adv-x="772" 
d="M120 0v724h576v-84h-473v-226h413v-84h-413v-246h479v-84h-582zM412 765q-78 0 -125 45t-49 120h70q8 -89 104 -89t104 89h70q-2 -75 -49 -120t-125 -45z" />
    <glyph glyph-name="ebreve" unicode="&#x115;" horiz-adv-x="699" 
d="M369 -12q-147 0 -224 75.5t-77 200.5q0 114 76.5 187.5t209.5 73.5q132 0 207.5 -69.5t75.5 -180.5q0 -21 -2 -39h-468q5 -79 58.5 -123.5t154.5 -44.5q107 0 222 46v-79q-101 -47 -233 -47zM354 449q-76 0 -128 -38t-58 -99h372q-7 61 -58.5 99t-127.5 38zM361 581
q-78 0 -125 45t-49 120h70q8 -89 104 -89t104 89h70q-2 -75 -49 -120t-125 -45z" />
    <glyph glyph-name="Edotaccent" unicode="&#x116;" horiz-adv-x="772" 
d="M120 0v724h576v-84h-473v-226h413v-84h-413v-246h479v-84h-582zM357 795v109h111v-109h-111z" />
    <glyph glyph-name="edotaccent" unicode="&#x117;" horiz-adv-x="699" 
d="M369 -12q-147 0 -224 75.5t-77 200.5q0 114 76.5 187.5t209.5 73.5q132 0 207.5 -69.5t75.5 -180.5q0 -21 -2 -39h-468q5 -79 58.5 -123.5t154.5 -44.5q107 0 222 46v-79q-101 -47 -233 -47zM354 449q-76 0 -128 -38t-58 -99h372q-7 61 -58.5 99t-127.5 38zM306 611v109
h111v-109h-111z" />
    <glyph glyph-name="Eogonek" unicode="&#x118;" horiz-adv-x="772" 
d="M120 0v724h576v-84h-473v-226h413v-84h-413v-246h479v-84h-24q-70 -68 -70 -111q0 -49 58 -49q16 0 36 4v-54q-24 -6 -54 -6q-57 0 -86 26.5t-29 63.5q0 63 85 126h-498z" />
    <glyph glyph-name="eogonek" unicode="&#x119;" horiz-adv-x="699" 
d="M369 -12q-147 0 -224 75.5t-77 200.5q0 114 76.5 187.5t209.5 73.5q132 0 207.5 -69.5t75.5 -180.5q0 -21 -2 -39h-468q5 -79 58.5 -123.5t154.5 -44.5q107 0 222 46v-79q-94 -87 -94 -146q0 -49 58 -49q16 0 36 4v-54q-24 -6 -54 -6q-57 0 -86 26.5t-29 63.5
q0 67 79 129q-67 -15 -143 -15zM354 449q-76 0 -128 -38t-58 -99h372q-7 61 -58.5 99t-127.5 38z" />
    <glyph glyph-name="Ecaron" unicode="&#x11a;" horiz-adv-x="772" 
d="M120 0v724h576v-84h-473v-226h413v-84h-413v-246h479v-84h-582zM368 772l-150 158h90l104 -81l104 81h90l-150 -158h-88z" />
    <glyph glyph-name="ecaron" unicode="&#x11b;" horiz-adv-x="699" 
d="M369 -12q-147 0 -224 75.5t-77 200.5q0 114 76.5 187.5t209.5 73.5q132 0 207.5 -69.5t75.5 -180.5q0 -21 -2 -39h-468q5 -79 58.5 -123.5t154.5 -44.5q107 0 222 46v-79q-101 -47 -233 -47zM354 449q-76 0 -128 -38t-58 -99h372q-7 61 -58.5 99t-127.5 38zM317 588
l-150 158h90l104 -81l104 81h90l-150 -158h-88z" />
    <glyph glyph-name="Gcircumflex" unicode="&#x11c;" horiz-adv-x="894" 
d="M484 -12q-192 0 -301.5 97.5t-109.5 276.5q0 175 111 274.5t305 99.5q168 0 259 -39v-89q-99 40 -244 40q-159 0 -242.5 -71.5t-83.5 -214.5q0 -149 85 -218t236 -69q118 0 207 27v247h102v-315q-128 -46 -324 -46zM286 772l150 158h88l150 -158h-90l-104 80l-104 -80
h-90z" />
    <glyph glyph-name="gcircumflex" unicode="&#x11d;" horiz-adv-x="776" 
d="M352 -223q-152 0 -239 38v84q98 -41 233 -41q107 0 161.5 37t54.5 130v31q-84 -52 -197 -52q-138 0 -217.5 68t-79.5 193q0 124 80 192t223 68q124 0 200 -54l7 42h83v-496q0 -240 -309 -240zM385 81q98 0 177 50v267q-79 50 -177 50q-215 0 -215 -183q0 -184 215 -184z
M170 588l150 158h88l150 -158h-90l-104 80l-104 -80h-90z" />
    <glyph glyph-name="Gbreve" unicode="&#x11e;" horiz-adv-x="894" 
d="M484 -12q-192 0 -301.5 97.5t-109.5 276.5q0 175 111 274.5t305 99.5q168 0 259 -39v-89q-99 40 -244 40q-159 0 -242.5 -71.5t-83.5 -214.5q0 -149 85 -218t236 -69q118 0 207 27v247h102v-315q-128 -46 -324 -46zM480 765q-78 0 -125 45t-49 120h70q8 -89 104 -89
t104 89h70q-2 -75 -49 -120t-125 -45z" />
    <glyph glyph-name="gbreve" unicode="&#x11f;" horiz-adv-x="776" 
d="M352 -223q-152 0 -239 38v84q98 -41 233 -41q107 0 161.5 37t54.5 130v31q-84 -52 -197 -52q-138 0 -217.5 68t-79.5 193q0 124 80 192t223 68q124 0 200 -54l7 42h83v-496q0 -240 -309 -240zM385 81q98 0 177 50v267q-79 50 -177 50q-215 0 -215 -183q0 -184 215 -184z
M364 581q-78 0 -125 45t-49 120h70q8 -89 104 -89t104 89h70q-2 -75 -49 -120t-125 -45z" />
    <glyph glyph-name="Gdotaccent" unicode="&#x120;" horiz-adv-x="894" 
d="M484 -12q-192 0 -301.5 97.5t-109.5 276.5q0 175 111 274.5t305 99.5q168 0 259 -39v-89q-99 40 -244 40q-159 0 -242.5 -71.5t-83.5 -214.5q0 -149 85 -218t236 -69q118 0 207 27v247h102v-315q-128 -46 -324 -46zM425 795v109h111v-109h-111z" />
    <glyph glyph-name="gdotaccent" unicode="&#x121;" horiz-adv-x="776" 
d="M352 -223q-152 0 -239 38v84q98 -41 233 -41q107 0 161.5 37t54.5 130v31q-84 -52 -197 -52q-138 0 -217.5 68t-79.5 193q0 124 80 192t223 68q124 0 200 -54l7 42h83v-496q0 -240 -309 -240zM385 81q98 0 177 50v267q-79 50 -177 50q-215 0 -215 -183q0 -184 215 -184z
M309 611v109h111v-109h-111z" />
    <glyph glyph-name="Gcommaaccent" unicode="&#x122;" horiz-adv-x="894" 
d="M484 -12q-192 0 -301.5 97.5t-109.5 276.5q0 175 111 274.5t305 99.5q168 0 259 -39v-89q-99 40 -244 40q-159 0 -242.5 -71.5t-83.5 -214.5q0 -149 85 -218t236 -69q118 0 207 27v247h102v-315q-128 -46 -324 -46zM422 -240l-38 38l63 68l-22 92h61q26 0 42.5 -14.5
t16.5 -39.5q0 -51 -78 -110z" />
    <glyph glyph-name="gcommaaccent" unicode="&#x123;" horiz-adv-x="776" 
d="M352 -223q-152 0 -239 38v84q98 -41 233 -41q107 0 161.5 37t54.5 130v31q-84 -52 -197 -52q-138 0 -217.5 68t-79.5 193q0 124 80 192t223 68q124 0 200 -54l7 42h83v-496q0 -240 -309 -240zM385 81q98 0 177 50v267q-79 50 -177 50q-215 0 -215 -183q0 -184 215 -184z
M356 570q-26 0 -42.5 14.5t-16.5 39.5q0 54 78 113l45 34l38 -38l-64 -70l23 -93h-61z" />
    <glyph glyph-name="Hcircumflex" unicode="&#x124;" horiz-adv-x="912" 
d="M689 0v321h-466v-321h-103v724h103v-319h466v319h103v-724h-103zM262 772l150 158h88l150 -158h-90l-104 80l-104 -80h-90z" />
    <glyph glyph-name="hcircumflex" unicode="&#x125;" horiz-adv-x="775" 
d="M115 0v724h99v-260q89 61 217 61q240 0 240 -197v-328h-99v311q0 74 -39.5 105t-122.5 31q-110 0 -196 -54v-393h-99zM-30 772l150 158h88l150 -158h-90l-104 80l-104 -80h-90z" />
    <glyph glyph-name="Hbar" unicode="&#x126;" horiz-adv-x="912" 
d="M42 537v75h78v112h103v-112h466v112h103v-112h78v-75h-78v-537h-103v321h-466v-321h-103v537h-78zM223 405h466v132h-466v-132z" />
    <glyph glyph-name="hbar" unicode="&#x127;" horiz-adv-x="775" 
d="M40 589v75h75v60h99v-60h114v-75h-114v-125q89 61 217 61q240 0 240 -197v-328h-99v311q0 74 -39.5 105t-122.5 31q-110 0 -196 -54v-393h-99v589h-75z" />
    <glyph glyph-name="Itilde" unicode="&#x128;" horiz-adv-x="533" 
d="M80 640v84h373v-84h-135v-556h135v-84h-373v84h135v556h-135zM343 783q-39 0 -87 29.5t-65 29.5q-41 0 -46 -54h-69q0 55 28 93t84 38q39 0 87 -29.5t65 -29.5q41 0 46 54h69q0 -55 -28 -93t-84 -38z" />
    <glyph glyph-name="itilde" unicode="&#x129;" horiz-adv-x="329" 
d="M115 0v513h99v-513h-99zM242 599q-39 0 -87 29.5t-65 29.5q-41 0 -46 -54h-69q0 55 28 93t84 38q39 0 87 -29.5t65 -29.5q41 0 46 54h69q0 -55 -28 -93t-84 -38z" />
    <glyph glyph-name="Imacron" unicode="&#x12a;" horiz-adv-x="533" 
d="M80 640v84h373v-84h-135v-556h135v-84h-373v84h135v556h-135zM91 806v75h348v-75h-348z" />
    <glyph glyph-name="imacron" unicode="&#x12b;" horiz-adv-x="329" 
d="M115 0v513h99v-513h-99zM-9 622v75h348v-75h-348z" />
    <glyph glyph-name="Ibreve" unicode="&#x12c;" horiz-adv-x="533" 
d="M80 640v84h373v-84h-135v-556h135v-84h-373v84h135v556h-135zM265 765q-78 0 -125 45t-49 120h70q8 -89 104 -89t104 89h70q-2 -75 -49 -120t-125 -45z" />
    <glyph glyph-name="ibreve" unicode="&#x12d;" horiz-adv-x="329" 
d="M115 0v513h99v-513h-99zM165 581q-78 0 -125 45t-49 120h70q8 -89 104 -89t104 89h70q-2 -75 -49 -120t-125 -45z" />
    <glyph glyph-name="Iogonek" unicode="&#x12e;" horiz-adv-x="533" 
d="M288 -216q-57 0 -86 26.5t-29 63.5q0 63 85 126h-178v84h135v556h-135v84h373v-84h-135v-556h135v-84h-135q-70 -68 -70 -111q0 -49 58 -49q16 0 36 4v-54q-24 -6 -54 -6z" />
    <glyph glyph-name="iogonek" unicode="&#x12f;" horiz-adv-x="329" 
d="M115 0v513h99v-513h-14q-70 -68 -70 -111q0 -49 58 -49q16 0 36 4v-54q-24 -6 -54 -6q-57 0 -86 26.5t-29 63.5q0 63 85 126h-25zM115 616v108h99v-108h-99z" />
    <glyph glyph-name="Idotaccent" unicode="&#x130;" horiz-adv-x="533" 
d="M80 640v84h373v-84h-135v-556h135v-84h-373v84h135v556h-135zM210 795v109h111v-109h-111z" />
    <glyph glyph-name="dotlessi" unicode="&#x131;" horiz-adv-x="329" 
d="M115 0v513h99v-513h-99z" />
    <glyph glyph-name="IJ" unicode="&#x132;" horiz-adv-x="957" 
d="M80 640v84h373v-84h-135v-556h135v-84h-373v84h135v556h-135zM579 640v84h258v-617q0 -123 -54 -186t-175 -63q-56 0 -81 9v87q27 -9 74 -9q73 0 103 39t30 133v523h-155z" />
    <glyph glyph-name="ij" unicode="&#x133;" horiz-adv-x="658" 
d="M115 0v513h99v-513h-99zM115 616v108h99v-108h-99zM326 -223q-39 0 -68 8v77q31 -7 61 -7q70 0 97.5 37.5t27.5 123.5v497h99v-504q0 -120 -50.5 -176t-166.5 -56zM444 616v108h99v-108h-99z" />
    <glyph glyph-name="Jcircumflex" unicode="&#x134;" horiz-adv-x="424" 
d="M46 640v84h258v-617q0 -123 -54 -186t-175 -63q-55 0 -81 9v87q27 -9 74 -9q73 0 103 39t30 133v523h-155zM58 772l150 158h88l150 -158h-90l-104 80l-104 -80h-90z" />
    <glyph glyph-name="jcircumflex" unicode="&#x135;" horiz-adv-x="329" 
d="M-3 -223q-39 0 -68 8v77q31 -7 61 -7q70 0 97.5 37.5t27.5 123.5v497h99v-504q0 -120 -50.5 -176t-166.5 -56zM-29 588l150 158h88l150 -158h-90l-104 80l-104 -80h-90z" />
    <glyph glyph-name="Kcommaaccent" unicode="&#x136;" horiz-adv-x="845" 
d="M120 0v724h103v-328l452 328h152l-496 -354l511 -370h-161l-458 335v-335h-103zM373 -240l-38 38l63 68l-22 92h61q26 0 42.5 -14.5t16.5 -39.5q0 -51 -78 -110z" />
    <glyph glyph-name="kcommaaccent" unicode="&#x137;" horiz-adv-x="678" 
d="M115 0v724h99v-436l308 225h136l-347 -250l365 -263h-150l-312 234v-234h-99zM300 -240l-38 38l63 68l-22 92h61q26 0 42.5 -14.5t16.5 -39.5q0 -51 -78 -110z" />
    <glyph glyph-name="Lacute" unicode="&#x139;" horiz-adv-x="674" 
d="M120 0v724h103v-640h411v-84h-514zM124 772l110 158h128l-148 -158h-90z" />
    <glyph glyph-name="lacute" unicode="&#x13a;" horiz-adv-x="389" 
d="M248 -12q-74 0 -106 32.5t-32 99.5v604h99v-592q0 -33 13 -47.5t50 -14.5q57 0 95 10v-76q-56 -16 -119 -16zM110 772l110 158h128l-148 -158h-90z" />
    <glyph glyph-name="Lcommaaccent" unicode="&#x13b;" horiz-adv-x="674" 
d="M120 0v724h103v-640h411v-84h-514zM319 -240l-38 38l63 68l-22 92h61q26 0 42.5 -14.5t16.5 -39.5q0 -51 -78 -110z" />
    <glyph glyph-name="lcommaaccent" unicode="&#x13c;" horiz-adv-x="389" 
d="M248 -12q-74 0 -106 32.5t-32 99.5v604h99v-592q0 -33 13 -47.5t50 -14.5q57 0 95 10v-76q-56 -16 -119 -16zM180 -240l-38 38l63 68l-22 92h61q26 0 42.5 -14.5t16.5 -39.5q0 -51 -78 -110z" />
    <glyph glyph-name="Lcaron" unicode="&#x13d;" horiz-adv-x="674" 
d="M120 0v724h103v-640h411v-84h-514zM322 516l30 107l-25 101h61q26 0 42.5 -14.5t16.5 -39.5q0 -18 -6 -37.5t-12.5 -32t-21.5 -40.5l-24 -44h-61z" />
    <glyph glyph-name="lcaron" unicode="&#x13e;" horiz-adv-x="389" 
d="M248 -12q-74 0 -106 32.5t-32 99.5v604h99v-592q0 -33 13 -47.5t50 -14.5q57 0 95 10v-76q-56 -16 -119 -16zM268 516l30 107l-25 101h61q26 0 42.5 -14.5t16.5 -39.5q0 -18 -6 -37.5t-12.5 -32t-21.5 -40.5l-24 -44h-61z" />
    <glyph glyph-name="Ldot" unicode="&#x13f;" horiz-adv-x="674" 
d="M120 0v724h103v-640h411v-84h-514zM361 332v109h111v-109h-111z" />
    <glyph glyph-name="ldot" unicode="&#x140;" horiz-adv-x="429" 
d="M248 -12q-74 0 -106 32.5t-32 99.5v604h99v-592q0 -33 13 -47.5t50 -14.5q57 0 95 10v-76q-56 -16 -119 -16zM308 307v109h111v-109h-111z" />
    <glyph glyph-name="Lslash" unicode="&#x141;" horiz-adv-x="684" 
d="M52 221v84l78 45v374h103v-314l197 115v-85l-197 -115v-241h411v-84h-514v266z" />
    <glyph glyph-name="lslash" unicode="&#x142;" horiz-adv-x="409" 
d="M52 221v84l68 39v380h99v-322l113 66v-85l-113 -66v-185q0 -33 13 -47.5t50 -14.5q57 0 95 10v-76q-56 -16 -119 -16q-74 0 -106 32.5t-32 99.5v140z" />
    <glyph glyph-name="Nacute" unicode="&#x143;" horiz-adv-x="960" 
d="M120 0v724h112l507 -596v596h101v-724h-112l-507 595v-595h-101zM431 772l110 158h128l-148 -158h-90z" />
    <glyph glyph-name="nacute" unicode="&#x144;" horiz-adv-x="775" 
d="M115 0v513h83l8 -51q87 63 225 63q240 0 240 -197v-328h-99v311q0 74 -39.5 105t-122.5 31q-110 0 -196 -54v-393h-99zM348 588l110 158h128l-148 -158h-90z" />
    <glyph glyph-name="Ncommaaccent" unicode="&#x145;" horiz-adv-x="960" 
d="M120 0v724h112l507 -596v596h101v-724h-112l-507 595v-595h-101zM422 -240l-38 38l63 68l-22 92h61q26 0 42.5 -14.5t16.5 -39.5q0 -51 -78 -110z" />
    <glyph glyph-name="ncommaaccent" unicode="&#x146;" horiz-adv-x="775" 
d="M115 0v513h83l8 -51q87 63 225 63q240 0 240 -197v-328h-99v311q0 74 -39.5 105t-122.5 31q-110 0 -196 -54v-393h-99zM335 -240l-38 38l63 68l-22 92h61q26 0 42.5 -14.5t16.5 -39.5q0 -51 -78 -110z" />
    <glyph glyph-name="Ncaron" unicode="&#x147;" horiz-adv-x="960" 
d="M120 0v724h112l507 -596v596h101v-724h-112l-507 595v-595h-101zM436 772l-150 158h90l104 -81l104 81h90l-150 -158h-88z" />
    <glyph glyph-name="ncaron" unicode="&#x148;" horiz-adv-x="775" 
d="M115 0v513h83l8 -51q87 63 225 63q240 0 240 -197v-328h-99v311q0 74 -39.5 105t-122.5 31q-110 0 -196 -54v-393h-99zM353 588l-150 158h90l104 -81l104 81h90l-150 -158h-88z" />
    <glyph glyph-name="napostrophe" unicode="&#x149;" horiz-adv-x="1025" 
d="M44 479l80 133l-24 112h80q33 0 48 -11.5t15 -40.5q0 -24 -15.5 -52.5t-28.5 -44t-51 -58.5l-35 -38h-69zM365 0v513h83l8 -51q87 63 225 63q240 0 240 -197v-328h-99v311q0 74 -39.5 105t-122.5 31q-110 0 -196 -54v-393h-99z" />
    <glyph glyph-name="Omacron" unicode="&#x14c;" horiz-adv-x="918" 
d="M459 -12q-186 0 -286 102t-100 272q0 165 102.5 269.5t283.5 104.5q186 0 286 -102t100 -272q0 -165 -102.5 -269.5t-283.5 -104.5zM459 70q137 0 209 82t72 210t-72 210t-209 82t-209 -82t-72 -210t72 -210t209 -82zM285 806v75h348v-75h-348z" />
    <glyph glyph-name="omacron" unicode="&#x14d;" horiz-adv-x="754" 
d="M377 -12q-155 0 -232 73.5t-77 195.5q0 120 78 194t231 74q155 0 232 -73.5t77 -195.5q0 -120 -78 -194t-231 -74zM377 65q104 0 155.5 50.5t51.5 140.5t-52 141t-155 51q-104 0 -155.5 -50.5t-51.5 -140.5t52 -141t155 -51zM204 622v75h348v-75h-348z" />
    <glyph glyph-name="Obreve" unicode="&#x14e;" horiz-adv-x="918" 
d="M459 -12q-186 0 -286 102t-100 272q0 165 102.5 269.5t283.5 104.5q186 0 286 -102t100 -272q0 -165 -102.5 -269.5t-283.5 -104.5zM459 70q137 0 209 82t72 210t-72 210t-209 82t-209 -82t-72 -210t72 -210t209 -82zM459 765q-78 0 -125 45t-49 120h70q8 -89 104 -89
t104 89h70q-2 -75 -49 -120t-125 -45z" />
    <glyph glyph-name="obreve" unicode="&#x14f;" horiz-adv-x="754" 
d="M377 -12q-155 0 -232 73.5t-77 195.5q0 120 78 194t231 74q155 0 232 -73.5t77 -195.5q0 -120 -78 -194t-231 -74zM377 65q104 0 155.5 50.5t51.5 140.5t-52 141t-155 51q-104 0 -155.5 -50.5t-51.5 -140.5t52 -141t155 -51zM378 581q-78 0 -125 45t-49 120h70
q8 -89 104 -89t104 89h70q-2 -75 -49 -120t-125 -45z" />
    <glyph glyph-name="Ohungarumlaut" unicode="&#x150;" horiz-adv-x="918" 
d="M459 -12q-186 0 -286 102t-100 272q0 165 102.5 269.5t283.5 104.5q186 0 286 -102t100 -272q0 -165 -102.5 -269.5t-283.5 -104.5zM459 70q137 0 209 82t72 210t-72 210t-209 82t-209 -82t-72 -210t72 -210t209 -82zM309 772l70 158h121l-108 -158h-83zM526 772l70 158
h121l-108 -158h-83z" />
    <glyph glyph-name="ohungarumlaut" unicode="&#x151;" horiz-adv-x="754" 
d="M377 -12q-155 0 -232 73.5t-77 195.5q0 120 78 194t231 74q155 0 232 -73.5t77 -195.5q0 -120 -78 -194t-231 -74zM377 65q104 0 155.5 50.5t51.5 140.5t-52 141t-155 51q-104 0 -155.5 -50.5t-51.5 -140.5t52 -141t155 -51zM228 588l70 158h121l-108 -158h-83zM445 588
l70 158h121l-108 -158h-83z" />
    <glyph glyph-name="OE" unicode="&#x152;" horiz-adv-x="1307" 
d="M655 0q-124 -12 -171 -12q-191 0 -301 103t-110 271q0 163 112.5 268.5t298.5 105.5q47 0 171 -12h576v-84h-473v-226h413v-84h-413v-246h479v-84h-582zM484 70q103 0 171 12v560q-73 12 -171 12q-145 0 -225.5 -82.5t-80.5 -209.5t80.5 -209.5t225.5 -82.5z" />
    <glyph glyph-name="oe" unicode="&#x153;" horiz-adv-x="1215" 
d="M377 -12q-155 0 -232 73.5t-77 195.5q0 120 78 194t231 74q177 0 255 -116q77 116 238 116q132 0 207.5 -69.5t75.5 -180.5q0 -21 -2 -39h-468q11 -168 213 -168q107 0 222 46v-79q-101 -47 -233 -47q-178 0 -253 117q-77 -117 -255 -117zM377 65q104 0 155.5 50.5
t51.5 140.5t-52 141t-155 51q-104 0 -155.5 -50.5t-51.5 -140.5t52 -141t155 -51zM870 449q-76 0 -128 -38t-58 -99h372q-7 61 -58.5 99t-127.5 38z" />
    <glyph glyph-name="Racute" unicode="&#x154;" horiz-adv-x="807" 
d="M120 0v724h281q162 0 235 -54.5t73 -157.5q0 -84 -55.5 -136t-160.5 -68q25 -9 51 -37l243 -271h-132l-232 260q-22 24 -41 31t-62 7h-97v-298h-103zM379 640h-156v-260h156q124 0 174.5 30.5t50.5 101.5q0 70 -50 99t-175 29zM345 772l110 158h128l-148 -158h-90z" />
    <glyph glyph-name="racute" unicode="&#x155;" horiz-adv-x="522" 
d="M115 0v513h89l8 -93q68 103 193 103q55 0 91 -13v-88q-44 12 -103 12q-120 0 -179 -100v-334h-99zM263 588l110 158h128l-148 -158h-90z" />
    <glyph glyph-name="Rcommaaccent" unicode="&#x156;" horiz-adv-x="807" 
d="M120 0v724h281q162 0 235 -54.5t73 -157.5q0 -84 -55.5 -136t-160.5 -68q25 -9 51 -37l243 -271h-132l-232 260q-22 24 -41 31t-62 7h-97v-298h-103zM379 640h-156v-260h156q124 0 174.5 30.5t50.5 101.5q0 70 -50 99t-175 29zM369 -240l-38 38l63 68l-22 92h61
q26 0 42.5 -14.5t16.5 -39.5q0 -51 -78 -110z" />
    <glyph glyph-name="rcommaaccent" unicode="&#x157;" horiz-adv-x="522" 
d="M115 0v513h89l8 -93q68 103 193 103q55 0 91 -13v-88q-44 12 -103 12q-120 0 -179 -100v-334h-99zM106 -240l-38 38l63 68l-22 92h61q26 0 42.5 -14.5t16.5 -39.5q0 -51 -78 -110z" />
    <glyph glyph-name="Rcaron" unicode="&#x158;" horiz-adv-x="807" 
d="M120 0v724h281q162 0 235 -54.5t73 -157.5q0 -84 -55.5 -136t-160.5 -68q25 -9 51 -37l243 -271h-132l-232 260q-22 24 -41 31t-62 7h-97v-298h-103zM379 640h-156v-260h156q124 0 174.5 30.5t50.5 101.5q0 70 -50 99t-175 29zM350 772l-150 158h90l104 -81l104 81h90
l-150 -158h-88z" />
    <glyph glyph-name="rcaron" unicode="&#x159;" horiz-adv-x="522" 
d="M115 0v513h89l8 -93q68 103 193 103q55 0 91 -13v-88q-44 12 -103 12q-120 0 -179 -100v-334h-99zM268 588l-150 158h90l104 -81l104 81h90l-150 -158h-88z" />
    <glyph glyph-name="Sacute" unicode="&#x15a;" horiz-adv-x="756" 
d="M327 -12q-155 0 -258 39v88q124 -39 261 -39q114 0 176.5 28.5t62.5 80.5q0 48 -43.5 75t-162.5 60q-57 16 -93 27.5t-76 31t-62 40.5t-36 52.5t-13 70.5q2 90 83.5 142t233.5 52q147 0 245 -40v-89q-118 41 -247 41q-209 0 -209 -102q0 -49 39.5 -76t164.5 -61
q55 -15 86 -24.5t68.5 -24.5t57.5 -29.5t38.5 -35t25.5 -46.5t6 -60q-2 -92 -90 -146.5t-258 -54.5zM318 772l110 158h128l-148 -158h-90z" />
    <glyph glyph-name="sacute" unicode="&#x15b;" horiz-adv-x="641" 
d="M289 -12q-128 0 -209 37v76q94 -34 209 -34q180 0 180 73q0 18 -8.5 30t-32.5 21.5t-44 14t-67 13.5q-126 23 -178 55.5t-52 101.5q0 149 256 149q118 0 194 -38v-77q-85 36 -194 36q-82 0 -118.5 -17t-36.5 -52q0 -37 49 -54q25 -9 103 -24q125 -23 177.5 -56t52.5 -102
q0 -70 -73 -111.5t-208 -41.5zM285 588l110 158h128l-148 -158h-90z" />
    <glyph glyph-name="Scircumflex" unicode="&#x15c;" horiz-adv-x="756" 
d="M327 -12q-155 0 -258 39v88q124 -39 261 -39q114 0 176.5 28.5t62.5 80.5q0 48 -43.5 75t-162.5 60q-57 16 -93 27.5t-76 31t-62 40.5t-36 52.5t-13 70.5q2 90 83.5 142t233.5 52q147 0 245 -40v-89q-118 41 -247 41q-209 0 -209 -102q0 -49 39.5 -76t164.5 -61
q55 -15 86 -24.5t68.5 -24.5t57.5 -29.5t38.5 -35t25.5 -46.5t6 -60q-2 -92 -90 -146.5t-258 -54.5zM173 772l150 158h88l150 -158h-90l-104 80l-104 -80h-90z" />
    <glyph glyph-name="scircumflex" unicode="&#x15d;" horiz-adv-x="641" 
d="M289 -12q-128 0 -209 37v76q94 -34 209 -34q180 0 180 73q0 18 -8.5 30t-32.5 21.5t-44 14t-67 13.5q-126 23 -178 55.5t-52 101.5q0 149 256 149q118 0 194 -38v-77q-85 36 -194 36q-82 0 -118.5 -17t-36.5 -52q0 -37 49 -54q25 -9 103 -24q125 -23 177.5 -56t52.5 -102
q0 -70 -73 -111.5t-208 -41.5zM140 588l150 158h88l150 -158h-90l-104 80l-104 -80h-90z" />
    <glyph glyph-name="Scedilla" unicode="&#x15e;" horiz-adv-x="756" 
d="M310 -216q-26 0 -54 7v52q22 -5 47 -5q47 0 47 32q0 36 -68 48l42 70q-157 2 -255 39v88q124 -39 261 -39q114 0 176.5 28.5t62.5 80.5q0 48 -43.5 75t-162.5 60q-57 16 -93 27.5t-76 31t-62 40.5t-36 52.5t-13 70.5q2 90 83.5 142t233.5 52q147 0 245 -40v-89
q-118 41 -247 41q-209 0 -209 -102q0 -49 39.5 -76t164.5 -61q55 -15 86 -24.5t68.5 -24.5t57.5 -29.5t38.5 -35t25.5 -46.5t6 -60q-2 -85 -76.5 -138t-219.5 -61l-24 -50q29 -7 47 -25t18 -43q0 -43 -32 -65.5t-78 -22.5z" />
    <glyph glyph-name="scedilla" unicode="&#x15f;" horiz-adv-x="641" 
d="M258 -216q-26 0 -54 7v52q22 -5 47 -5q47 0 47 32q0 36 -68 48l42 70q-119 3 -192 37v76q94 -34 209 -34q180 0 180 73q0 18 -8.5 30t-32.5 21.5t-44 14t-67 13.5q-126 23 -178 55.5t-52 101.5q0 149 256 149q118 0 194 -38v-77q-85 36 -194 36q-82 0 -118.5 -17
t-36.5 -52q0 -37 49 -54q25 -9 103 -24q125 -23 177.5 -56t52.5 -102q0 -65 -63 -105.5t-180 -46.5l-24 -49q29 -7 47 -25t18 -43q0 -43 -32 -65.5t-78 -22.5z" />
    <glyph glyph-name="Scaron" unicode="&#x160;" horiz-adv-x="756" 
d="M327 -12q-155 0 -258 39v88q124 -39 261 -39q114 0 176.5 28.5t62.5 80.5q0 48 -43.5 75t-162.5 60q-57 16 -93 27.5t-76 31t-62 40.5t-36 52.5t-13 70.5q2 90 83.5 142t233.5 52q147 0 245 -40v-89q-118 41 -247 41q-209 0 -209 -102q0 -49 39.5 -76t164.5 -61
q55 -15 86 -24.5t68.5 -24.5t57.5 -29.5t38.5 -35t25.5 -46.5t6 -60q-2 -92 -90 -146.5t-258 -54.5zM323 772l-150 158h90l104 -81l104 81h90l-150 -158h-88z" />
    <glyph glyph-name="scaron" unicode="&#x161;" horiz-adv-x="641" 
d="M289 -12q-128 0 -209 37v76q94 -34 209 -34q180 0 180 73q0 18 -8.5 30t-32.5 21.5t-44 14t-67 13.5q-126 23 -178 55.5t-52 101.5q0 149 256 149q118 0 194 -38v-77q-85 36 -194 36q-82 0 -118.5 -17t-36.5 -52q0 -37 49 -54q25 -9 103 -24q125 -23 177.5 -56t52.5 -102
q0 -70 -73 -111.5t-208 -41.5zM290 588l-150 158h90l104 -81l104 81h90l-150 -158h-88z" />
    <glyph glyph-name="Tcommaaccent" unicode="&#x162;" horiz-adv-x="755" 
d="M33 640v84h689v-84h-293v-640h-103v640h-293zM319 -240l-38 38l63 68l-22 92h61q26 0 42.5 -14.5t16.5 -39.5q0 -51 -78 -110z" />
    <glyph glyph-name="tcommaaccent" unicode="&#x163;" horiz-adv-x="534" 
d="M34 435v78h115l12 128h82v-128h247v-78h-247v-273q0 -52 27.5 -73t90.5 -21q65 0 121 22v-77q-66 -25 -151 -25q-95 0 -140.5 38t-45.5 123v286h-111zM254 -240l-38 38l63 68l-22 92h61q26 0 42.5 -14.5t16.5 -39.5q0 -51 -78 -110z" />
    <glyph glyph-name="Tcaron" unicode="&#x164;" horiz-adv-x="755" 
d="M33 640v84h689v-84h-293v-640h-103v640h-293zM333 772l-150 158h90l104 -81l104 81h90l-150 -158h-88z" />
    <glyph glyph-name="tcaron" unicode="&#x165;" horiz-adv-x="534" 
d="M34 435v78h115l12 128h82v-128h247v-78h-247v-273q0 -52 27.5 -73t90.5 -21q65 0 121 22v-77q-66 -25 -151 -25q-95 0 -140.5 38t-45.5 123v286h-111zM348 606l30 107l-25 101h61q26 0 42.5 -14.5t16.5 -39.5q0 -18 -6 -37.5t-12.5 -32t-21.5 -40.5l-24 -44h-61z" />
    <glyph glyph-name="Tbar" unicode="&#x166;" horiz-adv-x="755" 
d="M33 640v84h689v-84h-293v-267h154v-75h-154v-298h-103v298h-154v75h154v267h-293z" />
    <glyph glyph-name="tbar" unicode="&#x167;" horiz-adv-x="534" 
d="M34 435v78h115l12 128h82v-128h247v-78h-247v-131h165v-75h-165v-67q0 -52 27.5 -73t90.5 -21q65 0 121 22v-77q-66 -25 -151 -25q-95 0 -140.5 38t-45.5 123v80h-63v75h63v131h-111z" />
    <glyph glyph-name="Utilde" unicode="&#x168;" horiz-adv-x="879" 
d="M439 -12q-153 0 -242 76t-89 209v451h103v-443q0 -102 57.5 -154.5t170.5 -52.5q114 0 171.5 52.5t57.5 154.5v443h103v-451q0 -133 -90 -209t-242 -76zM517 783q-39 0 -87 29.5t-65 29.5q-41 0 -46 -54h-69q0 55 28 93t84 38q39 0 87 -29.5t65 -29.5q41 0 46 54h69
q0 -55 -28 -93t-84 -38z" />
    <glyph glyph-name="utilde" unicode="&#x169;" horiz-adv-x="765" 
d="M567 0l-8 44q-87 -56 -210 -56q-53 0 -93.5 8.5t-76.5 28.5t-55.5 59t-19.5 96v333h99v-316q0 -70 41.5 -100.5t125.5 -30.5q97 0 181 49v398h99v-513h-83zM455 599q-39 0 -87 29.5t-65 29.5q-41 0 -46 -54h-69q0 55 28 93t84 38q39 0 87 -29.5t65 -29.5q41 0 46 54h69
q0 -55 -28 -93t-84 -38z" />
    <glyph glyph-name="Umacron" unicode="&#x16a;" horiz-adv-x="879" 
d="M439 -12q-153 0 -242 76t-89 209v451h103v-443q0 -102 57.5 -154.5t170.5 -52.5q114 0 171.5 52.5t57.5 154.5v443h103v-451q0 -133 -90 -209t-242 -76zM265 806v75h348v-75h-348z" />
    <glyph glyph-name="umacron" unicode="&#x16b;" horiz-adv-x="765" 
d="M567 0l-8 44q-87 -56 -210 -56q-53 0 -93.5 8.5t-76.5 28.5t-55.5 59t-19.5 96v333h99v-316q0 -70 41.5 -100.5t125.5 -30.5q97 0 181 49v398h99v-513h-83zM203 622v75h348v-75h-348z" />
    <glyph glyph-name="Ubreve" unicode="&#x16c;" horiz-adv-x="879" 
d="M439 -12q-153 0 -242 76t-89 209v451h103v-443q0 -102 57.5 -154.5t170.5 -52.5q114 0 171.5 52.5t57.5 154.5v443h103v-451q0 -133 -90 -209t-242 -76zM439 765q-78 0 -125 45t-49 120h70q8 -89 104 -89t104 89h70q-2 -75 -49 -120t-125 -45z" />
    <glyph glyph-name="ubreve" unicode="&#x16d;" horiz-adv-x="765" 
d="M567 0l-8 44q-87 -56 -210 -56q-53 0 -93.5 8.5t-76.5 28.5t-55.5 59t-19.5 96v333h99v-316q0 -70 41.5 -100.5t125.5 -30.5q97 0 181 49v398h99v-513h-83zM377 581q-78 0 -125 45t-49 120h70q8 -89 104 -89t104 89h70q-2 -75 -49 -120t-125 -45z" />
    <glyph glyph-name="Uring" unicode="&#x16e;" horiz-adv-x="879" 
d="M439 -12q-153 0 -242 76t-89 209v451h103v-443q0 -102 57.5 -154.5t170.5 -52.5q114 0 171.5 52.5t57.5 154.5v443h103v-451q0 -133 -90 -209t-242 -76zM550 874q0 -45 -32 -75.5t-79 -30.5t-79 30.5t-32 75.5t32 75.5t79 30.5t79 -30.5t32 -75.5zM494 874q0 22 -16 38.5
t-39 16.5t-39 -16.5t-16 -38.5q0 -23 15.5 -39t39.5 -16t39.5 16t15.5 39z" />
    <glyph glyph-name="uring" unicode="&#x16f;" horiz-adv-x="765" 
d="M567 0l-8 44q-87 -56 -210 -56q-53 0 -93.5 8.5t-76.5 28.5t-55.5 59t-19.5 96v333h99v-316q0 -70 41.5 -100.5t125.5 -30.5q97 0 181 49v398h99v-513h-83zM488 690q0 -45 -32 -75.5t-79 -30.5t-79 30.5t-32 75.5t32 75.5t79 30.5t79 -30.5t32 -75.5zM432 690
q0 22 -16 38.5t-39 16.5t-39 -16.5t-16 -38.5q0 -23 15.5 -39t39.5 -16t39.5 16t15.5 39z" />
    <glyph glyph-name="Uhungarumlaut" unicode="&#x170;" horiz-adv-x="879" 
d="M439 -12q-153 0 -242 76t-89 209v451h103v-443q0 -102 57.5 -154.5t170.5 -52.5q114 0 171.5 52.5t57.5 154.5v443h103v-451q0 -133 -90 -209t-242 -76zM289 772l70 158h121l-108 -158h-83zM506 772l70 158h121l-108 -158h-83z" />
    <glyph glyph-name="uhungarumlaut" unicode="&#x171;" horiz-adv-x="765" 
d="M567 0l-8 44q-87 -56 -210 -56q-53 0 -93.5 8.5t-76.5 28.5t-55.5 59t-19.5 96v333h99v-316q0 -70 41.5 -100.5t125.5 -30.5q97 0 181 49v398h99v-513h-83zM227 588l70 158h121l-108 -158h-83zM444 588l70 158h121l-108 -158h-83z" />
    <glyph glyph-name="Uogonek" unicode="&#x172;" horiz-adv-x="879" 
d="M468 -216q-57 0 -86 26.5t-29 63.5q0 71 74 114q-148 3 -233.5 78.5t-85.5 206.5v451h103v-443q0 -102 57.5 -154.5t170.5 -52.5q114 0 171.5 52.5t57.5 154.5v443h103v-451q0 -107 -59.5 -177t-168.5 -97q-49 -12 -82 -43.5t-33 -66.5q0 -49 58 -49q16 0 36 4v-54
q-24 -6 -54 -6z" />
    <glyph glyph-name="uogonek" unicode="&#x173;" horiz-adv-x="765" 
d="M596 -216q-57 0 -86 26.5t-29 63.5q0 64 86 126l-8 44q-87 -56 -210 -56q-53 0 -93.5 8.5t-76.5 28.5t-55.5 59t-19.5 96v333h99v-316q0 -70 41.5 -100.5t125.5 -30.5q97 0 181 49v398h99v-513h-24q-70 -68 -70 -111q0 -49 58 -49q16 0 36 4v-54q-24 -6 -54 -6z" />
    <glyph glyph-name="Wcircumflex" unicode="&#x174;" horiz-adv-x="1337" 
d="M321 0l-313 724h113l254 -611l245 611h97l248 -617l258 617h106l-313 -724h-105l-243 594l-242 -594h-105zM474 772l150 158h88l150 -158h-90l-104 80l-104 -80h-90z" />
    <glyph glyph-name="wcircumflex" unicode="&#x175;" horiz-adv-x="1035" 
d="M256 0l-240 513h108l179 -409l169 409h92l172 -408l177 408h106l-240 -513h-92l-171 408l-168 -408h-92zM323 588l150 158h88l150 -158h-90l-104 80l-104 -80h-90z" />
    <glyph glyph-name="Ycircumflex" unicode="&#x176;" horiz-adv-x="777" 
d="M337 0v270l-335 454h121l266 -371l269 371h117l-335 -453v-271h-103zM194 772l150 158h88l150 -158h-90l-104 80l-104 -80h-90z" />
    <glyph glyph-name="ycircumflex" unicode="&#x177;" horiz-adv-x="642" 
d="M55 -223q-33 0 -51 7v81q26 -6 50 -6q70 0 118 30.5t84 97.5l13 24l-257 502h110l201 -409l199 409h108l-271 -528q-53 -103 -122.5 -155.5t-181.5 -52.5zM123 588l150 158h88l150 -158h-90l-104 80l-104 -80h-90z" />
    <glyph glyph-name="Ydieresis" unicode="&#x178;" horiz-adv-x="777" 
d="M337 0v270l-335 454h121l266 -371l269 371h117l-335 -453v-271h-103zM204 801v101h107v-101h-107zM465 801v101h107v-101h-107z" />
    <glyph glyph-name="Zacute" unicode="&#x179;" horiz-adv-x="761" 
d="M334 772l110 158h128l-148 -158h-90zM66 0v79l488 561h-477v84h604v-79l-487 -561h501v-84h-629z" />
    <glyph glyph-name="zacute" unicode="&#x17a;" horiz-adv-x="646" 
d="M73 435v78h502v-67l-384 -368h397v-78h-530v68l382 367h-367zM273 588l110 158h128l-148 -158h-90z" />
    <glyph glyph-name="Zdotaccent" unicode="&#x17b;" horiz-adv-x="761" 
d="M328 795v109h111v-109h-111zM66 0v79l488 561h-477v84h604v-79l-487 -561h501v-84h-629z" />
    <glyph glyph-name="zdotaccent" unicode="&#x17c;" horiz-adv-x="646" 
d="M73 435v78h502v-67l-384 -368h397v-78h-530v68l382 367h-367zM267 611v109h111v-109h-111z" />
    <glyph glyph-name="Zcaron" unicode="&#x17d;" horiz-adv-x="761" 
d="M339 772l-150 158h90l104 -81l104 81h90l-150 -158h-88zM66 0v79l488 561h-477v84h604v-79l-487 -561h501v-84h-629z" />
    <glyph glyph-name="zcaron" unicode="&#x17e;" horiz-adv-x="646" 
d="M73 435v78h502v-67l-384 -368h397v-78h-530v68l382 367h-367zM278 588l-150 158h90l104 -81l104 81h90l-150 -158h-88z" />
    <glyph glyph-name="florin" unicode="&#x192;" 
d="M146 341l12 78h202l12 73q20 124 83 184t183 60q61 0 111 -16l-12 -77q-35 13 -91 13q-83 0 -122.5 -38.5t-55.5 -137.5l-10 -61h245l-12 -78h-245l-33 -208q-19 -120 -86 -179t-199 -59q-27 0 -49 6l11 76q14 -3 37 -3q84 0 128.5 37t59.5 125l33 205h-202z" />
    <glyph glyph-name="Scommaaccent" unicode="&#x218;" horiz-adv-x="756" 
d="M327 -12q-155 0 -258 39v88q124 -39 261 -39q114 0 176.5 28.5t62.5 80.5q0 48 -43.5 75t-162.5 60q-57 16 -93 27.5t-76 31t-62 40.5t-36 52.5t-13 70.5q2 90 83.5 142t233.5 52q147 0 245 -40v-89q-118 41 -247 41q-209 0 -209 -102q0 -49 39.5 -76t164.5 -61
q55 -15 86 -24.5t68.5 -24.5t57.5 -29.5t38.5 -35t25.5 -46.5t6 -60q-2 -92 -90 -146.5t-258 -54.5zM322 -240l-38 38l63 68l-22 92h61q26 0 42.5 -14.5t16.5 -39.5q0 -51 -78 -110z" />
    <glyph glyph-name="scommaaccent" unicode="&#x219;" horiz-adv-x="641" 
d="M289 -12q-128 0 -209 37v76q94 -34 209 -34q180 0 180 73q0 18 -8.5 30t-32.5 21.5t-44 14t-67 13.5q-126 23 -178 55.5t-52 101.5q0 149 256 149q118 0 194 -38v-77q-85 36 -194 36q-82 0 -118.5 -17t-36.5 -52q0 -37 49 -54q25 -9 103 -24q125 -23 177.5 -56t52.5 -102
q0 -70 -73 -111.5t-208 -41.5zM267 -240l-38 38l63 68l-22 92h61q26 0 42.5 -14.5t16.5 -39.5q0 -51 -78 -110z" />
    <glyph glyph-name="uni021A" unicode="&#x21a;" horiz-adv-x="755" 
d="M33 640v84h689v-84h-293v-640h-103v640h-293zM319 -240l-38 38l63 68l-22 92h61q26 0 42.5 -14.5t16.5 -39.5q0 -51 -78 -110z" />
    <glyph glyph-name="uni021B" unicode="&#x21b;" horiz-adv-x="534" 
d="M34 435v78h115l12 128h82v-128h247v-78h-247v-273q0 -52 27.5 -73t90.5 -21q65 0 121 22v-77q-66 -25 -151 -25q-95 0 -140.5 38t-45.5 123v286h-111zM254 -240l-38 38l63 68l-22 92h61q26 0 42.5 -14.5t16.5 -39.5q0 -51 -78 -110z" />
    <glyph glyph-name="dotlessj" unicode="&#x237;" horiz-adv-x="329" 
d="M-3 -223q-39 0 -68 8v77q31 -7 61 -7q70 0 97.5 37.5t27.5 123.5v497h99v-504q0 -120 -50.5 -176t-166.5 -56z" />
    <glyph glyph-name="circumflex" unicode="&#x2c6;" horiz-adv-x="504" 
d="M58 588l150 158h88l150 -158h-90l-104 80l-104 -80h-90z" />
    <glyph glyph-name="caron" unicode="&#x2c7;" horiz-adv-x="504" 
d="M208 588l-150 158h90l104 -81l104 81h90l-150 -158h-88z" />
    <glyph glyph-name="breve" unicode="&#x2d8;" horiz-adv-x="504" 
d="M252 581q-78 0 -125 45t-49 120h70q8 -89 104 -89t104 89h70q-2 -75 -49 -120t-125 -45z" />
    <glyph glyph-name="dotaccent" unicode="&#x2d9;" horiz-adv-x="504" 
d="M196 611v109h111v-109h-111z" />
    <glyph glyph-name="ring" unicode="&#x2da;" horiz-adv-x="504" 
d="M363 690q0 -45 -32 -75.5t-79 -30.5t-79 30.5t-32 75.5t32 75.5t79 30.5t79 -30.5t32 -75.5zM307 690q0 22 -16 38.5t-39 16.5t-39 -16.5t-16 -38.5q0 -23 15.5 -39t39.5 -16t39.5 16t15.5 39z" />
    <glyph glyph-name="ogonek" unicode="&#x2db;" horiz-adv-x="504" 
d="M282 -216q-57 0 -86 26.5t-29 63.5q0 67 99 136h57q-81 -77 -81 -121q0 -49 58 -49q16 0 36 4v-54q-24 -6 -54 -6z" />
    <glyph glyph-name="tilde" unicode="&#x2dc;" horiz-adv-x="504" 
d="M329 599q-39 0 -87 29.5t-65 29.5q-41 0 -46 -54h-69q0 55 28 93t84 38q39 0 87 -29.5t65 -29.5q41 0 46 54h69q0 -55 -28 -93t-84 -38z" />
    <glyph glyph-name="hungarumlaut" unicode="&#x2dd;" horiz-adv-x="504" 
d="M48 588l70 158h121l-108 -158h-83zM265 588l70 158h121l-108 -158h-83z" />
    <glyph glyph-name="commatop" unicode="&#x312;" horiz-adv-x="504" 
d="M230 570q-26 0 -42.5 14.5t-16.5 39.5q0 54 78 113l45 34l38 -38l-64 -70l23 -93h-61z" />
    <glyph glyph-name="caronslovak" unicode="&#x315;" horiz-adv-x="504" 
d="M189 516l30 107l-25 101h61q26 0 42.5 -14.5t16.5 -39.5q0 -18 -6 -37.5t-12.5 -32t-21.5 -40.5l-24 -44h-61z" />
    <glyph glyph-name="commaaccent" unicode="&#x326;" horiz-adv-x="504" 
d="M209 -240l-38 38l63 68l-22 92h61q26 0 42.5 -14.5t16.5 -39.5q0 -51 -78 -110z" />
    <glyph glyph-name="tonos" unicode="&#x384;" horiz-adv-x="504" 
d="M234 582l-45 176h126l-45 -176h-36z" />
    <glyph glyph-name="dieresistonos" unicode="&#x385;" horiz-adv-x="504" 
d="M234 582l-35 176h106l-35 -176h-36zM48 617v101h97v-101h-97zM359 617v101h97v-101h-97z" />
    <glyph glyph-name="Alphatonos" unicode="&#x386;" horiz-adv-x="853" 
d="M5 0l362 724h119l362 -724h-115l-90 179h-436l-89 -179h-113zM425 629l-181 -366h362zM134 548l-45 176h126l-45 -176h-36z" />
    <glyph glyph-name="Epsilontonos" unicode="&#x388;" horiz-adv-x="847" 
d="M195 0v724h576v-84h-473v-226h413v-84h-413v-246h479v-84h-582zM35 548l-45 176h126l-45 -176h-36z" />
    <glyph glyph-name="Etatonos" unicode="&#x389;" horiz-adv-x="987" 
d="M764 0v321h-466v-321h-103v724h103v-319h466v319h103v-724h-103zM35 548l-45 176h126l-45 -176h-36z" />
    <glyph glyph-name="Iotatonos" unicode="&#x38a;" horiz-adv-x="649" 
d="M196 640v84h373v-84h-135v-556h135v-84h-373v84h135v556h-135zM35 548l-45 176h126l-45 -176h-36z" />
    <glyph glyph-name="Omicrontonos" unicode="&#x38c;" horiz-adv-x="982" 
d="M523 -12q-186 0 -286 102t-100 272q0 165 102.5 269.5t283.5 104.5q186 0 286 -102t100 -272q0 -165 -102.5 -269.5t-283.5 -104.5zM523 70q137 0 209 82t72 210t-72 210t-209 82t-209 -82t-72 -210t72 -210t209 -82zM35 548l-45 176h126l-45 -176h-36z" />
    <glyph glyph-name="Upsilontonos" unicode="&#x38e;" horiz-adv-x="927" 
d="M487 0v270l-335 454h121l266 -371l269 371h117l-335 -453v-271h-103zM27 548l-45 176h126l-45 -176h-36z" />
    <glyph glyph-name="Omegatonos" unicode="&#x38f;" horiz-adv-x="1020" 
d="M88 0v84h192q-68 44 -106 116.5t-38 161.5q0 165 102.5 269.5t283.5 104.5q186 0 286 -102t100 -272q0 -89 -38 -161.5t-106 -116.5h192v-84h-353v79q100 30 150 104t50 179q0 128 -72 210t-209 82t-209 -82t-72 -210q0 -105 50 -179t150 -104v-79h-353zM35 548l-45 176
h126l-45 -176h-36z" />
    <glyph glyph-name="iotadieresistonos" unicode="&#x390;" horiz-adv-x="389" 
d="M248 -12q-74 0 -106 32.5t-32 99.5v393h99v-381q0 -33 13 -47.5t50 -14.5q57 0 95 10v-76q-56 -16 -119 -16zM141 582l-35 176h106l-35 -176h-36zM-45 617v101h97v-101h-97zM266 617v101h97v-101h-97z" />
    <glyph glyph-name="Alpha" unicode="&#x391;" horiz-adv-x="853" 
d="M5 0l362 724h119l362 -724h-115l-90 179h-436l-89 -179h-113zM425 629l-181 -366h362z" />
    <glyph glyph-name="Beta" unicode="&#x392;" horiz-adv-x="812" 
d="M120 0v724h273q152 0 230.5 -51.5t78.5 -150.5q0 -115 -117 -153q153 -39 153 -167q0 -99 -78.5 -150.5t-230.5 -51.5h-309zM407 322h-184v-239h184q116 0 170.5 26t54.5 93t-54.5 93.5t-170.5 26.5zM371 641h-148v-239h148q116 0 170.5 26.5t54.5 93.5t-54.5 93
t-170.5 26z" />
    <glyph glyph-name="Gamma" unicode="&#x393;" horiz-adv-x="667" 
d="M120 0v724h514v-84h-411v-640h-103z" />
    <glyph glyph-name="uni0394" unicode="&#x394;" horiz-adv-x="865" 
d="M48 0v79l328 645h113l328 -645v-79h-769zM431 616l-268 -532h536z" />
    <glyph glyph-name="Epsilon" unicode="&#x395;" horiz-adv-x="772" 
d="M120 0v724h576v-84h-473v-226h413v-84h-413v-246h479v-84h-582z" />
    <glyph glyph-name="Zeta" unicode="&#x396;" horiz-adv-x="761" 
d="M66 0v79l488 561h-477v84h604v-79l-487 -561h501v-84h-629z" />
    <glyph glyph-name="Eta" unicode="&#x397;" horiz-adv-x="912" 
d="M689 0v321h-466v-321h-103v724h103v-319h466v319h103v-724h-103z" />
    <glyph glyph-name="Theta" unicode="&#x398;" horiz-adv-x="918" 
d="M268 321v84h382v-84h-382zM459 -12q-186 0 -286 102t-100 272q0 165 102.5 269.5t283.5 104.5q186 0 286 -102t100 -272q0 -165 -102.5 -269.5t-283.5 -104.5zM459 70q137 0 209 82t72 210t-72 210t-209 82t-209 -82t-72 -210t72 -210t209 -82z" />
    <glyph glyph-name="Iota" unicode="&#x399;" horiz-adv-x="533" 
d="M80 640v84h373v-84h-135v-556h135v-84h-373v84h135v556h-135z" />
    <glyph glyph-name="Kappa" unicode="&#x39a;" horiz-adv-x="845" 
d="M120 0v724h103v-328l452 328h152l-496 -354l511 -370h-161l-458 335v-335h-103z" />
    <glyph glyph-name="Lambda" unicode="&#x39b;" horiz-adv-x="813" 
d="M463 724l345 -724h-114l-289 613l-288 -613h-112l345 724h113z" />
    <glyph glyph-name="Mu" unicode="&#x39c;" horiz-adv-x="1069" 
d="M120 0v724h112l305 -415l305 415h107v-724h-100v588l-286 -388h-57l-286 388v-588h-100z" />
    <glyph glyph-name="Nu" unicode="&#x39d;" horiz-adv-x="960" 
d="M120 0v724h112l507 -596v596h101v-724h-112l-507 595v-595h-101z" />
    <glyph glyph-name="Xi" unicode="&#x39e;" horiz-adv-x="741" 
d="M70 0v88h601v-88h-601zM130 328v88h475v-88h-475zM70 636v88h601v-88h-601z" />
    <glyph glyph-name="Omicron" unicode="&#x39f;" horiz-adv-x="918" 
d="M459 -12q-186 0 -286 102t-100 272q0 165 102.5 269.5t283.5 104.5q186 0 286 -102t100 -272q0 -165 -102.5 -269.5t-283.5 -104.5zM459 70q137 0 209 82t72 210t-72 210t-209 82t-209 -82t-72 -210t72 -210t209 -82z" />
    <glyph glyph-name="Pi" unicode="&#x3a0;" horiz-adv-x="892" 
d="M669 0v640h-446v-640h-103v724h652v-724h-103z" />
    <glyph glyph-name="Rho" unicode="&#x3a1;" horiz-adv-x="767" 
d="M120 0v724h286q303 0 303 -225q0 -106 -74.5 -167.5t-233.5 -61.5h-178v-270h-103zM384 640h-161v-286h161q120 0 170 36t50 109t-49.5 107t-170.5 34z" />
    <glyph glyph-name="Sigma" unicode="&#x3a3;" horiz-adv-x="768" 
d="M75 0v79l344 291l-344 275v79h618v-84h-478l302 -238v-65l-301 -253h477v-84h-618z" />
    <glyph glyph-name="Tau" unicode="&#x3a4;" horiz-adv-x="755" 
d="M33 640v84h689v-84h-293v-640h-103v640h-293z" />
    <glyph glyph-name="Upsilon" unicode="&#x3a5;" horiz-adv-x="777" 
d="M337 0v270l-335 454h121l266 -371l269 371h117l-335 -453v-271h-103z" />
    <glyph glyph-name="Phi" unicode="&#x3a6;" horiz-adv-x="1063" 
d="M482 0v76q-419 5 -419 289q0 75 32.5 131.5t91 89.5t132 49.5t163.5 18.5v70h99v-70q419 -7 419 -289q0 -76 -32.5 -132.5t-91 -89.5t-132 -49.5t-163.5 -17.5v-76h-99zM896 365q0 49 -17.5 86t-45.5 59.5t-70 36.5t-85.5 19.5t-96.5 6.5v-416q53 1 96.5 6.5t85.5 19.5
t70 36.5t45.5 59.5t17.5 86zM167 365q0 -49 17.5 -86t45.5 -59.5t70 -36.5t85.5 -19.5t96.5 -6.5v416q-53 -1 -96.5 -6.5t-85.5 -19.5t-70 -36.5t-45.5 -59.5t-17.5 -86z" />
    <glyph glyph-name="Chi" unicode="&#x3a7;" horiz-adv-x="793" 
d="M12 0l321 374l-298 350h130l231 -280l233 280h123l-296 -346l325 -378h-130l-258 308l-258 -308h-123z" />
    <glyph glyph-name="Psi" unicode="&#x3a8;" horiz-adv-x="969" 
d="M889 724v-192q0 -309 -353 -309v-223h-103v223q-353 0 -353 309v192h103v-180q0 -126 58 -181.5t192 -55.5v417h103v-417q134 0 192 55.5t58 181.5v180h103z" />
    <glyph glyph-name="uni03A9" unicode="&#x3a9;" horiz-adv-x="996" 
d="M64 0v84h192q-68 44 -106 116.5t-38 161.5q0 165 102.5 269.5t283.5 104.5q186 0 286 -102t100 -272q0 -89 -38 -161.5t-106 -116.5h192v-84h-353v79q100 30 150 104t50 179q0 128 -72 210t-209 82t-209 -82t-72 -210q0 -105 50 -179t150 -104v-79h-353z" />
    <glyph glyph-name="Iotadieresis" unicode="&#x3aa;" horiz-adv-x="533" 
d="M80 640v84h373v-84h-135v-556h135v-84h-373v84h135v556h-135zM81 801v101h107v-101h-107zM342 801v101h107v-101h-107z" />
    <glyph glyph-name="Upsilondieresis" unicode="&#x3ab;" horiz-adv-x="777" 
d="M337 0v270l-335 454h121l266 -371l269 371h117l-335 -453v-271h-103zM204 801v101h107v-101h-107zM465 801v101h107v-101h-107z" />
    <glyph glyph-name="alphatonos" unicode="&#x3ac;" horiz-adv-x="792" 
d="M334 525q132 0 229 -85l12 73h86v-393q0 -25 11.5 -35.5t35.5 -10.5q26 0 52 7v-74q-27 -15 -86 -15q-98 0 -108 87q-100 -91 -242 -91q-117 0 -186.5 72t-69.5 200q0 126 72 195.5t194 69.5zM340 66q130 0 222 92v196q-91 93 -212 93q-88 0 -134 -49.5t-46 -137.5
q0 -89 45 -141.5t125 -52.5zM356 582l-45 176h126l-45 -176h-36z" />
    <glyph glyph-name="epsilontonos" unicode="&#x3ad;" horiz-adv-x="669" 
d="M590 484v-78q-99 39 -227 39q-172 0 -172 -72q0 -37 47 -57.5t129 -20.5h111v-76h-123q-185 0 -185 -70q0 -81 194 -81q149 0 249 44v-77q-96 -47 -267 -47q-126 0 -202 39t-76 111q0 94 125 120q-104 32 -104 121q0 67 74 106.5t195 39.5q56 0 124 -11t108 -30zM319 582
l-45 176h126l-45 -176h-36z" />
    <glyph glyph-name="etatonos" unicode="&#x3ae;" horiz-adv-x="775" 
d="M115 0v513h83l8 -51q87 63 225 63q240 0 240 -197v-539h-99v522q0 74 -39.5 105t-122.5 31q-110 0 -196 -54v-393h-99zM379 582l-45 176h126l-45 -176h-36z" />
    <glyph glyph-name="iotatonos" unicode="&#x3af;" horiz-adv-x="389" 
d="M248 -12q-74 0 -106 32.5t-32 99.5v393h99v-381q0 -33 13 -47.5t50 -14.5q57 0 95 10v-76q-56 -16 -119 -16zM141 582l-45 176h126l-45 -176h-36z" />
    <glyph glyph-name="upsilondieresistonos" unicode="&#x3b0;" horiz-adv-x="736" 
d="M377 66q174 0 174 204q0 156 -42 243h101q14 -24 27 -86.5t13 -147.5q0 -138 -68 -214.5t-205 -76.5q-129 0 -201 67.5t-72 202.5v255h99v-243q0 -104 43 -154t131 -50zM359 582l-35 176h106l-35 -176h-36zM173 617v101h97v-101h-97zM484 617v101h97v-101h-97z" />
    <glyph glyph-name="alpha" unicode="&#x3b1;" horiz-adv-x="792" 
d="M334 525q132 0 229 -85l12 73h86v-393q0 -25 11.5 -35.5t35.5 -10.5q26 0 52 7v-74q-27 -15 -86 -15q-98 0 -108 87q-100 -91 -242 -91q-117 0 -186.5 72t-69.5 200q0 126 72 195.5t194 69.5zM340 66q130 0 222 92v196q-91 93 -212 93q-88 0 -134 -49.5t-46 -137.5
q0 -89 45 -141.5t125 -52.5z" />
    <glyph glyph-name="beta" unicode="&#x3b2;" horiz-adv-x="773" 
d="M115 -211v681q0 266 284 266q121 0 190 -49.5t70 -126.5q0 -66 -43.5 -112t-111.5 -66q104 -16 158.5 -67.5t54.5 -128.5q0 -83 -69 -140.5t-207 -57.5q-148 0 -227 54v-253h-99zM214 458v-337q96 -56 218 -56q91 0 137 33t46 88q0 77 -74.5 112.5t-214.5 39.5v76
q98 0 164.5 33.5t66.5 104.5q0 107 -165 107q-91 0 -134.5 -45.5t-43.5 -155.5z" />
    <glyph glyph-name="gamma" unicode="&#x3b3;" horiz-adv-x="662" 
d="M291 -211v219l-193 375q-17 33 -33 46.5t-38 13.5q-19 0 -41 -5v75q26 12 69 12q52 0 77 -21t52 -76l159 -324l199 409h108l-260 -507v-217h-99z" />
    <glyph glyph-name="delta" unicode="&#x3b4;" horiz-adv-x="754" 
d="M324 500q49 0 94 -14l-261 171v67h442v-75h-296l173 -112q111 -72 160.5 -136t49.5 -162q0 -108 -79.5 -179.5t-229.5 -71.5q-153 0 -231 69.5t-78 189.5q0 112 73.5 182.5t182.5 70.5zM584 247q0 88 -53 135t-154 47t-154 -47t-53 -135t53 -135t154 -47t154 47t53 135z
" />
    <glyph glyph-name="epsilon" unicode="&#x3b5;" horiz-adv-x="669" 
d="M590 484v-78q-99 39 -227 39q-172 0 -172 -72q0 -37 47 -57.5t129 -20.5h111v-76h-123q-185 0 -185 -70q0 -81 194 -81q149 0 249 44v-77q-96 -47 -267 -47q-126 0 -202 39t-76 111q0 94 125 120q-104 32 -104 121q0 67 74 106.5t195 39.5q56 0 124 -11t108 -30z" />
    <glyph glyph-name="zeta" unicode="&#x3b6;" horiz-adv-x="551" 
d="M379 -162q49 77 69 162h-93q-301 0 -301 223q0 111 94 232.5t216 190.5h-299v78h457v-67q-59 -26 -122 -71.5t-118.5 -102t-91 -123t-35.5 -126.5q0 -72 47 -112t166 -40h112q28 0 45.5 -15.5t17.5 -40.5q0 -46 -24.5 -98.5t-61.5 -89.5h-78z" />
    <glyph glyph-name="eta" unicode="&#x3b7;" horiz-adv-x="775" 
d="M115 0v513h83l8 -51q87 63 225 63q240 0 240 -197v-539h-99v522q0 74 -39.5 105t-122.5 31q-110 0 -196 -54v-393h-99z" />
    <glyph glyph-name="theta" unicode="&#x3b8;" horiz-adv-x="754" 
d="M377 -14q-155 0 -232 103t-77 273q0 169 77.5 271.5t231.5 102.5q155 0 232 -103t77 -273q0 -169 -77.5 -271.5t-231.5 -102.5zM377 68q98 0 150.5 65.5t59.5 189.5h-420q7 -124 59.5 -189.5t150.5 -65.5zM377 654q-98 0 -150.5 -65t-59.5 -188h420q-8 123 -60.5 188
t-149.5 65z" />
    <glyph glyph-name="iota" unicode="&#x3b9;" horiz-adv-x="389" 
d="M248 -12q-74 0 -106 32.5t-32 99.5v393h99v-381q0 -33 13 -47.5t50 -14.5q57 0 95 10v-76q-56 -16 -119 -16z" />
    <glyph glyph-name="kappa" unicode="&#x3ba;" horiz-adv-x="678" 
d="M115 0v513h99v-225l308 225h136l-347 -250l365 -263h-150l-312 234v-234h-99z" />
    <glyph glyph-name="lambda" unicode="&#x3bb;" horiz-adv-x="688" 
d="M11 0l273 512l-3 7q-42 84 -70 110t-78 26q-36 0 -60 -8v77q27 10 80 10q42 0 72.5 -10.5t55.5 -35t43 -53.5t42 -77l208 -423q16 -34 31.5 -47t38.5 -13q20 0 42 5v-75q-26 -12 -69 -12q-49 0 -74.5 21.5t-51.5 75.5l-157 330l-215 -420h-108z" />
    <glyph glyph-name="uni03BC" unicode="&#x3bc;" horiz-adv-x="792" 
d="M360 -12q-93 0 -155 47q9 -36 9 -69v-177h-99v724h99v-316q0 -68 47 -99.5t120 -31.5q97 0 181 49v398h99v-397q0 -25 11.5 -35.5t35.5 -10.5q26 0 52 7v-74q-27 -15 -86 -15q-78 0 -101 58q-89 -58 -213 -58z" />
    <glyph glyph-name="nu" unicode="&#x3bd;" horiz-adv-x="642" 
d="M275 0l-263 513h110l201 -409l199 409h108l-263 -513h-92z" />
    <glyph glyph-name="xi" unicode="&#x3be;" horiz-adv-x="585" 
d="M514 707v-78q-72 27 -173 27q-74 0 -114 -27t-40 -79q0 -104 168 -104h95v-76h-90q-104 0 -149 -35.5t-45 -107.5q0 -69 60.5 -107t185.5 -38h88q28 0 45.5 -15.5t17.5 -40.5q0 -46 -24.5 -98.5t-61.5 -89.5h-78q49 77 69 162h-69q-172 0 -253.5 61t-81.5 162
q0 65 35 113.5t101 73.5q-115 42 -115 146q0 77 65.5 128.5t175.5 51.5q117 0 188 -29z" />
    <glyph glyph-name="omicron" unicode="&#x3bf;" horiz-adv-x="754" 
d="M377 -12q-155 0 -232 73.5t-77 195.5q0 120 78 194t231 74q155 0 232 -73.5t77 -195.5q0 -120 -78 -194t-231 -74zM377 65q104 0 155.5 50.5t51.5 140.5t-52 141t-155 51q-104 0 -155.5 -50.5t-51.5 -140.5t52 -141t155 -51z" />
    <glyph glyph-name="pi" unicode="&#x3c0;" horiz-adv-x="808" 
d="M30 435v78h738v-78h-132v-322q0 -27 15 -36.5t46 -9.5q33 0 45 4v-71q-33 -12 -85 -12q-62 0 -91 26t-29 86v335h-284v-435h-99v435h-124z" />
    <glyph glyph-name="rho" unicode="&#x3c1;" horiz-adv-x="761" 
d="M100 -211v440q0 134 72.5 215t222.5 81q148 0 223 -74t75 -195q0 -120 -76 -194t-222 -74q-123 0 -196 48v-247h-99zM380 65q104 0 157.5 51t53.5 140t-50 140.5t-146 51.5q-196 0 -196 -225v-107q81 -51 181 -51z" />
    <glyph glyph-name="sigma1" unicode="&#x3c2;" horiz-adv-x="627" 
d="M417 -162q49 77 69 162h-69q-179 0 -264 70.5t-85 186.5q0 120 78 194t228 74q111 0 183 -32v-81q-83 33 -185 33q-103 0 -152.5 -50t-49.5 -138q0 -175 260 -175h88q28 0 45.5 -15.5t17.5 -40.5q0 -46 -24.5 -98.5t-61.5 -89.5h-78z" />
    <glyph glyph-name="sigma" unicode="&#x3c3;" horiz-adv-x="794" 
d="M376 -12q-153 0 -230.5 74t-77.5 195q0 119 77 187.5t231 68.5h388v-78h-157q32 -32 54 -82.5t22 -100.5q0 -114 -77.5 -189t-229.5 -75zM582 256q0 50 -21.5 99t-56.5 80h-119q-215 0 -215 -178q0 -89 52.5 -140.5t153.5 -51.5q103 0 154.5 50.5t51.5 140.5z" />
    <glyph glyph-name="tau" unicode="&#x3c4;" horiz-adv-x="568" 
d="M16 435v78h536v-78h-250v-303q0 -33 13 -47.5t50 -14.5q57 0 95 10v-76q-56 -16 -119 -16q-74 0 -106 32.5t-32 99.5v315h-187z" />
    <glyph glyph-name="upsilon" unicode="&#x3c5;" horiz-adv-x="736" 
d="M377 66q174 0 174 204q0 156 -42 243h101q14 -24 27 -86.5t13 -147.5q0 -138 -68 -214.5t-205 -76.5q-129 0 -201 67.5t-72 202.5v255h99v-243q0 -104 43 -154t131 -50z" />
    <glyph glyph-name="phi" unicode="&#x3c6;" horiz-adv-x="926" 
d="M511 -211h-95v206q-173 1 -264.5 70t-91.5 192q0 121 93 190.5t263 70.5v206h95v-206q172 -1 263.5 -70t91.5 -192q0 -122 -92.5 -191t-262.5 -70v-206zM162 257q0 -87 64.5 -135.5t189.5 -49.5v369q-125 -1 -189.5 -49t-64.5 -135zM764 256q0 87 -64.5 135.5
t-188.5 49.5v-369q124 1 188.5 49t64.5 135z" />
    <glyph glyph-name="chi" unicode="&#x3c7;" horiz-adv-x="697" 
d="M39 -211l260 368l-146 221q-40 60 -85 60q-23 0 -45 -5v75q26 12 73 12q48 0 77 -22.5t63 -74.5l123 -187l192 277h110l-251 -353l156 -236q40 -60 85 -60q23 0 45 5v-75q-26 -12 -73 -12q-48 0 -77 22.5t-63 74.5l-134 201l-201 -291h-109z" />
    <glyph glyph-name="psi" unicode="&#x3c8;" horiz-adv-x="900" 
d="M511 -6h-7v-205h-95v205q-148 4 -226.5 70.5t-78.5 209.5v239h99v-227q0 -114 48 -162.5t158 -51.5v652h95v-652h7q204 0 204 206q0 148 -42 235h100q41 -73 41 -235q0 -133 -77.5 -208.5t-225.5 -75.5z" />
    <glyph glyph-name="omega" unicode="&#x3c9;" horiz-adv-x="999" 
d="M310 -12q-115 0 -175.5 70t-60.5 186q0 95 47 169t103 100h110q-159 -97 -159 -269q0 -82 35 -131t109 -49q61 0 96 43.5t35 126.5v116h99v-116q0 -83 35 -126.5t96 -43.5q74 0 109 49t35 131q0 172 -159 269h110q56 -26 103 -100t47 -169q0 -116 -60.5 -186t-175.5 -70
q-139 0 -190 98q-51 -98 -189 -98z" />
    <glyph glyph-name="iotadieresis" unicode="&#x3ca;" horiz-adv-x="389" 
d="M248 -12q-74 0 -106 32.5t-32 99.5v393h99v-381q0 -33 13 -47.5t50 -14.5q57 0 95 10v-76q-56 -16 -119 -16zM-25 617v101h107v-101h-107zM236 617v101h107v-101h-107z" />
    <glyph glyph-name="upsilondieresis" unicode="&#x3cb;" horiz-adv-x="736" 
d="M377 66q174 0 174 204q0 156 -42 243h101q14 -24 27 -86.5t13 -147.5q0 -138 -68 -214.5t-205 -76.5q-129 0 -201 67.5t-72 202.5v255h99v-243q0 -104 43 -154t131 -50zM193 617v101h107v-101h-107zM454 617v101h107v-101h-107z" />
    <glyph glyph-name="omicrontonos" unicode="&#x3cc;" horiz-adv-x="754" 
d="M377 -12q-155 0 -232 73.5t-77 195.5q0 120 78 194t231 74q155 0 232 -73.5t77 -195.5q0 -120 -78 -194t-231 -74zM377 65q104 0 155.5 50.5t51.5 140.5t-52 141t-155 51q-104 0 -155.5 -50.5t-51.5 -140.5t52 -141t155 -51zM360 582l-45 176h126l-45 -176h-36z" />
    <glyph glyph-name="upsilontonos" unicode="&#x3cd;" horiz-adv-x="736" 
d="M377 66q174 0 174 204q0 156 -42 243h101q14 -24 27 -86.5t13 -147.5q0 -138 -68 -214.5t-205 -76.5q-129 0 -201 67.5t-72 202.5v255h99v-243q0 -104 43 -154t131 -50zM359 582l-45 176h126l-45 -176h-36z" />
    <glyph glyph-name="omegatonos" unicode="&#x3ce;" horiz-adv-x="999" 
d="M310 -12q-115 0 -175.5 70t-60.5 186q0 95 47 169t103 100h110q-159 -97 -159 -269q0 -82 35 -131t109 -49q61 0 96 43.5t35 126.5v116h99v-116q0 -83 35 -126.5t96 -43.5q74 0 109 49t35 131q0 172 -159 269h110q56 -26 103 -100t47 -169q0 -116 -60.5 -186t-175.5 -70
q-139 0 -190 98q-51 -98 -189 -98zM482 582l-45 176h126l-45 -176h-36z" />
    <glyph glyph-name="uni0400" unicode="&#x400;" horiz-adv-x="772" 
d="M120 0v724h576v-84h-473v-226h413v-84h-413v-246h479v-84h-582zM372 772l-148 158h128l110 -158h-90z" />
    <glyph glyph-name="uni0401" unicode="&#x401;" horiz-adv-x="772" 
d="M120 0v724h576v-84h-473v-226h413v-84h-413v-246h479v-84h-582zM228 801v101h107v-101h-107zM489 801v101h107v-101h-107z" />
    <glyph glyph-name="uni0402" unicode="&#x402;" horiz-adv-x="966" 
d="M33 640v84h609v-84h-253v-195h212q313 0 313 -222q0 -103 -77.5 -163t-231.5 -60h-80v83h58q118 0 171.5 33.5t53.5 106.5t-53.5 106t-171.5 33h-194v-362h-103v640h-253z" />
    <glyph glyph-name="uni0403" unicode="&#x403;" horiz-adv-x="667" 
d="M120 0v724h514v-84h-411v-640h-103zM328 772l110 158h128l-148 -158h-90z" />
    <glyph glyph-name="uni0404" unicode="&#x404;" horiz-adv-x="768" 
d="M473 -12q-179 0 -289.5 97t-110.5 277q0 172 110.5 273t280.5 101q137 0 228 -39v-89q-99 40 -214 40q-127 0 -206 -60.5t-92 -178.5h406v-84h-407q12 -129 96 -189.5t200 -60.5q137 0 233 35v-86q-90 -36 -235 -36z" />
    <glyph glyph-name="uni0405" unicode="&#x405;" horiz-adv-x="756" 
d="M327 -12q-155 0 -258 39v88q124 -39 261 -39q114 0 176.5 28.5t62.5 80.5q0 48 -43.5 75t-162.5 60q-57 16 -93 27.5t-76 31t-62 40.5t-36 52.5t-13 70.5q2 90 83.5 142t233.5 52q147 0 245 -40v-89q-118 41 -247 41q-209 0 -209 -102q0 -49 39.5 -76t164.5 -61
q55 -15 86 -24.5t68.5 -24.5t57.5 -29.5t38.5 -35t25.5 -46.5t6 -60q-2 -92 -90 -146.5t-258 -54.5z" />
    <glyph glyph-name="uni0406" unicode="&#x406;" horiz-adv-x="533" 
d="M80 640v84h373v-84h-135v-556h135v-84h-373v84h135v556h-135z" />
    <glyph glyph-name="uni0407" unicode="&#x407;" horiz-adv-x="533" 
d="M80 640v84h373v-84h-135v-556h135v-84h-373v84h135v556h-135zM81 801v101h107v-101h-107zM342 801v101h107v-101h-107z" />
    <glyph glyph-name="uni0408" unicode="&#x408;" horiz-adv-x="424" 
d="M46 640v84h258v-617q0 -123 -54 -186t-175 -63q-55 0 -81 9v87q27 -9 74 -9q73 0 103 39t30 133v523h-155z" />
    <glyph glyph-name="uni0409" unicode="&#x409;" horiz-adv-x="1342" 
d="M85 -7q-51 0 -79 16v76q21 -8 55 -8q55 0 89 29.5t55.5 106t29.5 196.5t8 315h542v-279h192q313 0 313 -222q0 -103 -77.5 -163t-231.5 -60h-299v640h-337q-9 -332 -42 -452q-53 -195 -218 -195zM959 362h-174v-279h174q118 0 171.5 33.5t53.5 106.5t-53.5 106t-171.5 33
z" />
    <glyph glyph-name="uni040A" unicode="&#x40a;" horiz-adv-x="1309" 
d="M649 0v321h-426v-321h-103v724h103v-319h426v319h103v-279h192q313 0 313 -222q0 -103 -77.5 -163t-231.5 -60h-299zM926 362h-174v-279h174q118 0 171.5 33.5t53.5 106.5t-53.5 106t-171.5 33z" />
    <glyph glyph-name="uni040B" unicode="&#x40b;" horiz-adv-x="972" 
d="M618 491q123 0 196.5 -55t73.5 -179v-257h-103v239q0 86 -44 126t-144 40q-108 0 -208 -46v-359h-103v640h-253v84h609v-84h-253v-202q101 53 229 53z" />
    <glyph glyph-name="uni040C" unicode="&#x40c;" horiz-adv-x="827" 
d="M120 0v724h103v-317h92q43 0 62 7t41 31l259 279h126l-281 -300q-40 -42 -73 -57q37 -14 79 -58l293 -309h-132l-267 287q-22 24 -41 31t-62 7h-96v-325h-103zM390 772l110 158h128l-148 -158h-90z" />
    <glyph glyph-name="uni040D" unicode="&#x40d;" horiz-adv-x="960" 
d="M840 724v-724h-101v599l-507 -599h-112v724h101v-600l507 600h112zM440 772l-148 158h128l110 -158h-90z" />
    <glyph glyph-name="uni040E" unicode="&#x40e;" horiz-adv-x="728" 
d="M200 -6q-41 0 -67 11v83q24 -9 54 -9q50 0 86 27.5t65 85.5l-328 532h117l262 -439l225 439h112l-300 -570q-46 -87 -97.5 -123.5t-128.5 -36.5zM380 765q-78 0 -125 45t-49 120h70q8 -89 104 -89t104 89h70q-2 -75 -49 -120t-125 -45z" />
    <glyph glyph-name="uni040F" unicode="&#x40f;" horiz-adv-x="872" 
d="M120 0v724h103v-640h426v640h103v-724h-269v-178h-95v178h-268z" />
    <glyph glyph-name="uni0410" unicode="&#x410;" horiz-adv-x="853" 
d="M5 0l362 724h119l362 -724h-115l-90 179h-436l-89 -179h-113zM425 629l-181 -366h362z" />
    <glyph glyph-name="uni0411" unicode="&#x411;" 
d="M120 0v724h574v-84h-471v-235h202q156 0 234.5 -49t78.5 -153q0 -99 -78.5 -151t-230.5 -52h-309zM407 322h-184v-239h184q116 0 170.5 26.5t54.5 93.5t-54.5 93t-170.5 26z" />
    <glyph glyph-name="uni0412" unicode="&#x412;" horiz-adv-x="812" 
d="M120 0v724h273q152 0 230.5 -51.5t78.5 -150.5q0 -115 -117 -153q153 -39 153 -167q0 -99 -78.5 -150.5t-230.5 -51.5h-309zM407 322h-184v-239h184q116 0 170.5 26t54.5 93t-54.5 93.5t-170.5 26.5zM371 641h-148v-239h148q116 0 170.5 26.5t54.5 93.5t-54.5 93
t-170.5 26z" />
    <glyph glyph-name="uni0413" unicode="&#x413;" horiz-adv-x="667" 
d="M120 0v724h514v-84h-411v-640h-103z" />
    <glyph glyph-name="uni0414" unicode="&#x414;" horiz-adv-x="929" 
d="M10 -178v262h41q72 0 113 54.5t62 194.5t21 391h532v-640h120v-262h-95v178h-699v-178h-95zM676 640h-325q-8 -250 -41 -393q-26 -111 -82 -163h448v556z" />
    <glyph glyph-name="uni0415" unicode="&#x415;" horiz-adv-x="772" 
d="M120 0v724h576v-84h-473v-226h413v-84h-413v-246h479v-84h-582z" />
    <glyph glyph-name="uni0416" unicode="&#x416;" horiz-adv-x="1223" 
d="M12 0l273 309q39 43 77 58q-39 19 -71 57l-261 300h126l239 -279q21 -24 40 -31t63 -7h62v317h103v-317h62q44 0 63 7t40 31l239 279h126l-261 -300q-35 -40 -72 -57q38 -15 78 -58l273 -309h-132l-247 287q-21 24 -40 31t-63 7h-66v-325h-103v325h-66q-44 0 -63 -7
t-40 -31l-247 -287h-132z" />
    <glyph glyph-name="uni0417" unicode="&#x417;" horiz-adv-x="702" 
d="M304 -12q-142 0 -250 40v87q129 -39 252 -39q93 0 153 31.5t60 90.5q0 62 -57.5 98.5t-164.5 36.5h-107v83h107q187 0 187 123q0 54 -51.5 82.5t-128.5 28.5q-134 0 -236 -41v85q98 42 236 42q132 0 208.5 -51t76.5 -142q0 -112 -118 -165q72 -23 112.5 -72t40.5 -112
q0 -92 -86.5 -149t-233.5 -57z" />
    <glyph glyph-name="uni0418" unicode="&#x418;" horiz-adv-x="960" 
d="M840 724v-724h-101v599l-507 -599h-112v724h101v-600l507 600h112z" />
    <glyph glyph-name="uni0419" unicode="&#x419;" horiz-adv-x="960" 
d="M840 724v-724h-101v599l-507 -599h-112v724h101v-600l507 600h112zM480 765q-78 0 -125 45t-49 120h70q8 -89 104 -89t104 89h70q-2 -75 -49 -120t-125 -45z" />
    <glyph glyph-name="uni041A" unicode="&#x41a;" horiz-adv-x="827" 
d="M120 0v724h103v-317h92q43 0 62 7t41 31l259 279h126l-281 -300q-40 -42 -73 -57q37 -14 79 -58l293 -309h-132l-267 287q-22 24 -41 31t-62 7h-96v-325h-103z" />
    <glyph glyph-name="uni041B" unicode="&#x41b;" horiz-adv-x="915" 
d="M692 0v640h-347q-9 -332 -42 -452q-53 -195 -218 -195q-51 0 -79 16v76q21 -8 55 -8q55 0 89 29.5t55.5 106t29.5 196.5t8 315h552v-724h-103z" />
    <glyph glyph-name="uni041C" unicode="&#x41c;" horiz-adv-x="1069" 
d="M120 0v724h112l305 -415l305 415h107v-724h-100v588l-286 -388h-57l-286 388v-588h-100z" />
    <glyph glyph-name="uni041D" unicode="&#x41d;" horiz-adv-x="912" 
d="M689 0v321h-466v-321h-103v724h103v-319h466v319h103v-724h-103z" />
    <glyph glyph-name="uni041E" unicode="&#x41e;" horiz-adv-x="918" 
d="M459 -12q-186 0 -286 102t-100 272q0 165 102.5 269.5t283.5 104.5q186 0 286 -102t100 -272q0 -165 -102.5 -269.5t-283.5 -104.5zM459 70q137 0 209 82t72 210t-72 210t-209 82t-209 -82t-72 -210t72 -210t209 -82z" />
    <glyph glyph-name="uni041F" unicode="&#x41f;" horiz-adv-x="892" 
d="M669 0v640h-446v-640h-103v724h652v-724h-103z" />
    <glyph glyph-name="uni0420" unicode="&#x420;" horiz-adv-x="767" 
d="M120 0v724h286q303 0 303 -225q0 -106 -74.5 -167.5t-233.5 -61.5h-178v-270h-103zM384 640h-161v-286h161q120 0 170 36t50 109t-49.5 107t-170.5 34z" />
    <glyph glyph-name="uni0421" unicode="&#x421;" horiz-adv-x="768" 
d="M473 -12q-179 0 -289.5 97t-110.5 277q0 172 110.5 273t280.5 101q137 0 228 -39v-89q-99 40 -214 40q-140 0 -220 -72.5t-80 -213.5q0 -77 25.5 -134.5t69 -89.5t94 -47.5t108.5 -15.5q137 0 233 35v-86q-90 -36 -235 -36z" />
    <glyph glyph-name="uni0422" unicode="&#x422;" horiz-adv-x="755" 
d="M33 640v84h689v-84h-293v-640h-103v640h-293z" />
    <glyph glyph-name="uni0423" unicode="&#x423;" horiz-adv-x="728" 
d="M200 -6q-41 0 -67 11v83q24 -9 54 -9q50 0 86 27.5t65 85.5l-328 532h117l262 -439l225 439h112l-300 -570q-46 -87 -97.5 -123.5t-128.5 -36.5z" />
    <glyph glyph-name="uni0424" unicode="&#x424;" horiz-adv-x="1045" 
d="M473 0v76q-419 5 -419 289q0 75 32.5 131.5t91 89.5t132 49.5t163.5 18.5v70h99v-70q419 -7 419 -289q0 -76 -32.5 -132.5t-91 -89.5t-132 -49.5t-163.5 -17.5v-76h-99zM887 365q0 49 -17.5 86t-45.5 59.5t-70 36.5t-85.5 19.5t-96.5 6.5v-416q53 1 96.5 6.5t85.5 19.5
t70 36.5t45.5 59.5t17.5 86zM158 365q0 -49 17.5 -86t45.5 -59.5t70 -36.5t85.5 -19.5t96.5 -6.5v416q-53 -1 -96.5 -6.5t-85.5 -19.5t-70 -36.5t-45.5 -59.5t-17.5 -86z" />
    <glyph glyph-name="uni0425" unicode="&#x425;" horiz-adv-x="793" 
d="M12 0l321 374l-298 350h130l231 -280l233 280h123l-296 -346l325 -378h-130l-258 308l-258 -308h-123z" />
    <glyph glyph-name="uni0426" unicode="&#x426;" horiz-adv-x="902" 
d="M120 0v724h103v-640h426v640h103v-640h120v-262h-95v178h-657z" />
    <glyph glyph-name="uni0427" unicode="&#x427;" horiz-adv-x="806" 
d="M354 243q-123 0 -196.5 55t-73.5 179v247h103v-229q0 -86 44 -126t144 -40q112 0 208 28v367h103v-724h-103v278q-102 -35 -229 -35z" />
    <glyph glyph-name="uni0428" unicode="&#x428;" horiz-adv-x="1301" 
d="M120 0v724h103v-640h376v640h103v-640h376v640h103v-724h-1061z" />
    <glyph glyph-name="uni0429" unicode="&#x429;" horiz-adv-x="1331" 
d="M120 0v724h103v-640h376v640h103v-640h376v640h103v-640h120v-262h-95v178h-1086z" />
    <glyph glyph-name="uni042A" unicode="&#x42a;" horiz-adv-x="1006" 
d="M33 640v84h396v-279h212q313 0 313 -222q0 -103 -77.5 -163t-231.5 -60h-319v640h-293zM623 362h-194v-278h194q118 0 171.5 33t53.5 106t-53.5 106t-171.5 33z" />
    <glyph glyph-name="uni042B" unicode="&#x42b;" horiz-adv-x="1102" 
d="M120 0v724h103v-279h192q313 0 313 -222q0 -103 -77.5 -163t-231.5 -60h-299zM397 362h-174v-278h174q118 0 171.5 33t53.5 106t-53.5 106t-171.5 33zM879 0v724h103v-724h-103z" />
    <glyph glyph-name="uni042C" unicode="&#x42c;" 
d="M120 0v724h103v-279h212q313 0 313 -222q0 -103 -77.5 -163t-231.5 -60h-319zM417 362h-194v-278h194q118 0 171.5 33t53.5 106t-53.5 106t-171.5 33z" />
    <glyph glyph-name="uni042D" unicode="&#x42d;" horiz-adv-x="768" 
d="M295 -12q-145 0 -235 36v86q96 -35 233 -35q54 0 102 13.5t90.5 41.5t69.5 78t33 117h-406v84h405q-13 117 -91.5 178t-205.5 61q-115 0 -214 -40v89q91 39 228 39q170 0 280.5 -101t110.5 -273q0 -180 -110.5 -277t-289.5 -97z" />
    <glyph glyph-name="uni042E" unicode="&#x42e;" horiz-adv-x="1238" 
d="M120 0v724h103v-319h195q13 148 111 239.5t262 91.5q180 0 277 -102t97 -272q0 -165 -99 -269.5t-275 -104.5q-169 0 -265 90t-108 243h-195v-321h-103zM791 70q132 0 200.5 81.5t68.5 210.5t-68.5 210.5t-200.5 81.5t-200.5 -81.5t-68.5 -210.5t68.5 -210.5t200.5 -81.5
z" />
    <glyph glyph-name="uni042F" unicode="&#x42f;" horiz-adv-x="807" 
d="M687 724v-724h-103v298h-97q-43 0 -62 -7t-41 -31l-232 -260h-132l243 271q24 27 50 37q-105 16 -160 68t-55 136q0 103 73 157.5t235 54.5h281zM203 512q0 -71 50.5 -101.5t174.5 -30.5h156v260h-156q-125 0 -175 -29t-50 -99z" />
    <glyph glyph-name="uni0430" unicode="&#x430;" horiz-adv-x="718" 
d="M531 0l-8 47q-82 -59 -218 -59q-101 0 -164 39.5t-63 114.5q0 159 314 159q45 0 123 -4v18q0 130 -170 130q-123 0 -218 -38v77q92 41 227 41q120 0 190 -50t70 -147v-328h-83zM324 64q120 0 191 50v114h-99q-127 0 -181.5 -19t-54.5 -63q0 -82 144 -82z" />
    <glyph glyph-name="uni0431" unicode="&#x431;" horiz-adv-x="754" 
d="M404 634q-204 -19 -225 -204q38 29 96.5 47.5t121.5 18.5q137 0 217 -67t80 -187q0 -113 -79.5 -183.5t-235.5 -70.5q-155 0 -228 87.5t-73 266.5q0 343 316 372l235 22v-81zM177 365v-19q0 -149 51 -215t156 -66q101 0 154.5 48t53.5 129q0 86 -55.5 132t-159.5 46
q-106 0 -200 -55z" />
    <glyph glyph-name="uni0432" unicode="&#x432;" horiz-adv-x="725" 
d="M115 513h295q212 0 212 -143q0 -76 -75 -106q106 -30 106 -117q0 -147 -223 -147h-315v513zM427 224h-213v-147h213q122 0 122 72q0 75 -122 75zM400 436h-186v-139h186q119 0 119 70q0 69 -119 69z" />
    <glyph glyph-name="uni0433" unicode="&#x433;" horiz-adv-x="592" 
d="M115 513h447v-78h-348v-435h-99v513z" />
    <glyph glyph-name="uni0434" unicode="&#x434;" horiz-adv-x="797" 
d="M99 -178h-89v256h35q89 0 117.5 94t30.5 341h472v-435h102v-256h-89v178h-579v-178zM251 151q-18 -51 -60 -73h375v357h-278q-4 -190 -37 -284z" />
    <glyph glyph-name="uni0435" unicode="&#x435;" horiz-adv-x="699" 
d="M369 -12q-147 0 -224 75.5t-77 200.5q0 114 76.5 187.5t209.5 73.5q132 0 207.5 -69.5t75.5 -180.5q0 -21 -2 -39h-468q5 -79 58.5 -123.5t154.5 -44.5q107 0 222 46v-79q-101 -47 -233 -47zM354 449q-76 0 -128 -38t-58 -99h372q-7 61 -58.5 99t-127.5 38z" />
    <glyph glyph-name="uni0436" unicode="&#x436;" horiz-adv-x="985" 
d="M10 0l205 211q32 34 72 49q-37 15 -68 48l-199 205h123l174 -181q19 -21 38 -28t56 -7h32v216h99v-216h32q37 0 56 7t38 28l174 181h123l-199 -205q-31 -32 -69 -48q41 -16 73 -49l205 -211h-131l-180 187q-19 21 -38 28t-56 7h-28v-222h-99v222h-28q-37 0 -56 -7
t-38 -28l-180 -187h-131z" />
    <glyph glyph-name="uni0437" unicode="&#x437;" horiz-adv-x="661" 
d="M315 -12q-171 0 -267 47v77q100 -44 249 -44q194 0 194 81q0 70 -185 70h-123v76h111q82 0 129 20.5t47 57.5q0 72 -172 72q-128 0 -227 -39v78q40 19 108 30t124 11q121 0 195 -39.5t74 -106.5q0 -89 -105 -121q126 -26 126 -120q0 -72 -76 -111t-202 -39z" />
    <glyph glyph-name="uni0438" unicode="&#x438;" horiz-adv-x="838" 
d="M216 0h-101v513h97v-404l408 404h103v-513h-97v404z" />
    <glyph glyph-name="uni0439" unicode="&#x439;" horiz-adv-x="838" 
d="M216 0h-101v513h97v-404l408 404h103v-513h-97v404zM419 581q-78 0 -125 45t-49 120h70q8 -89 104 -89t104 89h70q-2 -75 -49 -120t-125 -45z" />
    <glyph glyph-name="uni043A" unicode="&#x43a;" horiz-adv-x="683" 
d="M115 0v513h99v-216h44q35 0 53.5 7.5t40.5 27.5l190 181h123l-215 -205q-35 -33 -71 -48q36 -14 75 -49l221 -211h-131l-196 187q-22 20 -40.5 27.5t-53.5 7.5h-40v-222h-99z" />
    <glyph glyph-name="uni043B" unicode="&#x43b;" horiz-adv-x="797" 
d="M78 -6q-38 0 -63 11v75q24 -4 38 -4q31 0 53 9.5t37.5 34.5t24.5 55.5t14 85t6.5 110t1.5 142.5h492v-513h-99v435h-295q-2 -126 -9 -191.5t-25 -120.5q-20 -58 -64.5 -93.5t-111.5 -35.5z" />
    <glyph glyph-name="uni043C" unicode="&#x43c;" horiz-adv-x="963" 
d="M512 124h-61l-241 270v-394h-95v513h107l261 -295l262 295h103v-513h-95v394z" />
    <glyph glyph-name="uni043D" unicode="&#x43d;" horiz-adv-x="819" 
d="M115 513h99v-205h391v205h99v-513h-99v230h-391v-230h-99v513z" />
    <glyph glyph-name="uni043E" unicode="&#x43e;" horiz-adv-x="754" 
d="M377 -12q-155 0 -232 73.5t-77 195.5q0 120 78 194t231 74q155 0 232 -73.5t77 -195.5q0 -120 -78 -194t-231 -74zM377 65q104 0 155.5 50.5t51.5 140.5t-52 141t-155 51q-104 0 -155.5 -50.5t-51.5 -140.5t52 -141t155 -51z" />
    <glyph glyph-name="uni043F" unicode="&#x43f;" horiz-adv-x="796" 
d="M115 513h566v-513h-99v435h-368v-435h-99v513z" />
    <glyph glyph-name="uni0440" unicode="&#x440;" horiz-adv-x="776" 
d="M115 -211v724h83l7 -45q86 57 206 57q137 0 217 -70.5t80 -197.5q0 -126 -80 -197.5t-223 -71.5q-118 0 -191 48v-247h-99zM391 66q105 0 160 48t55 143t-55 143.5t-160 48.5q-98 0 -177 -50v-283q79 -50 177 -50z" />
    <glyph glyph-name="uni0441" unicode="&#x441;" horiz-adv-x="627" 
d="M356 -12q-134 0 -211 73t-77 196q0 120 78 194t228 74q111 0 183 -32v-81q-83 33 -185 33q-103 0 -152.5 -50t-49.5 -138q0 -91 52.5 -140t143.5 -49q107 0 199 42v-83q-91 -39 -209 -39z" />
    <glyph glyph-name="uni0442" unicode="&#x442;" horiz-adv-x="619" 
d="M30 435v78h559v-78h-230v-435h-99v435h-230z" />
    <glyph glyph-name="uni0443" unicode="&#x443;" horiz-adv-x="642" 
d="M55 -223q-33 0 -51 7v81q26 -6 50 -6q70 0 118 30.5t84 97.5l13 24l-257 502h110l201 -409l199 409h108l-271 -528q-53 -103 -122.5 -155.5t-181.5 -52.5z" />
    <glyph glyph-name="uni0444" unicode="&#x444;" horiz-adv-x="1075" 
d="M488 -211v245q-27 -21 -71.5 -33.5t-87.5 -12.5q-123 0 -190 74t-67 195q0 120 65.5 194t183.5 74q104 0 167 -51v250h99v-250q63 51 167 51q118 0 183.5 -74t65.5 -194q0 -121 -67 -195t-190 -74q-43 0 -87.5 12.5t-71.5 33.5v-245h-99zM736 65q81 0 123.5 50t42.5 142
t-42.5 141.5t-123.5 49.5q-90 0 -149 -42v-302q54 -39 149 -39zM339 65q95 0 149 39v302q-59 42 -149 42q-81 0 -123.5 -49.5t-42.5 -141.5t42.5 -142t123.5 -50z" />
    <glyph glyph-name="uni0445" unicode="&#x445;" horiz-adv-x="658" 
d="M18 0l250 261l-242 252h128l174 -189l176 189h123l-240 -251l253 -262h-128l-185 199l-186 -199h-123z" />
    <glyph glyph-name="uni0446" unicode="&#x446;" horiz-adv-x="796" 
d="M115 0v513h99v-435h351v435h99v-435h102v-246h-89v168h-562z" />
    <glyph glyph-name="uni0447" unicode="&#x447;" horiz-adv-x="753" 
d="M638 0h-99v191q-89 -43 -207 -43q-115 0 -182.5 50.5t-67.5 161.5v153h99v-136q0 -79 40 -114.5t132 -35.5q105 0 186 39v247h99v-513z" />
    <glyph glyph-name="uni0448" unicode="&#x448;" horiz-adv-x="1179" 
d="M115 0v513h99v-435h326v435h99v-435h326v435h99v-513h-949z" />
    <glyph glyph-name="uni0449" unicode="&#x449;" horiz-adv-x="1196" 
d="M115 0v513h99v-435h326v435h99v-435h326v435h99v-435h102v-246h-89v168h-962z" />
    <glyph glyph-name="uni044A" unicode="&#x44a;" horiz-adv-x="862" 
d="M30 435v78h329v-179h223q222 0 222 -167q0 -74 -52.5 -120.5t-173.5 -46.5h-318v435h-230zM569 256h-210v-178h210q72 0 102.5 22t30.5 67t-30.5 67t-102.5 22z" />
    <glyph glyph-name="uni044B" unicode="&#x44b;" horiz-adv-x="972" 
d="M643 167q0 -74 -52.5 -120.5t-173.5 -46.5h-302v513h99v-179h207q222 0 222 -167zM408 256h-194v-178h194q72 0 102.5 22t30.5 67t-30.5 67t-102.5 22zM758 513h99v-513h-99v513z" />
    <glyph glyph-name="uni044C" unicode="&#x44c;" horiz-adv-x="717" 
d="M659 167q0 -74 -52.5 -120.5t-173.5 -46.5h-318v513h99v-179h223q222 0 222 -167zM424 256h-210v-178h210q72 0 102.5 22t30.5 67t-30.5 67t-102.5 22z" />
    <glyph glyph-name="uni044D" unicode="&#x44d;" horiz-adv-x="647" 
d="M140 223v76h336q-11 70 -65 108.5t-146 38.5q-113 0 -195 -33v78q77 34 193 34q152 0 234 -73t82 -195q0 -125 -81 -197t-217 -72q-123 0 -219 41v80q92 -42 209 -42q86 0 142 39.5t64 116.5h-337z" />
    <glyph glyph-name="uni044E" unicode="&#x44e;" horiz-adv-x="1044" 
d="M115 513h99v-205h164q15 97 89.5 157t207.5 60q78 0 137.5 -21.5t94.5 -59.5t52 -85t17 -103q0 -116 -75 -192t-226 -76q-144 0 -218 67t-82 175h-161v-230h-99v513zM675 448q-101 0 -150 -53t-49 -138q0 -86 49 -139t150 -53t150 53t49 138q0 86 -49 139t-150 53z" />
    <glyph glyph-name="uni044F" unicode="&#x44f;" horiz-adv-x="699" 
d="M584 513v-513h-99v201h-61q-36 0 -54.5 -7t-39.5 -28l-165 -166h-125l175 175q25 25 51 35q-168 25 -168 150q0 75 59.5 114t174.5 39h252zM202 359q0 -42 33 -62.5t107 -20.5h143v160h-143q-140 0 -140 -77z" />
    <glyph glyph-name="uni0450" unicode="&#x450;" horiz-adv-x="699" 
d="M369 -12q-147 0 -224 75.5t-77 200.5q0 114 76.5 187.5t209.5 73.5q132 0 207.5 -69.5t75.5 -180.5q0 -21 -2 -39h-468q5 -79 58.5 -123.5t154.5 -44.5q107 0 222 46v-79q-101 -47 -233 -47zM354 449q-76 0 -128 -38t-58 -99h372q-7 61 -58.5 99t-127.5 38zM321 588
l-148 158h128l110 -158h-90z" />
    <glyph glyph-name="uni0451" unicode="&#x451;" horiz-adv-x="699" 
d="M369 -12q-147 0 -224 75.5t-77 200.5q0 114 76.5 187.5t209.5 73.5q132 0 207.5 -69.5t75.5 -180.5q0 -21 -2 -39h-468q5 -79 58.5 -123.5t154.5 -44.5q107 0 222 46v-79q-101 -47 -233 -47zM354 449q-76 0 -128 -38t-58 -99h372q-7 61 -58.5 99t-127.5 38zM177 617v101
h107v-101h-107zM438 617v101h107v-101h-107z" />
    <glyph glyph-name="uni0452" unicode="&#x452;" horiz-adv-x="752" 
d="M40 589v75h75v60h99v-60h114v-75h-114v-124q80 51 185 51q273 0 273 -360q0 -190 -79 -284.5t-215 -94.5q-59 0 -90 11v75q37 -8 70 -8q113 0 162.5 74t49.5 227q0 87 -14.5 146t-57.5 97.5t-115 38.5q-90 0 -169 -50v-388h-99v589h-75z" />
    <glyph glyph-name="uni0453" unicode="&#x453;" horiz-adv-x="592" 
d="M115 513h447v-78h-348v-435h-99v513zM289 588l110 158h128l-148 -158h-90z" />
    <glyph glyph-name="uni0454" unicode="&#x454;" horiz-adv-x="647" 
d="M507 299v-76h-337q8 -77 64 -116.5t142 -39.5q117 0 209 42v-80q-96 -41 -219 -41q-136 0 -217 72t-81 197q0 122 82 195t234 73q116 0 193 -34v-78q-83 33 -195 33q-92 0 -146.5 -38.5t-64.5 -108.5h336z" />
    <glyph glyph-name="uni0455" unicode="&#x455;" horiz-adv-x="641" 
d="M289 -12q-128 0 -209 37v76q94 -34 209 -34q180 0 180 73q0 18 -8.5 30t-32.5 21.5t-44 14t-67 13.5q-126 23 -178 55.5t-52 101.5q0 149 256 149q118 0 194 -38v-77q-85 36 -194 36q-82 0 -118.5 -17t-36.5 -52q0 -37 49 -54q25 -9 103 -24q125 -23 177.5 -56t52.5 -102
q0 -70 -73 -111.5t-208 -41.5z" />
    <glyph glyph-name="uni0456" unicode="&#x456;" horiz-adv-x="329" 
d="M115 0v513h99v-513h-99zM115 616v108h99v-108h-99z" />
    <glyph glyph-name="uni0457" unicode="&#x457;" horiz-adv-x="329" 
d="M115 0v513h99v-513h-99zM-20 617v101h107v-101h-107zM241 617v101h107v-101h-107z" />
    <glyph glyph-name="uni0458" unicode="&#x458;" horiz-adv-x="329" 
d="M-3 -223q-39 0 -68 8v77q31 -7 61 -7q70 0 97.5 37.5t27.5 123.5v497h99v-504q0 -120 -50.5 -176t-166.5 -56zM115 616v108h99v-108h-99z" />
    <glyph glyph-name="uni0459" unicode="&#x459;" horiz-adv-x="1149" 
d="M78 -6q-38 0 -63 11v75q24 -4 38 -4q31 0 53 9.5t37.5 34.5t24.5 55.5t14 85t6.5 110t1.5 142.5h472v-179h207q222 0 222 -167q0 -74 -52.5 -120.5t-173.5 -46.5h-302v435h-275q-2 -126 -9 -191.5t-25 -120.5q-20 -58 -64.5 -93.5t-111.5 -35.5zM856 256h-194v-178h194
q72 0 102.5 22t30.5 67t-30.5 67t-102.5 22z" />
    <glyph glyph-name="uni045A" unicode="&#x45a;" horiz-adv-x="1165" 
d="M1107 167q0 -74 -52.5 -120.5t-173.5 -46.5h-302v230h-365v-230h-99v513h99v-205h365v205h99v-179h207q222 0 222 -167zM872 256h-194v-178h194q72 0 102.5 22t30.5 67t-30.5 67t-102.5 22z" />
    <glyph glyph-name="uni045B" unicode="&#x45b;" horiz-adv-x="775" 
d="M40 589v75h75v60h99v-60h114v-75h-114v-125q89 61 217 61q240 0 240 -197v-328h-99v311q0 74 -39.5 105t-122.5 31q-110 0 -196 -54v-393h-99v589h-75z" />
    <glyph glyph-name="uni045C" unicode="&#x45c;" horiz-adv-x="683" 
d="M115 0v513h99v-216h44q35 0 53.5 7.5t40.5 27.5l190 181h123l-215 -205q-35 -33 -71 -48q36 -14 75 -49l221 -211h-131l-196 187q-22 20 -40.5 27.5t-53.5 7.5h-40v-222h-99zM316 588l110 158h128l-148 -158h-90z" />
    <glyph glyph-name="uni045D" unicode="&#x45d;" horiz-adv-x="838" 
d="M216 0h-101v513h97v-404l408 404h103v-513h-97v404zM379 588l-148 158h128l110 -158h-90z" />
    <glyph glyph-name="uni045E" unicode="&#x45e;" horiz-adv-x="642" 
d="M55 -223q-33 0 -51 7v81q26 -6 50 -6q70 0 118 30.5t84 97.5l13 24l-257 502h110l201 -409l199 409h108l-271 -528q-53 -103 -122.5 -155.5t-181.5 -52.5zM321 581q-78 0 -125 45t-49 120h70q8 -89 104 -89t104 89h70q-2 -75 -49 -120t-125 -45z" />
    <glyph glyph-name="uni045F" unicode="&#x45f;" horiz-adv-x="779" 
d="M115 0v513h99v-435h351v435h99v-513h-230v-168h-89v168h-230z" />
    <glyph glyph-name="uni0472" unicode="&#x472;" horiz-adv-x="918" 
d="M459 -12q-186 0 -286 102t-100 272q0 165 102.5 269.5t283.5 104.5q186 0 286 -102t100 -272q0 -165 -102.5 -269.5t-283.5 -104.5zM459 70q125 0 196 69t83 182h-558q11 -113 82.5 -182t196.5 -69zM459 654q-125 0 -196 -69t-83 -180h558q-12 111 -83 180t-196 69z" />
    <glyph glyph-name="uni0473" unicode="&#x473;" horiz-adv-x="754" 
d="M377 -12q-155 0 -232 73.5t-77 195.5q0 120 78 194t231 74q155 0 232 -73.5t77 -195.5q0 -120 -78 -194t-231 -74zM377 65q94 0 145 41.5t60 117.5h-410q9 -75 60.5 -117t144.5 -42zM377 448q-91 0 -142 -39.5t-62 -110.5h408q-12 71 -63 110.5t-141 39.5z" />
    <glyph glyph-name="uni0490" unicode="&#x490;" horiz-adv-x="667" 
d="M634 640h-411v-640h-103v724h420v178h94v-262z" />
    <glyph glyph-name="uni0491" unicode="&#x491;" horiz-adv-x="592" 
d="M562 435h-348v-435h-99v513h358v168h89v-246z" />
    <glyph glyph-name="uni0492" unicode="&#x492;" horiz-adv-x="679" 
d="M62 325v75h70v324h514v-84h-411v-240h199v-75h-199v-325h-103v325h-70z" />
    <glyph glyph-name="uni0493" unicode="&#x493;" horiz-adv-x="597" 
d="M120 513h447v-78h-348v-166h149v-70h-149v-199h-99v199h-78v70h78v244z" />
    <glyph glyph-name="uni0496" unicode="&#x496;" horiz-adv-x="1243" 
d="M12 0l273 309q39 43 77 58q-39 19 -71 57l-261 300h126l239 -279q21 -24 40 -31t63 -7h62v317h103v-317h62q44 0 63 7t40 31l239 279h126l-261 -300q-35 -40 -72 -57q38 -15 78 -58l199 -225h94v-262h-95v178h-57l-247 287q-21 24 -40 31t-63 7h-66v-325h-103v325h-66
q-44 0 -63 -7t-40 -31l-247 -287h-132z" />
    <glyph glyph-name="uni0497" unicode="&#x497;" horiz-adv-x="998" 
d="M10 0l205 211q32 34 72 49q-37 15 -68 48l-199 205h123l174 -181q19 -21 38 -28t56 -7h32v216h99v-216h32q37 0 56 7t38 28l174 181h123l-199 -205q-31 -32 -69 -48q41 -16 73 -49l129 -133h89v-246h-89v168h-55l-180 187q-19 21 -38 28t-56 7h-28v-222h-99v222h-28
q-37 0 -56 -7t-38 -28l-180 -187h-131z" />
    <glyph glyph-name="uni0498" unicode="&#x498;" horiz-adv-x="702" 
d="M365 -178h-95v167q-124 4 -216 39v87q129 -39 252 -39q93 0 153 31.5t60 90.5q0 62 -57.5 98.5t-164.5 36.5h-107v83h107q187 0 187 123q0 54 -51.5 82.5t-128.5 28.5q-134 0 -236 -41v85q98 42 236 42q132 0 208.5 -51t76.5 -142q0 -112 -118 -165q72 -23 112.5 -72
t40.5 -112q0 -82 -69.5 -137t-189.5 -66v-169z" />
    <glyph glyph-name="uni0499" unicode="&#x499;" horiz-adv-x="661" 
d="M349 -168h-89v158q-136 8 -212 45v77q100 -44 249 -44q194 0 194 81q0 70 -185 70h-123v76h111q82 0 129 20.5t47 57.5q0 72 -172 72q-128 0 -227 -39v78q40 19 108 30t124 11q121 0 195 -39.5t74 -106.5q0 -89 -105 -121q126 -26 126 -120q0 -67 -66 -105.5t-178 -43.5
v-157z" />
    <glyph glyph-name="uni049A" unicode="&#x49a;" horiz-adv-x="842" 
d="M120 0v724h103v-317h92q43 0 62 7t41 31l259 279h126l-281 -300q-40 -42 -73 -57q37 -14 79 -58l213 -225h95v-262h-95v178h-52l-267 287q-22 24 -41 31t-62 7h-96v-325h-103z" />
    <glyph glyph-name="uni049B" unicode="&#x49b;" horiz-adv-x="690" 
d="M115 0v513h99v-216h44q35 0 53.5 7.5t40.5 27.5l190 181h123l-215 -205q-35 -33 -71 -48q36 -14 75 -49l139 -133h89v-246h-89v168h-49l-196 187q-22 20 -40.5 27.5t-53.5 7.5h-40v-222h-99z" />
    <glyph glyph-name="uni049C" unicode="&#x49c;" horiz-adv-x="827" 
d="M120 0v724h103v-317h80v124h95v-124q37 0 55.5 7t35.5 31l194 279h120l-211 -300q-29 -41 -60 -57q34 -14 66 -58l223 -309h-126l-202 287q-17 24 -36 30.5t-59 7.5v-121h-95v121h-80v-325h-103z" />
    <glyph glyph-name="uni049D" unicode="&#x49d;" horiz-adv-x="683" 
d="M115 0v513h99v-216h57v106h87v-105q34 3 56 34l136 181h115l-158 -205q-24 -33 -61 -48q39 -15 65 -49l164 -211h-123l-142 187q-21 29 -52 33v-110h-87v112h-57v-222h-99z" />
    <glyph glyph-name="uni04A0" unicode="&#x4a0;" horiz-adv-x="1033" 
d="M326 0v640h-293v84h396v-317h92q43 0 62 7t41 31l259 279h126l-281 -300q-40 -42 -73 -57q37 -14 79 -58l293 -309h-132l-267 287q-22 24 -41 31t-62 7h-96v-325h-103z" />
    <glyph glyph-name="uni04A1" unicode="&#x4a1;" horiz-adv-x="828" 
d="M260 0v435h-230v78h329v-216h44q35 0 53.5 7.5t40.5 27.5l190 181h123l-215 -205q-35 -33 -71 -48q36 -14 75 -49l221 -211h-131l-196 187q-22 20 -40.5 27.5t-53.5 7.5h-40v-222h-99z" />
    <glyph glyph-name="uni04A2" unicode="&#x4a2;" horiz-adv-x="942" 
d="M689 0v321h-466v-321h-103v724h103v-319h466v319h103v-640h120v-262h-95v178h-128z" />
    <glyph glyph-name="uni04A3" unicode="&#x4a3;" horiz-adv-x="836" 
d="M115 513h99v-205h391v205h99v-435h102v-246h-89v168h-112v230h-391v-230h-99v513z" />
    <glyph glyph-name="uni04AA" unicode="&#x4aa;" horiz-adv-x="768" 
d="M504 -178h-95v170q-153 16 -244.5 111t-91.5 259q0 172 110.5 273t280.5 101q137 0 228 -39v-89q-99 40 -214 40q-140 0 -220 -72.5t-80 -213.5q0 -77 25.5 -134.5t69 -89.5t94 -47.5t108.5 -15.5q137 0 233 35v-86q-77 -31 -204 -35v-167z" />
    <glyph glyph-name="uni04AB" unicode="&#x4ab;" horiz-adv-x="627" 
d="M393 -168h-89v159q-112 14 -174 85t-62 181q0 120 78 194t228 74q111 0 183 -32v-81q-83 33 -185 33q-103 0 -152.5 -50t-49.5 -138q0 -91 52.5 -140t143.5 -49q107 0 199 42v-83q-75 -33 -172 -38v-157z" />
    <glyph glyph-name="uni04AE" unicode="&#x4ae;" horiz-adv-x="777" 
d="M337 0v270l-335 454h121l266 -371l269 371h117l-335 -453v-271h-103z" />
    <glyph glyph-name="uni04AF" unicode="&#x4af;" horiz-adv-x="642" 
d="M272 -211v217l-260 507h110l201 -409l199 409h108l-259 -505v-219h-99z" />
    <glyph glyph-name="uni04B0" unicode="&#x4b0;" horiz-adv-x="777" 
d="M85 156v81h252v33l-335 454h121l266 -371l269 371h117l-335 -453v-34h252v-81h-252v-156h-103v156h-252z" />
    <glyph glyph-name="uni04B1" unicode="&#x4b1;" horiz-adv-x="650" 
d="M58 -56v78h213l-255 491h110l201 -409l199 409h108l-256 -491h215v-78h-218v-155h-99v155h-218z" />
    <glyph glyph-name="uni04B2" unicode="&#x4b2;" horiz-adv-x="813" 
d="M12 0l321 374l-298 350h130l231 -280l233 280h123l-296 -346l253 -294h92v-262h-95v178h-55l-258 308l-258 -308h-123z" />
    <glyph glyph-name="uni04B3" unicode="&#x4b3;" horiz-adv-x="671" 
d="M18 0l250 261l-242 252h128l174 -189l176 189h123l-240 -251l177 -184h89v-246h-89v168h-52l-185 199l-186 -199h-123z" />
    <glyph glyph-name="uni04B6" unicode="&#x4b6;" horiz-adv-x="836" 
d="M354 243q-123 0 -196.5 55t-73.5 179v247h103v-229q0 -86 44 -126t144 -40q112 0 208 28v367h103v-640h120v-262h-95v178h-128v278q-102 -35 -229 -35z" />
    <glyph glyph-name="uni04B7" unicode="&#x4b7;" horiz-adv-x="770" 
d="M651 0h-112v191q-89 -43 -207 -43q-115 0 -182.5 50.5t-67.5 161.5v153h99v-136q0 -79 40 -114.5t132 -35.5q105 0 186 39v247h99v-435h102v-246h-89v168z" />
    <glyph glyph-name="uni04B8" unicode="&#x4b8;" horiz-adv-x="806" 
d="M436 124h-95v119q-117 2 -187 57.5t-70 176.5v247h103v-229q0 -79 36 -118.5t118 -46.5v120h95v-119q84 7 147 26v367h103v-724h-103v278q-61 -21 -147 -31v-123z" />
    <glyph glyph-name="uni04B9" unicode="&#x4b9;" horiz-adv-x="753" 
d="M403 54h-89v94q-232 9 -232 212v153h99v-136q0 -71 31.5 -106.5t101.5 -42.5v105h89v-104q76 7 136 37v247h99v-513h-99v191q-64 -32 -136 -40v-97z" />
    <glyph glyph-name="uni04BA" unicode="&#x4ba;" horiz-adv-x="826" 
d="M452 481q123 0 196.5 -55t73.5 -179v-247h-103v229q0 86 -44 126t-144 40q-112 0 -208 -28v-367h-103v724h103v-278q102 35 229 35z" />
    <glyph glyph-name="uni04BB" unicode="&#x4bb;" horiz-adv-x="775" 
d="M115 0v724h99v-260q89 61 217 61q240 0 240 -197v-328h-99v311q0 74 -39.5 105t-122.5 31q-110 0 -196 -54v-393h-99z" />
    <glyph glyph-name="uni04C1" unicode="&#x4c1;" horiz-adv-x="1223" 
d="M12 0l273 309q39 43 77 58q-39 19 -71 57l-261 300h126l239 -279q21 -24 40 -31t63 -7h62v317h103v-317h62q44 0 63 7t40 31l239 279h126l-261 -300q-35 -40 -72 -57q38 -15 78 -58l273 -309h-132l-247 287q-21 24 -40 31t-63 7h-66v-325h-103v325h-66q-44 0 -63 -7
t-40 -31l-247 -287h-132zM611 765q-78 0 -125 45t-49 120h70q8 -89 104 -89t104 89h70q-2 -75 -49 -120t-125 -45z" />
    <glyph glyph-name="uni04C2" unicode="&#x4c2;" horiz-adv-x="985" 
d="M10 0l205 211q32 34 72 49q-37 15 -68 48l-199 205h123l174 -181q19 -21 38 -28t56 -7h32v216h99v-216h32q37 0 56 7t38 28l174 181h123l-199 -205q-31 -32 -69 -48q41 -16 73 -49l205 -211h-131l-180 187q-19 21 -38 28t-56 7h-28v-222h-99v222h-28q-37 0 -56 -7
t-38 -28l-180 -187h-131zM492 581q-78 0 -125 45t-49 120h70q8 -89 104 -89t104 89h70q-2 -75 -49 -120t-125 -45z" />
    <glyph glyph-name="uni04D8" unicode="&#x4d8;" horiz-adv-x="890" 
d="M415 736q200 0 301 -105t101 -283q0 -159 -101.5 -259.5t-279.5 -100.5q-169 0 -272 96t-103 248q0 19 3 52h645q-6 120 -84.5 192.5t-221.5 72.5q-67 0 -127 -11t-92 -22t-87 -33v87q139 66 318 66zM436 70q115 0 190 64.5t83 165.5h-544q8 -103 82 -166.5t189 -63.5z
" />
    <glyph glyph-name="uni04D9" unicode="&#x4d9;" horiz-adv-x="699" 
d="M330 525q147 0 224 -75.5t77 -200.5q0 -114 -76.5 -187.5t-209.5 -73.5q-132 0 -207.5 69.5t-75.5 180.5q0 21 2 39h468q-5 79 -58.5 123.5t-154.5 44.5q-107 0 -222 -46v79q101 47 233 47zM345 64q76 0 128 38t58 99h-372q7 -61 58.5 -99t127.5 -38z" />
    <glyph glyph-name="uni04E2" unicode="&#x4e2;" horiz-adv-x="960" 
d="M840 724v-724h-101v599l-507 -599h-112v724h101v-600l507 600h112zM306 806v75h348v-75h-348z" />
    <glyph glyph-name="uni04E3" unicode="&#x4e3;" horiz-adv-x="838" 
d="M216 0h-101v513h97v-404l408 404h103v-513h-97v404zM245 622v75h348v-75h-348z" />
    <glyph glyph-name="uni04E8" unicode="&#x4e8;" horiz-adv-x="918" 
d="M459 -12q-186 0 -286 102t-100 272q0 165 102.5 269.5t283.5 104.5q186 0 286 -102t100 -272q0 -165 -102.5 -269.5t-283.5 -104.5zM459 70q125 0 196 69t83 182h-558q11 -113 82.5 -182t196.5 -69zM459 654q-125 0 -196 -69t-83 -180h558q-12 111 -83 180t-196 69z" />
    <glyph glyph-name="uni04E9" unicode="&#x4e9;" horiz-adv-x="754" 
d="M377 -12q-155 0 -232 73.5t-77 195.5q0 120 78 194t231 74q155 0 232 -73.5t77 -195.5q0 -120 -78 -194t-231 -74zM377 65q94 0 145 41.5t60 117.5h-410q9 -75 60.5 -117t144.5 -42zM377 448q-91 0 -142 -39.5t-62 -110.5h408q-12 71 -63 110.5t-141 39.5z" />
    <glyph glyph-name="uni04EE" unicode="&#x4ee;" horiz-adv-x="728" 
d="M200 -6q-41 0 -67 11v83q24 -9 54 -9q50 0 86 27.5t65 85.5l-328 532h117l262 -439l225 439h112l-300 -570q-46 -87 -97.5 -123.5t-128.5 -36.5zM251 806v75h348v-75h-348z" />
    <glyph glyph-name="uni04EF" unicode="&#x4ef;" horiz-adv-x="642" 
d="M55 -223q-33 0 -51 7v81q26 -6 50 -6q70 0 118 30.5t84 97.5l13 24l-257 502h110l201 -409l199 409h108l-271 -528q-53 -103 -122.5 -155.5t-181.5 -52.5zM143 622v75h348v-75h-348z" />
    <glyph glyph-name="uni0E3F" unicode="&#xe3f;" 
d="M120 0v724h236v93h81v-95q124 -9 188.5 -60t64.5 -140q0 -115 -117 -153q153 -39 153 -167q0 -96 -73.5 -147.5t-215.5 -54.5v-93h-81v93h-236zM620 202q0 60 -45 87.5t-138 31.5v-237q94 4 138.5 30.5t44.5 87.5zM223 322v-239h133v239h-133zM223 641v-239h133v239h-133
zM584 522q0 55 -36 81.5t-111 33.5v-232q74 8 110.5 35t36.5 82z" />
    <glyph glyph-name="Wgrave" unicode="&#x1e80;" horiz-adv-x="1337" 
d="M321 0l-313 724h113l254 -611l245 611h97l248 -617l258 617h106l-313 -724h-105l-243 594l-242 -594h-105zM628 772l-148 158h128l110 -158h-90z" />
    <glyph glyph-name="wgrave" unicode="&#x1e81;" horiz-adv-x="1035" 
d="M256 0l-240 513h108l179 -409l169 409h92l172 -408l177 408h106l-240 -513h-92l-171 408l-168 -408h-92zM477 588l-148 158h128l110 -158h-90z" />
    <glyph glyph-name="Wacute" unicode="&#x1e82;" horiz-adv-x="1337" 
d="M321 0l-313 724h113l254 -611l245 611h97l248 -617l258 617h106l-313 -724h-105l-243 594l-242 -594h-105zM619 772l110 158h128l-148 -158h-90z" />
    <glyph glyph-name="wacute" unicode="&#x1e83;" horiz-adv-x="1035" 
d="M256 0l-240 513h108l179 -409l169 409h92l172 -408l177 408h106l-240 -513h-92l-171 408l-168 -408h-92zM468 588l110 158h128l-148 -158h-90z" />
    <glyph glyph-name="Wdieresis" unicode="&#x1e84;" horiz-adv-x="1337" 
d="M321 0l-313 724h113l254 -611l245 611h97l248 -617l258 617h106l-313 -724h-105l-243 594l-242 -594h-105zM484 801v101h107v-101h-107zM745 801v101h107v-101h-107z" />
    <glyph glyph-name="wdieresis" unicode="&#x1e85;" horiz-adv-x="1035" 
d="M256 0l-240 513h108l179 -409l169 409h92l172 -408l177 408h106l-240 -513h-92l-171 408l-168 -408h-92zM333 617v101h107v-101h-107zM594 617v101h107v-101h-107z" />
    <glyph glyph-name="Ygrave" unicode="&#x1ef2;" horiz-adv-x="777" 
d="M337 0v270l-335 454h121l266 -371l269 371h117l-335 -453v-271h-103zM348 772l-148 158h128l110 -158h-90z" />
    <glyph glyph-name="ygrave" unicode="&#x1ef3;" horiz-adv-x="642" 
d="M55 -223q-33 0 -51 7v81q26 -6 50 -6q70 0 118 30.5t84 97.5l13 24l-257 502h110l201 -409l199 409h108l-271 -528q-53 -103 -122.5 -155.5t-181.5 -52.5zM277 588l-148 158h128l110 -158h-90z" />
    <glyph glyph-name="endash" unicode="&#x2013;" horiz-adv-x="666" 
d="M44 256v84h578v-84h-578z" />
    <glyph glyph-name="emdash" unicode="&#x2014;" horiz-adv-x="976" 
d="M44 256v84h888v-84h-888z" />
    <glyph glyph-name="uni2015" unicode="&#x2015;" horiz-adv-x="976" 
d="M44 256v84h888v-84h-888z" />
    <glyph glyph-name="quoteleft" unicode="&#x2018;" horiz-adv-x="315" 
d="M271 723l-80 -133l24 -112h-80q-33 0 -48 11.5t-15 40.5q0 24 15.5 52.5t28.5 44t51 58.5l35 38h69z" />
    <glyph glyph-name="quoteright" unicode="&#x2019;" horiz-adv-x="315" 
d="M44 479l80 133l-24 112h80q33 0 48 -11.5t15 -40.5q0 -24 -15.5 -52.5t-28.5 -44t-51 -58.5l-35 -38h-69z" />
    <glyph glyph-name="quotesinglbase" unicode="&#x201a;" horiz-adv-x="315" 
d="M44 -147l80 133l-24 112h80q33 0 48 -11.5t15 -40.5q0 -24 -15.5 -52.5t-28.5 -44t-51 -58.5l-35 -38h-69z" />
    <glyph glyph-name="quotedblleft" unicode="&#x201c;" horiz-adv-x="544" 
d="M271 723l-80 -133l24 -112h-80q-33 0 -48 11.5t-15 40.5q0 24 15.5 52.5t28.5 44t51 58.5l35 38h69zM500 723l-80 -133l24 -112h-80q-33 0 -48 11.5t-15 40.5q0 24 15.5 52.5t28.5 44t51 58.5l35 38h69z" />
    <glyph glyph-name="quotedblright" unicode="&#x201d;" horiz-adv-x="543" 
d="M44 479l80 133l-24 112h80q33 0 48 -11.5t15 -40.5q0 -24 -15.5 -52.5t-28.5 -44t-51 -58.5l-35 -38h-69zM272 479l80 133l-24 112h80q33 0 48 -11.5t15 -40.5q0 -24 -15.5 -52.5t-28.5 -44t-51 -58.5l-35 -38h-69z" />
    <glyph glyph-name="quotedblbase" unicode="&#x201e;" horiz-adv-x="543" 
d="M44 -147l80 133l-24 112h80q33 0 48 -11.5t15 -40.5q0 -24 -15.5 -52.5t-28.5 -44t-51 -58.5l-35 -38h-69zM272 -147l80 133l-24 112h80q33 0 48 -11.5t15 -40.5q0 -24 -15.5 -52.5t-28.5 -44t-51 -58.5l-35 -38h-69z" />
    <glyph glyph-name="dagger" unicode="&#x2020;" horiz-adv-x="575" 
d="M92 505v68h165q-11 40 -11 92v59h83v-59q0 -52 -11 -92h165v-68h-165q11 -40 11 -92v-156h-83v156q0 52 11 92h-165z" />
    <glyph glyph-name="daggerdbl" unicode="&#x2021;" horiz-adv-x="575" 
d="M92 505v68h165q-11 40 -11 92v59h83v-59q0 -52 -11 -92h165v-68h-156v-138h156v-68h-165q11 -40 11 -92v-59h-83v59q0 52 11 92h-165v68h156v138h-156z" />
    <glyph glyph-name="bullet" unicode="&#x2022;" horiz-adv-x="566" 
d="M120 145v434l376 -217z" />
    <glyph glyph-name="ellipsis" unicode="&#x2026;" horiz-adv-x="982" 
d="M116 0v122h122v-122h-122zM430 0v122h122v-122h-122zM744 0v122h122v-122h-122z" />
    <glyph glyph-name="perthousand" unicode="&#x2030;" horiz-adv-x="1745" 
d="M1447 -12q-95 0 -149.5 51t-54.5 136t56 136.5t148 51.5q95 0 149.5 -51t54.5 -137q0 -85 -56 -136t-148 -51zM1447 58q57 0 86.5 30.5t29.5 86.5q0 57 -29.5 87.5t-86.5 30.5t-86.5 -30.5t-29.5 -87.5q0 -56 29.5 -86.5t86.5 -30.5zM298 361q-95 0 -149.5 51t-54.5 136
t56 136.5t148 51.5q95 0 149.5 -51t54.5 -137q0 -85 -56 -136t-148 -51zM298 431q57 0 86.5 30.5t29.5 86.5q0 57 -29.5 87.5t-86.5 30.5t-86.5 -30.5t-29.5 -87.5q0 -56 29.5 -86.5t86.5 -30.5zM940 -12q-95 0 -149.5 51t-54.5 136t56 136.5t148 51.5q95 0 149.5 -51
t54.5 -137q0 -85 -56 -136t-148 -51zM940 58q57 0 86.5 30.5t29.5 86.5q0 57 -29.5 87.5t-86.5 30.5t-86.5 -30.5t-29.5 -87.5q0 -56 29.5 -86.5t86.5 -30.5zM248 0l631 724h110l-631 -724h-110z" />
    <glyph glyph-name="guilsinglleft" unicode="&#x2039;" horiz-adv-x="428" 
d="M267 114l-201 186l201 186h95l-179 -186l179 -186h-95z" />
    <glyph glyph-name="guilsinglright" unicode="&#x203a;" horiz-adv-x="428" 
d="M66 114l179 186l-179 186h95l201 -186l-201 -186h-95z" />
    <glyph glyph-name="fraction" unicode="&#x2044;" horiz-adv-x="169" 
d="M-310 -30l686 784h103l-686 -784h-103z" />
    <glyph glyph-name="uni2070" unicode="&#x2070;" horiz-adv-x="490" 
d="M245 324q-103 0 -152 55.5t-49 148.5q0 89 49.5 146.5t151.5 57.5q103 0 152 -55.5t49 -148.5q0 -89 -49.5 -146.5t-151.5 -57.5zM245 385q119 0 119 143t-119 143t-119 -143t119 -143z" />
    <glyph glyph-name="uni2074" unicode="&#x2074;" horiz-adv-x="490" 
d="M293 333v79h-251l-1 53l255 259h78v-254h82v-58h-82v-79h-81zM132 470h161v164z" />
    <glyph glyph-name="uni2075" unicode="&#x2075;" horiz-adv-x="490" 
d="M222 325q-81 0 -148 23v62q71 -23 145 -23q120 0 120 59q0 28 -48.5 45.5t-98 21.5t-105.5 4l10 207h305v-59h-230l-4 -89q256 -12 256 -127q0 -54 -53 -89t-149 -35z" />
    <glyph glyph-name="uni2076" unicode="&#x2076;" horiz-adv-x="490" 
d="M246 325q-94 0 -144.5 47t-50.5 139q0 108 62 164.5t178 56.5q64 0 119 -19v-61q-62 18 -117 18q-143 0 -160 -112q51 32 123 32q87 0 135 -34t48 -95q0 -58 -51 -97t-142 -39zM250 531q-66 0 -118 -26v-1q0 -121 116 -121q54 0 81 21.5t27 56.5q0 34 -28 52t-78 18z" />
    <glyph glyph-name="uni2077" unicode="&#x2077;" horiz-adv-x="490" 
d="M116 333l218 332h-264v59h356v-53l-224 -338h-86z" />
    <glyph glyph-name="uni2078" unicode="&#x2078;" horiz-adv-x="490" 
d="M245 325q-100 0 -151.5 34t-51.5 84q0 67 94 95q-33 13 -53 36t-20 50q0 50 49 79t133 29t133 -29t49 -79q0 -27 -20.5 -50t-53.5 -36q95 -27 95 -95q0 -50 -51.5 -84t-151.5 -34zM245 383q61 0 90.5 18t29.5 45q0 26 -31 44.5t-89 18.5t-89 -18.5t-31 -44.5
q0 -27 29.5 -45t90.5 -18zM245 564q48 0 74 15t26 40q0 56 -100 56t-100 -56q0 -25 26 -40t74 -15z" />
    <glyph glyph-name="uni2079" unicode="&#x2079;" horiz-adv-x="490" 
d="M200 325q-64 0 -119 19v61q62 -18 117 -18q75 0 116.5 31t43.5 88q-52 -34 -124 -34q-83 0 -133 34t-50 94q0 55 51.5 93.5t141.5 38.5q92 0 143.5 -52t51.5 -135q0 -220 -239 -220zM240 533q66 0 118 26q-2 57 -32.5 86t-83.5 29q-50 0 -78 -20.5t-28 -53.5
q0 -67 104 -67z" />
    <glyph glyph-name="uni2080" unicode="&#x2080;" horiz-adv-x="490" 
d="M245 -153q-103 0 -152 55.5t-49 148.5q0 89 49.5 146.5t151.5 57.5q103 0 152 -55.5t49 -148.5q0 -89 -49.5 -146.5t-151.5 -57.5zM245 -92q119 0 119 143t-119 143t-119 -143t119 -143z" />
    <glyph glyph-name="uni2081" unicode="&#x2081;" horiz-adv-x="490" 
d="M115 159v59l125 29h57v-332h101v-59h-284v59h101v264z" />
    <glyph glyph-name="uni2082" unicode="&#x2082;" horiz-adv-x="490" 
d="M66 -144v53l130 94q66 48 90 72t24 52q0 66 -93 66q-70 0 -133 -25v62q65 25 137 25q81 0 126 -33.5t45 -92.5q0 -32 -20 -61t-45 -49.5t-66 -48.5l-18 -12l-63 -43h247v-59h-361z" />
    <glyph glyph-name="uni2083" unicode="&#x2083;" horiz-adv-x="490" 
d="M221 -152q-83 0 -148 24v60q71 -23 145 -23q56 0 85 16.5t29 43.5t-29.5 44t-88.5 17h-51v59h51q98 0 98 54q0 52 -95 52q-76 0 -134 -25v59q57 26 138 26q84 0 129.5 -28.5t45.5 -77.5q0 -59 -75 -87q96 -26 96 -97q0 -52 -49.5 -84.5t-146.5 -32.5z" />
    <glyph glyph-name="uni2084" unicode="&#x2084;" horiz-adv-x="490" 
d="M293 -144v79h-251l-1 53l255 259h78v-254h82v-58h-82v-79h-81zM132 -7h161v164z" />
    <glyph glyph-name="uni2085" unicode="&#x2085;" horiz-adv-x="490" 
d="M222 -152q-81 0 -148 23v62q71 -23 145 -23q120 0 120 59q0 28 -48.5 45.5t-98 21.5t-105.5 4l10 207h305v-59h-230l-4 -89q256 -12 256 -127q0 -54 -53 -89t-149 -35z" />
    <glyph glyph-name="uni2086" unicode="&#x2086;" horiz-adv-x="490" 
d="M246 -152q-94 0 -144.5 47t-50.5 139q0 108 62 164.5t178 56.5q64 0 119 -19v-61q-62 18 -117 18q-143 0 -160 -112q51 32 123 32q87 0 135 -34t48 -95q0 -58 -51 -97t-142 -39zM250 54q-66 0 -118 -26v-1q0 -121 116 -121q54 0 81 21.5t27 56.5q0 34 -28 52t-78 18z" />
    <glyph glyph-name="uni2087" unicode="&#x2087;" horiz-adv-x="490" 
d="M116 -144l218 332h-264v59h356v-53l-224 -338h-86z" />
    <glyph glyph-name="uni2088" unicode="&#x2088;" horiz-adv-x="490" 
d="M245 -152q-100 0 -151.5 34t-51.5 84q0 67 94 95q-33 13 -53 36t-20 50q0 50 49 79t133 29t133 -29t49 -79q0 -27 -20.5 -50t-53.5 -36q95 -27 95 -95q0 -50 -51.5 -84t-151.5 -34zM245 -94q61 0 90.5 18t29.5 45q0 26 -31 44.5t-89 18.5t-89 -18.5t-31 -44.5
q0 -27 29.5 -45t90.5 -18zM245 87q48 0 74 15t26 40q0 56 -100 56t-100 -56q0 -25 26 -40t74 -15z" />
    <glyph glyph-name="uni2089" unicode="&#x2089;" horiz-adv-x="490" 
d="M200 -152q-64 0 -119 19v61q62 -18 117 -18q75 0 116.5 31t43.5 88q-52 -34 -124 -34q-83 0 -133 34t-50 94q0 55 51.5 93.5t141.5 38.5q92 0 143.5 -52t51.5 -135q0 -220 -239 -220zM240 56q66 0 118 26q-2 57 -32.5 86t-83.5 29q-50 0 -78 -20.5t-28 -53.5
q0 -67 104 -67z" />
    <glyph glyph-name="uni20A1" unicode="&#x20a1;" 
d="M246 -93l23 131q-177 94 -177 324q0 147 82 243.5t217 121.5l16 90h84l-15 -81h7q47 0 94 -6l16 87h84l-18 -102q30 -8 52 -18v-89q-27 11 -67 22l-98 -554q106 6 181 34v-86q-75 -31 -197 -35l-14 -82h-84l14 83q-51 3 -99 17l-17 -100h-84zM363 97q41 -16 99 -21
l100 568q-29 4 -65 4q-13 0 -37 -2zM197 362q0 -146 90 -221l87 489q-84 -27 -130.5 -94.5t-46.5 -173.5z" />
    <glyph glyph-name="uni20A4" unicode="&#x20a4;" 
d="M139 404v81h108v20q0 108 61.5 169.5t182.5 61.5q75 0 136 -23v-85q-63 20 -130 20q-77 0 -112 -35.5t-35 -119.5v-8h265v-81h-265v-97h265v-81h-265v-36q0 -73 -38 -106h382v-84h-588v79h18q71 0 97 27t26 104v16h-108v81h108v97h-108z" />
    <glyph glyph-name="uni20A6" unicode="&#x20a6;" 
d="M40 405v81h70v238h112l153 -238h215v238h100v-238h70v-81h-70v-97h70v-81h-70v-227h-112l-146 227h-222v-227h-100v227h-70v81h70v97h-70zM210 405v-97h170l-62 97h-108zM427 405l62 -97h101v97h-163zM209 586h-4l4 -100h58zM595 138l-4 89h-52l52 -89h4z" />
    <glyph glyph-name="uni20A8" unicode="&#x20a8;" 
d="M324 145l-51 132q-14 36 -28.5 46.5t-52.5 10.5h-12v-334h-97v724h178q187 0 187 -192q0 -67 -39.5 -114.5t-91.5 -62.5q33 -14 49 -53l52 -131q21 -53 56.5 -78.5t102.5 -25.5q46 0 71 18t25 48q0 52 -83 95q-55 29 -79.5 64.5t-24.5 86.5q0 62 38 102t116 40
q73 0 110 -22v-74q-45 16 -92 16q-75 0 -75 -64q0 -29 19.5 -50t61.5 -42q56 -29 80.5 -64t24.5 -88q0 -61 -48 -103t-144 -42q-112 0 -168 41t-85 116zM236 651h-56v-247h56q113 0 113 129q0 118 -113 118z" />
    <glyph glyph-name="uni20A9" unicode="&#x20a9;" 
d="M30 405v81h47l-57 238h95l54 -238h138l45 238h96l45 -238h137l55 238h95l-57 -238h47v-81h-67l-23 -97h90v-81h-109l-54 -227h-103l-44 227h-120l-44 -227h-103l-54 227h-109v81h89l-23 97h-66zM188 405l22 -97h63l19 97h-104zM508 405l18 -97h63l23 97h-104zM375 405
l-19 -97h88l-19 97h-50zM243 132h4l13 95h-33zM553 132h4l16 95h-34zM398 582l-10 -96h24l-10 96h-4z" />
    <glyph glyph-name="uni20AA" unicode="&#x20aa;" 
d="M88 0v724h205q142 0 191.5 -44t49.5 -161v-356h-91v374q0 62 -27.5 85t-102.5 23h-134v-645h-91zM712 724v-724h-205q-142 0 -191.5 44t-49.5 161v356h91v-374q0 -62 27.5 -85t102.5 -23h134v645h91z" />
    <glyph glyph-name="uni20AB" unicode="&#x20ab;" 
d="M409 602v76h159v46h99v-46h63v-76h-63v-442h-83l-9 50q-76 -61 -208 -61q-57 0 -104.5 11t-86 34t-60.5 62t-22 91t22 91t60.5 62t86 34t104.5 11q125 0 201 -53v110h-159zM568 273v148q-74 47 -184 47q-90 0 -139.5 -26.5t-49.5 -94.5t49.5 -94.5t139.5 -26.5
q110 0 184 47zM116 0v81h551v-81h-551z" />
    <glyph glyph-name="Euro" unicode="&#x20ac;" 
d="M47 414v81h100q39 114 138 177.5t232 63.5q136 0 225 -38v-87q-97 39 -211 39q-107 0 -180 -40t-104 -115h366v-81h-384q-3 -17 -3 -52q0 -30 3 -55h384v-81h-363q32 -78 107 -115.5t171 -37.5q130 0 220 33v-84q-85 -34 -222 -34q-141 0 -242 61t-138 177h-99v81h82
q-3 26 -3 55q0 26 3 52h-82z" />
    <glyph glyph-name="uni20AD" unicode="&#x20ad;" 
d="M57 326v81h73v317h103v-325l386 325h135l-331 -276q-23 -20 -56 -41h341v-81h-334q31 -19 55 -38l343 -288h-142l-397 332v-332h-103v326h-73z" />
    <glyph glyph-name="uni20AE" unicode="&#x20ae;" 
d="M55 640v84h689v-84h-293v-166l192 75v-82l-192 -75v-110l192 75v-82l-192 -75v-200h-103v159l-191 -74v82l191 74v110l-191 -74v82l191 74v207h-293z" />
    <glyph glyph-name="uni20B1" unicode="&#x20b1;" 
d="M47 479v81h92v164h226q127 0 196.5 -39.5t92.5 -124.5h99v-81h-86q0 -6 0.5 -18.5t0.5 -19.5t-0.5 -19.5t-0.5 -18.5h86v-81h-99q-23 -85 -92.5 -124.5t-196.5 -39.5h-123v-158h-103v322h-92v81h92v76h-92zM563 441q0 26 -1 38h-320v-76h320q1 12 1 38zM343 640h-101v-80
h305q-20 45 -68 62.5t-136 17.5zM343 242q88 0 136 17.5t68 62.5h-305v-80h101z" />
    <glyph glyph-name="uni20B2" unicode="&#x20b2;" 
d="M368 -93v85q-144 17 -222 111.5t-78 260.5q0 157 78.5 252t221.5 115v86h81v-81q140 -2 216 -39v-87q-86 39 -214 39h-2v-575q93 0 168 22v252h101v-314q-105 -43 -269 -46v-81h-81zM171 364q0 -247 197 -284v561q-197 -38 -197 -277z" />
    <glyph glyph-name="uni20B4" unicode="&#x20b4;" 
d="M447 -12q-170 0 -259 54.5t-89 146.5q0 22 4 38h-53v81h105q32 27 86.5 49t91 31t104.5 24q-74 -7 -131 -7h-256v81h514q21 21 21 60q0 102 -209 102q-129 0 -247 -41v89q98 40 245 40q152 0 233.5 -52t83.5 -142q0 -29 -11 -56h60v-81h-135q-24 -15 -52 -28t-65.5 -25
t-59.5 -18.5t-69 -18.5t-58 -15q52 8 111 8h328v-81h-526q-9 -15 -9 -42q0 -52 62.5 -80.5t176.5 -28.5q137 0 261 39v-88q-103 -39 -258 -39z" />
    <glyph glyph-name="uni20B5" unicode="&#x20b5;" 
d="M429 -93v85q-154 16 -245.5 111t-91.5 259q0 157 93.5 256t243.5 115v84h81v-82q120 -3 201 -38v-89q-92 37 -201 40v-573q129 1 217 35v-86q-82 -33 -217 -36v-81h-81zM197 362q0 -128 65 -196.5t167 -85.5v563q-110 -17 -171 -88t-61 -193z" />
    <glyph glyph-name="uni2113" unicode="&#x2113;" horiz-adv-x="500" 
d="M278 -12q-79 0 -118.5 35.5t-39.5 118.5v69l-80 -20v64l80 24v253q0 94 41.5 149t122.5 55q153 0 153 -191q0 -118 -56.5 -198t-165.5 -111v-87q0 -50 18 -67t61 -17q49 0 97 16v-73q-45 -20 -113 -20zM215 525v-218q66 25 102 89.5t36 134.5q0 131 -72 131
q-36 0 -51 -34.5t-15 -102.5z" />
    <glyph glyph-name="uni2116" unicode="&#x2116;" horiz-adv-x="1533" 
d="M120 0v724h112l507 -596v596h101v-724h-112l-507 595v-595h-101zM1191 301q-130 0 -194 59t-64 157q0 96 65 155t193 59q131 0 195 -58.5t64 -156.5q0 -97 -65 -156t-194 -59zM1191 364q88 0 131.5 40t43.5 112t-43.5 112t-131.5 40q-87 0 -130.5 -40t-43.5 -111
q0 -72 43.5 -112.5t130.5 -40.5zM925 116v71h533v-71h-533z" />
    <glyph glyph-name="uni2117" unicode="&#x2117;" horiz-adv-x="918" 
d="M459 -12q-181 0 -283.5 104.5t-102.5 269.5t102.5 269.5t283.5 104.5t283.5 -104.5t102.5 -269.5t-102.5 -269.5t-283.5 -104.5zM459 47q153 0 234 88.5t81 226.5t-81 226.5t-234 88.5t-234 -88.5t-81 -226.5t81 -226.5t234 -88.5zM305 149v425h169q178 0 178 -137
q0 -62 -44 -99.5t-136 -37.5h-91v-151h-76zM466 511h-85v-148h85q60 0 84 18.5t24 55.5t-24 55.5t-84 18.5z" />
    <glyph glyph-name="trademark" unicode="&#x2122;" horiz-adv-x="1069" 
d="M467 385v339h75l142 -168q15 -16 24 -36q6 13 25 36l141 168h75v-339h-65v226q0 25 1 38q-11 -23 -25 -38l-125 -146h-54l-124 146q-16 17 -27 40q2 -26 2 -40v-226h-65zM48 667v57h328v-57h-127v-282h-74v282h-127z" />
    <glyph glyph-name="Omega" unicode="&#x2126;" horiz-adv-x="996" 
d="M64 0v84h192q-68 44 -106 116.5t-38 161.5q0 165 102.5 269.5t283.5 104.5q186 0 286 -102t100 -272q0 -89 -38 -161.5t-106 -116.5h192v-84h-353v79q100 30 150 104t50 179q0 128 -72 210t-209 82t-209 -82t-72 -210q0 -105 50 -179t150 -104v-79h-353z" />
    <glyph glyph-name="uni212E" unicode="&#x212e;" horiz-adv-x="960" 
d="M490 -12q-105 0 -186 29t-130.5 80.5t-75 118.5t-25.5 146q0 161 105.5 267.5t301.5 106.5q136 0 229.5 -51t135.5 -133.5t42 -189.5v-28h-663v-185q90 -97 268 -97q89 0 163.5 28.5t119.5 75.5l44 -42q-110 -126 -329 -126zM480 672q-170 0 -256 -88v-187h512v191
q-84 84 -256 84z" />
    <glyph glyph-name="uni2153" unicode="&#x2153;" horiz-adv-x="1149" 
d="M115 636v59l125 29h57v-332h101v-59h-284v59h101v264zM180 -30l686 784h103l-686 -784h-103zM880 -8q-83 0 -148 24v60q71 -23 145 -23q56 0 85 16.5t29 43.5t-29.5 44t-88.5 17h-51v59h51q98 0 98 54q0 52 -95 52q-76 0 -134 -25v59q57 26 138 26q84 0 129.5 -28.5
t45.5 -77.5q0 -59 -75 -87q96 -26 96 -97q0 -52 -49.5 -84.5t-146.5 -32.5z" />
    <glyph glyph-name="uni2154" unicode="&#x2154;" horiz-adv-x="1149" 
d="M66 333v53l130 94q66 48 90 72t24 52q0 66 -93 66q-70 0 -133 -25v62q65 25 137 25q81 0 126 -33.5t45 -92.5q0 -32 -20 -61t-45 -49.5t-66 -48.5l-18 -12l-63 -43h247v-59h-361zM180 -30l686 784h103l-686 -784h-103zM880 -8q-83 0 -148 24v60q71 -23 145 -23
q56 0 85 16.5t29 43.5t-29.5 44t-88.5 17h-51v59h51q98 0 98 54q0 52 -95 52q-76 0 -134 -25v59q57 26 138 26q84 0 129.5 -28.5t45.5 -77.5q0 -59 -75 -87q96 -26 96 -97q0 -52 -49.5 -84.5t-146.5 -32.5z" />
    <glyph glyph-name="uni2155" unicode="&#x2155;" horiz-adv-x="1149" 
d="M115 636v59l125 29h57v-332h101v-59h-284v59h101v264zM180 -30l686 784h103l-686 -784h-103zM881 -8q-81 0 -148 23v62q71 -23 145 -23q120 0 120 59q0 28 -48.5 45.5t-98 21.5t-105.5 4l10 207h305v-59h-230l-4 -89q256 -12 256 -127q0 -54 -53 -89t-149 -35z" />
    <glyph glyph-name="uni2156" unicode="&#x2156;" horiz-adv-x="1149" 
d="M66 333v53l130 94q66 48 90 72t24 52q0 66 -93 66q-70 0 -133 -25v62q65 25 137 25q81 0 126 -33.5t45 -92.5q0 -32 -20 -61t-45 -49.5t-66 -48.5l-18 -12l-63 -43h247v-59h-361zM180 -30l686 784h103l-686 -784h-103zM881 -8q-81 0 -148 23v62q71 -23 145 -23
q120 0 120 59q0 28 -48.5 45.5t-98 21.5t-105.5 4l10 207h305v-59h-230l-4 -89q256 -12 256 -127q0 -54 -53 -89t-149 -35z" />
    <glyph glyph-name="uni2157" unicode="&#x2157;" horiz-adv-x="1149" 
d="M221 325q-83 0 -148 24v60q71 -23 145 -23q56 0 85 16.5t29 43.5t-29.5 44t-88.5 17h-51v59h51q98 0 98 54q0 52 -95 52q-76 0 -134 -25v59q57 26 138 26q84 0 129.5 -28.5t45.5 -77.5q0 -59 -75 -87q47 -13 71.5 -38t24.5 -59q0 -52 -49.5 -84.5t-146.5 -32.5zM180 -30
l686 784h103l-686 -784h-103zM881 -8q-81 0 -148 23v62q71 -23 145 -23q120 0 120 59q0 28 -48.5 45.5t-98 21.5t-105.5 4l10 207h305v-59h-230l-4 -89q256 -12 256 -127q0 -54 -53 -89t-149 -35z" />
    <glyph glyph-name="uni2158" unicode="&#x2158;" horiz-adv-x="1149" 
d="M293 333v79h-251l-1 53l255 259h78v-254h82v-58h-82v-79h-81zM132 470h161v164zM180 -30l686 784h103l-686 -784h-103zM881 -8q-81 0 -148 23v62q71 -23 145 -23q120 0 120 59q0 28 -48.5 45.5t-98 21.5t-105.5 4l10 207h305v-59h-230l-4 -89q256 -12 256 -127
q0 -54 -53 -89t-149 -35z" />
    <glyph glyph-name="uni2159" unicode="&#x2159;" horiz-adv-x="1149" 
d="M115 636v59l125 29h57v-332h101v-59h-284v59h101v264zM180 -30l686 784h103l-686 -784h-103zM905 -8q-94 0 -144.5 47t-50.5 139q0 108 62 164.5t178 56.5q64 0 119 -19v-61q-62 18 -117 18q-143 0 -160 -112q51 32 123 32q87 0 135 -34t48 -95q0 -58 -51 -97t-142 -39z
M909 198q-66 0 -118 -26v-1q0 -121 116 -121q54 0 81 21.5t27 56.5q0 34 -28 52t-78 18z" />
    <glyph glyph-name="uni215A" unicode="&#x215a;" horiz-adv-x="1149" 
d="M222 325q-81 0 -148 23v62q71 -23 145 -23q120 0 120 59q0 28 -48.5 45.5t-98 21.5t-105.5 4l10 207h305v-59h-230l-4 -89q256 -12 256 -127q0 -54 -53 -89t-149 -35zM180 -30l686 784h103l-686 -784h-103zM905 -8q-94 0 -144.5 47t-50.5 139q0 108 62 164.5t178 56.5
q64 0 119 -19v-61q-62 18 -117 18q-143 0 -160 -112q51 32 123 32q87 0 135 -34t48 -95q0 -58 -51 -97t-142 -39zM909 198q-66 0 -118 -26v-1q0 -121 116 -121q54 0 81 21.5t27 56.5q0 34 -28 52t-78 18z" />
    <glyph glyph-name="uni215B" unicode="&#x215b;" horiz-adv-x="1149" 
d="M115 636v59l125 29h57v-332h101v-59h-284v59h101v264zM180 -30l686 784h103l-686 -784h-103zM904 -8q-100 0 -151.5 34t-51.5 84q0 67 94 95q-33 13 -53 36t-20 50q0 50 49 79t133 29t133 -29t49 -79q0 -27 -20.5 -50t-53.5 -36q95 -27 95 -95q0 -50 -51.5 -84
t-151.5 -34zM904 50q61 0 90.5 18t29.5 45q0 26 -31 44.5t-89 18.5t-89 -18.5t-31 -44.5q0 -27 29.5 -45t90.5 -18zM904 231q48 0 74 15t26 40q0 56 -100 56t-100 -56q0 -25 26 -40t74 -15z" />
    <glyph glyph-name="uni215C" unicode="&#x215c;" horiz-adv-x="1149" 
d="M221 325q-83 0 -148 24v60q71 -23 145 -23q56 0 85 16.5t29 43.5t-29.5 44t-88.5 17h-51v59h51q98 0 98 54q0 52 -95 52q-76 0 -134 -25v59q57 26 138 26q84 0 129.5 -28.5t45.5 -77.5q0 -59 -75 -87q47 -13 71.5 -38t24.5 -59q0 -52 -49.5 -84.5t-146.5 -32.5zM180 -30
l686 784h103l-686 -784h-103zM904 -8q-100 0 -151.5 34t-51.5 84q0 67 94 95q-33 13 -53 36t-20 50q0 50 49 79t133 29t133 -29t49 -79q0 -27 -20.5 -50t-53.5 -36q95 -27 95 -95q0 -50 -51.5 -84t-151.5 -34zM904 50q61 0 90.5 18t29.5 45q0 26 -31 44.5t-89 18.5
t-89 -18.5t-31 -44.5q0 -27 29.5 -45t90.5 -18zM904 231q48 0 74 15t26 40q0 56 -100 56t-100 -56q0 -25 26 -40t74 -15z" />
    <glyph glyph-name="uni215D" unicode="&#x215d;" horiz-adv-x="1149" 
d="M222 325q-81 0 -148 23v62q71 -23 145 -23q120 0 120 59q0 28 -48.5 45.5t-98 21.5t-105.5 4l10 207h305v-59h-230l-4 -89q256 -12 256 -127q0 -54 -53 -89t-149 -35zM180 -30l686 784h103l-686 -784h-103zM904 -8q-100 0 -151.5 34t-51.5 84q0 67 94 95q-33 13 -53 36
t-20 50q0 50 49 79t133 29t133 -29t49 -79q0 -27 -20.5 -50t-53.5 -36q95 -27 95 -95q0 -50 -51.5 -84t-151.5 -34zM904 50q61 0 90.5 18t29.5 45q0 26 -31 44.5t-89 18.5t-89 -18.5t-31 -44.5q0 -27 29.5 -45t90.5 -18zM904 231q48 0 74 15t26 40q0 56 -100 56t-100 -56
q0 -25 26 -40t74 -15z" />
    <glyph glyph-name="uni215E" unicode="&#x215e;" horiz-adv-x="1149" 
d="M116 333l218 332h-264v59h356v-53l-224 -338h-86zM180 -30l686 784h103l-686 -784h-103zM904 -8q-100 0 -151.5 34t-51.5 84q0 67 94 95q-33 13 -53 36t-20 50q0 50 49 79t133 29t133 -29t49 -79q0 -27 -20.5 -50t-53.5 -36q95 -27 95 -95q0 -50 -51.5 -84t-151.5 -34z
M904 50q61 0 90.5 18t29.5 45q0 26 -31 44.5t-89 18.5t-89 -18.5t-31 -44.5q0 -27 29.5 -45t90.5 -18zM904 231q48 0 74 15t26 40q0 56 -100 56t-100 -56q0 -25 26 -40t74 -15z" />
    <glyph glyph-name="uni2190" unicode="&#x2190;" horiz-adv-x="930" 
d="M406 0l-362 362l362 362l59 -60l-261 -262h682v-80h-682l262 -263z" />
    <glyph glyph-name="uni2191" unicode="&#x2191;" horiz-adv-x="930" 
d="M160 350l-57 58l362 362l362 -362l-58 -57l-262 261v-684h-84v684z" />
    <glyph glyph-name="uni2192" unicode="&#x2192;" horiz-adv-x="930" 
d="M44 322v80h682l-262 263l60 59l362 -362l-362 -362l-59 60l261 262h-682z" />
    <glyph glyph-name="uni2193" unicode="&#x2193;" horiz-adv-x="930" 
d="M465 -84l-362 362l58 57l262 -261v684h84v-684l263 262l57 -58z" />
    <glyph glyph-name="uni2196" unicode="&#x2196;" horiz-adv-x="930" 
d="M719 54l-481 482v-372h-85v512h512v-81h-372l485 -484z" />
    <glyph glyph-name="uni2197" unicode="&#x2197;" horiz-adv-x="930" 
d="M212 54l-59 57l485 484h-372v81h512v-512h-85v372z" />
    <glyph glyph-name="uni2198" unicode="&#x2198;" horiz-adv-x="930" 
d="M266 54v81h372l-485 484l59 57l481 -482v372h85v-512h-512z" />
    <glyph glyph-name="uni2199" unicode="&#x2199;" horiz-adv-x="930" 
d="M153 54v512h85v-372l481 482l59 -57l-485 -484h372v-81h-512z" />
    <glyph glyph-name="partialdiff" unicode="&#x2202;" horiz-adv-x="754" 
d="M377 -12q-156 0 -232.5 70t-76.5 191q0 115 79.5 187.5t211.5 72.5q94 0 159 -34q-103 133 -321 199l22 70q85 -20 166 -63t149.5 -103.5t110 -144t41.5 -174.5q0 -130 -76.5 -200.5t-232.5 -70.5zM377 65q207 0 207 183q0 184 -207 184t-207 -183q0 -184 207 -184z" />
    <glyph glyph-name="Delta" unicode="&#x2206;" horiz-adv-x="865" 
d="M48 0v79l328 645h113l328 -645v-79h-769zM431 616l-268 -532h536z" />
    <glyph glyph-name="product" unicode="&#x220f;" horiz-adv-x="872" 
d="M649 -211v851h-426v-851h-103v935h632v-935h-103z" />
    <glyph glyph-name="summation" unicode="&#x2211;" horiz-adv-x="770" 
d="M86 -211v79l416 388l-416 389v79h604v-84h-468l370 -344v-79l-370 -344h468v-84h-604z" />
    <glyph glyph-name="minus" unicode="&#x2212;" horiz-adv-x="742" 
d="M64 261v78h614v-78h-614z" />
    <glyph glyph-name="radical" unicode="&#x221a;" horiz-adv-x="668" 
d="M290 0l-198 435h-133v78h205l173 -399l279 610h105l-340 -724h-91z" />
    <glyph glyph-name="infinity" unicode="&#x221e;" horiz-adv-x="1114" 
d="M846 89q-120 1 -234 106l-55 50l-55 -50q-114 -105 -234 -106q-90 -2 -149 55.5t-59 155.5t59 155.5t149 55.5q120 -1 234 -106l55 -50l55 50q114 105 234 106q90 2 149 -55.5t59 -155.5t-59 -155.5t-149 -55.5zM670 348l-53 -48l53 -48q92 -84 169 -84q58 0 93 33t35 99
t-35 99t-93 33q-77 0 -169 -84zM275 168q77 0 169 84l52 48l-52 48q-92 84 -169 84q-58 0 -93 -33t-35 -99t35 -99t93 -33z" />
    <glyph glyph-name="integral" unicode="&#x222b;" horiz-adv-x="361" 
d="M3 -223q-39 0 -68 8v77q31 -7 61 -7q70 0 97.5 37.5t27.5 123.5v488q0 120 50.5 176t166.5 56q39 0 68 -8v-77q-31 7 -61 7q-70 0 -97.5 -37.5t-27.5 -123.5v-488q0 -120 -50.5 -176t-166.5 -56z" />
    <glyph glyph-name="approxequal" unicode="&#x2248;" horiz-adv-x="742" 
d="M520 119q-54 0 -153 40.5t-143 40.5q-28 0 -44 -19t-18 -52h-74q0 66 32.5 110t101.5 44q54 0 153 -40.5t143 -40.5q28 0 44 19t18 52h74q0 -66 -32.5 -110t-101.5 -44zM520 319q-54 0 -153 40.5t-143 40.5q-28 0 -44 -19t-18 -52h-74q0 66 32.5 110t101.5 44
q54 0 153 -40.5t143 -40.5q28 0 44 19t18 52h74q0 -66 -32.5 -110t-101.5 -44z" />
    <glyph glyph-name="notequal" unicode="&#x2260;" horiz-adv-x="742" 
d="M90 361v78h345l109 140h93l-109 -140h124v-78h-185l-95 -122h280v-78h-340l-112 -144h-93l112 144h-129v78h189l95 122h-284z" />
    <glyph glyph-name="lessequal" unicode="&#x2264;" horiz-adv-x="742" 
d="M114 0v78h514v-78h-514zM486 147l-374 261l374 252h144l-374 -252l374 -261h-144z" />
    <glyph glyph-name="greaterequal" unicode="&#x2265;" horiz-adv-x="742" 
d="M114 0v78h514v-78h-514zM112 147l374 261l-374 252h144l374 -252l-374 -261h-144z" />
    <glyph glyph-name="uni2300" unicode="&#x2300;" horiz-adv-x="716" 
d="M110 66l-48 48l65 65q-63 81 -63 183q0 122 86 208t208 86q102 0 182 -64l66 66l48 -48l-66 -66q64 -80 64 -182q0 -122 -86 -208t-208 -86q-102 0 -183 63zM137 362q0 -73 42 -131l309 309q-57 43 -130 43q-92 0 -156.5 -64.5t-64.5 -156.5zM358 141q92 0 156.5 64.5
t64.5 156.5q0 73 -43 130l-309 -309q58 -42 131 -42z" />
    <glyph glyph-name="uni25AA" unicode="&#x25aa;" horiz-adv-x="467" 
d="M148 215v171h171v-171h-171z" />
    <glyph glyph-name="uni25BA" unicode="&#x25ba;" horiz-adv-x="566" 
d="M120 145v434l376 -217z" />
    <glyph glyph-name="uni25C0" unicode="&#x25c0;" horiz-adv-x="566" 
d="M446 145l-376 217l376 217v-434z" />
    <glyph glyph-name="uni25C6" unicode="&#x25c6;" horiz-adv-x="566" 
d="M283 124l-238 238l238 238l238 -238z" />
    <glyph glyph-name="lozenge" unicode="&#x25ca;" horiz-adv-x="918" 
d="M413 0l-349 362l350 362h90l350 -362l-349 -362h-92zM186 362l273 -284l273 284l-273 284z" />
    <glyph glyph-name="uni5143" unicode="&#x5143;" horiz-adv-x="1000" 
d="M72 429v84h849v-84h-283v-337q0 -33 19 -43.5t74 -10.5q62 0 85.5 14.5t23.5 54.5v70l92 -19v-57q0 -82 -43.5 -113t-159.5 -31q-108 0 -150 27.5t-42 101.5v343h-139q-10 -168 -88.5 -296t-208.5 -192l-52 67q117 71 177.5 172.5t68.5 248.5h-223zM184 640v84h632v-84
h-632z" />
    <glyph glyph-name="uni5186" unicode="&#x5186;" horiz-adv-x="1000" 
d="M118 -43v767h764l-1 -629q0 -79 -42.5 -108.5t-144.5 -29.5h-31l-20 83h49q49 0 67.5 13t18.5 47v171h-557v-314h-103zM221 640v-288h232v288h-232zM547 640v-288h231v288h-231z" />
    <glyph glyph-name="section.alt01" unicode="&#xf62f;" 
d="M314 -223q-124 0 -210 39v80q79 -31 136 -31q124 0 124 95q0 41 -65 143l-102 156q-77 118 -77 212q0 90 53.5 151t136.5 87.5t189 26.5q111 0 196 -33v-83q-21 11 -58 19.5t-64 8.5q-124 0 -124 -95q0 -41 65 -143l102 -156q77 -118 77 -212q0 -90 -53.5 -151
t-136.5 -87.5t-189 -26.5zM391 -158q200 50 200 190q0 79 -63 175l-102 156q-74 113 -74 189q0 75 69 118q-200 -50 -200 -190q0 -77 63 -175l102 -156q74 -113 74 -189q0 -74 -69 -118z" />
    <glyph glyph-name="zero.lntx" unicode="&#xf630;" horiz-adv-x="848" 
d="M424 -12q-92 0 -161 28.5t-109.5 80t-60.5 118t-20 148.5q0 80 20.5 146t61.5 117.5t110 80.5t159 29q92 0 161 -28.5t109.5 -80t60.5 -118t20 -148.5q0 -80 -20.5 -146t-61.5 -117.5t-110 -80.5t-159 -29zM424 67q124 0 185.5 82t61.5 213t-61.5 213t-185.5 82
t-185.5 -82t-61.5 -213t61.5 -213t185.5 -82z" />
    <glyph glyph-name="one.lntx" unicode="&#xf631;" horiz-adv-x="500" 
d="M34 584v85l229 55h67v-724h-103v627z" />
    <glyph glyph-name="two.lntx" unicode="&#xf632;" 
d="M100 0v79l215 172q145 116 181 153q63 65 63 128q0 56 -44.5 86t-130.5 30q-134 0 -254 -45v89q102 44 256 44q140 0 209 -53.5t69 -148.5q0 -80 -61.5 -151t-215.5 -189l-143 -110h472v-84h-616z" />
    <glyph glyph-name="three.lntx" unicode="&#xf633;" 
d="M364 -12q-142 0 -250 40v87q129 -39 252 -39q93 0 153 31.5t60 90.5q0 62 -57.5 98.5t-164.5 36.5h-87v83h87q187 0 187 123q0 54 -51.5 82.5t-128.5 28.5q-134 0 -236 -41v85q98 42 236 42q132 0 208.5 -51t76.5 -142q0 -112 -118 -165q72 -23 112.5 -72t40.5 -112
q0 -92 -86.5 -149t-233.5 -57z" />
    <glyph glyph-name="four.lntx" unicode="&#xf634;" horiz-adv-x="778" 
d="M505 0v160h-478l-1 82l478 482h104v-480h155v-84h-155v-160h-103zM151 244h354v356z" />
    <glyph glyph-name="five.lntx" unicode="&#xf635;" 
d="M359 -12q-145 0 -250 39v88q129 -39 252 -39q227 0 227 129q0 38 -34 67t-81.5 44.5t-114.5 25t-116.5 12.5t-103.5 4l18 366h504v-84h-411l-10 -198q458 -23 458 -234q0 -100 -84 -160t-254 -60z" />
    <glyph glyph-name="six.lntx" unicode="&#xf636;" horiz-adv-x="793" 
d="M407 -12q-162 0 -248 86.5t-86 254.5q0 198 104 302.5t304 104.5q110 0 191 -24v-89q-96 25 -187 25q-142 0 -218 -62t-87 -194q94 75 238 75t223 -64.5t79 -175.5q0 -100 -80.5 -169.5t-232.5 -69.5zM407 382q-129 0 -230 -67q4 -136 64.5 -191.5t165.5 -55.5
q98 0 153 41.5t55 117.5q0 155 -208 155z" />
    <glyph glyph-name="seven.lntx" unicode="&#xf637;" horiz-adv-x="705" 
d="M151 0l410 640h-487v84h604v-79l-414 -645h-113z" />
    <glyph glyph-name="eight.lntx" unicode="&#xf638;" horiz-adv-x="906" 
d="M453 -12q-173 0 -255 59t-82 153q0 115 147 176q-112 50 -112 159q0 92 81.5 146.5t220.5 54.5q144 0 223 -54t79 -147q0 -109 -112 -159q147 -61 147 -176q0 -93 -84.5 -152.5t-252.5 -59.5zM453 69q114 0 173.5 35t59.5 98q0 58 -60.5 96.5t-172.5 38.5t-172.5 -38.5
t-60.5 -96.5q0 -63 59.5 -98t173.5 -35zM453 412q93 0 145.5 31t52.5 92t-52.5 91t-145.5 30t-145.5 -30t-52.5 -91t52.5 -92t145.5 -31z" />
    <glyph glyph-name="nine.lntx" unicode="&#xf639;" horiz-adv-x="793" 
d="M318 -12q-110 0 -191 24v89q96 -25 187 -25q145 0 219 65.5t81 205.5v1q-97 -77 -239 -77q-144 0 -223 62t-79 172q0 98 82 164.5t231 66.5q162 0 248 -86.5t86 -254.5q0 -199 -101.5 -303t-300.5 -104zM386 356q127 0 229 68q-7 127 -67.5 179.5t-161.5 52.5
q-95 0 -151.5 -38t-56.5 -113q0 -149 208 -149z" />
    <glyph glyph-name="apple" unicode="&#xf8ff;" horiz-adv-x="2282" 
d="M436 -11q-154 0 -263 108.5t-109 263.5t108.5 264t263.5 109q133 0 235 -83q102 83 235 83t235 -83q104 83 235 83t235 -83q102 83 235 83q154 0 263 -109t109 -264q0 -154 -109 -263t-263 -109q-133 0 -235 83q-104 -83 -235 -83t-235 83q-102 -83 -235 -83t-235 83
q-102 -83 -235 -83zM906 73q99 0 176 60q-79 100 -79 228q0 129 79 229q-77 60 -176 60q-98 0 -175 -60q78 -100 78 -229q0 -128 -78 -228q77 -60 175 -60zM1376 73q99 0 176 60q-79 100 -79 228q0 129 79 229q-77 60 -176 60t-176 -60q79 -100 79 -229q0 -128 -79 -228
q77 -60 176 -60zM436 73q100 0 176 60q-78 100 -78 228q0 129 78 229q-76 60 -176 60q-119 0 -203.5 -84.5t-84.5 -204.5q0 -119 84.5 -203.5t203.5 -84.5zM1846 73q119 0 203.5 84.5t84.5 203.5q0 120 -84.5 204.5t-203.5 84.5q-99 0 -176 -60q79 -100 79 -229
q0 -128 -79 -228q77 -60 176 -60zM671 194q54 75 54 167q0 93 -54 168q-53 -73 -53 -168q0 -94 53 -167zM1141 194q54 75 54 167q0 93 -54 168q-54 -75 -54 -168q0 -92 54 -167zM1611 194q54 77 54 167q0 91 -54 168q-54 -75 -54 -168q0 -92 54 -167z" />
    </font>
</defs>
</svg>
