<?xml version="1.0" standalone="no"?>
<!DOCTYPE svg PUBLIC "-//W3C//DTD SVG 1.1//EN" "http://www.w3.org/Graphics/SVG/1.1/DTD/svg11.dtd" >
<svg xmlns="http://www.w3.org/2000/svg" xmlns:xlink="http://www.w3.org/1999/xlink" version="1.1">
<metadata>
Created by FontForge 20150318 at Thu Jun 18 17:23:13 2015
 By uniteet7
(c)G.M.
</metadata>
<defs>
<font id="WalkwayCondensedSemiBold" horiz-adv-x="367" >
  <font-face 
    font-family="WalkwayCondensedSemiBold"
    font-weight="400"
    font-stretch="normal"
    units-per-em="1000"
    panose-1="0 0 4 0 0 0 0 0 0 0"
    ascent="800"
    descent="-200"
    x-height="488"
    cap-height="678"
    bbox="-112 -179 730 874"
    underline-thickness="30"
    underline-position="-118"
    unicode-range="U+0020-2122"
  />
<missing-glyph horiz-adv-x="500" 
d="M63 0v874h375v-874h-375zM125 63h250v749h-250v-749z" />
    <glyph glyph-name=".notdef" horiz-adv-x="500" 
d="M63 0v874h375v-874h-375zM125 63h250v749h-250v-749z" />
    <glyph glyph-name="glyph1" horiz-adv-x="0" 
 />
    <glyph glyph-name="nonmarkingreturn" horiz-adv-x="248" 
 />
    <glyph glyph-name="space" unicode=" " horiz-adv-x="248" 
 />
    <glyph glyph-name="exclam" unicode="!" horiz-adv-x="136" 
d="M54 169v509h30v-509h-30zM68 0q-15 0 -15 18v64q0 17 15 17t15 -17v-64q0 -18 -15 -18z" />
    <glyph glyph-name="quotedbl" unicode="&#x22;" horiz-adv-x="204" 
d="M142 547q-15 0 -15 17v91q0 17 15 17t15 -17v-91q0 -17 -15 -17zM61 547q-14 0 -14 17v91q0 17 14 17q16 0 16 -17v-91q0 -17 -16 -17z" />
    <glyph glyph-name="numbersign" unicode="#" horiz-adv-x="372" 
d="M320 359h-63l-14 -89h62l-6 -33h-62l-13 -76h-30l13 76h-69l-13 -76h-30l14 76h-63l6 33h62l16 89h-63l6 33h62l14 76h29l-13 -76h69l13 76h29l-12 -76h62zM159 359l-15 -89h69l15 89h-69z" />
    <glyph glyph-name="dollar" unicode="$" horiz-adv-x="449" 
d="M288 -10v-60h-30v55q-14 -2 -27 -2q-25 0 -46 4v-57h-30v63q-137 45 -137 223v17h30v-13q0 -155 107 -192v323q-121 43 -121 165q0 140 121 172v65h30v-59q15 1 33 1q21 0 40 -3v61h30v-67q123 -38 125 -208h-29q-7 141 -96 174v-304q67 -24 95 -54q40 -41 40 -126
q0 -65 -36.5 -113.5t-98.5 -64.5zM258 659q-18 3 -40 3q-18 0 -33 -2v-282l73 -20v301zM155 653q-92 -30 -92 -137q0 -91 92 -128v265zM377 252q-22 33 -89 60v-288q105 30 105 147q0 56 -16 81zM258 322l-73 20v-321q21 -5 47 -5q13 0 26 2v304z" />
    <glyph glyph-name="percent" unicode="%" horiz-adv-x="525" 
d="M133 301q-100 0 -100 176q0 180 101 180t101 -180q0 -176 -102 -176zM116 0h-35l341 678h34zM392 -19q-101 0 -101 177q0 181 102 181q101 0 101 -181q0 -177 -102 -177zM133 624q-70 0 -70 -147q0 -144 71 -144t71 144q0 147 -72 147zM392 306q-70 0 -70 -148
q0 -144 71 -144q70 0 70 144q0 148 -71 148z" />
    <glyph glyph-name="ampersand" unicode="&#x26;" horiz-adv-x="422" 
d="M343 109q-56 -125 -156 -125q-72 0 -117 49t-45 120q0 73 45 133q32 44 105 98q-87 61 -87 164q0 54 29 90q31 40 85 40q57 0 88 -39q28 -36 28 -93q0 -93 -131 -193q-68 -52 -90 -81q-42 -56 -42 -119q0 -57 35 -95q36 -41 93 -41q91 0 135 114q25 66 26 141h29v-291
h-29zM204 645q-41 0 -63.5 -28.5t-22.5 -69.5q0 -93 82 -145q88 71 88 145q0 42 -21 68q-23 30 -63 30z" />
    <glyph glyph-name="quotesingle" unicode="'" horiz-adv-x="122" 
d="M61 547q-14 0 -14 17v91q0 17 14 17q16 0 16 -17v-91q0 -17 -16 -17z" />
    <glyph glyph-name="parenleft" unicode="(" horiz-adv-x="163" 
d="M131 -168q-88 198 -88 451q0 254 88 451h31q-90 -196 -90 -451t90 -451h-31z" />
    <glyph glyph-name="parenright" unicode=")" horiz-adv-x="163" 
d="M29 -168h-32q94 196 94 451t-94 451h32q92 -194 92 -451q0 -256 -92 -451z" />
    <glyph glyph-name="asterisk" unicode="*" horiz-adv-x="238" 
d="M48 620h1l49 -33v68q0 17 15 17t15 -17v-68l46 32q4 3 9 3q9 0 13 -8q5 -15 -7 -22l-49 -34l50 -36q7 -5 7 -14q0 -17 -13 -17q-5 0 -11 4l-45 33v-68q0 -17 -15 -17t-15 17v68l-46 -33q-5 -3 -10 -3q-15 0 -15 16q0 9 8 14l50 36l-50 35q-8 5 -8 13q0 16 14 16q3 0 7 -2
z" />
    <glyph glyph-name="plus" unicode="+" horiz-adv-x="392" 
d="M211 235v-168h-30v168h-133v33h133v165h30v-165h134v-33h-134z" />
    <glyph glyph-name="comma" unicode="," horiz-adv-x="183" 
d="M92 -77q-2 -14 -14 -14q-16 0 -16 15q0 3 1 7q23 118 24 125q8 31 17 31q3 0 7 -1q14 -4 10 -20z" />
    <glyph glyph-name="hyphen" unicode="-" horiz-adv-x="245" 
d="M29 254v20h195v-20h-195z" />
    <glyph glyph-name="hyphen" unicode="&#x2010;" horiz-adv-x="245" 
d="M29 254v20h195v-20h-195z" />
    <glyph glyph-name="period" unicode="." horiz-adv-x="146" 
d="M73 -2q-14 0 -14 16v55q0 16 14 16q15 0 15 -16v-55q0 -16 -15 -16z" />
    <glyph glyph-name="slash" unicode="/" horiz-adv-x="245" 
d="M21 0h-30l239 694h30z" />
    <glyph glyph-name="zero" unicode="0" horiz-adv-x="409" 
d="M347 77q-47 -89 -142 -89q-94 0 -141 88q-37 69 -37 169v168q0 100 37 169q47 89 141 89t140 -87q37 -68 37 -171v-168q0 -101 -35 -168zM353 413q0 85 -31 146q-39 79 -118 79t-118 -79q-30 -61 -30 -146v-168q0 -84 30 -145q40 -79 118 -79q79 0 119 78q30 60 30 146
v168z" />
    <glyph glyph-name="one" unicode="1" horiz-adv-x="289" 
d="M195 0v590l-98 -112h-41l142 168h27v-646h-30z" />
    <glyph glyph-name="two" unicode="2" horiz-adv-x="409" 
d="M34 0q0 181 140 300q25 21 98 82q63 53 63 114q0 59 -32 93.5t-91 34.5q-140 0 -140 -200h-30q0 101 32 159q43 74 134 74q77 0 116.5 -44t39.5 -120q0 -65 -73 -136q-63 -54 -126 -107q-97 -107 -100 -217h320v-33h-351z" />
    <glyph glyph-name="three" unicode="3" horiz-adv-x="409" 
d="M208 -11q-95 0 -144 67q-42 59 -42 155v17h29v-31q0 -75 38 -122q41 -53 116 -53q70 0 111.5 44t41.5 113q0 151 -140 151h-39v34h40q129 0 129 132q0 60 -36.5 94t-97.5 34q-149 0 -149 -188h-29q0 101 38 156q45 65 138 65q78 0 122 -42t44 -119q0 -116 -87 -148
q96 -32 96 -169q0 -83 -48 -135q-49 -55 -131 -55z" />
    <glyph glyph-name="four" unicode="4" horiz-adv-x="409" 
d="M301 220v-220h-29v220h-260l152 427h30l-139 -394h217v395l29 -2v-393h91v-33h-91z" />
    <glyph glyph-name="five" unicode="5" horiz-adv-x="409" 
d="M202 -11q-95 0 -142 68q-40 58 -40 160h30q0 -195 152 -195q78 0 117 62q33 51 33 131t-36 132q-41 62 -119 62q-88 0 -131 -96h-31l10 333h316v-33h-286l-8 -241q49 71 132 71q91 0 140 -72q43 -62 43 -155q0 -94 -42 -155q-48 -72 -138 -72z" />
    <glyph glyph-name="six" unicode="6" horiz-adv-x="409" 
d="M344 436q0 79 -33 129q-37 58 -105 58q-71 0 -108 -58q-30 -48 -31 -122v-111q44 79 137 79q83 0 128 -67q39 -57 39 -142t-40 -142q-46 -66 -129 -66t-128 66q-38 57 -38 142v10q0 7 1 8v226q0 86 39 142q46 65 130 65q85 0 129 -68q38 -57 38 -149h-29zM203 381
q-71 0 -108 -58q-30 -48 -30 -121q0 -72 31 -121q37 -58 107 -58t107 58q32 49 32 121q0 74 -32 122q-37 57 -107 57z" />
    <glyph glyph-name="seven" unicode="7" horiz-adv-x="409" 
d="M153 0h-29l214 613h-299v33h340z" />
    <glyph glyph-name="eight" unicode="8" horiz-adv-x="421" 
d="M211 -11q-92 0 -142 54q-47 51 -47 142q0 60 25 104q28 50 83 67q-40 16 -61.5 52.5t-21.5 79.5q0 169 164 169q80 0 122 -45t42 -124q0 -98 -84 -132q108 -32 108 -173q0 -91 -48.5 -142.5t-139.5 -51.5zM211 624q-134 0 -134 -137q0 -53 39 -85.5t95 -32.5
q57 0 96 32.5t39 87.5q0 135 -135 135zM211 336q-159 0 -159 -152q0 -76 41 -119t118 -43q78 0 118.5 43t40.5 119q0 152 -159 152z" />
    <glyph glyph-name="nine" unicode="9" horiz-adv-x="409" 
d="M202 -15q-84 0 -128 67q-38 57 -38 148h29q0 -80 32 -129q37 -57 106 -57q70 0 107 58q32 49 32 121v131q-44 -79 -137 -79q-83 0 -128 67q-38 56 -38 141q0 84 39 142q46 67 128 67q84 0 129 -67q38 -56 38 -142v-262q0 -85 -42 -142q-47 -64 -129 -64zM206 633
q-71 0 -108 -58q-30 -48 -30 -122q0 -72 31 -120q37 -58 107 -58t107 57q31 49 31 121q0 74 -31 122q-37 58 -107 58z" />
    <glyph glyph-name="colon" unicode=":" horiz-adv-x="171" 
d="M86 366q-15 0 -15 18v63q0 18 15 18q13 0 14 -18l1 -63q0 -18 -15 -18zM86 -2q-15 0 -15 18v63q0 18 15 18q13 0 14 -18l1 -63q0 -18 -15 -18z" />
    <glyph glyph-name="semicolon" unicode=";" horiz-adv-x="176" 
d="M100 366q-15 0 -15 18v63q0 18 15 18t15 -18v-63q0 -18 -15 -18zM87 -76q-2 -15 -14 -15q-15 0 -15 16q0 3 1 7q23 125 24 132q8 33 17 33q3 0 7 -1q14 -4 10 -21z" />
    <glyph glyph-name="less" unicode="&#x3c;" horiz-adv-x="374" 
d="M27 225v31l316 180v-36l-281 -160l281 -160v-37z" />
    <glyph glyph-name="equal" unicode="=" horiz-adv-x="441" 
d="M28 282v31h386v-31h-386zM28 167v31h386v-31h-386z" />
    <glyph glyph-name="greater" unicode="&#x3e;" horiz-adv-x="374" 
d="M27 43v37l279 160l-279 160v36l316 -180v-31z" />
    <glyph glyph-name="question" unicode="?" 
d="M194 200v-31h-30v25q0 98 69 180q40 47 53 72q21 38 21 86q0 58 -31.5 93.5t-90.5 35.5q-124 0 -138 -176l-27 22q8 81 44 129q44 58 121 58q71 0 111.5 -46t40.5 -116q0 -85 -71.5 -168t-71.5 -164zM178 0q-14 0 -14 18v64q0 17 14 17q15 0 15 -17v-64q0 -18 -15 -18z
" />
    <glyph glyph-name="at" unicode="@" horiz-adv-x="588" 
d="M508 218q-15 -28 -38 -50q-28 -27 -54 -27q-29 0 -29 42q0 3 3 35q-48 -90 -133 -91q-68 -1 -102 60q-27 48 -27 119q0 27 1 39q7 86 44 145q46 73 126 75q86 1 115 -85l8 85h28l-35 -373v-7q0 -8 6 -8q16 0 38 26q17 22 26 41q38 83 38 157q0 104 -54 178
q-61 84 -161 84q-118 0 -185 -107q-57 -91 -57 -216q0 -123 57 -213q68 -106 184 -106q65 0 123 41.5t85 106.5h34q-31 -79 -97.5 -129.5t-140.5 -50.5q-133 0 -211 119q-66 101 -66 237q0 133 65 233q76 117 206 117q117 0 186 -92q62 -84 62 -204q0 -95 -45 -181zM295 534
q-71 -1 -109 -81q-31 -64 -31 -144q0 -60 20 -100q27 -53 83 -53q64 1 104 69q32 52 40 123q2 18 2 36q0 63 -23 102q-28 49 -86 48z" />
    <glyph glyph-name="A" unicode="A" horiz-adv-x="445" 
d="M420 0l-68 218h-256l-69 -218h-34l219 678h30l210 -678h-32zM227 621l-120 -370h235z" />
    <glyph glyph-name="B" unicode="B" horiz-adv-x="449" 
d="M251 0h-224v678h233q76 0 118 -51q38 -47 38 -124q0 -106 -91 -149q106 -31 106 -169q0 -86 -47 -135.5t-133 -49.5zM259 645h-202v-275h201q62 0 96 40q32 37 32 98q0 62 -33 99.5t-94 37.5zM257 337h-200v-304h203q68 0 105 42t37 109q0 72 -37 112.5t-108 40.5z" />
    <glyph glyph-name="C" unicode="C" horiz-adv-x="503" 
d="M452 540q-52 112 -171 112q-115 0 -174 -104q-49 -85 -49 -210q0 -121 45 -205q57 -107 171 -107q113 0 173 114l23 -23q-65 -124 -196 -124q-130 0 -195 115q-50 91 -50 226q0 139 52 233q67 118 200 118q136 0 196 -123z" />
    <glyph glyph-name="D" unicode="D" horiz-adv-x="476" 
d="M194 0h-161v678h187q130 0 189 -114q45 -86 45 -226q0 -143 -57 -232q-67 -106 -203 -106zM220 645h-157v-612h133q123 0 181 98q47 78 47 207q0 307 -204 307z" />
    <glyph glyph-name="E" unicode="E" horiz-adv-x="395" 
d="M33 0v678h355v-33h-326v-275h289v-32h-289v-305h330v-33h-359z" />
    <glyph glyph-name="F" unicode="F" horiz-adv-x="353" 
d="M62 645v-275h257v-32h-257v-338h-29v678h330v-33h-301z" />
    <glyph glyph-name="G" unicode="G" horiz-adv-x="531" 
d="M450 83q-62 -90 -176 -90q-136 0 -203 112q-54 91 -54 232q0 139 53 232q66 116 199 116q99 0 159 -64q52 -57 68 -165h-30q-31 196 -197 196q-119 0 -177 -106q-46 -83 -46 -208q0 -128 47 -209q59 -103 181 -103q94 0 149 75q51 67 51 164v26h-204v33h232q2 -28 2 -48
q0 -116 -54 -193z" />
    <glyph glyph-name="H" unicode="H" horiz-adv-x="476" 
d="M414 0v338h-351v-338h-30v678h30v-308h351v308h30v-678h-30z" />
    <glyph glyph-name="I" unicode="I" horiz-adv-x="94" 
d="M33 0v678h30v-678h-30z" />
    <glyph glyph-name="J" unicode="J" horiz-adv-x="340" 
d="M156 -7q-139 0 -150 163h30q7 -130 117 -130q74 0 101 51q21 38 21 122v479h30v-485q0 -200 -149 -200z" />
    <glyph glyph-name="K" unicode="K" horiz-adv-x="469" 
d="M431 0l-265 365l-103 -116v-249h-30v678h30v-383l352 383h42l-268 -291l281 -387h-39z" />
    <glyph glyph-name="L" unicode="L" horiz-adv-x="353" 
d="M33 0v678h30v-645h299v-33h-329z" />
    <glyph glyph-name="M" unicode="M" horiz-adv-x="573" 
d="M511 0v607l-211 -607h-26l-211 607v-607h-30v678h36l217 -625l219 625h36v-678h-30z" />
    <glyph glyph-name="N" unicode="N" horiz-adv-x="476" 
d="M410 0l-347 621v-621h-30v678h34q58 -110 172 -310q122 -212 175 -309v619h30v-678h-34z" />
    <glyph glyph-name="O" unicode="O" horiz-adv-x="530" 
d="M464 109q-66 -116 -199 -116q-131 0 -196 113q-52 92 -52 233q0 137 51 226q65 110 197 110q133 0 197 -110q53 -88 53 -226q0 -139 -51 -230zM265 642q-117 0 -174 -101q-44 -79 -44 -202t45 -206q57 -107 173 -107q118 0 175 106q45 82 45 207q0 126 -46 205
q-56 98 -174 98z" />
    <glyph glyph-name="P" unicode="P" horiz-adv-x="435" 
d="M242 302h-179v-302h-30v678h217q170 0 170 -190q0 -85 -47 -135.5t-131 -50.5zM254 645h-191v-309h192q65 0 101 45q34 41 34 106q0 158 -136 158z" />
    <glyph glyph-name="Q" unicode="Q" horiz-adv-x="530" 
d="M341 5q24 -38 64 -38h73v-33h-73q-59 0 -93 63q-22 -5 -47 -5q-131 0 -196 114q-52 91 -52 232q0 138 51 227q65 110 197 110q133 0 197 -110q53 -88 53 -227q0 -114 -36 -197q-45 -103 -138 -136zM265 642q-117 0 -174 -101q-44 -79 -44 -203q0 -138 55 -221
q10 41 36 68q30 31 71 31q53 0 85 -47q28 -41 28 -95q0 -20 5 -39q85 28 125 125q33 76 33 178q0 127 -46 206q-56 98 -174 98zM293 75q0 42 -20 73q-23 36 -64 36q-37 0 -60 -31q-22 -27 -23 -66q56 -62 139 -62q18 0 34 3q-6 23 -6 47z" />
    <glyph glyph-name="R" unicode="R" horiz-adv-x="449" 
d="M330 330q85 -36 85 -161v-169h-29v166q0 144 -134 144h-189v-310h-30v678h225q164 0 164 -175q0 -132 -92 -173zM260 645h-197v-301h185q71 0 109 45q36 41 36 111q0 145 -133 145z" />
    <glyph glyph-name="S" unicode="S" horiz-adv-x="449" 
d="M231 -7q-105 0 -161 61q-52 58 -52 163v17h30v-13q0 -195 184 -195q74 0 117.5 37.5t43.5 108.5q0 50 -16 77q-17 31 -62 49q-22 9 -99 33q-91 28 -122 51q-60 46 -60 133q0 170 184 170q192 0 195 -208h-29q-4 90 -39 130q-39 45 -127 45q-155 0 -155 -137q0 -66 40 -99
q29 -25 101 -43q115 -30 154 -59q65 -47 65 -145q0 -83 -56 -131q-52 -45 -136 -45z" />
    <glyph glyph-name="T" unicode="T" horiz-adv-x="381" 
d="M206 645v-645h-30v645h-182v33h393v-33h-181z" />
    <glyph glyph-name="U" unicode="U" horiz-adv-x="465" 
d="M394 72q-47 -79 -162 -79q-114 0 -162 80q-37 62 -37 181v424h30v-423q0 -229 169 -229q170 0 170 225v427h30v-426q0 -119 -38 -180z" />
    <glyph glyph-name="V" unicode="V" horiz-adv-x="440" 
d="M237 0h-28l-210 678h31l193 -624l187 624h31z" />
    <glyph glyph-name="W" unicode="W" horiz-adv-x="679" 
d="M481 0h-28l-112 377l-110 -377h-28l-202 678h31l186 -622l106 373l-73 249h31l186 -623l179 623h31z" />
    <glyph glyph-name="X" unicode="X" horiz-adv-x="423" 
d="M400 0l-187 318l-189 -318h-36l206 349l-195 329h36l178 -300l178 300h36l-195 -329l203 -349h-35z" />
    <glyph glyph-name="Y" unicode="Y" horiz-adv-x="438" 
d="M235 331v-331h-30v331l-218 347h35l197 -311l198 311h34z" />
    <glyph glyph-name="Z" unicode="Z" horiz-adv-x="438" 
d="M19 0v35l361 610h-341v33h376v-34l-361 -611h367v-33h-402z" />
    <glyph glyph-name="bracketleft" unicode="[" horiz-adv-x="163" 
d="M64 -168v902h97v-33h-68v-836h68v-33h-97z" />
    <glyph glyph-name="backslash" unicode="\" horiz-adv-x="245" 
d="M225 0l-241 694h30l241 -694h-30z" />
    <glyph glyph-name="bracketright" unicode="]" horiz-adv-x="163" 
d="M3 -168v33h67l1 40l-1 796h-67v33h97v-902h-97z" />
    <glyph glyph-name="asciicircum" unicode="^" horiz-adv-x="209" 
d="M143 511l-40 93l-41 -93h-30l58 135h25l61 -135h-33z" />
    <glyph glyph-name="underscore" unicode="_" 
d="M-8 -119v48h383v-48h-383z" />
    <glyph glyph-name="grave" unicode="`" horiz-adv-x="135" 
d="M95 535l-79 111q-9 13 1 22q12 13 23 -3l79 -111q8 -11 0 -21q-11 -10 -24 2z" />
    <glyph glyph-name="a" unicode="a" horiz-adv-x="395" 
d="M328 0v99q-46 -110 -146 -110q-90 0 -135 89q-34 68 -34 165q0 98 35 167q46 90 137 90q101 0 143 -106v104h29v-498h-29zM297 391q-37 76 -116 76q-74 0 -111 -82q-28 -61 -28 -142q0 -82 27 -141q37 -80 112 -80q73 0 113 77q34 63 34 144q0 88 -31 148z" />
    <glyph glyph-name="b" unicode="b" horiz-adv-x="395" 
d="M204 -10q-94 0 -141 110v-100h-29v678h29v-280q43 106 142 106q93 0 137 -91q34 -68 34 -169q0 -102 -35 -168q-44 -86 -137 -86zM319 393q-36 78 -111 78q-82 0 -119 -81q-26 -58 -26 -148q0 -82 30 -142q39 -77 116 -77q75 0 111 80q27 59 27 142q0 88 -28 148z" />
    <glyph glyph-name="c" unicode="c" 
d="M302 36q-44 -47 -110 -47q-92 0 -139 83q-37 67 -37 163q0 104 37 174q48 91 146 91q61 0 101 -44q35 -38 46 -100l-26 -20q-24 131 -122 131q-82 0 -122 -82q-30 -61 -30 -150q0 -83 29 -139q38 -74 116 -74q55 0 90 39q32 36 41 104l28 -17q-11 -71 -48 -112z" />
    <glyph glyph-name="d" unicode="d" horiz-adv-x="395" 
d="M328 0v100q-46 -111 -146 -111q-90 0 -135 90q-34 69 -34 166q0 98 35 168q46 91 137 91q101 0 143 -107v281h29v-678h-29zM297 394q-37 77 -116 77q-74 0 -111 -83q-28 -62 -28 -143q0 -83 27 -143q37 -80 112 -80q73 0 113 78q34 63 34 145q0 88 -31 149z" />
    <glyph glyph-name="e" unicode="e" 
d="M40 233q4 -211 143 -211q103 0 135 122h30q-15 -74 -55 -112q-44 -43 -111 -43q-95 0 -139 87q-32 65 -32 167q0 99 37 169q47 88 137 88q92 0 138 -79q37 -63 37 -159v-28zM296 397q-37 70 -111 70q-73 0 -111 -70q-30 -53 -34 -131h286q-1 77 -30 131z" />
    <glyph glyph-name="f" unicode="f" horiz-adv-x="187" 
d="M94 481v-41h78v-34h-78v-407h-30v407h-50v34h50v41q0 185 172 185v-32q-142 0 -142 -153z" />
    <glyph glyph-name="g" unicode="g" horiz-adv-x="381" 
d="M186 -179q-71 0 -112 45q-37 41 -40 120h30q7 -132 123 -132q134 0 134 167v81q-47 -98 -141 -98q-88 0 -132 86q-34 66 -34 160q0 97 35 164q45 86 136 86q94 0 136 -102v90h29v-468q0 -199 -164 -199zM290 390q-37 77 -107 77q-74 0 -111 -77q-28 -59 -28 -139
q0 -79 26 -137q36 -77 108 -77q75 0 113 74q30 57 30 137q0 79 -31 142z" />
    <glyph glyph-name="h" unicode="h" 
d="M304 0v323q0 62 -24 100q-29 48 -88 48q-68 0 -103 -68q-26 -53 -26 -127v-276h-29v678h29v-264q38 90 129 90q71 0 108 -53q33 -46 33 -118v-333h-29z" />
    <glyph glyph-name="i" unicode="i" horiz-adv-x="95" 
d="M47 590q-10 0 -13 14v68q3 15 13 15q7 0 16 -14v-69q-7 -14 -16 -14zM34 0v492h29v-492h-29z" />
    <glyph glyph-name="j" unicode="j" horiz-adv-x="95" 
d="M47 590q-10 0 -13 14v68q3 15 13 15q7 0 16 -14v-70q-7 -13 -16 -13zM-112 -179v32q143 0 143 169v469h30v-470q0 -200 -173 -200z" />
    <glyph glyph-name="k" unicode="k" horiz-adv-x="372" 
d="M326 0l-181 278l-82 -84v-194h-29v678h29v-439l243 254l48 -1l-187 -190l196 -302h-37z" />
    <glyph glyph-name="l" unicode="l" horiz-adv-x="95" 
d="M34 0v678h29v-678h-29z" />
    <glyph glyph-name="m" unicode="m" horiz-adv-x="572" 
d="M509 0v321q0 146 -95 146q-58 0 -89 -55q-24 -44 -24 -105v-307h-29v321q0 146 -97 146q-60 0 -90 -72q-22 -53 -22 -121v-274h-29v488h29v-74q36 86 119 86q82 0 110 -92q33 92 121 92q126 0 126 -169v-331h-30z" />
    <glyph glyph-name="n" unicode="n" 
d="M304 0v321q0 61 -24 99q-29 47 -88 47q-68 0 -103 -68q-26 -52 -26 -125v-274h-29v488h29v-77q38 89 129 89q71 0 108 -53q33 -45 33 -116v-331h-29z" />
    <glyph glyph-name="o" unicode="o" horiz-adv-x="381" 
d="M190 -11q-93 0 -140 88q-37 69 -37 167q0 101 38 170q48 86 141 86t140 -88q38 -70 38 -168q0 -101 -39 -170q-48 -85 -141 -85zM308 391q-39 76 -117 76q-80 0 -119 -78q-29 -60 -29 -145q0 -83 30 -144q40 -78 118 -78t118 78q31 60 31 144q0 87 -32 147z" />
    <glyph glyph-name="p" unicode="p" horiz-adv-x="395" 
d="M205 -14q-99 0 -142 107v-261h-29v656h29v-95q43 107 141 107q94 0 138 -88q34 -67 34 -168q0 -102 -34 -170q-45 -88 -137 -88zM318 389q-36 78 -109 78q-77 0 -116 -78q-30 -60 -30 -143q0 -90 26 -148q37 -79 119 -79q76 0 112 81q27 59 27 143q0 85 -29 146z" />
    <glyph glyph-name="q" unicode="q" horiz-adv-x="395" 
d="M327 -168v257q-42 -103 -146 -103q-88 0 -133 92q-35 71 -35 166q0 98 36 168q45 88 134 88q100 0 144 -107v95h30v-656h-30zM295 391q-39 76 -115 76q-75 0 -111 -81q-26 -60 -26 -143q0 -81 27 -143q37 -81 111 -81q81 0 119 78q28 58 28 146q0 85 -33 148z" />
    <glyph glyph-name="r" unicode="r" horiz-adv-x="223" 
d="M63 391q8 22 22 43q44 66 127 66v-33q-88 0 -124 -101q-25 -71 -25 -171v-195h-29v488h29v-97z" />
    <glyph glyph-name="s" unicode="s" horiz-adv-x="340" 
d="M174 -13q-152 0 -152 190h31q0 -155 122 -155q50 0 78 27.5t28 75.5q0 69 -72 94q-5 1 -72 16q-101 23 -101 127q0 58 33.5 98.5t92.5 40.5q147 0 148 -168h-31q0 133 -113 133q-46 0 -72.5 -29.5t-26.5 -74.5q0 -69 71 -88q98 -25 120 -39q54 -33 54 -110
q0 -65 -36 -101.5t-102 -36.5z" />
    <glyph glyph-name="t" unicode="t" horiz-adv-x="184" 
d="M107 430v-430h-29l-1 430h-69v34h69v150h30v-150h70v-34h-70z" />
    <glyph glyph-name="u" unicode="u" 
d="M304 0v77q-39 -88 -129 -88q-75 0 -112 57q-29 46 -29 123v319h29v-318q0 -61 23 -100q29 -48 89 -48q72 0 105 71q24 52 24 130v265h29v-488h-29z" />
    <glyph glyph-name="v" unicode="v" horiz-adv-x="330" 
d="M187 0h-30l-161 488h34l141 -440l131 440h32z" />
    <glyph glyph-name="w" unicode="w" horiz-adv-x="540" 
d="M391 0h-31l-87 280l-81 -280h-30l-152 488h33l134 -439l80 284l-49 155h34l133 -439l124 439h32z" />
    <glyph glyph-name="x" unicode="x" horiz-adv-x="327" 
d="M302 0l-139 224l-138 -224h-35l156 253l-142 235h36l123 -207l126 207h35l-142 -235l155 -253h-35z" />
    <glyph glyph-name="y" unicode="y" 
d="M169 -179q-145 0 -152 165h30q8 -132 123 -132q134 0 134 167v53q-39 -89 -129 -89q-75 0 -112 57q-29 47 -29 125v321h29v-320q0 -62 23 -101q29 -48 89 -48q72 0 105 71q24 53 24 131v267h29v-468q0 -199 -164 -199z" />
    <glyph glyph-name="z" unicode="z" horiz-adv-x="331" 
d="M13 0v33l258 422h-238v33h275v-32l-260 -423h271v-33h-306z" />
    <glyph glyph-name="braceleft" unicode="{" horiz-adv-x="245" 
d="M170 -168q-62 0 -62 101v225q0 68 -18 87q-9 10 -35 26v25q34 20 40 32q13 21 13 80v225q0 101 62 101h16v-33h-15q-22 0 -30 -30q-3 -16 -3 -62v-203q0 -64 -14 -91q-8 -15 -33 -32q25 -17 33 -31q14 -26 14 -92v-202q0 -47 3 -63q8 -30 30 -30h15v-33h-16z" />
    <glyph glyph-name="bar" unicode="|" horiz-adv-x="163" 
d="M67 -32v738h30v-738h-30z" />
    <glyph glyph-name="braceright" unicode="}" horiz-adv-x="245" 
d="M150 245q-17 -19 -17 -87v-225q0 -101 -63 -101h-15v33h14q22 0 30 30q4 16 4 63v202q0 66 13 92q8 14 33 31q-25 17 -33 32q-13 27 -13 91v203q0 46 -4 62q-8 30 -30 30h-14v33h15q63 0 63 -101v-225q0 -59 12 -80q6 -12 41 -32v-25q-27 -16 -36 -26z" />
    <glyph glyph-name="asciitilde" unicode="~" horiz-adv-x="384" 
d="M335 397q-18 -33 -42 -42q-8 -4 -27 -4t-78 33t-70 33q-40 0 -49 -67h-37q5 43 24 70q24 34 63 34q18 0 76.5 -33.5t70.5 -33.5q41 0 49 69h37q-3 -32 -17 -59z" />
    <glyph glyph-name="nonbreakingspace" unicode="&#xa0;" 
 />
    <glyph glyph-name="exclamdown" unicode="&#xa1;" horiz-adv-x="136" 
d="M69 484q-15 0 -15 17v64q0 18 15 18t15 -18v-64q0 -17 -15 -17zM53 -95v509h30v-509h-30z" />
    <glyph glyph-name="cent" unicode="&#xa2;" 
d="M302 36q-44 -48 -110 -48q-45 0 -80 22l-17 -46h-30l23 65q-72 67 -72 207q0 103 37 174q48 91 146 91q25 0 48 -8l21 58h30l-24 -71q55 -36 72 -124l-26 -19q-16 81 -57 111l-140 -407q29 -19 68 -19q55 0 90 39q32 35 41 104l28 -18q-11 -70 -48 -111zM198 468
q-82 0 -122 -82q-30 -62 -30 -150q0 -115 53 -174l138 400q-18 6 -39 6z" />
    <glyph glyph-name="currency" unicode="&#xa4;" horiz-adv-x="409" 
d="M337 191l-71 88q-30 -29 -69 -29t-69 30l-71 -89l-18 24l70 88q-24 36 -24 84q0 49 25 86l-71 89l18 24l73 -90q29 28 67 28q39 0 68 -28l72 90l18 -24l-71 -89q26 -37 26 -85q0 -49 -25 -86l70 -87zM197 492q-39 0 -63 -34q-20 -31 -20 -70q0 -40 20 -71q24 -35 63 -35
q40 0 64 34q21 31 21 71q0 43 -21 72q-23 33 -64 33z" />
    <glyph glyph-name="yen" unicode="&#xa5;" horiz-adv-x="451" 
d="M242 331v-47h148v-34h-148v-91h148v-33h-148v-126h-30v126h-148v33h148v91h-148v34h148v47l-218 347h35l197 -311l198 311h34z" />
    <glyph glyph-name="brokenbar" unicode="&#xa6;" horiz-adv-x="163" 
d="M67 372v324h30v-324h-30zM67 -23v324h30v-324h-30z" />
    <glyph glyph-name="section" unicode="&#xa7;" horiz-adv-x="409" 
d="M268 143q68 -32 68 -111q0 -58 -33 -98q-36 -42 -94 -42q-145 0 -145 167h29q0 -134 113 -134q48 0 74 29.5t26 77.5q0 68 -59 85l-109 31q-37 17 -58 54t-18 78q5 93 78 119q-67 32 -67 112q0 59 33.5 99.5t91.5 40.5q146 0 147 -168h-29q0 135 -114 135
q-47 0 -73.5 -30t-26.5 -77q0 -52 40 -75q15 -8 90 -29q37 -6 60 -24q55 -34 55 -110q0 -102 -79 -130zM197 375q-47 0 -75.5 -23.5t-28.5 -67.5q0 -51 33 -83.5t85 -32.5q50 0 78 27.5t28 76.5q-17 103 -120 103z" />
    <glyph glyph-name="dieresis" unicode="&#xa8;" horiz-adv-x="150" 
d="M115 547q-14 0 -14 16v46q0 15 14 15q16 0 16 -15v-46q0 -16 -16 -16zM35 547q-15 0 -15 16v46q0 15 15 15t15 -15v-46q0 -16 -15 -16z" />
    <glyph glyph-name="copyright" unicode="&#xa9;" horiz-adv-x="392" 
d="M199 236q-84 0 -133 69q-43 61 -43 148q0 84 44 148q50 71 131 71q83 0 133 -72q44 -63 44 -146q0 -86 -44 -148q-50 -70 -132 -70zM199 637q-68 0 -109 -59q-36 -53 -36 -124q0 -70 36 -124q41 -60 108 -60q68 0 109 59q37 53 37 124t-36 124q-41 60 -109 60zM205 310
q-55 0 -85 46q-24 39 -24 95q0 55 23 92q29 44 83 44q83 0 94 -106h-30q-11 71 -64 71q-39 0 -59 -33q-16 -27 -16 -68q0 -42 16 -71q21 -35 62 -35q44 0 61 76h32q-23 -111 -93 -111z" />
    <glyph glyph-name="ordfeminine" unicode="&#xaa;" horiz-adv-x="265" 
d="M211 349v37q-29 -44 -80 -44q-57 0 -86 55q-22 44 -22 103q0 60 22 103q29 55 87 55q51 0 79 -42v41h31v-308h-31zM131 624q-42 0 -62 -45q-15 -33 -15 -79t15 -79q20 -45 62 -45t63 45q17 34 17 79q0 124 -80 124z" />
    <glyph glyph-name="guillemotleft" unicode="&#xab;" horiz-adv-x="274" 
d="M124 262v23l119 118v-41l-87 -88l87 -88v-38zM43 262v23l119 118v-42l-88 -87l88 -88v-38z" />
    <glyph glyph-name="logicalnot" unicode="&#xac;" horiz-adv-x="421" 
d="M356 134v137h-329v31h359v-168h-30z" />
    <glyph glyph-name="minus" unicode="&#xad;" horiz-adv-x="414" 
d="M28 231v19h349v-19h-349z" />
    <glyph glyph-name="minus" unicode="&#x2212;" horiz-adv-x="414" 
d="M28 231v19h349v-19h-349z" />
    <glyph glyph-name="registered" unicode="&#xae;" horiz-adv-x="380" 
d="M192 236q-83 0 -133 69q-43 62 -43 148q0 84 44 148q50 71 131 71q82 0 132 -70q45 -63 45 -148q0 -87 -44 -148q-49 -70 -132 -70zM192 637q-69 0 -110 -61q-35 -52 -35 -122q0 -71 34 -123q40 -61 110 -61q68 0 109 59q37 53 37 124q0 72 -36 124q-40 60 -109 60z
M256 447q19 -18 19 -56v-72h-32v71q0 39 -35 39h-54v-110h-31v264h87q67 0 67 -74q0 -41 -21 -62zM210 547h-56v-82h52q40 0 40 43q0 39 -36 39z" />
    <glyph glyph-name="macron" unicode="&#xaf;" horiz-adv-x="219" 
d="M17 597v19h186v-19h-186z" />
    <glyph glyph-name="macron" unicode="&#x2c9;" horiz-adv-x="219" 
d="M17 597v19h186v-19h-186z" />
    <glyph glyph-name="degree" unicode="&#xb0;" horiz-adv-x="294" 
d="M147 385q-53 0 -84 44q-28 39 -28 91q0 51 27 90q32 45 84 45q53 0 85 -44q28 -38 28 -90q0 -53 -29 -92q-32 -44 -83 -44zM147 624q-39 0 -63 -34q-20 -30 -20 -69t20 -70q24 -35 63 -35q41 0 64 34q20 30 20 70q0 42 -21 71q-23 33 -63 33z" />
    <glyph glyph-name="plusminus" unicode="&#xb1;" horiz-adv-x="441" 
d="M235 234v-169h-29v169h-134v33h134v166h29v-166h135v-33h-135zM73 -3v34h298v-34h-298z" />
    <glyph glyph-name="twosuperior" unicode="&#xb2;" horiz-adv-x="274" 
d="M18 256q0 119 99 197l59 46q36 28 36 59q0 69 -73 69q-84 0 -84 -118h-32q0 153 113 153q107 0 107 -106q0 -48 -50 -87q-76 -60 -91 -76q-46 -48 -51 -103h206v-34h-239z" />
    <glyph glyph-name="threesuperior" unicode="&#xb3;" horiz-adv-x="298" 
d="M153 252q-63 0 -97 40q-32 37 -32 98v18h33v-26q0 -43 24.5 -69t68.5 -26q42 0 67.5 22.5t25.5 62.5q0 83 -84 83h-32v34h33q77 0 77 70q0 33 -23 50.5t-58 17.5q-90 0 -90 -112h-32q0 147 121 147q51 0 82.5 -27t31.5 -76q0 -63 -45 -87q51 -27 51 -100
q0 -55 -33.5 -87.5t-88.5 -32.5z" />
    <glyph glyph-name="acute" unicode="&#xb4;" horiz-adv-x="148" 
d="M47 536q-5 -7 -13 -7q-15 0 -15 14q0 6 4 11l79 111q10 15 24 3q9 -10 0 -22z" />
    <glyph glyph-name="mu1" unicode="&#xb5;" 
d="M274 11q-12 -9 -12 -26q0 -42 57 -42v-36q-42 0 -66.5 21t-24.5 54v7q-17 -4 -37 -4q-92 0 -128 88v-244h-29v659h29v-266q0 -79 23 -132q33 -71 105 -71q60 0 89 48q24 39 24 101v320h29v-321q0 -111 -59 -156z" />
    <glyph glyph-name="paragraph" unicode="&#xb6;" horiz-adv-x="347" 
d="M282 -133v778h-45v-778h-30v378q-81 -4 -129 69q-42 63 -42 148t44 147q51 70 133 70q4 0 6 -1h93v-811h-30z" />
    <glyph glyph-name="periodcentered" unicode="&#xb7;" horiz-adv-x="146" 
d="M83 280q-14 0 -14 17v54q0 16 14 16q15 0 15 -16v-54q0 -17 -15 -17z" />
    <glyph glyph-name="periodcentered" unicode="&#x2219;" horiz-adv-x="146" 
d="M83 280q-14 0 -14 17v54q0 16 14 16q15 0 15 -16v-54q0 -17 -15 -17z" />
    <glyph glyph-name="cedilla" unicode="&#xb8;" horiz-adv-x="181" 
d="M86 -174q-28 0 -72 18l11 30q38 -17 59 -17q50 0 50 41q0 26 -36 30q-19 2 -34 -7v18l5 70h30l-1 -50h3q65 1 65 -65q0 -68 -80 -68z" />
    <glyph glyph-name="onesuperior" unicode="&#xb9;" horiz-adv-x="201" 
d="M121 260v338l-67 -59h-50l124 114h26v-393h-33z" />
    <glyph glyph-name="ordmasculine" unicode="&#xba;" horiz-adv-x="289" 
d="M143 350q-60 0 -92 51q-26 42 -26 102q0 61 27 103q33 50 94 50t93 -50q27 -42 27 -103q0 -63 -29 -105q-34 -48 -94 -48zM144 626q-46 0 -71 -42q-20 -34 -20 -81q0 -49 19 -82q24 -41 72 -41t73 41q20 33 20 82q0 50 -21 84q-25 39 -72 39z" />
    <glyph glyph-name="guillemotright" unicode="&#xbb;" horiz-adv-x="267" 
d="M124 148v38l86 88l-86 88v41l119 -118v-23zM43 148v38l86 88l-86 88v41l119 -118v-23z" />
    <glyph glyph-name="onequarter" unicode="&#xbc;" horiz-adv-x="571" 
d="M160 0h-29l238 694h29zM473 134v-134h-29v134h-188l112 270h31l-100 -240h145v241l29 -2v-239h64v-30h-64zM137 257v346l-69 -62h-44l118 111h25v-395h-30z" />
    <glyph glyph-name="onehalf" unicode="&#xbd;" horiz-adv-x="562" 
d="M299 0q2 117 93 191l62 50q39 31 39 64q0 73 -74 73q-86 0 -87 -122h-28q2 152 112 152q105 0 105 -105q0 -42 -48 -85q-45 -38 -90 -77q-49 -50 -54 -111h206v-30h-236zM153 0h-30l239 694h29zM129 257v346l-68 -62h-45l118 111h25v-395h-30z" />
    <glyph glyph-name="threequarters" unicode="&#xbe;" horiz-adv-x="634" 
d="M224 0h-30l239 694h30zM536 134v-134h-29v134h-188l113 270h31l-100 -240h144v241l29 -2v-239h65v-30h-65zM160 250q-126 0 -126 137v16h29v-25q0 -43 25.5 -70.5t69.5 -27.5q43 0 69 23.5t26 65.5q0 86 -86 86h-31v31h31q80 0 80 72t-83 72q-92 0 -93 -113h-28
q2 144 120 144q112 0 112 -103q0 -63 -50 -89q57 -27 57 -100q0 -54 -34 -86.5t-88 -32.5z" />
    <glyph glyph-name="questiondown" unicode="&#xbf;" 
d="M179 500q-14 0 -14 17v64q0 18 14 18q16 0 16 -18v-64q0 -17 -16 -17zM172 -95q-71 0 -112 48q-39 45 -39 115q0 62 37 120l68 96q38 57 38 116v31h31v-26q0 -98 -71 -180q-40 -46 -53 -72q-20 -38 -20 -85q0 -59 30 -93q33 -37 92 -37q124 0 137 178l27 -25
q-5 -53 -22 -91q-41 -95 -143 -95z" />
    <glyph glyph-name="Agrave" unicode="&#xc0;" horiz-adv-x="473" 
d="M266 710l-80 121q-9 12 1 22q12 15 23 -2l79 -121q9 -14 -1 -23q-13 -11 -22 3zM434 0l-68 219h-256l-69 -219h-34l219 681h30l210 -681h-32zM241 624l-120 -371h235z" />
    <glyph glyph-name="Aacute" unicode="&#xc1;" horiz-adv-x="473" 
d="M210 712q-5 -8 -12 -8q-16 0 -16 17q0 6 4 11l80 121q11 17 23 2q9 -9 0 -22zM434 0l-68 219h-256l-69 -219h-34l219 681h30l210 -681h-32zM241 624l-120 -371h235z" />
    <glyph glyph-name="Acircumflex" unicode="&#xc2;" horiz-adv-x="473" 
d="M292 700l-55 105l-55 -105h-32l75 147h25l76 -147h-34zM434 0l-68 219h-256l-69 -219h-34l219 681h30l210 -681h-32zM241 624l-120 -371h235z" />
    <glyph glyph-name="Atilde" unicode="&#xc3;" horiz-adv-x="473" 
d="M331 740q-16 -26 -41 -26q-11 0 -50.5 27t-44.5 27q-25 0 -28 -65l-26 26q0 26 15 49t41 23q11 0 49.5 -27t43.5 -27q11 0 20 16t9 47l27 -22q-2 -28 -15 -48zM434 0l-68 219h-256l-69 -219h-34l219 680h30l210 -680h-32zM241 624l-120 -372h235z" />
    <glyph glyph-name="Adieresis" unicode="&#xc4;" horiz-adv-x="473" 
d="M279 709q-14 0 -14 18v54q0 18 14 18q15 0 15 -18v-54q0 -18 -15 -18zM198 709q-15 0 -15 18v54q0 18 15 18t15 -18v-54q0 -18 -15 -18zM434 0l-68 219h-256l-69 -219h-34l219 680h30l210 -680h-32zM241 623l-120 -371h235z" />
    <glyph glyph-name="Aring" unicode="&#xc5;" horiz-adv-x="473" 
d="M237 715q-29 0 -46 26q-15 23 -15 53t16 54.5t45 24.5q30 0 48 -26q15 -22 15 -53q0 -32 -16 -54q-17 -25 -47 -25zM434 0l-68 219h-256l-69 -219h-34l219 681h30l210 -681h-32zM237 838q-30 0 -30 -44t30 -44q32 0 32 44t-32 44zM241 624l-120 -371h235z" />
    <glyph glyph-name="AE" unicode="&#xc6;" horiz-adv-x="754" 
d="M406 0v338h-182l-212 -338h-34l427 678h321v-33h-290v-274h33v-1h220v-32h-253v-305h294v-33h-324zM246 371h160v252z" />
    <glyph glyph-name="Ccedilla" unicode="&#xc7;" horiz-adv-x="503" 
d="M452 540q-52 112 -171 112q-115 0 -174 -105q-49 -85 -49 -210q0 -122 45 -206q57 -107 171 -107q113 0 173 114l23 -23q-65 -125 -196 -125q-130 0 -195 116q-50 91 -50 227q0 139 52 233q67 119 200 119q136 0 196 -123zM262 -174q-28 0 -74 19l13 32q38 -18 59 -18
q49 0 49 43q0 28 -36 32q-19 3 -33 -9v21l5 75h30l-2 -54l3 1q66 0 66 -70q0 -72 -80 -72z" />
    <glyph glyph-name="Egrave" unicode="&#xc8;" horiz-adv-x="395" 
d="M247 698q-12 -12 -22 3l-79 120q-10 14 2 23q11 14 21 -2l80 -121q9 -13 -2 -23zM33 0v681h355v-33h-326v-277h289v-32h-289v-306h330v-33h-359z" />
    <glyph glyph-name="Eacute" unicode="&#xc9;" horiz-adv-x="395" 
d="M170 701q-5 -8 -12 -8q-16 0 -16 17q0 6 4 11q29 47 59 94q23 34 34 34q9 0 12 -10q4 -10 -2 -18zM33 0v681h355v-33h-326v-277h289v-32h-289v-306h330v-33h-359z" />
    <glyph glyph-name="Ecircumflex" unicode="&#xca;" horiz-adv-x="395" 
d="M251 710l-55 105l-55 -105h-32l75 147h25l77 -147h-35zM33 0v681h355v-33h-326v-277h289v-32h-289v-306h330v-33h-359z" />
    <glyph glyph-name="Edieresis" unicode="&#xcb;" horiz-adv-x="395" 
d="M238 717q-15 0 -15 18v54q0 18 15 18t15 -18v-54q0 -18 -15 -18zM157 717q-14 0 -14 18v54q0 18 14 18q15 0 15 -18v-54q0 -18 -15 -18zM33 0v680h355v-33h-326v-276h289v-32h-289v-306h330v-33h-359z" />
    <glyph glyph-name="Igrave" unicode="&#xcc;" horiz-adv-x="94" 
d="M74 716l-79 120q-4 5 -4 11q0 18 16 18q7 0 12 -8l79 -121q4 -6 4 -12q0 -16 -15 -16q-8 0 -13 8zM33 0v681h30v-681h-30z" />
    <glyph glyph-name="Iacute" unicode="&#xcd;" horiz-adv-x="94" 
d="M19 712q-5 -8 -12 -8q-16 0 -16 17q0 6 4 11l79 121q5 8 13 8q15 0 15 -17q0 -6 -4 -11zM33 0v681h30v-681h-30z" />
    <glyph glyph-name="Icircumflex" unicode="&#xce;" horiz-adv-x="94" 
d="M101 706l-55 105l-56 -105h-31l74 147h25l77 -147h-34zM33 0v681h30v-681h-30z" />
    <glyph glyph-name="Idieresis" unicode="&#xcf;" horiz-adv-x="94" 
d="M87 724q-14 0 -14 19v54q0 17 14 17t15 -17l1 -54q0 -19 -16 -19zM7 724q-16 0 -16 19v54q0 17 16 17q13 0 14 -17l1 -54q0 -19 -15 -19zM33 0v680h30v-680h-30z" />
    <glyph glyph-name="Eth" unicode="&#xd0;" horiz-adv-x="476" 
d="M194 0h-161v323h-26v34h26v321h187q130 0 189 -114q45 -86 45 -226q0 -143 -57 -232q-67 -106 -203 -106zM220 645h-157v-288h138v-34h-138v-290h133q123 0 181 98q47 78 47 207q0 307 -204 307z" />
    <glyph glyph-name="Ntilde" unicode="&#xd1;" horiz-adv-x="476" 
d="M326 735q-16 -27 -40 -27q-12 0 -51.5 27t-44.5 27q-11 0 -19 -15.5t-9 -49.5l-26 26q0 25 15 48.5t40 23.5q11 0 50.5 -27t44.5 -27q10 0 19 16.5t9 45.5l27 -20q-2 -27 -15 -48zM410 0l-347 623v-623h-30v680h34q58 -110 172 -311q122 -213 175 -310v621h30v-680h-34z
" />
    <glyph glyph-name="Ograve" unicode="&#xd2;" horiz-adv-x="530" 
d="M315 711q-11 -12 -21 3l-80 120q-4 5 -4 12q0 17 15 17q8 0 13 -8l79 -121q9 -13 -2 -23zM464 110q-66 -117 -199 -117q-131 0 -196 114q-52 92 -52 233q0 139 51 227q65 111 197 111q133 0 197 -110q53 -89 53 -228t-51 -230zM265 645q-117 0 -174 -101
q-44 -79 -44 -204q0 -123 45 -207q57 -107 173 -107q118 0 175 106q45 83 45 208q0 127 -46 206q-56 99 -174 99z" />
    <glyph glyph-name="Oacute" unicode="&#xd3;" horiz-adv-x="530" 
d="M237 717q-7 -6 -12 -6q-10 0 -14 8q-3 10 3 19l79 121q5 7 13 7q15 0 15 -16q0 -6 -4 -12zM464 110q-66 -117 -199 -117q-131 0 -196 114q-52 92 -52 234q0 138 51 227q65 110 197 110q133 0 197 -110q53 -89 53 -227q0 -140 -51 -231zM265 645q-117 0 -174 -101
q-44 -79 -44 -203t45 -208q57 -107 173 -107q118 0 175 106q45 83 45 209t-46 205q-56 99 -174 99z" />
    <glyph glyph-name="Ocircumflex" unicode="&#xd4;" horiz-adv-x="530" 
d="M319 718l-55 104l-55 -104h-32l74 146h25l77 -146h-34zM464 110q-66 -117 -199 -117q-131 0 -196 114q-52 92 -52 234q0 138 51 227q65 110 197 110q133 0 197 -110q53 -89 53 -227q0 -140 -51 -231zM265 645q-117 0 -174 -101q-44 -79 -44 -203t45 -208
q57 -107 173 -107q118 0 175 106q45 83 45 209t-46 205q-56 99 -174 99z" />
    <glyph glyph-name="Otilde" unicode="&#xd5;" horiz-adv-x="530" 
d="M354 755q-16 -26 -40 -26q-12 0 -51 27t-44 27q-25 0 -30 -65l-25 26q0 25 15.5 48.5t40.5 23.5q12 0 50.5 -27t43.5 -27q26 0 29 63l27 -22q-3 -28 -16 -48zM464 110q-66 -117 -199 -117q-131 0 -196 114q-52 92 -52 233q0 138 51 227q65 111 197 111q133 0 197 -111
q53 -88 53 -227t-51 -230zM265 644q-117 0 -174 -101q-44 -79 -44 -203q0 -123 45 -207q57 -107 173 -107q118 0 175 106q45 83 45 208q0 127 -46 206q-56 98 -174 98z" />
    <glyph glyph-name="Odieresis" unicode="&#xd6;" horiz-adv-x="530" 
d="M306 724q-15 0 -15 19v54q0 17 15 17q13 0 14 -17l1 -54q0 -19 -15 -19zM225 724q-14 0 -14 19v54q0 17 14 17q15 0 15 -17v-54q0 -19 -15 -19zM464 110q-66 -117 -199 -117q-131 0 -196 114q-52 92 -52 233q0 138 51 227q65 110 197 110q133 0 197 -110q53 -88 53 -227
t-51 -230zM265 644q-117 0 -174 -101q-44 -79 -44 -203q0 -123 45 -207q57 -107 173 -107q118 0 175 106q45 83 45 208q0 127 -46 206q-56 98 -174 98z" />
    <glyph glyph-name="multiply" unicode="&#xd7;" horiz-adv-x="343" 
d="M267 110l-96 116l-95 -115l-19 24l95 117l-95 115l21 25l93 -116l95 116l19 -26l-94 -114l95 -119z" />
    <glyph glyph-name="Oslash" unicode="&#xd8;" horiz-adv-x="530" 
d="M464 109q-66 -116 -199 -116q-53 0 -97 20l-15 -42h-29l19 57q-126 84 -126 311q0 138 51 226q65 111 197 111q53 0 96 -18l16 46h30l-20 -60q128 -82 128 -305q0 -139 -51 -230zM375 612l-195 -567q37 -19 85 -19q118 0 175 105q45 83 45 208q0 202 -110 273zM265 642
q-117 0 -174 -100q-44 -79 -44 -203q0 -135 56 -222q24 -37 51 -56l196 565q-38 16 -85 16z" />
    <glyph glyph-name="Ugrave" unicode="&#xd9;" horiz-adv-x="465" 
d="M283 703q-11 -11 -23 3l-79 121q-8 12 1 22q12 15 23 -2l79 -120q9 -13 -1 -24zM394 72q-47 -79 -162 -79q-114 0 -162 80q-37 63 -37 182v426h30v-425q0 -230 169 -230q170 0 170 226v429h30v-428q0 -119 -38 -181z" />
    <glyph glyph-name="Uacute" unicode="&#xda;" horiz-adv-x="465" 
d="M205 708q-6 -7 -13 -7q-15 0 -15 16q0 6 4 12q31 49 63 98q20 30 30 30q8 0 12 -9q4 -10 -2 -19zM394 72q-47 -79 -162 -79q-114 0 -162 80q-37 63 -37 182v426h30v-425q0 -230 169 -230q170 0 170 226v429h30v-428q0 -119 -38 -181z" />
    <glyph glyph-name="Ucircumflex" unicode="&#xdb;" horiz-adv-x="465" 
d="M287 708l-56 105l-55 -105h-32l75 147h25l77 -147h-34zM394 72q-47 -79 -162 -79q-114 0 -162 80q-37 63 -37 182v426h30v-425q0 -230 169 -230q170 0 170 226v429h30v-428q0 -119 -38 -181z" />
    <glyph glyph-name="Udieresis" unicode="&#xdc;" horiz-adv-x="465" 
d="M273 724q-15 0 -15 19v54q0 17 15 17t15 -17v-54q0 -19 -15 -19zM192 724q-14 0 -14 19v54q0 17 14 17q15 0 15 -17v-54q0 -19 -15 -19zM394 72q-47 -79 -162 -79q-114 0 -162 80q-37 62 -37 182v425h30v-424q0 -230 169 -230q170 0 170 226v428h30v-427q0 -119 -38 -181
z" />
    <glyph glyph-name="Yacute" unicode="&#xdd;" horiz-adv-x="460" 
d="M203 712q-10 -16 -24 -3q-8 11 0 23l80 121q5 8 12 8q15 0 15 -17q0 -6 -4 -11zM246 333v-333h-30v333l-218 348h35l197 -313l198 313h34z" />
    <glyph glyph-name="Thorn" unicode="&#xde;" horiz-adv-x="297" 
d="M164 171h-101v-171h-29v678h29v-151h102q102 0 102 -180q0 -176 -103 -176zM164 494h-101v-291h102q72 1 72 144q0 147 -73 147z" />
    <glyph glyph-name="germandbls" unicode="&#xdf;" horiz-adv-x="353" 
d="M222 -18q-35 -12 -81 -12v33q170 0 170 199q0 83 -39 136q-44 61 -131 61v33q73 0 102 18q40 24 40 92q0 63 -27 89t-92 26q-101 0 -101 -144v-514h-29v400h-25v34h25q0 47 2 106q5 151 130 151q149 0 146 -144q-2 -105 -81 -131q51 -20 83 -90q27 -61 27 -123
q0 -178 -119 -220z" />
    <glyph glyph-name="agrave" unicode="&#xe0;" horiz-adv-x="386" 
d="M227 521q-10 -10 -22 3l-79 120q-9 14 0 23q12 15 23 -2l80 -121q9 -12 -2 -23zM328 0v100q-46 -111 -146 -111q-90 0 -135 90q-34 68 -34 166t35 168q46 91 137 91q101 0 143 -107v105h29v-502h-29zM297 394q-37 76 -116 76q-74 0 -111 -82q-28 -62 -28 -143
q0 -83 27 -143q37 -80 112 -80q73 0 113 77q34 64 34 146q0 88 -31 149z" />
    <glyph glyph-name="aacute" unicode="&#xe1;" horiz-adv-x="386" 
d="M157 525q-5 -8 -12 -8q-10 0 -13 10q-4 9 2 17q31 50 63 99q20 31 30 31q8 0 12 -11q4 -10 -2 -19zM336 0v100q-46 -111 -146 -111q-89 0 -134 88q-34 70 -34 168q0 99 34 168q45 91 137 91q101 0 143 -106v104h30v-502h-30zM306 394q-37 76 -116 76q-75 0 -112 -81
q-27 -61 -27 -144q0 -84 26 -143q37 -80 113 -80q74 0 113 77q33 63 33 146q0 90 -30 149z" />
    <glyph glyph-name="acircumflex" unicode="&#xe2;" horiz-adv-x="386" 
d="M239 528l-55 104l-55 -104h-32l74 146h25l77 -146h-34zM336 0v100q-46 -111 -146 -111q-89 0 -134 89q-34 69 -34 167q0 99 34 168q45 91 137 91q101 0 143 -106v104h30v-502h-30zM306 394q-37 76 -116 76q-75 0 -112 -81q-27 -61 -27 -144q0 -84 26 -143q37 -80 113 -80
q74 0 113 77q33 63 33 146q0 90 -30 149z" />
    <glyph glyph-name="atilde" unicode="&#xe3;" horiz-adv-x="386" 
d="M274 565q-16 -26 -41 -26q-13 0 -51 27t-43 27q-26 0 -29 -64l-26 25q0 25 15.5 48.5t39.5 23.5q12 0 50.5 -27t43.5 -27q12 0 20.5 16.5t8.5 46.5l27 -22q-2 -27 -15 -48zM336 0v100q-46 -111 -146 -111q-89 0 -134 88q-34 69 -34 167q0 100 34 169q45 90 137 90
q101 0 143 -106v104h30v-501h-30zM306 394q-37 76 -116 76q-75 0 -112 -82q-27 -61 -27 -144q0 -84 26 -142q37 -80 113 -80q74 0 113 77q33 63 33 145q0 91 -30 150z" />
    <glyph glyph-name="adieresis" unicode="&#xe4;" horiz-adv-x="386" 
d="M234 534q-14 0 -14 19v54q0 17 14 17q15 0 15 -17v-54q0 -19 -15 -19zM153 534q-14 0 -14 19v54q0 17 14 17q16 0 16 -17v-54q0 -19 -16 -19zM336 0v100q-46 -111 -146 -111q-89 0 -134 88q-34 69 -34 167q0 100 34 169q45 90 137 90q101 0 143 -106v104h30v-501h-30z
M306 394q-37 76 -116 76q-75 0 -112 -82q-27 -61 -27 -144q0 -84 26 -142q37 -80 113 -80q74 0 113 77q33 63 33 145q0 90 -30 150z" />
    <glyph glyph-name="aring" unicode="&#xe5;" horiz-adv-x="386" 
d="M189 542q-30 0 -48 26q-14 22 -14 53t15 53q17 26 47 26q29 0 45.5 -24.5t16.5 -54.5t-16 -53q-17 -26 -46 -26zM336 0v100q-46 -111 -146 -111q-89 0 -134 89q-34 69 -34 167q0 99 34 169q45 90 137 90q101 0 143 -106v104h30v-502h-30zM189 665q-31 0 -31 -44
q0 -43 31 -43t31 43q0 44 -31 44zM306 395q-37 76 -116 76q-75 0 -112 -82q-27 -61 -27 -144q0 -84 26 -143q37 -80 113 -80q74 0 113 78q33 62 33 145q0 90 -30 150z" />
    <glyph glyph-name="ae" unicode="&#xe6;" horiz-adv-x="689" 
d="M357 233v-17q0 -194 143 -194q50 0 87 34q33 31 47 88h31q-16 -73 -57 -112q-44 -43 -110 -43q-98 0 -141 93v-82h-29v99q-46 -110 -146 -110q-90 0 -135 89q-34 68 -34 165q0 98 35 167q46 90 137 90q101 0 143 -106v104h29v-105q49 107 144 107q91 0 137 -79
q38 -64 38 -159v-28zM611 397q-37 70 -110 70q-67 0 -109 -65q-35 -56 -35 -128v-8h285q-1 76 -31 131zM297 391q-37 76 -116 76q-74 0 -111 -82q-28 -61 -28 -142q0 -82 27 -141q37 -80 112 -80q73 0 113 77q34 63 34 144q0 88 -31 148z" />
    <glyph glyph-name="ccedilla" unicode="&#xe7;" 
d="M302 33q-44 -48 -110 -48q-92 0 -139 84q-37 67 -37 164q0 104 37 176q48 91 146 91q61 0 101 -44q35 -39 46 -101l-26 -20q-24 132 -122 132q-82 0 -122 -82q-30 -63 -30 -152q0 -83 29 -140q38 -74 116 -74q55 0 90 39q32 36 41 105l28 -18q-11 -71 -48 -112zM195 -174
q-27 0 -73 19l13 32q38 -18 58 -18q50 0 50 43q0 27 -36 32q-19 2 -33 -9v20l5 75h30l-2 -53h3q65 1 65 -69q0 -72 -80 -72z" />
    <glyph glyph-name="egrave" unicode="&#xe8;" 
d="M234 521q-13 -10 -22 4l-80 119q-9 13 1 23q12 15 23 -2l80 -121q9 -12 -2 -23zM40 235q4 -213 143 -213q103 0 135 124h30q-15 -75 -55 -114q-44 -43 -111 -43q-95 0 -139 88q-32 65 -32 168q0 99 37 170q47 89 137 89q92 0 138 -80q37 -64 37 -160v-28zM296 400
q-37 70 -111 70q-73 0 -111 -70q-30 -53 -34 -132h286q-1 78 -30 132z" />
    <glyph glyph-name="eacute" unicode="&#xe9;" 
d="M237 647l-81 -121q-7 -7 -13 -7q-14 0 -14 16q0 6 4 12l79 120q9 15 24 3q4 -6 4 -12q0 -5 -3 -11zM40 235q4 -213 143 -213q103 0 135 124h30q-15 -75 -55 -114q-44 -43 -111 -43q-95 0 -139 88q-32 65 -32 168q0 99 37 170q47 89 137 89q92 0 138 -80q37 -64 37 -160
v-28zM296 400q-37 70 -111 70q-73 0 -111 -70q-30 -53 -34 -132h286q-1 78 -30 132z" />
    <glyph glyph-name="ecircumflex" unicode="&#xea;" 
d="M238 528l-55 104l-56 -104h-31l75 146h24l77 -146h-34zM40 235q4 -213 143 -213q103 0 135 124h30q-15 -75 -55 -114q-44 -43 -111 -43q-95 0 -139 88q-32 65 -32 168q0 99 37 170q47 89 137 89q92 0 138 -80q37 -63 37 -160v-28zM296 400q-37 70 -111 70q-73 0 -111 -70
q-30 -53 -34 -132h286q-1 78 -30 132z" />
    <glyph glyph-name="edieresis" unicode="&#xeb;" 
d="M225 534q-14 0 -14 19v54q0 17 14 17q15 0 15 -17v-54q0 -19 -15 -19zM144 534q-15 0 -15 19v54q0 17 15 17t15 -17v-54q0 -19 -15 -19zM40 234q4 -212 143 -212q103 0 135 123h30q-15 -74 -55 -113q-44 -43 -111 -43q-95 0 -139 87q-32 66 -32 168q0 100 37 170
q47 89 137 89q92 0 138 -80q37 -63 37 -159v-29zM296 399q-37 71 -111 71q-73 0 -111 -70q-30 -54 -34 -133h286q-1 78 -30 132z" />
    <glyph glyph-name="igrave" unicode="&#xec;" horiz-adv-x="95" 
d="M97 521q-11 -9 -22 3l-79 120q-9 14 1 24q11 13 22 -3l80 -121q9 -13 -2 -23zM34 0v492h29v-492h-29z" />
    <glyph glyph-name="iacute" unicode="&#xed;" horiz-adv-x="95" 
d="M20 521q-5 -8 -12 -8q-16 0 -16 17q0 5 4 10l80 121q5 8 12 8q15 0 15 -17q0 -6 -4 -11zM34 0v492h29v-492h-29z" />
    <glyph glyph-name="icircumflex" unicode="&#xee;" horiz-adv-x="95" 
d="M99 528l-51 103l-52 -103h-32l72 146h24l73 -146h-34zM34 0v492h29v-492h-29z" />
    <glyph glyph-name="idieresis" unicode="&#xef;" horiz-adv-x="95" 
d="M90 534q-14 0 -14 19v54q0 17 14 17q16 0 16 -17v-54q0 -19 -16 -19zM10 534q-16 0 -16 19v54q0 17 16 17q15 0 15 -17v-54q0 -19 -15 -19zM34 0v491h29v-491h-29z" />
    <glyph glyph-name="eth" unicode="&#xf0;" horiz-adv-x="395" 
d="M328 0v100q-46 -111 -146 -111q-90 0 -135 90q-34 69 -34 166q0 98 35 168q46 91 137 91q101 0 143 -107v176h-233v35h233v70h29v-678h-29zM297 394q-37 77 -116 77q-74 0 -111 -83q-28 -62 -28 -143q0 -83 27 -143q37 -80 112 -80q73 0 113 78q34 63 34 145
q0 88 -31 149z" />
    <glyph glyph-name="ntilde" unicode="&#xf1;" 
d="M274 565q-15 -26 -40 -26q-13 0 -51.5 27t-43.5 27q-12 0 -19.5 -15.5t-7.5 -48.5l-28 25q0 24 15.5 48t39.5 24q11 0 50.5 -27t44.5 -27q10 0 19 16.5t9 46.5l27 -22q-2 -27 -15 -48zM304 0v323q0 61 -24 99q-29 48 -88 48q-68 0 -103 -68q-26 -53 -26 -126v-276h-29
v491h29v-78q38 90 129 90q71 0 108 -53q33 -45 33 -117v-333h-29z" />
    <glyph glyph-name="ograve" unicode="&#xf2;" horiz-adv-x="381" 
d="M241 521q-10 -10 -22 3l-79 120q-9 14 0 23q12 15 23 -2l80 -121q9 -12 -2 -23zM190 -11q-93 0 -140 89q-37 69 -37 168q0 101 38 171q48 87 141 87t140 -89q38 -70 38 -169q0 -102 -39 -171q-47 -86 -141 -86zM308 394q-39 76 -117 76q-80 0 -119 -78q-29 -60 -29 -146
q0 -84 30 -145q40 -79 118 -79t118 79q31 61 31 145q0 88 -32 148z" />
    <glyph glyph-name="oacute" unicode="&#xf3;" horiz-adv-x="381" 
d="M163 521q-5 -8 -12 -8q-16 0 -16 17q0 5 4 10q31 49 63 98q21 31 31 31q8 0 12 -9q4 -10 -2 -19zM190 -11q-93 0 -140 89q-37 69 -37 168q0 101 38 171q48 87 141 87t140 -89q38 -70 38 -169q0 -102 -39 -171q-47 -86 -141 -86zM308 394q-39 76 -117 76q-80 0 -119 -78
q-29 -60 -29 -146q0 -84 30 -145q40 -79 118 -79t118 79q31 61 31 145q0 88 -32 148z" />
    <glyph glyph-name="ocircumflex" unicode="&#xf4;" horiz-adv-x="381" 
d="M246 528l-56 104l-56 -104h-31l75 146h24l77 -146h-33zM190 -11q-93 0 -140 89q-37 69 -37 168q0 101 38 171q48 87 141 87t140 -89q38 -70 38 -169q0 -102 -39 -171q-47 -86 -141 -86zM308 394q-39 76 -117 76q-80 0 -119 -78q-29 -60 -29 -146q0 -84 30 -145
q40 -79 118 -79t118 79q31 61 31 145q0 88 -32 148z" />
    <glyph glyph-name="otilde" unicode="&#xf5;" horiz-adv-x="381" 
d="M279 565q-15 -26 -40 -26q-13 0 -52 27t-43 27q-12 0 -20 -15.5t-9 -48.5l-26 25q0 26 15 49t41 23q10 0 49.5 -27t44.5 -27q23 0 30 63l25 -22q-3 -28 -15 -48zM190 -11q-93 0 -140 88q-37 70 -37 168q0 102 38 171q48 87 141 87t140 -89q38 -70 38 -169
q0 -101 -39 -170q-47 -86 -141 -86zM308 394q-39 76 -117 76q-80 0 -119 -79q-29 -60 -29 -146q0 -83 30 -144q40 -79 118 -79t118 79q31 60 31 144q0 88 -32 149z" />
    <glyph glyph-name="odieresis" unicode="&#xf6;" horiz-adv-x="381" 
d="M232 534q-15 0 -15 19v54q0 17 15 17t15 -17v-54q0 -19 -15 -19zM150 534q-14 0 -14 19v54q0 17 14 17q16 0 16 -17v-54q0 -19 -16 -19zM190 -11q-93 0 -140 88q-37 70 -37 168q0 102 38 171q48 87 141 87t140 -89q38 -70 38 -169q0 -101 -39 -170q-47 -86 -141 -86z
M308 394q-39 76 -117 76q-80 0 -119 -79q-29 -60 -29 -146q0 -84 30 -144q40 -79 118 -79t118 79q31 60 31 144q0 88 -32 149z" />
    <glyph glyph-name="divide" unicode="&#xf7;" horiz-adv-x="414" 
d="M207 301q-14 0 -14 18v62q0 17 14 17q16 0 16 -17v-62q0 -18 -16 -18zM28 224v33h349v-33h-349zM207 74q-14 0 -14 18v62q0 17 14 17q16 0 16 -17v-62q0 -18 -16 -18z" />
    <glyph glyph-name="oslash" unicode="&#xf8;" horiz-adv-x="381" 
d="M190 -12q-39 0 -70 16l-18 -51h-29l22 67q-82 69 -82 224q0 101 38 171q48 86 141 86q35 0 65 -13l21 61h30l-25 -78q23 -18 42 -48q45 -71 45 -179q0 -101 -39 -170q-47 -86 -141 -86zM302 400q-15 24 -31 39l-140 -402q26 -16 60 -16q78 0 118 79q31 60 31 144
q0 93 -38 156zM191 468q-80 0 -119 -78q-29 -60 -29 -146q0 -127 64 -190l139 402q-25 12 -55 12z" />
    <glyph glyph-name="ugrave" unicode="&#xf9;" 
d="M234 517q-13 -10 -22 4l-79 120q-9 13 0 22q12 15 23 -2l80 -121q9 -12 -2 -23zM304 0v78q-39 -89 -129 -89q-75 0 -112 57q-29 47 -29 124v322h29v-321q0 -62 23 -101q29 -48 89 -48q72 0 105 72q24 52 24 131v267h29v-492h-29z" />
    <glyph glyph-name="uacute" unicode="&#xfa;" 
d="M156 525q-5 -8 -12 -8q-15 0 -15 16q0 6 4 11l79 121q10 16 24 3q9 -11 0 -24zM304 0v78q-39 -89 -129 -89q-75 0 -112 57q-29 47 -29 125v321h29v-321q0 -62 23 -101q29 -48 89 -48q72 0 105 72q24 52 24 131v267h29v-492h-29z" />
    <glyph glyph-name="ucircumflex" unicode="&#xfb;" 
d="M238 528l-55 104l-56 -104h-31l75 146h24l77 -146h-34zM304 0v78q-39 -89 -129 -89q-75 0 -112 57q-29 47 -29 125v321h29v-320q0 -62 23 -102q29 -48 89 -48q72 0 105 72q24 52 24 131v267h29v-492h-29z" />
    <glyph glyph-name="udieresis" unicode="&#xfc;" 
d="M224 534q-14 0 -14 19v54q0 17 14 17q16 0 16 -17v-54q0 -19 -16 -19zM143 534q-14 0 -14 19v54q0 17 14 17q15 0 15 -17v-54q0 -19 -15 -19zM304 0v78q-39 -89 -129 -89q-75 0 -112 57q-29 47 -29 124v321h29v-320q0 -62 23 -101q29 -48 89 -48q72 0 105 72
q24 52 24 131v266h29v-491h-29z" />
    <glyph glyph-name="yacute" unicode="&#xfd;" horiz-adv-x="354" 
d="M230 646l-81 -120q-5 -7 -12 -7q-15 0 -15 16q0 7 4 11l79 121q9 15 24 3q4 -6 4 -12q0 -5 -3 -12zM169 -179q-145 0 -152 166h30q8 -133 123 -133q134 0 134 168v53q-39 -89 -129 -89q-75 0 -112 57q-29 48 -29 125v323h29v-322q0 -62 23 -101q29 -49 89 -49
q72 0 105 73q24 52 24 131v268h29v-470q0 -200 -164 -200z" />
    <glyph glyph-name="thorn" unicode="&#xfe;" horiz-adv-x="395" 
d="M205 -14q-99 0 -142 108v-262h-29v846h29v-282q43 107 141 107q94 0 138 -89q34 -67 34 -168q0 -103 -34 -171q-45 -89 -137 -89zM318 391q-36 79 -109 79q-77 0 -116 -78q-30 -61 -30 -144q0 -90 26 -148q37 -80 119 -80q76 0 112 81q27 60 27 144q0 85 -29 146z" />
    <glyph glyph-name="ydieresis" unicode="&#xff;" horiz-adv-x="357" 
d="M219 534q-14 0 -14 19v54q0 17 14 17t15 -17l1 -54q0 -19 -16 -19zM139 534q-15 0 -15 19v54q0 17 15 17q13 0 14 -17l1 -54q0 -19 -15 -19zM169 -179q-145 0 -152 166h30q8 -133 123 -133q134 0 134 168v53q-39 -89 -129 -89q-75 0 -112 57q-29 47 -29 125v322h29v-321
q0 -62 23 -101q29 -49 89 -49q72 0 105 72q24 53 24 132v267h29v-469q0 -200 -164 -200z" />
    <glyph glyph-name="dotlessi" unicode="&#x131;" horiz-adv-x="95" 
d="M34 0v488h29v-488h-29z" />
    <glyph glyph-name="OE" unicode="&#x152;" horiz-adv-x="707" 
d="M330 0q-30 -8 -62 -8q-131 0 -197 116q-51 92 -51 229q0 139 51 231q65 115 197 115q23 0 47 -5h369v-33h-292q31 -23 57 -58q62 -85 67 -217h146v-33h-144q0 -155 -69 -250q-23 -32 -52 -54h291v-33h-358zM351 632v-262h135q-4 84 -33 151q-37 80 -102 111zM351 337
v-294q43 21 76 67q61 86 61 227h-137zM322 643q-26 7 -54 7q-114 0 -172 -104q-47 -84 -47 -209q0 -124 45 -207q57 -106 174 -106q28 0 54 8v611z" />
    <glyph glyph-name="oe" unicode="&#x153;" horiz-adv-x="736" 
d="M388 233q4 -211 143 -211q103 0 135 122h30q-15 -73 -56 -112q-44 -43 -110 -43q-125 0 -159 142q-45 -142 -164 -142q-93 0 -140 88q-37 69 -37 167q0 101 38 170q48 86 141 86q124 0 163 -149q45 149 161 149q91 0 137 -79q37 -64 37 -159v-28zM643 397q-37 70 -110 70
q-72 0 -111 -70q-30 -54 -34 -131h285q-1 77 -30 131zM325 391q-39 76 -117 76q-80 0 -119 -78q-29 -60 -29 -145q0 -84 30 -144q40 -78 118 -78t118 78q31 61 31 144q0 87 -32 147z" />
    <glyph glyph-name="Scaron" unicode="&#x160;" horiz-adv-x="449" 
d="M235 727h-25l-75 147h32l55 -105l55 105h34zM231 -7q-105 0 -161 62q-52 58 -52 163v17h30v-13q0 -196 184 -196q74 0 117.5 37.5t43.5 108.5q0 50 -17 79.5t-61 47.5q-18 8 -99 34q-51 16 -63 20q-37 14 -59 31q-60 47 -60 134q0 170 184 170q192 0 195 -208h-29
q-4 89 -39 130q-39 45 -127 45q-155 0 -155 -137q0 -67 40 -100q29 -25 101 -44q115 -30 154 -59q65 -47 65 -146q0 -83 -54 -129.5t-138 -46.5z" />
    <glyph glyph-name="scaron" unicode="&#x161;" horiz-adv-x="340" 
d="M180 537h-25l-75 147h32l55 -105l55 105h35zM174 -13q-152 0 -152 192h31q0 -157 122 -157q50 0 78 28t28 76q0 70 -72 94q-5 2 -72 17q-101 23 -101 127q0 59 32 98q35 43 94 43q147 0 148 -170h-31q0 135 -113 135q-46 0 -72.5 -30t-26.5 -76q0 -68 71 -87q5 -2 75 -20
q99 -26 99 -131q0 -66 -36 -102.5t-102 -36.5z" />
    <glyph glyph-name="Ydieresis" unicode="&#x178;" horiz-adv-x="464" 
d="M276 724q-14 0 -14 19v54q0 17 14 17q15 0 15 -17v-54q0 -19 -15 -19zM195 724q-14 0 -14 19v54q0 17 14 17q15 0 15 -17v-54q0 -19 -15 -19zM248 332v-332h-30v332l-218 348h35l197 -312l198 312h34z" />
    <glyph glyph-name="florin" unicode="&#x192;" horiz-adv-x="409" 
d="M419 634q-139 0 -168 -155l-7 -40h77l-6 -34h-77l-65 -388q-31 -185 -202 -185l6 32q140 0 164 141l67 400h-51l7 34h50q3 19 8 42q32 185 200 185z" />
    <glyph glyph-name="circumflex" unicode="&#x2c6;" horiz-adv-x="181" 
d="M145 540l-55 96l-56 -96h-31l74 134h25l77 -134h-34z" />
    <glyph glyph-name="caron" unicode="&#x2c7;" horiz-adv-x="95" 
d="M56 549h-25l-74 135h32l55 -96l55 96h34z" />
    <glyph glyph-name="ring" unicode="&#x2da;" horiz-adv-x="95" 
d="M45 569q-29 0 -48 24q-16 21 -16 49t17.5 50.5t46.5 22.5t45.5 -22.5t16.5 -50.5q0 -29 -17 -51t-45 -22zM45 682q-31 0 -31 -40t31 -40q32 0 32 40t-32 40z" />
    <glyph glyph-name="tilde" unicode="&#x2dc;" horiz-adv-x="256" 
d="M216 574q-15 -22 -41 -22q-11 0 -50.5 23t-44.5 23q-11 0 -19 -13t-9 -42l-26 22q0 21 15.5 41t39.5 20q12 0 50.5 -23t43.5 -23q11 0 20 13.5t9 40.5l27 -19q-3 -24 -15 -41z" />
    <glyph glyph-name="mu" unicode="&#x3bc;" horiz-adv-x="409" 
 />
    <glyph glyph-name="endash" unicode="&#x2013;" horiz-adv-x="346" 
d="M-8 254v20h361v-20h-361z" />
    <glyph glyph-name="emdash" unicode="&#x2014;" horiz-adv-x="626" 
d="M-8 254v20h640v-20h-640z" />
    <glyph glyph-name="quoteleft" unicode="&#x2018;" horiz-adv-x="122" 
d="M62 514q-3 -18 -19 -13q-13 5 -9 20l30 143q2 13 15 13q18 0 13 -20z" />
    <glyph glyph-name="quoteright" unicode="&#x2019;" horiz-adv-x="122" 
d="M63 514q-2 -13 -15 -13q-19 0 -14 20q12 62 25 124q7 33 17 33q3 0 7 -1q13 -4 9 -20z" />
    <glyph glyph-name="quotesinglbase" unicode="&#x201a;" horiz-adv-x="204" 
d="M90 -77q-2 -14 -14 -14q-16 0 -16 15q0 3 1 7q23 118 24 125q8 31 17 31q3 0 7 -1q14 -4 10 -20z" />
    <glyph glyph-name="quotedblleft" unicode="&#x201c;" horiz-adv-x="187" 
d="M136 514q-3 -18 -19 -13q-13 5 -9 20l29 143q2 13 14 13q20 0 15 -20zM62 514q-3 -18 -19 -13q-13 5 -9 20l30 143q2 13 15 13q18 0 13 -20z" />
    <glyph glyph-name="quotedblright" unicode="&#x201d;" horiz-adv-x="193" 
d="M136 514q-2 -13 -15 -13q-18 0 -13 20q12 63 25 126q7 31 16 31q3 0 7 -1q14 -4 10 -20zM63 514q-2 -13 -15 -13q-19 0 -14 20q12 62 25 124q7 33 17 33q3 0 7 -1q13 -4 9 -20z" />
    <glyph glyph-name="quotedblbase" unicode="&#x201e;" horiz-adv-x="246" 
d="M163 -77q-2 -14 -14 -14q-15 0 -15 15v6l24 122q8 35 18 35q3 0 7 -1q13 -4 9 -20zM90 -77q-2 -14 -14 -14q-16 0 -16 15q0 3 1 7q23 118 24 125q8 31 17 31q3 0 7 -1q14 -4 10 -20z" />
    <glyph glyph-name="dagger" unicode="&#x2020;" horiz-adv-x="241" 
d="M130 461v-518h-29v518h-82v34h82v126h29v-126h83v-34h-83z" />
    <glyph glyph-name="daggerdbl" unicode="&#x2021;" horiz-adv-x="236" 
d="M134 43v-100h-30v100h-82v34h82v384h-82v34h82v126h30v-126h82v-34h-82v-384h82v-34h-82z" />
    <glyph glyph-name="bullet" unicode="&#x2022;" horiz-adv-x="204" 
d="M85 250q-54 0 -54 17v116q0 17 54 17t54 -17v-116q0 -17 -54 -17z" />
    <glyph glyph-name="ellipsis" unicode="&#x2026;" horiz-adv-x="447" 
d="M367 -2q-15 0 -15 16v55q0 16 15 16t15 -16v-55q0 -16 -15 -16zM234 -2q-14 0 -14 16v55q0 16 14 16q15 0 15 -16v-55q0 -16 -15 -16zM102 -2q-15 0 -15 16v55q0 16 15 16t15 -16v-55q0 -16 -15 -16z" />
    <glyph glyph-name="perthousand" unicode="&#x2030;" horiz-adv-x="708" 
d="M592 -19q-100 0 -100 177q0 181 101 181q102 0 102 -181q0 -177 -103 -177zM120 301q-100 0 -100 176q0 180 101 180q102 0 102 -180q0 -176 -103 -176zM103 0h-35l341 678h34zM379 -19q-100 0 -100 177q0 181 101 181t101 -181q0 -177 -102 -177zM592 306
q-70 0 -70 -148q0 -144 71 -144t71 144q0 148 -72 148zM120 624q-69 0 -69 -147q0 -144 70 -144q71 0 71 144q0 147 -72 147zM379 306q-70 0 -70 -148q0 -144 71 -144t71 144q0 148 -72 148z" />
    <glyph glyph-name="guilsinglleft" unicode="&#x2039;" horiz-adv-x="206" 
d="M43 262v23l119 118v-42l-88 -87l88 -88v-38z" />
    <glyph glyph-name="guilsinglright" unicode="&#x203a;" horiz-adv-x="206" 
d="M43 148v38l86 88l-86 88v41l119 -118v-23z" />
    <glyph glyph-name="sterling" unicode="&#x20ac;" horiz-adv-x="409" 
d="M249 -12q-94 0 -141 88q-37 69 -37 169v2h-53l3 34h50v91h-36l3 33h33v8q0 101 38 171q47 87 140 87q80 0 132 -77l-19 -26q-48 70 -114 70q-79 0 -118 -79q-30 -61 -30 -146v-8h207l-6 -33h-201v-91h189l-3 -34h-186v-2q0 -84 30 -145q40 -79 118 -79q66 0 114 69
l19 -25q-52 -77 -132 -77z" />
    <glyph glyph-name="trademark" unicode="&#x2122;" horiz-adv-x="552" 
d="M491 347v263l-98 -263h-26l-102 268l1 -268h-32v303h-68v-303h-32v303h-104v34h242l107 -280l106 280h39v-337h-33z" />
    <glyph glyph-name="glyph221" horiz-adv-x="248" 
 />
    <glyph glyph-name="glyph222" horiz-adv-x="248" 
 />
    <glyph glyph-name="glyph221" horiz-adv-x="248" 
 />
    <glyph glyph-name="glyph222" horiz-adv-x="248" 
 />
    <glyph glyph-name="ch333" horiz-adv-x="248" 
 />
    <glyph glyph-name="glyph223" horiz-adv-x="248" 
 />
    <glyph glyph-name="ch335" horiz-adv-x="204" 
 />
    <glyph glyph-name="ch334" horiz-adv-x="204" 
 />
    <glyph glyph-name="ch337" horiz-adv-x="204" 
 />
    <glyph glyph-name="ch336" horiz-adv-x="204" 
 />
    <glyph glyph-name="ch339" horiz-adv-x="204" 
 />
    <glyph glyph-name="ch338" horiz-adv-x="204" 
 />
    <glyph glyph-name="glyph224" horiz-adv-x="204" 
 />
    <glyph glyph-name="ch340" horiz-adv-x="204" 
 />
    <glyph glyph-name="ch343" horiz-adv-x="204" 
 />
    <glyph glyph-name="glyph225" horiz-adv-x="204" 
 />
    <glyph glyph-name="glyph226" horiz-adv-x="204" 
 />
    <glyph glyph-name="ch344" horiz-adv-x="204" 
 />
    <glyph glyph-name="ch347" horiz-adv-x="204" 
 />
    <glyph glyph-name="ch342" horiz-adv-x="204" 
 />
    <glyph glyph-name="ch263" horiz-adv-x="204" 
 />
    <glyph glyph-name="glyph103" horiz-adv-x="294" 
d="M377 441q0 48 -22 79.5t-62 31.5q-41 0 -64 -35q-19 -30 -19 -71q0 -50 -29 -90q-33 -45 -84 -45q-52 0 -85 46q-28 38 -28 96h30q0 -48 20 -78q23 -33 63 -33q41 0 64 34q20 30 20 70q0 69 46 110q30 27 66 27q54 0 85 -46q27 -39 28 -98z" />
    <glyph glyph-name="glyph214" horiz-adv-x="245" 
d="M173 387v-131h-32v131h-188l113 271h35l-100 -236h140v236l32 -1v-235h65v-35h-65z" />
    <glyph glyph-name=".null" horiz-adv-x="0" 
 />
  </font>
</defs>
</svg>
