<?xml version="1.0" encoding="utf-8"?>
<!-- Generator: Adobe Illustrator 18.1.1, SVG Export Plug-In . SVG Version: 6.00 Build 0)  -->
<svg version="1.1" xmlns="http://www.w3.org/2000/svg" xmlns:xlink="http://www.w3.org/1999/xlink" x="0px" y="0px"
	 viewBox="0 0 580 580" style="enable-background:new 0 0 580 580;" xml:space="preserve">
<style type="text/css">
	.st0{display:none;}
	.st1{display:inline;}
	.st2{display:inline;opacity:0.39;fill:#FFFFFF;}
	.st3{fill:#030000;}
	.st4{fill:#040000;}
	.st5{enable-background:new    ;}
	.st6{clip-path:url(#SVGID_2_);}
	.st7{clip-path:url(#SVGID_3_);}
	.st8{clip-path:url(#SVGID_8_);}
	.st9{opacity:0.39;fill:#FFFFFF;}
	.st10{display:inline;fill:#050000;}
	.st11{fill:#020000;}
	.st12{fill:none;stroke:#404040;stroke-width:0.5362;}
	.st13{fill:none;stroke:#404040;stroke-width:0.9997;}
	.st14{fill:none;stroke:#404040;stroke-width:2.6415;}
	.st15{fill:none;stroke:#404040;stroke-width:1.5207;}
	.st16{fill:none;stroke:#404040;stroke-width:0.5271;}
	.st17{fill:none;stroke:#404040;stroke-width:0.9785;}
	.st18{fill:none;stroke:#404040;stroke-width:2.59;}
	.st19{fill:none;stroke:#404040;stroke-width:1.4904;}
	.st20{fill:#DC1F0B;}
	.st21{fill:#090200;}
	.st22{clip-path:url(#SVGID_10_);enable-background:new    ;}
	.st23{fill:#991608;}
	.st24{fill:#941508;}
	.st25{fill:#8F1407;}
	.st26{fill:#8A1307;}
	.st27{fill:#851307;}
	.st28{clip-path:url(#SVGID_12_);enable-background:new    ;}
	.st29{fill:#00426D;}
	.st30{fill:#004471;}
	.st31{fill:#0A0200;}
	.st32{fill:#E1E1E1;}
	.st33{fill:#DCDCDC;}
	.st34{fill:#DEDEDE;}
	.st35{clip-path:url(#SVGID_14_);enable-background:new    ;}
	.st36{fill:#060100;}
	.st37{fill:#070100;}
	.st38{fill:#DE1F0B;}
	.st39{clip-path:url(#SVGID_15_);enable-background:new    ;}
	.st40{clip-path:url(#SVGID_16_);enable-background:new    ;}
	.st41{fill:#003B62;}
	.st42{fill:#003D66;}
	.st43{fill:#003F69;}
	.st44{fill:#0062A3;}
</style>
<g id="Layer_1" class="st0">
	<path class="st1" d="M160-69.9c0,0-14.5-13.8-1-52.7c1.3-4.4,8.7-28.7,19.3-35.7s21.2-7.4,33.6-8.4s28.5-2.2,36.8-2.1
		s30-1,30.9,23.1c-0.8,17.1-2.6,49.2-8.5,69.6c-0.6,1.4-1.5,8-21.1,11.4s-42.1,6.8-55.8,7.6S174.2-59.2,160-69.9z"/>
	<path class="st1" d="M-238-86.3c0,0-33.1,16.5-29.4,63.5c1.4,10.5,5,32.5,6.9,45.7c1.9,13.2,11.3,71.8,11.3,71.8
		c1.5,9.1,7.4,38.6,9,45.6c1.5,7,8.1,35.1,10.5,43.5c0.7,3,3.3,10.2,7,9c1.4,0.3-0.3-0.7,3.4,1.1c1.9,1.5,6.9,4.3,14.9,16.2
		c8,11.8,9.7,14.7,15.3,17.7c2.7,1,3.7,1.3,6,1.5c2.7,1.2,10.2,2,13.3,1.5c3.2-0.5,5-0.3,8.7-1c3.7-0.7,3.2-0.7,6-2.5
		c2.8-1.8,3.2-2.8,6.7-3.5c3.5-0.7,5.3-0.3,7.3-2.8s3.5-5.7,4.2-7.3c0.2-1.5,1.2-3.5-1.5-22.7c-0.2-5-0.8-25-3.7-44.8
		s-4.7-33.8-16.3-68C-170,44-176.2,39.3-176.8,36.8C-178.2,35-187.2,8-192.5-5.7c-4.7-14.2-9.8-34.3-17.5-48.2s-12.7-20.8-17.2-22
		C-229.8-78.3-237.7-83.1-238-86.3z"/>
	<g class="st1">
		<path d="M-142.3-84.3c0,0,20.9,5.7,32,22.9s19.1,41.8,24.4,56.1s15.4,40.9,18.3,47.7s15.1,37.9,17.4,47.2s8.8,33.7,6.6,52.3
			c-2.1,18.6-0.4,17.9-11,36.7c-3.2,4.6-4.5,6.9-12.5,12.8c-1.4,1.3-2.3,2.7-5.8,4c-2.1,0.5-10,1.8-15.9,5.3
			c-2.6,0.8-21.2,5.3-21.2,5.3s8.9-8.3,8.1-18.5c0,0,0.2-8-1.8-17.7c-1.4-9.6-3.1-17.8-4.9-26.1c-1.8-8.3-3.7-23.9-5.8-33.1
			S-122,65-122,65c-1.8-9.7-3.2-14.7-3.9-18.9c-0.7-4.2-1.4-13.4-2.6-17.6c0.4-2.7,0.7-20.6,0.7-29.7s0.8-33.2,0.7-41.7
			c-0.1-8.4,1.4-27.4-9.3-35.5s-10.7-8.1-10.7-8.1L-142.3-84.3z"/>
	</g>
	<path class="st1" d="M-289.1,417.9c0,0-4.5,1.5-5.7,1.8s-2.8-0.1-6.4,0.7c-3.5,0.8-9.2,1.9-11.7,2.4c-2.5,0.5-12.3,2.4-12,5.9
		c0.3,3.5,5.4,6.4,9.4,9.1c3.9,2.7,9,7,15.6,17.7c4.3,9.1,8.5,17.8,12.5,30.1c4,12.3,7.6,22.5,9.4,28.1c1.7,5.6,5.4,15.5,8.6,24.6
		s3.8,11.3,5.4,13.6s6.8,11.3,12.1,23.5c5.3,12.3,8.4,23,11.7,32.7c3.3,9.7,6.7,26.4,8.2,33s3.3,15.7,4.4,28.5
		c1.2,12.8,2.8,40,3.3,45.8c0.5,5.7,3.3,13.6-4.2,21.1c4.6-0.7,32-5.1,36-3.8c3.8-1.2,31-9.7,46.7-10.3c15.7-0.7,27.5-1,60.8,11.7
		c4,1.8,3.8,1.7,9.3,4s6.7,2.2,12.2,7.2s5.2,5.2,9,9.5c3.8,4.3,4.7,3.8,8.3,10c3.7,6.2,2.5,6.3,2.5,6.3s-4.2,1.3,9-2.5
		S-5.5,760,10,755.2c15.5-4.8,21.8-6.8,38.7-16.7s27.5-15.8,34-23c1.7-1.5,0.5-0.5,3-3.2c-0.7-3-1.5-11.2-23-22.5
		c-3.2-1.2-10.7-3.2-23.3-2.2c-5.7,0-18.7,0.2-33.3,3.3c-5.5,1.3-14.7,4.5-26.3,7.3c-3.5,0.8-9.2,3.3-11.7,4.2s-10.5,3.3-10.5,3.3
		s-14.8-2.7-41.8-0.7c-4,0.2-10.2,0.2-15.8,1c0,0-12.2,0.5-20.7,2c-1.7,0.7-1.8,0-1.8,0s-5.3-1.8-7.6-1.7c-2.3,0.2-2.3,0.3-4.1,1.3
		c2-2,10.2-6.8,8-25.7c-2.2-18.8-5.8-38.8-8.5-48.3c0,0-3.3-26.3-5.7-34.8c-2-7.7-6.3-36-8-43.7c-1-5.8-2-19.6-4-25.1
		c0.3-3.8,1.6-32.1,0.8-52.1c0.7-18,4.7-44.2-7.3-54.5c0,0-6.2-7.2-18.8-11.7c-0.8,2-2.3,8.8-26.2,12c-21.7,3.5-31.8,5.5-44.5,6.2
		C-257.3,431-269.5,434.9-289.1,417.9z"/>
	<path class="st1" d="M-402.3,845.8"/>
	<path class="st1" d="M-364.5,328.5c0,0,73.9,27.4,96.1,34.9c3.5,1.4,7.4,3,7.8,0c0.4-3,3.9-12.9,5.8-14.5s6-4.1,10.8-5.2
		s11.8-1.4,14.7-2.9c6-3.2,8.2-2,8-21.8s1.8-31.6-16.9-42c0,0-14.1-4.6-22.1-6.9s-11.5-4.8-26-8.4s-42.9-12.4-56.5,0
		c-4.2,4.1-18.4,18.4-25.4,36.2C-373.4,324.8-367.8,327.3-364.5,328.5z"/>
	<path id="headrest" class="st1" d="M757,99.1c0,0-14.5-13.8-1-52.7c1.3-4.4,8.7-28.7,19.3-35.7s21.2-7.4,33.6-8.4
		s28.5-2.2,36.8-2.1s30-1,30.9,23.1c-0.8,17.1-2.6,49.2-8.5,69.6c-0.6,1.4-1.5,8-21.1,11.4s-42.1,6.8-55.8,7.6S771.2,109.8,757,99.1
		z"/>
	<rect x="1170" class="st2" width="578" height="578"/>
	<g class="st1">
		<g>
			<g>
				<polygon class="st3" points="878.3,709.4 880.5,728.8 882.7,748.2 870.5,739.7 858.3,731.2 863.3,725.8 872.2,716.1 				"/>
			</g>
			<g>
				<path class="st3" d="M769,737.8l-11.1,7.5l-11.1,7.5l-0.3-19.1l-0.3-19.1l6.9,7c-1,3.4-2,6.9-2.7,10.4l11.9,3.6
					c0.3-1.2,0.7-2.4,1-3.6L769,737.8z"/>
			</g>
			<g>
				<path class="st3" d="M872.2,716.1l-8.9,9.7c-21-40.5-58.6-51.5-83.6-24.3c-7.4,8.1-12.8,18.7-16.3,30.6c-0.4,1.2-0.7,2.4-1,3.6
					l-11.9-3.6c0.8-3.6,1.7-7,2.7-10.4c4.2-13.5,10.5-25.6,19-34.8C802,654.3,846.9,667.3,872.2,716.1z"/>
			</g>
		</g>
	</g>
	<g class="st1">
		<g>
			<g>
				<polygon class="st4" points="1213.6,785.7 1221.7,796.8 1229.9,807.9 1221.9,810.2 1221.7,802.7 1208.5,806.5 1208.7,814.1 
					1199.3,816.9 1206.5,801.3 				"/>
			</g>
			<g>
				<polygon class="st4" points="1203.6,964 1212.9,961.4 1213,964.6 1226.2,960.8 1226.1,957.7 1234.2,955.4 1226.8,970.9 
					1219.5,986.5 1211.6,975.2 				"/>
			</g>
			<g>
				<polygon class="st4" points="1208.5,806.5 1221.7,802.7 1221.9,810.2 1226.1,957.7 1226.2,960.8 1213,964.6 1212.9,961.4 
					1208.7,814.1 				"/>
			</g>
		</g>
	</g>
	<g id="nRVpLG_7_" class="st1">
		
			<image style="overflow:visible;" width="3047" height="3780" id="nRVpLG_8_" xlink:href="4439E351338769EB.jpg"  transform="matrix(0.1495 0 0 0.1487 63.8822 -1)">
		</image>
	</g>
	<g class="st1">
		<g>
			<polygon class="st4" points="712.9,265.2 713.5,269.9 725.7,361.6 726,363.6 717.8,367 717.6,365 705.4,273.4 704.7,268.6 			"/>
		</g>
		<g>
			<polygon class="st4" points="706.6,255.2 712.6,261.5 718.5,267.7 713.5,269.9 712.9,265.2 704.7,268.6 705.4,273.4 699.5,275.9 
				703.1,265.6 			"/>
		</g>
		<g>
			<polygon class="st4" points="730.8,359.5 727.1,369.8 723.4,380.1 717.6,373.8 711.8,367.4 717.6,365 717.8,367 726,363.6 
				725.7,361.6 			"/>
		</g>
	</g>
	<g class="st1">
		<g>
			<g class="st5">
				<defs>
					<polygon id="SVGID_1_" class="st5" points="252.5,732.9 186.2,738.3 185.1,702.2 251.4,696.9 					"/>
				</defs>
				<clipPath id="SVGID_2_">
					<use xlink:href="#SVGID_1_"  style="overflow:visible;"/>
				</clipPath>
				<g class="st6">
					<g>
						<g>
							<g>
								<path class="st4" d="M194.3,701.5c-0.2,1.9-0.5,3.8-0.7,5.7c-0.8-0.4-1.5-0.8-2.3-1.3c-0.4,2.7-0.7,5.3-1.1,8
									c0.8,0.4,1.6,0.8,2.3,1.3c-0.2,1.6-0.4,3.2-0.6,4.9c-1.2-2.3-2.4-4.6-3.6-7c-1.1-2.3-2.2-4.7-3.3-7.1
									c1.6-0.7,3.1-1.4,4.6-2.2C191.3,703.1,192.9,702.3,194.3,701.5"/>
								<path class="st4" d="M191.4,706c0.8,0.4,1.5,0.9,2.3,1.3c14.8,7.9,31.2,12.7,48.5,13.5c0.4,0,0.8,0,1.1,0
									c0.3,2.7,0.7,5.3,1,8c-0.4,0-0.8,0-1.1,0c-18-0.6-35-5.4-50.5-13.5c-0.8-0.4-1.6-0.8-2.3-1.3
									C190.7,711.3,191,708.6,191.4,706"/>
								<path class="st4" d="M241.4,715.1c1.7,1.6,3.5,3.2,5.3,4.7c1.8,1.5,3.6,3,5.5,4.4c-1.4,1.6-2.8,3.2-4.2,4.8
									c-1.4,1.6-2.9,3.1-4.4,4.6c-0.2-1.6-0.4-3.3-0.6-4.9c0.4,0,0.8,0,1.1,0c-0.3-2.7-0.6-5.3-1-8c-0.4,0-0.8,0-1.1,0
									C241.9,718.8,241.7,716.9,241.4,715.1"/>
							</g>
						</g>
					</g>
				</g>
			</g>
		</g>
	</g>
	<g class="st1">
		<g>
			<g>
				<path class="st4" d="M529.8,889.2c-1.6,2.3-3.2,4.6-4.7,6.9c-1.6,2.3-3.1,4.6-4.7,6.9c-1.1-1.4-2.1-2.7-3.2-4.1
					c1.4-0.6,2.9-1.1,4.3-1.6c-1.7-2.3-3.5-4.5-5.3-6.8c-1.5,0.6-3,1.1-4.4,1.7c-1.3-1.6-2.6-3.2-3.9-4.8c3.6,0.3,7.3,0.5,10.9,0.9
					C522.5,888.5,526.2,888.9,529.8,889.2z"/>
			</g>
			<g>
				<path class="st4" d="M426.4,925.8c1.4,1.4,2.7,2.9,4.1,4.3c-0.6,0.3-1.1,0.6-1.7,0.9c1.9,2,3.9,4.1,5.8,6.1
					c0.5-0.3,1.1-0.6,1.6-0.9c1.2,1.3,2.3,2.5,3.5,3.8c-3.4,0-6.8,0.1-10.2,0.2c-3.4,0.1-6.8,0.2-10.2,0.4c1.2-2.5,2.3-5,3.5-7.4
					C424,930.8,425.2,928.3,426.4,925.8z"/>
			</g>
			<g>
				<path class="st4" d="M516.3,890.5c1.8,2.3,3.5,4.5,5.3,6.8c-1.5,0.5-2.9,1.1-4.3,1.6c-28.4,10.9-55.5,23.4-81,37.4
					c-0.5,0.3-1.1,0.6-1.6,0.9c-1.9-2-3.8-4.1-5.8-6.1c0.6-0.3,1.1-0.6,1.7-0.9c25.6-14.2,52.8-26.9,81.3-38
					C513.3,891.6,514.8,891,516.3,890.5z"/>
			</g>
		</g>
	</g>
</g>
<g id="Adjustable_Seating" class="st0">
	<path class="st2" d="M17,14v535h537V14H17z M336.4,519.8c-2.7,1.4-9.3,1.7-13.7,2.7s-8.2,3.4-10,4.9s-5,10.7-5.3,13.5
		c-0.3,2.8-4,1.3-7.2,0c-20.6-7-89.2-32.4-89.2-32.4c-3.1-1.1-8.2-3.5-3.5-28.4c6.5-16.6,19.6-29.8,23.6-33.6
		c12.6-11.5,39-3.4,52.4,0s16.7,5.7,24.1,7.8c7.4,2.1,20.5,6.4,20.5,6.4c17.3,9.6,15.5,20.5,15.7,39
		C343.9,517.9,341.9,516.8,336.4,519.8z"/>
	<g class="st1">
		<g>
			<g>
				<polygon class="st3" points="164.2,267.8 165.9,283.6 167.7,299.5 157.7,292.6 147.7,285.7 151.8,281.2 159.1,273.2 				"/>
			</g>
			<g class="st5">
				<g>
					<path class="st3" d="M74.2,291l-9.2,6.2l-9.2,6.2l-0.2-15.7l-0.2-15.7l5.7,5.8c-0.9,2.8-1.6,5.7-2.3,8.6l9.8,2.9
						c0.3-1,0.5-2,0.8-3L74.2,291z"/>
				</g>
				<g>
					<path class="st3" d="M159.1,273.2l-7.4,8c-17.6-33.9-48.2-42.5-68.8-20.1c-6.1,6.6-10.6,15.3-13.5,25.1c-0.3,1-0.6,2-0.8,3
						l-9.8-2.9c0.6-2.9,1.4-5.8,2.3-8.6c3.4-11.1,8.6-21,15.6-28.6C101.4,222.3,138.5,233.5,159.1,273.2z"/>
				</g>
			</g>
		</g>
	</g>
	<g class="st1">
		<g>
			<g>
				<polygon class="st4" points="431.7,477 439.4,474.9 439.5,477.5 450.3,474.4 450.2,471.8 456.9,470 450.8,482.7 444.8,495.5 
					438.3,486.3 				"/>
			</g>
			<g>
				<polygon class="st4" points="435.8,347.4 446.6,344.3 446.8,350.5 450.2,471.8 450.3,474.4 439.5,477.5 439.4,474.9 
					435.9,353.7 				"/>
			</g>
			<g>
				<polygon class="st4" points="440,330.3 446.6,339.4 453.3,348.6 446.8,350.5 446.6,344.3 435.8,347.4 435.9,353.7 428.2,356 
					434.1,343.2 				"/>
			</g>
		</g>
	</g>
	<g class="st1">
		<g>
			<g class="st5">
				<defs>
					<polygon id="SVGID_5_" class="st5" points="133.1,514.6 155.4,493.8 268.6,529.9 246.4,550.7 					"/>
				</defs>
				<clipPath id="SVGID_3_">
					<use xlink:href="#SVGID_5_"  style="overflow:visible;"/>
				</clipPath>
				<g class="st7">
					<g>
						<g>
							<g>
								<polyline class="st4" points="255.2,542.5 241.9,543.8 228.7,545.1 236.2,540.1 240.3,541.7 250.7,534.7 246.6,533.2 
									252.9,529 254.1,535.7 255.2,542.5 								"/>
								<polyline class="st4" points="173,499.4 166.6,503.7 164.9,503 154.5,510 156.3,510.7 149,515.6 147.6,508.9 146.3,502.2 
									159.6,500.8 173,499.4 								"/>
								<polyline class="st4" points="250.7,534.7 240.3,541.7 236.2,540.1 156.3,510.7 154.5,510 164.9,503 166.6,503.7 
									246.6,533.2 250.7,534.7 								"/>
							</g>
						</g>
					</g>
				</g>
			</g>
		</g>
	</g>
</g>
<g id="Headrest" class="st0">
	<path class="st2" d="M16,14v537h538V14H16z M246.8,108.8c-0.6,1.3-1.4,7.4-19.6,10.6s-39.1,6.3-51.7,7.1c-12.6,0.8-18.6-2-31.8-12
		c0,0-13.5-12.8-0.9-48.9c1.2-4.1,8.1-26.6,17.9-33.1c9.9-6.5,19.7-6.8,31.2-7.8c11.5-0.9,26.5-2.1,34.1-2
		c7.7,0.1,27.8-0.9,28.7,21.5C254,60.1,252.3,89.9,246.8,108.8z"/>
	<g>
		<g class="st1">
			<g>
				<polygon class="st3" points="171.8,84.8 170.9,95.1 170,105.5 166.2,99 162.5,92.6 164.8,90.7 168.9,87.2 				"/>
			</g>
			<g>
				<path class="st3" d="M168.9,87.2l-4.2,3.5c-4.1-24.1-16.9-35.7-28.5-25.9c-3.5,2.9-6.4,7.5-8.7,13c-0.2,0.6-0.5,1.1-0.7,1.7
					l-4.1-3.8c0.6-1.7,1.3-3.3,1.9-4.9c2.8-6.2,6.2-11.4,10.1-14.7C148.7,44.4,164,58.4,168.9,87.2z"/>
			</g>
			<g>
				<path class="st3" d="M129.1,81.7l-4.8,2l-4.8,2l1.6-9.8l1.6-9.8l1.9,4.7c-0.7,1.6-1.3,3.2-1.9,4.9l4.1,3.8
					c0.2-0.6,0.5-1.1,0.7-1.7L129.1,81.7z"/>
			</g>
		</g>
	</g>
	<g class="st1">
		<g class="st5">
			<defs>
				<polygon id="SVGID_6_" class="st5" points="155.6,116.4 139.8,110.6 141,23.7 156.8,29.6 				"/>
			</defs>
			<clipPath id="SVGID_8_">
				<use xlink:href="#SVGID_6_"  style="overflow:visible;"/>
			</clipPath>
			<g class="st8">
				<polyline points="151.4,27.6 154,36.3 156.6,45.1 153.6,43.7 153.6,43.7 147.5,40.7 147.5,40.7 144,39 147.7,33.3 151.4,27.6 
									"/>
				<polyline points="140,94.5 146.3,97.5 147.4,98.1 149.6,99.1 152.6,100.6 148.9,106.6 145.2,112.6 142.6,103.5 140,94.5 				"/>
				<polyline points="147.5,40.7 153.6,43.7 153.6,43.7 149.6,99.1 147.4,98.1 143.5,96.2 147.5,40.7 147.5,40.7 				"/>
			</g>
		</g>
	</g>
</g>
<g id="Squab_Bolsters">
	<path class="st9" d="M17,15v535h537V15H17z M204.1,402.8c-0.6,1.5-2,4.5-3.9,6.8c-1.9,2.3-3.6,2-6.8,2.6c-3.2,0.6-3.6,1.5-6.2,3.2
		c-2.6,1.7-2.2,1.7-5.6,2.3c-3.4,0.6-5.1,0.5-8,0.9c-2.9,0.5-9.9-0.3-12.4-1.4c-2.2-0.2-3.1-0.5-5.6-1.4c-5.3-2.8-6.8-5.4-14.2-16.4
		c-7.4-11-12.1-13.6-13.9-15c-3.5-1.7-1.9-0.8-3.2-1c-3.5,1.2-5.9-5.5-6.5-8.3c-2.2-7.8-8.3-33.9-9.7-40.4
		c-1.4-6.5-6.9-33.9-8.3-42.3c0,0-8.7-54.4-10.5-66.6c-1.8-12.3-5.1-32.7-6.4-42.5c-3.5-43.6,27.2-59,27.2-59
		c0.3,3,7.6,7.4,10.1,9.7c4.2,1.1,8.8,7.6,15.9,20.4c7.1,12.8,11.9,31.6,16.2,44.7c5,12.7,13.3,37.7,14.5,39.4
		c0.6,2.3,6.3,6.7,17.2,38.4c10.8,31.7,12.5,44.7,15.2,63.1c2.6,18.4,3.2,37,3.4,41.6C205.2,399.5,204.3,401.4,204.1,402.8z
		 M349.3,323.3c-2,17.3-0.3,16.6-10.2,34c-3,4.3-4.2,6.4-11.6,11.9c-1.3,1.2-2.1,2.5-5.4,3.7c-2,0.4-9.3,1.7-14.8,5
		c-2.4,0.8-19.7,5-19.7,5s8.3-7.7,7.5-17.2c0,0,0.2-7.4-1.7-16.4c-1.3-8.9-2.9-16.5-4.5-24.2c-1.7-7.7-3.4-22.1-5.4-30.7
		c-2-8.6-7.2-42.5-7.2-42.5c-1.7-9-3-13.7-3.6-17.5c-0.7-3.9-1.3-12.4-2.4-16.3c0.3-2.5,0.7-19.2,0.7-27.5c0-8.4,0.8-30.8,0.7-38.7
		c-0.1-7.8,1.3-25.4-8.6-32.9c-9.9-7.5-9.9-7.5-9.9-7.5l4.4,1.9c0,0,19.4,5.3,29.7,21.3s17.7,38.8,22.7,52.1c5,13.3,14.3,38,17,44.3
		c2.6,6.3,14,35.1,16.2,43.8C345.4,283.4,351.3,306,349.3,323.3z"/>
	<g class="st0">
		<path class="st10" d="M168.3,342.8l29.4,13.8L176,379.9v-10.1c0,0-36.1,4.6-39.8-38.8c0,0,15.7,24.1,35.9,21
			C168.4,342.8,168.3,342.8,168.3,342.8z"/>
		<path class="st10" d="M325.5,299.9l-20.6,24.8l29.7,11.9l-4.2-9.1c0,0,34.5-10.9,19.6-51.8c0,0-4.2,28.5-23.8,34.2
			C325.5,299.9,325.5,299.9,325.5,299.9z"/>
	</g>
	<g>
		<g>
			<g>
				<path class="st11" d="M299.2,309.9l7-0.9l7-0.9l-0.8,1.4c-0.5-0.1-1-0.1-1.5-0.2l-4.2,2.1c1.4,0.2,2.8,0.5,4.2,0.6l-1,1.7
					l-5.4-2L299.2,309.9z"/>
			</g>
			<g>
				<polygon class="st11" points="359.5,290.5 364.1,292.8 368.7,295.1 364.2,295.3 357.5,295.6 353.8,295.8 356.7,293.2 				"/>
			</g>
			<g>
				<path class="st11" d="M357.5,295.6l6.7-0.3c2.4,6.8-7,13.2-22.2,16.1c-4,0.8-8.3,1.3-12.9,1.5c-6.3,0.3-12.5,0-18.2-0.7
					c-1.4-0.2-2.8-0.4-4.2-0.6l4.2-2.1c0.5,0.1,1,0.1,1.5,0.2c4.9,0.7,10.3,1,15.9,0.7c3.8-0.2,7.5-0.6,10.7-1.2
					C351.6,306.7,359.5,301.3,357.5,295.6z"/>
			</g>
		</g>
	</g>
	<g>
		<g>
			<g>
				<path class="st11" d="M205.5,338.7l7.1,0.2c-1.5,7.8-14.9,14.2-32.2,16.2c-4.5,0.5-9.3,0.8-14.2,0.6c-6.7-0.2-13-1-18.4-2.3
					c-1.4-0.3-2.7-0.7-4-1.1l5.5-2c0.5,0.1,0.9,0.2,1.4,0.4c4.7,1.2,10.1,1.9,16,2c4.1,0.1,8.1-0.1,11.8-0.5
					C193.1,350.5,204.3,345.2,205.5,338.7z"/>
			</g>
			<g>
				<path class="st11" d="M136.9,350l7.7-0.4l7.7-0.4l-1.6,1.5c-0.5-0.1-0.9-0.2-1.4-0.4l-5.5,2c1.3,0.4,2.6,0.7,4,1.1l-2,1.8
					l-4.4-2.6L136.9,350z"/>
			</g>
			<g>
				<polygon class="st11" points="210.5,333.1 214,336 217.4,339 212.6,338.8 205.5,338.7 201.5,338.6 206,335.9 				"/>
			</g>
		</g>
	</g>
</g>
<g id="Massage" class="st0">
	<path class="st9" d="M17,14v535h537V14H17z M489.6,390.5c-6,6.7-15.9,12.2-31.6,21.3c-15.6,9.1-21.5,11-35.9,15.5
		c-14.4,4.5-29.2,8.8-41.5,12.4c-12.2,3.6-8.4,2.3-8.4,2.3s1.1-0.2-2.3-5.9c-3.4-5.7-4.2-5.3-7.7-9.3c-3.6-4-3.2-4.2-8.4-8.8
		s-6.2-4.5-11.3-6.7c-5.1-2.2-5-2-8.7-3.7c-30.9-11.8-41.9-11.4-56.5-10.8c-14.5,0.6-39.8,8.5-43.3,9.6c-3.7-1.2-29.2,2.8-33.4,3.5
		c6.9-6.9,4.3-14.2,3.9-19.6c-0.4-5.3-1.9-30.6-3-42.5c-1.1-11.9-2.8-20.4-4.1-26.5c-1.3-6.1-4.6-21.6-7.6-30.6s-6-19-10.9-30.3
		c-4.9-11.4-9.8-19.7-11.2-21.8c-1.4-2.1-1.9-4.2-5-12.6c-3-8.4-6.4-17.6-8-22.8c-1.6-5.2-5-14.7-8.7-26.1
		c-3.7-11.4-7.7-19.5-11.6-27.9c-6.2-9.9-10.9-13.9-14.5-16.4c-3.6-2.5-8.4-5.1-8.7-8.4c-0.3-3.3,8.8-5.1,11.1-5.5
		c2.4-0.4,7.6-1.4,10.9-2.2c3.3-0.8,4.8-0.4,5.9-0.7c1.1-0.3,5.3-1.7,5.3-1.7c18.2,15.7,29.5,12.1,37.7,11.4
		c11.8-0.6,21.2-2.5,41.3-5.7c22.1-2.9,23.5-9.3,24.3-11.1c11.8,4.2,17.5,10.8,17.5,10.8c11.1,9.6,7.4,33.9,6.8,50.6
		c0.8,18.6-0.4,44.8-0.7,48.3c1.9,5.1,2.7,17.9,3.7,23.3c1.5,7.1,5.6,33.4,7.4,40.5c2.2,7.9,5.3,32.3,5.3,32.3
		c2.5,8.8,5.9,27.4,7.9,44.9c2,17.5-5.6,22-7.4,23.8c1.7-0.9,1.7-1.1,3.8-1.2c2.1-0.2,7,1.5,7,1.5s0.2,0.6,1.7,0
		c7.9-1.4,19.2-1.9,19.2-1.9c5.3-0.8,11-0.8,14.7-0.9c25.1-1.9,38.8,0.6,38.8,0.6s7.4-2.3,9.7-3.1c2.3-0.8,7.6-3.1,10.8-3.9
		c10.8-2.6,19.3-5.6,24.4-6.8c13.6-2.9,25.7-3.1,30.9-3.1c11.8-0.9,18.7,0.9,21.7,2c20,10.5,20.7,18.1,21.3,20.9
		C490,390.1,491.1,389.1,489.6,390.5z"/>
	<g class="st1">
		<path class="st12" d="M229.1,240.4c11.2-1.8,18.4-13,16.1-25.1c-2.3-12-13.2-20.3-24.4-18.5c-11.2,1.8-18.4,13-16.1,25.1
			C207,234,217.9,242.3,229.1,240.4z"/>
		<path class="st13" d="M227.5,231.8c6.8-1.1,11.1-7.9,9.8-15.1c-1.4-7.2-8-12.2-14.7-11.1c-6.8,1.1-11.1,7.9-9.8,15.1
			C214.2,227.9,220.8,232.9,227.5,231.8z"/>
		<path class="st14" d="M226.6,227.2c4.4-0.7,7.2-5.1,6.3-9.8c-0.9-4.7-5.1-7.9-9.5-7.2c-4.4,0.7-7.2,5.1-6.3,9.8
			S222.2,227.9,226.6,227.2z"/>
		<path class="st15" d="M225.6,222.3c1.8-0.3,3-2.1,2.6-4.1c-0.4-2-2.2-3.3-4-3c-1.8,0.3-3,2.1-2.6,4.1
			C222,221.2,223.8,222.6,225.6,222.3z"/>
		<path class="st12" d="M190.8,197.3c11.2-1.7,18.5-12.9,16.4-24.9c-2.2-12-13-20.4-24.2-18.7c-11.2,1.7-18.5,12.9-16.4,24.9
			C168.8,190.7,179.6,199,190.8,197.3z"/>
		<path class="st13" d="M189.4,188.7c6.8-1,11.2-7.8,9.9-15c-1.3-7.3-7.9-12.3-14.6-11.2c-6.8,1-11.2,7.8-9.9,15
			C176,184.7,182.6,189.7,189.4,188.7z"/>
		<path class="st14" d="M188.4,184.1c4.4-0.7,7.2-5,6.4-9.7c-0.8-4.7-5.1-8-9.4-7.3c-4.4,0.7-7.2,5-6.4,9.7
			C179.8,181.5,184.1,184.7,188.4,184.1z"/>
		<path class="st15" d="M187.5,179.1c1.8-0.3,3-2.1,2.7-4.1c-0.4-2-2.1-3.4-4-3.1c-1.8,0.3-3,2.1-2.7,4.1
			C183.9,178,185.7,179.4,187.5,179.1z"/>
		<path class="st12" d="M242.8,187.7c11.2-1.7,18.5-12.9,16.4-24.9c-2.2-12-13-20.4-24.2-18.7c-11.2,1.7-18.5,12.9-16.4,24.9
			C220.7,181.1,231.6,189.5,242.8,187.7z"/>
		<path class="st13" d="M241.3,179.1c6.8-1,11.2-7.8,9.9-15c-1.3-7.3-7.9-12.3-14.6-11.2c-6.8,1-11.2,7.8-9.9,15
			C228,175.1,234.6,180.1,241.3,179.1z"/>
		<path class="st14" d="M240.4,174.5c4.4-0.7,7.2-5,6.4-9.7c-0.8-4.7-5.1-8-9.4-7.3c-4.4,0.7-7.2,5-6.4,9.7
			C231.8,171.9,236,175.2,240.4,174.5z"/>
		<path class="st15" d="M239.5,169.5c1.8-0.3,3-2.1,2.7-4.1c-0.4-2-2.1-3.4-4-3.1c-1.8,0.3-3,2.1-2.7,4.1
			C235.9,168.4,237.7,169.8,239.5,169.5z"/>
		<path class="st16" d="M244.2,303.6c11.1-1.6,18.9-12.8,17.2-25c-1.6-12.2-12-20.8-23.1-19.2c-11.1,1.6-18.9,12.8-17.2,25
			C222.7,296.6,233.1,305.2,244.2,303.6z"/>
		<path class="st17" d="M243.2,294.8c6.7-1,11.4-7.7,10.4-15.1c-1-7.4-7.2-12.6-14-11.6c-6.7,1-11.4,7.7-10.4,15.1
			C230.2,290.6,236.4,295.8,243.2,294.8z"/>
		<path class="st18" d="M242.4,290.2c4.4-0.6,7.4-5,6.7-9.8c-0.6-4.8-4.7-8.2-9-7.6c-4.4,0.6-7.4,5-6.7,9.8
			C234,287.4,238.1,290.8,242.4,290.2z"/>
		<path class="st19" d="M241.8,285.1c1.8-0.3,3.1-2.1,2.8-4.1c-0.3-2-2-3.4-3.8-3.2c-1.8,0.3-3.1,2.1-2.8,4.1
			C238.2,284,239.9,285.4,241.8,285.1z"/>
		<path class="st16" d="M254.3,365.5c11.2-1.2,19.3-12.1,18.1-24.4c-1.2-12.3-11.2-21.2-22.4-20c-11.2,1.2-19.3,12.1-18.1,24.4
			C233.1,357.7,243.2,366.7,254.3,365.5z"/>
		<path class="st17" d="M253.6,356.7c6.8-0.7,11.7-7.3,11-14.7c-0.7-7.4-6.8-12.8-13.6-12.1c-6.8,0.7-11.7,7.3-11,14.7
			C240.8,352,246.8,357.4,253.6,356.7z"/>
		<path class="st18" d="M253,352c4.4-0.5,7.5-4.8,7.1-9.6s-4.4-8.3-8.8-7.9c-4.4,0.5-7.5,4.8-7.1,9.6C244.7,349,248.7,352.5,253,352
			z"/>
		<path class="st19" d="M252.5,347c1.8-0.2,3.2-2,3-4c-0.2-2-1.8-3.5-3.7-3.3s-3.2,2-3,4C249.1,345.7,250.7,347.2,252.5,347z"/>
	</g>
</g>
<g id="Heated_Seats" class="st0">
	<path class="st9" d="M17,14v535h537V14H17z M489.6,390.5c-6,6.7-15.9,12.2-31.6,21.3c-15.6,9.1-21.5,11-35.9,15.5
		c-14.4,4.5-29.2,8.8-41.5,12.4c-12.2,3.6-8.4,2.3-8.4,2.3s1.1-0.2-2.3-5.9c-3.4-5.7-4.2-5.3-7.7-9.3c-3.6-4-3.2-4.2-8.4-8.8
		s-6.2-4.5-11.3-6.7c-5.1-2.2-5-2-8.7-3.7c-30.9-11.8-41.9-11.4-56.5-10.8c-14.5,0.6-39.8,8.5-43.3,9.6c-3.7-1.2-29.2,2.8-33.4,3.5
		c6.9-6.9,4.3-14.2,3.9-19.6c-0.4-5.3-1.9-30.6-3-42.5c-1.1-11.9-2.8-20.4-4.1-26.5c-1.3-6.1-4.6-21.6-7.6-30.6s-6-19-10.9-30.3
		c-4.9-11.4-9.8-19.7-11.2-21.8c-1.4-2.1-1.9-4.2-5-12.6c-3-8.4-6.4-17.6-8-22.8c-1.6-5.2-5-14.7-8.7-26.1
		c-3.7-11.4-7.7-19.5-11.6-27.9c-6.2-9.9-10.9-13.9-14.5-16.4c-3.6-2.5-8.4-5.1-8.7-8.4c-0.3-3.3,8.8-5.1,11.1-5.5
		c2.4-0.4,7.6-1.4,10.9-2.2c3.3-0.8,4.8-0.4,5.9-0.7c1.1-0.3,5.3-1.7,5.3-1.7c18.2,15.7,29.5,12.1,37.7,11.4
		c11.8-0.6,21.2-2.5,41.3-5.7c22.1-2.9,23.5-9.3,24.3-11.1c11.8,4.2,17.5,10.8,17.5,10.8c11.1,9.6,7.4,33.9,6.8,50.6
		c0.8,18.6-0.4,44.8-0.7,48.3c1.9,5.1,2.7,17.9,3.7,23.3c1.5,7.1,5.6,33.4,7.4,40.5c2.2,7.9,5.3,32.3,5.3,32.3
		c2.5,8.8,5.9,27.4,7.9,44.9c2,17.5-5.6,22-7.4,23.8c1.7-0.9,1.7-1.1,3.8-1.2c2.1-0.2,7,1.5,7,1.5s0.2,0.6,1.7,0
		c7.9-1.4,19.2-1.9,19.2-1.9c5.3-0.8,11-0.8,14.7-0.9c25.1-1.9,38.8,0.6,38.8,0.6s7.4-2.3,9.7-3.1c2.3-0.8,7.6-3.1,10.8-3.9
		c10.8-2.6,19.3-5.6,24.4-6.8c13.6-2.9,25.7-3.1,30.9-3.1c11.8-0.9,18.7,0.9,21.7,2c20,10.5,20.7,18.1,21.3,20.9
		C490,390.1,491.1,389.1,489.6,390.5z"/>
	<g class="st1">
		<g>
			<g class="st5">
				<g>
					<polygon class="st20" points="233.8,271.2 232.1,271 231.9,266.5 233.6,266.8 					"/>
				</g>
				<g>
					<polygon class="st21" points="234.5,230.8 232.8,230.6 232.7,228.6 234.4,228.8 					"/>
				</g>
				<g>
					<polygon class="st21" points="234.3,225.8 232.6,225.6 232.5,223.6 234.2,223.9 					"/>
				</g>
				<g>
					<polygon class="st21" points="234.1,219.9 232.4,219.7 232.3,217.7 234,217.9 					"/>
				</g>
				<g class="st5">
					<defs>
						<path id="SVGID_4_" class="st5" d="M235.7,189.1l1.7,0.2c3.7,0.5,7.3,1.8,10.5,3.7c3.2,1.9,6.1,4.5,8.5,7.5
							c2.4,3.1,4.5,6.6,5.9,10.6c1.4,4,2.3,8.3,2.5,13c0.2,5.3-0.5,10.5-1.9,15.4c-1.5,4.8-3.7,9.3-6.5,13.1
							c-2.8,3.9-6.2,7.1-10.1,9.5c-3.8,2.4-8.1,4-12.7,4.6l-1.7-0.3c4.5-0.5,8.8-2.1,12.7-4.6c3.8-2.4,7.3-5.7,10.1-9.5
							c2.8-3.9,5.1-8.3,6.5-13.1c1.5-4.8,2.2-10,1.9-15.4c-0.2-4.6-1.1-9-2.5-13c-1.4-4-3.4-7.5-5.9-10.6c-2.4-3.1-5.3-5.6-8.5-7.5
							C243,190.9,239.5,189.6,235.7,189.1z"/>
					</defs>
					<clipPath id="SVGID_10_">
						<use xlink:href="#SVGID_4_"  style="overflow:visible;"/>
					</clipPath>
					<g class="st22">
						<path class="st23" d="M233.6,266.8l-1.7-0.3c1.6-0.2,3.1-0.5,4.7-0.9c1.5-0.4,3-1,4.4-1.7c1.4-0.7,2.8-1.5,4.2-2.3
							c1.3-0.9,2.6-1.9,3.8-2.9l1.7,0.2c-1.2,1.1-2.5,2.1-3.8,2.9c-1.3,0.9-2.7,1.7-4.2,2.3c-1.4,0.7-2.9,1.2-4.4,1.7
							C236.8,266.3,235.2,266.6,233.6,266.8"/>
						<path class="st24" d="M250.7,258.9l-1.7-0.2c0.6-0.5,1.2-1.1,1.8-1.7c0.6-0.6,1.2-1.2,1.7-1.8c0.6-0.6,1.1-1.3,1.6-2
							c0.5-0.7,1-1.4,1.5-2.1l1.7,0.2c-0.5,0.7-1,1.4-1.5,2.1c-0.5,0.7-1.1,1.3-1.6,2c-0.6,0.6-1.1,1.3-1.7,1.8
							C251.9,257.8,251.3,258.4,250.7,258.9"/>
						<path class="st25" d="M257.4,251.3l-1.7-0.2c0.4-0.6,0.8-1.2,1.1-1.8c0.4-0.6,0.7-1.2,1.1-1.9c0.3-0.6,0.7-1.3,1-1.9
							c0.3-0.7,0.6-1.3,0.9-2l1.7,0.2c-0.3,0.7-0.6,1.3-0.9,2c-0.3,0.7-0.6,1.3-1,1.9c-0.3,0.6-0.7,1.3-1.1,1.9
							C258.1,250.1,257.8,250.7,257.4,251.3"/>
						<path class="st26" d="M261.4,243.7l-1.7-0.2c0.3-0.7,0.6-1.4,0.8-2.1s0.5-1.4,0.7-2.2c0.2-0.7,0.4-1.5,0.6-2.2
							s0.4-1.5,0.5-2.3l1.7,0.2c-0.1,0.8-0.3,1.5-0.5,2.3c-0.2,0.8-0.4,1.5-0.6,2.2c-0.2,0.7-0.5,1.5-0.7,2.2S261.7,243,261.4,243.7
							"/>
						<path class="st27" d="M264.1,234.9l-1.7-0.2c0.2-0.9,0.3-1.7,0.4-2.6s0.2-1.8,0.3-2.7c0.1-0.9,0.1-1.8,0.1-2.7s0-1.8,0-2.7
							c-0.2-4.6-1.1-9-2.5-13c-1.4-4-3.4-7.5-5.9-10.6c-2.4-3.1-5.3-5.6-8.5-7.5c-3.2-1.9-6.7-3.2-10.5-3.7l1.7,0.2
							c3.7,0.5,7.3,1.8,10.5,3.7c3.2,1.9,6.1,4.5,8.5,7.5c2.4,3.1,4.5,6.6,5.9,10.6c1.4,4,2.3,8.3,2.5,13c0,0.9,0,1.8,0,2.7
							c0,0.9-0.1,1.8-0.1,2.7c-0.1,0.9-0.2,1.8-0.3,2.7C264.4,233.1,264.2,234,264.1,234.9"/>
					</g>
				</g>
				<g class="st5">
					<defs>
						<path id="SVGID_7_" class="st5" d="M226.1,266.7c-0.6-0.1-1.1-0.2-1.7-0.3c0.6,0.1,1.2,0.2,1.8,0.2c0.6,0,1.2,0.1,1.8,0.1
							c0.6,0,1.2,0,1.9,0c0.6,0,1.3-0.1,1.9-0.2l1.7,0.3c-0.6,0.1-1.3,0.1-1.9,0.2c-0.6,0-1.2,0-1.9,0c-0.6,0-1.2,0-1.8-0.1
							C227.3,266.9,226.7,266.8,226.1,266.7z"/>
					</defs>
					<clipPath id="SVGID_12_">
						<use xlink:href="#SVGID_7_"  style="overflow:visible;"/>
					</clipPath>
					<g class="st28">
						<path class="st29" d="M226.1,266.7l-1.7-0.3c0.3,0,0.5,0.1,0.8,0.1c0.3,0,0.5,0.1,0.8,0.1c0.3,0,0.5,0,0.8,0.1
							c0.3,0,0.5,0,0.8,0l1.7,0.3c-0.3,0-0.5,0-0.8,0c-0.3,0-0.5,0-0.8-0.1c-0.3,0-0.5-0.1-0.8-0.1
							C226.6,266.8,226.3,266.8,226.1,266.7"/>
						<path class="st30" d="M229.2,267l-1.7-0.3c0.4,0,0.7,0,1.1,0c0.4,0,0.7,0,1.1,0c0.4,0,0.7,0,1.1-0.1c0.4,0,0.7-0.1,1.1-0.1
							l1.7,0.3c-0.4,0-0.7,0.1-1.1,0.1c-0.4,0-0.7,0.1-1.1,0.1c-0.4,0-0.7,0-1.1,0C229.9,267,229.6,267,229.2,267"/>
					</g>
				</g>
				<g>
					<polygon class="st21" points="233.8,212.9 232.1,212.7 232,210.7 233.7,211 					"/>
				</g>
				<g>
					<polygon class="st31" points="230.3,231.3 228.6,231.1 232.8,230.6 234.5,230.8 					"/>
				</g>
				<g>
					<polygon class="st32" points="230.2,229.3 228.5,229.1 232.7,228.6 234.4,228.8 					"/>
				</g>
				<g>
					<polygon class="st33" points="230.3,231.3 228.6,231.1 228.5,229.1 230.2,229.3 					"/>
				</g>
				<g>
					<polygon class="st34" points="234.4,228.8 234.5,230.8 230.3,231.3 230.2,229.3 					"/>
				</g>
				<g>
					<polygon class="st21" points="233.5,208 231.9,207.8 231.8,205.8 233.5,206 					"/>
				</g>
				<g>
					<polygon class="st31" points="230.1,226.3 228.4,226.1 232.6,225.6 234.3,225.8 					"/>
				</g>
				<g>
					<polygon class="st34" points="234.2,223.9 234.3,225.8 230.1,226.3 230,224.4 					"/>
				</g>
				<g>
					<polygon class="st33" points="230.1,226.3 228.4,226.1 228.3,224.1 230,224.4 					"/>
				</g>
				<g>
					<polygon class="st32" points="230,224.4 228.3,224.1 232.5,223.6 234.2,223.9 					"/>
				</g>
				<g>
					<polygon class="st21" points="233.3,201 231.6,200.8 231.5,198.8 233.2,199.1 					"/>
				</g>
				<g>
					<polygon class="st31" points="229.8,220.4 228.1,220.1 232.4,219.7 234.1,219.9 					"/>
				</g>
				<g>
					<polygon class="st32" points="229.8,218.4 228.1,218.2 232.3,217.7 234,217.9 					"/>
				</g>
				<g>
					<polygon class="st33" points="229.8,220.4 228.1,220.1 228.1,218.2 229.8,218.4 					"/>
				</g>
				<g>
					<polygon class="st34" points="234,217.9 234.1,219.9 229.8,220.4 229.8,218.4 					"/>
				</g>
				<g>
					<polygon class="st31" points="229.5,213.4 227.9,213.2 232.1,212.7 233.8,212.9 					"/>
				</g>
				<g>
					<polygon class="st34" points="233.7,211 233.8,212.9 229.5,213.4 229.5,211.5 					"/>
				</g>
				<g>
					<polygon class="st32" points="229.5,211.5 227.8,211.2 232,210.7 233.7,211 					"/>
				</g>
				<g>
					<polygon class="st33" points="229.5,213.4 227.9,213.2 227.8,211.2 229.5,211.5 					"/>
				</g>
				<g class="st5">
					<defs>
						<path id="SVGID_9_" class="st5" d="M231.6,257.9l-1.7-0.2c-1-0.2-2-0.5-2.9-1.1c-0.9-0.5-1.7-1.3-2.4-2.1
							c-0.7-0.9-1.2-1.9-1.6-3c-0.4-1.1-0.6-2.4-0.7-3.7c0-1.2,0.1-2.3,0.4-3.4c0.3-1.1,0.7-2.1,1.2-3.1c0.5-1,1.2-1.8,1.9-2.6
							c0.7-0.8,1.5-1.4,2.3-1.9l1.7,0.2c-0.8,0.5-1.6,1.2-2.3,1.9c-0.7,0.8-1.3,1.6-1.9,2.6c-0.5,1-0.9,2-1.2,3.1
							c-0.3,1.1-0.4,2.2-0.4,3.4c0.1,1.3,0.3,2.6,0.7,3.7c0.4,1.1,0.9,2.1,1.6,3c0.7,0.9,1.5,1.6,2.4,2.1
							C229.5,257.4,230.5,257.7,231.6,257.9z"/>
					</defs>
					<clipPath id="SVGID_14_">
						<use xlink:href="#SVGID_9_"  style="overflow:visible;"/>
					</clipPath>
					<g class="st35">
						<path class="st36" d="M231.6,257.9l-1.7-0.2c-1-0.2-2-0.5-2.9-1.1c-0.9-0.5-1.7-1.3-2.4-2.1c-0.7-0.9-1.2-1.9-1.6-3
							c-0.4-1.1-0.6-2.4-0.7-3.7c0-0.2,0-0.5,0-0.7s0-0.5,0-0.7c0-0.2,0-0.5,0.1-0.7c0-0.2,0.1-0.4,0.1-0.7l1.7,0.2
							c0,0.2-0.1,0.4-0.1,0.7c0,0.2-0.1,0.5-0.1,0.7c0,0.2,0,0.5,0,0.7s0,0.5,0,0.7c0.1,1.3,0.3,2.6,0.7,3.7c0.4,1.1,0.9,2.1,1.6,3
							c0.7,0.9,1.5,1.6,2.4,2.1C229.5,257.4,230.5,257.7,231.6,257.9"/>
						<path class="st36" d="M224.1,245.2l-1.7-0.2c0-0.2,0.1-0.4,0.1-0.6c0.1-0.2,0.1-0.4,0.2-0.6c0.1-0.2,0.1-0.4,0.2-0.6
							c0.1-0.2,0.1-0.4,0.2-0.6l1.7,0.2c-0.1,0.2-0.2,0.4-0.2,0.6c-0.1,0.2-0.1,0.4-0.2,0.6c-0.1,0.2-0.1,0.4-0.2,0.6
							S224.2,245,224.1,245.2"/>
						<path class="st36" d="M224.9,242.8l-1.7-0.2c0.1-0.2,0.2-0.4,0.3-0.6s0.2-0.4,0.3-0.6c0.1-0.2,0.2-0.4,0.3-0.6
							c0.1-0.2,0.2-0.4,0.3-0.5l1.7,0.2c-0.1,0.2-0.2,0.4-0.3,0.5c-0.1,0.2-0.2,0.4-0.3,0.6c-0.1,0.2-0.2,0.4-0.3,0.6
							C225.1,242.4,225,242.6,224.9,242.8"/>
						<path class="st36" d="M226.1,240.5l-1.7-0.2c0.2-0.2,0.3-0.5,0.5-0.7c0.2-0.2,0.3-0.4,0.5-0.6s0.4-0.4,0.5-0.6
							c0.2-0.2,0.4-0.4,0.6-0.5l1.7,0.2c-0.2,0.2-0.4,0.4-0.6,0.5c-0.2,0.2-0.4,0.4-0.5,0.6c-0.2,0.2-0.4,0.4-0.5,0.6
							S226.3,240.3,226.1,240.5"/>
						<path class="st37" d="M228.2,238.1l-1.7-0.2c0.1-0.1,0.2-0.2,0.4-0.3c0.1-0.1,0.2-0.2,0.4-0.3c0.1-0.1,0.2-0.2,0.4-0.3
							c0.1-0.1,0.2-0.2,0.4-0.2l1.7,0.2c-0.1,0.1-0.3,0.2-0.4,0.2c-0.1,0.1-0.2,0.2-0.4,0.3c-0.1,0.1-0.2,0.2-0.4,0.3
							C228.5,237.9,228.3,238,228.2,238.1"/>
					</g>
				</g>
				<g>
					<polygon class="st31" points="229.3,208.5 227.6,208.2 231.9,207.8 233.5,208 					"/>
				</g>
				<g>
					<polygon class="st32" points="229.2,206.5 227.6,206.3 231.8,205.8 233.5,206 					"/>
				</g>
				<g>
					<polygon class="st34" points="233.5,206 233.5,208 229.3,208.5 229.2,206.5 					"/>
				</g>
				<g>
					<polygon class="st33" points="229.3,208.5 227.6,208.2 227.6,206.3 229.2,206.5 					"/>
				</g>
				<g>
					<polygon class="st31" points="229,201.5 227.3,201.3 231.6,200.8 233.3,201 					"/>
				</g>
				<g>
					<polygon class="st32" points="229,199.6 227.3,199.3 231.5,198.8 233.2,199.1 					"/>
				</g>
				<g>
					<polygon class="st33" points="229,201.5 227.3,201.3 227.3,199.3 229,199.6 					"/>
				</g>
				<g>
					<polygon class="st34" points="233.2,199.1 233.3,201 229,201.5 229,199.6 					"/>
				</g>
				<g>
					<path class="st38" d="M230.2,184.8c5.1-0.6,9.9,0.1,14.4,1.7c4.5,1.7,8.6,4.4,12,7.9c3.5,3.5,6.4,7.9,8.4,12.8
						c2.1,4.9,3.3,10.5,3.6,16.4c0.3,5.9-0.5,11.7-2.2,17.1c-1.6,5.4-4.1,10.3-7.3,14.6c-3.1,4.3-7,7.9-11.2,10.6
						c-4.3,2.7-9,4.5-14.1,5.1l-0.2-4.4c4.5-0.5,8.8-2.1,12.7-4.6c3.8-2.4,7.3-5.7,10.1-9.5c2.8-3.9,5.1-8.3,6.5-13.1
						c1.5-4.8,2.2-10,1.9-15.4c-0.2-5.3-1.4-10.3-3.2-14.8c-1.9-4.4-4.4-8.3-7.6-11.5c-3.1-3.2-6.8-5.6-10.8-7.1
						c-4-1.5-8.4-2.1-12.9-1.6L230.2,184.8z"/>
				</g>
				<g>
					<polygon class="st20" points="230.3,189.3 228.7,189 228.5,184.6 230.2,184.8 					"/>
				</g>
				<g class="st5">
					<defs>
						<path id="SVGID_11_" class="st5" d="M236.3,184.7l1.7,0.2c-0.6-0.1-1.3-0.2-1.9-0.2c-0.6,0-1.3-0.1-2-0.1c-0.7,0-1.3,0-2,0
							c-0.7,0-1.3,0.1-2,0.2l-1.7-0.2c0.7-0.1,1.3-0.1,2-0.2c0.7,0,1.3,0,2,0c0.7,0,1.3,0,2,0.1
							C235.1,184.5,235.7,184.6,236.3,184.7z"/>
					</defs>
					<clipPath id="SVGID_15_">
						<use xlink:href="#SVGID_11_"  style="overflow:visible;"/>
					</clipPath>
					<g class="st39">
						<path class="st23" d="M230.2,184.8l-1.7-0.2c0.4,0,0.8-0.1,1.2-0.1c0.4,0,0.8-0.1,1.2-0.1c0.4,0,0.8,0,1.2,0
							c0.4,0,0.8,0,1.2,0l1.7,0.2c-0.4,0-0.8,0-1.2,0c-0.4,0-0.8,0-1.2,0c-0.4,0-0.8,0-1.2,0.1C231,184.8,230.6,184.8,230.2,184.8"
							/>
						<path class="st24" d="M234.9,184.7l-1.7-0.2c0.3,0,0.5,0,0.8,0c0.3,0,0.5,0,0.8,0.1c0.3,0,0.5,0,0.8,0.1s0.5,0.1,0.8,0.1
							l1.7,0.2c-0.3,0-0.5-0.1-0.8-0.1c-0.3,0-0.5-0.1-0.8-0.1c-0.3,0-0.5,0-0.8-0.1C235.4,184.7,235.2,184.7,234.9,184.7"/>
					</g>
				</g>
				<g>
					<polygon class="st21" points="229.7,237 228,236.7 226.3,195.4 227.9,195.7 					"/>
				</g>
				<g>
					<polygon class="st31" points="227.9,195.7 226.3,195.4 232.2,194.8 233.8,195 					"/>
				</g>
				<g>
					<path class="st31" d="M235.6,236.7c1.1,0.3,2,0.8,2.8,1.4c0.8,0.6,1.4,1.3,1.9,2.1c0.5,0.8,0.9,1.7,1.1,2.6
						c0.3,1,0.4,2,0.5,3.1c0.1,1.5-0.1,3-0.4,4.4c-0.4,1.4-0.9,2.6-1.6,3.7c-0.7,1.1-1.6,2-2.6,2.7c-1,0.7-2.2,1.1-3.5,1.3
						c-1.3,0.2-2.5,0-3.7-0.4c-1.1-0.4-2.2-1.1-3-2c-0.9-0.9-1.6-2-2.1-3.3c-0.5-1.3-0.8-2.7-0.9-4.2c0-1.2,0.1-2.3,0.4-3.4
						c0.3-1.1,0.7-2.1,1.2-3.1c0.5-1,1.2-1.8,1.9-2.6c0.7-0.8,1.5-1.4,2.3-1.9l-1.8-41.3l5.9-0.7L235.6,236.7z M234.3,225.8l-0.1-2
						l-4.2,0.5l0.1,2L234.3,225.8 M233.5,208l-0.1-2l-4.2,0.5l0.1,2L233.5,208 M234.5,230.8l-0.1-2l-4.2,0.5l0.1,2L234.5,230.8
						 M233.8,212.9l-0.1-2l-4.2,0.5l0.1,2L233.8,212.9 M233.3,201l-0.1-2l-4.2,0.5l0.1,2L233.3,201 M234.1,219.9l-0.1-2l-4.2,0.5
						l0.1,2L234.1,219.9"/>
				</g>
				<g class="st5">
					<defs>
						<path id="SVGID_13_" class="st5" d="M225.4,271.1c-0.6-0.1-1.1-0.2-1.7-0.3c-4.1-0.6-8-2.1-11.6-4.2c-3.5-2.1-6.7-5-9.4-8.4
							c-2.7-3.4-4.9-7.4-6.5-11.8c-1.6-4.4-2.6-9.2-2.8-14.4c-0.3-6,0.5-11.8,2.2-17.2c1.6-5.4,4.1-10.4,7.3-14.7
							c3.2-4.3,7-7.9,11.3-10.6c4.3-2.7,9.1-4.5,14.1-5.1l1.7,0.2c-5.1,0.6-9.8,2.4-14.1,5.1c-4.3,2.7-8.1,6.3-11.3,10.6
							c-3.2,4.3-5.7,9.3-7.3,14.7c-1.6,5.4-2.4,11.2-2.2,17.2c0.2,5.1,1.2,10,2.8,14.4c1.6,4.4,3.8,8.4,6.5,11.8
							c2.7,3.4,5.9,6.2,9.4,8.4C217.4,269.1,221.3,270.5,225.4,271.1z"/>
					</defs>
					<clipPath id="SVGID_16_">
						<use xlink:href="#SVGID_13_"  style="overflow:visible;"/>
					</clipPath>
					<g class="st40">
						<path class="st41" d="M225.4,271.1l-1.7-0.3c-4.1-0.6-8-2.1-11.6-4.2c-3.5-2.1-6.7-5-9.4-8.4c-2.7-3.4-4.9-7.4-6.5-11.8
							c-1.6-4.4-2.6-9.2-2.8-14.4c0-1-0.1-2,0-3c0-1,0.1-2,0.1-3c0.1-1,0.2-2,0.3-3c0.1-1,0.3-2,0.5-2.9l1.7,0.2
							c-0.2,1-0.3,1.9-0.5,2.9c-0.1,1-0.2,2-0.3,3c-0.1,1-0.1,2-0.1,3c0,1,0,2,0,3c0.2,5.1,1.2,10,2.8,14.4
							c1.6,4.4,3.8,8.4,6.5,11.8c2.7,3.4,5.9,6.2,9.4,8.4C217.4,269.1,221.3,270.5,225.4,271.1"/>
						<path class="st42" d="M196,220.4l-1.7-0.2c0.2-0.9,0.4-1.7,0.6-2.5c0.2-0.8,0.4-1.7,0.7-2.5c0.2-0.8,0.5-1.6,0.8-2.4
							c0.3-0.8,0.6-1.6,0.9-2.4l1.7,0.2c-0.3,0.8-0.6,1.6-0.9,2.4c-0.3,0.8-0.6,1.6-0.8,2.4c-0.2,0.8-0.5,1.7-0.7,2.5
							C196.3,218.7,196.2,219.6,196,220.4"/>
						<path class="st43" d="M198.9,210.6l-1.7-0.2c0.3-0.8,0.6-1.5,1-2.2c0.3-0.7,0.7-1.5,1.1-2.2c0.4-0.7,0.8-1.4,1.2-2.1
							c0.4-0.7,0.8-1.4,1.3-2l1.7,0.2c-0.4,0.7-0.9,1.3-1.3,2c-0.4,0.7-0.8,1.4-1.2,2.1c-0.4,0.7-0.7,1.4-1.1,2.2
							C199.6,209.1,199.3,209.8,198.9,210.6"/>
						<path class="st29" d="M203.5,202.1l-1.7-0.2c0.5-0.8,1.1-1.6,1.7-2.3c0.6-0.8,1.2-1.5,1.8-2.2c0.6-0.7,1.3-1.4,1.9-2.1
							c0.7-0.7,1.3-1.3,2-1.9l1.7,0.2c-0.7,0.6-1.4,1.2-2,1.9c-0.7,0.7-1.3,1.3-1.9,2.1c-0.6,0.7-1.2,1.4-1.8,2.2
							C204.6,200.5,204,201.3,203.5,202.1"/>
						<path class="st30" d="M210.9,193.6l-1.7-0.2c1.4-1.2,2.8-2.3,4.3-3.3c1.5-1,3-1.8,4.6-2.6c1.6-0.7,3.3-1.4,4.9-1.8
							c1.7-0.5,3.4-0.8,5.2-1l1.7,0.2c-1.8,0.2-3.5,0.6-5.2,1c-1.7,0.5-3.3,1.1-4.9,1.8c-1.6,0.7-3.2,1.6-4.6,2.6
							C213.7,191.3,212.3,192.4,210.9,193.6"/>
					</g>
				</g>
				<g>
					<path class="st44" d="M230,184.9l0.2,4.4c-4.5,0.5-8.8,2.1-12.7,4.5c-3.9,2.4-7.3,5.7-10.1,9.5c-2.8,3.9-5.1,8.3-6.6,13.2
						c-1.5,4.8-2.2,10-2,15.4c0.2,5.4,1.4,10.3,3.2,14.8c1.9,4.4,4.5,8.3,7.6,11.5c3.1,3.2,6.8,5.6,10.8,7.1c4,1.5,8.4,2.1,12.9,1.5
						l0.2,4.4c-5.1,0.6-9.9,0-14.4-1.7c-4.5-1.7-8.6-4.4-12.1-7.9c-3.5-3.5-6.4-7.9-8.5-12.8c-2.1-5-3.4-10.5-3.6-16.5
						c-0.3-6,0.5-11.8,2.2-17.2c1.6-5.4,4.1-10.4,7.3-14.7c3.2-4.3,7-7.9,11.3-10.6C220.2,187.2,224.9,185.4,230,184.9z"/>
				</g>
			</g>
		</g>
	</g>
</g>
<g id="_x34__way_lumbar" class="st0">
	<g class="st1">
		<g>
			<g>
				<path class="st4" d="M230.6,254.4c3.1,1.8,6.2,3.7,9.2,5.6c3,1.9,6,3.9,8.9,5.9c-2.4,0.6-4.8,1.3-7.1,2
					c-0.4-1.5-0.7-2.9-1.1-4.3c-4,1.1-7.9,2.3-11.8,3.6c0.4,1.5,0.8,2.9,1.3,4.4c-2.7,0.9-5.4,1.9-8.1,2.9c1.4-3.3,2.8-6.7,4.2-10
					C227.5,261,229,257.7,230.6,254.4z"/>
			</g>
			<g>
				<path class="st4" d="M242.5,359c1.9-0.8,3.9-1.5,5.8-2.2c0.1,0.6,0.2,1.3,0.3,1.9c2.8-1,5.6-2,8.4-2.9c-0.1-0.6-0.1-1.2-0.2-1.8
					c1.8-0.5,3.5-1.1,5.3-1.6c-1.5,3.1-2.9,6.2-4.3,9.3c-1.4,3.1-2.7,6.3-3.9,9.4c-1.8-2.1-3.6-4.1-5.5-6.2S244.5,360.9,242.5,359z"
					/>
			</g>
			<g>
				<path class="st4" d="M228.7,267c3.9-1.3,7.8-2.5,11.8-3.6c0.4,1.4,0.7,2.9,1.1,4.3c7,28.5,12.1,57.3,15.3,86.1
					c0.1,0.6,0.1,1.2,0.2,1.8c-2.8,0.9-5.6,1.9-8.4,2.9c-0.1-0.6-0.2-1.3-0.3-1.9c-4.2-28.6-10.4-57.2-18.4-85.4
					C229.5,269.9,229.1,268.5,228.7,267z"/>
			</g>
		</g>
	</g>
	<g class="st1">
		<g class="st5">
			<g>
				<polygon class="st4" points="251,207.5 256.7,210.5 262.4,213.5 257.2,219.9 251.9,226.3 251.7,221.4 254.8,220.5 254.4,212.4 
					251.3,213.3 				"/>
			</g>
			<g>
				<polygon class="st4" points="189.9,231.3 191.2,230.9 251.3,213.3 254.4,212.4 254.8,220.5 251.7,221.4 191.6,239.1 
					190.3,239.4 				"/>
			</g>
			<g>
				<polygon class="st4" points="191,225.2 191.2,230.9 189.9,231.3 190.3,239.4 191.6,239.1 191.7,244.1 186.1,240.9 180.5,237.7 
					185.7,231.5 				"/>
			</g>
		</g>
	</g>
	<path class="st2" d="M1,0v578h578V0H1z M349.5,322c-2,17.2-0.3,16.5-10.2,33.8c-3,4.3-4.2,6.3-11.5,11.8c-1.3,1.2-2.1,2.5-5.4,3.7
		c-2,0.4-9.2,1.6-14.7,4.9c-1.6,0.5-10,2.6-15.3,3.9c-1.4,1.7-2.7,2.7-3.4,3.3l-88,26.8c2.7-2.7,3.9-5.4,4.4-8.1c-0.7,1.6-2,4-3.5,6
		c-1.9,2.3-3.6,2-6.9,2.6c-3.3,0.6-3.6,1.6-6.2,3.3c-2.7,1.7-2.2,1.7-5.6,2.3c-3.4,0.6-5.2,0.5-8.1,0.9c-3,0.5-10-0.3-12.5-1.4
		c-2.2-0.2-3.1-0.5-5.6-1.4c-5.3-2.8-6.9-5.4-14.4-16.5s-12.2-13.7-14-15.1c-3.5-1.7-1.9-0.8-3.2-1c-3.5,1.2-5.9-5.5-6.6-8.4
		c-2.2-7.8-8.4-34.1-9.8-40.7c-1.4-6.6-7-34.1-8.4-42.6c0,0-8.8-54.7-10.6-67c-1.8-12.4-5.2-32.9-6.5-42.7
		c-3.5-43.9,27.5-59.3,27.5-59.3c0,0.2,0.1,0.4,0.1,0.6c1.1-2.8,8.9-4.3,11.1-4.7c2.4-0.4,7.6-1.4,10.9-2.2s4.8-0.4,5.9-0.7
		c1.1-0.3,5.3-1.7,5.3-1.7c18.3,15.8,29.7,12.2,37.9,11.4c11.8-0.6,21.3-2.5,41.6-5.8c22.3-3,23.7-9.3,24.5-11.2
		c6.7,2.4,11.5,5.6,14.4,7.9c6.3,2.6,17.8,8.5,25,19.5c10.3,15.9,17.6,38.5,22.5,51.8c4.9,13.2,14.2,37.8,16.9,44
		c2.6,6.2,13.9,34.9,16.1,43.6S351.5,304.8,349.5,322z"/>
</g>
</svg>
