<?xml version="1.0" standalone="no"?>
<!DOCTYPE svg PUBLIC "-//W3C//DTD SVG 1.1//EN" "http://www.w3.org/Graphics/SVG/1.1/DTD/svg11.dtd" >
<svg xmlns="http://www.w3.org/2000/svg" xmlns:xlink="http://www.w3.org/1999/xlink" version="1.1">
<metadata>
Created by FontForge 20150318 at Thu Jun 18 17:16:59 2015
 By uniteet7
(c)G.M.
</metadata>
<defs>
<font id="WalkwayBlackRevOblique" horiz-adv-x="525" >
  <font-face 
    font-family="WalkwayBlackRevOblique"
    font-weight="400"
    font-style="oblique"
    font-stretch="normal"
    units-per-em="1000"
    panose-1="0 0 4 0 0 0 0 0 0 0"
    ascent="800"
    descent="-200"
    x-height="488"
    cap-height="678"
    bbox="-273 -179 1069 874"
    underline-thickness="30"
    underline-position="-118"
    unicode-range="U+0020-2122"
  />
<missing-glyph horiz-adv-x="500" 
d="M63 0v874h375v-874h-375zM125 63h250v749h-250v-749z" />
    <glyph glyph-name=".notdef" horiz-adv-x="500" 
d="M63 0v874h375v-874h-375zM125 63h250v749h-250v-749z" />
    <glyph glyph-name="glyph1" horiz-adv-x="0" 
 />
    <glyph glyph-name="nonmarkingreturn" horiz-adv-x="354" 
 />
    <glyph glyph-name="space" unicode=" " horiz-adv-x="354" 
 />
    <glyph glyph-name="exclam" unicode="!" horiz-adv-x="194" 
d="M17 155l-111 523h96l111 -523h-96zM97 0q-48 0 -58 45l-12 58q-1 6 -1 11q0 13 10.5 23t29.5 10q48 0 57 -44l12 -58q2 -5 2 -10q0 -35 -40 -35z" />
    <glyph glyph-name="quotedbl" unicode="&#x22;" horiz-adv-x="292" 
d="M87 547q-48 0 -55 34l-13 58q-7 33 41 33t55 -33l13 -58q7 -34 -41 -34zM-29 547q-47 0 -54 34l-13 58q-7 33 40 33q49 0 56 -33l13 -58q7 -34 -42 -34z" />
    <glyph glyph-name="numbersign" unicode="#" horiz-adv-x="531" 
d="M410 325h-91l-2 -21h88l-4 -80h-90l-5 -63h-99l5 63h-42l-5 -63h-99l5 63h-87l4 80h90l2 21h-91l10 80h88l6 63h99l-6 -63h42l5 63h98l-5 -63h88zM179 325l-2 -21h42l2 21h-42z" />
    <glyph glyph-name="dollar" unicode="$" horiz-adv-x="642" 
d="M440 -9l13 -61h-96l-11 49h-12q-20 0 -39 2l11 -51h-96l-14 64q-208 52 -246 231l-9 45h97l8 -41q23 -107 131 -142l-52 241q-183 45 -211 176q-5 24 -5 45q2 106 140 139l-14 65h96l11 -54h20q16 0 32 -1l-12 55h96l14 -68q186 -45 231 -245h-94q-33 120 -117 152
l47 -222q98 -23 146 -56q69 -47 88 -134q3 -18 3 -34q0 -60 -49 -104q-43 -37 -107 -51zM212 610q-15 1 -31 1q-11 0 -20 -1l45 -210l53 -10zM69 595q-61 -22 -61 -71q0 -10 2 -20q12 -56 95 -82zM470 237q-27 21 -91 40l42 -195q77 25 77 81q0 10 -2 20q-8 39 -26 54z
M278 299l-52 9l50 -239q20 -1 41 -1h11z" />
    <glyph glyph-name="percent" unicode="%" horiz-adv-x="750" 
d="M564 -19q-171 0 -212 191q-8 38 -8 68q0 127 139 127q171 0 212 -195q8 -34 8 -62q0 -129 -139 -129zM177 -2h-118l388 680h117zM132 275q-170 0 -211 190q-8 38 -8 68q0 126 138 126q172 0 213 -194q7 -32 7 -59q0 -131 -139 -131zM501 279q-57 0 -57 -63q0 -19 5 -44
q23 -104 98 -104q57 0 57 62q0 18 -6 42q-22 107 -97 107zM68 572q-55 0 -55 -62q0 -20 5 -45q22 -103 96 -103q58 0 58 62q0 18 -5 41q-23 107 -99 107z" />
    <glyph glyph-name="ampersand" unicode="&#x26;" horiz-adv-x="603" 
d="M468 -19l-16 76q-67 -73 -182 -73q-95 0 -179 43q-121 63 -121 172q0 102 138 182q-103 59 -122 149q-3 16 -3 31q0 59 54 91q44 26 108 26q79 0 140 -36q68 -40 84 -113q2 -11 2 -22q0 -92 -163 -182q-81 -45 -107 -71q-33 -34 -33 -70q0 -54 63 -86q53 -27 115 -27
q116 0 152 91q10 28 10 65q0 35 -9 78h96l69 -324h-96zM237 574q-30 17 -72 17q-84 0 -84 -51q0 -67 113 -113q79 49 79 93q0 33 -36 54z" />
    <glyph glyph-name="quotesingle" unicode="'" horiz-adv-x="175" 
d="M-29 547q-47 0 -54 34l-13 58q-7 33 40 33q49 0 56 -33l13 -58q7 -34 -42 -34z" />
    <glyph glyph-name="parenleft" unicode="(" horiz-adv-x="233" 
d="M210 -168q-184 205 -236 451q-19 90 -19 174q1 147 63 277h111q-76 -155 -76 -299q0 -72 17 -152q49 -230 251 -451h-111z" />
    <glyph glyph-name="parenright" unicode=")" horiz-adv-x="233" 
d="M90 -168h-112q61 119 76 230q5 37 5 76q0 70 -16 145q-49 228 -257 451h112q188 -201 241 -451q18 -85 18 -165q0 -154 -67 -286z" />
    <glyph glyph-name="asterisk" unicode="*" horiz-adv-x="340" 
d="M155 557q40 -16 45 -38q3 -16 -10 -27t-29 -11q-22 0 -57 15l3 -14q3 -18 -9 -28.5t-31 -10.5q-48 0 -56 39l-3 14q-29 -14 -52 -14q-46 0 -54 36q-5 22 28 39q-40 16 -44 38q-3 11 4 23q12 15 34 15q7 0 16 -1q2 -1 42 -14l-4 15q-1 5 -1 10q0 29 41 29q48 0 56 -39
l4 -15q33 15 48 15q23 0 44 -16q10 -12 13 -22q5 -24 -28 -38z" />
    <glyph glyph-name="plus" unicode="+" horiz-adv-x="560" 
d="M283 210l31 -143h-96l-31 143h-191l-17 82h191l-30 141h96l30 -141h192l17 -82h-192z" />
    <glyph glyph-name="comma" unicode="," horiz-adv-x="262" 
d="M171 -64q-5 -26 -51 -26q-39 0 -46 35q-2 6 0 13l20 102q5 26 40 26q21 0 41 -13t16 -34z" />
    <glyph glyph-name="hyphen" unicode="-" horiz-adv-x="350" 
d="M-40 254l-4 20h332l4 -20h-332z" />
    <glyph glyph-name="hyphen" unicode="&#x2010;" horiz-adv-x="350" 
d="M-40 254l-4 20h332l4 -20h-332z" />
    <glyph glyph-name="period" unicode="." horiz-adv-x="209" 
d="M105 -2q-48 0 -54 29l-6 29q-6 29 42 29t54 -29l6 -29q6 -29 -42 -29z" />
    <glyph glyph-name="slash" unicode="/" horiz-adv-x="350" 
d="M46 0h-105l224 694h105z" />
    <glyph glyph-name="zero" unicode="0" horiz-adv-x="584" 
d="M400 -3q-29 -9 -104 -9q-126 0 -218 71q-95 72 -121 193l-32 154q-8 34 -8 64q0 74 44 127q60 74 189 74q126 0 218.5 -71.5t118.5 -193.5l32 -154q8 -35 8 -65q0 -74 -41.5 -125t-85.5 -65zM391 406q-18 83 -78 130.5t-145 47.5q-69 0 -109 -31q-44 -35 -44 -101
q0 -21 6 -46l32 -154q18 -82 78.5 -129.5t144.5 -47.5q69 0 109 31q44 34 44 100q0 21 -6 46z" />
    <glyph glyph-name="one" unicode="1" horiz-adv-x="413" 
d="M252 0l-109 513l-88 -77h-151l235 210h72l137 -646h-96z" />
    <glyph glyph-name="two" unicode="2" horiz-adv-x="584" 
d="M20 0q-8 41 -8 78q0 154 155 250q31 19 124 75q66 40 58 79q-19 88 -167 88q-70 0 -103 -22q-41 -26 -41 -89q0 -31 9 -71h-96q-11 52 -11 93q0 75 37 115q57 61 180 61q105 0 179 -39q88 -46 108 -139q2 -10 2 -21q0 -81 -140 -162q-42 -24 -105 -64q-85 -66 -94 -145
h452l18 -87h-557z" />
    <glyph glyph-name="three" unicode="3" horiz-adv-x="584" 
d="M299 -11q-126 0 -215 54q-102 61 -127 177l-9 44h96l12 -56q14 -68 85 -103q58 -29 136 -29q62 0 106 18q63 25 63 77q0 10 -3 20q-23 110 -195 110h-83l-19 88h84q140 0 140 72q0 59 -67 88q-48 21 -118 21q-74 0 -110 -19q-47 -26 -47 -91q0 -27 7 -62h-96q-9 46 -9 84
q0 175 233 175q101 0 176 -33q104 -45 125 -143q4 -21 4 -40q0 -60 -50 -95q98 -51 120 -155q5 -21 5 -40q0 -84 -84 -128q-67 -34 -160 -34z" />
    <glyph glyph-name="four" unicode="4" horiz-adv-x="584" 
d="M414 201l43 -201h-96l-43 201h-390l152 446h106l-122 -359h236l-77 361l97 -4l76 -357h129l18 -87h-129z" />
    <glyph glyph-name="five" unicode="5" horiz-adv-x="584" 
d="M290 -11q-286 0 -342 265h96q21 -98 74.5 -138t154.5 -40q66 0 107 23q52 29 52 90q0 16 -4 35q-16 75 -84 115q-59 34 -142 34q-112 0 -156 -88h-85l-59 361h503l18 -87h-409l22 -136q58 37 151 37q121 0 212 -58q101 -65 125 -177q6 -28 6 -53q0 -93 -76 -142
q-65 -41 -164 -41z" />
    <glyph glyph-name="six" unicode="6" horiz-adv-x="584" 
d="M380 398q-36 171 -207 171q-60 0 -98 -22q-47 -28 -47 -83q0 -15 3 -31l9 -43q57 42 159 42q113 0 197 -55q93 -60 115 -165q5 -26 5 -48q0 -87 -73 -132q-61 -38 -153 -38q-113 0 -196 54q-92 59 -114 164l-4 18l-43 206q-5 26 -5 48q0 87 74 132q62 37 154 37
q128 0 210.5 -65t108.5 -190h-95zM348 312q-37 25 -67 32q-19 4 -65 4q-60 0 -98 -22q-47 -27 -47 -82q0 -15 4 -32q14 -67 73 -103q52 -31 125 -31q60 0 99 22q47 27 47 82q0 14 -3 30q-14 64 -68 100z" />
    <glyph glyph-name="seven" unicode="7" horiz-adv-x="584" 
d="M235 0h-105l187 559h-407l-18 87h559z" />
    <glyph glyph-name="eight" unicode="8" horiz-adv-x="601" 
d="M303 -11q-124 0 -211 44q-106 54 -129 164q-5 23 -4 43q0 76 73 117q-77 45 -93 117q-4 22 -4 41q0 80 78 116q58 26 148 26q110 0 187 -39q94 -48 114 -144q3 -14 3 -28q0 -53 -49 -89q116 -52 140 -162q5 -24 5 -45q0 -90 -90 -131q-66 -30 -168 -30zM180 570
q-147 0 -147 -77q0 -53 68 -79q52 -20 117 -20q48 0 90 14q59 19 59 56q0 60 -70 87q-49 19 -117 19zM237 307q-180 0 -180 -89q0 -10 2 -22q26 -120 226 -120q177 0 177 94q0 12 -3 26q-23 111 -222 111z" />
    <glyph glyph-name="nine" unicode="9" horiz-adv-x="584" 
d="M469 425l47 -223q5 -25 5 -47q0 -86 -74 -132q-63 -38 -155 -38q-264 0 -318 254h95q19 -88 68 -129t138 -41q60 0 99 23q47 28 47 83q0 14 -3 29l-13 61q-57 -42 -159 -42q-113 0 -197 54q-92 60 -114 165q-6 26 -6 50q0 86 73 131q60 39 152 39q113 0 197 -55
q93 -60 115 -165l3 -12v-5zM303 542q-37 25 -67 32q-19 4 -65 4q-60 0 -98 -22q-47 -27 -47 -82q0 -15 4 -32q14 -68 73 -103q52 -32 126 -32q59 0 98 22q47 28 47 82q0 15 -3 31q-14 64 -68 100z" />
    <glyph glyph-name="colon" unicode=":" horiz-adv-x="244" 
d="M55 322q-48 0 -58 44l-11 55q-2 5 -2 10q0 34 40 34q46 0 56 -42l13 -57q5 -19 -7 -31.5t-31 -12.5zM123 -2q-48 0 -57 44l-12 55q-1 5 -1 10q0 34 40 34q46 0 56 -42l13 -57q5 -20 -6.5 -32t-32.5 -12z" />
    <glyph glyph-name="semicolon" unicode=";" horiz-adv-x="251" 
d="M75 320q-48 0 -57 44l-12 57q-2 5 -2 10q0 34 40 34q20 0 36.5 -12.5t21.5 -31.5l12 -57q1 -5 1 -10q0 -34 -40 -34zM163 -58q-3 -33 -39 -33q-23 0 -42 17t-17 40l15 135q3 32 38 32q23 0 42 -16t16 -39z" />
    <glyph glyph-name="less" unicode="&#x3c;" horiz-adv-x="535" 
d="M-33 208l-14 65l468 175l19 -89l-320 -119l370 -119l19 -89z" />
    <glyph glyph-name="equal" unicode="=" horiz-adv-x="630" 
d="M-39 245l-15 68h605l15 -68h-605zM-22 167l-15 68h605l15 -68h-605z" />
    <glyph glyph-name="greater" unicode="&#x3e;" horiz-adv-x="535" 
d="M4 32l-19 89l319 119l-369 119l-19 89l542 -175l14 -65z" />
    <glyph glyph-name="question" unicode="?" 
d="M323 340q-66 -58 -66 -111q0 -8 2 -17l12 -57h-97l-11 52q-4 20 -4 39q0 81 76 149q47 42 61 66q9 15 9 35q0 59 -60 89q-44 22 -110 22q-75 0 -107 -30.5t-32 -103.5q0 -20 2 -42l-101 47q-13 216 220 216q93 0 169 -39q116 -60 116 -170q0 -75 -79 -145zM254 0
q-47 0 -57 45l-12 58q-1 6 -1 11q0 34 39 34q49 0 58 -45l12 -58q2 -5 2 -10q0 -35 -41 -35z" />
    <glyph glyph-name="at" unicode="@" horiz-adv-x="840" 
d="M565 195q-1 -8 -12 -4q-6 2 -30 27l31 1q16 0 34.5 17t26.5 33q24 50 24 94q0 113 -120 188q-92 57 -208 57q-158 0 -231 -95q-38 -49 -38 -115q0 -28 7 -58q26 -122 139 -196q104 -68 235 -68q82 0 148 32q76 36 106 104h109q-25 -67 -55 -106q-36 -45 -94 -73
q-92 -44 -191 -44q-172 0 -312 93q-151 101 -185 263q-9 38 -9 73q0 112 83 187q99 90 265 90q150 0 274 -74q141 -84 171 -227q6 -28 6 -55q0 -68 -38 -129q-21 -34 -58.5 -57.5t-75.5 -23.5q-48 0 -71 37q-57 -49 -154 -50q-113 -1 -187 74q-50 50 -65 119q-7 35 -7 66
q0 70 38 121q57 78 184 79q93 1 156 -42l-3 42h85l2 -22l-7 7q3 -3 6 -17q15 -72 33 -340zM419 463q-26 19 -49 24q-15 3 -53 3q-79 -1 -115 -51q-25 -36 -25 -84q0 -21 5 -44q24 -112 144 -111q68 0 109.5 42.5t37.5 109.5q-4 74 -54 111z" />
    <glyph glyph-name="A" unicode="A" horiz-adv-x="636" 
d="M584 0l-140 200h-334l-56 -200h-108l196 678h75l472 -678h-105zM209 537l-73 -250h248z" />
    <glyph glyph-name="B" unicode="B" horiz-adv-x="642" 
d="M359 0h-347l-144 678h360q103 0 180 -44q89 -50 109 -144q3 -16 3 -31q0 -60 -54 -101q111 -48 135 -160q5 -22 5 -41q0 -85 -86 -126q-65 -31 -161 -31zM362 567q-49 24 -118 24h-262l42 -195h261q51 0 87 15q50 20 50 64q0 61 -60 92zM439 281q-38 19 -69 24
q-21 3 -68 3h-259l47 -221h263q57 0 98 17q57 23 57 73q0 9 -2 20q-12 57 -67 84z" />
    <glyph glyph-name="C" unicode="C" horiz-adv-x="719" 
d="M536 487q-56 60 -117 85.5t-144 25.5q-105 0 -170 -45q-74 -52 -74 -151q0 -30 7 -64q26 -123 119 -192q89 -66 217 -66q76 0 126 24q54 26 91 88l93 -49q-93 -150 -291 -150q-168 0 -289 88q-127 92 -161 253q-9 45 -10 84q0 103 62 172q85 95 261 95q206 0 351 -149z
" />
    <glyph glyph-name="D" unicode="D" horiz-adv-x="680" 
d="M277 0h-257l-144 678h295q171 0 283 -86q114 -89 149 -254q9 -44 9 -82q0 -133 -105 -200q-88 -56 -230 -56zM188 591h-198l108 -504h164q253 0 253 184q0 31 -8 67q-54 253 -319 253z" />
    <glyph glyph-name="E" unicode="E" horiz-adv-x="564" 
d="M20 0l-144 678h561l18 -87h-466l42 -195h413l18 -87h-413l48 -222h471l18 -87h-566z" />
    <glyph glyph-name="F" unicode="F" horiz-adv-x="505" 
d="M-11 591l42 -195h368l18 -87h-368l66 -309h-95l-144 678h525l18 -87h-430z" />
    <glyph glyph-name="G" unicode="G" horiz-adv-x="758" 
d="M592 266h-290l-18 88h382q17 -53 21 -73q7 -33 7 -63q0 -114 -98 -174q-82 -51 -204 -51q-175 0 -299 86q-133 91 -169 258q-9 45 -9 85q0 102 61 169q86 94 262 94q153 0 253.5 -64t161.5 -203h-98q-44 97 -118 140q-69 40 -179 40q-107 0 -170 -43q-74 -50 -74 -150
q0 -31 7 -67q28 -129 126 -196q90 -62 227 -62q84 0 146 34q76 41 76 118q0 16 -4 34z" />
    <glyph glyph-name="H" unicode="H" horiz-adv-x="680" 
d="M565 0l-66 309h-449l66 -309h-96l-144 678h96l60 -282h449l-60 282h96l144 -678h-96z" />
    <glyph glyph-name="I" unicode="I" horiz-adv-x="134" 
d="M20 0l-144 678h96l144 -678h-96z" />
    <glyph glyph-name="J" unicode="J" horiz-adv-x="486" 
d="M224 -7q-222 0 -289 207h97q22 -67 60 -93.5t110 -26.5q60 0 86 12q39 17 39 68q0 21 -6 50l-99 468h96l100 -473q7 -31 7 -57q1 -155 -201 -155z" />
    <glyph glyph-name="K" unicode="K" horiz-adv-x="670" 
d="M607 0l-441 328l-101 -86l51 -242h-96l-144 678h96l69 -327l400 327h158l-366 -297l511 -381h-137z" />
    <glyph glyph-name="L" unicode="L" horiz-adv-x="505" 
d="M20 0l-144 678h96l126 -591h428l18 -87h-524z" />
    <glyph glyph-name="M" unicode="M" horiz-adv-x="819" 
d="M703 0l-102 478l-157 -478h-69l-361 478l102 -478h-96l-144 678h94l411 -545l180 545h94l144 -678h-96z" />
    <glyph glyph-name="N" unicode="N" horiz-adv-x="680" 
d="M574 0l-570 526l112 -526h-96l-144 678h86q115 -110 287 -266l283 -257l-111 523h96l144 -678h-87z" />
    <glyph glyph-name="O" unicode="O" horiz-adv-x="757" 
d="M523 5q-40 -12 -143 -12q-172 0 -293 88q-127 92 -162 257q-9 45 -9 85q0 130 97 196q84 56 223 56q172 0 292 -84q127 -89 162 -253q10 -46 10 -87q0 -99 -58.5 -164t-118.5 -82zM480 524q-61 44 -112 56q-34 8 -114 8q-105 0 -166 -39q-73 -47 -73 -144q0 -31 7 -67
q27 -125 120 -193q90 -65 220 -65q105 0 168 42q72 49 72 148q0 32 -8 68q-26 121 -114 186z" />
    <glyph glyph-name="P" unicode="P" horiz-adv-x="621" 
d="M287 277h-230l59 -277h-96l-144 678h337q270 0 313 -203q5 -21 5 -40q0 -85 -85 -126q-65 -32 -159 -32zM237 591h-247l49 -227h248q54 0 93 18q52 23 52 72q0 9 -3 20q-25 117 -192 117z" />
    <glyph glyph-name="Q" unicode="Q" horiz-adv-x="757" 
d="M558 23q8 -1 16 -1h130l19 -88h-130q-88 0 -155 56q-27 -3 -56 -3q-174 0 -295 90q-126 93 -161 259q-10 46 -10 86q0 130 97 196q85 57 223 57q173 0 292 -85q128 -90 163 -254q9 -45 9 -84q0 -163 -142 -229zM480 522q-61 45 -112 57q-34 8 -114 8q-104 0 -165 -39
q-73 -47 -74 -144q0 -32 8 -68q20 -95 79 -158q38 74 142 74q75 0 139 -44q69 -46 84 -117v-1q136 42 136 176q0 32 -8 70q-26 121 -115 186zM372 92q-7 35 -41 55q-30 18 -68 18q-68 0 -78 -48q78 -42 178 -42h14q-3 9 -5 17z" />
    <glyph glyph-name="R" unicode="R" horiz-adv-x="642" 
d="M472 331q88 -49 109 -148l39 -183h-96l-38 180q-22 104 -186 104h-244l60 -284h-96l-144 678h349q261 0 301 -188q5 -25 5 -48q-1 -71 -59 -111zM245 591h-255l47 -219h239q157 0 157 92q0 11 -3 23q-22 104 -185 104z" />
    <glyph glyph-name="S" unicode="S" horiz-adv-x="642" 
d="M331 -7q-141 0 -237 49q-118 60 -144 185l-10 44h97l9 -41q32 -150 268 -150q64 0 112 15q72 23 72 73q0 48 -34 74q-25 18 -78 32q-30 8 -148 30q-136 26 -189 49q-113 49 -134 148q-5 22 -5 42q1 142 255 142q302 0 359 -247h-94q-27 98 -88 132q-49 28 -158 28
q-176 0 -175 -80q0 -58 62 -86q41 -18 140 -34q194 -31 265 -67q95 -48 116 -148q4 -18 4 -35q0 -84 -96 -125q-72 -30 -169 -30z" />
    <glyph glyph-name="T" unicode="T" horiz-adv-x="545" 
d="M195 591l126 -591h-96l-126 591h-260l-18 87h615l18 -87h-259z" />
    <glyph glyph-name="U" unicode="U" horiz-adv-x="664" 
d="M333 -7q-312 0 -368 268l-89 417h96l89 -417q38 -181 254 -181q184 0 184 126q0 24 -6 52l-89 420h96l89 -419q9 -41 9 -75q0 -191 -265 -191z" />
    <glyph glyph-name="V" unicode="V" horiz-adv-x="628" 
d="M354 0h-71l-472 678h103l374 -537l139 537h103z" />
    <glyph glyph-name="W" unicode="W" horiz-adv-x="970" 
d="M704 0h-73l-210 309l-74 -309h-73l-459 678h103l361 -534l66 277l-173 257h103l361 -534l128 534h103z" />
    <glyph glyph-name="X" unicode="X" horiz-adv-x="604" 
d="M560 0l-316 280l-199 -280h-125l246 348l-375 330h127l298 -263l188 263h126l-236 -330l390 -348h-124z" />
    <glyph glyph-name="Y" unicode="Y" horiz-adv-x="626" 
d="M294 320l68 -320h-96l-68 320l-427 358h127l329 -275l214 275h126z" />
    <glyph glyph-name="Z" unicode="Z" horiz-adv-x="626" 
d="M-1 0l-15 72l369 519h-450l-18 87h591l15 -71l-369 -520h488l18 -87h-629z" />
    <glyph glyph-name="bracketleft" unicode="[" horiz-adv-x="233" 
d="M100 -168l-192 902h193l19 -89h-97l154 -724h97l19 -89h-193z" />
    <glyph glyph-name="backslash" unicode="\" horiz-adv-x="350" 
d="M306 0l-523 694h105l523 -694h-105z" />
    <glyph glyph-name="bracketright" unicode="]" horiz-adv-x="233" 
d="M204 -168h-192l-19 89h97l-1 9l-153 715h-97l-19 89h194z" />
    <glyph glyph-name="asciicircum" unicode="^" horiz-adv-x="298" 
d="M83 511l-55 48l-35 -48h-113l99 135h60l162 -135h-118z" />
    <glyph glyph-name="underscore" unicode="_" 
d="M-13 -119l-10 48h601l10 -48h-601z" />
    <glyph glyph-name="grave" unicode="`" horiz-adv-x="193" 
d="M-109 602q-33 19 -37 38q-3 15 18 25q28 14 62 -4q31 -16 111 -61q35 -20 39 -39q3 -15 -18 -25q-27 -14 -90 17q-42 25 -85 49z" />
    <glyph glyph-name="a" unicode="a" horiz-adv-x="564" 
d="M441 -1l-10 46q-58 -56 -169 -56q-119 0 -208.5 69t-114.5 185q-7 34 -7 64q0 69 39 118q59 75 187 75q106 0 188 -54l-11 52h96l106 -499h-96zM316 369q-39 32 -71 40q-22 6 -74 6q-64 0 -101 -31q-40 -33 -40 -95q0 -21 5 -46q17 -78 73 -123.5t135 -45.5q66 0 107 32
q44 36 44 99q0 18 -5 38q-17 80 -73 126z" />
    <glyph glyph-name="b" unicode="b" horiz-adv-x="564" 
d="M481 65q-57 -75 -187 -75q-102 0 -187 59l10 -50h-96l-144 679h96l46 -216q58 56 164 56q125 0 213.5 -72.5t114.5 -194.5q7 -36 7 -68q0 -70 -37 -118zM205 431q-148 0 -148 -123q0 -26 7 -58q17 -79 77 -126t141 -47q64 0 101.5 32.5t37.5 94.5q0 22 -6 48
q-17 82 -72 130.5t-138 48.5z" />
    <glyph glyph-name="c" unicode="c" 
d="M276 -11q-122 0 -212 64q-94 67 -119 183q-7 34 -7 64q0 100 72 153q64 47 169 47q191 0 278 -172l-79 -40q-33 67 -71 95q-43 32 -112 32q-71 0 -112 -31q-46 -34 -46 -101q0 -22 5 -47q17 -78 75 -120t140 -42q74 0 106.5 31.5t32.5 105.5l100 -36q-10 -186 -220 -186z
" />
    <glyph glyph-name="d" unicode="d" horiz-adv-x="564" 
d="M441 -1l-10 48q-58 -58 -169 -58q-121 0 -210 72.5t-115 190.5q-7 36 -7 67q0 71 37 121q59 78 187 78q106 0 189 -56l-46 216h96l144 -679h-96zM313 383q-39 33 -72 42q-22 6 -74 6q-64 0 -101.5 -34.5t-37.5 -96.5q0 -23 5 -48q17 -80 73 -128t137 -48q66 0 108 35
t41 100q0 19 -5 41q-17 83 -74 131z" />
    <glyph glyph-name="e" unicode="e" 
d="M42 206q45 -132 204 -132q130 0 152 109h99q-14 -105 -70.5 -149.5t-164.5 -44.5q-126 0 -213 66t-113 188q-6 32 -6 60q0 72 42 124q60 73 187 73q120 0 208 -61q94 -65 119 -178l11 -54zM177 415q-65 0 -105 -29q-44 -33 -45 -95h348q-24 60 -79 93q-51 31 -119 31z
" />
    <glyph glyph-name="f" unicode="f" horiz-adv-x="267" 
d="M62 468l1 -9h111l19 -88h-111l79 -372h-96l-79 372h-73l-19 88h73l-1 9q-6 24 -6 46q0 152 262 152l19 -86q-76 0 -114 -10q-69 -19 -69 -75q0 -13 4 -27z" />
    <glyph glyph-name="g" unicode="g" horiz-adv-x="545" 
d="M304 -179q-233 0 -290 208h95q21 -68 64 -96q40 -25 114 -25q141 0 141 91q0 15 -4 34l-2 9q-62 -53 -163 -53q-89 0 -162 40q-126 69 -157 214q-7 33 -7 63q0 71 41 122q58 72 184 72q98 0 178 -53l-9 42h96l97 -457q6 -29 6 -54q0 -157 -222 -157zM308 364
q-39 34 -69 43q-20 6 -65 6q-63 0 -102 -33t-39 -95q0 -20 4 -42q17 -77 70.5 -122t131.5 -45q65 0 103 29q43 32 43 93q0 20 -5 43q-16 73 -72 123z" />
    <glyph glyph-name="h" unicode="h" 
d="M407 0l-69 325q-23 106 -155 106q-58 0 -92 -26q-38 -30 -38 -85q0 -18 4 -38l60 -282h-96l-144 678h96l43 -204q54 44 148 44q97 0 169 -45q80 -49 99 -139l71 -334h-96z" />
    <glyph glyph-name="i" unicode="i" horiz-adv-x="136" 
d="M-48 541q-32 0 -54 36l-15 74q9 36 38 36q23 0 57 -31l18 -85q-20 -30 -44 -30zM21 0l-108 508h96l108 -508h-96z" />
    <glyph glyph-name="j" unicode="j" horiz-adv-x="136" 
d="M-48 539q-32 0 -53 36l-16 76q9 36 38 36q23 0 57 -31l18 -87q-20 -30 -44 -30zM-148 -179l-19 88q77 0 116 13q65 21 65 81q0 16 -4 34l-99 467h96l99 -468q6 -28 6 -52q1 -163 -260 -163z" />
    <glyph glyph-name="k" unicode="k" horiz-adv-x="532" 
d="M217 300l369 -300h-131l-305 248l-74 -57l41 -191h-96l-144 678h96l80 -379l269 210l169 -4z" />
    <glyph glyph-name="l" unicode="l" horiz-adv-x="136" 
d="M21 0l-144 678h96l144 -678h-96z" />
    <glyph glyph-name="m" unicode="m" horiz-adv-x="817" 
d="M700 0l-67 313q-21 102 -129 102q-114 0 -114 -87q0 -13 3 -27l64 -301h-96l-67 313q-21 102 -132 102q-50 0 -78.5 -27.5t-28.5 -76.5q0 -18 4 -39l58 -272h-96l-104 490h96l6 -30q51 40 135 40q102 0 171 -63q45 63 159 63q206 0 244 -178l68 -322h-96z" />
    <glyph glyph-name="n" unicode="n" 
d="M407 0l-67 313q-21 102 -153 102q-58 0 -92 -25q-40 -28 -40 -83q0 -16 4 -35l58 -272h-96l-104 490h96l7 -33q54 43 148 43q96 0 167 -42q81 -48 100 -136l68 -322h-96z" />
    <glyph glyph-name="o" unicode="o" horiz-adv-x="545" 
d="M379 -2q-29 -9 -105 -9q-123 0 -215 67q-95 69 -120 188q-7 32 -7 60q0 73 45 125q62 71 191 71q123 0 215 -67q95 -70 120 -189q7 -32 7 -60q0 -73 -43.5 -123t-87.5 -63zM332 369q-40 31 -73 40q-22 6 -74 6q-68 0 -108 -30q-46 -33 -46 -98q0 -20 5 -43
q17 -80 79 -126q59 -44 142 -44q68 0 109 30q46 34 46 98q0 20 -5 42q-16 78 -75 125z" />
    <glyph glyph-name="p" unicode="p" horiz-adv-x="564" 
d="M485 50q-57 -78 -186 -78q-105 0 -188 57l42 -197h-96l-140 657h96l10 -45q59 56 163 56q125 0 213.5 -70t113.5 -192q8 -37 8 -70q0 -69 -36 -118zM347 364q-38 34 -68 43q-21 6 -69 6q-66 0 -106 -32q-43 -34 -43 -98q0 -20 5 -44q38 -179 218 -179q65 0 102.5 32
t37.5 94q0 24 -5 51q-17 78 -72 127z" />
    <glyph glyph-name="q" unicode="q" horiz-adv-x="564" 
d="M476 -168l-41 193q-57 -53 -171 -53q-119 0 -209 74.5t-115 191.5q-7 33 -7 63q0 71 39 122q58 77 184 77q107 0 190 -56l-10 45h96l140 -657h-96zM315 364q-41 34 -74 43q-22 6 -72 6q-63 0 -100 -32.5t-37 -94.5q0 -23 6 -49q16 -79 72 -128t135 -49q152 0 152 122
q0 25 -6 55q-17 78 -76 127z" />
    <glyph glyph-name="r" unicode="r" horiz-adv-x="318" 
d="M83 350q-17 -34 -17 -79q0 -32 8 -70l43 -201h-96l-104 490h96l9 -45q60 55 202 55l18 -85q-128 0 -159 -65z" />
    <glyph glyph-name="s" unicode="s" horiz-adv-x="486" 
d="M252 -13q-245 0 -293 226h98q16 -78 56 -108.5t121 -30.5q113 0 113 52q0 50 -95 68q-20 3 -103 14q-173 24 -198 141q-4 16 -4 30q0 62 62 95q49 27 117 27q237 0 281 -206h-99q-14 68 -52 95q-35 24 -107 24q-36 0 -63 -10q-38 -15 -38 -45q0 -45 90 -60q28 -5 109 -18
q172 -26 197 -143q3 -16 3 -30q0 -67 -69 -98q-51 -23 -126 -23z" />
    <glyph glyph-name="t" unicode="t" horiz-adv-x="263" 
d="M96 391l83 -391h-94l-85 391h-100l-19 87h100l-29 136h96l29 -136h101l19 -87h-101z" />
    <glyph glyph-name="u" unicode="u" 
d="M407 -2l-7 34q-55 -43 -148 -43q-100 0 -171 45q-78 49 -98 143l-66 311h96l66 -310q22 -104 155 -104q131 0 131 105q0 21 -6 46l-56 263h96l104 -490h-96z" />
    <glyph glyph-name="v" unicode="v" horiz-adv-x="471" 
d="M282 0h-73l-364 488h110l261 -357l96 357h105z" />
    <glyph glyph-name="w" unicode="w" horiz-adv-x="771" 
d="M575 0h-76l-153 214l-55 -214h-75l-351 488h108l251 -354l45 188l-121 166h109l250 -354l85 354h105z" />
    <glyph glyph-name="x" unicode="x" horiz-adv-x="467" 
d="M420 0l-227 188l-146 -188h-128l197 252l-280 236h128l202 -173l132 173h126l-181 -236l305 -252h-128z" />
    <glyph glyph-name="y" unicode="y" 
d="M279 -179q-232 0 -289 208h95q21 -68 64 -96q40 -25 114 -25q141 0 141 90q0 8 -1 17q-55 -44 -147 -44q-102 0 -173 47q-77 52 -97 148l-69 322h96l69 -321q22 -108 155 -108q130 0 130 107q0 22 -6 50l-58 272h96l97 -457q7 -29 7 -54q0 -156 -224 -156z" />
    <glyph glyph-name="z" unicode="z" horiz-adv-x="473" 
d="M-10 0l-14 68l260 335h-302l-18 85h446l15 -67l-261 -336h349l18 -85h-493z" />
    <glyph glyph-name="braceleft" unicode="{" horiz-adv-x="350" 
d="M279 -168q-115 0 -141 123l-45 211q-10 44 -22 55q-7 6 -73 31l-13 63q55 24 60 30q7 11 -2 55l-45 211q-4 20 -4 37q0 86 93 86h49l19 -89h-48q-13 0 -14 -10q-2 -10 6 -47l40 -190q7 -29 7 -52q0 -41 -20 -63q44 -31 62 -115l40 -189q7 -33 9 -36q8 -22 24 -22h48
l19 -89h-49z" />
    <glyph glyph-name="bar" unicode="|" horiz-adv-x="233" 
d="M76 -32l-157 738h96l157 -738h-96z" />
    <glyph glyph-name="braceright" unicode="}" horiz-adv-x="350" 
d="M175 206q0 -14 6 -40l45 -211q4 -19 4 -36q0 -87 -94 -87h-48l-19 89h47q13 0 15 10t-7 48l-40 189q-6 31 -6 55q0 40 19 60q-44 34 -62 115l-40 190q-6 30 -8 35q-9 22 -25 22h-47l-19 89h48q116 0 142 -123l45 -211q9 -44 21 -55q7 -6 73 -30l13 -63q-55 -25 -59 -30.5
t-4 -15.5z" />
    <glyph glyph-name="asciitilde" unicode="~" horiz-adv-x="548" 
d="M305 351q-36 0 -126 21q-77 18 -94 18q-22 0 -30 -8.5t-9 -31.5h-108q6 105 135 105q32 0 124 -22q75 -18 95 -18q37 0 40 41h108q-3 -64 -42 -84.5t-93 -20.5z" />
    <glyph glyph-name="nonbreakingspace" unicode="&#xa0;" 
 />
    <glyph glyph-name="exclamdown" unicode="&#xa1;" horiz-adv-x="194" 
d="M5 436q-48 0 -57 44l-12 58q-2 5 -2 10q0 35 40 35q48 0 58 -45l12 -58q1 -5 1 -10q0 -34 -40 -34zM69 -95l-111 523h96l111 -523h-96z" />
    <glyph glyph-name="cent" unicode="&#xa2;" 
d="M277 -14q-55 0 -105 14l-12 -36h-106l27 77q-110 70 -137 197q-7 35 -7 66q0 101 71 154q64 48 169 48q28 0 56 -4l17 49h105l-27 -80q77 -39 129 -140l-79 -40q-39 77 -75 101l-105 -313q29 -7 60 -7q74 0 106 32.5t32 107.5l100 -37q-9 -189 -219 -189zM194 420
q-71 0 -112 -31q-46 -35 -46 -103q0 -22 5 -48q16 -73 67 -115l99 296q-7 1 -13 1z" />
    <glyph glyph-name="currency" unicode="&#xa4;" horiz-adv-x="584" 
d="M441 185l-119 77q-38 -20 -91 -20t-101 21l-86 -78l-86 53l90 81q-38 43 -38 95q0 23 10 44l-126 81l63 53l121 -79q39 20 90 20q53 0 99 -20l87 79l85 -53l-90 -81q41 -43 41 -95q0 -24 -11 -45l124 -80zM186 451q-30 0 -52 -11q-28 -15 -28 -42q0 -33 37 -55
q30 -19 70 -19q30 0 53 12q29 14 29 41q0 35 -39 56q-32 18 -70 18z" />
    <glyph glyph-name="yen" unicode="&#xa5;" horiz-adv-x="645" 
d="M305 317h212l18 -88h-212l6 -26h212l18 -87h-212l25 -116h-96l-25 116h-212l-18 87h212l-6 26h-212l-18 88h212l-1 3l-427 358h127l329 -275l214 275h126z" />
    <glyph glyph-name="brokenbar" unicode="&#xa6;" horiz-adv-x="233" 
d="M-3 340l-76 356h96l76 -356h-96zM74 -23l-76 356h96l76 -356h-96z" />
    <glyph glyph-name="section" unicode="&#xa7;" horiz-adv-x="584" 
d="M421 150q61 -38 74 -100q4 -17 4 -32q0 -64 -60 -98q-49 -28 -117 -28q-235 0 -280 211h96q15 -70 51 -96.5t109 -26.5q103 0 103 55q0 52 -73 65l-163 30q-51 9 -103 53q-61 51 -61 119q0 58 46 90q-61 38 -75 101q-3 17 -3 33q0 63 59 97q48 28 117 28q236 0 282 -212
h-96q-15 70 -51.5 97t-110.5 27q-102 0 -102 -58q0 -37 48 -54q21 -7 128 -26q78 -7 137 -42q71 -42 85 -110q4 -18 4 -34q0 -57 -48 -89zM209 339q-100 0 -111 -49l2 -7q8 -40 64 -62q44 -17 94 -17q121 0 111 65q-35 70 -160 70z" />
    <glyph glyph-name="dieresis" unicode="&#xa8;" horiz-adv-x="214" 
d="M49 547q-47 0 -53 28l-5 22q-6 27 41 27q49 0 55 -27l5 -22q6 -28 -43 -28zM-66 547q-48 0 -54 28l-5 22q-6 27 42 27t54 -27l5 -22q6 -28 -42 -28z" />
    <glyph glyph-name="copyright" unicode="&#xa9;" horiz-adv-x="560" 
d="M235 236q-112 0 -202 54q-101 60 -123 163q-5 23 -5 43q0 85 78 134q67 42 157 42q108 0 200 -54q105 -62 127 -164q4 -22 4 -43q0 -85 -78 -134q-67 -41 -158 -41zM296 549q-42 25 -72 32q-20 5 -64 5q-58 0 -102 -25q-53 -30 -53 -84q0 -71 75 -118q60 -38 135 -38
q58 0 102 25q54 30 54 84q0 72 -75 119zM229 301q-77 0 -135 37q-65 42 -80 113q-3 17 -3 32q0 58 48 89q42 26 103 26q140 0 198 -148h-98q-16 34 -31 46q-18 16 -52 16q-69 0 -69 -45q0 -7 2 -16q14 -64 99 -64q28 0 41 19q8 13 13 46h103q-10 -73 -37 -108
q-34 -43 -102 -43z" />
    <glyph glyph-name="ordfeminine" unicode="&#xaa;" horiz-adv-x="378" 
d="M201 348l-2 10q-35 -16 -85 -16q-78 0 -136 41q-63 43 -78 117q-4 19 -4 36q0 61 47 94q41 28 106 28q49 0 89 -15l-3 14h98l66 -309h-98zM135 556q-25 20 -70 20q-70 0 -70 -53q0 -10 3 -23q16 -76 99 -76q74 0 74 59q0 46 -36 73z" />
    <glyph glyph-name="guillemotleft" unicode="&#xab;" horiz-adv-x="463" 
d="M157 249l-10 49l197 124l20 -92l-86 -56l110 -56l19 -89zM-19 249l-10 49l197 124l20 -92l-86 -56l110 -56l19 -89z" />
    <glyph glyph-name="logicalnot" unicode="&#xac;" horiz-adv-x="602" 
d="M454 134l-21 97h-470l-15 71h566l36 -168h-96z" />
    <glyph glyph-name="minus" unicode="&#xad;" horiz-adv-x="592" 
d="M-36 231l-4 19h552l4 -19h-552z" />
    <glyph glyph-name="minus" unicode="&#x2212;" horiz-adv-x="592" 
d="M-36 231l-4 19h552l4 -19h-552z" />
    <glyph glyph-name="registered" unicode="&#xae;" horiz-adv-x="543" 
d="M224 236q-108 0 -198 53q-105 61 -127 164q-5 22 -5 43q0 85 79 134q67 42 157 42q107 0 199 -54q105 -62 127 -164q4 -23 4 -44q0 -86 -78 -134q-66 -40 -158 -40zM286 549q-41 25 -71 32q-21 5 -66 5q-58 0 -101 -24q-53 -29 -53 -83q0 -74 73 -121q59 -37 137 -37
q59 0 102 24q53 29 53 84q0 74 -74 120zM309 448q19 -21 25 -49l19 -90h-99l-19 89q-1 7 -24 7h-50l20 -96h-98l-60 285h151q122 0 141 -92q3 -11 3 -20q0 -19 -9 -34zM192 508h-53l4 -17h48q29 0 27 10q-2 7 -26 7z" />
    <glyph glyph-name="macron" unicode="&#xaf;" horiz-adv-x="313" 
d="M-130 597l-4 19h320l4 -19h-320z" />
    <glyph glyph-name="macron" unicode="&#x2c9;" horiz-adv-x="313" 
d="M-130 597l-4 19h320l4 -19h-320z" />
    <glyph glyph-name="degree" unicode="&#xb0;" horiz-adv-x="420" 
d="M128 385q-71 0 -132 33q-70 39 -84 102q-2 13 -2 24q0 55 55 86q45 25 105 25q71 0 132 -33q71 -37 84 -101q3 -13 3 -25q0 -54 -56 -85q-46 -26 -105 -26zM87 577q-31 0 -55 -12q-31 -15 -25 -44t42 -45q29 -13 63 -13q32 0 55 12q32 16 25 45q-6 29 -41 44
q-29 13 -64 13z" />
    <glyph glyph-name="plusminus" unicode="&#xb1;" horiz-adv-x="630" 
d="M320 204l31 -148h-96l-31 148h-191l-18 84h191l-31 145h96l31 -145h192l18 -84h-192zM78 -3l-18 85h479l18 -85h-479z" />
    <glyph glyph-name="twosuperior" unicode="&#xb2;" horiz-adv-x="392" 
d="M-56 256q-6 28 -6 52q0 53 26 93q29 45 87 76q25 12 85 45q23 13 24 23q-7 32 -85 32q-38 0 -55 -10q-22 -13 -22 -46q0 -19 6 -46h-99q-7 33 -7 60q0 127 155 127q79 0 135 -27q72 -36 72 -107q0 -48 -68 -85l-78 -42q-56 -30 -73 -61h281l18 -84h-396z" />
    <glyph glyph-name="threesuperior" unicode="&#xb3;" horiz-adv-x="426" 
d="M164 252q-86 0 -149 32q-76 39 -92 115l-9 43h100l11 -50q11 -55 117 -55q34 0 61 8q41 11 36 38q-10 44 -103 44h-73l-18 85h74q84 0 77 34q-7 31 -96 31q-42 0 -60 -9q-26 -12 -26 -48q0 -17 5 -40h-99q-6 30 -6 54q0 128 167 128q67 0 122 -21q78 -30 92 -95
q3 -12 3 -23q0 -31 -21 -53q49 -32 61 -87q2 -13 2 -24q0 -57 -63 -86q-48 -21 -113 -21z" />
    <glyph glyph-name="acute" unicode="&#xb4;" horiz-adv-x="212" 
d="M-31 538q-12 -9 -32 -9q-17 0 -34 9q-20 10 -23 25q-3 14 11 25l97 75q13 10 32 10q18 0 36 -9.5t21 -25.5q4 -15 -11 -26z" />
    <glyph glyph-name="mu1" unicode="&#xb5;" 
d="M401 -1q2 -9 83 -9l19 -90q-155 0 -195 73q-14 -1 -29 -1q-93 0 -165 44l39 -187h-96l-140 659h96l58 -272q33 -157 189 -157q116 0 115 80q0 13 -3 28l-69 321h96l69 -322q5 -25 5 -47q1 -82 -72 -121v1z" />
    <glyph glyph-name="paragraph" unicode="&#xb6;" horiz-adv-x="496" 
d="M404 -133l-153 723h-11l153 -723h-96l-74 351q-89 5 -168 57q-103 67 -125 173q-6 25 -6 47q0 89 77 140q67 44 160 44q5 0 10 -1h157l172 -811h-96z" />
    <glyph glyph-name="periodcentered" unicode="&#xb7;" horiz-adv-x="209" 
d="M59 280q-48 0 -54 29l-6 29q-6 29 42 29t54 -29l6 -29q6 -29 -42 -29z" />
    <glyph glyph-name="periodcentered" unicode="&#x2219;" horiz-adv-x="209" 
d="M59 280q-48 0 -54 29l-6 29q-6 29 42 29t54 -29l6 -29q6 -29 -42 -29z" />
    <glyph glyph-name="cedilla" unicode="&#xb8;" horiz-adv-x="259" 
d="M181 -101q-39 2 -50 0l-2 -1q-5 -1 -39 -14l-11 50l-5 75h93l6 -37q114 -9 114 -86q0 -60 -127 -60q-42 0 -153 22l35 66q72 -16 100 -16q35 0 39 1z" />
    <glyph glyph-name="onesuperior" unicode="&#xb9;" horiz-adv-x="287" 
d="M91 260l-59 274l-55 -34h-182l242 153h71l84 -393h-101z" />
    <glyph glyph-name="ordmasculine" unicode="&#xba;" horiz-adv-x="413" 
d="M131 350q-81 0 -143 37q-70 42 -86 116q-4 17 -4 32q0 62 57 95q46 26 114 26q80 0 143 -37q71 -42 87 -116q4 -16 4 -31q0 -62 -58 -95q-47 -27 -114 -27zM166 558q-33 20 -83 20q-89 0 -89 -59q0 -8 2 -16q16 -75 119 -75q92 0 92 57q0 46 -41 73z" />
    <glyph glyph-name="guillemotright" unicode="&#xbb;" horiz-adv-x="458" 
d="M183 129l-19 89l85 56l-109 56l-20 92l251 -124l10 -49zM7 129l-19 89l85 56l-109 56l-20 92l251 -124l10 -49z" />
    <glyph glyph-name="onequarter" unicode="&#xbc;" horiz-adv-x="816" 
d="M676 123l26 -123h-95l-26 123h-293l133 305h109l-95 -220h128l-47 222l96 -5l46 -217h92l18 -85h-92zM245 0h-105l223 694h105zM119 236l-64 299l-57 -38h-171l230 158h69l89 -419h-96z" />
    <glyph glyph-name="onehalf" unicode="&#xbd;" horiz-adv-x="803" 
d="M400 0q-6 29 -6 56q0 114 106 174l78 44q37 21 35 34q-9 39 -89 39q-39 0 -57 -12q-21 -14 -21 -50q0 -20 6 -50h-94q-7 35 -7 63q0 134 151 134q177 0 204 -125q2 -9 2 -18q0 -49 -62 -84q-34 -19 -79 -47q-60 -37 -76 -73h282l18 -85h-391zM234 0h-105l224 694h105z
M108 236l-64 298l-56 -37h-172l230 158h69l89 -419h-96z" />
    <glyph glyph-name="threequarters" unicode="&#xbe;" horiz-adv-x="906" 
d="M767 123l26 -123h-95l-26 123h-293l134 305h109l-96 -220h128l-47 222l96 -5l46 -217h92l18 -85h-92zM336 0h-105l224 694h105zM180 229q-207 0 -240 155l-9 43h94l11 -51q7 -33 50 -50q32 -12 73 -12q37 0 64 9q40 14 34 44q-11 51 -108 51h-70l-18 85h71q87 0 79 38
t-100 38q-44 0 -62 -10q-26 -14 -26 -52q0 -18 5 -43h-94q-6 30 -6 56q0 133 164 133q76 0 130 -25q69 -32 83 -97q3 -12 3 -23q0 -34 -24 -58q55 -35 67 -93q3 -14 3 -26q0 -59 -61 -89q-47 -23 -113 -23z" />
    <glyph glyph-name="questiondown" unicode="&#xbf;" 
d="M160 451q-47 0 -56 44l-13 59q-1 6 -1 11q0 34 39 34q20 0 37 -12.5t21 -32.5l13 -59q1 -6 1 -10q0 -34 -41 -34zM266 -95q-98 0 -174 41q-88 48 -107 137q-3 16 -3 32q0 47 30 90l80 88q35 40 35 78q0 9 -1 17l-12 56h97l11 -52q4 -19 4 -38q0 -81 -78 -150
q-47 -42 -60 -65q-9 -16 -9 -35q0 -60 58 -89q46 -23 112 -23q74 0 105.5 30.5t31.5 103.5q0 21 -3 46l102 -52q13 -215 -219 -215z" />
    <glyph glyph-name="Agrave" unicode="&#xc0;" horiz-adv-x="676" 
d="M260 656q-20 0 -40 13l-138 114q-17 14 -21 31q-4 18 8.5 31.5t30.5 13.5q19 0 39 -16q33 -25 98 -75q55 -44 61 -73q4 -16 -9 -27.5t-29 -11.5zM604 0l-140 204h-334l-56 -204h-108l193 693h75l475 -693h-105zM226 549l-71 -256h248z" />
    <glyph glyph-name="Aacute" unicode="&#xc1;" horiz-adv-x="676" 
d="M176 672q-12 -15 -32 -15q-19 0 -37 13t-22 32q-4 17 7 31l90 112q13 16 33 16q19 0 36.5 -13.5t21.5 -31.5q3 -17 -8 -31zM604 0l-141 205h-334l-55 -205h-108l193 693h75l475 -693h-105zM226 549l-71 -256h248z" />
    <glyph glyph-name="Acircumflex" unicode="&#xc2;" horiz-adv-x="676" 
d="M268 652l-85 84l-51 -84h-114l112 195h59l197 -195h-118zM604 0l-140 204h-334l-56 -204h-108l193 692h75l475 -692h-105zM226 549l-71 -256h248z" />
    <glyph glyph-name="Atilde" unicode="&#xc3;" horiz-adv-x="676" 
d="M308 666q-10 -3 -34 -3q-26 0 -92 29q-50 22 -55 22q-9 0 -7 -25q0 -3 8 -54l-101 55q-3 17 -3 32q0 37 24.5 58.5t62.5 21.5q21 0 63 -17q22 -9 66 -28q9 -4 15 -5q9 0 8 23q0 6 -7 52l101 -49q1 -14 1 -27q0 -40 -17.5 -59.5t-32.5 -25.5zM604 0l-140 203h-334
l-56 -203h-108l193 690h75l475 -690h-105zM227 547l-72 -255h248z" />
    <glyph glyph-name="Adieresis" unicode="&#xc4;" horiz-adv-x="676" 
d="M258 658q-47 0 -56 45l-11 50q-1 6 -1 11q0 35 38 35q49 0 59 -46l11 -50q1 -5 1 -10q0 -35 -41 -35zM143 658q-48 0 -57 45l-11 50q-1 6 -1 11q0 35 39 35q48 0 58 -46l11 -50q1 -5 1 -10q0 -35 -40 -35zM604 0l-140 203h-334l-56 -203h-108l194 689h75l474 -689h-105z
M227 546l-72 -255h248z" />
    <glyph glyph-name="Aring" unicode="&#xc5;" horiz-adv-x="676" 
d="M236 672q-12 -4 -39 -4q-48 0 -86 28q-41 29 -51 74q-2 12 -2 22q0 38 30 60q27 21 65 21q49 0 89 -28.5t49 -74.5q3 -12 3 -22q0 -30 -20.5 -50.5t-37.5 -25.5zM604 0l-141 205h-334l-55 -205h-108l192 694h75l476 -694h-105zM173 782q-17 0 -15 -12q3 -12 20 -12
q19 0 16 12q-1 5 -6 8.5t-15 3.5zM226 550l-71 -256h248z" />
    <glyph glyph-name="AE" unicode="&#xc6;" horiz-adv-x="1077" 
d="M553 0l-66 309h-222l-237 -309h-126l522 678h496l18 -87h-414l42 -194h46v-1h315l18 -87h-361l48 -222h419l18 -87h-516zM334 397h135l-28 136z" />
    <glyph glyph-name="Ccedilla" unicode="&#xc7;" horiz-adv-x="719" 
d="M537 483q-57 61 -117.5 87t-144.5 26q-105 0 -170 -46q-73 -52 -73 -152q0 -32 8 -67q26 -124 117 -193.5t220 -69.5q77 0 126 24q54 27 90 90l92 -50q-90 -153 -289 -153q-169 0 -291 91q-126 94 -161 257q-9 47 -10 88q0 104 61 173q84 97 261 97q206 0 352 -152z
M411 -174q-42 0 -153 29l32 81q72 -21 99 -21q43 0 41 11q-4 -1 -25 1q-22 2 -69 -22l-13 63l-11 97h94l9 -51q99 -10 117 -92q2 -12 2 -23q0 -73 -123 -73z" />
    <glyph glyph-name="Egrave" unicode="&#xc8;" horiz-adv-x="564" 
d="M202 646q-20 0 -39 15q-33 25 -98 75q-55 43 -61 72q-3 16 10.5 28.5t30.5 12.5q19 0 38 -15q33 -25 98 -75q54 -43 60 -72q4 -17 -9 -29t-30 -12zM20 0l-147 692h561l19 -88h-466l42 -200h413l19 -88h-413l48 -227h471l19 -89h-566z" />
    <glyph glyph-name="Eacute" unicode="&#xc9;" horiz-adv-x="564" 
d="M121 661q-12 -15 -32 -15t-38 13t-22 32q-4 17 8 31l90 112q12 15 32 15q19 0 36.5 -13.5t21.5 -31.5q4 -17 -7 -31zM20 0l-147 692h561l19 -88h-466l42 -200h413l19 -88h-413l48 -227h471l19 -89h-566z" />
    <glyph glyph-name="Ecircumflex" unicode="&#xca;" horiz-adv-x="564" 
d="M207 662l-85 83l-51 -83h-114l112 195h58l199 -195h-119zM20 0l-147 693h561l19 -89h-466l42 -200h413l19 -88h-413l48 -227h471l19 -89h-566z" />
    <glyph glyph-name="Edieresis" unicode="&#xcb;" horiz-adv-x="564" 
d="M198 666q-48 0 -57 45l-11 50q-1 6 -1 11q0 35 39 35q48 0 58 -46l11 -50q1 -5 1 -10q0 -35 -40 -35zM82 666q-47 0 -56 45l-11 50q-1 6 -1 11q0 35 38 35q49 0 59 -46l11 -50q1 -5 1 -10q0 -35 -41 -35zM20 0l-146 689h561l18 -88h-466l43 -199h413l18 -87h-413l48 -227
h471l19 -88h-566z" />
    <glyph glyph-name="Igrave" unicode="&#xcc;" horiz-adv-x="134" 
d="M-16 661q-21 0 -40 15l-136 112q-17 14 -21 31q-4 18 8 32t31 14q20 0 40 -16l96 -75q56 -44 62 -72q4 -18 -9.5 -29.5t-30.5 -11.5zM20 0l-147 693h96l147 -693h-96z" />
    <glyph glyph-name="Iacute" unicode="&#xcd;" horiz-adv-x="134" 
d="M-97 672q-12 -15 -32 -15q-19 0 -37 13t-22 32q-4 16 7 30l89 113q13 16 33 16t38 -13t22 -32q3 -16 -9 -31zM20 0l-147 693h96l147 -693h-96z" />
    <glyph glyph-name="Icircumflex" unicode="&#xce;" horiz-adv-x="134" 
d="M-6 658l-86 84l-51 -84h-114l112 195h58l199 -195h-118zM20 0l-147 693h96l147 -693h-96z" />
    <glyph glyph-name="Idieresis" unicode="&#xcf;" horiz-adv-x="134" 
d="M-18 673q-47 0 -57 46l-10 50q-2 6 -2 11q0 34 39 34q47 0 57 -43l12 -52q5 -20 -6.5 -33t-32.5 -13zM-133 673q-50 0 -60 46l-10 50q-5 20 7 32.5t33 12.5q46 0 56 -43l12 -52q5 -20 -6 -33t-32 -13zM20 0l-147 690h96l147 -690h-96z" />
    <glyph glyph-name="Eth" unicode="&#xd0;" horiz-adv-x="680" 
d="M277 0h-257l-63 296h-38l-19 88h38l-62 294h295q171 0 283 -86q114 -89 149 -254q9 -44 9 -82q0 -133 -105 -200q-88 -56 -230 -56zM188 591h-198l44 -207h198l19 -88h-198l45 -209h164q253 0 253 184q0 31 -8 67q-54 253 -319 253z" />
    <glyph glyph-name="Ntilde" unicode="&#xd1;" horiz-adv-x="680" 
d="M302 660q-10 -3 -34 -3q-26 0 -92 29q-50 22 -54 22q-9 0 -8 -25q0 -3 8 -54l-100 55q-4 17 -4 32q0 36 24.5 58t61.5 22q29 0 74 -21q52 -25 71 -29q9 0 9 22q0 6 -8 50l100 -44q2 -15 2 -27q0 -41 -17.5 -61t-32.5 -26zM574 0l-572 535l114 -535h-96l-146 689h86
q111 -108 288 -270l283 -261l-112 531h96l146 -689h-87z" />
    <glyph glyph-name="Ograve" unicode="&#xd2;" horiz-adv-x="757" 
d="M297 659q-21 0 -39 15l-139 113q-18 15 -22 33q-4 19 9.5 30t32.5 11q21 0 39 -14q33 -25 97 -75q55 -44 61 -73q4 -17 -9 -28.5t-30 -11.5zM523 5q-40 -12 -143 -12q-174 0 -295 91q-126 94 -162 262q-10 47 -10 88q0 131 97 198q84 58 222 58q174 0 295 -87
q126 -91 161 -257q11 -48 11 -90q0 -101 -58 -167t-118 -84zM477 536q-61 45 -112 58q-34 8 -114 8q-105 0 -166 -41q-72 -48 -72 -146q0 -32 7 -69q27 -127 120 -196q90 -68 222 -68q106 0 167 43q71 50 71 150q0 33 -8 71q-26 123 -115 190z" />
    <glyph glyph-name="Oacute" unicode="&#xd3;" horiz-adv-x="757" 
d="M211 676q-12 -13 -31 -13t-36.5 13t-21.5 31q-4 16 8 31l89 113q12 15 33 15q18 0 36 -12t22 -29q7 -37 -99 -149zM523 5q-40 -12 -143 -12q-174 0 -295 91q-126 94 -162 262q-10 47 -10 88q0 131 97 198q84 58 222 58q174 0 295 -87q126 -91 161 -257q11 -48 11 -90
q0 -101 -58 -167t-118 -84zM477 536q-61 45 -112 58q-34 8 -114 8q-105 0 -166 -41q-72 -48 -72 -146q0 -32 7 -69q27 -127 120 -196q90 -68 222 -68q106 0 167 43q71 50 71 150q0 33 -8 71q-26 123 -115 190z" />
    <glyph glyph-name="Ocircumflex" unicode="&#xd4;" horiz-adv-x="757" 
d="M303 670l-86 83l-50 -83h-113l109 194h58l200 -194h-118zM523 5q-40 -12 -143 -12q-174 0 -295 91q-126 94 -162 262q-10 47 -10 88q0 131 97 198q84 58 222 58q174 0 295 -87q126 -91 161 -257q11 -48 11 -90q0 -101 -58 -167t-118 -84zM477 536q-61 45 -112 58
q-34 8 -114 8q-105 0 -166 -41q-72 -48 -72 -146q0 -32 7 -69q27 -127 120 -196q90 -68 222 -68q106 0 167 43q71 50 71 150q0 33 -8 71q-26 123 -115 190z" />
    <glyph glyph-name="Otilde" unicode="&#xd5;" horiz-adv-x="757" 
d="M338 681q-10 -3 -34 -3q-29 0 -74 21q-52 25 -72 29q-12 0 -8 -36q1 -7 5 -43l-97 56q-3 17 -3 32q0 36 24 58t61 22q24 0 92 -29q48 -21 53 -21q10 0 9 23q0 3 -7 52l102 -50q1 -11 1 -21q0 -44 -18.5 -64.5t-33.5 -25.5zM523 5q-40 -12 -143 -12q-174 0 -295 91
q-126 94 -161 261q-10 47 -10 88q0 130 96 197q84 58 223 58q174 0 294 -86q126 -91 162 -257q10 -48 10 -90q-1 -100 -58.5 -166t-117.5 -84zM478 534q-62 45 -112 57q-34 8 -114 8q-105 0 -167 -40q-72 -48 -72 -146q0 -31 8 -68q27 -127 118 -195t223 -68q105 0 167 43
q72 50 72 150q0 32 -8 70q-26 123 -115 189z" />
    <glyph glyph-name="Odieresis" unicode="&#xd6;" horiz-adv-x="757" 
d="M294 673q-48 0 -58 46l-10 50q-2 6 -2 11q0 34 40 34q46 0 56 -43l12 -52q5 -20 -6 -33t-32 -13zM178 673q-47 0 -57 46l-10 50q-2 6 -2 11q0 34 39 34q47 0 57 -43l12 -52q5 -20 -6.5 -33t-32.5 -13zM523 5q-40 -12 -143 -12q-174 0 -295 91q-126 94 -161 261
q-10 46 -10 87q0 130 97 197q84 58 222 58q173 0 294 -86q127 -91 162 -256q10 -48 10 -91q0 -100 -58 -165.5t-118 -83.5zM478 533q-61 45 -112 58q-34 8 -114 8q-105 0 -167 -40q-72 -48 -72 -146q0 -31 8 -68q27 -127 118 -195.5t223 -68.5q107 0 169 44q71 51 70 152
q-1 32 -8 68q-26 122 -115 188z" />
    <glyph glyph-name="multiply" unicode="&#xd7;" horiz-adv-x="490" 
d="M359 104l-156 95l-117 -94l-83 52l114 95l-153 93l62 53l155 -95l114 95l86 -53l-115 -94l157 -97z" />
    <glyph glyph-name="Oslash" unicode="&#xd8;" horiz-adv-x="757" 
d="M523 3q-39 -12 -142 -12q-68 0 -129 14l-11 -34h-105l23 68q-90 44 -151.5 123t-82.5 177q-10 45 -10 85q0 131 98 197q84 57 222 57q67 0 126 -13l12 39h104l-22 -71q191 -89 235 -294q10 -47 10 -88q0 -100 -58.5 -165.5t-118.5 -82.5zM429 554l-150 -467q39 -8 83 -8
q106 0 168 42q72 49 72 148q0 33 -8 70q-32 152 -165 215zM254 590q-105 0 -166 -40q-74 -47 -74 -144q0 -31 8 -67q24 -114 110 -185q23 -19 52 -34l150 464q-37 6 -80 6z" />
    <glyph glyph-name="Ugrave" unicode="&#xd9;" horiz-adv-x="664" 
d="M253 651q-18 0 -39 13l-140 115q-17 14 -20 31q-4 18 8 31.5t31 13.5q20 0 40 -16l136 -112q17 -14 21 -32t-7.5 -31t-29.5 -13zM333 -7q-312 0 -370 273l-90 426h96l90 -425q22 -100 88 -145q61 -40 168 -40q183 0 183 128q0 24 -6 53l-91 429h96l91 -428q9 -42 9 -77
q0 -194 -264 -194z" />
    <glyph glyph-name="Uacute" unicode="&#xda;" horiz-adv-x="664" 
d="M168 667q-14 -13 -32 -13q-20 0 -37.5 12.5t-21.5 31.5q-4 16 8 31l89 112q13 16 33 16q19 0 37 -13t22 -32q4 -16 -8 -31zM333 -7q-312 0 -370 273l-90 427h96l90 -426q22 -100 88 -145q61 -40 168 -40q184 0 183 129q0 24 -6 52l-91 430h96l91 -429q9 -42 9 -77
q0 -194 -264 -194z" />
    <glyph glyph-name="Ucircumflex" unicode="&#xdb;" horiz-adv-x="664" 
d="M259 660l-87 84l-50 -84h-114l111 195h59l199 -195h-118zM333 -7q-312 0 -370 273l-90 427h96l90 -426q22 -100 88 -145q61 -40 168 -40q184 0 183 129q0 24 -6 52l-91 430h96l91 -429q9 -42 9 -77q0 -194 -264 -194z" />
    <glyph glyph-name="Udieresis" unicode="&#xdc;" horiz-adv-x="664" 
d="M247 673q-48 0 -58 46l-10 50q-2 6 -2 11q0 34 40 34q48 0 58 -45l10 -50q1 -5 1 -10q0 -36 -39 -36zM131 673q-47 0 -57 46l-10 50q-2 6 -2 11q0 34 39 34q49 0 59 -45l10 -50q1 -5 1 -10q0 -36 -40 -36zM333 -7q-312 0 -369 272l-91 425h96l90 -424q40 -185 256 -185
q183 0 183 128q0 24 -6 53l-91 428h96l91 -427q9 -42 9 -77q0 -193 -264 -193z" />
    <glyph glyph-name="Yacute" unicode="&#xdd;" horiz-adv-x="657" 
d="M165 672q-12 -15 -32 -15q-19 0 -37 13t-22 32q-4 17 7 31l90 112q13 16 33 16q19 0 37 -13t22 -32q3 -17 -8 -31zM308 327l70 -327h-96l-70 327l-428 366h128l329 -281l213 281h126z" />
    <glyph glyph-name="Thorn" unicode="&#xde;" horiz-adv-x="425" 
d="M202 157h-118l33 -157h-96l-144 678h96l29 -138h119q172 0 213 -194q7 -33 7 -60q0 -129 -139 -129zM139 453h-118l44 -210h119q58 0 58 62q0 18 -5 41q-22 107 -98 107z" />
    <glyph glyph-name="germandbls" unicode="&#xdf;" horiz-adv-x="505" 
d="M181 -30l-18 88q91 0 137 16q78 26 78 98q0 18 -5 40q-33 153 -276 153l-18 88q91 0 109 2q80 11 80 55q0 7 -2 15q-11 52 -61 68q-28 9 -98 9q-100 0 -100 -70q0 -15 4 -33l107 -502h-96l-79 368h-36l-19 89h36q-15 83 -15 107q0 129 181 129q242 0 271 -162
q3 -18 3 -35q0 -59 -46 -89q126 -74 151 -192q6 -31 6 -58q0 -184 -294 -184z" />
    <glyph glyph-name="agrave" unicode="&#xe0;" horiz-adv-x="552" 
d="M172 486q-33 25 -98 75q-55 43 -61 71q-4 17 9.5 28.5t30.5 11.5q21 0 39 -14q34 -25 119 -93q34 -28 39 -52q4 -17 -8.5 -28t-30.5 -11q-20 0 -39 12zM441 -1l-10 48q-58 -58 -169 -58q-121 0 -210 72.5t-115 190.5q-7 35 -7 67q0 70 37 121q58 78 187 78q106 0 189 -57
l-12 55h96l110 -517h-96zM313 383q-39 32 -72 41q-21 6 -73 6q-65 0 -102.5 -34.5t-37.5 -96.5q0 -22 5 -47q18 -81 73 -128.5t137 -47.5q66 0 108 35t41 100q0 19 -5 41q-17 83 -74 131z" />
    <glyph glyph-name="aacute" unicode="&#xe1;" horiz-adv-x="552" 
d="M138 486q-15 -13 -32 -13q-19 0 -36.5 13t-21.5 31q-3 15 9 30l89 111q13 16 34 16q19 0 36 -13t21 -31q4 -17 -6 -32zM453 -1l-10 48q-58 -58 -169 -58q-121 0 -209.5 72t-114.5 191q-7 36 -7 68q0 70 36 120q58 78 187 78q106 0 189 -57l-12 55h96l110 -517h-96z
M325 383q-39 32 -72 41q-21 6 -73 6q-64 0 -102 -34t-38 -96q0 -22 5 -48q18 -81 73 -128.5t137 -47.5q66 0 108 35t41 100q0 19 -5 41q-17 83 -74 131z" />
    <glyph glyph-name="acircumflex" unicode="&#xe2;" horiz-adv-x="552" 
d="M228 483l-85 82l-51 -82h-114l112 191h58l199 -191h-119zM453 -1l-10 48q-58 -58 -169 -58q-121 0 -209.5 72t-114.5 191q-7 36 -7 68q0 70 36 120q58 78 187 78q106 0 189 -56l-12 54h96l110 -517h-96zM325 383q-39 32 -72 41q-21 6 -73 6q-64 0 -102 -34t-38 -96
q0 -22 5 -48q18 -80 73.5 -128t136.5 -48q66 0 108 35t41 100q0 19 -5 41q-17 83 -74 131z" />
    <glyph glyph-name="atilde" unicode="&#xe3;" horiz-adv-x="552" 
d="M295 518q-25 -27 -66 -27q-26 0 -92 28q-50 21 -54 21q-12 0 -8 -35q1 -7 5 -42l-97 54q-3 16 -3 30q0 36 24.5 58t61.5 22q25 0 91 -28q49 -21 53 -21q13 0 9 33q-2 13 -6 40l101 -48q1 -11 1 -20q0 -44 -20 -65zM453 -1l-10 48q-58 -58 -169 -58q-122 0 -210 71.5
t-113 190.5q-8 36 -8 67q0 70 37 120q57 77 187 77q106 0 188 -56l-11 54h96l109 -514h-96zM326 381q-39 32 -72 41q-22 6 -74 6q-64 0 -102 -34t-38 -96q0 -22 6 -47q17 -80 72 -127.5t137 -47.5q65 0 107 35t42 98q0 20 -4 42q-18 82 -74 130z" />
    <glyph glyph-name="adieresis" unicode="&#xe4;" horiz-adv-x="552" 
d="M232 485q-48 0 -58 46l-10 49q-4 19 7.5 31.5t30.5 12.5q48 0 58 -44l10 -49q4 -19 -7.5 -32.5t-30.5 -13.5zM116 485q-20 0 -36.5 13t-20.5 33l-10 49q-1 6 -1 11q0 33 38 33q19 0 36.5 -11.5t22.5 -32.5l10 -49q1 -5 1 -10q0 -36 -40 -36zM453 -1l-10 48
q-58 -58 -169 -58q-121 0 -209.5 71t-113.5 190q-8 36 -8 67q0 70 37 120q57 77 187 77q106 0 189 -56l-12 54h96l109 -513h-96zM326 380q-39 32 -72 41q-22 6 -74 6q-63 0 -101 -34t-38 -96q0 -22 5 -47q17 -80 72.5 -127t136.5 -47q66 0 107.5 34.5t41.5 98.5q0 19 -4 41
q-18 82 -74 130z" />
    <glyph glyph-name="aring" unicode="&#xe5;" horiz-adv-x="552" 
d="M164 498q-48 0 -88 28t-49 73q-3 12 -3 22q0 37 31 59q28 20 66 20q47 0 87 -28t50 -73q2 -11 2 -22q0 -36 -28.5 -57.5t-67.5 -21.5zM453 -1l-10 48q-58 -58 -169 -58q-122 0 -210 72.5t-114 191.5q-8 37 -8 69q0 70 37 120q57 78 186 78q106 0 190 -57l-12 55h96
l110 -519h-96zM140 611q-18 0 -15 -12q2 -12 20 -12t16 12q-1 5 -6.5 8.5t-14.5 3.5zM325 384q-39 33 -72 42q-22 6 -74 6q-64 0 -101.5 -34.5t-37.5 -96.5q0 -23 5 -48q17 -81 72.5 -128.5t137.5 -47.5q66 0 108 35.5t41 99.5q0 20 -5 41q-17 83 -74 131z" />
    <glyph glyph-name="ae" unicode="&#xe6;" horiz-adv-x="984" 
d="M459 206l27 32l4 -19q31 -145 208 -145q130 0 152 109h100q-15 -103 -72.5 -148.5t-163.5 -45.5q-108 0 -185 47l8 -37h-96l-10 46q-58 -56 -169 -56q-119 0 -208.5 69t-114.5 185q-7 34 -7 64q0 69 39 118q59 75 187 75q106 0 188 -54l-11 52h96l12 -56q62 58 167 58
q120 0 208 -61q94 -65 119 -178l11 -54zM628 415q-65 0 -108 -31q-49 -36 -44 -98q81 4 350 5q-24 60 -79 93q-51 31 -119 31zM316 369q-39 32 -71 40q-22 6 -74 6q-64 0 -101 -31q-40 -33 -40 -95q0 -21 5 -46q17 -78 73 -123.5t135 -45.5q66 0 107 32q44 36 44 99
q0 18 -5 38q-17 80 -73 126z" />
    <glyph glyph-name="ccedilla" unicode="&#xe7;" 
d="M280 -28q-124 0 -214 67q-94 69 -119 188q-8 36 -8 68q0 102 70 156q64 49 170 49q191 0 279 -177l-79 -42q-33 69 -70 98q-43 34 -114 34t-112 -32q-45 -35 -45 -103q0 -24 6 -51q17 -81 75 -124.5t141 -43.5q75 0 106.5 33t31.5 109l100 -37q-8 -192 -218 -192z
M335 -77l1 -1q-10 2 -26 3q-20 1 -68 -22l-14 62l-8 95h93l9 -49q98 -11 115 -91q2 -12 2 -22q0 -72 -123 -72q-41 0 -151 27l28 81q75 -21 101 -21q43 0 41 10z" />
    <glyph glyph-name="egrave" unicode="&#xe8;" 
d="M221 474q-20 0 -38 12l-141 112q-18 16 -21 32q-4 18 10 29.5t32 11.5q21 0 38 -13q33 -24 98 -74q55 -43 61 -72q4 -17 -8.5 -27.5t-30.5 -10.5zM41 214q46 -138 205 -138q130 0 151 113h99q-13 -108 -69 -154t-165 -46q-128 0 -214.5 69t-113.5 194q-7 33 -7 63
q0 73 42 127q59 76 186 76q121 0 211 -64q93 -68 118 -184l11 -55zM174 430q-68 0 -106 -31q-43 -34 -43 -98h348q-50 129 -199 129z" />
    <glyph glyph-name="eacute" unicode="&#xe9;" 
d="M230 601l-95 -113q-14 -13 -31 -13q-19 0 -36.5 12.5t-21.5 30.5q-4 16 8 31l90 110q12 15 32 15q16 0 34 -9q21 -16 25 -34q3 -13 -5 -30zM41 214q46 -138 205 -138q130 0 151 113h99q-13 -108 -69 -154t-165 -46q-128 0 -214.5 69t-113.5 194q-7 33 -7 63q0 73 42 127
q59 76 186 76q121 0 211 -64q93 -68 118 -184l11 -55zM174 430q-68 0 -106 -31q-43 -34 -43 -98h348q-50 129 -199 129z" />
    <glyph glyph-name="ecircumflex" unicode="&#xea;" 
d="M226 483l-85 82l-51 -82h-114l113 191h58l197 -191h-118zM41 214q46 -138 205 -138q130 0 151 113h99q-13 -108 -69 -154t-165 -46q-128 0 -214.5 69t-113.5 194q-7 33 -7 63q0 73 42 127q59 76 186 76q121 0 211 -64q93 -68 118 -184l11 -55zM174 430q-67 0 -106 -31
q-43 -33 -43 -97h348q-25 62 -78 95t-121 33z" />
    <glyph glyph-name="edieresis" unicode="&#xeb;" 
d="M218 485q-20 0 -36.5 13t-20.5 33l-10 49q-1 6 -1 11q0 33 38 33q19 0 36.5 -11.5t22.5 -32.5l10 -49q1 -5 1 -10q0 -36 -40 -36zM103 485q-48 0 -58 46l-10 49q-4 19 7.5 31.5t30.5 12.5q48 0 58 -44l10 -49q4 -19 -7.5 -32.5t-30.5 -13.5zM41 212q46 -136 205 -136
q130 0 151 112h99q-13 -107 -71 -154q-54 -45 -163 -45q-128 0 -214.5 68t-112.5 193q-7 33 -7 62q0 73 42 127q59 75 186 75q121 0 210 -64q94 -67 118 -182l12 -55zM174 427q-87 0 -125 -53q-23 -32 -24 -75h348q-24 62 -77 95t-122 33z" />
    <glyph glyph-name="igrave" unicode="&#xec;" horiz-adv-x="136" 
d="M26 474q-20 0 -40 13l-137 110q-17 14 -20 31q-4 19 8 32t31 13t38 -15q33 -24 98 -74q55 -43 61 -71q3 -16 -9.5 -27.5t-29.5 -11.5zM21 0l-108 507h96l108 -507h-96z" />
    <glyph glyph-name="iacute" unicode="&#xed;" horiz-adv-x="136" 
d="M-56 484q-12 -15 -32 -15q-19 0 -37 13t-22 32q-4 16 7 30l91 110q12 15 33 15q18 0 35.5 -13t21.5 -31q4 -17 -7 -31zM21 0l-108 507h96l108 -507h-96z" />
    <glyph glyph-name="icircumflex" unicode="&#xee;" horiz-adv-x="136" 
d="M27 484l-78 79l-46 -79h-113l106 190h59l189 -190h-117zM21 0l-108 507h96l108 -507h-96z" />
    <glyph glyph-name="idieresis" unicode="&#xef;" horiz-adv-x="136" 
d="M26 486q-47 0 -57 45l-10 49q-1 6 -1 11q0 33 38 33q19 0 36.5 -11.5t22.5 -32.5l10 -49q1 -5 1 -10q0 -35 -40 -35zM-89 486q-49 0 -59 45l-10 49q-1 5 -1 9q0 15 10.5 25t29.5 10q48 0 58 -44l10 -49q4 -20 -7 -32.5t-31 -12.5zM21 0l-107 503h96l107 -503h-96z" />
    <glyph glyph-name="eth" unicode="&#xf0;" horiz-adv-x="564" 
d="M441 -1l-10 48q-58 -58 -169 -58q-121 0 -210 72.5t-115 190.5q-7 36 -7 67q0 71 37 121q59 78 187 78q106 0 189 -56l-14 63h-332l-18 88h332l-14 65h96l144 -679h-96zM313 383q-39 33 -72 42q-22 6 -74 6q-64 0 -101.5 -34.5t-37.5 -96.5q0 -23 5 -48q17 -80 73 -128
t137 -48q66 0 108 35t41 100q0 19 -5 41q-17 83 -74 131z" />
    <glyph glyph-name="ntilde" unicode="&#xf1;" 
d="M263 494q-9 -3 -33 -3q-26 0 -92 28q-50 21 -55 21q-9 0 -8 -24q1 -2 8 -52l-100 53q-3 16 -3 29q0 36 25 58.5t61 22.5q25 0 91 -28q49 -21 54 -21q9 0 8 23q0 6 -6 50l100 -47q1 -14 1 -26q0 -39 -18 -59t-33 -25zM407 0l-68 322q-23 106 -155 106q-58 0 -93 -26
q-38 -29 -38 -84q0 -18 4 -38l60 -280h-96l-107 504h96l7 -33q54 44 148 44q96 0 168 -45q81 -49 100 -139l70 -331h-96z" />
    <glyph glyph-name="ograve" unicode="&#xf2;" horiz-adv-x="545" 
d="M192 486q-33 25 -98 75q-55 43 -61 71q-4 17 9.5 28.5t30.5 11.5q21 0 39 -14q34 -25 119 -93q34 -28 39 -52q4 -17 -8.5 -28t-30.5 -11q-20 0 -39 12zM379 -2q-29 -9 -105 -9q-125 0 -218 71.5t-119 192.5q-7 33 -7 63q0 74 44 128q61 74 190 74q125 0 218.5 -72
t118.5 -193q7 -34 7 -65q0 -73 -42.5 -124.5t-86.5 -65.5zM329 382q-40 33 -73 42q-22 6 -74 6q-69 0 -109 -31q-44 -34 -44 -100q0 -21 5 -46q18 -82 78 -129.5t145 -47.5q68 0 110.5 33.5t42.5 98.5q0 21 -5 45q-17 81 -76 129z" />
    <glyph glyph-name="oacute" unicode="&#xf3;" horiz-adv-x="545" 
d="M148 484q-12 -15 -32 -15q-19 0 -37 13t-22 32q-4 15 8 29l90 111q12 15 33 15q19 0 36.5 -13t21.5 -31q4 -17 -7 -31zM379 -2q-29 -9 -105 -9q-125 0 -218 71.5t-119 192.5q-7 33 -7 63q0 74 44 127q61 74 190 74q125 0 218.5 -71.5t118.5 -192.5q7 -34 7 -65
q0 -73 -42.5 -124.5t-86.5 -65.5zM329 382q-40 33 -73 42q-22 6 -74 6q-69 0 -109 -31q-44 -34 -44 -100q0 -21 5 -46q18 -82 78 -129.5t145 -47.5q68 0 110.5 33.5t42.5 98.5q0 21 -5 45q-17 81 -76 129z" />
    <glyph glyph-name="ocircumflex" unicode="&#xf4;" horiz-adv-x="545" 
d="M237 483l-85 82l-52 -82h-114l113 191h58l199 -191h-119zM379 -2q-29 -9 -105 -9q-125 0 -218 71.5t-119 192.5q-7 34 -7 65q0 73 44 126q61 74 190 74q125 0 218.5 -72t118.5 -193q7 -34 7 -65q0 -73 -42.5 -124.5t-86.5 -65.5zM329 382q-40 33 -73 42q-22 6 -74 6
q-69 0 -109 -31q-44 -34 -44 -100q0 -21 5 -46q18 -82 78 -129.5t145 -47.5q68 0 110.5 33.5t42.5 98.5q0 21 -5 45q-17 81 -76 129z" />
    <glyph glyph-name="otilde" unicode="&#xf5;" horiz-adv-x="545" 
d="M302 518q-17 -19 -32 -24q-9 -3 -33 -3q-27 0 -93 28q-46 19 -53 21q-13 0 -8 -34q2 -9 8 -43l-101 54q-4 18 -4 32q0 36 25.5 57t62.5 21q25 0 129 -44q10 -3 15 -5q8 0 9 12q1 11 -1 60l95 -48q5 -58 -19 -84zM379 -2q-29 -9 -105 -9q-124 0 -216 70q-95 72 -120 192
q-7 33 -7 63q0 74 43 127q62 74 191 74q124 0 217.5 -71.5t119.5 -192.5q7 -33 7 -63q0 -74 -43 -125t-87 -65zM330 380q-41 33 -74 42q-22 6 -74 6q-68 0 -109 -31q-44 -34 -44 -100q0 -21 6 -46q17 -81 77.5 -128t144.5 -47q68 0 109 31q45 35 45 100q0 21 -5 44
q-18 81 -76 129z" />
    <glyph glyph-name="odieresis" unicode="&#xf6;" horiz-adv-x="545" 
d="M228 485q-48 0 -58 46l-10 49q-4 19 7.5 31.5t30.5 12.5q48 0 58 -44l10 -49q4 -19 -7.5 -32.5t-30.5 -13.5zM112 485q-20 0 -36.5 13t-20.5 33l-10 49q-1 6 -1 11q0 33 38 33q19 0 36.5 -11.5t22.5 -32.5l10 -49q1 -5 1 -10q0 -36 -40 -36zM379 -2q-29 -9 -105 -9
q-125 0 -216 70q-95 71 -120 192q-7 33 -7 63q0 74 43 127q62 73 191 73q124 0 217.5 -71.5t119.5 -191.5q7 -33 7 -63q0 -74 -43 -125t-87 -65zM330 379q-40 33 -74 42q-22 6 -74 6q-68 0 -108 -31q-44 -34 -44 -100q0 -21 5 -45q17 -82 77 -128.5t145 -46.5q68 0 109 31
q45 35 45 101q-1 20 -5 43q-17 80 -76 128z" />
    <glyph glyph-name="divide" unicode="&#xf7;" horiz-adv-x="592" 
d="M240 264q-47 0 -56 41l-11 52q-1 5 -1 9q0 32 39 32q49 0 58 -41l11 -52q1 -5 1 -9q0 -32 -41 -32zM-29 199l-18 81h552l18 -81h-552zM280 74q-47 0 -56 42l-10 51q-2 5 -2 9q0 33 40 33q49 0 58 -42l10 -51q1 -5 1 -10q0 -32 -41 -32z" />
    <glyph glyph-name="oslash" unicode="&#xf8;" horiz-adv-x="545" 
d="M380 -6q-30 -9 -105 -9q-47 0 -89 10l-14 -42h-105l26 79q-124 71 -154 213q-7 33 -7 62q0 74 44 126q61 73 190 73q43 0 82 -8l17 51h104l-27 -87q130 -72 161 -217q7 -33 7 -62q0 -74 -43.5 -124.5t-86.5 -64.5zM314 382l-102 -307q22 -4 46 -4q68 0 109 31
q45 34 45 99q0 21 -5 44q-18 86 -93 137zM184 419q-68 0 -108 -30q-45 -34 -45 -99q0 -21 5 -45q17 -82 84 -131l100 303q-17 2 -36 2z" />
    <glyph glyph-name="ugrave" unicode="&#xf9;" 
d="M222 470q-20 0 -40 13l-137 111q-17 14 -21 31q-3 17 8.5 30.5t29.5 13.5q20 0 40 -15q33 -24 98 -74q55 -43 61 -71q3 -16 -9.5 -27.5t-29.5 -11.5zM407 -1l-7 35q-55 -45 -148 -45q-101 0 -173 48q-77 51 -97 147l-69 323h96l69 -322q23 -109 156 -109q130 0 129 108
q0 23 -6 50l-58 273h96l108 -508h-96z" />
    <glyph glyph-name="uacute" unicode="&#xfa;" 
d="M138 488q-12 -15 -32 -15q-19 0 -37 12.5t-22 31.5q-3 16 8 30l89 111q12 15 33 15q20 0 38 -13t22 -32q3 -17 -9 -31zM407 -1l-7 35q-55 -45 -148 -45q-101 0 -173 48q-77 51 -97 147l-69 323h96l69 -322q23 -109 156 -109q130 0 129 108q0 23 -6 50l-58 273h96
l108 -508h-96z" />
    <glyph glyph-name="ucircumflex" unicode="&#xfb;" 
d="M226 483l-85 82l-51 -82h-114l113 191h58l197 -191h-118zM407 -1l-7 35q-55 -45 -148 -45q-101 0 -173 48q-77 51 -97 147l-69 323h96l69 -322q23 -109 156 -109q130 0 129 108q0 23 -6 50l-58 273h96l108 -508h-96z" />
    <glyph glyph-name="udieresis" unicode="&#xfc;" 
d="M217 485q-20 0 -36.5 13t-20.5 33l-10 49q-1 6 -1 11q0 33 38 33q19 0 36.5 -11.5t22.5 -32.5l10 -49q1 -5 1 -10q0 -36 -40 -36zM102 485q-48 0 -58 46l-10 49q-4 19 7.5 31.5t30.5 12.5q48 0 58 -44l10 -49q4 -19 -7.5 -32.5t-30.5 -13.5zM407 -1l-7 34
q-55 -44 -148 -44q-100 0 -172 47q-78 51 -98 146l-68 321h96l68 -320q23 -107 156 -107q129 0 129 106q0 23 -5 50l-58 271h96l107 -504h-96z" />
    <glyph glyph-name="yacute" unicode="&#xfd;" horiz-adv-x="506" 
d="M221 601l-94 -117q-14 -12 -31 -12q-18 0 -37.5 13.5t-22.5 29.5q-4 15 10 32l89 112q12 15 32 15q16 0 34 -9q21 -16 25 -35q3 -13 -5 -29zM279 -179q-96 0 -166 36q-88 46 -123 176h94q22 -69 64 -97q39 -26 114 -26q140 0 141 91q0 9 -1 19q-55 -45 -147 -45
q-102 0 -174 49q-76 53 -97 150l-70 329h96l70 -328q23 -111 156 -111q129 0 129 109q0 23 -6 52l-59 278h96l99 -467q7 -31 7 -57q0 -158 -223 -158z" />
    <glyph glyph-name="thorn" unicode="&#xfe;" horiz-adv-x="564" 
d="M484 55q-56 -79 -186 -79q-105 0 -188 57l43 -201h-96l-180 846h96l47 -221q59 58 163 58q125 0 213.5 -72.5t114.5 -195.5q9 -39 9 -72q0 -71 -36 -120zM345 376q-38 34 -69 44q-21 6 -69 6q-66 0 -107 -34t-41 -98q0 -21 5 -45q39 -185 219 -185q65 0 102.5 33.5
t37.5 96.5q0 24 -6 52q-17 80 -72 130z" />
    <glyph glyph-name="ydieresis" unicode="&#xff;" horiz-adv-x="510" 
d="M210 483q-47 0 -56 46l-11 50q-1 6 -1 11q0 34 38 34q48 0 58 -43l12 -52q4 -20 -7.5 -33t-32.5 -13zM95 483q-48 0 -57 46l-11 50q-1 6 -1 11q0 34 39 34q47 0 57 -43l12 -52q4 -20 -7 -33t-32 -13zM279 -179q-96 0 -166 36q-88 46 -123 175h94q22 -69 64 -97
q39 -26 114 -26q140 0 141 91q0 9 -1 19q-54 -45 -146 -45q-103 0 -174 49q-77 52 -98 149l-69 328h96l69 -327q24 -111 157 -111q129 0 129 109q0 23 -6 52l-59 277h96l99 -465q6 -30 6 -56q0 -158 -223 -158z" />
    <glyph glyph-name="dotlessi" unicode="&#x131;" horiz-adv-x="136" 
d="M21 0l-104 488h96l104 -488h-96z" />
    <glyph glyph-name="OE" unicode="&#x152;" horiz-adv-x="1010" 
d="M473 -1q-40 -7 -88 -7q-170 0 -293 89q-128 93 -163 256q-9 45 -9 85q-1 101 59 168q83 93 259 93q34 0 69 -5h553l18 -87h-348q105 -77 147 -195h212l18 -87h-208q4 -27 4 -52q0 -102 -61 -170h350l18 -88h-537zM407 568l37 -172h136q-48 121 -173 172zM462 309l43 -202
q100 51 100 164q0 18 -3 38h-140zM307 593q-25 3 -51 3q-105 0 -167 -43q-71 -49 -71 -148q0 -32 7 -68q27 -126 121 -193q89 -65 220 -65q26 0 50 3z" />
    <glyph glyph-name="oe" unicode="&#x153;" horiz-adv-x="1052" 
d="M539 206q45 -132 204 -132q130 0 152 109h100q-15 -103 -72.5 -148.5t-163.5 -45.5q-162 0 -251 101q-58 -101 -210 -101q-123 0 -214 67q-95 69 -120 188q-7 32 -7 60q0 73 44 125q62 71 191 71q160 0 257 -107q57 107 206 107q120 0 208 -61q94 -65 119 -178l11 -54z
M673 415q-63 0 -103 -30q-45 -33 -47 -94h348q-24 60 -79 93q-51 31 -119 31zM356 369q-40 31 -73 40q-22 6 -74 6q-68 0 -108 -30q-46 -33 -46 -98q0 -20 5 -43q17 -80 79 -126q59 -44 142 -44q68 0 109 30q46 34 46 98q0 20 -5 42q-16 78 -75 125z" />
    <glyph glyph-name="Scaron" unicode="&#x160;" horiz-adv-x="642" 
d="M203 679h-59l-195 195h114l86 -84l50 84h118zM331 -7q-141 0 -238 51q-118 62 -144 188l-10 45h97l9 -42q33 -153 269 -153q183 0 183 89q0 50 -35 77q-23 19 -78 32q-31 8 -147 31l-96 19q-51 12 -94 31q-114 52 -135 151q-5 23 -5 43q0 145 255 145q302 0 360 -252h-94
q-30 109 -92 138q-52 25 -155 25q-175 0 -175 -81q0 -60 63 -88q41 -19 140 -35q193 -32 265 -69q96 -49 117 -151q4 -19 4 -37q0 -85 -95 -126q-71 -31 -169 -31z" />
    <glyph glyph-name="scaron" unicode="&#x161;" horiz-adv-x="486" 
d="M163 492h-58l-193 192h114l85 -82l51 82h119zM252 -13q-245 0 -295 233h98q17 -79 57.5 -111.5t121.5 -32.5q112 0 112 55q0 51 -97 71q-9 2 -102 15q-173 24 -199 145q-4 17 -4 33q0 64 60 97q48 27 118 27q237 0 283 -212h-99q-15 70 -51 96.5t-109 26.5q-36 0 -64 -11
q-37 -15 -37 -46q0 -49 91 -64q52 -9 110 -18q171 -27 196 -147q4 -17 4 -33q0 -68 -67 -100q-51 -24 -127 -24z" />
    <glyph glyph-name="Ydieresis" unicode="&#x178;" horiz-adv-x="663" 
d="M251 673q-47 0 -57 46l-10 50q-2 6 -2 11q0 34 39 34q47 0 57 -43l12 -52q5 -20 -6.5 -33t-32.5 -13zM136 673q-48 0 -58 46l-10 50q-2 6 -2 11q0 34 40 34q46 0 56 -43l12 -52q5 -20 -6 -33t-32 -13zM312 326l69 -326h-96l-69 326l-430 364h129l330 -280l212 280h126z
" />
    <glyph glyph-name="florin" unicode="&#x192;" horiz-adv-x="584" 
d="M495 578q-90 0 -134 -19q-66 -28 -74 -104h110l-5 -90h-110l-15 -339q-5 -115 -104 -161q-71 -33 -202 -33l2 88q202 0 207 109l14 336h-76l10 90h71l1 18q8 114 106 160q70 33 201 33z" />
    <glyph glyph-name="circumflex" unicode="&#x2c6;" horiz-adv-x="259" 
d="M83 540l-81 55l-59 -55h-121l135 134h54l198 -134h-126z" />
    <glyph glyph-name="caron" unicode="&#x2c7;" horiz-adv-x="136" 
d="M-27 549h-55l-191 135h122l80 -55l58 55h127z" />
    <glyph glyph-name="ring" unicode="&#x2da;" horiz-adv-x="136" 
d="M-57 569q-46 0 -85 19q-49 25 -49 66q0 31 38 48q29 13 65 13q45 0 84 -20q49 -24 49 -65q0 -31 -37 -48q-29 -13 -65 -13zM-73 646q-18 0 -17 -4q0 -4 18 -4q19 0 19 4q-1 4 -20 4z" />
    <glyph glyph-name="tilde" unicode="&#x2dc;" horiz-adv-x="366" 
d="M134 547q-29 0 -130 24q-8 1 -11 1q-12 0 -11 -12q1 -4 4 -27l-95 28q-2 8 -2 14q0 30 33 45q25 11 60 11q21 0 85 -15q47 -11 54 -11q13 0 13 11q1 2 -3 27l99 -26q-2 -42 -30 -56t-66 -14z" />
    <glyph glyph-name="mu" unicode="&#x3bc;" horiz-adv-x="584" 
 />
    <glyph glyph-name="endash" unicode="&#x2013;" horiz-adv-x="495" 
d="M-92 254l-4 20h569l4 -20h-569z" />
    <glyph glyph-name="emdash" unicode="&#x2014;" horiz-adv-x="894" 
d="M-92 254l-4 20h968l4 -20h-968z" />
    <glyph glyph-name="quoteleft" unicode="&#x2018;" horiz-adv-x="175" 
d="M3 526q-5 -25 -39 -25q-23 0 -41 12q-21 14 -16 35l20 103q5 26 40 26q22 0 41.5 -13t15.5 -34z" />
    <glyph glyph-name="quoteright" unicode="&#x2019;" horiz-adv-x="175" 
d="M4 527q-5 -26 -40 -26q-49 0 -57 34q-1 8 0 13l21 103q5 26 39 26q22 0 41.5 -13t15.5 -34z" />
    <glyph glyph-name="quotesinglbase" unicode="&#x201a;" horiz-adv-x="292" 
d="M168 -64q-5 -26 -51 -26q-39 0 -46 35q-2 6 0 13l20 102q5 26 40 26q21 0 41 -13t16 -34z" />
    <glyph glyph-name="quotedblleft" unicode="&#x201c;" horiz-adv-x="267" 
d="M108 526q-5 -25 -39 -25q-23 0 -41 12q-21 14 -16 35l20 103q5 26 40 26q22 0 41.5 -13t15.5 -34zM3 526q-5 -25 -39 -25q-23 0 -41 12q-21 14 -16 35l20 103q5 26 40 26q22 0 41.5 -13t15.5 -34z" />
    <glyph glyph-name="quotedblright" unicode="&#x201d;" horiz-adv-x="276" 
d="M109 527q-5 -26 -40 -26q-49 0 -57 34q-1 8 0 13l21 103q5 26 39 26q22 0 41.5 -13t15.5 -34zM4 527q-5 -26 -40 -26q-49 0 -57 34q-1 8 0 13l21 103q5 26 39 26q22 0 41.5 -13t15.5 -34z" />
    <glyph glyph-name="quotedblbase" unicode="&#x201e;" horiz-adv-x="351" 
d="M273 -64q-5 -26 -51 -26q-39 0 -46 35q-2 6 0 13l20 102q5 26 40 26q21 0 41 -13t16 -34zM168 -64q-5 -26 -51 -26q-39 0 -46 35q-2 6 0 13l20 102q5 26 40 26q21 0 41 -13t16 -34z" />
    <glyph glyph-name="dagger" unicode="&#x2020;" horiz-adv-x="345" 
d="M124 417l101 -474h-96l-101 474h-118l-18 88h118l-25 116h96l25 -116h118l18 -88h-118z" />
    <glyph glyph-name="daggerdbl" unicode="&#x2021;" horiz-adv-x="337" 
d="M211 34l19 -91h-96l-19 91h-118l-19 89h118l-63 294h-118l-18 88h118l-25 116h96l25 -116h117l18 -88h-117l63 -294h117l19 -89h-117z" />
    <glyph glyph-name="bullet" unicode="&#x2022;" horiz-adv-x="292" 
d="M68 250q-28 0 -61 7q-46 10 -50 28l-17 80q-3 18 40 28q30 7 56 7q28 0 61 -7q47 -10 50 -28l17 -80q4 -18 -40 -28q-30 -7 -56 -7z" />
    <glyph glyph-name="ellipsis" unicode="&#x2026;" horiz-adv-x="638" 
d="M524 -2q-48 0 -54 29l-6 29q-6 29 42 29t54 -29l6 -29q6 -29 -42 -29zM335 -2q-48 0 -54 29l-6 29q-6 29 42 29t54 -29l6 -29q6 -29 -42 -29zM146 -2q-48 0 -54 29l-6 29q-6 29 42 29t54 -29l6 -29q6 -29 -42 -29z" />
    <glyph glyph-name="perthousand" unicode="&#x2030;" horiz-adv-x="1012" 
d="M850 -19q-170 0 -211 191q-8 38 -8 68q0 127 138 127q172 0 213 -195q7 -33 7 -60q0 -131 -139 -131zM546 -19q-171 0 -212 191q-8 38 -8 68q0 127 139 127q171 0 212 -195q8 -34 8 -62q0 -129 -139 -129zM159 -2h-118l388 680h117zM114 275q-170 0 -211 190q-8 38 -8 68
q0 126 138 126q172 0 213 -194q7 -32 7 -59q0 -131 -139 -131zM787 279q-56 0 -56 -62q0 -20 5 -45q23 -104 97 -104q58 0 57 62q0 18 -5 42q-22 107 -98 107zM483 279q-57 0 -57 -63q0 -19 5 -44q23 -104 98 -104q57 0 57 62q0 18 -6 42q-22 107 -97 107zM50 572
q-55 0 -55 -62q0 -20 5 -45q22 -103 96 -103q58 0 58 62q0 18 -5 41q-23 107 -99 107z" />
    <glyph glyph-name="guilsinglleft" unicode="&#x2039;" horiz-adv-x="294" 
d="M-19 249l-10 49l197 124l20 -92l-86 -56l110 -56l19 -89z" />
    <glyph glyph-name="guilsinglright" unicode="&#x203a;" horiz-adv-x="294" 
d="M7 129l-19 89l85 56l-109 56l-20 92l251 -124l10 -49z" />
    <glyph glyph-name="sterling" unicode="&#x20ac;" horiz-adv-x="584" 
d="M359 -12q-118 0 -209 63.5t-123 174.5h-82l-4 87h66l-5 27h-60l2 87h39q-3 22 -3 43q0 75 43 127q61 74 190 74q125 0 252 -100l-59 -60q-91 73 -175 73q-68 0 -109 -32q-44 -35 -44 -101q0 -12 1 -24h303l-2 -87h-282l5 -27h275l4 -87h-259q23 -71 81.5 -111t134.5 -40
q84 0 145 71l84 -57q-84 -101 -209 -101z" />
    <glyph glyph-name="trademark" unicode="&#x2122;" horiz-adv-x="789" 
d="M600 347l-33 155l-65 -155h-67l-137 160q12 -57 35 -160h-100l-54 254h-43l54 -254h-100l-54 254h-148l-17 83h388l183 -213l91 213h97l71 -337h-101z" />
    <glyph glyph-name="glyph221" horiz-adv-x="354" 
 />
    <glyph glyph-name="glyph222" horiz-adv-x="354" 
 />
    <glyph glyph-name="glyph221" horiz-adv-x="354" 
 />
    <glyph glyph-name="glyph222" horiz-adv-x="354" 
 />
    <glyph glyph-name="ch333" horiz-adv-x="354" 
 />
    <glyph glyph-name="glyph223" horiz-adv-x="354" 
 />
    <glyph glyph-name="ch335" horiz-adv-x="292" 
 />
    <glyph glyph-name="ch334" horiz-adv-x="292" 
 />
    <glyph glyph-name="ch337" horiz-adv-x="292" 
 />
    <glyph glyph-name="ch336" horiz-adv-x="292" 
 />
    <glyph glyph-name="ch339" horiz-adv-x="292" 
 />
    <glyph glyph-name="ch338" horiz-adv-x="292" 
 />
    <glyph glyph-name="glyph224" horiz-adv-x="292" 
 />
    <glyph glyph-name="ch340" horiz-adv-x="292" 
 />
    <glyph glyph-name="ch343" horiz-adv-x="292" 
 />
    <glyph glyph-name="glyph225" horiz-adv-x="292" 
 />
    <glyph glyph-name="glyph226" horiz-adv-x="292" 
 />
    <glyph glyph-name="ch344" horiz-adv-x="292" 
 />
    <glyph glyph-name="ch347" horiz-adv-x="292" 
 />
    <glyph glyph-name="ch342" horiz-adv-x="292" 
 />
    <glyph glyph-name="ch263" horiz-adv-x="292" 
 />
    <glyph glyph-name="glyph103" horiz-adv-x="420" 
d="M423 417q-10 48 -36 68t-75 20q-30 0 -52 -10q-30 -13 -30 -40q0 -5 2 -16t2 -16q0 -55 -56 -86q-46 -26 -105 -26q-85 0 -144 42q-63 44 -81 125h96q11 -49 36.5 -69t75.5 -20q32 0 56 12q31 16 25 45q-2 13 -2 24q0 55 55 87q46 26 105 26q185 0 223 -170z" />
    <glyph glyph-name="glyph214" horiz-adv-x="350" 
d="M196 369l24 -113h-100l-24 113h-294l139 289h100q8 -10 9 -12q-2 -3 -9 -20l-84 -172h121l-44 205l101 -3l43 -202h93l18 -85h-93z" />
    <glyph glyph-name=".null" horiz-adv-x="0" 
 />
  </font>
</defs>
</svg>
