<?xml version="1.0" encoding="utf-8"?>
<!-- Generator: Adobe Illustrator 17.0.0, SVG Export Plug-In . SVG Version: 6.00 Build 0)  -->
<!DOCTYPE svg PUBLIC "-//W3C//DTD SVG 1.1//EN" "http://www.w3.org/Graphics/SVG/1.1/DTD/svg11.dtd">
<svg version="1.1" id="Layer_1" xmlns="http://www.w3.org/2000/svg" xmlns:xlink="http://www.w3.org/1999/xlink" x="0px" y="0px"
	 width="474.788px" height="262.996px" viewBox="0 0 474.788 262.996" enable-background="new 0 0 474.788 262.996"
	 xml:space="preserve">
<g>
	<path fill="#FFFFFF" d="M101.423,53.398c-16.33,2.281-15.369,15.129-15.369,15.129C102.504,67.807,101.423,53.398,101.423,53.398z"
		/>
	<path fill="#FFFFFF" d="M101.093,72.216c-15.189-6.415-20.952,5.108-20.952,5.108C94.633,85.14,101.093,72.216,101.093,72.216z"/>
	<path fill="#FFFFFF" d="M78.498,76.651c10.546-12.675,1.191-21.533,1.191-21.533C68.004,66.719,78.498,76.651,78.498,76.651z"/>
	<path fill="#FFFFFF" d="M92.065,82.034c-15.829-4.614-20.221,7.497-20.221,7.497C87.143,95.618,92.065,82.034,92.065,82.034z"/>
	<path fill="#FFFFFF" d="M70.135,89.053c9.009-13.81-1.308-21.526-1.308-21.526C58.562,80.401,70.135,89.053,70.135,89.053z"/>
	<path fill="#FFFFFF" d="M65.953,103.167c16.135,3.28,18.572-10.962,18.572-10.962C68.129,90.468,65.953,103.167,65.953,103.167z"/>
	<path fill="#FFFFFF" d="M64.186,102.999c6.419-15.187-5.102-20.954-5.102-20.954C51.263,96.535,64.186,102.999,64.186,102.999z"/>
	<path fill="#FFFFFF" d="M79.928,104.449c-16.486,0.257-17.112,13.125-17.112,13.125C79.23,118.881,79.928,104.449,79.928,104.449z"
		/>
	<path fill="#FFFFFF" d="M61.042,117.621c4.537-15.852-7.596-20.184-7.596-20.184C47.433,112.766,61.042,117.621,61.042,117.621z"/>
	<path fill="#FFFFFF" d="M61.11,132.313c16.438-0.946,15.16-15.339,15.16-15.339C59.974,119.479,61.11,132.313,61.11,132.313z"/>
	<path fill="#FFFFFF" d="M59.359,132.601c2.331-16.323-10.28-18.958-10.28-18.958C45.215,129.649,59.359,132.601,59.359,132.601z"/>
	<path fill="#FFFFFF" d="M73.983,128.842c-15.43,5.812-11.672,18.135-11.672,18.135C78.202,142.661,73.983,128.842,73.983,128.842z"
		/>
	<path fill="#FFFFFF" d="M60.657,147.62c-1.085-16.453-13.968-16.431-13.968-16.431C46.208,147.648,60.657,147.62,60.657,147.62z"/>
	<path fill="#FFFFFF" d="M73.556,141.986c-14.117,8.518-8.182,19.953-8.182,19.953C80.215,154.809,73.556,141.986,73.556,141.986z"
		/>
	<path fill="#FFFFFF" d="M63.863,162.873c-4.056-15.981-16.721-13.619-16.721-13.619C49.66,165.525,63.863,162.873,63.863,162.873z"
		/>
	<path fill="#FFFFFF" d="M75.989,155.032c-12.739,10.468-5.214,20.926-5.214,20.926C84.43,166.759,75.989,155.032,75.989,155.032z"
		/>
	<path fill="#FFFFFF" d="M69.415,176.259c-6.322-15.228-18.513-11.061-18.513-11.061C55.744,180.935,69.415,176.259,69.415,176.259z
		"/>
	<path fill="#FFFFFF" d="M79.467,188.825c11.577-11.709,0.991-21.543,0.991-21.543C70.03,180.053,79.467,188.825,79.467,188.825z"/>
	<path fill="#FFFFFF" d="M78.194,189.388c-9.197-13.685-20.329-7.199-20.329-7.199C65.711,196.665,78.194,189.388,78.194,189.388z"
		/>
	<path fill="#FFFFFF" d="M88.748,200.915c9.747-13.27-2.158-21.458-2.158-21.458C78.134,193.612,88.748,200.915,88.748,200.915z"/>
	<path fill="#FFFFFF" d="M87.57,201.658c-11.093-12.199-21.161-4.16-21.161-4.16C76.281,210.676,87.57,201.658,87.57,201.658z"/>
	<path fill="#FFFFFF" d="M99.648,210.619c8.236-13.579-3.899-20.433-3.899-20.433C88.829,204.506,99.648,210.619,99.648,210.619z"/>
	<path fill="#FFFFFF" d="M77.895,209.236c10.606,11.821,20.685,2.197,20.685,2.197C86.884,200.656,77.895,209.236,77.895,209.236z"
		/>
	<path fill="#FFFFFF" d="M112.647,218.31c5.552-14.88-7.65-19.343-7.65-19.343C100.876,214.327,112.647,218.31,112.647,218.31z"/>
	<path fill="#FFFFFF" d="M111.749,219.31c-13.504-8.4-20.731,1.709-20.731,1.709C103.647,230.649,111.749,219.31,111.749,219.31z"/>
	<path fill="#FFFFFF" d="M126.045,224.759c3.422-15.508-10.274-18.087-10.274-18.087
		C113.833,222.457,126.045,224.759,126.045,224.759z"/>
	<path fill="#FFFFFF" d="M125.295,225.874c-14.544-6.434-20.29,4.584-20.29,4.584C118.854,238.233,125.295,225.874,125.295,225.874z
		"/>
	<path fill="#FFFFFF" d="M126.544,211.778c0.514,15.895,12.935,16.291,12.935,16.291
		C140.474,212.219,126.544,211.778,126.544,211.778z"/>
	<path fill="#FFFFFF" d="M119.567,236.938c14.88,5.551,19.343-7.652,19.343-7.652C123.549,225.166,119.567,236.938,119.567,236.938z
		"/>
	<path fill="#FFFFFF" d="M387.866,68.527c0,0,0.961-12.848-15.369-15.129C372.497,53.398,371.417,67.807,387.866,68.527z"/>
	<path fill="#FFFFFF" d="M372.827,72.216c0,0,6.46,12.924,20.952,5.108C393.78,77.324,388.016,65.801,372.827,72.216z"/>
	<path fill="#FFFFFF" d="M394.232,55.118c0,0-9.355,8.858,1.191,21.533C395.422,76.651,405.916,66.719,394.232,55.118z"/>
	<path fill="#FFFFFF" d="M381.855,82.034c0,0,4.922,13.585,20.221,7.497C402.076,89.531,397.684,77.419,381.855,82.034z"/>
	<path fill="#FFFFFF" d="M405.094,67.526c0,0-10.317,7.717-1.308,21.526C403.785,89.053,415.358,80.401,405.094,67.526z"/>
	<path fill="#FFFFFF" d="M389.395,92.205c0,0,2.437,14.242,18.572,10.962C407.967,103.167,405.791,90.468,389.395,92.205z"/>
	<path fill="#FFFFFF" d="M409.735,102.999c0,0,12.922-6.464,5.102-20.954C414.837,82.045,403.316,87.811,409.735,102.999z"/>
	<path fill="#FFFFFF" d="M411.104,117.574c0,0-0.626-12.868-17.112-13.125C393.992,104.449,394.69,118.881,411.104,117.574z"/>
	<path fill="#FFFFFF" d="M412.879,117.621c0,0,13.609-4.856,7.596-20.184C420.474,97.437,408.341,101.77,412.879,117.621z"/>
	<path fill="#FFFFFF" d="M397.65,116.974c0,0-1.278,14.392,15.16,15.339C412.81,132.313,413.947,119.479,397.65,116.974z"/>
	<path fill="#FFFFFF" d="M414.561,132.601c0,0,14.144-2.952,10.28-18.958C424.842,113.643,412.231,116.279,414.561,132.601z"/>
	<path fill="#FFFFFF" d="M399.937,128.842c0,0-4.218,13.819,11.672,18.135C411.609,146.976,415.367,134.653,399.937,128.842z"/>
	<path fill="#FFFFFF" d="M413.263,147.62c0,0,14.449,0.027,13.968-16.431C427.231,131.189,414.348,131.168,413.263,147.62z"/>
	<path fill="#FFFFFF" d="M400.365,141.986c0,0-6.659,12.823,8.182,19.953C408.547,161.939,414.482,150.504,400.365,141.986z"/>
	<path fill="#FFFFFF" d="M410.057,162.873c0,0,14.203,2.652,16.721-13.619C426.778,149.253,414.113,146.891,410.057,162.873z"/>
	<path fill="#FFFFFF" d="M403.146,175.958c0,0,7.524-10.458-5.214-20.926C397.931,155.032,389.49,166.759,403.146,175.958z"/>
	<path fill="#FFFFFF" d="M404.505,176.259c0,0,13.671,4.676,18.513-11.061C423.018,165.198,410.827,161.031,404.505,176.259z"/>
	<path fill="#FFFFFF" d="M393.462,167.281c0,0-10.586,9.835,0.991,21.543C394.453,188.825,403.89,180.053,393.462,167.281z"/>
	<path fill="#FFFFFF" d="M395.726,189.388c0,0,12.483,7.277,20.329-7.199C416.056,182.189,404.924,175.703,395.726,189.388z"/>
	<path fill="#FFFFFF" d="M387.33,179.457c0,0-11.905,8.187-2.158,21.458C385.172,200.915,395.786,193.612,387.33,179.457z"/>
	<path fill="#FFFFFF" d="M386.35,201.658c0,0,11.289,9.018,21.161-4.16C407.511,197.497,397.443,189.459,386.35,201.658z"/>
	<path fill="#FFFFFF" d="M378.171,190.186c0,0-12.135,6.853-3.899,20.433C374.272,210.619,385.091,204.506,378.171,190.186z"/>
	<path fill="#FFFFFF" d="M375.34,211.433c0,0,10.079,9.625,20.685-2.197C396.025,209.236,387.036,200.656,375.34,211.433z"/>
	<path fill="#FFFFFF" d="M361.274,218.31c0,0,11.771-3.983,7.65-19.343C368.924,198.967,355.722,203.431,361.274,218.31z"/>
	<path fill="#FFFFFF" d="M362.171,219.31c0,0,8.102,11.339,20.731,1.709C382.902,221.019,375.675,210.91,362.171,219.31z"/>
	<path fill="#FFFFFF" d="M347.876,224.759c0,0,12.211-2.302,10.274-18.087C358.149,206.672,344.453,209.251,347.876,224.759z"/>
	<path fill="#FFFFFF" d="M348.625,225.874c0,0,6.441,12.359,20.29,4.584C368.915,230.458,363.169,219.44,348.625,225.874z"/>
	<path fill="#FFFFFF" d="M347.376,211.778c0,0-13.93,0.44-12.935,16.291C334.441,228.069,346.862,227.674,347.376,211.778z"/>
	<path fill="#FFFFFF" d="M335.01,229.286c0,0,4.463,13.203,19.343,7.652C354.353,236.938,350.371,225.166,335.01,229.286z"/>
	<polygon fill="#FFFFFF" points="148.351,77.775 148.351,76.744 137.944,76.744 137.944,92.668 148.553,92.668 148.553,91.637 
		139.088,91.637 139.088,85.02 147.185,85.02 147.185,84.033 139.088,84.033 139.088,77.775 	"/>
	<polygon fill="#FFFFFF" points="151.155,76.744 149.966,76.744 156.717,92.668 157.749,92.668 164.5,76.744 163.289,76.744 
		157.233,91.233 	"/>
	<polygon fill="#FFFFFF" points="177.352,77.775 177.352,76.744 166.944,76.744 166.944,92.668 177.553,92.668 177.553,91.637 
		168.088,91.637 168.088,85.02 176.185,85.02 176.185,84.033 168.088,84.033 168.088,77.775 	"/>
	<path fill="#FFFFFF" d="M190.966,84.841c0.329-0.434,0.583-0.923,0.763-1.469c0.18-0.546,0.269-1.11,0.269-1.693
		c0-0.598-0.116-1.192-0.348-1.783c-0.232-0.59-0.549-1.122-0.953-1.592c-0.404-0.471-0.89-0.849-1.458-1.133
		s-1.188-0.426-1.861-0.426h-6.639v15.925h1.144v-6.011h5.159l3.858,6.011h1.323l-3.97-6.19c0.553-0.09,1.062-0.276,1.525-0.561
		C190.241,85.633,190.637,85.274,190.966,84.841z M188.857,85.267c-0.418,0.225-0.882,0.336-1.391,0.336h-5.584v-7.828h5.428
		c0.493,0,0.953,0.109,1.379,0.325c0.426,0.217,0.8,0.505,1.122,0.864c0.321,0.359,0.575,0.773,0.762,1.245s0.281,0.961,0.281,1.469
		c0,0.493-0.079,0.976-0.236,1.447c-0.157,0.471-0.385,0.89-0.684,1.256C189.635,84.747,189.276,85.042,188.857,85.267z"/>
	<polygon fill="#FFFFFF" points="200.431,92.668 200.431,86.657 206.711,76.744 205.455,76.744 199.848,85.559 194.286,76.744 
		193.029,76.744 199.287,86.612 199.287,92.668 	"/>
	<path fill="#FFFFFF" d="M222.647,77.372c-0.95-0.418-2.052-0.628-3.308-0.628h-5.293v15.925h5.293c1.151,0,2.194-0.19,3.129-0.572
		c0.934-0.381,1.73-0.92,2.389-1.615c0.658-0.695,1.162-1.532,1.514-2.512c0.351-0.979,0.527-2.075,0.527-3.286
		c0-1.091-0.157-2.12-0.471-3.084s-0.785-1.806-1.413-2.523S223.596,77.79,222.647,77.372z M225.753,84.684
		c0,0.987-0.138,1.903-0.415,2.748c-0.277,0.845-0.684,1.582-1.222,2.209c-0.539,0.628-1.208,1.118-2.007,1.469
		c-0.8,0.351-1.724,0.527-2.77,0.527h-4.149V77.775h4.149c1.032,0,1.943,0.172,2.736,0.516c0.792,0.344,1.461,0.822,2.007,1.435
		c0.545,0.613,0.96,1.342,1.245,2.187C225.611,82.759,225.753,83.682,225.753,84.684z"/>
	<path fill="#FFFFFF" d="M234.658,76.744l-6.773,15.925h1.211l2.221-5.249h7.604l2.221,5.249h1.233L235.6,76.744H234.658z
		 M231.585,86.478l3.544-8.344l3.477,8.344H231.585z"/>
	<polygon fill="#FFFFFF" points="248.744,92.668 248.744,86.657 255.024,76.744 253.768,76.744 248.161,85.559 242.598,76.744 
		241.342,76.744 247.6,86.612 247.6,92.668 	"/>
	<polygon fill="#FFFFFF" points="262.358,76.744 262.358,92.668 273.012,92.668 273.012,91.637 263.501,91.637 263.501,76.744 	"/>
	<path fill="#FFFFFF" d="M274.312,76.744v8.007c0,1.017,0.108,2.004,0.325,2.96c0.217,0.957,0.583,1.813,1.1,2.568
		c0.516,0.755,1.2,1.361,2.052,1.817c0.853,0.456,1.907,0.684,3.163,0.684c1.226,0,2.261-0.217,3.106-0.65
		c0.845-0.434,1.528-1.021,2.052-1.761s0.901-1.596,1.133-2.568c0.231-0.972,0.348-1.988,0.348-3.05v-8.007h-1.144v8.007
		c0,0.852-0.087,1.697-0.258,2.535c-0.173,0.837-0.468,1.585-0.887,2.243c-0.418,0.658-0.983,1.189-1.693,1.592
		c-0.71,0.404-1.604,0.606-2.68,0.606c-1.062,0-1.944-0.198-2.646-0.595c-0.703-0.396-1.265-0.919-1.683-1.57
		c-0.419-0.65-0.714-1.394-0.886-2.232c-0.172-0.837-0.258-1.697-0.258-2.579v-8.007H274.312z"/>
	<polygon fill="#FFFFFF" points="292.413,76.744 291.538,76.744 291.538,92.668 292.681,92.668 292.681,78.897 303.671,92.668 
		304.726,92.668 304.726,76.766 303.582,76.766 303.582,90.762 	"/>
	<path fill="#FFFFFF" d="M310.669,79.929c0.539-0.658,1.196-1.192,1.975-1.604c0.777-0.411,1.674-0.617,2.691-0.617
		c0.463,0,0.934,0.053,1.413,0.157c0.479,0.104,0.938,0.273,1.379,0.504c0.441,0.232,0.853,0.535,1.233,0.909
		c0.382,0.374,0.707,0.837,0.976,1.391l0.942-0.539c-0.479-1.017-1.219-1.85-2.221-2.501c-1.002-0.65-2.213-0.976-3.633-0.976
		c-1.197,0-2.263,0.236-3.196,0.707c-0.935,0.471-1.724,1.081-2.366,1.828c-0.644,0.748-1.133,1.596-1.47,2.546
		c-0.336,0.95-0.505,1.903-0.505,2.859c0,1.017,0.184,2.015,0.55,2.995s0.879,1.854,1.536,2.624
		c0.658,0.771,1.439,1.395,2.345,1.873c0.904,0.479,1.902,0.718,2.994,0.718c0.612,0,1.237-0.079,1.873-0.236
		c0.635-0.157,1.236-0.393,1.805-0.707s1.08-0.703,1.537-1.166c0.456-0.463,0.818-0.995,1.088-1.593l-0.965-0.471
		c-0.27,0.538-0.605,1.006-1.01,1.402c-0.403,0.396-0.841,0.721-1.312,0.976s-0.957,0.441-1.458,0.561
		c-0.501,0.12-0.991,0.18-1.469,0.18c-0.897,0-1.735-0.194-2.513-0.583c-0.777-0.389-1.45-0.908-2.019-1.559
		s-1.017-1.402-1.346-2.254c-0.329-0.852-0.493-1.75-0.493-2.691c0-0.837,0.138-1.671,0.415-2.501
		C309.724,81.331,310.131,80.587,310.669,79.929z"/>
	<polygon fill="#FFFFFF" points="336.844,92.668 336.844,76.744 335.701,76.744 335.701,84.011 325.652,84.011 325.652,76.744 
		324.508,76.744 324.508,92.668 325.652,92.668 325.652,85.042 335.701,85.042 335.701,92.668 	"/>
	<path fill="#FFFFFF" d="M209.678,49.768c0.25-0.441,0.375-0.912,0.375-1.411c0-0.333-0.056-0.659-0.169-0.978
		s-0.272-0.603-0.478-0.853c-0.206-0.25-0.456-0.453-0.75-0.61c-0.294-0.156-0.622-0.235-0.985-0.235h-5.806v10.437h5.086
		c0.48,0,0.936-0.056,1.367-0.169s0.809-0.279,1.132-0.5c0.323-0.22,0.578-0.497,0.765-0.831c0.186-0.333,0.279-0.725,0.279-1.176
		c0-0.706-0.174-1.284-0.522-1.734c-0.348-0.451-0.821-0.765-1.418-0.941C209.053,50.542,209.428,50.209,209.678,49.768z
		 M204.276,47.74h2.455c0.254,0,0.473,0.093,0.654,0.279c0.182,0.187,0.272,0.451,0.272,0.794c0,0.373-0.103,0.647-0.309,0.823
		c-0.206,0.176-0.441,0.265-0.706,0.265h-2.367V47.74z M207.73,53.767c-0.206,0.206-0.466,0.309-0.779,0.309h-2.675v-2.278h2.778
		c0.284,0,0.52,0.113,0.706,0.338s0.279,0.5,0.279,0.823C208.039,53.291,207.936,53.561,207.73,53.767z"/>
	<path fill="#FFFFFF" d="M211.758,45.682v5.336c0,0.686,0.085,1.343,0.257,1.97c0.171,0.627,0.441,1.178,0.809,1.653
		c0.367,0.476,0.845,0.855,1.433,1.14s1.298,0.426,2.131,0.426c0.803,0,1.497-0.135,2.08-0.404c0.583-0.27,1.063-0.64,1.44-1.11
		c0.377-0.47,0.656-1.019,0.838-1.646c0.181-0.627,0.272-1.303,0.272-2.028v-5.336h-2.411v5.336c0,0.382-0.037,0.757-0.11,1.125
		c-0.074,0.367-0.198,0.693-0.375,0.978c-0.176,0.284-0.407,0.512-0.691,0.684s-0.632,0.257-1.043,0.257s-0.757-0.083-1.036-0.25
		s-0.507-0.392-0.684-0.676c-0.177-0.284-0.304-0.607-0.382-0.97c-0.079-0.362-0.118-0.745-0.118-1.146v-5.336H211.758z"/>
	<path fill="#FFFFFF" d="M226.634,54.06c-0.402,0-0.799-0.054-1.191-0.162c-0.392-0.107-0.745-0.23-1.058-0.367
		c-0.314-0.137-0.579-0.274-0.794-0.412s-0.348-0.23-0.397-0.279l-1.058,2.102c0.304,0.206,0.637,0.387,1,0.544
		c0.362,0.157,0.735,0.292,1.117,0.404c0.382,0.113,0.771,0.199,1.168,0.257c0.397,0.059,0.787,0.088,1.169,0.088
		c0.5,0,0.987-0.057,1.462-0.169c0.475-0.113,0.894-0.294,1.257-0.544c0.362-0.25,0.654-0.578,0.875-0.985
		c0.221-0.407,0.331-0.904,0.331-1.492c0-0.48-0.076-0.892-0.228-1.235c-0.152-0.343-0.37-0.634-0.654-0.875
		c-0.284-0.24-0.627-0.441-1.029-0.603s-0.853-0.311-1.353-0.448c-0.353-0.098-0.664-0.186-0.933-0.265
		c-0.27-0.079-0.495-0.164-0.676-0.257c-0.182-0.093-0.321-0.198-0.419-0.316c-0.098-0.118-0.147-0.265-0.147-0.441
		c0-0.284,0.11-0.5,0.331-0.647c0.221-0.147,0.537-0.221,0.948-0.221c0.313,0,0.627,0.044,0.941,0.132
		c0.313,0.088,0.603,0.191,0.867,0.309c0.265,0.117,0.485,0.23,0.661,0.338c0.177,0.108,0.284,0.182,0.324,0.22l1.043-1.999
		c-0.226-0.137-0.48-0.274-0.764-0.412c-0.285-0.137-0.586-0.259-0.904-0.367s-0.654-0.196-1.007-0.265
		c-0.353-0.068-0.715-0.103-1.088-0.103c-0.52,0-1.012,0.074-1.477,0.221c-0.466,0.147-0.875,0.365-1.228,0.654
		c-0.353,0.29-0.632,0.645-0.838,1.066c-0.206,0.421-0.309,0.907-0.309,1.455c0,0.392,0.056,0.735,0.169,1.029
		c0.113,0.294,0.287,0.554,0.522,0.779c0.235,0.226,0.529,0.424,0.882,0.595c0.353,0.172,0.77,0.331,1.25,0.478
		c0.362,0.108,0.696,0.206,1,0.294c0.304,0.088,0.568,0.184,0.794,0.287c0.225,0.103,0.402,0.218,0.529,0.345
		c0.127,0.127,0.191,0.29,0.191,0.485C227.913,53.801,227.486,54.06,226.634,54.06z"/>
	<rect x="231.925" y="45.682" fill="#FFFFFF" width="2.411" height="10.437"/>
	<polygon fill="#FFFFFF" points="238.217,45.682 236.335,45.682 236.335,56.119 238.746,56.119 238.746,50.151 243.553,56.119 
		245.493,56.119 245.493,45.682 243.083,45.682 243.083,51.811 	"/>
	<polygon fill="#FFFFFF" points="254.695,47.799 254.695,45.682 247.493,45.682 247.493,56.119 254.828,56.119 254.828,54.002 
		249.903,54.002 249.903,51.782 254.02,51.782 254.02,49.827 249.903,49.827 249.903,47.799 	"/>
	<path fill="#FFFFFF" d="M259.987,54.06c-0.402,0-0.799-0.054-1.19-0.162c-0.393-0.107-0.745-0.23-1.059-0.367
		s-0.578-0.274-0.794-0.412s-0.348-0.23-0.396-0.279l-1.059,2.102c0.304,0.206,0.637,0.387,0.999,0.544
		c0.363,0.157,0.735,0.292,1.117,0.404c0.383,0.113,0.772,0.199,1.169,0.257c0.397,0.059,0.786,0.088,1.169,0.088
		c0.5,0,0.987-0.057,1.462-0.169c0.476-0.113,0.895-0.294,1.257-0.544c0.363-0.25,0.654-0.578,0.875-0.985s0.331-0.904,0.331-1.492
		c0-0.48-0.076-0.892-0.229-1.235c-0.151-0.343-0.369-0.634-0.653-0.875c-0.285-0.24-0.628-0.441-1.029-0.603
		c-0.402-0.162-0.853-0.311-1.353-0.448c-0.353-0.098-0.664-0.186-0.934-0.265s-0.495-0.164-0.676-0.257
		c-0.182-0.093-0.321-0.198-0.419-0.316c-0.099-0.118-0.147-0.265-0.147-0.441c0-0.284,0.11-0.5,0.331-0.647
		s0.536-0.221,0.948-0.221c0.313,0,0.627,0.044,0.94,0.132c0.313,0.088,0.603,0.191,0.867,0.309c0.265,0.117,0.485,0.23,0.662,0.338
		c0.176,0.108,0.284,0.182,0.323,0.22l1.044-1.999c-0.226-0.137-0.48-0.274-0.765-0.412c-0.284-0.137-0.586-0.259-0.904-0.367
		s-0.654-0.196-1.007-0.265s-0.716-0.103-1.088-0.103c-0.52,0-1.012,0.074-1.478,0.221c-0.465,0.147-0.874,0.365-1.227,0.654
		c-0.354,0.29-0.633,0.645-0.838,1.066c-0.206,0.421-0.309,0.907-0.309,1.455c0,0.392,0.056,0.735,0.169,1.029
		c0.112,0.294,0.286,0.554,0.521,0.779c0.235,0.226,0.529,0.424,0.882,0.595c0.353,0.172,0.77,0.331,1.25,0.478
		c0.362,0.108,0.695,0.206,0.999,0.294c0.304,0.088,0.568,0.184,0.794,0.287s0.401,0.218,0.529,0.345
		c0.127,0.127,0.19,0.29,0.19,0.485C261.266,53.801,260.84,54.06,259.987,54.06z"/>
	<path fill="#FFFFFF" d="M269.042,54.06c-0.402,0-0.799-0.054-1.19-0.162c-0.393-0.107-0.745-0.23-1.059-0.367
		s-0.578-0.274-0.794-0.412s-0.348-0.23-0.396-0.279l-1.059,2.102c0.304,0.206,0.637,0.387,0.999,0.544
		c0.363,0.157,0.735,0.292,1.117,0.404c0.383,0.113,0.772,0.199,1.169,0.257c0.397,0.059,0.786,0.088,1.169,0.088
		c0.5,0,0.987-0.057,1.462-0.169c0.476-0.113,0.895-0.294,1.257-0.544c0.363-0.25,0.654-0.578,0.875-0.985s0.331-0.904,0.331-1.492
		c0-0.48-0.076-0.892-0.229-1.235c-0.151-0.343-0.369-0.634-0.653-0.875c-0.285-0.24-0.628-0.441-1.029-0.603
		c-0.402-0.162-0.853-0.311-1.353-0.448c-0.353-0.098-0.664-0.186-0.934-0.265s-0.495-0.164-0.676-0.257
		c-0.182-0.093-0.321-0.198-0.419-0.316c-0.099-0.118-0.147-0.265-0.147-0.441c0-0.284,0.11-0.5,0.331-0.647
		s0.536-0.221,0.948-0.221c0.313,0,0.627,0.044,0.94,0.132c0.313,0.088,0.603,0.191,0.867,0.309c0.265,0.117,0.485,0.23,0.662,0.338
		c0.176,0.108,0.284,0.182,0.323,0.22l1.044-1.999c-0.226-0.137-0.48-0.274-0.765-0.412c-0.284-0.137-0.586-0.259-0.904-0.367
		s-0.654-0.196-1.007-0.265s-0.716-0.103-1.088-0.103c-0.52,0-1.012,0.074-1.478,0.221c-0.465,0.147-0.874,0.365-1.227,0.654
		c-0.354,0.29-0.633,0.645-0.838,1.066c-0.206,0.421-0.309,0.907-0.309,1.455c0,0.392,0.056,0.735,0.169,1.029
		c0.112,0.294,0.286,0.554,0.521,0.779c0.235,0.226,0.529,0.424,0.882,0.595c0.353,0.172,0.77,0.331,1.25,0.478
		c0.362,0.108,0.695,0.206,0.999,0.294c0.304,0.088,0.568,0.184,0.794,0.287s0.401,0.218,0.529,0.345
		c0.127,0.127,0.19,0.29,0.19,0.485C270.32,53.801,269.895,54.06,269.042,54.06z"/>
	<path fill="#FFFFFF" d="M184.108,230.018c-1.429-0.553-2.059-1.029-2.059-1.997c0-0.707,0.538-1.552,1.952-1.552
		c0.938,0,1.629,0.308,1.967,0.491l0.369-1.091c-0.461-0.261-1.229-0.507-2.29-0.507c-2.013,0-3.35,1.198-3.35,2.812
		c0,1.46,1.045,2.336,2.735,2.936c1.398,0.537,1.951,1.091,1.951,2.059c0,1.045-0.799,1.767-2.167,1.767
		c-0.922,0-1.798-0.307-2.397-0.676l-0.338,1.122c0.553,0.368,1.644,0.66,2.643,0.66c2.443,0,3.626-1.383,3.626-2.98
		C186.751,231.539,185.86,230.694,184.108,230.018z"/>
	<rect x="188.534" y="228.451" fill="#FFFFFF" width="1.352" height="7.437"/>
	<path fill="#FFFFFF" d="M189.211,225.516c-0.492,0-0.845,0.369-0.845,0.846c0,0.461,0.338,0.829,0.814,0.829
		c0.538,0,0.876-0.368,0.86-0.829C190.04,225.885,189.717,225.516,189.211,225.516z"/>
	<path fill="#FFFFFF" d="M195.834,228.281c-1.229,0-2.09,0.692-2.458,1.398h-0.031l-0.077-1.229h-1.199
		c0.046,0.614,0.062,1.244,0.062,2.013v5.424h1.352v-4.472c0-0.23,0.031-0.461,0.092-0.63c0.23-0.753,0.922-1.383,1.813-1.383
		c1.275,0,1.721,0.999,1.721,2.197v4.287h1.352v-4.44C198.462,228.896,196.864,228.281,195.834,228.281z"/>
	<path fill="#FFFFFF" d="M204.118,229.373c0.737,0,1.245,0.169,1.567,0.354l0.307-1.045c-0.369-0.185-1.076-0.385-1.875-0.385
		c-2.428,0-3.995,1.66-3.995,3.949c0,2.274,1.459,3.795,3.703,3.795c0.999,0,1.782-0.245,2.136-0.43l-0.23-1.015
		c-0.384,0.169-0.891,0.369-1.66,0.369c-1.475,0-2.581-1.061-2.581-2.781C201.49,230.633,202.412,229.373,204.118,229.373z"/>
	<path fill="#FFFFFF" d="M210.404,228.281c-2.167,0-3.488,1.768-3.488,4.011s1.368,3.749,3.657,3.749
		c1.183,0,1.998-0.245,2.474-0.461l-0.23-0.968c-0.507,0.215-1.091,0.384-2.059,0.384c-1.352,0-2.52-0.753-2.551-2.581h5.225
		c0.015-0.139,0.046-0.354,0.046-0.63C213.477,230.418,212.832,228.281,210.404,228.281z M208.222,231.447
		c0.107-0.938,0.707-2.197,2.074-2.197c1.521,0,1.89,1.337,1.875,2.197H208.222z"/>
	<polygon fill="#FFFFFF" points="264.923,227.067 265.184,228.098 266.921,227.16 266.951,227.16 266.951,235.888 268.258,235.888 
		268.258,225.9 267.105,225.9 	"/>
	<path fill="#FFFFFF" d="M275.25,225.731c-2.044,0-3.411,1.659-3.411,3.549c0,1.706,1.152,3.058,2.95,3.058
		c0.999,0,1.798-0.399,2.351-1.075h0.047c-0.185,1.183-0.661,2.059-1.321,2.658c-0.569,0.538-1.307,0.86-2.09,0.968
		c-0.461,0.046-0.8,0.077-1.092,0.046v1.106c0.323,0.016,0.753,0,1.245-0.076c1.075-0.123,2.136-0.584,2.904-1.337
		c0.983-0.953,1.721-2.489,1.721-4.687C278.553,227.391,277.294,225.731,275.25,225.731z M277.063,230.264
		c-0.354,0.6-1.061,1.045-1.967,1.045c-1.168,0-1.921-0.876-1.921-2.12c0-1.414,0.814-2.428,1.967-2.428
		c1.414,0,2.044,1.306,2.044,3.012C277.186,229.987,277.139,230.141,277.063,230.264z"/>
	<path fill="#FFFFFF" d="M283.134,225.731c-2.044,0-3.411,1.659-3.411,3.549c0,1.706,1.152,3.058,2.95,3.058
		c0.999,0,1.798-0.399,2.351-1.075h0.047c-0.185,1.183-0.661,2.059-1.321,2.658c-0.569,0.538-1.307,0.86-2.09,0.968
		c-0.461,0.046-0.8,0.077-1.092,0.046v1.106c0.323,0.016,0.753,0,1.245-0.076c1.075-0.123,2.136-0.584,2.904-1.337
		c0.983-0.953,1.721-2.489,1.721-4.687C286.438,227.391,285.178,225.731,283.134,225.731z M284.948,230.264
		c-0.354,0.6-1.061,1.045-1.967,1.045c-1.168,0-1.921-0.876-1.921-2.12c0-1.414,0.814-2.428,1.967-2.428
		c1.414,0,2.044,1.306,2.044,3.012C285.071,229.987,285.024,230.141,284.948,230.264z"/>
	<path fill="#FFFFFF" d="M291.003,225.731c-2.028,0-3.473,1.844-3.473,5.193c0.031,3.304,1.353,5.132,3.304,5.132
		c2.213,0,3.473-1.875,3.473-5.271C294.306,227.605,293.108,225.731,291.003,225.731z M290.911,235.012
		c-1.229,0-2.028-1.475-2.028-4.071c0-2.72,0.86-4.164,2.044-4.164c1.398,0,2.028,1.613,2.028,4.071
		C292.955,233.398,292.294,235.012,290.911,235.012z"/>
	<path fill="#FFFFFF" d="M252.069,223.198c-0.159,0.172-0.43,0.184-0.603,0.025c-0.173-0.159-0.184-0.43-0.025-0.603l6.224-6.756
		l1.642-2.993l-3.138,1.615l-6.224,6.756c-0.159,0.172-0.43,0.184-0.603,0.025c-0.173-0.159-0.184-0.43-0.025-0.603l6.224-6.756
		l1.642-2.993l-3.138,1.615l-6.224,6.756c-0.159,0.172-0.43,0.184-0.603,0.025c-0.173-0.159-0.184-0.43-0.025-0.603l6.224-6.756
		l1.577-3.052l-2.842,1.888c-0.047,0.047-0.102,0.082-0.148,0.131l-6.713,7.287c-1.466,1.592-1.695,3.885-0.766,5.714l-4.24,4.398
		l-17.871-17.954c-4.047-3.313,4.78,15.295,10.046,20.829c0.98,1.03,1.854,1.849,2.637,2.505l-9.07,9.407
		c-3.784,3.848-0.259,4.947,0.702,4.806c1.458-0.213,7.659-7.122,11.89-12.037c1.05,0.346,1.741,0.213,2.196,0.02
		c2.086-0.885,4.354,1.836,6.366,4.275c2.013,2.44,4.485,6.857,6.553,7.146c0.962,0.135,4.481-0.986,0.673-4.811l-11.577-11.63
		c0.904-1.071,2.581-2.992,4.119-4.659c1.927,0.858,4.27,0.467,5.773-1.165l6.713-7.287c0.046-0.049,0.075-0.107,0.119-0.158
		l1.368-2.696l-2.632,1.532L252.069,223.198z"/>
	<rect x="107.368" y="103.441" fill="#FFFFFF" width="260.053" height="0.433"/>
	<rect x="107.368" y="65.668" fill="#FFFFFF" width="260.053" height="0.433"/>
	<rect x="201.413" y="43.284" fill="#FFFFFF" width="71.962" height="0.433"/>
	<rect x="201.413" y="202.018" fill="#FFFFFF" width="71.962" height="0.433"/>
	<path fill="#FFFFFF" d="M220.051,19.686c0.177,0,0.349-0.023,0.518-0.052l2.971,12.7h27.092l3.488-12.558
		c0.199,0.041,0.405,0.064,0.616,0.064c1.662,0,3.01-1.348,3.01-3.01c0-1.662-1.348-3.01-3.01-3.01c-1.662,0-3.01,1.348-3.01,3.01
		c0,1.064,0.555,1.994,1.388,2.529c-6.428,6.663-11.291,5.625-14.686-1.56c1.15-0.423,1.975-1.519,1.975-2.816
		c0-1.663-1.348-3.01-3.01-3.01s-3.01,1.348-3.01,3.01c0,1.231,0.741,2.286,1.799,2.752c-4.295,7.804-9.235,7.856-14.651,1.547
		c0.909-0.518,1.529-1.485,1.529-2.606c0-1.662-1.348-3.01-3.01-3.01c-1.662,0-3.01,1.348-3.01,3.01
		C217.041,18.338,218.389,19.686,220.051,19.686z"/>
	<rect x="223.643" y="33.36" fill="#FFFFFF" width="26.887" height="1.895"/>
	<polygon fill="#FFFFFF" points="137.475,144.365 139.158,144.365 139.158,133.213 150.673,133.213 150.673,131.762 
		139.158,131.762 139.158,122.457 152.718,122.457 152.718,120.94 137.475,120.94 	"/>
	<path fill="#FFFFFF" d="M173.801,144.365l-5.84-9.106c0.813-0.132,1.562-0.406,2.243-0.825c0.682-0.417,1.265-0.945,1.749-1.583
		c0.483-0.638,0.858-1.358,1.122-2.161c0.264-0.803,0.396-1.633,0.396-2.491c0-0.88-0.171-1.754-0.511-2.623
		c-0.341-0.869-0.809-1.65-1.402-2.343s-1.309-1.248-2.145-1.666c-0.836-0.417-1.749-0.627-2.739-0.627h-9.766v23.425h1.683v-8.843
		h7.588l5.675,8.843H173.801z M158.591,133.972v-11.514h7.984c0.726,0,1.402,0.16,2.029,0.479c0.627,0.319,1.177,0.742,1.65,1.271
		c0.473,0.528,0.846,1.138,1.122,1.831c0.275,0.693,0.413,1.414,0.413,2.161c0,0.726-0.116,1.435-0.347,2.128
		s-0.566,1.309-1.006,1.847c-0.44,0.539-0.968,0.974-1.583,1.304c-0.616,0.329-1.298,0.494-2.045,0.494H158.591z"/>
	<path fill="#FFFFFF" d="M192.408,121.814c-1.342-0.693-2.827-1.04-4.454-1.04c-1.562,0-3.014,0.325-4.355,0.974
		c-1.342,0.649-2.502,1.523-3.481,2.623c-0.979,1.1-1.749,2.365-2.31,3.794c-0.561,1.43-0.841,2.926-0.841,4.487
		c0,1.496,0.264,2.959,0.792,4.389s1.275,2.694,2.244,3.794c0.968,1.101,2.123,1.991,3.464,2.673
		c1.341,0.682,2.826,1.022,4.454,1.022c1.562,0,3.007-0.324,4.338-0.974c1.331-0.648,2.485-1.518,3.464-2.606
		c0.979-1.089,1.749-2.348,2.31-3.777s0.841-2.937,0.841-4.521c0-1.452-0.264-2.887-0.792-4.305
		c-0.528-1.419-1.27-2.689-2.227-3.811C194.9,123.414,193.75,122.507,192.408,121.814z M197.193,132.652
		c0,1.276-0.22,2.529-0.66,3.762c-0.44,1.231-1.067,2.337-1.881,3.315c-0.814,0.979-1.787,1.766-2.92,2.359
		c-1.133,0.594-2.403,0.891-3.811,0.891c-1.364,0-2.612-0.285-3.745-0.857s-2.111-1.337-2.936-2.293
		c-0.825-0.957-1.463-2.057-1.914-3.3c-0.451-1.242-0.677-2.535-0.677-3.877c0-1.275,0.22-2.529,0.66-3.761
		c0.439-1.232,1.061-2.337,1.864-3.316c0.802-0.979,1.776-1.765,2.92-2.359c1.143-0.594,2.419-0.891,3.827-0.891
		c1.341,0,2.579,0.286,3.711,0.858c1.133,0.572,2.112,1.336,2.937,2.293s1.468,2.057,1.93,3.299
		C196.962,130.019,197.193,131.311,197.193,132.652z"/>
	<polygon fill="#FFFFFF" points="215.009,137.7 205.243,120.94 203.56,120.94 203.56,144.365 205.243,144.365 205.243,124.107 
		214.481,139.911 215.537,139.911 224.775,124.107 224.775,144.365 226.457,144.365 226.457,120.94 224.775,120.94 	"/>
	<path fill="#FFFFFF" d="M245.098,125.526c-0.045,0.066-0.248,0.27-0.61,0.61c-0.363,0.341-0.809,0.699-1.337,1.072
		c-0.527,0.375-1.1,0.709-1.716,1.006c-0.615,0.297-1.198,0.446-1.748,0.446v1.649c0.439,0,0.935-0.093,1.484-0.28
		s1.083-0.418,1.601-0.693c0.517-0.275,0.99-0.566,1.419-0.875c0.429-0.308,0.73-0.594,0.907-0.858v15.243h-4.686v1.518h10.559
		v-1.518h-4.19v-17.322H245.098z"/>
	<path fill="#FFFFFF" d="M267.731,127.522c-0.727-0.891-1.59-1.589-2.591-2.095s-2.095-0.759-3.282-0.759s-2.282,0.253-3.283,0.759
		s-1.869,1.204-2.606,2.095c-0.737,0.891-1.309,1.947-1.716,3.167s-0.61,2.557-0.61,4.009c0,1.451,0.203,2.788,0.61,4.009
		s0.979,2.276,1.716,3.167s1.605,1.584,2.606,2.079c1.001,0.494,2.096,0.742,3.283,0.742s2.281-0.248,3.282-0.742
		c1.001-0.495,1.864-1.188,2.591-2.079c0.726-0.891,1.297-1.946,1.715-3.167s0.627-2.558,0.627-4.009
		c0-1.452-0.209-2.788-0.627-4.009S268.456,128.413,267.731,127.522z M267.911,138.13c-0.318,1.034-0.764,1.925-1.336,2.672
		c-0.572,0.748-1.26,1.325-2.062,1.732c-0.804,0.407-1.688,0.61-2.656,0.61c-0.969,0-1.859-0.203-2.673-0.61
		s-1.507-0.984-2.078-1.732c-0.572-0.747-1.018-1.638-1.337-2.672c-0.318-1.034-0.478-2.178-0.478-3.432s0.159-2.403,0.478-3.448
		c0.319-1.044,0.765-1.936,1.337-2.672c0.571-0.737,1.265-1.314,2.078-1.732c0.813-0.417,1.704-0.627,2.673-0.627
		c0.968,0,1.853,0.209,2.656,0.627c0.802,0.418,1.489,0.996,2.062,1.732s1.018,1.628,1.336,2.672
		c0.319,1.044,0.479,2.194,0.479,3.448S268.231,137.096,267.911,138.13z"/>
	<path fill="#FFFFFF" d="M298.265,123.233c-0.605-0.693-1.325-1.248-2.161-1.666c-0.836-0.417-1.748-0.627-2.738-0.627h-9.634
		v23.425h1.683v-8.843h8.183c0.989,0,1.886-0.203,2.688-0.61c0.803-0.406,1.495-0.951,2.079-1.633
		c0.582-0.682,1.033-1.462,1.353-2.342c0.318-0.879,0.479-1.792,0.479-2.738c0-0.88-0.171-1.754-0.512-2.623
		C299.342,124.707,298.869,123.926,298.265,123.233z M298.133,130.359c-0.23,0.693-0.561,1.309-0.99,1.848
		c-0.429,0.539-0.951,0.968-1.566,1.287c-0.616,0.318-1.31,0.478-2.079,0.478h-8.083v-11.514h7.886c0.703,0,1.369,0.154,1.996,0.462
		c0.626,0.309,1.176,0.726,1.649,1.254c0.473,0.528,0.847,1.138,1.121,1.831c0.275,0.693,0.413,1.424,0.413,2.194
		C298.48,128.946,298.364,129.666,298.133,130.359z"/>
	<rect x="300.822" y="141.56" fill="#FFFFFF" width="1.452" height="2.805"/>
	<polygon fill="#FFFFFF" points="319.068,137.7 309.302,120.94 307.619,120.94 307.619,144.365 309.302,144.365 309.302,124.107 
		318.54,139.911 319.596,139.911 328.834,124.107 328.834,144.365 330.517,144.365 330.517,120.94 328.834,120.94 	"/>
	<rect x="335.861" y="141.56" fill="#FFFFFF" width="1.452" height="2.805"/>
	<polygon fill="#FFFFFF" points="185.991,160.532 167.152,160.532 167.152,162.05 175.73,162.05 175.73,183.957 177.413,183.957 
		177.413,162.05 185.991,162.05 	"/>
	<path fill="#FFFFFF" d="M198.034,184.122c1.562,0,3.007-0.324,4.338-0.974c1.331-0.648,2.485-1.518,3.464-2.606
		c0.979-1.089,1.749-2.348,2.31-3.777s0.841-2.937,0.841-4.521c0-1.451-0.264-2.887-0.792-4.306
		c-0.528-1.418-1.27-2.688-2.227-3.811c-0.957-1.122-2.106-2.029-3.448-2.722c-1.342-0.693-2.827-1.039-4.454-1.039
		c-1.562,0-3.014,0.324-4.355,0.973c-1.342,0.649-2.502,1.523-3.481,2.623c-0.979,1.101-1.749,2.365-2.31,3.794
		c-0.561,1.431-0.841,2.926-0.841,4.487c0,1.496,0.264,2.959,0.792,4.389s1.275,2.694,2.244,3.794
		c0.968,1.101,2.123,1.991,3.464,2.673C194.921,183.781,196.406,184.122,198.034,184.122z M191.353,179.421
		c-0.825-0.957-1.463-2.057-1.914-3.3c-0.451-1.242-0.677-2.535-0.677-3.877c0-1.275,0.22-2.529,0.66-3.761
		c0.439-1.231,1.061-2.337,1.864-3.316c0.802-0.979,1.776-1.765,2.92-2.358c1.143-0.594,2.419-0.891,3.827-0.891
		c1.341,0,2.579,0.285,3.711,0.857s2.112,1.336,2.937,2.293s1.468,2.057,1.93,3.3c0.462,1.242,0.693,2.535,0.693,3.876
		c0,1.276-0.22,2.53-0.66,3.762c-0.44,1.231-1.067,2.337-1.881,3.315c-0.814,0.979-1.787,1.766-2.92,2.359
		c-1.133,0.594-2.403,0.891-3.811,0.891c-1.364,0-2.612-0.285-3.745-0.857S192.177,180.377,191.353,179.421z"/>
	<path fill="#FFFFFF" d="M224.049,178.909c0.407-0.55,0.945-1.066,1.617-1.551c0.67-0.483,1.522-0.935,2.557-1.353
		c0.594-0.22,1.237-0.495,1.93-0.825s1.347-0.726,1.963-1.188c0.615-0.462,1.127-1.018,1.534-1.666
		c0.406-0.648,0.61-1.424,0.61-2.326c0-0.704-0.138-1.369-0.413-1.996s-0.676-1.183-1.204-1.666s-1.171-0.863-1.93-1.139
		c-0.759-0.274-1.623-0.412-2.59-0.412c-0.88,0-1.678,0.11-2.392,0.33c-0.715,0.22-1.358,0.483-1.93,0.792
		c-0.572,0.308-1.072,0.648-1.501,1.022c-0.429,0.374-0.775,0.704-1.039,0.989l1.122,1.155c0.154-0.198,0.385-0.45,0.693-0.759
		c0.308-0.308,0.688-0.61,1.138-0.907s0.979-0.556,1.584-0.775c0.604-0.22,1.303-0.33,2.095-0.33c0.77,0,1.44,0.11,2.012,0.33
		c0.572,0.22,1.05,0.506,1.436,0.857c0.384,0.353,0.676,0.754,0.874,1.204c0.198,0.451,0.297,0.907,0.297,1.369
		c0,0.727-0.214,1.358-0.643,1.897c-0.429,0.539-0.952,1.012-1.567,1.419s-1.27,0.765-1.963,1.072
		c-0.693,0.309-1.303,0.594-1.831,0.857c-1.254,0.616-2.244,1.293-2.97,2.029c-0.726,0.737-1.281,1.484-1.666,2.243
		c-0.385,0.76-0.632,1.519-0.742,2.277c-0.11,0.759-0.165,1.457-0.165,2.095h13.659v-1.518h-11.778
		c0.044-0.615,0.154-1.221,0.33-1.814C223.35,180.031,223.641,179.459,224.049,178.909z"/>
	<path fill="#FFFFFF" d="M246.402,183.957l3.266-7.721h11.185l3.267,7.721h1.814l-9.964-23.425h-1.386l-9.964,23.425H246.402z
		 M255.277,162.577l5.113,12.273h-10.326L255.277,162.577z"/>
	<rect x="268.737" y="181.152" fill="#FFFFFF" width="1.452" height="2.805"/>
	<polygon fill="#FFFFFF" points="286.983,177.292 277.217,160.532 275.534,160.532 275.534,183.957 277.217,183.957 
		277.217,163.699 286.455,179.503 287.511,179.503 296.749,163.699 296.749,183.957 298.432,183.957 298.432,160.532 
		296.749,160.532 	"/>
	<rect x="303.776" y="181.152" fill="#FFFFFF" width="1.452" height="2.805"/>
</g>
</svg>
