<svg xmlns="http://www.w3.org/2000/svg" viewBox="0 0 38.7 48.9"><path fill="#003057" d="M13.7 38.9h13.7v2.5h-13.7v-2.5zM5 20.1h6.2v-5h-6.2v5zm1.2-3.8h3.8v2.5h-3.8v-2.5zM5 27.6h6.2v-5h-6.2v5zm1.2-3.8h3.8v2.5h-3.8v-2.5zM5 35.1h6.2v-5h-6.2v5zm1.2-3.8h3.8v2.5h-3.8v-2.5zM5 42.6h6.2v-5h-6.2v5zm1.2-3.7h3.8v2.5h-3.8v-2.5zM38.7 28.5c0-3.8-1.7-6.9-5-8.5v-15l-.5.4.5-.4h-10v-1.2h-5c.2-.4.6-.5.6-1 0-1.5-1.2-2.7-2.8-2.7s-2.8 1.2-2.8 2.7c0 .5-.3.6-.1 1h-3.6v1.2h-10v43.800000000000004h33.7v-11.2c3.3-1.5 5-5.3 5-9.1zm-22.1-27.1c.7 0 1.4.6 1.4 1.3 0 .8-.6 1.4-1.4 1.4-.8 0-1.4-.6-1.4-1.4 0-.7.6-1.3 1.4-1.3zm14.6 45h-28.7v-38.9h7.5v3.8h13.7v-3.8h7.5l-.8 11.6c-.5-.1-.9-.1-1.4-.1-3.3 0-6 2.3-7.8 4.8h-7.5v2.5h6.3c-.3.9-.6 1.2-.6 2.2 0 .9.1 1.9.4 2.7l-6 .1v2.5l7.3.1c1.7 2.5 4.6 4.1 7.9 4.1l2.2-.4v8.8zm1.9-10.8c-.8.5-1.8.8-2.8 1-.4.1-.9.1-1.4.1-2.5 0-4.7-1.1-6.2-2.7l-.3-.3c-.1-.1-.2-.2-.2-.3-.5-.6-.9-1.3-1.1-2.1-.3-.9-.5-1.8-.5-2.7 0-1 .2-1.9.5-2.7.2-.5.4-1 .7-1.4l.2-.3.2-.3c.1-.1.2-.2.2-.3l.3-.3c1.5-1.7 3.7-2.7 6.2-2.7.5 0 .9 0 1.4.1 1 .2 1.9.5 2.8 1 2.5 1.4 4.2 4 4.2 7.1 0 2.7-1.7 5.4-4.2 6.8zM13.8 14.9h13.8v2.7h-13.8v-2.7zM33.1 24.8c-.3 0-.5.1-.7.3l-4.8 4.7-.6-.6-1.4-1.3c-.2-.2-.5-.3-.7-.3-.6 0-1 .5-1 1 0 .3.1.5.3.7l2.8 2.7c.2.2.5.3.7.3.3 0 .5-.1.7-.3l2.7-2.7 1.4-1.3 1.4-1.3c.2-.2.3-.4.3-.7 0-.8-.5-1.2-1.1-1.2z"/></svg>