<svg xmlns="http://www.w3.org/2000/svg" viewBox="0 0 36.6 46.4"><path fill="#003057" d="M36.6 4.9c0-2.7-2.2-4.9-4.9-4.9h-26.8c-2.7 0-4.9 2.2-4.9 4.9v36.5c0 2.7 2.2 4.9 4.9 4.9h26.9c2.7 0 4.9-2.2 4.9-4.9v-36.5zm-22.7 31.5h-11.4v-3.8h11.4v3.8zm4.5 6.6c-1.3 0-2.4-1.1-2.4-2.5s1.1-2.5 2.4-2.5c1.3 0 2.4 1.1 2.4 2.5.1 1.4-1 2.5-2.4 2.5zm0-6.9c-1.3 0-2.4-1.1-2.4-2.5s1.1-2.5 2.4-2.5c1.3 0 2.4 1.1 2.4 2.5.1 1.4-1 2.5-2.4 2.5zm6.8 6.9c-1.3 0-2.4-1.1-2.4-2.5s1.1-2.5 2.4-2.5c1.3 0 2.4 1.1 2.4 2.5.1 1.4-1 2.5-2.4 2.5zm0-6.9c-1.3 0-2.4-1.1-2.4-2.5s1.1-2.5 2.4-2.5c1.3 0 2.4 1.1 2.4 2.5.1 1.4-1 2.5-2.4 2.5zm6.9 6.9c-1.3 0-2.4-1.1-2.4-2.5s1.1-2.5 2.4-2.5 2.4 1.1 2.4 2.5-1.1 2.5-2.4 2.5zm0-6.9c-1.3 0-2.4-1.1-2.4-2.5s1.1-2.5 2.4-2.5 2.4 1.1 2.4 2.5-1.1 2.5-2.4 2.5zm2-13.5c0 2.7-2.4 5-5.1 5h-21.4c-2.7 0-5.1-2.3-5.1-5v-12.6c0-2.7 2.4-5 5.1-5h21.4c2.7 0 5.1 2.3 5.1 5v12.6zM8.7 19.4v-2.5c-.8-.2-1.3-.6-1.7-1-.4-.4-.5-1-.5-1.6 0-.7.2-1.2.6-1.6.4-.4.9-.7 1.6-.8v-.6h.9v.6c.6.1 1.1.3 1.5.6.4.4.6.8.7 1.4l-1.5.2c-.1-.5-.3-.8-.7-1v2.3c.9.3 1.6.6 1.9 1 .3.4.5.9.5 1.6 0 .7-.2 1.3-.6 1.8-.4.5-1 .8-1.8.9v1.1h-.9v-1.1c-.7.1-1.3-.2-1.7-.6-.4-.4-.7-1-.8-1.8l1.5-.2c.1.3.2.6.4.8.2.2.4.4.6.5zm0-6.2c-.2.1-.4.2-.6.4-.1.2-.2.4-.2.6 0 .2.1.4.2.6.1.2.3.3.6.4v-2zm.8 6.3c.3-.1.5-.2.7-.4.2-.2.3-.5.3-.8 0-.3-.1-.5-.2-.7-.2-.2-.4-.3-.8-.4v2.3zM20.9 12.2l-.3 1.7c-.3-.3-.8-.5-1.5-.5-.6 0-1.2.2-1.6.7-.2.3-.4.6-.5 1h3.2l-.2.9h-3.2v.8h3l-.2.9h-2.7c.1.4.2.8.5 1 .4.5.9.7 1.5.7.8 0 1.4-.2 1.8-.7v1.8c-.5.3-1.1.4-1.8.4-1.1 0-2.1-.4-2.8-1.2-.5-.5-.8-1.2-1-2h-.9l.2-.9h.6v-.8h-.8l.2-.9h.7c.2-.8.5-1.5 1-2 .7-.8 1.7-1.2 2.9-1.2.8-.1 1.4 0 1.9.3zM30.5 19l.6 1.4c-.2.1-.5.2-.8.3-.3.1-.6.1-.8.1-.4 0-.8-.1-1.4-.3-.6-.2-1-.3-1.3-.3-.5 0-1 .2-1.5.5l-.6-1.4c.4-.3.8-.7 1-1 .2-.4.3-.7.3-1v-.3h-1.2v-1.3h.9c-.2-.5-.2-.9-.2-1.4 0-.4.1-.8.4-1.2.2-.4.6-.7 1-.9.4-.2.9-.3 1.4-.3.8 0 1.4.2 1.8.6.5.4.7 1 .8 1.7l-1.6.2c-.1-.4-.2-.7-.4-.9-.2-.2-.4-.3-.7-.3-.3 0-.6.1-.8.3-.3.2-.4.5-.4.8 0 .2 0 .4.1.7l.2.8h1.8v1.2h-1.6v.3c0 .3-.1.6-.2.9-.1.3-.4.6-.7 1 .2-.1.5-.2.8-.2h.4c.1 0 .2 0 .5.1.5.1.8.2 1 .2.3 0 .7-.1 1.2-.3z"/></svg>