<?xml version="1.0" encoding="UTF-8" standalone="no"?>
<svg width="236px" height="87px" viewBox="0 0 236 87" version="1.1" xmlns="http://www.w3.org/2000/svg" xmlns:xlink="http://www.w3.org/1999/xlink" xmlns:sketch="http://www.bohemiancoding.com/sketch/ns">
    <!-- Generator: Sketch 3.3.3 (12081) - http://www.bohemiancoding.com/sketch -->
    <title>Logo + La vida tiene mas de</title>
    <desc>Created with Sketch.</desc>
    <defs></defs>
    <g id="Desktop" stroke="none" stroke-width="1" fill="none" fill-rule="evenodd" sketch:type="MSPage">
        <g id="img/web/01_Loader-Copy" sketch:type="MSArtboardGroup" transform="translate(-599.000000, -467.000000)" fill="#FFFFFF">
            <g id="Logo-+-La-vida-tiene-mas-de" sketch:type="MSLayerGroup" transform="translate(599.000000, 467.000000)">
                <g id="Logo" sketch:type="MSShapeGroup">
                    <g id="La-vida-tiene-más-de-+-Logo">
                        <g id="Logo">
                            <path d="M223.358464,51.8401544 C223.050024,49.7268745 222.909605,47.6268649 222.670174,45.5392207 C222.433442,43.4741962 222.258219,41.4019333 222.046091,39.3338928 C221.831563,37.2402167 221.605333,35.1477469 221.385704,33.0691506 C221.082664,32.9943549 220.97885,33.2093925 220.843233,33.3442057 C219.598668,34.5792394 218.359505,35.8200034 217.118241,37.0586562 C215.380712,38.7928304 213.642283,40.5260999 211.905954,42.2617821 C211.684224,42.4837565 211.473897,42.7171914 211.268369,42.9340386 C211.420189,43.2241735 211.64792,43.1430443 211.833644,43.1439491 C213.378548,43.1511873 214.923452,43.148473 216.468655,43.1487746 C217.663713,43.1487746 218.858771,43.1460602 220.053828,43.1514889 C220.279458,43.1523937 220.504488,43.186474 220.791326,43.2103001 C220.684812,43.675662 220.408775,43.9808766 220.21495,44.3237907 C220.013323,44.6802766 219.795494,45.0271115 219.583366,45.3772639 C219.371538,45.7277179 219.15761,46.0766639 218.945182,46.4268163 C218.748056,46.7519363 218.55303,47.0782627 218.355604,47.403081 C218.142876,47.7529318 217.928948,48.1021795 217.71532,48.4514271 C217.502892,48.7994683 217.290464,49.1478111 217.117041,49.4319141 C217.020728,49.4904237 216.997025,49.5082178 216.970622,49.51998 C216.944518,49.5314406 216.916014,49.5438061 216.888711,49.5438061 C212.837276,49.5447108 208.786142,49.5447108 204.712505,49.5447108 C204.164032,49.9925802 203.704372,50.5215787 203.203606,51.0062428 C202.117762,52.0570016 202.617328,51.9098229 201.009716,51.9110293 C193.314301,51.9173628 185.618586,51.9137437 177.922871,51.9137437 C177.806455,51.9137437 177.68764,51.8992671 177.573625,51.9161564 C176.881133,52.0183973 176.375867,51.7339927 175.8679,51.2625989 C173.041527,48.6387179 170.18395,46.0486155 167.337174,43.4470526 C167.186254,43.3089218 167.027833,43.1786325 166.884115,43.0335651 C166.707691,42.8556237 166.497363,42.783844 166.253431,42.783844 C164.912254,42.785352 163.571378,42.7865584 162.230501,42.7847488 C161.975767,42.7841456 161.781641,42.8749258 161.653825,43.10444 C161.554511,43.2832862 161.443797,43.4557988 161.338783,43.6313274 C159.864989,46.0893309 158.391494,48.547636 156.9174,51.005338 C156.752078,51.2806947 156.581655,51.5527338 156.394731,51.8570437 C156.172101,51.875441 155.942871,51.9104261 155.713641,51.9107277 C152.128168,51.9143469 148.542695,51.9140453 144.957222,51.9113309 C144.755895,51.9113309 144.554569,51.8832825 144.355943,51.8682028 C144.25843,51.5412732 144.48526,51.3509664 144.612176,51.13804 C145.989658,48.8266119 147.376441,46.5209141 148.759324,44.2131052 C152.622633,37.7661993 156.485043,31.3189918 160.348652,24.8723875 C160.498072,24.622968 160.654393,24.3774692 160.841317,24.0752705 C161.195664,24.0629051 161.569513,24.0381742 161.943063,24.0378727 C168.764163,24.0357615 175.585262,24.0348567 182.406362,24.039079 C182.988739,24.0393806 183.571416,24.0728577 184.153493,24.0987949 C185.036509,24.138304 185.88082,24.3584687 186.689127,24.703494 C189.311173,25.8224134 190.387115,28.1437941 190.188489,30.6971018 C190.110778,31.693875 189.884849,32.6722509 189.465093,33.580355 C188.851812,34.9064705 188.198626,36.2147919 187.534039,37.5161766 C187.295507,37.9830465 186.984666,38.4137249 186.689727,38.8495304 C185.305044,40.894348 183.395593,42.1164131 180.965572,42.5142176 C180.879461,42.5283926 180.791549,42.5314085 180.705438,42.5467899 C180.64903,42.5570442 180.594723,42.5805686 180.476808,42.6182681 C180.577021,42.7669546 180.64363,42.9246891 180.758845,43.0278348 C181.9338,44.0807047 183.116556,45.1245269 184.296912,46.1710633 C185.958231,47.6437543 187.61925,49.11735 189.282069,50.588533 C189.499598,50.7809509 189.727628,50.9619082 189.979361,51.1721203 C190.168386,51.0119731 190.34931,50.8735407 190.513732,50.7176158 C196.849967,44.7022931 203.184703,38.6854624 209.519439,32.6689333 C212.379716,29.9524625 215.243894,27.2399123 218.09487,24.5137904 C218.431814,24.1916864 218.769959,24.0258088 219.247922,24.02792 C223.037122,24.0439046 226.826922,24.0360631 230.616422,24.0393806 C230.816248,24.0396822 231.016074,24.0728577 231.267808,24.0954774 C231.336817,24.4450266 231.420828,24.779496 231.466434,25.1190926 C231.726268,27.0631773 231.973801,29.0087701 232.231835,30.9528548 C232.494069,32.9258927 232.765605,34.8977243 233.02934,36.8707622 C233.230967,38.3796446 233.424792,39.8891302 233.625219,41.3983142 C233.829246,42.9361497 234.038973,44.4730805 234.2433,46.0109161 C234.497434,47.9245397 234.748567,49.8381633 235,51.7439454 C234.69696,51.9993968 234.363316,51.908315 234.055775,51.9092197 C231.315514,51.9170612 228.575553,51.9140453 225.835291,51.9137437 C225.22321,51.9137437 224.61083,51.9185692 223.999049,51.9098229 C223.801623,51.906807 223.604797,51.8682028 223.358464,51.8401544 L223.358464,51.8401544 Z M165.812973,36.2705871 L166.683088,36.2705871 C168.51663,36.2705871 170.350172,36.2723967 172.183414,36.2690791 C172.649075,36.2681743 173.115637,36.2675711 173.579798,36.2374116 C174.73585,36.1617111 175.812992,35.8411151 176.729013,35.100698 C177.678638,34.3328358 178.325824,33.3300307 178.841892,32.2358422 C178.915702,32.0796157 178.952607,31.9028807 178.988011,31.731876 C179.108327,31.1494951 178.894399,30.7375156 178.331525,30.5864162 C177.942673,30.4820642 177.530719,30.4211419 177.128666,30.4184275 C174.683943,30.4036494 172.239221,30.4093797 169.794498,30.413602 C169.596772,30.4139036 169.399046,30.4534126 169.235225,30.4712068 C168.409816,31.6453181 166.126215,35.4918674 165.812973,36.2705871 L165.812973,36.2705871 Z M118.869981,42.2409721 C121.227092,39.8876222 123.585703,37.5351771 125.944014,35.182732 C126.605901,34.5222378 127.265388,33.8593309 127.933576,33.2057734 C128.020288,33.1213266 128.153805,33.0851352 128.331129,32.9922437 C128.517753,34.7951818 128.696877,36.5109587 128.873,38.2273388 C129.013419,39.5959793 129.148737,40.965223 129.289155,42.3341651 C129.441575,43.8192214 129.598496,45.3036746 129.750916,46.7890325 C129.888034,48.1284183 130.017651,49.4690104 130.16017,50.8080945 C130.196475,51.1501038 130.269685,51.488494 130.322191,51.8066773 C131.1467,51.9577766 137.428329,52.0138734 141.288038,51.9104261 C141.485464,51.905299 141.68199,51.8654884 141.903119,51.838948 C141.903119,51.6284343 141.921422,51.4574297 141.900119,51.2915521 C141.742898,50.072503 141.579977,48.8543587 141.414655,47.636516 C141.210328,46.1285384 140.9985,44.6214655 140.796573,43.1131863 C140.594647,41.6049071 140.401421,40.0951199 140.203095,38.5862375 C140.008669,37.1063083 139.813644,35.6266806 139.616517,34.147053 C139.346182,32.1164103 139.075246,30.0857677 138.80161,28.0557282 C138.644989,26.8954902 138.485068,25.7358554 138.319746,24.5771254 C138.296343,24.4130575 138.234235,24.2547198 138.180528,24.0598891 C137.824981,24.0514445 137.507539,24.0381742 137.189797,24.0375711 C135.295648,24.0357615 133.401198,24.0366663 131.506748,24.0366663 C129.729013,24.0366663 127.950979,24.0466189 126.173544,24.0300312 C125.734886,24.0261104 125.401842,24.1533837 125.086501,24.4667415 C124.257791,25.2903989 123.399378,26.0838967 122.552366,26.8888551 C116.537473,32.6037887 110.52258,38.3187223 104.507386,44.0330527 C101.944748,46.4678333 99.3803097,48.9008044 96.820072,51.3382994 C96.683554,51.4685887 96.4621248,51.5554482 96.5074308,51.8775522 C96.781967,51.8893144 97.0634041,51.9119341 97.3448412,51.9122357 C99.4724219,51.9152517 101.600003,51.9140453 103.727583,51.9137437 C105.359498,51.9137437 106.991714,51.9022831 108.623629,51.9206804 C109.065587,51.9258075 109.397131,51.8006454 109.700471,51.4694935 C110.213239,50.9100338 110.772813,50.3940038 111.301182,49.8484175 C111.498008,49.6454437 111.712837,49.5410917 111.996374,49.560997 C112.199501,49.575172 112.404128,49.5628066 112.608155,49.5628066 C116.076312,49.562505 119.54477,49.5634098 123.012927,49.5616002 C123.330069,49.5612986 123.647511,49.5465204 123.929848,49.5392821 C124.506524,48.7868013 127.441511,43.9181448 127.709147,43.2784607 C127.458314,43.0607087 127.153473,43.1539017 126.874137,43.1532985 C124.309698,43.1457586 121.74496,43.1508858 119.180222,43.1457586 C118.871481,43.1451554 118.551339,43.1985378 118.113581,43.0208981 C118.425322,42.6990957 118.644051,42.4665655 118.869981,42.2409721 L118.869981,42.2409721 Z M32.4156761,51.0207193 C36.2792858,44.5732102 40.1416953,38.125098 44.0044048,31.6772873 C45.3719852,29.3942091 46.742566,27.1129406 48.1035456,24.8256402 C48.2307624,24.6118089 48.4569922,24.4212006 48.372081,24.1205098 C47.6831901,24.0143482 36.6810388,24.0053003 35.8265261,24.1168907 C35.6951087,24.3328331 35.5396882,24.577427 35.3950691,24.8280529 C33.2584873,28.5250108 31.1237057,32.2228736 28.988024,35.9204347 C27.5397329,38.4275983 26.092642,40.9356666 24.6389502,43.4395127 C24.5300359,43.6268035 24.4838298,43.8922075 24.1276828,43.9326213 C22.218831,40.6410078 20.3126795,37.3231555 18.3954266,34.0122398 C16.4778737,30.7001178 14.5792232,27.3768367 12.6718716,24.1165891 C11.7642519,24.004094 4.05293464,23.9606642 0.618081534,24.0417934 C0.447959092,24.0457141 0.27873677,24.0752705 0,24.1042237 C0.461760913,25.0545512 1.01713418,25.8697639 1.5115994,26.7175489 C1.99796356,27.5511589 2.5008299,28.3751179 2.99679532,29.2029976 C3.50746269,30.0562113 4.01843009,30.9094251 4.52999757,31.7620356 C5.02656308,32.5896137 5.52492882,33.4159854 6.02149432,34.2438652 C6.53276177,35.0967773 7.04222897,35.9505942 7.55289634,36.8041096 C8.04856173,37.6319893 8.54452715,38.4601706 9.04049258,39.2880503 C9.55176002,40.1406608 10.0642276,40.9929698 10.574895,41.8461835 C11.0705604,42.6740632 11.5638254,43.5037525 12.0597909,44.3316322 C12.5707583,45.1845444 13.084126,46.0362501 13.5956935,46.8891623 C14.092259,47.7167404 14.5822236,48.5482392 15.0859901,49.371595 C15.6014581,50.2142529 16.0659193,51.0906895 16.6296937,51.8884097 L31.8699041,51.8884097 C32.0748311,51.5632897 32.2509544,51.2954729 32.4156761,51.0207193 L32.4156761,51.0207193 Z M114.158159,24.0541588 C101.188948,24.0514445 88.2197375,24.051746 75.2127217,24.051746 C73.8454413,26.2630444 72.4931629,28.4487072 71.1456852,30.6373859 C71.1054799,30.7028321 71.1159813,30.7996443 71.098579,30.9091235 C71.4232218,31.0207138 71.743364,30.977284 72.0566053,30.9775856 C75.9916244,30.9806016 79.9269436,30.9793952 83.8622627,30.9796968 C84.1536011,30.9796968 84.4458397,30.9712521 84.736278,30.9893479 C84.8664952,30.9971894 84.9934119,31.0605244 85.1968387,31.1211451 C85.001813,31.4583289 84.8463925,31.7351936 84.683471,32.0075344 C82.1001302,36.3233663 79.5152893,40.6382934 76.9319485,44.9538238 C75.685284,47.0366425 74.4386196,49.1194612 73.1994561,51.2065022 C73.0728394,51.4194286 72.8580111,51.6133545 72.918019,51.8811714 C72.9678255,51.9285219 72.9846278,51.9523479 73.0074308,51.9641101 C73.0326341,51.9770787 73.0632381,51.9834122 73.0920419,51.9846186 C73.2372611,51.9912537 73.3827803,52 73.5282995,52 C77.5215262,51.9954761 81.515053,51.9903489 85.5082798,51.984317 C85.5358835,51.984317 85.5646873,51.9728564 85.5913908,51.9626022 C85.6183943,51.9520463 85.6435977,51.9366649 85.752212,51.881473 C86.0294486,51.4275717 86.3528912,50.9085258 86.6670327,50.3840512 C90.3473182,44.236328 94.0252033,38.0873985 97.7087892,31.9420881 C97.9014147,31.6205873 98.040633,31.2544503 98.4219833,30.9796968 L99.3254025,30.9796968 C102.677445,30.9793952 106.029787,30.9815064 109.381829,30.9763793 C109.725974,30.9757761 110.080921,31.0400159 110.456271,30.8620746 C111.786346,28.7005394 113.134724,26.5100512 114.479202,24.3171501 C114.504405,24.2761331 114.482502,24.206163 114.482502,24.1150811 C114.373888,24.0939694 114.265873,24.0541588 114.158159,24.0541588 L114.158159,24.0541588 Z M53.7187863,51.1700091 C59.076293,42.2153364 64.4325996,33.2600606 69.7883061,24.3044831 C69.8018079,24.2818634 69.8063085,24.2498943 69.8039082,24.2233539 C69.8015079,24.1950039 69.7862058,24.1678603 69.7613026,24.097287 C69.6445872,24.0806992 69.5074691,24.0487301 69.3694509,24.043603 C67.2571722,23.9648865 57.2373505,24.0173642 56.4653486,24.1162875 C56.3033272,24.376866 56.1152024,24.6697153 55.9366789,24.9679932 C51.8951457,31.7128755 47.8551128,38.458361 43.8138797,45.2035449 C42.6122212,47.2094567 41.4063621,49.2129558 40.2101043,51.2221851 C40.0999898,51.4070632 39.8938626,51.580179 40.0144785,51.8443767 C40.700369,51.9345538 52.314301,51.9496335 53.284029,51.8543294 C53.4388494,51.611545 53.5846686,51.3943962 53.7187863,51.1700091 L53.7187863,51.1700091 Z" id="Fill-1"></path>
                            <path d="M149,0 L140.335169,19 L132.859468,19 L130.585702,5.19869222 L124.291542,19 L119,19 L127.665123,0 L135.686644,0 L137.540392,13.6165872 L143.750197,0 L149,0" id="Fill-2"></path>
                            <path d="M160.161457,0 L153.466163,13.0802304 C153.130805,13.7354531 153.000512,14.2610906 153.074965,14.6571429 C153.148776,15.0537788 153.343573,15.3640246 153.660639,15.5878802 C153.976421,15.8120276 154.392009,15.9626267 154.906439,16.0402611 C155.420869,16.1178955 155.93915,16.1564209 156.462887,16.1564209 C156.985982,16.1564209 157.54502,16.1178955 158.139037,16.0402611 C158.732734,15.9626267 159.309743,15.8120276 159.871348,15.5878802 C160.431348,15.3640246 160.952518,15.0537788 161.43261,14.6571429 C161.912381,14.2610906 162.320266,13.7354531 162.655625,13.0802304 L169.350918,0 L176,0 L169.423767,12.847619 C168.383032,14.8812903 166.64302,16.4150077 164.205333,17.449063 C161.767005,18.4831183 158.68588,19 154.961316,19 C151.236431,19 148.661071,18.4831183 147.235878,17.449063 C145.810044,16.4150077 145.618135,14.8812903 146.65919,12.847619 L153.235424,0 L160.161457,0" id="Fill-3"></path>
                            <path d="M191.252539,10.8457787 L181.892154,10.8457787 L179.327782,16.0179546 L190.057778,16.0179546 L188.579322,19 L171,19 L180.420678,0 L198,0 L196.495205,3.03478015 L185.765208,3.03478015 L183.30524,7.99601706 L192.665625,7.99601706 L191.252539,10.8457787" id="Fill-4"></path>
                            <path d="M222,0 L203.733348,19 L195,19 L195.892764,0 L203.147272,0 L201.242923,15.6750298 L215.253533,0 L222,0" id="Fill-5"></path>
                            <path d="M229.030902,19 L229.199662,14.5929248 L219.469487,14.5929248 L215.443019,19 L209,19 L227.72987,0 L235.225047,0 L236,19 L229.030902,19 L229.030902,19 Z M221.977424,11.9013674 L229.297445,11.9013674 L229.615773,3.58894186 L221.977424,11.9013674 L221.977424,11.9013674 Z" id="Fill-6"></path>
                        </g>
                    </g>
                </g>
                <path d="M15.9965622,86.6065082 L11.3793747,86.6065082 L11.3793747,75.4033832 L13.8403122,75.4033832 L13.8403122,85.1690082 L15.9965622,85.1690082 L15.9965622,86.6065082 Z M25.5078123,86.6065082 L23.0703123,86.6065082 L22.6562498,83.5986957 L21.5546873,83.5986957 L21.1406248,86.6065082 L18.7031248,86.6065082 L20.5468748,75.4033832 L23.6640623,75.4033832 L25.5078123,86.6065082 Z M22.4531248,82.0440082 L22.1015623,78.7002582 L21.7656248,82.0440082 L22.4531248,82.0440082 Z M39.9912498,75.4033832 L38.4834373,86.6065082 L34.9990623,86.6065082 L33.4912498,75.4033832 L35.8896873,75.4033832 L36.7412498,83.2315082 L37.5849998,75.4033832 L39.9912498,75.4033832 Z M45.2134373,86.6065082 L42.7524998,86.6065082 L42.7524998,75.4033832 L45.2134373,75.4033832 L45.2134373,86.6065082 Z M48.1621873,86.6065082 L48.1621873,75.4033832 L51.2246873,75.4033832 C51.8913573,75.4033832 52.4851014,75.5843709 53.0059373,75.9463519 C53.5267733,76.3083329 53.7871873,76.8643169 53.7871873,77.6143207 L53.7871873,84.3955707 C53.7871873,85.0934908 53.5437002,85.6364542 53.0567186,86.0244769 C52.569737,86.4124997 51.9642743,86.6065082 51.2403123,86.6065082 L48.1621873,86.6065082 Z M51.3106248,84.5752582 L51.3106248,77.4346332 C51.3106248,77.0440062 51.0814605,76.8486957 50.6231248,76.8486957 L50.6231248,85.1690082 C51.0814605,85.1690082 51.3106248,84.9710935 51.3106248,84.5752582 L51.3106248,84.5752582 Z M63.4312499,86.6065082 L60.9937499,86.6065082 L60.5796874,83.5986957 L59.4781249,83.5986957 L59.0640624,86.6065082 L56.6265624,86.6065082 L58.4703124,75.4033832 L61.5874999,75.4033832 L63.4312499,86.6065082 Z M60.3765624,82.0440082 L60.0249999,78.7002582 L59.6890624,82.0440082 L60.3765624,82.0440082 Z M76.7662499,76.8643207 L75.3912499,76.8643207 L75.3912499,86.6065082 L72.9303124,86.6065082 L72.9303124,76.8643207 L71.5553124,76.8643207 L71.5553124,75.4033832 L76.7662499,75.4033832 L76.7662499,76.8643207 Z M82.1290624,86.6065082 L79.6681249,86.6065082 L79.6681249,75.4033832 L82.1290624,75.4033832 L82.1290624,86.6065082 Z M89.9215624,86.6065082 L85.1090624,86.6065082 L85.1090624,75.4033832 L89.8903124,75.4033832 L89.8903124,76.8486957 L87.5699999,76.8486957 L87.5699999,79.8721332 L89.6637499,79.8721332 L89.6637499,81.2315082 L87.5699999,81.2315082 L87.5699999,85.1690082 L89.9215624,85.1690082 L89.9215624,86.6065082 Z M99.065625,86.6065082 L96.534375,86.6065082 L94.8625,80.6377582 L94.8625,86.6065082 L92.8078125,86.6065082 L92.8078125,75.4033832 L95.6046875,75.4033832 L97.0109375,80.5127582 L97.0109375,75.4033832 L99.065625,75.4033832 L99.065625,86.6065082 Z M106.897187,86.6065082 L102.084687,86.6065082 L102.084687,75.4033832 L106.865937,75.4033832 L106.865937,76.8486957 L104.545625,76.8486957 L104.545625,79.8721332 L106.639375,79.8721332 L106.639375,81.2315082 L104.545625,81.2315082 L104.545625,85.1690082 L106.897187,85.1690082 L106.897187,86.6065082 Z M123.685313,86.6065082 L121.49,86.6065082 L121.49,80.3174457 L120.20875,86.6065082 L118.513438,86.6065082 L117.044688,80.3174457 L117.044688,86.6065082 L115.122813,86.6065082 L115.122813,75.4033832 L118.286875,75.4033832 L119.411875,81.2158832 L120.388438,75.4033832 L123.685313,75.4033832 L123.685313,86.6065082 Z M133.360625,86.6065082 L130.923125,86.6065082 L130.509063,83.5986957 L129.4075,83.5986957 L128.993438,86.6065082 L126.555938,86.6065082 L128.399688,75.4033832 L131.516875,75.4033832 L133.360625,86.6065082 Z M130.305938,82.0440082 L129.954375,78.7002582 L129.618438,82.0440082 L130.305938,82.0440082 Z M136.223438,82.1221332 L138.465625,82.1221332 L138.465625,84.6924457 C138.465625,84.9476553 138.619269,85.0752582 138.926563,85.0752582 C139.223439,85.0752582 139.371875,84.9476553 139.371875,84.6924457 L139.371875,83.3643207 C139.371875,82.9580686 139.101044,82.4815109 138.559375,81.9346332 C137.512495,80.9190031 136.86146,80.2367183 136.60625,79.8877582 C136.35104,79.5387981 136.223438,79.1559894 136.223438,78.7393207 L136.223438,77.4815082 C136.223438,76.0283759 137.171345,75.3018207 139.067188,75.3018207 C140.765113,75.3018207 141.614063,75.9632724 141.614063,77.2861957 L141.614063,79.2236957 L139.371875,79.2236957 L139.371875,77.1611957 C139.371875,76.9372362 139.24948,76.8252582 139.004688,76.8252582 C138.718228,76.8252582 138.575,77.0414018 138.575,77.4736957 L138.621875,78.2002582 C138.621875,78.6169269 138.897914,79.1012971 139.45,79.6533832 C140.476047,80.6377631 141.128384,81.3252562 141.407031,81.7158832 C141.685679,82.1065101 141.825,82.549214 141.825,83.0440082 L141.825,84.4736957 C141.825,85.9632865 140.874489,86.7080707 138.973438,86.7080707 C137.140095,86.7080707 136.223438,86.0309941 136.223438,84.6768207 L136.223438,82.1221332 Z M150.136563,86.6065082 L150.136563,75.4033832 L153.199063,75.4033832 C153.865733,75.4033832 154.459477,75.5843709 154.980313,75.9463519 C155.501149,76.3083329 155.761563,76.8643169 155.761563,77.6143207 L155.761563,84.3955707 C155.761563,85.0934908 155.518075,85.6364542 155.031094,86.0244769 C154.544112,86.4124997 153.93865,86.6065082 153.214688,86.6065082 L150.136563,86.6065082 Z M153.285,84.5752582 L153.285,77.4346332 C153.285,77.0440062 153.055836,76.8486957 152.5975,76.8486957 L152.5975,85.1690082 C153.055836,85.1690082 153.285,84.9710935 153.285,84.5752582 L153.285,84.5752582 Z M163.569688,86.6065082 L158.757188,86.6065082 L158.757188,75.4033832 L163.538438,75.4033832 L163.538438,76.8486957 L161.218125,76.8486957 L161.218125,79.8721332 L163.311875,79.8721332 L163.311875,81.2315082 L161.218125,81.2315082 L161.218125,85.1690082 L163.569688,85.1690082 L163.569688,86.6065082 Z M171.771875,75.4033832 L174.232813,75.4033832 L174.232813,84.8096332 C174.232813,85.0335926 174.370832,85.1455707 174.646875,85.1455707 C174.91771,85.1455707 175.053125,85.0335926 175.053125,84.8096332 L175.053125,75.4033832 L177.514063,75.4033832 L177.514063,84.6768207 C177.514063,85.3226572 177.245836,85.8226522 176.709375,86.1768207 C176.172914,86.5309891 175.485421,86.7080707 174.646875,86.7080707 C173.87083,86.7080707 173.197659,86.5492181 172.627344,86.2315082 C172.057029,85.9137983 171.771875,85.4007826 171.771875,84.6924457 L171.771875,75.4033832 Z M186.783125,86.6065082 L184.251875,86.6065082 L182.58,80.6377582 L182.58,86.6065082 L180.525313,86.6065082 L180.525313,75.4033832 L183.322188,75.4033832 L184.728438,80.5127582 L184.728438,75.4033832 L186.783125,75.4033832 L186.783125,86.6065082 Z M200.266563,76.8643207 L198.891563,76.8643207 L198.891563,86.6065082 L196.430625,86.6065082 L196.430625,76.8643207 L195.055625,76.8643207 L195.055625,75.4033832 L200.266563,75.4033832 L200.266563,76.8643207 Z M203.191875,84.6924457 L203.191875,77.4815082 C203.191875,76.0283759 204.134574,75.3018207 206.02,75.3018207 C207.879385,75.3018207 208.809063,76.0231676 208.809063,77.4658832 L208.809063,84.6768207 C208.809063,85.3278656 208.549951,85.8291627 208.031719,86.1807269 C207.513487,86.5322912 206.837713,86.7080707 206.004375,86.7080707 C204.129366,86.7080707 203.191875,86.0362024 203.191875,84.6924457 L203.191875,84.6924457 Z M206.402813,84.8096332 L206.402813,77.1768207 C206.402813,76.9528612 206.270002,76.8408832 206.004375,76.8408832 C205.728332,76.8408832 205.590313,76.9528612 205.590313,77.1768207 L205.590313,84.8096332 C205.590313,85.0335926 205.728332,85.1455707 206.004375,85.1455707 C206.270002,85.1455707 206.402813,85.0335926 206.402813,84.8096332 L206.402813,84.8096332 Z M218.0625,86.6065082 L215.53125,86.6065082 L213.859375,80.6377582 L213.859375,86.6065082 L211.804688,86.6065082 L211.804688,75.4033832 L214.601563,75.4033832 L216.007813,80.5127582 L216.007813,75.4033832 L218.0625,75.4033832 L218.0625,86.6065082 Z M221.058125,84.6924457 L221.058125,77.4815082 C221.058125,76.0283759 222.000824,75.3018207 223.88625,75.3018207 C225.745635,75.3018207 226.675313,76.0231676 226.675313,77.4658832 L226.675313,84.6768207 C226.675313,85.3278656 226.416201,85.8291627 225.897969,86.1807269 C225.379737,86.5322912 224.703963,86.7080707 223.870625,86.7080707 C221.995616,86.7080707 221.058125,86.0362024 221.058125,84.6924457 L221.058125,84.6924457 Z M224.269063,84.8096332 L224.269063,77.1768207 C224.269063,76.9528612 224.136252,76.8408832 223.870625,76.8408832 C223.594582,76.8408832 223.456563,76.9528612 223.456563,77.1768207 L223.456563,84.8096332 C223.456563,85.0335926 223.594582,85.1455707 223.870625,85.1455707 C224.136252,85.1455707 224.269063,85.0335926 224.269063,84.8096332 L224.269063,84.8096332 Z" id="La-vida-tiene-mas-de" opacity="0.735307836" sketch:type="MSShapeGroup"></path>
            </g>
        </g>
    </g>
</svg>