<?xml version="1.0" encoding="UTF-8" standalone="no"?>
<svg width="50px" height="33px" viewBox="0 0 50 33" version="1.1" xmlns="http://www.w3.org/2000/svg" xmlns:xlink="http://www.w3.org/1999/xlink" xmlns:sketch="http://www.bohemiancoding.com/sketch/ns">
    <!-- Generator: Sketch 3.3.3 (12081) - http://www.bohemiancoding.com/sketch -->
    <title>Logo SZK</title>
    <desc>Created with Sketch.</desc>
    <defs></defs>
    <g id="Desktop" stroke="none" stroke-width="1" fill="none" fill-rule="evenodd" sketch:type="MSPage">
        <g id="img/web/01_Loader-Copy" sketch:type="MSArtboardGroup" transform="translate(-695.000000, -940.000000)" fill="#FFFFFF">
            <g id="Logo-SZK" sketch:type="MSLayerGroup" transform="translate(695.000000, 940.000000)">
                <path d="M35.9953273,15.2916973 C35.9953273,15.2916973 33.8502086,15.879813 29.69476,18.3289196 C25.9573364,20.5211124 24.5008986,22 24.5008986,22 L13,14.3943909 C13,14.3943909 17.8419728,10.9898541 21.8856366,13.5975112 L27.3055838,17.1588788 L27.9615559,16.7427267 L13.0035944,6.71242985 C13.0035944,6.71242985 15.1548235,6.11640377 19.3066777,3.66936076 C23.0369126,1.47304079 24.5008986,0 24.5008986,0 L36,7.60354558 C36,7.60354558 31.1605432,11.0108337 27.1193955,8.40592806 L21.6969323,4.84180906 L21.0348497,5.25658543 L35.9953273,15.2916973" id="Fill-1" sketch:type="MSShapeGroup"></path>
                <path d="M26,25 L18.1302521,25 L18.1302521,27.0301309 L21.9321267,27.0301309 L18,31.2965223 L18,33 L25.9870718,33 L25.9870718,30.9593561 L22.0145443,30.9593561 L26,26.7023513 L26,25" id="Fill-2" sketch:type="MSShapeGroup"></path>
                <path d="M11.9937893,33 C15.1811719,33 16,32.0866661 16,30.0824563 L16,25 L13.47291,25 L13.47291,29.7778896 C13.47291,30.5788414 12.8600147,31.0598517 11.9937893,31.0598517 C11.0991256,31.0598517 10.5185912,30.5788414 10.5185912,29.7625149 L10.5185912,25 L8,25 L8,30.0824563 C8,32.0866661 8.81490561,33 11.9937893,33" id="Fill-3" sketch:type="MSShapeGroup"></path>
                <path d="M30.9960775,33 C34.1828062,33 35,32.0866661 35,30.0824563 L35,25 L32.4745444,25 L32.4745444,29.7778896 C32.4745444,30.5788414 31.8573997,31.0598517 30.9960775,31.0598517 C30.1014137,31.0598517 29.524475,30.5788414 29.524475,29.7625149 L29.524475,25 L27,25 L27,30.0824563 C27,32.0866661 27.8162131,33 30.9960775,33" id="Fill-4" sketch:type="MSShapeGroup"></path>
                <path d="M47,33 L50,33 L50,25 L47,25 L47,33 Z" id="Fill-5" sketch:type="MSShapeGroup"></path>
                <path d="M47,25 L43.1042685,25 L39.9596676,27.7540245 L39.9596676,25 L37,25 L37,33 L39.9596676,33 L39.9596676,30.1641245 L42.877422,33 L46.8577154,33 L42.5299827,28.8965598 L47,25" id="Fill-6" sketch:type="MSShapeGroup"></path>
                <path d="M2.79560037,27.3220286 C2.79560037,26.7341236 3.53956615,26.7138019 3.79407272,26.7138019 C4.04827375,26.7138019 4.61594867,26.8321672 4.99786129,27.5680289 L7.77849068,27.5680289 C7.77849068,26.1390882 6.62022609,25 3.80323862,25 C0.672166208,25 0.142682554,26.6050626 0.142682554,27.5213245 C0.142682554,29.2190828 1.26733883,29.7175008 3.71219065,30.0184055 C3.92636725,30.0455011 5.19951115,29.9759793 5.19951115,30.6900931 C5.19951115,31.2159633 4.48151543,31.2530416 4.21875955,31.2530416 C3.95447602,31.2530416 3.46715551,31.2017024 3.06446685,30.3620928 L0,30.3620928 C0,32.0309729 0.96761381,33 4.21570425,33 C7.20562175,33 8,31.5721289 8,30.4847364 C8,29.4347787 7.38130156,28.3648558 4.82981974,27.9826641 C3.76596395,27.8236552 2.79560037,27.755203 2.79560037,27.3220286" id="Fill-7" sketch:type="MSShapeGroup"></path>
            </g>
        </g>
    </g>
</svg>