<?xml version="1.0" standalone="no"?>
<!DOCTYPE svg PUBLIC "-//W3C//DTD SVG 1.1//EN" "http://www.w3.org/Graphics/SVG/1.1/DTD/svg11.dtd" >
<svg xmlns="http://www.w3.org/2000/svg" xmlns:xlink="http://www.w3.org/1999/xlink" version="1.1">
<metadata>
Created by FontForge 20150318 at Thu Jun 18 17:18:46 2015
 By uniteet7
(c)G.M.
</metadata>
<defs>
<font id="WalkwayBoldRevOblique" horiz-adv-x="525" >
  <font-face 
    font-family="WalkwayBoldRevOblique"
    font-weight="400"
    font-style="oblique"
    font-stretch="normal"
    units-per-em="1000"
    panose-1="0 0 4 0 0 0 0 0 0 0"
    ascent="800"
    descent="-200"
    x-height="488"
    cap-height="678"
    bbox="-219 -179 1046 874"
    underline-thickness="30"
    underline-position="-118"
    unicode-range="U+0020-2122"
  />
<missing-glyph horiz-adv-x="500" 
d="M63 0v874h375v-874h-375zM125 63h250v749h-250v-749z" />
    <glyph glyph-name=".notdef" horiz-adv-x="500" 
d="M63 0v874h375v-874h-375zM125 63h250v749h-250v-749z" />
    <glyph glyph-name="glyph1" horiz-adv-x="0" 
 />
    <glyph glyph-name="nonmarkingreturn" horiz-adv-x="354" 
 />
    <glyph glyph-name="space" unicode=" " horiz-adv-x="354" 
 />
    <glyph glyph-name="exclam" unicode="!" horiz-adv-x="194" 
d="M37 166l-109 512h51l109 -512h-51zM97 0q-26 0 -31 25l-13 62q-6 24 20 24q25 0 31 -24l13 -62q5 -25 -20 -25z" />
    <glyph glyph-name="quotedbl" unicode="&#x22;" horiz-adv-x="292" 
d="M87 547q-26 0 -31 22l-17 82q-5 21 21 21q25 0 30 -21l17 -82q5 -22 -20 -22zM-29 547q-25 0 -30 22l-17 82q-5 21 20 21q26 0 31 -21l17 -82q5 -22 -21 -22z" />
    <glyph glyph-name="numbersign" unicode="#" horiz-adv-x="531" 
d="M387 350h-90l-3 -71h89l-2 -45h-89l-3 -73h-52l3 73h-89l-3 -73h-52l3 73h-89l2 45h89l4 71h-91l4 45h88l4 73h52l-4 -73h89l3 73h52l-3 -73h89zM157 350l-4 -71h89l3 71h-88z" />
    <glyph glyph-name="dollar" unicode="$" horiz-adv-x="642" 
d="M417 -10l13 -60h-51l-11 53q-17 -1 -34 -1q-32 0 -63 4l12 -56h-51l-14 63q-205 46 -244 226l-5 24h51l5 -21q30 -143 183 -180l-64 303q-183 43 -210 168q-5 22 -5 41q0 106 142 135l-14 64h51l12 -58q20 1 43 1q28 0 53 -2l-12 59h51l14 -66q185 -40 226 -219h-50
q-39 138 -166 170l61 -284q99 -23 145 -52q68 -43 87 -131q3 -18 3 -34q0 -60 -50 -101q-43 -34 -108 -46zM227 646q-26 3 -54 3q-23 0 -43 -2l56 -263l100 -18zM81 639q-99 -25 -99 -98q0 -13 3 -28q18 -84 148 -117zM483 247q-36 31 -133 57l57 -266q116 26 116 110
q0 12 -3 26q-11 51 -37 73zM297 315l-100 19l64 -301q30 -3 64 -3q17 0 32 1z" />
    <glyph glyph-name="percent" unicode="%" horiz-adv-x="750" 
d="M166 -1h-62l354 679h61zM564 -19q-149 0 -187 180q-8 38 -8 69q0 116 118 116q148 0 188 -185q8 -37 8 -67q0 -113 -119 -113zM128 294q-148 0 -187 180q-8 40 -8 71q2 113 118 113q149 0 188 -184q8 -36 8 -65q0 -115 -119 -115zM496 299q-74 0 -74 -81q0 -25 7 -57
q28 -133 126 -133q74 0 74 80q0 23 -6 53q-30 138 -127 138zM60 611q-74 0 -74 -81q0 -24 7 -56q29 -133 126 -133q75 0 75 81q-1 23 -7 52q-29 137 -127 137z" />
    <glyph glyph-name="ampersand" unicode="&#x26;" horiz-adv-x="603" 
d="M465 99q-61 -115 -195 -115q-88 0 -164 41q-91 48 -108 132q-4 17 -4 34q0 63 53 115q35 35 108 76q-128 61 -150 162q-3 14 -3 28q0 52 47 81q40 25 96 25q76 0 134 -39q66 -45 66 -118q0 -86 -151 -176q-86 -51 -111 -78q-37 -41 -37 -86q0 -74 81 -118q59 -32 127 -32
q131 0 168 108q12 33 12 73q0 32 -8 68h51l64 -299h-51zM157 631q-39 0 -68 -15q-34 -20 -34 -56q0 -95 144 -152q94 59 94 119q0 49 -45 78q-40 26 -91 26z" />
    <glyph glyph-name="quotesingle" unicode="'" horiz-adv-x="175" 
d="M-29 547q-25 0 -30 22l-17 82q-5 21 20 21q26 0 31 -21l17 -82q5 -22 -21 -22z" />
    <glyph glyph-name="parenleft" unicode="(" horiz-adv-x="233" 
d="M222 -168q-173 199 -226 451q-21 96 -21 184q0 144 55 267h57q-59 -129 -59 -277q0 -84 19 -174q53 -248 232 -451h-57z" />
    <glyph glyph-name="parenright" unicode=")" horiz-adv-x="233" 
d="M78 -168h-57q62 131 62 282q0 82 -18 169q-53 248 -236 451h57q175 -195 230 -451q20 -95 20 -182q0 -145 -58 -269z" />
    <glyph glyph-name="asterisk" unicode="*" horiz-adv-x="340" 
d="M-64 624h2l71 -30l-12 55q-5 23 21 23q25 0 30 -23l12 -55l56 28q6 3 12 3q13 0 24 -9q5 -7 6 -13q3 -14 -10 -20l-52 -25l63 -27q17 -7 19 -20q5 -22 -20 -22q-9 0 -16 3l-67 29l12 -55q5 -23 -20 -23q-26 0 -31 23l-12 55l-55 -29q-5 -3 -13 -3q-25 0 -30 22
q-2 13 11 20l51 27l-63 26q-17 7 -19 19q-2 9 4.5 15.5t15.5 6.5q5 0 10 -1z" />
    <glyph glyph-name="plus" unicode="+" horiz-adv-x="560" 
d="M257 228l34 -161h-51l-34 161h-191l-10 46h191l-34 159h51l34 -159h192l10 -46h-192z" />
    <glyph glyph-name="comma" unicode="," horiz-adv-x="262" 
d="M151 -74q-2 -17 -22 -17q-26 0 -30 21q-1 2 0 8l15 132q3 21 27 16q21 -5 24 -21q1 -3 0 -7z" />
    <glyph glyph-name="hyphen" unicode="-" horiz-adv-x="350" 
d="M-18 254l-4 20h287l4 -20h-287z" />
    <glyph glyph-name="hyphen" unicode="&#x2010;" horiz-adv-x="350" 
d="M-18 254l-4 20h287l4 -20h-287z" />
    <glyph glyph-name="period" unicode="." horiz-adv-x="209" 
d="M105 -2q-26 0 -30 20l-10 47q-4 20 22 20q25 0 29 -20l10 -47q4 -20 -21 -20z" />
    <glyph glyph-name="slash" unicode="/" horiz-adv-x="350" 
d="M32 0h-54l201 694h54z" />
    <glyph glyph-name="zero" unicode="0" horiz-adv-x="584" 
d="M393 -3q-27 -9 -97 -9q-119 0 -205 71t-111 188l-34 164q-8 37 -8 69q0 92 60 143q57 48 152 48q120 0 204 -71t109 -189l34 -164q8 -37 8 -70q0 -69 -36 -118t-76 -62zM412 411q-21 96 -87 154q-69 59 -166 59q-77 0 -123 -40t-46 -115q0 -27 7 -58l34 -164
q21 -95 89 -153.5t165 -58.5q76 0 122 40t46 115q0 26 -7 57z" />
    <glyph glyph-name="one" unicode="1" horiz-adv-x="413" 
d="M274 0l-122 573l-111 -106h-78l184 179h41l137 -646h-51z" />
    <glyph glyph-name="two" unicode="2" horiz-adv-x="584" 
d="M43 0q-7 34 -7 65q0 145 147 243q30 20 123 80q64 42 64 89q0 70 -75 108q-49 25 -122 25q-163 0 -163 -129q0 -30 8 -66h-51q-9 42 -9 77q0 165 199 165q98 0 164 -36q79 -43 98 -131q2 -10 2 -19q0 -76 -130 -157q-42 -26 -105 -70q-99 -84 -99 -176q0 -11 1 -21h456
l10 -47h-511z" />
    <glyph glyph-name="three" unicode="3" horiz-adv-x="584" 
d="M299 -11q-119 0 -202 54q-93 59 -116 170l-5 24h51l7 -37q18 -82 95 -126q67 -38 156 -38q70 0 120 24q65 31 65 94q0 13 -3 28q-30 141 -224 141h-61l-10 47h62q157 0 157 93q0 14 -4 29q-13 63 -82 94q-55 24 -129 24q-176 0 -176 -127q0 -26 6 -57h-51q-7 37 -7 68
q0 163 215 163q100 0 170 -35q87 -43 105 -130q5 -21 5 -39q-1 -75 -78 -105q126 -41 152 -166q5 -21 5 -40q0 -79 -76 -120q-60 -33 -147 -33z" />
    <glyph glyph-name="four" unicode="4" horiz-adv-x="584" 
d="M388 215l46 -215h-51l-46 215h-374l131 432h54l-117 -385h296l-82 386l52 -3l81 -383h129l10 -47h-129z" />
    <glyph glyph-name="five" unicode="5" horiz-adv-x="584" 
d="M290 -11q-264 0 -314 237h51q40 -190 254 -190q75 0 121 30q55 36 55 106q0 21 -5 46q-19 88 -94 137q-68 45 -162 45q-124 0 -166 -95h-50l-56 341h458l10 -47h-408l37 -216q54 64 169 64q114 0 199 -58q91 -62 113 -170q7 -30 7 -56q0 -88 -68 -134q-58 -40 -151 -40z
" />
    <glyph glyph-name="six" unicode="6" horiz-adv-x="584" 
d="M396 426q-18 87 -80 135t-151 48q-69 0 -112 -29q-50 -34 -50 -99q0 -19 4 -40l20 -96q49 72 175 72q106 0 184 -54q82 -58 104 -159q5 -26 5 -49q0 -81 -64 -124q-55 -37 -141 -37q-105 0 -183 53q-82 57 -103 157l-3 11q1 3 0 8l-47 220q-6 26 -6 49q0 82 66 124
q56 37 142 37q112 0 189.5 -59t100.5 -168h-50zM360 329q-44 30 -77 38q-22 6 -72 6q-69 0 -112 -29q-50 -34 -50 -99q0 -19 5 -41q17 -80 82 -125q62 -42 146 -42q68 0 112 29q51 34 50 98q0 19 -4 40q-17 80 -80 125z" />
    <glyph glyph-name="seven" unicode="7" horiz-adv-x="584" 
d="M221 0h-54l179 599h-422l-10 47h500z" />
    <glyph glyph-name="eight" unicode="8" horiz-adv-x="601" 
d="M303 -11q-115 0 -197 44q-97 51 -119 155q-5 23 -5 43q0 92 104 125q-108 41 -127 129q-5 21 -5 40q0 132 207 132q102 0 172 -37q85 -44 104 -135q3 -15 3 -28q0 -67 -78 -101q145 -41 172 -170q6 -24 6 -45q0 -85 -81 -123q-60 -29 -156 -29zM171 610q-164 0 -164 -97
q0 -13 3 -29q12 -55 85 -84q60 -24 127 -24q58 0 104 18q62 25 62 74q0 9 -2 18q-27 124 -215 124zM232 329q-197 0 -197 -110q0 -15 3 -32q32 -151 255 -151q194 0 194 118q0 16 -4 33q-30 142 -251 142z" />
    <glyph glyph-name="nine" unicode="9" horiz-adv-x="584" 
d="M444 433l51 -239q5 -26 5 -48q0 -82 -66 -124q-56 -37 -142 -37q-112 0 -188 57q-79 59 -102 168h50q19 -88 80 -135t152 -47q68 0 111 30q51 35 51 99q0 18 -5 39l-23 115q-50 -71 -176 -71q-106 0 -183 53q-82 57 -104 157q-5 26 -5 50q0 81 63 124q56 38 141 38
q106 0 183 -54q83 -58 104 -158l3 -11v-6zM311 575q-43 30 -76 38q-22 6 -73 6q-69 0 -111 -29q-50 -34 -50 -99q0 -19 4 -41q17 -80 83 -125q61 -42 146 -42q68 0 111 29q51 34 51 97q0 19 -5 41q-17 80 -80 125z" />
    <glyph glyph-name="colon" unicode=":" horiz-adv-x="244" 
d="M48 355q-26 0 -32 24l-13 61q-5 25 21 25q25 0 30 -24l13 -62q6 -24 -19 -24zM123 -2q-26 0 -31 25l-13 61q-5 24 21 24q25 0 30 -24l13 -61q5 -25 -20 -25z" />
    <glyph glyph-name="semicolon" unicode=";" horiz-adv-x="251" 
d="M68 354q-26 0 -32 25l-13 61q-5 25 21 25q25 0 30 -25l13 -61q6 -25 -19 -25zM144 -72q-1 -19 -20 -19q-27 0 -32 23q0 2 1 9l11 147q2 23 27 17q21 -5 24 -22q1 -4 0 -8z" />
    <glyph glyph-name="less" unicode="&#x3c;" horiz-adv-x="535" 
d="M-14 220l-8 41l422 177l10 -49l-354 -149l418 -149l10 -49z" />
    <glyph glyph-name="equal" unicode="=" horiz-adv-x="630" 
d="M-23 271l-9 42h560l9 -42h-560zM0 167l-9 42h560l9 -42h-560z" />
    <glyph glyph-name="greater" unicode="&#x3e;" horiz-adv-x="535" 
d="M24 42l-10 49l354 149l-418 149l-10 49l498 -177l8 -41z" />
    <glyph glyph-name="question" unicode="?" 
d="M307 359q-75 -71 -75 -116q0 -13 6 -40l8 -37h-52l-7 32q-4 20 -4 39q0 77 68 143q45 44 58 65q23 37 13 83q-13 62 -75 93q-50 26 -121 26q-157 0 -157 -142q0 -15 1 -32l-52 26q-15 195 199 195q90 0 159 -39q79 -45 97 -127q3 -16 3 -31q0 -72 -69 -138zM254 0
q-25 0 -30 25l-13 62q-6 24 19 24q26 0 32 -24l13 -62q5 -25 -21 -25z" />
    <glyph glyph-name="at" unicode="@" horiz-adv-x="840" 
d="M507 203q-53 -78 -166 -79q-102 -1 -169 70q-45 48 -59 113q-8 36 -8 67q0 67 34 116q52 76 167 77q117 2 178 -75l-5 75h48l29 -372q1 -3 1 -7h4q20 0 45 22q21 20 31 41q24 55 24 107q0 67 -39 129q-36 57 -96 96q-101 66 -224 66q-143 0 -223 -82q-61 -64 -61 -157
q0 -33 8 -70q29 -137 148 -223q114 -82 258 -82q83 0 155 35q81 39 109 110h59q-31 -91 -123 -143q-83 -48 -186 -48q-167 0 -301 96q-140 100 -174 260q-9 40 -9 77q0 106 73 180q92 93 253 93q148 0 265 -76q127 -83 156 -221q7 -30 7 -58q0 -66 -34 -125q-18 -32 -49 -54
q-34 -23 -68 -23q-52 0 -58 65zM429 488q-33 25 -59 31q-18 5 -60 4q-89 -1 -130 -65q-27 -41 -27 -94q0 -26 6 -55q15 -67 60.5 -104t113.5 -37q78 1 123 52t40 129q-1 14 -5 34q-15 69 -62 105z" />
    <glyph glyph-name="A" unicode="A" horiz-adv-x="636" 
d="M598 0l-142 213h-362l-54 -213h-58l174 678h47l451 -678h-56zM196 604l-90 -343h319z" />
    <glyph glyph-name="B" unicode="B" horiz-adv-x="642" 
d="M359 0h-325l-144 678h338q97 0 166 -42q79 -47 98 -136q3 -17 3 -32q0 -73 -83 -112q140 -38 168 -167q5 -22 5 -42q0 -80 -78 -118q-58 -29 -148 -29zM236 631h-285l54 -255h284q61 0 101 20q53 26 53 81q0 13 -3 28q-14 65 -78 98q-53 28 -126 28zM297 329h-282
l60 -282h286q67 0 113 22q59 29 59 90q0 13 -3 29q-16 76 -88 112q-59 29 -145 29z" />
    <glyph glyph-name="C" unicode="C" horiz-adv-x="719" 
d="M534 528q-100 110 -268 110q-114 0 -183 -53q-77 -59 -77 -168q0 -38 9 -79q29 -137 128 -217.5t239 -80.5q161 0 223 112l50 -28q-74 -131 -262 -131q-163 0 -278.5 91t-149.5 250q-10 48 -10 90q-1 99 55 166q78 95 246 95q195 0 315 -130z" />
    <glyph glyph-name="D" unicode="D" horiz-adv-x="680" 
d="M277 0h-235l-144 678h273q166 0 270 -88t139 -252q10 -48 10 -89q0 -129 -95 -194q-81 -55 -218 -55zM180 631h-221l124 -584h187q119 0 188 46q80 53 80 165q0 36 -9 80q-62 293 -349 293z" />
    <glyph glyph-name="E" unicode="E" horiz-adv-x="564" 
d="M42 0l-144 678h516l10 -47h-466l54 -255h413l10 -46h-413l60 -283h471l10 -47h-521z" />
    <glyph glyph-name="F" unicode="F" horiz-adv-x="505" 
d="M-42 631l54 -255h368l10 -46h-368l70 -330h-50l-144 678h480l10 -47h-430z" />
    <glyph glyph-name="G" unicode="G" horiz-adv-x="758" 
d="M392 -7q-170 0 -288 88q-122 91 -157 256q-10 47 -10 89q-1 100 55 166q78 93 246 93q280 0 381 -239h-52q-85 192 -318 192q-115 0 -184 -52q-76 -58 -76 -168q0 -37 9 -80q31 -144 135 -222q100 -76 249 -76q94 0 161 42q78 49 78 138q0 22 -6 46l-3 18h-291l-10 47
h340q10 -33 14 -53q7 -35 7 -67q0 -109 -88 -167q-77 -51 -192 -51z" />
    <glyph glyph-name="H" unicode="H" horiz-adv-x="680" 
d="M587 0l-70 330h-494l70 -330h-51l-144 678h51l64 -302h494l-64 302h51l144 -678h-51z" />
    <glyph glyph-name="I" unicode="I" horiz-adv-x="134" 
d="M42 0l-144 678h51l144 -678h-51z" />
    <glyph glyph-name="J" unicode="J" horiz-adv-x="486" 
d="M224 -7q-202 0 -257 175h52q38 -128 191 -128q68 0 100 18q42 23 42 83q0 27 -7 61l-101 476h51l102 -482q8 -34 8 -62q0 -141 -181 -141z" />
    <glyph glyph-name="K" unicode="K" horiz-adv-x="670" 
d="M616 0l-454 357l-122 -110l53 -247h-51l-144 678h51l79 -371l420 371h81l-332 -292l490 -386h-71z" />
    <glyph glyph-name="L" unicode="L" horiz-adv-x="505" 
d="M42 0l-144 678h51l134 -631h428l10 -47h-479z" />
    <glyph glyph-name="M" unicode="M" horiz-adv-x="819" 
d="M725 0l-124 582l-171 -582h-41l-420 582l124 -582h-51l-144 678h58l438 -609l181 609h57l144 -678h-51z" />
    <glyph glyph-name="N" unicode="N" horiz-adv-x="680" 
d="M585 0l-620 602l128 -602h-51l-144 678h53q123 -122 310 -301q232 -221 309 -298l-127 599h51l144 -678h-53z" />
    <glyph glyph-name="O" unicode="O" horiz-adv-x="757" 
d="M515 5q-37 -12 -135 -12q-167 0 -282 91.5t-150 254.5q-10 49 -10 92q0 124 88 188q78 56 210 56q166 0 280 -86q117 -89 151 -250q10 -49 10 -92q0 -97 -53 -161t-109 -81zM489 553q-67 51 -122 66q-36 9 -121 9q-114 0 -181 -48q-75 -54 -75 -162q0 -36 9 -79
q30 -140 129 -219.5t242 -79.5q116 0 183 52q73 57 72 167q0 37 -9 80q-29 138 -127 214z" />
    <glyph glyph-name="P" unicode="P" horiz-adv-x="621" 
d="M283 296h-253l63 -296h-51l-144 678h315q247 0 288 -194q5 -22 5 -41q0 -79 -76 -117q-59 -30 -147 -30zM229 631h-270l61 -288h271q63 0 107 24q54 30 54 88q0 14 -3 29q-31 147 -220 147z" />
    <glyph glyph-name="Q" unicode="Q" horiz-adv-x="757" 
d="M499 7q36 -26 84 -26h107l10 -47h-107q-85 0 -148 61q-30 -4 -64 -4q-168 0 -283 92t-150 255q-10 49 -10 92q0 125 88 189q78 56 210 56q166 0 281.5 -88t149.5 -249q10 -48 10 -91q0 -188 -178 -240zM489 552q-67 52 -122 67q-36 9 -121 9q-114 0 -181 -48
q-75 -55 -75 -162q0 -37 9 -80q28 -129 117 -208q9 46 49 72q36 23 85 23q68 0 125.5 -41t70.5 -106q4 -15 13 -30q166 41 166 210q0 37 -9 80q-29 138 -127 214zM397 79q-10 46 -49.5 73t-87.5 27q-41 0 -68 -21q-31 -24 -28 -63q91 -57 207 -57q22 0 41 2q-11 19 -15 39z
" />
    <glyph glyph-name="R" unicode="R" horiz-adv-x="642" 
d="M422 331q113 -41 138 -159l37 -172h-51l-36 170q-28 133 -214 133h-267l64 -303h-51l-144 678h327q238 0 276 -178q5 -25 5 -46q0 -87 -84 -123zM237 631h-278l59 -279h262q69 0 115 22q59 29 59 91q0 15 -4 32q-28 134 -213 134z" />
    <glyph glyph-name="S" unicode="S" horiz-adv-x="642" 
d="M331 -7q-133 0 -223 49q-108 58 -134 177l-5 24h51l5 -20q38 -183 297 -183q75 0 127 19q74 28 74 91q0 12 -3 25q-11 51 -47 79q-28 22 -85 38q-26 7 -149 32q-135 27 -184 50q-101 46 -121 137q-4 21 -4 39q0 135 235 135q280 0 330 -218h-50q-27 100 -99 139
q-59 32 -171 32q-192 0 -193 -100q0 -13 3 -27q14 -62 79 -93q46 -22 147 -39q190 -33 258 -69q82 -44 102 -138q4 -18 4 -34q0 -79 -88 -117q-65 -28 -156 -28z" />
    <glyph glyph-name="T" unicode="T" horiz-adv-x="545" 
d="M164 631l134 -631h-51l-134 631h-259l-10 47h569l10 -47h-259z" />
    <glyph glyph-name="U" unicode="U" horiz-adv-x="664" 
d="M333 -7q-290 0 -345 263l-90 422h51l90 -422q45 -216 284 -216q200 0 200 150q0 29 -7 63l-90 425h51l90 -424q9 -44 9 -81q0 -180 -243 -180z" />
    <glyph glyph-name="V" unicode="V" horiz-adv-x="628" 
d="M340 0h-43l-451 678h54l404 -606l137 606h54z" />
    <glyph glyph-name="W" unicode="W" horiz-adv-x="970" 
d="M689 0h-43l-236 364l-78 -364h-43l-440 678h54l392 -604l73 353l-162 251h54l392 -605l127 605h53z" />
    <glyph glyph-name="X" unicode="X" horiz-adv-x="604" 
d="M570 0l-332 311l-203 -311h-65l226 349l-355 329h67l314 -292l192 292h66l-215 -330l370 -348h-65z" />
    <glyph glyph-name="Y" unicode="Y" horiz-adv-x="626" 
d="M269 328l70 -328h-51l-70 328l-395 350h66l345 -304l216 304h65z" />
    <glyph glyph-name="Z" unicode="Z" horiz-adv-x="626" 
d="M22 0l-10 45l383 586h-478l-10 47h546l9 -44l-382 -587h515l10 -47h-583z" />
    <glyph glyph-name="bracketleft" unicode="[" horiz-adv-x="233" 
d="M122 -168l-192 902h148l10 -48h-97l172 -806h97l10 -48h-148z" />
    <glyph glyph-name="backslash" unicode="\" horiz-adv-x="350" 
d="M320 0l-500 694h54l500 -694h-54z" />
    <glyph glyph-name="bracketright" unicode="]" horiz-adv-x="233" 
d="M182 -168h-147l-10 48h96l-6 32l-166 774h-96l-10 48h148z" />
    <glyph glyph-name="asciicircum" unicode="^" horiz-adv-x="298" 
d="M94 511l-73 82l-39 -82h-56l64 135h38l126 -135h-60z" />
    <glyph glyph-name="underscore" unicode="_" 
d="M10 -119l-10 48h555l10 -48h-555z" />
    <glyph glyph-name="grave" unicode="`" horiz-adv-x="193" 
d="M43 529q-10 0 -22 7l-101 72q-43 31 -46 45q-1 8 8 14q15 13 37 -3l134 -100q8 -6 10 -14q2 -10 -5 -15.5t-15 -5.5z" />
    <glyph glyph-name="a" unicode="a" horiz-adv-x="564" 
d="M463 -1l-18 88q-47 -98 -183 -98q-114 0 -195 70.5t-105 183.5q-8 37 -8 69q0 91 57 140q54 48 147 48q134 0 219 -95l-20 93h51l106 -499h-51zM163 453q-93 0 -133 -62q-24 -37 -24 -89q0 -28 6 -59q20 -93 82 -148q65 -59 157 -59q75 0 120.5 41t45.5 114q0 25 -6 52
q-20 98 -85 154t-163 56z" />
    <glyph glyph-name="b" unicode="b" horiz-adv-x="564" 
d="M294 -10q-129 0 -219 98l19 -88h-51l-144 678h51l56 -265q45 95 179 95q118 0 200 -74q79 -70 104 -188q8 -38 8 -72q0 -89 -57 -138q-53 -46 -146 -46zM199 460q-165 0 -165 -149q0 -31 8 -67q20 -92 87.5 -149.5t160.5 -57.5q73 0 114 39t41 110q0 28 -7 61
q-20 96 -80 152q-64 61 -159 61z" />
    <glyph glyph-name="c" unicode="c" 
d="M276 -11q-117 0 -200.5 66.5t-107.5 180.5q-8 37 -8 70q0 95 62 146q58 48 157 48q174 0 248 -152l-42 -23q-61 128 -198 128q-81 0 -126 -39q-49 -42 -49 -119q0 -28 7 -59q20 -93 85.5 -146.5t160.5 -53.5q158 0 156 140l52 -21q-5 -166 -197 -166z" />
    <glyph glyph-name="d" unicode="d" horiz-adv-x="564" 
d="M463 0l-19 88q-46 -99 -182 -99q-115 0 -197 73q-79 70 -104 185q-8 38 -8 71q0 66 33 114q52 75 170 75q134 0 219 -95l-56 266h51l144 -678h-51zM161 460q-92 0 -131 -63q-25 -39 -25 -92q0 -27 6 -58q20 -93 82 -150q66 -61 158 -61t136 62q29 41 29 97q0 24 -6 52
q-20 99 -85 156t-164 57z" />
    <glyph glyph-name="e" unicode="e" 
d="M13 226q50 -190 241 -190q145 0 166 119h52q-16 -166 -210 -166q-120 0 -198.5 67.5t-104.5 186.5q-7 36 -7 67q0 91 57 140.5t150 49.5q114 0 197 -64t106 -174l8 -35zM169 453q-76 0 -120 -39q-47 -40 -47 -114q0 -13 2 -27h400q-23 83 -86 131.5t-149 48.5z" />
    <glyph glyph-name="f" unicode="f" horiz-adv-x="267" 
d="M37 477l6 -32h111l11 -48h-111l84 -398h-51l-84 398h-72l-11 48h72l-6 32q-6 26 -6 49q1 140 219 140l10 -46q-177 0 -176 -109q0 -16 4 -34z" />
    <glyph glyph-name="g" unicode="g" horiz-adv-x="545" 
d="M304 -179q-213 0 -259 176h51q38 -129 199 -129q158 0 158 113q0 19 -5 43l-14 64q-49 -88 -177 -88q-112 0 -191.5 68.5t-103.5 179.5q-7 35 -7 66q0 90 55 138t148 48q126 0 208 -90l-17 79h51l99 -466q7 -31 7 -57q0 -145 -202 -145zM166 453q-89 0 -132 -60
q-27 -39 -27 -92q0 -24 6 -52q19 -89 79 -144q64 -58 153 -58q73 0 117.5 37.5t44.5 108.5q0 25 -6 53q-19 88 -82 146q-66 61 -153 61z" />
    <glyph glyph-name="h" unicode="h" 
d="M429 0l-69 324q-14 67 -65 102q-47 34 -118 34q-67 0 -107.5 -35t-39.5 -101q0 -21 5 -46l59 -278h-51l-144 678h51l53 -249q41 79 163 79q90 0 155 -43q70 -47 88 -132l71 -333h-51z" />
    <glyph glyph-name="i" unicode="i" horiz-adv-x="136" 
d="M-56 577q-16 0 -28 20l-15 70q5 20 20 20q12 0 31 -18l16 -74q-11 -18 -24 -18zM43 0l-105 496h51l105 -496h-51z" />
    <glyph glyph-name="j" unicode="j" horiz-adv-x="136" 
d="M-56 577q-16 0 -28 19l-15 71q5 20 20 20q12 0 31 -18l16 -75q-11 -17 -24 -17zM-125 -179l-10 47q175 0 174 117q0 19 -5 41l-99 469h51l100 -470q6 -31 6 -57q-1 -147 -217 -147z" />
    <glyph glyph-name="k" unicode="k" horiz-adv-x="532" 
d="M464 0l-316 272l-95 -79l41 -193h-51l-144 678h51l90 -426l291 245l91 -2l-239 -194l350 -301h-69z" />
    <glyph glyph-name="l" unicode="l" horiz-adv-x="136" 
d="M43 0l-144 678h51l144 -678h-51z" />
    <glyph glyph-name="m" unicode="m" horiz-adv-x="817" 
d="M722 0l-68 319q-28 134 -158 134q-57 0 -92 -26q-39 -30 -39 -84q0 -17 4 -37l65 -306h-51l-68 319q-28 134 -161 134q-76 0 -107 -55q-17 -31 -17 -73q0 -24 6 -51l58 -274h-51l-104 489h51l14 -64q40 75 150 75q113 0 175 -86q32 86 155 86q183 0 219 -172l70 -328h-51
z" />
    <glyph glyph-name="n" unicode="n" 
d="M429 0l-68 319q-28 134 -182 134q-67 0 -106 -33q-42 -35 -42 -99q0 -22 5 -47l58 -274h-51l-104 489h51l14 -67q42 78 164 78q90 0 154 -42q70 -46 88 -130l70 -328h-51z" />
    <glyph glyph-name="o" unicode="o" horiz-adv-x="545" 
d="M274 -11q-117 0 -202 70t-110 185q-7 36 -7 67q0 91 61 142q57 47 152 47q118 0 202.5 -70t109.5 -186q8 -36 8 -67q0 -91 -62 -141q-57 -47 -152 -47zM342 396q-46 39 -83 50q-25 7 -82 7q-77 0 -122 -37q-48 -41 -48 -115q0 -27 6 -57q20 -95 88 -151.5t164 -56.5
q77 0 123.5 39t46.5 113q0 26 -6 56q-20 94 -87 152z" />
    <glyph glyph-name="p" unicode="p" horiz-adv-x="564" 
d="M297 -18q-133 0 -220 96l53 -246h-51l-140 657h51l18 -85q46 96 178 96q118 0 198 -70t105 -187q9 -40 9 -75q0 -91 -53.5 -138.5t-147.5 -47.5zM202 453q-75 0 -120.5 -40t-45.5 -113q0 -26 6 -56q21 -100 83 -156q65 -59 166 -59q74 0 115 39.5t41 111.5q0 29 -7 62
q-20 92 -82 150q-65 61 -156 61z" />
    <glyph glyph-name="q" unicode="q" horiz-adv-x="564" 
d="M498 -168l-52 242q-42 -92 -184 -92q-112 0 -196 76q-80 73 -104 185q-7 35 -7 66q0 67 35 118q51 73 166 73q135 0 220 -96l-18 85h51l140 -657h-51zM324 394q-46 41 -83 52q-24 7 -80 7q-72 0 -113 -40.5t-41 -111.5q0 -27 7 -59q19 -91 81 -150q66 -63 157 -63
q78 0 122.5 37.5t44.5 112.5q0 29 -7 63q-20 93 -88 152z" />
    <glyph glyph-name="r" unicode="r" horiz-adv-x="318" 
d="M59 373q-17 -38 -17 -89q0 -40 10 -88l42 -196h-51l-104 489h51l18 -83q10 23 29 41q54 53 164 53l10 -47q-118 0 -152 -80z" />
    <glyph glyph-name="s" unicode="s" horiz-adv-x="486" 
d="M252 -13q-223 0 -266 200h53q18 -81 69 -118q48 -33 134 -33q130 0 130 74q0 9 -2 19q-13 60 -118 83q-10 2 -103 16q-155 23 -178 130q-3 16 -3 30q0 57 52 88q44 25 106 25q215 0 252 -178h-54q-15 72 -63 102q-43 27 -120 27q-45 0 -77 -16q-42 -20 -42 -60
q0 -9 2 -18q13 -60 114 -77q28 -5 110 -19q152 -25 175 -133q3 -17 3 -31q0 -62 -60 -90q-45 -21 -114 -21z" />
    <glyph glyph-name="t" unicode="t" horiz-adv-x="263" 
d="M67 420l89 -420h-49l-91 420h-99l-10 47h99l-32 147h51l32 -147h101l10 -47h-101z" />
    <glyph glyph-name="u" unicode="u" 
d="M429 -1l-14 68q-43 -78 -163 -78q-94 0 -158 45q-68 47 -87 137l-68 317h51l67 -316q29 -136 185 -136q146 0 146 130q0 26 -7 58l-56 264h51l104 -489h-51z" />
    <glyph glyph-name="v" unicode="v" horiz-adv-x="471" 
d="M268 0h-46l-340 488h59l289 -423l96 423h56z" />
    <glyph glyph-name="w" unicode="w" horiz-adv-x="771" 
d="M560 0h-47l-180 267l-57 -267h-46l-329 488h58l279 -421l54 263l-108 158h59l278 -421l86 421h55z" />
    <glyph glyph-name="x" unicode="x" horiz-adv-x="467" 
d="M430 0l-243 216l-150 -216h-66l176 253l-259 235h66l218 -200l136 200h64l-159 -235l283 -253h-66z" />
    <glyph glyph-name="y" unicode="y" 
d="M279 -179q-212 0 -258 176h51q38 -129 199 -129q158 0 158 113q0 19 -5 43l-8 37q-42 -79 -162 -79q-94 0 -159 46q-68 48 -87 138l-69 322h51l69 -321q29 -138 185 -138q145 0 145 132q0 27 -7 59l-57 268h51l99 -465q7 -31 7 -56q0 -146 -203 -146z" />
    <glyph glyph-name="z" unicode="z" horiz-adv-x="473" 
d="M13 0l-9 42l275 399h-331l-10 47h401l9 -41l-275 -400h377l10 -47h-447z" />
    <glyph glyph-name="braceleft" unicode="{" horiz-adv-x="350" 
d="M279 -168q-93 0 -116 107l-47 221q-12 56 -31 73q-11 11 -68 33l-7 35q24 11 54 32q6 9 6 26q0 19 -6 47l-47 221q-5 21 -5 38q0 69 75 69h26l10 -48h-25q-29 0 -32 -25q-2 -14 7 -58l42 -199q14 -66 -2 -95q-7 -13 -28 -26q27 -13 39 -25q28 -28 43 -96l42 -198
q9 -45 17 -59q14 -25 44 -25h25l10 -48h-26z" />
    <glyph glyph-name="bar" unicode="|" horiz-adv-x="233" 
d="M98 -32l-157 738h51l157 -738h-51z" />
    <glyph glyph-name="braceright" unicode="}" horiz-adv-x="350" 
d="M158 233q-5 -9 -5 -26q0 -19 6 -47l47 -221q4 -21 4 -38q0 -69 -74 -69h-26l-10 48h25q29 0 32 25q2 14 -7 59l-42 198q-15 68 1 96q7 12 29 25q-27 13 -40 26q-28 29 -42 95l-42 199q-9 44 -17 58q-15 25 -44 25h-25l-10 48h26q93 0 116 -107l47 -221q13 -61 35 -76
q16 -11 63 -29l7 -35q-23 -11 -54 -33z" />
    <glyph glyph-name="asciitilde" unicode="~" horiz-adv-x="548" 
d="M305 351q-32 0 -121 30q-83 28 -103 28q-54 0 -53 -59h-62q-2 50 27 77t81 27q31 0 118 -30q84 -29 104 -29q56 0 54 61h62q2 -53 -28.5 -79t-78.5 -26z" />
    <glyph glyph-name="nonbreakingspace" unicode="&#xa0;" 
 />
    <glyph glyph-name="exclamdown" unicode="&#xa1;" horiz-adv-x="194" 
d="M-2 472q-26 0 -31 24l-14 62q-5 25 21 25q25 0 30 -25l14 -62q5 -24 -20 -24zM91 -95l-109 512h51l109 -512h-51z" />
    <glyph glyph-name="cent" unicode="&#xa2;" 
d="M277 -12q-63 0 -118 20l-13 -44h-54l20 67q-115 69 -144 205q-8 38 -8 71q0 97 61 148q58 48 157 48q35 0 69 -8l17 56h54l-22 -72q85 -37 131 -130l-42 -23q-40 81 -101 110l-112 -385q43 -16 94 -16q157 0 155 141l52 -21q-4 -167 -196 -167zM186 456q-80 0 -127 -40.5
t-47 -118.5q0 -29 7 -61q22 -106 105 -161l110 376q-23 5 -48 5z" />
    <glyph glyph-name="currency" unicode="&#xa4;" horiz-adv-x="584" 
d="M440 191l-118 84q-38 -27 -93 -27q-56 0 -104 28l-84 -85l-43 30l85 86q-51 46 -51 106q0 31 17 56l-122 87l30 30l122 -86q36 26 90 26q55 0 103 -26l84 86l44 -30l-85 -86q52 -47 52 -108q0 -31 -16 -56l120 -85zM180 481q-38 0 -66 -18q-32 -20 -32 -56q0 -54 51 -87
q40 -27 87 -27q38 0 66 18q32 21 32 57q0 57 -54 90q-38 23 -84 23z" />
    <glyph glyph-name="yen" unicode="&#xa5;" horiz-adv-x="645" 
d="M279 328l8 -36h212l10 -47h-212l16 -74h212l10 -48h-212l26 -123h-51l-26 123h-212l-10 48h212l-16 74h-212l-10 47h212l-8 36l-395 350h66l345 -304l216 304h65z" />
    <glyph glyph-name="brokenbar" unicode="&#xa6;" horiz-adv-x="233" 
d="M14 364l-71 332h51l71 -332h-51zM96 -23l-71 332h51l71 -332h-51z" />
    <glyph glyph-name="section" unicode="&#xa7;" horiz-adv-x="584" 
d="M373 145q87 -35 102 -109q4 -15 4 -29q0 -57 -52 -88q-44 -27 -105 -27q-213 0 -251 178h51q28 -131 185 -131q46 0 78 15q42 21 42 62q0 10 -3 20q-13 62 -95 77l-161 30q-52 15 -92 50q-45 40 -52 88q-1 11 -1 20q0 70 71 96q-87 35 -103 110q-3 15 -3 29q0 57 52 88
q44 27 105 27q214 0 252 -179h-51q-28 132 -185 132q-46 0 -79 -17q-42 -21 -42 -61q0 -61 69 -86q22 -8 134 -29q49 -4 94 -23q88 -37 105 -115q4 -18 4 -33q0 -68 -73 -95zM203 366q-120 0 -128 -69q3 -61 74 -95q53 -25 114 -25q130 0 130 77q0 8 -2 17q-43 95 -188 95z
" />
    <glyph glyph-name="dieresis" unicode="&#xa8;" horiz-adv-x="214" 
d="M49 547q-25 0 -30 20l-8 38q-4 19 21 19q26 0 30 -19l8 -38q5 -20 -21 -20zM-66 547q-26 0 -31 20l-8 38q-4 19 22 19q25 0 29 -19l8 -38q5 -20 -20 -20z" />
    <glyph glyph-name="copyright" unicode="&#xa9;" horiz-adv-x="560" 
d="M235 236q-107 0 -191 56q-91 61 -112 161q-5 24 -5 45q0 82 68 130q60 44 145 44q104 0 190 -58q93 -62 114 -160q5 -24 5 -45q0 -82 -68 -130q-61 -43 -146 -43zM152 624q-67 0 -116 -33q-55 -38 -55 -103q0 -16 3 -34q17 -76 90 -125q68 -46 149 -46q67 0 116 33
q56 38 56 103q0 16 -4 34q-17 76 -89 125q-68 46 -150 46zM228 308q-71 0 -123 37q-55 39 -69 106q-4 18 -4 34q0 52 41 80q35 25 91 25q121 0 166 -118h-54q-30 70 -103 70q-86 0 -86 -69q0 -10 2 -22q10 -45 45.5 -70t82.5 -25q61 0 69 73h56q-12 -121 -114 -121z" />
    <glyph glyph-name="ordfeminine" unicode="&#xaa;" horiz-adv-x="378" 
d="M223 348l-7 32q-34 -38 -102 -38q-72 0 -124.5 43.5t-67.5 114.5q-5 22 -5 41q0 57 38 88q35 29 94 29q68 0 116 -36l-8 35h53l66 -309h-53zM146 581q-24 21 -44 26q-13 4 -45 4q-86 0 -86 -80q0 -15 4 -31q10 -51 44.5 -81t84.5 -30q40 0 65 22.5t25 60.5q0 13 -3 28
q-11 51 -45 81z" />
    <glyph glyph-name="guillemotleft" unicode="&#xab;" horiz-adv-x="391" 
d="M117 258l-6 31l154 116l11 -53l-101 -78l135 -79l10 -50zM1 258l-6 31l154 116l11 -53l-101 -78l135 -79l10 -50z" />
    <glyph glyph-name="logicalnot" unicode="&#xac;" horiz-adv-x="602" 
d="M476 134l-27 126h-470l-9 42h521l36 -168h-51z" />
    <glyph glyph-name="minus" unicode="&#xad;" horiz-adv-x="592" 
d="M-14 231l-4 19h507l4 -19h-507z" />
    <glyph glyph-name="minus" unicode="&#x2212;" horiz-adv-x="592" 
d="M-14 231l-4 19h507l4 -19h-507z" />
    <glyph glyph-name="registered" unicode="&#xae;" horiz-adv-x="543" 
d="M224 236q-105 0 -190 57q-91 61 -112 160q-5 24 -5 45q0 82 68 130q60 44 145 44q105 0 190 -58q92 -62 113 -160q5 -25 5 -47q0 -83 -68 -130q-60 -41 -146 -41zM141 624q-67 0 -115 -33q-55 -37 -55 -102q0 -16 3 -35q17 -79 89 -126q66 -45 150 -45q67 0 116 33
q55 37 55 102q0 71 -52 127q-73 79 -191 79zM279 447q26 -19 33 -54l17 -77h-54l-16 76q-7 31 -52 31h-73l23 -107h-53l-58 270h129q99 0 116 -79q3 -11 3 -20q0 -24 -15 -40zM186 537h-76l14 -65h71q51 0 43 34q-6 31 -52 31z" />
    <glyph glyph-name="macron" unicode="&#xaf;" horiz-adv-x="313" 
d="M-107 597l-4 19h274l4 -19h-274z" />
    <glyph glyph-name="macron" unicode="&#x2c9;" horiz-adv-x="313" 
d="M-107 597l-4 19h274l4 -19h-274z" />
    <glyph glyph-name="degree" unicode="&#xb0;" horiz-adv-x="420" 
d="M128 385q-66 0 -121 35q-59 39 -73 100q-2 13 -2 26q0 51 44 82q40 27 94 27q65 0 120 -35q60 -38 73 -99q3 -14 3 -27q0 -52 -44 -82q-40 -27 -94 -27zM80 611q-37 0 -65 -17q-33 -20 -33 -55q0 -52 50 -84q40 -26 87 -26q38 0 65 17q33 20 33 56q0 55 -54 87
q-37 22 -83 22z" />
    <glyph glyph-name="plusminus" unicode="&#xb1;" horiz-adv-x="630" 
d="M292 226l35 -164h-51l-35 164h-191l-10 46h191l-34 161h51l34 -161h192l10 -46h-192zM100 -3l-10 47h434l10 -47h-434z" />
    <glyph glyph-name="twosuperior" unicode="&#xb2;" horiz-adv-x="392" 
d="M-33 256q-6 25 -6 47q0 86 94 146q31 20 95 61q35 23 30 45q-13 59 -113 59q-96 0 -96 -74q0 -18 5 -40h-54q-6 28 -6 51q0 111 137 111q70 0 119 -26q63 -33 63 -97q0 -43 -58 -78l-77 -46q-85 -51 -86 -112h293l10 -47h-350z" />
    <glyph glyph-name="threesuperior" unicode="&#xb3;" horiz-adv-x="426" 
d="M164 252q-80 0 -136 31q-66 37 -82 110l-5 24h55l7 -33q10 -43 58 -66q39 -18 89 -18q41 0 71 11q43 16 43 51q0 47 -46 68q-34 17 -86 17h-51l-10 48h52q94 0 94 48q0 71 -125 71q-106 0 -106 -73q0 -16 4 -35h-54q-5 26 -5 48q2 108 150 108q66 0 115 -22
q62 -28 74 -84q2 -12 2 -23q0 -41 -35 -62q65 -29 79 -96q3 -13 3 -24q0 -52 -54 -79q-42 -20 -101 -20z" />
    <glyph glyph-name="acute" unicode="&#xb4;" horiz-adv-x="212" 
d="M-45 536q-6 -7 -18 -7q-27 0 -32 20q-1 8 5 15l92 101q7 8 19 8q26 0 30 -21q2 -9 -4 -16z" />
    <glyph glyph-name="mu1" unicode="&#xb5;" 
d="M324 -15q-22 -3 -47 -3q-121 0 -196 78l49 -231h-51l-140 659h51l57 -268q19 -89 74 -138q57 -53 146 -53q131 0 131 98q0 19 -5 41l-68 320h51l69 -321q5 -27 5 -49q0 -75 -61 -110q-11 -7 -9 -19q7 -33 88 -33l11 -51q-52 0 -92 16q-54 21 -63 64z" />
    <glyph glyph-name="paragraph" unicode="&#xb6;" horiz-adv-x="496" 
d="M426 -133l-162 764h-56l162 -764h-51l-79 371q-101 -1 -184 60q-86 63 -106 160q-5 24 -5 46q0 83 68 131q62 44 148 44q4 0 8 -1h136l172 -811h-51z" />
    <glyph glyph-name="periodcentered" unicode="&#xb7;" horiz-adv-x="209" 
d="M59 280q-26 0 -30 21l-10 46q-4 20 22 20q25 0 29 -20l10 -46q4 -21 -21 -21z" />
    <glyph glyph-name="periodcentered" unicode="&#x2219;" horiz-adv-x="209" 
d="M59 280q-26 0 -30 21l-10 46q-4 20 22 20q25 0 29 -20l10 -46q4 -21 -21 -21z" />
    <glyph glyph-name="cedilla" unicode="&#xb8;" horiz-adv-x="259" 
d="M160 -174q-39 0 -116 19l15 40q58 -16 89 -16q66 0 59 30q-3 18 -50 21q-28 2 -51 -9l-6 26l-6 72h50l8 -46q97 0 111 -67q2 -8 2 -15q-1 -55 -105 -55z" />
    <glyph glyph-name="onesuperior" unicode="&#xb9;" horiz-adv-x="287" 
d="M113 260l-69 323l-79 -54h-94l173 124h41l84 -393h-56z" />
    <glyph glyph-name="ordmasculine" unicode="&#xba;" horiz-adv-x="413" 
d="M131 350q-76 0 -132 39q-60 42 -75 114q-4 19 -4 35q0 59 46 91q40 27 103 27q75 0 132 -39q60 -42 75 -114q4 -19 4 -35q0 -59 -47 -91q-40 -27 -102 -27zM75 614q-44 0 -72 -20q-33 -23 -33 -65q0 -12 3 -26q11 -53 54 -83q40 -28 96 -28q45 0 74 19q33 22 33 65
q0 13 -3 27q-11 53 -55 83q-40 28 -97 28z" />
    <glyph glyph-name="guillemotright" unicode="&#xbb;" horiz-adv-x="381" 
d="M141 145l-10 50l101 79l-135 78l-11 53l204 -116l6 -31zM25 145l-10 50l101 79l-135 78l-11 53l204 -116l6 -31z" />
    <glyph glyph-name="onequarter" unicode="&#xbc;" horiz-adv-x="816" 
d="M651 131l28 -131h-50l-28 131h-274l110 279h56l-92 -234h191l-50 235l50 -2l50 -233h92l9 -45h-92zM231 0h-54l200 694h54zM137 252l-71 336l-82 -58h-86l165 123h40l85 -401h-51z" />
    <glyph glyph-name="onehalf" unicode="&#xbd;" horiz-adv-x="803" 
d="M423 0q-4 23 -4 43q0 98 98 159l78 48q46 28 40 56q-14 64 -116 64q-97 0 -97 -77q0 -19 5 -42h-49q-6 28 -6 51q0 112 134 112q70 0 118 -27q61 -33 61 -98q0 -35 -50 -72l-80 -52q-90 -59 -88 -121h292l9 -44h-345zM220 0h-54l201 694h54zM126 252l-71 336l-81 -58h-87
l165 123h40l85 -401h-51z" />
    <glyph glyph-name="threequarters" unicode="&#xbe;" horiz-adv-x="906" 
d="M742 131l28 -131h-50l-28 131h-274l111 279h56l-93 -234h191l-50 235l50 -2l50 -233h92l9 -45h-92zM322 0h-54l201 694h54zM177 244q-185 0 -215 142l-5 23h49l7 -31q9 -46 59 -70q40 -19 93 -19q42 0 73 12q42 17 42 53q0 7 -1 14q-17 78 -136 78h-48l-9 44h49
q97 0 97 51q0 6 -2 13q-13 63 -127 63q-108 0 -108 -76q0 -16 4 -35h-49q-4 24 -4 44q0 111 147 111q67 0 114 -22q60 -27 72 -85q3 -12 3 -22q0 -43 -41 -65q72 -31 87 -99q2 -13 2 -24q0 -52 -53 -79q-43 -21 -100 -21z" />
    <glyph glyph-name="questiondown" unicode="&#xbf;" 
d="M152 488q-25 0 -30 24l-13 62q-5 25 20 25q26 0 31 -25l13 -62q5 -24 -21 -24zM266 -95q-91 0 -160 39q-79 45 -96 128q-4 17 -4 33q0 47 31 88q27 31 79 93q32 40 32 85q0 13 -2 26l-8 37h52l7 -33q4 -19 4 -38q0 -77 -70 -144q-44 -43 -57 -64q-23 -38 -13 -83
q13 -62 75 -94q51 -26 121 -26q156 0 156 137q0 18 -2 39l54 -29q14 -194 -199 -194z" />
    <glyph glyph-name="Agrave" unicode="&#xc0;" horiz-adv-x="676" 
d="M264 695q-16 -12 -35 4l-139 119q-10 8 -11 17q-3 11 7 18q5 6 13 6q11 0 23 -10l139 -118q9 -8 11 -18q3 -11 -8 -18zM618 0l-143 215h-362l-53 -215h-58l173 684h47l452 -684h-56zM214 610l-89 -347h319z" />
    <glyph glyph-name="Aacute" unicode="&#xc1;" horiz-adv-x="676" 
d="M154 701q-7 -9 -18 -9q-26 0 -31 24q-2 10 3 17l89 118q8 10 18 10q25 0 30 -24q2 -10 -3 -17zM618 0l-143 215h-362l-53 -215h-58l173 684h47l452 -684h-56zM214 610l-89 -347h319z" />
    <glyph glyph-name="Acircumflex" unicode="&#xc2;" horiz-adv-x="676" 
d="M271 687l-100 103l-56 -103h-58l84 160h37l155 -160h-62zM618 0l-143 215h-362l-53 -215h-58l173 684h47l452 -684h-56zM215 609l-90 -346h319z" />
    <glyph glyph-name="Atilde" unicode="&#xc3;" horiz-adv-x="676" 
d="M266 701q-21 0 -82 28q-55 25 -65 25q-25 0 -25 -34q0 -13 3 -32l-54 30q-2 11 -2 20q0 28 20.5 45.5t49.5 17.5q18 0 80 -28q55 -25 65 -25q26 0 26 35q0 12 -3 29l53 -26q5 -40 -14.5 -62.5t-51.5 -22.5zM618 0l-143 215h-362l-53 -215h-58l173 683h47l452 -683h-56z
M215 608l-90 -346h319z" />
    <glyph glyph-name="Adieresis" unicode="&#xc4;" horiz-adv-x="676" 
d="M250 696q-25 0 -30 25l-12 53q-5 25 20 25q26 0 31 -25l12 -53q5 -25 -21 -25zM135 696q-26 0 -31 25l-12 53q-5 25 21 25q25 0 30 -25l12 -53q5 -25 -20 -25zM618 0l-143 215h-362l-53 -215h-58l173 682h47l452 -682h-56zM215 608l-90 -346h319z" />
    <glyph glyph-name="Aring" unicode="&#xc5;" horiz-adv-x="676" 
d="M190 703q-45 0 -78 29q-36 31 -36 74q0 31 23 49t54 18q40 0 71.5 -23.5t40.5 -61.5q2 -10 2 -19q0 -31 -22.5 -48.5t-54.5 -17.5zM618 0l-143 216h-362l-53 -216h-58l172 685h47l453 -685h-56zM164 823q-33 0 -34 -24q0 -5 2 -11q7 -36 47 -36q35 0 35 26q0 45 -50 45z
M214 610l-89 -347h319z" />
    <glyph glyph-name="AE" unicode="&#xc6;" horiz-adv-x="1077" 
d="M575 0l-70 330h-253l-233 -330h-65l479 678h464l10 -47h-414l54 -254h46v-1h315l10 -46h-361l61 -283h418l10 -47h-471zM286 377h209l-46 227z" />
    <glyph glyph-name="Ccedilla" unicode="&#xc7;" horiz-adv-x="719" 
d="M534 527q-99 110 -267 110q-116 0 -185 -55q-76 -60 -75 -171q0 -35 9 -76q29 -138 128 -219t240 -81q161 0 222 112l48 -27q-71 -133 -259 -133q-164 0 -279.5 92.5t-149.5 251.5q-11 50 -11 94q0 97 55 164q78 96 246 96q195 0 315 -131zM411 -174q-39 0 -117 21l15 44
q58 -17 89 -17q65 0 58 34q-5 20 -51 24q-28 3 -50 -10l-7 29l-9 81h51l9 -52q97 0 113 -76q2 -10 2 -18q0 -60 -103 -60z" />
    <glyph glyph-name="Egrave" unicode="&#xc8;" horiz-adv-x="564" 
d="M209 686q-16 -14 -37 4l-138 118q-10 8 -12 18t8 17q7 7 14 7q10 0 21 -10l140 -118q8 -7 10 -17q3 -12 -6 -19zM42 0l-145 684h516l10 -48h-466l54 -256h413l10 -47h-413l61 -285h471l10 -48h-521z" />
    <glyph glyph-name="Eacute" unicode="&#xc9;" horiz-adv-x="564" 
d="M98 690q-6 -9 -18 -9q-26 0 -31 24q-2 10 4 17l88 118q7 9 18 9q27 0 32 -24q1 -9 -5 -17zM42 0l-145 684h516l10 -48h-466l54 -256h413l10 -47h-413l61 -285h471l10 -48h-521z" />
    <glyph glyph-name="Ecircumflex" unicode="&#xca;" horiz-adv-x="564" 
d="M210 697l-100 103l-56 -103h-58l84 160h37l156 -160h-63zM42 0l-145 684h516l10 -47h-466l54 -257h413l10 -47h-413l61 -285h471l10 -48h-521z" />
    <glyph glyph-name="Edieresis" unicode="&#xcb;" horiz-adv-x="564" 
d="M190 704q-26 0 -31 25l-11 53q-6 25 20 25q25 0 31 -25l11 -53q5 -25 -20 -25zM74 704q-25 0 -30 25l-11 53q-6 25 19 25q26 0 32 -25l11 -53q5 -25 -21 -25zM42 0l-145 683h516l10 -48h-466l54 -256h413l10 -46h-413l61 -286h471l10 -47h-521z" />
    <glyph glyph-name="Igrave" unicode="&#xcc;" horiz-adv-x="134" 
d="M-9 701q-17 -13 -37 4l-138 118q-10 8 -12 17q-2 11 7 19q16 14 37 -4l138 -118q9 -7 11 -17q3 -12 -6 -19zM42 0l-145 684h51l145 -684h-51z" />
    <glyph glyph-name="Iacute" unicode="&#xcd;" horiz-adv-x="134" 
d="M-119 701q-7 -9 -18 -9q-27 0 -32 24q-2 9 4 17l88 118q8 10 19 10q26 0 31 -24q2 -9 -4 -17zM42 0l-145 684h51l145 -684h-51z" />
    <glyph glyph-name="Icircumflex" unicode="&#xce;" horiz-adv-x="134" 
d="M-3 693l-100 103l-58 -103h-57l84 160h37l156 -160h-62zM42 0l-145 684h51l145 -684h-51z" />
    <glyph glyph-name="Idieresis" unicode="&#xcf;" horiz-adv-x="134" 
d="M-26 711q-25 0 -31 26l-11 53q-5 24 20 24q26 0 31 -24l11 -53q6 -26 -20 -26zM-141 711q-27 0 -33 26l-11 53q-5 24 22 24q25 0 30 -24l11 -53q1 -5 1 -9q0 -17 -20 -17zM42 0l-145 683h51l145 -683h-51z" />
    <glyph glyph-name="Eth" unicode="&#xd0;" horiz-adv-x="680" 
d="M277 0h-235l-67 316h-37l-10 48h37l-67 314h273q166 0 270 -88t139 -252q10 -48 10 -89q0 -129 -95 -194q-81 -55 -218 -55zM180 631h-221l57 -267h198l10 -48h-198l57 -269h187q119 0 188 46q80 53 80 165q0 36 -9 80q-62 293 -349 293z" />
    <glyph glyph-name="Ntilde" unicode="&#xd1;" horiz-adv-x="680" 
d="M312 718q-20 -23 -52 -23q-20 0 -82 28q-55 25 -65 25q-25 0 -25 -34q0 -13 3 -32l-53 30q-2 10 -2 19q0 27 20 45.5t48 18.5q20 0 81 -28q55 -25 65 -25q26 0 26 36q0 11 -2 27l52 -24q1 -9 1 -17q0 -28 -15 -46zM585 0l-621 606l129 -606h-51l-145 682h53
q123 -123 310 -303q232 -221 310 -300l-128 603h51l145 -682h-53z" />
    <glyph glyph-name="Ograve" unicode="&#xd2;" horiz-adv-x="757" 
d="M302 699q-15 -12 -34 4l-140 118q-10 10 -12 19q-4 21 23 21q12 0 22 -8l138 -118q8 -7 10 -17q3 -12 -7 -19zM515 5q-37 -12 -135 -12q-167 0 -282.5 92.5t-150.5 256.5q-10 49 -10 91q-1 126 87 190q78 58 210 58q167 0 282.5 -88.5t149.5 -250.5q11 -51 11 -95
q0 -96 -53 -160.5t-109 -81.5zM488 558q-67 52 -122 67q-37 9 -122 9q-114 0 -180 -49q-75 -54 -75 -162q0 -38 9 -81q30 -140 129.5 -220.5t242.5 -80.5q115 0 181 51q74 57 74 166q0 39 -10 84q-29 140 -127 216z" />
    <glyph glyph-name="Oacute" unicode="&#xd3;" horiz-adv-x="757" 
d="M190 706q-8 -8 -17 -8q-26 0 -31 23q-2 10 4 17l88 119q12 17 35 4q12 -7 15 -18q2 -10 -4 -18zM515 5q-37 -12 -135 -12q-167 0 -282.5 92.5t-150.5 256.5q-10 49 -10 91q-1 126 87 190q78 58 210 58q167 0 282.5 -88.5t149.5 -250.5q11 -51 11 -95q0 -96 -53 -160.5
t-109 -81.5zM488 558q-67 52 -122 67q-37 9 -122 9q-114 0 -180 -49q-75 -54 -75 -162q0 -38 9 -81q30 -140 129.5 -220.5t242.5 -80.5q115 0 181 51q74 57 74 166q0 39 -10 84q-29 140 -127 216z" />
    <glyph glyph-name="Ocircumflex" unicode="&#xd4;" horiz-adv-x="757" 
d="M306 705l-101 102l-57 -102h-57l83 159h36l157 -159h-61zM515 5q-37 -12 -135 -12q-167 0 -282.5 92.5t-150.5 256.5q-10 49 -10 91q-1 126 87 190q78 58 210 58q167 0 282.5 -88.5t149.5 -250.5q11 -51 11 -95q0 -96 -53 -160.5t-109 -81.5zM488 558q-67 52 -122 67
q-37 9 -122 9q-114 0 -180 -49q-75 -54 -75 -162q0 -38 9 -81q30 -140 129.5 -220.5t242.5 -80.5q115 0 181 51q74 57 74 166q0 39 -10 84q-29 140 -127 216z" />
    <glyph glyph-name="Otilde" unicode="&#xd5;" horiz-adv-x="757" 
d="M296 716q-20 0 -81 28q-55 25 -65 25q-26 0 -26 -42q0 -11 2 -24l-52 30q-2 10 -2 19q0 27 20.5 45.5t48.5 18.5q19 0 81 -28q54 -25 64 -25q27 0 27 35q0 12 -3 29l53 -26q3 -40 -16 -62.5t-51 -22.5zM515 5q-37 -12 -135 -12q-167 0 -282.5 92.5t-149.5 255.5
q-11 48 -11 90q-1 126 87 191q78 58 210 58q168 0 283 -88.5t150 -250.5q10 -51 10 -96q-1 -95 -53.5 -159t-108.5 -81zM488 557q-67 52 -122 67q-36 9 -122 9q-113 0 -180 -49q-75 -54 -75 -162q0 -38 10 -81q29 -140 128.5 -220t242.5 -80q115 0 182 51q73 57 73 167
q0 38 -9 82q-30 140 -128 216z" />
    <glyph glyph-name="Odieresis" unicode="&#xd6;" horiz-adv-x="757" 
d="M286 711q-26 0 -32 26l-11 53q-5 24 21 24q25 0 30 -24l11 -53q6 -26 -19 -26zM170 711q-25 0 -31 26l-11 53q-5 24 20 24q26 0 31 -24l11 -53q6 -26 -20 -26zM515 5q-37 -12 -135 -12q-167 0 -282.5 92.5t-149.5 255.5q-11 48 -11 90q-1 126 87 191q78 58 210 58
q168 0 283 -88.5t150 -250.5q10 -51 10 -96q-1 -95 -53.5 -159t-108.5 -81zM488 557q-67 51 -122 66q-36 9 -121 9q-114 0 -181 -48q-75 -55 -75 -163q0 -37 10 -80q29 -140 128.5 -220t242.5 -80q115 0 182 51q73 57 73 167q0 38 -9 82q-30 140 -128 216z" />
    <glyph glyph-name="multiply" unicode="&#xd7;" horiz-adv-x="490" 
d="M358 109l-160 111l-113 -109l-42 30l110 111l-157 109l32 31l157 -110l112 110l44 -32l-112 -108l160 -113z" />
    <glyph glyph-name="Oslash" unicode="&#xd8;" horiz-adv-x="757" 
d="M516 4q-38 -12 -135 -12q-76 0 -142 20l-12 -41h-54l18 59q-54 24 -100 63q-111 95 -143 246q-10 49 -10 91q0 125 88 189q78 57 209 57q75 0 139 -17l13 45h54l-17 -62q197 -85 243 -303q10 -50 10 -93q0 -97 -52.5 -161t-108.5 -81zM410 598l-157 -542q55 -17 118 -17
q115 0 181 51q73 57 73 167q0 38 -9 82q-41 191 -206 259zM245 629q-113 0 -180 -48q-75 -55 -75 -162q0 -37 9 -80q28 -130 123 -212q40 -34 81 -52l158 540q-54 14 -116 14z" />
    <glyph glyph-name="Ugrave" unicode="&#xd9;" horiz-adv-x="664" 
d="M258 691q-13 -11 -36 3l-139 120q-10 8 -12 17q-2 10 8 18q15 14 36 -4l138 -117q10 -8 12 -18q2 -11 -7 -19zM333 -7q-290 0 -346 265l-90 426h51l90 -425q46 -218 285 -218q199 0 200 150q0 29 -7 64l-91 429h51l91 -428q9 -45 9 -81q0 -182 -243 -182z" />
    <glyph glyph-name="Uacute" unicode="&#xda;" horiz-adv-x="664" 
d="M146 697q-6 -8 -18 -8q-26 0 -31 23q-2 10 4 18l88 117q7 10 19 10q26 0 31 -24q2 -9 -4 -17zM333 -7q-290 0 -346 265l-90 426h51l90 -425q46 -218 285 -218q199 0 200 150q0 29 -7 64l-91 429h51l91 -428q9 -45 9 -81q0 -182 -243 -182z" />
    <glyph glyph-name="Ucircumflex" unicode="&#xdb;" horiz-adv-x="664" 
d="M262 695l-102 103l-56 -103h-58l84 160h37l156 -160h-61zM333 -7q-290 0 -346 265l-90 426h51l90 -425q46 -218 285 -218q199 0 200 150q0 29 -7 64l-91 429h51l91 -428q9 -45 9 -81q0 -182 -243 -182z" />
    <glyph glyph-name="Udieresis" unicode="&#xdc;" horiz-adv-x="664" 
d="M239 711q-26 0 -32 26l-11 53q-5 24 21 24q25 0 30 -24l11 -53q6 -26 -19 -26zM123 711q-25 0 -31 26l-11 53q-5 24 20 24q26 0 31 -24l11 -53q6 -26 -20 -26zM333 -7q-290 0 -346 264l-90 426h51l90 -425q46 -217 285 -217q200 0 200 150q0 29 -7 63l-91 429h51l91 -428
q9 -44 9 -80q0 -182 -243 -182z" />
    <glyph glyph-name="Yacute" unicode="&#xdd;" horiz-adv-x="657" 
d="M143 701q-7 -9 -18 -9q-26 0 -31 24q-2 10 3 17l89 118q8 10 19 10q26 0 31 -24q2 -9 -4 -17zM285 331l70 -331h-51l-70 331l-396 353h66l345 -306l216 306h65z" />
    <glyph glyph-name="Thorn" unicode="&#xde;" horiz-adv-x="425" 
d="M199 168h-141l36 -168h-51l-144 678h51l31 -147h142q149 0 188 -184q8 -35 8 -63q1 -116 -120 -116zM132 483h-141l58 -270l142 1q75 1 75 80q0 23 -7 53q-29 136 -127 136z" />
    <glyph glyph-name="germandbls" unicode="&#xdf;" horiz-adv-x="505" 
d="M203 -30l-10 47q208 0 209 137q0 23 -5 50q-21 95 -105 144q-73 42 -178 42l-10 48q106 0 142 15q42 18 42 61q0 11 -2 23q-14 66 -70 90q-39 16 -118 16q-117 0 -117 -93q0 -18 5 -41l108 -510h-51l-83 391h-35l-10 49h35q-9 40 -18 96q-3 18 -3 35q0 120 161 120
q218 0 246 -148q3 -18 3 -33q0 -73 -73 -97q45 -18 89 -57q75 -67 93 -151q6 -32 6 -60q0 -174 -251 -174z" />
    <glyph glyph-name="agrave" unicode="&#xe0;" horiz-adv-x="552" 
d="M217 510q-16 -12 -35 4l-139 117q-10 8 -12 18q-2 11 7 18q6 6 14 6q11 0 23 -10l138 -117q8 -7 11 -17q2 -12 -7 -19zM463 0l-19 88q-46 -99 -182 -99q-115 0 -197 73q-79 70 -104 185q-8 38 -8 71q0 66 33 114q52 75 170 75q134 0 220 -96l-20 94h51l107 -505h-51z
M161 460q-92 0 -131 -63q-25 -39 -25 -92q0 -27 6 -58q20 -94 82 -151q65 -60 158 -60q92 0 136 62q29 41 29 97q0 24 -6 52q-20 99 -85 156t-164 57z" />
    <glyph glyph-name="aacute" unicode="&#xe1;" horiz-adv-x="552" 
d="M117 514q-9 -8 -18 -8q-26 0 -30 23q-2 9 4 17l88 117q8 10 19 10q25 0 30 -23q2 -11 -3 -18zM475 0l-19 88q-46 -99 -182 -99q-115 0 -197 73q-79 70 -104 185q-8 38 -8 71q0 66 33 114q52 75 170 75q134 0 220 -96l-20 94h51l107 -505h-51zM173 460q-92 0 -131 -63
q-25 -39 -25 -92q0 -27 6 -58q20 -94 82 -151q65 -60 158 -60q92 0 136 62q29 41 29 97q0 24 -6 52q-20 99 -85 156t-164 57z" />
    <glyph glyph-name="acircumflex" unicode="&#xe2;" horiz-adv-x="552" 
d="M232 517l-100 100l-58 -100h-57l84 157h36l156 -157h-61zM475 0l-19 88q-46 -99 -182 -99q-115 0 -197 73q-79 70 -104 185q-8 38 -8 71q0 66 33 114q52 75 170 75q134 0 220 -96l-20 94h51l107 -505h-51zM173 460q-92 0 -131 -63q-25 -39 -25 -92q0 -27 6 -58
q20 -94 82 -151q65 -60 158 -60q92 0 136 62q29 41 29 97q0 24 -6 52q-20 99 -85 156t-164 57z" />
    <glyph glyph-name="atilde" unicode="&#xe3;" horiz-adv-x="552" 
d="M221 527q-21 0 -82 27q-56 25 -64 25q-26 0 -26 -42q0 -10 2 -23l-52 30q-2 10 -2 18q0 27 20.5 45.5t48.5 18.5q18 0 81 -28q53 -24 64 -24q27 0 27 35q0 11 -2 28l52 -26q4 -40 -15.5 -62t-51.5 -22zM475 0l-19 88q-46 -99 -182 -99q-114 0 -197 73q-79 70 -103 184
q-8 38 -8 71q0 66 32 114q52 75 170 75q134 0 220 -96l-20 94h51l107 -504h-51zM173 459q-91 0 -131 -64q-25 -39 -25 -92q0 -27 7 -57q20 -93 81 -150q65 -60 158 -60q75 0 120.5 42t45.5 115q0 25 -6 53q-21 99 -86 156t-164 57z" />
    <glyph glyph-name="adieresis" unicode="&#xe4;" horiz-adv-x="552" 
d="M224 522q-26 0 -31 25l-12 53q-5 24 21 24q25 0 30 -24l12 -53q5 -25 -20 -25zM108 522q-25 0 -30 25l-12 53q-5 24 20 24q26 0 31 -24l12 -53q5 -25 -21 -25zM475 -1l-19 89q-46 -99 -182 -99q-114 0 -197 73q-79 70 -103 184q-8 37 -8 70q0 66 33 114q52 76 169 76
q134 0 220 -96l-20 94h51l107 -505h-51zM173 459q-91 0 -131 -64q-25 -39 -25 -92q0 -27 7 -57q20 -93 81 -150q65 -60 158 -60q75 0 120.5 42t45.5 115q0 25 -6 53q-21 99 -86 156t-164 57z" />
    <glyph glyph-name="aring" unicode="&#xe5;" horiz-adv-x="552" 
d="M157 531q-39 0 -71.5 23.5t-40.5 60.5q-2 10 -2 19q0 31 23 48.5t55 17.5q44 0 78 -30.5t34 -73.5q0 -30 -22 -47.5t-54 -17.5zM475 0l-19 88q-46 -99 -182 -99q-115 0 -197 73q-79 70 -104 185q-8 38 -8 72q0 90 56 141q54 48 147 48q134 0 219 -96l-20 94h51l108 -506
h-51zM132 651q-35 0 -35 -26q0 -45 50 -45q33 0 33 24q1 5 -1 11q-7 36 -47 36zM173 461q-91 0 -131 -64q-25 -39 -25 -92q0 -27 6 -58q20 -93 82 -150q66 -61 158 -61t136 62q29 41 29 97q0 24 -6 52q-21 99 -84 155q-66 59 -165 59z" />
    <glyph glyph-name="ae" unicode="&#xe6;" horiz-adv-x="984" 
d="M466 226l2 -9q38 -181 238 -181q145 0 166 119h52q-17 -166 -210 -166q-134 0 -215 82l15 -72h-51l-18 88q-47 -98 -183 -98q-114 0 -195 70.5t-105 183.5q-8 37 -8 69q0 91 57 140q54 48 147 48q134 0 219 -95l-20 93h51l20 -94q55 96 182 96q114 0 197 -64t106 -174
l8 -35zM620 453q-69 0 -116 -36q-52 -39 -52 -105q0 -19 4 -39v0h399q-23 83 -86 131.5t-149 48.5zM163 453q-93 0 -133 -62q-24 -37 -24 -89q0 -28 6 -59q20 -93 82 -148q65 -59 157 -59q75 0 120.5 41t45.5 114q0 25 -6 52q-20 98 -85 154t-163 56z" />
    <glyph glyph-name="ccedilla" unicode="&#xe7;" 
d="M278 -18q-117 0 -201 67.5t-108 182.5q-8 38 -8 73q0 95 61 147q58 48 157 48q83 0 147.5 -40t99.5 -114l-40 -24q-62 131 -199 131q-80 0 -127 -41.5t-47 -118.5q0 -29 7 -61q20 -94 85.5 -148.5t161.5 -54.5q157 0 155 142l52 -21q-2 -85 -58 -128q-51 -40 -138 -40z
M306 -22q96 0 111 -74q2 -10 2 -18q0 -60 -103 -60q-38 0 -116 21l13 44q60 -18 90 -18q66 0 59 34q-4 20 -51 24q-29 3 -51 -10l-6 29l-7 80h50z" />
    <glyph glyph-name="egrave" unicode="&#xe8;" 
d="M227 510q-15 -10 -35 4l-140 118q-10 8 -12 18q-5 21 22 21q14 0 22 -7l139 -118q10 -8 12 -17q2 -12 -8 -19zM12 229q51 -193 242 -193q145 0 166 121h52q-16 -168 -210 -168q-121 0 -201 70q-77 67 -103 188q-7 36 -7 68q0 71 37 120q54 72 169 72t198 -64.5
t106 -176.5l8 -36zM167 460q-76 0 -120.5 -40t-44.5 -115q0 -13 1 -28h400q-23 84 -86 133.5t-150 49.5z" />
    <glyph glyph-name="eacute" unicode="&#xe9;" 
d="M205 634l-91 -118q-8 -8 -17 -8q-26 0 -31 23q-2 9 5 17l88 117q12 16 36 4q11 -8 13 -18q1 -7 -3 -17zM12 229q51 -193 242 -193q145 0 166 121h52q-16 -168 -210 -168q-121 0 -201 70q-77 67 -103 188q-7 36 -7 68q0 71 37 120q54 72 169 72t198 -64.5t106 -176.5
l8 -36zM167 460q-76 0 -120.5 -40t-44.5 -115q0 -13 1 -28h400q-23 84 -86 133.5t-150 49.5z" />
    <glyph glyph-name="ecircumflex" unicode="&#xea;" 
d="M230 517l-100 100l-58 -100h-58l86 157h37l154 -157h-61zM12 229q51 -193 242 -193q145 0 166 121h52q-16 -168 -210 -168q-121 0 -201 70q-77 67 -103 188q-7 36 -7 68q0 71 37 120q54 72 169 72t198 -64.5t106 -176.5l8 -36zM167 460q-76 0 -120.5 -40t-44.5 -115
q0 -13 1 -28h400q-23 84 -86 133.5t-150 49.5z" />
    <glyph glyph-name="edieresis" unicode="&#xeb;" 
d="M210 522q-25 0 -30 25l-12 53q-5 24 20 24q26 0 31 -24l12 -53q5 -25 -21 -25zM95 522q-26 0 -31 25l-12 53q-5 24 21 24q25 0 30 -24l12 -53q5 -25 -20 -25zM12 229q51 -193 242 -193q145 0 166 120h52q-16 -167 -210 -167q-122 0 -200 68t-103 189q-8 36 -8 68
q0 71 37 120q54 72 169 72t198 -65t107 -176l7 -35zM167 459q-76 0 -120.5 -40t-44.5 -115q0 -13 1 -28h400q-23 84 -86 133.5t-150 49.5z" />
    <glyph glyph-name="igrave" unicode="&#xec;" horiz-adv-x="136" 
d="M32 510q-15 -10 -35 4l-139 117q-10 8 -12 18q-2 11 7 18q6 6 14 6q10 0 22 -10l139 -117q10 -8 12 -17q2 -12 -8 -19zM43 0l-105 496h51l105 -496h-51z" />
    <glyph glyph-name="iacute" unicode="&#xed;" horiz-adv-x="136" 
d="M-78 511q-6 -9 -18 -9q-26 0 -31 23q-2 10 4 17l89 118q6 9 18 9q25 0 30 -24q2 -10 -3 -17zM43 0l-105 496h51l105 -496h-51z" />
    <glyph glyph-name="icircumflex" unicode="&#xee;" horiz-adv-x="136" 
d="M31 517l-93 99l-53 -99h-58l80 157h37l148 -157h-61zM43 0l-105 496h51l105 -496h-51z" />
    <glyph glyph-name="idieresis" unicode="&#xef;" horiz-adv-x="136" 
d="M18 522q-25 0 -30 26l-12 52q-5 24 20 24q26 0 31 -24l12 -52q5 -26 -21 -26zM-97 522q-26 0 -31 26l-12 52q-5 24 21 24q25 0 30 -24l12 -52q5 -26 -20 -26zM43 0l-105 494h51l105 -494h-51z" />
    <glyph glyph-name="eth" unicode="&#xf0;" horiz-adv-x="564" 
d="M463 0l-19 88q-46 -99 -182 -99q-115 0 -197 73q-79 70 -104 185q-8 38 -8 71q0 66 33 114q52 75 170 75q134 0 219 -95l-31 149h-332l-10 48h332l-15 69h51l144 -678h-51zM161 460q-92 0 -131 -63q-25 -39 -25 -92q0 -27 6 -58q20 -93 82 -150q66 -61 158 -61t136 62
q29 41 29 97q0 24 -6 52q-20 99 -85 156t-164 57z" />
    <glyph glyph-name="ntilde" unicode="&#xf1;" 
d="M222 527q-21 0 -82 27q-56 25 -65 25q-25 0 -25 -34q0 -12 3 -31l-54 30q-2 9 -2 17q0 27 21 46t48 19q18 0 81 -28q53 -24 65 -24q26 0 26 35q0 11 -2 28l52 -26q5 -39 -14.5 -61.5t-51.5 -22.5zM429 0l-69 323q-14 67 -65 102q-47 34 -118 34q-66 0 -106.5 -34.5
t-40.5 -99.5q0 -23 5 -48l59 -277h-51l-105 494h51l14 -67q41 79 163 79q91 0 155 -42q70 -47 88 -132l71 -332h-51z" />
    <glyph glyph-name="ograve" unicode="&#xf2;" horiz-adv-x="545" 
d="M237 510q-16 -12 -35 4l-139 117q-10 8 -12 18q-2 11 7 18q6 6 14 6q11 0 23 -10l138 -117q8 -7 11 -17q2 -12 -7 -19zM274 -11q-118 0 -203 71t-110 188q-7 36 -7 68q0 92 60 143q57 48 152 48q119 0 203.5 -71t109.5 -188q8 -36 8 -68q0 -93 -61 -143q-57 -48 -152 -48
zM341 402q-47 40 -84 51q-25 7 -82 7q-77 0 -123 -40t-46 -115q0 -26 6 -57q21 -95 89 -153.5t164 -58.5q77 0 123.5 40t46.5 114q0 28 -7 58q-20 95 -87 154z" />
    <glyph glyph-name="oacute" unicode="&#xf3;" horiz-adv-x="545" 
d="M127 510q-6 -8 -18 -8q-27 0 -32 24q-2 9 4 16l89 118q6 9 19 9q26 0 31 -24q2 -9 -4 -17zM274 -11q-118 0 -203 71t-110 188q-7 36 -7 68q0 92 60 143q57 48 152 48q119 0 203.5 -71t109.5 -188q8 -36 8 -68q0 -93 -61 -143q-57 -48 -152 -48zM341 402q-47 40 -84 51
q-25 7 -82 7q-77 0 -123 -40t-46 -115q0 -26 6 -57q21 -95 89 -153.5t164 -58.5q77 0 123.5 40t46.5 114q0 28 -7 58q-20 95 -87 154z" />
    <glyph glyph-name="ocircumflex" unicode="&#xf4;" horiz-adv-x="545" 
d="M241 517l-100 100l-59 -100h-58l86 157h36l156 -157h-61zM274 -11q-118 0 -203 71t-110 188q-7 36 -7 68q0 92 60 143q57 48 152 48q119 0 203.5 -71t109.5 -188q8 -36 8 -68q0 -93 -61 -143q-57 -48 -152 -48zM341 402q-47 40 -84 51q-25 7 -82 7q-77 0 -123 -40
t-46 -115q0 -26 6 -57q21 -95 89 -153.5t164 -58.5q77 0 123.5 40.5t46.5 114.5q0 27 -7 57q-20 96 -87 154z" />
    <glyph glyph-name="otilde" unicode="&#xf5;" horiz-adv-x="545" 
d="M229 527q-22 0 -83 27q-56 25 -63 25q-26 0 -26 -37q0 -12 3 -28l-54 30q-2 10 -2 19q0 28 20.5 45.5t49.5 17.5q17 0 80 -28q53 -24 65 -24q31 0 27 63l49 -26q3 -39 -15.5 -61.5t-50.5 -22.5zM274 -11q-118 0 -203 71t-110 187q-7 36 -7 68q0 92 60 143q57 48 152 48
q119 0 204 -71t109 -188q8 -36 8 -68q0 -92 -61 -142q-57 -48 -152 -48zM341 401q-47 40 -84 51q-24 7 -82 7q-77 0 -123 -39.5t-46 -114.5q0 -27 6 -58q21 -95 89 -153t164 -58q77 0 123.5 40t46.5 114q0 27 -7 57q-20 96 -87 154z" />
    <glyph glyph-name="odieresis" unicode="&#xf6;" horiz-adv-x="545" 
d="M220 522q-26 0 -31 25l-12 53q-5 24 21 24q25 0 30 -24l12 -53q5 -25 -20 -25zM104 522q-25 0 -30 25l-12 53q-5 24 20 24q26 0 31 -24l12 -53q5 -25 -21 -25zM274 -11q-118 0 -203 71t-110 187q-7 36 -7 67q0 92 61 144q57 48 151 48q119 0 204 -71t109 -188
q8 -36 8 -68q0 -92 -61 -142q-57 -48 -152 -48zM341 401q-46 40 -84 51q-24 7 -82 7q-77 0 -123 -40t-46 -115q0 -26 6 -57q21 -95 89 -153t164 -58q77 0 123.5 39.5t46.5 113.5q0 27 -7 58q-20 95 -87 154z" />
    <glyph glyph-name="divide" unicode="&#xf7;" horiz-adv-x="592" 
d="M234 291q-25 0 -30 24l-13 60q-5 23 20 23q26 0 31 -23l13 -60q5 -24 -21 -24zM-11 217l-10 46h507l10 -46h-507zM280 74q-25 0 -30 24l-12 59q-6 25 19 25q26 0 32 -25l12 -59q5 -24 -21 -24z" />
    <glyph glyph-name="oslash" unicode="&#xf8;" horiz-adv-x="545" 
d="M275 -13q-55 0 -102 15l-15 -49h-54l20 70q-130 70 -162 221q-7 36 -7 67q0 92 60 143q58 48 152 48q50 0 94 -12l18 59h54l-22 -80q136 -68 169 -225q8 -36 8 -67q0 -92 -59.5 -141t-153.5 -49zM346 391q-23 21 -50 35l-111 -380q37 -12 81 -12q76 0 122.5 40t46.5 114
q0 26 -6 56q-19 88 -83 147zM176 455q-77 0 -122 -38q-47 -41 -47 -115q0 -27 6 -58q25 -117 124 -176l111 378q-34 9 -72 9z" />
    <glyph glyph-name="ugrave" unicode="&#xf9;" 
d="M227 506q-16 -12 -34 4l-139 118q-10 8 -12 17q-2 10 5 17t15 7q11 0 23 -10l139 -117q10 -8 12 -18q2 -11 -9 -18zM429 0l-14 68q-43 -79 -163 -79q-94 0 -159 46q-68 49 -87 139l-68 322h51l68 -321q29 -139 185 -139q145 0 145 132q0 27 -6 59l-57 269h51l105 -496
h-51z" />
    <glyph glyph-name="uacute" unicode="&#xfa;" 
d="M117 514q-6 -8 -19 -8q-26 0 -30 23q-3 10 3 17l88 117q8 10 19 10q26 0 31 -24q2 -10 -4 -18zM429 0l-14 68q-43 -79 -163 -79q-94 0 -159 46q-68 49 -87 139l-68 322h51l68 -321q29 -139 185 -139q145 0 145 132q0 28 -6 60l-57 268h51l105 -496h-51z" />
    <glyph glyph-name="ucircumflex" unicode="&#xfb;" 
d="M230 517l-100 100l-58 -100h-58l86 157h37l154 -157h-61zM429 0l-14 68q-43 -79 -163 -79q-94 0 -159 46q-68 49 -87 139l-68 322h51l68 -321q29 -139 185 -139q145 0 145 133q0 27 -6 59l-57 268h51l105 -496h-51z" />
    <glyph glyph-name="udieresis" unicode="&#xfc;" 
d="M209 522q-25 0 -30 25l-12 53q-5 24 20 24q26 0 31 -24l12 -53q5 -25 -21 -25zM94 522q-26 0 -31 25l-12 53q-5 24 21 24q25 0 30 -24l12 -53q5 -25 -20 -25zM429 -1l-14 69q-43 -79 -163 -79q-94 0 -158 46q-69 48 -88 138l-68 321h51l68 -320q29 -138 185 -138
q146 0 146 132q0 27 -7 59l-57 267h51l105 -495h-51z" />
    <glyph glyph-name="yacute" unicode="&#xfd;" horiz-adv-x="506" 
d="M196 634l-90 -120q-9 -7 -18 -7q-27 0 -32 24q-2 9 6 16l88 118q12 17 36 4q11 -8 13 -18q1 -7 -3 -17zM279 -179q-212 0 -259 178h51q39 -130 200 -130q158 0 158 113q0 20 -6 44l-7 37q-42 -80 -162 -80q-95 0 -160 47q-68 50 -87 140l-69 324h51l69 -323
q29 -140 185 -140q145 0 145 133q0 27 -7 60l-57 270h51l100 -469q6 -31 6 -57q0 -147 -202 -147z" />
    <glyph glyph-name="thorn" unicode="&#xfe;" horiz-adv-x="564" 
d="M296 -16q-133 0 -219 96l53 -248h-51l-180 846h51l57 -268q45 96 177 96q119 0 201 -72q79 -70 104 -188q8 -40 8 -75q0 -91 -53.5 -139t-147.5 -48zM200 459q-75 0 -120.5 -41t-44.5 -116q0 -25 6 -54q22 -102 83 -158q65 -59 166 -59q74 0 115 40t41 112q0 29 -7 62
q-20 93 -81 151q-66 63 -158 63z" />
    <glyph glyph-name="ydieresis" unicode="&#xff;" horiz-adv-x="510" 
d="M202 521q-25 0 -30 26l-12 53q-5 24 20 24q26 0 31 -23l12 -54q5 -26 -21 -26zM87 521q-26 0 -31 26l-12 53q-5 24 21 24q25 0 30 -23l12 -54q5 -26 -20 -26zM279 -179q-212 0 -259 178h51q39 -131 200 -131q158 0 158 113q0 20 -5 44l-8 37q-42 -79 -162 -79
q-95 0 -160 46q-68 49 -87 140l-69 324h51l69 -323q30 -140 186 -140q145 0 145 133q0 27 -7 60l-58 270h51l100 -469q6 -31 6 -57q0 -146 -202 -146z" />
    <glyph glyph-name="dotlessi" unicode="&#x131;" horiz-adv-x="136" 
d="M43 0l-104 488h51l104 -488h-51z" />
    <glyph glyph-name="OE" unicode="&#x152;" horiz-adv-x="1010" 
d="M471 0q-39 -8 -86 -8q-166 0 -282.5 92t-151.5 253q-10 51 -10 95q1 95 53 158q77 93 244 93q34 0 67 -5h532l10 -47h-394q159 -84 208 -255h209l10 -46h-207q8 -44 8 -82q0 -131 -98 -201h394l10 -47h-516zM374 617l51 -241h185q-26 87 -88.5 150.5t-147.5 90.5z
M435 330l58 -272q65 25 100.5 78.5t35.5 124.5q0 32 -7 69h-187zM321 630q-35 6 -73 6q-115 0 -181 -52q-74 -57 -74 -166q0 -38 9 -81q30 -141 129.5 -220t243.5 -79q38 0 70 7z" />
    <glyph glyph-name="oe" unicode="&#x153;" horiz-adv-x="1052" 
d="M510 226q50 -190 241 -190q145 0 166 119h52q-17 -166 -210 -166q-174 0 -256 134q-20 -68 -78 -103q-52 -31 -127 -31q-117 0 -202 70t-110 185q-7 36 -7 67q0 91 61 142q57 47 152 47q173 0 264 -140q10 37 32 67q56 73 167 73q114 0 197 -64t106 -174l8 -35zM665 453
q-74 0 -119 -39q-47 -42 -47 -114q0 -13 2 -27h399q-23 83 -86 131.5t-149 48.5zM366 396q-46 39 -83 50q-25 7 -82 7q-77 0 -122 -37q-48 -41 -48 -115q0 -27 6 -57q20 -95 88 -151.5t164 -56.5q77 0 123.5 39t46.5 113q0 26 -6 56q-20 94 -87 152z" />
    <glyph glyph-name="Scaron" unicode="&#x160;" horiz-adv-x="642" 
d="M184 714h-37l-152 160h58l100 -102l56 102h62zM331 -7q-134 0 -224 49q-107 58 -133 179l-5 25h51l4 -21q39 -184 298 -184q75 0 127 19q73 28 73 91q0 12 -3 26q-11 51 -46 79q-28 22 -85 38q-29 8 -150 33q-77 16 -93 20q-53 13 -91 31q-101 47 -121 138q-4 21 -4 40
q0 135 235 135q280 0 330 -219h-50q-27 101 -99 140q-58 32 -171 32q-193 0 -193 -101q0 -13 3 -27q14 -63 79 -94q45 -21 148 -39q187 -32 257 -70q83 -44 103 -139q4 -18 4 -34q0 -80 -87 -119q-65 -28 -157 -28z" />
    <glyph glyph-name="scaron" unicode="&#x161;" horiz-adv-x="486" 
d="M146 526h-37l-151 158h58l99 -101l57 101h63zM252 -13q-223 0 -266 203h53q32 -154 203 -154q129 0 129 76q0 9 -2 19q-13 61 -118 84q-18 4 -103 17q-155 23 -178 132q-4 16 -4 30q0 57 53 89q43 26 105 26q215 0 253 -181h-54q-15 72 -63 103q-43 28 -121 28
q-45 0 -77 -16q-41 -20 -41 -60q0 -9 2 -19q13 -61 114 -79q37 -7 110 -19q152 -26 175 -135q4 -17 4 -32q0 -61 -60 -90q-45 -22 -114 -22z" />
    <glyph glyph-name="Ydieresis" unicode="&#x178;" horiz-adv-x="663" 
d="M243 711q-25 0 -31 26l-11 53q-5 24 20 24q26 0 31 -24l11 -53q6 -26 -20 -26zM128 711q-26 0 -32 26l-11 53q-5 24 21 24q25 0 30 -24l11 -53q6 -26 -19 -26zM288 330l70 -330h-51l-70 330l-397 353h67l345 -306l216 306h65z" />
    <glyph glyph-name="florin" unicode="&#x192;" horiz-adv-x="584" 
d="M468 619q-196 0 -205 -147l-2 -29h110l-2 -48h-110l-11 -376q-6 -187 -259 -187l1 47q201 0 205 133l12 383h-74l5 48h71l1 36q7 187 259 187z" />
    <glyph glyph-name="circumflex" unicode="&#x2c6;" horiz-adv-x="259" 
d="M92 540l-97 85l-61 -85h-58l91 134h35l152 -134h-62z" />
    <glyph glyph-name="caron" unicode="&#x2c7;" horiz-adv-x="136" 
d="M-37 549h-36l-146 135h58l97 -86l61 86h62z" />
    <glyph glyph-name="ring" unicode="&#x2da;" horiz-adv-x="136" 
d="M-57 569q-40 0 -74 23q-37 25 -37 64q0 28 27 45q23 14 53 14q40 0 73 -23q37 -25 37 -64q0 -28 -24.5 -43.5t-54.5 -15.5zM-79 672q-41 0 -34 -30q6 -30 47 -30t35 30q-7 30 -48 30z" />
    <glyph glyph-name="tilde" unicode="&#x2dc;" horiz-adv-x="366" 
d="M133 551q-19 0 -80 21q-52 18 -63 18q-28 0 -28 -30q0 -8 2 -18l-52 22q-1 6 -1 11q0 23 25 39q22 13 47 13q18 0 79 -21q52 -18 63 -18q29 0 29 30q0 8 -1 17l51 -20q2 -30 -18.5 -47t-52.5 -17z" />
    <glyph glyph-name="mu" unicode="&#x3bc;" horiz-adv-x="584" 
 />
    <glyph glyph-name="endash" unicode="&#x2013;" horiz-adv-x="495" 
d="M-69 254l-4 20h523l4 -20h-523z" />
    <glyph glyph-name="emdash" unicode="&#x2014;" horiz-adv-x="894" 
d="M-69 254l-4 20h922l4 -20h-922z" />
    <glyph glyph-name="quoteleft" unicode="&#x2018;" horiz-adv-x="175" 
d="M-17 517q-2 -16 -20 -16q-26 0 -31 21q-1 3 1 7l14 132q1 16 20 16q27 0 32 -21q0 -3 -1 -7z" />
    <glyph glyph-name="quoteright" unicode="&#x2019;" horiz-adv-x="175" 
d="M-16 517q-2 -16 -21 -16q-26 0 -31 20q-1 4 1 8l15 132q2 21 26 16q21 -5 25 -21q0 -3 -1 -7z" />
    <glyph glyph-name="quotesinglbase" unicode="&#x201a;" horiz-adv-x="292" 
d="M148 -74q-2 -17 -22 -17q-26 0 -30 21q-1 2 0 8l15 132q3 21 27 16q21 -5 24 -21q1 -3 0 -7z" />
    <glyph glyph-name="quotedblleft" unicode="&#x201c;" horiz-adv-x="267" 
d="M88 517q-2 -16 -20 -16q-26 0 -31 21q-1 3 1 7l14 132q1 16 20 16q27 0 32 -21q0 -3 -1 -7zM-17 517q-2 -16 -20 -16q-26 0 -31 21q-1 3 1 7l14 132q1 16 20 16q27 0 32 -21q0 -3 -1 -7z" />
    <glyph glyph-name="quotedblright" unicode="&#x201d;" horiz-adv-x="276" 
d="M89 517q-2 -16 -21 -16q-26 0 -31 20q-1 4 1 8l15 132q2 21 26 16q21 -5 25 -21q0 -3 -1 -7zM-16 517q-2 -16 -21 -16q-26 0 -31 20q-1 4 1 8l15 132q2 21 26 16q21 -5 25 -21q0 -3 -1 -7z" />
    <glyph glyph-name="quotedblbase" unicode="&#x201e;" horiz-adv-x="351" 
d="M253 -74q-2 -17 -22 -17q-26 0 -30 21q-1 2 0 8l15 132q3 21 27 16q21 -5 24 -21q1 -3 0 -7zM148 -74q-2 -17 -22 -17q-26 0 -30 21q-1 2 0 8l15 132q3 21 27 16q21 -5 24 -21q1 -3 0 -7z" />
    <glyph glyph-name="dagger" unicode="&#x2020;" horiz-adv-x="345" 
d="M95 449l107 -506h-51l-107 506h-117l-11 49h117l-26 123h51l26 -123h118l11 -49h-118z" />
    <glyph glyph-name="daggerdbl" unicode="&#x2021;" horiz-adv-x="337" 
d="M186 41l21 -98h-51l-21 98h-118l-10 48h118l-76 360h-118l-11 49h118l-26 123h51l26 -123h117l11 -49h-117l76 -360h117l10 -48h-117z" />
    <glyph glyph-name="bullet" unicode="&#x2022;" horiz-adv-x="292" 
d="M68 250q-21 0 -46 4q-37 7 -40 18l-22 106q-3 12 33 18q24 4 43 4q21 0 46 -4q37 -7 40 -18l22 -106q3 -12 -33 -18q-24 -4 -43 -4z" />
    <glyph glyph-name="ellipsis" unicode="&#x2026;" horiz-adv-x="638" 
d="M524 -2q-26 0 -30 20l-10 47q-4 20 22 20q25 0 29 -20l10 -47q4 -20 -21 -20zM335 -2q-26 0 -30 20l-10 47q-4 20 22 20q25 0 29 -20l10 -47q4 -20 -21 -20zM146 -2q-26 0 -30 20l-10 47q-4 20 22 20q25 0 29 -20l10 -47q4 -20 -21 -20z" />
    <glyph glyph-name="perthousand" unicode="&#x2030;" horiz-adv-x="1012" 
d="M850 -19q-148 0 -186 180q-8 39 -8 69q0 116 117 116q149 0 189 -185q8 -37 8 -66q0 -114 -120 -114zM148 -1h-62l354 679h61zM546 -19q-149 0 -187 180q-8 38 -8 69q0 116 118 116q148 0 188 -185q8 -37 8 -67q0 -113 -119 -113zM110 294q-148 0 -187 180q-8 40 -8 71
q2 113 118 113q149 0 188 -184q8 -36 8 -65q0 -115 -119 -115zM782 299q-73 0 -73 -81q0 -25 7 -57q28 -133 125 -133q75 0 75 80q0 23 -6 53q-30 138 -128 138zM478 299q-74 0 -74 -81q0 -25 7 -57q28 -133 126 -133q74 0 74 80q0 23 -6 53q-30 138 -127 138zM42 611
q-74 0 -74 -81q0 -24 7 -56q29 -133 126 -133q75 0 75 81q-1 23 -7 52q-29 137 -127 137z" />
    <glyph glyph-name="guilsinglleft" unicode="&#x2039;" horiz-adv-x="294" 
d="M1 258l-6 31l154 116l11 -53l-101 -78l135 -79l10 -50z" />
    <glyph glyph-name="guilsinglright" unicode="&#x203a;" horiz-adv-x="294" 
d="M25 145l-10 50l101 79l-135 78l-11 53l204 -116l6 -31z" />
    <glyph glyph-name="sterling" unicode="&#x20ac;" horiz-adv-x="584" 
d="M96 242q21 -94 89 -150.5t163 -56.5q94 0 146 68l45 -31q-65 -84 -180 -84q-119 0 -203.5 69t-110.5 185h-77l-2 47h69l-16 74h-54l1 48h43q-8 37 -8 69q0 92 60 143q57 48 152 48q115 0 215 -83l-30 -33q-82 69 -176 69q-77 0 -123 -40t-46 -115q0 -27 7 -58v0h298
l-1 -48h-287l16 -74h272l2 -47h-264z" />
    <glyph glyph-name="trademark" unicode="&#x2122;" horiz-adv-x="789" 
d="M622 347l-51 241l-82 -241h-41l-191 246q22 -98 53 -246h-55l-61 290h-88l61 -290h-55l-61 290h-148l-10 47h353l207 -265l93 265h61l71 -337h-56z" />
    <glyph glyph-name="glyph221" horiz-adv-x="354" 
 />
    <glyph glyph-name="glyph222" horiz-adv-x="354" 
 />
    <glyph glyph-name="glyph221" horiz-adv-x="354" 
 />
    <glyph glyph-name="glyph222" horiz-adv-x="354" 
 />
    <glyph glyph-name="ch333" horiz-adv-x="354" 
 />
    <glyph glyph-name="glyph223" horiz-adv-x="354" 
 />
    <glyph glyph-name="ch335" horiz-adv-x="292" 
 />
    <glyph glyph-name="ch334" horiz-adv-x="292" 
 />
    <glyph glyph-name="ch337" horiz-adv-x="292" 
 />
    <glyph glyph-name="ch336" horiz-adv-x="292" 
 />
    <glyph glyph-name="ch339" horiz-adv-x="292" 
 />
    <glyph glyph-name="ch338" horiz-adv-x="292" 
 />
    <glyph glyph-name="glyph224" horiz-adv-x="292" 
 />
    <glyph glyph-name="ch340" horiz-adv-x="292" 
 />
    <glyph glyph-name="ch343" horiz-adv-x="292" 
 />
    <glyph glyph-name="glyph225" horiz-adv-x="292" 
 />
    <glyph glyph-name="glyph226" horiz-adv-x="292" 
 />
    <glyph glyph-name="ch344" horiz-adv-x="292" 
 />
    <glyph glyph-name="ch347" horiz-adv-x="292" 
 />
    <glyph glyph-name="ch342" horiz-adv-x="292" 
 />
    <glyph glyph-name="ch263" horiz-adv-x="292" 
 />
    <glyph glyph-name="glyph103" horiz-adv-x="420" 
d="M442 435q-23 104 -138 104q-38 0 -66 -18q-32 -20 -32 -57q0 -7 2.5 -22t2.5 -22q0 -51 -45 -82q-40 -27 -93 -27q-72 0 -126 39q-57 42 -72 110h50q11 -50 48.5 -77.5t90.5 -27.5q38 0 65 17q32 20 32 56q0 7 -2.5 22t-2.5 23q0 52 45 83q39 27 94 27q73 0 127 -40.5
t69 -110.5z" />
    <glyph glyph-name="glyph214" horiz-adv-x="350" 
d="M170 382l27 -126h-55l-27 126h-274l112 276h61l-93 -228h184l-49 229l55 -2l49 -227h93l10 -48h-93z" />
    <glyph glyph-name=".null" horiz-adv-x="0" 
 />
  </font>
</defs>
</svg>
