<?xml version="1.0" standalone="no"?>
<!DOCTYPE svg PUBLIC "-//W3C//DTD SVG 1.1//EN" "http://www.w3.org/Graphics/SVG/1.1/DTD/svg11.dtd" >
<svg xmlns="http://www.w3.org/2000/svg">
<metadata></metadata>
<defs>
<font id="machinebold" horiz-adv-x="1108" >
<font-face units-per-em="2048" ascent="1638" descent="-410" />
<missing-glyph horiz-adv-x="499" />
<glyph unicode="&#xd;" horiz-adv-x="499" />
<glyph unicode=" "  horiz-adv-x="499" />
<glyph unicode="&#x09;" horiz-adv-x="499" />
<glyph unicode="&#xa0;" horiz-adv-x="499" />
<glyph unicode="!" horiz-adv-x="625" d="M84 -7v312h446v-312h-446zM84 1108v523h455v-523l-151 -669h-154z" />
<glyph unicode="&#x22;" horiz-adv-x="819" d="M104 1556l61 86h151l59 -84l-86 -397l-99 -4zM464 1556l61 86h152l58 -84l-73 -397l-112 -4z" />
<glyph unicode="#" horiz-adv-x="1389" d="M123 680l87 317h222l87 307h-223l88 329h221l61 216h120l-53 -216h242l62 214h119l-59 -214h221l-86 -329h-223l-84 -307h222l-85 -315h-223l-64 -223h-120l60 221h-249l-62 -221h-121l59 221h-219zM560 997h246l79 307h-245z" />
<glyph unicode="$" horiz-adv-x="1060" d="M84 240v294h412v-210h53v312l-187 30l-278 239v488l276 244h68v153h217v-152h54l254 -228v-304h-399v200h-53v-302l196 -26l272 -252v-483l-261 -250l-72 2v-171h-219v169h-55z" />
<glyph unicode="%" horiz-adv-x="1444" d="M86 986v495l166 150h298l174 -161v-494l-168 -160h-304zM112 68l1084 1567l100 -68l-1086 -1567zM371 1035h68v371h-68v-371zM708 172v494l170 157h298l170 -168v-494l-165 -163h-303zM989 227h68v369h-68v-369z" />
<glyph unicode="&#x26;" horiz-adv-x="1506" d="M88 219v461l221 159l-185 161v445l231 221h411l205 -198v-345l-150 -167l79 -115l45 59h373l-217 -384l320 -518h-474l-78 123l-74 -123h-473zM538 1022h49v313h-49v-313zM541 340h81l49 92v32l-130 200v-324z" />
<glyph unicode="'" horiz-adv-x="451" d="M91 1556l63 86h150l58 -84l-97 -397l-88 -4z" />
<glyph unicode="(" horiz-adv-x="775" d="M86 229v1124l355 327h248v-210h-276v-1360h276v-212h-256z" />
<glyph unicode=")" horiz-adv-x="784" d="M90 -102v212h278v1360h-278v210h250l353 -327v-1124l-347 -331h-256z" />
<glyph unicode="*" horiz-adv-x="987" d="M88 1167v146h212l-157 152l100 102l167 -159v234h148v-232l161 157l108 -93l-171 -167h244v-142h-242l169 -161l-103 -99l-166 163v-243h-148v232l-156 -148l-99 95l161 163h-228z" />
<glyph unicode="+" horiz-adv-x="1375" d="M102 510l4 146h512v520h139v-520h516v-146h-520v-514h-135v514h-516z" />
<glyph unicode="," horiz-adv-x="618" d="M91 -4v313h428v-208l-248 -344l-130 84l110 155h-160z" />
<glyph unicode="-" horiz-adv-x="629" d="M88 453v249h448v-249h-448z" />
<glyph unicode="." horiz-adv-x="601" d="M84 -2v318h430v-318h-430z" />
<glyph unicode="/" horiz-adv-x="1135" d="M86 -91l845 1888l109 -54l-846 -1887z" />
<glyph unicode="0" horiz-adv-x="1109" d="M86 218v1185l254 234h402l264 -234v-1173l-249 -235h-424zM519 327h53v986h-53v-986z" />
<glyph unicode="1" horiz-adv-x="731" d="M86 1315v252l291 71h250v-1640h-431v1317h-110z" />
<glyph unicode="2" d="M84 -2v620l499 446v251h-76v-211h-416v295l245 239h427l246 -223v-459l-493 -460v-169h490v-329h-922z" />
<glyph unicode="3" horiz-adv-x="1106" d="M86 227l2 316h419v-218h71v341h-165v323h163v324h-73v-199h-415v289l234 235h397l270 -245v-382l-197 -177l219 -179v-417l-247 -242h-431z" />
<glyph unicode="4" horiz-adv-x="1252" d="M84 638l572 1004h359v-1013h146v-309h-150v-322h-422v322h-392zM397 638h192v348z" />
<glyph unicode="5" horiz-adv-x="1113" d="M91 232v339h421v-238h79v347l-222 19l-257 239v704h799v-324h-397v-259l258 -17l247 -226v-589l-229 -227h-446z" />
<glyph unicode="6" d="M88 221v1172l252 247h415l254 -230v-318h-424v221h-66v-327h276l225 -203v-554l-232 -231h-452zM517 335h70v321h-70v-321z" />
<glyph unicode="7" horiz-adv-x="1100" d="M91 -2l514 1311h-117v-148h-360v474h885v-322l-475 -1315h-447z" />
<glyph unicode="8" horiz-adv-x="1109" d="M84 232v439l207 163l-165 161l-2 397l247 245h357l259 -233v-411l-170 -154l196 -166v-452l-241 -226h-421zM505 325h86v346h-86v-346zM505 982h84v322h-84v-322z" />
<glyph unicode="9" horiz-adv-x="1130" d="M91 227v320h439v-212h77v310h-300l-216 205v582l242 239h459l248 -223v-1214l-241 -238h-450zM532 986h62v351h-62v-351z" />
<glyph unicode=":" horiz-adv-x="610" d="M90 443v318h429v-318h-429zM91 -4v313h428v-311z" />
<glyph unicode=";" horiz-adv-x="599" d="M77 443v318h430v-318h-430zM79 -4v313h428v-208l-249 -344l-130 84l110 155h-159z" />
<glyph unicode="&#x3c;" horiz-adv-x="1325" d="M84 532v121l1143 521v-157l-955 -425l957 -448v-146z" />
<glyph unicode="=" horiz-adv-x="1340" d="M73 232v132h1187v-132h-1187zM73 673v132h1187v-132h-1187z" />
<glyph unicode="&#x3e;" horiz-adv-x="1305" d="M75 2v146l953 448l-951 424v158l1141 -522v-120z" />
<glyph unicode="?" horiz-adv-x="1049" d="M82 1013v397l258 221h362l256 -228v-427l-228 -213v-320h-450v345l248 227v291h-49v-293h-397zM280 -5v316h444l-4 -316h-440z" />
<glyph unicode="@" horiz-adv-x="1598" d="M57 741q0 311 217.5 530t528.5 219q283 0 490 -162q219 -175 219 -436q0 -229 -146 -408.5t-346 -179.5q-84 0 -126 84q-13 27 -25 84l-63 -70q-79 -91 -195 -91q-121 0 -198.5 96t-77.5 226q0 192 159 332q144 128 296 128q60 0 101.5 -21.5t59.5 -71.5l20 -58l40 128 l178 3l-161 -590q-5 -22 -6 -51q0 -33 8.5 -52.5t30.5 -19.5q126 0 233 166.5t107 349.5q0 240 -185 380q-168 128 -413 128q-261 0 -448 -186.5t-187 -447.5q0 -274 189.5 -469t461.5 -195q199 0 340 75q99 53 165 143l44 76h135q-31 -51 -60 -102q-88 -119 -212 -192 q-179 -104 -415 -104q-313 0 -536 223t-223 536zM517 541q0 -69 32 -115q38 -55 109 -55q101 0 192 185q83 168 83 303q0 79 -32 130t-89 51q-102 0 -198.5 -168t-96.5 -331z" />
<glyph unicode="A" horiz-adv-x="1219" d="M88 -2l248 1639h544l245 -1639l-430 2l-33 307h-124l-28 -309h-422zM560 631h69l-37 442z" />
<glyph unicode="B" horiz-adv-x="1100" d="M90 1637h652l225 -234v-403l-166 -166l205 -165v-444l-243 -225h-672zM517 327h55v337h-55v-337zM519 987h53v322h-53v-322z" />
<glyph unicode="C" horiz-adv-x="1104" d="M88 225v1178l250 234h428l247 -234v-408h-424v320h-68v-986h68v386h422v-490l-247 -225h-395z" />
<glyph unicode="D" horiz-adv-x="1100" d="M86 -2v1640h706l228 -235l2 -1178l-269 -227h-667zM519 327h55v988h-55v-988z" />
<glyph unicode="E" horiz-adv-x="905" d="M88 0l2 1637h718v-322h-289v-282h244v-318h-247v-386h303v-329h-731z" />
<glyph unicode="F" horiz-adv-x="939" d="M88 -4v1641h759v-322h-313v-282h250v-318h-252v-717z" />
<glyph unicode="G" horiz-adv-x="1100" d="M84 225v1178l220 235h475l227 -235v-390h-428v296h-62v-980h78v221h-42v313h452v-638l-260 -225h-389z" />
<glyph unicode="H" horiz-adv-x="1117" d="M88 -2v1639h435v-637h69v637h430v-1639h-435v677h-64v-677h-435z" />
<glyph unicode="I" horiz-adv-x="621" d="M95 0v1637h437v-1637h-437z" />
<glyph unicode="J" horiz-adv-x="1038" d="M86 225v441h380v-339h51l2 1311h423l2 -1413l-245 -227h-364z" />
<glyph unicode="K" horiz-adv-x="1281" d="M88 -2v1639h419v-567l213 567h403l-307 -725l384 -912h-470l-223 547v-549h-419z" />
<glyph unicode="L" horiz-adv-x="908" d="M95 1637h435v-1308h289v-329l-722 -2z" />
<glyph unicode="M" horiz-adv-x="1354" d="M88 0v1637h440l138 -761l140 761h447v-1639h-419l16 631l-106 -631l-141 2l-120 627l16 -627h-411z" />
<glyph unicode="N" d="M86 -4v1642h336l163 -501v500h419v-1641h-307l-192 573v-573h-419z" />
<glyph unicode="O" horiz-adv-x="1117" d="M88 229v1174l261 234h414l261 -234v-1178l-271 -229h-407zM523 333h62v976h-62v-976z" />
<glyph unicode="P" horiz-adv-x="1064" d="M84 -4l2 1641h640l249 -227v-631l-267 -236h-267v-547h-357zM519 874h46v432h-46v-432z" />
<glyph unicode="Q" horiz-adv-x="1122" d="M88 229v1175l247 234h428l261 -235v-1065l-166 -144h173v-198h-707zM523 329h62v986h-62v-986z" />
<glyph unicode="R" d="M95 -2v1639h658l256 -234v-417l-192 -163l202 -174v-651h-443v660h-53v-660h-428zM525 980h51v335h-51v-335z" />
<glyph unicode="S" horiz-adv-x="1093" d="M75 225v325h432v-215h62v314l-216 28l-263 235v491l246 234h403l243 -234v-297h-408v209h-64v-287l229 -41l267 -241v-521l-249 -227h-439z" />
<glyph unicode="T" horiz-adv-x="1011" d="M91 1317v321h832v-323h-203v-1315h-433v1317h-196z" />
<glyph unicode="U" horiz-adv-x="1113" d="M88 225v1412h435v-1308h55v1308h442v-1412l-234 -229h-457z" />
<glyph unicode="V" horiz-adv-x="1267" d="M84 1637h459l88 -1013l89 1013h452l-216 -1641h-663z" />
<glyph unicode="W" horiz-adv-x="1479" d="M90 1637h398l75 -452l75 452h218l60 -434l86 434h393l-300 -1641h-287l-66 487l-71 -487h-283z" />
<glyph unicode="X" horiz-adv-x="1289" d="M90 0l318 854l-306 783h441l99 -282l82 282h448l-272 -776l303 -861h-464l-101 300l-95 -300h-453z" />
<glyph unicode="Y" horiz-adv-x="1303" d="M91 1637h428l137 -467l123 468h435l-347 -923v-717h-445v717z" />
<glyph unicode="Z" horiz-adv-x="1195" d="M84 298l507 1017h-364v323h620l254 -289l-507 -1020h401v-329h-684z" />
<glyph unicode="[" horiz-adv-x="784" d="M88 -91v1781h605v-211h-278v-1360h278v-210h-605z" />
<glyph unicode="\" horiz-adv-x="1033" d="M77 1640h135l741 -1642h-132z" />
<glyph unicode="]" horiz-adv-x="788" d="M88 -91v210h274v1360h-274v211h598v-1781h-598z" />
<glyph unicode="^" horiz-adv-x="956" d="M91 1386l255 227h272l241 -232l-25 -92l-349 141l-373 -139z" />
<glyph unicode="_" horiz-adv-x="1428" d="M11 -285h1470v-81h-1470v81z" />
<glyph unicode="`" horiz-adv-x="654" d="M91 1523l88 114h68l334 -282l-53 -71l-416 170z" />
<glyph unicode="a" horiz-adv-x="1228" d="M88 -2l248 1639h544l245 -1639l-430 2l-33 307h-124l-28 -309h-422zM560 631h69l-37 442z" />
<glyph unicode="b" horiz-adv-x="1102" d="M90 1637h652l225 -234v-403l-166 -166l205 -165v-444l-243 -225h-672zM517 327h55v337h-55v-337zM519 987h53v322h-53v-322z" />
<glyph unicode="c" horiz-adv-x="1089" d="M88 225v1178l250 234h428l247 -234v-408h-424v320h-68v-986h68v386h422v-490l-247 -225h-395z" />
<glyph unicode="d" horiz-adv-x="1113" d="M86 -2v1640h706l228 -235l2 -1178l-269 -227h-667zM519 327h55v988h-55v-988z" />
<glyph unicode="e" horiz-adv-x="914" d="M88 0l2 1637h718v-322h-289v-282h244v-318h-247v-386h303v-329h-731z" />
<glyph unicode="f" horiz-adv-x="947" d="M88 -4v1641h759v-322h-313v-282h250v-318h-252v-717z" />
<glyph unicode="g" horiz-adv-x="1102" d="M84 225v1178l220 235h475l227 -235v-390h-428v296h-62v-980h78v221h-42v313h452v-638l-260 -225h-389z" />
<glyph unicode="h" horiz-adv-x="1122" d="M88 -2v1639h435v-637h69v637h430v-1639h-435v677h-64v-677h-435z" />
<glyph unicode="i" horiz-adv-x="608" d="M84 0v1637h437v-1637h-437z" />
<glyph unicode="j" horiz-adv-x="1040" d="M86 225v441h380v-339h51l2 1311h423l2 -1413l-245 -227h-364z" />
<glyph unicode="k" horiz-adv-x="1307" d="M88 -2v1639h419v-567l213 567h403l-307 -725l384 -912h-470l-223 547v-549h-419z" />
<glyph unicode="l" horiz-adv-x="916" d="M95 1637h435v-1308h289v-329l-722 -2z" />
<glyph unicode="m" horiz-adv-x="1358" d="M88 0v1637h440l138 -761l140 761h447v-1639h-419l16 631l-106 -631l-141 2l-120 627l16 -627h-411z" />
<glyph unicode="n" d="M86 -4v1642h336l163 -501v500h419v-1641h-307l-192 573v-573h-419z" />
<glyph unicode="o" horiz-adv-x="1122" d="M88 229v1174l261 234h414l261 -234v-1178l-271 -229h-407zM523 333h62v976h-62v-976z" />
<glyph unicode="p" horiz-adv-x="1066" d="M84 -4l2 1641h640l249 -227v-631l-267 -236h-267v-547h-357zM519 874h46v432h-46v-432z" />
<glyph unicode="q" horiz-adv-x="1120" d="M88 229v1175l247 234h428l261 -235v-1065l-166 -144h173v-198h-707zM523 329h62v986h-62v-986z" />
<glyph unicode="r" d="M95 -2v1639h658l256 -234v-417l-192 -163l202 -174v-651h-443v660h-53v-660h-428zM525 980h51v335h-51v-335z" />
<glyph unicode="s" d="M75 225v325h432v-215h62v314l-216 28l-263 235v491l246 234h403l243 -234v-297h-408v209h-64v-287l229 -41l267 -241v-521l-249 -227h-439z" />
<glyph unicode="t" horiz-adv-x="1014" d="M91 1317v321h832v-323h-203v-1315h-433v1317h-196z" />
<glyph unicode="u" horiz-adv-x="1117" d="M88 225v1412h435v-1308h55v1308h442v-1412l-234 -229h-457z" />
<glyph unicode="v" horiz-adv-x="1265" d="M84 1637h459l88 -1013l89 1013h452l-216 -1641h-663z" />
<glyph unicode="w" horiz-adv-x="1477" d="M90 1637h398l75 -452l75 452h218l60 -434l86 434h393l-300 -1641h-287l-66 487l-71 -487h-283z" />
<glyph unicode="x" horiz-adv-x="1301" d="M90 0l318 854l-306 783h441l99 -282l82 282h448l-272 -776l303 -861h-464l-101 300l-95 -300h-453z" />
<glyph unicode="y" horiz-adv-x="1301" d="M91 1637h428l137 -467l123 468h435l-347 -923v-717h-445v717z" />
<glyph unicode="z" horiz-adv-x="1195" d="M84 298l507 1017h-364v323h620l254 -289l-507 -1020h401v-329h-684z" />
<glyph unicode="{" horiz-adv-x="652" d="M37 614q48 7 86 30t65 62q35 48 38.5 92.5t3.5 99.5v442q0 91 14 142.5t63 99.5q40 37 86 49.5t110 12.5l62 2q-51 -15 -83 -37t-63 -65t-39.5 -84t-8.5 -107v-457q0 -69 -9 -114t-47 -87q-29 -31 -60.5 -50.5t-71.5 -30.5q46 -5 76 -20.5t61 -55t40 -88t9 -128.5v-481 q0 -49 8.5 -84t33.5 -68q37 -46 71 -69.5t89 -32.5l-66 -2q-86 0 -165 45.5t-95 107t-16 132.5v501q0 60 -12 104t-41.5 74.5t-63 47.5t-75.5 17z" />
<glyph unicode="|" horiz-adv-x="309" d="M88 -289v1931h133v-1931h-133z" />
<glyph unicode="}" horiz-adv-x="676" d="M60 -417q53 7 88 30t71 71q26 33 35 69.5t9 83.5v481q0 86 7.5 130t45.5 90q48 60 132 73q-48 13 -73.5 29t-54.5 53q-37 37 -48 84.5t-11 113.5v455q0 75 -7 109.5t-38 82.5q-59 79 -148 102l60 -2q69 0 111.5 -11t87 -53t59 -97.5t14.5 -141.5v-441q0 -79 5.5 -115.5 t38.5 -79.5q27 -33 64.5 -58t85.5 -32q-82 0 -135 -66q-29 -29 -42 -75t-13 -100v-505q0 -40 -5.5 -69.5t-16.5 -64.5q-15 -60 -89.5 -105.5t-166.5 -45.5z" />
<glyph unicode="~" horiz-adv-x="950" d="M77 1412l292 210l187 -134l210 139l92 -96l-353 -222l-172 130l-174 -122z" />
<glyph unicode="&#xa1;" horiz-adv-x="638" d="M86 113l152 670h153l150 -670v-524h-455v524zM86 916v313h446v-313h-446z" />
<glyph unicode="&#xa2;" horiz-adv-x="746" d="M93 753v531l152 139h84v219h84v-219h108l134 -139v-83l-203 -142v173h-147v-416h147v137h204v-192l-146 -137h-93v-304h-84v304h-115z" />
<glyph unicode="&#xa3;" horiz-adv-x="1287" d="M101 -4v333h118v377h-117v336h123v362l243 240h455l256 -240v-395h-422v308h-99v-275h55v-336h-53v-370h123v388h420v-477l-261 -251h-841z" />
<glyph unicode="&#xa5;" horiz-adv-x="1312" d="M97 470v174h335l-328 993h428l135 -470l123 470h437l-349 -990h336v-177h-338v-474h-446v474h-333z" />
<glyph unicode="&#xa7;" horiz-adv-x="1208" d="M101 750q0 95 46.5 168t132.5 126l58 37q-59 51 -84 111.5t-25 142.5q0 139 112 228.5t266 89.5q181 0 293 -117q106 -112 106 -285h-126q2 11 1 33q0 152 -129 219q-64 29 -134 29q-91 0 -160.5 -42t-89.5 -122q-4 -15 -4 -42q0 -69 47 -134q40 -55 117 -104l326 -197 q128 -82 183 -147q78 -89 78 -201q0 -101 -44.5 -170t-136.5 -133l-65 -48q66 -48 97 -103.5t31 -134.5q0 -150 -111 -246t-275 -96q-181 0 -294.5 121t-113.5 291h135q-4 -29 -3 -44q0 -102 77.5 -171t203.5 -69q73 0 130 27.5t82 86.5q20 49 20 91q0 128 -126 210 l-453 302q-82 55 -125 125.5t-43 167.5zM227 773q0 -69 32 -119.5t96 -90.5l440 -292l53 34q71 42 103 84q38 52 38 123q0 124 -119 197l-459 295l-49 -24q-66 -37 -100.5 -86t-34.5 -121z" />
<glyph unicode="&#xa8;" horiz-adv-x="766" d="M86 1476q0 53 36.5 94t98.5 41q59 0 90 -35t31 -86q0 -53 -36.5 -94t-98.5 -41q-59 0 -90 34.5t-31 86.5zM433 1485q0 53 35 92t97 39q59 0 91.5 -36.5t32.5 -89.5t-34.5 -92t-96.5 -39q-59 0 -92 36.5t-33 89.5z" />
<glyph unicode="&#xa9;" horiz-adv-x="1786" d="M88 816q0 329 199 554q223 252 604 252q380 0 603 -251q201 -227 201 -555q0 -327 -199 -553q-223 -252 -605 -252q-379 0 -602 250q-201 227 -201 555zM177 819q0 -294 180 -497q199 -227 541 -227q338 0 537 223q179 199 180 492q0 293 -181 497q-201 227 -543 227 q-336 0 -534 -223q-179 -201 -180 -492zM466 810q0 210 106 353q119 161 322 161q143 0 248 -72.5t127 -203.5l6 -37h-94l-9 31q-20 91 -99.5 142.5t-178.5 51.5q-172 0 -258 -133q-71 -112 -71 -291q0 -181 55 -276q71 -126 252 -148q9 -2 28 -2q101 0 184.5 76.5 t107.5 190.5h95q-29 -155 -143.5 -249.5t-276.5 -94.5q-208 0 -313 157q-88 133 -88 344z" />
<glyph unicode="&#xaa;" horiz-adv-x="746" d="M101 594v123h528v-123h-528zM101 795l126 834h276l124 -835l-219 1l-19 154h-60l-16 -154h-212zM338 1117h35l-18 223z" />
<glyph unicode="&#xab;" horiz-adv-x="1241" d="M88 517v233l472 349v-227l-335 -241l329 -234v-238zM678 517v233l470 349v-227l-332 -241l327 -234v-238z" />
<glyph unicode="&#xac;" horiz-adv-x="1790" d="M90 560v126h1616v-686h-135v560h-1481z" />
<glyph unicode="&#xad;" horiz-adv-x="629" d="M88 453v249h448v-249h-448z" />
<glyph unicode="&#xae;" horiz-adv-x="1782" d="M93 816q0 329 200 554q223 252 603 252t603 -251q201 -227 202 -555q0 -327 -200 -553q-223 -252 -605 -252q-379 0 -602 250q-201 227 -201 555zM181 814q0 -293 177 -494q198 -225 538 -225q338 0 539 225q181 203 181 494q0 293 -179 495q-199 225 -541 225 q-336 0 -536 -225q-179 -203 -179 -495zM571 318v973h352q155 0 242 -48q113 -62 113 -210q0 -88 -41 -146.5t-118 -91.5q49 -27 53 -31q26 -18 41.5 -50t22 -66t6.5 -72q0 -20 -1 -41t-1 -41q0 -33 3.5 -66t16.5 -71q4 -10 22 -39h-104l-6 2q-18 38 -22.5 205.5 t-83.5 209.5q-26 15 -47.5 19.5t-56.5 4.5h-40h-260v-441h-91zM662 839h272q110 0 172 35q83 46 83 150q0 102 -81 148q-62 35 -168 35h-278v-368z" />
<glyph unicode="&#xb0;" horiz-adv-x="689" d="M91 1318q0 101 72.5 175t174.5 74q108 0 183 -77t75 -183q0 -102 -75 -175t-179 -73t-177.5 76.5t-73.5 182.5zM161 1317q0 -77 52 -133t129 -56t132.5 56t55.5 131q0 73 -55.5 127t-132.5 54q-75 0 -128 -51.5t-53 -127.5z" />
<glyph unicode="&#xb1;" horiz-adv-x="1075" d="M69 -2v81h900v-81h-900zM88 658v112h391v397h108v-397h393v-112h-399v-393h-102v393h-391z" />
<glyph unicode="&#xb4;" horiz-adv-x="667" d="M90 1339l334 281l68 -7l84 -110l-18 -69l-417 -169z" />
<glyph unicode="&#xb5;" horiz-adv-x="1435" d="M77 -379q0 82 32 174t37 141l4 62v1174h201v-808q0 -102 58.5 -176.5t153.5 -74.5t190 74q104 80 105 173v812h192v-914q0 -71 34.5 -131.5t91.5 -60.5q13 0 34.5 3.5t48 31t39.5 67.5l19 64h40l-15 -71q-16 -88 -104 -148q-79 -55 -157 -55q-15 0 -22 2q-79 9 -143 75 t-64 153l-60 -62q-73 -71 -153.5 -116t-144.5 -45q-60 0 -134 31q-90 38 -135 101v-81q0 -66 26 -139q57 -161 56 -241q0 -62 -31 -107t-86 -45q-49 0 -81 41.5t-32 95.5z" />
<glyph unicode="&#xb6;" horiz-adv-x="1183" d="M86 1192q0 187 125 316t316 129h559v-2028h-146v1874h-276v-1876h-147v1154q-179 0 -305 126t-126 305z" />
<glyph unicode="&#xb7;" horiz-adv-x="601" d="M84 671v318h430v-318h-430z" />
<glyph unicode="&#xba;" horiz-adv-x="696" d="M75 598v122h528v-122h-528zM102 918v598l127 115h219l128 -119v-594l-132 -119h-221zM325 969h30v498h-30v-498z" />
<glyph unicode="&#xbb;" horiz-adv-x="1230" d="M75 872v227l474 -349v-233l-467 -358v238l328 234zM666 872v227l470 -349v-233l-463 -358v238l325 234z" />
<glyph unicode="&#xbf;" horiz-adv-x="1056" d="M88 -185v425l228 213v320h450v-345l-249 -227v-291h50v293h397v-397l-258 -221h-364zM322 905v316h444v-316h-444z" />
<glyph unicode="&#xc0;" horiz-adv-x="1208" d="M68 -2l248 1639h544l245 -1639l-430 2l-33 307h-124l-28 -309h-422zM318 1925l88 114h68l334 -282l-53 -71l-416 170zM540 631h69l-37 442z" />
<glyph unicode="&#xc1;" horiz-adv-x="1199" d="M88 -2l248 1639h544l245 -1639l-430 2l-33 307h-124l-28 -309h-422zM368 1771l334 281l68 -7l84 -110l-18 -69l-417 -169zM560 631h69l-37 442z" />
<glyph unicode="&#xc2;" horiz-adv-x="1192" d="M88 -2l248 1639h544l245 -1639l-430 2l-33 307h-124l-28 -309h-422zM215 1796l255 227h272l241 -232l-25 -92l-349 141l-373 -139zM560 631h69l-37 442z" />
<glyph unicode="&#xc3;" horiz-adv-x="1201" d="M88 -2l248 1639h544l245 -1639l-430 2l-33 307h-124l-28 -309h-422zM201 1781l292 210l187 -134l210 139l92 -96l-353 -222l-172 130l-174 -122zM560 631h69l-37 442z" />
<glyph unicode="&#xc4;" horiz-adv-x="1217" d="M88 -2l248 1639h544l245 -1639l-430 2l-33 307h-124l-28 -309h-422zM294 1823q0 53 36.5 94t98.5 41q59 0 90 -35t31 -86q0 -53 -36.5 -94t-98.5 -41q-59 0 -90 34.5t-31 86.5zM560 631h69l-37 442zM641 1832q0 53 35 92t97 39q59 0 91.5 -36.5t32.5 -89.5t-34.5 -92 t-96.5 -39q-59 0 -92 36.5t-33 89.5z" />
<glyph unicode="&#xc5;" horiz-adv-x="1226" d="M95 -7l249 1644h545l254 -1644l-441 5l-29 304h-124l-32 -309h-422zM342 1957q0 108 68 184q75 86 201 86q123 0 194 -80q66 -75 65 -179q0 -108 -67 -185q-75 -86 -201 -86q-123 0 -191.5 77t-68.5 183zM446 1946q0 -66 39.5 -110t116.5 -44q79 0 125 52t46 122 q0 62 -40 107.5t-115 45.5q-80 0 -126 -52t-46 -121zM571 625h67l-36 443z" />
<glyph unicode="&#xc6;" horiz-adv-x="1519" d="M80 -2l421 1639h916v-322h-289v-282h243v-318h-246v-386h303v-329h-729v307h-136l-60 -309h-423zM618 631h81v442z" />
<glyph unicode="&#xc7;" d="M88 254v1180l230 204l454 2l237 -219l4 -415h-424v311h-68v-975h68v377h422v-474l-247 -240h-230v-73l80 -22v-184h-157v71h82v64l-78 18v126h-92z" />
<glyph unicode="&#xc8;" horiz-adv-x="892" d="M88 0l2 1637h718v-322h-289v-282h244v-318h-247v-386h303v-329h-731zM193 1933l88 114h68l334 -282l-53 -71l-416 170z" />
<glyph unicode="&#xc9;" horiz-adv-x="905" d="M88 0l2 1637h718v-322h-289v-282h244v-318h-247v-386h303v-329h-731zM214 1771l334 281l68 -7l84 -110l-18 -69l-417 -169z" />
<glyph unicode="&#xca;" horiz-adv-x="899" d="M62 1796l255 227h272l241 -232l-25 -92l-349 141l-373 -139zM88 0l2 1637h718v-322h-289v-282h244v-318h-247v-386h303v-329h-731z" />
<glyph unicode="&#xcb;" horiz-adv-x="892" d="M88 0l2 1637h718v-322h-289v-282h244v-318h-247v-386h303v-329h-731zM159 1820q0 53 36.5 94t98.5 41q59 0 90 -35t31 -86q0 -53 -36.5 -94t-98.5 -41q-59 0 -90 34.5t-31 86.5zM506 1829q0 53 35 92t97 39q59 0 91.5 -36.5t32.5 -89.5t-34.5 -92t-96.5 -39 q-59 0 -92 36.5t-33 89.5z" />
<glyph unicode="&#xcc;" horiz-adv-x="621" d="M62 1933l88 114h68l334 -282l-53 -71l-416 170zM95 0v1637h437v-1637h-437z" />
<glyph unicode="&#xcd;" horiz-adv-x="614" d="M75 1771l334 281l68 -7l84 -110l-18 -69l-417 -169zM95 0v1637h437v-1637h-437z" />
<glyph unicode="&#xce;" horiz-adv-x="621" d="M-70 1796l255 227h272l241 -232l-25 -92l-349 141l-373 -139zM95 0v1637h437v-1637h-437z" />
<glyph unicode="&#xcf;" horiz-adv-x="621" d="M13 1820q0 53 36.5 94t98.5 41q59 0 90 -35t31 -86q0 -53 -36.5 -94t-98.5 -41q-59 0 -90 34.5t-31 86.5zM95 0v1637h437v-1637h-437zM360 1829q0 53 35 92t97 39q59 0 91.5 -36.5t32.5 -89.5t-34.5 -92t-96.5 -39q-59 0 -92 36.5t-33 89.5z" />
<glyph unicode="&#xd1;" horiz-adv-x="1091" d="M86 -4v1642h336l163 -501v500h419v-1641h-307l-192 573v-573h-419zM152 1798l292 210l187 -134l210 139l92 -96l-353 -222l-172 130l-174 -122z" />
<glyph unicode="&#xd2;" horiz-adv-x="1104" d="M88 229v1174l261 234h414l261 -234v-1178l-271 -229h-407zM303 1933l88 114h68l334 -282l-53 -71l-416 170zM523 333h62v976h-62v-976z" />
<glyph unicode="&#xd3;" horiz-adv-x="1097" d="M88 229v1174l261 234h414l261 -234v-1178l-271 -229h-407zM309 1771l334 281l68 -7l84 -110l-18 -69l-417 -169zM523 333h62v976h-62v-976z" />
<glyph unicode="&#xd4;" horiz-adv-x="1104" d="M88 229v1174l261 234h414l261 -234v-1178l-271 -229h-407zM171 1796l255 227h272l241 -232l-25 -92l-349 141l-373 -139zM523 333h62v976h-62v-976z" />
<glyph unicode="&#xd5;" horiz-adv-x="1119" d="M88 229v1174l261 234h414l261 -234v-1178l-271 -229h-407zM156 1781l292 210l187 -134l210 139l92 -96l-353 -222l-172 130l-174 -122zM523 333h62v976h-62v-976z" />
<glyph unicode="&#xd6;" horiz-adv-x="1122" d="M88 229v1174l261 234h414l261 -234v-1178l-271 -229h-407zM238 1822q0 53 36.5 94t98.5 41q59 0 90 -35t31 -86q0 -53 -36.5 -94t-98.5 -41q-59 0 -90 34.5t-31 86.5zM523 333h62v976h-62v-976zM585 1831q0 53 35 92t97 39q59 0 91.5 -36.5t32.5 -89.5t-34.5 -92 t-96.5 -39q-59 0 -92 36.5t-33 89.5z" />
<glyph unicode="&#xd8;" horiz-adv-x="1281" d="M137 -42l92 186l-79 85v1175l254 234h428l97 -84l104 178l86 -41l-115 -203l89 -85v-1176l-270 -231h-430l-91 86l-84 -161zM589 850l69 196v263h-69v-459zM592 333h68v488l-68 -166v-322z" />
<glyph unicode="&#xd9;" horiz-adv-x="1111" d="M88 225v1412h435v-1308h55v1308h442v-1412l-234 -229h-457zM296 1933l88 114h68l334 -282l-53 -71l-416 170z" />
<glyph unicode="&#xda;" horiz-adv-x="1104" d="M88 225v1412h435v-1308h55v1308h442v-1412l-234 -229h-457zM331 1771l334 281l68 -7l84 -110l-18 -69l-417 -169z" />
<glyph unicode="&#xdb;" horiz-adv-x="1104" d="M88 225v1412h435v-1308h55v1308h442v-1412l-234 -229h-457zM179 1796l255 227h272l241 -232l-25 -92l-349 141l-373 -139z" />
<glyph unicode="&#xdc;" horiz-adv-x="1113" d="M88 225v1412h435v-1308h55v1308h442v-1412l-234 -229h-457zM256 1816q0 53 36.5 94t98.5 41q59 0 90 -35t31 -86q0 -53 -36.5 -94t-98.5 -41q-59 0 -90 34.5t-31 86.5zM603 1825q0 53 35 92t97 39q59 0 91.5 -36.5t32.5 -89.5t-34.5 -92t-96.5 -39q-59 0 -92 36.5 t-33 89.5z" />
<glyph unicode="&#xdf;" horiz-adv-x="1100" d="M88 -141l2 1573l225 208l420 -2l232 -206v-437l-166 -167l205 -164v-434l-243 -232l-224 2v322h55v336h-55l2 324h53v322h-102v-1443z" />
<glyph unicode="&#xe0;" horiz-adv-x="1197" d="M88 -2l248 1639h544l245 -1639l-430 2l-33 307h-124l-28 -309h-422zM347 1933l88 114h68l334 -282l-53 -71l-416 170zM560 631h69l-37 442z" />
<glyph unicode="&#xe1;" horiz-adv-x="1199" d="M88 -2l248 1639h544l245 -1639l-430 2l-33 307h-124l-28 -309h-422zM355 1771l334 281l68 -7l84 -110l-18 -69l-417 -169zM560 631h69l-37 442z" />
<glyph unicode="&#xe2;" horiz-adv-x="1201" d="M88 -2l248 1639h544l245 -1639l-430 2l-33 307h-124l-28 -309h-422zM212 1794l255 227h272l241 -232l-25 -92l-349 141l-373 -139zM560 631h69l-37 442z" />
<glyph unicode="&#xe3;" horiz-adv-x="1190" d="M88 -2l248 1639h544l245 -1639l-430 2l-33 307h-124l-28 -309h-422zM209 1800l292 210l187 -134l210 139l92 -96l-353 -222l-172 130l-174 -122zM560 631h69l-37 442z" />
<glyph unicode="&#xe4;" horiz-adv-x="1225" d="M88 -2l248 1639h544l245 -1639l-430 2l-33 307h-124l-28 -309h-422zM294 1823q0 53 36.5 94t98.5 41q59 0 90 -35t31 -86q0 -53 -36.5 -94t-98.5 -41q-59 0 -90 34.5t-31 86.5zM560 631h69l-37 442zM641 1832q0 53 35 92t97 39q59 0 91.5 -36.5t32.5 -89.5t-34.5 -92 t-96.5 -39q-59 0 -92 36.5t-33 89.5z" />
<glyph unicode="&#xe5;" horiz-adv-x="1161" d="M66 -2l249 1644h543l245 -1644h-432l-31 309h-124l-30 -309h-420zM311 1960q0 110 68 187q74 86 202 86q123 0 194 -81q64 -71 64 -177q0 -110 -67 -187q-75 -86 -203 -86q-123 0 -194 81q-64 71 -64 177zM415 1951q0 -64 39.5 -108t114.5 -44q79 0 125.5 52.5 t46.5 121.5q0 64 -37 104q-42 48 -117 48q-79 0 -125.5 -52t-46.5 -122zM538 631h69l-38 442z" />
<glyph unicode="&#xe6;" horiz-adv-x="1519" d="M80 -2l421 1639h916v-322h-289v-282h243v-318h-246v-386h303v-329h-729v307h-136l-60 -309h-423zM618 631h81v442z" />
<glyph unicode="&#xe7;" horiz-adv-x="1091" d="M88 254v1180l230 203l454 1l237 -219v-413h-420v309h-68v-975h68v379h422v-476l-247 -238h-230v-73l80 -23v-185h-157v71h82v66l-78 18v126h-92z" />
<glyph unicode="&#xe8;" horiz-adv-x="917" d="M88 0l2 1637h718v-322h-289v-282h244v-318h-247v-386h303v-329h-731zM193 1942l88 114h68l334 -282l-53 -71l-416 170z" />
<glyph unicode="&#xe9;" horiz-adv-x="903" d="M88 0l2 1637h718v-322h-289v-282h244v-318h-247v-386h303v-329h-731zM214 1771l334 281l68 -7l84 -110l-18 -69l-417 -169z" />
<glyph unicode="&#xea;" horiz-adv-x="914" d="M86 1794l255 227h272l241 -232l-25 -92l-349 141l-373 -139zM88 0l2 1637h718v-322h-289v-282h244v-318h-247v-386h303v-329h-731z" />
<glyph unicode="&#xeb;" horiz-adv-x="914" d="M88 0l2 1637h718v-322h-289v-282h244v-318h-247v-386h303v-329h-731zM146 1814q0 53 36.5 94t98.5 41q59 0 90 -35t31 -86q0 -53 -36.5 -94t-98.5 -41q-59 0 -90 34.5t-31 86.5zM493 1823q0 53 35 92t97 39q59 0 91.5 -36.5t32.5 -89.5t-34.5 -92t-96.5 -39 q-59 0 -92 36.5t-33 89.5z" />
<glyph unicode="&#xec;" horiz-adv-x="627" d="M76 1936l88 114h68l334 -282l-53 -71l-416 170zM95 0v1637h437v-1637h-437z" />
<glyph unicode="&#xed;" horiz-adv-x="619" d="M77 1769l334 281l68 -7l84 -110l-18 -69l-417 -169zM95 0v1637h437v-1637h-437z" />
<glyph unicode="&#xee;" horiz-adv-x="630" d="M-66 1794l255 227h272l241 -232l-25 -92l-349 141l-373 -139zM97 0v1637h437v-1637h-437z" />
<glyph unicode="&#xef;" horiz-adv-x="610" d="M13 1814q0 53 36.5 94t98.5 41q59 0 90 -35t31 -86q0 -53 -36.5 -94t-98.5 -41q-59 0 -90 34.5t-31 86.5zM93 0v1637h437v-1637h-437zM360 1823q0 53 35 92t97 39q59 0 91.5 -36.5t32.5 -89.5t-34.5 -92t-96.5 -39q-59 0 -92 36.5t-33 89.5z" />
<glyph unicode="&#xf1;" d="M86 -4v1642h336l163 -501v500h419v-1641h-307l-192 573v-573h-419zM152 1798l292 210l187 -134l210 139l92 -96l-353 -222l-172 130l-174 -122z" />
<glyph unicode="&#xf2;" horiz-adv-x="1126" d="M88 229v1174l261 234h414l261 -234v-1178l-271 -229h-407zM309 1933l88 114h68l334 -282l-53 -71l-416 170zM523 333h62v976h-62v-976z" />
<glyph unicode="&#xf3;" horiz-adv-x="1119" d="M88 229v1174l261 234h414l261 -234v-1178l-271 -229h-407zM315 1771l334 281l68 -7l84 -110l-18 -69l-417 -169zM523 333h62v976h-62v-976z" />
<glyph unicode="&#xf4;" horiz-adv-x="1106" d="M88 229v1174l261 234h414l261 -234v-1178l-271 -229h-407zM162 1794l255 227h272l241 -232l-25 -92l-349 141l-373 -139zM523 333h62v976h-62v-976z" />
<glyph unicode="&#xf5;" horiz-adv-x="1082" d="M88 229v1174l261 234h414l261 -234v-1178l-271 -229h-407zM157 1800l292 210l187 -134l210 139l92 -96l-353 -222l-172 130l-174 -122zM523 333h62v976h-62v-976z" />
<glyph unicode="&#xf6;" horiz-adv-x="1122" d="M88 229v1174l261 234h414l261 -234v-1178l-271 -229h-407zM238 1822q0 53 36.5 94t98.5 41q59 0 90 -35t31 -86q0 -53 -36.5 -94t-98.5 -41q-59 0 -90 34.5t-31 86.5zM523 333h62v976h-62v-976zM585 1831q0 53 35 92t97 39q59 0 91.5 -36.5t32.5 -89.5t-34.5 -92 t-96.5 -39q-59 0 -92 36.5t-33 89.5z" />
<glyph unicode="&#xf7;" horiz-adv-x="1536" d="M88 527v150h1364v-150h-1364zM611 247q0 60 42 102t102 42q62 0 106 -42t44 -104q0 -60 -44.5 -103t-108.5 -43q-60 0 -100.5 44t-40.5 104zM613 958q0 62 42 104t102 42q62 0 106 -42t44 -106q0 -60 -45 -103t-109 -43q-59 0 -99.5 45t-40.5 103z" />
<glyph unicode="&#xf8;" horiz-adv-x="1281" d="M137 -42l92 186l-79 85v1175l254 234h428l97 -84l104 178l86 -41l-115 -203l89 -85v-1176l-270 -231h-430l-91 86l-84 -161zM589 850l69 196v263h-69v-459zM592 333h68v488l-68 -166v-322z" />
<glyph unicode="&#xf9;" horiz-adv-x="1111" d="M88 225v1412h435v-1308h55v1308h442v-1412l-234 -229h-457zM285 1938l88 114h68l334 -282l-53 -71l-416 170z" />
<glyph unicode="&#xfa;" horiz-adv-x="1120" d="M88 225v1412h435v-1308h55v1308h442v-1412l-234 -229h-457zM308 1772l334 281l68 -7l84 -110l-18 -69l-417 -169z" />
<glyph unicode="&#xfb;" horiz-adv-x="1113" d="M88 225v1412h435v-1308h55v1308h442v-1412l-234 -229h-457zM173 1794l255 227h272l241 -232l-25 -92l-349 141l-373 -139z" />
<glyph unicode="&#xfc;" horiz-adv-x="1122" d="M88 229v1412h435v-1308h55v1308h442v-1412l-234 -229h-457zM256 1820q0 53 36.5 94t98.5 41q59 0 90 -35t31 -86q0 -53 -36.5 -94t-98.5 -41q-59 0 -90 34.5t-31 86.5zM603 1829q0 53 35 92t97 39q59 0 91.5 -36.5t32.5 -89.5t-34.5 -92t-96.5 -39q-59 0 -92 36.5 t-33 89.5z" />
<glyph unicode="&#xfd;" horiz-adv-x="0" />
<glyph unicode="&#xff;" horiz-adv-x="1309" d="M91 1637h428l137 -467l123 468h435l-347 -923v-717h-445v717zM324 1816q0 53 36.5 94t98.5 41q59 0 90 -35t31 -86q0 -53 -36.5 -94t-98.5 -41q-59 0 -90 34.5t-31 86.5zM671 1825q0 53 35 92t97 39q59 0 91.5 -36.5t32.5 -89.5t-34.5 -92t-96.5 -39q-59 0 -92 36.5 t-33 89.5z" />
<glyph unicode="&#x152;" horiz-adv-x="1380" d="M90 229v1174l261 234h975v-322h-289v-282h243v-318h-247v-386h304v-329l-990 -4zM525 333h62v976h-62v-976z" />
<glyph unicode="&#x153;" horiz-adv-x="1380" d="M90 229v1174l261 234h975v-322h-289v-282h243v-318h-247v-386h304v-329l-990 -4zM525 333h62v976h-62v-976z" />
<glyph unicode="&#x178;" horiz-adv-x="1301" d="M91 1637h428l137 -467l123 468h435l-347 -923v-717h-445v717zM371 1820q0 53 36.5 94t98.5 41q59 0 90 -35t31 -86q0 -53 -36.5 -94t-98.5 -41q-59 0 -90 34.5t-31 86.5zM718 1829q0 53 35 92t97 39q59 0 91.5 -36.5t32.5 -89.5t-34.5 -92t-96.5 -39q-59 0 -92 36.5 t-33 89.5z" />
<glyph unicode="&#x2000;" horiz-adv-x="1116" />
<glyph unicode="&#x2001;" horiz-adv-x="2233" />
<glyph unicode="&#x2002;" horiz-adv-x="1116" />
<glyph unicode="&#x2003;" horiz-adv-x="2233" />
<glyph unicode="&#x2004;" horiz-adv-x="744" />
<glyph unicode="&#x2005;" horiz-adv-x="558" />
<glyph unicode="&#x2006;" horiz-adv-x="372" />
<glyph unicode="&#x2007;" horiz-adv-x="372" />
<glyph unicode="&#x2008;" horiz-adv-x="279" />
<glyph unicode="&#x2009;" horiz-adv-x="446" />
<glyph unicode="&#x200a;" horiz-adv-x="124" />
<glyph unicode="&#x2010;" horiz-adv-x="629" d="M88 453v249h448v-249h-448z" />
<glyph unicode="&#x2011;" horiz-adv-x="629" d="M88 453v249h448v-249h-448z" />
<glyph unicode="&#x2012;" horiz-adv-x="629" d="M88 453v249h448v-249h-448z" />
<glyph unicode="&#x2013;" horiz-adv-x="1106" d="M97 459v241h923v-241h-923z" />
<glyph unicode="&#x2014;" horiz-adv-x="1333" d="M93 453v246h1158v-246h-1158z" />
<glyph unicode="&#x2018;" horiz-adv-x="592" d="M84 1088v210l249 344l128 -86l-108 -153h159v-315h-428z" />
<glyph unicode="&#x2019;" horiz-adv-x="605" d="M88 1326v314h428v-210l-249 -342l-128 84l108 154h-159z" />
<glyph unicode="&#x201a;" horiz-adv-x="605" d="M88 -9v314h428v-210l-249 -342l-128 84l108 154h-159z" />
<glyph unicode="&#x201c;" horiz-adv-x="1139" d="M82 1092v208l247 344l130 -84l-108 -154h159v-314h-428zM614 1092v208l249 344l130 -84l-112 -154h161v-314h-428z" />
<glyph unicode="&#x201d;" horiz-adv-x="1122" d="M68 1322v315h428v-211l-249 -342l-128 84l108 154h-159zM602 1322v315h427v-211l-248 -342l-128 84l108 154h-159z" />
<glyph unicode="&#x201e;" horiz-adv-x="1122" d="M68 -13v315h428v-211l-249 -342l-128 85l108 153h-159zM602 -13v315h427v-211l-248 -342l-128 85l108 153h-159z" />
<glyph unicode="&#x2022;" horiz-adv-x="672" d="M91 592q0 113 70.5 176.5t167.5 63.5q99 0 167 -60q76 -70 76 -185q0 -113 -70 -176.5t-167 -63.5q-99 0 -167 61q-77 69 -77 184z" />
<glyph unicode="&#x2026;" horiz-adv-x="2371" d="M93 -2v318h430v-318h-430zM967 -2v318h428v-318h-428zM1832 -2v318h430v-318h-430z" />
<glyph unicode="&#x202f;" horiz-adv-x="446" />
<glyph unicode="&#x205f;" horiz-adv-x="558" />
<glyph unicode="&#x2122;" horiz-adv-x="1587" d="M95 1574v68h583v-68h-252v-738h-82v738h-249zM735 836v802h124l253 -705l259 705h116v-802h-75v713l-269 -712h-71l-255 714v-715h-82z" />
<glyph unicode="&#x25fc;" horiz-adv-x="1636" d="M0 0v1637h1637v-1637h-1637z" />
</font>
</defs>
</svg>
