<?xml version="1.0" encoding="UTF-8" standalone="no"?>
<!DOCTYPE svg  PUBLIC '-//W3C//DTD SVG 1.1//EN'  'http://www.w3.org/Graphics/SVG/1.1/DTD/svg11.dtd'>
<svg xmlns="http://www.w3.org/2000/svg">
<defs>
<font id="SuzukiPRORegular-Regular" horiz-adv-x="540">
<font-face underline-position="-50" font-weight="400" descent="-200" panose-1="2 11 5 6 4 0 0 2 0 4" units-per-em="1000" unicode-range="U+0020-25CA" bbox="-142 -241 990 920" x-height="540" underline-thickness="50" font-family="SuzukiPRORegular" ascent="800" cap-height="720"/>
<missing-glyph horiz-adv-x="1000"/>
<glyph glyph-name=".notdef" horiz-adv-x="1000"/>
<glyph glyph-name=".null" horiz-adv-x="0"/>
<glyph glyph-name="nonmarkingreturn" horiz-adv-x="1000"/>
<glyph glyph-name="space" horiz-adv-x="300" unicode=" "/>
<glyph glyph-name="exclam" horiz-adv-x="270" unicode="!" d="M85 0v100h100v-100h-100zM98 240l-10 480h90l-10 -480h-70z"/>
<glyph glyph-name="quotedbl" horiz-adv-x="400" unicode='&quot;' d="M300 502h-50l-25 140v93h100v-92zM150 502h-50l-25 140v93h100v-92z"/>
<glyph glyph-name="numbersign" horiz-adv-x="575" unicode="#" d="M206 258h142l17 189h-142zM498 197h-84l-17 -197h-71l17 197h-142l-17 -197h-71l17 197h-79l4 61h80l17 189h-81l6 61h80l17 192h71l-17 -192h142l17 192h71l-17 -192h83l-6 -61h-82l-17 -189h83z"/>
<glyph glyph-name="dollar" d="M280 644q-24 0 -46 -6t-38.5 -19t-26.5 -33.5t-10 -48.5q0 -21 5.5 -38.5t21 -33.5t43.5 -31.5t72 -31.5q36 -13 70.5 -30t60.5 -42.5t42 -61t16 -86.5q0 -35 -12 -67.5t-34.5 -58.5t-55 -44t-72.5 -24v-123h-72v122q-42 5 -74.5 21t-56.5 38.5t-39.5 48.5t-22.5 51 l78 14q6 -20 17 -39t29 -34t44 -24.5t61 -9.5q20 0 42.5 6.5t41 21.5t31 38t12.5 56q0 38 -11 63t-33.5 43t-57 33t-81.5 34q-78 31 -112 77t-34 103q0 75 43.5 122.5t122.5 57.5v112h72v-113q35 -5 63 -19.5t49 -34.5t35 -44.5t22 -49.5l-74 -14q-12 39 -43.5 69t-87.5 30z " unicode="$"/>
<glyph glyph-name="percent" horiz-adv-x="740" unicode="%" d="M479 159q0 -60 18 -86t47 -26t48 26t19 86t-19 86t-48 26t-47 -26t-18 -86zM409 159q0 42 11 74t30 53t43 31.5t51 10.5t51.5 -10.5t43 -31.5t30 -53t11.5 -74t-11.5 -73.5t-30.5 -52.5t-43.5 -31t-50.5 -10t-50.5 10t-43.5 31t-30 52.5t-11 73.5zM130 541q0 -60 18 -86 t47 -26t48 26t19 86t-19 86t-48 26t-47 -26t-18 -86zM60 541q0 42 11 74t30 53t43 31.5t51 10.5t51.5 -10.5t43 -31.5t30 -53t11.5 -74t-11.5 -73.5t-30.5 -52.5t-43.5 -31t-50.5 -10t-50.5 10t-43.5 31t-30 52.5t-11 73.5zM268 0h-74l275 700h74z"/>
<glyph glyph-name="ampersand" horiz-adv-x="697" unicode="&amp;" d="M192 552q0 -17 4.5 -32t15 -31t26.5 -35t40 -44q35 20 57.5 37.5t36 34.5t18.5 35.5t5 40.5q0 45 -30 68t-72 23q-51 0 -76 -25.5t-25 -71.5zM301 55q48 0 84.5 20.5t65.5 55.5l-192 196q-52 -33 -74 -66t-22 -81q0 -23 7 -45t23.5 -40t43 -29t64.5 -11zM600 349 q-6 -60 -20.5 -112.5t-38.5 -97.5l136 -139h-98l-79 80q-37 -42 -89 -66t-122 -24q-45 0 -83.5 14t-66.5 38.5t-43.5 58t-15.5 72.5q0 36 9 64t26.5 51.5t42 43.5t56.5 40q-43 44 -71.5 85.5t-28.5 94.5q0 30 10.5 58.5t32.5 50.5t55.5 35.5t78.5 13.5q43 0 75.5 -12.5 t54.5 -33.5t33.5 -48t11.5 -55q0 -34 -9 -61t-27 -50t-45 -43.5t-63 -41.5l167 -172q18 38 28.5 82t14.5 90z"/>
<glyph glyph-name="quotesingle" horiz-adv-x="250" unicode="&apos;" d="M150 502h-50l-25 140v93h100v-92z"/>
<glyph glyph-name="parenleft" horiz-adv-x="340" unicode="(" d="M75 330q0 91 12.5 161.5t33 127t46.5 102.5t54 89h64q-25 -46 -49 -96t-43 -107.5t-30.5 -126t-11.5 -150.5q0 -83 11.5 -151t30.5 -126t43 -107.5t49 -95.5h-64q-28 43 -54 89t-46.5 102.5t-33 126.5t-12.5 162z"/>
<glyph glyph-name="parenright" horiz-adv-x="340" unicode=")" d="M265 329q0 -92 -12.5 -162.5t-33 -127t-46.5 -102.5t-54 -89h-64q25 46 49 96t43 108t30.5 126t11.5 151q0 82 -11.5 150.5t-30.5 126.5t-43 108t-49 96h64q28 -42 54 -88.5t46.5 -103t33 -127.5t12.5 -162z"/>
<glyph glyph-name="asterisk" horiz-adv-x="470" unicode="*" d="M258 584l139 60l23 -72l-146 -33l99 -112l-62 -44l-76 128l-76 -129l-61 45l98 112l-147 32l24 72l138 -60l-14 152h76z"/>
<glyph glyph-name="plus" d="M231 288h-166v70h166v163h78v-163h166v-70h-166v-166h-78v166z" unicode="+"/>
<glyph glyph-name="comma" horiz-adv-x="230" unicode="," d="M95 -142h-56l55 142h-29v100h100v-99z"/>
<glyph glyph-name="hyphen" horiz-adv-x="425" unicode="-" d="M60 287v72h305v-72h-305z"/>
<glyph glyph-name="period" horiz-adv-x="230" unicode="." d="M65 0v100h100v-100h-100z"/>
<glyph glyph-name="slash" horiz-adv-x="265" unicode="/" d="M66 -90h-76l209 810h76z"/>
<glyph glyph-name="zero" d="M149 344q0 -79 8 -134t24 -90t38.5 -51t51.5 -16t51.5 16t38.5 51t24 90t8 134t-8.5 134.5t-24 90.5t-38.5 51.5t-51 16.5q-29 0 -51.5 -16.5t-38 -51.5t-24 -90.5t-8.5 -134.5zM67 344q0 98 14.5 166t41 110t64 61t84.5 19t84.5 -19t64 -61t40.5 -110t14 -166 q0 -96 -14.5 -163.5t-40.5 -109.5t-64 -61.5t-84 -19.5q-47 0 -84.5 19.5t-64 62t-41 110t-14.5 162.5z" unicode="0"/>
<glyph glyph-name="one" d="M135 0v69h133v555l-142 -84v78l136 82h85v-631h109v-69h-321z" unicode="1"/>
<glyph glyph-name="two" d="M274 646q-51 0 -81 -34t-36 -86l-78 12q7 36 23.5 67.5t41.5 55t59.5 36.5t77.5 13q35 0 69 -11t60.5 -34t42.5 -59t16 -85q0 -29 -7.5 -57.5t-23.5 -58.5t-40.5 -64t-58.5 -74l-163 -196h287v-71h-380v71l205 253q27 33 46 59t31.5 48.5t18 44.5t5.5 47q0 54 -27.5 88.5 t-87.5 34.5z" unicode="2"/>
<glyph glyph-name="three" d="M263 53q23 0 45 7t39.5 23t28 43t10.5 67q0 41 -9 68t-25 43.5t-38 23t-48 6.5h-56v67h54q46 0 74 32t28 92q0 66 -29.5 95.5t-77.5 29.5q-26 0 -45.5 -10.5t-33.5 -26t-22 -35t-11 -37.5l-73 12q8 41 27 71t45 49t56 28t61 9q37 0 71 -11.5t59 -34t40 -55.5t15 -76 q0 -66 -32.5 -108t-86.5 -51q28 -3 53 -16.5t44 -36t30.5 -54t11.5 -71.5q0 -53 -17.5 -92t-46.5 -64.5t-65.5 -37.5t-74.5 -12q-69 0 -122 42t-72 116l73 11q3 -18 12.5 -37t25 -34t36 -25t46.5 -10z" unicode="3"/>
<glyph glyph-name="four" d="M389 444v-242h96v-65h-96v-137h-77v137h-236v72l138 491h79l-140 -498h161l17 242h58z" unicode="4"/>
<glyph glyph-name="five" d="M258 54q19 0 41 6.5t40.5 25.5t30.5 52t12 87q0 45 -8.5 76.5t-23.5 51.5t-35.5 29t-45.5 9q-40 0 -69 -20.5t-42 -50.5h-60l19 380h305v-64h-233l-12 -230q20 20 48 31.5t63 11.5t67 -11t56.5 -37.5t39 -70t14.5 -109.5q0 -52 -14.5 -94.5t-41.5 -73t-65.5 -47 t-86.5 -16.5q-35 0 -65.5 11.5t-54.5 31.5t-40.5 47t-23.5 58l74 11q8 -39 35.5 -67t75.5 -28z" unicode="5"/>
<glyph glyph-name="six" d="M289 382q-40 0 -72 -20.5t-55 -46.5q2 -75 10 -125t23 -80.5t37 -43.5t51 -13q21 0 41.5 7t36 25.5t25 50t9.5 79.5q0 90 -28.5 128.5t-77.5 38.5zM301 651q-26 0 -50.5 -12t-44 -43.5t-31.5 -85.5t-13 -137q26 32 62.5 52t81.5 20q44 0 76 -16.5t53 -46t31 -71t10 -90.5 q0 -59 -16 -102t-43 -72t-62 -43t-73 -14q-102 0 -151 86t-49 269q0 115 22 186.5t55 111t71 53.5t71 14q34 0 61.5 -10.5t48 -28t34.5 -39.5t22 -45l-72 -13q-16 43 -42 60t-52 17z" unicode="6"/>
<glyph glyph-name="seven" d="M246 0h-88l232 630h-288v70h364v-80z" unicode="7"/>
<glyph glyph-name="eight" d="M376 535q0 30 -8.5 52.5t-23 36.5t-34 21t-40.5 7t-40.5 -6.5t-34.5 -20.5t-24 -36.5t-9 -53.5q0 -33 15.5 -56t36.5 -38.5t42 -24.5t32 -13q7 4 22 14t29.5 26.5t25.5 39t11 52.5zM393 184q0 39 -16.5 66t-39.5 44.5t-48 27.5t-42 16q-19 -11 -37 -22.5t-32 -28.5 t-22.5 -41.5t-8.5 -61.5q0 -57 32.5 -94.5t90.5 -37.5t90.5 34.5t32.5 97.5zM270 -10q-50 0 -88.5 14.5t-65.5 40t-41 59.5t-14 73q0 46 15 79t36.5 55t45.5 34.5t41 18.5q-18 8 -38.5 21.5t-37.5 34t-28.5 48t-11.5 62.5q0 48 16 82t42 55.5t59.5 32t69.5 10.5t69.5 -9.5 t59.5 -30t42 -53.5t16 -80q0 -36 -13 -63.5t-32 -47t-39.5 -31.5t-36.5 -18q17 -6 41.5 -19.5t47 -36.5t38.5 -57t16 -80q0 -42 -14 -77.5t-41 -61.5t-66 -40.5t-88 -14.5z" unicode="8"/>
<glyph glyph-name="nine" d="M273 320q40 0 71 21.5t53 48.5q-2 75 -9.5 125.5t-22 81t-35.5 43t-49 12.5q-21 0 -42 -8t-37.5 -27.5t-26.5 -51.5t-10 -79q0 -88 28.5 -127t79.5 -39zM268 51q31 0 55 14.5t40.5 47.5t25 86.5t9.5 131.5q-22 -31 -56 -51t-83 -20q-46 0 -79 16t-54.5 45t-31.5 69.5 t-10 89.5q0 58 15.5 101t42.5 71.5t62.5 43t76.5 14.5q52 0 89 -20t61 -62t35.5 -107.5t11.5 -155.5q0 -114 -17 -187t-45.5 -115t-66.5 -57.5t-81 -15.5q-67 0 -108.5 32.5t-58.5 80.5l73 15q14 -40 40.5 -53.5t53.5 -13.5z" unicode="9"/>
<glyph glyph-name="colon" horiz-adv-x="230" unicode=":" d="M65 439v100h100v-100h-100zM65 0v100h100v-100h-100z"/>
<glyph glyph-name="semicolon" horiz-adv-x="230" unicode=";" d="M95 -142h-56l55 142h-29v100h100v-99zM65 439v100h100v-100h-100z"/>
<glyph glyph-name="less" d="M65 281v90l410 170v-80l-347 -136l347 -154v-80z" unicode="&lt;"/>
<glyph glyph-name="equal" d="M65 191v70h410v-70h-410zM65 391v70h410v-70h-410z" unicode="="/>
<glyph glyph-name="greater" d="M65 91v80l347 154l-347 136v80l410 -170v-90z" unicode="&gt;"/>
<glyph glyph-name="question" horiz-adv-x="484" unicode="?" d="M197 0v105h105v-105h-105zM249 670q-45 0 -76.5 -29.5t-38.5 -74.5l-79 12q9 36 27.5 65t44.5 49.5t58 31.5t67 11q81 0 129 -42.5t48 -120.5q0 -36 -10.5 -62t-26 -47t-34 -37.5t-34 -33.5t-26 -36t-10.5 -43v-93h-82v107q0 28 10.5 49.5t26 40t33.5 35t33.5 34.5t26 39 t10.5 49q0 18 -5.5 35.5t-17 31t-30 21.5t-44.5 8z"/>
<glyph glyph-name="at" horiz-adv-x="920" unicode="@" d="M441 157q30 0 53 24.5t31 89.5l26 219q-10 9 -22 13.5t-33 4.5q-23 0 -46.5 -9.5t-43.5 -35.5t-32.5 -71.5t-12.5 -116.5q0 -36 6.5 -59t18 -36t26 -18t29.5 -5zM654 98q-25 0 -43.5 7.5t-30.5 19.5t-18.5 27.5t-8.5 31.5q-14 -34 -45.5 -59t-85.5 -25q-27 0 -52 9.5 t-44.5 31.5t-31 56.5t-11.5 84.5q0 81 18.5 135t47 86.5t62.5 46t66 13.5q27 0 47 -8.5t36 -22.5l10 24h61l-31 -258q-1 -5 -2 -14t-1.5 -18t-1 -17.5t-0.5 -12.5q0 -45 14 -65t42 -20q21 0 41 14t35.5 41.5t24.5 68.5t9 95q0 147 -69 227.5t-206 80.5q-54 0 -112 -21.5 t-106 -66t-78.5 -114t-30.5 -165.5q0 -85 24 -149t65 -106.5t95 -64t115 -21.5q50 0 82.5 4.5t64.5 10.5v-58q-31 -7 -68.5 -12.5t-86.5 -5.5q-78 0 -145.5 27t-117.5 78.5t-78.5 126.5t-28.5 171q0 117 39 197.5t98.5 130.5t131 72.5t137.5 22.5q79 0 144 -22.5 t111.5 -67.5t72.5 -113.5t26 -160.5q0 -50 -12 -98.5t-35.5 -87.5t-58.5 -63t-80 -24z"/>
<glyph glyph-name="A" horiz-adv-x="553" unicode="A" d="M165 252h218l-107 390zM453 0l-52 187h-254l-53 -187h-84l216 720h102l215 -720h-90z"/>
<glyph glyph-name="B" horiz-adv-x="559" unicode="B" d="M175 661v-253h98q69 0 98.5 33t29.5 93q0 64 -36.5 95.5t-97.5 31.5h-92zM175 347v-282h97q30 0 56.5 6.5t47 21.5t32.5 41t12 65q0 34 -7.5 61t-24.5 46.5t-44.5 30t-66.5 10.5h-102zM259 720q112 0 169.5 -47.5t57.5 -138.5q0 -57 -30.5 -98t-78.5 -56q27 -6 51 -19.5 t42 -35.5t28.5 -53.5t10.5 -72.5q0 -58 -22 -96t-58 -61t-81 -32.5t-91 -9.5h-167v720h169z"/>
<glyph glyph-name="C" horiz-adv-x="582" unicode="C" d="M318 53q54 0 86.5 29t49.5 83l83 -8q-24 -77 -77 -124.5t-144 -47.5q-40 0 -83.5 16t-79.5 57.5t-59.5 114.5t-23.5 187q0 112 23 185t59 115t80.5 58.5t87.5 16.5q47 0 82.5 -14.5t60.5 -37.5t41 -52t24 -57l-82 -11q-15 48 -44.5 76.5t-81.5 28.5q-34 0 -63.5 -14.5 t-51.5 -50t-34.5 -94.5t-12.5 -149q0 -89 13 -148t34.5 -94t50.5 -50t62 -15z"/>
<glyph glyph-name="D" horiz-adv-x="611" unicode="D" d="M175 657v-591h66q39 0 77.5 11.5t68.5 43.5t49 89.5t19 149.5t-20 150t-51.5 90.5t-69.5 44.5t-75 12h-64zM237 720q53 0 107 -14t98 -53.5t71.5 -110t27.5 -182.5q0 -113 -30.5 -183t-76 -109.5t-99 -53.5t-99.5 -14h-146v720h147z"/>
<glyph glyph-name="E" horiz-adv-x="500" unicode="E" d="M410 333h-235v-265h265v-68h-350v720h350v-68h-265v-253h235v-66z"/>
<glyph glyph-name="F" horiz-adv-x="470" unicode="F" d="M400 312h-225v-312h-85v720h340v-68h-255v-272h225v-68z"/>
<glyph glyph-name="G" horiz-adv-x="598" unicode="G" d="M521 0h-50l-13 51q-28 -33 -66.5 -49t-81.5 -16q-42 0 -84.5 15.5t-77 57.5t-56.5 115t-22 187q0 115 24.5 188t62 114.5t82 57t84.5 15.5q41 0 73.5 -12t57.5 -32.5t41.5 -47t25.5 -56.5l-82 -12q-11 39 -37.5 67t-78.5 28q-30 0 -59.5 -14t-53.5 -49.5t-38.5 -95.5 t-14.5 -151q0 -89 12.5 -148t33.5 -95t49 -51t60 -15q92 0 133 62v215h-123v68h199v-397z"/>
<glyph glyph-name="H" horiz-adv-x="620" unicode="H" d="M530 720v-720h-85v330h-270v-330h-85v720h85v-322h270v322h85z"/>
<glyph glyph-name="I" horiz-adv-x="265" unicode="I" d="M175 720v-720h-85v720h85z"/>
<glyph glyph-name="J" horiz-adv-x="324" unicode="J" d="M154 720h85v-555q0 -96 -34 -137.5t-104 -41.5q-26 0 -47 4t-39 10v69q17 -5 39.5 -9t36.5 -4q17 0 29 4t19.5 16t11 33.5t3.5 57.5v553z"/>
<glyph glyph-name="K" horiz-adv-x="543" unicode="K" d="M424 0l-249 335v-335h-85v720h85v-314l226 314h95l-251 -343l283 -377h-104z"/>
<glyph glyph-name="L" horiz-adv-x="472" unicode="L" d="M175 720v-646h277v-74h-362v720h85z"/>
<glyph glyph-name="M" horiz-adv-x="747" unicode="M" d="M341 0l-170 569v-569h-81v720h111l180 -606l166 606h110v-720h-84v569l-157 -569h-75z"/>
<glyph glyph-name="N" horiz-adv-x="601" unicode="N" d="M511 720v-720h-111l-229 603v-603h-81v720h114l228 -596v596h79z"/>
<glyph glyph-name="O" horiz-adv-x="658" unicode="O" d="M157 360q0 -153 42.5 -231.5t129.5 -78.5t129.5 78.5t42.5 231.5t-42.5 231.5t-129.5 78.5t-129.5 -78.5t-42.5 -231.5zM70 360q0 105 22 176.5t58 115.5t82.5 63.5t96.5 19.5q49 0 96 -19.5t83 -63.5t58 -115.5t22 -176.5t-22 -176.5t-58 -115.5t-83 -63.5t-96 -19.5 q-50 0 -96.5 19.5t-82.5 63.5t-58 115.5t-22 176.5z"/>
<glyph glyph-name="P" horiz-adv-x="528" unicode="P" d="M175 655v-326h67q79 0 121.5 39t42.5 121q0 78 -42.5 122t-117.5 44h-71zM244 720q53 0 98.5 -13.5t79 -42t52.5 -72t19 -103.5q0 -59 -20 -101.5t-54.5 -70t-80.5 -40.5t-98 -13h-65v-264h-85v720h154z"/>
<glyph glyph-name="Q" horiz-adv-x="658" unicode="Q" d="M157 360q0 -153 42.5 -231.5t129.5 -78.5t129.5 78.5t42.5 231.5t-42.5 231.5t-129.5 78.5t-129.5 -78.5t-42.5 -231.5zM70 360q0 105 22 176.5t58 115.5t82.5 63.5t96.5 19.5q49 0 96 -19.5t83 -63.5t58 -115.5t22 -176.5q0 -83 -14.5 -146t-39.5 -107t-58.5 -71 t-72.5 -38l163 -6v-78l-252 38v34q-48 3 -92 24t-77.5 65t-54 114t-20.5 171z"/>
<glyph glyph-name="R" horiz-adv-x="557" unicode="R" d="M175 655v-308h67q72 0 116 37.5t44 113.5t-44 116.5t-119 40.5h-64zM441 0l-161 282h-105v-282h-85v720h147q53 0 99 -13t80 -40.5t53.5 -69.5t19.5 -99q0 -41 -10 -72.5t-27 -55.5t-40 -41t-49 -28l179 -301h-101z"/>
<glyph glyph-name="S" horiz-adv-x="548" unicode="S" d="M277 669q-24 0 -46 -6.5t-38.5 -20t-26.5 -34.5t-10 -49q0 -26 7 -45.5t23.5 -35.5t43.5 -30.5t67 -29.5q39 -15 73.5 -33t60.5 -44.5t41.5 -63.5t15.5 -90q0 -41 -15.5 -78t-43.5 -64.5t-67.5 -43.5t-88.5 -16q-52 0 -91.5 15t-67.5 38.5t-45 52t-24 55.5l79 14 q6 -20 16.5 -39t28 -34t43.5 -24.5t62 -9.5q24 0 47 7.5t41 23t29.5 40t11.5 58.5q0 39 -9.5 63.5t-30 43t-53.5 33.5t-79 34q-81 33 -119.5 80.5t-38.5 116.5q0 38 14 71.5t40 58t63.5 38.5t84.5 14q45 0 80 -13t60.5 -34.5t42.5 -48.5t26 -55l-75 -14q-12 39 -45 69 t-87 30z"/>
<glyph glyph-name="T" horiz-adv-x="475" unicode="T" d="M450 646h-171v-646h-85v646h-169v74h425v-74z"/>
<glyph glyph-name="U" horiz-adv-x="609" unicode="U" d="M170 720v-506q0 -75 31.5 -118t104.5 -43t105 43t32 118v506h81v-497q0 -118 -56.5 -178t-162.5 -60t-163 60t-57 178v497h85z"/>
<glyph glyph-name="V" horiz-adv-x="525" unicode="V" d="M515 720l-194 -720h-114l-197 720h88l167 -659l172 659h78z"/>
<glyph glyph-name="W" horiz-adv-x="759" unicode="W" d="M734 720l-120 -720h-102l-127 624l-131 -624h-109l-120 720h87l95 -626l127 626h109l119 -624l94 624h78z"/>
<glyph glyph-name="X" horiz-adv-x="550" unicode="X" d="M320 375l195 -375h-97l-144 292l-152 -292h-87l197 372l-179 348h95l133 -268l139 268h88z"/>
<glyph glyph-name="Y" horiz-adv-x="512" unicode="Y" d="M502 720l-202 -432v-288h-84v288l-206 432h93l157 -344l159 344h83z"/>
<glyph glyph-name="Z" horiz-adv-x="500" unicode="Z" d="M129 67h311v-67h-400v75l322 578h-299v67h387v-72z"/>
<glyph glyph-name="bracketleft" horiz-adv-x="340" unicode="[" d="M278 -170h-203v980h203v-68h-125v-844h125v-68z"/>
<glyph glyph-name="backslash" horiz-adv-x="340" unicode="\" d="M65 720h76l209 -810h-76z"/>
<glyph glyph-name="bracketright" horiz-adv-x="340" unicode="]" d="M62 -102h125v844h-125v68h203v-980h-203v68z"/>
<glyph glyph-name="asciicircum" horiz-adv-x="500" unicode="^" d="M207 720h90l163 -320h-84l-124 258l-128 -258h-84z"/>
<glyph glyph-name="underscore" horiz-adv-x="480" unicode="_" d="M-2 -120v68h484v-68h-484z"/>
<glyph glyph-name="grave" horiz-adv-x="270" unicode="`" d="M240 598h-71l-139 137h113z"/>
<glyph glyph-name="a" horiz-adv-x="506" unicode="a" d="M220 54q40 0 71 16t55 42v176l-72 -12q-72 -12 -111.5 -40.5t-39.5 -85.5q0 -51 27 -73.5t70 -22.5zM372 0l-18 64q-23 -32 -60.5 -53t-97.5 -21q-25 0 -52.5 7.5t-50.5 25t-38 47t-15 74.5t18 77.5t47.5 55t68 35.5t79.5 19l93 14v37q0 23 -5 44t-16.5 36.5t-30.5 24.5 t-47 9q-43 0 -71 -24t-37 -60l-79 14q22 57 70.5 93t121.5 36q84 0 129 -46t45 -137v-372h-54z"/>
<glyph glyph-name="b" horiz-adv-x="528" unicode="b" d="M265 489q-31 0 -57 -16.5t-48 -39.5v-340q18 -19 40.5 -32t49.5 -13q29 0 53 12.5t41.5 40.5t27 72.5t9.5 107.5q0 60 -8.5 100t-24 64t-37 34t-46.5 10zM80 0v735h80v-244q25 30 59 47t79 17q34 0 64 -15t53 -48.5t36.5 -86.5t13.5 -129q0 -140 -52.5 -213t-146.5 -73 q-38 0 -65.5 14.5t-46.5 37.5l-9 -42h-65z"/>
<glyph glyph-name="c" horiz-adv-x="509" unicode="c" d="M277 490q-27 0 -51 -12t-41.5 -38.5t-27.5 -68.5t-10 -103t10.5 -102t27.5 -66t40 -35.5t49 -10.5q25 0 45 8.5t34 23t22.5 33t12.5 39.5l81 -10q-7 -29 -22 -57t-39.5 -50.5t-58.5 -36.5t-77 -14q-35 0 -72 12.5t-67.5 44t-50 86t-19.5 138.5q0 77 18.5 131t48.5 88 t68 49.5t77 15.5q45 0 78 -14t56.5 -36t37 -49.5t19.5 -54.5l-80 -12q-10 45 -34 73t-75 28z"/>
<glyph glyph-name="d" horiz-adv-x="533" unicode="d" d="M266 56q31 0 57.5 17t49.5 41v341q-19 17 -42 29t-50 12q-29 0 -53.5 -12t-42.5 -39.5t-28 -71.5t-10 -107q0 -60 9 -100t25 -64.5t37.5 -35t47.5 -10.5zM63 271q0 140 54 212t148 72q35 0 61.5 -11.5t46.5 -31.5v223h80v-735h-58l-17 61q-25 -34 -61 -52.5t-84 -18.5 q-34 0 -64.5 15.5t-54 49t-37.5 87t-14 129.5z"/>
<glyph glyph-name="e" horiz-adv-x="534" unicode="e" d="M276 495q-52 0 -87 -41.5t-43 -135.5h252q-2 87 -33.5 132t-88.5 45zM282 54q25 0 44.5 7.5t33.5 19.5t23.5 27t14.5 30l70 -15q-9 -26 -25.5 -50t-40 -42.5t-55 -29.5t-70.5 -11q-38 0 -76 13.5t-69 45.5t-50 86t-19 135q0 82 18.5 136.5t48 87.5t66.5 47t75 14 q103 0 155.5 -71t52.5 -227h-334q1 -63 13 -102.5t31 -62t43 -30.5t50 -8z"/>
<glyph glyph-name="f" horiz-adv-x="299" unicode="f" d="M319 667q-19 5 -38 7t-34 2q-33 0 -50 -15t-17 -50v-71h116v-65h-116v-475h-80v475h-80v65h80v65q0 29 7.5 54t23.5 44t40.5 29.5t59.5 10.5q50 0 88 -11v-65z"/>
<glyph glyph-name="g" horiz-adv-x="508" unicode="g" d="M220 41q-14 1 -27.5 2.5t-26.5 5.5q-20 -17 -33 -38.5t-13 -52.5q0 -19 6 -37t20.5 -32t38 -22.5t59.5 -8.5q43 0 71 9t44.5 23t23 31t6.5 32q0 19 -6.5 33.5t-24.5 25.5t-51 18t-87 11zM131 371q0 -57 32 -91t86 -34t84.5 34t30.5 91q0 60 -31 93t-85 33t-85.5 -34.5 t-31.5 -91.5zM468 528l-121 5q42 -20 69.5 -59.5t27.5 -102.5q0 -47 -17.5 -81.5t-45.5 -57t-63 -33.5t-69 -11q-47 0 -92 19q-16 -13 -16 -33q0 -9 1.5 -18.5t12 -17.5t32.5 -14t63 -9q51 -3 92 -12.5t70.5 -27.5t45.5 -46.5t16 -70.5q0 -31 -14.5 -59t-43 -49.5t-71.5 -34 t-100 -12.5q-99 0 -152 39t-53 103q0 45 21.5 74.5t56.5 47.5q-25 14 -34.5 33.5t-9.5 42.5q0 29 14.5 49.5t36.5 32.5q-32 23 -53 59t-21 87q0 52 19.5 87.5t48.5 57t64 30.5t67 9q23 0 43 -4v31l175 20v-74z"/>
<glyph glyph-name="h" horiz-adv-x="548" unicode="h" d="M80 0v735h80v-258q32 42 71.5 60t76.5 18q79 0 119.5 -49.5t40.5 -155.5v-350h-80v354q0 73 -24.5 104.5t-78.5 31.5q-37 0 -68.5 -22t-56.5 -52v-416h-80z"/>
<glyph glyph-name="i" horiz-adv-x="240" unicode="i" d="M80 0v540h80v-540h-80zM74 638v97h92v-97h-92z"/>
<glyph glyph-name="j" horiz-adv-x="240" unicode="j" d="M-44 -89q13 -3 29.5 -5.5t28.5 -2.5q35 0 50.5 17t15.5 66v554h80v-564q0 -62 -31 -100.5t-99 -38.5q-16 0 -36.5 3t-37.5 8v63zM74 638v97h92v-97h-92z"/>
<glyph glyph-name="k" horiz-adv-x="505" unicode="k" d="M80 0v735h80v-420l198 225h104l-215 -235l248 -305h-100l-235 285v-285h-80z"/>
<glyph glyph-name="l" horiz-adv-x="240" unicode="l" d="M80 735h80v-735h-80v735z"/>
<glyph glyph-name="m" horiz-adv-x="825" unicode="m" d="M80 0v540h58l14 -64q32 43 73.5 61t76.5 18q100 0 132 -86q30 47 73.5 66.5t87.5 19.5q76 0 113 -49.5t37 -155.5v-350h-80v354q0 73 -21 104.5t-72 31.5q-39 0 -70 -22.5t-54 -53.5q2 -14 3 -30.5t1 -33.5v-350h-80v354q0 73 -21 104.5t-72 31.5q-37 0 -66.5 -20.5 t-52.5 -49.5v-420h-80z"/>
<glyph glyph-name="n" horiz-adv-x="548" unicode="n" d="M80 0v540h58l15 -66q33 44 76 62.5t79 18.5q79 0 119.5 -49.5t40.5 -155.5v-350h-80v354q0 73 -24.5 104.5t-78.5 31.5q-38 0 -69 -21.5t-56 -51.5v-417h-80z"/>
<glyph glyph-name="o" horiz-adv-x="565" unicode="o" d="M147 270q0 -114 37.5 -166.5t99.5 -52.5q63 0 99 51.5t36 167.5q0 115 -38 169.5t-98 54.5q-59 0 -97.5 -55t-38.5 -169zM63 270q0 83 20 138t51.5 87.5t71 46t77.5 13.5t77 -13t70.5 -45.5t51.5 -87.5t20 -139t-20 -138t-51.5 -85.5t-70.5 -44t-77 -12.5t-77.5 12.5 t-71 44.5t-51.5 86t-20 137z"/>
<glyph glyph-name="p" horiz-adv-x="528" unicode="p" d="M265 489q-31 0 -57 -16.5t-48 -39.5v-344q17 -17 39 -29t51 -12t53 12.5t41.5 40.5t27 72.5t9.5 107.5q0 60 -8.5 100t-24 64t-37 34t-46.5 10zM80 -170v710h58l14 -55q25 34 61.5 52t84.5 18q34 0 64 -15t53 -48.5t36.5 -86.5t13.5 -129q0 -140 -52.5 -213t-146.5 -73 q-69 0 -106 42v-202h-80z"/>
<glyph glyph-name="q" horiz-adv-x="548" unicode="q" d="M266 56q36 0 67 22.5t55 51.5v309q-20 21 -46.5 39t-60.5 18q-29 0 -53.5 -12.5t-42.5 -40t-28 -72t-10 -107.5q0 -60 9 -100t25 -64t37.5 -34t47.5 -10zM63 269q0 140 54 213t148 73q45 0 77 -19.5t52 -51.5l19 56h55v-710h-80v241q-25 -38 -62.5 -59.5t-92.5 -21.5 q-34 0 -64.5 15t-54 48.5t-37.5 86.5t-14 129z"/>
<glyph glyph-name="r" horiz-adv-x="332" unicode="r" d="M80 0v540h58l18 -79q38 92 119 92q11 0 21 -1t16 -3v-78q-9 2 -18 3.5t-21 1.5q-20 0 -37 -8.5t-31 -23t-25 -34t-20 -40.5v-370h-80z"/>
<glyph glyph-name="s" horiz-adv-x="457" unicode="s" d="M223 -10q-70 0 -118.5 31t-69.5 82l75 22q14 -32 44.5 -50.5t70.5 -18.5t70 22.5t30 67.5q0 26 -12 44t-31.5 30t-44 20.5t-49.5 16.5q-72 22 -103.5 57.5t-31.5 89.5q0 37 14 65t38 47t55 29t65 10q36 0 64.5 -9t50 -25t36.5 -36.5t23 -43.5l-72 -22q-9 31 -33.5 52.5 t-69.5 21.5q-18 0 -34 -5t-29 -14.5t-20.5 -24.5t-7.5 -36t8 -35.5t24 -25t41 -19t58 -18.5q66 -20 104 -57.5t38 -103.5q0 -37 -13 -67t-37 -51.5t-58 -33.5t-75 -12z"/>
<glyph glyph-name="t" horiz-adv-x="329" unicode="t" d="M299 5q-18 -5 -35 -8t-40 -3q-66 0 -95 38t-29 101v342h-80v65h81l6 130h73v-130h116v-65h-116v-344q0 -35 13 -52.5t44 -17.5q15 0 29 2t33 7v-65z"/>
<glyph glyph-name="u" horiz-adv-x="536" unicode="u" d="M160 540v-354q0 -39 7 -64t20.5 -40t31.5 -21t41 -6q40 0 68 19.5t48 50.5v415h80v-540h-55l-18 68q-26 -40 -61.5 -59t-77.5 -19q-75 0 -119.5 47t-44.5 151v352h80z"/>
<glyph glyph-name="v" horiz-adv-x="465" unicode="v" d="M455 540l-164 -540h-119l-162 540h86l137 -486l141 486h81z"/>
<glyph glyph-name="w" horiz-adv-x="720" unicode="w" d="M700 540l-132 -540h-100l-107 450l-106 -450h-103l-132 540h82l104 -455l106 455h103l105 -453l101 453h79z"/>
<glyph glyph-name="x" horiz-adv-x="500" unicode="x" d="M290 289l190 -289h-98l-139 222l-138 -222h-85l181 284l-168 256h96l119 -191l117 191h82z"/>
<glyph glyph-name="y" horiz-adv-x="458" unicode="y" d="M292 -14q-11 -37 -22 -65t-26.5 -46.5t-38.5 -28t-59 -9.5q-29 0 -65 9v63q17 -4 32 -6t31 -2q36 0 50 24t26 75h-38l-172 540h85l144 -487l133 487h76z"/>
<glyph glyph-name="z" horiz-adv-x="449" unicode="z" d="M127 69h262v-69h-349v82l276 390h-257v68h340v-82z"/>
<glyph glyph-name="braceleft" horiz-adv-x="340" unicode="{" d="M34 358q36 0 57.5 20t21.5 68v197q0 85 42.5 126t141.5 41v-60q-60 0 -84.5 -19.5t-24.5 -72.5v-190q0 -66 -20.5 -99.5t-58.5 -47.5q38 -14 58.5 -48t20.5 -100v-191q0 -53 24.5 -72.5t84.5 -19.5v-60q-99 0 -141.5 41t-42.5 126v198q0 48 -21.5 68t-57.5 20v75z"/>
<glyph glyph-name="bar" horiz-adv-x="320" unicode="|" d="M201 800v-920h-82v920h82z"/>
<glyph glyph-name="braceright" horiz-adv-x="340" unicode="}" d="M306 283q-36 0 -57.5 -20t-21.5 -68v-198q0 -85 -42.5 -126t-141.5 -41v60q60 0 84.5 19.5t24.5 72.5v191q0 66 20.5 100t58.5 48q-38 14 -58.5 47.5t-20.5 99.5v190q0 53 -24.5 72.5t-84.5 19.5v60q99 0 141.5 -41t42.5 -126v-197q0 -48 21.5 -68t57.5 -20v-75z"/>
<glyph glyph-name="asciitilde" horiz-adv-x="560" unicode="~" d="M184 309q-36 0 -61.5 -12t-47.5 -31v78q19 15 52 27.5t68 12.5q31 0 54 -8.5t43 -18t39.5 -18t43.5 -8.5q36 0 62 12t48 31v-78q-19 -15 -52 -27.5t-68 -12.5q-31 0 -54 8.5t-43.5 18t-40 18t-43.5 8.5z"/>
<glyph glyph-name="uni00A0" horiz-adv-x="0" unicode=" "/>
<glyph glyph-name="exclamdown" horiz-adv-x="270" unicode="¡" d="M185 540v-100h-100v100h100zM172 300l10 -480h-90l10 480h70z"/>
<glyph glyph-name="cent" d="M244 -7q-33 4 -64.5 20t-57 48t-41 83.5t-15.5 126.5q0 68 15 118.5t39.5 84.5t56.5 53t67 25v138h72v-138q36 -6 62 -21t44 -36t29.5 -45.5t17.5 -48.5l-80 -12q-10 45 -34 73t-75 28q-27 0 -51 -12t-41.5 -38.5t-27.5 -68.5t-10 -103t10.5 -102t27.5 -66t40 -35.5 t49 -10.5q25 0 45 8.5t34 23t22.5 33t12.5 39.5l81 -10q-6 -26 -18.5 -51t-32 -46t-45.5 -36t-60 -21v-129h-72v128z" unicode="¢"/>
<glyph glyph-name="sterling" d="M427 354h-196v-182q0 -37 -12 -63.5t-38 -42.5h291v-66h-412v66h7q35 2 58 25.5t23 74.5v188h-78v60h78v85q0 55 15 95t39.5 66t57 38t68.5 12q70 0 111.5 -35.5t56.5 -89.5l-76 -18q-7 35 -27.5 58t-63.5 23q-45 0 -71.5 -33.5t-26.5 -115.5v-85h196v-60z" unicode="£"/>
<glyph glyph-name="currency" horiz-adv-x="600" unicode="¤" d="M134 340q0 -91 46.5 -139.5t119.5 -48.5t118 48.5t45 139.5q0 45 -12 80.5t-33.5 60t-52 38t-66.5 13.5t-66.5 -13.5t-52.5 -38t-34 -60t-12 -80.5zM105 191q-19 28 -30 64.5t-11 84.5q0 45 10 81.5t28 65.5l-61 62l48 48l58 -58q33 28 73 41.5t79 13.5t79 -14t73 -43 l60 60l48 -48l-64 -64q17 -29 27.5 -64.5t10.5 -80.5q0 -48 -10.5 -83.5t-29.5 -64.5l66 -65l-48 -48l-63 63q-33 -26 -72 -38.5t-77 -12.5t-77 12t-71 38l-62 -62l-48 48z"/>
<glyph glyph-name="yen" d="M236 0v140h-156v60h156v80h-156v59h129l-173 361h90l149 -342l151 342h82l-171 -360h123v-60h-149v-80h149v-60h-149v-140h-75z" unicode="¥"/>
<glyph glyph-name="brokenbar" horiz-adv-x="320" unicode="¦" d="M201 260v-380h-82v380h82zM201 800v-380h-82v380h82z"/>
<glyph glyph-name="section" d="M160 316q0 -29 11.5 -48t31 -31t45.5 -20t56 -16q30 9 53 32t23 61q0 29 -11.5 47.5t-31 30.5t-46 20.5t-55.5 16.5q-30 -10 -53 -32.5t-23 -60.5zM81 308q0 46 24 77t62 49q-27 17 -46 48t-19 79q0 37 14.5 64.5t39 46.5t56 28.5t65.5 9.5q33 0 61.5 -9t50.5 -25 t37.5 -36.5t23.5 -43.5l-67 -21q-9 31 -36.5 53t-72.5 22q-18 0 -35 -5t-30.5 -14.5t-21.5 -24.5t-8 -36q0 -45 32 -68t93 -38q69 -17 112 -56t43 -106q0 -48 -24.5 -78.5t-62.5 -48.5q28 -17 47 -47.5t19 -78.5q0 -37 -15 -65t-39.5 -46.5t-56 -28t-65.5 -9.5q-33 0 -61 9 t-50.5 25t-38 36.5t-23.5 43.5l67 21q9 -31 37 -53t73 -22q18 0 35 5t30.5 14.5t21.5 24.5t8 36q0 45 -32 68t-93 38q-69 17 -112 56t-43 106z" unicode="§"/>
<glyph glyph-name="dieresis" horiz-adv-x="360" unicode="¨" d="M235 635v90h95v-90h-95zM30 635v90h95v-90h-95z"/>
<glyph glyph-name="copyright" horiz-adv-x="843" unicode="©" d="M715 360q0 81 -25 141.5t-66 100t-94 59.5t-109 20t-109 -20t-94 -59.5t-66 -100t-25 -141.5t25 -141.5t66 -100t94 -59.5t109 -20t109 20t94 59.5t66 100t25 141.5zM783 360q0 -99 -32 -169.5t-83.5 -116.5t-116.5 -67.5t-130 -21.5t-130 21.5t-116.5 67.5t-83.5 116.5 t-32 169.5t32 169.5t83.5 116.5t116.5 67.5t130 21.5t130 -21.5t116.5 -67.5t83.5 -116.5t32 -169.5zM426 207q35 0 49.5 20.5t20.5 47.5l63 -9q-5 -23 -15.5 -43t-27.5 -35t-41 -24t-55 -9q-23 0 -47.5 8.5t-45.5 31.5t-34.5 63t-13.5 103q0 62 13.5 102t34.5 63t47 32 t50 9q30 0 52 -9t37.5 -24t25 -34t14.5 -39l-64 -9q-6 25 -19.5 44.5t-46.5 19.5q-15 0 -28.5 -7.5t-24.5 -25.5t-17.5 -47.5t-6.5 -74.5t7 -74.5t18.5 -47t25.5 -25t29 -7.5z"/>
<glyph glyph-name="ordfeminine" horiz-adv-x="475" unicode="ª" d="M233 366q27 0 47 11.5t35 28.5v120l-58 -8q-46 -6 -74 -24.5t-28 -61.5q0 -20 7.5 -32.5t18.5 -20t25 -10.5t27 -3zM95 0v70h305v-70h-305zM343 318l-19 49q-20 -25 -49.5 -40t-72.5 -15q-54 0 -90 29.5t-36 80.5q0 39 14.5 65t37 42.5t50 24.5t53.5 11l84 11v36 q0 12 -4 24.5t-12 22.5t-21 16.5t-32 6.5q-24 0 -45.5 -14.5t-30.5 -41.5l-74 9q14 42 54 71t103 29q61 0 101 -34t40 -103v-280h-51z"/>
<glyph glyph-name="guillemotleft" horiz-adv-x="490" unicode="«" d="M239 326l117 205h64l-92 -208l82 -222h-64zM60 326l117 205h64l-92 -208l82 -222h-64z"/>
<glyph glyph-name="logicalnot" d="M402 141v147h-337v70h410v-217h-73z" unicode="¬"/>
<glyph glyph-name="uni00AD" horiz-adv-x="425" unicode="­" d="M60 287v72h305v-72h-305z"/>
<glyph glyph-name="registered" horiz-adv-x="614" unicode="®" d="M282 582v-81h23q17 0 27.5 11.5t10.5 30.5q0 18 -10.5 28.5t-29.5 10.5h-21zM349 367l-50 93h-17v-93h-50v255h74q38 0 64 -20t26 -59q0 -26 -12.5 -44t-33.5 -28l57 -104h-58zM485 493q0 52 -15 89t-40 60t-57 33.5t-66 10.5t-66 -10.5t-57 -33.5t-40 -60t-15 -89 q0 -53 15 -89.5t40 -59.5t57 -33.5t66 -10.5t66 10.5t57 33.5t40 59.5t15 89.5zM544 493q0 -65 -22 -111t-56.5 -75t-76.5 -42.5t-82 -13.5t-82 13.5t-76.5 42.5t-56.5 75t-22 111t22 111t56.5 75t76.5 42.5t82 13.5t82 -13.5t76.5 -42.5t56.5 -75t22 -111z"/>
<glyph glyph-name="macron" horiz-adv-x="330" unicode="¯" d="M30 646v69h270v-69h-270z"/>
<glyph glyph-name="degree" horiz-adv-x="355" unicode="°" d="M108 566q0 -42 18.5 -66t51.5 -24t51.5 24t18.5 66t-18.5 67t-51.5 25t-51.5 -25t-18.5 -67zM40 566q0 35 11.5 62t30.5 45t44 27.5t52 9.5t52 -9.5t44 -27.5t30 -45t11 -62t-11 -61.5t-30 -44.5t-44 -27t-52 -9t-52 9t-44 27t-30.5 44.5t-11.5 61.5z"/>
<glyph glyph-name="plusminus" d="M65 0v70h410v-70h-410zM231 288h-166v70h166v163h78v-163h166v-70h-166v-146h-78v146z" unicode="±"/>
<glyph glyph-name="twosuperior" horiz-adv-x="340" unicode="²" d="M169 754q-24 0 -39 -16.5t-19 -35.5l-71 10q11 42 46 70t89 28q25 0 47.5 -6.5t39.5 -20.5t27.5 -36t10.5 -53q0 -38 -25.5 -70.5t-57.5 -64.5l-79 -79h160v-60h-251v60l132 134q16 16 30.5 37.5t14.5 45.5q0 21 -12 39t-43 18z"/>
<glyph glyph-name="threesuperior" horiz-adv-x="340" unicode="³" d="M167 469q31 0 45.5 18.5t14.5 48.5q0 37 -20 48t-47 11h-13v51h18q22 0 37 14.5t15 43.5q0 20 -14 35t-39 15q-24 0 -39 -14.5t-20 -38.5l-69 9q12 48 50 74t85 26q21 0 42.5 -6t38.5 -19t27.5 -33t10.5 -47q0 -26 -15 -48t-46 -32q14 -3 27.5 -10t24 -18t16.5 -27.5 t6 -38.5q0 -29 -10.5 -50.5t-29 -36.5t-43 -22.5t-52.5 -7.5q-53 0 -88.5 29.5t-43.5 70.5l71 9q4 -20 18.5 -37t41.5 -17z"/>
<glyph glyph-name="acute" horiz-adv-x="270" unicode="´" d="M127 735h113l-140 -137h-70z"/>
<glyph glyph-name="uni00B5" horiz-adv-x="536" unicode="µ" d="M160 540v-354q0 -39 7 -64.5t20.5 -40t31.5 -20.5t41 -6q42 0 69 20t47 51v414h80v-540h-55l-17 65q-23 -40 -55.5 -57.5t-74.5 -17.5q-29 0 -53 11t-41 28v-199h-80v710h80z"/>
<glyph glyph-name="paragraph" horiz-adv-x="550" unicode="¶" d="M450 700v-700h-76v700h76zM211 0v375q-19 0 -44.5 3.5t-48.5 19.5t-39 48.5t-16 90.5q0 55 16 87t39 49t48.5 22t44.5 5h76v-700h-76z"/>
<glyph glyph-name="periodcentered" horiz-adv-x="315" unicode="·" d="M107 273v100h100v-100h-100z"/>
<glyph glyph-name="cedilla" horiz-adv-x="279" unicode="¸" d="M249 -142q0 -45 -33 -72t-84 -27q-29 0 -56 7t-46 18l30 45q11 -5 27.5 -9t31.5 -4q23 0 41 9.5t18 36.5q0 24 -25.5 34.5t-62.5 15.5l20 108h62l-5 -71q42 -9 62 -34t20 -57z"/>
<glyph glyph-name="onesuperior" horiz-adv-x="340" unicode="¹" d="M54 420v62h92v246l-95 -56v73l91 55h73v-318h74v-62h-235z"/>
<glyph glyph-name="ordmasculine" horiz-adv-x="475" unicode="º" d="M87 0v70h303v-70h-303zM150 521q0 -81 25.5 -117.5t63.5 -36.5t62.5 36.5t24.5 117.5t-24.5 119t-63.5 38t-63.5 -38t-24.5 -119zM70 521q0 59 14 100t37 66.5t53.5 36.5t63.5 11t63 -11t53.5 -36.5t37 -66.5t13.5 -100t-13.5 -99.5t-36.5 -65t-53.5 -35t-63.5 -10.5 t-63.5 10.5t-54 35t-37 65t-13.5 99.5z"/>
<glyph glyph-name="guillemotright" horiz-adv-x="490" unicode="»" d="M144 101h-64l82 222l-92 208h64l117 -205zM323 101h-64l82 222l-92 208h64l117 -205z"/>
<glyph glyph-name="onequarter" horiz-adv-x="840" unicode="¼" d="M79 321v62h92v246l-95 -56v73l91 55h73v-318h74v-62h-235zM707 241v-111h56v-58h-56v-71h-66v71h-147v62l84 247h71l-88 -251h82l11 111h53zM244 -100h-86l467 910h86z"/>
<glyph glyph-name="onehalf" horiz-adv-x="840" unicode="½" d="M639 335q-24 0 -39 -16.5t-19 -35.5l-71 10q11 42 46 70t89 28q25 0 47.5 -6.5t39.5 -20.5t27.5 -36t10.5 -53q0 -38 -25.5 -70.5t-57.5 -64.5l-79 -79h160v-60h-251v60l132 134q16 16 30.5 37.5t14.5 45.5q0 21 -12 39t-43 18zM72 321v62h92v246l-95 -56v73l91 55h73 v-318h74v-62h-235zM237 -100h-86l467 910h86z"/>
<glyph glyph-name="threequarters" horiz-adv-x="840" unicode="¾" d="M205 370q31 0 45.5 18.5t14.5 48.5q0 37 -20 48t-47 11h-13v51h18q22 0 37 14.5t15 43.5q0 20 -14 35t-39 15q-24 0 -39 -14.5t-20 -38.5l-69 9q12 48 50 74t85 26q21 0 42.5 -6t38.5 -19t27.5 -33t10.5 -47q0 -26 -15 -48t-46 -32q14 -3 27.5 -10t24 -18t16.5 -27.5 t6 -38.5q0 -29 -10.5 -50.5t-29 -36.5t-43 -22.5t-52.5 -7.5q-53 0 -88.5 29.5t-43.5 70.5l71 9q4 -20 18.5 -37t41.5 -17zM710 241v-111h56v-58h-56v-71h-66v71h-147v62l84 247h71l-88 -251h82l11 111h53zM247 -100h-86l467 910h86z"/>
<glyph glyph-name="questiondown" horiz-adv-x="484" unicode="¿" d="M287 540v-105h-105v105h105zM235 -130q45 0 76.5 29.5t38.5 74.5l79 -12q-9 -36 -27.5 -65t-44.5 -49.5t-58 -31.5t-67 -11q-81 0 -129 42.5t-48 120.5q0 36 10.5 62t26 47t34 37.5t34 33.5t26 35.5t10.5 43.5v93h82v-107q0 -28 -10.5 -49.5t-26 -40t-33.5 -35 t-33.5 -34.5t-26 -39.5t-10.5 -48.5q0 -18 5.5 -35.5t17 -31t30 -21.5t44.5 -8z"/>
<glyph glyph-name="Agrave" horiz-adv-x="553" unicode="À" d="M165 252h218l-107 390zM453 0l-52 187h-254l-53 -187h-84l216 720h102l215 -720h-90zM344 768h-72l-142 117h119z"/>
<glyph glyph-name="Aacute" horiz-adv-x="553" unicode="Á" d="M165 252h218l-107 390zM453 0l-52 187h-254l-53 -187h-84l216 720h102l215 -720h-90zM304 885h119l-142 -117h-72z"/>
<glyph glyph-name="Acircumflex" horiz-adv-x="553" unicode="Â" d="M165 252h218l-107 390zM453 0l-52 187h-254l-53 -187h-84l216 720h102l215 -720h-90zM434 768h-90l-68 51l-68 -51h-90l119 117h78z"/>
<glyph glyph-name="Atilde" horiz-adv-x="553" unicode="Ã" d="M165 252h218l-107 390zM453 0l-52 187h-254l-53 -187h-84l216 720h102l215 -720h-90zM338 768q-24 0 -39.5 6t-27.5 13t-24 13t-29 6t-40 -10t-45 -27v71q22 16 45 25t44 9q24 0 39.5 -6t27.5 -13t24 -13t29 -6t38 10t43 27v-71q-22 -16 -43 -25t-42 -9z"/>
<glyph glyph-name="Adieresis" horiz-adv-x="553" unicode="Ä" d="M165 252h218l-107 390zM453 0l-52 187h-254l-53 -187h-84l216 720h102l215 -720h-90zM332 785v90h95v-90h-95zM127 785v90h95v-90h-95z"/>
<glyph glyph-name="Aring" horiz-adv-x="553" unicode="Å" d="M223 806q0 -30 15 -46.5t40 -16.5t39.5 16.5t14.5 46.5t-14.5 47.5t-39.5 17.5t-40 -17.5t-15 -47.5zM165 252h218l-107 390zM160 806q0 54 33.5 84t84.5 30t84 -28.5t33 -85.5q0 -38 -17 -63.5t-46 -38.5l211 -704h-90l-52 187h-254l-53 -187h-84l211 705 q-28 13 -44.5 38.5t-16.5 62.5z"/>
<glyph glyph-name="AE" horiz-adv-x="820" unicode="Æ" d="M185 252h218l-80 382zM760 0h-303l-40 187h-256l-67 -187h-84l275 720h440v-65h-328l58 -258h265v-64h-251l59 -268h232v-65z"/>
<glyph glyph-name="Ccedilla" horiz-adv-x="582" unicode="Ç" d="M423 -142q0 -45 -33 -72t-84 -27q-29 0 -56 7t-46 18l30 47q11 -5 27.5 -9t31.5 -4q23 0 41 8.5t18 35.5q0 24 -25.5 34.5t-62.5 15.5l14 76q-37 6 -74 27t-67 64t-48.5 111.5t-18.5 169.5q0 112 23 185t59 115t80.5 58.5t87.5 16.5q47 0 82.5 -14.5t60.5 -37.5t41 -52 t24 -57l-82 -11q-15 48 -44.5 76.5t-81.5 28.5q-34 0 -63.5 -14.5t-51.5 -50t-34.5 -94.5t-12.5 -149q0 -89 13 -148t34.5 -94t50.5 -50t62 -15q54 0 86.5 29t49.5 83l83 -8q-23 -72 -69 -117.5t-125 -53.5l-2 -37q42 -9 62 -34t20 -57z"/>
<glyph glyph-name="Egrave" horiz-adv-x="500" unicode="È" d="M410 333h-235v-265h265v-68h-350v720h350v-68h-265v-253h235v-66zM332 768h-72l-142 117h119z"/>
<glyph glyph-name="Eacute" horiz-adv-x="500" unicode="É" d="M410 333h-235v-265h265v-68h-350v720h350v-68h-265v-253h235v-66zM286 888h119l-142 -117h-72z"/>
<glyph glyph-name="Ecircumflex" horiz-adv-x="500" unicode="Ê" d="M410 333h-235v-265h265v-68h-350v720h350v-68h-265v-253h235v-66zM424 768h-90l-68 51l-68 -51h-90l119 117h78z"/>
<glyph glyph-name="Edieresis" horiz-adv-x="500" unicode="Ë" d="M410 333h-235v-265h265v-68h-350v720h350v-68h-265v-253h235v-66zM321 785v90h95v-90h-95zM116 785v90h95v-90h-95z"/>
<glyph glyph-name="Igrave" horiz-adv-x="265" unicode="Ì" d="M175 720v-720h-85v720h85zM210 768h-72l-142 117h119z"/>
<glyph glyph-name="Iacute" horiz-adv-x="265" unicode="Í" d="M175 720v-720h-85v720h85zM151 885h119l-142 -117h-72z"/>
<glyph glyph-name="Icircumflex" horiz-adv-x="265" unicode="Î" d="M175 720v-720h-85v720h85zM291 768h-90l-68 51l-68 -51h-90l119 117h78z"/>
<glyph glyph-name="Idieresis" horiz-adv-x="265" unicode="Ï" d="M175 720v-720h-85v720h85zM189 785v90h95v-90h-95zM-16 785v90h95v-90h-95z"/>
<glyph glyph-name="Eth" horiz-adv-x="621" unicode="Ð" d="M185 351v-285h66q39 0 77.5 11.5t68.5 43.5t49 89.5t19 149.5t-20 150t-51.5 90.5t-69.5 44.5t-75 12h-64v-241h184v-65h-184zM100 351h-70v65h70v304h147q53 0 107 -14t98 -53.5t71.5 -110t27.5 -182.5q0 -113 -30.5 -183t-76 -109.5t-99 -53.5t-99.5 -14h-146v351z"/>
<glyph glyph-name="Ntilde" horiz-adv-x="601" unicode="Ñ" d="M511 720v-720h-111l-229 603v-603h-81v720h114l228 -596v596h79zM364 772q-24 0 -39.5 6t-27.5 13t-24 13t-29 6t-40 -10t-45 -27v71q22 16 45 25t44 9q24 0 39.5 -6t27.5 -13t24 -13t29 -6t38 10t43 27v-71q-22 -16 -43 -25t-42 -9z"/>
<glyph glyph-name="Ograve" horiz-adv-x="658" unicode="Ò" d="M157 360q0 -153 42.5 -231.5t129.5 -78.5t129.5 78.5t42.5 231.5t-42.5 231.5t-129.5 78.5t-129.5 -78.5t-42.5 -231.5zM70 360q0 105 22 176.5t58 115.5t82.5 63.5t96.5 19.5q49 0 96 -19.5t83 -63.5t58 -115.5t22 -176.5t-22 -176.5t-58 -115.5t-83 -63.5t-96 -19.5 q-50 0 -96.5 19.5t-82.5 63.5t-58 115.5t-22 176.5zM386 768h-72l-142 117h119z"/>
<glyph glyph-name="Oacute" horiz-adv-x="658" unicode="Ó" d="M157 360q0 -153 42.5 -231.5t129.5 -78.5t129.5 78.5t42.5 231.5t-42.5 231.5t-129.5 78.5t-129.5 -78.5t-42.5 -231.5zM70 360q0 105 22 176.5t58 115.5t82.5 63.5t96.5 19.5q49 0 96 -19.5t83 -63.5t58 -115.5t22 -176.5t-22 -176.5t-58 -115.5t-83 -63.5t-96 -19.5 q-50 0 -96.5 19.5t-82.5 63.5t-58 115.5t-22 176.5zM365 885h119l-142 -117h-72z"/>
<glyph glyph-name="Ocircumflex" horiz-adv-x="658" unicode="Ô" d="M157 360q0 -153 42.5 -231.5t129.5 -78.5t129.5 78.5t42.5 231.5t-42.5 231.5t-129.5 78.5t-129.5 -78.5t-42.5 -231.5zM70 360q0 105 22 176.5t58 115.5t82.5 63.5t96.5 19.5q49 0 96 -19.5t83 -63.5t58 -115.5t22 -176.5t-22 -176.5t-58 -115.5t-83 -63.5t-96 -19.5 q-50 0 -96.5 19.5t-82.5 63.5t-58 115.5t-22 176.5zM487 768h-90l-68 51l-68 -51h-90l119 117h78z"/>
<glyph glyph-name="Otilde" horiz-adv-x="658" unicode="Õ" d="M157 360q0 -153 42.5 -231.5t129.5 -78.5t129.5 78.5t42.5 231.5t-42.5 231.5t-129.5 78.5t-129.5 -78.5t-42.5 -231.5zM70 360q0 105 22 176.5t58 115.5t82.5 63.5t96.5 19.5q49 0 96 -19.5t83 -63.5t58 -115.5t22 -176.5t-22 -176.5t-58 -115.5t-83 -63.5t-96 -19.5 q-50 0 -96.5 19.5t-82.5 63.5t-58 115.5t-22 176.5zM389 770q-24 0 -39.5 6t-27.5 13t-24 13t-29 6t-40 -10t-45 -27v71q22 16 45 25t44 9q24 0 39.5 -6t27.5 -13t24 -13t29 -6t38 10t43 27v-71q-22 -16 -43 -25t-42 -9z"/>
<glyph glyph-name="Odieresis" horiz-adv-x="658" unicode="Ö" d="M157 360q0 -153 42.5 -231.5t129.5 -78.5t129.5 78.5t42.5 231.5t-42.5 231.5t-129.5 78.5t-129.5 -78.5t-42.5 -231.5zM70 360q0 105 22 176.5t58 115.5t82.5 63.5t96.5 19.5q49 0 96 -19.5t83 -63.5t58 -115.5t22 -176.5t-22 -176.5t-58 -115.5t-83 -63.5t-96 -19.5 q-50 0 -96.5 19.5t-82.5 63.5t-58 115.5t-22 176.5zM383 785v90h95v-90h-95zM178 785v90h95v-90h-95z"/>
<glyph glyph-name="multiply" d="M270 267l-136 -136l-54 54l136 136l-136 136l54 54l136 -136l136 136l54 -54l-136 -136l136 -136l-54 -54z" unicode="×"/>
<glyph glyph-name="Oslash" horiz-adv-x="658" unicode="Ø" d="M501 360q0 165 -52 244l-195 -534q35 -20 75 -20q87 0 129.5 78.5t42.5 231.5zM157 360q0 -170 52 -246l194 536q-32 20 -74 20q-87 0 -129.5 -78.5t-42.5 -231.5zM70 360q0 105 22 176.5t58 115.5t82.5 63.5t96.5 19.5q25 0 49.5 -4.5t47.5 -15.5l39 105h70l-52 -141 q47 -42 76 -119.5t29 -199.5q0 -105 -22 -176.5t-58 -115.5t-83 -63.5t-96 -19.5q-52 0 -96 19l-39 -106h-70l52 142q-47 42 -76.5 119.5t-29.5 200.5z"/>
<glyph glyph-name="Ugrave" horiz-adv-x="609" unicode="Ù" d="M170 720v-506q0 -75 31.5 -118t104.5 -43t105 43t32 118v506h81v-497q0 -118 -56.5 -178t-162.5 -60t-163 60t-57 178v497h85zM363 768h-72l-142 117h119z"/>
<glyph glyph-name="Uacute" horiz-adv-x="609" unicode="Ú" d="M170 720v-506q0 -75 31.5 -118t104.5 -43t105 43t32 118v506h81v-497q0 -118 -56.5 -178t-162.5 -60t-163 60t-57 178v497h85zM344 885h119l-142 -117h-72z"/>
<glyph glyph-name="Ucircumflex" horiz-adv-x="609" unicode="Û" d="M170 720v-506q0 -75 31.5 -118t104.5 -43t105 43t32 118v506h81v-497q0 -118 -56.5 -178t-162.5 -60t-163 60t-57 178v497h85zM463 766h-90l-68 51l-68 -51h-90l119 117h78z"/>
<glyph glyph-name="Udieresis" horiz-adv-x="609" unicode="Ü" d="M170 720v-506q0 -75 31.5 -118t104.5 -43t105 43t32 118v506h81v-497q0 -118 -56.5 -178t-162.5 -60t-163 60t-57 178v497h85zM361 785v90h95v-90h-95zM156 785v90h95v-90h-95z"/>
<glyph glyph-name="Yacute" horiz-adv-x="512" unicode="Ý" d="M502 720l-202 -432v-288h-84v288l-206 432h93l157 -344l159 344h83zM308 885h119l-142 -117h-72z"/>
<glyph glyph-name="Thorn" horiz-adv-x="563" unicode="Þ" d="M175 531v-334h67q79 0 121.5 38t42.5 126q0 85 -42.5 127.5t-117.5 42.5h-71zM175 720v-124h69q53 0 98.5 -13.5t79 -42t52.5 -73t19 -106.5q0 -61 -20 -104.5t-54.5 -71t-80.5 -40.5t-98 -13h-65v-132h-85v720h85z"/>
<glyph glyph-name="germandbls" horiz-adv-x="574" unicode="ß" d="M529 160q0 -43 -13.5 -75t-37 -53t-54 -31.5t-63.5 -10.5q-32 0 -57 7t-44.5 18.5t-33 25.5t-21.5 28l70 32q10 -17 31.5 -31.5t54.5 -14.5q18 0 34 6.5t28.5 19t20 31.5t7.5 43q0 22 -7 38t-18.5 29t-27 23t-33.5 20q-20 11 -38.5 23.5t-32.5 28.5t-22.5 36t-8.5 46 q0 29 8.5 49.5t22.5 35t32 23.5t37 15q5 16 7.5 31t2.5 39q0 39 -26.5 65.5t-74.5 26.5q-54 0 -83 -36t-29 -96v-552h-80v533q0 52 14 92t39.5 66.5t61 40t77.5 13.5q81 0 125.5 -42.5t44.5 -115.5q0 -17 -3.5 -47.5t-20.5 -63.5q-36 -6 -57.5 -21.5t-21.5 -45.5 q0 -15 4.5 -26t15 -21t27.5 -20t41 -23q42 -22 72 -59t30 -100z"/>
<glyph glyph-name="agrave" horiz-adv-x="506" unicode="à" d="M220 54q40 0 71 16t55 42v176l-72 -12q-72 -12 -111.5 -40.5t-39.5 -85.5q0 -51 27 -73.5t70 -22.5zM372 0l-18 64q-23 -32 -60.5 -53t-97.5 -21q-25 0 -52.5 7.5t-50.5 25t-38 47t-15 74.5t18 77.5t47.5 55t68 35.5t79.5 19l93 14v37q0 23 -5 44t-16.5 36.5t-30.5 24.5 t-47 9q-43 0 -71 -24t-37 -60l-79 14q22 57 70.5 93t121.5 36q84 0 129 -46t45 -137v-372h-54zM304 598h-71l-139 137h113z"/>
<glyph glyph-name="aacute" horiz-adv-x="506" unicode="á" d="M220 54q40 0 71 16t55 42v176l-72 -12q-72 -12 -111.5 -40.5t-39.5 -85.5q0 -51 27 -73.5t70 -22.5zM372 0l-18 64q-23 -32 -60.5 -53t-97.5 -21q-25 0 -52.5 7.5t-50.5 25t-38 47t-15 74.5t18 77.5t47.5 55t68 35.5t79.5 19l93 14v37q0 23 -5 44t-16.5 36.5t-30.5 24.5 t-47 9q-43 0 -71 -24t-37 -60l-79 14q22 57 70.5 93t121.5 36q84 0 129 -46t45 -137v-372h-54zM298 735h113l-140 -137h-70z"/>
<glyph glyph-name="acircumflex" horiz-adv-x="506" unicode="â" d="M220 54q40 0 71 16t55 42v176l-72 -12q-72 -12 -111.5 -40.5t-39.5 -85.5q0 -51 27 -73.5t70 -22.5zM372 0l-18 64q-23 -32 -60.5 -53t-97.5 -21q-25 0 -52.5 7.5t-50.5 25t-38 47t-15 74.5t18 77.5t47.5 55t68 35.5t79.5 19l93 14v37q0 23 -5 44t-16.5 36.5t-30.5 24.5 t-47 9q-43 0 -71 -24t-37 -60l-79 14q22 57 70.5 93t121.5 36q84 0 129 -46t45 -137v-372h-54zM405 599h-85l-73 66l-73 -66h-85l122 136h72z"/>
<glyph glyph-name="atilde" horiz-adv-x="506" unicode="ã" d="M220 54q40 0 71 16t55 42v176l-72 -12q-72 -12 -111.5 -40.5t-39.5 -85.5q0 -51 27 -73.5t70 -22.5zM372 0l-18 64q-23 -32 -60.5 -53t-97.5 -21q-25 0 -52.5 7.5t-50.5 25t-38 47t-15 74.5t18 77.5t47.5 55t68 35.5t79.5 19l93 14v37q0 23 -5 44t-16.5 36.5t-30.5 24.5 t-47 9q-43 0 -71 -24t-37 -60l-79 14q22 57 70.5 93t121.5 36q84 0 129 -46t45 -137v-372h-54zM305 622q-24 0 -39.5 6t-27.5 13t-24 13t-29 6t-40 -10t-45 -27v71q22 16 45 25t44 9q24 0 39.5 -6t27.5 -13t24 -13t29 -6t38 10t43 27v-71q-22 -16 -43 -25t-42 -9z"/>
<glyph glyph-name="adieresis" horiz-adv-x="506" unicode="ä" d="M220 54q40 0 71 16t55 42v176l-72 -12q-72 -12 -111.5 -40.5t-39.5 -85.5q0 -51 27 -73.5t70 -22.5zM372 0l-18 64q-23 -32 -60.5 -53t-97.5 -21q-25 0 -52.5 7.5t-50.5 25t-38 47t-15 74.5t18 77.5t47.5 55t68 35.5t79.5 19l93 14v37q0 23 -5 44t-16.5 36.5t-30.5 24.5 t-47 9q-43 0 -71 -24t-37 -60l-79 14q22 57 70.5 93t121.5 36q84 0 129 -46t45 -137v-372h-54zM302 635v90h95v-90h-95zM97 635v90h95v-90h-95z"/>
<glyph glyph-name="aring" horiz-adv-x="506" unicode="å" d="M220 54q40 0 71 16t55 42v176l-72 -12q-72 -12 -111.5 -40.5t-39.5 -85.5q0 -51 27 -73.5t70 -22.5zM372 0l-18 64q-23 -32 -60.5 -53t-97.5 -21q-25 0 -52.5 7.5t-50.5 25t-38 47t-15 74.5t18 77.5t47.5 55t68 35.5t79.5 19l93 14v37q0 23 -5 44t-16.5 36.5t-30.5 24.5 t-47 9q-43 0 -71 -24t-37 -60l-79 14q22 57 70.5 93t121.5 36q84 0 129 -46t45 -137v-372h-54zM193 696q0 -30 15 -46.5t40 -16.5t39.5 16.5t14.5 46.5t-14.5 47.5t-39.5 17.5t-40 -17.5t-15 -47.5zM130 696q0 54 33.5 84t84.5 30t84 -28.5t33 -85.5q0 -54 -33 -83t-84 -29 t-84.5 29t-33.5 83z"/>
<glyph glyph-name="ae" horiz-adv-x="809" unicode="æ" d="M551 495q-52 0 -87 -41.5t-43 -135.5h252q-2 87 -33.5 132t-88.5 45zM220 54q48 0 78 19.5t48 50.5v164l-72 -12q-72 -11 -111.5 -42.5t-39.5 -83.5q0 -51 27 -73.5t70 -22.5zM557 54q25 0 44.5 7.5t33.5 19.5t23.5 27t14.5 30l70 -15q-9 -26 -25.5 -50t-40 -42.5 t-55 -29.5t-70.5 -11q-49 0 -93.5 22t-74.5 78q-12 -20 -28.5 -38t-39.5 -32t-53 -22t-69 -8q-26 0 -53 7.5t-49.5 25t-37 47t-14.5 74.5t18 77.5t47.5 55t68 35.5t79.5 19l93 14v37q0 23 -5 43.5t-16.5 35.5t-30.5 24t-47 9q-43 0 -71 -23.5t-37 -59.5l-79 13q22 57 71 93 t121 36q103 0 143 -79q28 45 67 63t84 18q103 0 155.5 -71t52.5 -227h-334q1 -63 13 -102.5t31 -62t43 -30.5t50 -8z"/>
<glyph glyph-name="ccedilla" horiz-adv-x="509" unicode="ç" d="M380 -142q0 -45 -33 -72t-84 -27q-29 0 -56 7t-46 18l30 45q11 -5 27.5 -9t31.5 -4q23 0 41 9.5t18 36.5q0 24 -25.5 34.5t-62.5 15.5l15 81q-32 5 -63 21.5t-55.5 49t-39.5 83t-15 124.5q0 77 18.5 131t48.5 88t68 49.5t77 15.5q45 0 78 -14t56.5 -36t37 -49.5 t19.5 -54.5l-80 -12q-10 45 -34 73t-75 28q-27 0 -51 -12t-41.5 -38.5t-27.5 -68.5t-10 -103t10.5 -102t27.5 -66t40 -35.5t49 -10.5q25 0 45 8.5t34 23t22.5 33t12.5 39.5l81 -10q-7 -27 -20.5 -53t-34 -47.5t-49 -36.5t-64.5 -19l-3 -43q42 -9 62 -34t20 -57z"/>
<glyph glyph-name="egrave" horiz-adv-x="534" unicode="è" d="M276 495q-52 0 -87 -41.5t-43 -135.5h252q-2 87 -33.5 132t-88.5 45zM282 54q25 0 44.5 7.5t33.5 19.5t23.5 27t14.5 30l70 -15q-9 -26 -25.5 -50t-40 -42.5t-55 -29.5t-70.5 -11q-38 0 -76 13.5t-69 45.5t-50 86t-19 135q0 82 18.5 136.5t48 87.5t66.5 47t75 14 q103 0 155.5 -71t52.5 -227h-334q1 -63 13 -102.5t31 -62t43 -30.5t50 -8zM332 598h-71l-139 137h113z"/>
<glyph glyph-name="eacute" horiz-adv-x="534" unicode="é" d="M276 495q-52 0 -87 -41.5t-43 -135.5h252q-2 87 -33.5 132t-88.5 45zM282 54q25 0 44.5 7.5t33.5 19.5t23.5 27t14.5 30l70 -15q-9 -26 -25.5 -50t-40 -42.5t-55 -29.5t-70.5 -11q-38 0 -76 13.5t-69 45.5t-50 86t-19 135q0 82 18.5 136.5t48 87.5t66.5 47t75 14 q103 0 155.5 -71t52.5 -227h-334q1 -63 13 -102.5t31 -62t43 -30.5t50 -8zM316 735h113l-140 -137h-70z"/>
<glyph glyph-name="ecircumflex" horiz-adv-x="534" unicode="ê" d="M276 495q-52 0 -87 -41.5t-43 -135.5h252q-2 87 -33.5 132t-88.5 45zM282 54q25 0 44.5 7.5t33.5 19.5t23.5 27t14.5 30l70 -15q-9 -26 -25.5 -50t-40 -42.5t-55 -29.5t-70.5 -11q-38 0 -76 13.5t-69 45.5t-50 86t-19 135q0 82 18.5 136.5t48 87.5t66.5 47t75 14 q103 0 155.5 -71t52.5 -227h-334q1 -63 13 -102.5t31 -62t43 -30.5t50 -8zM435 599h-85l-73 66l-73 -66h-85l122 136h72z"/>
<glyph glyph-name="edieresis" horiz-adv-x="534" unicode="ë" d="M276 495q-52 0 -87 -41.5t-43 -135.5h252q-2 87 -33.5 132t-88.5 45zM282 54q25 0 44.5 7.5t33.5 19.5t23.5 27t14.5 30l70 -15q-9 -26 -25.5 -50t-40 -42.5t-55 -29.5t-70.5 -11q-38 0 -76 13.5t-69 45.5t-50 86t-19 135q0 82 18.5 136.5t48 87.5t66.5 47t75 14 q103 0 155.5 -71t52.5 -227h-334q1 -63 13 -102.5t31 -62t43 -30.5t50 -8zM332 635v90h95v-90h-95zM127 635v90h95v-90h-95z"/>
<glyph glyph-name="igrave" horiz-adv-x="240" unicode="ì" d="M80 0v540h80v-540h-80zM186 598h-71l-139 137h113z"/>
<glyph glyph-name="iacute" horiz-adv-x="240" unicode="í" d="M80 0v540h80v-540h-80zM152 735h113l-140 -137h-70z"/>
<glyph glyph-name="icircumflex" horiz-adv-x="240" unicode="î" d="M279 599h-85l-73 66l-73 -66h-85l122 136h72zM80 0v540h80v-540h-80z"/>
<glyph glyph-name="idieresis" horiz-adv-x="240" unicode="ï" d="M80 0v540h80v-540h-80zM176 635v90h95v-90h-95zM-29 635v90h95v-90h-95z"/>
<glyph glyph-name="eth" horiz-adv-x="484" unicode="ð" d="M227 407q-51 0 -78.5 -45.5t-27.5 -136.5q0 -48 9.5 -81.5t25.5 -54t36.5 -29.5t41.5 -9q61 0 89.5 68t30.5 224q-24 24 -56.5 44t-70.5 20zM434 345q0 -171 -47 -263t-156 -92q-38 0 -72.5 15t-61 45.5t-42 75.5t-15.5 105q0 48 9.5 91.5t30.5 76t53.5 52t79.5 19.5 q46 0 80.5 -20t58.5 -49q-7 66 -31 113t-56 79l-35 -37h-82l70 73q-29 19 -58 29.5t-54 15.5l23 61q30 -8 66 -21t71 -34l38 40h82l-71 -75q25 -21 46.5 -49.5t37.5 -65t25.5 -82.5t9.5 -103z"/>
<glyph glyph-name="ntilde" horiz-adv-x="548" unicode="ñ" d="M80 0v540h58l15 -66q33 44 76 62.5t79 18.5q79 0 119.5 -49.5t40.5 -155.5v-350h-80v354q0 73 -24.5 104.5t-78.5 31.5q-38 0 -69 -21.5t-56 -51.5v-417h-80zM338 618q-24 0 -39.5 6t-27.5 13t-24 13t-29 6t-40 -10t-45 -27v71q22 16 45 25t44 9q24 0 39.5 -6t27.5 -13 t24 -13t29 -6t38 10t43 27v-71q-22 -16 -43 -25t-42 -9z"/>
<glyph glyph-name="ograve" horiz-adv-x="565" unicode="ò" d="M147 270q0 -114 37.5 -166.5t99.5 -52.5q63 0 99 51.5t36 167.5q0 115 -38 169.5t-98 54.5q-59 0 -97.5 -55t-38.5 -169zM63 270q0 83 20 138t51.5 87.5t71 46t77.5 13.5t77 -13t70.5 -45.5t51.5 -87.5t20 -139t-20 -138t-51.5 -85.5t-70.5 -44t-77 -12.5t-77.5 12.5 t-71 44.5t-51.5 86t-20 137zM339 598h-71l-139 137h113z"/>
<glyph glyph-name="oacute" horiz-adv-x="565" unicode="ó" d="M147 270q0 -114 37.5 -166.5t99.5 -52.5q63 0 99 51.5t36 167.5q0 115 -38 169.5t-98 54.5q-59 0 -97.5 -55t-38.5 -169zM63 270q0 83 20 138t51.5 87.5t71 46t77.5 13.5t77 -13t70.5 -45.5t51.5 -87.5t20 -139t-20 -138t-51.5 -85.5t-70.5 -44t-77 -12.5t-77.5 12.5 t-71 44.5t-51.5 86t-20 137zM323 735h113l-140 -137h-70z"/>
<glyph glyph-name="ocircumflex" horiz-adv-x="565" unicode="ô" d="M147 270q0 -114 37.5 -166.5t99.5 -52.5q63 0 99 51.5t36 167.5q0 115 -38 169.5t-98 54.5q-59 0 -97.5 -55t-38.5 -169zM63 270q0 83 20 138t51.5 87.5t71 46t77.5 13.5t77 -13t70.5 -45.5t51.5 -87.5t20 -139t-20 -138t-51.5 -85.5t-70.5 -44t-77 -12.5t-77.5 12.5 t-71 44.5t-51.5 86t-20 137zM441 599h-85l-73 66l-73 -66h-85l122 136h72z"/>
<glyph glyph-name="otilde" horiz-adv-x="565" unicode="õ" d="M147 270q0 -114 37.5 -166.5t99.5 -52.5q63 0 99 51.5t36 167.5q0 115 -38 169.5t-98 54.5q-59 0 -97.5 -55t-38.5 -169zM63 270q0 83 20 138t51.5 87.5t71 46t77.5 13.5t77 -13t70.5 -45.5t51.5 -87.5t20 -139t-20 -138t-51.5 -85.5t-70.5 -44t-77 -12.5t-77.5 12.5 t-71 44.5t-51.5 86t-20 137zM343 620q-24 0 -39.5 6t-27.5 13t-24 13t-29 6t-40 -10t-45 -27v71q22 16 45 25t44 9q24 0 39.5 -6t27.5 -13t24 -13t29 -6t38 10t43 27v-71q-22 -16 -43 -25t-42 -9z"/>
<glyph glyph-name="odieresis" horiz-adv-x="565" unicode="ö" d="M147 270q0 -114 37.5 -166.5t99.5 -52.5q63 0 99 51.5t36 167.5q0 115 -38 169.5t-98 54.5q-59 0 -97.5 -55t-38.5 -169zM63 270q0 83 20 138t51.5 87.5t71 46t77.5 13.5t77 -13t70.5 -45.5t51.5 -87.5t20 -139t-20 -138t-51.5 -85.5t-70.5 -44t-77 -12.5t-77.5 12.5 t-71 44.5t-51.5 86t-20 137zM338 635v90h95v-90h-95zM133 635v90h95v-90h-95z"/>
<glyph glyph-name="divide" d="M65 288v70h410v-70h-410zM220 489v100h100v-100h-100zM220 51v100h100v-100h-100z" unicode="÷"/>
<glyph glyph-name="oslash" horiz-adv-x="565" unicode="ø" d="M419 270q0 51 -8.5 89.5t-22.5 66.5l-165 -360q27 -15 61 -15q63 0 99 51.5t36 167.5zM147 270q0 -54 8.5 -93.5t24.5 -65.5l167 363q-29 20 -64 20q-59 0 -97.5 -55t-38.5 -169zM63 270q0 83 20 138t51.5 87.5t71 46t77.5 13.5q48 0 90 -19l45 97h70l-61 -133 q33 -32 54 -87.5t21 -142.5q0 -84 -20 -138t-51.5 -85.5t-70.5 -44t-77 -12.5q-21 0 -43 3.5t-42 11.5l-50 -107h-72l66 142q-35 31 -57 86.5t-22 143.5z"/>
<glyph glyph-name="ugrave" horiz-adv-x="536" unicode="ù" d="M160 540v-354q0 -39 7 -64t20.5 -40t31.5 -21t41 -6q40 0 68 19.5t48 50.5v415h80v-540h-55l-18 68q-26 -40 -61.5 -59t-77.5 -19q-75 0 -119.5 47t-44.5 151v352h80zM322 598h-71l-139 137h113z"/>
<glyph glyph-name="uacute" horiz-adv-x="536" unicode="ú" d="M160 540v-354q0 -39 7 -64t20.5 -40t31.5 -21t41 -6q40 0 68 19.5t48 50.5v415h80v-540h-55l-18 68q-26 -40 -61.5 -59t-77.5 -19q-75 0 -119.5 47t-44.5 151v352h80zM331 735h113l-140 -137h-70z"/>
<glyph glyph-name="ucircumflex" horiz-adv-x="536" unicode="û" d="M160 540v-354q0 -39 7 -64t20.5 -40t31.5 -21t41 -6q40 0 68 19.5t48 50.5v415h80v-540h-55l-18 68q-26 -40 -61.5 -59t-77.5 -19q-75 0 -119.5 47t-44.5 151v352h80zM425 593h-85l-73 66l-73 -66h-85l122 136h72z"/>
<glyph glyph-name="udieresis" horiz-adv-x="536" unicode="ü" d="M160 540v-354q0 -39 7 -64t20.5 -40t31.5 -21t41 -6q40 0 68 19.5t48 50.5v415h80v-540h-55l-18 68q-26 -40 -61.5 -59t-77.5 -19q-75 0 -119.5 47t-44.5 151v352h80zM323 635v90h95v-90h-95zM118 635v90h95v-90h-95z"/>
<glyph glyph-name="yacute" horiz-adv-x="458" unicode="ý" d="M292 -14q-11 -37 -22 -65t-26.5 -46.5t-38.5 -28t-59 -9.5q-29 0 -65 9v63q17 -4 32 -6t31 -2q36 0 50 24t26 75h-38l-172 540h85l144 -487l133 487h76zM282 735h113l-140 -137h-70z"/>
<glyph glyph-name="thorn" horiz-adv-x="528" unicode="þ" d="M265 489q-31 0 -57 -16.5t-48 -39.5v-340q18 -19 40.5 -32t49.5 -13q29 0 53 12.5t41.5 40.5t27 72.5t9.5 107.5q0 60 -8.5 100t-24 64t-37 34t-46.5 10zM80 -170v905h80v-244q25 30 59 47t79 17q34 0 64 -15t53 -48.5t36.5 -86.5t13.5 -129q0 -140 -52.5 -213 t-146.5 -73q-69 0 -106 42v-202h-80z"/>
<glyph glyph-name="dotlessi" horiz-adv-x="240" unicode="ı" d="M80 0v540h80v-540h-80z"/>
<glyph glyph-name="OE" horiz-adv-x="894" unicode="Œ" d="M157 360q0 -153 42.5 -231.5t129.5 -78.5t129.5 78.5t42.5 231.5t-42.5 231.5t-129.5 78.5t-129.5 -78.5t-42.5 -231.5zM834 0h-420q-41 -15 -85 -15q-50 0 -96.5 19.5t-82.5 63.5t-58 115.5t-22 176.5t22 176.5t58 115.5t82.5 63.5t96.5 19.5q44 0 85 -15h420v-65h-330 q34 -42 55 -104.5t25 -153.5h220v-64h-220q-3 -97 -24.5 -161.5t-55.5 -106.5h330v-65z"/>
<glyph glyph-name="oe" horiz-adv-x="884" unicode="œ" d="M626 495q-52 0 -87 -41.5t-43 -135.5h252q-2 87 -33.5 132t-88.5 45zM147 270q0 -114 37.5 -165.5t99.5 -51.5t98.5 50.5t36.5 166.5t-38 169t-98 53q-59 0 -97.5 -54t-38.5 -168zM632 54q25 0 44.5 7.5t33.5 19.5t23.5 27t14.5 30l70 -15q-9 -26 -25.5 -50t-40 -42.5 t-55 -29.5t-70.5 -11q-51 0 -97 23.5t-75 84.5q-24 -55 -71.5 -81.5t-100.5 -26.5q-38 0 -77.5 12.5t-71 44.5t-51.5 86t-20 137t20 138t51.5 87.5t71 46t77.5 13.5q52 0 98.5 -25.5t72.5 -83.5q27 60 71.5 84.5t95.5 24.5q103 0 155.5 -71t52.5 -227h-334q1 -63 13 -102.5 t31 -62t43 -30.5t50 -8z"/>
<glyph glyph-name="Scaron" horiz-adv-x="548" unicode="Š" d="M277 669q-24 0 -46 -6.5t-38.5 -20t-26.5 -34.5t-10 -49q0 -26 7 -45.5t23.5 -35.5t43.5 -30.5t67 -29.5q39 -15 73.5 -33t60.5 -44.5t41.5 -63.5t15.5 -90q0 -41 -15.5 -78t-43.5 -64.5t-67.5 -43.5t-88.5 -16q-52 0 -91.5 15t-67.5 38.5t-45 52t-24 55.5l79 14 q6 -20 16.5 -39t28 -34t43.5 -24.5t62 -9.5q24 0 47 7.5t41 23t29.5 40t11.5 58.5q0 39 -9.5 63.5t-30 43t-53.5 33.5t-79 34q-81 33 -119.5 80.5t-38.5 116.5q0 38 14 71.5t40 58t63.5 38.5t84.5 14q45 0 80 -13t60.5 -34.5t42.5 -48.5t26 -55l-75 -14q-12 39 -45 69 t-87 30zM318 768h-78l-119 117h90l68 -51l68 51h90z"/>
<glyph glyph-name="scaron" horiz-adv-x="457" unicode="š" d="M223 -10q-70 0 -118.5 31t-69.5 82l75 22q14 -32 44.5 -50.5t70.5 -18.5t70 22.5t30 67.5q0 26 -12 44t-31.5 30t-44 20.5t-49.5 16.5q-72 22 -103.5 57.5t-31.5 89.5q0 37 14 65t38 47t55 29t65 10q36 0 64.5 -9t50 -25t36.5 -36.5t23 -43.5l-72 -22q-9 31 -33.5 52.5 t-69.5 21.5q-18 0 -34 -5t-29 -14.5t-20.5 -24.5t-7.5 -36t8 -35.5t24 -25t41 -19t58 -18.5q66 -20 104 -57.5t38 -103.5q0 -37 -13 -67t-37 -51.5t-58 -33.5t-75 -12zM259 599h-72l-122 136h85l73 -65l73 65h85z"/>
<glyph glyph-name="Ydieresis" horiz-adv-x="512" unicode="Ÿ" d="M502 720l-202 -432v-288h-84v288l-206 432h93l157 -344l159 344h83zM313 785v90h95v-90h-95zM108 785v90h95v-90h-95z"/>
<glyph glyph-name="circumflex" horiz-adv-x="376" unicode="ˆ" d="M346 599h-85l-73 66l-73 -66h-85l122 136h72z"/>
<glyph glyph-name="caron" horiz-adv-x="376" unicode="ˇ" d="M224 599h-72l-122 136h85l73 -65l73 65h85z"/>
<glyph glyph-name="ring" horiz-adv-x="295" unicode="˚" d="M93 696q0 -30 15 -46.5t40 -16.5t39.5 16.5t14.5 46.5t-14.5 47.5t-39.5 17.5t-40 -17.5t-15 -47.5zM30 696q0 54 33.5 84t84.5 30t84 -28.5t33 -85.5q0 -54 -33 -83t-84 -29t-84.5 29t-33.5 83z"/>
<glyph glyph-name="tilde" horiz-adv-x="350" unicode="˜" d="M235 620q-24 0 -39.5 6t-27.5 13t-24 13t-29 6t-40 -10t-45 -27v71q22 16 45 25t44 9q24 0 39.5 -6t27.5 -13t24 -13t29 -6t38 10t43 27v-71q-22 -16 -43 -25t-42 -9z"/>
<glyph glyph-name="Alpha" horiz-adv-x="553" unicode="Α" d="M165 252h218l-107 390zM453 0l-52 187h-254l-53 -187h-84l216 720h102l215 -720h-90z"/>
<glyph glyph-name="Beta" horiz-adv-x="559" unicode="Β" d="M175 661v-253h98q69 0 98.5 33t29.5 93q0 64 -36.5 95.5t-97.5 31.5h-92zM175 347v-282h97q30 0 56.5 6.5t47 21.5t32.5 41t12 65q0 34 -7.5 61t-24.5 46.5t-44.5 30t-66.5 10.5h-102zM259 720q112 0 169.5 -47.5t57.5 -138.5q0 -57 -30.5 -98t-78.5 -56q27 -6 51 -19.5 t42 -35.5t28.5 -53.5t10.5 -72.5q0 -58 -22 -96t-58 -61t-81 -32.5t-91 -9.5h-167v720h169z"/>
<glyph glyph-name="Gamma" horiz-adv-x="477" unicode="Γ" d="M90 0v720h362v-74h-277v-646h-85z"/>
<glyph glyph-name="Delta" horiz-adv-x="553" unicode="Δ" d="M113 67h321l-158 577zM10 0l216 720h102l215 -720h-533z"/>
<glyph glyph-name="Epsilon" horiz-adv-x="500" unicode="Ε" d="M410 333h-235v-265h265v-68h-350v720h350v-68h-265v-253h235v-66z"/>
<glyph glyph-name="Zeta" horiz-adv-x="500" unicode="Ζ" d="M129 67h311v-67h-400v75l322 578h-299v67h387v-72z"/>
<glyph glyph-name="Eta" horiz-adv-x="620" unicode="Η" d="M530 720v-720h-85v330h-270v-330h-85v720h85v-322h270v322h85z"/>
<glyph glyph-name="Theta" horiz-adv-x="668" unicode="Θ" d="M157 360q0 -153 45 -231.5t132 -78.5t132 78.5t45 231.5t-45 231.5t-132 78.5t-132 -78.5t-45 -231.5zM70 360q0 105 22.5 176.5t59.5 115.5t84.5 63.5t97.5 19.5t97.5 -19.5t84.5 -63.5t59.5 -115.5t22.5 -176.5t-22.5 -176.5t-60 -115.5t-85 -63.5t-96.5 -19.5 q-50 0 -97 19.5t-84.5 63.5t-60 115.5t-22.5 176.5zM213 394h244v-64h-244v64z"/>
<glyph glyph-name="Iota" horiz-adv-x="265" unicode="Ι" d="M175 720v-720h-85v720h85z"/>
<glyph glyph-name="Kappa" horiz-adv-x="543" unicode="Κ" d="M424 0l-249 335v-335h-85v720h85v-314l226 314h95l-251 -343l283 -377h-104z"/>
<glyph glyph-name="Lambda" horiz-adv-x="533" unicode="Λ" d="M432 0l-166 636l-170 -636h-86l205 720h103l205 -720h-91z"/>
<glyph glyph-name="Mu" horiz-adv-x="747" unicode="Μ" d="M341 0l-170 569v-569h-81v720h111l180 -606l166 606h110v-720h-84v569l-157 -569h-75z"/>
<glyph glyph-name="Nu" horiz-adv-x="601" unicode="Ν" d="M511 720v-720h-111l-229 603v-603h-81v720h114l228 -596v596h79z"/>
<glyph glyph-name="Xi" horiz-adv-x="555" unicode="Ξ" d="M130 399h295v-74h-295v74zM70 80h415v-80h-415v80zM70 720h415v-80h-415v80z"/>
<glyph glyph-name="Omicron" horiz-adv-x="658" unicode="Ο" d="M157 360q0 -153 42.5 -231.5t129.5 -78.5t129.5 78.5t42.5 231.5t-42.5 231.5t-129.5 78.5t-129.5 -78.5t-42.5 -231.5zM70 360q0 105 22 176.5t58 115.5t82.5 63.5t96.5 19.5q49 0 96 -19.5t83 -63.5t58 -115.5t22 -176.5t-22 -176.5t-58 -115.5t-83 -63.5t-96 -19.5 q-50 0 -96.5 19.5t-82.5 63.5t-58 115.5t-22 176.5z"/>
<glyph glyph-name="Pi" horiz-adv-x="610" unicode="Π" d="M520 720v-720h-85v651h-260v-651h-85v720h430z"/>
<glyph glyph-name="Rho" horiz-adv-x="528" unicode="Ρ" d="M175 655v-326h67q79 0 121.5 39t42.5 121q0 78 -42.5 122t-117.5 44h-71zM244 720q53 0 98.5 -13.5t79 -42t52.5 -72t19 -103.5q0 -59 -20 -101.5t-54.5 -70t-80.5 -40.5t-98 -13h-65v-264h-85v720h154z"/>
<glyph glyph-name="Sigma" horiz-adv-x="499" unicode="Σ" d="M141 70h308v-70h-399v73l219 292l-219 282v73h399v-70h-308l221 -285z"/>
<glyph glyph-name="Tau" horiz-adv-x="475" unicode="Τ" d="M450 646h-171v-646h-85v646h-169v74h425v-74z"/>
<glyph glyph-name="Upsilon" horiz-adv-x="512" unicode="Υ" d="M502 720l-202 -432v-288h-84v288l-206 432h93l157 -344l159 344h83z"/>
<glyph glyph-name="Phi" horiz-adv-x="775" unicode="Φ" d="M145 363q0 -67 20 -109t50.5 -66t66 -33.5t66.5 -11.5v442q-31 -2 -66.5 -12t-66 -34.5t-50.5 -66.5t-20 -109zM630 363q0 67 -20 109t-50.5 66.5t-66 34.5t-66.5 12v-442q31 2 66.5 11.5t66 33.5t50.5 66t20 109zM427 750v-102q46 -3 97 -18.5t93.5 -49t70 -86.5 t27.5 -131t-27.5 -131.5t-70 -87t-93.5 -49t-97 -18.5v-107h-79v107q-47 3 -97.5 18.5t-93 49t-70 87t-27.5 131.5t27.5 131t70 86.5t93 49t97.5 18.5v102h79z"/>
<glyph glyph-name="Chi" horiz-adv-x="550" unicode="Χ" d="M320 375l195 -375h-97l-144 292l-152 -292h-87l197 372l-179 348h95l133 -268l139 268h88z"/>
<glyph glyph-name="Psi" horiz-adv-x="762" unicode="Ψ" d="M421 720v-495q49 4 83.5 20t56.5 41.5t31.5 59t9.5 72.5v302h80v-293q0 -55 -15.5 -102t-47.5 -83t-81.5 -58t-116.5 -27v-157h-78v157q-68 5 -118 27t-82 58t-47.5 83t-15.5 102v293h80v-302q0 -39 9.5 -72.5t31.5 -59t57 -41.5t85 -20v495h78z"/>
<glyph glyph-name="alpha" horiz-adv-x="548" unicode="α" d="M266 56q38 0 68.5 21.5t53.5 50.5v311q-20 21 -46.5 39t-60.5 18q-28 0 -52.5 -12.5t-42.5 -40t-28.5 -72t-10.5 -107.5q0 -60 9 -100t25 -64t37.5 -34t47.5 -10zM63 269q0 140 54 213t148 73q45 0 77 -19.5t52 -51.5l19 56h55v-540h-55l-20 74q-23 -39 -60.5 -61.5 t-94.5 -22.5q-37 0 -69 15t-55.5 48.5t-37 86.5t-13.5 129z"/>
<glyph glyph-name="beta" horiz-adv-x="577" unicode="β" d="M160 118q7 -9 20 -21t31 -22.5t41 -18t52 -7.5q35 0 60 11.5t41 32t23.5 47.5t7.5 58q0 46 -14 76t-37 48t-54 26t-64 9v58q32 4 58 12t45 24t29 40.5t10 62.5q0 22 -7 44t-22 39.5t-39 28.5t-58 11q-29 0 -51.5 -8.5t-38.5 -28t-24.5 -51.5t-8.5 -79v-392zM522 194 q0 -41 -12.5 -78t-38 -65t-63.5 -44.5t-88 -16.5q-32 0 -57.5 6t-45 15.5t-34 20.5t-23.5 22v-224h-80v671q0 122 55.5 178t149.5 56q41 0 78 -12.5t65 -35.5t44.5 -56t16.5 -74q0 -38 -11 -66.5t-29 -49t-41 -33.5t-46 -19q22 -4 50 -16t52.5 -35t41 -58t16.5 -86z"/>
<glyph glyph-name="gamma" horiz-adv-x="465" unicode="γ" d="M192 -170v184l-182 526h86l138 -435l140 435h81l-183 -526v-184h-80z"/>
<glyph glyph-name="delta" horiz-adv-x="552" unicode="δ" d="M148 250q0 -50 10 -87.5t27.5 -62t41 -36.5t51.5 -12q56 0 91.5 48t35.5 150q0 54 -10 92.5t-27.5 62.5t-40.5 35.5t-50 11.5q-26 0 -49.5 -11.5t-41 -35.5t-28 -62.5t-10.5 -92.5zM489 250q0 -71 -16.5 -120.5t-45.5 -80.5t-67.5 -45t-82.5 -14q-45 0 -84 17t-68 50 t-45.5 81.5t-16.5 111.5q0 65 16.5 114.5t43.5 83t61.5 50.5t71.5 17t66 -11t55 -39q-21 42 -53.5 75.5t-70 58t-78 40t-77.5 21.5v60h352v-70h-172q96 -44 153.5 -142t57.5 -258z"/>
<glyph glyph-name="epsilon" horiz-adv-x="486" unicode="ε" d="M249 53q27 0 47.5 7.5t35 20.5t23 29.5t11.5 33.5l80 -13q-6 -29 -21.5 -55t-41 -45t-60 -30t-79.5 -11q-40 0 -76 10t-63.5 29.5t-43.5 49.5t-16 70q0 34 10.5 59.5t27.5 42.5t39 26.5t45 11.5q-51 10 -80 45t-29 78q0 32 14 58.5t39 45t59 29t75 10.5q73 0 123 -32.5 t71 -107.5l-78 -13q-7 37 -33.5 65t-78.5 28q-48 0 -77 -22.5t-29 -68.5q0 -42 28 -64.5t66 -22.5h57v-64h-59q-48 0 -76 -29t-28 -68q0 -51 31.5 -77t86.5 -26z"/>
<glyph glyph-name="zeta" horiz-adv-x="465" unicode="ζ" d="M294 0q-41 4 -81.5 15.5t-73.5 37t-53.5 70t-20.5 114.5q0 72 17.5 135.5t48.5 116t73 93.5t92 68h-233v70h373v-61q-58 -24 -110 -62t-91.5 -90t-62.5 -117t-23 -143q0 -44 9.5 -75t31 -51.5t57 -32.5t86.5 -18q34 -4 56 -13t34.5 -22t17 -30t4.5 -36q0 -32 -14 -71.5 t-39 -75.5l-66 15q15 26 27 52.5t12 48.5q0 29 -14.5 43t-56.5 19z"/>
<glyph glyph-name="eta" horiz-adv-x="548" unicode="η" d="M80 0v540h58l15 -66q33 44 76 62.5t79 18.5q79 0 119.5 -49.5t40.5 -155.5v-520h-80v524q0 73 -24.5 104.5t-78.5 31.5q-38 0 -69 -21.5t-56 -51.5v-417h-80z"/>
<glyph glyph-name="theta" horiz-adv-x="575" unicode="θ" d="M288 674q-28 0 -53 -15t-44 -48.5t-30.5 -87t-13.5 -131.5h281q-2 78 -13.5 131.5t-30.5 87t-43.5 48.5t-52.5 15zM289 51q30 0 54.5 14t42.5 47t29 86.5t13 131.5h-281q2 -78 13 -131.5t30 -86.5t44 -47t55 -14zM63 360q0 111 21 183t53.5 115t72.5 60t78 17t78 -17 t72.5 -60t53 -115t20.5 -183t-20.5 -182.5t-53 -113t-72.5 -58t-78 -16.5t-78 16.5t-72.5 58t-53.5 113t-21 182.5z"/>
<glyph glyph-name="iota" horiz-adv-x="240" unicode="ι" d="M80 0v540h80v-540h-80z"/>
<glyph glyph-name="kappa" horiz-adv-x="493" unicode="κ" d="M80 0v540h80v-238l197 238h98l-217 -252l245 -288h-103l-220 259v-259h-80z"/>
<glyph glyph-name="lambda" horiz-adv-x="465" unicode="λ" d="M453 0h-82l-142 482l-134 -482h-83l161 540h41l-57 195h75z"/>
<glyph glyph-name="mu" horiz-adv-x="536" unicode="μ" d="M160 540v-354q0 -39 7 -64.5t20.5 -40t31.5 -20.5t41 -6q42 0 69 20t47 51v414h80v-540h-55l-17 65q-23 -40 -55.5 -57.5t-74.5 -17.5q-29 0 -53 11t-41 28v-199h-80v710h80z"/>
<glyph glyph-name="nu" horiz-adv-x="465" unicode="ν" d="M455 540l-164 -540h-119l-162 540h86l137 -486l141 486h81z"/>
<glyph glyph-name="xi" horiz-adv-x="480" unicode="ξ" d="M445 -31q0 -36 -14.5 -72.5t-38.5 -74.5l-66 15q15 26 27 52.5t12 48.5q0 13 -2 23.5t-9 18t-21.5 12.5t-38.5 8q-42 5 -82.5 18t-72.5 37t-51.5 60.5t-19.5 89.5q0 60 29.5 100t68.5 57q19 12 46 15q-20 3 -38 14q-32 16 -56.5 47t-24.5 71q0 52 26 86.5t74 54.5h-130 v70h360v-63h-24q-44 0 -84.5 -9.5t-72 -27t-50 -43.5t-18.5 -59q0 -55 41 -84.5t116 -29.5h38v-67h-58q-35 0 -64.5 -6t-50.5 -20t-33 -37t-12 -57q0 -40 13 -65.5t36.5 -41.5t57 -25t75.5 -16q29 -5 50.5 -12t35 -18t20 -28t6.5 -42z"/>
<glyph glyph-name="omicron" horiz-adv-x="565" unicode="ο" d="M147 270q0 -114 37.5 -166.5t99.5 -52.5q63 0 99 51.5t36 167.5q0 115 -38 169.5t-98 54.5q-59 0 -97.5 -55t-38.5 -169zM63 270q0 83 20 138t51.5 87.5t71 46t77.5 13.5t77 -13t70.5 -45.5t51.5 -87.5t20 -139t-20 -138t-51.5 -85.5t-70.5 -44t-77 -12.5t-77.5 12.5 t-71 44.5t-51.5 86t-20 137z"/>
<glyph glyph-name="pi" horiz-adv-x="527" unicode="π" d="M502 471h-80v-363q0 -32 7.5 -40.5t21.5 -8.5q8 0 14 1t8 2l15 -61q-13 -4 -24.5 -6.5t-25.5 -2.5q-29 0 -47.5 10t-29 28t-14 42.5t-3.5 53.5v343h-160v-475h-78v472h-84v68h480v-63z"/>
<glyph glyph-name="rho" horiz-adv-x="526" unicode="ρ" d="M160 89q17 -17 39.5 -29t51.5 -12q60 0 96 54.5t36 176.5q0 111 -30.5 160.5t-88.5 49.5q-28 0 -47.5 -10t-32 -26.5t-18.5 -38.5t-6 -47v-278zM80 -170v525q0 47 14 84t38.5 63t58.5 39.5t74 13.5q39 0 75 -12.5t63 -44t43.5 -85.5t16.5 -137q0 -148 -53.5 -217 t-142.5 -69q-34 0 -60.5 11.5t-46.5 31.5v-203h-80z"/>
<glyph glyph-name="sigma1" horiz-adv-x="506" unicode="ς" d="M291 0q-48 5 -89.5 20.5t-72.5 47t-48.5 81t-17.5 122.5q0 77 18.5 131t48.5 88t68 49.5t77 15.5q45 0 78 -14t56.5 -36t37 -49.5t19.5 -54.5l-80 -12q-10 45 -34 73t-75 28q-27 0 -51 -12t-41.5 -38.5t-27.5 -68.5t-10 -103q0 -58 11.5 -94.5t34 -58.5t57 -32.5 t80.5 -15.5q34 -4 56 -12.5t34.5 -21t17 -29t4.5 -35.5q0 -32 -14 -71.5t-39 -75.5l-66 15q15 26 27 52.5t12 48.5q0 29 -14.5 43t-56.5 19z"/>
<glyph glyph-name="sigma" horiz-adv-x="571" unicode="σ" d="M147 270q0 -63 11.5 -105t30 -67.5t43.5 -36t52 -10.5t51.5 10.5t43 36t29.5 67.5t11 105q0 48 -6.5 84.5t-16 64t-22 46t-24.5 29.5h-18q-34 0 -67 -6t-59.5 -29t-42.5 -67.5t-16 -121.5zM502 270q0 -84 -19.5 -138t-51 -85.5t-70 -44t-77.5 -12.5t-78 12.5t-71 44.5 t-52 86t-20 137q0 87 21 141.5t54.5 85.5t74 43t79.5 15l226 14v-75h-89q11 -12 24 -31t24 -46t18 -63.5t7 -83.5z"/>
<glyph glyph-name="tau" horiz-adv-x="436" unicode="τ" d="M411 473h-154v-473h-79v473h-153v67h386v-67z"/>
<glyph glyph-name="upsilon" horiz-adv-x="537" unicode="υ" d="M268 54q51 0 80 33.5t29 90.5v362h80v-359q0 -43 -13 -78t-37.5 -60t-59.5 -39t-79 -14q-88 0 -138 50t-50 137v363h80v-366q0 -57 28.5 -88.5t79.5 -31.5z"/>
<glyph glyph-name="phi" horiz-adv-x="733" unicode="φ" d="M593 273q0 73 -10.5 116.5t-27 66t-36.5 29.5t-39 7q-17 0 -41 -3.5t-39 -9.5v-423q46 3 81.5 14.5t60.5 36.5t38 65.5t13 100.5zM670 273q0 -68 -14.5 -119t-46.5 -85.5t-83.5 -53.5t-125.5 -23v-162h-75v162q-72 4 -122 23t-81 53.5t-45 85.5t-14 119q0 63 12.5 111 t31.5 82.5t41 56.5t41 32l56 -35q-20 -14 -39 -33.5t-33.5 -48.5t-23.5 -69.5t-9 -95.5q0 -60 12.5 -100.5t36.5 -65.5t58 -36.5t78 -14.5v472q37 12 80 19.5t89 7.5q85 0 130.5 -66.5t45.5 -215.5z"/>
<glyph glyph-name="chi" horiz-adv-x="500" unicode="χ" d="M291 203l189 -373h-94l-143 297l-140 -297h-83l180 370l-167 340h92l123 -266l119 266h80z"/>
<glyph glyph-name="psi" horiz-adv-x="712" unicode="ψ" d="M394 540v-485q86 9 123 54.5t37 112.5v318h78v-303q0 -44 -11 -86t-38 -75.5t-73 -56t-116 -27.5v-162h-76v162q-70 5 -116 28t-73 57t-38 75.5t-11 84.5v303h78v-318q0 -67 37 -112t123 -54v484h76z"/>
<glyph glyph-name="endash" horiz-adv-x="400" unicode="–" d="M0 287v72h400v-72h-400z"/>
<glyph glyph-name="emdash" horiz-adv-x="600" unicode="—" d="M0 287v72h600v-72h-600z"/>
<glyph glyph-name="quoteleft" horiz-adv-x="258" unicode="‘" d="M120 726h47l-39 -143h31v-95h-100v94z"/>
<glyph glyph-name="quotesinglbase" horiz-adv-x="258" unicode="‚" d="M122 -143h-47l39 143h-31v95h100v-94z"/>
<glyph glyph-name="quotedblleft" horiz-adv-x="417" unicode="“" d="M120 726h47l-39 -143h31v-95h-100v94zM279 726h47l-39 -143h31v-95h-100v94z"/>
<glyph glyph-name="quotedblright" horiz-adv-x="408" unicode="”" d="M122 467h-47l39 143h-31v95h100v-94zM272 467h-47l39 143h-31v95h100v-94z"/>
<glyph glyph-name="dagger" horiz-adv-x="490" unicode="†" d="M430 461h-144v-461h-82v461h-144v69h144v190h82v-190h144v-69z"/>
<glyph glyph-name="daggerdbl" horiz-adv-x="490" unicode="‡" d="M430 206h-144v-206h-82v206h-144v69h144v186h-144v69h144v190h82v-190h144v-69h-144v-186h144v-69z"/>
<glyph glyph-name="ellipsis" horiz-adv-x="690" unicode="…" d="M525 0v100h100v-100h-100zM295 0v100h100v-100h-100zM65 0v100h100v-100h-100z"/>
<glyph glyph-name="perthousand" horiz-adv-x="1050" unicode="‰" d="M790 159q0 -60 18 -86t47 -26t48 26t19 86t-19 86t-48 26t-47 -26t-18 -86zM479 159q0 -60 18 -86t47 -26t48 26t19 86t-19 86t-48 26t-47 -26t-18 -86zM409 159q0 42 11 74t30 53t43 31.5t51 10.5t51.5 -10.5t43 -31.5t30 -53t11.5 -74t-11.5 -73.5t-30.5 -52.5 t-43.5 -31t-50.5 -10t-50.5 10t-43.5 31t-30 52.5t-11 73.5zM130 541q0 -60 18 -86t47 -26t48 26t19 86t-19 86t-48 26t-47 -26t-18 -86zM60 541q0 42 11 74t30 53t43 31.5t51 10.5t51.5 -10.5t43 -31.5t30 -53t11.5 -74t-11.5 -73.5t-30.5 -52.5t-43.5 -31t-50.5 -10 t-50.5 10t-43.5 31t-30 52.5t-11 73.5zM268 0h-74l275 700h74zM719 159q0 42 11 74t30 53t43 31.5t51 10.5t51.5 -10.5t43 -31.5t30 -53t11.5 -74t-11.5 -73.5t-30.5 -52.5t-43.5 -31t-50.5 -10t-50.5 10t-43.5 31t-30 52.5t-11 73.5z"/>
<glyph glyph-name="guilsinglleft" horiz-adv-x="311" unicode="‹" d="M60 326l117 205h64l-92 -208l82 -222h-64z"/>
<glyph glyph-name="guilsinglright" horiz-adv-x="311" unicode="›" d="M144 101h-64l82 222l-92 208h64l117 -205z"/>
<glyph glyph-name="fraction" horiz-adv-x="270" unicode="⁄" d="M-56 -100h-86l467 910h86z"/>
<glyph glyph-name="uni2074" horiz-adv-x="340" unicode="⁴" d="M248 660v-111h56v-58h-56v-71h-66v71h-147v62l84 247h71l-88 -251h82l11 111h53z"/>
<glyph glyph-name="Euro" d="M424 389h-234q-1 -5 -1 -11v-66q0 -5 1 -10h213l-15 -60h-194q6 -54 19.5 -90.5t32.5 -59.5t43 -33t51 -10q35 0 63.5 11.5t54.5 26.5v-68q-18 -11 -50.5 -22.5t-80.5 -11.5q-31 0 -65 10t-64 38t-53 78.5t-32 130.5h-88l15 60h69q-1 5 -1 10v66q0 6 1 11h-84l15 60h74 q10 79 33.5 129.5t54.5 79.5t67.5 40.5t72.5 11.5q54 0 89 -14t61 -33l-17 -64q-32 24 -60 37t-66 13q-66 0 -104.5 -48.5t-50.5 -151.5h245z" unicode="€"/>
<glyph glyph-name="trademark" horiz-adv-x="793" unicode="™" d="M497 324l-92 320v-320h-61v340h-118v-340h-65v340h-116v56h401l85 -327l80 327h100v-396h-63v320l-88 -320h-63z"/>
<glyph glyph-name="arrowleft" d="M157 329l135 -171h-105l-163 212l163 213h105l-136 -172h360v-82h-359z" unicode="←"/>
<glyph glyph-name="arrowup" d="M226 490l-169 -135v102l212 163l213 -163v-102l-170 136v-363h-86v362z" unicode="↑"/>
<glyph glyph-name="arrowright" d="M383 411l-135 171h105l163 -212l-163 -213h-105l136 172h-360v82h359z" unicode="→"/>
<glyph glyph-name="arrowdown" d="M313 258l169 135v-102l-212 -163l-213 163v102l170 -136v363h86v-362z" unicode="↓"/>
<glyph glyph-name="partialdiff" horiz-adv-x="484" unicode="∂" d="M227 407q-51 0 -78.5 -45.5t-27.5 -136.5q0 -48 9.5 -81.5t25.5 -54t36.5 -29.5t41.5 -9q61 0 89.5 68t30.5 224q-24 24 -56.5 44t-70.5 20zM434 345q0 -171 -47 -263t-156 -92q-38 0 -72.5 15t-61 45.5t-42 75.5t-15.5 105q0 48 9.5 91.5t30.5 76t53.5 52t79.5 19.5 q46 0 80.5 -20t58.5 -49q-7 70 -34 119.5t-63.5 81.5t-76 49t-72.5 23l23 61q44 -12 97 -34t99.5 -65t77.5 -113t31 -178z"/>
<glyph glyph-name="product" horiz-adv-x="630" unicode="∏" d="M570 629h-80v-689q0 -32 7.5 -40.5t21.5 -8.5q8 0 14 1t8 2l15 -63q-13 -4 -24.5 -6.5t-25.5 -2.5q-29 0 -48.5 10t-30.5 28t-15.5 42.5t-4.5 53.5v673h-180v-799h-83v799h-84v71h510v-71z"/>
<glyph glyph-name="summation" d="M154 -102h321v-68h-410v71l227 414l-227 404v71h410v-69h-321l226 -406z" unicode="∑"/>
<glyph glyph-name="minus" d="M65 287v72h410v-72h-410z" unicode="−"/>
<glyph glyph-name="radical" horiz-adv-x="580" unicode="√" d="M630 750h-99l-203 -750h-119l-128 367h83l104 -314l201 757h161v-60z"/>
<glyph glyph-name="infinity" horiz-adv-x="684" unicode="∞" d="M477 248q48 0 73 28.5t25 73.5t-24 73.5t-69 28.5q-21 0 -40.5 -9.5t-34.5 -25.5t-25 -36.5t-13 -41.5q1 -8 9 -23.5t22 -30.5t33.5 -26t43.5 -11zM210 452q-48 0 -73 -28.5t-25 -73.5t24 -73.5t69 -28.5q21 0 40.5 9.5t34.5 25.5t25 36.5t13 41.5q-1 8 -9 23.5t-22 30.5 t-33.5 26t-43.5 11zM484 188q-39 0 -78 19.5t-64 64.5q-24 -42 -60.5 -63t-81.5 -21t-75.5 14.5t-49.5 37.5t-27.5 52t-8.5 58q0 27 9.5 56t29.5 52.5t51 38.5t74 15q39 0 77.5 -20.5t64.5 -63.5q23 42 60 63t82 21t75.5 -14.5t49.5 -37.5t27.5 -52t8.5 -58q0 -27 -9.5 -56 t-29.5 -52.5t-51 -38.5t-74 -15z"/>
<glyph glyph-name="approxequal" horiz-adv-x="560" unicode="≈" d="M184 409q-36 0 -61.5 -12t-47.5 -31v78q19 15 52 27.5t68 12.5q31 0 54 -8.5t43 -18t39.5 -18t43.5 -8.5q36 0 62 12t48 31v-78q-19 -15 -52 -27.5t-68 -12.5q-31 0 -54 8.5t-43.5 18t-40 18t-43.5 8.5zM184 210q-36 0 -61.5 -12t-47.5 -31v78q19 15 52 27.5t68 12.5 q31 0 54 -8.5t43 -18t39.5 -18t43.5 -8.5q36 0 62 12t48 31v-78q-19 -15 -52 -27.5t-68 -12.5q-31 0 -54 8.5t-43.5 18t-40 18t-43.5 8.5z"/>
<glyph glyph-name="notequal" d="M232 191l-91 -151h-79l91 151h-88v70h130l78 130h-208v70h250l84 139h79l-84 -139h81v-70h-123l-78 -130h201v-70h-243z" unicode="≠"/>
<glyph glyph-name="lessequal" d="M65 0v70h410v-70h-410zM65 281v90l410 170v-80l-348 -134l348 -139v-77z" unicode="≤"/>
<glyph glyph-name="greaterequal" d="M65 0v70h410v-70h-410zM65 111v77l348 139l-348 134v80l410 -170v-90z" unicode="≥"/>
<glyph glyph-name="lozenge" d="M264 647l-150 -297l150 -297l162 297zM316 0h-106l-180 350l181 350h105l193 -350z" unicode="◊"/>
<glyph glyph-name="grave.case" d="M244 768h-72l-142 117h119z" horiz-adv-x="274"/>
<glyph glyph-name="dieresis.case" d="M235 785v90h95v-90h-95zM30 785v90h95v-90h-95z" horiz-adv-x="360"/>
<glyph glyph-name="acute.case" d="M125 885h119l-142 -117h-72z" horiz-adv-x="274"/>
<glyph glyph-name="circumflex.case" d="M346 768h-90l-68 51l-68 -51h-90l119 117h78z" horiz-adv-x="376"/>
<glyph glyph-name="caron.case" d="M227 768h-78l-119 117h90l68 -51l68 51h90z" horiz-adv-x="376"/>
<glyph glyph-name="tilde.case" d="M235 770q-24 0 -39.5 6t-27.5 13t-24 13t-29 6t-40 -10t-45 -27v71q22 16 45 25t44 9q24 0 39.5 -6t27.5 -13t24 -13t29 -6t38 10t43 27v-71q-22 -16 -43 -25t-42 -9z" horiz-adv-x="350"/>
</font>
</defs>
</svg>
