<?xml version="1.0" encoding="utf-8"?>
<!-- Generator: Adobe Illustrator 17.0.0, SVG Export Plug-In . SVG Version: 6.00 Build 0)  -->
<!DOCTYPE svg PUBLIC "-//W3C//DTD SVG 1.1//EN" "http://www.w3.org/Graphics/SVG/1.1/DTD/svg11.dtd">
<svg version="1.1" id="Layer_1" xmlns="http://www.w3.org/2000/svg" xmlns:xlink="http://www.w3.org/1999/xlink" x="0px" y="0px"
	 width="347.22px" height="103.534px" viewBox="0 0 347.22 103.534" enable-background="new 0 0 347.22 103.534"
	 xml:space="preserve">
<g>
	<path fill="#9A6332" d="M138.261,93.119c-5.581-7.527-8.889-16.836-8.889-26.905c0-24.965,20.308-45.275,45.271-45.275
		c24.964,0,45.273,20.31,45.273,45.275c0,9.971-3.248,19.194-8.731,26.683c2.889,0.131,5.776,0.274,8.663,0.439
		c4.776-7.93,7.529-17.209,7.529-27.121c0-29.079-23.656-52.736-52.735-52.736c-29.076,0-52.732,23.657-52.732,52.736
		c0,10.041,2.824,19.435,7.715,27.432C132.503,93.461,135.381,93.269,138.261,93.119z"/>
</g>
<g>
	<g>
		<rect x="250.917" y="39.383" fill="#9A6332" width="59.506" height="5.579"/>
		<rect x="250.917" y="55.385" fill="#9A6332" width="83.475" height="5.579"/>
		<rect x="250.917" y="71.387" fill="#9A6332" width="59.506" height="5.579"/>
	</g>
	<g>
		<rect x="36.797" y="39.383" fill="#9A6332" width="59.506" height="5.579"/>
		<rect x="12.828" y="55.385" fill="#9A6332" width="83.475" height="5.579"/>
		<rect x="36.797" y="71.387" fill="#9A6332" width="59.506" height="5.579"/>
	</g>
</g>
<g id="Layer_1_1_">
	<g>
		<circle fill="#9A6332" cx="166.394" cy="58.188" r="1.641"/>
		<circle fill="#9A6332" cx="162.156" cy="64.218" r="1.747"/>
		<circle fill="#9A6332" cx="174.623" cy="66.831" r="2.232"/>
		<circle fill="#9A6332" cx="187.077" cy="64.218" r="1.747"/>
		<circle fill="#9A6332" cx="182.84" cy="58.188" r="1.641"/>
		<path fill="#9A6332" d="M188.605,55.584c-1.047-2.676-2.844-4.984-5.127-6.671c-1.373,3.553-4.826,6.084-8.859,6.084
			c-4.052,0-7.516-2.549-8.879-6.128c-2.293,1.689-4.089,4.013-5.146,6.714c-4.572,1.021-7.978,5.102-7.978,9.984
			c0,5.65,4.587,10.231,10.236,10.231c1.765,0,3.434-0.468,4.884-1.255c2.054,1.074,4.396,1.697,6.861,1.697h0.077
			c2.466,0,4.785-0.622,6.838-1.697c1.451,0.789,3.104,1.245,4.87,1.245c5.65,0,10.22-4.575,10.22-10.225
			C196.604,60.683,193.177,56.607,188.605,55.584z M162.156,65.965c-0.963,0-1.746-0.781-1.746-1.746s0.784-1.747,1.746-1.747
			c0.966,0,1.747,0.782,1.747,1.747C163.903,65.184,163.124,65.965,162.156,65.965z M166.394,59.83
			c-0.908,0-1.641-0.736-1.641-1.641c0-0.908,0.735-1.64,1.641-1.64c0.907,0,1.641,0.733,1.641,1.64
			C168.035,59.094,167.301,59.83,166.394,59.83z M174.623,69.063c-1.233,0-2.231-0.999-2.231-2.232s0.999-2.231,2.231-2.231
			c1.234,0,2.233,0.999,2.233,2.231C176.856,68.065,175.856,69.063,174.623,69.063z M182.84,59.83c-0.908,0-1.64-0.736-1.64-1.641
			c0-0.908,0.733-1.64,1.64-1.64c0.905,0,1.64,0.733,1.64,1.64C184.479,59.094,183.743,59.83,182.84,59.83z M187.077,65.965
			c-0.966,0-1.75-0.781-1.75-1.746s0.784-1.747,1.75-1.747c0.963,0,1.746,0.782,1.746,1.747
			C188.823,65.184,188.041,65.965,187.077,65.965z"/>
		<path fill="#9A6332" d="M181.502,77.84c-2.121,0.892-4.447,1.394-6.886,1.411c-2.438-0.018-4.762-0.521-6.885-1.411
			c-1.509,0.6-3.153,0.932-4.873,0.932c-1.358,0-2.671-0.206-3.905-0.589l3.034,9.279c1.196,3.655,4.604,6.11,8.451,6.11h8.358
			c3.845,0,7.253-2.455,8.448-6.11l3.037-9.279c-1.236,0.383-2.546,0.589-3.905,0.589C184.654,78.771,183.011,78.44,181.502,77.84z"
			/>
		<path fill="#9A6332" d="M174.467,44.005c-1.23,0-2.231-0.999-2.231-2.229c0-0.833-0.149-1.554-0.392-2.174
			c-2.213,1.043-3.746,3.292-3.746,5.902c0,3.601,2.919,6.52,6.521,6.52s6.519-2.919,6.519-6.52c0-2.981-2.001-5.493-4.729-6.27
			c0.185,0.773,0.291,1.617,0.291,2.542C176.697,43.006,175.697,44.005,174.467,44.005z"/>
		<path fill="#9A6332" d="M168.185,34.607c0.054,0.015,5.539,1.5,5.539,7.169c0,0.411,0.333,0.744,0.743,0.744
			c0.412,0,0.744-0.333,0.744-0.744c0-6.807-6.587-8.591-6.652-8.608c-0.406-0.102-0.802,0.137-0.908,0.533
			C167.546,34.097,167.787,34.504,168.185,34.607z"/>
	</g>
</g>
</svg>
