<svg id="Layer_1" xmlns="http://www.w3.org/2000/svg" viewBox="0 0 36 36"><style>.st0{fill:#888888;}</style><path class="st0" d="M18 3.6c8 0 14.4 6.5 14.4 14.4S26 32.4 18 32.4 3.6 26 3.6 18 10 3.6 18 3.6M18 1C8.6 1 1 8.6 1 18s7.6 17 17 17 17-7.6 17-17S27.4 1 18 1z"/><path class="st0" d="M16.1 3.8c1.6 0 3.5 1.1 5.2 3.2 2 2.3 3.6 5.6 4.4 9.2 2 8.2-.4 14.9-3.7 15.7-.3.1-.5.1-.8.1-1.6 0-3.5-1.1-5.2-3.2-2-2.3-3.6-5.6-4.4-9.2-.9-3.9-1-7.9 0-11 .8-2.6 2.1-4.3 3.8-4.7.1-.1.4-.1.7-.1m0-2.6c-.5 0-.9.1-1.4.2-5.3 1.3-7.8 9.7-5.6 18.8 2 8.3 7.3 14.3 12.2 14.3.5 0 .9-.1 1.4-.2 5.3-1.3 7.8-9.7 5.6-18.8-2-8.3-7.3-14.3-12.2-14.3z"/><path class="st0" d="M9.7 25.9c-4.2 0-7.5-1-8.1-3.4l2.5-.6c.3 1.3 5.8 2.4 14.8.2 3.9-1 7.6-2.5 10.1-4s3.2-2.8 3.1-3.2l2.5-.6c.3 1.3-.1 3.5-4.2 6-2.8 1.7-6.6 3.3-10.8 4.3-3.4.8-6.9 1.3-9.9 1.3z"/></svg>