<svg id="Layer_1" xmlns="http://www.w3.org/2000/svg" viewBox="0 0 48 48"><style>.st0{fill:#555555;}</style><path class="st0" d="M47.9 4.3C47.3 2 45.8.6 43.4.1c-.1 0-.2-.1-.3-.1H4.9c-.2 0-.4.1-.6.1C2 .8.6 2.2.1 4.6c0 .1-.1.2-.1.3v38.2c0 .2.1.4.1.5.5 2.2 2.2 3.8 4.5 4.2.1 0 .2.1.3.1l38.7-.1c2.2-.5 3.9-2.2 4.3-4.4 0-.1.1-.2.1-.3V4.9c0-.2-.1-.4-.1-.6zM37.5 17.1v.9c0 9.2-7 19.8-19.8 19.8-3.9 0-7.6-1.2-10.7-3.1.5.1 1.1.1 1.7.1 3.3 0 6.3-1.1 8.7-3-3.1-.1-5.6-2.1-6.5-4.8.4.1.9.1 1.3.1.6 0 1.1-.1 1.7-.2C10.6 26.2 8 23.4 8 20v-.1c1 .5 2.2.8 3.3.9-1.9-1.3-3-3.4-3-5.8 0-1.3.4-2.5 1-3.5 3.4 4.2 8.6 7 14.4 7.3-.1-.5-.2-1-.2-1.6 0-3.9 3.1-7 7-7 2 0 3.8.8 5.1 2.2 1.6-.3 3.1-.9 4.4-1.7-.5 1.6-1.6 3-3.1 3.9 1.4-.2 2.8-.5 4-1.1-.8 1.4-2 2.6-3.4 3.6z"/></svg>