<svg id="Layer_1" xmlns="http://www.w3.org/2000/svg" viewBox="0 0 48 48"><style>.st0{fill:#55ACEE;} .st1{fill:#FFFFFF;}</style><g id="XMLID_6_"><path id="XMLID_7_" class="st0" d="M4.9 48c-.1 0-.2-.1-.3-.1-2.3-.4-4-2-4.5-4.2 0-.2-.1-.4-.1-.5V4.9c0-.1.1-.2.1-.3C.6 2.2 2 .8 4.3.1c.2 0 .4-.1.6-.1h38.2c.1 0 .2.1.3.1 2.4.5 3.8 1.9 4.5 4.2 0 .2.1.4.1.6v38.2c0 .1-.1.2-.1.3-.4 2.2-2.1 4-4.3 4.4L4.9 48z"/></g><path id="XMLID_3_" class="st1" d="M41 13.5c-1.3.6-2.6.9-4 1.1 1.4-.9 2.5-2.2 3.1-3.9-1.3.8-2.8 1.4-4.4 1.7-1.3-1.4-3.1-2.2-5.1-2.2-3.9 0-7 3.1-7 7 0 .5.1 1.1.2 1.6-5.8-.3-10.9-3.1-14.4-7.3-.6 1-.9 2.2-.9 3.5 0 2.4 1.2 4.6 3.1 5.8-1.1 0-2.2-.4-3.2-.9v.1c0 3.4 2.4 6.2 5.6 6.8-.6.2-1.2.2-1.8.2-.4 0-.9 0-1.3-.1.9 2.8 3.5 4.8 6.5 4.8-2.4 1.9-5.4 3-8.7 3-.6 0-1.1 0-1.7-.1 3.1 2 6.8 3.1 10.7 3.1 12.8 0 19.8-10.6 19.8-19.8V17c1.4-.9 2.6-2.1 3.5-3.5z"/></svg>