<svg id="Layer_1" xmlns="http://www.w3.org/2000/svg" viewBox="0 0 48 48"><style>.st0{display:none;} .st1{display:inline;fill:#555555;} .st2{fill:#555555;}</style><g id="XMLID_6_" class="st0"><path id="XMLID_9_" class="st1" d="M45.4 48c1.5 0 2.6-1.2 2.6-2.6V2.6C48 1.2 46.8 0 45.4 0H2.6C1.2 0 0 1.2 0 2.6v42.7C0 46.8 1.2 48 2.6 48h42.8z"/></g><path class="st2" d="M0 43.1V4.9c0-.1.1-.2.1-.3C.6 2.2 2 .8 4.3.1c.2 0 .4-.1.6-.1h38.2c.1 0 .2.1.3.1 2.4.5 3.8 1.9 4.5 4.2 0 .2.1.4.1.6v38.2c0 .1-.1.2-.1.3-.4 2.2-2.1 4-4.3 4.4-.2 0-.3.1-.5.1H4.9c-.1 0-.2-.1-.3-.1-2.3-.4-4-2-4.5-4.2 0-.1-.1-.3-.1-.5zm5.6-22.8v20.2c0 1.2.8 2 2 2h32.9c1.3 0 2.1-.8 2.1-2.1v-20h-4.2c1 4.6.3 8.8-2.5 12.5-2.8 3.7-6.6 5.7-11.3 5.9-3.9.2-7.4-1.1-10.3-3.7-4.3-4-5.7-8.9-4.5-14.7-1.5-.1-2.9-.1-4.2-.1zM33.2 24c0-5.1-4.1-9.2-9.2-9.3-5.1 0-9.2 4.1-9.2 9.2s4.1 9.2 9.2 9.3c5.1.1 9.2-4.1 9.2-9.2zm4.7-18.5h-2.7c-1.2 0-2 .7-2 1.9v5.4c0 1.1.8 1.9 1.9 1.9h5.4c1.2 0 1.9-.8 1.9-2V7.4c0-1.2-.8-2-2-2-.8.1-1.6.1-2.5.1z"/></svg>