<svg id="Layer_1" xmlns="http://www.w3.org/2000/svg" viewBox="6 -6 48 48"><style>.st0{fill:#555555;}</style><g id="Layer_1_1_"><path class="st0" d="M28.9 11.8c.3 0 .5-.1.6-.2.2-.2.2-.4.2-.7V5.1c0-.2-.1-.4-.2-.6-.2-.1-.4-.2-.6-.2s-.4.1-.6.2c-.2.1-.2.3-.2.6v5.8c0 .3.1.5.2.7.1.1.3.2.6.2z"/><path class="st0" d="M53.9-1.7c-.6-2.3-2.1-3.7-4.5-4.2-.1 0-.2-.1-.3-.1H10.9c-.2 0-.4.1-.6.1-2.3.7-3.7 2.1-4.2 4.5 0 .1-.1.2-.1.3v38.2c0 .2.1.4.1.5.5 2.2 2.2 3.8 4.5 4.2.1 0 .2.1.3.1h38.7c2.2-.5 3.9-2.2 4.3-4.4 0-.1.1-.2.1-.3V-1c0-.3-.1-.5-.1-.7zM33.5 2.8h2v8.1c0 .3 0 .4.1.5.1.1.2.2.4.2.1 0 .3-.1.6-.2.2-.1.4-.3.6-.6v-8h2v10.6h-2v-1.2c-.4.4-.7.8-1.1 1-.4.2-.8.3-1.1.3-.5 0-.8-.2-1-.5s-.3-.8-.3-1.4V2.8h-.2zm7.8 13.5c2.6 0 4.7 2.1 4.7 4.6.2 2 .2 4.1.2 6.1s-.1 4.1-.2 6.1c0 2.6-2.1 4.6-4.7 4.6-3.7.2-7.4.3-11.3.3s-7.6-.1-11.3-.2c-2.6 0-4.7-2.1-4.7-4.6-.2-2-.2-4.1-.2-6.1-.1-2.1 0-4.1.2-6.1 0-2.6 2.1-4.6 4.7-4.6 3.5-.1 7.1-.2 10.8-.2h1.2c3.5-.1 7.1 0 10.6.1zM31 3.3c.5.5.8 1.2.8 2v5.5c0 .9-.3 1.6-.8 2.1s-1.2.8-2.1.8-1.6-.3-2.1-.8-.8-1.3-.8-2.2V5.2c0-.8.3-1.5.8-2s1.2-.7 2.1-.7c.9 0 1.6.3 2.1.8zM20.9-1l1.4 5.7h.1L23.9-1h2.3l-2.6 8.4v6h-2.2V7.7L18.7-1h2.2z"/><path class="st0" d="M40.6 34.3c1 0 1.7-.3 2.2-.8.5-.6.7-1.4.7-2.5v-.8h-2v.8c0 .6-.1 1-.2 1.2-.1.2-.4.3-.7.3s-.5-.1-.7-.3c-.1-.2-.2-.6-.2-1.2v-2h3.8v-2.7c0-1-.2-1.8-.7-2.3s-1.2-.8-2.1-.8c-.9 0-1.6.3-2.2.9s-.8 1.3-.8 2.3V31c0 1 .3 1.8.8 2.4.5.6 1.2.9 2.1.9zm-.8-8c0-.4.1-.8.2-1 .1-.2.4-.3.7-.3s.5.1.7.3c.1.2.2.5.2 1v1.1h-1.7v-1.1h-.1zm-7.2 6.9c.3.3.5.6.8.7.3.2.6.2 1 .2.6 0 1-.2 1.3-.6.3-.4.5-1 .5-1.7v-5.9c0-.9-.2-1.5-.5-2s-.8-.7-1.4-.7c-.3 0-.6.1-.9.3-.3.2-.6.4-.8.7v-4.6h-2V34h2v-.8zm0-7.8c.1-.1.3-.3.4-.3.1-.1.3-.1.4-.1.3 0 .5.1.6.3.1.2.2.5.2.8v5.5c0 .3-.1.6-.2.7-.1.1-.3.2-.5.2s-.3 0-.5-.1-.3-.2-.5-.4l.1-6.6zm-9.5-5.8h-6.8v2.1h2.3V34h2.2V21.7h2.3zm3.6 11.9l-.6.6c-.2.2-.4.2-.5.2-.2 0-.3-.1-.4-.2-.1-.1-.2-.3-.2-.5v-8.1h-2v8.9c0 .6.1 1.1.3 1.4.2.3.6.5 1 .5s.8-.1 1.1-.3c.4-.2.8-.6 1.1-1v1h2V23.4h-2v8.1h.2z"/></g></svg>