<svg id="Layer_1_copy" xmlns="http://www.w3.org/2000/svg" viewBox="0 0 48 48"><style>.st0{fill:#CB3731;} .st1{fill:#FFFFFF;}</style><path class="st0" d="M35.3 22.3c-3.5-.1-7.1-.2-10.8-.2h-1.2c-3.7 0-7.3.1-10.8.2-2.4 0-4.5 2.1-4.5 4.7-.2 2-.3 4-.3 6s.1 4.1.2 6.1c0 2.6 2.1 4.6 4.7 4.6 3.8.2 7.5.3 11.4.3 3.9 0 7.6-.1 11.3-.2 2.6 0 4.7-2.1 4.7-4.6.2-2 .2-4.1.2-6.1S40.1 29 40 27c0-2.6-2.1-4.7-4.7-4.7zM14.8 40h-2.2V27.7h-2.3v-2.1h6.8v2.1h-2.3V40zm7.9 0h-2v-1.2c-.4.4-.7.8-1.1 1-.4.2-.8.3-1.1.3-.5 0-.8-.2-1-.5-.2-.3-.3-.8-.3-1.4v-8.9h2v8.1c0 .3 0 .4.1.5.1.1.2.2.4.2.1 0 .3-.1.5-.2s.4-.3.6-.6v-8.1h2V40zm7.6-2.2c0 .8-.2 1.3-.5 1.7-.3.4-.8.6-1.3.6-.4 0-.7-.1-1-.2-.3-.2-.6-.4-.8-.7v.8h-2V25.6h2v4.6c.3-.3.5-.6.8-.7.3-.2.6-.3.9-.3.6 0 1.1.2 1.4.7.3.5.5 1.1.5 2v5.9zm7.3-2.8h-3.8v2c0 .6.1.9.2 1.2.1.2.4.3.7.3.3 0 .6-.1.7-.3.1-.2.2-.6.2-1.2v-.7h2v.7c0 1.1-.2 1.9-.7 2.5-.5.6-1.2.8-2.2.8-.9 0-1.6-.3-2.1-.9-.5-.6-.8-1.4-.8-2.4v-4.8c0-.9.3-1.7.8-2.3.6-.6 1.3-.9 2.2-.9.9 0 1.6.3 2.1.8s.7 1.3.7 2.3V35z"/><path d="M16.5 10.7h-.1L14.9 5h-2.2l2.7 8.7v5.7h2.2v-6L20.2 5h-2.3z"/><path class="st0" d="M27.4 31c-.1 0-.3 0-.4.1-.1.1-.3.2-.4.3V38c.2.2.3.3.5.4.2.1.3.1.5.1s.4-.1.5-.2c.1-.1.2-.4.2-.7v-5.5c0-.4-.1-.6-.2-.8-.2-.2-.4-.3-.7-.3zm7.3 0c-.3 0-.5.1-.7.3-.1.2-.2.5-.2 1v1.1h1.7v-1.1c0-.4-.1-.8-.2-1-.1-.2-.3-.3-.6-.3z"/><path d="M27.5 8.8v8.9c0 .6.1 1.1.3 1.4.2.3.6.5 1 .5s.8-.1 1.1-.3c.4-.2.8-.6 1.1-1v1.2h2V8.8h-2v8.1l-.6.6c-.2.1-.4.2-.6.2-.2 0-.3-.1-.4-.2-.1-.1-.1-.3-.1-.5V8.8h-1.8zm-6.7 10c.5.5 1.2.8 2.1.8.9 0 1.6-.3 2.1-.8s.8-1.2.8-2.1v-5.5c0-.8-.3-1.5-.8-2s-1.2-.8-2-.8c-.9 0-1.6.2-2.1.7-.5.5-.8 1.1-.8 2v5.5c0 1 .2 1.7.7 2.2zm1.3-7.7c0-.2.1-.4.2-.6.2-.1.3-.2.6-.2s.5.1.6.2c.2.1.2.3.2.6v5.8c0 .3-.1.5-.2.7-.2.2-.4.2-.6.2-.3 0-.5-.1-.6-.2-.1-.2-.2-.4-.2-.7v-5.8z"/><path class="st1" d="M22.9 17.8c.3 0 .5-.1.6-.2.2-.2.2-.4.2-.7v-5.8c0-.2-.1-.4-.2-.6-.2-.1-.4-.2-.6-.2-.2 0-.4.1-.6.2-.2.1-.2.3-.2.6v5.8c0 .3.1.5.2.7.1.1.3.2.6.2z"/><path class="st1" d="M47.9 4.3C47.3 2 45.8.6 43.4.1c-.1 0-.2-.1-.3-.1H4.9c-.2 0-.4.1-.6.1C2 .8.6 2.2.1 4.6c0 .1-.1.2-.1.3v38.2c0 .2.1.4.1.5.5 2.2 2.2 3.8 4.5 4.2.1 0 .2.1.3.1h38.7c2.2-.5 3.9-2.2 4.3-4.4 0-.1.1-.2.1-.3V5c0-.3-.1-.5-.1-.7zM40 39.1c0 2.6-2.1 4.6-4.7 4.6-3.7.2-7.4.3-11.3.3-3.9 0-7.6-.1-11.3-.2-2.6 0-4.7-2.1-4.7-4.6-.2-2-.2-4.1-.2-6.1-.1-2.1 0-4.1.2-6.1 0-2.6 2.1-4.6 4.7-4.6 3.5-.1 7.1-.2 10.8-.2h1.2c3.7 0 7.3.1 10.8.2 2.6 0 4.7 2.1 4.7 4.6.2 2 .2 4.1.2 6.1-.1 2-.2 4-.4 6zM17.6 13.4v6h-2.2v-5.7L12.7 5h2.2l1.4 5.7h.1L17.9 5h2.3l-2.6 8.4zm3.3-4.2c.5-.5 1.2-.7 2.1-.7.8 0 1.5.3 2 .8s.8 1.2.8 2v5.5c0 .9-.3 1.6-.8 2.1s-1.2.8-2.1.8c-.9 0-1.6-.3-2.1-.8s-.8-1.3-.8-2.2v-5.5c.1-.8.3-1.5.9-2zm8.7 8.2c.1.1.2.2.4.2.1 0 .3-.1.6-.2.2-.1.4-.3.6-.6v-8h2v10.6h-2v-1.2c-.4.4-.7.8-1.1 1-.4.2-.8.3-1.1.3-.5 0-.8-.2-1-.5-.2-.3-.3-.8-.3-1.4V8.8h2v8.1c-.3.3-.2.4-.1.5z"/><path class="st1" d="M34.8 29.2c-.9 0-1.6.3-2.2.9-.6.6-.8 1.3-.8 2.3V37c0 1 .3 1.8.8 2.4.5.6 1.2.9 2.1.9 1 0 1.7-.3 2.2-.8.5-.6.7-1.4.7-2.5v-.8h-2v.8c0 .6-.1 1-.2 1.2-.1.2-.4.3-.7.3-.3 0-.5-.1-.7-.3-.1-.2-.2-.6-.2-1.2v-2h3.8v-2.7c0-1-.2-1.8-.7-2.3-.5-.6-1.2-.8-2.1-.8zm.7 4.1h-1.7v-1.1c0-.4.1-.8.2-1 .1-.2.4-.3.7-.3.3 0 .5.1.7.3.1.2.2.5.2 1v1.1zm-7.1-4c-.3 0-.6.1-.9.3-.3.2-.6.4-.8.7v-4.6h-2V40h2v-.8c.3.3.5.6.8.7.3.2.6.2 1 .2.6 0 1-.2 1.3-.6.3-.4.5-1 .5-1.7v-5.9c0-.9-.2-1.5-.5-2-.3-.4-.8-.6-1.4-.6zm-.2 8.2c0 .3-.1.6-.2.7-.1.1-.3.2-.5.2s-.3 0-.5-.1-.3-.2-.5-.4v-6.6c.1-.1.3-.3.4-.3.1-.1.3-.1.4-.1.3 0 .5.1.6.3.1.2.2.5.2.8v5.5zM17.1 25.6h-6.8v2.1h2.3V40h2.2V27.7h2.3zm3.6 11.9l-.6.6c-.2.2-.4.2-.5.2-.2 0-.3-.1-.4-.2-.1-.1-.2-.3-.2-.5v-8.1h-2v8.9c0 .6.1 1.1.3 1.4.2.3.6.5 1 .5s.8-.1 1.1-.3c.4-.2.8-.6 1.1-1v1h2V29.4h-2v8.1z"/></svg>