<svg id="Layer_1" xmlns="http://www.w3.org/2000/svg" viewBox="6 -6 48 48"><style>.st0{fill:#FFFFFF;} .st1{fill:#3D5A98;}</style><path class="st0" d="M45.4 23.4l.9-7.2h-7.2v-4.6c0-2.1.6-3.5 3.6-3.5h3.8V1.7c-.7-.1-3-.3-5.6-.3-5.5 0-9.3 3.4-9.3 9.6v5.3h-6.3v7.2h6.3v18.4h-9.5v.1h17.1V23.4h6.2z"/><path class="st1" d="M53.9-1.6c-.6-2.3-2.1-3.7-4.5-4.2-.1 0-.2-.1-.3-.1H10.9c-.2 0-.4.1-.6.1-2.3.7-3.7 2.1-4.2 4.5 0 .1-.1.2-.1.3v38.2c0 .2.1.4.1.5.5 2.2 2.2 3.8 4.5 4.2.1 0 .2.1.3.1l11.2-.1h9.5V23.5h-6.3v-7.2h6.3V11c0-6.2 3.8-9.6 9.3-9.6 2.6 0 4.9.2 5.6.3v6.4h-3.8c-3 0-3.6 1.4-3.6 3.5v4.6h7.2l-.9 7.2h-6.2V42h10.4c2.2-.5 3.9-2.2 4.3-4.4 0-.1.1-.2.1-.3V-.9c0-.3-.1-.5-.1-.7z"/></svg>