<?xml version="1.0" standalone="no"?>
<!DOCTYPE svg PUBLIC "-//W3C//DTD SVG 1.1//EN" "http://www.w3.org/Graphics/SVG/1.1/DTD/svg11.dtd" >
<svg xmlns="http://www.w3.org/2000/svg">
<metadata></metadata>
<defs>
<font id="Suzuki-RegularRegular" horiz-adv-x="1105" >
<font-face units-per-em="2048" ascent="1634" descent="-414" />
<missing-glyph horiz-adv-x="614" />
<glyph unicode="&#xfb01;" horiz-adv-x="1107" d="M41 973v133h164v113q0 135 92 219t262 84q145 0 344 -41v-129q-188 37 -328 37q-109 0 -157.5 -38.5t-48.5 -119.5v-125h571v-1106h-164v973h-407v-973h-164v973h-164z" />
<glyph unicode="&#xfb02;" horiz-adv-x="1107" d="M41 973v133h164v113q0 134 91.5 218.5t254.5 84.5q176 0 389 -41v-1481h-164v1370q-105 19 -209 19q-198 0 -198 -158v-125h206v-133h-206v-973h-164v973h-164z" />
<glyph horiz-adv-x="0" />
<glyph horiz-adv-x="2048" />
<glyph unicode=" "  horiz-adv-x="614" />
<glyph unicode="&#x09;" horiz-adv-x="614" />
<glyph unicode="&#xa0;" horiz-adv-x="614" />
<glyph unicode="!" horiz-adv-x="552" d="M174 0v205h205v-205h-205zM180 1475h185l-21 -983h-143z" />
<glyph unicode="&#x22;" horiz-adv-x="819" d="M154 1315v190h204v-188l-51 -289h-102zM461 1315v190h205v-188l-52 -289h-102z" />
<glyph unicode="#" horiz-adv-x="1177" d="M104 403l9 125h163l35 387h-166l13 125h164l34 394h146l-35 -394h291l35 394h145l-35 -394h170l-12 -125h-168l-35 -387h170l-8 -125h-172l-35 -403h-145l34 403h-290l-35 -403h-146l35 403h-162zM422 528h291l35 387h-291z" />
<glyph unicode="$" d="M104 299l160 29q27 -93 102 -156t207 -63q43 0 87 14t84 42.5t65 78.5t25 114q0 61 -17.5 106.5t-34.5 73.5t-77.5 62.5t-92.5 48t-134 54.5q-4 2 -6.5 3t-6 2.5t-6.5 2.5q-299 119 -299 370q0 152 90 250.5t250 118.5v229h147v-231q135 -20 222 -104t124 -199l-151 -29 q-28 89 -94.5 146t-174.5 57q-106 0 -176.5 -55t-70.5 -164q0 -45 11.5 -79t42.5 -68.5t89 -65.5t147 -64q67 -24 117.5 -48t104 -62.5t88 -83.5t56.5 -111t22 -145q0 -146 -98.5 -260t-258.5 -138v-251h-147v249q-81 10 -151 43t-117.5 80t-79.5 98.5t-48 104.5z" />
<glyph unicode="%" horiz-adv-x="1515" d="M123 1108q0 165 80 255.5t196 90.5t197.5 -90.5t81.5 -255.5q0 -164 -81.5 -253t-197.5 -89q-115 0 -195.5 89t-80.5 253zM266 1108q0 -118 35.5 -173.5t97.5 -55.5q63 0 100.5 56t37.5 173q0 118 -37 173.5t-101 55.5q-133 0 -133 -229zM397 0l564 1434h151l-563 -1434 h-152zM838 326q0 165 80 255.5t196 90.5t197.5 -90.5t81.5 -255.5q0 -164 -81.5 -253t-197.5 -89q-115 0 -195.5 89t-80.5 253zM981 326q0 -118 35.5 -174t97.5 -56t99.5 56.5t37.5 173.5q0 118 -36.5 173.5t-100.5 55.5q-133 0 -133 -229z" />
<glyph unicode="&#x26;" horiz-adv-x="1427" d="M164 354q0 138 67 230t207 178q-69 72 -107.5 119t-68 113.5t-29.5 135.5q0 64 22.5 121t65.5 103t114 73t161 27q166 0 262 -90t96 -215q0 -131 -70.5 -221.5t-224.5 -179.5l342 -353q73 155 89 353l139 -33q-25 -255 -121 -430l278 -285h-200l-162 164 q-160 -184 -432 -184q-185 0 -306.5 107t-121.5 267zM334 369q0 -48 15 -91.5t47 -81.5t88.5 -60.5t131.5 -22.5q182 0 308 155l-394 402q-107 -68 -151.5 -136t-44.5 -165zM393 1130q0 -66 37 -124.5t139 -165.5q140 82 190 147t50 156q0 89 -59 137.5t-150 48.5 q-103 0 -155 -52t-52 -147z" />
<glyph unicode="'" horiz-adv-x="512" d="M154 1315v190h204v-188l-51 -289h-102z" />
<glyph unicode="(" horiz-adv-x="696" d="M154 674q0 145 17.5 273.5t42.5 221t69 188.5t79.5 156.5t90.5 145.5h131q-63 -115 -103 -201.5t-84 -211.5t-66 -268t-22 -304t22 -304t66 -268t84 -211.5t103 -201.5h-131q-55 85 -90.5 145.5t-79.5 156.5t-69 188.5t-42.5 221t-17.5 273.5z" />
<glyph unicode=")" horiz-adv-x="696" d="M113 -311q49 90 82 157t72.5 167.5t63 193t40 215t16.5 252.5t-16.5 252.5t-40 215t-63 193t-72.5 167.5t-82 157h131q55 -85 90.5 -145.5t79.5 -156.5t69 -188.5t42.5 -221t17.5 -273.5t-17.5 -273.5t-42.5 -221t-69 -188.5t-79.5 -156.5t-90.5 -145.5h-131z" />
<glyph unicode="*" horiz-adv-x="962" d="M100 1169l50 148l282 -123l-29 311h156l-31 -309l285 123l47 -148l-299 -67l203 -230l-127 -90l-156 263l-155 -265l-125 92l200 230z" />
<glyph unicode="+" d="M133 590v143h340v334h160v-334h340v-143h-340v-340h-160v340h-340z" />
<glyph unicode="," horiz-adv-x="471" d="M80 -311l113 311h-60v205h205v-203l-143 -313h-115z" />
<glyph unicode="-" horiz-adv-x="870" d="M123 590v143h625v-143h-625z" />
<glyph unicode="." horiz-adv-x="471" d="M133 0v205h205v-205h-205z" />
<glyph unicode="/" horiz-adv-x="542" d="M-20 -184l428 1659h155l-428 -1659h-155z" />
<glyph unicode="0" d="M137 705q0 197 29 339t84.5 226.5t130.5 124t174 39.5q79 0 142 -24t115 -78.5t86.5 -138.5t53.5 -207t19 -281q0 -725 -416 -725q-418 0 -418 725zM305 705q0 -313 63.5 -454.5t186.5 -141.5t186.5 141.5t63.5 454.5q0 600 -250 600t-250 -600z" />
<glyph unicode="1" d="M258 1106v160l279 168h174v-1293h223v-141h-658v141h273v1137z" />
<glyph unicode="2" d="M158 1102q31 156 139.5 254t275.5 98q75 0 142.5 -23t123.5 -68.5t89 -122t33 -173.5q0 -117 -57 -230.5t-197 -289.5l-318 -402h553v-145h-752v145l404 519q113 145 156 230.5t43 176.5q0 115 -58 184.5t-176 69.5q-100 0 -165 -69.5t-77 -178.5z" />
<glyph unicode="3" d="M143 303l150 23q15 -83 81.5 -150t164.5 -67q50 0 92.5 14.5t79.5 46t58.5 89t21.5 136.5q0 158 -64.5 223.5t-181.5 65.5h-115v137h111q95 0 152 67.5t57 186.5q0 127 -59.5 191.5t-160.5 64.5q-50 0 -92 -21t-69.5 -54.5t-44.5 -71t-23 -76.5l-149 25q32 159 141 240 t246 81q162 0 270.5 -96t108.5 -266q0 -132 -67 -219.5t-177 -106.5q119 -11 201.5 -110t82.5 -255q0 -85 -23.5 -155.5t-63.5 -119t-94 -82t-113.5 -49t-122.5 -15.5q-143 0 -251.5 86.5t-146.5 236.5z" />
<glyph unicode="4" d="M156 281v147l282 1006h162l-287 -1020h328l37 495h119v-495h196v-133h-196v-281h-158v281h-483z" />
<glyph unicode="5" d="M150 283l151 22q18 -85 77 -139.5t150 -54.5q35 0 67.5 8t67.5 31.5t60.5 60.5t42 101.5t16.5 148.5q0 176 -61.5 258t-169.5 82q-77 0 -138 -40t-87 -99l-2 -7h-123l39 779h624v-131h-477l-25 -472q89 89 228 89q61 0 112.5 -14t98.5 -47.5t79.5 -86t52 -134 t19.5 -185.5q0 -214 -115.5 -343.5t-310.5 -129.5q-141 0 -243.5 86t-132.5 217z" />
<glyph unicode="6" d="M168 707q0 131 15.5 239.5t41.5 184t62.5 134t75.5 93.5t85 57.5t86 30.5t82 8q131 0 217.5 -72.5t122.5 -179.5l-147 -26q-30 82 -82 119.5t-111 37.5q-45 0 -83.5 -16.5t-75.5 -57t-63.5 -103.5t-43 -163.5t-18.5 -228.5q120 147 295 147t261.5 -122.5t86.5 -335.5 q0 -116 -32.5 -208t-88.5 -149t-126.5 -86.5t-149.5 -29.5q-212 0 -311 176.5t-99 550.5zM332 645q5 -202 34 -320.5t80 -167t134 -48.5q229 0 229 331q0 342 -217 342q-140 0 -260 -137z" />
<glyph unicode="7" d="M209 1290v144h745v-164l-450 -1270h-180l475 1290h-590z" />
<glyph unicode="8" d="M125 362q0 71 21 132.5t51 101.5t71 72.5t74 49t66 27.5q-41 18 -79 45.5t-76 68.5t-60.5 100t-22.5 126q0 94 32 167t87 116t121.5 64.5t142.5 21.5t142.5 -20t121.5 -60.5t87 -111t32 -162.5q0 -57 -18 -107t-44 -84.5t-62 -63.5t-65 -45t-59 -28q34 -13 66.5 -30 t75.5 -51t74.5 -75t54 -104t22.5 -135q0 -176 -115 -286.5t-313 -110.5q-197 0 -312.5 108.5t-115.5 273.5zM301 377q0 -120 68 -195.5t184 -75.5q118 0 185 72.5t67 198.5q0 57 -21.5 106t-46 77.5t-72 57.5t-69.5 38.5t-70 27.5q-14 6 -20 8q-29 -16 -44 -25t-41 -27 t-39.5 -33t-31.5 -39.5t-27 -50.5t-15.5 -62t-6.5 -78zM332 1096q0 -50 22 -94.5t50.5 -72t69 -51.5t65.5 -34t51 -19q24 13 47 30.5t57 51.5t55 83.5t21 105.5q0 119 -61 179t-156 60q-96 0 -158.5 -58.5t-62.5 -180.5z" />
<glyph unicode="9" d="M172 983q0 226 114 348.5t289 122.5q214 0 309 -164t95 -542q0 -178 -23 -314t-61 -221t-94.5 -138.5t-117 -74t-134.5 -20.5q-130 0 -218 64t-124 167l149 31q47 -138 193 -138q131 0 196.5 136t69.5 438q-103 -146 -285 -146t-270 120t-88 331zM338 995 q0 -173 58 -256.5t163 -83.5q139 0 254 144q-4 211 -32 329.5t-76.5 162.5t-129.5 44q-47 0 -87 -17.5t-75 -55t-55 -106t-20 -161.5z" />
<glyph unicode=":" horiz-adv-x="471" d="M133 0v205h205v-205h-205zM133 899v205h205v-205h-205z" />
<glyph unicode=";" horiz-adv-x="471" d="M80 -291l113 291h-60v205h205v-203l-143 -293h-115zM133 899v205h205v-205h-205z" />
<glyph unicode="&#x3c;" d="M113 575v185l839 348v-164l-710 -278l710 -316v-164z" />
<glyph unicode="=" d="M133 391v144h840v-144h-840zM133 801v143h840v-143h-840z" />
<glyph unicode="&#x3e;" d="M133 186v164l711 316l-711 278v164l840 -348v-185z" />
<glyph unicode="?" horiz-adv-x="991" d="M115 1184q35 146 146 233.5t257 87.5q166 0 263.5 -89t97.5 -245q0 -81 -30 -146t-72.5 -107.5t-84.5 -81t-72 -88t-30 -107.5v-190h-168v219q0 63 30 117.5t72.5 96t85.5 82t73 94.5t30 116q0 83 -50.5 141.5t-150.5 58.5q-90 0 -158 -62t-82 -155zM403 0v215h215v-215 h-215z" />
<glyph unicode="@" horiz-adv-x="1884" d="M164 639q0 133 27.5 248.5t74.5 202t112.5 157.5t139 118t156 79.5t162.5 46.5t159 14q163 0 295 -46.5t228.5 -137.5t149 -233.5t52.5 -327.5q0 -102 -25 -200.5t-71.5 -179t-121 -130t-163.5 -49.5q-94 0 -146 51t-60 125q-30 -75 -99 -123.5t-170 -48.5 q-57 0 -106.5 20.5t-90 63t-64 117t-23.5 172.5q0 107 17.5 196t48 150t69 107t84 71.5t89.5 38t89 12.5q101 0 170 -63l20 49h125l-69 -578q-4 -29 -4 -78q0 -174 114 -174q94 0 160 119t66 330q0 301 -145 466t-419 165q-92 0 -184 -27t-180 -87.5t-155.5 -146 t-108.5 -213t-41 -278.5q0 -169 48.5 -303.5t133 -219.5t194.5 -130t236 -45q140 0 301 30v-119q-168 -36 -317 -36q-160 0 -298 56t-240.5 159.5t-161 260.5t-58.5 349zM739 563q0 -72 13.5 -121.5t37.5 -74.5t51 -35t62 -10q148 0 172 233l53 449q-39 36 -112 36 q-40 0 -76 -11.5t-74 -44t-65 -84t-44.5 -138t-17.5 -199.5z" />
<glyph unicode="A" horiz-adv-x="1132" d="M20 0l433 1475h209l450 -1475h-184l-109 383h-522l-104 -383h-173zM334 516h446l-225 799z" />
<glyph unicode="B" horiz-adv-x="1144" d="M184 0v1475h346q227 0 346 -98t119 -283q0 -112 -62.5 -198.5t-160.5 -117.5q118 -25 194 -118t76 -252q0 -91 -30 -163t-79 -117t-117 -74.5t-139 -41.5t-151 -12h-342zM358 133h199q64 0 116 13.5t95.5 43.5t67.5 85.5t24 132.5q0 303 -293 303h-209v-578zM358 836h201 q262 0 262 258q0 128 -73 194t-201 66h-189v-518z" />
<glyph unicode="C" horiz-adv-x="1191" d="M143 737q0 128 16.5 235.5t44.5 185.5t67.5 139t84 99.5t96.5 63.5t101 35t102 10q93 0 168.5 -28.5t125.5 -77.5t82 -104t50 -119l-168 -23q-67 215 -258 215q-58 0 -106 -18.5t-90.5 -63.5t-71.5 -115.5t-46 -180.5t-17 -253q0 -141 17 -250.5t46.5 -179.5t72 -115.5 t89 -64t102.5 -18.5q208 0 279 229l170 -16q-114 -353 -453 -353q-71 0 -136.5 19t-134.5 72t-119 136t-82 222t-32 319z" />
<glyph unicode="D" horiz-adv-x="1251" d="M184 0v1475h301q95 0 176.5 -17t166.5 -66.5t144.5 -129t97.5 -214t38 -311.5q0 -127 -21.5 -233.5t-58 -181.5t-87.5 -133t-106 -93t-118.5 -57t-119.5 -30.5t-114 -8.5h-299zM358 135h136q70 0 128 13.5t117.5 53.5t100.5 105t66.5 174.5t25.5 255.5q0 145 -27.5 256 t-70 176.5t-103 106.5t-118.5 55.5t-124 14.5h-131v-1211z" />
<glyph unicode="E" horiz-adv-x="1024" d="M184 0v1475h717v-140h-543v-518h482v-135h-482v-543h543v-139h-717z" />
<glyph unicode="F" horiz-adv-x="962" d="M184 0v1475h697v-140h-523v-557h461v-139h-461v-639h-174z" />
<glyph unicode="G" horiz-adv-x="1224" d="M143 739q0 131 17.5 240.5t47 187t71.5 138.5t87.5 98t98 61.5t100 33.5t97.5 9q158 0 261.5 -85.5t143.5 -217.5l-168 -24q-57 194 -237 194q-52 0 -98.5 -17.5t-92 -62.5t-77.5 -115t-52 -182.5t-20 -257.5q0 -141 16.5 -251t45 -181t69 -117t86.5 -65t100 -19 q188 0 272 127v441h-252v139h408v-813h-102l-27 104q-112 -133 -303 -133q-51 0 -98.5 9.5t-98 33.5t-92.5 62t-80.5 98.5t-65 138.5t-42 187t-15.5 239z" />
<glyph unicode="H" horiz-adv-x="1269" d="M184 0v1475h174v-660h553v660h174v-1475h-174v676h-553v-676h-174z" />
<glyph unicode="I" horiz-adv-x="542" d="M184 0v1475h174v-1475h-174z" />
<glyph unicode="J" horiz-adv-x="663" d="M31 0v141q84 -26 155 -26q72 0 100.5 45t28.5 168v1147h174v-1137q0 -367 -282 -367q-87 0 -176 29z" />
<glyph unicode="K" horiz-adv-x="1112" d="M184 0v1475h174v-644l463 644h195l-514 -703l579 -772h-213l-510 686v-686h-174z" />
<glyph unicode="L" horiz-adv-x="966" d="M184 0v1475h174v-1328h568v-147h-742z" />
<glyph unicode="M" horiz-adv-x="1529" d="M184 0v1475h228l368 -1242l340 1242h226v-1475h-172v1165l-322 -1165h-154l-348 1165v-1165h-166z" />
<glyph unicode="N" horiz-adv-x="1230" d="M184 0v1475h234l467 -1221v1221h162v-1475h-228l-469 1235v-1235h-166z" />
<glyph unicode="O" horiz-adv-x="1347" d="M143 737q0 166 29.5 298.5t79 219t118.5 144t144 82t160 24.5t160 -24.5t144 -82t118 -144t78.5 -219t29.5 -298.5t-29.5 -298.5t-79 -219t-118.5 -144t-144 -82t-159 -24.5t-159 24.5t-144 82t-119 144t-79.5 219t-29.5 298.5zM322 737q0 -312 89 -473.5t263 -161.5 t263 162t89 473t-89 473t-263 162t-263 -161.5t-89 -473.5z" />
<glyph unicode="P" horiz-adv-x="1081" d="M184 0v1475h316q111 0 202.5 -28.5t161 -85t108 -148.5t38.5 -212q0 -117 -40.5 -207t-112 -144.5t-163.5 -81.5t-202 -27h-134v-541h-174zM358 674h138q335 0 335 327q0 159 -87 249.5t-240 90.5h-146v-667z" />
<glyph unicode="Q" horiz-adv-x="1347" d="M143 737q0 166 29.5 298.5t79 219t118.5 144t144 82t160 24.5t160 -24.5t144 -82t118 -144t78.5 -219t29.5 -298.5q0 -165 -29 -297.5t-81.5 -221.5t-120 -144t-148.5 -78l334 -12v-160l-516 78v69q-81 4 -152 31.5t-136 86t-111 144.5t-73.5 215t-27.5 289zM322 737 q0 -312 89 -473.5t263 -161.5t263 162t89 473t-89 473t-263 162t-263 -161.5t-89 -473.5z" />
<glyph unicode="R" horiz-adv-x="1140" d="M184 0v1475h301q111 0 203.5 -27.5t163 -82t110 -143t39.5 -202.5q0 -156 -71 -255.5t-187 -148.5l367 -616h-207l-330 578h-215v-578h-174zM358 711h138q151 0 239 79t88 230q0 153 -90.5 237t-243.5 84h-131v-630z" />
<glyph unicode="S" horiz-adv-x="1122" d="M92 299l162 29q64 -219 307 -219q68 0 126 26t98 88t40 150q0 39 -4 70.5t-16 59t-24 48t-37.5 41t-47 35t-62 33.5t-72.5 32.5t-89 36.5q-166 67 -244.5 165.5t-78.5 238.5q0 161 112 266.5t301 105.5q88 0 162.5 -26.5t126 -71.5t86 -98t53.5 -113l-153 -29 q-27 87 -97 145t-174 58q-106 0 -177 -57.5t-71 -167.5q0 -105 61.5 -165t227.5 -124q72 -28 123 -53t105 -65.5t87 -87t54.5 -115t21.5 -152.5q0 -173 -122.5 -293.5t-317.5 -120.5q-102 0 -186.5 30t-139.5 80.5t-89.5 105.5t-51.5 114z" />
<glyph unicode="T" horiz-adv-x="972" d="M51 1323v152h871v-152h-351v-1323h-174v1323h-346z" />
<glyph unicode="U" horiz-adv-x="1247" d="M174 457v1018h174v-1037q0 -329 279 -329q280 0 280 329v1037h166v-1018q0 -238 -116 -363t-332 -125q-217 0 -334 125t-117 363z" />
<glyph unicode="V" horiz-adv-x="1075" d="M20 1475h181l342 -1350l352 1350h160l-398 -1475h-233z" />
<glyph unicode="W" horiz-adv-x="1554" d="M51 1475h178l195 -1282l260 1282h223l244 -1278l192 1278h160l-246 -1475h-208l-261 1278l-268 -1278h-223z" />
<glyph unicode="X" horiz-adv-x="1126" d="M72 0l403 762l-366 713h194l272 -549l285 549h180l-385 -707l400 -768h-199l-295 598l-311 -598h-178z" />
<glyph unicode="Y" horiz-adv-x="1048" d="M20 1475h191l321 -699l326 699h170l-424 -885v-590h-153v590z" />
<glyph unicode="Z" horiz-adv-x="1024" d="M82 0v154l659 1183h-612v138h793v-148l-658 -1190h637v-137h-819z" />
<glyph unicode="[" horiz-adv-x="696" d="M154 -348v2007h415v-139h-256v-1729h256v-139h-415z" />
<glyph unicode="\" horiz-adv-x="696" d="M72 1495h174l379 -1679h-174z" />
<glyph unicode="]" horiz-adv-x="696" d="M127 -209h256v1729h-256v139h416v-2007h-416v139z" />
<glyph unicode="^" horiz-adv-x="1024" d="M82 819l342 656h184l334 -656h-172l-254 529l-262 -529h-172z" />
<glyph unicode="_" horiz-adv-x="983" d="M-4 -106h991v-140h-991v140z" />
<glyph unicode="`" horiz-adv-x="593" d="M82 1505h231l199 -280h-145z" />
<glyph unicode="a" horiz-adv-x="1036" d="M82 295q0 72 24 131.5t64 101t97.5 72.5t118.5 49.5t132 28.5l191 29v75q0 230 -203 230q-85 0 -143.5 -47t-77.5 -123l-162 26q46 121 148 193t245 72q171 0 263.5 -94.5t92.5 -276.5v-762h-110l-37 131q-107 -151 -324 -151q-44 0 -86 9t-85 32t-75 57.5t-52.5 90.5 t-20.5 126zM252 307q0 -100 53.5 -148t145.5 -48q147 0 258 118v361l-148 -25q-148 -24 -228.5 -88.5t-80.5 -169.5z" />
<glyph unicode="b" horiz-adv-x="1081" d="M164 0v1505h164v-499q109 131 282 131q72 0 131.5 -31.5t108 -97.5t75.5 -179t27 -264q0 -281 -107.5 -433t-299.5 -152q-144 0 -230 106l-18 -86h-133zM328 190q88 -92 184 -92q126 0 197 114.5t71 362.5q0 119 -17 203.5t-49.5 132.5t-74 69t-96.5 21q-108 0 -215 -114 v-697z" />
<glyph unicode="c" horiz-adv-x="1042" d="M129 555q0 122 25 221.5t66.5 165.5t98 111t117.5 64.5t127 19.5q89 0 160 -28t116 -75.5t73 -100t42 -112.5l-163 -24q-22 98 -74 152.5t-150 54.5q-121 0 -193.5 -109.5t-72.5 -345.5q0 -120 20.5 -207.5t57.5 -136.5t82 -71.5t100 -22.5q98 0 158 60.5t76 152.5 l166 -21q-15 -62 -46.5 -117.5t-80 -102.5t-120 -75t-157.5 -28q-62 0 -119 15t-114.5 55.5t-99.5 103t-68.5 166t-26.5 235.5z" />
<glyph unicode="d" horiz-adv-x="1091" d="M129 555q0 279 110.5 430.5t303.5 151.5q133 0 221 -88v456h164v-1505h-119l-35 125q-107 -145 -297 -145q-72 0 -132.5 32t-110 98.5t-77.5 180t-28 264.5zM301 545q0 -430 244 -430q110 0 219 118v699q-95 84 -189 84q-127 0 -200.5 -112.5t-73.5 -358.5z" />
<glyph unicode="e" horiz-adv-x="1093" d="M129 553q0 129 24.5 231.5t65.5 167.5t97 107.5t115 60t124 17.5q213 0 319.5 -149t106.5 -462h-684q2 -123 25.5 -208t65 -128.5t87 -61t103.5 -17.5q93 0 154 51.5t83 120.5l143 -31q-42 -117 -141 -194.5t-250 -77.5q-66 0 -125.5 16.5t-117.5 58t-100.5 105 t-68.5 164.5t-26 229zM299 651h516q-3 175 -68 269t-182 94q-111 0 -181.5 -89.5t-84.5 -273.5z" />
<glyph unicode="f" horiz-adv-x="612" d="M41 973v133h164v133q0 126 67.5 204.5t200.5 78.5q86 0 180 -23v-133q-76 18 -147 18q-69 0 -103 -31.5t-34 -101.5v-145h237v-133h-237v-973h-164v973h-164z" />
<glyph unicode="g" horiz-adv-x="1040" d="M82 -113q0 168 160 250q-90 52 -90 156q0 110 104 168q-152 105 -152 299q0 83 26 149t67.5 108t96.5 69.5t109 39t109 11.5q18 0 88 -9v64l358 41v-152l-247 11q91 -44 144.5 -127.5t53.5 -204.5q0 -92 -35.5 -166t-94 -118.5t-127.5 -67.5t-142 -23q-100 0 -188 39 q-33 -30 -33 -68q0 -21 1.5 -31.5t13 -28t33.5 -27.5t66.5 -19.5t108.5 -13.5q109 -7 189 -26t143 -55.5t95 -96.5t32 -144q0 -134 -123 -225.5t-346 -91.5q-197 0 -308.5 79t-111.5 211zM246 -86q0 -41 13 -75.5t40.5 -64.5t79 -47.5t121.5 -17.5q84 0 145 18t92.5 48.5 t45.5 62t14 66.5q0 56 -24.5 89t-101 56.5t-220.5 34.5q-60 3 -111 16q-94 -80 -94 -186zM268 760q0 -114 66.5 -185t175.5 -71q108 0 171.5 70.5t63.5 185.5q0 122 -64 190t-173 68q-108 0 -174 -70.5t-66 -187.5z" />
<glyph unicode="h" horiz-adv-x="1122" d="M164 0v1505h153v-540q62 87 146 129.5t168 42.5q163 0 245 -103t82 -317v-717h-163v725q0 148 -50.5 213.5t-160.5 65.5q-134 0 -267 -164v-840h-153z" />
<glyph unicode="i" horiz-adv-x="495" d="M154 1307v198h188v-198h-188zM164 0v1106h164v-1106h-164z" />
<glyph unicode="j" horiz-adv-x="503" d="M-82 -182q74 -17 119 -17q74 0 104.5 36.5t30.5 133.5v1135h164v-1155q0 -132 -66.5 -208.5t-199.5 -76.5q-78 0 -152 23v129zM162 1307v198h188v-198h-188z" />
<glyph unicode="k" horiz-adv-x="1034" d="M164 0v1505h164v-860l405 461h213l-440 -481l508 -625h-205l-481 584v-584h-164z" />
<glyph unicode="l" horiz-adv-x="491" d="M164 0v1505h164v-1505h-164z" />
<glyph unicode="m" horiz-adv-x="1689" d="M164 0v1106h119l28 -131q61 83 144.5 122.5t162.5 39.5q206 0 271 -176q58 91 145 133.5t185 42.5q156 0 231.5 -102t75.5 -318v-717h-164v725q0 149 -44 214t-147 65q-136 0 -253 -156q8 -78 8 -131v-717h-164v725q0 149 -44 214t-147 65q-127 0 -243 -144v-860h-164z " />
<glyph unicode="n" horiz-adv-x="1122" d="M164 0v1106h119l30 -135q63 85 149.5 125.5t168.5 40.5q163 0 245 -103t82 -317v-717h-163v725q0 148 -50.5 213.5t-160.5 65.5q-132 0 -256 -150v-854h-164z" />
<glyph unicode="o" horiz-adv-x="1157" d="M129 553q0 131 27 234t71 167.5t104 107t121.5 59t127.5 16.5q67 0 127.5 -16.5t120 -58t103 -106t70.5 -168t27 -235.5t-27 -234.5t-70 -165t-103.5 -103t-120.5 -55.5t-127 -15t-127.5 15.5t-121 56t-104.5 103.5t-71 165t-27 233zM301 553q0 -226 74.5 -337.5 t206.5 -111.5t204 110t72 339q0 228 -75.5 343.5t-202.5 115.5t-203 -117t-76 -342z" />
<glyph unicode="p" horiz-adv-x="1081" d="M164 -348v1454h119l28 -113q106 144 299 144q72 0 131.5 -31.5t108 -97.5t75.5 -179t27 -264q0 -281 -107.5 -433t-299.5 -152q-137 0 -217 86v-414h-164zM328 182q84 -84 184 -84q126 0 197 114.5t71 362.5q0 119 -17 203.5t-49.5 132.5t-74 69t-96.5 21 q-108 0 -215 -114v-705z" />
<glyph unicode="q" horiz-adv-x="1122" d="M129 551q0 280 110.5 433t303.5 153q174 0 264 -146l39 115h112v-1454h-163v493q-108 -165 -318 -165q-72 0 -132.5 31.5t-110 97t-77.5 178.5t-28 264zM301 541q0 -426 244 -426q125 0 250 151v633q-109 117 -220 117q-127 0 -200.5 -114t-73.5 -361z" />
<glyph unicode="r" horiz-adv-x="679" d="M164 0v1106h119l36 -162q77 189 244 189q40 0 76 -9v-159q-42 10 -80 10q-77 0 -132 -58.5t-99 -158.5v-758h-164z" />
<glyph unicode="s" horiz-adv-x="935" d="M72 211l153 45q29 -66 91.5 -103.5t144.5 -37.5q87 0 146 48t59 136q0 39 -15.5 70t-36 51t-59.5 39t-67 28.5t-77 24.5l-9 3t-8 2.5t-9 2.5q-143 44 -209.5 119.5t-66.5 187.5q0 144 103 227t249 83q139 0 229 -66t127 -168l-147 -45q-20 68 -73 110t-138 42 q-78 0 -132.5 -42t-54.5 -122q0 -81 59.5 -122t209.5 -85q142 -42 216 -119.5t74 -204.5q0 -151 -102.5 -243t-271.5 -92q-140 0 -240.5 62t-144.5 169z" />
<glyph unicode="t" horiz-adv-x="673" d="M41 973v133h166l12 266h150v-266h237v-133h-237v-705q0 -73 27 -108t89 -35q51 0 127 18v-133q-90 -22 -153 -22q-130 0 -192 75t-62 209v701h-164z" />
<glyph unicode="u" horiz-adv-x="1097" d="M164 385v721h164v-725q0 -149 52 -208.5t152 -59.5q148 0 238 143v850h164v-1106h-113l-37 139q-102 -159 -284 -159q-159 0 -247.5 99.5t-88.5 305.5z" />
<glyph unicode="v" horiz-adv-x="952" d="M20 1106h177l266 -995l303 995h166l-350 -1106h-244z" />
<glyph unicode="w" horiz-adv-x="1474" d="M41 1106h168l213 -932l217 932h211l215 -928l207 928h162l-271 -1106h-205l-219 922l-217 -922h-211z" />
<glyph unicode="x" horiz-adv-x="1024" d="M41 0l371 582l-344 524h196l244 -391l240 391h167l-321 -514l389 -592h-201l-284 455l-283 -455h-174z" />
<glyph unicode="y" horiz-adv-x="937" d="M20 1106h175l294 -997l273 997h156l-320 -1135q-19 -68 -34.5 -110.5t-39.5 -83.5t-53 -63t-72 -35t-100 -13q-55 0 -133 19v129q76 -17 129 -17q70 0 98.5 42.5t57.5 160.5h-78z" />
<glyph unicode="z" horiz-adv-x="919" d="M82 0v168l565 801h-526v139h696v-168l-557 -799h537v-141h-715z" />
<glyph unicode="{" horiz-adv-x="696" d="M70 580v153q161 0 161 180v404q0 176 89.5 259t287.5 83v-123q-123 0 -173 -41t-50 -147v-390q0 -129 -40.5 -200.5t-121.5 -100.5q81 -30 121.5 -102t40.5 -201v-389q0 -106 50 -147t173 -41v-123q-198 0 -287.5 83t-89.5 259v403q0 181 -161 181z" />
<glyph unicode="|" horiz-adv-x="655" d="M244 -246v1884h168v-1884h-168z" />
<glyph unicode="}" horiz-adv-x="696" d="M88 -223q123 0 173 41t50 147v389q0 129 40.5 201t121.5 102q-81 29 -121.5 100.5t-40.5 200.5v390q0 106 -50 147t-173 41v123q198 0 287.5 -83t89.5 -259v-404q0 -180 162 -180v-153q-162 0 -162 -181v-403q0 -176 -89.5 -259t-287.5 -83v123z" />
<glyph unicode="~" horiz-adv-x="1146" d="M154 545v160q41 33 109 57t136 24q56 0 110 -17t89 -37t81 -37t89 -17q123 0 225 88v-160q-42 -33 -109.5 -57.5t-135.5 -24.5q-56 0 -110.5 17t-90 37.5t-81.5 37.5t-89 17q-121 0 -223 -88z" />
<glyph unicode="&#xa1;" horiz-adv-x="552" d="M174 901v205h205v-205h-205zM180 -369l21 983h143l21 -983h-185z" />
<glyph unicode="&#xa2;" d="M135 555q0 109 20 199.5t54 154.5t81.5 111.5t99.5 73.5t110 36v283h147v-283q69 -11 125.5 -42t93 -75.5t60 -91.5t35.5 -100l-164 -24q-22 98 -74 152.5t-150 54.5q-121 0 -193.5 -109.5t-72.5 -345.5q0 -120 20.5 -207.5t57.5 -136.5t82 -71.5t100 -22.5 q98 0 158 60.5t76 152.5l166 -21q-29 -116 -110 -204t-210 -111v-264h-147v262q-57 7 -107 28t-98.5 64.5t-83 105.5t-55.5 157t-21 214z" />
<glyph unicode="&#xa3;" d="M123 0v135h14q76 5 121 56.5t45 148.5v385h-160v123h160v174q0 110 30 195t82 135.5t117 76t140 25.5q138 0 224.5 -70t119.5 -186l-156 -37q-32 166 -186 166q-201 0 -201 -305v-174h401v-123h-401v-373q0 -156 -102 -217h596v-135h-844z" />
<glyph unicode="&#xa4;" horiz-adv-x="1228" d="M84 260l131 131q-84 125 -84 305q0 177 78 301l-125 127l98 99l119 -119q134 113 311 113q180 0 312 -117l123 123l98 -99l-131 -131q78 -129 78 -297q0 -178 -82 -303l135 -133l-98 -98l-129 129q-131 -105 -306 -105q-177 0 -303 103l-127 -127zM274 696 q0 -180 94 -282.5t246 -102.5t243 102.5t91 282.5q0 181 -92.5 287.5t-243.5 106.5t-244.5 -106.5t-93.5 -287.5z" />
<glyph unicode="&#xa5;" d="M74 1434h184l305 -701l309 701h168l-350 -738h252v-123h-305v-163h305v-123h-305v-287h-154v287h-319v123h319v163h-319v121h264z" />
<glyph unicode="&#xa6;" horiz-adv-x="655" d="M244 -246v799h168v-799h-168zM244 840v798h168v-798h-168z" />
<glyph unicode="&#xa7;" d="M166 631q0 175 176 258q-60 38 -96.5 104t-36.5 156q0 73 30 132t80.5 96t114 57t133.5 20q130 0 224.5 -66.5t130.5 -166.5l-138 -43q-20 66 -78.5 109.5t-144.5 43.5q-79 0 -136.5 -42.5t-57.5 -121.5q0 -88 61.5 -136t194.5 -81q149 -37 233 -119t84 -213 q0 -176 -178 -260q135 -83 135 -258q0 -73 -30 -132t-81 -96t-115 -57t-134 -20q-129 0 -224 67.5t-131 166.5l137 43q20 -66 80 -110t146 -44q79 0 136.5 42.5t57.5 121.5q0 88 -61.5 136t-194.5 81q-149 37 -233 119t-84 213zM328 647q0 -34 9 -61.5t20 -47t37.5 -38 t43 -28t57.5 -23t59.5 -19t68.5 -18.5q67 20 111 69t44 121q0 29 -5.5 53.5t-19 44.5t-26 34.5t-38 28.5t-42 22.5t-51.5 20t-53.5 16.5t-59.5 16q-68 -22 -111.5 -70.5t-43.5 -120.5z" />
<glyph unicode="&#xa8;" horiz-adv-x="737" d="M61 1300v185h195v-185h-195zM481 1300v185h195v-185h-195z" />
<glyph unicode="&#xa9;" horiz-adv-x="1726" d="M121 737q0 156 43 286t115 218t168.5 148.5t200.5 88t214 27.5t214 -27.5t200.5 -88t169 -148.5t115.5 -218t43 -286t-43 -286t-115.5 -218t-169 -148.5t-200.5 -88t-214 -27.5t-214 27.5t-200.5 88t-168.5 148.5t-115 218t-43 286zM260 737q0 -160 50.5 -288t136 -207 t191.5 -120.5t224 -41.5t224 41.5t191.5 120.5t136 207t50.5 288q0 129 -33 238t-90.5 185t-134 130t-164 79.5t-180.5 25.5t-180.5 -25.5t-164 -79.5t-134 -130t-90.5 -185t-33 -238zM571 739q0 97 18.5 173t47.5 122t69 75.5t79.5 40.5t82.5 11q77 0 134.5 -32.5t87 -79 t43.5 -105.5l-132 -18q-14 61 -44 96t-91 35q-68 0 -112.5 -74.5t-44.5 -243.5q0 -88 14 -151.5t38 -98t51.5 -50t59.5 -15.5q66 0 98 37t46 102l129 -18q-24 -102 -94 -165t-191 -63q-40 0 -77 10.5t-76.5 39.5t-68.5 74.5t-48 122t-19 175.5z" />
<glyph unicode="&#xaa;" horiz-adv-x="972" d="M156 864q0 253 317 293l172 23v73q0 57 -35.5 100.5t-105.5 43.5q-51 0 -94.5 -30.5t-61.5 -84.5l-151 18q31 89 115.5 147t205.5 58q130 0 209.5 -72t79.5 -208v-574h-105l-38 101q-88 -113 -250 -113q-111 0 -184.5 62t-73.5 163zM195 0v143h624v-143h-624zM317 885 q0 -39 14.5 -67t39 -42t50.5 -20t56 -6q97 0 168 81v246l-119 -16q-102 -13 -155.5 -53t-53.5 -123z" />
<glyph unicode="&#xab;" horiz-adv-x="1003" d="M123 668l239 419h132l-189 -425l168 -455h-131zM489 668l240 419h131l-188 -425l168 -455h-131z" />
<glyph unicode="&#xac;" d="M133 590v143h840v-444h-150v301h-690z" />
<glyph unicode="&#xad;" horiz-adv-x="870" d="M123 590v143h625v-143h-625z" />
<glyph unicode="&#xae;" horiz-adv-x="1257" d="M143 1010q0 102 29.5 187t78 141t113 94.5t131 55.5t134.5 17t134.5 -17t130.5 -55.5t112.5 -94.5t78 -141t29.5 -187t-29.5 -187t-78 -141t-112.5 -95t-130.5 -56t-134.5 -17t-135 17t-131 56t-112.5 95t-78 141t-29.5 187zM264 1010q0 -104 30.5 -182.5t83.5 -124 t116 -67.5t135 -22t135 22t115.5 67.5t83 124t30.5 182.5t-30.5 182.5t-83 123.5t-115.5 67t-135 22q-57 0 -109 -13t-99 -43.5t-81.5 -75t-55 -112.5t-20.5 -151zM475 752v522h152q80 0 132 -42.5t52 -119.5q0 -102 -94 -147l117 -213h-119l-103 190h-34v-190h-103z M578 1026h47q35 0 56 23.5t21 62.5q0 37 -21.5 58.5t-59.5 21.5h-43v-166z" />
<glyph unicode="&#xaf;" horiz-adv-x="737" d="M61 1323v141h615v-141h-615z" />
<glyph unicode="&#xb0;" horiz-adv-x="727" d="M61 1159q0 141 84 218t220 77t218.5 -77t82.5 -218q0 -140 -84 -215.5t-217 -75.5t-218.5 76t-85.5 215zM268 1159q0 -139 97 -139q42 0 69 32.5t27 106.5t-27.5 109t-68.5 35q-42 0 -69.5 -34t-27.5 -110z" />
<glyph unicode="&#xb1;" d="M133 0v143h840v-143h-840zM133 590v143h340v334h160v-334h340v-143h-340v-299h-160v299h-340z" />
<glyph unicode="&#xb2;" horiz-adv-x="778" d="M102 1253q23 88 96.5 144.5t180.5 56.5q111 0 183.5 -58.5t72.5 -178.5q0 -69 -43 -131t-127 -146l-162 -162h328v-123h-514v123l270 275q92 92 92 170q0 49 -27 82.5t-85 33.5q-46 0 -78.5 -32t-40.5 -74z" />
<glyph unicode="&#xb3;" horiz-adv-x="778" d="M92 848l146 18q9 -45 40 -77.5t82 -32.5q61 0 92 36.5t31 100.5q0 69 -36.5 95t-100.5 26h-27v104h37q46 0 76.5 31.5t30.5 87.5q0 43 -30 72.5t-79 29.5q-48 0 -79 -28.5t-42 -79.5l-141 18q23 94 101 149.5t176 55.5q62 0 115.5 -21.5t90.5 -72t37 -121.5 q0 -55 -32 -99.5t-93 -64.5q66 -13 109 -60.5t43 -131.5q0 -112 -79 -176t-198 -64q-103 0 -179 59.5t-91 145.5z" />
<glyph unicode="&#xb4;" horiz-adv-x="593" d="M82 1225l199 280h231l-287 -280h-143z" />
<glyph unicode="&#xb5;" horiz-adv-x="1097" d="M164 -348v1454h164v-725q0 -151 52 -209.5t152 -58.5q147 0 238 145v848h164v-1106h-113l-37 135q-88 -155 -278 -155q-99 0 -178 47v-375h-164z" />
<glyph unicode="&#xb6;" horiz-adv-x="1126" d="M129 1100q0 85 22.5 149t54.5 98t76 55t78.5 26.5t71.5 5.5h156v-1434h-156v768q-40 0 -72 4t-78 23t-77 52t-53.5 98t-22.5 155zM766 0v1434h156v-1434h-156z" />
<glyph unicode="&#xb7;" horiz-adv-x="645" d="M219 610v205h205v-205h-205z" />
<glyph unicode="&#xb8;" horiz-adv-x="571" d="M61 -442l62 96q60 -27 121 -27q116 0 116 90q0 80 -176 101l41 223h133l-10 -145q81 -18 121.5 -68.5t40.5 -118.5q0 -89 -67.5 -146t-172.5 -57q-118 0 -209 52z" />
<glyph unicode="&#xb9;" horiz-adv-x="778" d="M170 1171v150l186 113h150v-652h151v-127h-481v127h189v504z" />
<glyph unicode="&#xba;" horiz-adv-x="972" d="M143 1067q0 117 28 204.5t77 137t108.5 73t130.5 23.5t130 -23.5t108 -73t76.5 -137t27.5 -204.5t-27.5 -203t-76 -134t-107.5 -70.5t-131 -22.5q-57 0 -106 13.5t-93.5 45t-76 80t-50 123t-18.5 168.5zM178 0v143h621v-143h-621zM307 1067q0 -159 49.5 -237t132.5 -78 q82 0 130.5 78t48.5 237q0 160 -49 241t-132 81t-131.5 -81t-48.5 -241z" />
<glyph unicode="&#xbb;" horiz-adv-x="1003" d="M143 1087h131l240 -419l-219 -461h-131l168 455zM510 1087h131l240 -419l-219 -461h-132l168 455z" />
<glyph unicode="&#xbc;" horiz-adv-x="1638" d="M154 1171v150l186 113h149v-652h132v-127h-461v127h188v504zM268 -205l957 1864h176l-957 -1864h-176zM944 145v127l172 506h146l-181 -514h168l23 228h108v-228h115v-119h-115v-145h-135v145h-301z" />
<glyph unicode="&#xbd;" horiz-adv-x="1638" d="M133 1171v150l186 113h150v-652h131v-127h-461v127h189v504zM250 -205l956 1864h176l-956 -1864h-176zM973 598q23 88 96 144.5t180 56.5q111 0 183.5 -59t72.5 -179q0 -48 -27 -99.5t-57.5 -86.5t-85.5 -90l-161 -162h327v-123h-514v123l270 274q93 93 93 170 q0 49 -27.5 83t-85.5 34q-46 0 -78.5 -32t-40.5 -74z" />
<glyph unicode="&#xbe;" horiz-adv-x="1638" d="M131 848l145 18q8 -45 40 -77.5t83 -32.5q61 0 92 36.5t31 100.5q0 69 -36.5 95t-100.5 26h-27v104h37q46 0 76.5 31.5t30.5 87.5q0 43 -30 72.5t-79 29.5q-48 0 -79 -28.5t-42 -79.5l-141 18q23 94 101 149.5t176 55.5q62 0 115.5 -21.5t90.5 -72t37 -121.5 q0 -55 -32 -99.5t-93 -64.5q66 -13 109 -60.5t43 -131.5q0 -112 -79 -176t-198 -64q-103 0 -179 59.5t-91 145.5zM287 -205l956 1864h176l-956 -1864h-176zM956 145v127l172 506h146l-180 -514h168l22 228h109v-228h114v-119h-114v-145h-136v145h-301z" />
<glyph unicode="&#xbf;" horiz-adv-x="991" d="M113 -66q0 59 16 110t41.5 87t56 67.5t61 60.5t56 58.5t41.5 67t16 80.5v190h168v-219q0 -63 -30 -117.5t-72.5 -96t-85 -82t-72.5 -94.5t-30 -116q0 -83 50 -141.5t150 -58.5q90 0 158 62t82 155l158 -25q-35 -146 -146.5 -233.5t-257.5 -87.5q-166 0 -263 88.5 t-97 244.5zM373 891v215h215v-215h-215z" />
<glyph unicode="&#xc0;" horiz-adv-x="1132" d="M20 0l433 1475h209l450 -1475h-184l-109 383h-522l-104 -383h-173zM219 1812h244l199 -231h-154zM334 516h446l-225 799z" />
<glyph unicode="&#xc1;" horiz-adv-x="1132" d="M20 0l433 1475h206l453 -1475h-184l-109 383h-522l-104 -383h-173zM334 516h446l-225 799zM461 1585l198 227h242l-287 -227h-153z" />
<glyph unicode="&#xc2;" horiz-adv-x="1132" d="M20 0l433 1475h209l450 -1475h-184l-109 383h-522l-104 -383h-173zM240 1587l239 228h170l238 -228h-187l-137 103l-139 -103h-184zM334 516h446l-225 799z" />
<glyph unicode="&#xc3;" horiz-adv-x="1132" d="M20 0l433 1475h209l450 -1475h-184l-109 383h-522l-104 -383h-173zM266 1593v152q96 70 183 70q56 0 97 -19.5t75.5 -39t72.5 -19.5q72 0 166 75v-151q-96 -70 -174 -70q-44 0 -80.5 12t-56.5 27t-49 27t-60 12q-36 0 -83 -20.5t-91 -55.5zM334 516h446l-225 799z" />
<glyph unicode="&#xc4;" horiz-adv-x="1132" d="M20 0l433 1475h209l450 -1475h-184l-109 383h-522l-104 -383h-173zM244 1608v184h194v-184h-194zM334 516h446l-225 799zM664 1608v184h194v-184h-194z" />
<glyph unicode="&#xc5;" horiz-adv-x="1132" d="M20 0l420 1436q-59 27 -92 82t-33 133q0 113 68 178t174 65t173 -65t67 -178q0 -77 -33 -132.5t-90 -82.5l438 -1436h-184l-109 383h-522l-104 -383h-173zM334 516h446l-225 799zM444 1651q0 -62 31 -101t82 -39q50 0 80.5 39t30.5 101q0 63 -30.5 103t-80.5 40 t-81.5 -40.5t-31.5 -102.5z" />
<glyph unicode="&#xc6;" horiz-adv-x="1669" d="M20 0l564 1475h901v-134h-672l119 -528h543v-131h-514l120 -549h475v-133h-620l-82 383h-524l-137 -383h-173zM379 516h446l-163 782z" />
<glyph unicode="&#xc7;" horiz-adv-x="1191" d="M143 737q0 128 16.5 235.5t44.5 185.5t67.5 139t84 99.5t96.5 63.5t101 35t102 10q93 0 168.5 -28.5t125.5 -77.5t82 -104t50 -119l-168 -23q-67 215 -258 215q-58 0 -106 -18.5t-90.5 -63.5t-71.5 -115.5t-46 -180.5t-17 -253q0 -141 17 -250.5t46.5 -179.5t72 -115.5 t89 -64t102.5 -18.5q208 0 279 229l170 -16q-100 -317 -387 -349l-4 -77q81 -18 121 -68.5t40 -118.5q0 -89 -67.5 -146t-171.5 -57q-118 0 -209 52l61 96q60 -27 121 -27q117 0 117 90q0 80 -176 101l28 157q-65 10 -123 37t-115.5 84.5t-99 140t-67 211t-25.5 289.5z" />
<glyph unicode="&#xc8;" horiz-adv-x="1054" d="M184 0v1475h717v-140h-543v-518h482v-135h-482v-543h543v-139h-717zM236 1812h241l199 -229h-154z" />
<glyph unicode="&#xc9;" horiz-adv-x="1054" d="M184 0v1475h717v-140h-543v-518h482v-135h-482v-543h543v-139h-717zM389 1585l199 227h241l-286 -227h-154z" />
<glyph unicode="&#xca;" horiz-adv-x="1054" d="M184 0v1475h717v-140h-543v-518h482v-135h-482v-543h543v-139h-717zM217 1587l240 228h170l237 -228h-186l-137 103l-140 -103h-184z" />
<glyph unicode="&#xcb;" horiz-adv-x="1054" d="M184 0v1475h717v-140h-543v-518h482v-135h-482v-543h543v-139h-717zM244 1608v184h194v-184h-194zM664 1608v184h194v-184h-194z" />
<glyph unicode="&#xcc;" horiz-adv-x="542" d="M-18 1812h241l199 -239h-154zM184 0v1475h174v-1475h-174z" />
<glyph unicode="&#xcd;" horiz-adv-x="542" d="M129 1573l199 239h241l-286 -239h-154zM184 0v1475h174v-1475h-174z" />
<glyph unicode="&#xce;" horiz-adv-x="542" d="M-51 1587l239 228h170l238 -228h-186l-138 103l-139 -103h-184zM184 0v1475h174v-1475h-174z" />
<glyph unicode="&#xcf;" horiz-adv-x="542" d="M-35 1608v184h195v-184h-195zM184 0v1475h174v-1475h-174zM385 1608v184h195v-184h-195z" />
<glyph unicode="&#xd0;" horiz-adv-x="1271" d="M61 719v133h144v623h301q66 0 125.5 -8.5t123.5 -30.5t117 -57.5t101.5 -93.5t82 -133t53 -181t19.5 -234q0 -127 -21.5 -233.5t-57.5 -181.5t-87.5 -133t-106 -93t-118 -57t-119.5 -30.5t-114 -8.5h-299v719h-144zM379 135h135q70 0 128 13.5t117.5 53.5t100.5 105 t66.5 174.5t25.5 255.5q0 105 -14 192t-38 149t-59 110t-72.5 77.5t-83 48t-87.5 25.5t-88 7h-131v-494h377v-133h-377v-584z" />
<glyph unicode="&#xd1;" horiz-adv-x="1230" d="M184 0v1475h234l467 -1221v1221h162v-1475h-228l-469 1235v-1235h-166zM311 1593v152q96 70 183 70q56 0 97 -19.5t75.5 -39t72.5 -19.5q72 0 166 75v-151q-96 -70 -174 -70q-44 0 -80.5 12t-56.5 27t-49 27t-60 12q-36 0 -83 -20.5t-91 -55.5z" />
<glyph unicode="&#xd2;" horiz-adv-x="1347" d="M143 737q0 166 29.5 298.5t79 219t118.5 144t144 82t160 24.5t160 -24.5t144 -82t118 -144t78.5 -219t29.5 -298.5t-29.5 -298.5t-79 -219t-118.5 -144t-144 -82t-159 -24.5t-159 24.5t-144 82t-119 144t-79.5 219t-29.5 298.5zM322 737q0 -312 89 -473.5t263 -161.5 t263 162t89 473t-89 473t-263 162t-263 -161.5t-89 -473.5zM356 1812h242l199 -227h-154z" />
<glyph unicode="&#xd3;" horiz-adv-x="1347" d="M143 737q0 166 29.5 298.5t79 219t118.5 144t144 82t160 24.5t160 -24.5t144 -82t118 -144t78.5 -219t29.5 -298.5t-29.5 -298.5t-79 -219t-118.5 -144t-144 -82t-159 -24.5t-159 24.5t-144 82t-119 144t-79.5 219t-29.5 298.5zM322 737q0 -312 89 -473.5t263 -161.5 t263 162t89 473t-89 473t-263 162t-263 -161.5t-89 -473.5zM567 1583l199 229h242l-287 -229h-154z" />
<glyph unicode="&#xd4;" horiz-adv-x="1347" d="M143 737q0 166 29.5 298.5t79 219t118.5 144t144 82t160 24.5t160 -24.5t144 -82t118 -144t78.5 -219t29.5 -298.5t-29.5 -298.5t-79 -219t-118.5 -144t-144 -82t-159 -24.5t-159 24.5t-144 82t-119 144t-79.5 219t-29.5 298.5zM322 737q0 -312 89 -473.5t263 -161.5 t263 162t89 473t-89 473t-263 162t-263 -161.5t-89 -473.5zM348 1587l240 228h170l237 -228h-186l-137 103l-140 -103h-184z" />
<glyph unicode="&#xd5;" horiz-adv-x="1347" d="M143 737q0 166 29.5 298.5t79 219t118.5 144t144 82t160 24.5t160 -24.5t144 -82t118 -144t78.5 -219t29.5 -298.5t-29.5 -298.5t-79 -219t-118.5 -144t-144 -82t-159 -24.5t-159 24.5t-144 82t-119 144t-79.5 219t-29.5 298.5zM322 737q0 -312 89 -473.5t263 -161.5 t263 162t89 473t-89 473t-263 162t-263 -161.5t-89 -473.5zM377 1593v152q96 70 182 70q44 0 80.5 -12t56.5 -27t49 -27t60 -12q72 0 166 75v-151q-96 -70 -174 -70q-44 0 -80.5 12t-56.5 27t-49 27t-60 12q-36 0 -83 -20.5t-91 -55.5z" />
<glyph unicode="&#xd6;" horiz-adv-x="1347" d="M143 737q0 166 29.5 298.5t79 219t118.5 144t144 82t160 24.5t160 -24.5t144 -82t118 -144t78.5 -219t29.5 -298.5t-29.5 -298.5t-79 -219t-118.5 -144t-144 -82t-159 -24.5t-159 24.5t-144 82t-119 144t-79.5 219t-29.5 298.5zM322 737q0 -312 89 -473.5t263 -161.5 t263 162t89 473t-89 473t-263 162t-263 -161.5t-89 -473.5zM360 1608v184h195v-184h-195zM780 1608v184h195v-184h-195z" />
<glyph unicode="&#xd7;" d="M164 379l278 278l-278 279l110 111l279 -279l278 279l111 -111l-278 -279l278 -278l-111 -111l-278 279l-279 -279z" />
<glyph unicode="&#xd8;" horiz-adv-x="1347" d="M143 737q0 166 29.5 298.5t79 219t118.5 144t144 82t160 24.5q109 0 198 -41l80 215h144l-107 -288q215 -195 215 -654q0 -166 -29.5 -298.5t-79 -219t-118.5 -144t-144 -82t-159 -24.5q-106 0 -197 39l-80 -217h-143l106 291q-217 196 -217 655zM322 737 q0 -348 106 -504l397 1098q-65 41 -151 41q-174 0 -263 -161.5t-89 -473.5zM520 143q68 -41 154 -41q174 0 263 162t89 473q0 339 -106 500z" />
<glyph unicode="&#xd9;" horiz-adv-x="1247" d="M174 457v1018h174v-1037q0 -329 279 -329q280 0 280 329v1037h166v-1018q0 -238 -116 -363t-332 -125q-217 0 -334 125t-117 363zM319 1812h244l199 -227h-158z" />
<glyph unicode="&#xda;" horiz-adv-x="1247" d="M174 457v1018h174v-1037q0 -329 279 -329q280 0 280 329v1037h166v-1018q0 -238 -116 -363t-332 -125q-217 0 -334 125t-117 363zM500 1573l198 239h244l-287 -239h-155z" />
<glyph unicode="&#xdb;" horiz-adv-x="1247" d="M174 457v1018h174v-1037q0 -329 279 -329q280 0 280 329v1037h166v-1018q0 -238 -116 -363t-332 -125q-217 0 -334 125t-117 363zM303 1587l240 228h170l237 -228h-186l-137 103l-140 -103h-184z" />
<glyph unicode="&#xdc;" horiz-adv-x="1247" d="M174 457v1018h174v-1037q0 -329 279 -329q280 0 280 329v1037h166v-1018q0 -238 -116 -363t-332 -125q-217 0 -334 125t-117 363zM315 1608v184h195v-184h-195zM735 1608v184h195v-184h-195z" />
<glyph unicode="&#xdd;" horiz-adv-x="1048" d="M20 1475h191l321 -699l326 699h170l-424 -885v-590h-153v590zM420 1583l198 229h252l-286 -229h-164z" />
<glyph unicode="&#xde;" horiz-adv-x="1153" d="M184 0v1475h174v-254h142q112 0 203 -28t160.5 -85t108 -151t38.5 -218q0 -121 -40.5 -213t-112.5 -147t-163.5 -82t-201.5 -27h-134v-270h-174zM358 403h138q166 0 250.5 80t84.5 256q0 168 -86.5 258t-240.5 90h-146v-684z" />
<glyph unicode="&#xdf;" horiz-adv-x="1175" d="M164 0v1092q0 211 107 322.5t286 111.5q162 0 255 -87t93 -237q0 -133 -49 -227q-162 -26 -162 -137q0 -58 37 -93t143 -92q209 -109 209 -325q0 -168 -99 -258t-245 -90q-118 0 -200 47.5t-119 113.5l143 66q23 -39 68.5 -66.5t107.5 -27.5q77 0 131 54.5t54 149.5 q0 81 -44.5 129.5t-131.5 96.5q-48 26 -80.5 49t-64.5 56t-48 75.5t-16 93.5q0 58 16.5 102t47 73t64 46.5t76.5 30.5q21 75 21 143q0 82 -55.5 135.5t-151.5 53.5q-108 0 -168.5 -74t-60.5 -197v-1130h-164z" />
<glyph unicode="&#xe0;" horiz-adv-x="1036" d="M82 295q0 73 24 132.5t64 101t97.5 72.5t118.5 49t132 28l191 29v75q0 230 -203 230q-85 0 -143.5 -47t-77.5 -123l-162 26q46 121 148 193t245 72q171 0 263.5 -94.5t92.5 -276.5v-762h-110l-37 131q-107 -151 -324 -151q-44 0 -86 9t-85 32t-75 57.5t-52.5 90.5 t-20.5 126zM238 1505h231l199 -280h-146zM252 307q0 -100 53.5 -148t145.5 -48q147 0 258 118v361l-148 -25q-309 -53 -309 -258z" />
<glyph unicode="&#xe1;" horiz-adv-x="1036" d="M82 295q0 73 24 132.5t64 101t97.5 72.5t118.5 49t132 28l191 29v75q0 230 -203 230q-85 0 -143.5 -47t-77.5 -123l-162 26q46 121 148 193t245 72q171 0 263.5 -94.5t92.5 -276.5v-762h-110l-37 131q-107 -151 -324 -151q-44 0 -86 9t-85 32t-75 57.5t-52.5 90.5 t-20.5 126zM252 307q0 -100 53.5 -148t145.5 -48q147 0 258 118v361l-148 -25q-309 -53 -309 -258zM420 1225l198 280h232l-287 -280h-143z" />
<glyph unicode="&#xe2;" horiz-adv-x="1036" d="M82 295q0 73 24 132.5t64 101t97.5 72.5t118.5 49t132 28l191 29v75q0 230 -203 230q-85 0 -143.5 -47t-77.5 -123l-162 26q46 121 148 193t245 72q171 0 263.5 -94.5t92.5 -276.5v-762h-110l-37 131q-107 -151 -324 -151q-44 0 -86 9t-85 32t-75 57.5t-52.5 90.5 t-20.5 126zM178 1227l250 280h147l250 -280h-174l-149 135l-150 -135h-174zM252 307q0 -100 53.5 -148t145.5 -48q147 0 258 118v361l-148 -25q-309 -53 -309 -258z" />
<glyph unicode="&#xe3;" horiz-adv-x="1036" d="M82 295q0 73 24 132.5t64 101t97.5 72.5t118.5 49t132 28l191 29v75q0 230 -203 230q-85 0 -143.5 -47t-77.5 -123l-162 26q46 121 148 193t245 72q171 0 263.5 -94.5t92.5 -276.5v-762h-110l-37 131q-107 -151 -324 -151q-44 0 -86 9t-85 32t-75 57.5t-52.5 90.5 t-20.5 126zM221 1266v151q96 70 182 70q44 0 80.5 -12t56.5 -27t49 -27t60 -12q71 0 166 76v-152q-95 -69 -174 -69q-44 0 -80.5 12t-56.5 26.5t-49 26.5t-60 12q-36 0 -83 -20t-91 -55zM252 307q0 -100 53.5 -148t145.5 -48q147 0 258 118v361l-148 -25q-309 -53 -309 -258 z" />
<glyph unicode="&#xe4;" horiz-adv-x="1036" d="M82 295q0 73 24 132.5t64 101t97.5 72.5t118.5 49t132 28l191 29v75q0 230 -203 230q-85 0 -143.5 -47t-77.5 -123l-162 26q46 121 148 193t245 72q171 0 263.5 -94.5t92.5 -276.5v-762h-110l-37 131q-107 -151 -324 -151q-44 0 -86 9t-85 32t-75 57.5t-52.5 90.5 t-20.5 126zM213 1300v185h195v-185h-195zM252 307q0 -100 53.5 -148t145.5 -48q147 0 258 118v361l-148 -25q-309 -53 -309 -258zM633 1300v185h194v-185h-194z" />
<glyph unicode="&#xe5;" horiz-adv-x="1036" d="M82 295q0 73 24 132.5t64 101t97.5 72.5t118.5 49t132 28l191 29v75q0 230 -203 230q-85 0 -143.5 -47t-77.5 -123l-162 26q46 121 148 193t245 72q171 0 263.5 -94.5t92.5 -276.5v-762h-110l-37 131q-107 -151 -324 -151q-44 0 -86 9t-85 32t-75 57.5t-52.5 90.5 t-20.5 126zM252 307q0 -100 53.5 -148t145.5 -48q147 0 258 118v361l-148 -25q-309 -53 -309 -258zM270 1415q0 113 68 178.5t174 65.5q105 0 172.5 -65.5t67.5 -178.5q0 -112 -67 -175.5t-173 -63.5t-174 63.5t-68 175.5zM399 1415q0 -62 31 -100.5t82 -38.5t81 38.5 t30 100.5q0 63 -30.5 103.5t-80.5 40.5t-81.5 -41t-31.5 -103z" />
<glyph unicode="&#xe6;" horiz-adv-x="1656" d="M82 295q0 72 24 131.5t64 101t97.5 72.5t118.5 49.5t132 28.5l191 29v75q0 230 -203 230q-85 0 -143.5 -47t-77.5 -123l-162 26q46 121 148 193t245 72q212 0 293 -162q104 166 309 166q213 0 319.5 -149t106.5 -462h-684q2 -123 25.5 -208t65 -128.5t87 -61t103.5 -17.5 q93 0 154 51.5t83 120.5l144 -31q-42 -117 -141.5 -194.5t-250.5 -77.5q-107 0 -197.5 48.5t-146.5 155.5q-121 -204 -389 -204q-44 0 -85.5 9t-84 32t-74 57.5t-51.5 90.5t-20 126zM252 307q0 -100 53.5 -148t145.5 -48q175 0 258 143v336l-148 -25q-148 -24 -228.5 -88.5 t-80.5 -169.5zM862 651h516q-3 175 -68 269t-182 94q-111 0 -181.5 -89.5t-84.5 -273.5z" />
<glyph unicode="&#xe7;" horiz-adv-x="1042" d="M129 555q0 122 25 221.5t66.5 165.5t98 111t117.5 64.5t127 19.5q89 0 160 -28t116 -75.5t73 -100t42 -112.5l-163 -24q-22 98 -74 152.5t-150 54.5q-121 0 -193.5 -109.5t-72.5 -345.5q0 -120 20.5 -207.5t57.5 -136.5t82 -71.5t100 -22.5q98 0 158 60.5t76 152.5 l166 -21q-31 -121 -119 -211.5t-228 -107.5l-6 -88q81 -18 121.5 -68.5t40.5 -118.5q0 -89 -67.5 -146t-172.5 -57q-117 0 -208 52l61 96q60 -27 121 -27q117 0 117 90q0 80 -177 101l31 170q-69 12 -127.5 47t-109.5 99t-80 171.5t-29 249.5z" />
<glyph unicode="&#xe8;" horiz-adv-x="1093" d="M129 553q0 129 24.5 231.5t65.5 167.5t97 107.5t115 60t124 17.5q213 0 319.5 -149t106.5 -462h-684q2 -123 25.5 -208t65 -128.5t87 -61t103.5 -17.5q93 0 154 51.5t83 120.5l143 -31q-42 -117 -141 -194.5t-250 -77.5q-66 0 -125.5 16.5t-117.5 58t-100.5 105 t-68.5 164.5t-26 229zM258 1505h231l199 -280h-145zM299 651h516q-3 175 -68 269t-182 94q-111 0 -181.5 -89.5t-84.5 -273.5z" />
<glyph unicode="&#xe9;" horiz-adv-x="1093" d="M129 553q0 129 24.5 231.5t65.5 167.5t97 107.5t115 60t124 17.5q213 0 319.5 -149t106.5 -462h-684q2 -123 25.5 -208t65 -128.5t87 -61t103.5 -17.5q93 0 154 51.5t83 120.5l143 -31q-42 -117 -141 -194.5t-250 -77.5q-66 0 -125.5 16.5t-117.5 58t-100.5 105 t-68.5 164.5t-26 229zM299 651h516q-3 175 -68 269t-182 94q-111 0 -181.5 -89.5t-84.5 -273.5zM453 1225l198 280h232l-287 -280h-143z" />
<glyph unicode="&#xea;" horiz-adv-x="1093" d="M129 553q0 129 24.5 231.5t65.5 167.5t97 107.5t115 60t124 17.5q213 0 319.5 -149t106.5 -462h-684q2 -123 25.5 -208t65 -128.5t87 -61t103.5 -17.5q93 0 154 51.5t83 120.5l143 -31q-42 -117 -141 -194.5t-250 -77.5q-66 0 -125.5 16.5t-117.5 58t-100.5 105 t-68.5 164.5t-26 229zM246 1227l250 280h147l250 -280h-174l-150 135l-149 -135h-174zM299 651h516q-3 175 -68 269t-182 94q-111 0 -181.5 -89.5t-84.5 -273.5z" />
<glyph unicode="&#xeb;" horiz-adv-x="1093" d="M129 553q0 129 24.5 231.5t65.5 167.5t97 107.5t115 60t124 17.5q213 0 319.5 -149t106.5 -462h-684q2 -123 25.5 -208t65 -128.5t87 -61t103.5 -17.5q93 0 154 51.5t83 120.5l143 -31q-42 -117 -141 -194.5t-250 -77.5q-66 0 -125.5 16.5t-117.5 58t-100.5 105 t-68.5 164.5t-26 229zM248 1300v185h194v-185h-194zM299 651h516q-3 175 -68 269t-182 94q-111 0 -181.5 -89.5t-84.5 -273.5zM668 1300v185h194v-185h-194z" />
<glyph unicode="&#xec;" horiz-adv-x="495" d="M-43 1505h231l199 -280h-145zM164 0v1106h164v-1106h-164z" />
<glyph unicode="&#xed;" horiz-adv-x="495" d="M100 1225l199 280h231l-286 -280h-144zM164 0v1106h164v-1106h-164z" />
<glyph unicode="&#xee;" horiz-adv-x="495" d="M-76 1227l240 280h158l249 -280h-174l-149 135l-150 -135h-174zM164 0v1106h164v-1106h-164z" />
<glyph unicode="&#xef;" horiz-adv-x="495" d="M-59 1300v185h223l-29 -185h-194zM164 0v1106h164v-1106h-164zM360 1300v185h195v-185h-195z" />
<glyph unicode="&#xf0;" horiz-adv-x="991" d="M82 473q0 80 12.5 151.5t40 134t68 107.5t100 71t133.5 26q168 0 285 -142q-24 239 -178 393l-72 -75h-168l143 149q-112 71 -229 92l47 125q175 -49 281 -112l78 82h168l-146 -154q244 -211 244 -614q0 -361 -99 -544t-317 -183q-79 0 -148.5 31.5t-124 91.5 t-86.5 155.5t-32 214.5zM248 461q0 -184 66.5 -270.5t164.5 -86.5q126 0 184.5 140.5t61.5 457.5q-132 132 -260 132q-103 0 -160 -95.5t-57 -277.5z" />
<glyph unicode="&#xf1;" horiz-adv-x="1193" d="M164 0v1106h119l30 -135q63 85 149.5 125.5t168.5 40.5q163 0 245 -103t82 -317v-717h-163v725q0 148 -50.5 213.5t-160.5 65.5q-132 0 -256 -150v-854h-164zM303 1266v151q96 70 182 70q44 0 80.5 -12t56.5 -27t49 -27t60 -12q71 0 166 76v-152q-95 -69 -174 -69 q-44 0 -80.5 12t-56.5 26.5t-49 26.5t-60 12q-36 0 -83 -20t-91 -55z" />
<glyph unicode="&#xf2;" horiz-adv-x="1198" d="M129 553q0 131 27 234t71 167.5t104 107t121.5 59t127.5 16.5q67 0 127.5 -16.5t120 -58t103 -106t70.5 -168t27 -235.5t-27 -234.5t-70 -165t-103.5 -103t-120.5 -55.5t-127 -15t-127.5 15.5t-121 56t-104.5 103.5t-71 165t-27 233zM272 1505h232l198 -280h-145z M301 553q0 -226 74.5 -337.5t206.5 -111.5t204 110t72 339q0 228 -75.5 343.5t-202.5 115.5t-203 -117t-76 -342z" />
<glyph unicode="&#xf3;" horiz-adv-x="1198" d="M129 553q0 131 27 234t71 167.5t104 107t121.5 59t127.5 16.5q67 0 127.5 -16.5t120 -58t103 -106t70.5 -168t27 -235.5t-27 -234.5t-70 -165t-103.5 -103t-120.5 -55.5t-127 -15t-127.5 15.5t-121 56t-104.5 103.5t-71 165t-27 233zM301 553q0 -226 74.5 -337.5 t206.5 -111.5t204 110t72 339q0 228 -75.5 343.5t-202.5 115.5t-203 -117t-76 -342zM453 1225l198 280h232l-287 -280h-143z" />
<glyph unicode="&#xf4;" horiz-adv-x="1198" d="M129 553q0 131 27 234t71 167.5t104 107t121.5 59t127.5 16.5q67 0 127.5 -16.5t120 -58t103 -106t70.5 -168t27 -235.5t-27 -234.5t-70 -165t-103.5 -103t-120.5 -55.5t-127 -15t-127.5 15.5t-121 56t-104.5 103.5t-71 165t-27 233zM258 1227l250 280h147l250 -280h-174 l-149 135l-150 -135h-174zM301 553q0 -226 74.5 -337.5t206.5 -111.5t204 110t72 339q0 228 -75.5 343.5t-202.5 115.5t-203 -117t-76 -342z" />
<glyph unicode="&#xf5;" horiz-adv-x="1198" d="M129 553q0 131 27 234t71 167.5t104 107t121.5 59t127.5 16.5q67 0 127.5 -16.5t120 -58t103 -106t70.5 -168t27 -235.5t-27 -234.5t-70 -165t-103.5 -103t-120.5 -55.5t-127 -15t-127.5 15.5t-121 56t-104.5 103.5t-71 165t-27 233zM283 1266v151q96 70 182 70 q44 0 80.5 -12t56.5 -27t49 -27t60 -12q71 0 166 76v-152q-95 -69 -175 -69q-44 0 -80 12t-56.5 26.5t-49 26.5t-59.5 12q-36 0 -83 -20t-91 -55zM301 553q0 -226 74.5 -337.5t206.5 -111.5t204 110t72 339q0 228 -75.5 343.5t-202.5 115.5t-203 -117t-76 -342z" />
<glyph unicode="&#xf6;" horiz-adv-x="1198" d="M129 553q0 131 27 234t71 167.5t104 107t121.5 59t127.5 16.5q67 0 127.5 -16.5t120 -58t103 -106t70.5 -168t27 -235.5t-27 -234.5t-70 -165t-103.5 -103t-120.5 -55.5t-127 -15t-127.5 15.5t-121 56t-104.5 103.5t-71 165t-27 233zM276 1300v185h195v-185h-195z M301 553q0 -226 74.5 -337.5t206.5 -111.5t204 110t72 339q0 228 -75.5 343.5t-202.5 115.5t-203 -117t-76 -342zM696 1300v185h195v-185h-195z" />
<glyph unicode="&#xf7;" d="M133 590v143h840v-143h-840zM451 102v205h204v-205h-204zM451 1001v205h204v-205h-204z" />
<glyph unicode="&#xf8;" horiz-adv-x="1157" d="M129 553q0 131 27 234t71 167.5t104 107t121.5 59t127.5 16.5q99 0 184 -39l92 198h143l-125 -272q154 -151 154 -471q0 -132 -27 -234.5t-70 -165t-103.5 -103t-120.5 -55.5t-127 -15q-91 0 -174 30l-103 -219h-147l135 291q-162 145 -162 471zM301 553q0 -212 68 -326 l342 744q-59 41 -131 41q-127 0 -203 -117t-76 -342zM457 135q57 -31 125 -31q132 0 204 110t72 339q0 196 -63 319z" />
<glyph unicode="&#xf9;" horiz-adv-x="1177" d="M164 385v721h164v-725q0 -149 52 -208.5t152 -59.5q148 0 238 143v850h164v-1106h-113l-37 139q-102 -159 -284 -159q-159 0 -247.5 99.5t-88.5 305.5zM270 1505h232l198 -280h-145z" />
<glyph unicode="&#xfa;" horiz-adv-x="1177" d="M164 385v721h164v-725q0 -149 52 -208.5t152 -59.5q148 0 238 143v850h164v-1106h-113l-37 139q-102 -159 -284 -159q-159 0 -247.5 99.5t-88.5 305.5zM420 1225l198 280h232l-287 -280h-143z" />
<glyph unicode="&#xfb;" horiz-adv-x="1177" d="M164 385v721h164v-725q0 -149 52 -208.5t152 -59.5q148 0 238 143v850h164v-1106h-113l-37 139q-102 -159 -284 -159q-159 0 -247.5 99.5t-88.5 305.5zM223 1227l250 280h148l249 -280h-174l-149 135l-150 -135h-174z" />
<glyph unicode="&#xfc;" horiz-adv-x="1177" d="M164 385v721h164v-725q0 -149 52 -208.5t152 -59.5q148 0 238 143v850h164v-1106h-113l-37 139q-102 -159 -284 -159q-159 0 -247.5 99.5t-88.5 305.5zM246 1300v185h194v-185h-194zM666 1300v185h194v-185h-194z" />
<glyph unicode="&#xfd;" horiz-adv-x="1046" d="M20 1106h175l294 -997l273 997h156l-320 -1135q-19 -68 -34.5 -110.5t-39.5 -83.5t-53 -63t-72 -35t-100 -13q-55 0 -133 19v129q76 -17 129 -17q70 0 98.5 42.5t57.5 160.5h-78zM358 1225l199 280h231l-286 -280h-144z" />
<glyph unicode="&#xfe;" horiz-adv-x="1081" d="M164 -348v1853h164v-499q109 131 282 131q72 0 131.5 -31.5t108 -97.5t75.5 -179t27 -264q0 -281 -107.5 -433t-299.5 -152q-137 0 -217 86v-414h-164zM328 190q88 -92 184 -92q126 0 197 114.5t71 362.5q0 119 -17 203.5t-49.5 132.5t-74 69t-96.5 21q-108 0 -215 -114 v-697z" />
<glyph unicode="&#xff;" horiz-adv-x="1046" d="M20 1106h175l294 -997l273 997h156l-320 -1135q-19 -68 -34.5 -110.5t-39.5 -83.5t-53 -63t-72 -35t-100 -13q-55 0 -133 19v129q76 -17 129 -17q70 0 98.5 42.5t57.5 160.5h-78zM176 1300v185h195v-185h-195zM596 1300v185h195v-185h-195z" />
<glyph unicode="&#x152;" horiz-adv-x="1830" d="M143 737q0 166 29.5 298.5t79 219t118.5 144t144 82t160 24.5q92 0 174 -30h860v-134h-676q150 -181 164 -528h451v-131h-451q-11 -361 -164 -549h676v-133h-860q-85 -31 -174 -31q-84 0 -159 24.5t-144 82t-119 144t-79.5 219t-29.5 298.5zM322 737q0 -312 89 -473.5 t263 -161.5t263 162t89 473t-89 473t-263 162t-263 -161.5t-89 -473.5z" />
<glyph unicode="&#x153;" horiz-adv-x="1810" d="M129 553q0 131 27 234t71 167.5t104 107t121.5 59t127.5 16.5q112 0 205 -55.5t145 -168.5q52 116 142.5 170t199.5 54q213 0 319.5 -149t106.5 -462h-684q2 -123 25.5 -208t64.5 -128.5t86.5 -61t103.5 -17.5q93 0 154.5 51.5t83.5 120.5l143 -31q-42 -117 -141 -194.5 t-250 -77.5q-248 0 -352 221q-45 -107 -142.5 -164t-209.5 -57q-67 0 -127.5 15.5t-121 56t-104.5 103.5t-71 165t-27 233zM301 553q0 -226 74 -335t207 -109q276 0 276 444q0 227 -75.5 341t-202.5 114t-203 -115t-76 -340zM1016 651h516q-3 175 -68 269t-182 94 q-111 0 -181.5 -89.5t-84.5 -273.5z" />
<glyph unicode="&#x178;" horiz-adv-x="1048" d="M20 1475h191l321 -699l326 699h170l-424 -885v-590h-153v590zM223 1608v184h195v-184h-195zM643 1608v184h195v-184h-195z" />
<glyph unicode="&#x2c6;" horiz-adv-x="770" d="M61 1227l250 280h148l250 -280h-174l-150 135l-149 -135h-175z" />
<glyph unicode="&#x2dc;" horiz-adv-x="757" d="M61 1266v151q96 70 183 70q56 0 97 -19.5t75.5 -39t72.5 -19.5q71 0 166 76v-152q-95 -69 -174 -69q-44 0 -80 12t-56.5 26.5t-49 26.5t-59.5 12q-36 0 -84 -20t-91 -55z" />
<glyph unicode="&#x2000;" horiz-adv-x="947" />
<glyph unicode="&#x2001;" horiz-adv-x="1894" />
<glyph unicode="&#x2002;" horiz-adv-x="947" />
<glyph unicode="&#x2003;" horiz-adv-x="1894" />
<glyph unicode="&#x2004;" horiz-adv-x="631" />
<glyph unicode="&#x2005;" horiz-adv-x="473" />
<glyph unicode="&#x2006;" horiz-adv-x="315" />
<glyph unicode="&#x2007;" horiz-adv-x="315" />
<glyph unicode="&#x2008;" horiz-adv-x="236" />
<glyph unicode="&#x2009;" horiz-adv-x="378" />
<glyph unicode="&#x200a;" horiz-adv-x="105" />
<glyph unicode="&#x2010;" horiz-adv-x="870" d="M123 590v143h625v-143h-625z" />
<glyph unicode="&#x2011;" horiz-adv-x="870" d="M123 590v143h625v-143h-625z" />
<glyph unicode="&#x2012;" horiz-adv-x="870" d="M123 590v143h625v-143h-625z" />
<glyph unicode="&#x2013;" horiz-adv-x="972" d="M123 590v143h727v-143h-727z" />
<glyph unicode="&#x2014;" horiz-adv-x="1269" d="M174 590v143h922v-143h-922z" />
<glyph unicode="&#x2018;" horiz-adv-x="512" d="M137 1018v192l125 295h96l-79 -293h63v-194h-205z" />
<glyph unicode="&#x2019;" horiz-adv-x="512" d="M137 1018l80 293h-63v194h204v-192l-125 -295h-96z" />
<glyph unicode="&#x201a;" horiz-adv-x="512" d="M137 -293l80 293h-63v195h204v-193l-125 -295h-96z" />
<glyph unicode="&#x201c;" horiz-adv-x="819" d="M137 1018v192l125 295h96l-79 -293h63v-194h-205zM444 1018v192l125 295h97l-80 -293h63v-194h-205z" />
<glyph unicode="&#x201d;" horiz-adv-x="819" d="M137 1018l80 293h-63v194h204v-192l-125 -295h-96zM444 1018l80 293h-63v194h205v-192l-125 -295h-97z" />
<glyph unicode="&#x201e;" horiz-adv-x="819" d="M137 -293l80 293h-63v195h204v-193l-125 -295h-96zM444 -293l80 293h-63v195h205v-193l-125 -295h-97z" />
<glyph unicode="&#x2022;" horiz-adv-x="645" d="M164 563v297h317v-297h-317z" />
<glyph unicode="&#x2026;" horiz-adv-x="1413" d="M133 0v205h205v-205h-205zM604 0v205h205v-205h-205zM1075 0v205h205v-205h-205z" />
<glyph unicode="&#x202f;" horiz-adv-x="378" />
<glyph unicode="&#x2039;" horiz-adv-x="636" d="M123 668l239 419h132l-189 -425l168 -455h-131z" />
<glyph unicode="&#x203a;" horiz-adv-x="636" d="M143 1087h131l240 -419l-219 -461h-131l168 455z" />
<glyph unicode="&#x205f;" horiz-adv-x="473" />
<glyph unicode="&#x20ac;" d="M51 496l31 122h141q-2 27 -2 84q0 64 2 95h-172l31 123h151q15 125 50 221t79.5 154t102.5 95t114.5 50.5t120.5 13.5q172 0 308 -96l-35 -131q-69 53 -127 77.5t-131 24.5q-135 0 -214 -100t-104 -309h502l-31 -123h-479q-2 -31 -2 -95q0 -57 2 -84h436l-30 -122h-398 q47 -396 299 -396q109 0 242 78v-139q-118 -70 -268 -70q-57 0 -107.5 12.5t-106 47.5t-98.5 91.5t-77.5 153t-49.5 222.5h-180z" />
<glyph unicode="&#x2122;" horiz-adv-x="1624" d="M92 1360v115h821l174 -670l164 670h205v-811h-129v655l-180 -655h-129l-189 655v-655h-124v696h-242v-696h-133v696h-238z" />
<glyph unicode="&#xe000;" d="M0 0v1106h1106v-1106h-1106z" />
</font>
</defs>
</svg>
