<?xml version="1.0" encoding="utf-8"?>
<!-- Generator: Adobe Illustrator 17.0.0, SVG Export Plug-In . SVG Version: 6.00 Build 0)  -->
<!DOCTYPE svg PUBLIC "-//W3C//DTD SVG 1.1//EN" "http://www.w3.org/Graphics/SVG/1.1/DTD/svg11.dtd">
<svg version="1.1" id="Layer_1" xmlns="http://www.w3.org/2000/svg" xmlns:xlink="http://www.w3.org/1999/xlink" x="0px" y="0px"
	 width="474.788px" height="262.996px" viewBox="0 0 474.788 262.996" enable-background="new 0 0 474.788 262.996"
	 xml:space="preserve">
<g>
	<rect x="366.671" y="134.907" fill="#F4F4F4" width="21.469" height="2.013"/>
	<rect x="366.671" y="140.68" fill="#F4F4F4" width="30.117" height="2.013"/>
	<rect x="366.671" y="146.454" fill="#F4F4F4" width="21.469" height="2.013"/>
	<rect x="84.93" y="134.907" fill="#F4F4F4" width="21.469" height="2.013"/>
	<rect x="76.282" y="140.68" fill="#F4F4F4" width="30.117" height="2.013"/>
	<rect x="84.93" y="146.454" fill="#F4F4F4" width="21.469" height="2.013"/>
	<path fill="#F4F4F4" d="M95.789,17.962c0.094,0.092,0.137,0.224,0.115,0.353l-0.459,2.674c-0.056,0.326,0.286,0.575,0.579,0.421
		l2.401-1.263c0.116-0.061,0.255-0.061,0.371,0l2.401,1.263c0.293,0.153,0.635-0.095,0.579-0.421l-0.459-2.674
		c-0.022-0.129,0.021-0.261,0.115-0.353l1.943-1.894c0.237-0.23,0.106-0.632-0.221-0.68l-2.685-0.39
		c-0.13-0.019-0.242-0.1-0.3-0.218l-1.201-2.433c-0.146-0.297-0.569-0.297-0.715,0l-1.201,2.433c-0.058,0.117-0.17,0.199-0.3,0.218
		l-2.685,0.39c-0.327,0.047-0.458,0.449-0.221,0.68L95.789,17.962z"/>
	<path fill="#F4F4F4" d="M121.519,17.962c0.094,0.092,0.137,0.224,0.115,0.353l-0.459,2.674c-0.056,0.326,0.286,0.575,0.579,0.421
		l2.401-1.263c0.116-0.061,0.255-0.061,0.371,0l2.401,1.263c0.293,0.153,0.635-0.095,0.579-0.421l-0.459-2.674
		c-0.022-0.129,0.021-0.261,0.115-0.353l1.943-1.894c0.237-0.23,0.106-0.632-0.221-0.68l-2.685-0.39
		c-0.129-0.019-0.242-0.1-0.3-0.218l-1.201-2.433c-0.147-0.297-0.569-0.297-0.715,0l-1.201,2.433c-0.058,0.117-0.17,0.199-0.3,0.218
		l-2.685,0.39c-0.327,0.047-0.458,0.449-0.221,0.68L121.519,17.962z"/>
	<path fill="#F4F4F4" d="M145.802,17.962c0.094,0.092,0.137,0.224,0.115,0.353l-0.459,2.674c-0.056,0.326,0.286,0.575,0.579,0.421
		l2.401-1.263c0.116-0.061,0.255-0.061,0.371,0l2.401,1.263c0.293,0.153,0.635-0.095,0.579-0.421l-0.459-2.674
		c-0.022-0.129,0.021-0.261,0.115-0.353l1.943-1.894c0.237-0.23,0.106-0.632-0.221-0.68l-2.685-0.39
		c-0.13-0.019-0.242-0.1-0.3-0.218l-1.201-2.433c-0.147-0.297-0.57-0.297-0.715,0l-1.201,2.433c-0.058,0.117-0.17,0.199-0.3,0.218
		l-2.685,0.39c-0.327,0.047-0.458,0.449-0.221,0.68L145.802,17.962z"/>
	<path fill="#F4F4F4" d="M324.396,17.962c0.094,0.092,0.137,0.224,0.115,0.353l-0.459,2.674c-0.056,0.326,0.286,0.575,0.579,0.421
		l2.401-1.263c0.116-0.061,0.255-0.061,0.371,0l2.401,1.263c0.293,0.153,0.635-0.095,0.579-0.421l-0.459-2.674
		c-0.022-0.129,0.021-0.261,0.115-0.353l1.943-1.894c0.237-0.23,0.106-0.632-0.221-0.68l-2.685-0.39
		c-0.13-0.019-0.242-0.1-0.3-0.218l-1.201-2.433c-0.146-0.297-0.569-0.297-0.715,0l-1.201,2.433c-0.058,0.117-0.17,0.199-0.3,0.218
		l-2.685,0.39c-0.327,0.047-0.458,0.449-0.221,0.68L324.396,17.962z"/>
	<path fill="#F4F4F4" d="M350.126,17.962c0.094,0.092,0.137,0.224,0.115,0.353l-0.459,2.674c-0.056,0.326,0.286,0.575,0.579,0.421
		l2.401-1.263c0.116-0.061,0.255-0.061,0.371,0l2.401,1.263c0.293,0.153,0.635-0.095,0.579-0.421l-0.459-2.674
		c-0.022-0.129,0.021-0.261,0.115-0.353l1.943-1.894c0.237-0.23,0.106-0.632-0.221-0.68l-2.685-0.39
		c-0.13-0.019-0.242-0.1-0.3-0.218l-1.201-2.433c-0.147-0.297-0.569-0.297-0.715,0l-1.201,2.433c-0.058,0.117-0.17,0.199-0.3,0.218
		l-2.685,0.39c-0.327,0.047-0.458,0.449-0.221,0.68L350.126,17.962z"/>
	<path fill="#F4F4F4" d="M374.408,17.962c0.094,0.092,0.137,0.224,0.115,0.353l-0.459,2.674c-0.056,0.326,0.286,0.575,0.579,0.421
		l2.401-1.263c0.116-0.061,0.255-0.061,0.371,0l2.401,1.263c0.293,0.153,0.635-0.095,0.579-0.421l-0.459-2.674
		c-0.022-0.129,0.021-0.261,0.115-0.353l1.943-1.894c0.237-0.23,0.106-0.632-0.221-0.68l-2.685-0.39
		c-0.13-0.019-0.242-0.1-0.3-0.218l-1.201-2.433c-0.146-0.297-0.569-0.297-0.715,0l-1.201,2.433c-0.058,0.117-0.17,0.199-0.3,0.218
		l-2.685,0.39c-0.327,0.047-0.458,0.449-0.221,0.68L374.408,17.962z"/>
	<path fill="#F4F4F4" d="M251.858,22.035l2.966-17.797l-8.475,4.237L240.699,0l-6.638,7.627L226.999,0l-3.955,8.899l-10.288-5.737
		l3.932,18.872C231.518,13.983,251.857,22.034,251.858,22.035z"/>
	<rect x="261.321" y="9.004" fill="#F4F4F4" width="21.469" height="2.013"/>
	<rect x="261.321" y="14.778" fill="#F4F4F4" width="30.116" height="2.013"/>
	<rect x="261.321" y="20.551" fill="#F4F4F4" width="21.469" height="2.013"/>
	<rect x="184.07" y="9.004" fill="#F4F4F4" width="21.469" height="2.013"/>
	<rect x="175.422" y="14.778" fill="#F4F4F4" width="30.117" height="2.013"/>
	<rect x="184.07" y="20.551" fill="#F4F4F4" width="21.469" height="2.013"/>
	<polygon fill="#F4F4F4" points="100.449,92.832 109.442,92.832 109.442,63.18 133.228,92.831 140.527,92.831 140.527,46.626 
		131.534,46.626 131.534,76.931 107.422,46.562 100.449,46.562 	"/>
	<polygon fill="#F4F4F4" points="181.712,54.446 181.712,46.561 150.171,46.561 150.171,92.831 182.299,92.831 182.299,84.946 
		159.165,84.946 159.165,72.889 178.65,72.889 178.65,65.59 159.165,65.59 159.165,54.446 	"/>
	<polygon fill="#F4F4F4" points="210.971,92.831 218.987,73.411 227.002,92.831 234.562,92.831 253.396,46.561 243.62,46.561 
		230.522,82.534 224.657,67.741 232.542,46.691 224.201,46.691 218.988,62.006 213.775,46.691 205.498,46.691 213.252,67.741 
		207.518,82.534 194.353,46.561 184.643,46.561 203.412,92.831 	"/>
	<path fill="#F4F4F4" d="M284.384,91.169c2.803-1.108,5.203-2.673,7.202-4.693c1.998-2.021,3.529-4.453,4.594-7.299
		c1.063-2.844,1.596-6.027,1.596-9.547c0-3.17-0.478-6.157-1.434-8.96c-0.956-2.802-2.389-5.246-4.3-7.332
		c-1.914-2.084-4.292-3.735-7.136-4.952c-2.847-1.216-6.158-1.825-9.938-1.825h-16.814V92.83h16.814
		C278.442,92.83,281.582,92.277,284.384,91.169z M267.148,54.447h7.82c2.172,0,4.116,0.37,5.832,1.108
		c1.716,0.741,3.161,1.783,4.334,3.129c1.173,1.346,2.064,2.954,2.672,4.822c0.608,1.868,0.913,3.909,0.913,6.125
		c0,2.173-0.305,4.194-0.914,6.062c-0.608,1.868-1.488,3.486-2.639,4.855c-1.15,1.369-2.584,2.443-4.3,3.226
		c-1.717,0.782-3.682,1.173-5.898,1.173h-7.82V54.447z"/>
	<path fill="#F4F4F4" d="M312.374,81.296h16.227l4.237,11.535h9.514l-18.182-46.27h-7.299l-18.247,46.27h9.515L312.374,81.296z
		 M320.52,56.271l6.453,18.704h-13.1L320.52,56.271z"/>
	<polygon fill="#F4F4F4" points="354.474,92.83 363.402,92.83 363.402,76.668 380.215,46.561 370.505,46.561 358.905,68.848 
		347.5,46.561 337.726,46.561 354.474,76.539 	"/>
	<path fill="#F4F4F4" d="M135.524,140.091c0.555-0.732,0.985-1.56,1.288-2.483c0.303-0.922,0.455-1.877,0.455-2.862
		c0-1.01-0.196-2.016-0.588-3.013c-0.392-0.998-0.928-1.896-1.611-2.692c-0.682-0.795-1.504-1.434-2.464-1.913
		c-0.961-0.481-2.009-0.721-3.146-0.721h-11.22v26.913h1.935v-10.158h8.718l6.52,10.158h2.236l-6.709-10.462
		c0.934-0.152,1.794-0.468,2.577-0.947C134.298,141.43,134.967,140.824,135.524,140.091z M131.958,140.811
		c-0.708,0.379-1.491,0.569-2.35,0.569h-9.438v-13.229h9.173c0.834,0,1.611,0.183,2.331,0.549c0.721,0.367,1.352,0.852,1.896,1.459
		c0.542,0.606,0.972,1.308,1.288,2.104c0.316,0.796,0.474,1.623,0.474,2.483c0,0.834-0.132,1.649-0.398,2.445
		c-0.266,0.796-0.651,1.504-1.156,2.122C133.272,139.933,132.665,140.432,131.958,140.811z"/>
	<polygon fill="#F4F4F4" points="160.69,128.151 160.69,126.407 143.102,126.407 143.102,153.32 161.031,153.32 161.031,151.577 
		145.035,151.577 145.035,140.394 158.719,140.394 158.719,138.726 145.035,138.726 145.035,128.151 	"/>
	<path fill="#F4F4F4" d="M180.043,150.555c-1.326,0.858-3.165,1.288-5.515,1.288c-2.047,0-3.892-0.347-5.534-1.043
		c-1.643-0.695-3.033-1.636-4.17-2.824l-1.023,1.555c2.905,2.678,6.456,4.017,10.651,4.017c1.44,0,2.748-0.152,3.923-0.455
		c1.175-0.304,2.185-0.753,3.032-1.346c0.847-0.593,1.503-1.333,1.971-2.217c0.467-0.884,0.701-1.921,0.701-3.109
		c0-1.187-0.221-2.185-0.663-2.994c-0.443-0.809-1.075-1.491-1.896-2.047c-0.822-0.556-1.814-1.017-2.976-1.383
		c-1.163-0.366-2.477-0.701-3.942-1.005c-1.365-0.278-2.547-0.561-3.544-0.852c-0.999-0.29-1.82-0.631-2.464-1.023
		c-0.645-0.392-1.119-0.878-1.422-1.46c-0.303-0.581-0.455-1.302-0.455-2.161c0-1.694,0.6-3.039,1.801-4.038
		c1.2-0.997,3.114-1.496,5.743-1.496c3.184,0,5.647,0.972,7.391,2.918l0.987-1.515c-1.113-1.061-2.351-1.851-3.715-2.369
		c-1.364-0.517-2.918-0.777-4.662-0.777c-1.416,0-2.705,0.165-3.867,0.494c-1.162,0.329-2.16,0.815-2.994,1.459
		c-0.834,0.644-1.484,1.435-1.952,2.369c-0.467,0.935-0.701,2.009-0.701,3.222c0,1.112,0.19,2.034,0.569,2.767
		c0.378,0.734,0.947,1.359,1.705,1.877c0.759,0.518,1.687,0.948,2.786,1.288c1.099,0.341,2.369,0.663,3.81,0.966
		c1.414,0.304,2.646,0.619,3.695,0.948c1.049,0.328,1.927,0.72,2.635,1.175c0.707,0.455,1.232,0.993,1.573,1.611
		c0.342,0.62,0.512,1.372,0.512,2.256C182.033,148.394,181.37,149.695,180.043,150.555z"/>
	<polygon fill="#F4F4F4" points="197.723,153.32 197.723,128.151 207.578,128.151 207.578,126.407 185.935,126.407 185.935,128.151 
		195.79,128.151 195.79,153.32 	"/>
	<path fill="#F4F4F4" d="M212.089,144.45h12.85l3.753,8.87h2.085l-11.448-26.913h-1.592L206.29,153.32h2.047L212.089,144.45z
		 M218.533,128.758l5.876,14.1h-11.865L218.533,128.758z"/>
	<path fill="#F4F4F4" d="M233.43,126.409v13.533c0,1.718,0.182,3.386,0.549,5.003c0.366,1.619,0.986,3.066,1.857,4.341
		c0.871,1.276,2.028,2.3,3.468,3.07c1.441,0.772,3.221,1.156,5.345,1.156c2.072,0,3.821-0.366,5.25-1.099
		c1.428-0.734,2.584-1.725,3.468-2.976c0.884-1.251,1.522-2.698,1.914-4.341c0.391-1.643,0.587-3.36,0.587-5.155v-13.533h-1.933
		v13.533c0,1.44-0.145,2.867-0.436,4.283c-0.291,1.416-0.79,2.678-1.498,3.79c-0.708,1.113-1.661,2.009-2.861,2.691
		c-1.2,0.683-2.71,1.023-4.53,1.023c-1.793,0-3.284-0.334-4.471-1.002c-1.188-0.668-2.136-1.554-2.843-2.653
		c-0.708-1.099-1.207-2.356-1.497-3.772c-0.291-1.415-0.436-2.868-0.436-4.359v-13.533H233.43z"/>
	<path fill="#F4F4F4" d="M279.824,140.091c0.555-0.732,0.985-1.56,1.288-2.483c0.304-0.922,0.456-1.877,0.456-2.862
		c0-1.01-0.196-2.016-0.588-3.013c-0.393-0.998-0.929-1.896-1.611-2.692c-0.682-0.795-1.504-1.434-2.464-1.913
		c-0.961-0.481-2.01-0.721-3.146-0.721h-11.22v26.913h1.933v-10.158h8.719l6.52,10.158h2.235l-6.708-10.462
		c0.934-0.152,1.794-0.468,2.577-0.947C278.598,141.43,279.268,140.824,279.824,140.091z M276.261,140.811
		c-0.708,0.379-1.491,0.569-2.351,0.569h-9.437v-13.229h9.173c0.834,0,1.61,0.183,2.331,0.549c0.72,0.367,1.353,0.853,1.895,1.459
		c0.542,0.606,0.972,1.308,1.288,2.104c0.316,0.796,0.474,1.623,0.474,2.483c0,0.834-0.132,1.649-0.397,2.445
		c-0.266,0.796-0.651,1.504-1.156,2.122C277.574,139.933,276.968,140.432,276.261,140.811z"/>
	<path fill="#F4F4F4" d="M284.184,153.32h2.046l3.752-8.87h12.849l3.754,8.87h2.085l-11.448-26.913h-1.592L284.184,153.32z
		 M302.302,142.858h-11.865l5.989-14.1L302.302,142.858z"/>
	<polygon fill="#F4F4F4" points="314.354,126.407 312.876,126.407 312.876,153.32 314.809,153.32 314.809,130.046 333.383,153.32 
		335.164,153.32 335.164,126.445 333.231,126.445 333.231,150.098 	"/>
	<polygon fill="#F4F4F4" points="351.311,153.32 351.311,128.151 361.166,128.151 361.166,126.407 339.523,126.407 339.523,128.151 
		349.378,128.151 349.378,153.32 	"/>
	<rect x="74.663" y="108.128" fill="#F4F4F4" width="319.551" height="0.656"/>
	<polygon fill="#F4F4F4" points="78.767,230.003 78.767,206.348 42.795,206.348 	"/>
	<polygon fill="#F4F4F4" points="39.885,188.662 1.868,188.662 22.444,209.739 1.868,230.522 74.663,230.522 39.885,206.867 	"/>
	<polygon fill="#F4F4F4" points="397.889,206.348 397.889,230.003 433.862,206.348 	"/>
	<polygon fill="#F4F4F4" points="474.788,188.662 436.772,188.662 436.772,206.867 401.994,230.522 474.788,230.522 
		454.213,209.739 	"/>
	<polygon fill="#F4F4F4" points="291.59,186.465 298.537,186.465 295.097,178.209 	"/>
	<path fill="#F4F4F4" d="M271.584,179.008c-0.318-0.355-0.688-0.635-1.109-0.843c-0.422-0.207-0.87-0.31-1.343-0.31h-5.304v7.744
		h5.436c0.518,0,0.984-0.106,1.399-0.321c0.414-0.214,0.765-0.504,1.055-0.866c0.288-0.362,0.51-0.777,0.665-1.243
		c0.156-0.466,0.234-0.951,0.234-1.453c0-0.518-0.094-1.009-0.278-1.475S271.903,179.364,271.584,179.008z"/>
	<polygon fill="#F4F4F4" points="198.201,186.465 205.148,186.465 201.708,178.209 	"/>
	<path fill="#F4F4F4" d="M140.987,184.39c0.296-0.363,0.521-0.777,0.677-1.243c0.155-0.466,0.233-0.943,0.233-1.431
		c0-0.503-0.093-0.987-0.278-1.453s-0.436-0.877-0.755-1.233c-0.318-0.355-0.688-0.639-1.109-0.853
		c-0.422-0.214-0.877-0.322-1.365-0.322h-5.371v7.744h0.001h5.526c0.503,0,0.962-0.11,1.376-0.332S140.691,184.753,140.987,184.39z"
		/>
	<path fill="#F4F4F4" d="M435.4,168.379H41.626v36.409H435.4V168.379z M100.772,187.24H49.489v-0.656h51.283V187.24z
		 M141.942,192.591l-3.817-5.947h-5.105v5.947h-1.132v-15.757h6.569c0.666,0,1.28,0.14,1.842,0.421
		c0.562,0.282,1.043,0.656,1.442,1.121c0.399,0.466,0.714,0.992,0.944,1.577c0.229,0.584,0.344,1.173,0.344,1.764
		c0,0.577-0.088,1.135-0.266,1.675c-0.177,0.54-0.429,1.025-0.755,1.453c-0.325,0.43-0.718,0.784-1.176,1.066
		c-0.458,0.281-0.962,0.465-1.509,0.555l3.928,6.125H141.942z M156.945,191.57v1.021h-10.498v-15.757h10.298v1.021h-9.166v6.191
		h8.012v0.977h-8.012v6.547L156.945,191.57L156.945,191.57z M171.147,177.855h-5.77v14.736h-1.132v-14.736h-5.77v-1.021h12.672
		V177.855z M174.832,192.591H173.7v-15.735h1.132V192.591z M192.055,192.591h-1.044l-10.875-13.627v13.627h-1.132v-15.757h0.866
		l11.053,13.871v-13.849h1.132V192.591z M207.656,192.591l-2.198-5.194h-7.523l-2.197,5.194h-1.198l6.702-15.757h0.932l6.702,15.757
		H207.656z M226.919,177.855h-5.77v14.736h-1.132v-14.736h-5.77v-1.021h12.672V177.855z M239.97,191.57v1.021h-10.498v-15.757
		h10.298v1.021h-9.166v6.191h8.012v0.977h-8.012v6.547L239.97,191.57L239.97,191.57z M258.522,192.591h-1.13v-13.627l-6.215,10.631
		h-0.709l-6.215-10.631v13.627h-1.133v-15.757h1.133l6.569,11.274l6.569-11.274h1.131V192.591z M273.448,183.559
		c-0.214,0.592-0.517,1.118-0.909,1.577c-0.392,0.459-0.858,0.825-1.399,1.097c-0.54,0.274-1.143,0.412-1.808,0.412h-5.504v5.947
		h-1.133v-0.001v-15.757h6.481c0.666,0,1.279,0.14,1.842,0.421c0.562,0.282,1.047,0.656,1.455,1.121
		c0.407,0.466,0.725,0.992,0.953,1.577c0.23,0.584,0.344,1.173,0.344,1.764C273.77,182.353,273.662,182.968,273.448,183.559z
		 M287.042,192.591H276.5v-15.757h1.131v14.736h9.411V192.591z M301.046,192.591l-2.198-5.194h-7.524l-2.196,5.194h-1.199
		l6.702-15.757h0.933l6.702,15.757H301.046z M314.161,177.855h-5.77v14.736h-1.133v-14.736h-5.769v-1.021h12.672V177.855z
		 M327.211,191.57v1.021h-10.498v-15.757h10.298v1.021h-9.166v6.191h8.012v0.977h-8.012v6.547L327.211,191.57L327.211,191.57z
		 M426.351,187.24h-51.283v-0.656h51.283V187.24z"/>
	<path fill="#F4F4F4" d="M102.768,238.614l-2.685-0.39c-0.13-0.019-0.242-0.1-0.3-0.218l-1.201-2.433
		c-0.146-0.297-0.569-0.297-0.715,0l-1.201,2.433c-0.058,0.118-0.17,0.199-0.3,0.218l-2.685,0.39
		c-0.327,0.047-0.458,0.449-0.221,0.68l1.943,1.894c0.094,0.092,0.137,0.224,0.115,0.353l-0.459,2.674
		c-0.056,0.325,0.286,0.574,0.579,0.42l2.401-1.262c0.116-0.061,0.255-0.061,0.371,0l2.401,1.262
		c0.293,0.154,0.635-0.094,0.579-0.42l-0.459-2.674c-0.022-0.129,0.021-0.261,0.115-0.353l1.943-1.894
		C103.226,239.064,103.095,238.661,102.768,238.614z"/>
	<path fill="#F4F4F4" d="M128.498,238.614l-2.685-0.39c-0.129-0.019-0.242-0.1-0.3-0.218l-1.201-2.433
		c-0.147-0.297-0.569-0.297-0.715,0l-1.201,2.433c-0.058,0.118-0.17,0.199-0.3,0.218l-2.685,0.39
		c-0.327,0.047-0.458,0.449-0.221,0.68l1.943,1.894c0.094,0.092,0.137,0.224,0.115,0.353l-0.459,2.674
		c-0.056,0.325,0.286,0.574,0.579,0.42l2.401-1.262c0.116-0.061,0.255-0.061,0.371,0l2.401,1.262
		c0.293,0.154,0.635-0.094,0.579-0.42l-0.459-2.674c-0.022-0.129,0.021-0.261,0.115-0.353l1.943-1.894
		C128.956,239.064,128.825,238.661,128.498,238.614z"/>
	<path fill="#F4F4F4" d="M152.78,238.614l-2.685-0.39c-0.13-0.019-0.242-0.1-0.3-0.218l-1.201-2.433
		c-0.146-0.297-0.569-0.297-0.715,0l-1.201,2.433c-0.058,0.118-0.17,0.199-0.3,0.218l-2.685,0.39
		c-0.327,0.047-0.458,0.449-0.221,0.68l1.943,1.894c0.094,0.092,0.137,0.224,0.115,0.353l-0.459,2.674
		c-0.056,0.325,0.286,0.574,0.579,0.42l2.401-1.262c0.116-0.061,0.255-0.061,0.371,0l2.401,1.262
		c0.293,0.154,0.635-0.094,0.579-0.42l-0.459-2.674c-0.022-0.129,0.021-0.261,0.115-0.353l1.943-1.894
		C153.238,239.064,153.107,238.661,152.78,238.614z"/>
	<path fill="#F4F4F4" d="M331.375,238.614l-2.685-0.39c-0.13-0.019-0.242-0.1-0.3-0.218l-1.201-2.433
		c-0.146-0.297-0.569-0.297-0.715,0l-1.201,2.433c-0.058,0.118-0.17,0.199-0.3,0.218l-2.685,0.39
		c-0.327,0.047-0.458,0.449-0.221,0.68l1.943,1.894c0.094,0.092,0.137,0.224,0.115,0.353l-0.459,2.674
		c-0.056,0.325,0.286,0.574,0.579,0.42l2.401-1.262c0.116-0.061,0.255-0.061,0.371,0l2.401,1.262
		c0.293,0.154,0.635-0.094,0.579-0.42l-0.459-2.674c-0.022-0.129,0.021-0.261,0.115-0.353l1.943-1.894
		C331.833,239.064,331.702,238.661,331.375,238.614z"/>
	<path fill="#F4F4F4" d="M357.104,238.614l-2.685-0.39c-0.13-0.019-0.242-0.1-0.3-0.218l-1.201-2.433
		c-0.146-0.297-0.568-0.297-0.715,0l-1.201,2.433c-0.058,0.118-0.17,0.199-0.3,0.218l-2.685,0.39
		c-0.327,0.047-0.458,0.449-0.221,0.68l1.943,1.894c0.094,0.092,0.137,0.224,0.115,0.353l-0.459,2.674
		c-0.056,0.325,0.286,0.574,0.579,0.42l2.401-1.262c0.116-0.061,0.255-0.061,0.371,0l2.401,1.262
		c0.293,0.154,0.635-0.094,0.579-0.42l-0.459-2.674c-0.022-0.129,0.021-0.261,0.115-0.353l1.943-1.894
		C357.562,239.064,357.431,238.661,357.104,238.614z"/>
	<path fill="#F4F4F4" d="M381.387,238.614l-2.685-0.39c-0.13-0.019-0.242-0.1-0.3-0.218l-1.201-2.433
		c-0.146-0.297-0.569-0.297-0.715,0l-1.201,2.433c-0.058,0.118-0.17,0.199-0.3,0.218l-2.685,0.39
		c-0.327,0.047-0.458,0.449-0.221,0.68l1.943,1.894c0.094,0.092,0.137,0.224,0.115,0.353l-0.459,2.674
		c-0.056,0.325,0.286,0.574,0.579,0.42l2.401-1.262c0.116-0.061,0.255-0.061,0.371,0l2.401,1.262
		c0.293,0.154,0.635-0.094,0.579-0.42l-0.459-2.674c-0.022-0.129,0.021-0.261,0.115-0.353l1.943-1.894
		C381.845,239.064,381.714,238.661,381.387,238.614z"/>
	<path fill="#F4F4F4" d="M169.396,225.763c4.145-9.942-4.688-13.307-4.688-13.307C161.52,222.761,169.396,225.763,169.396,225.763z"
		/>
	<path fill="#F4F4F4" d="M172.962,231.71c8.657-6.41,2.798-13.828,2.798-13.828C167.74,225.094,172.962,231.71,172.962,231.71z"/>
	<path fill="#F4F4F4" d="M172.107,232.496c-4.576-9.768-12.422-6.69-12.422-6.69C163.308,235.95,172.107,232.496,172.107,232.496z"
		/>
	<path fill="#F4F4F4" d="M179.066,225.957c-7.133,8.092-1.18,14.059-1.18,14.059C185.743,232.648,179.066,225.957,179.066,225.957z"
		/>
	<path fill="#F4F4F4" d="M177.127,240.896c-5.675-9.173-13.112-5.208-13.112-5.208C168.787,245.345,177.127,240.896,177.127,240.896
		z"/>
	<path fill="#F4F4F4" d="M184.324,247.295c6.427-8.644-1.33-14.046-1.33-14.046C177.408,242.477,184.324,247.295,184.324,247.295z"
		/>
	<path fill="#F4F4F4" d="M183.733,248.295c-7.21-8.022-13.827-2.802-13.827-2.802C176.313,254.152,183.733,248.295,183.733,248.295z
		"/>
	<path fill="#F4F4F4" d="M191.985,253.157c5.335-9.357-3.018-13.782-3.017-13.782C184.538,249.21,191.985,253.157,191.985,253.157z"
		/>
	<path fill="#F4F4F4" d="M177.454,253.11c7.407,7.821,14.065,1.111,14.065,1.111C183.392,247.128,177.454,253.11,177.454,253.11z"/>
	<path fill="#F4F4F4" d="M195.369,245.023c-3.046,10.348,4.87,13.241,4.87,13.241C204.248,248.266,195.369,245.022,195.369,245.023z
		"/>
	<path fill="#F4F4F4" d="M185.838,260.201c8.406,6.737,14.085-0.819,14.085-0.819C190.904,253.465,185.838,260.201,185.838,260.201z
		"/>
	<path fill="#F4F4F4" d="M218.21,235.214c0.705-0.169,1.322-0.437,1.851-0.805c0.529-0.366,0.951-0.848,1.267-1.443
		c0.316-0.595,0.474-1.31,0.474-2.148c0-0.72-0.119-1.325-0.353-1.817c-0.235-0.493-0.57-0.915-1.003-1.268
		c-0.433-0.352-0.962-0.646-1.586-0.881c-0.624-0.235-1.318-0.456-2.082-0.661c-0.587-0.147-1.105-0.287-1.553-0.418
		c-0.448-0.133-0.818-0.28-1.112-0.442c-0.294-0.161-0.517-0.348-0.672-0.561c-0.154-0.213-0.231-0.481-0.231-0.804
		c0-0.558,0.205-0.992,0.617-1.3c0.411-0.309,1.035-0.462,1.873-0.462c0.47,0,0.933,0.058,1.388,0.175
		c0.455,0.118,0.877,0.261,1.267,0.43c0.389,0.169,0.72,0.341,0.992,0.518c0.272,0.175,0.459,0.315,0.562,0.418l1.342-2.47
		c-0.691-0.47-1.499-0.878-2.424-1.222c-0.925-0.345-1.938-0.518-3.04-0.518c-0.793,0-1.535,0.107-2.225,0.32
		c-0.691,0.213-1.297,0.524-1.818,0.936c-0.522,0.412-0.929,0.925-1.223,1.542s-0.441,1.322-0.441,2.116
		c0,0.603,0.091,1.124,0.275,1.564c0.184,0.442,0.459,0.824,0.827,1.146c0.367,0.323,0.826,0.606,1.377,0.848
		c0.551,0.243,1.201,0.468,1.95,0.673c0.617,0.161,1.175,0.315,1.674,0.462c0.499,0.146,0.925,0.309,1.278,0.484
		c0.353,0.177,0.624,0.383,0.815,0.617c0.191,0.235,0.286,0.529,0.286,0.882c0,1.073-0.837,1.608-2.511,1.608
		c-0.603,0-1.19-0.072-1.763-0.219c-0.573-0.146-1.094-0.327-1.564-0.54c-0.471-0.213-0.878-0.426-1.223-0.639
		c-0.345-0.213-0.584-0.386-0.716-0.518l-1.344,2.622c0.911,0.647,1.939,1.146,3.085,1.499c1.145,0.352,2.306,0.529,3.481,0.529
		C216.771,235.467,217.505,235.383,218.21,235.214z"/>
	<rect x="223.743" y="223.745" fill="#F4F4F4" width="2.952" height="11.545"/>
	<rect x="223.743" y="219.206" fill="#F4F4F4" width="2.952" height="2.931"/>
	<path fill="#F4F4F4" d="M240.046,235.29h0.002v-7.203c0-0.558-0.047-1.109-0.143-1.652c-0.096-0.545-0.267-1.029-0.518-1.455
		c-0.249-0.426-0.602-0.771-1.057-1.035c-0.455-0.265-1.042-0.397-1.762-0.397c-1.014,0-1.925,0.207-2.732,0.617
		c-0.808,0.411-1.425,0.984-1.851,1.718v-2.137h-2.666v11.545h2.952v-6.742c0.102-0.352,0.264-0.675,0.484-0.969
		c0.22-0.293,0.466-0.547,0.738-0.761c0.271-0.212,0.562-0.378,0.87-0.495c0.308-0.119,0.609-0.177,0.903-0.177
		c0.573,0,1.021,0.213,1.344,0.639c0.322,0.426,0.484,1.101,0.484,2.027v6.477H240.046z"/>
	<path fill="#F4F4F4" d="M245.787,227.016c0.272-0.301,0.591-0.536,0.959-0.705s0.764-0.253,1.19-0.253
		c0.5,0,0.954,0.115,1.366,0.342c0.41,0.229,0.742,0.555,0.991,0.981l2.887-0.882c-0.442-0.881-1.105-1.593-1.995-2.137
		c-0.889-0.543-1.964-0.816-3.228-0.816c-0.94,0-1.785,0.163-2.534,0.486c-0.748,0.322-1.387,0.756-1.916,1.299
		c-0.53,0.544-0.934,1.175-1.212,1.895c-0.28,0.72-0.42,1.484-0.42,2.292c0,0.792,0.145,1.552,0.432,2.279s0.693,1.366,1.223,1.917
		c0.529,0.55,1.168,0.988,1.916,1.31c0.749,0.324,1.594,0.486,2.534,0.486c1.278,0,2.371-0.28,3.283-0.838
		c0.91-0.559,1.564-1.278,1.961-2.159l-2.887-0.882c-0.175,0.382-0.488,0.705-0.936,0.969c-0.448,0.265-0.936,0.397-1.465,0.397
		c-0.411,0-0.8-0.084-1.168-0.253c-0.368-0.169-0.688-0.408-0.959-0.717c-0.271-0.307-0.488-0.675-0.649-1.101
		c-0.162-0.426-0.243-0.895-0.243-1.409c0-0.514,0.078-0.984,0.231-1.41C245.303,227.681,245.516,227.317,245.787,227.016z"/>
	<path fill="#F4F4F4" d="M264.822,225.332c-0.522-0.543-1.153-0.977-1.895-1.299c-0.741-0.324-1.583-0.486-2.522-0.486
		c-0.941,0-1.789,0.163-2.546,0.486c-0.755,0.322-1.398,0.759-1.927,1.31c-0.529,0.551-0.933,1.19-1.212,1.917
		c-0.279,0.728-0.418,1.502-0.418,2.324c0,0.793,0.143,1.55,0.43,2.27c0.286,0.72,0.693,1.351,1.222,1.895
		c0.529,0.542,1.168,0.972,1.917,1.288c0.75,0.316,1.586,0.474,2.512,0.474c1.292,0,2.404-0.283,3.337-0.848
		c0.933-0.566,1.612-1.289,2.038-2.17l-2.534-0.705c-0.191,0.47-0.547,0.848-1.069,1.134c-0.52,0.287-1.075,0.43-1.662,0.43
		c-0.383,0-0.75-0.066-1.103-0.197c-0.352-0.132-0.668-0.323-0.947-0.574c-0.279-0.25-0.506-0.551-0.683-0.903
		c-0.177-0.352-0.286-0.756-0.33-1.212h8.923c0.029-0.117,0.047-0.265,0.055-0.44c0.008-0.177,0.012-0.36,0.012-0.551
		c0-0.779-0.137-1.527-0.408-2.248C265.74,226.507,265.343,225.876,264.822,225.332z M257.387,228.548
		c0.028-0.426,0.129-0.816,0.297-1.168c0.168-0.352,0.385-0.654,0.649-0.903c0.265-0.25,0.569-0.444,0.914-0.584
		c0.345-0.139,0.716-0.209,1.113-0.209c0.808,0,1.494,0.261,2.06,0.782c0.565,0.522,0.885,1.216,0.959,2.082H257.387z"/>
	<path fill="#F4F4F4" d="M221.375,243.406h-3.018c-0.06,0.132-0.228,0.312-0.507,0.539c-0.28,0.229-0.603,0.46-0.97,0.695
		c-0.367,0.235-0.741,0.436-1.123,0.605c-0.383,0.169-0.706,0.253-0.97,0.253v2.755c0.279,0,0.602-0.052,0.97-0.155
		c0.367-0.102,0.719-0.235,1.057-0.396c0.337-0.162,0.646-0.334,0.925-0.518c0.279-0.183,0.485-0.363,0.617-0.54v6.676h-3.129v2.666
		h8.945v-2.666v0h-2.797V243.406z"/>
	<polygon fill="#F4F4F4" points="225.405,245.83 232.522,245.83 226.066,258.784 229.393,258.784 237.171,243.141 225.405,243.141 	
		"/>
	<path fill="#F4F4F4" d="M243.001,252.525c0.243-0.25,0.51-0.482,0.804-0.695c0.295-0.212,0.592-0.406,0.892-0.583
		c0.301-0.176,0.584-0.337,0.849-0.484c0.322-0.177,0.657-0.378,1.001-0.607c0.346-0.227,0.665-0.496,0.959-0.804
		c0.293-0.309,0.536-0.661,0.727-1.057c0.191-0.397,0.287-0.852,0.287-1.366c0-0.543-0.107-1.047-0.32-1.509
		c-0.213-0.463-0.522-0.86-0.926-1.19c-0.404-0.331-0.9-0.587-1.487-0.771c-0.587-0.183-1.256-0.275-2.005-0.275
		c-0.66,0-1.28,0.07-1.861,0.209c-0.581,0.141-1.109,0.317-1.586,0.529c-0.478,0.213-0.893,0.441-1.246,0.683
		c-0.353,0.243-0.625,0.466-0.815,0.673l1.894,2.181c0.176-0.22,0.371-0.43,0.584-0.627c0.213-0.198,0.448-0.378,0.705-0.54
		c0.257-0.161,0.532-0.29,0.826-0.386c0.294-0.095,0.617-0.143,0.969-0.143c0.661,0,1.168,0.157,1.521,0.474
		c0.352,0.316,0.529,0.694,0.529,1.134c0,0.28-0.081,0.526-0.243,0.738c-0.161,0.215-0.4,0.424-0.716,0.629
		c-0.316,0.205-0.706,0.429-1.168,0.671c-0.462,0.243-0.988,0.526-1.575,0.848c-0.691,0.383-1.256,0.772-1.696,1.169
		c-0.44,0.396-0.794,0.822-1.058,1.277c-0.265,0.456-0.449,0.952-0.551,1.487c-0.104,0.535-0.155,1.133-0.155,1.793h10.623v-2.666
		h-6.323C242.571,253.039,242.759,252.774,243.001,252.525z"/>
	<polygon fill="#F4F4F4" points="238.14,255.986 238.14,255.983 238.14,255.983 	"/>
	<path fill="#F4F4F4" d="M259.831,250.346c-0.463-0.441-1.009-0.782-1.642-1.025c-0.631-0.241-1.314-0.362-2.048-0.362
		c-0.5,0-0.918,0.058-1.257,0.175c-0.337,0.119-0.594,0.273-0.771,0.464l0.617-3.504h5.574v-2.687h-7.711
		c-0.324,1.674-0.617,3.187-0.882,4.538c-0.118,0.573-0.227,1.135-0.33,1.686c-0.104,0.551-0.198,1.051-0.287,1.499
		s-0.163,0.814-0.221,1.101c-0.058,0.286-0.087,0.451-0.087,0.495h2.577c0.251-0.382,0.585-0.684,1.003-0.903
		c0.419-0.221,0.871-0.331,1.355-0.331c0.735,0,1.34,0.235,1.818,0.705c0.477,0.47,0.716,1.087,0.716,1.851
		c0,0.794-0.253,1.429-0.76,1.907c-0.506,0.477-1.157,0.716-1.949,0.716c-0.661,0-1.297-0.169-1.907-0.507
		c-0.609-0.337-1.127-0.793-1.553-1.366l-1.696,1.762c0.47,0.837,1.157,1.499,2.06,1.983c0.904,0.484,1.928,0.727,3.074,0.727
		c0.822,0,1.586-0.13,2.291-0.386c0.706-0.257,1.315-0.617,1.829-1.079c0.515-0.464,0.918-1.018,1.212-1.664
		c0.293-0.647,0.44-1.366,0.44-2.16c0-0.748-0.129-1.431-0.386-2.048S260.293,250.788,259.831,250.346z"/>
	<path fill="#F4F4F4" d="M302.049,225.763c0,0,7.876-3.002,4.688-13.307C306.737,212.456,297.904,215.821,302.049,225.763z"/>
	<path fill="#F4F4F4" d="M298.483,231.71c0,0,5.222-6.616-2.798-13.828C295.685,217.882,289.826,225.3,298.483,231.71z"/>
	<path fill="#F4F4F4" d="M299.338,232.496c0,0,8.799,3.454,12.422-6.69C311.76,225.806,303.914,222.728,299.338,232.496z"/>
	<path fill="#F4F4F4" d="M293.559,240.016c0,0,5.953-5.967-1.18-14.059C292.38,225.957,285.702,232.648,293.559,240.016z"/>
	<path fill="#F4F4F4" d="M294.318,240.896c0,0,8.34,4.449,13.112-5.208C307.43,235.688,299.993,231.723,294.318,240.896z"/>
	<path fill="#F4F4F4" d="M287.121,247.295c0,0,6.916-4.818,1.33-14.046C288.451,233.249,280.694,238.651,287.121,247.295z"/>
	<path fill="#F4F4F4" d="M287.712,248.295c0,0,7.42,5.857,13.828-2.802C301.54,245.493,294.923,240.273,287.712,248.295z"/>
	<path fill="#F4F4F4" d="M279.46,253.157c0,0,7.447-3.947,3.017-13.782C282.478,239.375,274.125,243.8,279.46,253.157z"/>
	<path fill="#F4F4F4" d="M279.926,254.221c0,0,6.658,6.71,14.065-1.111C293.991,253.11,288.053,247.128,279.926,254.221z"/>
	<path fill="#F4F4F4" d="M276.076,245.023c0.001-0.001-8.878,3.243-4.87,13.241C271.206,258.264,279.122,255.371,276.076,245.023z"
		/>
	<path fill="#F4F4F4" d="M271.522,259.382c0,0,5.679,7.556,14.085,0.819C285.607,260.201,280.541,253.465,271.522,259.382z"/>
</g>
</svg>
