<?xml version="1.0" encoding="utf-8"?>
<!-- Generator: Adobe Illustrator 17.0.0, SVG Export Plug-In . SVG Version: 6.00 Build 0)  -->
<!DOCTYPE svg PUBLIC "-//W3C//DTD SVG 1.1//EN" "http://www.w3.org/Graphics/SVG/1.1/DTD/svg11.dtd">
<svg version="1.1" id="Layer_1" xmlns="http://www.w3.org/2000/svg" xmlns:xlink="http://www.w3.org/1999/xlink" x="0px" y="0px"
	 width="347.22px" height="103.534px" viewBox="0 0 347.22 103.534" enable-background="new 0 0 347.22 103.534"
	 xml:space="preserve">
<path fill="#FF3709" d="M152.412,73c0.048,0,0.114-1.495,0.224-2.386c0.213-2.109,0.667-4.099,1.13-6.163
	c0.288-1.027,0.603-1.98,0.93-2.97c0.416-0.97,0.816-1.905,1.219-2.846c0.916-1.834,1.933-3.537,3.167-4.982
	c0.289-0.366,0.576-0.721,0.851-1.082c0.328-0.317,0.645-0.626,0.955-0.941c0.653-0.591,1.219-1.228,1.873-1.694
	c1.306-0.967,2.462-1.886,3.628-2.446c1.131-0.63,2.098-1.185,2.979-1.499c1.708-0.675,2.689-1.024,2.689-1.024
	s-0.829,0.651-2.288,1.72c-0.742,0.488-1.532,1.265-2.487,2.058c-0.98,0.755-1.87,1.833-2.926,2.865
	c-0.54,0.524-0.942,1.19-1.443,1.805c-0.253,0.304-0.504,0.62-0.754,0.944c-0.215,0.352-0.427,0.703-0.638,1.07
	c-0.942,1.379-1.65,3.012-2.377,4.659c-0.289,0.867-0.589,1.745-0.906,2.626c-0.209,0.927-0.44,1.857-0.703,2.774
	c-0.377,1.909-0.753,3.859-0.917,5.857c-0.113,0.724-0.163,1.453-0.238,2.181c15.876,0.015,28.175,0.015,45.37,0.015
	c0.05-0.755,0.086-1.511,0.086-2.275c0-14.484-10.551-26.419-24.128-27.996c0.866-0.82,1.432-1.987,1.432-3.278
	c0-2.493-2.01-4.501-4.497-4.501s-4.498,2.008-4.498,4.501c0,1.291,0.553,2.458,1.432,3.278
	c-13.578,1.577-24.14,13.248-24.14,27.732c0,0.759,0.035,1.997,0.084,1.997L152.412,73L152.412,73z"/>
<rect x="143.781" y="76" fill="#FF3709" width="63" height="6"/>
<g>
	<path fill="#FF3709" d="M138.261,93.119c-5.581-7.527-8.889-16.836-8.889-26.905c0-24.965,20.308-45.275,45.271-45.275
		c24.964,0,45.273,20.31,45.273,45.275c0,9.971-3.248,19.194-8.731,26.683c2.889,0.131,5.776,0.274,8.663,0.439
		c4.776-7.93,7.529-17.209,7.529-27.121c0-29.079-23.656-52.736-52.735-52.736c-29.076,0-52.732,23.657-52.732,52.736
		c0,10.041,2.824,19.435,7.715,27.432C132.503,93.461,135.381,93.269,138.261,93.119z"/>
</g>
<g>
	<g>
		<rect x="250.917" y="39.383" fill="#FF3709" width="59.506" height="5.579"/>
		<rect x="250.917" y="55.385" fill="#FF3709" width="83.475" height="5.579"/>
		<rect x="250.917" y="71.387" fill="#FF3709" width="59.506" height="5.579"/>
	</g>
	<g>
		<rect x="36.797" y="39.383" fill="#FF3709" width="59.506" height="5.579"/>
		<rect x="12.828" y="55.385" fill="#FF3709" width="83.475" height="5.579"/>
		<rect x="36.797" y="71.387" fill="#FF3709" width="59.506" height="5.579"/>
	</g>
</g>
</svg>
