<?xml version="1.0" encoding="utf-8"?>
<!-- Generator: Adobe Illustrator 17.0.0, SVG Export Plug-In . SVG Version: 6.00 Build 0)  -->
<!DOCTYPE svg PUBLIC "-//W3C//DTD SVG 1.1//EN" "http://www.w3.org/Graphics/SVG/1.1/DTD/svg11.dtd">
<svg version="1.1" id="Layer_1" xmlns="http://www.w3.org/2000/svg" xmlns:xlink="http://www.w3.org/1999/xlink" x="0px" y="0px"
	 width="397.789px" height="55.716px" viewBox="0 0 397.789 55.716" enable-background="new 0 0 397.789 55.716"
	 xml:space="preserve">
<polygon fill="#6ECF82" points="68.037,33.658 98.288,33.658 98.288,53.55 "/>
<polygon fill="#6ECF82" points="65.59,18.785 33.62,18.785 50.923,36.509 33.62,53.987 94.836,53.987 65.59,34.094 "/>
<polygon fill="#6ECF82" points="329.753,33.658 299.502,33.658 299.502,53.55 "/>
<polygon fill="#6ECF82" points="332.199,18.785 364.169,18.785 346.866,36.509 364.169,53.987 302.954,53.987 332.199,34.094 "/>
<path fill="#6ECF82" d="M67.054,1.729v30.618h263.992V1.729H67.054z M98.374,19.428c-1.359,0-2.465-1.105-2.465-2.467
	c0-1.361,1.106-2.465,2.465-2.465c1.357,0,2.462,1.104,2.462,2.465C100.836,18.324,99.731,19.428,98.374,19.428z M166.51,24.934
	l-5.439-2.862l-5.436,2.862l1.036-6.06l-4.397-4.289l6.079-0.885l2.718-5.511l2.718,5.511l6.083,0.885l-4.401,4.289L166.51,24.934z
	 M202.51,24.934l-5.439-2.862l-5.436,2.862l1.036-6.06l-4.397-4.289l6.079-0.885l2.718-5.511l2.718,5.511l6.083,0.885l-4.401,4.289
	L202.51,24.934z M238.51,24.934l-5.439-2.862l-5.436,2.862l1.036-6.06l-4.397-4.289l6.079-0.885l2.718-5.511l2.718,5.511
	l6.083,0.885l-4.401,4.289L238.51,24.934z M288.374,19.428c-1.359,0-2.465-1.105-2.465-2.467c0-1.361,1.106-2.465,2.465-2.465
	c1.357,0,2.462,1.104,2.462,2.465C290.836,18.324,289.731,19.428,288.374,19.428z"/>
</svg>
