<?xml version="1.0" encoding="utf-8"?>
<!-- Generator: Adobe Illustrator 17.0.0, SVG Export Plug-In . SVG Version: 6.00 Build 0)  -->
<!DOCTYPE svg PUBLIC "-//W3C//DTD SVG 1.1//EN" "http://www.w3.org/Graphics/SVG/1.1/DTD/svg11.dtd">
<svg version="1.1" id="Layer_1" xmlns="http://www.w3.org/2000/svg" xmlns:xlink="http://www.w3.org/1999/xlink" x="0px" y="0px"
	 width="347.22px" height="103.534px" viewBox="0 0 347.22 103.534" enable-background="new 0 0 347.22 103.534"
	 xml:space="preserve">
<g>
	<path fill="#6ECF82" d="M138.261,93.119c-5.581-7.527-8.889-16.836-8.889-26.905c0-24.965,20.308-45.275,45.271-45.275
		c24.964,0,45.273,20.31,45.273,45.275c0,9.971-3.248,19.194-8.731,26.683c2.889,0.131,5.776,0.274,8.663,0.439
		c4.776-7.93,7.529-17.209,7.529-27.121c0-29.079-23.656-52.736-52.735-52.736c-29.076,0-52.732,23.657-52.732,52.736
		c0,10.041,2.824,19.435,7.715,27.432C132.503,93.461,135.381,93.269,138.261,93.119z"/>
</g>
<g>
	<g>
		<rect x="250.917" y="39.383" fill="#6ECF82" width="59.506" height="5.579"/>
		<rect x="250.917" y="55.385" fill="#6ECF82" width="83.475" height="5.579"/>
		<rect x="250.917" y="71.387" fill="#6ECF82" width="59.506" height="5.579"/>
	</g>
	<g>
		<rect x="36.797" y="39.383" fill="#6ECF82" width="59.506" height="5.579"/>
		<rect x="12.828" y="55.385" fill="#6ECF82" width="83.475" height="5.579"/>
		<rect x="36.797" y="71.387" fill="#6ECF82" width="59.506" height="5.579"/>
	</g>
</g>
<g>
	<path fill="#6ECF82" d="M155.995,64.818h37.115c0.545,0,1.052-0.285,1.352-0.739c0.299-0.455,0.35-1.036,0.134-1.536
		c-3.352-7.763-11.051-13.206-20.045-13.206c-2.554,0-5.002,0.439-7.277,1.244l-1.579-3.619c1.032-1.356,1.259-3.411,0.429-5.315
		c-0.831-1.905-2.492-3.137-4.189-3.305l-0.985-2.257c-0.412-0.946-1.512-1.377-2.456-0.965c-0.942,0.414-1.375,1.515-0.964,2.459
		l0.985,2.257c-1.031,1.356-1.257,3.412-0.426,5.316c0.83,1.904,2.491,3.136,4.187,3.302l1.601,3.67
		c-4.154,2.34-7.462,6.002-9.368,10.415c-0.216,0.5-0.165,1.085,0.134,1.54C154.943,64.534,155.451,64.818,155.995,64.818z
		 M184.868,55.287c0.916,0,1.659,0.742,1.659,1.657c0,0.916-0.742,1.66-1.659,1.66s-1.659-0.744-1.659-1.66
		S183.952,55.287,184.868,55.287z M178.44,57.671c0.745,0,1.347,0.602,1.347,1.347s-0.602,1.347-1.347,1.347
		s-1.349-0.602-1.349-1.347S177.695,57.671,178.44,57.671z M173.801,51.294c0.901,0,1.634,0.731,1.634,1.634
		c0,0.904-0.731,1.634-1.634,1.634c-0.901,0-1.632-0.73-1.632-1.634C172.168,52.025,172.899,51.294,173.801,51.294z M164.405,57.066
		c1.269,0,2.297,1.029,2.297,2.299s-1.029,2.299-2.297,2.299c-1.27,0-2.299-1.029-2.299-2.299S163.136,57.066,164.405,57.066z"/>
	<path fill="#6ECF82" d="M193.391,76.358H155.72c-0.572,0-1.106,0.275-1.406,0.764s-0.325,1.089-0.065,1.599
		c3.589,7.071,12.007,8.668,20.307,8.668c8.297,0,16.718-1.604,20.308-8.675c0.26-0.511,0.234-1.101-0.066-1.589
		C194.496,76.636,193.965,76.358,193.391,76.358z"/>
	<path fill="#6ECF82" d="M152.998,73.918h43.226c1.872,0,3.391-1.517,3.391-3.391V70.18c0-1.874-1.519-3.391-3.391-3.391h-43.226
		c-1.872,0-3.391,1.517-3.391,3.391v0.347C149.608,72.4,151.125,73.918,152.998,73.918z"/>
</g>
</svg>
