<?xml version="1.0" encoding="utf-8"?>
<!-- Generator: Adobe Illustrator 19.0.1, SVG Export Plug-In . SVG Version: 6.00 Build 0)  -->
<svg version="1.1" id="Layer_1" xmlns="http://www.w3.org/2000/svg" xmlns:xlink="http://www.w3.org/1999/xlink" x="0px" y="0px"
	 viewBox="-287 388.5 37 16.5" style="enable-background:new -287 388.5 37 16.5;" xml:space="preserve">
<style type="text/css">
	.st0{fill:#FFFFFF;}
</style>
<path class="st0" d="M-280,389.3c0.3,0,0.5-0.1,0.6-0.1s0.2-0.1,0.1-0.1c-0.1,0-0.3,0-0.4,0C-279.9,389.1-280.1,389.3-280,389.3
	C-280.1,389.3-280.1,389.3-280,389.3 M-251.4,397.5c-0.1-0.3-0.6-0.2-0.6-0.2c-0.2,0-0.5,0.3-0.9,0.4c-0.8,0.2-1.5,0-1.5,0
	c-1.3-0.5-5.4-2.9-7.5-3.9c0,0-2.4-1.2-5.9-2.6c0,0-6.8-3-11.6-2.7c0,0-2.5,0.1-3.2,1.2c0,0-0.1,0.2,0,0.3v0.1c0,0-0.4,0.4-0.6,0.7
	c-0.1,0.1-0.2,0.3,0,0.5c0,0,0.1,0,0.1,0.1s0.1,0.2,0.2,0.3c0.1,0.1,0.3,0.3,0.6,0.3h0.1c0.2,0.2,0.4,0.2,0.4,0.2
	c-0.1-0.3-0.2-0.5-0.2-0.6s0-0.2,0-0.2c0-0.1,0.1-0.3,0.2-0.4c0.1-0.1,0.3-0.2,0.5,0c0.1,0.1,0.3,0.4,0.2,0.9c0,0-0.2,0.4-0.3,0.4
	s-0.3-0.1-0.3-0.1s0,0,0,0.1c0,0.1,0,0.1,0,0.2s0,0.1-0.1,0.1c0,0.1-0.1,0.2,0,0.2c0,0,0.4,0.2,0.7,0.2c0.2,0,0.3-0.2,0.3-0.2
	c0.2-0.2,0.3-0.5,0.5-0.6c0.5-0.5,1.2-0.6,1.2-0.6s0.8-0.2,2.1,0.8c-0.4,0-0.8,0.1-1.2,0.2c-1,0.2-1.6,1.1-1.8,1.5
	c-0.5,1,0.5,1.3,0.5,1.3s0.9-0.1,1.4-1s0.2-0.4,0.6-0.3c0.3,0.1,2.7,1,3.3,1.1c0,0,1.7,0.4,2.3-0.3c1,0.3,2,0.5,4.4,0.2h0.7
	c0.6,0,1.1,0.4,1.2,0.7c0.7,1,1.5,3.1,4.3,2.8l1.3-0.1c0.8,0,1.4-0.1,2.1,0.2c0.3,0.2,0.5,0.2,0.9,0.7c0.7,0.6,1.2,1.3,2.1,0.9
	c0.3-0.1,0.6-0.6,0.6-0.6c0-0.2-0.1-0.5-0.4-0.7c0.7,0.2,2.4,0.3,3-0.8C-251.3,397.9-251.3,397.7-251.4,397.5 M-279.4,388.6
	c4.7-0.2,11.4,2.7,11.5,2.7c0.6,0.2,1.1,0.5,1.6,0.7c-0.1,0-0.7-0.3-0.7-0.3c-1-0.4-2.8-1-2.8-1c-2.4-0.8-3.4-1-3.5-1
	c-0.3,0-0.4-0.1-0.4-0.1h-0.4l0.2,0.4c-1.7-1.2-3.7-1.2-3.8-1.2c-0.4,0-0.7,0.1-1,0.2l0.1-0.2h-0.3h-1.4
	C-279.8,388.6-279.4,388.6-279.4,388.6 M-283.2,390.8c0.3-0.4,0.6-0.7,0.6-0.7l0.1,0.1C-282.7,390.3-283.2,390.8-283.2,390.8
	 M-281.2,390.7c-0.1-0.1-0.2-0.1-0.4-0.1h0.1c0,0,0.3,0,0.5,0.4C-281,390.9-281.1,390.8-281.2,390.7 M-251.7,398
	c0,0.2-0.4,0.5-0.7,0.7c-0.4,0.2-1.2,0.2-1.7,0.1c0,0-0.9-0.1-1.7-0.9l-0.9-0.9c-0.1-0.1-0.5-0.5-1-0.5c-0.5-0.1-1.9-0.1-2.4-0.3
	c-0.3-0.1-0.7-0.3-1.2-1.1c-0.2-0.4-0.5-0.5-0.8-0.7c0,0,0.2,0.2,0.4,0.5c0.2,0.4,0.3,0.7,0.5,0.9c0.1,0.2,0.2,0.4,0.5,0.5
	c0.2,0.2,0.4,0.2,0.7,0.3c0.3,0.1,1.2,0,1.9,0s1.1,0.2,1.3,0.4c0.2,0.2,0.6,0.7,0.9,1s0.5,0.6,1,0.9c0.2,0.1,0.5,0.3,0.5,0.6
	c-0.2,0.2-0.6,0.3-1.3,0.1c0,0,0.5,0.5,1.1,0.2c-0.2,0.2-0.4,0.2-0.6,0.2c-0.7,0-1.4-0.9-1.8-1.2c-0.3-0.2-0.3-0.3-0.8-0.7
	c-0.7-0.5-2.5-0.4-2.5-0.4l-1.2,0.1c-2.5,0.2-3.5-2-3.7-2.4c-0.1-0.2-0.2-0.3-0.2-0.4c-0.1-0.2-0.8-1-1.5-1.3c0,0,0.7,0.6,0.6,1
	c0,0-0.3-0.1-1,0c-3.2,0.5-4.3-0.3-4.3-0.3c0.2-0.6-0.3-1.3-0.3-1.3c0.2,0.1,1.8,0.6,3.3,0.3c0,0-2.5,0-4.2-1.3c0,0,1.1,1.3,0.8,2.2
	c0,0-0.2,0.9-2,0.5c-0.2,0-0.4-0.1-3.2-0.9c-0.7-0.2-0.9,0.1-1,0.3c0,0.3-0.3,0.6-0.5,0.7c-0.9-0.2-0.5-1-0.5-1
	c-0.5,0.8,0,1.1,0.2,1.1c-0.1,0-0.2,0.1-0.3,0.1c0,0-0.7-0.4-0.3-1.1c0.5-1,1.1-1.2,2.1-1.4c0.5,0,0.8-0.1,1.1,0
	c0.7,0.1,1.2,0.5,2.3,0.6c-2.4-0.7-2.4-2.1-2.4-2.1c-0.1,0.5,0,0.8,0,1.2c0,0-0.5-0.3-0.7-0.5c-0.8-0.5-1.5-0.6-1.5-0.6
	c-0.3,0-0.4-0.4-0.4-0.4c-0.3-0.6-0.7-0.6-0.7-0.6c0.1,0.2,0.2,0.4,0.2,0.6v0.3c0,0.7-0.8,1-0.8,1c-0.6,0.7-0.6,0.7-0.7,0.7
	s-0.4-0.1-0.4-0.1s0,0,0-0.1v-0.1l0.2-0.2c0.6-0.6,0.7-0.9,0.6-1.3c-0.2-0.8-0.7-0.7-0.7-0.7c-0.3,0-0.4,0.2-0.4,0.2
	c-0.1,0.2-0.3,0.7-0.3,0.7c-0.1,0.3-0.2,0.3-0.3,0.3h-0.1c-0.2,0-0.3-0.2-0.3-0.2c-0.3-0.1-0.2-0.4-0.2-0.4c0.2-0.5,0.7-0.6,0.8-0.7
	h0.3c0.6-0.1,0.9-0.7,0.9-0.7h-0.6c-0.5,0-0.6,0.5-0.6,0.5c-0.3,0.1-0.3-0.2-0.2-0.3c0-0.1,0.2-0.4,1.5-0.7c0,0,0.6-0.2,2-0.1v0.1
	c-0.1,0.2-0.6,0.7-1.4,0.5c0,0,0,0.3,0.9,0.5c0,0,0.7,0.1,2.1,1.2c0,0-0.6-1.2-1.7-1.5c0,0-0.1,0-0.1-0.1c0,0,0.6-0.6,1.5-0.6
	c0,0,2.7,0,4.4,1.9c0,0-0.1-0.3-0.3-0.7l-0.1-0.2h0.4c0,0,1,0.1,3.5,1c0,0,1.8,0.6,2.8,1c1.5,0.6,5.2,2,7.6,3.4
	c0.4,0.2,4.7,2.5,4.7,2.5c1.2,0.5,2,0.2,2,0.2c0.2-0.1,0.7-0.5,1-0.2C-251.6,397.7-251.6,397.9-251.7,398 M-282.1,390
	c0-0.1,0.1-0.3,0.3-0.3h0.2C-281.6,389.7-281.7,389.9-282.1,390C-281.9,390-282,390-282.1,390 M-279.2,389.8
	c0.2,0.1,0.5,0.2,0.7,0.4c-0.6-0.3-1-0.4-1-0.4h-0.2c0.1,0,0.2-0.1,0.3-0.1C-279.4,389.8-279.2,389.8-279.2,389.8"/>
<path class="st0" d="M-280.3,403.9h2.6l-1.3-1.5C-279,402.4-280.3,403.9-280.3,403.9z M-277.4,404.3h-3.2l-0.5,0.6h-0.7l2.5-3h1.1
	l2.5,3h-1.2C-276.9,404.9-277.4,404.3-277.4,404.3z M-261.1,403.9h2.6l-1.3-1.5C-259.8,402.4-261.1,403.9-261.1,403.9z
	 M-258.2,404.3h-3.2l-0.6,0.6h-0.6l2.5-3h1.1l2.5,3h-1.2C-257.7,404.9-258.2,404.3-258.2,404.3z M-282.3,402v1.4
	c0,0.5-0.1,0.7-0.3,1c-0.4,0.4-1.1,0.5-2.2,0.5h-2.2v-0.4h2c0.6,0,1-0.1,1.3-0.3c0.2-0.2,0.3-0.5,0.3-0.8v-1.3
	C-283.4,402.1-282.3,402-282.3,402z M-270.9,404.5v-1h1.1v1.3h-3.2c-0.6,0-1.1-0.1-1.4-0.2c-0.6-0.2-0.9-0.7-0.9-1.2s0.3-1,0.7-1.2
	c0.4-0.2,0.8-0.3,1.6-0.3h3.1v0.4h-2.7c-0.6,0-0.9,0.1-1.2,0.3c-0.2,0.2-0.3,0.5-0.3,0.8c0,0.4,0.1,0.6,0.3,0.8
	c0.2,0.2,0.6,0.2,1.1,0.2C-272.7,404.4-270.9,404.5-270.9,404.5z M-251.7,403.9c0.4,0,0.7-0.1,1-0.2c0.3-0.2,0.4-0.4,0.4-0.7
	c0-0.4-0.2-0.7-0.5-0.8c-0.3-0.1-0.6-0.2-1.3-0.2h-3.4v3h1.1v-1h1.4l1.6,1h1.4C-250,405-251.7,403.9-251.7,403.9z M-252.2,402.4
	c0.4,0,0.6,0,0.7,0.1s0.2,0.2,0.2,0.4c0,0.2,0,0.3-0.2,0.5c-0.1,0.1-0.3,0.1-0.7,0.1h-2.2v-1.2
	C-254.4,402.4-252.2,402.4-252.2,402.4z M-263.1,402v1.5c0,0.4,0,0.7-0.2,0.9c-0.3,0.4-0.9,0.6-2.5,0.6c-1.6,0-2.2-0.2-2.5-0.6
	c-0.2-0.2-0.2-0.5-0.2-0.9V402h1.1v1.4c0,0.4,0,0.6,0.2,0.8c0.2,0.3,0.7,0.5,1.4,0.5h0.1c0.7,0,1.2-0.1,1.4-0.5
	c0.1-0.2,0.2-0.4,0.2-0.8V402H-263.1z"/>
</svg>
