<svg xmlns="http://www.w3.org/2000/svg" viewBox="0 0 119.7 234"><g fill="#9E2135"><path d="M118.3 54.6c-.4-1.7-1-3.3-1.7-4.9-4.3-2-7-6-8.4-11.2-1.6-6.3-1.1-14.2-4.9-19.6-.2-.3-.3-.6-.4-.9-.2-.1-.4-.1-.5-.1-.4 0-.6-.2-.6-.5s-.3-.8-.7-1.1c-.5-.5-.6-.8-.3-1.3.4-.8-.3-1.5-1.9-1.9-.5-.1-1-.4-1.1-.7-.1-.3.5-.3 2.8.1 5.9 1.2 8.4 1.5 10.3.7.6-.4 1.2-.8 1.9-1.2.7-.7.6-1.4-.1-2.3-.6-.8-3.3-2-3.6-1.8-.1.1-.7-.1-1.3-.4-.6-.3-1.2-.6-1.3-.6-.3 0-1.1-.3-2.9-1-.9-.4-3.1-.9-4.9-1.1-2.2-.3-3.3-.5-3.3-.8 0-.5-2.5-1-3-.6-.2.1-1.1.2-2 .1l-1.6-.2 1.2-.4c.7-.3 1.1-.6 1-.8-.3-.5-4.4-1.6-4.9-1.3-.2.1-.4 0-.4-.1 0-.2-.5-.4-1.2-.4-.8 0-1.4.3-1.8.8-.4.6-.6.6-.6.3s-.4-.8-1-1c-1.2-.5-1.4-.5-1.7 0-.1.2-.5.3-.8.1-.3-.1-.9.1-1.4.6-.5.5-.8.6-.6.4.2-.3-.1-.4-.9-.4-1.5 0-2.8.4-2.6.7s-1.5.9-2.6.8c-.6-.1-.8 0-.6.4.2.4.2.4-.2 0-.9-.8-3.2-.4-3.2.5 0 .5 0 .5-1.3.7-1.5.1-2 .5-1.8 1.3.1.4 0 .8-.2 1-.3.1-.3 0-.1-.3.2-.4.1-.4-.7-.2-.9.2-1 .2-.6-.3.7-.8 0-.8-1.9.2-1.2.5-1.5.9-1.4 1.3.1.4.1.5-.2.3-.5-.3-2.9.7-2.9 1.2s.1.5 1.6-.1c.5-.5 1.1-.6 1.1-.6 0 .1.5 0 1.1-.2.6-.2 1.1-.2 1.1 0s-.3.3-.5.3-.5.3-.5.7c0 .4-.7 1.2-1.8 2-1 .7-1.8 1.4-1.8 1.6 0 .2-.3.4-.7.5-.5.1-.7.5-.7 1.1 0 1.2-1.2 2.4-2.4 2.4-.8 0-.9.1-.5.4.4.3.5.4 0 .6-.3.1-1.1.8-1.9 1.6-1.3 1.3-1.5 1.4-2.1 1-.6-.4-.8-.4-1.1.1-.3.3-.6.5-.9.4-.4-.1-.4 0-.3.4.1.4-.1.6-.9.8-.6.1-1 .4-1 .6 0 .2-.4.4-.9.5-.5.1-.9.4-.9.6 0 .2-.1.3-.3.1-.2-.1-.8.1-1.4.5-1.1.6-1.1.8-1.1 3.4 0 2.3.1 2.6.5 2.5.6-.2.8.4.3.7-.4.3-.5 2.4 0 2.4.2 0 .3.3.3.7 0 .4.5 1 1.4 1.6 1.9 1.2 3.8 1.2 5.4 0 .7-.5 1.9-1.2 2.8-1.6.8-.4 1.5-1 1.5-1.4 0-.5.1-.5.2 0 .1.3.4.7.7.8.3.1.5.7.5 1.3 0 .5.3 1.4.7 1.9s.7 1 .7 1.2c0 .2.6.9 1.3 1.6.7.7 1.1 1.4.9 1.4-.2.1-.4.4-.4.6s-.1.5-.3.5c-.6-.1-2.6.5-2.6.8 0 .4-2.1.9-2.4.6-.1-.1 0-.5.2-.9.4-.6.4-.6.4 0 0 .4.2.5.4.4.2-.1.3-.4.2-.5-.1-.2 0-.4.2-.5.6-.4.4-1.3-.4-1.3-.7 0-1-.9-.4-1.3.4-.3.4-2.3 0-2.3-.1 0-.3.1-.3.4 0 .2-.2.4-.5.4s-.7.3-.9.5c-.3.3-.9.5-1.5.5-1.9 0-3.3 3.8-1.8 5.3.5.6.5 1 .1 1.3-.2.1-.3.4-.1.8.1.4.3.4.7.1.4-.3.5-.3.5.2 0 .3-.2.6-.4.6-.3 0-.3.2 0 .5.8.9-.2 1.6-1.8 1.4-.9-.2-1.6-.1-2.2.3-.5.3-1.3.5-1.9.4-1.7-.3-3.2.7-3.5 2.1-.4 1.9-2.7 4-5.4 4.9-1.6.5-1.8.7-2.1 1.9-.3 1.1-.5 1.4-1.7 1.7-.8.2-1.6.7-1.9 1.1-.5.8-1.8.9-2.5.3-.3-.3-.9-.6-1.5-.8-.9-.2-1-.2-.8.6.8 2.4.7 2.6-.8 2.6-.8 0-1.5-.1-1.8-.3-.5-.3-3.2 0-4 .5-.7.3-.8 2.1-.1 2.1.3 0 .5.1.5.4 0 .2.2.3.5.1.8-.3 2.4.5 2.2 1.1-.1.3 0 .5.2.5s.3-.2.2-.4c-.4-.6.9-.4 1.7.4.5.4.6.7.3.7s-.3.2.1.6c.3.3.6.7.6.9 0 .2.3.3.6.3s.4.1.3.4c-.1.2-.1.4.1.4s.3.2.3.4c0 .3.1.6.1.8.1.5-.4 4.1-.8 5.5-.4 1.3-1.4 2-2.5 1.7-.6-.2-5.4-.5-9.9-.7-1 0-2-.2-2.1-.3-.5-.5-1.8-.3-2.5.5-.4.4-.9.7-1.3.7-1 0-1.5.9-1.1 1.9.2.5.4 2 .4 3.3.1 2.6-.7 5.6-1.8 6.5-.3.3-.4.5-.3.5.1 0 .1.5-.1 1.1-.2.6-.2 1.1 0 1.1s.3.3.3.5c0 .3.2.5.5.4.5-.1.5 1.8.1 3.3-.3.9-.2.9 1.3.9.9 0 1.9-.1 2.4-.3 1.3-.4 2.2.1 2.8 1.6.6 1.6 2 2.2 2.7 1.3.8-1 2.9-1.6 5.1-1.7h2.8c.3 0 .9-.5 1.1-1.1.4-.7.9-1.1 1.6-1.3.8-.1 1.2-.5 1.6-1.6.3-.8.8-1.4 1-1.4s.6-.3.9-.5c.4-.5.4-.6-.1-1-.9-.7-1-1.5-.4-2.5 1.3-1.9 3.5-4.2 4-4.2.3 0 1.4-.4 2.4-1 1.9-1 3-2.4 2.3-3.1-.2-.2-.4-.7-.4-1.1 0-1.8 3.8-2.4 6-1 1.2.8 2 .6 3.3-.5.7-.6 1.6-1.2 2.2-1.3.6-.1 1.2-.5 1.4-.9.2-.4.6-.7.9-.8.8-.3 3.8 1.1 3.8 1.8 0 .3.2.8.5 1.3.4.6.3.8-.2 1.2-.5.3-.5.5-.2.7.2.1.5.1.7-.2.3-.4.4-.4.9 0 .3.3.6.7.6 1 0 .3.3.5.7.5s.7.1.7.3c0 .5 3.6 3.1 4.4 3.1.5 0 1.3.4 1.8 1s1.2 1 1.5 1 .6.3.6.6.5.8 1.1 1c.8.3 1.2.8 1.6 2 .4 1 .4 1.6.2 1.7-.2.1-.4.4-.4.8 0 .8-3.3 1.6-5.9 1.3-2.1-.2-2.7 0-2.7.9 0 .6 3.2 2.5 4.2 2.5.2 0 .5.2.7.5.1.3.6.6 1.1.7.9.2 1.6-.8 1.3-1.7-.1-.3-.1-1 0-1.5.2-.7.4-.9 1-.7.9.3 2.5-1 2.5-2.1 0-.4.3-.8.7-.9 1-.3.9-1.6-.2-2.3-.8-.5-.8-.6-.4-1.4.4-.7.7-.9 1.5-.8.6.1 1.1.3 1.2.5.1.2.4.6.7.9.5.5.6.5.9-.2.5-1.1-.6-2.1-3.7-3.6-2.1-1-2.4-1.3-2.1-1.8.2-.4.2-.6.1-.7-.1 0-1 0-1.8-.1-1.2-.1-1.8-.4-2.8-1.4-.7-.7-1.3-1.6-1.3-1.9 0-.9-.6-1.6-2.2-2.5-1.5-.9-2-2-1.4-2.8.3-.3.3-.5 0-.7-.7-.4-.4-1.1.8-1.5 1.4-.5 2.5-.6 1.8-.1-.3.2-.4.6-.1 1.2.4 1.2 1.1 1.6 1.5 1 .2-.4.3-.3.3.3 0 .4.2.9.4 1 .2.1.4-.1.4-.5s.2-.8.4-1c.3-.2.3-.1.2.4-.1.4 0 .9.3 1.2.4.4.4.6.1.8-.5.3 1.2 1.8 2 1.8.3 0 .8.3 1.1.7.4.4 1 .7 1.5.8h.9l-.9.3c-.9.3-.9.3.3.3.6 0 1.3.2 1.4.4.1.2.5.4.9.4.3 0 1.4.6 2.4 1.3l1.9 1.4-.2 2.2c-.2 2.1-.1 2.2.8 2.8.6.4.8.7.5.9-.5.3-.1 1.4.5 1.4.3 0 .8.3 1 .6.6.5.6 1.2 0 2.4-.1.4-.1.8.1.9.2.1.4.5.6.8.3.7 1 .9 1 .2 0-.9 1.4.9 1.6 2.1.2 1.1.3 1.2 1.1 1 .6-.2.9-.1.9.3 0 .3.2.5.4.5s.4-.2.4-.4.2-.4.4-.4.4.4.4.9.2.9.4.9c.7 0 .5-1.8-.3-3.4-.4-.8-.4-.9-.1-.6.3.3.8.5 1.1.5.5 0 .6-.2.4-.8-.2-.6-.1-.7.6-.6.6.1.8 0 .7-.6-.1-.6-.1-.6.4-.3.3.3.6.4.6.2 0-.1.3-.1.5.2.3.3.5.8.5 1.1 0 .6 0 .6.6.1.5-.5.5-.6-.2-1.4-.4-.4-.8-.6-.8-.5 0 .5-1.1-.6-1.5-1.5-.2-.5-.6-.8-1-.8-.5 0-.9-.4-1.1-1.1-.2-.6-.5-1.1-.7-1.1-.4 0-1.5-2.1-1.3-2.6.1-.2.6 0 1.3.6 1.1.9 1.8 1.2 1.4.6-.1-.2 0-.3.4-.1.5.2.6.1.4-.5-.2-.5-.2-.6.2-.3.9.9 1.2.5.4-.4-.8-.9-.8-.9-.1-1.3.5-.3.8-.3 1 0 .1.3.1.3-.1.1-.3-.1-.4-.1-.4.1 0 .7 1 .4 1.2-.3.1-.6.3-.6 1.4-.3.7.2 1.6.6 2 .9 1.1.6 2.3.4 3-.5.5-.6 1-.8 1.9-.7.7 0 1.4-.1 1.6-.4.4-.5.4-.5-.8-1-1.1-.5-2.6-3.3-2.1-3.8.2-.2.4-.7.4-1.1 0-.5.3-.9.7-1 .6-.1.7-.5.8-1.9.1-1.5.3-1.8 1.1-2.2.1 0 .2-.1.3-.1 1.3-2.7 1.5-6 3.2-8.5 2.1-3.1 5.9-3.8 9.3-4.6 3.3-.7 6.9-2.2 9.2-4.8.4-.4.6-.8.9-1.3-1.1-.4-1.7-.9-1.9-1.8zM45.5 22.4c-.1.1-.4.1-.7 0-.3-.1-.2-.2.2-.2s.6.1.5.2zm4.2-2c-.2 0-.1-.3.1-.5.3-.3.3-.5.2-.5-.2 0 .1-.3.5-.7.9-.8 1.4-.9 1.4-.3.1.4-1.6 2-2.2 2zM38.9 51.8c-.1.2-.4.4-.6.4s-.1-.2.1-.5c.6-.6.9-.5.5.1zm46 42.6c.5.3.5.4-.1.4-.3 0-.7-.2-.8-.4-.3-.4.2-.4.9 0zm-1.6 1.9c.1.1.1.4 0 .7-.1.3-.2.2-.2-.2s.1-.6.2-.5zm-1.1-.8c.4 0 .6.1.5.2-.1.1-.4.1-.7 0-.3-.1-.2-.2.2-.2zm2-94.8c.4 0 .8.1.8.1 0 .3-1.1.5-1.3.2-.2-.2.1-.3.5-.3zm-3.8.4c.1-.2.3-.4.4-.4.1 0 .1.1.1.4 0 .2-.2.4-.4.4-.1-.1-.2-.3-.1-.4zM67.9 3.9c.3 0 .5.1.5.4 0 .2-.3.3-.5.1-.3-.1-.5-.3-.5-.4 0 0 .2-.1.5-.1zM64.2 5c.7-.4.7-.4.7 0 0 .2-.3.4-.6.4-.6-.1-.6-.1-.1-.4zm-.8 1.8c.5 0 .7.1.5.2-.3.1-.7.1-.9 0-.2-.1-.1-.2.4-.2zm-2.3.5c.1.3.1.4-.1.3-.2-.1-.4-.4-.4-.6 0-.4.2-.3.5.3zm-8.7 36.9c.4.1.7.3.7.5 0 .1-.3.4-.6.5-.3.1-.4.1-.3-.1s0-.4-.1-.4c-.2 0-.4-.1-.4-.3-.1-.2.3-.3.7-.2zm-2 2c-1.2-.5-1.1-1.2 0-.8.6.2.9.2.9 0s.2-.1.5.1c.7.7-.3 1.2-1.4.7zm24.2-1.4c-.3.3-.4.3-.4.1 0-.5.4-.9.7-.7 0 .1-.1.4-.3.6zm3.7 50.9c-.1.3-.4.5-.5.5-.2 0-.4 0-.6.1-.1.1-.3-.5-.4-1.1-.1-1.2-.1-1.2.5-.5.3.4.7.7.9.6.1-.1.2.1.1.4zm11.5-64.9c-.5 0-1 .3-1 .6 0 .5-1.8.4-5.4 0-1.7-.2-5.9 1.7-4.7 2.1.6.3.5.9-.1.6-.3-.1-.5-.4-.5-.7 0-.3-.2-.5-.4-.5-.7 0-2 .6-1.4.6.6 0 .5.8-.1.8-.5 0-.5.2-.3 1 .3 1.2.6 1.5.8.9.1-.2.5-.4.9-.4s.7-.1.7-.3c0-.4 1.4-.8 1.6-.4.1.2.5.3.8.3 1.2 0 .9 3.5-.3 3.6-.1 0-.8-.5-1.5-1.2-1.2-1.1-1.5-1.1-2.4-.8-1.4.5-2.3 2.7-2 4.9.2 1.8-.4 2.9-1.6 2.9-.3 0-.6.3-.6.5 0 .3-.4.7-.9 1-1 .4-2.2.1-1.8-.4.6-1-4.4-.6-5.4.5-.2.2-1.4.6-2.6.9-2.3.5-3.3.2-3.3-.9 0-1-1-.9-4.4.7-.8.3-1.5.5-1.6.4-.3-.3 1.4-1.6 1.8-1.4.1.1.4-.1.5-.4.1-.3.5-.5.8-.5.3 0 .5-.2.4-.4-.1-.2-.4-.3-.6-.1-.3.2-.3.1 0-.3.3-.3.4-.6.2-.8-.1-.1 0-.3.2-.3.3 0 .4-.3.5-.6 0-.4.1-.3.3.3.2.8.5.9 1.8.9s1.6-.1 1.8-.7c.2-1 1.1-1.6 2.6-1.6 1 0 1.3-.1 1.3-.6s.1-.5.4-.1c.2.3.4.4.5.4.4-.5 1.3-3 1.1-3.2-.1-.1-.3 0-.4.2-.3.8-.9.5-.6-.4.2-.6.4-1.9.5-3.1 0-.1.4-.4.9-.5.4-.1.9-.3 1-.3.1 0 .5-.2 1-.4.4-.1.8-.5.8-.8 0-.3.3-.8.5-1 .4-.3.4-.5.1-1.3-.4-.9-.7-1.1-2.6-1.9-1.1-.5-1.5-1.3-1-2.4.1-.3.3-1 .3-1.5 0-.6.3-1.1 1-1.6.6-.4 1-.9 1-1 0-.4 2.5-1.6 3.3-1.6.2 0 .9-.6 1.7-1.3 1-.9 1.2-1.3.8-1.5-.4-.3-.3-.5.3-1.4.5-.6 1-1 1.1-.9.1.1.3 0 .3-.2 0-.4 2.8-.5 4.6-.2.8.1 1.1.4 1.1.9s-.2.6-.8.5c-.6-.1-.7-.1-.6.3.2.6-2 2.8-2.8 2.8-.3 0-.5.1-.5.3 0 .5-2.1 1.5-2.6 1.3-.3-.1-.6 0-.8.2-.1.2 0 .5.3.6.5.2.5.3 0 .7-.4.4-.4.7-.2 1.2.2.4.5 1 .6 1.3.2.4.3 1.5.2 2.5-.1 1.5 0 1.8.5 1.8.3 0 .6.1.5.4 0 .3.5.5 1.1.6.6.1 1.3.4 1.3.6.1.3 1.1.1 2.8-.3 1.5-.4 2.9-.6 3.1-.5.3.1.6 0 .8-.2.1-.2 1.4-.5 2.7-.6 2.1-.1 2.6-.1 3.4.5.7.5.6.8-.8.9z"/><path d="M20.2 32.6c-.2.2-.4.6-.4.9 0 .5-1.5 1-2.7.8-.6-.1-1 0-1.4.7-.9 1.4-2 2.3-2.4 2.1-.2-.1-.6 0-.9.2-.4.4-.4.6-.1 1 .3.3.4.6.4.7-.1 0-.1.2-.1.4s.1.1.3-.2c.2-.3.4-.3.5-.1.1.2-.3.6-1 .8-.7.2-1.3.6-1.3.8 0 .2.3.2.7 0 .6-.3.7-.3.7.1 0 .3.3.6.6.7.5.1.4.2-.4.5-.6.2-1 .6-1 .8 0 .6.7.8 1.2.4s.9-.2.9.5c0 .2-.2.1-.4-.1-.3-.5-.4-.4-.4.1s.2.6 1.1.4c.9-.2 1-.1.9.3-.1.3-.4.6-.5.6-.2 0-.2.4.1.8.2.4.5.6.6.5.4-.5 2.9-.5 2.7 0-.1.2.1.8.5 1.1.6.8.6 2-.1 2.4-.2.1-1 .2-1.7.1-.8-.1-1.4 0-1.4.2s.2.3.4.2c.6-.4.4.1-.4.9l-.8.8.9-.1c1.6-.2 1.3 1-.4 1.6-2 .8-1.9 1.8.3 1.9 1.7.1 3 .9 1.4.9-.9 0-2.5 1.1-2.5 1.8 0 .1-.6.6-1.3.9-.7.4-1.1.8-1 .9.4.4 1.4.3 2.2-.2.5-.3 1.2-.5 1.8-.4.8.1 1.2 0 1.6-.5.5-.6 1-.6 3.1-.5 1.4.1 2.5 0 2.5-.2 0-.1.7-.3 1.5-.2 1.6.1 4.5-.9 4.5-1.5 0-.2-.3-.4-.5-.4-.7 0-.7-.9 0-1.2 1-.4 1.7-1.9 1.3-2.7-.5-.9-2.4-1.3-3.2-.7-.5.4-.6.4-.1-.1.4-.5.4-.8 0-1.6-.2-.6-.4-1.2-.4-1.4 0-.5-1-1.4-2-2-.4-.2-.9-.8-1-1.4-.4-1.4-1.3-2.5-2-2.6-.9 0-.8-1.1.1-1.8.4-.3.7-.7.7-.9 0-.3.3-.7.6-1 .9-.9.3-1.3-2-1.3-1.1 0-2.2-.2-2.3-.4-.1-.2 0-.4.2-.4.3 0 .8-.3 1.3-.7.5-.4.8-.7.6-.7-.2 0 0-.4.4-.8s.8-1 .9-1.2c.8-1-.9-1-1.4-.5zm-6.8 4.9c0 .2-.2.4-.4.4s-.3-.2-.1-.4c.1-.2.3-.4.4-.4 0 .1.1.2.1.4z"/><path d="M8.5 43.9c-.9.3-2.5 2.2-1.9 2.2.2 0 .3.2.2.4-.1.2-.9.3-1.8.2-1.3-.1-1.6 0-1.9.5-.3.5-.2.7.1.8.3.1.3.3 0 .6-.7.7-.6.9.4 1.2 1.2.4 1 1-.6 2.2-1.3 1-1.9 2.4-1 2.4.2 0 .3.2.1.4-.2.3-.1.3.3.2.3-.1.6-.1.6.1 0 .6 2.8 0 4.6-1 .9-.5 2.1-.9 2.8-.9 1 0 1.2-.1 1.5-1.4.3-.8.4-2 .4-2.8 0-1.2.1-1.5.9-1.8 1-.5 1.1-1.4.3-2.4-.8-.8-3.6-1.3-5-.9zM47.9 80.9c-.1.3-.6.7-1.1.8-.5.1-.9.5-1 .9-.2.9.3 2.6 1 3.1.6.4.5.5-.4 1.1-.8.5-1 .6-1.3.2-.2-.3-.4-.3-.5.2-.1.4 0 1 .3 1.4.3.4.4 1 .3 1.4-.5 2.8-.5 3 .3 3.5.6.3.9.3 1.2-.2.3-.4.7-.5 1-.4.7.3.9-.4 1-3.4.1-2 0-2.5-.5-2.9-.6-.4-.6-.6-.3-1.9.6-1.7.5-4.8 0-3.8z"/></g><g fill="#7F7F7F"><path d="M118.3 177.6c-.4-1.7-1-3.3-1.7-4.9-4.3-2-7-6-8.4-11.2-1.6-6.3-1.1-14.2-4.9-19.6-.2-.3-.3-.6-.4-.9-.2-.1-.4-.1-.5-.1-.4 0-.6-.2-.6-.5s-.3-.8-.7-1.1c-.5-.5-.6-.8-.3-1.3.4-.8-.3-1.5-1.9-1.9-.5-.1-1-.4-1.1-.7-.1-.3.5-.3 2.8.1 5.9 1.2 8.4 1.5 10.3.7.6-.4 1.2-.8 1.9-1.2.7-.7.6-1.4-.1-2.3-.6-.8-3.3-2-3.6-1.8-.1.1-.7-.1-1.3-.4-.6-.3-1.2-.6-1.3-.6-.3 0-1.1-.3-2.9-1-.9-.4-3.1-.9-4.9-1.1-2.2-.3-3.3-.5-3.3-.8 0-.5-2.5-1-3-.6-.2.1-1.1.2-2 .1l-1.6-.2 1.2-.4c.7-.3 1.1-.6 1-.8-.3-.5-4.4-1.6-4.9-1.3-.2.1-.4 0-.4-.1 0-.2-.5-.4-1.2-.4-.8 0-1.4.3-1.8.8-.4.6-.6.6-.6.3s-.4-.8-1-1c-1.2-.5-1.4-.5-1.7 0-.1.2-.5.3-.8.1-.3-.1-.9.1-1.4.6-.5.5-.8.6-.6.4.2-.3-.1-.4-.9-.4-1.5 0-2.8.4-2.6.7s-1.5.9-2.6.8c-.6-.1-.8 0-.6.4.2.4.2.4-.2 0-.9-.8-3.2-.4-3.2.5 0 .5 0 .5-1.3.7-1.5.1-2 .5-1.8 1.3.1.4 0 .8-.2 1-.3.1-.3 0-.1-.3.2-.4.1-.4-.7-.2-.9.2-1 .2-.6-.3.7-.8 0-.8-1.9.2-1.2.5-1.5.9-1.4 1.3.1.4.1.5-.2.3-.5-.3-2.9.7-2.9 1.2s.1.5 1.6-.1c.7-.3 1.3-.5 1.3-.4 0 .1.5 0 1.1-.2.6-.2 1.1-.2 1.1 0s-.3.3-.5.3-.5.3-.5.7c0 .4-.7 1.2-1.8 2-1 .7-1.8 1.4-1.8 1.6 0 .2-.3.4-.7.5-.5.1-.7.5-.7 1.1 0 1.2-1.2 2.4-2.4 2.4-.8 0-.9.1-.5.4.4.3.5.4 0 .6-.3.1-1.1.8-1.9 1.6-1.3 1.3-1.5 1.4-2.1 1-.6-.4-.8-.4-1.1.1-.3.3-.6.5-.9.4-.4-.1-.4 0-.3.4.1.4-.1.6-.9.8-.6.1-1 .4-1 .6 0 .2-.4.4-.9.5-.5.1-.9.4-.9.6 0 .2-.1.3-.3.1-.2-.1-.8.1-1.4.5-1.1.6-1.1.8-1.1 3.4 0 2.3.1 2.6.5 2.5.6-.2.8.4.3.7-.4.3-.5 2.4 0 2.4.2 0 .3.3.3.7 0 .4.5 1 1.4 1.6 1.9 1.2 3.8 1.2 5.4 0 .7-.5 1.9-1.2 2.8-1.6.8-.4 1.5-1 1.5-1.4 0-.5.1-.5.2 0 .1.3.4.7.7.8.3.1.5.7.5 1.3 0 .5.3 1.4.7 1.9s.7 1 .7 1.2c0 .2.6.9 1.3 1.6.7.7 1.1 1.4.9 1.4-.2.1-.4.4-.4.6 0 .3-.1.5-.3.5-.6-.1-2.6.5-2.6.8 0 .4-2.1.9-2.4.6-.1-.1 0-.5.2-.9.4-.6.4-.6.4 0 0 .4.2.5.4.4.2-.1.3-.4.2-.5-.1-.2 0-.4.2-.5.6-.4.4-1.3-.4-1.3-.7 0-1-.9-.4-1.3.4-.3.4-2.3 0-2.3-.1 0-.3.1-.3.4 0 .2-.2.4-.5.4s-.7.3-.9.5c-.3.3-.9.5-1.5.5-1.9 0-3.3 3.8-1.8 5.3.5.6.5 1 .1 1.3-.2.1-.3.4-.1.8.1.4.3.4.7.1.4-.3.5-.3.5.2 0 .3-.2.6-.4.6-.3 0-.3.2 0 .5.8.9-.2 1.6-1.8 1.4-.9-.2-1.6-.1-2.2.3-.5.3-1.3.5-1.9.4-1.7-.3-3.2.7-3.5 2.1-.4 1.9-2.7 4-5.4 4.9-1.6.5-1.8.7-2.1 1.9-.3 1.1-.5 1.4-1.7 1.7-.8.2-1.6.7-1.9 1.1-.5.8-1.8.9-2.5.3-.3-.3-.9-.6-1.5-.8-.9-.2-1-.2-.8.6.8 2.4.7 2.6-.8 2.6-.8 0-1.5-.1-1.8-.3-.5-.3-3.2 0-4 .5-.7.3-.8 2.1-.1 2.1.3 0 .5.1.5.4 0 .2.2.3.5.1.8-.3 2.4.5 2.2 1.1-.1.3 0 .5.2.5s.3-.2.2-.4c-.4-.6.9-.4 1.7.4.5.4.6.7.3.7s-.3.2.1.6c.3.3.6.7.6.9 0 .2.3.3.6.3s.4.1.3.4c-.1.2-.1.4.1.4s.3.2.3.4c0 .3.1.6.1.8.1.5-.4 4.1-.8 5.5-.4 1.3-1.4 2-2.5 1.7-.6-.2-5.4-.5-9.9-.7-1 0-2-.2-2.1-.3-.5-.5-1.8-.3-2.5.5-.4.4-.9.7-1.3.7-1 0-1.5.9-1.1 1.9.2.5.4 2 .4 3.3.1 2.6-.7 5.6-1.8 6.5-.3.3-.4.5-.3.5.1 0 .1.5-.1 1.1-.4.1-.4.5-.2.5s.3.3.3.5c0 .3.2.5.5.4.5-.1.5 1.8.1 3.3-.3.9-.2.9 1.3.9.9 0 1.9-.1 2.4-.3 1.3-.4 2.2.1 2.8 1.6.6 1.6 2 2.2 2.7 1.3.8-1 2.9-1.6 5.1-1.7h2.8c.3 0 .9-.5 1.1-1.1.4-.7.9-1.1 1.6-1.3.8-.1 1.2-.5 1.6-1.6.3-.8.8-1.4 1-1.4s.6-.3.9-.5c.4-.5.4-.6-.1-1-.9-.7-1-1.5-.4-2.5 1.3-1.9 3.5-4.2 4-4.2.3 0 1.4-.4 2.4-1 1.9-1 3-2.4 2.3-3.1-.2-.2-.4-.7-.4-1.1 0-1.8 3.8-2.4 6-1 1.2.8 2 .6 3.3-.5.7-.6 1.6-1.2 2.2-1.3.6-.1 1.2-.5 1.4-.9.2-.4.6-.7.9-.8.8-.3 3.8 1.1 3.8 1.8 0 .3.2.8.5 1.3.4.6.3.8-.2 1.2-.5.3-.5.5-.2.7.2.1.5.1.7-.2.3-.4.4-.4.9 0 .3.3.6.7.6 1 0 .3.3.5.7.5s.7.1.7.3c0 .5 3.6 3.1 4.4 3.1.5 0 1.3.4 1.8 1s1.2 1 1.5 1 .6.3.6.6.5.8 1.1 1c.8.3 1.2.8 1.6 2 .4 1 .4 1.6.2 1.7-.2.1-.4.4-.4.8 0 .8-3.3 1.6-5.9 1.3-2.1-.2-2.7 0-2.7.9 0 .6 3.2 2.5 4.2 2.5.2 0 .5.2.7.5.1.3.6.6 1.1.7.9.2 1.6-.8 1.3-1.7-.1-.3-.1-1 0-1.5.2-.7.4-.9 1-.7.9.3 2.5-1 2.5-2.1 0-.4.3-.8.7-.9 1-.3.9-1.6-.2-2.3-.8-.5-.8-.6-.4-1.4.4-.7.7-.9 1.5-.8.6.1 1.1.3 1.2.5.1.2.4.6.7.9.5.5.6.5.9-.2.5-1.1-.6-2.1-3.7-3.6-2.1-1-2.4-1.3-2.1-1.8.2-.4.2-.6.1-.7-.1 0-1 0-1.8-.1-1.2-.1-1.8-.4-2.8-1.4-.7-.7-1.3-1.6-1.3-1.9 0-.9-.6-1.6-2.2-2.5-1.5-.9-2-2-1.4-2.8.3-.3.3-.5 0-.7-.7-.4-.4-1.1.8-1.5 1.4-.5 2.5-.6 1.8-.1-.3.2-.4.6-.1 1.2.4 1.2 1.1 1.6 1.5 1 .2-.4.3-.3.3.3 0 .4.2.9.4 1 .2.1.4-.1.4-.5s.2-.8.4-1c.3-.2.3-.1.2.4-.1.4 0 .9.3 1.2.4.4.4.6.1.8-.5.3 1.2 1.8 2 1.8.3 0 .8.3 1.1.7.4.4 1 .7 1.5.8h.9l-.9.3c-.9.3-.9.3.3.3.6 0 1.3.2 1.4.4.1.2.5.4.9.4.3 0 1.4.6 2.4 1.3l1.9 1.4-.2 2.2c-.2 2.1-.1 2.2.8 2.8.6.4.8.7.5.9-.5.3-.1 1.4.5 1.4.3 0 .8.3 1 .6.6.5.6 1.2 0 2.4-.1.4-.1.8.1.9.2.1.4.5.6.8.3.7 1 .9 1 .2 0-.9 1.4.9 1.6 2.1.2 1.1.3 1.2 1.1 1 .6-.2.9-.1.9.3 0 .3.2.5.4.5s.4-.2.4-.4.2-.4.4-.4.4.4.4.9.2.9.4.9c.7 0 .5-1.8-.3-3.4-.4-.8-.4-.9-.1-.6.3.3.8.5 1.1.5.5 0 .6-.2.4-.8-.2-.6-.1-.7.6-.6.6.1.8 0 .7-.6-.1-.6-.1-.6.4-.3.3.3.6.4.6.2 0-.1.3-.1.5.2.3.3.5.8.5 1.1 0 .6 0 .6.6.1.5-.5.5-.6-.2-1.4-.4-.4-.8-.6-.8-.5 0 .5-1.1-.6-1.5-1.5-.2-.5-.6-.8-1-.8-.5 0-.9-.4-1.1-1.1-.2-.6-.5-1.1-.7-1.1-.4 0-1.5-2.1-1.3-2.6.1-.2.6 0 1.3.6 1.1.9 1.8 1.2 1.4.6-.1-.2 0-.3.4-.1.5.2.6.1.4-.5-.2-.5-.2-.6.2-.3.9.9 1.2.5.4-.4-.8-.9-.8-.9-.1-1.3.5-.3.8-.3 1 0 .1.3.1.3-.1.1-.3-.1-.4-.1-.4.1 0 .7 1 .4 1.2-.3.1-.6.3-.6 1.4-.3.7.2 1.6.6 2 .9 1.1.6 2.3.4 3-.5.5-.6 1-.8 1.9-.7.7 0 1.4-.1 1.6-.4.4-.5.4-.5-.8-1-1.1-.5-2.6-3.3-2.1-3.8.2-.2.4-.7.4-1.1 0-.5.3-.9.7-1 .6-.1.7-.5.8-1.9.1-1.5.3-1.8 1.1-2.2.1 0 .2-.1.3-.1 1.3-2.7 1.5-6 3.2-8.5 2.1-3.1 5.9-3.8 9.3-4.6 3.3-.7 6.9-2.2 9.2-4.8.4-.4.6-.8.9-1.3-1.1 0-1.7-.6-1.9-1.4zm-72.8-32.3c-.1.1-.4.1-.7 0-.3-.1-.2-.2.2-.2s.6.1.5.2zm4.2-2c-.2 0-.1-.3.1-.5.3-.3.3-.5.2-.5-.2 0 .1-.3.5-.7.9-.8 1.4-.9 1.4-.3.1.4-1.6 2-2.2 2zm-10.8 31.5c-.1.2-.4.4-.6.4s-.1-.2.1-.5c.6-.6.9-.5.5.1zm46 42.6c.5.3.5.4-.1.4-.3 0-.7-.2-.8-.4-.3-.5.2-.5.9 0zm-1.6 1.9c.1.1.1.4 0 .7-.1.3-.2.2-.2-.2 0-.5.1-.7.2-.5zm-1.1-.8c.4 0 .6.1.5.2-.1.1-.4.1-.7 0-.3-.1-.2-.2.2-.2zm2-94.9c.4 0 .8.1.8.1 0 .3-1.1.5-1.3.2-.2-.1.1-.3.5-.3zm-3.8.4c.1-.2.3-.4.4-.4.1 0 .1.1.1.4 0 .2-.2.4-.4.4-.1-.1-.2-.2-.1-.4zm-12.5 2.9c.3 0 .5.1.5.4 0 .2-.3.3-.5.1-.3-.1-.5-.3-.5-.4 0-.1.2-.1.5-.1zm-3.7 1c.7-.4.7-.4.7 0 0 .2-.3.4-.6.4-.6 0-.6-.1-.1-.4zm-.8 1.9c.5 0 .7.1.5.2-.3.1-.7.1-.9 0-.2-.1-.1-.2.4-.2zm-2.3.5c.1.3.1.4-.1.3-.2-.1-.4-.4-.4-.6 0-.5.2-.4.5.3zm-8.7 36.9c.4.1.7.3.7.5 0 .1-.3.4-.6.5-.3.1-.4.1-.3-.1.1-.2 0-.4-.1-.4-.2 0-.4-.1-.4-.3-.1-.3.3-.3.7-.2zm-2 1.9c-1.2-.5-1.1-1.2 0-.8.6.2.9.2.9 0s.2-.1.5.1c.7.7-.3 1.2-1.4.7zm24.2-1.4c-.3.3-.4.3-.4.1 0-.5.4-.9.7-.7 0 .1-.1.4-.3.6zm3.7 50.9c-.1.3-.4.5-.5.5-.2 0-.4 0-.6.1-.1.1-.3-.5-.4-1.1-.1-1.2-.1-1.2.5-.5.3.4.7.7.9.6.1-.1.2.1.1.4zm11.5-64.8c-.5 0-1 .3-1 .6 0 .5-1.8.4-5.4 0-1.7-.2-5.9 1.7-4.7 2.1.6.3.5.9-.1.6-.3-.1-.5-.4-.5-.7 0-.3-.2-.5-.4-.5-.7 0-2 .6-1.4.6.6 0 .5.8-.1.8-.5 0-.5.2-.3 1 .3 1.2.6 1.5.8.9.1-.2.5-.4.9-.4s.7-.1.7-.3c0-.4 1.4-.8 1.6-.4.1.2.5.3.8.3 1.2 0 .9 3.5-.3 3.6-.1 0-.8-.5-1.5-1.2-1.2-1.1-1.5-1.1-2.4-.8-1.4.5-2.3 2.7-2 4.9.2 1.8-.4 2.9-1.6 2.9-.3 0-.6.3-.6.5 0 .3-.4.7-.9 1-1 .4-2.2.1-1.8-.4.6-1-4.4-.6-5.4.5-.2.2-1.4.6-2.6.9-2.3.5-3.3.2-3.3-.9 0-1-1-.9-4.4.7-.8.3-1.5.5-1.6.4-.3-.3 1.4-1.6 1.8-1.4.1.1.4-.1.5-.4.1-.3.5-.5.8-.5.3 0 .5-.2.4-.4-.1-.2-.4-.3-.6-.1-.3.2-.3.1 0-.3.3-.3.4-.6.2-.8-.1-.1 0-.3.2-.3.3 0 .4-.3.5-.6 0-.4.1-.3.3.3.2.8.5.9 1.8.9s1.6-.1 1.8-.7c.2-1 1.1-1.6 2.6-1.6 1 0 1.3-.1 1.3-.6s.1-.5.4-.1c.2.3.4.4.5.4.4-.5 1.3-3 1.1-3.2-.1-.1-.3 0-.4.2-.3.8-.9.5-.6-.4.2-.6.4-1.9.5-3.1 0-.1.4-.4.9-.5.4-.1.9-.3 1-.3.1 0 .5-.2 1-.4.4-.1.8-.5.8-.8 0-.3.3-.8.5-1 .4-.3.4-.5.1-1.3-.4-.9-.7-1.1-2.6-1.9-1.1-.5-1.5-1.3-1-2.4.1-.3.3-1 .3-1.5 0-.6.3-1.1 1-1.6.6-.4 1-.9 1-1 0-.4 2.5-1.6 3.3-1.6.2 0 .9-.6 1.7-1.3 1-.9 1.2-1.3.8-1.5-.4-.3-.3-.5.3-1.4.5-.6 1-1 1.1-.9.1.1.3 0 .3-.2 0-.4 2.8-.5 4.6-.2.8.1 1.1.4 1.1.9s-.2.6-.8.5c-.6-.1-.7-.1-.6.3.2.6-2 2.8-2.8 2.8-.3 0-.5.1-.5.3 0 .5-2.1 1.5-2.6 1.3-.3-.1-.6 0-.8.2-.1.2 0 .5.3.6.5.2.5.3 0 .7-.4.4-.4.7-.2 1.2.2.4.5 1 .6 1.3.2.4.3 1.5.2 2.5-.1 1.5 0 1.8.5 1.8.3 0 .6.1.5.4 0 .3.5.5 1.1.6.6.1 1.3.4 1.3.6.1.3 1.1.1 2.8-.3 1.5-.4 2.9-.6 3.1-.5.3.1.6 0 .8-.2.1-.2 1.4-.5 2.7-.6 2.1-.1 2.6-.1 3.4.5.7.5.6.7-.8.9z"/><path d="M20.2 155.6c-.2.2-.4.6-.4.9 0 .5-1.5 1-2.7.8-.6-.1-1 0-1.4.7-.9 1.4-2 2.3-2.4 2.1-.2-.1-.6 0-.9.2-.4.4-.4.6-.1 1 .3.3.4.6.4.7-.1 0-.1.2-.1.4s.1.1.3-.2c.2-.3.4-.3.5-.1.1.2-.3.6-1 .8-.7.2-1.3.6-1.3.8 0 .2.3.2.7 0 .6-.3.7-.3.7.1 0 .3.3.6.6.7.5.1.4.2-.4.5-.6.2-1 .6-1 .8 0 .6.7.8 1.2.4s.9-.2.9.5c0 .2-.2.1-.4-.1-.3-.5-.4-.4-.4.1s.2.6 1.1.4c.9-.2 1-.1.9.3-.1.3-.4.6-.5.6-.2 0-.2.4.1.8.2.4.5.6.6.5.4-.5 2.9-.5 2.7 0-.1.2.1.8.5 1.1.6.8.6 2-.1 2.4-.2.1-1 .2-1.7.1-.8-.1-1.4 0-1.4.2s.2.3.4.2c.6-.4.4.1-.4.9l-.8.8.9-.1c1.6-.2 1.3 1-.4 1.6-2 .8-1.9 1.8.3 1.9 1.7.1 3 .9 1.4.9-.9 0-2.5 1.1-2.5 1.8 0 .1-.6.6-1.3.9-.7.4-1.1.8-1 .9.4.4 1.4.3 2.2-.2.5-.3 1.2-.5 1.8-.4.8.1 1.2 0 1.6-.5.5-.6 1-.6 3.1-.5 1.4.1 2.5 0 2.5-.2 0-.1.7-.3 1.5-.2 1.6.1 4.5-.9 4.5-1.5 0-.2-.3-.4-.5-.4-.7 0-.7-.9 0-1.2 1-.4 1.7-1.9 1.3-2.7-.5-.9-2.4-1.3-3.2-.7-.5.4-.6.4-.1-.1.4-.5.4-.8 0-1.6-.2-.6-.4-1.2-.4-1.4 0-.5-1-1.4-2-2-.4-.2-.9-.8-1-1.4-.4-1.4-1.3-2.5-2-2.6-.9 0-.8-1.1.1-1.8.4-.3.7-.7.7-.9 0-.3.3-.7.6-1 .9-.9.3-1.3-2-1.3-1.1 0-2.2-.2-2.3-.4-.1-.2 0-.4.2-.4.3 0 .8-.3 1.3-.7.5-.4.8-.7.6-.7-.2 0 0-.4.4-.8s.8-1 .9-1.2c.8-1-.9-1-1.4-.5zm-6.8 4.9c0 .2-.2.4-.4.4s-.3-.2-.1-.4c.1-.2.3-.4.4-.4 0 0 .1.2.1.4zM8.5 166.8c-.9.3-2.5 2.2-1.9 2.2.2 0 .3.2.2.4-.1.2-.9.3-1.8.2-1.3-.1-1.6 0-1.9.5-.3.5-.2.7.1.8.3.1.3.3 0 .6-.7.7-.6.9.4 1.2 1.3.3 1.1.9-.5 2.1-1.3 1-1.9 2.4-1 2.4.2 0 .3.2.1.4-.3.4-.2.4.2.3.4-.1.6-.1.6.1 0 .6 2.8 0 4.6-1 .9-.5 2.1-.9 2.8-.9 1 0 1.2-.1 1.5-1.4.3-.8.4-2 .4-2.8 0-1.2.1-1.5.9-1.8 1-.5 1.1-1.4.3-2.4-.8-.7-3.6-1.3-5-.9zM47.9 203.8c-.1.3-.6.7-1.1.8-.5.1-.9.5-1 .9-.2.9.3 2.6 1 3.1.6.4.5.5-.4 1.1-.8.5-1 .6-1.3.2-.2-.3-.4-.3-.5.2-.1.4 0 1 .3 1.4.3.4.4 1 .3 1.4-.5 2.8-.5 3 .3 3.5.6.3.9.3 1.2-.2.3-.4.7-.5 1-.4.7.3.9-.4 1-3.4.1-2 0-2.5-.5-2.9-.6-.4-.6-.6-.3-1.9.6-1.7.5-4.8 0-3.8z"/></g></svg>