<svg xmlns="http://www.w3.org/2000/svg" viewBox="0 0 68.4 258"><g fill="#9E2135"><path d="M14.523-.426c-.326.115-.54.326-.54.54 0 .19-.114.345-.267.345-.135 0-.48.173-.75.384-.29.23-.768.384-1.173.384-.442 0-.75.097-.808.29-.076.19-.268.25-.54.172-.787-.192-1.845 1.384-1.67 2.46 0 .097-.078.153-.193.153-.25 0-.75.48-.75.71 0 .098-.25.327-.576.5-.403.25-.52.443-.442.674.076.173-.25-.077-.73-.577-.732-.768-1.943-1.5-2.5-1.5-.097 0-.174.25-.174.54 0 .384.134.634.48.807.25.135.52.424.598.616.058.21.192.29.326.21.153-.076.135-.018-.018.174-.29.366-.135 1.173.29 1.54.152.133.383.46.498.73.27.634.366 3.98.135 4.132-.136.076-.117.25.017.5.21.422-.096 1.71-.423 1.71-.097 0-.173.115-.173.25 0 .133-.307.365-.672.518-.482.192-.674.384-.674.692 0 .23-.134.46-.29.538-.21.077-.267.25-.19.558.115.403.018.5-.75.79-.847.325-.884.383-.884 1.075 0 .462-.097.77-.29.848-.152.057-.288.326-.288.576 0 .29-.153.576-.385.692-.21.115-.346.29-.29.403.25.383.27 1.71.04 1.71-.134 0 .058.25.403.556.327.308.616.653.616.77s.097.21.192.21c.115 0 .192-.097.192-.232 0-.115.04-.173.097-.115.153.152-.116.73-.347.73-.116 0-.54.365-.96.807-.674.75-.73.903-.616 1.597.058.423.23.902.384 1.076.327.347.385.75.097.75-.5 0-.097.596.653.98.634.308.98.674 1.384 1.403.29.54.71 1.23.942 1.557.23.308.692 1.23 1.057 2.018.348.79.79 1.673 1 1.96.193.27.347.634.347.768 0 .153.174.442.385.635.21.193.384.5.384.692 0 .192.076.385.173.442.402.25 1.575 2.268 1.48 2.538-.173.46.23 1.21 1.173 2.153.903.923 3.517 2.575 4.632 2.94.327.116.616.27.616.348s.31.307.674.518c.366.193.673.424.673.52 0 .192.5.71.673.71.347 0 .98.884 1.192 1.692.558 2.075.98 6.574.597 6.574-.078 0-.154.21-.154.48s.058.482.153.482c.267 0 .5 7.862.23 8.535-.116.308-.076.616.134 1 .192.403.25.847.153 1.54-.097.748-.018 1.172.29 1.882.21.5.384 1.076.384 1.29 0 .19.097.364.193.364.115 0 .21.365.192.807 0 .46 0 1 .018 1.21.02.403-.134 2.633-.307 4.23-.04.518-.097 1.173-.097 1.423 0 .326-.078.423-.31.326-.25-.097-.288-.02-.172.403.058.307.25.672.403.846.154.153.27.423.27.557 0 .134.23.634.5 1.115.346.597.46 1 .383 1.384-.173.884.097 2.44.5 2.883.192.21.27.385.134.385s-.173.192-.097.576c.058.308.174.865.232 1.192.21 1.133.826 1.48 1.23.71.174-.29.153-.46-.018-.673-.116-.153-.153-.27-.077-.27s.04-.133-.097-.288c-.134-.153-.173-.29-.076-.29.076 0 .058-.096-.077-.23-.326-.326-.29-.597.077-.46.23.096.29.04.192-.174-.058-.173-.04-.25.076-.192.116.06.193.25.193.404 0 .153.096.268.21.268.097 0 .153.077.097.153-.058.097-.018.46.077.827.096.365.21 1.076.288 1.596.058.54.21 1.018.326 1.096.174.116.134.193-.134.29-.21.076-.442.173-.5.192-.058.04-.097-.174-.058-.46.058-.52-.173-.81-.653-.81-.154 0-.193.098-.097.233.25.422.23.73-.058.73-.135 0-.347.173-.46.365-.232.46-.25.808-.02.423.25-.403.98.077.98.653 0 .27-.096.482-.21.482-.134 0-.173.21-.115.577.076.364.02.65-.153.845-.153.153-.23.423-.174.576.135.367.597.404.692.098.058-.173.192-.173.5 0 .23.135.52.174.616.116.116-.058.135.02.077.173-.058.174-.04.308.077.308.346 0-.058 1.04-.5 1.268-.23.116-.366.27-.27.347.078.077.135.21.135.27.04.383.346.998.5.998.096 0 .152.058.134.135-.04.268.365 1.115.673 1.383.173.135.365.5.423.808.077.308.21.576.308.576.097.02.29.04.423.058.117 0 .29.365.348.79.058.422.134.672.153.575.02-.116.212.097.443.442.308.5.5.615.826.54.268-.078.575.038.883.325.25.232.52.403.597.366.097-.02.153.058.153.173 0 .21-.25.173-1.058-.116-.25-.097-.173.057.27.46.46.442.69.558.788.385.21-.31.596-.04.442.325-.058.153-.04.27.058.25.326-.077.846.25.846.518 0 .174.21.27.575.27.442 0 .54-.078.442-.31-.057-.172-.25-.267-.46-.21-.21.058-.366.02-.366-.076 0-.366.77-.153.982.25.134.25.21.48.192.54-.018.057.097.172.29.288.19.097.46.307.615.442.325.307.614.307.614-.02 0-.152.058-.133.192.06.097.152.25.288.327.307.076 0 .403.115.692.23.307.135.615.193.71.135.097-.06.21-.02.29.096s.21.153.307.097c.097-.077.173-.04.173.076s.384.19.865.173c.482 0 1 .097 1.153.23.173.135.366.193.442.117.077-.077-.04-.27-.23-.403-.31-.25-.232-.27.75-.192.9.057 1.075.04.98-.193-.058-.173.018-.29.192-.29.153 0 .326-.133.384-.288.077-.153.212-.29.308-.29.116 0 .097.117-.04.29-.19.232-.19.29.078.29.173 0 .308-.154.308-.385 0-.308-.135-.385-.674-.385-1 0-3.075-1.096-4.21-2.21-.556-.558-.96-1.096-.922-1.21.04-.116-.173-.347-.442-.54-.634-.423-1.634-1.845-1.634-2.364 0-.268.153-.44.48-.517.578-.135.75-.616.483-1.326-.232-.597-.135-.77.902-1.692.366-.326.577-.653.5-.79-.076-.114-.173-.383-.192-.575-.097-.597-.442-.884-1.04-.884-.614 0-1.825-.653-2.074-1.134-.44-.79.308-1.94 1.27-1.94.48 0 .748-.29.422-.5-.153-.098-.134-.175.04-.27.19-.134.173-.326-.077-.96l-.308-.826.576-.54c.327-.307.71-.557.866-.557.306 0 .345-.443.075-.96-.173-.31-.347-.367-1.04-.27l-.845.116-.46-1.02c-.27-.575-.404-1.075-.31-1.095.098-.038.52.06.943.232.903.365 1.518.384 2.19.076.5-.21.654-.788.27-1.038-.134-.077-.153-.384-.076-.79.096-.5.04-.767-.21-1.038-.328-.365-.328-.384.017-.25.25.097.308.077.21-.076-.096-.174.117-.23.75-.23 2.058 0 4.71-.962 4.71-1.693 0-.192.076-.423.173-.518.674-.75.577-2.402-.153-2.402-.384 0-.596-.347-.596-1.04 0-.5-.46-.96-1.384-1.422-.347-.19-.673-.5-.71-.71-.06-.365-.06-.365.307-.057.212.192.654.346.982.346.347 0 .615.076.615.173 0 .25.903.46 2.21.5 1.597.076 2.307-.347 2.518-1.423.076-.327.173-.597.25-.597.23 0 .73-1.04.865-1.75.077-.44.366-.883.79-1.268.48-.423.633-.69.538-.94-.116-.29-.134-.29-.27.096-.152.385-.672.732-.845.558-.058-.04.115-.384.384-.73.268-.366.48-.847.48-1.058 0-.25.117-.424.31-.424.21 0 .267.135.21.442-.04.25.04.482.173.54.173.057.326-.174.48-.71.5-1.808.616-2.077 1.154-2.653.75-.79 1-2.057.652-3.076-.25-.692-.326-2.865-.115-2.807.154.04 1.75-1.597 1.75-1.79 0-.096.27-.21.576-.288.327-.076.577-.21.577-.326 0-.117.25-.154.673-.078.423.077.673.058.673-.076 0-.097-.098-.192-.212-.192-.097 0-.153-.077-.097-.174.212-.326 2.616-1 3.634-1 .98-.018 1.058-.057 1.153-.538.076-.29.365-.634.73-.847.482-.268.577-.423.482-.768-.098-.384.25-1.29 1.345-3.422.174-.327.21-.826.153-1.46-.097-.75-.057-1.02.232-1.29.326-.325.557-1.9.5-3.48 0-.325-.04-1.44-.077-2.498-.077-1.826.058-2.402.54-2.402.21 0 .633-.597 1.056-1.54.672-1.517.825-1.767 1.288-2.19.596-.557 2.115-2.672 2.346-3.267.442-1.153.423-2.538-.058-4.23-.27-.923-.54-1.73-.597-1.788-.077-.077-.635-.192-1.25-.27-1.23-.133-1.25-.152-2.807-1.65-.576-.54-1.518-1.27-2.115-1.598-.96-.557-1.134-.596-1.902-.423-.615.133-.96.096-1.346-.098-.29-.153-.597-.21-.71-.153-.098.076-.404 0-.654-.174-.576-.384-1.71-.597-1.538-.29.097.154 0 .174-.308.077-.558-.192-.903-.518-.808-.79.04-.133-.057-.364-.23-.517-.154-.173-.29-.384-.29-.5 0-.115-.076-.21-.192-.21-.097 0-.192.076-.192.19 0 .212-1.365-.364-1.576-.672-.076-.115-.153-.115-.153-.018 0 .096-.116.057-.27-.058-.268-.21-.75-.366-1.596-.5-.518-.077-1.19.384-1.423 1-.306.807-.364.402-.075-.424.384-1.115.365-1.19-.423-1.307-.442-.077-.827-.29-.98-.52-.136-.21-.348-.383-.5-.383-.27 0-.27-.268 0-1.384.075-.384 0-.673-.328-1.096-.25-.308-.557-.576-.652-.576-.232-.02-.674-1.5-.674-2.29 0-.44-.75-1.748-.768-1.345 0 .077-.48-.326-1.096-.903-.597-.576-1.173-1.057-1.308-1.057s-.5-.134-.846-.308c-.692-.347-2.923-.54-3.096-.268-.21.346-1.634-.21-2.46-.98-.46-.404-.923-.75-1.018-.75s-.174-.193-.174-.443c-.018-.23-.173-.615-.365-.847-.54-.652-2.115-1.557-2.5-1.46-.422.116-.71-.25-.46-.576.29-.383.174-.788-.268-1-.25-.096-.443-.25-.443-.325 0-.097-.153-.153-.347-.153-.192 0-.46-.116-.577-.23-.192-.193-.29-.193-.423.038-.115.173-.192.192-.192.058 0-.116-.058-.347-.116-.52-.076-.19-.018-.307.153-.307.153 0 .442-.133.653-.288.327-.29.21-.29-1.46-.21-1 .057-1.884.115-1.96.115-.097 0-.153.116-.153.25 0 .153-.21.366-.46.5-.577.308-1.847-.04-1.847-.5 0-.25-.23-.27-1.634-.153l-1.633.134v-.5c0-.557-.923-1.268-1.672-1.268-.327 0-.442-.115-.442-.442 0-.557-.135-.71-.5-.576-.153.058-.27.366-.27.75 0 .54-.075.673-.517.768-.31.077-.79.308-1.098.52-.48.345-.557.345-.442.075.058-.173.04-.326-.057-.326-.116 0-.193-.175-.193-.385 0-.232.135-.385.308-.385.347 0 .826-.518.847-.902 0-.393-.634-.604-1.192-.374zm.808 4.537c0 .462-.307.96-.576.96-.076 0-.25-.325-.384-.748-.21-.653-.192-.79.116-1.153l.347-.404.25.442c.132.23.227.634.248.903zm3.594 42.158c.27.307.366.538.25.71-.134.23-.192.21-.307-.058-.058-.173-.232-.326-.366-.326-.133 0-.288-.173-.346-.384-.132-.52.252-.48.77.058zm37.16 12.438c0 .097-.04.193-.077.193-.058 0-.153-.098-.21-.193-.06-.116-.02-.193.075-.193.116 0 .21.077.21.192zm-7.17 12.533c-.058.152-.115.096-.115-.117-.02-.21.038-.326.095-.25.057.06.075.232.02.366zm-13.88 19.954c.057.096-.058.192-.27.192-.23 0-.402-.097-.402-.192 0-.116.116-.193.27-.193s.344.078.402.193zm-10.4 3.172c-.076.153-.19.23-.288.173-.21-.117-.04-.462.21-.462.097 0 .137.133.08.288zm-.365.692c.19.576 0 .634-.25.076-.116-.27-.135-.48-.04-.48.097 0 .23.172.29.404zm.865.634c0 .04-.135.115-.29.192-.152.058-.288.018-.288-.077 0-.115.134-.192.29-.192s.288.04.288.077zm8.65 12.226c0 .46.326.653 1.057.615.557-.04.557-.018.134.21-.23.136-.366.328-.29.443.098.097-.018 0-.21-.21-.27-.29-.384-.327-.46-.135-.04.175-.174.078-.347-.25-.31-.614-.367-1.325-.078-1.15.116.055.192.286.192.478zm-1.25-.02c-.058.117-.27.212-.442.212-.25 0-.25-.04.076-.268.404-.29.577-.27.365.057zM45.608 105.014c-.21.097-.52.116-.674.058-.23-.076-.25-.04-.04.174.328.347.29.768-.056.634-.54-.21-.29.29.268.597.558.288.576.268 1.192-.443.326-.402.54-.538.46-.326-.346.923-.346 1.058.02 1.058.21 0 .788-.25 1.288-.558.826-.48.884-.558.597-.808-.174-.153-.73-.29-1.21-.307-.482 0-1.02-.077-1.174-.116-.154-.058-.462-.04-.672.038z"/></g><g fill="#7F7F7F"><path d="M14.523 133.246c-.326.116-.54.327-.54.54 0 .19-.114.346-.267.346-.135 0-.48.174-.75.384-.29.232-.768.385-1.173.385-.442 0-.75.097-.808.29-.076.192-.268.25-.54.173-.787-.192-1.845 1.384-1.67 2.46 0 .097-.078.153-.193.153-.25 0-.75.48-.75.71 0 .097-.25.327-.576.5-.403.25-.52.442-.442.673.076.173-.25-.077-.73-.577-.732-.768-1.943-1.5-2.5-1.5-.097 0-.174.25-.174.54 0 .384.134.634.48.807.25.134.52.423.598.615.058.21.192.29.326.21.153-.075.135-.017-.018.175-.29.365-.135 1.173.29 1.538.152.134.383.46.498.73.27.635.366 3.98.135 4.134-.136.076-.117.25.017.5.21.423-.096 1.71-.423 1.71-.097 0-.173.115-.173.25s-.307.365-.672.518c-.482.192-.674.384-.674.692 0 .23-.134.46-.29.54-.21.076-.267.25-.19.557.115.402.018.498-.75.787-.847.327-.884.385-.884 1.077 0 .46-.097.768-.29.846-.152.058-.288.327-.288.576 0 .29-.153.577-.385.692-.21.116-.346.29-.29.403.25.385.27 1.71.04 1.71-.134 0 .058.25.403.56.327.307.616.652.616.767 0 .116.097.21.192.21.115 0 .192-.096.192-.23 0-.116.04-.173.097-.116.153.154-.116.732-.347.732-.116 0-.54.366-.96.808-.674.75-.73.903-.616 1.596.058.424.23.903.384 1.076.327.347.385.75.097.75-.5 0-.097.597.653.98.634.31.98.674 1.384 1.403.29.54.71 1.23.942 1.558.23.307.692 1.23 1.057 2.018.348.79.79 1.673 1 1.96.193.27.347.635.347.77 0 .152.174.44.385.633.21.192.384.5.384.692s.076.384.173.442c.402.25 1.575 2.268 1.48 2.538-.173.46.23 1.21 1.173 2.152.903.923 3.517 2.576 4.632 2.94.327.117.616.27.616.348s.31.308.674.52c.366.19.673.422.673.517 0 .192.5.71.673.71.347 0 .98.885 1.192 1.692.558 2.076.98 6.574.597 6.574-.078 0-.154.21-.154.48s.058.482.153.482c.267 0 .5 7.863.23 8.536-.116.308-.076.615.134 1 .192.403.25.846.153 1.538-.097.75-.018 1.173.29 1.884.21.5.384 1.076.384 1.288 0 .192.097.366.193.366.115 0 .21.365.192.807 0 .46 0 1 .018 1.21.02.403-.134 2.633-.307 4.23-.04.518-.097 1.172-.097 1.422 0 .327-.078.424-.31.327-.25-.098-.288-.02-.172.402.058.307.25.673.403.846.154.153.27.423.27.558 0 .134.23.634.5 1.115.346.598.46 1 .383 1.385-.173.884.097 2.44.5 2.883.192.21.27.384.134.384s-.173.192-.097.576c.058.308.174.866.232 1.192.21 1.134.826 1.48 1.23.71.174-.288.153-.46-.018-.672-.116-.153-.153-.27-.077-.27s.04-.133-.097-.288c-.134-.153-.173-.29-.076-.29.076 0 .058-.096-.077-.23-.326-.327-.29-.597.077-.46.23.096.29.038.192-.174-.058-.174-.04-.25.076-.192s.193.25.193.402c0 .153.096.27.21.27.097 0 .153.076.097.152-.058.097-.018.46.077.826.096.366.21 1.076.288 1.597.058.54.21 1.02.326 1.097.174.116.134.192-.134.29-.21.076-.442.172-.5.19-.058.04-.097-.172-.058-.46.058-.518-.173-.807-.653-.807-.154 0-.193.097-.097.23.25.424.23.732-.058.732-.135 0-.347.174-.46.366-.232.46-.25.807-.02.423.25-.402.98.077.98.654 0 .268-.096.48-.21.48-.134 0-.173.212-.115.577.076.367.02.654-.153.848-.153.153-.23.423-.174.576.135.366.597.403.692.097.058-.172.192-.172.5 0 .23.135.52.174.616.117.116-.058.135.018.077.173-.058.173-.04.308.077.308.346 0-.058 1.038-.5 1.268-.23.115-.366.268-.27.347.078.076.135.21.135.268.04.385.346 1 .5 1 .096 0 .152.06.134.135-.04.27.365 1.115.673 1.384.173.133.365.5.423.806.077.308.21.577.308.577.097.018.29.04.423.058.117 0 .29.366.348.79.058.423.134.673.153.576.02-.116.212.097.443.442.308.5.5.615.826.54.268-.078.575.038.883.325.25.23.52.403.597.365.097-.018.153.058.153.174 0 .21-.25.173-1.058-.116-.25-.097-.173.058.27.46.46.443.69.56.788.385.21-.307.596-.038.442.328-.058.153-.04.268.058.25.326-.077.846.25.846.518 0 .173.21.27.575.27.442 0 .54-.078.442-.31-.057-.173-.25-.268-.46-.21s-.366.02-.366-.076c0-.366.77-.153.982.25.134.25.21.48.192.538-.018.058.097.174.29.29.19.096.46.307.615.44.325.31.614.31.614-.017 0-.152.058-.134.192.058.097.153.25.29.327.308.076 0 .403.116.692.23.307.136.615.193.71.136.097-.058.21-.02.29.097s.21.152.307.095c.097-.076.173-.04.173.077 0 .116.384.192.865.173.482 0 1 .097 1.153.232.173.134.366.192.442.115.077-.076-.04-.268-.23-.403-.31-.25-.232-.27.75-.193.9.058 1.075.04.98-.192-.058-.173.018-.29.192-.29.153 0 .326-.133.384-.288.077-.153.212-.29.308-.29.116 0 .097.117-.04.29-.19.23-.19.29.078.29.173 0 .308-.154.308-.385 0-.308-.135-.384-.674-.384-1 0-3.075-1.097-4.21-2.21-.556-.558-.96-1.097-.922-1.21.04-.116-.173-.348-.442-.54-.634-.423-1.634-1.846-1.634-2.364 0-.27.153-.442.48-.52.578-.133.75-.614.483-1.325-.232-.598-.135-.77.902-1.692.366-.327.577-.653.5-.79-.076-.115-.173-.383-.192-.575-.097-.597-.442-.884-1.04-.884-.614 0-1.825-.654-2.074-1.135-.44-.79.308-1.942 1.27-1.942.48 0 .748-.29.422-.5-.153-.096-.134-.173.04-.268.19-.134.173-.327-.077-.96l-.308-.827.576-.54c.327-.306.71-.556.866-.556.306 0 .345-.442.075-.96-.173-.31-.347-.366-1.04-.27l-.845.116-.46-1.018c-.27-.576-.404-1.076-.31-1.097.098-.04.52.058.943.232.903.365 1.518.384 2.19.076.5-.21.654-.788.27-1.038-.134-.076-.153-.384-.076-.788.096-.5.04-.77-.21-1.04-.328-.365-.328-.383.017-.25.25.098.308.077.21-.076-.096-.173.117-.23.75-.23 2.058 0 4.71-.96 4.71-1.692 0-.192.076-.424.173-.52.674-.748.577-2.4-.153-2.4-.384 0-.596-.348-.596-1.04 0-.5-.46-.96-1.384-1.422-.347-.193-.673-.5-.71-.71-.06-.367-.06-.367.307-.06.212.193.654.348.982.348.347 0 .615.076.615.173 0 .25.903.46 2.21.5 1.597.077 2.307-.347 2.518-1.423.076-.326.173-.596.25-.596.23 0 .73-1.04.865-1.75.077-.442.366-.884.79-1.268.48-.423.633-.692.538-.942-.116-.29-.134-.29-.27.097-.152.384-.672.73-.845.558-.058-.038.115-.383.384-.73.268-.366.48-.847.48-1.058 0-.25.117-.423.31-.423.21 0 .267.133.21.44-.04.25.04.482.173.54.173.058.326-.173.48-.71.5-1.808.616-2.076 1.154-2.653.75-.788 1-2.057.652-3.075-.25-.692-.326-2.864-.115-2.807.154.04 1.75-1.596 1.75-1.788 0-.097.27-.21.576-.29.327-.076.577-.21.577-.325 0-.116.25-.153.673-.077s.673.058.673-.076c0-.098-.098-.194-.212-.194-.097 0-.153-.076-.097-.173.212-.326 2.616-1 3.634-1 .98-.018 1.058-.057 1.153-.538.076-.29.365-.635.73-.847.482-.27.577-.423.482-.768-.098-.385.25-1.29 1.345-3.423.174-.326.21-.826.153-1.46-.097-.75-.057-1.018.232-1.288.326-.328.557-1.904.5-3.48 0-.328-.04-1.443-.077-2.5-.077-1.826.058-2.402.54-2.402.21 0 .633-.597 1.056-1.54.672-1.517.825-1.767 1.288-2.19.596-.558 2.115-2.673 2.346-3.268.442-1.152.423-2.538-.058-4.23-.27-.922-.54-1.73-.597-1.788-.077-.076-.635-.192-1.25-.268-1.23-.135-1.25-.153-2.807-1.653-.576-.538-1.518-1.267-2.115-1.595-.96-.558-1.134-.597-1.902-.423-.615.134-.96.097-1.346-.097-.29-.153-.597-.21-.71-.153-.098.076-.404 0-.654-.174-.576-.384-1.71-.596-1.538-.29.097.154 0 .175-.308.078-.558-.192-.903-.52-.808-.79.04-.133-.057-.364-.23-.517-.154-.175-.29-.386-.29-.5s-.076-.212-.192-.212c-.097 0-.192.077-.192.192 0 .21-1.365-.365-1.576-.673-.076-.116-.153-.116-.153-.02s-.116.06-.27-.057c-.268-.21-.75-.365-1.596-.5-.518-.076-1.19.385-1.423 1-.306.808-.364.403-.075-.423.384-1.115.365-1.192-.423-1.307-.442-.077-.827-.29-.98-.52-.136-.21-.348-.383-.5-.383-.27 0-.27-.27 0-1.384.075-.384 0-.673-.328-1.096-.25-.308-.557-.577-.652-.577-.232-.018-.674-1.5-.674-2.288 0-.442-.75-1.75-.768-1.346 0 .076-.48-.327-1.096-.903-.597-.576-1.173-1.057-1.308-1.057s-.5-.135-.846-.308c-.692-.347-2.923-.54-3.096-.27-.21.348-1.634-.21-2.46-.98-.46-.402-.923-.75-1.018-.75s-.174-.19-.174-.44c-.018-.232-.173-.617-.365-.848-.54-.653-2.115-1.557-2.5-1.46-.422.116-.71-.25-.46-.576.29-.385.174-.79-.268-1-.25-.097-.443-.25-.443-.326 0-.097-.153-.153-.347-.153-.192 0-.46-.116-.577-.232-.192-.192-.29-.192-.423.04-.115.173-.192.192-.192.057 0-.115-.058-.346-.116-.518-.076-.192-.018-.308.153-.308.153 0 .442-.134.653-.29.327-.288.21-.288-1.46-.21-1 .058-1.884.116-1.96.116-.097 0-.153.116-.153.25 0 .153-.21.365-.46.5-.577.307-1.847-.04-1.847-.5 0-.25-.23-.27-1.634-.153l-1.633.134v-.5c0-.556-.923-1.267-1.672-1.267-.327 0-.442-.115-.442-.442 0-.556-.135-.71-.5-.575-.153.058-.27.365-.27.75 0 .538-.075.673-.517.768-.31.076-.79.308-1.098.518-.48.348-.557.348-.442.078.058-.173.04-.326-.057-.326-.116 0-.193-.174-.193-.385 0-.23.135-.384.308-.384.347 0 .826-.518.847-.903 0-.392-.634-.605-1.192-.374zm.808 4.538c0 .46-.307.96-.576.96-.076 0-.25-.326-.384-.75-.21-.652-.192-.788.116-1.152l.347-.403.25.44c.132.23.227.633.248.904zm3.594 42.156c.27.308.366.54.25.71-.134.232-.192.212-.307-.057-.058-.173-.232-.326-.366-.326-.133 0-.288-.174-.346-.384-.132-.52.252-.482.77.057zm37.16 12.438c0 .096-.04.192-.077.192-.058 0-.153-.097-.21-.192-.06-.116-.02-.193.075-.193.116 0 .21.077.21.192zm-7.17 12.534c-.058.153-.115.096-.115-.116-.02-.21.038-.326.095-.25.057.058.075.23.02.366zm-13.88 19.954c.057.097-.058.192-.27.192-.23 0-.402-.097-.402-.192 0-.115.116-.192.27-.192s.344.077.402.192zm-10.4 3.17c-.076.154-.19.232-.288.174-.21-.116-.04-.46.21-.46.097 0 .137.134.08.287zm-.365.693c.19.575 0 .633-.25.075-.116-.268-.135-.48-.04-.48.097 0 .23.174.29.404zm.865.634c0 .04-.135.116-.29.192-.152.058-.288.02-.288-.076 0-.116.134-.192.29-.192s.288.037.288.076zm8.65 12.227c0 .46.326.654 1.057.616.557-.04.557-.018.134.21-.23.135-.366.327-.29.443.098.096-.018 0-.21-.212-.27-.29-.384-.326-.46-.134-.04.173-.174.076-.347-.25-.31-.615-.367-1.326-.078-1.153.116.057.192.287.192.48zm-1.25-.02c-.058.116-.27.21-.442.21-.25 0-.25-.038.076-.267.404-.288.577-.27.365.057zM45.608 238.687c-.21.097-.52.116-.674.058-.23-.077-.25-.04-.04.173.328.347.29.77-.056.634-.54-.21-.29.29.268.597.558.288.576.268 1.192-.443.326-.403.54-.54.46-.326-.346.924-.346 1.058.02 1.058.21 0 .788-.25 1.288-.557.826-.48.884-.557.597-.807-.174-.153-.73-.29-1.21-.308-.482 0-1.02-.076-1.174-.115-.154-.06-.462-.04-.672.037z"/></g></svg>