<svg xmlns="http://www.w3.org/2000/svg" viewBox="0 0 118.7 324.9"><g fill="#9E2135"><path d="M22.49-.433c-.818.204-.878.228-.602.337.227.096.227.108-.024.108-.396.012-.458.24-.145.565.3.313.54.372.625.132.047-.12.07-.12.07 0 .013.084.098.156.193.156.097 0 .18-.072.18-.157 0-.098.036-.098.11.023.06.097.19.133.3.097.11-.048.434 0 .71.097.552.18 2.248.422 3.054.422.54 0 .818-.217.41-.326-.145-.036-.254-.157-.254-.277 0-.277-.29-.373-1.227-.434-.95-.06-1.226-.144-1.07-.336.097-.11-.06-.18-.626-.3-1.176-.243-1.2-.243-1.705-.11zM99.906 13.3c-.157-.048-.24-.12-.204-.18.035-.06 0-.11-.06-.11-.07 0-.24-.108-.36-.227-.24-.24-.24-.24.07-.277.18-.024.35-.11.373-.204.036-.12 0-.145-.132-.097-.12.047-.168.023-.133-.072.024-.085-.097-.24-.29-.348-.563-.337-2.62-.818-3.485-.818-.602 0-.95-.07-1.408-.29-.65-.324-6.05-1.67-7.817-1.96-.59-.096-1.538-.19-2.104-.215-1.54-.07-2.923-.18-3.186-.265-.192-.048-.18-.012.097.253.18.168.384.313.445.313.06 0 .313.12.565.265l.457.277-.337.036c-.192.025-.408-.01-.493-.084-.085-.07-.408-.168-.72-.204-.313-.048-.59-.12-.614-.168-.036-.06.047-.072.18-.036s.24 0 .24-.07c0-.073-.036-.122-.085-.122-.06.012-.29 0-.517-.012l-.422-.036.842-.168-.384-.036c-.747-.07-.818-.06-.818.12 0 .134-.133.18-.54.17-.975-.036-3.186-.048-3.368-.025-.422.06-1.444-.17-1.444-.337 0-.228-.564-.493-1.526-.72-.662-.157-1.19-.18-2.693-.122-1.503.06-1.948.05-2.297-.096-.228-.096-.673-.204-.998-.253-.83-.096-1.154-.19-1.07-.312.19-.312-2.2-.625-2.563-.336-.108.097-.168.11-.12.024.132-.204-.133-.254-2.382-.458-2.44-.216-2.356-.216-1.984 0l.302.17-.445.01c-.35 0-.434.036-.385.18.048.098.216.18.385.18.168 0 .265.037.216.086-.036.047.07.156.253.24l.336.156-.36-.07c-.192-.05-.47-.073-.602-.073-.132.012-.578.024-.998.024-.41 0-.877.06-1.02.11-.17.06-.506.06-.82-.012-.288-.06-.648-.12-.793-.133-.134-.012-.23-.06-.193-.12.024-.048-.012-.085-.097-.085-.07 0-.11.096-.07.204.252.805.264.758-.17.685-.625-.122-1.564-.58-2.007-1-.216-.203-.48-.372-.578-.372s-.17-.07-.17-.156c0-.337-2.175-.95-2.355-.66-.036.046-.132.058-.204.01-.085-.047-.277-.108-.445-.12-.168-.024-.54-.097-.84-.168-.385-.085-.553-.085-.58 0-.023.07-.096.108-.155.06-.06-.037-.11 0-.11.06 0 .07.11.19.24.276.133.085.24.18.24.216 0 .06-1.02.047-2.164-.048-.36-.024-.77-.048-.9-.06-.182-.01-.205-.035-.073-.12.097-.06.11-.133.036-.18-.168-.097-3.08-.133-3.235-.036-.18.11-.998-.372-.998-.59 0-.12-.156-.168-.553-.168-.445 0-.564.047-.613.228-.036.156-.133.204-.29.168-.12-.036-.312-.024-.42.012-.157.06-.17.11-.048.24.108.144.06.203-.325.3-.577.17-1.153.17-1.057.012.036-.07.204-.12.36-.12.157 0 .337-.072.385-.157.12-.18.434-.372 1.142-.72.313-.145.602-.337.638-.434.11-.277-.422-.746-.782-.697-.168.024-.228.024-.145 0 .122-.048.11-.097-.058-.228-.253-.192-.445-.216-.337-.048.12.193-.085.145-.324-.085-.18-.156-.492-.204-1.694-.204-.806-.01-1.6.037-1.756.098-.216.072-.266.06-.228-.06.085-.24-.12-.59-.337-.59-.097 0-.144.05-.11.122.122.18-.395.144-.707-.06-.325-.216-1.95-.348-2.31-.192-.324.145-.456.47-.276.685.11.145.036.168-.41.168-.3 0-.564.05-.59.11-.012.06-.24.145-.493.18-.337.048-.434.036-.373-.06.12-.203-2.213-.035-2.417.18-.085.086-.53.193-.975.23-.445.047-.938.167-1.094.276-.18.11-.41.156-.59.12-.168-.047-.288-.023-.288.048 0 .06-.085.12-.18.12s-.18.098-.193.205c0 .132-.036.155-.072.06-.085-.217-.48-.182-.564.046-.048.11-.036.24 0 .277.047.036.108 0 .132-.07.036-.11.12-.11.337.035.156.096.372.168.493.144.11-.024.228.036.253.11.07.19-.878.215-.987.035-.036-.072-.168-.12-.277-.12-.168 0-.168.023-.036.108.254.156-.12.24-1.298.277l-1.01.024.348.277c.192.156.47.396.602.528.156.158.48.278.818.314.3.036.552.11.552.168 0 .048.097.12.216.145.11.036.024.06-.192.07-.228 0-.552-.058-.72-.155-.29-.156-1.034-.325-2.262-.517-.24-.036-.42.012-.517.133-.144.168-.12.192.12.204.314.012.24.047-.3.168-.336.07-.336.085-.11.24.122.085.423.216.65.29.397.13.397.13-.167.084-.59-.048-.915-.29-.927-.685 0-.217-.493-.71-.697-.71-.085 0-.253-.072-.384-.145-.168-.11-.265-.12-.372-.012-.097.097-.024.17.253.266.216.07.445.095.517.046.06-.036.085-.012.035.06-.035.07-.023.156.048.204.216.132.12.277-.24.36-.192.048-.36.156-.36.24 0 .085-.06.18-.145.204-.07.024.17.204.553.396.65.325.674.36.603.733-.06.312-.024.42.18.552.144.085.253.228.253.325 0 .132.18.144.877.097.747-.06.806-.048.41.06-.614.167-.685.407-.253.757.277.228.324.313.204.434-.085.085-.157.277-.157.42 0 .205-.097.29-.36.35-.216.048-.36.156-.36.265 0 .145-.085.168-.385.11-.216-.037-.445-.134-.516-.205-.085-.085-.06-.097.07-.048.134.048.254-.06.41-.42.12-.266.252-.482.3-.482.06 0 .085-.18.07-.396-.01-.337-.084-.422-.516-.614-.29-.12-.516-.29-.516-.36 0-.072-.12-.325-.266-.553-.144-.228-.277-.517-.3-.638-.048-.3-.313-.54-.697-.637-.227-.06-.277-.12-.192-.204.18-.18.157-.578-.035-.842-.12-.156-.422-.253-.998-.312-.493-.06-.65-.11-.396-.12.395-.025.407-.025.19-.193-.3-.23-1.2-.254-1.13-.037.036.085-.012.228-.108.313-.085.085-.157.372-.157.626 0 .408-.047.504-.36.66-.446.23-.47.506-.06.662.228.085.3.204.3.47 0 .384.266.673.518.577.097-.034.325.05.517.17.192.132.47.29.625.348.266.11.35.3.18.396-.06.036-.47-.097-.938-.29-1.214-.492-1.42-.468-.865.11.24.253.445.505.445.564-.024.422-1.334 1.347-2.55 1.804-.313.12-.625.277-.697.36-.085.097.085.59.553 1.636.685 1.515.998 2.86 1.01 4.22 0 .722.168 1.155.613 1.565.626.578.337 1.54-.47 1.54-.19 0-.444.107-.563.238-.204.217-.204.24.07.59.157.193.423.554.59.783.41.578.807.578 1.312.012.47-.54.84-.552 1.142-.048.192.313.192.446.07.927-.12.517-.12.578.11.746.794.59.794.59.638.697-.204.145.047.36.66.565.807.277.615.974-.24.865-.323-.048-.48-.012-.527.11-.085.215-.373.215-.59-.013-.11-.097-.29-.18-.422-.18-.12 0-.228-.06-.228-.133 0-.096-.18-.12-.578-.058-.352.05-.625.023-1.004-.096.154.818.295 1.586.59 2.095.008.014.018.026.025.042.788-.53 1.934-.48 2.595.567.19.305.464.496.82.572 1.246.556 1.166 1.833.47 2.654.113.122.228.245.332.374.372.466.687.964.96 1.48 1.032 1.22 1.546 2.906 1.82 4.628.207.145.435.27.695.362.71.255 1.465.95 1.367 1.797-.284 2.433.655 4.724.753 7.11.323.23.63.49.935.763.493.44.64 1.193.48 1.812-.206.79-.082 1.193.634 1.622.29.173.5.404.64.663.472-.034.61.054.61.324 0 .158.086.24.23.24.143 0 .252.122.312.326.097.408.396.758.637.758.098 0 .338.156.518.36.493.505.986.733 1.455.65.373-.06.384-.06.17.12-.24.193-.435.24-.82.205-.12-.013-.215.034-.215.12 0 .227 1.66 1.79 1.89 1.79.624-.023 1.525-.84 1.25-1.118-.12-.12-.036-.564.11-.564.046 0 .058.133.022.3-.023.18 0 .302.085.302s.11.06.072.12c-.048.072.012.29.11.505.13.254.167.517.12.794-.048.227-.024.6.047.84.313 1.096.54 1.937.685 2.575.084.372.36 1.07.6 1.564.254.48.553 1.07.662 1.297.12.228.3.733.396 1.13.11.385.373.975.602 1.324.445.662 1.046 2.08 1.046 2.442 0 .313.65 1.31.962 1.48.348.18.782-.098.877-.58.085-.383.505-.577.95-.433.18.047.228.023.192-.086-.035-.097-.132-.168-.227-.168-.193 0-.193-.097-.06-.578.07-.24.18-.325.396-.325.265 0 .29-.035.216-.348-.12-.59-.11-1.55.036-1.72.192-.228.204-1.214.024-2.14-.228-1.288-.17-1.636.312-1.516.228.06.3.023.36-.228.036-.17.145-.3.24-.3.41 0 .77-.29.77-.627 0-.18.048-.337.11-.337.19 0 1.395-1.213 1.78-1.803.203-.313.577-.662.84-.782.254-.133.58-.36.733-.505.278-.253.3-.396.24-.986-.024-.157.048-.325.145-.372.097-.048.3-.145.457-.228.215-.11.288-.11.336.035.07.18.528.157 1.178-.047.192-.072.493-.12.66-.12.423-.013.916-.397.82-.638-.037-.11-.025-.228.022-.266.06-.023.133.06.17.193.034.143.12.214.18.18.132-.086.264.19.264.54 0 .288.265.732.806 1.346.216.24.396.505.396.578s.097.11.216.085c.24-.073.552.203.47.42-.025.085 0 .24.06.35.07.155.058.215-.05.215-.108 0-.108.035 0 .144.122.12.18.12.24.01.145-.215.35-.023.614.58.204.445.228.696.18 1.454l-.07.9.336.098c.673.18.89.17 1.057-.085.097-.132.36-.372.602-.528.277-.194.433-.398.433-.566.012-.372.806 1.3.915 1.9.036.266.156.626.24.807.097.18.168.458.168.638s.07.3.168.3.23.17.302.373c.18.506.17.59-.047.518-.133-.06-.157-.024-.11.12.037.11.122.193.18.193.05 0 .037.17-.035.373-.097.277-.156.325-.227.204-.06-.085-.11-.11-.11-.036 0 .23.193.41.422.386.266-.024.396.348.192.552-.085.085-.18.072-.312-.036-.11-.096-.18-.096-.18-.023 0 .07.096.18.203.252.228.12.29.938.12 1.635-.12.505.037 1.55.193 1.396.24-.24.566-.156.566.133 0 .227.023.24.12.097.085-.145.12-.145.12-.012 0 .086.17.36.36.614.326.408.35.48.182.578-.18.097-.18.12-.012.254.168.132.192.132.192-.06 0-.204.012-.204.18.024.097.144.156.48.145.758-.012.277.035.54.108.59.073.048.17.313.217.59.036.29.204.65.373.83s.3.445.3.59c0 .192.228.42.878.853.95.638 1.166.842 1.118 1.046-.023.085-.012.11.012.048.11-.18.422-.085.35.11-.05.143-.025.18.107.12.12-.048.18.01.18.168 0 .132.06.24.133.24.085 0 .11-.11.072-.254-.048-.192-.036-.216.097-.11.108.098.18.098.24 0 .12-.19-.048-.36-.397-.37-.204-.013-.253-.037-.11-.072.11-.024.205-.133.205-.228 0-.097-.035-.157-.085-.133-.06.036-.108-.07-.108-.228-.012-.156-.17-.48-.35-.72-.288-.373-.324-.53-.324-1.287.012-.48-.047-1.034-.132-1.228-.133-.348-1.083-1.382-1.263-1.382-.048 0-.192-.168-.313-.372-.157-.253-.29-.35-.434-.313-.372.097-.685-.24-.853-.903-.07-.348-.216-.696-.29-.758-.18-.144-.336-.902-.19-.902.12 0 .108-.313-.025-.434-.048-.047-.085.036-.085.18 0 .313-.337.48-.493.24-.156-.228-.06-1.24.18-2.032.12-.36.216-.985.228-1.382.024-.697.036-.72.36-.758.3-.035.325-.012.325.434 0 .445.012.47.422.48.517.025.902.217.902.458 0 .11.085.168.216.145.133-.024.266.097.41.384.12.228.204.493.216.564 0 .193.432.64.613.64.06 0 .085-.073.035-.158-.047-.085-.035-.108.024-.047.11.11.12.156.157.505.022.29.252.216.252-.085 0-.228.024-.24.216-.072.11.097.313.216.445.265.168.06.192.11.085.18-.216.133-.168 1.456.06 1.456.085 0 .216-.11.3-.24.086-.144.385-.384.662-.552.47-.266.66-.565.697-1.07.012-.073.07-.11.156-.086.204.035.83-.3 1.214-.65.168-.156.372-.29.457-.29.17 0 .3-.624.228-1.105-.024-.18.012-.3.06-.265.06.036.108-.047.108-.18 0-.132-.047-.265-.108-.3-.048-.036-.133-.325-.17-.638-.034-.313-.155-.747-.252-.94-.11-.203-.192-.444-.192-.55 0-.098-.156-.338-.36-.53-.193-.192-.36-.408-.36-.493 0-.085-.098-.18-.23-.228-.276-.085-1.694-1.443-1.694-1.61 0-.073-.18-.314-.41-.554-.348-.348-.41-.505-.41-.974 0-.348.06-.564.157-.602.086-.035.255-.253.362-.48.11-.23.24-.385.3-.35.048.036.133-.023.17-.12.035-.097.132-.168.215-.156.085.023.144-.048.144-.157-.022-.253.795-.54 1.12-.408.12.048.35.085.505.072.228-.024.265.012.204.168-.11.3.3 1.13.563 1.142.277 0 .373-.277.204-.6-.097-.182-.097-.24-.012-.194.085.048.133-.01.133-.156s.07-.265.156-.265c.072-.012.204-.024.266-.048.07-.012.192-.035.277-.035.085-.013.12-.086.07-.17-.046-.07-.035-.097.05-.047.07.035.155.023.203-.036.047-.085.18-.085.372-.012.434.168.564.145.48-.07-.035-.098-.023-.146.05-.11.07.036.12.012.12-.06 0-.07.06-.097.132-.047.192.11.35-.192.29-.553-.05-.29-.05-.29.084.024.133.312.578.48.578.227 0-.06.216-.228.493-.36.264-.145.456-.205.41-.133-.037.06-.013.12.046.12.072 0 .133-.06.133-.12 0-.072.035-.11.096-.11.42.072.66-.047.782-.36.07-.203.24-.384.372-.42.145-.037.36-.23.493-.434.133-.193.3-.36.384-.36.192 0 .434-.446.325-.626-.048-.072-.036-.11.024-.072.132.085.42-.204.325-.313-.047-.036.036-.072.18-.072.157 0 .266-.07.266-.192 0-.097-.048-.157-.11-.12-.155.096-.264-.434-.13-.59.07-.086.084-.18.034-.217-.035-.048-.012-.086.06-.086.085 0 .144-.108.144-.227 0-.133.06-.278.12-.313.072-.036.122-.204.122-.36 0-.41.12-.662.312-.662.097 0 .18-.07.18-.156.06-.434.048-.65-.047-.842-.058-.132-.047-.192.05-.18.084.024.143-.216.167-.72.012-.41-.024-.747-.085-.747-.048 0-.11.047-.11.12-.01.06-.023.17-.035.228-.023.24-.192.277-.384.072-.132-.12-.3-.17-.48-.133-.41.11-.254-.228.203-.433.36-.168.434-.276.228-.395-.07-.048-.097-.12-.06-.17.024-.058-.096-.13-.29-.167-.383-.085-.577-.384-.3-.493.086-.036.157 0 .133.07-.012.073.048.158.133.182.07.035.144-.024.144-.11 0-.144-.41-.504-1.02-.914-.06-.047-.205-.228-.302-.396-.48-.84-1.01-1.396-1.564-1.66-.54-.252-.59-.312-.517-.59.037-.167.23-.456.422-.648.35-.35.446-.53.193-.386-.085.048.023-.085.24-.3.264-.24.516-.373.757-.373.29 0 .35-.046.35-.288 0-.372-.072-.408-.747-.48-.3-.025-.662-.11-.794-.18-.253-.134-.914-.06-.817.096.024.035-.024.18-.12.3-.145.193-.217.217-.47.098-.168-.072-.3-.24-.3-.35-.013-.36-.278-.6-.698-.613-.552-.012-.986-.312-.986-.697 0-.24.047-.3.19-.24.362.133.783-.06.843-.395.036-.18.228-.433.42-.552.194-.133.35-.313.35-.396 0-.277.3-.48.637-.422.482.097.638.337.446.733-.228.445-.216.54.036.733.204.144.204.18.035.36-.18.204-.144.372.06.372.06 0 .313-.227.578-.493.384-.396.578-.504 1.02-.552.302-.036.64-.024.76.024.12.06.265.085.312.07.048 0 .204.037.325.11.204.11.24.253.24.938 0 .565.036.76.12.626.06-.096.12-.132.12-.06 0 .17.59.423.674.29.036-.06.157-.06.3.012.122.072.23.097.23.06 0-.036.132.024.3.132.3.193.41.53.18.53-.204 0-.132.203.216.577.505.554.614.71.54.795-.132.133-.12.733.013.818.07.047.132.204.132.36 0 .253.048.277.54.24.302-.012.565-.085.58-.145.023-.07.143-.12.276-.12.12 0 .228-.048.228-.12 0-.06.072-.086.17-.05.24.098.672-.37.672-.708 0-.48-.71-1.732-1.287-2.272-.3-.29-.66-.638-.805-.794-.133-.157-.458-.396-.71-.54-.24-.134-.528-.373-.625-.53-.18-.265-.168-.29.145-.48.18-.098.48-.385.65-.638.288-.408.3-.47.143-.77-.204-.385-.168-.986.06-.95.07.023.144-.072.144-.217 0-.133.048-.216.11-.18.06.047.168-.072.227-.254.07-.192.133-.265.133-.168.012.132.06.12.192-.06.143-.18.167-.192.18-.036 0 .266.84.505 1.225.36.384-.144 1.057-.926 1.057-1.213 0-.326.337-1.565.47-1.733.06-.072.108-.626.108-1.214 0-.602.048-1.214.12-1.382.086-.24.048-.445-.18-.96-.156-.362-.348-.698-.433-.748-.07-.047-.097-.12-.048-.168.047-.048-.036-.168-.17-.265-.444-.302-.913-1.59-.59-1.59.24 0 1.18.783 1.252 1.023.036.132.254.433.47.66.216.23.516.674.66.975.145.3.423.697.615.865.192.17.408.493.493.733.07.24.18.434.24.434s.156.18.227.396c.085.228.3.564.505.758l.372.348-.085-.433c-.086-.435-.072-.435.253-.373.192.035.433.18.552.312.168.203.204.215.216.06 0-.23-.395-.71-.577-.71-.07 0-.265-.12-.422-.277-.167-.145-.432-.36-.6-.47-.17-.12-.385-.445-.48-.72-.098-.29-.217-.614-.267-.733-.132-.313.446-.265 1.022.097.505.325.602.35.602.204 0-.046-.18-.19-.384-.324-.216-.12-.614-.445-.89-.708-.265-.278-.962-.927-1.538-1.456-.578-.528-1.13-1.106-1.226-1.287-.217-.408-.698-.938-.854-.938-.07 0-.253-.144-.408-.337-.434-.493-.66-.637-.877-.552-.168.06-.132.12.18.313.373.23.373.23.157.47-.204.228-.204.265-.035.384.253.192.637.794.564.877-.097.098-.697-.59-.697-.793 0-.06-.338-.29-.747-.493-.422-.192-.915-.445-1.095-.54-.396-.216-1.455-.313-1.3-.12.122.156-.046.672-.227.672-.058 0-.12-.108-.12-.24s-.084-.24-.18-.24c-.096 0-.18-.108-.18-.24 0-.13-.06-.238-.132-.238-.072 0-.11-.072-.072-.17.097-.252-.336-.6-.602-.492-.12.06-.277.085-.36.072-.07-.012-.168.035-.216.108-.07.11.265.17.842.145.132 0 .168.025.085.06-.12.048-.11.11.047.29.11.12.145.227.072.227-.06 0-.097.12-.06.265.036.18-.024.133-.18-.144-.204-.372-.3-.434-.853-.493-1.033-.133-1.045-.156-.59-.733.517-.66.71-1.033.553-1.083-.132-.048.372-1.18.53-1.18.046 0 .035-.13-.025-.3-.097-.24-.07-.324.06-.372.096-.048.18-.204.18-.36 0-.192.097-.325.253-.385.397-.156 2.118-.18 2.214-.035.036.07.18.132.313.132s.216-.035.18-.097c-.023-.047.385-.07.915-.06.915.037.962.025.903-.215-.048-.18-.012-.228.132-.18.48.132 1.058.24 1.155.204.07-.012.253 0 .408.047.227.06.253.108.144.24-.156.19-.024.3.384.3.95 0 1.178-.024 1.178-.133 0-.07.133-.096.337-.047.192.036.505.012.685-.06.422-.156.29-.29-.493-.493-.53-.132-.602-.3-.384-.853.06-.168.122-.493.134-.71.023-.37.06-.395.504-.444.266-.024.59-.036.72-.036.134.012.385.012.58.024.203 0 .324.06.324.168 0 .24.457.685.614.602.06-.048.216.047.348.204.157.18.228.216.24.11 0-.098.036-.134.085-.086.046.035.143-.097.203-.313.11-.3.204-.41.47-.434.288-.036.48-.266.203-.266-.06 0-.253-.144-.433-.325-.313-.313-.313-.325-.06-.41.29-.107.65-.01.54.146-.07.133.565.95.747.95.228 0 .133.396-.156.662-.193.168-.254.336-.216.528.023.17 0 .36-.072.458-.085.085-.11.324-.06.516.086.446-.096.963-.348.963-.097 0-.18.047-.18.12 0 .06-.12.12-.265.12-.277 0-.277 0 .036.29.226.216.3.384.264.59-.097.505.528 1.322 1.924 2.524.325.277.818.71 1.083.974.278.255.747.663 1.047.904.29.24.66.578.817.758.157.18.446.446.626.578l.348.254.192-.373c.216-.42.157-.973-.132-1.212-.216-.18-.216-.54 0-.626.097-.036.3-.036.457 0 .228.048.18-.036-.253-.41-.422-.384-.505-.528-.434-.746.072-.228.133-.253.505-.18.36.07.422.047.373-.145-.024-.12-.254-.36-.505-.527-.732-.505-1.02-1.24-.372-.94.17.073.337.098.385.06.108-.12-.446-.684-.674-.684-.266-.013-.854-.542-.854-.772 0-.253-.445-.47-.794-.384-.433.11-.915-.396-.818-.865.06-.278 0-.423-.24-.674-.3-.29-.3-.373-.035-.325.047.013.203-.047.347-.12.133-.07.216-.085.17-.012-.037.06.01.145.108.193.192.072.348-.108.253-.277-.157-.253.29-.204.53.048.3.314.48.302.48-.047 0-.457 1.118-.493 2.03-.07.698.324.83.324.64-.013-.086-.156-.05-.277.167-.493.156-.156.325-.42.36-.578.036-.17.204-.337.422-.41.192-.058.348-.18.348-.24 0-.07.072-.13.17-.13.084 0 .238-.086.323-.193.157-.192.626-.18 1.588.024.277.06.325.036.325-.168 0-.156-.108-.277-.264-.336-.157-.036-.36-.145-.458-.228-.096-.085-.312-.192-.48-.253-.47-.17-1.804-.94-1.804-1.046 0-.05.108-.205.227-.35.314-.324.134-.625-.492-.805-.253-.085-.433-.192-.396-.254.036-.07.385.037.76.23.577.288.828.348 1.525.336.697 0 .95.047 1.443.313.325.18.72.323.866.323.132 0 .59.11.986.228.685.217.746.217.865.025.11-.168.12-.168.06.012-.072.24.227.29.528.097.172-.118.146-.153-.07-.215zM20.504 9.764c-.157-.132-.35-.24-.434-.24s-.18-.047-.216-.096c-.12-.205.638.01.842.226.29.325.144.397-.192.11zm7.878 21.21c-.097.037-.18.146-.18.254 0 .096-.086.18-.18.18-.122 0-.18.12-.18.372 0 .325-.025.36-.18.228-.217-.18-.24-.72-.037-.72.07 0 .11-.037.07-.073-.107-.108.302-.504.53-.516.11-.01.228.036.265.098.036.06-.013.13-.108.178zm.817-.203c-.086.024-.23.024-.302 0-.085-.036-.023-.06.145-.06.168 0 .228.024.156.06zm1.466.204c-.445-.097-.54-.168-.227-.168.12 0 .31.06.408.12.13.097.082.11-.182.048zm.662.037c-.133-.01-.24-.06-.24-.108s.11-.097.24-.097c.132 0 .24.047.24.11 0 .07-.11.107-.24.096zM39.42 5.196c-.216 0-.396-.06-.396-.12 0-.158.36-.158.6 0 .132.082.085.12-.204.12zm4.005 53.63c-.036 0-.097-.058-.133-.12-.035-.07-.012-.12.048-.12.07 0 .132.047.132.12 0 .06-.023.12-.047.12zm8.632-34.776c-.07.048-.168.192-.216.325-.034.156-.276.325-.588.433-.434.17-.505.228-.47.505.036.266-.023.325-.445.458-.36.11-.564.11-.758.013-.266-.12-.266-.133.07-.133.337-.012.794-.3.794-.517 0-.047.11-.204.253-.348.133-.133.216-.325.18-.422-.035-.085 0-.204.086-.253.396-.254.505-1.202.253-2.117-.11-.336.24-.24.396.12.48 1.12.54 1.347.396 1.565-.12.192-.133.192-.07 0 .034-.11.01-.204-.05-.204-.07 0-.12.11-.12.24 0 .144.085.24.216.24.123 0 .158.037.073.096zm8.732 43.976c-.06.036-.122-.012-.122-.11 0-.215.07-.252.18-.084.036.06.012.146-.06.194zm2.32.66c.023 0 .144.11.264.24.12.134.157.24.085.24s-.193-.108-.266-.24c-.073-.13-.11-.24-.085-.24zM93.1 13.253c.145 0 .3.048.337.12.097.157-.18.157-.42 0-.146-.096-.134-.12.084-.12zm2.513-1.877c-.216-.085-.253-.168-.085-.168.072 0 .157.047.192.12.038.074-.012.085-.107.048zM56.7 4.822c0 .204.35.396.578.324.157-.047.265-.012.313.11.05.12-.01.18-.18.18-.144 0-.203.047-.156.132.036.07.192.097.35.06.143-.036.72-.013 1.262.06.986.12 1.3.07.962-.134-.3-.192-1.396-.48-1.827-.48-.215 0-.504-.086-.625-.18-.267-.19-.675-.24-.675-.072z"/><path d="M83.395 32.083c0 .097-.047.144-.12.11-.06-.037-.12-.013-.12.058 0 .086.07.122.167.086.3-.12 1.095 1.046.962 1.42-.035.085-.012.192.06.24.265.156.12.276-.216.18-.445-.12-.553-.024-.3.253.167.19.18.227.023.288-.108.047-.18.228-.18.457 0 .216.024.313.048.24.085-.228.602.156.685.517.085.324.396.384.505.108.048-.097.145-.18.24-.18.325 0 .168-.228-.313-.433-.265-.12-.48-.254-.48-.313 0-.133.167-.12.324.036.096.096.19.085.37-.024.193-.12.35-.11.904.12.372.157.732.24.817.18.098-.047.11-.035.06.048s-.023.145.05.145c.095 0 .12-.11.07-.29-.11-.458.036-.673.457-.673.396-.012.794-.24.794-.458 0-.072-.084-.11-.19-.06-.145.06-.18-.024-.157-.48.023-.386.07-.53.192-.482.085.035.156.012.156-.06 0-.06-.108-.144-.24-.18-.203-.048-.252.012-.31.408-.086.493-.29.53-.29.036 0-.35-.192-.385-.3-.048-.073.228-.098.228-.94-.085-.782-.278-1.358-.565-1.526-.76-.12-.144-.94-.6-1.07-.6-.068 0-.13.086-.13.193zM85.2 36.16c0 .108-.06.156-.134.108-.097-.06-.12.012-.06.228.037.18.013.35-.06.384-.084.06-.058.157.073.3.096.11.155.29.108.41-.048.133-.012.193.12.193.097 0 .24.11.313.24.193.372.23 1.48.05 1.683-.158.18-.17.227-.17.54 0 .11-.144.254-.324.337-.192.07-.373.192-.422.265-.133.168-.35-.192-.265-.445.084-.266-.086-.35-.338-.17-.168.122-.168.182-.024.435.085.168.157.228.17.132 0-.096.023-.144.058-.108.072.07-.216.697-.324.697-.145 0-.12.456.023.504.072.023.072.108 0 .204-.085.144-.132.144-.29.023-.143-.12-.31-.13-.78-.01-.325.07-.72.132-.878.12-.505-.047-.697 0-.697.145 0 .204-.602.877-.865.974-.12.034-.216.18-.216.312s-.073.3-.146.372c-.085.07-.277.228-.433.348l-.276.24.324.36c.18.204.373.337.446.29.07-.036.085-.024.048.047-.048.06.07.336.253.59s.325.55.325.648c0 .097.12.192.277.216.144.024.265.11.265.18 0 .085.12.012.277-.156.227-.253.264-.422.24-1.083-.013-.445-.025-.84-.05-.903-.047-.3.037-.29.385.048.396.396.782.505.662.18-.097-.24.132-.65.348-.65.097 0 .18.048.18.122 0 .227.18.12.325-.193.07-.17.12-.373.085-.47-.036-.085-.012-.192.06-.24.07-.035.132 0 .132.097 0 .216.48.65.77.71.18.023.253-.06.337-.36.06-.217.18-.385.277-.385.266 0 .217-.337-.06-.422-.13-.036-.238-.12-.238-.18 0-.048.108-.07.24-.036.132.036.24.097.24.145 0 .034.24.07.54.07.493 0 .54-.024.54-.3l.012-.302.18.337c.204.384.458.313.373-.11-.06-.335.168-.383.445-.096.18.168.204.168.384 0 .097-.11.145-.254.11-.314-.05-.07-.025-.204.047-.29.097-.12.07-.226-.11-.432-.132-.156-.252-.384-.252-.53-.01-.143-.035-.335-.047-.432-.012-.097-.036-.265-.048-.373 0-.11-.12-.313-.253-.47s-.24-.348-.24-.445c0-.12.072-.145.24-.097.133.047.24.024.24-.048s-.048-.132-.12-.132c-.06 0-.122-.266-.122-.59 0-.565-.035-.638-.782-1.408-.433-.445-.782-.89-.782-.974 0-.085-.07-.156-.168-.156s-.253-.036-.36-.072c-.128-.04-.19-.003-.19.14zm.6.348c0 .024-.084.07-.18.12-.096.036-.18.013-.18-.047 0-.07.085-.12.18-.12s.18.024.18.048zm-2.2 6.747c.096.265 0 .325-.373.228-.253-.06-.29-.11-.18-.24.18-.23.457-.217.552.012zm-.878.36c-.085.205-.36.24-.47.072-.047-.097.11-.18.446-.24.048 0 .06.072.024.17zm-1.045.205c-.036.096-.072.06-.072-.072-.012-.132.024-.204.06-.156.035.036.047.143.012.228zm.348.06c-.085.324-.372.637-.578.637-.048 0-.085-.072-.06-.157.012-.085-.132-.156-.36-.18-.216-.024-.396-.097-.396-.168 0-.085.205-.097.59-.048.53.07.603.048.674-.168.12-.36.214-.29.13.083zM75.375 59.934c-.11.168-.085 1.9.023 2.308.072.228.06.24-.096.036-.385-.47-.434-.085-.12.89.203.625.516 1.07.757 1.07.07 0 .12-.097.12-.204s.035-.156.085-.12c.035.047.012.216-.085.372-.17.313-.085.733.12.614.06-.036.12-.012.12.047 0 .204-.36.157-.432-.047-.048-.097-.157-.18-.254-.18-.12 0-.07.132.18.445.193.253.446.625.553.84.253.506.434.603.626.338.204-.265.097-.77-.192-1.034-.215-.193-.215-.205.06-.35.3-.168.697-.047.41.12-.12.086-.12.146.012.302.156.192.18.192.312 0 .133-.18.157-.18.266.024.07.12.168.168.216.12.06-.047.023-.203-.06-.336-.277-.457-.06-.348.493.24.504.54.59.733.312.733-.048 0-.085-.036-.072-.097.036-.12-.3-.626-.41-.626-.168 0-.096.372.086.434.12.047.18.24.18.578 0 .324.036.433.11.324.084-.132.155-.132.383.036.42.29.492.24.276-.18-.11-.228-.144-.41-.07-.457.058-.036.13-.216.167-.397.048-.265 0-.348-.277-.47-.372-.143-.47-.347-.168-.347.096 0 .18.048.18.12 0 .146.12.158.348.013.12-.085.133-.156.024-.36-.168-.29-.372-.337-.372-.07 0 .167-.036.167-.36 0-.205-.11-.41-.158-.47-.122-.06.025-.144-.023-.18-.132-.06-.156-.18-.18-.602-.12-.41.06-.54.047-.59-.11-.07-.168.06-.227.493-.215.07.012.144-.024.144-.06 0-.12-.422-.372-.626-.384-.24 0-.3-.17-.24-.626.036-.216.12-.337.266-.337.3 0 .433-1.01.168-1.408-.097-.157-.192-.506-.192-.77 0-.47-.012-.47-.396-.397-.228.036-.422.012-.47-.06-.122-.183-.64-.17-.76.01zM79.548 66.294c0 .12.157.336.35.48.203.145.323.325.288.434-.048.133-.097.12-.216-.047-.228-.3-.325-.132-.24.373.048.253.156.433.253.433.11 0 .17.133.17.35 0 .264.084.37.335.48.192.085.35.204.35.29 0 .084.034.264.084.395.06.217.035.254-.228.254-.168 0-.3-.035-.3-.097s-.05-.108-.122-.108c-.06 0-.085.155-.035.383.06.277.035.348-.072.29-.097-.06-.168 0-.216.155-.086.313-.133.313-.397-.012-.18-.24-.253-.253-.53-.12-.167.07-.31.216-.31.324s-.11.18-.302.18c-.168 0-.324.072-.348.145-.024.085-.085.325-.156.517-.06.204-.097.433-.06.517.072.215.385.167.385-.073 0-.11.086-.313.18-.433.18-.228.18-.228.18.024 0 .277.17.36.302.144.036-.06.144-.085.24-.036.12.036.18-.023.18-.192 0-.216.035-.24.228-.132.192.097.24.24.227.746-.012.54.024.65.325.89.192.155.457.288.602.312.144.024.253.144.277.313.05.29.314.3.338.012 0-.097.047-.266.097-.385.06-.132.035-.348-.06-.54-.216-.434-.204-.54.048-.578.12-.012.204.047.204.18 0 .11.085.313.18.445.156.216.168.204.18-.216 0-.238.06-.48.12-.515.072-.036.12-.18.12-.325 0-.445-.515-2.14-.624-2.07-.072.05-.072-.12-.024-.383.07-.396.06-.434-.134-.372-.144.06-.215.01-.265-.157-.07-.277-.276-.325-.276-.06 0 .098-.085.18-.192.18-.144 0-.168-.047-.07-.156.058-.085.07-.253.01-.384-.156-.396-.12-.445.254-.396l.348.048-.227-.373c-.133-.215-.24-.516-.24-.673 0-.457-.192-.637-.71-.66-.416-.028-.5.008-.5.2z"/><path d="M77.382 66.872c0 .07.06.156.12.192.086.047.11.36.086.732-.048.674 0 .76.265.493.12-.11.18-.11.216 0 .023.084.132.108.227.07.253-.096.204.24-.072.482-.203.168-.215.24-.096.445.084.133.214.24.288.24.085 0 .168.085.215.18.11.3.29.204.434-.24.07-.227.192-.42.253-.42.072 0 .085.046.048.12-.085.132.29.156.59.047.29-.11.228-.47-.11-.65-.24-.132-.3-.253-.3-.625s-.036-.458-.24-.458c-.132 0-.24.047-.24.12 0 .06-.096.12-.227.12-.167 0-.203-.07-.156-.3.048-.253 0-.3-.227-.3-.157-.012-.422-.086-.59-.18-.364-.203-.485-.215-.485-.07zm1.89 1.118c-.037.097-.072.06-.072-.07-.012-.134.023-.205.06-.158.035.036.047.143.01.228zm-.086.877c0 .06-.06.036-.12-.06s-.12-.24-.12-.3c0-.07.058-.036.12.06.06.096.12.23.12.3zm.206-.035c-.036.097-.072.06-.072-.072-.012-.132.024-.204.06-.156.036.036.047.143.012.228zm-.48.24c-.037.096-.073.06-.073-.072-.013-.133.023-.204.06-.156.034.035.046.144.01.227zM75.147 67.725c-.048.228-.18.564-.313.746-.133.193-.192.397-.156.46.047.07.035.107-.024.095-.145-.047-1.083.915-1.178 1.214-.048.156-.024.336.047.41.097.096.133.096.133 0 0-.06.277-.397.602-.734.336-.336.602-.66.602-.732 0-.192.516-.697.77-.747.324-.06.372-.3.07-.384-.167-.036-.24-.156-.24-.384 0-.18.05-.29.122-.24.07.035.12.023.12-.048 0-.06-.108-.11-.24-.097-.17.008-.268.127-.315.44zM39.192 69.07c-.048.073-.024.17.047.194.084.023.144.144.144.277 0 .145-.06.193-.18.157-.097-.048-.18-.012-.18.06s.06.132.12.132c.157 0 .157.516.012.66-.097.11.12 1.757.29 2.2.108.277.577.373.96.18.627-.312.783-.516.783-1.033 0-.493-.482-1.636-.795-1.9-.096-.072-.168-.205-.168-.278 0-.18-.625-.795-.806-.795-.084.004-.18.063-.228.146zM73.33 71.55c-.058.048-.19.29-.288.53-.085.252-.204.456-.265.456-.048 0-.156.156-.216.348-.07.193-.264.446-.42.553-.24.156-.278.228-.157.372.11.144.085.168-.18.168-.18 0-.41.085-.505.18-.11.097-.29.18-.422.18-.156 0-.227.085-.227.253 0 .146-.217.518-.483.83-.396.482-.564.59-1.02.65-.29.048-.566.133-.603.204-.048.06-.133.085-.192.048-.097-.06-.168.384-.12.697.01.046-.036.203-.11.335-.108.193-.168.216-.396.085-.144-.085-.36-.132-.48-.108-.11.012-.24-.06-.278-.157-.11-.265-.445-.047-.673.422-.204.396-.192.84 0 1.875.168.853.325 1.107.626 1.034.205-.06.24-.012.228.336 0 .228.036.66.072.974.097.602.085.59.998.578.42 0 .505.036.505.228 0 .277.192.434.3.253.048-.07.17-.097.29-.06s.324-.047.47-.18c.143-.144.264-.19.264-.12 0 .06.085.12.18.12.097 0 .18.06.18.133 0 .085.11.11.254.072.397-.11.59.035.59.408 0 .42.072.433.733.047l.53-.29.143.266c.133.267.145.267.277-.084.072-.192.097-.445.06-.564-.048-.12.024-.422.133-.673.144-.29.168-.458.084-.482-.227-.085-.023-.565.41-.974.226-.204.456-.385.527-.385.06 0 .085-.266.036-.638-.085-.806.11-1.107.71-1.07.648.047.684-.193.096-.71-.41-.348-.506-.493-.435-.697.048-.168-.012-.372-.168-.602-.216-.3-.24-.396-.11-.673.098-.228.098-.348 0-.445-.167-.17.06-.41.506-.53.434-.108.505-.264.133-.36-.36-.084-.396-.288-.048-.288.3 0 .71-.204.71-.373 0-.06-.122-.168-.266-.228-.35-.156-.733-.396-.83-.516-.036-.048-.144-.085-.24-.06-.108.024-.156-.047-.132-.204.012-.144-.097-.36-.277-.517-.157-.145-.265-.337-.228-.434.075-.204-.082-.337-.274-.216z"/><path d="M53.513 73.377c-.24.385.132.915 1.538 2.238.41.384.686.758.686.926 0 .086.24.326.54.542.302.204.53.42.518.47-.06.252.41 1.466.6 1.537.338.108 1.23 1.706 1.3 2.308.024.29.384.818.927 1.358.18.18.325.373.325.434 0 .047.48.564 1.07 1.142 1.06 1.046 1.084 1.058 1.457.927.3-.098.42-.098.552.046.145.145.156.24.036.493-.157.336-.35.433-.35.18 0-.18-.155-.012-.19.204-.025.132.096.18.433.18.41 0 .84.265.746.47-.013.035.167.108.42.167.254.05.565.134.698.193.42.192.637.24.71.157.143-.145 1.08 0 1.525.216.457.24 2.26.516 2.574.408.097-.048.18-.012.18.07 0 .072.072.122.157.086.07-.024.312.024.528.12.53.217.662.205.578-.07-.06-.193-.024-.217.18-.17.145.037.24.17.24.326.012.253.012.253.18.024.097-.133.18-.18.18-.097 0 .07.205.168.458.204.24.047.564.12.697.18.168.06.48.047.84-.06.326-.085.518-.168.423-.168-.097-.013-.133-.05-.097-.086.05-.048.146-.036.23.036.24.18.66.156.828-.036.11-.133.18-.133.3-.036.278.228 1.96.24 2.694.024.36-.11.733-.18.818-.168.097.012.228-.024.313-.097.07-.06.216-.07.3-.024.157.097.927-.012 1.058-.156.193-.192-.12-.228-1.226-.157-.325.024-.638-.023-.697-.085-.06-.085-.18-.012-.337.204-.133.18-.3.288-.372.253-.157-.097-.854-.192-1.576-.216-.396 0-.614.047-.685.168-.085.133-.12.145-.12.024 0-.11-.086-.134-.23-.086-.132.036-.264.012-.312-.06-.035-.06-.012-.12.06-.12s.097-.06.047-.133c-.06-.096-.097-.096-.156 0-.097.146-.54.122-.685-.023-.156-.156-.66-.085-.732.11-.036.096-.132.155-.228.12-.085-.036-.168 0-.204.085-.023.097-.108.07-.253-.072-.265-.265-.457-.216-.614.133-.06.144-.18.265-.266.265-.192 0-.204-.192-.024-.3.18-.12-.336-.458-.552-.373-.253.097-.54-.036-.54-.24 0-.18-.024-.192-.842-.216-.396-.013-.54-.06-.578-.217-.024-.156.024-.192.204-.156.336.06.998-.168.938-.337-.024-.07-.372-.108-.89-.096-.577.023-.973-.036-1.213-.157-.192-.097-.384-.144-.433-.11-.036.05-.145-.022-.24-.143-.156-.216-.168-.204-.36.097-.157.23-.29.302-.53.266-.18-.012-.54-.036-.805-.048-.373-.012-.518-.07-.603-.277-.07-.143-.24-.276-.396-.3-.155-.023-.444-.12-.66-.227-.228-.133-.384-.157-.422-.072-.023.086-.168.086-.41.013-.203-.048-.42-.07-.48-.036-.06.048-.085-.097-.036-.336.036-.215.085-.805.12-1.298.06-1.227.145-1.467.434-1.31.265.132.71-.048.71-.29 0-.097-.037-.097-.11.024-.07.11-.132.12-.18.024-.048-.072-.06-.18-.024-.24s-.035-.132-.168-.168c-.24-.06-.29-.133-.41-.72-.097-.397-.324-.41-.72-.05-.325.302-.3.447.07.447.122 0 .217.058.217.13 0 .086-.108.11-.264.06-.157-.035-.313-.07-.36-.07-.06 0-.098-.06-.098-.133s-.085-.204-.18-.3c-.097-.11-.18-.35-.18-.542 0-.29-.048-.348-.277-.348-.156 0-.383-.07-.504-.168-.204-.146-.216-.193-.06-.374.24-.29.277-.72.072-.89-.097-.084-.145-.238-.11-.335.06-.144.025-.18-.12-.12-.132.048-.204.012-.204-.097 0-.097-.132-.204-.3-.253-.17-.036-.302-.145-.302-.24 0-.156-.06-.192-.48-.216-.098-.012-.18-.12-.18-.253 0-.144-.098-.252-.24-.276-.133-.024-.3-.097-.373-.157-.06-.047-.23-.07-.373-.035-.18.047-.277 0-.337-.18-.035-.145-.132-.254-.192-.254s-.11-.06-.11-.132c0-.157-.18-.337-.72-.71-.227-.156-.492-.36-.577-.445-.084-.084-.215-.155-.277-.155s-.108-.085-.108-.18c0-.11-.06-.254-.12-.337-.072-.085-.23-.277-.36-.433-.194-.228-.35-.278-.83-.278-.423 0-.686-.07-.866-.227-.285-.257-.54-.293-.647-.113zM74.256 88.12c0 .024-.085.048-.18.048-.097 0-.18-.048-.18-.12 0-.06.085-.086.18-.05.097.05.18.098.18.122zM83.395 77.177c-.097.168-.168.517-.18.782 0 .252-.048.468-.12.468-.06 0-.036.06.06.133.12.086.13.145.046.18-.084.037-.107.18-.07.314.06.253.07.253.156.024.072-.193.097-.17.097.12.012.29-.023.325-.227.277-.29-.07-.41.072-.3.385.084.3.78.42.78.144.013-.156.024-.156.133.024.24.408.312.085.096-.372-.313-.626-.216-.89.265-.72.482.167.542.07.182-.278-.29-.277-.29-.29-.06-.446.216-.156.325-.746.133-.746-.048 0-.216.085-.36.192-.266.18-.266.168-.266-.3-.004-.565-.135-.626-.365-.18zM80.46 77.826c-.276.29-.54.47-.66.434-.11-.036-.614-.097-1.12-.145-.516-.035-.937-.12-.937-.168 0-.12-.434-.228-.565-.132-.06.035-.144.168-.192.29-.047.12-.144.18-.204.143-.168-.11-.602.384-.602.685 0 .12-.047.216-.096.216-.06 0-.085.155-.048.348.024.204-.036.47-.145.637-.107.145-.19.445-.19.65 0 .407-.313 1.13-.494 1.13-.06 0-.097.144-.06.325.025.192.06.42.06.528.012.133.097.18.29.145.24-.048.276 0 .3.396.024.252-.024.72-.11 1.044-.167.697-.07.83.506.733.385-.07.422-.11.434-.505.024-1.888.097-2.43.313-2.5.323-.11.395.035.226.457-.132.347-.108.407.204.684.254.24.313.372.254.552-.097.254.06.54.29.54.07 0 .227-.108.347-.24.11-.13.266-.238.338-.238.097 0 .085.07-.036.204-.3.348-.336.72-.085.95.216.192.24.192.47-.012.144-.133.215-.3.18-.433-.036-.11-.024-.24.023-.266.048-.034.097-.264.097-.527-.012-.373-.047-.446-.228-.422-.266.05-.54-.3-.47-.59.036-.12-.11-.492-.313-.84-.3-.48-.348-.65-.24-.782.072-.097.217-.17.302-.17s.288-.167.432-.37c.204-.278.337-.35.54-.29.217.048.278.012.278-.18 0-.325-.3-.434-.673-.24-.157.085-.48.168-.72.168-.302.012-.506.11-.662.3-.216.267-.59.278-.59.013 0-.06-.11-.23-.254-.373-.19-.192-.238-.337-.18-.626.122-.612.23-.648 1.757-.54 2.045.133 2.406.12 2.406-.156 0-.07.132-.3.3-.516.18-.24.278-.482.228-.602-.11-.274-.17-.25-.7.29zM84.177 82.13c-.192.025-.396.11-.445.18-.072.11-.097.11-.097 0s-.085-.084-.24.05c-.29.238-.313.456-.06.347.133-.047.18.012.18.216 0 .277.025.29.423.156.227-.072.42-.205.42-.29 0-.132.05-.132.24-.035.145.07.35.097.47.06.133-.036.41.035.638.18.504.312.577.3.577-.036 0-.612-.904-.96-2.106-.83zM82.3 87.855c-.023.024-.372.085-.77.132-.505.048-.782.145-.902.3-.097.134-.434.338-.747.482-.347.156-.59.348-.648.516-.036.145-.157.35-.253.47-.134.144-.134.215-.037.276.253.157 1.045-.204 1.48-.65.24-.252.648-.516.95-.613.672-.217 1.442-.698 1.357-.842-.067-.12-.333-.157-.43-.073z"/><g><path d="M87.244 79.75c-.228.133-.48.29-.564.35-.097.084-.17.084-.216.01-.085-.13-.54-.167-.54-.046 0 .204.528.77.72.77.336 0 .602.132.602.3 0 .35.408.517 1.118.47.505-.036.685-.024.626.07-.048.086-.204.11-.36.073-.17-.048-.337 0-.422.108-.085.11-.253.157-.36.12-.24-.07-.602.037-.602.193 0 .06.132.168.3.228.17.06.3.192.3.3 0 .098.06.18.134.18.06 0 .085.06.048.122-.11.18.06.613.192.528.07-.035.204 0 .3.085.098.073.217.11.254.06.048-.047.024-.12-.048-.167-.085-.06-.108-.157-.035-.254.086-.145.17-.133.54.035.24.12.542.3.663.396.12.11.384.217.578.23.47.058 2.25.914 2.238 1.07-.012.06.06.228.144.36.097.133.17.325.17.446 0 .12.034.216.095.216.048 0 .085.192.097.42 0 .326-.035.423-.204.423-.227 0-.83.77-.83 1.057 0 .17 1.084.17 1.215-.012.035-.047.253-.12.48-.144.385-.048.458-.012.866.53.446.577.458.588 1.108.588.372-.01.697.024.746.06.036.048.168.024.29-.036.18-.097.203-.085.167.12-.022.134-.084.302-.12.36-.035.073-.023.122.036.122.145 0 .266-.29.266-.614 0-.12.06-.227.12-.227.072 0 .12-.086.12-.194 0-.096.05-.156.11-.12s.11-.06.11-.216c0-.48.876-1.107 1.153-.818.047.048.29.145.53.204.264.072.492.228.563.396.06.145.156.265.204.265.06 0 .097.097.097.228 0 .12.084.29.18.373s.144.192.108.253.024.11.12.11c.11 0 .216.132.266.29.047.215.204.323.625.444.312.085.732.145.926.133.204 0 .48.07.625.168.314.192 1.19.228 1.3.048.048-.072.036-.12-.024-.11-.047.013-.18.013-.277 0-.145-.01-.145-.035-.024-.108.108-.07 0-.156-.337-.265-.435-.145-.662-.36-.36-.36.276 0 .095-.228-.205-.266-.278-.024-.325-.085-.3-.325.034-.266.01-.278-.314-.216-.324.07-.36.035-.516-.434-.097-.277-.372-.697-.614-.938-.253-.24-.457-.553-.457-.685 0-.216.07-.266.422-.266.324 0 .42-.046.42-.215 0-.253-.395-.66-.672-.697-.11-.01-.277-.108-.384-.204-.122-.096-.35-.204-.518-.253-.265-.058-.3-.12-.253-.37.023-.17.096-.302.155-.302s.11-.085.11-.192c0-.168-.037-.168-.18-.048-.158.133-.23.11-.423-.097-.132-.143-.24-.31-.24-.383s-.047-.11-.108-.06c-.06.036-.192-.023-.29-.12-.108-.097-.288-.18-.42-.18s-.302-.085-.385-.18c-.073-.097-.447-.254-.82-.36-.383-.11-.902-.326-1.165-.47-.265-.156-.553-.253-.626-.228-.086.035-.157 0-.157-.06s-.228-.145-.493-.192c-.277-.048-.865-.278-1.31-.517-.76-.395-.842-.42-1.18-.264-.203.085-.395.253-.42.372-.036.132-.18.216-.373.216-.168 0-.313.047-.313.097 0 .06-.096.217-.204.36-.12.134-.3.36-.396.494-.097.145-.29.253-.433.253-.203 0-.288-.108-.41-.578-.084-.313-.18-.494-.203-.41-.085.217-.277.05-.277-.252 0-.216.024-.24.133-.085.108.145.12.133.047-.06-.047-.132-.097-.445-.12-.696-.06-.553-.157-.72-.36-.638-.086.023-.35-.05-.59-.18-.54-.278-.745-.278-1.286.01zM96.166 90.476c-.06.085-.157.29-.204.457-.048.17-.192.48-.337.697-.133.228-.253.626-.277.89-.024.265-.097.552-.168.637-.06.085-.145.493-.18.915-.072.914-.482 2.237-.794 2.585-.133.133-.228.3-.228.373 0 .24-.373.516-.673.516-.193 0-.47-.18-.77-.48-.266-.266-.58-.482-.698-.482-.12 0-.3-.132-.384-.3-.085-.17-.228-.302-.313-.302-.096 0-.192-.132-.24-.3-.084-.325-.288-.41-.288-.12 0 .12-.216-.025-.59-.374l-.59-.564.24-.253c.132-.144.29-.372.348-.528.06-.156.168-.24.24-.204.07.048.097.156.06.24-.06.156.372.336.552.228.097-.06.047-.626-.072-.747-.035-.036-.144.01-.253.096-.156.133-.18.11-.18-.168 0-.168.06-.3.133-.29.07.025.265-.203.433-.504.24-.445.253-.553.12-.66-.096-.06-.144-.193-.12-.278.036-.072 0-.145-.07-.145s-.134.05-.134.11-.11.132-.254.168c-.18.048-.228.024-.18-.11.085-.226 0-.215-.41.098-.277.204-.396.228-.505.12-.084-.084-.264-.144-.41-.144-.155 0-.347-.07-.432-.156-.085-.097-.228-.144-.313-.11-.07.025-.145-.058-.145-.18 0-.18-.023-.19-.12-.035-.11.158-.145.158-.254-.034-.07-.11-.168-.18-.24-.145-.06.05-.108-.035-.108-.167 0-.216-.036-.228-.3-.133-.17.06-.302.072-.302.036 0-.048-.06-.024-.144.06-.17.168.085.516.312.433.228-.086.35.3.17.516-.11.144-.314.168-.783.12-.36-.035-.637-.01-.637.048 0 .06-.06.11-.144.11-.217 0-.807.72-.748.902.036.097-.047.216-.18.3-.144.072-.253.193-.253.266 0 .085-.122.265-.266.42-.216.23-.24.314-.11.385.278.18.025.36-.42.3-.24-.022-.517.013-.602.086-.145.12-.157.11-.097-.06.047-.12 0-.215-.12-.264-.11-.037-.193-.146-.193-.23 0-.096-.168-.288-.372-.433-.35-.24-.397-.253-.53-.07-.084.108-.167.18-.19.143-.134-.12-.83-.18-.83-.06 0 .06.06.122.12.122.07 0 .12.12.12.265-.01.265-.01.277-.18.047-.168-.215-.18-.215-.18-.023 0 .157-.06.193-.24.133-.204-.06-.24-.024-.24.254 0 .18-.035.3-.07.265-.133-.133-.698.528-.72.84-.013.18-.037.374-.037.435-.012.047-.204.06-.446.012-.277-.05-.408-.037-.36.046.048.06.024.145-.048.192-.086.048-.086.145 0 .313.084.134.084.23.01.23-.058 0-.13.096-.167.203-.024.12-.097-.012-.144-.3-.05-.278-.134-.506-.17-.506-.047 0-.29.204-.528.457-.35.35-.446.553-.446.878s-.11.54-.384.853c-.216.24-.493.564-.614.746-.3.435-.877.71-1.55.734-.337.012-.66.097-.794.216-.12.11-.36.204-.53.204-.167 0-.37.085-.456.18-.11.133-.3.168-.614.133-.265-.024-.493 0-.54.06-.036.06-.145.108-.24.108s-.35.156-.564.35c-.204.203-.578.444-.818.55-.24.122-.505.35-.602.53l-.144.313-.072-.36c-.06-.29-.097-.326-.192-.18-.3.456-.422.78-.422 1.106 0 .192-.132.552-.3.794-.36.528-.36.637-.085 1.55.277.903.215 1.358-.097.685l-.216-.47-.12.302-.122.3-.132-.3c-.12-.265-.133-.228-.072.228.036.29.157.685.254.877.108.204.204.637.227.986.024.336.085.77.12.974.05.192.086.517.073.72 0 .193-.024 1.01-.036 1.792-.024 1.022-.085 1.456-.18 1.48-.085.035-.157.18-.157.324 0 .36-.324.794-.613.794-.145 0-.278.12-.35.313-.167.433-.155.53.11.53.132 0 .265.095.3.214.098.29.482.47 1.18.553.54.06 1.177-.097 1.177-.29 0-.096.385-.252.734-.3.108-.012.3-.133.433-.265.3-.3 1.166-.422 2.586-.35l1.033.06.53-.54c.276-.29.613-.528.72-.528s.228-.048.265-.11c.037-.06.217-.144.397-.19.192-.037.434-.158.54-.267.145-.132.326-.156.603-.108.396.07 2.057-.3 2.32-.53.072-.06.626-.144 1.24-.19 1.045-.086 1.13-.073 1.407.19.156.145.36.24.445.217.085-.037.36.07.602.227.254.144.517.277.602.277.11 0 .11.035 0 .144-.204.204-.18.578.024.578.277 0 .41 1.095.156 1.25-.168.11-.144.17.192.47.385.337.385.337.422.072.048-.3.818-1.07 1.07-1.07.098 0 .423-.24.722-.542s.578-.516.625-.47c.036.05 0 .11-.07.134-.086.036-.157.156-.157.277 0 .12-.145.3-.313.422-.17.107-.384.383-.48.612s-.302.47-.447.517c-.156.06-.348.203-.445.324-.168.192-.157.204.12.132.17-.047.397-.085.517-.085s.325-.19.458-.42c.144-.228.3-.422.36-.422.24 0 .085.602-.253.94-.396.395-.36.527.12.432.278-.06.35-.012.482.325.143.348.143.433-.073.817-.204.373-.228.493-.11.842.086.228.267.457.41.505.132.058.253.143.253.203 0 .06.216.11.493.11s.528.058.578.12c.036.07.193.18.337.265.228.12.36.096.842-.157.312-.167.6-.264.636-.215s.265.192.517.313c.24.133.445.313.445.41 0 .144.048.144.254-.048.697-.625 1.972-1.25 2.597-1.25.77 0 1.466-.385 1.478-.807 0-.085.133-.29.3-.47s.302-.383.302-.468c0-.072.24-.36.54-.638.302-.277.807-.817 1.107-1.202.733-.914 1.323-1.48 1.876-1.768.24-.132.445-.3.445-.372 0-.07.144-.29.337-.493.54-.59.746-.877.746-1.022 0-.085.122-.336.278-.564.685-1.046 1.07-1.756 1.12-2.105.034-.203.143-.577.238-.84.192-.493.133-.782-.06-.3-.06.155-.12.227-.12.167-.012-.132.204-.986.313-1.263.035-.097.058-.228.046-.277-.01-.06.097-.277.228-.505.133-.216.24-.493.228-.614 0-.168-.024-.18-.07-.047-.182.494-.64.58-.64.11 0-.12-.046-.228-.108-.228-.06 0-.132-.168-.168-.36-.048-.205-.156-.36-.253-.36s-.192-.122-.216-.278c-.024-.145-.11-.253-.192-.228-.133.024-.145-.12-.072-.65.072-.65.072-.684-.168-.625-.156.05-.277 0-.313-.108-.06-.156-.11-.156-.265-.023-.156.13-.18.084-.156-.338.024-.3-.047-.614-.168-.806-.253-.372-.253-.433-.023-.433.12 0 .167-.097.13-.277-.023-.145-.108-.254-.19-.228-.205.047-.95-.47-1.035-.72-.035-.122-.132-.18-.24-.134-.084.036-.168 0-.168-.085 0-.072-.047-.11-.108-.072-.182.12-.41-.277-.35-.59.036-.168.012-.337-.047-.372-.048-.036-.06-.12-.024-.192.143-.228.046-1.214-.134-1.42-.18-.192-.204-1.48-.024-1.756.048-.085-.047-.228-.24-.348-.288-.193-.3-.228-.12-.36.144-.11.168-.17.06-.278-.086-.085-.228-.144-.325-.133-.133 0-.12.035.047.108.24.11.24.11 0 .12-.132.025-.277.025-.324.013-.06 0-.097.037-.097.11 0 .06-.085.12-.192.12-.144 0-.168-.12-.144-.6.024-.447.085-.59.192-.542.12.048.157-.06.145-.396-.012-.24-.012-.47 0-.505.085-.253.085-.48-.012-.48-.12 0-.156.24-.12.828.024.24-.012.373-.085.325-.07-.036-.11-.168-.085-.29.012-.108-.024-.264-.085-.335-.12-.17-.085-.422.085-.565.072-.06.036-.085-.085-.036-.204.06-.517-.3-.384-.445.037-.037.037-.23-.01-.434-.08-.386-.297-.482-.514-.23zm-28.402 16.15c0 .097-.024.18-.048.18s-.07-.085-.12-.18c-.036-.097-.013-.18.047-.18.07 0 .12.085.12.18zm22.846 12.266c-.085.108-.18.156-.204.132-.085-.085.085-.313.228-.313.073 0 .073.074-.024.182zM88.88 121.574c-.17.254-.337.685-.36.962-.037.266-.122.602-.193.733-.07.144-.12.468-.097.72.024.42.06.48.372.54.373.072 1.166-.227 1.166-.433 0-.085.06-.085.157 0 .12.097.24.048.48-.216.18-.18.326-.42.326-.528s.098-.192.23-.192c.143 0 .276-.11.323-.277.048-.144.204-.457.36-.697.373-.59.217-.72-.59-.493-1.057.29-1.094.29-1.346.06-.132-.133-.29-.254-.36-.29-.06-.023-.11-.12-.085-.203.06-.252-.046-.155-.383.314z"/></g></g><g fill="#7F7F7F"><path d="M22.64 130.276c-.82.204-.878.228-.603.337.228.097.228.11-.024.11-.396.01-.457.24-.144.563.3.313.54.373.624.133.048-.122.072-.122.072 0 .012.084.097.155.192.155.097 0 .18-.07.18-.156 0-.098.036-.098.11.023.058.097.19.132.3.097.11-.048.433 0 .71.097.55.18 2.248.42 3.054.42.54 0 .817-.215.41-.324-.145-.035-.254-.156-.254-.277 0-.277-.29-.372-1.227-.433-.95-.06-1.227-.145-1.07-.337.096-.11-.06-.18-.626-.3-1.176-.242-1.2-.242-1.705-.11zM100.057 144.01c-.157-.05-.24-.122-.204-.18.036-.06 0-.11-.06-.11-.07 0-.24-.11-.36-.228-.24-.24-.24-.24.07-.277.182-.024.35-.11.374-.204.035-.12 0-.143-.133-.096-.12.048-.168.024-.132-.07.023-.086-.097-.24-.29-.35-.564-.336-2.62-.817-3.486-.817-.602 0-.95-.072-1.408-.29-.65-.324-6.048-1.67-7.816-1.96-.59-.096-1.54-.192-2.105-.215-1.54-.072-2.922-.18-3.186-.266-.19-.047-.18-.01.098.254.18.168.384.313.446.313.06 0 .312.12.564.265l.457.277-.336.036c-.193.024-.41-.01-.494-.084-.085-.072-.408-.17-.72-.204-.314-.048-.59-.12-.615-.17-.035-.058.05-.07.18-.034.134.035.24 0 .24-.072 0-.07-.035-.12-.084-.12-.06.01-.29 0-.517-.012l-.422-.036.84-.168-.383-.036c-.746-.072-.818-.06-.818.12 0 .133-.132.18-.54.17-.974-.037-3.186-.05-3.368-.025-.423.06-1.444-.17-1.444-.338 0-.227-.565-.493-1.527-.72-.662-.157-1.19-.18-2.694-.12-1.503.058-1.948.047-2.296-.098-.228-.097-.674-.204-.998-.253-.83-.096-1.155-.19-1.07-.312.19-.313-2.2-.626-2.563-.337-.11.098-.17.11-.122.025.133-.204-.133-.253-2.382-.457-2.44-.216-2.356-.216-1.984 0l.3.168-.444.012c-.35 0-.434.036-.384.18.047.097.216.18.384.18s.265.036.216.085c-.036.048.07.157.253.24l.337.157-.36-.072c-.193-.047-.47-.07-.602-.07-.133.01-.578.023-.998.023-.41 0-.878.06-1.022.11-.168.06-.505.06-.818-.013-.29-.06-.65-.12-.794-.132-.132-.012-.227-.06-.192-.12.024-.048-.012-.086-.097-.086-.07 0-.107.096-.07.203.253.806.265.758-.168.685-.626-.12-1.564-.578-2.008-.998-.216-.204-.48-.372-.578-.372s-.168-.07-.168-.156c0-.337-2.176-.95-2.357-.662-.034.048-.13.06-.203.012-.085-.047-.277-.11-.445-.12-.168-.024-.54-.097-.84-.17-.386-.084-.554-.084-.58 0-.023.073-.096.11-.156.06-.06-.035-.11 0-.11.06 0 .072.11.192.24.277.134.084.24.18.24.215 0 .06-1.02.048-2.163-.047-.36-.024-.77-.048-.903-.06-.18-.012-.204-.036-.07-.12.095-.06.107-.133.034-.18-.168-.098-3.078-.133-3.235-.036-.18.108-1-.373-1-.59 0-.12-.155-.17-.55-.17-.447 0-.566.05-.615.23-.036.156-.133.203-.29.167-.12-.036-.312-.024-.42.01-.157.06-.17.11-.048.24.11.146.06.205-.325.302-.578.168-1.154.168-1.057.012.035-.072.204-.12.36-.12s.337-.072.384-.157c.12-.18.433-.373 1.142-.72.312-.146.6-.338.637-.435.108-.277-.422-.746-.783-.697-.168.024-.228.024-.144 0 .12-.047.108-.096-.06-.227-.253-.192-.445-.216-.336-.048.12.192-.085.145-.325-.085-.18-.156-.493-.204-1.695-.204-.806-.01-1.6.037-1.756.098-.215.07-.264.06-.227-.06.085-.24-.12-.59-.337-.59-.096 0-.144.048-.108.12.12.18-.396.146-.71-.058-.324-.216-1.947-.35-2.308-.192-.325.144-.457.47-.277.685.11.144.036.168-.41.168-.3 0-.564.05-.59.11-.01.06-.24.144-.493.18-.336.048-.433.036-.372-.06.12-.203-2.213-.035-2.417.18-.084.086-.528.193-.973.23-.446.046-.94.167-1.095.276-.18.108-.41.156-.59.12-.168-.047-.29-.023-.29.048 0 .06-.084.12-.18.12s-.18.098-.19.205c0 .13-.037.155-.073.058-.086-.216-.482-.18-.565.048-.048.11-.036.24 0 .277.047.036.11 0 .132-.072.036-.107.12-.107.337.037.156.097.372.168.493.145.11-.024.228.035.253.108.072.193-.877.216-.986.036-.035-.07-.168-.12-.277-.12-.168 0-.168.023-.035.108.253.157-.12.24-1.3.277l-1.01.025.35.277c.192.157.47.396.6.53.158.155.482.276.82.312.3.035.55.11.55.168 0 .048.098.12.217.145.108.035.023.06-.193.07-.228 0-.552-.06-.72-.155-.29-.157-1.034-.325-2.262-.517-.24-.036-.42.012-.516.132-.146.17-.122.192.12.204.312.013.24.05-.302.17-.336.07-.336.085-.108.24.12.084.42.215.65.288.395.133.395.133-.17.085-.59-.047-.914-.29-.926-.685 0-.216-.493-.71-.697-.71-.085 0-.253-.07-.384-.143-.168-.11-.265-.12-.372-.012-.096.097-.023.168.254.265.216.072.446.097.517.048.06-.036.086-.012.037.06-.036.07-.024.156.047.203.216.132.12.276-.24.36-.192.047-.36.156-.36.24 0 .084-.06.18-.144.203-.072.024.168.204.552.396.65.324.673.36.602.732-.06.313-.024.422.18.553.145.085.253.227.253.324 0 .132.18.144.878.096.746-.06.805-.047.41.06-.614.168-.686.41-.254.758.278.228.326.313.205.433-.085.085-.156.278-.156.422 0 .203-.098.288-.362.348-.216.047-.36.156-.36.265 0 .144-.085.168-.384.11-.216-.037-.446-.134-.517-.205-.085-.085-.06-.097.07-.048.134.048.255-.06.41-.422.12-.265.253-.48.3-.48.06 0 .085-.18.072-.397-.013-.335-.086-.42-.518-.613-.29-.12-.517-.29-.517-.36s-.12-.325-.265-.552c-.145-.228-.277-.517-.3-.638-.05-.3-.314-.54-.698-.637-.228-.06-.277-.12-.192-.204.18-.18.156-.578-.036-.842-.12-.156-.422-.253-.998-.313-.493-.058-.65-.108-.396-.12.396-.023.408-.023.192-.192-.3-.227-1.202-.253-1.13-.035.035.085-.012.228-.11.313-.084.085-.156.372-.156.625 0 .41-.047.506-.36.662-.445.228-.47.505-.06.662.228.085.3.204.3.47 0 .383.267.672.518.577.097-.035.325.05.517.17.193.132.47.288.627.348.265.11.348.3.18.396-.06.036-.47-.097-.94-.29-1.212-.492-1.418-.468-.864.11.24.253.446.505.446.564-.025.422-1.336 1.346-2.55 1.804-.314.12-.627.277-.698.36-.085.097.085.59.552 1.636.685 1.514.998 2.86 1.01 4.22 0 .72.168 1.155.614 1.565.625.578.336 1.538-.47 1.538-.192 0-.445.11-.564.24-.204.217-.204.24.07.59.158.193.423.553.59.783.41.578.807.578 1.312.012.47-.54.84-.553 1.142-.048.192.313.192.445.072.927-.12.516-.12.578.11.746.792.59.792.59.636.697-.204.144.048.36.66.564.807.278.615.975-.238.867-.325-.048-.48-.012-.53.108-.084.216-.37.216-.59-.012-.108-.096-.288-.18-.42-.18-.12 0-.228-.06-.228-.132 0-.096-.18-.12-.578-.06-.352.05-.626.025-1.005-.094.155.818.296 1.586.59 2.094.008.014.02.026.025.04.787-.53 1.933-.478 2.595.57.19.305.464.495.82.572 1.245.556 1.165 1.832.468 2.654.114.122.23.244.333.374.373.465.687.963.96 1.48 1.033 1.22 1.546 2.906 1.822 4.628.205.144.433.268.693.362.71.255 1.466.95 1.367 1.797-.282 2.432.656 4.724.755 7.11.323.23.63.49.935.762.493.44.64 1.193.48 1.812-.207.79-.082 1.193.633 1.62.29.175.5.406.64.664.472-.034.61.055.61.325 0 .157.086.24.23.24.144 0 .253.12.312.325.097.41.396.76.638.76.096 0 .336.155.516.36.492.504.985.732 1.455.648.372-.06.384-.06.168.12-.24.193-.434.24-.818.205-.12-.012-.216.036-.216.12 0 .23 1.658 1.793 1.888 1.793.626-.023 1.527-.84 1.25-1.118-.12-.12-.035-.564.11-.564.048 0 .06.132.024.3-.024.18 0 .3.085.3s.11.06.07.122c-.046.072.013.29.11.505.133.253.168.517.12.794-.047.227-.023.6.048.84.313 1.095.54 1.937.685 2.574.085.373.36 1.07.602 1.564.253.48.553 1.07.66 1.3.122.227.302.732.398 1.13.108.384.372.974.6 1.322.447.66 1.047 2.08 1.047 2.44 0 .314.65 1.312.962 1.48.348.18.78-.097.876-.578.085-.384.505-.578.95-.433.18.046.228.023.193-.086-.037-.097-.134-.168-.23-.168-.19 0-.19-.097-.06-.578.073-.24.182-.325.397-.325.266 0 .29-.036.216-.35-.12-.59-.11-1.55.036-1.72.19-.227.203-1.213.023-2.14-.228-1.286-.168-1.635.313-1.514.227.058.3.023.36-.23.036-.167.145-.3.24-.3.41 0 .77-.29.77-.625 0-.18.047-.337.11-.337.19 0 1.394-1.214 1.778-1.804.204-.312.578-.66.842-.782.253-.132.578-.36.733-.505.276-.253.3-.396.238-.986-.023-.155.048-.323.145-.37.097-.048.3-.145.457-.23.216-.107.29-.107.337.037.07.18.528.156 1.178-.048.192-.072.493-.12.66-.12.423-.013.916-.397.82-.64-.037-.108-.025-.227.023-.264.06-.024.132.06.168.192.036.145.12.216.18.18.133-.085.265.192.265.54 0 .29.267.734.807 1.347.216.24.396.505.396.578 0 .072.097.11.216.085.24-.07.552.204.468.422-.023.085 0 .24.06.35.07.155.06.214-.048.214-.11 0-.11.036 0 .145.12.12.18.12.24.01.144-.215.348-.023.614.58.204.444.227.696.18 1.454l-.072.903.337.097c.672.18.888.168 1.056-.085.097-.134.36-.374.602-.53.277-.192.434-.396.434-.564.012-.373.806 1.298.914 1.9.036.265.157.626.24.806.097.18.168.457.168.637s.072.3.17.3c.096 0 .226.17.3.373.18.505.168.59-.048.516-.133-.06-.156-.024-.11.12.037.11.122.192.18.192.05 0 .037.17-.034.373-.097.277-.157.324-.228.204-.06-.086-.11-.11-.11-.037 0 .228.193.408.423.384.265-.024.396.35.192.553-.086.085-.18.07-.314-.036-.11-.097-.18-.097-.18-.024 0 .07.097.18.204.253.228.12.29.94.12 1.636-.12.504.036 1.55.193 1.394.24-.24.564-.156.564.133 0 .228.024.24.12.097.086-.145.12-.145.12-.012 0 .085.17.36.362.614.323.408.347.48.18.578-.18.097-.18.12-.013.253.168.133.192.133.192-.06 0-.203.01-.203.18.024.096.146.156.482.144.76-.012.277.036.54.11.59.07.047.167.312.215.59.034.288.203.65.37.83.17.18.302.444.302.59 0 .19.228.42.877.852.95.638 1.165.842 1.118 1.046-.024.085-.012.11.01.047.11-.18.423-.085.35.11-.048.144-.024.18.11.12.12-.048.18.012.18.168 0 .133.058.24.132.24.085 0 .108-.11.07-.254-.047-.193-.035-.216.098-.11.11.098.18.098.24 0 .12-.19-.048-.36-.397-.372-.203-.01-.252-.035-.107-.07.108-.025.204-.134.204-.23s-.036-.155-.085-.13c-.06.034-.11-.073-.11-.23-.01-.156-.167-.48-.348-.72-.29-.372-.324-.53-.324-1.287.012-.48-.048-1.033-.133-1.226-.133-.35-1.083-1.382-1.263-1.382-.048 0-.192-.17-.313-.373-.155-.254-.288-.35-.432-.313-.373.096-.685-.24-.854-.903-.07-.35-.216-.697-.29-.758-.18-.145-.335-.903-.19-.903.12 0 .108-.313-.025-.434-.048-.048-.086.035-.086.18 0 .312-.336.48-.493.24-.155-.23-.058-1.24.182-2.032.12-.36.215-.986.227-1.382.023-.697.035-.72.36-.76.3-.034.324-.01.324.435 0 .446.012.47.422.482.517.024.903.216.903.457 0 .108.084.168.215.144.132-.024.265.097.41.384.12.228.203.493.215.564 0 .193.434.638.614.638.06 0 .085-.07.036-.156-.048-.085-.036-.11.023-.048.11.11.12.156.157.505.024.29.253.217.253-.084 0-.228.024-.24.216-.072.108.097.312.216.444.266.17.06.193.108.085.18-.216.132-.17 1.455.06 1.455.084 0 .215-.11.3-.24.085-.144.384-.384.66-.552.47-.265.662-.565.698-1.07.012-.073.072-.11.157-.086.204.036.83-.3 1.213-.65.17-.156.373-.29.458-.29.168 0 .3-.624.227-1.105-.023-.18.012-.3.06-.265.06.035.11-.048.11-.18 0-.133-.05-.266-.11-.302-.048-.035-.133-.324-.168-.637-.036-.313-.157-.746-.254-.938-.107-.204-.19-.446-.19-.553 0-.097-.157-.337-.36-.53-.193-.19-.362-.408-.362-.492 0-.085-.096-.18-.227-.227-.276-.085-1.694-1.444-1.694-1.612 0-.07-.18-.313-.41-.553-.348-.348-.41-.504-.41-.974 0-.35.06-.565.157-.602.085-.036.253-.254.36-.482.11-.227.24-.384.3-.348.05.036.134-.024.17-.12.035-.098.132-.17.215-.157.085.025.145-.047.145-.156-.024-.253.794-.54 1.118-.408.122.048.35.085.506.072.228-.024.265.012.204.168-.11.3.3 1.13.565 1.143.277 0 .372-.278.204-.603-.098-.18-.098-.24-.013-.192.085.047.132-.012.132-.157 0-.144.07-.265.156-.265.07-.012.204-.024.265-.047.072-.012.193-.036.278-.036.085-.012.12-.085.07-.168-.046-.072-.034-.097.05-.048.07.036.155.024.203-.036.05-.085.18-.085.373-.012.434.17.565.145.48-.07-.034-.098-.022-.146.05-.11.07.036.12.012.12-.06 0-.07.06-.096.132-.047.192.108.35-.193.29-.553-.048-.29-.048-.29.084.023s.577.48.577.228c0-.06.216-.228.493-.36.266-.145.458-.204.41-.133-.036.06-.012.12.048.12.07 0 .132-.06.132-.12 0-.07.036-.11.097-.11.422.073.66-.046.782-.36.07-.203.24-.383.37-.42.146-.036.362-.228.494-.434.133-.19.3-.36.385-.36.19 0 .432-.445.323-.625-.047-.072-.035-.11.024-.072.133.085.422-.204.325-.312-.048-.035.036-.07.18-.07.156 0 .265-.072.265-.193 0-.097-.047-.156-.11-.12-.155.096-.264-.434-.13-.59.07-.086.084-.18.035-.216-.036-.047-.012-.084.06-.084.084 0 .144-.11.144-.228 0-.133.06-.277.12-.313.072-.036.12-.204.12-.36 0-.41.122-.662.314-.662.097 0 .18-.07.18-.156.06-.434.048-.65-.048-.842-.06-.132-.047-.192.048-.18.085.024.144-.216.168-.72.012-.41-.024-.747-.085-.747-.047 0-.11.048-.11.12-.01.06-.022.17-.034.23-.025.238-.193.276-.385.07-.133-.12-.3-.168-.482-.133-.41.11-.253-.227.204-.433.36-.168.434-.277.228-.396-.07-.048-.097-.12-.06-.17.025-.058-.096-.13-.288-.167-.384-.086-.578-.385-.3-.494.084-.035.155 0 .13.072-.01.07.05.156.134.18.072.036.146-.024.146-.11 0-.143-.41-.504-1.022-.914-.06-.047-.204-.227-.3-.396-.482-.84-1.01-1.395-1.565-1.66-.542-.252-.59-.312-.518-.59.036-.167.228-.456.422-.648.348-.35.445-.53.192-.384-.085.047.024-.085.24-.3.265-.24.516-.374.758-.374.29 0 .348-.047.348-.29 0-.37-.07-.408-.746-.48-.3-.023-.66-.108-.794-.18-.253-.132-.915-.06-.818.097.024.035-.023.18-.12.3-.145.192-.216.216-.47.097-.168-.072-.3-.24-.3-.35-.012-.36-.278-.6-.697-.612-.553-.012-.986-.313-.986-.697 0-.24.048-.3.193-.24.36.133.782-.06.84-.396.037-.18.23-.434.423-.553.192-.133.348-.313.348-.397 0-.277.3-.48.638-.42.48.096.637.335.445.73-.228.447-.216.542.036.734.204.145.204.18.036.36-.182.204-.146.373.058.373.06 0 .313-.228.578-.493.384-.396.578-.505 1.022-.553.3-.035.637-.024.758.024.12.06.265.085.313.07.046 0 .203.037.323.11.204.11.24.254.24.94 0 .563.036.757.12.624.06-.097.122-.132.122-.06 0 .17.59.422.673.29.035-.06.156-.06.3.012.12.07.228.096.228.06 0-.037.133.023.3.132.302.192.41.528.182.528-.204 0-.133.204.215.578.505.553.614.71.54.794-.132.133-.12.733.013.818.07.048.133.204.133.36 0 .254.046.278.54.24.3-.012.564-.085.577-.144.024-.072.145-.12.277-.12.12 0 .228-.05.228-.122 0-.06.07-.085.168-.047.24.098.674-.372.674-.708 0-.48-.71-1.733-1.287-2.273-.3-.29-.662-.64-.806-.795-.132-.156-.456-.396-.708-.54-.24-.133-.53-.373-.626-.53-.18-.265-.168-.288.145-.48.18-.097.482-.385.65-.638.29-.41.3-.47.145-.77-.204-.384-.17-.986.06-.95.07.023.144-.072.144-.216 0-.132.046-.215.108-.18.06.048.168-.07.227-.253.072-.192.133-.265.133-.168.012.132.06.12.192-.06.145-.18.168-.193.18-.036 0 .265.842.505 1.226.36.384-.144 1.057-.926 1.057-1.214 0-.324.337-1.564.47-1.732.06-.07.108-.626.108-1.214 0-.602.05-1.214.122-1.382.085-.24.048-.445-.18-.962-.157-.36-.35-.697-.434-.746-.07-.048-.097-.12-.047-.17.048-.046-.035-.167-.168-.264-.445-.3-.914-1.588-.59-1.588.24 0 1.18.782 1.252 1.022.035.133.253.434.47.66.215.23.516.675.66.975.145.3.422.696.614.865.192.168.408.493.493.732.072.24.18.434.24.434s.157.18.228.397c.085.228.3.564.505.758l.373.35-.085-.435c-.084-.433-.07-.433.254-.372.192.036.433.18.552.313.17.205.204.217.216.06 0-.228-.396-.71-.578-.71-.07 0-.265-.12-.42-.276-.17-.144-.435-.36-.603-.47-.167-.12-.383-.444-.48-.72-.097-.29-.216-.613-.265-.732-.133-.313.445-.266 1.02.096.506.325.603.35.603.204 0-.047-.18-.192-.384-.324-.216-.12-.614-.446-.89-.71-.264-.276-.96-.926-1.538-1.454-.578-.53-1.13-1.107-1.225-1.287-.215-.408-.696-.94-.853-.94-.07 0-.253-.143-.408-.335-.434-.493-.662-.638-.878-.553-.168.06-.133.12.18.312.373.228.373.228.157.47-.205.227-.205.264-.037.383.253.193.637.794.564.878-.097.097-.697-.59-.697-.794 0-.06-.336-.29-.746-.494-.422-.192-.915-.446-1.095-.54-.397-.217-1.456-.314-1.3-.122.12.157-.047.674-.227.674-.06 0-.12-.11-.12-.24 0-.133-.086-.24-.18-.24-.098 0-.18-.11-.18-.24 0-.132-.06-.24-.134-.24-.072 0-.11-.07-.072-.167.096-.253-.337-.6-.602-.492-.12.06-.277.085-.36.07-.072-.01-.17.037-.217.11-.072.11.265.168.84.144.134 0 .17.024.086.06-.12.047-.11.11.048.29.108.12.144.227.07.227-.06 0-.096.12-.06.264.037.18-.022.132-.18-.145-.203-.373-.3-.434-.852-.494-1.034-.132-1.046-.156-.59-.732.517-.662.71-1.034.552-1.083-.132-.047.373-1.177.53-1.177.047 0 .035-.133-.025-.3-.098-.24-.072-.326.06-.374.096-.048.18-.205.18-.36 0-.193.096-.326.252-.385.396-.157 2.117-.18 2.214-.036.035.07.18.132.313.132.13 0 .214-.036.18-.097-.025-.048.383-.072.913-.06.915.036.963.024.903-.216-.048-.18-.012-.228.133-.18.48.132 1.056.24 1.153.203.07-.012.253 0 .408.048.23.06.254.11.145.24-.156.193-.023.3.385.3.95 0 1.178-.022 1.178-.13 0-.073.132-.098.336-.05.192.037.505.013.685-.058.42-.157.288-.29-.494-.493-.528-.134-.6-.302-.384-.855.06-.168.12-.493.133-.71.024-.37.06-.395.505-.444.265-.023.59-.035.72-.035.133.012.385.012.58.024.203 0 .323.06.323.167 0 .24.458.685.614.602.06-.048.216.047.348.203.157.18.228.216.24.11 0-.098.036-.134.085-.086.048.036.145-.097.204-.313.11-.3.204-.41.47-.433.288-.035.48-.265.203-.265-.06 0-.253-.144-.433-.324-.313-.312-.313-.324-.06-.407.29-.11.65-.012.54.144-.07.133.565.95.747.95.23 0 .134.397-.155.662-.192.167-.253.335-.216.528.023.168 0 .36-.072.457-.085.085-.11.325-.06.517.085.445-.097.962-.348.962-.097 0-.18.047-.18.12 0 .06-.12.12-.266.12-.277 0-.277 0 .036.29.228.216.3.384.265.59-.097.505.53 1.323 1.924 2.525.324.276.817.708 1.082.973.277.253.747.66 1.046.902.29.24.66.578.818.76.156.18.445.444.625.577l.35.253.192-.372c.216-.422.156-.974-.133-1.214-.217-.18-.217-.542 0-.627.096-.035.3-.035.456 0 .228.048.18-.035-.253-.41-.42-.384-.505-.528-.433-.746.07-.228.132-.253.505-.18.36.07.42.048.372-.144-.024-.12-.253-.36-.505-.53-.733-.504-1.022-1.238-.372-.938.168.072.336.097.384.06.11-.12-.446-.685-.673-.685-.265-.012-.853-.54-.853-.77 0-.254-.445-.47-.794-.384-.433.108-.914-.397-.817-.866.06-.277 0-.42-.24-.673-.3-.29-.3-.372-.036-.325.048.012.204-.047.35-.12.13-.072.215-.085.167-.012-.036.06.012.144.11.192.19.07.347-.11.252-.277-.157-.254.288-.204.528.047.3.313.48.3.48-.047 0-.458 1.12-.493 2.032-.072.697.325.83.325.638-.012-.085-.155-.048-.276.168-.492.157-.156.325-.42.36-.578.036-.168.205-.336.422-.41.192-.06.35-.18.35-.24 0-.07.07-.132.167-.132.085 0 .24-.085.325-.192.156-.192.625-.18 1.588.024.277.06.324.036.324-.168 0-.157-.11-.277-.265-.337-.156-.035-.36-.144-.457-.228s-.313-.192-.48-.253c-.47-.168-1.805-.938-1.805-1.045 0-.05.11-.205.228-.35.313-.325.132-.625-.493-.806-.254-.085-.434-.192-.396-.253.035-.07.384.037.758.23.578.288.83.347 1.526.335.697 0 .95.048 1.444.313.324.18.72.325.865.325.133 0 .59.11.986.228.685.217.746.217.865.025.11-.17.12-.17.06.01-.072.24.228.29.53.098.17-.117.145-.154-.07-.214zm-79.402-3.537c-.156-.133-.35-.24-.434-.24s-.18-.047-.214-.097c-.12-.204.637.012.84.228.29.327.146.398-.19.11zm7.876 21.213c-.096.035-.18.144-.18.253 0 .096-.084.18-.18.18-.12 0-.18.12-.18.372 0 .324-.023.36-.18.227-.216-.18-.24-.72-.035-.72.07 0 .108-.037.07-.073-.108-.11.302-.505.53-.517.11-.012.228.036.265.097.036.058-.012.13-.11.18zm.82-.204c-.086.023-.23.023-.302 0-.085-.036-.024-.06.144-.06.17-.002.23.024.157.06zm1.466.204c-.445-.097-.54-.17-.228-.17.12 0 .313.06.41.122.13.095.083.107-.182.048zm.66.035c-.13-.01-.238-.058-.238-.107 0-.048.108-.097.24-.097s.24.047.24.108c0 .074-.108.11-.24.097zm8.095-25.817c-.215 0-.395-.06-.395-.12 0-.157.36-.157.602 0 .13.085.08.12-.206.12zm4.004 53.632c-.035 0-.097-.06-.132-.12-.036-.072-.012-.12.047-.12.07 0 .132.046.132.12 0 .06-.024.12-.048.12zm8.635-34.775c-.073.047-.17.192-.217.325-.036.156-.277.324-.59.433-.434.168-.505.228-.47.505.036.265-.023.325-.445.457-.36.11-.564.11-.758.012-.265-.12-.265-.132.072-.132.336-.012.793-.3.793-.517 0-.048.11-.204.254-.35.13-.13.215-.323.18-.42-.037-.085 0-.204.084-.254.396-.254.505-1.202.253-2.117-.11-.337.24-.24.396.12.48 1.12.54 1.347.396 1.565-.12.192-.133.192-.072 0 .036-.11.012-.204-.048-.204-.07 0-.12.108-.12.24 0 .144.085.24.216.24.12 0 .156.035.073.096zm8.728 43.976c-.06.035-.12-.012-.12-.11 0-.215.07-.253.18-.084.037.06.013.144-.06.193zm2.322.66c.024 0 .145.11.266.24.12.133.156.24.085.24-.07 0-.19-.11-.265-.24-.073-.132-.11-.24-.085-.24zm29.99-55.434c.145 0 .3.047.337.12.097.157-.18.157-.422 0-.143-.097-.13-.12.085-.12zm2.513-1.877c-.216-.085-.254-.17-.085-.17.07 0 .156.05.192.122.037.07-.01.083-.107.048zM56.85 135.53c0 .205.348.397.578.326.156-.048.265-.012.313.11.048.12-.01.18-.18.18-.144 0-.204.047-.156.132.036.07.192.096.348.06.145-.037.72-.013 1.264.06.986.12 1.298.07.962-.134-.3-.192-1.396-.48-1.828-.48-.216 0-.505-.086-.625-.18-.266-.193-.675-.24-.675-.073z"/><path d="M83.547 162.792c0 .097-.048.145-.12.11-.06-.036-.122-.013-.122.06 0 .084.072.12.168.084.3-.12 1.095 1.045.963 1.42-.036.084-.012.19.06.24.264.155.12.276-.217.18-.446-.122-.553-.025-.302.252.17.193.18.228.024.29-.11.047-.18.227-.18.457 0 .216.024.313.047.24.084-.228.6.156.685.516.085.326.396.385.505.11.047-.097.144-.18.24-.18.324 0 .168-.228-.314-.434-.265-.12-.48-.253-.48-.313 0-.132.168-.12.324.036.097.096.192.084.372-.025.192-.12.35-.108.903.12.372.157.733.24.818.18.097-.046.11-.034.06.05-.048.084-.025.143.047.143.097 0 .12-.108.07-.29-.108-.456.037-.672.46-.672.395-.012.792-.24.792-.457 0-.073-.085-.11-.192-.06-.144.06-.18-.024-.156-.482.024-.384.07-.528.192-.48.085.035.156.01.156-.06 0-.06-.108-.145-.24-.18-.203-.048-.253.01-.312.407-.085.493-.29.53-.29.036 0-.347-.19-.383-.3-.046-.07.227-.097.227-.938-.085-.782-.28-1.36-.566-1.527-.76-.12-.144-.938-.6-1.07-.6-.07 0-.128.084-.128.192zM85.35 166.87c0 .108-.06.155-.132.108-.097-.06-.12.012-.06.228.036.18.012.348-.06.384-.084.06-.06.156.072.3.097.11.156.29.11.41-.05.133-.013.192.12.192.096 0 .24.11.312.24.192.373.228 1.48.048 1.683-.156.18-.168.228-.168.54 0 .11-.145.254-.325.337-.192.072-.372.193-.422.266-.132.168-.348-.192-.265-.446.085-.265-.085-.348-.336-.168-.17.12-.17.18-.024.433.085.17.156.228.168.133 0-.097.024-.144.06-.11.07.073-.216.698-.325.698-.145 0-.12.458.024.505.07.024.07.11 0 .204-.085.145-.133.145-.29.024-.144-.12-.312-.132-.78-.01-.326.07-.722.132-.88.12-.503-.048-.696 0-.696.144 0 .204-.6.877-.864.974-.12.036-.216.18-.216.313 0 .134-.07.302-.144.373-.085.072-.277.228-.434.35l-.277.24.325.36c.18.203.372.336.445.288.072-.035.085-.023.048.05-.048.058.07.335.253.588s.325.553.325.65c0 .097.122.192.278.216.144.024.265.11.265.18 0 .085.12.012.277-.156.228-.254.265-.422.24-1.083-.012-.446-.024-.842-.048-.903-.047-.3.036-.29.385.048.396.396.782.505.66.18-.096-.24.133-.65.35-.65.096 0 .18.048.18.12 0 .23.18.122.324-.19.073-.17.122-.373.086-.47-.035-.085-.012-.192.06-.24.07-.036.132 0 .132.097 0 .216.48.65.77.71.18.023.254-.06.337-.362.06-.215.18-.384.277-.384.265 0 .216-.335-.06-.42-.132-.036-.24-.12-.24-.18 0-.048.11-.072.24-.036.133.035.24.097.24.144 0 .036.24.072.54.072.494 0 .542-.024.542-.3l.01-.302.182.336c.204.385.457.313.372-.108-.06-.337.168-.385.445-.097.18.167.204.167.385 0 .096-.11.144-.255.108-.314-.047-.07-.023-.204.048-.29.097-.12.07-.227-.11-.433-.13-.156-.252-.384-.252-.528-.012-.145-.036-.337-.048-.434-.012-.096-.035-.264-.047-.37 0-.11-.12-.314-.254-.47-.132-.157-.24-.35-.24-.446 0-.12.072-.144.24-.097.133.048.24.024.24-.047s-.048-.133-.12-.133c-.06 0-.12-.265-.12-.59 0-.564-.037-.637-.783-1.407-.434-.446-.782-.89-.782-.974 0-.085-.072-.157-.17-.157-.096 0-.252-.036-.36-.072-.128-.04-.188-.004-.188.14zm.6.347c0 .024-.085.072-.18.12-.097.037-.18.013-.18-.046 0-.07.085-.12.18-.12.097 0 .18.024.18.048zm-2.2 6.746c.097.265 0 .325-.372.228-.253-.06-.29-.108-.18-.24.18-.227.456-.215.553.013zm-.877.36c-.085.204-.36.24-.47.072-.047-.097.11-.18.446-.24.047 0 .06.073.023.17zm-1.047.206c-.036.096-.07.06-.07-.072-.013-.133.023-.204.058-.157.036.035.048.144.012.23zm.35.06c-.086.323-.374.636-.58.636-.047 0-.084-.07-.06-.156.013-.085-.13-.157-.36-.18-.215-.024-.395-.097-.395-.17 0-.084.205-.096.59-.046.53.07.602.047.674-.17.12-.36.216-.288.13.085zM75.526 190.642c-.11.168-.085 1.9.024 2.308.07.228.06.24-.097.036-.384-.47-.434-.085-.12.89.203.625.516 1.07.757 1.07.072 0 .12-.097.12-.204s.037-.156.086-.12c.036.047.012.215-.085.372-.167.313-.084.732.122.613.06-.035.12-.01.12.048 0 .204-.36.156-.433-.048-.05-.096-.157-.18-.254-.18-.12 0-.072.133.18.446.192.253.445.625.552.84.254.506.434.603.626.338.204-.264.097-.77-.192-1.033-.216-.192-.216-.204.06-.348.3-.17.696-.05.41.12-.122.084-.122.144.01.3.157.192.18.192.314 0 .132-.18.156-.18.265.024.072.12.17.168.217.12.06-.047.024-.203-.06-.336-.277-.457-.06-.348.493.24.505.54.59.733.313.733-.048 0-.085-.035-.07-.096.034-.12-.302-.626-.41-.626-.168 0-.096.372.086.434.12.047.18.24.18.578 0 .324.035.433.108.324.085-.132.156-.132.384.036.42.29.493.24.277-.18-.11-.228-.146-.41-.072-.458.06-.035.132-.215.168-.396.048-.265 0-.348-.277-.47-.373-.143-.47-.347-.17-.347.097 0 .18.046.18.12 0 .144.12.156.35.01.12-.084.132-.155.023-.36-.168-.288-.372-.336-.372-.07 0 .168-.035.168-.36 0-.204-.11-.41-.157-.47-.12-.058.023-.143-.025-.18-.134-.06-.156-.18-.18-.6-.12-.41.06-.542.047-.59-.11-.072-.168.06-.227.492-.215.072.013.145-.023.145-.06 0-.12-.422-.37-.626-.383-.24 0-.3-.168-.24-.626.037-.214.122-.335.267-.335.3 0 .433-1.01.168-1.408-.097-.156-.192-.505-.192-.77 0-.47-.012-.47-.396-.396-.228.037-.422.013-.47-.058-.124-.182-.642-.17-.76.01zM79.698 197.003c0 .12.156.337.348.48.204.146.325.326.29.435-.048.132-.098.12-.217-.048-.228-.3-.325-.132-.24.373.047.253.156.433.253.433.11 0 .168.133.168.35 0 .264.086.37.338.48.192.085.348.204.348.29 0 .084.036.264.085.395.06.217.037.254-.226.254-.17 0-.3-.036-.3-.097 0-.06-.05-.11-.122-.11-.06 0-.085.158-.036.385.06.278.036.35-.07.29-.098-.06-.17 0-.217.156-.086.313-.134.313-.397-.012-.18-.24-.254-.253-.53-.12-.167.07-.312.215-.312.324s-.107.18-.3.18c-.168 0-.324.072-.348.145-.024.085-.085.324-.157.516-.06.205-.096.435-.06.518.072.216.385.17.385-.07 0-.11.085-.314.18-.435.18-.227.18-.227.18.024 0 .277.17.36.302.145.035-.06.144-.085.24-.036.12.036.18-.024.18-.192 0-.216.035-.24.227-.133.19.098.24.24.227.748-.012.54.024.65.325.89.192.155.457.288.602.31.144.025.253.146.277.314.048.29.313.3.337.012 0-.097.048-.265.097-.384.06-.133.036-.35-.06-.54-.215-.434-.203-.54.048-.58.12-.01.204.05.204.182 0 .108.085.312.18.445.157.216.17.204.18-.216 0-.24.06-.48.12-.516.073-.035.122-.18.122-.324 0-.446-.517-2.14-.626-2.07-.07.048-.07-.12-.023-.384.07-.396.058-.433-.134-.372-.144.06-.216.012-.265-.156-.07-.277-.276-.325-.276-.06 0 .097-.085.18-.192.18-.145 0-.17-.047-.072-.156.06-.085.072-.253.012-.384-.156-.396-.12-.446.253-.396l.35.047-.23-.373c-.13-.216-.24-.517-.24-.673 0-.457-.19-.638-.707-.66-.415-.03-.5.007-.5.2z"/><path d="M77.534 197.58c0 .073.06.158.12.193.085.048.11.36.085.733-.048.673 0 .758.265.493.12-.11.18-.11.215 0 .024.084.133.108.228.07.254-.096.204.24-.07.482-.205.168-.217.24-.098.445.085.132.216.24.29.24.084 0 .167.085.215.18.11.3.29.204.433-.24.072-.228.192-.42.254-.42.07 0 .085.046.047.12-.086.132.288.156.59.047.288-.11.227-.47-.11-.65-.24-.132-.3-.253-.3-.625s-.036-.46-.24-.46c-.133 0-.24.05-.24.122 0 .06-.097.12-.228.12-.168 0-.204-.07-.156-.3.047-.253 0-.3-.228-.3-.156-.013-.422-.086-.59-.18-.364-.203-.484-.215-.484-.07zm1.887 1.118c-.035.097-.07.06-.07-.07-.013-.134.023-.205.06-.158.036.036.048.145.01.228zm-.083.88c0 .058-.06.035-.12-.06s-.12-.24-.12-.3c0-.073.058-.037.12.058.06.097.12.228.12.3zm.204-.037c-.034.098-.07.06-.07-.07-.012-.133.024-.204.06-.157.035.035.047.143.01.228zm-.48.24c-.035.098-.07.06-.07-.07-.013-.133.023-.204.058-.157.036.036.048.145.012.228zM75.296 198.435c-.047.227-.18.564-.312.746-.133.193-.192.397-.157.458.048.072.036.11-.024.097-.144-.048-1.082.915-1.178 1.214-.047.155-.023.335.048.41.097.095.133.095.133 0 0-.06.277-.398.6-.734.338-.337.603-.66.603-.733 0-.192.516-.697.77-.746.324-.06.372-.3.07-.384-.168-.036-.24-.157-.24-.385 0-.18.05-.288.122-.24.07.036.12.025.12-.047 0-.058-.11-.108-.24-.096-.17.007-.266.128-.316.44zM39.34 199.78c-.046.072-.022.17.05.193.084.024.144.145.144.277 0 .145-.06.192-.18.157-.098-.048-.18-.012-.18.06s.06.132.12.132c.156 0 .156.516.012.66-.097.11.12 1.756.29 2.2.108.277.577.372.96.18.627-.313.783-.517.783-1.034 0-.493-.482-1.635-.795-1.9-.097-.072-.168-.204-.168-.277 0-.18-.626-.795-.806-.795-.084.002-.18.063-.23.146zM73.48 202.258c-.06.047-.19.29-.288.53-.085.252-.204.456-.265.456-.048 0-.157.156-.216.348-.07.192-.264.446-.42.553-.24.156-.278.228-.157.372.11.145.085.17-.18.17-.18-.002-.41.083-.505.18-.11.096-.29.18-.422.18-.156 0-.228.084-.228.252 0 .144-.216.516-.48.83-.397.48-.565.59-1.023.648-.29.048-.564.133-.6.204-.05.06-.134.085-.193.048-.097-.06-.17.384-.12.697.01.047-.037.204-.11.336-.11.193-.168.216-.396.085-.145-.085-.36-.132-.48-.108-.11.012-.24-.06-.278-.157-.11-.265-.446-.047-.673.422-.204.396-.193.84 0 1.875.168.853.324 1.107.625 1.034.204-.06.24-.012.228.336 0 .228.036.66.07.974.098.602.086.59 1 .578.42 0 .504.036.504.228 0 .277.192.434.3.253.05-.07.17-.097.29-.06s.325-.047.47-.18c.144-.144.264-.19.264-.12 0 .06.085.12.18.12s.18.06.18.133c0 .085.11.11.254.072.396-.11.59.035.59.41 0 .42.07.433.733.047l.528-.29.146.266c.132.266.144.266.277-.084.07-.192.097-.445.06-.564-.048-.12.023-.422.132-.673.145-.29.168-.46.085-.483-.228-.085-.024-.564.41-.974.228-.204.457-.384.528-.384.06 0 .085-.266.036-.638-.085-.806.11-1.107.71-1.07.648.046.684-.193.096-.71-.408-.35-.505-.493-.434-.697.048-.17-.01-.373-.168-.602-.216-.3-.24-.396-.11-.673.098-.228.098-.35 0-.446-.167-.168.06-.41.506-.528.434-.11.505-.266.133-.36-.36-.086-.396-.29-.048-.29.3 0 .708-.204.708-.372 0-.06-.12-.168-.265-.228-.348-.156-.733-.396-.83-.517-.035-.048-.144-.086-.24-.06-.108.024-.156-.048-.132-.204.013-.145-.096-.36-.276-.517-.156-.145-.265-.338-.228-.434.073-.206-.083-.337-.275-.218z"/><path d="M53.664 204.085c-.24.385.132.915 1.538 2.238.41.384.685.758.685.926 0 .084.24.324.54.54.302.204.53.42.518.47-.06.252.41 1.466.602 1.537.336.11 1.227 1.707 1.298 2.31.024.288.385.817.927 1.357.18.18.325.373.325.434 0 .047.48.564 1.07 1.142 1.058 1.046 1.084 1.058 1.456.927.3-.097.42-.097.552.047.145.145.157.24.036.493-.155.337-.347.434-.347.18 0-.18-.157-.01-.193.205-.023.132.097.18.434.18.41 0 .84.265.746.47-.012.035.17.108.422.167.253.047.564.132.697.19.42.193.636.24.708.158.144-.145 1.083 0 1.526.216.458.24 2.26.516 2.574.41.097-.048.18-.013.18.07 0 .072.072.12.157.086.07-.024.313.024.53.12.527.216.66.204.577-.07-.06-.193-.024-.217.18-.17.144.036.24.17.24.325.01.254.01.254.18.024.097-.133.18-.18.18-.098 0 .072.204.17.457.204.24.048.564.12.696.18.168.06.48.048.842-.06.324-.084.516-.167.42-.167-.096-.013-.13-.05-.096-.086.048-.048.145-.036.228.035.24.18.66.156.83-.036.11-.133.18-.133.3-.036.278.228 1.96.24 2.693.024.36-.11.733-.18.818-.168.098.01.23-.024.314-.097.07-.06.216-.072.3-.024.157.097.927-.012 1.058-.157.192-.192-.12-.227-1.227-.156-.325.024-.638-.024-.697-.085-.06-.085-.18-.012-.337.204-.13.18-.3.288-.37.252-.158-.097-.855-.192-1.577-.216-.396 0-.614.048-.685.17-.085.13-.12.143-.12.023 0-.11-.086-.134-.23-.086-.13.035-.264.01-.31-.06-.037-.06-.013-.12.058-.12s.097-.06.048-.133c-.06-.096-.097-.096-.157 0-.097.145-.54.12-.685-.023-.156-.156-.66-.085-.733.11-.036.096-.133.155-.228.12-.085-.036-.17 0-.204.084-.024.098-.11.073-.254-.07-.265-.265-.457-.216-.613.133-.06.144-.18.265-.265.265-.192 0-.203-.192-.023-.3.18-.122-.337-.458-.553-.373-.254.097-.54-.036-.54-.24 0-.18-.025-.192-.843-.216-.396-.013-.54-.06-.578-.217-.025-.156.023-.192.203-.156.337.06.998-.17.94-.337-.025-.07-.374-.11-.89-.097-.58.024-.975-.035-1.214-.156-.193-.097-.386-.145-.435-.11-.036.05-.144-.023-.24-.143-.156-.216-.168-.204-.36.096-.156.228-.29.3-.53.266-.18-.012-.54-.036-.804-.048-.372-.012-.516-.07-.6-.277-.073-.144-.24-.276-.397-.3s-.446-.12-.662-.228c-.226-.132-.383-.156-.42-.07-.024.084-.17.084-.41.01-.204-.047-.422-.07-.48-.035-.06.048-.086-.097-.037-.337.036-.215.085-.805.12-1.298.06-1.228.145-1.467.434-1.31.266.132.71-.05.71-.29 0-.097-.036-.097-.11.024-.07.11-.132.12-.18.024-.047-.072-.06-.18-.023-.24s-.036-.133-.17-.168c-.238-.06-.288-.133-.408-.72-.097-.397-.325-.41-.72-.05-.326.302-.302.447.07.447.12 0 .216.058.216.13 0 .086-.11.11-.265.06-.157-.035-.313-.07-.36-.07-.06 0-.097-.06-.097-.133s-.085-.204-.18-.3c-.098-.11-.18-.35-.18-.542 0-.29-.048-.348-.278-.348-.156 0-.384-.072-.505-.17-.204-.143-.216-.19-.06-.37.24-.29.278-.722.072-.89-.098-.085-.145-.24-.11-.337.06-.144.024-.18-.12-.12-.133.047-.204.012-.204-.097 0-.097-.133-.204-.3-.254-.17-.036-.302-.145-.302-.24 0-.157-.06-.192-.48-.216-.098-.012-.182-.12-.182-.253 0-.144-.096-.253-.24-.277-.132-.023-.3-.096-.372-.156-.06-.048-.227-.07-.372-.036-.18.05-.277 0-.336-.18-.036-.143-.133-.252-.193-.252s-.11-.06-.11-.133c0-.156-.18-.336-.72-.71-.228-.155-.493-.36-.578-.444-.085-.084-.216-.155-.277-.155s-.11-.085-.11-.18c0-.11-.06-.254-.12-.337-.07-.085-.228-.277-.36-.434-.192-.228-.35-.277-.83-.277-.42 0-.685-.07-.865-.228-.286-.257-.537-.295-.646-.115zm20.743 14.744c0 .023-.085.047-.18.047s-.18-.048-.18-.12c0-.06.085-.086.18-.048.095.046.18.094.18.12zM83.547 207.887c-.097.168-.17.516-.18.782 0 .252-.048.468-.12.468-.06 0-.037.06.058.132.12.085.133.145.048.18-.085.036-.11.18-.072.313.06.254.073.254.158.024.07-.192.097-.168.097.12.012.29-.024.326-.228.278-.29-.07-.41.07-.3.384.084.3.78.42.78.144.013-.157.025-.157.134.023.24.41.313.085.097-.372-.312-.625-.215-.89.266-.72.48.168.54.07.18-.278-.29-.277-.29-.29-.06-.445.216-.157.325-.746.133-.746-.048 0-.216.085-.36.192-.266.18-.266.168-.266-.3-.003-.567-.136-.627-.363-.18zM80.612 208.536c-.277.29-.54.47-.66.434-.11-.036-.615-.097-1.12-.145-.516-.036-.938-.12-.938-.168 0-.12-.434-.228-.564-.133-.06.036-.145.168-.192.29s-.145.18-.205.144c-.168-.11-.6.384-.6.685 0 .12-.05.216-.098.216-.06 0-.085.155-.048.347.024.204-.035.47-.144.638-.11.144-.192.445-.192.65 0 .41-.312 1.13-.492 1.13-.06 0-.097.144-.06.324.024.19.06.42.06.528.012.133.097.18.29.144.238-.047.276 0 .3.397.023.252-.024.72-.11 1.044-.168.697-.07.83.506.733.384-.072.42-.11.433-.505.024-1.89.097-2.43.313-2.5.325-.11.396.035.228.456-.133.35-.11.41.204.686.253.24.313.372.253.552-.097.253.06.54.29.54.07 0 .227-.108.348-.24.108-.132.265-.24.336-.24.096 0 .084.073-.037.205-.3.35-.336.722-.085.952.216.192.24.192.47-.012.144-.133.216-.3.18-.434-.036-.11-.024-.24.024-.265.047-.035.097-.264.097-.528-.013-.372-.05-.445-.23-.42-.264.046-.54-.302-.468-.59.035-.122-.11-.494-.313-.843-.302-.482-.35-.65-.24-.783.07-.097.215-.168.3-.168.085 0 .29-.17.433-.373.204-.277.337-.35.54-.29.217.048.278.013.278-.18 0-.324-.3-.433-.672-.24-.156.086-.48.17-.72.17-.302.01-.506.108-.662.3-.216.265-.59.277-.59.012 0-.06-.11-.23-.253-.373-.192-.193-.24-.337-.18-.626.12-.613.227-.648 1.756-.54 2.044.133 2.404.12 2.404-.156 0-.07.133-.3.3-.517.18-.24.278-.48.23-.602-.113-.275-.173-.25-.702.29zM84.327 212.84c-.192.024-.396.11-.446.18-.07.11-.095.11-.095 0s-.086-.084-.24.048c-.29.24-.313.457-.06.35.133-.05.18.01.18.215 0 .277.024.29.422.156.228-.072.422-.205.422-.29 0-.133.046-.133.238-.036.145.072.35.097.47.06.132-.036.408.036.637.18.505.313.578.3.578-.036-.002-.612-.903-.96-2.106-.828zM82.452 218.564c-.024.024-.373.085-.77.133-.505.047-.782.144-.903.3-.098.133-.435.337-.747.482-.35.155-.59.347-.65.516-.035.144-.156.348-.253.47-.133.143-.133.215-.036.276.254.156 1.046-.204 1.48-.65.24-.253.65-.516.95-.613.673-.217 1.443-.698 1.358-.843-.07-.12-.333-.156-.43-.073z"/><g><path d="M87.394 210.46c-.228.13-.48.288-.565.347-.098.085-.17.085-.217.012-.085-.134-.54-.17-.54-.05 0 .205.528.772.72.772.337 0 .602.132.602.3 0 .35.41.517 1.12.47.504-.036.684-.024.624.07-.048.086-.205.11-.36.073-.17-.048-.338 0-.423.108-.084.11-.253.157-.36.12-.24-.07-.602.037-.602.193 0 .06.133.168.3.228.17.06.302.192.302.3 0 .098.06.18.133.18.06 0 .085.06.047.122-.11.18.06.613.192.528.07-.035.203 0 .3.085.097.07.216.108.254.06.047-.05.023-.122-.048-.17-.085-.06-.11-.156-.036-.253.085-.144.17-.132.54.036.24.12.54.3.662.396.12.108.384.215.578.227.47.06 2.25.915 2.237 1.07-.012.06.06.23.145.36.097.134.168.326.168.447s.036.216.097.216c.048 0 .085.192.097.42 0 .326-.036.423-.204.423-.228 0-.83.77-.83 1.057 0 .17 1.083.17 1.214-.012.036-.047.254-.12.48-.144.386-.048.46-.012.867.53.446.577.458.588 1.107.588.373-.01.697.024.747.06.035.048.168.024.29-.036.18-.097.203-.085.167.12-.023.134-.084.302-.12.36-.035.073-.024.122.036.122.144 0 .265-.29.265-.614 0-.12.06-.227.122-.227.07 0 .12-.085.12-.193 0-.096.048-.156.11-.12.06.035.108-.06.108-.216 0-.48.877-1.107 1.154-.818.048.048.29.145.53.204.264.072.492.228.564.396.06.145.156.265.204.265.06 0 .096.097.096.228 0 .12.085.29.18.373.098.085.145.192.11.253-.036.058.023.108.12.108.11 0 .216.132.265.29.048.215.204.323.626.444.312.085.732.145.925.133.204 0 .482.07.626.168.314.192 1.19.228 1.3.048.047-.07.036-.12-.024-.108-.048.012-.18.012-.277 0-.146-.012-.146-.036-.025-.11.11-.07 0-.155-.336-.264-.435-.145-.663-.36-.362-.36.277 0 .097-.228-.204-.266-.277-.024-.325-.085-.3-.325.035-.265.01-.277-.314-.215-.324.07-.36.035-.516-.434-.097-.277-.373-.697-.614-.938-.253-.24-.457-.553-.457-.685 0-.216.07-.266.42-.266.326 0 .423-.048.423-.217 0-.253-.396-.66-.673-.697-.11-.01-.277-.108-.385-.204-.12-.096-.348-.204-.516-.253-.266-.06-.3-.122-.254-.373.024-.168.097-.3.157-.3s.11-.086.11-.193c0-.168-.037-.168-.182-.048-.156.133-.227.11-.42-.097-.134-.145-.24-.313-.24-.385s-.05-.11-.11-.06c-.06.036-.192-.023-.29-.12-.108-.097-.288-.18-.42-.18-.133 0-.3-.085-.385-.18-.07-.097-.445-.254-.817-.36-.383-.11-.902-.326-1.165-.47-.266-.156-.553-.253-.626-.228-.086.036-.157 0-.157-.06s-.228-.144-.493-.19c-.278-.05-.866-.28-1.31-.518-.76-.397-.843-.423-1.18-.266-.203.085-.395.253-.42.372-.037.132-.18.216-.373.216-.168 0-.313.047-.313.097 0 .058-.097.215-.204.36-.12.132-.3.36-.396.492-.097.145-.29.253-.434.253-.204 0-.29-.108-.41-.578-.084-.312-.18-.493-.203-.41-.085.217-.277.048-.277-.253 0-.216.023-.24.132-.085.11.144.12.132.048-.06-.048-.133-.097-.446-.12-.697-.06-.553-.157-.72-.36-.638-.086.024-.35-.047-.59-.18-.54-.274-.744-.274-1.286.014zM96.317 221.186c-.06.085-.156.29-.204.457-.048.168-.192.48-.337.697-.132.228-.253.626-.277.89-.025.264-.098.552-.17.637-.06.085-.144.493-.18.914-.07.916-.48 2.238-.793 2.587-.133.133-.228.3-.228.372 0 .24-.373.516-.674.516-.192 0-.47-.18-.77-.48-.265-.266-.578-.482-.697-.482-.122 0-.302-.133-.385-.3-.086-.17-.228-.302-.313-.302-.097 0-.192-.133-.24-.3-.085-.326-.29-.41-.29-.122 0 .12-.215-.023-.59-.372l-.59-.564.24-.254c.134-.144.29-.372.35-.528.06-.157.168-.24.24-.204.07.047.096.156.06.24-.06.156.37.336.55.227.098-.06.05-.625-.07-.746-.036-.037-.145.01-.254.096-.156.132-.18.11-.18-.17 0-.167.06-.3.133-.288.072.024.266-.203.434-.504.24-.446.254-.553.12-.662-.096-.06-.143-.192-.12-.277.036-.07 0-.144-.07-.144s-.134.048-.134.11c0 .06-.108.132-.253.168-.18.047-.228.024-.18-.11.085-.227 0-.215-.41.098-.277.204-.396.228-.505.12-.085-.084-.265-.144-.41-.144-.156 0-.348-.07-.433-.156-.086-.097-.23-.145-.314-.11-.07.025-.144-.06-.144-.18 0-.18-.024-.19-.12-.035-.11.157-.145.157-.254-.035-.072-.108-.17-.18-.24-.144-.06.048-.11-.035-.11-.167 0-.216-.034-.228-.3-.133-.168.06-.3.07-.3.036 0-.048-.06-.024-.145.06-.168.167.085.516.313.433.228-.086.348.3.168.515-.11.145-.313.17-.782.12-.36-.035-.637-.01-.637.05s-.06.108-.145.108c-.216 0-.806.72-.746.902.035.097-.048.216-.18.3-.145.073-.254.193-.254.266 0 .086-.12.267-.265.423-.216.228-.24.313-.11.384.278.18.025.36-.42.3-.24-.023-.517.013-.602.086-.145.12-.157.11-.097-.06.048-.12 0-.215-.12-.265-.11-.035-.193-.144-.193-.227 0-.096-.168-.288-.372-.433-.348-.24-.395-.253-.528-.07-.085.107-.168.18-.192.143-.133-.12-.83-.18-.83-.06 0 .06.06.12.12.12.073 0 .122.122.122.267-.012.265-.012.277-.18.047-.17-.216-.18-.216-.18-.024 0 .157-.06.192-.24.133-.204-.06-.24-.024-.24.253 0 .18-.036.3-.07.265-.134-.13-.698.53-.722.843-.012.18-.036.372-.036.433-.012.048-.204.06-.445.012-.278-.047-.41-.035-.362.048.048.06.024.144-.047.192-.084.048-.084.145 0 .313.086.133.086.23.013.23-.06 0-.133.096-.17.203-.022.12-.096-.012-.143-.3-.048-.278-.133-.506-.168-.506-.048 0-.29.204-.53.457-.348.35-.445.553-.445.877 0 .326-.108.542-.384.855-.216.24-.493.564-.613.746-.3.435-.878.71-1.55.734-.337.012-.662.097-.795.216-.12.108-.36.204-.528.204s-.373.085-.458.18c-.11.132-.302.168-.614.132-.266-.023-.493 0-.54.06-.037.06-.146.11-.24.11-.098 0-.35.155-.565.347-.203.204-.577.446-.817.553-.24.12-.505.348-.602.528l-.143.313-.072-.36c-.06-.29-.096-.325-.192-.18-.3.457-.42.782-.42 1.106 0 .192-.134.553-.302.794-.36.53-.36.638-.084 1.55.277.903.216 1.36-.097.686l-.217-.47-.12.3-.12.302-.134-.3c-.122-.266-.134-.228-.072.227.035.29.156.685.253.877.11.203.205.637.23.985.023.337.084.77.12.975.047.192.084.516.07.72 0 .192-.023 1.01-.035 1.792-.024 1.022-.085 1.455-.18 1.48-.085.035-.156.18-.156.324 0 .36-.326.794-.615.794-.145 0-.277.12-.35.313-.167.433-.155.528.11.528.133 0 .265.098.3.217.098.29.482.47 1.18.553.54.06 1.177-.097 1.177-.29 0-.096.384-.253.733-.3.11-.012.3-.133.433-.265.3-.3 1.167-.422 2.586-.35l1.034.06.528-.54c.278-.29.614-.53.72-.53s.23-.046.266-.108c.036-.06.216-.144.397-.192.19-.035.432-.156.54-.265.144-.132.324-.156.6-.11.397.073 2.058-.3 2.32-.527.073-.06.627-.145 1.24-.192 1.046-.084 1.13-.07 1.408.193.157.144.36.24.446.216.085-.037.36.07.602.226.253.145.516.277.6.277.11 0 .11.036 0 .145-.203.204-.18.578.025.578.278 0 .41 1.095.158 1.25-.17.11-.145.17.192.47.384.337.384.337.42.072.05-.3.82-1.07 1.072-1.07.097 0 .422-.24.72-.542.302-.3.58-.517.627-.47.034.05 0 .11-.073.134-.085.035-.156.156-.156.277 0 .12-.144.3-.312.42-.168.11-.384.385-.48.615-.098.228-.302.47-.446.517-.157.058-.35.203-.446.323-.168.193-.156.204.12.133.17-.048.397-.085.518-.085.12 0 .324-.19.457-.42.145-.228.302-.422.36-.422.24 0 .086.602-.252.938-.396.396-.36.53.12.434.278-.06.35-.012.482.324.144.35.144.434-.072.818-.204.372-.227.493-.108.842.085.227.265.457.41.505.132.058.253.143.253.203 0 .06.216.108.493.108s.528.06.578.122c.035.07.192.18.336.265.228.12.36.097.842-.156.313-.167.602-.264.637-.215s.264.192.516.313c.24.132.445.313.445.41 0 .144.05.144.255-.048.697-.626 1.972-1.25 2.597-1.25.77 0 1.467-.386 1.48-.807 0-.085.132-.29.3-.47.17-.18.3-.384.3-.47 0-.07.24-.36.542-.636.3-.277.806-.818 1.106-1.202.733-.915 1.323-1.48 1.876-1.768.24-.133.445-.3.445-.372 0-.072.145-.29.338-.493.54-.59.746-.877.746-1.022 0-.085.12-.337.277-.564.686-1.046 1.072-1.756 1.12-2.105.035-.203.144-.577.24-.84.19-.493.132-.782-.06-.3-.06.155-.12.226-.12.167-.013-.133.203-.986.312-1.263.036-.097.06-.228.047-.277-.012-.06.096-.277.227-.505.133-.216.24-.493.228-.614 0-.168-.024-.18-.07-.047-.182.494-.64.58-.64.11 0-.12-.046-.228-.108-.228s-.132-.17-.168-.36c-.05-.205-.157-.36-.254-.36s-.192-.122-.216-.278c-.024-.145-.11-.254-.192-.228-.133.024-.145-.12-.072-.65.072-.65.072-.685-.168-.625-.156.048-.277 0-.313-.108-.06-.156-.11-.156-.265-.024s-.18.085-.156-.336c.023-.3-.048-.614-.17-.806-.252-.372-.252-.434-.022-.434.12 0 .168-.097.132-.277-.024-.144-.11-.253-.192-.228-.204.048-.95-.47-1.034-.72-.035-.12-.132-.18-.24-.133-.084.036-.168 0-.168-.085 0-.072-.047-.11-.108-.072-.18.12-.41-.277-.35-.59.037-.17.013-.337-.046-.373-.048-.035-.06-.12-.024-.192.144-.227.047-1.213-.133-1.42-.18-.19-.205-1.478-.025-1.755.048-.085-.047-.228-.24-.35-.288-.19-.3-.227-.12-.36.144-.108.168-.167.06-.276-.086-.085-.228-.145-.325-.133-.133 0-.12.035.047.108.24.11.24.11 0 .12-.132.024-.277.024-.324.013-.06 0-.097.036-.097.11 0 .06-.085.12-.192.12-.145 0-.17-.12-.145-.602.023-.445.084-.59.19-.54.122.047.158-.06.146-.396-.012-.24-.012-.47 0-.505.085-.254.085-.48-.012-.48-.12 0-.157.238-.12.828.023.24-.013.372-.086.325-.07-.036-.11-.168-.085-.29.012-.108-.024-.264-.085-.336-.12-.168-.085-.42.085-.564.072-.06.036-.085-.085-.036-.204.06-.517-.3-.384-.445.036-.037.036-.23-.012-.435-.083-.386-.3-.48-.515-.23zm-28.404 16.15c0 .097-.023.18-.047.18s-.072-.085-.12-.18c-.037-.097-.013-.18.047-.18.073 0 .12.083.12.18zM90.76 249.6c-.084.11-.18.158-.203.134-.085-.085.085-.313.228-.313.072 0 .072.072-.024.18zM89.03 252.282c-.17.253-.338.685-.36.962-.037.266-.122.602-.193.733-.072.145-.12.47-.097.72.023.422.06.482.372.54.372.073 1.166-.226 1.166-.432 0-.085.06-.085.157 0 .12.097.24.047.48-.216.18-.18.325-.423.325-.53 0-.108.097-.192.228-.192.145 0 .277-.11.325-.277.047-.143.204-.456.36-.696.373-.59.216-.72-.59-.493-1.057.29-1.094.29-1.346.06-.133-.132-.29-.253-.36-.288-.06-.024-.11-.12-.085-.204.062-.25-.046-.155-.383.314z"/></g></g></svg>