<?xml version="1.0" encoding="utf-8"?>
<!-- Generator: Adobe Illustrator 17.0.0, SVG Export Plug-In . SVG Version: 6.00 Build 0)  -->
<!DOCTYPE svg PUBLIC "-//W3C//DTD SVG 1.1//EN" "http://www.w3.org/Graphics/SVG/1.1/DTD/svg11.dtd">
<svg version="1.1" id="Layer_1" xmlns="http://www.w3.org/2000/svg" xmlns:xlink="http://www.w3.org/1999/xlink" x="0px" y="0px"
	 width="458.085px" height="210.229px" viewBox="0 0 458.085 210.229" enable-background="new 0 0 458.085 210.229"
	 xml:space="preserve">
<g>
	<g>
		<g>
			<path fill="#0F95DA" d="M25.592,95.14c0,0-0.577-7.717,9.231-9.087C34.823,86.053,35.473,94.707,25.592,95.14z"/>
			<path fill="#0F95DA" d="M22.04,100.423c0,0,3.462-6.921,12.585-3.068C34.625,97.355,30.745,105.118,22.04,100.423z"/>
			<path fill="#0F95DA" d="M21.769,87.086c0,0,5.619,5.321-0.715,12.934C21.054,100.019,14.751,94.053,21.769,87.086z"/>
			<path fill="#0F95DA" d="M17.057,107.755c0,0,2.638-7.275,12.145-4.503C29.203,103.252,26.247,111.412,17.057,107.755z"/>
			<path fill="#0F95DA" d="M15.245,94.539c0,0,6.197,4.635,0.786,12.93C16.031,107.468,9.08,102.272,15.245,94.539z"/>
			<path fill="#0F95DA" d="M13.519,115.946c0,0,1.307-7.627,11.155-6.584C24.674,109.362,23.21,117.916,13.519,115.946z"/>
			<path fill="#0F95DA" d="M9.393,103.259c0,0,6.92,3.464,3.064,12.586C12.457,115.845,4.695,111.962,9.393,103.259z"/>
			<path fill="#0F95DA" d="M11.635,124.599c0,0,0.376-7.729,10.278-7.884C21.913,116.716,21.493,125.384,11.635,124.599z"/>
			<path fill="#0F95DA" d="M6.006,112.504c0,0,7.288,2.602,4.562,12.123C10.569,124.628,2.395,121.711,6.006,112.504z"/>
			<path fill="#0F95DA" d="M10.61,133.452c0,0-0.683-7.708,9.106-9.213C19.716,124.239,20.484,132.884,10.61,133.452z"/>
			<path fill="#0F95DA" d="M3.383,122.238c0,0,7.575,1.583,6.175,11.387C9.558,133.625,1.062,131.852,3.383,122.238z"/>
			<path fill="#0F95DA" d="M11.332,142.26c0,0-2.257-7.402,7.01-10.892C18.342,131.367,20.876,139.668,11.332,142.26z"/>
			<path fill="#0F95DA" d="M1.948,132.777c0,0,7.738-0.013,8.39,9.869C10.338,142.646,1.659,142.663,1.948,132.777z"/>
			<path fill="#0F95DA" d="M13.17,151.247c0,0-3.565-6.868,4.915-11.985C18.085,139.262,22.085,146.964,13.17,151.247z"/>
			<path fill="#0F95DA" d="M2.22,143.627c0,0,7.607-1.419,10.044,8.18C12.263,151.808,3.732,153.401,2.22,143.627z"/>
			<path fill="#0F95DA" d="M16.415,159.667c0,0-4.519-6.281,3.132-12.569C19.547,147.098,24.617,154.142,16.415,159.667z"/>
			<path fill="#0F95DA" d="M4.478,153.204c0,0,7.322-2.503,11.12,6.644C15.598,159.848,7.387,162.657,4.478,153.204z"/>
			<path fill="#0F95DA" d="M21.636,167.395c0,0-5.668-5.268,0.595-12.94C22.231,154.456,28.589,160.363,21.636,167.395z"/>
			<path fill="#0F95DA" d="M8.661,163.41c0,0,6.686-3.896,12.21,4.324C20.871,167.734,13.373,172.105,8.661,163.41z"/>
			<path fill="#0F95DA" d="M27.21,174.657c0,0-6.375-4.386-1.296-12.888C25.914,161.769,33.065,166.687,27.21,174.657z"/>
			<path fill="#0F95DA" d="M13.793,172.605c0,0,6.047-4.828,12.71,2.499C26.503,175.104,19.722,180.52,13.793,172.605z"/>
			<path fill="#0F95DA" d="M33.758,180.486c0,0-6.498-3.672-2.342-12.273C31.415,168.213,38.704,172.33,33.758,180.486z"/>
			<path fill="#0F95DA" d="M20.692,179.655c0,0,5.399-5.153,12.424,1.319C33.116,180.975,27.062,186.756,20.692,179.655z"/>
			<path fill="#0F95DA" d="M41.565,185.106c0,0-7.07-2.392-4.595-11.618C36.97,173.487,44.9,176.169,41.565,185.106z"/>
			<path fill="#0F95DA" d="M28.574,186.733c0,0,4.341-6.072,12.452-1.027C41.026,185.706,36.159,192.517,28.574,186.733z"/>
			<path fill="#0F95DA" d="M49.612,188.979c0,0-7.335-1.383-6.171-10.864C43.442,178.115,51.668,179.664,49.612,188.979z"/>
			<path fill="#0F95DA" d="M36.975,192.402c0,0,3.451-6.618,12.187-2.753C49.162,189.649,45.293,197.072,36.975,192.402z"/>
			<path fill="#0F95DA" d="M57.682,190.967c0,0-7.46-0.238-7.769-9.785C49.912,181.182,58.279,181.447,57.682,190.967z"/>
			<path fill="#0F95DA" d="M45.722,196.294c0,0,2.392-7.07,11.618-4.596C57.34,191.698,54.659,199.628,45.722,196.294z"/>
		</g>
		<g>
			<path fill="#0F95DA" d="M432.493,95.14c0,0,0.577-7.717-9.231-9.087C423.262,86.053,422.613,94.707,432.493,95.14z"/>
			<path fill="#0F95DA" d="M436.044,100.423c0,0-3.462-6.921-12.585-3.068C423.46,97.355,427.341,105.118,436.044,100.423z"/>
			<path fill="#0F95DA" d="M436.316,87.086c0,0-5.619,5.321,0.715,12.934C437.031,100.019,443.335,94.053,436.316,87.086z"/>
			<path fill="#0F95DA" d="M441.027,107.755c0,0-2.638-7.275-12.145-4.503C428.883,103.252,431.839,111.412,441.027,107.755z"/>
			<path fill="#0F95DA" d="M442.841,94.539c0,0-6.197,4.635-0.786,12.93C442.055,107.468,449.006,102.272,442.841,94.539z"/>
			<path fill="#0F95DA" d="M444.566,115.946c0,0-1.307-7.627-11.155-6.584C433.411,109.362,434.875,117.916,444.566,115.946z"/>
			<path fill="#0F95DA" d="M448.693,103.259c0,0-6.92,3.464-3.064,12.586C445.628,115.845,453.389,111.962,448.693,103.259z"/>
			<path fill="#0F95DA" d="M446.451,124.599c0,0-0.376-7.729-10.278-7.884C436.172,116.716,436.592,125.384,446.451,124.599z"/>
			<path fill="#0F95DA" d="M452.079,112.504c0,0-7.288,2.602-4.562,12.123C447.517,124.628,455.69,121.711,452.079,112.504z"/>
			<path fill="#0F95DA" d="M447.475,133.452c0,0,0.683-7.708-9.106-9.213C438.37,124.239,437.602,132.884,447.475,133.452z"/>
			<path fill="#0F95DA" d="M454.702,122.238c0,0-7.575,1.583-6.175,11.387C448.527,133.625,457.023,131.852,454.702,122.238z"/>
			<path fill="#0F95DA" d="M446.754,142.26c0,0,2.257-7.402-7.01-10.892C439.743,131.367,437.21,139.668,446.754,142.26z"/>
			<path fill="#0F95DA" d="M456.138,132.777c0,0-7.738-0.013-8.39,9.869C447.747,142.646,456.426,142.663,456.138,132.777z"/>
			<path fill="#0F95DA" d="M444.915,151.247c0,0,3.565-6.868-4.915-11.985C440,139.262,436.001,146.964,444.915,151.247z"/>
			<path fill="#0F95DA" d="M455.866,143.627c0,0-7.607-1.419-10.044,8.18C445.822,151.808,454.353,153.401,455.866,143.627z"/>
			<path fill="#0F95DA" d="M441.671,159.667c0,0,4.519-6.281-3.132-12.569C438.539,147.098,433.469,154.142,441.671,159.667z"/>
			<path fill="#0F95DA" d="M453.607,153.204c0,0-7.322-2.503-11.12,6.644C442.487,159.848,450.699,162.657,453.607,153.204z"/>
			<path fill="#0F95DA" d="M436.45,167.395c0,0,5.668-5.268-0.595-12.94C435.854,154.456,429.496,160.363,436.45,167.395z"/>
			<path fill="#0F95DA" d="M449.424,163.41c0,0-6.686-3.896-12.21,4.324C437.214,167.734,444.712,172.105,449.424,163.41z"/>
			<path fill="#0F95DA" d="M430.875,174.657c0,0,6.375-4.386,1.296-12.888C432.171,161.769,425.02,166.687,430.875,174.657z"/>
			<path fill="#0F95DA" d="M444.292,172.605c0,0-6.047-4.828-12.71,2.499C431.582,175.104,438.363,180.52,444.292,172.605z"/>
			<path fill="#0F95DA" d="M424.328,180.486c0,0,6.498-3.672,2.342-12.273C426.669,168.213,419.381,172.33,424.328,180.486z"/>
			<path fill="#0F95DA" d="M437.394,179.655c0,0-5.399-5.153-12.424,1.319C424.97,180.975,431.023,186.756,437.394,179.655z"/>
			<path fill="#0F95DA" d="M416.521,185.106c0,0,7.07-2.392,4.595-11.618C421.116,173.487,413.186,176.169,416.521,185.106z"/>
			<path fill="#0F95DA" d="M429.51,186.733c0,0-4.341-6.072-12.452-1.027C417.06,185.706,421.926,192.517,429.51,186.733z"/>
			<path fill="#0F95DA" d="M408.473,188.979c0,0,7.335-1.383,6.171-10.864C414.644,178.115,406.418,179.664,408.473,188.979z"/>
			<path fill="#0F95DA" d="M421.109,192.402c0,0-3.451-6.618-12.187-2.753C408.923,189.649,412.792,197.072,421.109,192.402z"/>
			<path fill="#0F95DA" d="M400.404,190.967c0,0,7.46-0.238,7.769-9.785C408.173,181.182,399.806,181.447,400.404,190.967z"/>
			<path fill="#0F95DA" d="M412.363,196.294c0,0-2.392-7.07-11.618-4.596C400.746,191.698,403.426,199.628,412.363,196.294z"/>
		</g>
	</g>
	<g>
		<path fill="#0F95DA" d="M228.885,13.116c-14.111,0-25.55,11.439-25.55,25.55s11.439,25.55,25.55,25.55
			c14.111,0,25.55-11.439,25.55-25.55S242.996,13.116,228.885,13.116z M243.134,47.785c-0.209,2.189-1.522,3.442-3.374,4.322
			c-1.154,0.546-2.358,0.843-3.867,0.842c-0.286-0.044-0.808-0.086-1.31-0.208c-5.185-1.26-9.454-4.006-13.134-7.843
			c-3.249-3.387-5.459-7.295-6.61-11.816c-0.735-2.886,0.219-5.367,2.126-7.485c0.969-1.077,2.422-1.16,3.797-1.212
			c0.191-0.007,0.451,0.184,0.577,0.357c0.328,0.452,0.608,0.94,0.892,1.423c0.791,1.343,1.564,2.696,2.365,4.032
			c0.561,0.936,0.559,1.338-0.251,2.109c-0.721,0.686-1.519,1.288-2.26,1.954c-0.908,0.817-0.918,1.179-0.353,2.257
			c2.14,4.079,5.256,7.167,9.322,9.318c1.054,0.557,1.465,0.522,2.256-0.377c0.658-0.748,1.28-1.528,1.95-2.264
			c0.649-0.712,1.187-0.757,2.013-0.277c1.609,0.935,3.22,1.866,4.84,2.784C243.217,46.326,243.254,46.526,243.134,47.785z"/>
		<g>
			<g>
				<path fill="#0F95DA" d="M56.961,38.884l-3.425-0.498c-0.166-0.024-0.309-0.128-0.383-0.278l-1.532-3.104
					c-0.187-0.378-0.726-0.378-0.913,0l-1.532,3.104c-0.074,0.15-0.217,0.254-0.383,0.278l-3.425,0.498
					c-0.417,0.061-0.584,0.574-0.282,0.868l2.478,2.416c0.12,0.117,0.175,0.285,0.146,0.45l-0.585,3.411
					c-0.071,0.416,0.365,0.733,0.738,0.536l3.063-1.611c0.148-0.078,0.325-0.078,0.474,0l3.064,1.611
					c0.373,0.196,0.81-0.121,0.738-0.536l-0.585-3.411c-0.028-0.165,0.027-0.334,0.146-0.45l2.478-2.416
					C57.545,39.457,57.378,38.945,56.961,38.884z"/>
				<path fill="#0F95DA" d="M89.785,38.884l-3.425-0.498c-0.166-0.024-0.309-0.128-0.383-0.278l-1.532-3.104
					c-0.187-0.378-0.726-0.378-0.913,0L82,38.108c-0.074,0.15-0.217,0.254-0.383,0.278l-3.425,0.498
					c-0.417,0.061-0.584,0.574-0.282,0.868l2.478,2.416c0.12,0.117,0.175,0.285,0.146,0.45l-0.585,3.411
					c-0.071,0.416,0.365,0.733,0.738,0.536l3.064-1.611c0.148-0.078,0.325-0.078,0.474,0l3.063,1.611
					c0.373,0.196,0.81-0.121,0.738-0.536l-0.585-3.411c-0.028-0.165,0.026-0.334,0.146-0.45l2.478-2.416
					C90.369,39.457,90.202,38.945,89.785,38.884z"/>
				<path fill="#0F95DA" d="M120.763,38.884l-3.425-0.498c-0.166-0.024-0.309-0.128-0.383-0.278l-1.532-3.104
					c-0.187-0.378-0.726-0.378-0.913,0l-1.532,3.104c-0.074,0.15-0.217,0.254-0.383,0.278l-3.425,0.498
					c-0.417,0.061-0.584,0.574-0.282,0.868l2.478,2.416c0.12,0.117,0.175,0.285,0.146,0.45l-0.584,3.411
					c-0.071,0.416,0.365,0.733,0.738,0.537l3.064-1.611c0.148-0.078,0.325-0.078,0.474,0l3.064,1.611
					c0.373,0.196,0.81-0.121,0.738-0.536l-0.585-3.411c-0.028-0.165,0.027-0.334,0.146-0.45l2.478-2.416
					C121.347,39.457,121.18,38.945,120.763,38.884z"/>
			</g>
			<g>
				<path fill="#0F95DA" d="M348.6,38.884l-3.425-0.498c-0.166-0.024-0.309-0.128-0.383-0.278l-1.532-3.104
					c-0.187-0.378-0.726-0.378-0.913,0l-1.532,3.104c-0.074,0.15-0.217,0.254-0.383,0.278l-3.425,0.498
					c-0.417,0.061-0.584,0.574-0.282,0.868l2.478,2.416c0.12,0.117,0.175,0.285,0.147,0.45l-0.585,3.411
					c-0.071,0.416,0.365,0.733,0.738,0.536l3.064-1.611c0.148-0.078,0.325-0.078,0.474,0l3.063,1.611
					c0.373,0.196,0.81-0.121,0.738-0.536l-0.585-3.411c-0.028-0.165,0.027-0.334,0.146-0.45l2.478-2.416
					C349.184,39.457,349.018,38.945,348.6,38.884z"/>
				<path fill="#0F95DA" d="M381.424,38.884l-3.425-0.498c-0.166-0.024-0.309-0.128-0.383-0.278l-1.532-3.104
					c-0.187-0.378-0.726-0.378-0.913,0l-1.532,3.104c-0.074,0.15-0.217,0.254-0.383,0.278l-3.425,0.498
					c-0.417,0.061-0.584,0.574-0.282,0.868l2.478,2.416c0.12,0.117,0.174,0.285,0.146,0.45l-0.585,3.411
					c-0.071,0.416,0.365,0.733,0.738,0.536l3.063-1.611c0.148-0.078,0.325-0.078,0.474,0l3.064,1.611
					c0.373,0.196,0.81-0.121,0.738-0.536l-0.585-3.411c-0.028-0.165,0.026-0.334,0.146-0.45l2.478-2.416
					C382.008,39.457,381.841,38.945,381.424,38.884z"/>
				<path fill="#0F95DA" d="M412.684,39.752c0.302-0.294,0.135-0.807-0.282-0.868l-3.425-0.498
					c-0.166-0.024-0.309-0.128-0.383-0.278l-1.532-3.104c-0.187-0.378-0.726-0.378-0.913,0l-1.532,3.104
					c-0.074,0.15-0.217,0.254-0.383,0.278l-3.425,0.498c-0.417,0.061-0.584,0.574-0.282,0.868l2.478,2.416
					c0.12,0.117,0.175,0.285,0.146,0.45l-0.585,3.411c-0.071,0.416,0.365,0.733,0.738,0.536l3.064-1.611
					c0.148-0.078,0.325-0.078,0.474,0l3.064,1.611c0.373,0.196,0.81-0.121,0.738-0.536l-0.585-3.411
					c-0.028-0.165,0.027-0.334,0.146-0.45L412.684,39.752z"/>
			</g>
		</g>
		<g>
			<rect x="264.466" y="30.74" fill="#0F95DA" width="27.388" height="2.568"/>
			<rect x="264.466" y="38.105" fill="#0F95DA" width="38.42" height="2.568"/>
			<rect x="264.466" y="45.47" fill="#0F95DA" width="27.388" height="2.568"/>
			<rect x="165.916" y="30.74" fill="#0F95DA" width="27.388" height="2.568"/>
			<rect x="154.884" y="38.105" fill="#0F95DA" width="38.42" height="2.568"/>
			<rect x="165.916" y="45.47" fill="#0F95DA" width="27.388" height="2.568"/>
		</g>
	</g>
</g>
</svg>
